<?xml version="1.0" encoding="UTF-8" standalone="no"?>
<svg
   xmlns:dc="http://purl.org/dc/elements/1.1/"
   xmlns:cc="http://creativecommons.org/ns#"
   xmlns:rdf="http://www.w3.org/1999/02/22-rdf-syntax-ns#"
   xmlns:svg="http://www.w3.org/2000/svg"
   xmlns="http://www.w3.org/2000/svg"
   xmlns:xlink="http://www.w3.org/1999/xlink"
   xmlns:sodipodi="http://sodipodi.sourceforge.net/DTD/sodipodi-0.dtd"
   xmlns:inkscape="http://www.inkscape.org/namespaces/inkscape"
   width="64"
   height="64"
   version="1.1"
   viewBox="0 0 16.933 16.933"
   id="svg87"
   sodipodi:docname="default-folder-open.svg"
   inkscape:version="1.0.1 (3bc2e813f5, 2020-09-07)">
  <sodipodi:namedview
     pagecolor="#ffffff"
     bordercolor="#666666"
     borderopacity="1"
     objecttolerance="10"
     gridtolerance="10"
     guidetolerance="10"
     inkscape:pageopacity="0"
     inkscape:pageshadow="2"
     inkscape:window-width="1920"
     inkscape:window-height="975"
     id="namedview89"
     showgrid="false"
     inkscape:zoom="1.1476675"
     inkscape:cx="-188.22988"
     inkscape:cy="71.374768"
     inkscape:window-x="0"
     inkscape:window-y="0"
     inkscape:window-maximized="1"
     inkscape:current-layer="svg87" />
  <defs
     id="defs19">
    <linearGradient
       inkscape:collect="always"
       id="linearGradient1113">
      <stop
         style="stop-color:#0078e1;stop-opacity:1"
         offset="0"
         id="stop1109" />
      <stop
         style="stop-color:#00b9ff;stop-opacity:1"
         offset="1"
         id="stop1111" />
    </linearGradient>
    <style
       type="text/css"
       id="style2" />
    <linearGradient
       id="linearGradient1064"
       x1="-15.961"
       x2="-.30109"
       y1="-43.254"
       y2="-54.196"
       gradientTransform="matrix(1,0,0,1.1,16.669,61.972207)"
       gradientUnits="userSpaceOnUse">
      <stop
         stop-color="#005ae1"
         offset="0"
         id="stop4"
         style="stop-color:#0078e1;stop-opacity:1" />
      <stop
         stop-color="#059bff"
         offset="1"
         id="stop6"
         style="stop-color:#05b9ff;stop-opacity:1" />
    </linearGradient>
    <linearGradient
       id="linearGradient1006"
       x1=".52939"
       x2="16.217"
       y1="2.7784"
       y2="14.872"
       gradientTransform="matrix(1,0,0,1.1,16.669295,61.971837)"
       gradientUnits="userSpaceOnUse">
      <stop
         stop-color="#005ae1"
         offset="0"
         id="stop9" />
      <stop
         stop-color="#059bff"
         offset="1"
         id="stop11" />
    </linearGradient>
    <linearGradient
       id="linearGradient969"
       x1="-16.14"
       x2="-1.0699"
       y1="-55.616"
       y2="-44.835"
       gradientTransform="matrix(1,0,0,1.1,16.669,62.435)"
       gradientUnits="userSpaceOnUse">
      <stop
         stop-color="#005ae1"
         offset="0"
         id="stop14" />
      <stop
         stop-color="#059bff"
         offset="1"
         id="stop16" />
    </linearGradient>
    <linearGradient
       inkscape:collect="always"
       xlink:href="#linearGradient1113"
       id="linearGradient1115"
       x1="-18.391426"
       y1="14.5956"
       x2="-1.1101381"
       y2="3.9203176"
       gradientUnits="userSpaceOnUse"
       gradientTransform="translate(19.009688)" />
  </defs>
  <metadata
     id="metadata21">
    <rdf:RDF>
      <cc:Work
         rdf:about="">
        <dc:format>image/svg+xml</dc:format>
        <dc:type
           rdf:resource="http://purl.org/dc/dcmitype/StillImage" />
        <dc:title></dc:title>
      </cc:Work>
    </rdf:RDF>
  </metadata>
  <g
     id="g1211"
     transform="translate(20.337024)">
    <path
       id="rect2006"
       style="fill:#0079e1;fill-opacity:1;stroke:none;stroke-width:0.0334686;stroke-linecap:round"
       d="m -19.013617,3.7699797 c -0.219863,0 -0.418245,0.088556 -0.561711,0.2320226 -0.143467,0.1434667 -0.232023,0.3418486 -0.232023,0.5617118 v 9.2607509 c 0,0.219863 0.08856,0.418245 0.232023,0.561712 0.143466,0.143467 0.341848,0.232023 0.561711,0.232023 h 14.286702 c 0.219864,0 0.418245,-0.08856 0.561712,-0.232023 0.143467,-0.143467 0.232022,-0.341849 0.232022,-0.561712 V 4.5637141 c 0,-0.2198632 -0.08855,-0.4182451 -0.232022,-0.5617118 C -4.30867,3.8585355 -4.507051,3.7699797 -4.726915,3.7699797 Z" />
    <path
       id="rect1694"
       style="fill:#0078e1;fill-opacity:1;stroke:none;stroke-width:0.0334686;stroke-linecap:round"
       d="m -19.146422,2.3148002 c -0.18265,0 -0.347965,0.081238 -0.467663,0.2129028 -0.119697,0.1316648 -0.193783,0.3137668 -0.193783,0.5146869 v 4.001744 h 7.937344 V 3.7699797 l -1.653613,-1.4551795 z" />
  </g>
  <g
     fill="#5e4aa6"
     stroke-width=".26458"
     id="g69">
    <circle
       cx="-330.35"
       cy="-328.38"
       r="0"
       id="circle23" />
    <circle
       cx="-312.11"
       cy="-326.25"
       r="0"
       id="circle25" />
    <circle
       cx="-306.02"
       cy="-333.07"
       r="0"
       id="circle27" />
    <circle
       cx="-308.84"
       cy="-326.01"
       r="0"
       id="circle29" />
    <circle
       cx="-328.8"
       cy="-330.45"
       r="0"
       id="circle31" />
    <g
       transform="translate(24.108 -4.592)"
       id="g43">
      <circle
         cx="-330.35"
         cy="-328.38"
         r="0"
         id="circle33" />
      <circle
         cx="-312.11"
         cy="-326.25"
         r="0"
         id="circle35" />
      <circle
         cx="-306.02"
         cy="-333.07"
         r="0"
         id="circle37" />
      <circle
         cx="-308.84"
         cy="-326.01"
         r="0"
         id="circle39" />
      <circle
         cx="-328.8"
         cy="-330.45"
         r="0"
         id="circle41" />
    </g>
    <g
       transform="translate(2.3479 -14.944)"
       id="g55">
      <circle
         cx="-330.35"
         cy="-328.38"
         r="0"
         id="circle45" />
      <circle
         cx="-312.11"
         cy="-326.25"
         r="0"
         id="circle47" />
      <circle
         cx="-306.02"
         cy="-333.07"
         r="0"
         id="circle49" />
      <circle
         cx="-308.84"
         cy="-326.01"
         r="0"
         id="circle51" />
      <circle
         cx="-328.8"
         cy="-330.45"
         r="0"
         id="circle53" />
    </g>
    <g
       transform="translate(.000295 -.00036978)"
       id="g67">
      <circle
         cx="-330.35"
         cy="-328.38"
         r="0"
         id="circle57" />
      <circle
         cx="-312.11"
         cy="-326.25"
         r="0"
         id="circle59" />
      <circle
         cx="-306.02"
         cy="-333.07"
         r="0"
         id="circle61" />
      <circle
         cx="-308.84"
         cy="-326.01"
         r="0"
         id="circle63" />
      <circle
         cx="-328.8"
         cy="-330.45"
         r="0"
         id="circle65" />
    </g>
  </g>
  <rect
     x="0.973405"
     y="4.2331371"
     width="14.987"
     height="9.9216995"
     ry="0.29919001"
     fill="#fffffc"
     id="rect77" />
  <rect
     x="2.1164999"
     y="7.0286069"
     width="12.7"
     height="0.26458001"
     ry="0.13229001"
     fill="#dcdcdc"
     stroke-width="0.89442"
     id="rect81" />
  <rect
     x="2.1164999"
     y="8.6385069"
     width="12.7"
     height="0.26458001"
     ry="0.13229001"
     fill="#dcdcdc"
     stroke-width="0.89442"
     id="rect83" />
  <path
     id="rect1087"
     style="fill:url(#linearGradient1115);fill-opacity:1;stroke-width:0.0275161;stroke-linecap:round"
     d="M 8.4662421,9.6891402 6.8126281,11.14432 H 1.1903428 c -0.182655,0 -0.34796595,0.08175 -0.46766195,0.213419 -0.119696,0.131668 -0.193783,0.313251 -0.193783,0.514171 v 2.017925 c 0,0.20092 0.07409,0.383019 0.193783,0.514687 0.119697,0.131667 0.28501195,0.212902 0.46766195,0.212902 H 15.742657 c 0.182655,0 0.347963,-0.08123 0.467662,-0.212902 0.119699,-0.131668 0.193783,-0.313767 0.193783,-0.514687 V 10.41673 c 0,-0.20092 -0.07408,-0.38302 -0.193783,-0.5146872 C 16.09062,9.7703752 15.925312,9.6891402 15.742657,9.6891402 h -5.17e-4 z" />
</svg>
