<?xml version="1.0" encoding="UTF-8" standalone="no"?>
<svg
   xmlns:dc="http://purl.org/dc/elements/1.1/"
   xmlns:cc="http://creativecommons.org/ns#"
   xmlns:rdf="http://www.w3.org/1999/02/22-rdf-syntax-ns#"
   xmlns:svg="http://www.w3.org/2000/svg"
   xmlns="http://www.w3.org/2000/svg"
   xmlns:xlink="http://www.w3.org/1999/xlink"
   xmlns:sodipodi="http://sodipodi.sourceforge.net/DTD/sodipodi-0.dtd"
   xmlns:inkscape="http://www.inkscape.org/namespaces/inkscape"
   width="64"
   height="64"
   version="1.1"
   viewBox="0 0 16.933 16.933"
   id="svg61"
   sodipodi:docname="default-folder-music.svg"
   inkscape:version="1.0.1 (3bc2e813f5, 2020-09-07)">
  <sodipodi:namedview
     pagecolor="#ffffff"
     bordercolor="#666666"
     borderopacity="1"
     objecttolerance="10"
     gridtolerance="10"
     guidetolerance="10"
     inkscape:pageopacity="0"
     inkscape:pageshadow="2"
     inkscape:window-width="1920"
     inkscape:window-height="975"
     id="namedview63"
     showgrid="false"
     inkscape:zoom="6.4921875"
     inkscape:cx="1.6893774"
     inkscape:cy="29.822885"
     inkscape:window-x="0"
     inkscape:window-y="0"
     inkscape:window-maximized="1"
     inkscape:current-layer="svg61" />
  <defs
     id="defs19">
    <style
       type="text/css"
       id="style2" />
    <linearGradient
       id="linearGradient1064"
       x1="-15.961"
       x2="-.30109"
       y1="-43.254"
       y2="-54.196"
       gradientTransform="matrix(1 0 0 1.1 16.669 62.435)"
       gradientUnits="userSpaceOnUse">
      <stop
         stop-color="#005ae1"
         offset="0"
         id="stop4" />
      <stop
         stop-color="#059bff"
         offset="1"
         id="stop6" />
    </linearGradient>
    <linearGradient
       id="linearGradient1006"
       x1=".52939"
       x2="16.217"
       y1="2.7784"
       y2="14.872"
       gradientTransform="matrix(1,0,0,1.1,16.669,62.435)"
       gradientUnits="userSpaceOnUse">
      <stop
         stop-color="#005ae1"
         offset="0"
         id="stop9" />
      <stop
         stop-color="#059bff"
         offset="1"
         id="stop11" />
    </linearGradient>
    <linearGradient
       id="linearGradient945"
       x1="-16.14"
       x2="-1.0699"
       y1="-55.616"
       y2="-44.835"
       gradientTransform="matrix(1,0,0,1.1,16.669,62.435)"
       gradientUnits="userSpaceOnUse">
      <stop
         stop-color="#005ae1"
         offset="0"
         id="stop14" />
      <stop
         stop-color="#059bff"
         offset="1"
         id="stop16" />
    </linearGradient>
    <linearGradient
       inkscape:collect="always"
       xlink:href="#linearGradient1775"
       id="linearGradient1777"
       x1="0.52968556"
       y1="15.0813"
       x2="16.774235"
       y2="2.5022037"
       gradientUnits="userSpaceOnUse"
       gradientTransform="translate(-22.241213,-0.46327015)" />
    <linearGradient
       inkscape:collect="always"
       id="linearGradient1775">
      <stop
         style="stop-color:#0078e1;stop-opacity:1"
         offset="0"
         id="stop1771" />
      <stop
         style="stop-color:#05b9ff;stop-opacity:1"
         offset="1"
         id="stop1773" />
    </linearGradient>
  </defs>
  <metadata
     id="metadata21">
    <rdf:RDF>
      <cc:Work
         rdf:about="">
        <dc:format>image/svg+xml</dc:format>
        <dc:type
           rdf:resource="http://purl.org/dc/dcmitype/StillImage" />
        <dc:title></dc:title>
      </cc:Work>
    </rdf:RDF>
  </metadata>
  <g
     id="g921"
     transform="translate(22.241213)">
    <path
       id="rect2006"
       style="fill:#0079e1;fill-opacity:1;stroke:none;stroke-width:0.0334686;stroke-linecap:round"
       d="m -20.917806,3.7699797 c -0.219863,0 -0.418245,0.088556 -0.561711,0.2320226 -0.143467,0.1434667 -0.232023,0.3418486 -0.232023,0.5617118 v 9.2607509 c 0,0.219863 0.08856,0.418245 0.232023,0.561712 0.143466,0.143467 0.341848,0.232023 0.561711,0.232023 h 14.286702 c 0.219864,0 0.418245,-0.08856 0.561712,-0.232023 0.143467,-0.143467 0.232022,-0.341849 0.232022,-0.561712 V 4.5637141 c 0,-0.2198632 -0.08855,-0.4182451 -0.232022,-0.5617118 C -6.212859,3.8585355 -6.41124,3.7699797 -6.631104,3.7699797 Z" />
    <path
       id="rect1694"
       style="fill:#0078e1;fill-opacity:1;stroke:none;stroke-width:0.0334686;stroke-linecap:round"
       d="m -21.050611,2.3148002 c -0.18265,0 -0.347965,0.081238 -0.467663,0.2129028 -0.119697,0.1316648 -0.193783,0.3137668 -0.193783,0.5146869 v 4.001744 h 7.937344 V 3.7699797 l -1.653613,-1.4551795 z" />
    <rect
       x="-21.267807"
       y="4.2330298"
       width="14.987"
       height="9.9216995"
       ry="0.29919001"
       fill="#fffffc"
       id="rect894"
       style="stroke-width:0.999997" />
    <path
       id="rect1761"
       style="fill:url(#linearGradient1777);fill-opacity:1;stroke:none;stroke-width:0.0334686;stroke-linecap:round"
       d="m -13.774971,3.7699797 -1.653613,1.4551796 h -5.622285 c -0.182654,0 -0.347965,0.081235 -0.467663,0.2129029 -0.119695,0.1316673 -0.193783,0.3137667 -0.193783,0.5146869 v 7.9373439 c 0,0.20092 0.07409,0.382503 0.193783,0.51417 0.119698,0.131668 0.285014,0.21342 0.467663,0.21342 h 14.552312 c 0.182657,0 0.347965,-0.08175 0.467663,-0.21342 0.119698,-0.131667 0.193783,-0.31325 0.193783,-0.51417 V 4.4975694 c 0,-0.2009199 -0.07409,-0.3830195 -0.193783,-0.5146869 C -6.150592,3.8512149 -6.3159,3.7699797 -6.498557,3.7699797 h -5.16e-4 z" />
  </g>
  <g
     fill="#5e4aa6"
     stroke-width=".26458"
     id="g33">
    <circle
       cx="-330.35"
       cy="-328.38"
       r="0"
       id="circle23" />
    <circle
       cx="-312.11"
       cy="-326.25"
       r="0"
       id="circle25" />
    <circle
       cx="-306.02"
       cy="-333.07"
       r="0"
       id="circle27" />
    <circle
       cx="-308.84"
       cy="-326.01"
       r="0"
       id="circle29" />
    <circle
       cx="-328.8"
       cy="-330.45"
       r="0"
       id="circle31" />
  </g>
  <g
     transform="translate(.000295 -.00033978)"
     fill="#5e4aa6"
     stroke-width=".26458"
     id="g45">
    <circle
       cx="-330.35"
       cy="-328.38"
       r="0"
       id="circle35" />
    <circle
       cx="-312.11"
       cy="-326.25"
       r="0"
       id="circle37" />
    <circle
       cx="-306.02"
       cy="-333.07"
       r="0"
       id="circle39" />
    <circle
       cx="-308.84"
       cy="-326.01"
       r="0"
       id="circle41" />
    <circle
       cx="-328.8"
       cy="-330.45"
       r="0"
       id="circle43" />
  </g>
  <path
     id="rect1004"
     style="fill:#0050b4;fill-opacity:1;stroke:none;stroke-width:0.104;stroke-linecap:round"
     d="M 39.386719 28.25 C 39.302212 28.245806 39.215806 28.25339 39.130859 28.271484 L 29.130859 30.34375 C 28.572537 30.460502 28.167969 31.02796 28.167969 31.693359 L 28.167969 43.386719 C 27.673219 42.891742 27.033362 42.589844 26.333984 42.589844 C 24.772253 42.589844 23.5 44.084774 23.5 45.919922 C 23.5 47.75507 24.772253 49.248047 26.333984 49.248047 C 27.895716 49.248047 29.166016 47.75507 29.166016 45.919922 L 29.166016 35.445312 L 39.5 33.302734 L 39.5 41.035156 C 39.00525 40.54018 38.365431 40.238281 37.666016 40.238281 C 36.104322 40.238281 34.833984 41.733211 34.833984 43.568359 C 34.833984 45.403507 36.104284 46.896484 37.666016 46.896484 C 39.227747 46.896484 40.5 45.403507 40.5 43.568359 L 40.5 29.619141 C 40.5 29.213417 40.347637 28.83176 40.082031 28.570312 C 39.883829 28.37418 39.64024 28.262583 39.386719 28.25 z M 39.304688 29.425781 C 39.372229 29.414064 39.417569 29.447496 39.439453 29.470703 C 39.461375 29.491869 39.498047 29.541684 39.498047 29.621094 L 39.498047 32.111328 L 29.166016 34.251953 L 29.166016 31.693359 C 29.166016 31.597622 29.223287 31.516328 29.302734 31.5 L 39.304688 29.425781 z M 37.666016 41.414062 C 38.677324 41.414062 39.5 42.379939 39.5 43.568359 C 39.5 44.75678 38.677362 45.722656 37.666016 45.722656 C 36.65467 45.722656 35.832031 44.75678 35.832031 43.568359 C 35.832031 42.379939 36.654708 41.414063 37.666016 41.414062 z M 26.333984 43.761719 C 27.34533 43.761719 28.167969 44.729549 28.167969 45.917969 C 28.167969 47.106389 27.345292 48.072266 26.333984 48.072266 C 25.322638 48.072266 24.5 47.106389 24.5 45.917969 C 24.5 44.729549 25.322638 43.761719 26.333984 43.761719 z "
     transform="scale(0.26457812)" />
</svg>
