<?xml version="1.0" encoding="UTF-8" standalone="no"?>
<svg
   xmlns:dc="http://purl.org/dc/elements/1.1/"
   xmlns:cc="http://creativecommons.org/ns#"
   xmlns:rdf="http://www.w3.org/1999/02/22-rdf-syntax-ns#"
   xmlns:svg="http://www.w3.org/2000/svg"
   xmlns="http://www.w3.org/2000/svg"
   xmlns:xlink="http://www.w3.org/1999/xlink"
   xmlns:sodipodi="http://sodipodi.sourceforge.net/DTD/sodipodi-0.dtd"
   xmlns:inkscape="http://www.inkscape.org/namespaces/inkscape"
   width="64"
   height="64"
   version="1.1"
   viewBox="0 0 16.933 16.933"
   id="svg77"
   sodipodi:docname="default-folder-templates.svg"
   inkscape:version="1.0.1 (3bc2e813f5, 2020-09-07)">
  <sodipodi:namedview
     pagecolor="#ffffff"
     bordercolor="#666666"
     borderopacity="1"
     objecttolerance="10"
     gridtolerance="10"
     guidetolerance="10"
     inkscape:pageopacity="0"
     inkscape:pageshadow="2"
     inkscape:window-width="1920"
     inkscape:window-height="975"
     id="namedview79"
     showgrid="false"
     inkscape:zoom="6.4921875"
     inkscape:cx="-5.9084336"
     inkscape:cy="31.736039"
     inkscape:window-x="0"
     inkscape:window-y="0"
     inkscape:window-maximized="1"
     inkscape:current-layer="svg77" />
  <defs
     id="defs17">
    <linearGradient
       id="linearGradient1064"
       x1="-15.961"
       x2="-.30109"
       y1="-43.254"
       y2="-54.196"
       gradientTransform="matrix(1 0 0 1.1 16.669 62.435)"
       gradientUnits="userSpaceOnUse">
      <stop
         stop-color="#005ae1"
         offset="0"
         id="stop2" />
      <stop
         stop-color="#059bff"
         offset="1"
         id="stop4" />
    </linearGradient>
    <linearGradient
       id="linearGradient1006"
       x1=".52939"
       x2="16.217"
       y1="2.7784"
       y2="14.872"
       gradientTransform="matrix(1,0,0,1.1,16.669,62.435)"
       gradientUnits="userSpaceOnUse">
      <stop
         stop-color="#005ae1"
         offset="0"
         id="stop7" />
      <stop
         stop-color="#059bff"
         offset="1"
         id="stop9" />
    </linearGradient>
    <linearGradient
       id="linearGradient937"
       x1="-16.14"
       x2="-1.0699"
       y1="-55.616"
       y2="-44.835"
       gradientTransform="matrix(1,0,0,1.1,16.669,62.435)"
       gradientUnits="userSpaceOnUse">
      <stop
         stop-color="#005ae1"
         offset="0"
         id="stop12" />
      <stop
         stop-color="#059bff"
         offset="1"
         id="stop14" />
    </linearGradient>
    <linearGradient
       inkscape:collect="always"
       xlink:href="#linearGradient1775"
       id="linearGradient1777"
       x1="0.52968556"
       y1="15.0813"
       x2="16.774235"
       y2="2.5022037"
       gradientUnits="userSpaceOnUse"
       gradientTransform="translate(-17.187708,-0.46327015)" />
    <linearGradient
       inkscape:collect="always"
       id="linearGradient1775">
      <stop
         style="stop-color:#0078e1;stop-opacity:1"
         offset="0"
         id="stop1771" />
      <stop
         style="stop-color:#05b9ff;stop-opacity:1"
         offset="1"
         id="stop1773" />
    </linearGradient>
  </defs>
  <metadata
     id="metadata19">
    <rdf:RDF>
      <cc:Work
         rdf:about="">
        <dc:format>image/svg+xml</dc:format>
        <dc:type
           rdf:resource="http://purl.org/dc/dcmitype/StillImage" />
        <dc:title></dc:title>
      </cc:Work>
    </rdf:RDF>
  </metadata>
  <g
     id="g937"
     transform="translate(17.187708)">
    <path
       id="rect2006"
       style="fill:#0079e1;fill-opacity:1;stroke:none;stroke-width:0.0334686;stroke-linecap:round"
       d="m -15.864301,3.7699797 c -0.219863,0 -0.418245,0.088556 -0.561711,0.2320226 -0.143467,0.1434667 -0.232023,0.3418486 -0.232023,0.5617118 v 9.2607509 c 0,0.219863 0.08856,0.418245 0.232023,0.561712 0.143466,0.143467 0.341848,0.232023 0.561711,0.232023 h 14.286702 c 0.219864,0 0.418245,-0.08856 0.561712,-0.232023 0.143467,-0.143467 0.232022,-0.341849 0.232022,-0.561712 V 4.5637141 c 0,-0.2198632 -0.08855,-0.4182451 -0.232022,-0.5617118 C -1.159354,3.8585355 -1.357735,3.7699797 -1.577599,3.7699797 Z" />
    <path
       id="rect1694"
       style="fill:#0078e1;fill-opacity:1;stroke:none;stroke-width:0.0334686;stroke-linecap:round"
       d="m -15.997107,2.3148002 c -0.182649,0 -0.347964,0.081238 -0.467662,0.2129028 -0.119697,0.1316648 -0.193783,0.3137668 -0.193783,0.5146869 v 4.001744 h 7.9373443 V 3.7699797 L -10.374821,2.3148002 Z" />
    <rect
       x="-16.214302"
       y="4.2330298"
       width="14.987"
       height="9.9216995"
       ry="0.29919001"
       fill="#fffffc"
       id="rect894"
       style="stroke-width:0.999997" />
    <path
       id="rect1761"
       style="fill:url(#linearGradient1777);fill-opacity:1;stroke:none;stroke-width:0.0334686;stroke-linecap:round"
       d="m -8.7214658,3.7699797 -1.6536132,1.4551796 h -5.622285 c -0.182654,0 -0.347965,0.081235 -0.467663,0.2129029 -0.119695,0.1316673 -0.193783,0.3137667 -0.193783,0.5146869 v 7.9373439 c 0,0.20092 0.07409,0.382503 0.193783,0.51417 0.119698,0.131668 0.285014,0.21342 0.467663,0.21342 h 14.552312 c 0.182657,0 0.347965,-0.08175 0.467663,-0.21342 0.119698,-0.131667 0.193783,-0.31325 0.193783,-0.51417 V 4.4975694 c 0,-0.2009199 -0.07409,-0.3830195 -0.193783,-0.5146869 C -1.097087,3.8512149 -1.262395,3.7699797 -1.445052,3.7699797 h -5.16e-4 z" />
  </g>
  <g
     fill="#5e4aa6"
     stroke-width=".26458"
     id="g31">
    <circle
       cx="-330.35"
       cy="-328.38"
       r="0"
       id="circle21" />
    <circle
       cx="-312.11"
       cy="-326.25"
       r="0"
       id="circle23" />
    <circle
       cx="-306.02"
       cy="-333.07"
       r="0"
       id="circle25" />
    <circle
       cx="-308.84"
       cy="-326.01"
       r="0"
       id="circle27" />
    <circle
       cx="-328.8"
       cy="-330.45"
       r="0"
       id="circle29" />
  </g>
  <g
     transform="translate(.000295 -.00033478)"
     fill="#5e4aa6"
     stroke-width=".26458"
     id="g43">
    <circle
       cx="-330.35"
       cy="-328.38"
       r="0"
       id="circle33" />
    <circle
       cx="-312.11"
       cy="-326.25"
       r="0"
       id="circle35" />
    <circle
       cx="-306.02"
       cy="-333.07"
       r="0"
       id="circle37" />
    <circle
       cx="-308.84"
       cy="-326.01"
       r="0"
       id="circle39" />
    <circle
       cx="-328.8"
       cy="-330.45"
       r="0"
       id="circle41" />
  </g>
  <path
     id="path57"
     style="fill:#0050b4;fill-opacity:1;stroke-width:3.7796"
     d="M 23.5 28.248047 L 23.5 49.248047 L 31.5 49.248047 L 31.5 28.248047 L 23.5 28.248047 z M 33.496094 28.248047 L 33.496094 42.25 L 36.496094 49.248047 L 37.496094 49.248047 L 40.496094 42.25 L 40.496094 40.25 L 40.5 40.25 L 40.5 32.25 L 40.496094 32.25 L 40.496094 28.248047 L 33.496094 28.248047 z M 24.5 29.25 L 30.5 29.25 L 30.5 31.25 L 28.5 31.25 L 28.5 32.25 L 30.5 32.25 L 30.5 34.25 L 28.5 34.25 L 28.5 35.25 L 30.5 35.25 L 30.5 37.25 L 28.5 37.25 L 28.5 38.25 L 30.5 38.25 L 30.5 40.248047 L 28.5 40.248047 L 28.5 41.248047 L 30.5 41.248047 L 30.5 43.25 L 28.5 43.25 L 28.5 44.25 L 30.5 44.25 L 30.5 46.25 L 28.5 46.25 L 28.5 47.25 L 30.5 47.25 L 30.5 48.25 L 24.5 48.25 L 24.5 29.25 z M 34.5 29.253906 L 39.5 29.253906 L 39.5 32.25 L 34.5 32.25 L 34.5 29.253906 z M 34.496094 40.25 L 39.5 40.25 L 39.5 42.25 L 37.029297 48.226562 L 34.496094 42.25 L 34.496094 40.25 z "
     transform="scale(0.26457812)" />
</svg>
