<?xml version="1.0" encoding="UTF-8" standalone="no"?>
<svg
   xmlns:dc="http://purl.org/dc/elements/1.1/"
   xmlns:cc="http://creativecommons.org/ns#"
   xmlns:rdf="http://www.w3.org/1999/02/22-rdf-syntax-ns#"
   xmlns:svg="http://www.w3.org/2000/svg"
   xmlns="http://www.w3.org/2000/svg"
   xmlns:xlink="http://www.w3.org/1999/xlink"
   xmlns:sodipodi="http://sodipodi.sourceforge.net/DTD/sodipodi-0.dtd"
   xmlns:inkscape="http://www.inkscape.org/namespaces/inkscape"
   width="64"
   height="64"
   version="1.1"
   viewBox="0 0 16.933 16.933"
   id="svg59"
   sodipodi:docname="folder-html.svg"
   inkscape:version="1.0.1 (3bc2e813f5, 2020-09-07)">
  <sodipodi:namedview
     pagecolor="#ffffff"
     bordercolor="#666666"
     borderopacity="1"
     objecttolerance="10"
     gridtolerance="10"
     guidetolerance="10"
     inkscape:pageopacity="0"
     inkscape:pageshadow="2"
     inkscape:window-width="1920"
     inkscape:window-height="975"
     id="namedview61"
     showgrid="false"
     inkscape:zoom="6.4921875"
     inkscape:cx="1.2694345"
     inkscape:cy="32.977098"
     inkscape:window-x="0"
     inkscape:window-y="0"
     inkscape:window-maximized="1"
     inkscape:current-layer="svg59" />
  <defs
     id="defs17">
    <linearGradient
       id="linearGradient1064"
       x1="-15.961"
       x2="-.30109"
       y1="-43.254"
       y2="-54.196"
       gradientTransform="matrix(1 0 0 1.1 16.669 62.435)"
       gradientUnits="userSpaceOnUse">
      <stop
         stop-color="#005ae1"
         offset="0"
         id="stop2" />
      <stop
         stop-color="#059bff"
         offset="1"
         id="stop4" />
    </linearGradient>
    <linearGradient
       id="linearGradient1006"
       x1=".52939"
       x2="16.217"
       y1="2.7784"
       y2="14.872"
       gradientTransform="matrix(1,0,0,1.1,16.669,62.435)"
       gradientUnits="userSpaceOnUse">
      <stop
         stop-color="#005ae1"
         offset="0"
         id="stop7" />
      <stop
         stop-color="#059bff"
         offset="1"
         id="stop9" />
    </linearGradient>
    <linearGradient
       id="linearGradient943"
       x1="-16.14"
       x2="-1.0699"
       y1="-55.616"
       y2="-44.835"
       gradientTransform="matrix(1,0,0,1.1,16.669,62.435)"
       gradientUnits="userSpaceOnUse">
      <stop
         stop-color="#005ae1"
         offset="0"
         id="stop12" />
      <stop
         stop-color="#059bff"
         offset="1"
         id="stop14" />
    </linearGradient>
    <linearGradient
       inkscape:collect="always"
       xlink:href="#linearGradient1775"
       id="linearGradient1777"
       x1="0.52968556"
       y1="15.0813"
       x2="16.774235"
       y2="2.5022037"
       gradientUnits="userSpaceOnUse"
       gradientTransform="translate(-16.902435,-0.46327015)" />
    <linearGradient
       inkscape:collect="always"
       id="linearGradient1775">
      <stop
         style="stop-color:#0078e1;stop-opacity:1"
         offset="0"
         id="stop1771" />
      <stop
         style="stop-color:#05b9ff;stop-opacity:1"
         offset="1"
         id="stop1773" />
    </linearGradient>
  </defs>
  <metadata
     id="metadata19">
    <rdf:RDF>
      <cc:Work
         rdf:about="">
        <dc:format>image/svg+xml</dc:format>
        <dc:type
           rdf:resource="http://purl.org/dc/dcmitype/StillImage" />
        <dc:title></dc:title>
      </cc:Work>
    </rdf:RDF>
  </metadata>
  <g
     id="g919"
     transform="translate(16.902435)">
    <path
       id="rect2006"
       style="fill:#0079e1;fill-opacity:1;stroke:none;stroke-width:0.0334686;stroke-linecap:round"
       d="m -15.579028,3.7699797 c -0.219863,0 -0.418245,0.088556 -0.561711,0.2320226 -0.143467,0.1434667 -0.232023,0.3418486 -0.232023,0.5617118 v 9.2607509 c 0,0.219863 0.08856,0.418245 0.232023,0.561712 0.143466,0.143467 0.341848,0.232023 0.561711,0.232023 h 14.286702 c 0.219864,0 0.418245,-0.08856 0.561712,-0.232023 0.143467,-0.143467 0.232022,-0.341849 0.232022,-0.561712 V 4.5637141 c 0,-0.2198632 -0.08855,-0.4182451 -0.232022,-0.5617118 C -0.874081,3.8585355 -1.072462,3.7699797 -1.292326,3.7699797 Z" />
    <path
       id="rect1694"
       style="fill:#0078e1;fill-opacity:1;stroke:none;stroke-width:0.0334686;stroke-linecap:round"
       d="m -15.711834,2.3148002 c -0.18265,0 -0.347964,0.081238 -0.467662,0.2129028 -0.119697,0.1316648 -0.193783,0.3137668 -0.193783,0.5146869 v 4.001744 h 7.9373443 V 3.7699797 L -10.089548,2.3148002 Z" />
    <rect
       x="-15.929029"
       y="4.2330298"
       width="14.987"
       height="9.9216995"
       ry="0.29919001"
       fill="#fffffc"
       id="rect894"
       style="stroke-width:0.999997" />
    <path
       id="rect1761"
       style="fill:url(#linearGradient1777);fill-opacity:1;stroke:none;stroke-width:0.0334686;stroke-linecap:round"
       d="m -8.4361928,3.7699797 -1.6536132,1.4551796 h -5.622285 c -0.182654,0 -0.347965,0.081235 -0.467663,0.2129029 -0.119695,0.1316673 -0.193783,0.3137667 -0.193783,0.5146869 v 7.9373439 c 0,0.20092 0.07409,0.382503 0.193783,0.51417 0.119698,0.131668 0.285014,0.21342 0.467663,0.21342 h 14.552312 c 0.182657,0 0.347965,-0.08175 0.467663,-0.21342 0.119698,-0.131667 0.193783,-0.31325 0.193783,-0.51417 V 4.4975694 c 0,-0.2009199 -0.07409,-0.3830195 -0.193783,-0.5146869 C -0.811814,3.8512149 -0.977122,3.7699797 -1.159779,3.7699797 h -5.16e-4 z" />
  </g>
  <g
     fill="#5e4aa6"
     stroke-width=".26458"
     id="g31">
    <circle
       cx="-330.35"
       cy="-328.38"
       r="0"
       id="circle21" />
    <circle
       cx="-312.11"
       cy="-326.25"
       r="0"
       id="circle23" />
    <circle
       cx="-306.02"
       cy="-333.07"
       r="0"
       id="circle25" />
    <circle
       cx="-308.84"
       cy="-326.01"
       r="0"
       id="circle27" />
    <circle
       cx="-328.8"
       cy="-330.45"
       r="0"
       id="circle29" />
  </g>
  <g
     transform="translate(.000295 -.00032978)"
     fill="#5e4aa6"
     stroke-width=".26458"
     id="g43">
    <circle
       cx="-330.35"
       cy="-328.38"
       r="0"
       id="circle33" />
    <circle
       cx="-312.11"
       cy="-326.25"
       r="0"
       id="circle35" />
    <circle
       cx="-306.02"
       cy="-333.07"
       r="0"
       id="circle37" />
    <circle
       cx="-308.84"
       cy="-326.01"
       r="0"
       id="circle39" />
    <circle
       cx="-328.8"
       cy="-330.45"
       r="0"
       id="circle41" />
  </g>
  <path
     id="path926"
     style="fill:#0050b4;fill-opacity:1;stroke:#0050b4;stroke-width:0.0275161;stroke-linecap:round"
     d="m 8.4664998,7.5817849 v 5.167e-4 c -0.09154,0 -0.1836862,0.00722 -0.2728461,0.016536 a 2.5928999,2.6094 0 0 0 -0.069245,0.00723 2.5928999,2.6094 0 0 0 -0.068728,0.0093 2.5928999,2.6094 0 0 0 -0.068728,0.010852 2.5928999,2.6094 0 0 0 -0.068728,0.012919 2.5928999,2.6094 0 0 0 -0.067695,0.014469 2.5928999,2.6094 0 0 0 -0.067695,0.016536 2.5928999,2.6094 0 0 0 -0.067178,0.018087 2.5928999,2.6094 0 0 0 -0.034623,0.010335 2.6575999,2.6745998 0 0 0 -0.067178,0.022221 2.6575999,2.6745998 0 0 0 -0.066145,0.023771 2.6575999,2.6745998 0 0 0 -0.065628,0.025321 2.6575999,2.6745998 0 0 0 -0.065111,0.027388 2.6575999,2.6745998 0 0 0 -0.064077,0.028938 2.6575999,2.6745998 0 0 0 -0.063561,0.031005 2.6575999,2.6745998 0 0 0 -0.062527,0.032039 2.6575999,2.6745998 0 0 0 -0.06201,0.034106 2.6575999,2.6745998 0 0 0 -0.06046,0.035656 2.6575999,2.6745998 0 0 0 -0.059943,0.037723 2.6575999,2.6745998 0 0 0 -0.05891,0.038757 2.6575999,2.6745998 0 0 0 -0.057876,0.040307 2.6575999,2.6745998 0 0 0 -0.056843,0.041857 2.6575999,2.6745998 0 0 0 -0.055293,0.043407 2.6575999,2.6745998 0 0 0 -0.054776,0.044958 2.6575999,2.6745998 0 0 0 -0.053226,0.046508 2.6575999,2.6745998 0 0 0 -0.051675,0.047541 2.6575999,2.6745998 0 0 0 -0.050642,0.049608 2.6575999,2.6745998 0 0 0 -0.049608,0.050125 2.6575999,2.6745998 0 0 0 -0.048058,0.051675 2.6575999,2.6745998 0 0 0 -0.046508,0.053226 2.6575999,2.6745998 0 0 0 -0.045474,0.054259 2.6575999,2.6745998 0 0 0 -0.043924,0.055293 2.6575999,2.6745998 0 0 0 -0.042374,0.056843 2.6575999,2.6745998 0 0 0 -0.040824,0.05736 2.6575999,2.6745998 0 0 0 -0.039273,0.05891 2.6575999,2.6745998 0 0 0 -0.037723,0.059943 2.6575999,2.6745998 0 0 0 -0.036173,0.060977 2.6575999,2.6745998 0 0 0 -0.034623,0.061494 2.6575999,2.6745998 0 0 0 -0.032555,0.062527 2.6575999,2.6745998 0 0 0 -0.031522,0.063561 2.6575999,2.6745998 0 0 0 -0.029455,0.064078 2.6575999,2.6745998 0 0 0 -0.027905,0.065111 2.6575999,2.6745998 0 0 0 -0.026354,0.066145 2.6575999,2.6745998 0 0 0 -0.024287,0.066145 2.6575999,2.6745998 0 0 0 -0.022737,0.067178 2.6575999,2.6745998 0 0 0 -0.0093,0.029455 2.5928999,2.6094 0 0 0 -0.01912,0.067178 2.5928999,2.6094 0 0 0 -0.017053,0.068212 2.5928999,2.6094 0 0 0 -0.015502,0.068211 2.5928999,2.6094 0 0 0 -0.013952,0.068211 2.5928999,2.6094 0 0 0 -0.011885,0.069245 2.5928999,2.6094 0 0 0 -0.00982,0.069245 2.5928999,2.6094 0 0 0 -0.00827,0.069245 2.5928999,2.6094 0 0 0 -0.00362,0.03669 2.6537,2.6707 0 0 0 -0.00672,0.070278 2.6537,2.6707 0 0 0 -0.00517,0.07079 2.6537,2.6707 0 0 0 -0.00362,0.0708 2.6537,2.6707 0 0 0 -0.00103,0.06253 c 0,0.09212 0.00727,0.184666 0.016536,0.274396 a 2.5928999,2.6094 0 0 0 0.00723,0.06976 2.5928999,2.6094 0 0 0 0.0093,0.06925 2.5928999,2.6094 0 0 0 0.010852,0.06924 2.5928999,2.6094 0 0 0 0.012402,0.06873 2.5928999,2.6094 0 0 0 0.014469,0.06873 2.5928999,2.6094 0 0 0 0.016536,0.06769 2.5928999,2.6094 0 0 0 0.018087,0.0677 2.5928999,2.6094 0 0 0 0.010335,0.03514 2.6575999,2.6745998 0 0 0 0.02222,0.06718 2.6575999,2.6745998 0 0 0 0.023254,0.06666 2.6575999,2.6745998 0 0 0 0.025321,0.06615 2.6575999,2.6745998 0 0 0 0.027388,0.06563 2.6575999,2.6745998 0 0 0 0.028938,0.06459 2.6575999,2.6745998 0 0 0 0.030488,0.06356 2.6575999,2.6745998 0 0 0 0.032039,0.06304 2.6575999,2.6745998 0 0 0 0.034106,0.06201 2.6575999,2.6745998 0 0 0 0.035139,0.06149 2.6575999,2.6745998 0 0 0 0.037206,0.05994 2.6575999,2.6745998 0 0 0 0.038757,0.05943 2.6575999,2.6745998 0 0 0 0.03979,0.05839 2.6575999,2.6745998 0 0 0 0.041857,0.05684 2.6575999,2.6745998 0 0 0 0.043407,0.05581 2.6575999,2.6745998 0 0 0 0.044441,0.05477 2.6575999,2.6745998 0 0 0 0.045991,0.05374 2.6575999,2.6745998 0 0 0 0.047542,0.05219 2.6575999,2.6745998 0 0 0 0.049091,0.05116 2.6575999,2.6745998 0 0 0 0.050125,0.04961 2.6575999,2.6745998 0 0 0 0.051159,0.04858 2.6575999,2.6745998 0 0 0 0.052709,0.04702 2.6575999,2.6745998 0 0 0 0.053742,0.04547 2.6575999,2.6745998 0 0 0 0.055293,0.04392 2.6575999,2.6745998 0 0 0 0.056326,0.04289 2.6575999,2.6745998 0 0 0 0.05736,0.04082 2.6575999,2.6745998 0 0 0 0.058393,0.03979 2.6575999,2.6745998 0 0 0 0.059427,0.03772 2.6575999,2.6745998 0 0 0 0.06046,0.03669 2.6575999,2.6745998 0 0 0 0.060977,0.03462 2.6575999,2.6745998 0 0 0 0.062527,0.03307 2.6575999,2.6745998 0 0 0 0.063044,0.03152 2.6575999,2.6745998 0 0 0 0.064077,0.02997 2.6575999,2.6745998 0 0 0 0.064594,0.02791 2.6575999,2.6745998 0 0 0 0.065111,0.02636 2.6575999,2.6745998 0 0 0 0.066145,0.02429 2.6575999,2.6745998 0 0 0 0.066661,0.02325 2.6575999,2.6745998 0 0 0 0.029455,0.0093 2.5928999,2.6094 0 0 0 0.066661,0.01912 2.5928999,2.6094 0 0 0 0.067178,0.01757 2.5928999,2.6094 0 0 0 0.067695,0.0155 2.5928999,2.6094 0 0 0 0.068211,0.01395 2.5928999,2.6094 0 0 0 0.068728,0.01189 2.5928999,2.6094 0 0 0 0.068728,0.01033 2.5928999,2.6094 0 0 0 0.069245,0.0083 2.5928999,2.6094 0 0 0 0.036173,0.0036 c 0.08917,0.009 0.181296,0.01602 0.2728461,0.01602 0.09156,0 0.1836763,-0.0073 0.2728462,-0.01654 a 2.5928999,2.6094 0 0 0 0.069245,-0.0072 2.5928999,2.6094 0 0 0 0.068728,-0.0088 2.5928999,2.6094 0 0 0 0.068728,-0.01137 2.5928999,2.6094 0 0 0 0.068211,-0.0124 2.5928999,2.6094 0 0 0 0.068212,-0.01499 2.5928999,2.6094 0 0 0 0.067695,-0.01602 2.5928999,2.6094 0 0 0 0.066662,-0.0186 2.5928999,2.6094 0 0 0 0.035139,-0.01034 2.7026999,2.7198998 0 0 0 0.067178,-0.02274 2.7026999,2.7198998 0 0 0 0.066661,-0.02429 2.7026999,2.7198998 0 0 0 0.066145,-0.02635 2.7026999,2.7198998 0 0 0 0.065111,-0.0279 2.7026999,2.7198998 0 0 0 0.064594,-0.02997 2.7026999,2.7198998 0 0 0 0.064077,-0.03101 2.7026999,2.7198998 0 0 0 0.062527,-0.03307 2.7026999,2.7198998 0 0 0 0.023254,-0.01292 2.6408999,2.6577999 0 0 0 0.060977,-0.03411 2.6408999,2.6577999 0 0 0 0.06046,-0.03617 2.6408999,2.6577999 0 0 0 0.059427,-0.03772 2.6408999,2.6577999 0 0 0 0.058393,-0.03927 2.6408999,2.6577999 0 0 0 0.05736,-0.04082 2.6408999,2.6577999 0 0 0 0.05633,-0.04186 2.6408999,2.6577999 0 0 0 0.05478,-0.04392 2.6408999,2.6577999 0 0 0 0.05374,-0.04547 2.6408999,2.6577999 0 0 0 0.05271,-0.04651 2.6408999,2.6577999 0 0 0 0.05168,-0.04806 2.6408999,2.6577999 0 0 0 0.05013,-0.04909 2.6408999,2.6577999 0 0 0 0.04857,-0.05116 2.6408999,2.6577999 0 0 0 0.04754,-0.05167 2.6408999,2.6577999 0 0 0 0.04599,-0.05323 2.6408999,2.6577999 0 0 0 0.04496,-0.05478 2.6408999,2.6577999 0 0 0 0.04341,-0.05529 2.6408999,2.6577999 0 0 0 0.04134,-0.05684 2.6408999,2.6577999 0 0 0 0.04031,-0.05788 2.6408999,2.6577999 0 0 0 0.03876,-0.05891 2.6408999,2.6577999 0 0 0 0.03721,-0.05994 2.6408999,2.6577999 0 0 0 0.03514,-0.06098 2.6408999,2.6577999 0 0 0 0.03411,-0.06201 2.6408999,2.6577999 0 0 0 0.03204,-0.06253 2.6408999,2.6577999 0 0 0 0.03049,-0.06356 2.6408999,2.6577999 0 0 0 0.02894,-0.06459 2.6408999,2.6577999 0 0 0 0.02739,-0.06511 2.6408999,2.6577999 0 0 0 0.02532,-0.06563 2.6408999,2.6577999 0 0 0 0.02377,-0.06666 2.6408999,2.6577999 0 0 0 0.0217,-0.06718 2.6408999,2.6577999 0 0 0 0.0021,-0.0062 2.5928999,2.6094 0 0 0 0.01912,-0.06718 2.5928999,2.6094 0 0 0 0.01757,-0.06821 2.5928999,2.6094 0 0 0 0.0155,-0.06821 2.5928999,2.6094 0 0 0 0.01344,-0.06821 2.5928999,2.6094 0 0 0 0.01188,-0.06924 2.5928999,2.6094 0 0 0 0.0098,-0.06925 2.5928999,2.6094 0 0 0 0.0083,-0.06925 2.5928999,2.6094 0 0 0 0.0036,-0.03669 c 0.0093,-0.08973 0.01654,-0.182266 0.01654,-0.274396 0,-0.09184 -0.0074,-0.184936 -0.01654,-0.2743968 a 2.5928999,2.6094 0 0 0 -0.0072,-0.069762 2.5928999,2.6094 0 0 0 -0.0093,-0.069245 2.5928999,2.6094 0 0 0 -0.01085,-0.069245 2.5928999,2.6094 0 0 0 -0.0124,-0.068728 2.5928999,2.6094 0 0 0 -0.01447,-0.068728 2.5928999,2.6094 0 0 0 -0.01654,-0.067695 2.5928999,2.6094 0 0 0 -0.01809,-0.067695 2.5928999,2.6094 0 0 0 -0.01033,-0.035139 2.6643998,2.6813 0 0 0 -0.0217,-0.067178 2.6643998,2.6813 0 0 0 -0.02377,-0.067178 2.6643998,2.6813 0 0 0 -0.02532,-0.066145 2.6643998,2.6813 0 0 0 -0.02739,-0.065111 2.6643998,2.6813 0 0 0 -0.02894,-0.065111 2.6643998,2.6813 0 0 0 -0.03049,-0.063561 2.6643998,2.6813 0 0 0 -0.03204,-0.063044 2.6643998,2.6813 0 0 0 -0.03411,-0.062527 2.6643998,2.6813 0 0 0 -0.03514,-0.060977 2.6643998,2.6813 0 0 0 -0.03721,-0.06046 2.6643998,2.6813 0 0 0 -0.03876,-0.059427 2.6643998,2.6813 0 0 0 -0.04031,-0.058393 2.6643998,2.6813 0 0 0 -0.04134,-0.056843 2.6643998,2.6813 0 0 0 -0.04341,-0.056326 2.6643998,2.6813 0 0 0 -0.02791,-0.034623 C 10.454712,8.4813227 10.395143,8.4246006 10.335083,8.3641506 10.096163,8.1237205 9.8166581,7.9245067 9.5000081,7.7900367 a 2.7416,2.759 0 0 0 -0.066145,-0.027388 2.7416,2.759 0 0 0 -0.067178,-0.025321 2.7416,2.759 0 0 0 -0.067178,-0.023254 2.7416,2.759 0 0 0 -0.047541,-0.015503 2.5928999,2.6094 0 0 0 -0.066661,-0.01912 2.5928999,2.6094 0 0 0 -0.067178,-0.01757 2.5928999,2.6094 0 0 0 -0.068212,-0.015503 2.5928999,2.6094 0 0 0 -0.068211,-0.013953 2.5928999,2.6094 0 0 0 -0.068212,-0.011885 2.5928999,2.6094 0 0 0 -0.068728,-0.00982 2.5928999,2.6094 0 0 0 -0.069245,-0.00827 2.5928999,2.6094 0 0 0 -0.036173,-0.00362 2.7288,2.7462 0 0 0 -0.070795,-0.00723 2.7288,2.7462 0 0 0 -0.071312,-0.00517 2.7288,2.7462 0 0 0 -0.071312,-0.0031 2.7288,2.7462 0 0 0 -0.059427,-0.00155 z m -0.00103,0.2661282 a 2.3996999,2.4149999 0 0 1 5.167e-4,0 l 5.167e-4,5.168e-4 c 0.2001449,0 0.3942344,0.02465 0.5797981,0.071312 0.1855637,0.046662 0.3625228,0.1152233 0.5281228,0.2030844 0.0087,0.00495 0.016134,0.011751 0.024804,0.016536 0.0066,0.00883 0.00487,0.018451 0.016536,0.024804 0.0085,0.00495 0.016377,0.012763 0.024288,0.017053 0.01401,0.00841 0.027724,0.019541 0.024804,0.033072 -0.0035,0.019967 -0.035592,0.018903 -0.049092,0.033589 0.0016,0.027889 -0.00988,0.022446 -0.017053,0.04134 0.0042,0.012211 0.015213,0.010883 0.017053,0.025321 -0.0025,0.015429 -0.022883,0.017066 -0.017053,0.033072 0.02592,0.020214 0.050329,0.00331 0.074929,0 0.05367,-0.0066 0.098939,5.051e-4 0.1322891,-0.025321 -0.0035,-0.020792 0.015537,-0.026405 0.024287,-0.04134 0.01775,0.012459 0.032945,0.028634 0.050125,0.04134 -0.01004,0.00412 -0.032597,0.011196 -0.041857,0.017053 -0.01325,0.00908 -0.017206,0.023006 -0.032556,0.033072 -0.01109,0.00743 -0.038445,0.033589 -0.050125,0.033589 -0.01401,0 -0.039518,-0.01192 -0.049608,-0.00878 -0.01425,0.00412 -0.00821,0.027461 -0.024287,0.033072 -0.03175,0.011716 -0.088097,-0.030801 -0.099217,0.017053 0.01325,0.02764 0.058084,0.01822 0.082164,0.033072 0.01508,0.00958 0.037857,0.058758 0.041857,0.074929 a 0.19393,0.19517 0 0 1 0.00258,0.01912 0.19393,0.19517 0 0 1 0.00103,0.01912 0.19393,0.19517 0 0 1 -0.00103,0.018603 0.19393,0.19517 0 0 1 -0.00258,0.018086 c -0.01508,0.038613 -0.055254,0.034416 -0.099734,0.033589 -0.01192,0 -0.021705,8.252e-4 -0.032556,0 -0.07459,-0.00494 -0.1485542,-0.029259 -0.1824142,0.024287 0.0025,0.041253 0.0092,0.064267 0,0.1002502 -0.0066,0.026068 -0.034402,0.044049 -0.033072,0.066661 5.429e-4,0.011718 0.022491,0.033607 0.025321,0.049608 0.0016,0.00856 -0.0042,0.025911 0,0.033589 0.01242,0.02376 0.043895,-0.00413 0.066145,0 0.02117,0.00333 0.040824,0.03453 0.040824,0.057877 a 0.15108,0.15204 0 0 1 -0.00103,0.017053 0.15108,0.15204 0 0 1 -0.0031,0.016536 0.15108,0.15204 0 0 1 -0.00517,0.016019 0.15108,0.15204 0 0 1 -0.0062,0.015503 0.15108,0.15204 0 0 1 -0.00103,0.00155 c -0.02117,0.031932 -0.060759,0.024364 -0.090949,0.041857 -0.02516,0.014359 -0.034508,0.049162 -0.049608,0.074413 -0.01591,0.027146 -0.030628,0.036317 -0.024287,0.074929 a 0.1786,0.17973 0 0 1 -0.00827,0.016536 0.1786,0.17973 0 0 1 -0.00982,0.015503 0.1786,0.17973 0 0 1 -0.011369,0.014469 0.1786,0.17973 0 0 1 -0.012919,0.012919 0.1786,0.17973 0 0 1 -0.013953,0.011885 0.1786,0.17973 0 0 1 -0.014986,0.010335 0.1786,0.17973 0 0 1 -0.016536,0.00827 0.1786,0.17973 0 0 1 -0.0031,0.00207 0.26139999,0.26307 0 0 0 -0.019637,0.010335 0.26139999,0.26307 0 0 0 -0.018603,0.011885 0.26139999,0.26307 0 0 0 -0.00362,0.00258 0.20955,0.21089 0 0 0 -0.014469,0.013435 0.20955,0.21089 0 0 0 -0.013952,0.014469 0.20955,0.21089 0 0 0 -0.00413,0.00517 c -0.01691,0.018645 -0.040865,0.027239 -0.050125,0.041857 -0.0066,0.01114 -7.89e-4,0.034955 -0.00827,0.050125 -0.01058,0.02022 -0.027931,0.037666 -0.04134,0.057876 -0.0058,0.0097 -0.018234,0.020542 -0.024804,0.033072 -0.01533,0.02821 -0.035982,0.050696 -0.033072,0.075446 0.0025,0.02376 0.031742,0.028808 0.033072,0.049608 0.0016,0.01172 -0.00847,0.020612 -0.00827,0.033072 7.81e-4,0.01864 0.00637,0.027487 0.00827,0.041857 0.0034,0.03597 -0.018144,0.050179 -0.024804,0.074929 -0.0034,0.01146 0.0025,0.024082 0,0.033072 -0.0058,0.01815 -0.032572,0.028845 -0.033072,0.050125 -5.429e-4,0.01493 0.023224,0.028845 0.024804,0.050125 8.199e-4,0.014439 -0.010858,0.027729 -0.00827,0.041339 0.005,0.02607 0.054073,0.06288 0.074413,0.0832 0.02726,0.02764 0.053984,0.04565 0.066145,0.07493 0.01004,0.02451 0.014242,0.06487 0.033072,0.0832 0.01375,0.01337 0.040137,0.01948 0.057877,0.03359 0.01691,0.01336 0.040383,0.01896 0.058393,0.03307 0.02907,0.02311 0.068366,0.07013 0.1152362,0.06666 0.02433,-0.0016 0.046913,-0.01202 0.074413,-0.01705 0.02833,-0.005 0.062099,-0.019 0.090949,-0.01602 0.022,0.0025 0.042815,0.01794 0.066145,0.01654 0.02383,-0.0016 0.055441,-0.01292 0.082681,-0.0248 0.04767,-0.02079 0.1208455,-0.06029 0.1901655,-0.05013 0.05292,0.0084 0.053939,0.06778 0.090949,0.09147 0.04233,0.0033 0.073905,-0.0084 0.1074853,0 0.02541,0.0067 0.05555,0.05471 0.05788,0.07493 0.0025,0.02079 -0.01362,0.03701 -0.01654,0.05012 -0.0066,0.0279 -0.0118,0.06485 -0.01654,0.08268 -0.0042,0.01411 -0.0085,0.02776 -0.0083,0.04186 0,0.01246 0.01982,0.04139 0.03307,0.05788 0.01591,0.02047 0.03889,0.0361 0.05788,0.05839 0.03517,0.04076 0.04981,0.09582 0.07441,0.149858 0.0058,0.01337 -0.0058,0.0159 0,0.03307 -0.01058,0.08144 -0.03804,0.134788 -0.09095,0.224788 -0.02516,0.0293 -0.0501,0.06349 -0.04961,0.09973 -0.0016,0.08706 0.04501,0.13212 0.04134,0.21652 -0.0087,0.11316 4.93e-4,0.130759 -0.0083,0.191199 0.03808,0.01947 0.0191,0.07656 0.0083,0.116787 -0.01641,0.04785 -0.03209,0.05953 -0.04134,0.09147 a 0.10582,0.1065 0 0 0 0.01292,0.0052 0.10582,0.1065 0 0 0 0.01395,0.0031 0.10582,0.1065 0 0 0 0.01395,10e-4 0.10582,0.1065 0 0 0 0.01395,-5.17e-4 0.10582,0.1065 0 0 0 0.0031,-5.17e-4 2.3792999,2.3945 0 0 1 -0.04702,0.04806 2.3792999,2.3945 0 0 1 -0.04806,0.04599 2.3792999,2.3945 0 0 1 -0.04961,0.04496 2.3792999,2.3945 0 0 1 -0.050642,0.04341 2.3792999,2.3945 0 0 1 -0.052192,0.04186 2.3792999,2.3945 0 0 1 -0.052709,0.04082 2.3792999,2.3945 0 0 1 -0.054259,0.03876 2.3792999,2.3945 0 0 1 -0.055293,0.03772 2.3792999,2.3945 0 0 1 -0.056326,0.03566 2.3792999,2.3945 0 0 1 -0.056843,0.03462 2.3792999,2.3945 0 0 1 -0.058393,0.03256 2.3792999,2.3945 0 0 1 -0.05891,0.03101 2.3792999,2.3945 0 0 1 -0.059944,0.02946 2.3792999,2.3945 0 0 1 -0.06046,0.0279 2.3792999,2.3945 0 0 1 -0.061494,0.02584 2.3792999,2.3945 0 0 1 -0.062527,0.02429 2.3792999,2.3945 0 0 1 -0.062527,0.02222 2.3792999,2.3945 0 0 1 -0.063561,0.02067 2.3792999,2.3945 0 0 1 -0.063561,0.01912 2.3792999,2.3945 0 0 1 -0.064594,0.01705 2.3792999,2.3945 0 0 1 -0.064594,0.01499 2.3792999,2.3945 0 0 1 -0.065628,0.01344 2.3792999,2.3945 0 0 1 -0.065628,0.01189 2.3792999,2.3945 0 0 1 -0.065628,0.0093 2.3792999,2.3945 0 0 1 -0.066145,0.0083 2.3792999,2.3945 0 0 1 -0.066661,0.0057 2.3792999,2.3945 0 0 1 -0.066145,0.0041 2.3792999,2.3945 0 0 1 -0.066661,0.0026 2.3792999,2.3945 0 0 1 -0.053742,0 2.3765999,2.3917 0 0 1 -0.066661,-5.17e-4 2.3765999,2.3917 0 0 1 -0.066661,-0.0031 2.3765999,2.3917 0 0 1 -0.066145,-0.0047 2.3765999,2.3917 0 0 1 -0.066661,-0.0062 2.3765999,2.3917 0 0 1 -0.065628,-0.0088 2.3765999,2.3917 0 0 1 -0.066145,-0.0098 2.3765999,2.3917 0 0 1 -0.065111,-0.0124 2.3765999,2.3917 0 0 1 -0.065111,-0.01395 2.3765999,2.3917 0 0 1 -0.065111,-0.0155 2.3765999,2.3917 0 0 1 -0.064077,-0.01757 2.3765999,2.3917 0 0 1 -0.063561,-0.01964 2.3765999,2.3917 0 0 1 -0.063044,-0.02119 2.3765999,2.3917 0 0 1 -0.062527,-0.02274 2.3765999,2.3917 0 0 1 -0.046508,-0.0186 c -7.922e-4,-5.24e-4 7.99e-4,-0.0082 0,-0.0083 0.02516,-0.01064 0.072669,0.01861 0.090949,-0.01654 0.009,-0.017 -0.01216,-0.04966 0,-0.06666 0.0085,-0.01172 0.064931,-0.02192 0.082681,-0.0248 0.02566,-0.0042 0.051825,9.58e-4 0.066145,-0.0083 a 0.075405,0.075886 0 0 0 0.0093,-0.0078 0.075405,0.075886 0 0 0 0.00775,-0.0088 0.075405,0.075886 0 0 0 0.00672,-0.0098 0.075405,0.075886 0 0 0 0.00465,-0.01085 0.075405,0.075886 0 0 0 0.0031,-0.01137 0.075405,0.075886 0 0 0 0.00155,-0.01188 0.075405,0.075886 0 0 0 0,-0.0062 c -0.0016,-0.01411 -0.013974,-0.02106 -0.024804,-0.03359 -0.0092,-0.01064 -0.00227,-0.02358 -0.00827,-0.03307 -0.01133,-0.017 -0.028322,-0.02538 -0.033072,-0.05012 0.03466,-0.0067 0.082329,0.039 0.1322891,0.0248 0.02383,-0.0067 0.063322,-0.05249 0.074413,-0.07493 0.0035,-0.0067 -0.0042,-0.03316 0,-0.04134 0.0042,-0.0093 0.014956,-0.01175 0.016536,-0.01654 0.0035,-0.01304 -0.0025,-0.0168 0,-0.0248 0.0087,-0.02476 0.035018,-0.04083 0.049608,-0.05891 0.01083,-0.01337 0.022742,-0.02722 0.033072,-0.04134 0.01133,-0.01493 0.017134,-0.01996 0.024804,-0.03307 0.0075,-0.04423 -0.027116,-0.07815 -0.016536,-0.116786 0.01133,-0.04373 0.074233,-0.07174 0.115753,-0.09147 0.01459,-0.0067 0.0291,-0.02051 0.04134,-0.0248 0.02884,-0.0104 0.063949,-0.0065 0.090949,-0.01654 0.04525,-0.0165 0.060671,-0.06648 0.082681,-0.108002 0.01058,-0.01948 0.022974,-0.03602 0.024804,-0.05013 0.0025,-0.01247 -0.0025,-0.02724 0,-0.04186 0.0025,-0.01436 0.00397,-0.0254 0.00827,-0.04134 a 0.42067,0.42334999 0 0 0 0.00465,-0.02791 0.42067,0.42334999 0 0 0 0.00258,-0.02791 0.42067,0.42334999 0 0 0 0.00103,-0.02739 c 0,-0.01922 -0.00827,-0.02384 -0.00827,-0.04134 -0.0035,-0.06278 0.01833,-0.06591 0.04134,-0.10025 0.01167,-0.017 0.016564,-0.04566 0.024804,-0.05788 0.03892,-0.058 0.1039768,-0.08654 0.099217,-0.174663 -0.0016,-0.02929 -0.011912,-0.09091 -0.033072,-0.10025 -0.01216,-0.005 -0.040216,-0.0015 -0.057876,-0.0083 -0.05691,-0.02129 -0.097833,-0.08669 -0.1570932,-0.09147 -0.01242,-5.25e-4 -0.019072,5.46e-4 -0.033072,0 -0.023,-5.25e-4 -0.048493,-0.02242 -0.074413,-0.02532 -0.01641,-0.0016 -0.048137,0.005 -0.057876,0 -0.01483,-0.0067 -0.012894,-0.03308 -0.024804,-0.04134 -0.0098,-0.0067 -0.02626,-0.01094 -0.04134,-0.01654 a 0.19711,0.19835999 0 0 0 -0.01757,-0.0072 0.19711,0.19835999 0 0 0 -0.018603,-0.0052 0.19711,0.19835999 0 0 0 -0.01912,-0.0031 0.19711,0.19835999 0 0 0 -0.010852,-10e-4 c -0.0085,-5.45e-4 -0.03183,0.0016 -0.04134,0 -0.01483,-0.0025 -0.027591,-0.01657 -0.04134,-0.02532 -0.01749,-0.01064 -0.025912,-0.01797 -0.033072,-0.03307 0.01583,-0.05215 -0.039018,-0.06111 -0.049608,-0.09147 -0.005,-0.01411 0.005,-0.03734 0,-0.05012 -0.0058,-0.01791 -0.02151,-0.0264 -0.04134,-0.04134 -0.03442,-0.02714 -0.066023,-0.05204 -0.1157529,-0.05839 -0.022,-0.0025 -0.047486,0.0016 -0.073896,0 a 0.12884,0.12966 0 0 1 -0.015503,-0.0021 0.12884,0.12966 0 0 1 -0.014986,-0.0047 0.12884,0.12966 0 0 1 -0.013953,-0.0057 0.12884,0.12966 0 0 1 -0.013435,-0.0078 0.12884,0.12966 0 0 1 -0.012919,-0.0093 0.12884,0.12966 0 0 1 -0.010852,-0.01085 0.12884,0.12966 0 0 1 -0.00155,-0.001 c -0.02034,-0.02401 -0.02367,-0.04725 -0.04134,-0.05839 -0.01668,-0.01064 -0.04602,-0.01359 -0.05736,-0.0248 -0.005,-0.005 -0.00368,-0.01393 -0.00878,-0.0248 -0.0085,-0.01757 -0.027116,-0.02067 -0.016536,-0.04186 -0.01933,-0.0095 -0.012412,0.01198 -0.033072,0.0083 -0.01849,-0.02657 -0.032083,-0.04108 -0.074413,-0.03307 -0.01933,0.0042 -0.035456,0.03257 -0.057877,0.03307 -0.01849,5.45e-4 -0.033297,-0.02969 -0.057876,-0.03307 -0.01849,-0.0025 -0.0447,0.01951 -0.05736,0.01654 -0.02092,-0.0033 -0.023107,-0.02887 -0.041857,-0.04134 -0.01375,-0.0093 -0.041432,-0.03417 -0.049092,-0.03359 -0.02408,5.46e-4 -0.041579,0.0515 -0.074929,0.03359 -0.01617,-0.02079 0.028035,-0.02248 0.00878,-0.04186 -0.01459,-0.01436 -0.021662,5.54e-4 -0.033072,0.0083 -0.01351,0.009 -0.026787,0.01976 -0.041857,0.0248 -0.03308,0.01271 -0.056174,0.0117 -0.082164,0.02532 -0.02383,0.01271 -0.02759,0.03314 -0.04134,0.05788 -0.01109,0.02022 -0.033205,0.04907 -0.050125,0.05012 -0.02008,0.0016 -0.03936,-0.02557 -0.05736,-0.03359 -0.05558,-0.02401 -0.086779,0.01655 -0.132289,0.01705 -0.04233,5.25e-4 -0.1013369,-0.0678 -0.099217,-0.108002 0.0016,-0.02475 0.013636,-0.0616 0.016536,-0.09198 0.0025,-0.02401 0.024294,-0.044301 0.024804,-0.06666 5.339e-4,-0.02929 -0.047064,-0.054487 -0.066145,-0.057876 -0.04525,-0.0084 -0.10628,0.02054 -0.15761,0 -0.0095,-0.01651 0.019561,-0.025917 0.025321,-0.041857 0.0035,-0.0093 -0.0034,-0.014744 0,-0.024804 0.0058,-0.01543 0.025652,-0.02491 0.033072,-0.04134 0.005,-0.01247 0.00247,-0.034695 0.00827,-0.050125 0.0066,-0.01724 0.023144,-0.029147 0.024804,-0.041857 0.0016,-0.0165 -0.011814,-0.038968 -0.024804,-0.049608 a 0.25769,0.25933999 0 0 0 -0.02222,0.00103 0.25769,0.25933999 0 0 0 -0.021704,0.00258 0.25769,0.25933999 0 0 0 -0.021187,0.00465 0.25769,0.25933999 0 0 0 -0.021187,0.0062 0.25769,0.25933999 0 0 0 -0.00517,0.00207 c -0.05184,0.02401 -0.038002,0.091998 -0.090432,0.1085183 -0.01799,0.0058 -0.046065,0.013406 -0.066145,0.016536 a 2.3574999,2.3725 0 0 1 0.013952,-0.065627 2.3574999,2.3725 0 0 1 0.015503,-0.064594 2.3574999,2.3725 0 0 1 0.01757,-0.064594 2.3574999,2.3725 0 0 1 0.01912,-0.063561 2.3574999,2.3725 0 0 1 0.02067,-0.063561 2.3574999,2.3725 0 0 1 0.023254,-0.062527 2.3574999,2.3725 0 0 1 0.024287,-0.06201 2.3574999,2.3725 0 0 1 0.022737,-0.052709 c 0.01849,0.00333 0.033678,0.014975 0.049608,0.016536 0.04417,0.00333 0.046111,-0.030658 0.082681,-0.050125 0.03757,0.00494 0.056849,-0.00333 0.090949,0 0.023,0.00252 0.056173,0.031752 0.074413,0.033072 0.01533,5.363e-4 0.018482,-0.019015 0.033072,-0.016536 0.01459,0.00252 0.03876,0.032803 0.04134,0.050125 0.0025,0.021785 -0.014875,0.042649 -0.00878,0.066661 0.02275,0.023186 0.066907,0.036512 0.099217,0.050125 0.02117,-0.017488 0.0035,-0.058352 0,-0.083714 -5.249e-4,-0.011134 0.0016,-0.023006 0,-0.033072 -0.0025,-0.017241 -0.00827,-0.034949 -0.00827,-0.050125 0,-0.069225 0.052917,-0.097367 0.099217,-0.1245377 0.01983,-0.011719 0.040983,-0.03311 0.058393,-0.041857 0.02432,-0.011961 0.03727,-0.013419 0.05736,-0.024804 0.03675,-0.020797 0.070907,-0.042901 0.099217,-0.066661 0.01325,-0.031438 -0.0016,-0.06886 0,-0.099733 0.01325,-0.00846 0.019322,0.00161 0.033072,0 0.02225,-0.00494 0.02891,-0.037337 0.04134,-0.050125 0.0075,-0.00746 0.03267,-0.0093 0.04134,-0.016536 0.02225,-0.017492 0.02233,-0.042376 0.04134,-0.050125 0.0066,-0.00252 0.022492,-0.00475 0.033072,-0.00827 0.01459,-0.00413 0.034876,-0.016471 0.057876,-0.024804 0.01483,-0.00494 0.052126,-0.00285 0.057877,-0.00878 0.0074,-0.00746 -0.0016,-0.03891 0,-0.050125 0.01133,-0.054624 0.091877,-0.056265 0.1405571,-0.074413 0.03359,-0.013372 0.069895,-0.040764 0.1074849,-0.033589 -0.0075,0.026078 -0.039162,0.018697 -0.033072,0.050125 0.0083,0.043973 0.058823,-0.010947 0.074413,-0.017053 0.02907,-0.012455 0.085641,-0.019046 0.124021,-0.033072 0.03383,-0.011964 0.089657,-0.03582 0.057876,-0.074929 -0.02651,-0.00165 -0.034626,0.0241 -0.057876,0.033589 -0.01583,0.00248 -0.019572,-0.0078 -0.033072,-0.00878 -0.013,-5.445e-4 -0.020072,0.011019 -0.033072,0.00878 -0.013,-0.00248 -0.030992,-0.026428 -0.033072,-0.041857 -0.005,-0.04076 0.041467,-0.053057 0.057876,-0.083197 -0.01109,-0.036716 -0.059999,-0.00251 -0.090949,-0.016536 0.0035,-0.021782 0.01567,-0.045587 0.04134,-0.050125 a 0.16352,0.16456 0 0 1 0.01757,0 0.16352,0.16456 0 0 1 0.01757,0.00155 0.16352,0.16456 0 0 1 0.017053,0.00362 0.16352,0.16456 0 0 1 0.016536,0.00568 0.16352,0.16456 0 0 1 0.013953,0.0062 c 0.0074,0.00577 -0.00253,0.022675 0.00827,0.033072 0.01267,0.011138 0.033178,0.00248 0.049608,0 0.0058,-0.02764 -0.037822,-0.015167 -0.033072,-0.033072 0.03258,-0.021287 0.092349,-0.011773 0.132289,-0.017053 0.023,-0.00331 0.045484,-0.021934 0.066145,-0.033072 0.01908,-0.011138 0.037796,-0.026508 0.057876,-0.00827 0.0058,0.019967 -0.013974,0.031275 -0.024804,0.04134 -0.03709,0.033086 -0.070417,0.070198 -0.099217,0.1085183 0.01775,0.017245 0.044492,0.00481 0.074413,0.00827 0.01167,0.00165 0.02915,0.00629 0.04134,0.00827 0.01459,0.00248 0.02975,-0.00248 0.04134,0 0.02008,0.00495 0.02125,0.033589 0.04134,0.033589 0.03258,0 0.035296,-0.027682 0.016536,-0.050125 0.0058,-0.022608 0.016438,-0.041951 0.00827,-0.057876 -0.01508,-0.030109 -0.071233,0.00462 -0.074413,-0.033589 -0.0016,-0.024258 0.024572,-0.031726 0.033072,-0.050125 -0.0035,-0.046369 0.037822,-0.048878 0.033072,-0.090949 -0.0025,-0.017491 -0.021162,-0.017335 -0.033072,-0.033589 -0.0058,-0.00883 -0.00933,-0.026966 -0.016536,-0.033072 -0.02517,-0.021287 -0.071233,-0.018151 -0.074413,-0.05891 -0.0016,-0.02401 0.0035,-0.039742 0,-0.066144 -0.0035,-0.024505 -0.028448,-0.094939 -0.049608,-0.099734 -0.02699,-0.00577 -0.042423,0.042942 -0.074413,0.057876 a 0.13043,0.13127 0 0 1 -0.014469,0.00517 0.13043,0.13127 0 0 1 -0.015502,0.0031 0.13043,0.13127 0 0 1 -0.015503,0.00155 0.13043,0.13127 0 0 1 -0.015503,-5.167e-4 0.13043,0.13127 0 0 1 -0.00517,-5.168e-4 c -0.01167,-0.00248 -0.031732,-0.011393 -0.033072,-0.033589 -0.0016,-0.012706 0.00247,-0.017048 0.00827,-0.024804 0.0016,-0.00165 -0.0016,-0.00646 0,-0.00827 a 2.3996999,2.4149999 0 0 1 0.064594,-0.01757 2.3996999,2.4149999 0 0 1 0.065111,-0.016019 2.3996999,2.4149999 0 0 1 0.065628,-0.013435 2.3996999,2.4149999 0 0 1 0.065628,-0.011885 2.3996999,2.4149999 0 0 1 0.066145,-0.010335 2.3996999,2.4149999 0 0 1 0.066661,-0.00827 2.3996999,2.4149999 0 0 1 0.066661,-0.0062 2.3996999,2.4149999 0 0 1 0.066661,-0.00465 2.3996999,2.4149999 0 0 1 0.066662,-0.00258 2.3996999,2.4149999 0 0 1 0.067178,-0.00103 z M 7.4820832,8.0644333 7.4826,8.06495 C 7.45935,8.140611 7.391182,8.1836197 7.3007025,8.1812197 c -0.02225,0.021287 -0.012894,0.061919 -0.024804,0.091465 a 0.073023,0.073488 0 0 1 -0.0062,0.010335 0.073023,0.073488 0 0 1 -0.00723,0.00878 0.073023,0.073488 0 0 1 -0.00878,0.00775 0.073023,0.073488 0 0 1 -0.00982,0.0062 0.073023,0.073488 0 0 1 -0.010852,0.00465 0.073023,0.073488 0 0 1 -0.011369,0.0031 0.073023,0.073488 0 0 1 -0.011369,5.167e-4 0.073023,0.073488 0 0 1 -5.167e-4,0 c -0.01775,-0.00165 -0.050125,-0.02459 -0.050125,-0.04134 0,-0.013861 0.013633,-0.029645 0.017053,-0.041857 a 2.3611,2.3761 0 0 1 0.056326,-0.035139 2.3611,2.3761 0 0 1 0.05736,-0.033589 2.3611,2.3761 0 0 1 0.057876,-0.032039 2.3611,2.3761 0 0 1 0.059427,-0.029972 2.3611,2.3761 0 0 1 0.059943,-0.028938 2.3611,2.3761 0 0 1 0.014469,-0.00672 z M 6.8867825,8.455616 c 0.01775,0.021287 0.03258,0.0528 0,0.066661 -0.005,0.00248 -0.062216,0.010849 -0.073896,0.00878 -0.0034,-5.283e-4 -0.00548,-0.00598 -0.00878,-0.00878 0.02518,-0.024752 0.056441,-0.042898 0.082681,-0.066661 z m 0.066661,0.083197 c 0,0 -5.167e-4,5.17e-4 -5.167e-4,5.17e-4 0.01167,5.371e-4 0.019572,0.023545 0.033072,0.024287 0.01325,0.00165 0.033857,-0.010502 0.041857,-0.00827 0.02008,0.00495 0.027458,0.042942 0.00827,0.057876 -0.01584,0.00161 -0.021402,-0.019015 -0.033072,-0.016536 -0.03283,0.00574 -0.041814,0.068726 -0.066145,0.066662 -0.02325,-0.00252 -0.040116,-0.049662 -0.016536,-0.066662 5.249e-4,-0.014357 -0.00917,-0.018902 -0.00827,-0.033589 0.00739,-0.00895 0.021912,-0.024775 0.040824,-0.02377 0,0 5.167e-4,-5.17e-4 5.167e-4,-5.17e-4 z M 6.8459587,8.555349 c 0.0066,0 0.00577,-0.00248 0.00827,0 -0.0035,0.025824 -0.013242,0.029645 -0.033072,0.041857 a 0.13546,0.13632 0 0 0 -0.013436,0.00878 0.13546,0.13632 0 0 0 -0.012402,0.010335 0.13546,0.13632 0 0 0 -0.010852,0.011369 0.13546,0.13632 0 0 0 -0.00982,0.012919 0.13546,0.13632 0 0 0 -0.00775,0.013435 0.13546,0.13632 0 0 0 -0.0062,0.014986 0.13546,0.13632 0 0 0 -0.00465,0.014986 0.13546,0.13632 0 0 0 -0.00103,0.00465 c -0.0035,0.013372 -0.041716,0.053268 -0.057876,0.050125 -0.03809,-0.00836 0.016054,-0.080321 0.024804,-0.091465 0.0098,-0.012212 0.021992,-0.020057 0.033072,-0.033589 0.01109,-0.013372 0.014214,-0.042121 0.024804,-0.050125 0.01167,-0.00841 0.045974,-0.00894 0.066145,-0.00827 z M 6.109584,9.928365 c 0,0 5.168e-4,5.167e-4 5.168e-4,5.167e-4 0.016784,0.021658 0.035069,0.046945 0.05736,0.058393 0.01216,0.0058 0.02601,0.00487 0.04134,0.00827 0.01242,0.0025 0.021162,0.012906 0.033072,0.016536 0.02541,0.0088 0.062531,0.0078 0.082681,0.01705 0.03092,0.01337 0.047733,0.06767 0.074413,0.0832 0.0016,0.01543 -0.005,0.02995 0,0.04134 0.01242,0.017 0.037787,0.02184 0.057876,0.03307 0.02458,0.01361 0.034886,0.04774 0.057876,0.05839 0.0083,0.0033 0.020652,-0.0033 0.033072,0 0.03175,0.0095 0.038655,0.05804 0.066145,0.05012 0.01775,-0.005 0.021894,-0.0328 0.024804,-0.05012 0.01192,-0.01337 0.02258,-0.03307 0.04134,-0.03307 0.02991,-5.23e-4 0.038518,0.03685 0.049608,0.06614 0.0058,0.01651 0.020644,0.03247 0.024804,0.05013 a 0.43391,0.43666999 0 0 1 0.00362,0.02842 0.43391,0.43666999 0 0 1 0.00155,0.02894 0.43391,0.43666999 0 0 1 -5.167e-4,0.02842 0.43391,0.43666999 0 0 1 -0.00207,0.02842 0.43391,0.43666999 0 0 1 -0.00258,0.01912 c -0.0074,0.0221 -0.039887,0.03371 -0.057876,0.05788 -0.0087,0.01172 -0.018224,0.02591 -0.024804,0.03359 -0.01167,0.01469 -0.024312,0.02004 -0.033072,0.03307 -0.005,0.0074 -0.00397,0.02301 -0.00827,0.03307 -0.01425,0.03118 -0.036964,0.05424 -0.024804,0.09146 0.005,0.01493 0.024804,0.03198 0.024804,0.05013 0,0.02128 -0.046128,0.02686 -0.049608,0.05012 -0.0025,0.017 0.019474,0.05224 0.024804,0.07493 0.0034,0.017 0.03134,0.03065 0.04134,0.04186 0.01691,0.01866 0.034258,0.04189 0.049608,0.06614 0.03016,0.04687 0.044753,0.104059 0.074413,0.149859 0.01583,0.02401 0.047287,0.04134 0.057876,0.06666 0.005,0.01247 -0.005,0.03832 0,0.05012 0.01717,0.0392 0.1016671,0.08009 0.1405571,0.09922 0.01849,0.0093 0.032928,0.01576 0.049608,0.02532 0.02567,0.01468 0.078009,0.04404 0.090949,0.06666 0.01167,0.02047 0.019054,0.0672 0.024804,0.09973 0.0075,0.04257 -0.0016,0.07897 0,0.125055 0.0016,0.025 0.00827,0.04081 0.00827,0.06614 0,0.0087 5.339e-4,0.02485 0,0.03359 -5.249e-4,0.03012 0.0025,0.0611 0,0.09147 a 0.34448,0.34667999 0 0 0 -5.167e-4,0.02532 0.34448,0.34667999 0 0 0 5.167e-4,0.0248 c 0.0016,0.01519 0.015973,0.02004 0.017053,0.03307 8.199e-4,0.01411 -0.018633,0.03065 -0.017053,0.04186 0.0035,0.03036 0.03557,0.05521 0.04134,0.0832 0.005,0.02236 0.011375,0.07307 0.00878,0.09973 -0.0025,0.01411 -0.00688,0.03469 -0.00878,0.05012 -0.0016,0.01196 0.0016,0.02218 0,0.03307 C 7.0196679,12.152419 6.8688282,12.026297 6.7348567,11.883763 6.6008852,11.741229 6.4838443,11.582004 6.3875979,11.4099 6.2913518,11.237795 6.2159491,11.052707 6.1643601,10.857489 c -0.051589,-0.195218 -0.079063,-0.400478 -0.079063,-0.612353 0,-0.10863 0.010804,-0.211334 0.024804,-0.3162538 0,0 -5.168e-4,-5.167e-4 -5.171e-4,-5.172e-4 z" />
</svg>
