<?xml version="1.0" encoding="UTF-8" standalone="no"?>
<svg
   xmlns:dc="http://purl.org/dc/elements/1.1/"
   xmlns:cc="http://creativecommons.org/ns#"
   xmlns:rdf="http://www.w3.org/1999/02/22-rdf-syntax-ns#"
   xmlns:svg="http://www.w3.org/2000/svg"
   xmlns="http://www.w3.org/2000/svg"
   xmlns:xlink="http://www.w3.org/1999/xlink"
   xmlns:sodipodi="http://sodipodi.sourceforge.net/DTD/sodipodi-0.dtd"
   xmlns:inkscape="http://www.inkscape.org/namespaces/inkscape"
   width="64"
   height="64"
   version="1.1"
   viewBox="0 0 16.933 16.933"
   id="svg39"
   sodipodi:docname="user-identity.svg"
   inkscape:version="1.0.1 (3bc2e813f5, 2020-09-07)">
  <sodipodi:namedview
     pagecolor="#ffffff"
     bordercolor="#666666"
     borderopacity="1"
     objecttolerance="10"
     gridtolerance="10"
     guidetolerance="10"
     inkscape:pageopacity="0"
     inkscape:pageshadow="2"
     inkscape:window-width="1920"
     inkscape:window-height="975"
     id="namedview41"
     showgrid="false"
     inkscape:zoom="4.5906698"
     inkscape:cx="37.775794"
     inkscape:cy="8.7872975"
     inkscape:window-x="0"
     inkscape:window-y="0"
     inkscape:window-maximized="1"
     inkscape:current-layer="svg39" />
  <defs
     id="defs7">
    <linearGradient
       inkscape:collect="always"
       id="linearGradient955">
      <stop
         style="stop-color:#00b9ff;stop-opacity:1"
         offset="0"
         id="stop951" />
      <stop
         style="stop-color:#0078e1;stop-opacity:1"
         offset="1"
         id="stop953" />
    </linearGradient>
    <linearGradient
       id="linearGradient912"
       x1="9.0937"
       x2="9.0937"
       y1="14.916"
       y2="2.017"
       gradientTransform="matrix(1.0235,0,0,1.0235,16.422406,-0.35069)"
       gradientUnits="userSpaceOnUse">
      <stop
         stop-color="#005ae1"
         offset="0"
         id="stop2"
         style="stop-color:#0078e1;stop-opacity:1" />
      <stop
         stop-color="#005ae1"
         offset="1"
         id="stop4"
         style="stop-color:#05b9ff;stop-opacity:1" />
    </linearGradient>
    <linearGradient
       inkscape:collect="always"
       xlink:href="#linearGradient955"
       id="linearGradient957"
       x1="8.5604534"
       y1="1.2134557"
       x2="8.5604534"
       y2="15.847906"
       gradientUnits="userSpaceOnUse" />
  </defs>
  <metadata
     id="metadata9">
    <rdf:RDF>
      <cc:Work
         rdf:about="">
        <dc:format>image/svg+xml</dc:format>
        <dc:type
           rdf:resource="http://purl.org/dc/dcmitype/StillImage" />
        <dc:title></dc:title>
      </cc:Work>
    </rdf:RDF>
  </metadata>
  <circle
     style="fill:url(#linearGradient957);fill-opacity:1;stroke:#0050b4;stroke-width:0.0407023;stroke-linecap:round"
     id="path949"
     cx="8.4665003"
     cy="8.4665003"
     r="7.2555475" />
  <g
     fill="#5e4aa6"
     stroke-width=".26458"
     id="g21">
    <circle
       cx="-330.35"
       cy="-328.38"
       r="0"
       id="circle11" />
    <circle
       cx="-312.11"
       cy="-326.25"
       r="0"
       id="circle13" />
    <circle
       cx="-306.02"
       cy="-333.07"
       r="0"
       id="circle15" />
    <circle
       cx="-308.84"
       cy="-326.01"
       r="0"
       id="circle17" />
    <circle
       cx="-328.8"
       cy="-330.45"
       r="0"
       id="circle19" />
  </g>
  <g
     transform="matrix(.59327 0 0 .58932 3.3847 3.7996)"
     fill="#fff"
     id="g37">
    <path
       d="m7.2242 8.556v0.39835s0.10755 0.85578-0.50008 1.1723c-0.60764 0.31647-2.6192 1.2658-2.7272 1.4416-0.10802 0.17582-0.26993 0.68298 0.18917 0.81192h8.7592c0.45911-0.12893 0.2972-0.6361 0.18917-0.81192s-2.1196-1.1251-2.7272-1.4416c-0.60764-0.31647-0.50008-1.1723-0.50008-1.1723v-0.39835h-1.3415z"
       id="path25" />
    <g
       transform="translate(.10535)"
       id="g35">
      <path
         d="m10.452 6.6018c-0.26458 1.8862-0.88842 2.8929-1.9843 2.8929-1.0959 1e-7 -1.7198-1.0067-1.9843-2.8929-0.2414-1.7209 0-3.1436 1.9843-3.1436s2.2257 1.4227 1.9843 3.1436z"
         id="path27" />
      <path
         d="m10.492 6.1701s0.6201-0.024804 0.45474 0.5953c-0.16536 0.6201-0.47955 1.2816-0.82681 1.356-0.34726 0.074413 0.27285-1.9265 0.37206-1.9513z"
         id="path29" />
      <path
         d="m6.4284 6.1117s-0.6201-0.024804-0.45474 0.5953c0.16536 0.6201 0.47955 1.2816 0.82681 1.356 0.34726 0.074413-0.27285-1.9265-0.37206-1.9513z"
         id="path31" />
      <path
         d="m10.452 6.6018c-0.26458 1.8862-0.88842 2.8929-1.9843 2.8929-1.0959 1e-7 -1.7198-1.0067-1.9843-2.8929-0.2414-1.7209 0-3.1436 1.9843-3.1436s2.2257 1.4227 1.9843 3.1436z"
         id="path33" />
    </g>
  </g>
</svg>
