<?xml version="1.0" encoding="UTF-8" standalone="no"?>
<svg
   width="16"
   height="16"
   version="1.1"
   viewBox="0 0 16 16"
   id="svg7"
   sodipodi:docname="folder-music-symbolic.svg"
   inkscape:version="1.1 (c4e8f9ed74, 2021-05-24)"
   xmlns:inkscape="http://www.inkscape.org/namespaces/inkscape"
   xmlns:sodipodi="http://sodipodi.sourceforge.net/DTD/sodipodi-0.dtd"
   xmlns="http://www.w3.org/2000/svg"
   xmlns:svg="http://www.w3.org/2000/svg">
  <sodipodi:namedview
     id="namedview9"
     pagecolor="#ffffff"
     bordercolor="#999999"
     borderopacity="1"
     inkscape:pageshadow="0"
     inkscape:pageopacity="0"
     inkscape:pagecheckerboard="0"
     showgrid="false"
     inkscape:zoom="26.21875"
     inkscape:cx="8.3718713"
     inkscape:cy="4.7294398"
     inkscape:window-width="1920"
     inkscape:window-height="997"
     inkscape:window-x="0"
     inkscape:window-y="0"
     inkscape:window-maximized="1"
     inkscape:current-layer="svg7" />
  <defs
     id="defs3">
    <style
       id="current-color-scheme"
       type="text/css">.ColorScheme-Text { color:#363636; }</style>
    <linearGradient
       id="linearGradient864"
       x1="11.397"
       x2="126.08"
       y1="-52.462002"
       y2="-229.84"
       gradientTransform="matrix(0.088968,0,0,0.088968,1.8645551,20.596839)"
       gradientUnits="userSpaceOnUse">
      <stop
         stop-color="#00a1f4"
         offset="0"
         id="stop5" />
      <stop
         stop-color="#009afb"
         offset="1"
         id="stop7" />
    </linearGradient>
  </defs>
  <path
     class="ColorScheme-Text"
     d="m 26.068187,-7e-8 c -0.01105,0 -0.02038,0.00516 -0.03125,0.00586 -0.03143,0.00191 -0.06072,0.011509 -0.0918,0.019531 -0.03629,0.00938 -0.07096,0.018351 -0.10352,0.035156 -0.0076,0.00389 -0.01597,0.0035 -0.02344,0.00781 -0.01553,0.00897 -0.02487,0.022903 -0.03906,0.033203 -0.03202,0.023239 -0.06031,0.048078 -0.08594,0.078125 -0.01913,0.022303 -0.03412,0.045374 -0.04883,0.070312 -0.01685,0.028515 -0.03198,0.056063 -0.04297,0.087891 -0.0121,0.034571 -0.0172,0.069033 -0.02148,0.10547 -0.0023,0.019478 -0.01171,0.036534 -0.01171,0.056643 V 11.504001 c -0.43225,-0.32595 -0.95863,-0.50278 -1.5,-0.50391 -1.3807,0 -2.5,1.1193 -2.5,2.5 0,1.3807 1.1193,2.5 2.5,2.5 1.3807,0 2.5,-1.1193 2.5,-2.5 V 2.3670909 l 1.5664,2.7129 c 0.1385,0.23989 0.4437,0.32209 0.68359,0.18359 0.23989,-0.1385 0.32209,-0.4437 0.18359,-0.68359 l -2.5,-4.33009997 c -0.01057,-0.018315 -0.02861,-0.02848 -0.04102,-0.044922 -0.02179,-0.02901 -0.04283,-0.056481 -0.07031,-0.080078 -0.02193,-0.018889 -0.04582,-0.032266 -0.07031,-0.046875 -0.03036,-0.018168 -0.05961,-0.035411 -0.09375,-0.046875 -0.03061,-0.010366 -0.06168,-0.013295 -0.09375,-0.017578 -0.02207,-0.002954 -0.04155,-0.013672 -0.06445,-0.013672 z M 24.062287,12 c 0.83163,-1.29e-4 1.5059,0.67148 1.5059,1.5 0,0.82852 -0.67423,1.5001 -1.5059,1.5 -0.83163,1.29e-4 -1.5059,-0.67148 -1.5059,-1.5 0,-0.82852 0.67423,-1.5001 1.5059,-1.5 z"
     color="#727272"
     fill="#363636"
     id="path5" />
  <path
     d="M 8.2059551,0.38532857 V 11.371329 c 0,0 -3.6506,-1.3481 -5.2666,2.2024 0,0 -0.4919,2.0074 2.174,2.3513 2.666,0.34389 4.2643,-2.321 4.2643,-2.7866 V 4.9701286 c 0,0 4.6625999,1.8699 2.1198999,5.9276004 0,0 -0.15123,0.39819 0.26603,0.36758 0.41726,-0.03059 3.0073,-3.9175004 -0.40753,-7.4877004 0,0 -1.8403999,-1.2538 -2.0194999,-3.39460003 0,0 -0.46621,-0.76339 -1.1308,0.002 z"
     fill="url(#linearGradient864)"
     stroke="#007ac0"
     stroke-opacity="0.97255"
     stroke-width="0.088969px"
     id="path14"
     style="fill:url(#linearGradient864)" />
</svg>
