<?xml version="1.0" encoding="UTF-8" standalone="no"?>
<svg
   width="16"
   height="16"
   version="1.1"
   viewBox="0 0 16 16"
   id="svg9"
   sodipodi:docname="network-workgroup-symbolic.svg"
   inkscape:version="1.1 (c4e8f9ed74, 2021-05-24)"
   xmlns:inkscape="http://www.inkscape.org/namespaces/inkscape"
   xmlns:sodipodi="http://sodipodi.sourceforge.net/DTD/sodipodi-0.dtd"
   xmlns="http://www.w3.org/2000/svg"
   xmlns:svg="http://www.w3.org/2000/svg">
  <sodipodi:namedview
     id="namedview11"
     pagecolor="#ffffff"
     bordercolor="#999999"
     borderopacity="1"
     inkscape:pageshadow="0"
     inkscape:pageopacity="0"
     inkscape:pagecheckerboard="0"
     showgrid="false"
     inkscape:zoom="18.539456"
     inkscape:cx="3.2093714"
     inkscape:cy="6.4187428"
     inkscape:window-width="1920"
     inkscape:window-height="997"
     inkscape:window-x="0"
     inkscape:window-y="0"
     inkscape:window-maximized="1"
     inkscape:current-layer="svg9" />
  <defs
     id="defs3">
    <style
       id="current-color-scheme"
       type="text/css">.ColorScheme-Text { color:#363636; }</style>
    <linearGradient
       id="linearGradient1005-3"
       x1="15.087"
       x2="3.1808"
       y1="15.187"
       y2="3.2804999"
       gradientTransform="matrix(0.7559,0,0,0.75591,16.596,14.52)"
       gradientUnits="userSpaceOnUse">
      <stop
         stop-color="#26576d"
         offset="0"
         id="stop5" />
      <stop
         stop-color="#58b1dd"
         offset=".67617"
         id="stop7" />
      <stop
         stop-color="#58b1de"
         offset="1"
         id="stop9" />
    </linearGradient>
    <linearGradient
       id="linearGradient1134"
       x1="300.64999"
       x2="327.81"
       y1="70.232002"
       y2="36.997002"
       gradientTransform="matrix(0.22945,0,0,0.23179,-47.997,8.2396)"
       gradientUnits="userSpaceOnUse">
      <stop
         stop-color="#d2edf3"
         offset="0"
         id="stop12" />
      <stop
         stop-color="#add4dd"
         offset="1"
         id="stop14" />
    </linearGradient>
  </defs>
  <g
     transform="translate(20.164547)"
     fill="#363636"
     stroke-linecap="round"
     stroke-linejoin="round"
     stroke-width="2"
     style="paint-order:stroke fill markers"
     aria-label=""
     id="g7">
    <path
       d="m 6.0309,8 h 3 v 1 h -3 z m 0,-2 h 3 v 1 h -3 z m 0,-4 h 3 v 1 h -3 z m 8,13 h -3 v 1 h -7 v -1 h -3 v -1 h 3 v -1 h 2 v -1 h 1 v -1 h -3 V 1 q 0,-0.21094 0.078125,-0.39062 Q 4.18715,0.4297 4.319965,0.29688 4.460585,0.15626 4.640275,0.07813 4.819965,0 5.030895,5e-6 h 5 q 0.21094,0 0.39062,0.078125 0.17969,0.078125 0.3125,0.21875 0.14062,0.13281 0.21875,0.3125 Q 11.030895,0.78907 11.03089,1 v 10 h -3 v 1 h 1 v 1 h 2 v 1 h 3 z m -4,-5 V 1 h -5 v 9 z m 0,4 h -2 v -1 h -1 v 1 h -2 v 1 h 5 z"
       stroke-width="2"
       id="path5" />
  </g>
  <g
     transform="matrix(1.0666,0,0,1.0666,4.2056292,-1.3138392)"
     id="g37">
    <g
       transform="translate(-17.965,-13.683)"
       id="g25">
      <path
         d="m 29.022,20.915 c 0,0.71928 -0.12661,1.4089 -0.35878,2.0481 -0.16139,0.44424 -0.37371,0.86422 -0.63036,1.2527 -0.10751,0.16334 -0.2231,0.32107 -0.34579,0.47266 -0.3928,0.48514 -0.8596,0.9076 -1.3836,1.2505 -0.19298,0.12637 -0.39356,0.24197 -0.60121,0.34554 -0.80639,0.40357 -1.7167,0.63059 -2.6801,0.63059 -0.9634,0 -1.8737,-0.22702 -2.6801,-0.6306 -0.20768,-0.1036 -0.40849,-0.21919 -0.60147,-0.34554 -0.53069,-0.34751 -1.0031,-0.77662 -1.3991,-1.2698 -0.12293,-0.15281 -0.23828,-0.312 -0.34579,-0.47681 -0.2498,-0.38203 -0.45672,-0.79423 -0.61492,-1.2299 -0.23214,-0.63896 -0.35852,-1.3283 -0.35852,-2.0473 0,-3.3137 2.6862,-6 5.9999,-6 1.6634,0 3.1685,0.6769 4.2553,1.7701 0.31321,0.31492 0.59167,0.66466 0.82867,1.0428 0.22408,0.35609 0.41142,0.73763 0.55713,1.139 0.2322,0.63919 0.3588,1.3288 0.3588,2.0481 z"
         fill="url(#linearGradient1005-3)"
         stroke-width="0.023438"
         id="path21"
         style="fill:url(#linearGradient1005-3)" />
      <path
         d="m 23.029,15.282 -0.70491,0.40608 c -0.08813,0.06249 -0.11771,0.18741 -0.02958,0.2499 l 0.20569,0.15619 c 0.02938,0.03124 0.08803,0.03124 0.11741,0.03124 l 0.61707,-0.15619 h 0.02958 l 0.44051,-0.2499 c 0.14689,-0.06249 0.14689,-0.24989 0,-0.28114 L 23.1464,15.28199 Z m 2.8206,0.3436 -1.1167,0.21866 c -0.02938,0 -0.02932,-7e-6 -0.0587,0.03124 l -1.3511,0.84386 c -0.02938,0 -0.05892,0.03124 -0.08828,0.03124 h -0.96927 c -0.02938,0 -0.05891,-10e-6 -0.08828,0.03124 l -1.6159,1.1557 c -0.08813,0.0625 -0.08813,0.18741 0,0.2499 l 0.29397,0.2499 c 0.02938,0.03125 0.11761,0.03124 0.14699,0.03124 l 1.0867,-0.56227 c 0.05876,-0.03125 0.11761,-0.03125 0.14699,0 l 0.41138,0.31237 c 0.05876,0.03125 0.14693,0.03127 0.20569,-0.03124 l 0.14698,-0.18743 c 0.02938,-0.0625 0.11735,-0.06249 0.17612,-0.03124 l 0.61707,0.31237 c 0,0 0.02913,-1.5e-5 0.02913,0.03124 l 0.3818,0.34406 c 0.02938,0.03125 0.08847,0.03124 0.11786,0.03124 l 0.3818,-0.06247 c 0.11751,-0.03125 0.20549,0.09368 0.17612,0.18742 l -0.11741,0.37485 c -0.02938,0.0625 2e-4,0.12494 0.02957,0.15619 l 0.93975,0.90587 c 0.02938,0.03125 0.02931,0.06248 0.0587,0.09371 l 0.08828,0.62519 c 0,0.09373 0.11756,0.1562 0.2057,0.12495 l 0.76361,-0.31237 c 0.02938,0 0.05915,-0.03122 0.05915,-0.06248 l 0.44051,-0.62519 c 0.05876,-0.0625 0.0587,-0.0937 0.0587,-0.15619 l -0.0587,-0.40608 c -0.02938,-0.12498 0.08798,-0.21867 0.17612,-0.18742 l 0.55837,0.18742 c 0.05876,0.03124 0.08783,0.06247 0.08783,0.12495 l 0.23527,1.1562 c 0.02938,0.12498 0.17626,0.1562 0.26439,0.06247 l 0.35268,-0.46855 c -0.23501,-2.0934 -1.4688,-3.8745 -3.1728,-4.7806 z m -0.32355,1.8747 0.73448,0.31237 c 0.04407,0.03124 0.07368,0.07022 0.0847,0.11317 0.01102,0.04296 0.0034,0.08985 -0.02599,0.13672 L 26.114,18.37494 c -0.02938,0.0625 -0.08823,0.06247 -0.14698,0.06247 l -0.6462,-0.09371 c -0.08813,0 -0.14724,-0.0937 -0.11786,-0.18742 l 0.14699,-0.49979 c 0.02938,-0.09373 0.11735,-0.12493 0.17612,-0.15619 z m -3.6428,1.4061 -1.1454,0.09371 c -0.14688,0 -0.29387,0.09368 -0.41138,0.21866 l -0.73448,0.81216 c -0.05876,0.0625 -0.08828,0.12492 -0.08828,0.21866 v 0.93754 c 0,0.09373 0.05911,0.18741 0.11786,0.2499 l 0.55792,0.40608 c 0.05876,0.03125 0.11756,0.06247 0.20569,0.06247 l 1.1459,-0.12495 c 0.11751,0 0.23477,0.06247 0.29353,0.15619 l 0.76406,1.4374 c 0.02938,0.06249 0.05851,0.15617 0.02913,0.21866 l -0.14654,0.56272 c -0.02938,0.09373 -2.53e-4,0.18741 0.02913,0.2499 l 0.67578,1.0933 c 0.05875,0.09373 0.17602,0.1562 0.29352,0.12495 l 0.91105,-0.15619 c 0.08813,0 0.17632,-0.06246 0.20569,-0.15619 l 0.85193,-1.531 c 0.02938,-0.0625 0.02913,-0.0937 0.02913,-0.15619 v -0.84336 c 0,-0.09373 0.02953,-0.18741 0.08828,-0.2499 l 0.73448,-0.68767 c 0.14689,-0.12497 0.14689,-0.34358 0,-0.46855 L 25.90844,21.06233 24.90956,20.28095 C 24.8508,20.21845 24.7917,20.12479 24.7917,20.03105 l -0.02913,-0.56226 c 0.02938,-0.09373 -0.11751,-0.21866 -0.2644,-0.21866 h -1.7038 c -0.02938,0 -0.05911,1.2e-5 -0.11786,-0.03124 L 22.00118,18.93775 C 21.9718,18.90651 21.91271,18.90651 21.88332,18.90651 Z m 4.5539,4.5303 c -0.02938,0 -0.08829,0.03122 -0.08829,0.06248 l -0.49922,0.75014 c -0.02938,0.03125 -0.02958,0.0937 -0.02958,0.12495 l 0.08828,0.46855 c 0.02938,0.09373 0.14693,0.1562 0.20569,0.09371 l 0.41094,-0.2499 c 0.02938,-0.03124 0.05871,-0.06248 0.05871,-0.09371 l 0.23527,-0.96879 c 0.02938,-0.09373 -0.05886,-0.18742 -0.14699,-0.18742 z"
         fill="url(#linearGradient1134)"
         stroke-width="0.82464"
         id="path23"
         style="fill:url(#linearGradient1134)" />
    </g>
    <g
       transform="translate(-4.9426,1.2324)"
       id="g35">
      <rect
         x="1"
         y="5"
         width="11"
         height="8"
         ry="0"
         fill="#0a6da8"
         stroke-width="0.92787"
         id="rect27" />
      <rect
         x="2.0999999"
         y="6"
         width="8.8999996"
         height="6"
         ry="0"
         fill="#25adff"
         stroke-width="0.7228"
         id="rect29" />
      <rect
         x="5.5"
         y="13"
         width="2"
         height="1"
         ry="0"
         fill="#c3ced5"
         stroke-width="0.70711"
         id="rect31" />
      <rect
         x="3.5"
         y="14"
         width="6"
         height="1"
         ry="0"
         fill="#a4bac1"
         stroke-width="1.2247"
         id="rect33" />
    </g>
  </g>
</svg>
