<?xml version="1.0" encoding="UTF-8" standalone="no"?>
<svg
   width="16"
   height="16"
   version="1.1"
   id="svg7"
   sodipodi:docname="user-trash-full-symbolic.svg"
   inkscape:version="1.1 (c4e8f9ed74, 2021-05-24)"
   xmlns:inkscape="http://www.inkscape.org/namespaces/inkscape"
   xmlns:sodipodi="http://sodipodi.sourceforge.net/DTD/sodipodi-0.dtd"
   xmlns="http://www.w3.org/2000/svg"
   xmlns:svg="http://www.w3.org/2000/svg">
  <sodipodi:namedview
     id="namedview9"
     pagecolor="#ffffff"
     bordercolor="#999999"
     borderopacity="1"
     inkscape:pageshadow="0"
     inkscape:pageopacity="0"
     inkscape:pagecheckerboard="0"
     showgrid="false"
     inkscape:zoom="18.539456"
     inkscape:cx="0.29666458"
     inkscape:cy="6.0951087"
     inkscape:window-width="1920"
     inkscape:window-height="997"
     inkscape:window-x="0"
     inkscape:window-y="0"
     inkscape:window-maximized="1"
     inkscape:current-layer="svg7" />
  <defs
     id="defs3">
    <style
       id="current-color-scheme"
       type="text/css">.ColorScheme-Text { color:#363636; }</style>
    <linearGradient
       id="linearGradient2193"
       x1="8.4665003"
       x2="8.4665003"
       y1="4.3382001"
       y2="15.463"
       gradientTransform="matrix(3.9244,0,0,3.9244,-93.743,-16.255)"
       gradientUnits="userSpaceOnUse">
      <stop
         stop-color="#f0f5fa"
         offset="0"
         id="stop5" />
      <stop
         stop-color="#e6ebf0"
         offset="1"
         id="stop7" />
    </linearGradient>
    <linearGradient
       id="linearGradient1593"
       x1="-8.6402998"
       x2="-5.0416999"
       y1="207.17999"
       y2="207.17999"
       gradientTransform="matrix(0.37157,0.0025172,-0.0025172,0.37157,11.175,-72.412)"
       gradientUnits="userSpaceOnUse">
      <stop
         stop-color="#99662e"
         offset="0"
         id="stop10" />
      <stop
         stop-color="#b67937"
         offset="1"
         id="stop12" />
    </linearGradient>
    <clipPath
       id="ax-2">
      <path
         d="m -16.962,206.64 c -1.1694,-0.69689 -2.6576,-1.9844 -2.6576,-3.9333 0,-1.1694 0.75595,-1.7127 0.75595,-1.7127 -0.05906,0.61421 -0.7087,1.7954 0.12993,2.4805 0.2008,0.3071 0.43703,0.33073 1.1103,0.3071 0.67327,-0.0236 0.53153,0.17718 0.53153,0.17718 0,0 0.16536,-0.74414 0.33073,-0.93313 0.16536,-0.18899 0.86226,-1.7009 0.86226,-1.7009 0,0 3.3191,-1.6891 3.5553,-1.7954 0.23624,-0.1063 1.193,-0.24805 1.193,-0.24805 0,0 3.39,1.193 3.5553,1.3584 0.16536,0.16536 0.37798,1.2638 0.37798,1.2638 l -0.42522,1.6418 -3.0829,1.1576 1.571,3.3782 -3.3545,0.22443 c 0,0 -3.6616,-0.29529 -4.453,-1.6655 z"
         fill="#b0afad"
         fill-rule="evenodd"
         id="path15" />
    </clipPath>
    <clipPath
       id="az-6">
      <path
         d="m -16.962,206.64 c -1.1694,-0.69689 -2.6576,-1.9844 -2.6576,-3.9333 0,-1.1694 0.75595,-1.7127 0.75595,-1.7127 -0.05906,0.61421 -0.7087,1.7954 0.12993,2.4805 0.2008,0.3071 0.43703,0.33073 1.1103,0.3071 0.67327,-0.0236 0.53153,0.17718 0.53153,0.17718 0,0 0.16536,-0.74414 0.33073,-0.93313 0.16536,-0.18899 0.86226,-1.7009 0.86226,-1.7009 0,0 3.3191,-1.6891 3.5553,-1.7954 0.23624,-0.1063 1.193,-0.24805 1.193,-0.24805 0,0 3.39,1.193 3.5553,1.3584 0.16536,0.16536 0.37798,1.2638 0.37798,1.2638 l -0.42522,1.6418 -3.0829,1.1576 1.571,3.3782 -3.3545,0.22443 c 0,0 -3.6616,-0.29529 -4.453,-1.6655 z"
         fill="#b0afad"
         fill-rule="evenodd"
         id="path18" />
    </clipPath>
    <clipPath
       id="ay-1">
      <path
         d="m -16.962,206.64 c -1.1694,-0.69689 -2.6576,-1.9844 -2.6576,-3.9333 0,-1.1694 0.75595,-1.7127 0.75595,-1.7127 -0.05906,0.61421 -0.7087,1.7954 0.12993,2.4805 0.2008,0.3071 0.43703,0.33073 1.1103,0.3071 0.67327,-0.0236 0.53153,0.17718 0.53153,0.17718 0,0 0.16536,-0.74414 0.33073,-0.93313 0.16536,-0.18899 0.86226,-1.7009 0.86226,-1.7009 0,0 3.3191,-1.6891 3.5553,-1.7954 0.23624,-0.1063 1.193,-0.24805 1.193,-0.24805 0,0 3.39,1.193 3.5553,1.3584 0.16536,0.16536 0.37798,1.2638 0.37798,1.2638 l -0.42522,1.6418 -3.0829,1.1576 1.571,3.3782 -3.3545,0.22443 c 0,0 -3.6616,-0.29529 -4.453,-1.6655 z"
         fill="#b0afad"
         fill-rule="evenodd"
         id="path21" />
    </clipPath>
    <linearGradient
       id="linearGradient1595"
       x1="-7.6834998"
       x2="-4.1513"
       y1="202.91"
       y2="205.25999"
       gradientTransform="matrix(0.37157,0.0025172,-0.0025172,0.37157,11.175,-72.412)"
       gradientUnits="userSpaceOnUse">
      <stop
         stop-color="#77d743"
         offset="0"
         id="stop24" />
      <stop
         stop-color="#254a12"
         offset="1"
         id="stop26" />
    </linearGradient>
    <linearGradient
       id="linearGradient1597"
       x1="-9.8639002"
       x2="-9.9160004"
       y1="203.74001"
       y2="204.85001"
       gradientTransform="matrix(0.37157,0.0025172,-0.0025172,0.37157,11.175,-72.412)"
       gradientUnits="userSpaceOnUse">
      <stop
         stop-color="#3cd0f2"
         offset="0"
         id="stop29" />
      <stop
         stop-color="#0eacd0"
         offset="1"
         id="stop31" />
    </linearGradient>
    <linearGradient
       id="linearGradient1599"
       x1="-7.6187"
       x2="-5.0416999"
       y1="205.46001"
       y2="205.46001"
       gradientTransform="matrix(0.37157,0.0025172,-0.0025172,0.37157,11.175,-72.412)"
       gradientUnits="userSpaceOnUse">
      <stop
         stop-color="#872c1f"
         offset="0"
         id="stop34" />
      <stop
         stop-color="#bf3f2d"
         offset="1"
         id="stop36" />
    </linearGradient>
    <linearGradient
       id="linearGradient1601"
       x1="-3.579"
       x2="-2.2384"
       y1="206.88"
       y2="205.53"
       gradientTransform="matrix(0.37157,0.0025172,-0.0025172,0.37157,11.175,-72.412)"
       gradientUnits="userSpaceOnUse">
      <stop
         stop-color="#3c4533"
         offset="0"
         id="stop39" />
      <stop
         stop-color="#3c4533"
         offset=".32423"
         id="stop41" />
      <stop
         stop-color="#414a37"
         offset=".5756"
         id="stop43" />
      <stop
         stop-color="#3c4533"
         offset=".80512"
         id="stop45" />
      <stop
         stop-color="#3c4533"
         offset="1"
         id="stop47" />
    </linearGradient>
    <clipPath
       id="bh-8">
      <path
         d="m -14.611,203.49 c 4.2995,1.6064 4.3704,4.3113 5.3035,4.3113 0.93313,0 0.83863,0.4961 1.3229,-0.16536 0.48428,-0.66146 1.6064,-1.8308 1.7245,-2.8939 0.11812,-1.0631 1.0276,-0.57878 1.0158,-0.14174 -0.011811,0.43703 -0.30711,3.3545 -0.2008,3.579 0.10631,0.2245 0.25986,0.34254 0.35435,-0.43704 0.094494,-0.77957 0.11812,-1.9844 0.31892,-2.1379 0.2008,-0.15356 1.4292,-0.8977 1.6655,-1.7481 0,0 0.03543,-0.42523 -0.68508,-0.67328 -0.72052,-0.24804 1.7127,-2.2915 1.7127,-2.2915 0,0 3.4845,1.6064 4.3704,2.5277 0,0 -0.33707,1.2262 0.08054,1.2262 0.41761,0 0.60136,1.0858 -0.31738,0.86862 -0.91874,-0.21718 -1.6203,-0.61806 -2.1883,0.0167 -0.568,0.63476 -0.81851,1.2361 -1.1192,1.353 -0.30069,0.1169 -0.70158,0.31738 -0.68488,-0.53454 0.0167,-0.85192 -0.11693,0.70158 -0.3675,0.66817 -0.25056,-0.0334 -0.15034,0.40091 -1.6871,0.45102 0,0 0.90204,0.3508 0.96885,0.88534 0.06682,0.53454 0.11693,0.55124 0.11693,0.55124 0,0 1.921,0.16705 2.0045,-0.3842 0.08352,-0.55124 0.55124,-1.3029 0.7517,-1.5535 0.20045,-0.25057 1.1025,-1.2862 1.9544,-1.1693 0,0 -1.5535,0.98555 -2.1716,2.3553 -0.61806,1.3698 4.3932,1.0023 4.3932,1.0023 0,0 2.6727,-0.70158 2.9734,-1.6537 0.3007,-0.95212 0.3675,-4.6271 -0.21716,-5.2285 -0.89971,-0.75589 -2.0809,-1.4646 -3.5219,-0.54328 -1.441,0.92131 -0.25986,1.3702 -2.2206,-0.35435 -1.9608,-1.7245 -3.7561,-2.5041 -3.7561,-2.5041 0,0 -2.2915,3.0947 -2.3387,2.764 -0.047247,-0.33073 -0.56696,-2.0552 -0.82682,-0.77957 0,0 -0.75595,-0.28348 -0.68508,0.37797 0.070871,0.66146 -1.0158,-0.7087 -1.0158,-0.7087 0,0 0.094494,1.8899 -0.37798,2.1261 0,0 1.9844,-0.51971 1.252,0.54335 -0.73233,1.063 -1.5592,1.1339 -2.8348,1.2048 -1.2757,0.0709 -2.1025,-0.66145 -2.7403,-0.85044 -0.6378,-0.18899 -1.1576,-0.75595 -2.3269,-0.0591 z"
         fill="#dedede"
         fill-rule="evenodd"
         id="path50" />
    </clipPath>
    <filter
       id="aq-7"
       x="-0.1732086"
       y="-0.12147449"
       width="1.3464172"
       height="1.242949"
       color-interpolation-filters="sRGB">
      <feGaussianBlur
         stdDeviation="0.18354709"
         id="feGaussianBlur53" />
    </filter>
    <clipPath
       id="bg-9">
      <path
         d="m -14.611,203.49 c 4.2995,1.6064 4.3704,4.3113 5.3035,4.3113 0.93313,0 0.83863,0.4961 1.3229,-0.16536 0.48428,-0.66146 1.6064,-1.8308 1.7245,-2.8939 0.11812,-1.0631 1.0276,-0.57878 1.0158,-0.14174 -0.011811,0.43703 -0.30711,3.3545 -0.2008,3.579 0.10631,0.2245 0.25986,0.34254 0.35435,-0.43704 0.094494,-0.77957 0.11812,-1.9844 0.31892,-2.1379 0.2008,-0.15356 1.4292,-0.8977 1.6655,-1.7481 0,0 0.03543,-0.42523 -0.68508,-0.67328 -0.72052,-0.24804 1.7127,-2.2915 1.7127,-2.2915 0,0 3.4845,1.6064 4.3704,2.5277 0,0 -0.33707,1.2262 0.08054,1.2262 0.41761,0 0.60136,1.0858 -0.31738,0.86862 -0.91874,-0.21718 -1.6203,-0.61806 -2.1883,0.0167 -0.568,0.63476 -0.81851,1.2361 -1.1192,1.353 -0.30069,0.1169 -0.70158,0.31738 -0.68488,-0.53454 0.0167,-0.85192 -0.11693,0.70158 -0.3675,0.66817 -0.25056,-0.0334 -0.15034,0.40091 -1.6871,0.45102 0,0 0.90204,0.3508 0.96885,0.88534 0.06682,0.53454 0.11693,0.55124 0.11693,0.55124 0,0 1.921,0.16705 2.0045,-0.3842 0.08352,-0.55124 0.55124,-1.3029 0.7517,-1.5535 0.20045,-0.25057 1.1025,-1.2862 1.9544,-1.1693 0,0 -1.5535,0.98555 -2.1716,2.3553 -0.61806,1.3698 4.3932,1.0023 4.3932,1.0023 0,0 2.6727,-0.70158 2.9734,-1.6537 0.3007,-0.95212 0.3675,-4.6271 -0.21716,-5.2285 -0.89971,-0.75589 -2.0809,-1.4646 -3.5219,-0.54328 -1.441,0.92131 -0.25986,1.3702 -2.2206,-0.35435 -1.9608,-1.7245 -3.7561,-2.5041 -3.7561,-2.5041 0,0 -2.2915,3.0947 -2.3387,2.764 -0.047247,-0.33073 -0.56696,-2.0552 -0.82682,-0.77957 0,0 -0.75595,-0.28348 -0.68508,0.37797 0.070871,0.66146 -1.0158,-0.7087 -1.0158,-0.7087 0,0 0.094494,1.8899 -0.37798,2.1261 0,0 1.9844,-0.51971 1.252,0.54335 -0.73233,1.063 -1.5592,1.1339 -2.8348,1.2048 -1.2757,0.0709 -2.1025,-0.66145 -2.7403,-0.85044 -0.6378,-0.18899 -1.1576,-0.75595 -2.3269,-0.0591 z"
         fill="#dedede"
         fill-rule="evenodd"
         id="path56" />
    </clipPath>
    <filter
       id="ap-2"
       x="-0.053854535"
       y="-0.032839541"
       width="1.1077091"
       height="1.0656791"
       color-interpolation-filters="sRGB">
      <feGaussianBlur
         stdDeviation="0.097488778"
         id="feGaussianBlur59" />
    </filter>
    <clipPath
       id="bf-0">
      <path
         d="m -14.611,203.49 c 4.2995,1.6064 4.3704,4.3113 5.3035,4.3113 0.93313,0 0.83863,0.4961 1.3229,-0.16536 0.48428,-0.66146 1.6064,-1.8308 1.7245,-2.8939 0.11812,-1.0631 1.0276,-0.57878 1.0158,-0.14174 -0.011811,0.43703 -0.30711,3.3545 -0.2008,3.579 0.10631,0.2245 0.25986,0.34254 0.35435,-0.43704 0.094494,-0.77957 0.11812,-1.9844 0.31892,-2.1379 0.2008,-0.15356 1.4292,-0.8977 1.6655,-1.7481 0,0 0.03543,-0.42523 -0.68508,-0.67328 -0.72052,-0.24804 1.7127,-2.2915 1.7127,-2.2915 0,0 3.4845,1.6064 4.3704,2.5277 0,0 -0.33707,1.2262 0.08054,1.2262 0.41761,0 0.60136,1.0858 -0.31738,0.86862 -0.91874,-0.21718 -1.6203,-0.61806 -2.1883,0.0167 -0.568,0.63476 -0.81851,1.2361 -1.1192,1.353 -0.30069,0.1169 -0.70158,0.31738 -0.68488,-0.53454 0.0167,-0.85192 -0.11693,0.70158 -0.3675,0.66817 -0.25056,-0.0334 -0.15034,0.40091 -1.6871,0.45102 0,0 0.90204,0.3508 0.96885,0.88534 0.06682,0.53454 0.11693,0.55124 0.11693,0.55124 0,0 1.921,0.16705 2.0045,-0.3842 0.08352,-0.55124 0.55124,-1.3029 0.7517,-1.5535 0.20045,-0.25057 1.1025,-1.2862 1.9544,-1.1693 0,0 -1.5535,0.98555 -2.1716,2.3553 -0.61806,1.3698 4.3932,1.0023 4.3932,1.0023 0,0 2.6727,-0.70158 2.9734,-1.6537 0.3007,-0.95212 0.3675,-4.6271 -0.21716,-5.2285 -0.89971,-0.75589 -2.0809,-1.4646 -3.5219,-0.54328 -1.441,0.92131 -0.25986,1.3702 -2.2206,-0.35435 -1.9608,-1.7245 -3.7561,-2.5041 -3.7561,-2.5041 0,0 -2.2915,3.0947 -2.3387,2.764 -0.047247,-0.33073 -0.56696,-2.0552 -0.82682,-0.77957 0,0 -0.75595,-0.28348 -0.68508,0.37797 0.070871,0.66146 -1.0158,-0.7087 -1.0158,-0.7087 0,0 0.094494,1.8899 -0.37798,2.1261 0,0 1.9844,-0.51971 1.252,0.54335 -0.73233,1.063 -1.5592,1.1339 -2.8348,1.2048 -1.2757,0.0709 -2.1025,-0.66145 -2.7403,-0.85044 -0.6378,-0.18899 -1.1576,-0.75595 -2.3269,-0.0591 z"
         fill="#dedede"
         fill-rule="evenodd"
         id="path62" />
    </clipPath>
    <filter
       id="ao-2"
       x="-0.21517514"
       y="-0.1753013"
       width="1.4303503"
       height="1.3506026"
       color-interpolation-filters="sRGB">
      <feGaussianBlur
         stdDeviation="0.13798654"
         id="feGaussianBlur65" />
    </filter>
    <clipPath
       id="be-3">
      <path
         d="m -14.611,203.49 c 4.2995,1.6064 4.3704,4.3113 5.3035,4.3113 0.93313,0 0.83863,0.4961 1.3229,-0.16536 0.48428,-0.66146 1.6064,-1.8308 1.7245,-2.8939 0.11812,-1.0631 1.0276,-0.57878 1.0158,-0.14174 -0.011811,0.43703 -0.30711,3.3545 -0.2008,3.579 0.10631,0.2245 0.25986,0.34254 0.35435,-0.43704 0.094494,-0.77957 0.11812,-1.9844 0.31892,-2.1379 0.2008,-0.15356 1.4292,-0.8977 1.6655,-1.7481 0,0 0.03543,-0.42523 -0.68508,-0.67328 -0.72052,-0.24804 1.7127,-2.2915 1.7127,-2.2915 0,0 3.4845,1.6064 4.3704,2.5277 0,0 -0.33707,1.2262 0.08054,1.2262 0.41761,0 0.60136,1.0858 -0.31738,0.86862 -0.91874,-0.21718 -1.6203,-0.61806 -2.1883,0.0167 -0.568,0.63476 -0.81851,1.2361 -1.1192,1.353 -0.30069,0.1169 -0.70158,0.31738 -0.68488,-0.53454 0.0167,-0.85192 -0.11693,0.70158 -0.3675,0.66817 -0.25056,-0.0334 -0.15034,0.40091 -1.6871,0.45102 0,0 0.90204,0.3508 0.96885,0.88534 0.06682,0.53454 0.11693,0.55124 0.11693,0.55124 0,0 1.921,0.16705 2.0045,-0.3842 0.08352,-0.55124 0.55124,-1.3029 0.7517,-1.5535 0.20045,-0.25057 1.1025,-1.2862 1.9544,-1.1693 0,0 -1.5535,0.98555 -2.1716,2.3553 -0.61806,1.3698 4.3932,1.0023 4.3932,1.0023 0,0 2.6727,-0.70158 2.9734,-1.6537 0.3007,-0.95212 0.3675,-4.6271 -0.21716,-5.2285 -0.89971,-0.75589 -2.0809,-1.4646 -3.5219,-0.54328 -1.441,0.92131 -0.25986,1.3702 -2.2206,-0.35435 -1.9608,-1.7245 -3.7561,-2.5041 -3.7561,-2.5041 0,0 -2.2915,3.0947 -2.3387,2.764 -0.047247,-0.33073 -0.56696,-2.0552 -0.82682,-0.77957 0,0 -0.75595,-0.28348 -0.68508,0.37797 0.070871,0.66146 -1.0158,-0.7087 -1.0158,-0.7087 0,0 0.094494,1.8899 -0.37798,2.1261 0,0 1.9844,-0.51971 1.252,0.54335 -0.73233,1.063 -1.5592,1.1339 -2.8348,1.2048 -1.2757,0.0709 -2.1025,-0.66145 -2.7403,-0.85044 -0.6378,-0.18899 -1.1576,-0.75595 -2.3269,-0.0591 z"
         fill="#dedede"
         fill-rule="evenodd"
         id="path68" />
    </clipPath>
    <filter
       id="an-7"
       x="-0.042907362"
       y="-0.082269883"
       width="1.0858147"
       height="1.1645398"
       color-interpolation-filters="sRGB">
      <feGaussianBlur
         stdDeviation="0.17003381"
         id="feGaussianBlur71" />
    </filter>
    <clipPath
       id="bd-5">
      <path
         d="m -14.611,203.49 c 4.2995,1.6064 4.3704,4.3113 5.3035,4.3113 0.93313,0 0.83863,0.4961 1.3229,-0.16536 0.48428,-0.66146 1.6064,-1.8308 1.7245,-2.8939 0.11812,-1.0631 1.0276,-0.57878 1.0158,-0.14174 -0.011811,0.43703 -0.30711,3.3545 -0.2008,3.579 0.10631,0.2245 0.25986,0.34254 0.35435,-0.43704 0.094494,-0.77957 0.11812,-1.9844 0.31892,-2.1379 0.2008,-0.15356 1.4292,-0.8977 1.6655,-1.7481 0,0 0.03543,-0.42523 -0.68508,-0.67328 -0.72052,-0.24804 1.7127,-2.2915 1.7127,-2.2915 0,0 3.4845,1.6064 4.3704,2.5277 0,0 -0.33707,1.2262 0.08054,1.2262 0.41761,0 0.60136,1.0858 -0.31738,0.86862 -0.91874,-0.21718 -1.6203,-0.61806 -2.1883,0.0167 -0.568,0.63476 -0.81851,1.2361 -1.1192,1.353 -0.30069,0.1169 -0.70158,0.31738 -0.68488,-0.53454 0.0167,-0.85192 -0.11693,0.70158 -0.3675,0.66817 -0.25056,-0.0334 -0.15034,0.40091 -1.6871,0.45102 0,0 0.90204,0.3508 0.96885,0.88534 0.06682,0.53454 0.11693,0.55124 0.11693,0.55124 0,0 1.921,0.16705 2.0045,-0.3842 0.08352,-0.55124 0.55124,-1.3029 0.7517,-1.5535 0.20045,-0.25057 1.1025,-1.2862 1.9544,-1.1693 0,0 -1.5535,0.98555 -2.1716,2.3553 -0.61806,1.3698 4.3932,1.0023 4.3932,1.0023 0,0 2.6727,-0.70158 2.9734,-1.6537 0.3007,-0.95212 0.3675,-4.6271 -0.21716,-5.2285 -0.89971,-0.75589 -2.0809,-1.4646 -3.5219,-0.54328 -1.441,0.92131 -0.25986,1.3702 -2.2206,-0.35435 -1.9608,-1.7245 -3.7561,-2.5041 -3.7561,-2.5041 0,0 -2.2915,3.0947 -2.3387,2.764 -0.047247,-0.33073 -0.56696,-2.0552 -0.82682,-0.77957 0,0 -0.75595,-0.28348 -0.68508,0.37797 0.070871,0.66146 -1.0158,-0.7087 -1.0158,-0.7087 0,0 0.094494,1.8899 -0.37798,2.1261 0,0 1.9844,-0.51971 1.252,0.54335 -0.73233,1.063 -1.5592,1.1339 -2.8348,1.2048 -1.2757,0.0709 -2.1025,-0.66145 -2.7403,-0.85044 -0.6378,-0.18899 -1.1576,-0.75595 -2.3269,-0.0591 z"
         fill="#dedede"
         fill-rule="evenodd"
         id="path74" />
    </clipPath>
    <filter
       id="am-9"
       x="-0.076364934"
       y="-0.076177559"
       width="1.1527299"
       height="1.1523551"
       color-interpolation-filters="sRGB">
      <feGaussianBlur
         stdDeviation="0.22924756"
         id="feGaussianBlur77" />
    </filter>
    <clipPath
       id="bc-2">
      <path
         d="m -55.223,402.47 c 16.25,6.0714 16.518,16.295 20.045,16.295 3.5268,0 3.1696,1.875 5,-0.62498 1.8304,-2.5 6.0714,-6.9196 6.5179,-10.938 0.44643,-4.0179 3.8839,-2.1875 3.8393,-0.53571 -0.04464,1.6518 -1.1607,12.679 -0.75893,13.527 0.40177,0.848 0.98214,1.2946 1.3393,-1.6518 0.35714,-2.9464 0.44643,-7.5 1.2054,-8.0803 0.75893,-0.58039 5.4018,-3.3929 6.2946,-6.6072 0,0 0.13391,-1.6072 -2.5893,-2.5447 -2.7232,-0.93747 6.4732,-8.6607 6.4732,-8.6607 0,0 13.17,6.0714 16.518,9.5536 0,0 -1.274,4.6345 0.3044,4.6345 1.5784,0 2.2728,4.1037 -1.1996,3.283 -3.4724,-0.82076 -6.124,-2.336 -8.2706,0.0631 -2.1466,2.3991 -3.0936,4.672 -4.23,5.1139 -1.1364,0.4419 -2.6517,1.1996 -2.5885,-2.0203 0.063118,-3.2198 -0.44194,2.6516 -1.389,2.5254 -0.94702,-0.12624 -0.56821,1.5152 -6.3766,1.7046 0,0 3.4093,1.3259 3.6618,3.3462 0.25255,2.0203 0.44194,2.0834 0.44194,2.0834 0,0 7.2605,0.63137 7.5761,-1.4521 0.31567,-2.0834 2.0834,-4.9245 2.8411,-5.8715 0.75761,-0.94703 4.1669,-4.8614 7.3867,-4.4194 0,0 -5.8715,3.7249 -8.2075,8.902 -2.336,5.177 16.604,3.7881 16.604,3.7881 0,0 10.102,-2.6516 11.238,-6.2503 1.1364,-3.5987 1.389,-17.488 -0.82075,-19.761 -3.4005,-2.8569 -7.8648,-5.5355 -13.311,-2.0533 -5.4464,3.4821 -0.98214,5.1786 -8.3929,-1.3393 -7.4107,-6.5179 -14.196,-9.4643 -14.196,-9.4643 0,0 -8.6607,11.696 -8.8393,10.446 -0.17857,-1.25 -2.1429,-7.7678 -3.125,-2.9464 0,0 -2.8571,-1.0714 -2.5893,1.4286 0.26786,2.5 -3.8393,-2.6786 -3.8393,-2.6786 0,0 0.35714,7.1428 -1.4286,8.0357 0,0 7.5,-1.9643 4.7321,2.0536 -2.7679,4.0178 -5.8929,4.2857 -10.714,4.5535 -4.8214,0.26797 -7.9464,-2.5 -10.357,-3.2143 -2.4106,-0.7143 -4.375,-2.8571 -8.7946,-0.22337 z"
         fill="#dedede"
         fill-rule="evenodd"
         id="path80" />
    </clipPath>
    <filter
       id="al-2"
       x="-0.052260476"
       y="-0.032824761"
       width="1.104521"
       height="1.0656495"
       color-interpolation-filters="sRGB">
      <feGaussianBlur
         stdDeviation="0.2430634"
         id="feGaussianBlur83" />
    </filter>
    <clipPath
       id="bb-8">
      <path
         d="m -14.611,203.49 c 4.2995,1.6064 4.3704,4.3113 5.3035,4.3113 0.93313,0 0.83863,0.4961 1.3229,-0.16536 0.48428,-0.66146 1.6064,-1.8308 1.7245,-2.8939 0.11812,-1.0631 1.0276,-0.57878 1.0158,-0.14174 -0.011811,0.43703 -0.30711,3.3545 -0.2008,3.579 0.10631,0.2245 0.25986,0.34254 0.35435,-0.43704 0.094494,-0.77957 0.11812,-1.9844 0.31892,-2.1379 0.2008,-0.15356 1.4292,-0.8977 1.6655,-1.7481 0,0 0.03543,-0.42523 -0.68508,-0.67328 -0.72052,-0.24804 1.7127,-2.2915 1.7127,-2.2915 0,0 3.4845,1.6064 4.3704,2.5277 0,0 -0.33707,1.2262 0.08054,1.2262 0.41761,0 0.60136,1.0858 -0.31738,0.86862 -0.91874,-0.21718 -1.6203,-0.61806 -2.1883,0.0167 -0.568,0.63476 -0.81851,1.2361 -1.1192,1.353 -0.30069,0.1169 -0.70158,0.31738 -0.68488,-0.53454 0.0167,-0.85192 -0.11693,0.70158 -0.3675,0.66817 -0.25056,-0.0334 -0.15034,0.40091 -1.6871,0.45102 0,0 0.90204,0.3508 0.96885,0.88534 0.06682,0.53454 0.11693,0.55124 0.11693,0.55124 0,0 1.921,0.16705 2.0045,-0.3842 0.08352,-0.55124 0.55124,-1.3029 0.7517,-1.5535 0.20045,-0.25057 1.1025,-1.2862 1.9544,-1.1693 0,0 -1.5535,0.98555 -2.1716,2.3553 -0.61806,1.3698 4.3932,1.0023 4.3932,1.0023 0,0 2.6727,-0.70158 2.9734,-1.6537 0.3007,-0.95212 0.3675,-4.6271 -0.21716,-5.2285 -0.89971,-0.75589 -2.0809,-1.4646 -3.5219,-0.54328 -1.441,0.92131 -0.25986,1.3702 -2.2206,-0.35435 -1.9608,-1.7245 -3.7561,-2.5041 -3.7561,-2.5041 0,0 -2.2915,3.0947 -2.3387,2.764 -0.047247,-0.33073 -0.56696,-2.0552 -0.82682,-0.77957 0,0 -0.75595,-0.28348 -0.68508,0.37797 0.070871,0.66146 -1.0158,-0.7087 -1.0158,-0.7087 0,0 0.094494,1.8899 -0.37798,2.1261 0,0 1.9844,-0.51971 1.252,0.54335 -0.73233,1.063 -1.5592,1.1339 -2.8348,1.2048 -1.2757,0.0709 -2.1025,-0.66145 -2.7403,-0.85044 -0.6378,-0.18899 -1.1576,-0.75595 -2.3269,-0.0591 z"
         fill="#dedede"
         fill-rule="evenodd"
         id="path86" />
    </clipPath>
    <filter
       id="ak-9"
       x="-0.1196872"
       y="-0.14713745"
       width="1.2393744"
       height="1.2942749"
       color-interpolation-filters="sRGB">
      <feGaussianBlur
         stdDeviation="0.12848643"
         id="feGaussianBlur89" />
    </filter>
    <clipPath
       id="ba-7">
      <path
         d="m -16.962,206.64 c -1.1694,-0.69689 -2.6576,-1.9844 -2.6576,-3.9333 0,-1.1694 0.75595,-1.7127 0.75595,-1.7127 -0.05906,0.61421 -0.7087,1.7954 0.12993,2.4805 0.2008,0.3071 0.43703,0.33073 1.1103,0.3071 0.67327,-0.0236 0.53153,0.17718 0.53153,0.17718 0,0 0.16536,-0.74414 0.33073,-0.93313 0.16536,-0.18899 0.86226,-1.7009 0.86226,-1.7009 0,0 3.3191,-1.6891 3.5553,-1.7954 0.23624,-0.1063 1.193,-0.24805 1.193,-0.24805 0,0 3.39,1.193 3.5553,1.3584 0.16536,0.16536 0.37798,1.2638 0.37798,1.2638 l -0.42522,1.6418 -3.0829,1.1576 1.571,3.3782 -3.3545,0.22443 c 0,0 -3.6616,-0.29529 -4.453,-1.6655 z"
         fill="#b0afad"
         fill-rule="evenodd"
         id="path92" />
    </clipPath>
  </defs>
  <path
     d="m 24.607693,0 c -0.554,0 -1,0.446 -1,1 v 1 h -4 v 1 h 1 v 12 c 0,0.554 0.446,1 1,1 h 9 c 0.554,0 1,-0.446 1,-1 V 3 h 1 V 2 h -4 V 1 c 0,-0.554 -0.446,-1 -1,-1 z m 0,1 h 3 v 1 h -3 z m -1,4 h 1 v 8 h -1 z m 2,0 h 1 v 8 h -1 z m 2,0 h 1 v 8 h -1 z"
     fill="#363636"
     stroke-linecap="round"
     stroke-linejoin="round"
     stroke-width="1.5"
     style="paint-order:stroke fill markers"
     id="path5" />
  <g
     transform="matrix(0.27464,0,0,0.27464,24.670233,3.7438094)"
     id="g203">
    <path
       d="m -79.63,-8.1318 v 1.2734 a 20.589,4.7882 0 0 1 0.07617,-0.041016 20.589,4.7882 0 0 1 0.1836,-0.095703 20.589,4.7882 0 0 1 0.19336,-0.093749 20.589,4.7882 0 0 1 0.20117,-0.093749 20.589,4.7882 0 0 1 0.21094,-0.091799 20.589,4.7882 0 0 1 0.21875,-0.089845 20.589,4.7882 0 0 1 0.22852,-0.089845 20.589,4.7882 0 0 1 0.23437,-0.089845 20.589,4.7882 0 0 1 0.24414,-0.085937 20.589,4.7882 0 0 1 0.25195,-0.085937 20.589,4.7882 0 0 1 0.26172,-0.085937 20.589,4.7882 0 0 1 0.26758,-0.082032 20.589,4.7882 0 0 1 0.27539,-0.082033 20.589,4.7882 0 0 1 0.2832,-0.082033 20.589,4.7882 0 0 1 0.29101,-0.078124 20.589,4.7882 0 0 1 0.29883,-0.078124 20.589,4.7882 0 0 1 0.30469,-0.07617 20.589,4.7882 0 0 1 0.3125,-0.07422 20.589,4.7882 0 0 1 0.32031,-0.07422 20.589,4.7882 0 0 1 0.32422,-0.070312 20.589,4.7882 0 0 1 0.33398,-0.070312 20.589,4.7882 0 0 1 0.33789,-0.068358 20.589,4.7882 0 0 1 0.3457,-0.066408 20.589,4.7882 0 0 1 0.35156,-0.064453 20.589,4.7882 0 0 1 0.35742,-0.062499 20.589,4.7882 0 0 1 0.36328,-0.060545 20.589,4.7882 0 0 1 0.36914,-0.058595 20.589,4.7882 0 0 1 0.375,-0.056641 20.589,4.7882 0 0 1 0.37891,-0.056641 20.589,4.7882 0 0 1 0.38477,-0.052733 20.589,4.7882 0 0 1 0.38867,-0.050779 20.589,4.7882 0 0 1 0.39453,-0.050783 20.589,4.7882 0 0 1 0.39844,-0.046875 20.589,4.7882 0 0 1 0.4043,-0.044921 20.589,4.7882 0 0 1 0.40625,-0.04297 20.589,4.7882 0 0 1 0.41211,-0.041016 20.589,4.7882 0 0 1 0.41406,-0.041016 20.589,4.7882 0 0 1 0.41992,-0.03515 20.589,4.7882 0 0 1 0.42188,-0.03515 20.589,4.7882 0 0 1 0.42383,-0.033185 20.589,4.7882 0 0 1 0.42773,-0.031257 20.589,4.7882 0 0 1 0.43164,-0.027327 20.589,4.7882 0 0 1 0.43359,-0.027327 20.589,4.7882 0 0 1 0.43555,-0.023433 20.589,4.7882 0 0 1 0.4375,-0.021468 20.589,4.7882 0 0 1 0.43945,-0.01954 20.589,4.7882 0 0 1 0.44141,-0.017575 20.589,4.7882 0 0 1 0.44336,-0.01561 20.589,4.7882 0 0 1 0.44531,-0.013682 20.589,4.7882 0 0 1 0.44531,-0.00979 20.589,4.7882 0 0 1 0.44531,-0.00782 20.589,4.7882 0 0 1 0.44726,-0.00782 20.589,4.7882 0 0 1 0.44727,-0.00389 20.589,4.7882 0 0 1 0.44727,0 20.589,4.7882 0 0 1 0.09961,0 20.589,4.7882 0 0 1 0.44727,0 20.589,4.7882 0 0 1 0.44726,0.00389 20.589,4.7882 0 0 1 0.44727,0.00586 20.589,4.7882 0 0 1 0.44726,0.00782 20.589,4.7882 0 0 1 0.44531,0.00975 20.589,4.7882 0 0 1 0.44531,0.011717 20.589,4.7882 0 0 1 0.44336,0.01561 20.589,4.7882 0 0 1 0.44141,0.017575 20.589,4.7882 0 0 1 0.43945,0.017575 20.589,4.7882 0 0 1 0.43945,0.021468 20.589,4.7882 0 0 1 0.43555,0.023433 20.589,4.7882 0 0 1 0.43359,0.027327 20.589,4.7882 0 0 1 0.43164,0.027327 20.589,4.7882 0 0 1 0.42969,0.029292 20.589,4.7882 0 0 1 0.42578,0.033185 20.589,4.7882 0 0 1 0.42188,0.033185 20.589,4.7882 0 0 1 0.41992,0.037116 20.589,4.7882 0 0 1 0.41406,0.039062 20.589,4.7882 0 0 1 0.41211,0.041016 20.589,4.7882 0 0 1 0.4082,0.04297 20.589,4.7882 0 0 1 0.4043,0.044921 20.589,4.7882 0 0 1 0.40039,0.046875 20.589,4.7882 0 0 1 0.39453,0.048829 20.589,4.7882 0 0 1 0.39062,0.050779 20.589,4.7882 0 0 1 0.38672,0.052733 20.589,4.7882 0 0 1 0.38086,0.054687 20.589,4.7882 0 0 1 0.37501,0.056641 20.589,4.7882 0 0 1 0.36915,0.058595 20.589,4.7882 0 0 1 0.36522,0.060545 20.589,4.7882 0 0 1 0.35936,0.062499 20.589,4.7882 0 0 1 0.35158,0.064454 20.589,4.7882 0 0 1 0.34765,0.066408 20.589,4.7882 0 0 1 0.33982,0.066408 20.589,4.7882 0 0 1 0.33396,0.070312 20.589,4.7882 0 0 1 0.32811,0.070312 20.589,4.7882 0 0 1 0.32032,0.072266 20.589,4.7882 0 0 1 0.31446,0.07422 20.589,4.7882 0 0 1 0.30664,0.07617 20.589,4.7882 0 0 1 0.30078,0.078124 20.589,4.7882 0 0 1 0.29103,0.078124 20.589,4.7882 0 0 1 0.28517,0.080078 20.589,4.7882 0 0 1 0.27735,0.082032 20.589,4.7882 0 0 1 0.26952,0.083983 20.589,4.7882 0 0 1 0.26366,0.083983 20.589,4.7882 0 0 1 0.25391,0.085937 20.589,4.7882 0 0 1 0.24412,0.087891 20.589,4.7882 0 0 1 0.23827,0.087891 20.589,4.7882 0 0 1 0.23048,0.089845 20.589,4.7882 0 0 1 0.22069,0.089845 20.589,4.7882 0 0 1 0.21094,0.091795 20.589,4.7882 0 0 1 0.20508,0.091799 20.589,4.7882 0 0 1 0.19529,0.093749 20.589,4.7882 0 0 1 0.18554,0.095703 20.589,4.7882 0 0 1 0.01777,0.00979 v -1.2558 a 22.324,5.1915 0 0 0 -18.834,-2.4043 22.324,5.1915 0 0 0 -0.56055,0 22.324,5.1915 0 0 0 -18.371,2.4395 z"
       fill="#afb4b9"
       stroke-width="3.05"
       id="path99" />
    <ellipse
       cx="-60.699001"
       cy="-4.9773002"
       rx="20.589001"
       ry="4.7881999"
       fill="#e0e3e7"
       fill-opacity="0.61569"
       stroke-width="2.8131"
       id="ellipse101" />
    <path
       d="m -73.892,-9.5693 a 22.324,5.1915 0 0 1 0.02733,-0.00389 22.324,5.1915 0 0 1 0.19726,-0.033185 c -0.07935,0.012624 -0.14658,0.024303 -0.22461,0.037116 z"
       fill="url(#linearGradient2193)"
       id="path103"
       style="fill:url(#linearGradient2193)" />
    <g
       transform="matrix(3.7796,0,0,3.7796,-92.293,-18.515)"
       fill-rule="evenodd"
       id="g191">
      <g
         stroke-width="5.308"
         id="g121">
        <path
           d="m 10.921,3.2357 0.18098,-0.47718 0.54571,0.4316 0.10909,0.74029 -0.27537,0.15613 -0.91277,0.95062 -0.5089,-0.036368 0.59065,-1.0186 z"
           fill="#96999f"
           id="path105" />
        <path
           d="m 10.245,4.2381 c 0.11362,-0.27854 0.08909,-0.32216 0.15136,-0.35278 0.06228,-0.030606 0.10657,-0.15445 0.17811,-0.1788 0.07155,-0.024336 0.02017,-0.22951 0.06067,-0.25097 0.0405,-0.021463 0.18639,-0.026678 0.22108,-0.10713 0.03469,-0.080455 -0.01454,-0.14597 -0.01454,-0.14597 l -0.62384,0.0051 -0.45908,0.8814 c 0,0 0.30628,0.60106 0.48623,0.14916 z"
           fill="#5975b5"
           id="path107" />
        <path
           d="m 10.902,3.2281 c 0.2866,-0.19556 0.33069,-0.22379 0.4041,-0.045542 0.07341,0.17825 -0.15531,0.57389 -0.15531,0.57389 l -0.4891,-0.040623 c 0,0 -0.08738,-0.38243 6.54e-4,-0.42133 0.08805,-0.038907 0.23965,-0.06641 0.23965,-0.06641 z"
           fill="#39497e"
           id="path109" />
        <path
           d="m 10.523,3.2666 c 0.2278,0.062992 0.36645,0.00472 0.43485,-0.047529 0.06839,-0.052204 0.11872,-0.35689 0.16706,-0.36535 C 11.17324,2.845281 10.90163,2.77101 10.90163,2.77101 Z"
           fill="#252921"
           id="path111" />
        <path
           d="M 9.2975,2.6859 9.80347,2.670709 c 0,0 0.76871,0.13867 0.94532,0.1802 0.17662,0.041541 0.34475,-0.038007 0.34475,-0.038007 l -1.2483,-0.806 z"
           fill="#eae9e8"
           id="path113" />
        <path
           d="M 7.985,4.8768 C 8.10347,5.25624 8.65881,5.28483 8.66585,5.16073 8.6729,5.03664 8.68689,4.80397 8.68689,4.80397 c 0,0 0.11299,-0.64474 -0.02368,-0.62706 -0.13668,0.01769 -0.6782,0.69992 -0.6782,0.69992 z"
           fill="#759d70"
           id="path115" />
        <path
           d="M 7.6656,5.3019 C 7.94771,5.347257 8.6964,4.32504 8.7601,4.0897 8.823767,3.85426 8.7652242,3.7918 8.51691,3.79632 8.26859,3.8008438 6.91171,4.82512 7.6657,5.30192 Z"
           fill="url(#linearGradient1593)"
           id="path117"
           style="fill:url(#linearGradient1593)" />
        <path
           d="M 4.352,4.3245 C 3.91925,4.06261 3.36955,3.58048 3.37445,2.8563 3.3773976,2.42179 3.65964,2.22183 3.65964,2.22183 3.63615,2.4499 3.39179,2.88715 3.701672,3.14385 c 0.073836,0.11461 0.16155,0.12399 0.41177,0.1169 0.25022,-0.00707 0.19705,0.067168 0.19705,0.067168 0,0 0.063317,-0.27608 0.12524,-0.34589 0.061917,-0.069806 0.32467,-0.62982 0.32467,-0.62982 0,0 1.2375,-0.61926 1.3255,-0.65815 0.088046,-0.038903 0.4439,-0.089164 0.4439,-0.089164 0,0 1.2567,0.45181 1.3176,0.51369 0.061026,0.061858 0.13726,0.47053 0.13726,0.47053 l -0.16213,0.60897 -1.1484,0.42235 0.57521,1.2591 -1.247,0.074938 c 0,0 -1.3598,-0.11893 -1.6504,-0.63005 z"
           fill="#b0afad"
           id="path119" />
      </g>
      <path
         transform="matrix(0.37157,0.0025172,-0.0025172,0.37157,11.175,-72.412)"
         d="m -16.913,206.41 c 1.186,-0.3675 1.0273,-0.29233 1.1359,-0.70994 0.61806,-1.7122 0.92709,-2.205 1.2445,-2.2551 0.31738,-0.0501 3.0569,0.80181 3.9088,1.5535 0.85192,0.75169 1.7456,3.416 1.7456,3.416 l -5.5041,0.46772 c 0,0 -2.8063,-1.2361 -2.5307,-2.4722 z"
         clip-path="url(#ax-2)"
         fill="#626262"
         stroke-width="14.285"
         id="path123" />
      <path
         d="M 5.2672,3.8142 C 5.41834,3.95177 5.63726,4.1643 5.69654,4.11815 5.755818,4.071997 6.14512,3.86981 6.14512,3.86981 c 0,0 0.58174,0.71462 0.68378,0.76809 0.10205,0.053452 0.21402,0.016984 0.21402,0.016984 L 6.51006,3.599184 5.95837,3.489934 c 0,0 -0.40947,-0.027592 -0.59076,0.16358 -0.1813,0.19119 -0.1004,0.1607 -0.1004,0.1607 z"
         fill="#441111"
         stroke-width="5.308"
         id="path125" />
      <path
         transform="matrix(0.37157,0.0025172,-0.0025172,0.37157,11.175,-72.412)"
         d="m -19.867,203.53 c 1.3111,0.38979 2.0198,0.77957 2.445,1.1576 0.4252,0.37803 1.7836,1.252 1.7836,1.252 l -0.86226,1.0867 -3.0829,-1.0394 z"
         clip-path="url(#az-6)"
         fill="#9f9f9f"
         stroke-width="14.285"
         id="path127" />
      <path
         transform="matrix(0.37157,0.0025172,-0.0025172,0.37157,11.175,-72.412)"
         d="m -19.636,203.88 c 1.5452,1.6955 3.4912,2.9817 3.4912,2.9817 l -0.29233,0.43432 c 0,0 -3.1655,-0.7684 -3.1989,-1.3781 -0.03341,-0.60971 0,-2.0379 0,-2.0379 z"
         clip-path="url(#ay-1)"
         fill="#606060"
         stroke-width="14.285"
         id="path129" />
      <g
         stroke-width="5.308"
         id="g155">
        <path
           d="M 6.6293,1.8168 C 6.82182,1.905887 7.07197,3.2024 7.07197,3.2024 L 7.39728,3.125603 c 0,0 -0.21143,-1.1865 -0.46096,-1.2803 C 6.68678,1.751441 6.62928,1.816875 6.62928,1.816875 Z"
           fill="#444342"
           id="path131" />
        <path
           d="M 6.7462,3.018 C 7.04769,2.89276 7.52253,2.77309 7.71942,2.86 c 0,0 0.18066,-0.12555 0.33597,-0.14622 C 8.21071,2.693094 8.35196,2.91441 8.33953,2.91743 8.327097,2.9203183 7.99108,3.50165 7.86704,3.48528 7.74301,3.468907 6.74624,3.01801 6.74624,3.01801 Z"
           fill="url(#linearGradient1595)"
           id="path133"
           style="fill:url(#linearGradient1595)" />
        <path
           d="M 6.4136,3.5359 C 6.17625,3.26217 6.509308,3.01425 6.83434,2.97696 c 0.32505,-0.037302 1.0108,0.4633 1.0108,0.4633 0,0 -0.98816,0.41464 -1.4315,0.095637 z"
           fill="url(#linearGradient1597)"
           id="path135"
           style="fill:url(#linearGradient1597)" />
        <path
           d="M 7.823,4.5041 C 8.10511,4.549457 8.73021,3.90196 8.79386,3.66653 8.857527,3.43109 8.768324,3.31255 8.52002,3.31708 8.2717,3.3216038 7.80648,4.19363 7.823,4.50408 Z"
           fill="url(#linearGradient1599)"
           id="path137"
           style="fill:url(#linearGradient1599)" />
        <path
           d="M 9.8675,4.1353 C 10.1054,3.83587 10.34414,3.86852 10.36317,3.80968 10.38219,3.750844 10.37027,3.67007 10.31809,3.59213 10.26586,3.514185 10.39136,3.31332 10.49993,3.32025 10.60851,3.3272 10.70006,3.09816 10.70006,3.09816 L 10.27618,2.90907 9.57628,3.14951 9.46773,3.59567 9.47374,4.08297 Z"
           fill="#aa531f"
           id="path139" />
        <path
           d="M 10.087,4.3262 C 10.38034,4.08922 10.65313,4.13451 10.65313,4.13451 L 10.17571,4.51612 Z"
           fill="#c1c2c9"
           id="path141" />
        <path
           d="m 8.9901,3.806 c 0.32472,0.01097 0.4655,-0.040736 0.68434,0.048532 0.21885,0.089257 0.2052,0.1594 0.27496,0.23009 0.069742,0.070698 0.18003,-0.011935 0.2385,0.42734 0.05846,0.43931 -1.2038,0.18496 -1.2038,0.18496 z"
           fill="url(#linearGradient1601)"
           id="path143"
           style="fill:url(#linearGradient1601)" />
        <path
           d="M 9.0345,3.8248 C 9.022417,4.3119 9.009409,4.28985 9.14972,4.30838 9.29005,4.32687 9.126407,4.51012 9.160922,4.59813 c 0.034515,0.088012 0.11354,0.084157 0.11354,0.084157 l 0.047205,0.15833 -0.4167,-0.037933 c 0,0 -0.04792,-0.052992 -0.065208,-0.092611 -0.017291,-0.039615 0.014907,-0.90406 0.015199,-0.94795 2.972e-4,-0.043886 0.17952,0.062665 0.17952,0.062665 z"
           fill="#242f65"
           id="path145" />
        <path
           d="m 9.8377,2.619 c 0.00703,-0.12099 0.27166,-0.24334 0.39843,-0.17421 0.12678,0.069136 0.06083,0.18352 0.21245,0.24972 0.15163,0.066203 0.59466,0.17782 0.54454,0.24886 C 10.94298,3.014412 10.84244,3.19684 10.70616,3.15556 10.56988,3.114291 10.57381,2.99328 10.39381,2.99206 10.21382,2.99084 10.07406,3.005426 10.07406,3.005426 Z"
           fill="#5975b5"
           id="path147" />
        <path
           d="m 9.7937,3.1723 c 0.083077,0.10609 0.15751,0.1128 0.31338,0.011453 0.15586,-0.10136 0.22506,-0.23745 0.0016,-0.23275 -0.22349,0.0047 -0.69091,-0.17227 -0.69091,-0.17227 0,0 -0.15861,0.048576 -0.15611,0.1386 0.00249,0.090013 0.12285,0.19015 0.12285,0.19015 z"
           fill="#252921"
           id="path149" />
        <path
           d="M 9.3945,3.8942 C 9.8112,3.77288 9.60499,3.51698 9.55888,3.4515 9.512767,3.386012 9.610258,3.19735 9.81513,3.19254 10.02,3.1877219 9.70396,3.111097 9.5178,3.103627 9.33164,3.0961604 9.25494,2.965287 9.33599,2.913077 9.417037,2.860869 9.5257,2.855401 9.61496,2.964621 c 0.089264,0.10922 0.46165,0.11486 0.53033,0.053251 0.0687,-0.061604 0.18698,-0.11356 0.18698,-0.11356 0,0 -0.3095,-0.12624 -0.3709,-0.22596 C 9.899963,2.57862 9.78902,2.466142 9.65194,2.542802 9.51486,2.619464 9.24465,2.651772 9.24465,2.651772 l -0.33581,0.55015 0.17822,0.72121 z"
           fill="#3d4b6f"
           id="path151" />
        <path
           d="m 8.9549,3.8615 c -0.059197,0.31561 0.00731,0.86469 0.038056,0.8605 0.03075,-0.00418 0.1313,0.053558 0.27677,-0.037629 0.50036,-0.00538 0.36916,0.57745 0.36916,0.57745 l -1.0218,-0.12103 c 0,0 0.07001,-1.2636 0.16251,-1.3112 0.092497,-0.047653 0.17534,0.031919 0.17534,0.031919 z"
           fill="#652424"
           id="path153" />
      </g>
      <g
         fill="#dedede"
         stroke-width="1.4044"
         id="g167">
        <path
           d="m 4.3494,4.7308 c 0,0 -0.092808,-0.55366 0.044409,-0.72388 0,0 0.1082,0.22458 0.57264,0.34184 0.46443,0.11726 -0.34602,0.54191 -0.34602,0.54191 0.94094,-0.24818 1.1988,0.56116 0.42787,0.33647 C 4.277339,5.00246 4.349409,4.73083 4.349409,4.73083 Z"
           id="path157" />
        <path
           d="M 4.7846,4.1206 C 4.63212,3.7223 4.65305,3.38108 5.1632,3.21073 c 0,0 0.00524,0.1428 0.11055,0.17455 0.1053,0.031741 0.1779,0.31156 0.33307,0.31261 0,0 -0.29206,0.047677 -0.32561,0.41988 0,0 -0.25481,0.047931 -0.49657,0.00284 z"
           id="path159" />
        <path
           d="M 4.4004,3.0813 C 5.37132,2.69063 5.25393,2.61536 5.25393,2.61536 c 0,0 -0.73924,0.088096 -0.34648,-0.16373 0.39275,-0.25183 1.0824,-0.35268 1.2281,-0.77995 0,0 -0.4704,-0.19561 -2.0964,0.6872 0,0 0.11419,0.55321 0.36132,0.72246 z"
           id="path161" />
        <path
           d="M 6.4133,1.9207 C 6.331849,2.03188 6.26308,2.1059 6.2911,1.63435 6.319128,1.16281 6.56065,1.24512 6.80733,1.48267 7.054,1.72021 7.21019,1.572301 7.37705,1.67895 c 0.16687,0.10666 0.50155,0.18341 0.4932,0.49369 0,0 -0.30509,0.14069 -0.68137,-0.20945 C 7.03443,1.85662 6.50726,1.79098 6.4133,1.920687 Z"
           id="path163" />
        <path
           d="M 5.2337,3.1613 C 6.8272,3.76905 6.8467,4.7742 7.1935,4.7766 7.54022,4.77895 7.50386,4.96305 7.68546,4.718488 7.86707,4.473928 8.28696,4.042268 8.33352,3.647588 8.380083,3.252878 8.7168,3.435118 8.71131,3.59748 8.70582,3.75984 8.58877,4.84318 8.62769,4.92678 8.666625,5.010464 8.723382,5.05471 8.76046,4.76528 8.797535,4.47585 8.809344,4.02824 8.88434,3.97171 8.959338,3.915158 9.41764,3.64175 9.50759,3.32636 c 0,0 0.014238,-0.15791 -0.25286,-0.25189 -0.2671,-0.093974 0.64216,-0.84713 0.64216,-0.84713 0,0 1.2907,0.60566 1.6175,0.9502 0,0 -0.12833,0.45476 0.02684,0.45582 0.15518,0.00105 0.22072,0.40496 -0.12011,0.32195 -0.34082,-0.083002 -0.6005,-0.23373 -0.81314,7.018e-4 -0.21266,0.23443 -0.30725,0.45723 -0.41927,0.49991 -0.11202,0.042689 -0.26148,0.11616 -0.25314,-0.20035 0.00835,-0.31651 -0.04521,0.26039 -0.13823,0.24734 -0.09302,-0.013041 -0.056873,0.14858 -0.62801,0.16334 0,0 0.33428,0.13262 0.35776,0.33141 0.023482,0.19879 0.042059,0.20512 0.042059,0.20512 0,0 0.71336,0.066904 0.74578,-0.13771 0.03242,-0.20462 0.20811,-0.48273 0.28322,-0.57534 0.07511,-0.092599 0.41289,-0.47513 0.72913,-0.42956 0,0 -0.57971,0.36229 -0.81286,0.8697 -0.2331,0.50741 1.6299,0.38347 1.6299,0.38347 0,0 0.99481,-0.25394 1.109,-0.60697 0.11413,-0.35302 0.14821,-1.7183 -0.06751,-1.9433 -0.3324,-0.28313 -0.76951,-0.54944 -1.3073,-0.21072 -0.53775,0.3387 -0.10001,0.50846 -0.82421,-0.13725 -0.72422,-0.6457 -1.3893,-0.93989 -1.3893,-0.93989 0,0 -0.85921,1.1441 -0.87596,1.0211 -0.016704,-0.12299 -0.20549,-0.76508 -0.30525,-0.29175 0,0 -0.28017,-0.10724 -0.25551,0.13872 0.024669,0.24596 -0.37565,-0.26589 -0.37565,-0.26589 0,0 0.030352,0.70247 -0.1458,0.78904 0,0 0.73865,-0.18811 0.46384,0.20504 -0.27479,0.39314 -0.5822,0.41739 -1.0564,0.44053 -0.47419,0.023136 -0.77956,-0.25106 -1.0161,-0.32289 -0.23654,-0.07183 -0.42823,-0.2838 -0.86446,-0.027822 z"
           id="path165" />
      </g>
      <path
         transform="matrix(0.37157,0.0025172,-0.0025172,0.37157,11.175,-72.412)"
         d="m -11.008,206.81 c 1.6203,-2.5056 1.7707,-2.4054 2.3386,-2.1883 0.5679,0.2171 -0.15034,2.7562 -0.88533,3.391 -0.73499,0.63477 -1.4533,-1.2027 -1.4533,-1.2027 z"
         clip-path="url(#bh-8)"
         fill="#a3a3a3"
         filter="url(#aq-7)"
         opacity="0.424"
         stroke-width="14.285"
         id="path169" />
      <g
         fill="#838383"
         id="g177">
        <path
           transform="matrix(0.37157,0.0025172,-0.0025172,0.37157,11.175,-72.412)"
           d="m -9.3043,208.22 c 2.4388,-4.3431 3.0235,-6.1472 3.2573,-5.9969 0.23386,0.15034 1.3363,1.6871 1.0357,2.1549 -0.30068,0.46772 -0.81851,1.0858 -0.88533,1.1025 -0.066817,0.0167 -1.3698,3.8587 -1.3698,3.8587 z"
           clip-path="url(#bg-9)"
           filter="url(#ap-2)"
           opacity="0.479"
           stroke-width="53.992"
           id="path171" />
        <path
           transform="matrix(0.37157,0.0025172,-0.0025172,0.37157,11.175,-72.412)"
           d="m -6.4646,202.84 c 0.60136,0.96885 0.93544,1.637 1.3363,1.3865 0.4009,-0.25056 0.16704,-1.2862 -0.35079,-1.6036 -0.51783,-0.31738 -0.85192,-0.36749 -0.98556,0.21716 z"
           clip-path="url(#bf-0)"
           filter="url(#ao-2)"
           opacity="0.708"
           stroke-width="3.7796"
           id="path173" />
        <path
           transform="matrix(0.37157,0.0025172,-0.0025172,0.37157,11.175,-72.412)"
           d="m -4.1814,209.25 c -0.035435,-2.3269 0.33073,-3.1419 2.3269,-4.4885 1.9962,-1.3465 1.2875,0.67327 1.5828,0.86226 0.2953,0.18899 1.0158,1.2166 1.3702,0.85045 0.35435,-0.36617 1.1457,-0.95676 1.441,-0.85045 0.29529,0.1063 2.7876,2.7758 2.7876,2.7758 l -6.7563,0.66146 -2.6931,0.2008 z"
           clip-path="url(#be-3)"
           filter="url(#an-7)"
           opacity="0.64831"
           stroke-width="3.7796"
           id="path175" />
      </g>
      <g
         stroke-width="14.285"
         id="g187">
        <path
           transform="matrix(0.37157,0.0025172,-0.0025172,0.37157,11.175,-72.412)"
           d="m 2.386,205.86 c 0.49609,-0.53153 0.33073,-0.61421 0.92132,-0.34254 0.59059,0.27167 0.90951,1.3347 1.3229,1.382 0.41341,0.0472 1.76,-0.33073 1.9844,-0.79139 0.22442,-0.46066 -0.23624,-2.3033 -0.14174,-2.4568 0.094494,-0.15356 1.5119,-1.4056 2.1734,-0.48429 0.66146,0.92132 1.8308,6.461 -0.17718,6.8626 -2.008,0.4016 -4.9964,-4.2758 -6.0831,-4.1696 z"
           clip-path="url(#bd-5)"
           fill="#373737"
           filter="url(#am-9)"
           opacity="0.758"
           id="path179" />
        <path
           transform="matrix(0.098307,6.6581e-4,-6.6581e-4,0.098307,10.93,-36.371)"
           d="m 20.09,393 c 0,0 -6.4735,1.2943 -7.2324,6.5176 -0.75893,5.2232 0.22266,6.3848 0.22266,6.3848 0.9375,1.8304 3.3926,4.9991 4.9551,4.8652 1.5625,-0.13379 4.3747,-0.62419 4.9551,-2.3652 0.58036,-1.7411 0.76032,-6.2517 -1.3379,-7.1445 -2.0982,-0.89284 -3.0368,-1.3839 -0.80469,-1.25 2.2321,0.13379 3.4383,0.53736 2.6348,-0.66797 -0.80357,-1.2054 -3.3926,-6.3398 -3.3926,-6.3398 z m -1.7461,12.457 c 1.8794,-0.0636 2.1311,2.096 -0.12891,2.7656 -1.6518,-0.35716 -2.4997,-2.3208 -0.26758,-2.7226 0.13951,-0.0251 0.27119,-0.0387 0.39648,-0.043 z"
           clip-path="url(#bc-2)"
           fill="#a8a8a8"
           filter="url(#al-2)"
           opacity="0.585"
           id="path181" />
        <path
           transform="matrix(0.37157,0.0025172,-0.0025172,0.37157,11.175,-72.412)"
           d="m 5.3035,203.86 c -1.76,-0.2008 -1.7718,-1.0276 -1.1576,-1.382 0.61421,-0.35435 1.2402,-0.55515 1.7127,-0.1063 0.47247,0.44884 0.73233,0.54334 0.2008,0.57877 -0.53153,0.0354 -0.63784,0.0118 -0.62602,-0.24804 0.011811,-0.25986 -0.38979,-0.41342 -0.81501,-0.10631 -0.42522,0.30711 -0.41341,0.66146 0.24805,0.69689 0.66146,0.0354 1.0394,0.37798 0.98038,0.77958 -0.05902,0.4016 -0.54334,-0.21261 -0.54334,-0.21261 z"
           clip-path="url(#bb-8)"
           fill="#676767"
           filter="url(#ak-9)"
           opacity="0.47"
           id="path183" />
        <path
           transform="matrix(0.37157,0.0025172,-0.0025172,0.37157,11.175,-72.412)"
           d="m -19.26,204.73 c -0.2067,-3.1301 0.73893,-3.7927 0.73893,-3.7927 l -0.43704,-0.18308 c 0,0 -2.8237,3.1844 -0.3019,3.9758 z"
           clip-path="url(#ba-7)"
           fill="#dedede"
           id="path185" />
      </g>
      <path
         d="m 10.177,4.2859 0.26706,-0.023012 c 0,0 0.66028,-0.34312 0.78466,-0.38261 0.12437,-0.039497 0.25276,-0.20312 0.25982,-0.33032 0.0071,-0.1272 -0.20211,-0.40171 -0.20211,-0.40171 0,0 0.01626,0.34771 -0.07736,0.42464 -0.09364,0.076951 -0.18132,0.19429 -0.49856,-0.16166 -0.31724,-0.35596 -0.53353,0.87469 -0.53353,0.87469 z"
         fill="#773520"
         stroke-width="5.308"
         id="path189" />
    </g>
    <path
       d="m -41.865,-6.9111 a 20.589,4.7882 0 0 1 0.16014,0.085937 20.589,4.7882 0 0 1 0.16796,0.095703 20.589,4.7882 0 0 1 0.15821,0.097657 20.589,4.7882 0 0 1 0.15039,0.097657 20.589,4.7882 0 0 1 0.14257,0.099608 20.589,4.7882 0 0 1 0.13085,0.099608 20.589,4.7882 0 0 1 0.12306,0.099608 20.589,4.7882 0 0 1 0.11135,0.10156 20.589,4.7882 0 0 1 0.10352,0.10156 20.589,4.7882 0 0 1 0.09373,0.10156 20.589,4.7882 0 0 1 0.08595,0.10156 20.589,4.7882 0 0 1 0.07423,0.10352 20.589,4.7882 0 0 1 0.06444,0.10156 20.589,4.7882 0 0 1 0.05666,0.10352 20.589,4.7882 0 0 1 0.0449,0.10352 20.589,4.7882 0 0 1 0.03704,0.10547 20.589,4.7882 0 0 1 0.02532,0.10352 20.589,4.7882 0 0 1 0.01777,0.10352 20.589,4.7882 0 0 1 0.0079,0.10352 20.589,4.7882 0 0 1 0,0.023433 20.589,4.7882 0 0 1 -0.006,0.10352 20.589,4.7882 0 0 1 -0.01361,0.10547 20.589,4.7882 0 0 1 -0.02532,0.10352 20.589,4.7882 0 0 1 -0.03326,0.10352 20.589,4.7882 0 0 1 -0.04494,0.10352 20.589,4.7882 0 0 1 -0.05273,0.10352 20.589,4.7882 0 0 1 -0.06251,0.10352 20.589,4.7882 0 0 1 -0.07227,0.10352 20.589,4.7882 0 0 1 -0.08398,0.10156 20.589,4.7882 0 0 1 -0.09181,0.10156 20.589,4.7882 0 0 1 -0.10156,0.10156 20.589,4.7882 0 0 1 -0.10938,0.10156 20.589,4.7882 0 0 1 -0.1211,0.099611 20.589,4.7882 0 0 1 -0.12892,0.099611 20.589,4.7882 0 0 1 -0.13867,0.099611 20.589,4.7882 0 0 1 -0.14842,0.097661 20.589,4.7882 0 0 1 -0.15821,0.097661 20.589,4.7882 0 0 1 -0.166,0.097661 20.589,4.7882 0 0 1 -0.17579,0.0957 20.589,4.7882 0 0 1 -0.18358,0.093749 20.589,4.7882 0 0 1 -0.19336,0.093749 20.589,4.7882 0 0 1 -0.20119,0.093749 20.589,4.7882 0 0 1 -0.21094,0.091799 20.589,4.7882 0 0 1 -0.21876,0.089841 20.589,4.7882 0 0 1 -0.22852,0.089841 20.589,4.7882 0 0 1 -0.23437,0.089841 20.589,4.7882 0 0 1 -0.24416,0.085941 20.589,4.7882 0 0 1 -0.25195,0.087891 20.589,4.7882 0 0 1 -0.26174,0.083979 20.589,4.7882 0 0 1 -0.26756,0.083979 20.589,4.7882 0 0 1 -0.27538,0.082029 20.589,4.7882 0 0 1 -0.2832,0.080082 20.589,4.7882 0 0 1 -0.29103,0.078128 20.589,4.7882 0 0 1 -0.29882,0.078128 20.589,4.7882 0 0 1 -0.30467,0.07617 20.589,4.7882 0 0 1 -0.3125,0.07422 20.589,4.7882 0 0 1 -0.32032,0.07422 20.589,4.7882 0 0 1 -0.32422,0.070312 20.589,4.7882 0 0 1 -0.33396,0.070308 20.589,4.7882 0 0 1 -0.3379,0.068362 20.589,4.7882 0 0 1 -0.34572,0.066411 20.589,4.7882 0 0 1 -0.35158,0.06445 20.589,4.7882 0 0 1 -0.35744,0.0625 20.589,4.7882 0 0 1 -0.3633,0.060549 20.589,4.7882 0 0 1 -0.36915,0.058591 20.589,4.7882 0 0 1 -0.37501,0.058591 20.589,4.7882 0 0 1 -0.37891,0.054691 20.589,4.7882 0 0 1 -0.38476,0.052729 20.589,4.7882 0 0 1 -0.38867,0.052729 20.589,4.7882 0 0 1 -0.39453,0.048829 20.589,4.7882 0 0 1 -0.39844,0.046871 20.589,4.7882 0 0 1 -0.4043,0.044921 20.589,4.7882 0 0 1 -0.40625,0.044921 20.589,4.7882 0 0 1 -0.41211,0.04102 20.589,4.7882 0 0 1 -0.41406,0.039058 20.589,4.7882 0 0 1 -0.41992,0.037116 20.589,4.7882 0 0 1 -0.42187,0.03515 20.589,4.7882 0 0 1 -0.42383,0.031257 20.589,4.7882 0 0 1 -0.42773,0.031257 20.589,4.7882 0 0 1 -0.43164,0.029292 20.589,4.7882 0 0 1 -0.43359,0.025399 20.589,4.7882 0 0 1 -0.43555,0.023434 20.589,4.7882 0 0 1 -0.4375,0.023434 20.589,4.7882 0 0 1 -0.43945,0.01954 20.589,4.7882 0 0 1 -0.44141,0.015648 20.589,4.7882 0 0 1 -0.44336,0.015648 20.589,4.7882 0 0 1 -0.44531,0.013682 20.589,4.7882 0 0 1 -0.44531,0.009789 20.589,4.7882 0 0 1 -0.44531,0.009789 22.324,5.1915 0 0 0 20.883,-5.1798 22.324,5.1915 0 0 0 -3.4902,-2.7871 z"
       fill="#afb4b9"
       stroke-width="3.05"
       id="path193" />
    <path
       d="m -79.63,-8.1318 a 22.324,5.1915 0 0 0 -3.3926,2.752 22.324,5.1915 0 0 0 20.535,5.1719 20.589,4.7882 0 0 1 -0.44531,-0.0098 20.589,4.7882 0 0 1 -0.44531,-0.01172 20.589,4.7882 0 0 1 -0.44336,-0.01563 20.589,4.7882 0 0 1 -0.44141,-0.01563 20.589,4.7882 0 0 1 -0.43945,-0.01953 20.589,4.7882 0 0 1 -0.43945,-0.02149 20.589,4.7882 0 0 1 -0.43555,-0.02344 20.589,4.7882 0 0 1 -0.43359,-0.02539 20.589,4.7882 0 0 1 -0.43164,-0.0293 20.589,4.7882 0 0 1 -0.42969,-0.0293 20.589,4.7882 0 0 1 -0.42578,-0.0332 20.589,4.7882 0 0 1 -0.42188,-0.0332 20.589,4.7882 0 0 1 -0.41992,-0.03711 20.589,4.7882 0 0 1 -0.41406,-0.03906 20.589,4.7882 0 0 1 -0.41211,-0.04101 20.589,4.7882 0 0 1 -0.4082,-0.04297 20.589,4.7882 0 0 1 -0.4043,-0.04492 20.589,4.7882 0 0 1 -0.40039,-0.04687 20.589,4.7882 0 0 1 -0.39453,-0.04883 20.589,4.7882 0 0 1 -0.39062,-0.05078 20.589,4.7882 0 0 1 -0.38672,-0.05274 20.589,4.7882 0 0 1 -0.38086,-0.05469 20.589,4.7882 0 0 1 -0.375,-0.05664 20.589,4.7882 0 0 1 -0.36914,-0.05859 20.589,4.7882 0 0 1 -0.36523,-0.06055 20.589,4.7882 0 0 1 -0.35938,-0.0625 20.589,4.7882 0 0 1 -0.35156,-0.06445 20.589,4.7882 0 0 1 -0.34766,-0.066411 20.589,4.7882 0 0 1 -0.33984,-0.066411 20.589,4.7882 0 0 1 -0.33398,-0.070312 20.589,4.7882 0 0 1 -0.32813,-0.070312 20.589,4.7882 0 0 1 -0.32031,-0.07227 20.589,4.7882 0 0 1 -0.31445,-0.07422 20.589,4.7882 0 0 1 -0.30664,-0.07617 20.589,4.7882 0 0 1 -0.30078,-0.078128 20.589,4.7882 0 0 1 -0.29102,-0.078132 20.589,4.7882 0 0 1 -0.28516,-0.080078 20.589,4.7882 0 0 1 -0.27734,-0.082029 20.589,4.7882 0 0 1 -0.26953,-0.083979 20.589,4.7882 0 0 1 -0.26367,-0.083979 20.589,4.7882 0 0 1 -0.25391,-0.085941 20.589,4.7882 0 0 1 -0.24414,-0.085941 20.589,4.7882 0 0 1 -0.23828,-0.089841 20.589,4.7882 0 0 1 -0.23047,-0.087891 20.589,4.7882 0 0 1 -0.2207,-0.091799 20.589,4.7882 0 0 1 -0.21094,-0.091799 20.589,4.7882 0 0 1 -0.20508,-0.091799 20.589,4.7882 0 0 1 -0.19531,-0.093749 20.589,4.7882 0 0 1 -0.18555,-0.0957 20.589,4.7882 0 0 1 -0.17774,-0.0957 20.589,4.7882 0 0 1 -0.16797,-0.095699 20.589,4.7882 0 0 1 -0.1582,-0.097661 20.589,4.7882 0 0 1 -0.15039,-0.097661 20.589,4.7882 0 0 1 -0.14258,-0.099611 20.589,4.7882 0 0 1 -0.13086,-0.099611 20.589,4.7882 0 0 1 -0.12304,-0.099611 20.589,4.7882 0 0 1 -0.11133,-0.10156 20.589,4.7882 0 0 1 -0.10352,-0.099611 20.589,4.7882 0 0 1 -0.09375,-0.10352 20.589,4.7882 0 0 1 -0.08594,-0.10156 20.589,4.7882 0 0 1 -0.07422,-0.10156 20.589,4.7882 0 0 1 -0.06445,-0.10352 20.589,4.7882 0 0 1 -0.05664,-0.10352 20.589,4.7882 0 0 1 -0.04492,-0.10352 20.589,4.7882 0 0 1 -0.03712,-0.10352 20.589,4.7882 0 0 1 -0.0254,-0.10547 20.589,4.7882 0 0 1 -0.01758,-0.10352 20.589,4.7882 0 0 1 -0.0078,-0.10352 20.589,4.7882 0 0 1 0,-0.023434 20.589,4.7882 0 0 1 0.0059,-0.10352 20.589,4.7882 0 0 1 0.01368,-0.10547 20.589,4.7882 0 0 1 0.0254,-0.10352 20.589,4.7882 0 0 1 0.03319,-0.10352 20.589,4.7882 0 0 1 0.04492,-0.10352 20.589,4.7882 0 0 1 0.05274,-0.10352 20.589,4.7882 0 0 1 0.0625,-0.10352 20.589,4.7882 0 0 1 0.07226,-0.10156 20.589,4.7882 0 0 1 0.08399,-0.10352 20.589,4.7882 0 0 1 0.0918,-0.10156 20.589,4.7882 0 0 1 0.10156,-0.10156 20.589,4.7882 0 0 1 0.10937,-0.10156 20.589,4.7882 0 0 1 0.1211,-0.099608 20.589,4.7882 0 0 1 0.12891,-0.099608 20.589,4.7882 0 0 1 0.13867,-0.099608 20.589,4.7882 0 0 1 0.14844,-0.097657 20.589,4.7882 0 0 1 0.1582,-0.097657 20.589,4.7882 0 0 1 0.16602,-0.095703 20.589,4.7882 0 0 1 0.09961,-0.054687 z"
       fill="#afb4b9"
       stroke-width="3.05"
       id="path195" />
    <path
       d="m -38.679,-6.2333 a 22.324,5.1915 0 0 1 0.05273,0.07422 22.324,5.1915 0 0 1 0.06444,0.10742 22.324,5.1915 0 0 1 0.05469,0.10742 22.324,5.1915 0 0 1 0.04687,0.10937 22.324,5.1915 0 0 1 0.03515,0.10742 22.324,5.1915 0 0 1 0.02721,0.10742 22.324,5.1915 0 0 1 0.0155,0.10937 22.324,5.1915 0 0 1 0.0079,0.10742 22.324,5.1915 0 0 1 0,0.023434 22.324,5.1915 0 0 1 -0.006,0.10742 22.324,5.1915 0 0 1 -0.01361,0.10937 22.324,5.1915 0 0 1 -0.02532,0.10742 22.324,5.1915 0 0 1 -0.03326,0.10742 22.324,5.1915 0 0 1 -0.0449,0.10937 22.324,5.1915 0 0 1 -0.05273,0.10742 22.324,5.1915 0 0 1 -0.06251,0.10742 22.324,5.1915 0 0 1 -0.07227,0.10742 22.324,5.1915 0 0 1 -0.08398,0.10547 22.324,5.1915 0 0 1 -0.09181,0.10742 22.324,5.1915 0 0 1 -0.10156,0.10547 22.324,5.1915 0 0 1 -0.10938,0.10547 22.324,5.1915 0 0 1 -0.1211,0.10547 22.324,5.1915 0 0 1 -0.13085,0.10352 22.324,5.1915 0 0 1 -0.13867,0.10352 22.324,5.1915 0 0 1 -0.14842,0.10156 22.324,5.1915 0 0 1 -0.15625,0.10352 22.324,5.1915 0 0 1 -0.16796,0.10156 22.324,5.1915 0 0 1 -0.17579,0.099611 22.324,5.1915 0 0 1 -0.18358,0.099611 22.324,5.1915 0 0 1 -0.19336,0.099611 22.324,5.1915 0 0 1 -0.20312,0.097661 22.324,5.1915 0 0 1 -0.21094,0.0957 22.324,5.1915 0 0 1 -0.22069,0.095699 22.324,5.1915 0 0 1 -0.22851,0.093749 22.324,5.1915 0 0 1 -0.23634,0.093749 22.324,5.1915 0 0 1 -0.24412,0.091799 22.324,5.1915 0 0 1 -0.25391,0.091799 22.324,5.1915 0 0 1 -0.26174,0.089841 22.324,5.1915 0 0 1 -0.26952,0.087891 22.324,5.1915 0 0 1 -0.27735,0.087891 22.324,5.1915 0 0 1 -0.28517,0.085941 22.324,5.1915 0 0 1 -0.29296,0.08399 22.324,5.1915 0 0 1 -0.30078,0.083979 22.324,5.1915 0 0 1 -0.30664,0.080078 22.324,5.1915 0 0 1 -0.31446,0.080078 22.324,5.1915 0 0 1 -0.32225,0.078132 22.324,5.1915 0 0 1 -0.33007,0.078128 22.324,5.1915 0 0 1 -0.33593,0.07422 22.324,5.1915 0 0 1 -0.34179,0.07422 22.324,5.1915 0 0 1 -0.34961,0.072259 22.324,5.1915 0 0 1 -0.35547,0.070312 22.324,5.1915 0 0 1 -0.36133,0.068362 22.324,5.1915 0 0 1 -0.36719,0.066411 22.324,5.1915 0 0 1 -0.37501,0.06445 22.324,5.1915 0 0 1 -0.3789,0.062499 22.324,5.1915 0 0 1 -0.38477,0.062499 22.324,5.1915 0 0 1 -0.39062,0.058591 22.324,5.1915 0 0 1 -0.39453,0.056641 22.324,5.1915 0 0 1 -0.40234,0.056641 22.324,5.1915 0 0 1 -0.4043,0.052729 22.324,5.1915 0 0 1 -0.41015,0.052729 22.324,5.1915 0 0 1 -0.41602,0.048829 22.324,5.1915 0 0 1 -0.41797,0.046871 22.324,5.1915 0 0 1 -0.42382,0.046878 22.324,5.1915 0 0 1 -0.42773,0.04297 22.324,5.1915 0 0 1 -0.43164,0.04102 22.324,5.1915 0 0 1 -0.4336,0.039058 22.324,5.1915 0 0 1 -0.43945,0.037116 22.324,5.1915 0 0 1 -0.44141,0.03515 22.324,5.1915 0 0 1 -0.44336,0.033185 22.324,5.1915 0 0 1 -0.44727,0.029292 22.324,5.1915 0 0 1 -0.45117,0.029292 22.324,5.1915 0 0 1 -0.45117,0.025399 22.324,5.1915 0 0 1 -0.45508,0.025399 22.324,5.1915 0 0 1 -0.45703,0.021468 22.324,5.1915 0 0 1 -0.45898,0.01954 22.324,5.1915 0 0 1 -0.45898,0.017575 22.324,5.1915 0 0 1 -0.46289,0.013682 22.324,5.1915 0 0 1 -0.46289,0.013682 22.324,5.1915 0 0 1 -0.46289,0.009789 22.324,5.1915 0 0 1 -0.46484,0.009789 22.324,5.1915 0 0 1 -0.4668,0.005896 22.324,5.1915 0 0 1 -0.46484,0.003893 22.324,5.1915 0 0 1 -0.4668,0.002 22.324,5.1915 0 0 1 -0.09375,0 22.324,5.1915 0 0 1 -0.46661,-0.001953 22.324,5.1915 0 0 1 -0.46484,-0.0039 22.324,5.1915 0 0 1 -0.4668,-0.0059 22.324,5.1915 0 0 1 -0.46484,-0.0078 22.324,5.1915 0 0 1 -0.46484,-0.0098 22.324,5.1915 0 0 1 -0.46289,-0.01172 22.324,5.1915 0 0 1 -0.46094,-0.01563 22.324,5.1915 0 0 1 -0.46094,-0.01563 22.324,5.1915 0 0 1 -0.45898,-0.01953 22.324,5.1915 0 0 1 -0.45703,-0.02149 22.324,5.1915 0 0 1 -0.45508,-0.02344 22.324,5.1915 0 0 1 -0.45312,-0.02539 22.324,5.1915 0 0 1 -0.45117,-0.0293 22.324,5.1915 0 0 1 -0.44727,-0.0293 22.324,5.1915 0 0 1 -0.44531,-0.0332 22.324,5.1915 0 0 1 -0.44141,-0.0332 22.324,5.1915 0 0 1 -0.43945,-0.03711 22.324,5.1915 0 0 1 -0.43555,-0.03906 22.324,5.1915 0 0 1 -0.43164,-0.04101 22.324,5.1915 0 0 1 -0.42774,-0.04297 22.324,5.1915 0 0 1 -0.42383,-0.04492 22.324,5.1915 0 0 1 -0.41992,-0.04687 22.324,5.1915 0 0 1 -0.41602,-0.04883 22.324,5.1915 0 0 1 -0.41211,-0.05078 22.324,5.1915 0 0 1 -0.40625,-0.05469 22.324,5.1915 0 0 1 -0.40234,-0.05469 22.324,5.1915 0 0 1 -0.39648,-0.05664 22.324,5.1915 0 0 1 -0.39062,-0.05859 22.324,5.1915 0 0 1 -0.38672,-0.06055 22.324,5.1915 0 0 1 -0.38086,-0.0625 22.324,5.1915 0 0 1 -0.375,-0.06445 22.324,5.1915 0 0 1 -0.36914,-0.06641 22.324,5.1915 0 0 1 -0.36133,-0.06836 22.324,5.1915 0 0 1 -0.35742,-0.07031 22.324,5.1915 0 0 1 -0.34961,-0.07226 22.324,5.1915 0 0 1 -0.34375,-0.07227 22.324,5.1915 0 0 1 -0.33789,-0.07422 22.324,5.1915 0 0 1 -0.33008,-0.07813 22.324,5.1915 0 0 1 -0.32422,-0.07813 22.324,5.1915 0 0 1 -0.31641,-0.07813 22.324,5.1915 0 0 1 -0.30859,-0.08203 22.324,5.1915 0 0 1 -0.30274,-0.08203 22.324,5.1915 0 0 1 -0.29297,-0.08399 22.324,5.1915 0 0 1 -0.28711,-0.08594 22.324,5.1915 0 0 1 -0.2793,-0.08789 22.324,5.1915 0 0 1 -0.27148,-0.08789 22.324,5.1915 0 0 1 -0.26172,-0.08984 22.324,5.1915 0 0 1 -0.25586,-0.08984 22.324,5.1915 0 0 1 -0.24609,-0.0918 22.324,5.1915 0 0 1 -0.23828,-0.09375 22.324,5.1915 0 0 1 -0.23047,-0.09375 22.324,5.1915 0 0 1 -0.22266,-0.0957 22.324,5.1915 0 0 1 -0.21289,-0.0957 22.324,5.1915 0 0 1 -0.20312,-0.09766 22.324,5.1915 0 0 1 -0.19531,-0.09961 22.324,5.1915 0 0 1 -0.1875,-0.09961 22.324,5.1915 0 0 1 -0.17774,-0.09961 22.324,5.1915 0 0 1 -0.16797,-0.10156 22.324,5.1915 0 0 1 -0.16016,-0.10156 22.324,5.1915 0 0 1 -0.14844,-0.10352 22.324,5.1915 0 0 1 -0.14258,-0.10156 22.324,5.1915 0 0 1 -0.13086,-0.10547 22.324,5.1915 0 0 1 -0.12305,-0.10352 22.324,5.1915 0 0 1 -0.11133,-0.10547 22.324,5.1915 0 0 1 -0.10352,-0.10547 22.324,5.1915 0 0 1 -0.09375,-0.10742 22.324,5.1915 0 0 1 -0.08399,-0.10547 22.324,5.1915 0 0 1 -0.07617,-0.10742 22.324,5.1915 0 0 1 -0.06445,-0.10742 22.324,5.1915 0 0 1 -0.05469,-0.10742 22.324,5.1915 0 0 1 -0.04687,-0.10742 22.324,5.1915 0 0 1 -0.03515,-0.10937 22.324,5.1915 0 0 1 -0.02733,-0.10742 22.324,5.1915 0 0 1 -0.01561,-0.10937 22.324,5.1915 0 0 1 -0.0078,-0.10742 22.324,5.1915 0 0 1 0,-0.021468 22.324,5.1915 0 0 1 0.0059,-0.10937 22.324,5.1915 0 0 1 0.01368,-0.10742 22.324,5.1915 0 0 1 0.0254,-0.10937 22.324,5.1915 0 0 1 0.03319,-0.10742 22.324,5.1915 0 0 1 0.04492,-0.10937 22.324,5.1915 0 0 1 0.05273,-0.10742 22.324,5.1915 0 0 1 0.0625,-0.10742 22.324,5.1915 0 0 1 0.0625,-0.093749 c -0.40984,0.49884 -0.48239,0.84955 -0.48239,0.84955 l 5.5742,41.123 c 1.9478,7.7228 9.8831,8.5061 16.748,8.6855 h 0.0059 c 0.06511,-2.46e-4 0.11295,-0.0038 0.17774,-0.0038 0.06481,3.44e-4 0.1126,0.0038 0.17774,0.0038 h 0.0059 c 6.8649,-0.17942 14.8,-0.96272 16.748,-8.6855 l 5.5741,-41.123 c 0,0 -0.07476,-0.35152 -0.48633,-0.85156 z"
       fill="#e4e5e7"
       fill-opacity="0.99932"
       id="path197" />
    <path
       d="m -77.403,36.531 c 2.2186,7.1226 9.8506,7.9213 16.52,8.0956 h 0.0061 c 0.06511,-2.46e-4 0.11367,-0.0038 0.17846,-0.0038 0.06481,3.44e-4 0.11332,0.0038 0.17846,0.0038 h 0.0061 c 6.669,-0.17432 14.301,-0.97293 16.52,-8.0956 -0.24923,0.32852 -0.45582,0.71017 -0.73615,0.99978 -0.62127,0.64186 -1.3147,1.1922 -2.0665,1.6629 -0.75179,0.47067 -1.5614,0.86155 -2.4133,1.1884 -1.7037,0.65366 -3.5764,1.0475 -5.4978,1.2898 -1.9214,0.24227 -3.8922,0.33374 -5.7878,0.3833 h -0.0061 c -0.07194,-3.93e-4 -0.12513,-0.0037 -0.19671,-0.0038 -0.07156,3.97e-4 -0.1248,0.0038 -0.19671,0.0038 h -0.0081 c -1.8955,-0.04955 -3.8643,-0.14103 -5.7857,-0.3833 -1.9214,-0.24226 -3.794,-0.63612 -5.4978,-1.2898 -0.85186,-0.32683 -1.6615,-0.7177 -2.4133,-1.1884 -0.75178,-0.47067 -1.4452,-1.0211 -2.0665,-1.6629 -0.28032,-0.28961 -0.48689,-0.67128 -0.73614,-0.99978 z"
       fill="#969696"
       id="path199" />
    <path
       d="m -62.381,11.909 c 0.51168,0.213 0.93773,0.59744 1.2564,1.1507 l 2.278,3.9587 -1.4258,0.8102 4.618,0.06374 2.2561,-4.0443 -1.404,0.83033 -1.2983,-2.2142 c -0.21383,-0.36275 -0.57494,-0.55523 -1.0434,-0.55523 z m -1.2145,0.19291 c -0.80788,0 -1.4677,0.38393 -1.872,1.087 l -1.9374,3.3414 4.0661,2.8617 2.5128,-4.8427 -0.72465,-1.2128 c -0.48839,-0.82951 -1.1712,-1.2346 -2.0448,-1.2346 z m 10.645,6.3323 -4.0644,2.3199 2.5111,4.3445 h 1.4057 a 2.377,2.377 0 0 0 1.2128,-0.27844 c 0.67975,-0.38272 1.1708,-1.1921 1.1708,-1.9576 0,-0.38355 -0.10723,-0.74417 -0.29859,-1.0853 z m -13.091,0.97962 -4.6414,0.08555 1.4258,0.80684 -1.2765,2.236 c -0.0857,0.14808 -0.14929,0.38316 -0.14929,0.57536 a 1.1873,1.1873 0 0 0 0.14929,0.55355 l 2.6604,4.576 c -0.02079,-0.14892 -0.02011,-0.25478 -0.02011,-0.33884 0,-0.36194 0.16948,-0.93909 0.38245,-1.3218 l 2.2779,-3.9369 1.4476,0.82865 z m 8.4291,4.5341 -2.3836,3.9805 2.3836,3.9805 v -1.6388 h 2.491 a 1.1498,1.1498 0 0 0 1.0434,-0.57536 l 2.6386,-4.5962 c -0.44679,0.34028 -0.9789,0.50994 -1.617,0.50994 h -4.5559 z m -8.7277,1.617 -0.68104,1.2128 c -0.21299,0.36194 -0.36232,0.93708 -0.36232,1.2782 a 2.2256,2.2256 0 0 0 2.2142,2.2142 h 3.8732 v -4.7052 z"
       fill="#0078d7"
       id="path201" />
  </g>
</svg>
