<?xml version="1.0" encoding="UTF-8" standalone="no"?>
<svg
   width="22"
   height="22"
   version="1.1"
   id="svg1"
   sodipodi:docname="applications-all-symbolic.svg"
   inkscape:version="1.4 (e7c3feb100, 2024-10-09)"
   xmlns:inkscape="http://www.inkscape.org/namespaces/inkscape"
   xmlns:sodipodi="http://sodipodi.sourceforge.net/DTD/sodipodi-0.dtd"
   xmlns="http://www.w3.org/2000/svg"
   xmlns:svg="http://www.w3.org/2000/svg">
  <defs
     id="defs1">
    <linearGradient
       id="linearGradient7561"
       x1="0.76042998"
       x2="14.845"
       y1="1.1638"
       y2="14.845"
       gradientTransform="matrix(0.24694,0,0,0.24694,2.6173,3.8869)"
       gradientUnits="userSpaceOnUse">
      <stop
         stop-color="#a549d0"
         offset="0"
         id="stop1" />
      <stop
         stop-color="#c25bef"
         offset="1"
         id="stop2" />
    </linearGradient>
    <linearGradient
       id="linearGradient7569"
       x1="30.830999"
       x2="17.514999"
       y1="1.1508"
       y2="15.03"
       gradientTransform="matrix(0.24694,0,0,0.24694,2.5766,3.8869)"
       gradientUnits="userSpaceOnUse">
      <stop
         stop-color="#b143f2"
         offset="0"
         id="stop3" />
      <stop
         stop-color="#8f32cb"
         offset="1"
         id="stop4" />
    </linearGradient>
    <linearGradient
       id="linearGradient1670"
       x1="0.76042998"
       x2="14.845"
       y1="1.1638"
       y2="14.845"
       gradientTransform="matrix(0.24694,0,0,-0.24694,2.6173,11.748)"
       gradientUnits="userSpaceOnUse">
      <stop
         stop-color="#8424d5"
         offset="0"
         id="stop5" />
      <stop
         stop-color="#c25bef"
         offset="1"
         id="stop6" />
    </linearGradient>
    <linearGradient
       id="linearGradient1668"
       x1="30.830999"
       x2="17.514999"
       y1="1.1508"
       y2="15.03"
       gradientTransform="matrix(0.24694,0,0,-0.24694,2.5766,11.748)"
       gradientUnits="userSpaceOnUse">
      <stop
         stop-color="#6526aa"
         offset="0"
         id="stop7" />
      <stop
         stop-color="#8f32cb"
         offset="1"
         id="stop8" />
    </linearGradient>
  </defs>
  <sodipodi:namedview
     id="namedview1"
     pagecolor="#505050"
     bordercolor="#eeeeee"
     borderopacity="1"
     inkscape:showpageshadow="0"
     inkscape:pageopacity="0"
     inkscape:pagecheckerboard="0"
     inkscape:deskcolor="#505050"
     inkscape:zoom="6.0264783"
     inkscape:cx="-48.286908"
     inkscape:cy="11.615407"
     inkscape:window-width="1920"
     inkscape:window-height="1007"
     inkscape:window-x="0"
     inkscape:window-y="0"
     inkscape:window-maximized="1"
     inkscape:current-layer="svg1" />
  <style
     id="current-color-scheme"
     type="text/css">.ColorScheme-Text {
        color:#363636;
      }</style>
  <path
     class="ColorScheme-Text"
     fill="currentColor"
     d="m -35.653926,3 c -1.108,0 -2,0.892 -2,2 v 3 c 0,1.108 0.892,2 2,2 h 3 c 1.108,0 2,-0.892 2,-2 V 5 c 0,-1.108 -0.892,-2 -2,-2 z m 9,0 c -1.108,0 -2,0.892 -2,2 v 3 c 0,1.108 0.892,2 2,2 h 3 c 1.108,0 2,-0.892 2,-2 V 5 c 0,-1.108 -0.892,-2 -2,-2 z m -9,1 h 3 c 0.554,0 1,0.446 1,1 v 3 c 0,0.554 -0.446,1 -1,1 h -3 c -0.554,0 -1,-0.446 -1,-1 V 5 c 0,-0.554 0.446,-1 1,-1 z m 9,0 h 3 c 0.554,0 1,0.446 1,1 v 3 c 0,0.554 -0.446,1 -1,1 h -3 c -0.554,0 -1,-0.446 -1,-1 V 5 c 0,-0.554 0.446,-1 1,-1 z m -9,8 c -1.108,0 -2,0.892 -2,2 v 3 c 0,1.108 0.892,2 2,2 h 3 c 1.108,0 2,-0.892 2,-2 v -3 c 0,-1.108 -0.892,-2 -2,-2 z m 9,0 c -1.108,0 -2,0.892 -2,2 v 3 c 0,1.108 0.892,2 2,2 h 3 c 1.108,0 2,-0.892 2,-2 v -3 c 0,-1.108 -0.892,-2 -2,-2 z m -9,1 h 3 c 0.554,0 1,0.446 1,1 v 3 c 0,0.554 -0.446,1 -1,1 h -3 c -0.554,0 -1,-0.446 -1,-1 v -3 c 0,-0.554 0.446,-1 1,-1 z m 9,0 h 3 c 0.554,0 1,0.446 1,1 v 3 c 0,0.554 -0.446,1 -1,1 h -3 c -0.554,0 -1,-0.446 -1,-1 v -3 c 0,-0.554 0.446,-1 1,-1 z"
     id="path1" />
  <g
     transform="matrix(2.1597398,0,0,2.1597398,-3.1423002,-5.8843058)"
     id="g11">
    <path
       d="m 4.5536,4.1135 c -0.94713,0 -1.7096,0.76249 -1.7096,1.7096 0,0.010392 0.00117,0.020376 0.00134,0.030718 C 2.845198,5.855068 2.844,5.855838 2.844,5.857168 v 1.6619 c 0,0.018933 0.015116,0.034048 0.034059,0.034048 h 3.3715 c 0.018943,0 0.034058,-0.015115 0.034058,-0.034059 v -3.3374 C 6.283617,4.143772 6.253384,4.113539 6.2155,4.113539 H 4.6218 c -0.00294,0 -0.00451,0.00298 -0.00735,0.00334 C 4.594064,4.1161654 4.574243,4.113539 4.553678,4.113539 Z"
       fill="url(#linearGradient7561)"
       id="path8"
       style="fill:url(#linearGradient7561)" />
    <path
       d="m 8.5427,4.1135 c 0.94713,0 1.7096,0.76249 1.7096,1.7096 0,0.010392 -0.0012,0.020376 -0.0013,0.030718 1.42e-4,0.00125 0.0013,0.00202 0.0013,0.00335 v 1.6619 c 0,0.018933 -0.01511,0.034048 -0.03406,0.034048 h -3.3715 c -0.018943,0 -0.034059,-0.015115 -0.034059,-0.034059 v -3.3374 c 0,-0.037885 0.030233,-0.068118 0.068118,-0.068118 h 1.5937 c 0.00294,0 0.00451,0.00298 0.00735,0.00334 0.020384,-7.136e-4 0.040206,-0.00334 0.060771,-0.00334 z"
       fill="url(#linearGradient7569)"
       id="path9"
       style="fill:url(#linearGradient7569)" />
    <path
       d="M 4.5536,11.522 C 3.60647,11.522 2.844,10.75951 2.844,9.8124 2.844,9.802008 2.84517,9.792024 2.84534,9.781682 2.845198,9.780432 2.844,9.779662 2.844,9.778332 v -1.6619 c 0,-0.018934 0.015116,-0.034048 0.034059,-0.034048 h 3.3715 c 0.018944,0 0.034058,0.015116 0.034058,0.034059 v 3.3374 c 0,0.03788 -0.030233,0.06812 -0.068117,0.06812 H 4.6218 c -0.00294,0 -0.00451,-0.003 -0.00735,-0.0033 -0.020386,7.14e-4 -0.040207,0.0033 -0.060772,0.0033 z"
       fill="url(#linearGradient1670)"
       id="path10"
       style="fill:url(#linearGradient1670)" />
    <path
       d="m 8.5427,11.522 c 0.94713,0 1.7096,-0.76249 1.7096,-1.7096 0,-0.010393 -0.0012,-0.020376 -0.0013,-0.030718 1.42e-4,-0.00124 0.0013,-0.00201 0.0013,-0.00335 v -1.6619 c 0,-0.018934 -0.01512,-0.034048 -0.03406,-0.034048 H 6.84674 C 6.827797,8.082383 6.812681,8.097498 6.812681,8.116442 v 3.3374 c 0,0.03788 0.030233,0.06812 0.068118,0.06812 h 1.5937 c 0.00294,0 0.00451,-0.003 0.00735,-0.0033 0.020383,7.14e-4 0.040206,0.0033 0.060771,0.0033 z"
       fill="url(#linearGradient1668)"
       id="path11"
       style="fill:url(#linearGradient1668)" />
  </g>
</svg>
