<?xml version="1.0" encoding="UTF-8" standalone="no"?>
<svg
   width="22"
   height="22"
   version="1.1"
   id="svg2"
   sodipodi:docname="applications-games-symbolic.svg"
   inkscape:version="1.4 (e7c3feb100, 2024-10-09)"
   xmlns:inkscape="http://www.inkscape.org/namespaces/inkscape"
   xmlns:sodipodi="http://sodipodi.sourceforge.net/DTD/sodipodi-0.dtd"
   xmlns="http://www.w3.org/2000/svg"
   xmlns:svg="http://www.w3.org/2000/svg">
  <defs
     id="defs2">
    <linearGradient
       id="linearGradient1367"
       x1="-59.314999"
       x2="74.056"
       y1="4.7247"
       y2="4.7247"
       gradientUnits="userSpaceOnUse">
      <stop
         stop-color="#e8eff8"
         offset="0"
         id="stop9" />
      <stop
         stop-color="#f5faff"
         offset="1"
         id="stop10" />
    </linearGradient>
    <linearGradient
       id="linearGradient1375"
       x1="7.869"
       x2="7.869"
       y1="-40.203999"
       y2="-15.641"
       gradientUnits="userSpaceOnUse">
      <stop
         stop-color="#505050"
         offset="0"
         id="stop11" />
      <stop
         stop-color="#191919"
         offset="1"
         id="stop12" />
    </linearGradient>
  </defs>
  <sodipodi:namedview
     id="namedview2"
     pagecolor="#505050"
     bordercolor="#eeeeee"
     borderopacity="1"
     inkscape:showpageshadow="0"
     inkscape:pageopacity="0"
     inkscape:pagecheckerboard="0"
     inkscape:deskcolor="#505050"
     inkscape:zoom="6.0264783"
     inkscape:cx="-39.326451"
     inkscape:cy="28.208846"
     inkscape:window-width="1920"
     inkscape:window-height="1007"
     inkscape:window-x="0"
     inkscape:window-y="0"
     inkscape:window-maximized="1"
     inkscape:current-layer="svg2" />
  <style
     id="current-color-scheme"
     type="text/css">.ColorScheme-Text {
        color:#363636;
      }</style>
  <path
     class="ColorScheme-Text"
     d="m -26.526747,8 h 0.992 v 1 h 0.992 v 1 h -0.992 v 1 h -0.992 v -1 h -0.992 V 9 h 0.992 z m 7.52,0 c 0.274,0 0.496,0.224 0.496,0.5 0,0.276 -0.222,0.5 -0.496,0.5 -0.27504,-0.0011 -0.49711,-0.22496 -0.496,-0.5 0,-0.276 0.222,-0.5 0.496,-0.5 z m -0.992,1 c 0.274,0 0.496,0.224 0.496,0.5 0,0.276 -0.222,0.5 -0.496,0.5 -0.27504,-0.0011 -0.49711,-0.22496 -0.496,-0.5 0,-0.276 0.222,-0.5 0.496,-0.5 z m 1.984,0 c 0.274,0 0.496,0.224 0.496,0.5 0,0.276 -0.222,0.5 -0.496,0.5 -0.27504,-0.0011 -0.49711,-0.22496 -0.496,-0.5 0,-0.276 0.222,-0.5 0.496,-0.5 z m -0.992,1 c 0.274,0 0.496,0.224 0.496,0.5 0,0.276 -0.222,0.5 -0.496,0.5 -0.27504,-0.0011 -0.49711,-0.22496 -0.496,-0.5 0,-0.276 0.222,-0.5 0.496,-0.5 z"
     fill="currentColor"
     id="path1" />
  <path
     class="ColorScheme-Text"
     d="m -26.481647,4.8897 c -0.34323,0.00787 -0.67988,0.099906 -0.98047,0.26562 -1.2576,0.66372 -2.1036,2.4475 -2.6055,4.6953 -0.21549,0.95875 -0.35933,2.0707 -0.41992,3.0859 -0.06059,1.0153 -0.04965,1.908 0.10156,2.5312 v 0.002 c 0.11974,0.4852 0.2909,0.888 0.58789,1.1895 0.29699,0.30145 0.72024,0.45117 1.1484,0.45117 h 0.0078 c 0.67209,-0.01157 1.3072,-0.36056 1.8906,-0.86719 0.58339,-0.50663 1.1176,-1.1906 1.5352,-1.9766 l -0.0293,0.05078 c 0.39941,-0.57494 1.555,-0.96543 2.709,-0.92773 h 0.03516 c 1.1524,-0.04021 2.3114,0.35256 2.7109,0.92773 l -0.03125,-0.05078 c 0.41752,0.78592 0.95191,1.4699 1.5352,1.9766 0.58329,0.5067 1.2188,0.85562 1.8906,0.86719 h 0.0078 c 0.4282,0 0.85126,-0.1497 1.1484,-0.45117 0.29718,-0.30147 0.46665,-0.70398 0.58594,-1.1895 h 0.002 c 0.15185,-0.62352 0.16192,-1.5179 0.10156,-2.5332 -0.06036,-1.0153 -0.20495,-2.1273 -0.41992,-3.0859 -0.50404,-2.2488 -1.3485,-4.0344 -2.6074,-4.6973 -0.63835,-0.34086 -1.3575,-0.34382 -1.8887,0.033203 v 0.00195 h -0.002 c -0.36436,0.25996 -1.3023,0.63777 -3.0508,0.63867 -1.7467,0.0018 -2.6854,-0.37798 -3.0508,-0.63867 l 0.01367,0.00977 c -0.26294,-0.20147 -0.58672,-0.31018 -0.91797,-0.30859 h -0.0078 z m 0.01758,1.002 c 0.1083,4.541e-4 0.21279,0.033686 0.29883,0.099609 l 0.0078,0.00586 0.0059,0.00586 c 0.62273,0.4443 1.7458,0.82617 3.6328,0.82422 1.886,-9.726e-4 3.0069,-0.37954 3.6309,-0.82422 0.25023,-0.17762 0.41184,-0.19686 0.8418,0.033203 l 0.002,0.00195 c 0.68542,0.36089 1.6287,1.9301 2.0996,4.0312 0.19939,0.88915 0.33918,1.9637 0.39648,2.9277 0.0573,0.96399 0.01947,1.8417 -0.07617,2.2344 -0.0954,0.38827 -0.21961,0.61648 -0.32812,0.72656 -0.1075,0.10905 -0.20274,0.14958 -0.43164,0.15039 -0.30794,-0.0065 -0.77473,-0.20971 -1.2461,-0.61914 -0.47284,-0.41072 -0.94518,-1.0073 -1.3086,-1.6914 l -0.01367,-0.02539 -0.01758,-0.02539 c -0.72793,-1.0478 -2.1809,-1.3997 -3.5488,-1.3555 -1.3671,-0.04159 -2.8204,0.30699 -3.5488,1.3555 l -0.01758,0.02539 -0.01367,0.02539 c -0.36341,0.68407 -0.83566,1.2807 -1.3086,1.6914 -0.47145,0.40942 -0.93948,0.6126 -1.248,0.61914 -0.22691,-0.0011 -0.32461,-0.04175 -0.43164,-0.15039 -0.10813,-0.10975 -0.23042,-0.33837 -0.32617,-0.72461 -0.09535,-0.39299 -0.1337,-1.2723 -0.07617,-2.2363 0.05753,-0.964 0.19862,-2.0387 0.39844,-2.9277 0.46906,-2.1008 1.4121,-3.6703 2.0977,-4.0312 l 0.0059,-0.00391 0.0039,-0.00195 c 0.15872,-0.088296 0.33804,-0.13546 0.51953,-0.14062 z"
     fill="currentColor"
     id="path2" />
  <g
     transform="matrix(0.11996586,0,0,0.11996586,10.115867,10.433168)"
     stroke-width="0.26458"
     id="g32">
    <path
       d="M 73.643,24.889 C 70.5169,0.713 57.491,-25.65 56.97,-26.797 c -0.20849,-0.41672 -0.62521,-0.8337 -1.0419,-1.0419 l -1.9799,-0.8337 -0.62521,-2.2926 c 0,-0.20849 -0.10425,-0.31274 -0.20849,-0.52096 -0.10425,-0.20849 -1.4589,-2.8136 -5.2102,-4.2725 -3.4388,-1.3547 -12.088,-4.3767 -17.298,-4.3767 -1.7714,0 -3.2303,0.31274 -4.1682,1.0419 -0.72946,0.31274 -3.8555,3.1261 -6.8776,3.1261 h -25.009 c -2.9178,0 -6.1481,-2.7093 -6.8776,-3.1261 -1.0419,-0.72946 -2.3966,-1.0419 -4.1682,-1.0419 -5.2102,0 -13.859,3.0221 -17.298,4.3767 -3.7513,1.4589 -5.1059,4.064 -5.2102,4.2725 -0.10425,0.10425 -0.10425,0.31274 -0.20849,0.52096 l -0.62521,2.3966 -1.4589,0.8337 c -0.41672,0.20849 -0.72946,0.52096 -0.93795,0.93795 -0.52096,1.1462 -13.547,27.51 -16.673,51.686 -1.1462,9.0659 0.10425,15.735 3.8555,20.007 3.6473,4.064 8.4407,4.6892 10.421,4.6892 h 1.5632 c 2.7093,0 6.5648,-2.0841 19.278,-15.735 1.2504,-1.3547 2.1884,-2.0841 2.8136,-2.7093 1.8756,-1.8756 5.7314,-2.5008 8.5447,-2.5008 h 39.806 c 2.8136,0 6.7733,0.62521 8.5447,2.5008 0.62521,0.62521 1.5632,1.3547 2.8136,2.7093 12.713,13.651 16.569,15.735 19.278,15.735 h 1.5632 c 1.8756,0 6.7733,-0.52096 10.421,-4.6892 3.5422,-4.2722 4.7927,-11.046 3.6465,-20.007 z"
       fill="url(#linearGradient1367)"
       id="path23"
       style="fill:url(#linearGradient1367)" />
    <path
       d="m 56.971,-26.797 c -0.20849,-0.41672 -0.62521,-0.8337 -1.0419,-1.0419 l -1.9799,-0.8337 -0.62521,-2.2926 c 0,-0.20849 -0.10425,-0.31274 -0.20849,-0.52096 -0.10425,-0.20849 -1.4589,-2.8136 -5.2102,-4.2725 -3.4388,-1.3547 -12.088,-4.3767 -17.298,-4.3767 -1.7714,0 -3.2303,0.31274 -4.1682,1.0419 -0.72946,0.31274 -3.8555,3.1261 -6.8776,3.1261 h -25.009 c -2.9178,0 -6.1481,-2.7093 -6.8776,-3.1261 -1.0419,-0.72946 -2.3966,-1.0419 -4.1682,-1.0419 -5.2102,0 -13.859,3.0221 -17.298,4.3767 -3.7513,1.4589 -5.1059,4.064 -5.2102,4.2725 -0.10425,0.10425 -0.10425,0.31274 -0.20849,0.52096 l -0.62521,2.3966 -1.4589,0.8337 c -0.41672,0.20849 -0.72946,0.52096 -0.93795,0.93795 -0.10425,0.31274 -1.2504,2.3966 -2.7093,5.8354 l 9.6912,-4.8977 c 13.755,-6.5648 18.653,-2.8136 19.07,-2.5008 0.31274,0.41672 2.1884,2.9178 6.6691,7.2943 4.2725,4.2725 6.2524,4.8977 7.0861,4.8977 h 18.34 c 0.93795,0 2.9178,-0.72946 6.9818,-4.8977 4.3767,-4.3767 6.2524,-6.7733 6.5648,-7.2943 0.52096,-0.41672 5.6272,-4.2725 20.112,3.0221 -0.20849,-0.20849 6.1481,3.0221 10.421,5.2102 -1.6677,-3.8555 -2.8141,-6.3566 -3.0223,-6.6691 z"
       fill="url(#linearGradient1375)"
       id="path24"
       style="fill:url(#linearGradient1375)" />
    <path
       d="m 39.152,-4.7056 c -1.9799,0 -3.6473,1.6674 -3.6473,3.6473 0,1.9799 1.6674,3.6473 3.6473,3.6473 1.9799,0 3.6473,-1.6674 3.6473,-3.6473 0,-1.9799 -1.6674,-3.6473 -3.6473,-3.6473 z m 8.3365,-8.3365 c -1.9799,0 -3.6473,1.6674 -3.6473,3.6473 0,1.9799 1.6674,3.6473 3.6473,3.6473 1.9799,0 3.6473,-1.6674 3.6473,-3.6473 0,-1.9799 -1.6674,-3.6473 -3.6473,-3.6473 z m -16.673,0 c -1.9799,0 -3.6473,1.6674 -3.6473,3.6473 0,1.9799 1.6674,3.6473 3.6473,3.6473 1.9799,0 3.6473,-1.6674 3.6473,-3.6473 0,-1.9799 -1.6674,-3.6473 -3.6473,-3.6473 z m 8.3365,-8.3362 c -1.9799,0 -3.6473,1.6674 -3.6473,3.6473 0,1.9799 1.6674,3.6473 3.6473,3.6473 1.9799,0 3.6473,-1.6674 3.6473,-3.6473 -2.65e-4,-1.9801 -1.6674,-3.6473 -3.6473,-3.6473 z"
       fill="#323232"
       id="path25" />
    <path
       d="m 7.369,-29.715 c 2.2926,0 4.1682,1.8756 4.1682,4.1682 0,2.2926 -1.8756,4.1682 -4.1682,4.1682 -2.2926,0 -4.1682,-1.8756 -4.1682,-4.1682 0,-2.2926 1.8756,-4.1682 4.1682,-4.1682 z"
       fill="#b8c4cb"
       id="path26" />
    <path
       d="m -0.34231,11.967 h -3.7513 v 3.8555 c 0,0.8337 -0.62521,1.4589 -1.4589,1.4589 h -3.3345 c -0.8337,0 -1.4589,-0.62521 -1.4589,-1.4589 V 11.967 h -3.7513 c -0.8337,0 -1.4589,-0.62521 -1.4589,-1.4589 V 7.1736 c 0,-0.8337 0.62521,-1.4589 1.4589,-1.4589 h 3.7513 V 1.9634 c 0,-0.8337 0.62521,-1.4589 1.4589,-1.4589 h 3.3345 c 0.8337,0 1.4589,0.62521 1.4589,1.4589 v 3.7513 h 3.7513 c 0.8337,0 1.4589,0.62521 1.4589,1.4589 v 3.3345 c 0,0.8337 -0.62521,1.4589 -1.4589,1.4589 z"
       fill="#323232"
       id="path27" />
    <path
       d="m 19.873,-1.5795 c 5.7314,0 10.421,4.6892 10.421,10.421 0,5.7314 -4.6892,10.421 -10.421,10.421 -5.7318,0 -10.421,-4.6892 -10.421,-10.421 2.646e-4,-5.7311 4.6895,-10.421 10.421,-10.421 z"
       fill="#191919"
       id="path28" />
    <path
       d="m 19.873,1.5468 c 4.064,0 7.2943,3.2303 7.2943,7.2943 0,4.064 -3.2303,7.2943 -7.2943,7.2943 -4.064,0 -7.2943,-3.2303 -7.2943,-7.2943 0,-3.9598 3.2303,-7.2943 7.2943,-7.2943 z"
       fill="#505050"
       id="path29" />
    <path
       d="m -25.977,-20.336 c 5.7314,0 10.421,4.6892 10.421,10.421 0,5.7314 -4.6892,10.421 -10.421,10.421 -5.7318,0 -10.421,-4.6892 -10.421,-10.421 0,-5.7314 4.6892,-10.421 10.421,-10.421 z"
       fill="#191919"
       id="path30" />
    <path
       d="m -25.977,-17.21 c 4.064,0 7.2943,3.2303 7.2943,7.2943 0,4.064 -3.2303,7.2943 -7.2943,7.2943 -4.064,0 -7.2943,-3.2303 -7.2943,-7.2943 0,-3.9598 3.2303,-7.2943 7.2943,-7.2943 z"
       fill="#505050"
       id="path31" />
    <path
       d="m 19.873,4.6728 c 2.2926,0 4.1682,1.8756 4.1682,4.1682 0,2.2926 -1.8756,4.1682 -4.1682,4.1682 -2.2926,0 -4.1682,-1.8756 -4.1682,-4.1682 0,-2.2926 1.8759,-4.1682 4.1682,-4.1682 z m -45.85,-18.757 c 2.2926,0 4.1682,1.8756 4.1682,4.1682 0,2.2926 -1.8756,4.1682 -4.1682,4.1682 -2.2926,0 -4.1682,-1.8756 -4.1682,-4.1682 0,-2.2926 1.8756,-4.1682 4.1682,-4.1682 z"
       fill="#323232"
       id="path32" />
  </g>
</svg>
