<?xml version="1.0" encoding="UTF-8" standalone="no"?>
<svg
   height="16"
   width="16"
   version="1.1"
   id="svg1"
   sodipodi:docname="applications-office-symbolic.svg"
   inkscape:version="1.4 (e7c3feb100, 2024-10-09)"
   xmlns:inkscape="http://www.inkscape.org/namespaces/inkscape"
   xmlns:sodipodi="http://sodipodi.sourceforge.net/DTD/sodipodi-0.dtd"
   xmlns="http://www.w3.org/2000/svg"
   xmlns:svg="http://www.w3.org/2000/svg">
  <defs
     id="defs1">
    <linearGradient
       id="linearGradient3008"
       x1="21.190001"
       x2="22.268999"
       y1="11.457"
       y2="8.7909002"
       gradientTransform="matrix(4.2311,0,0,4.2311,-87.735,-33.413)"
       gradientUnits="userSpaceOnUse">
      <stop
         stop-color="#b4327d"
         offset="0"
         id="stop1" />
      <stop
         stop-color="#b4191e"
         offset=".55628"
         id="stop2" />
      <stop
         stop-color="#820a05"
         offset="1"
         id="stop3" />
    </linearGradient>
    <linearGradient
       id="linearGradient3028"
       x1="21.608999"
       x2="22.791"
       y1="11.283"
       y2="11.837"
       gradientTransform="matrix(4.2311,0,0,4.2311,-87.735,-33.413)"
       gradientUnits="userSpaceOnUse">
      <stop
         stop-color="#eb233c"
         offset="0"
         id="stop4" />
      <stop
         stop-color="#910505"
         offset="1"
         id="stop5" />
    </linearGradient>
    <linearGradient
       id="linearGradient3018"
       x1="23.719999"
       x2="22.785999"
       y1="11.696"
       y2="8.4789"
       gradientTransform="matrix(4.2311,0,0,4.2311,-87.735,-33.413)"
       gradientUnits="userSpaceOnUse">
      <stop
         stop-color="#c72b0c"
         offset="0"
         id="stop6" />
      <stop
         stop-color="#cc3206"
         offset=".51348"
         id="stop7" />
      <stop
         stop-color="#e58102"
         offset="1"
         id="stop8" />
    </linearGradient>
  </defs>
  <sodipodi:namedview
     id="namedview1"
     pagecolor="#ffffff"
     bordercolor="#000000"
     borderopacity="0.25"
     inkscape:showpageshadow="2"
     inkscape:pageopacity="0.0"
     inkscape:pagecheckerboard="0"
     inkscape:deskcolor="#d1d1d1"
     inkscape:zoom="16.351844"
     inkscape:cx="-11.619484"
     inkscape:cy="5.1981904"
     inkscape:window-width="1920"
     inkscape:window-height="952"
     inkscape:window-x="0"
     inkscape:window-y="34"
     inkscape:window-maximized="1"
     inkscape:current-layer="svg1" />
  <path
     d="m -13.28871,1 a 0.83,0.83 0 0 0 -0.59,0.246 l -0.906,0.912 3.125,3.125 0.91,-0.906 c 0.33,-0.33 0.33,-0.85 0,-1.18 l -1.95,-1.95 A 0.83,0.83 0 0 0 -13.28971,1 Z m -2.555,2.22 -8.666,8.667 v 3.119 h 3.121 l 8.664,-8.664 z m -7.658,8.78 h 1 v 1 h 1 v 1 h -2 z"
     fill="#363636"
     id="path1" />
  <g
     transform="matrix(1.0308084,0,0,1.0308084,0.35368799,-1.9838014)"
     stroke-width="4.2311"
     id="g10">
    <path
       d="M 9.1228,4.8407 5.5004,6.2628 c 0,0 -0.9123,0.36226 -0.9123,0.79155 v 5.3265 c 0,0 0.026233,0.28335 -0.059362,0.35926 -0.085383,0.07591 -1.6887,1.1005 -1.6887,1.1005 0,0 -0.37449,0.10404 -0.58477,0 -0.21024,-0.10404 -0.43288,-0.29575 -0.43288,-0.49986 v -7.0181 c 0,0 -0.02454,-0.6812 0.17935,-0.85438 0.20406,-0.17313 5.0768,-2.9312 5.0768,-2.9312 0,0 0.40072,-0.23216 0.99624,-0.069939 0.56062,0.1527 1.2766,0.51183 1.0478,2.3736 z"
       fill="url(#linearGradient3008)"
       id="path8"
       style="fill:url(#linearGradient3008)" />
    <path
       d="M 9.0085,13.962 H 4.3856 c 0,0 -0.41105,-0.02623 -0.5772,0.27113 -0.16615,0.29736 -0.13992,0.64718 0.00888,0.75211 0.14868,0.10493 3.2184,1.8366 3.3408,1.8978 0.12245,0.06122 0.62967,0.18367 1.1238,-0.10933 0.79586,-0.33235 0.77695,-0.62967 0.72448,-1.6704 0,-0.78114 0.00719,-0.85979 0.00214,-1.1413 z"
       fill="url(#linearGradient3028)"
       id="path9"
       style="fill:url(#linearGradient3028)" />
    <path
       d="m 8.0481,2.462 c 0,0 0.93608,0.3259 0.93608,1.0408 0,0 -5.027e-4,7.6096 -5.027e-4,12.34 0,0.5238 -0.4718,0.8584 -1.1276,1.0945 l 4.2809997,-1.2944 c 0,0 0.87456,-0.22738 0.87456,-1.1019 V 5.118 c 0,0 0.0726,-0.98325 -0.57056,-1.2739 C 11.797907,3.55347 8.0479773,2.4619 8.0479773,2.4619 Z"
       fill="url(#linearGradient3018)"
       id="path10"
       style="fill:url(#linearGradient3018)" />
  </g>
</svg>
