<?xml version="1.0" encoding="UTF-8" standalone="no"?>
<svg
   width="16"
   height="16"
   version="1.1"
   id="svg1"
   sodipodi:docname="applications-graphics-symbolic.svg"
   inkscape:version="1.4 (e7c3feb100, 2024-10-09)"
   xmlns:inkscape="http://www.inkscape.org/namespaces/inkscape"
   xmlns:sodipodi="http://sodipodi.sourceforge.net/DTD/sodipodi-0.dtd"
   xmlns="http://www.w3.org/2000/svg"
   xmlns:svg="http://www.w3.org/2000/svg">
  <defs
     id="defs1">
    <linearGradient
       id="linear0"
       gradientUnits="userSpaceOnUse"
       x1="2.3059001"
       y1="1.7146"
       x2="29.694901"
       y2="29.104601"
       gradientTransform="scale(2)">
      <stop
         offset="0"
         style="stop-color:rgb(15.686275%,68.627451%,91.764706%);stop-opacity:1;"
         id="stop1" />
      <stop
         offset="1"
         style="stop-color:rgb(51.372549%,54.509804%,89.411765%);stop-opacity:1;"
         id="stop2" />
    </linearGradient>
  </defs>
  <sodipodi:namedview
     id="namedview1"
     pagecolor="#ffffff"
     bordercolor="#000000"
     borderopacity="0.25"
     inkscape:showpageshadow="2"
     inkscape:pageopacity="0.0"
     inkscape:pagecheckerboard="0"
     inkscape:deskcolor="#d1d1d1"
     inkscape:zoom="11.5625"
     inkscape:cx="-18.205405"
     inkscape:cy="8.4756757"
     inkscape:window-width="1920"
     inkscape:window-height="952"
     inkscape:window-x="0"
     inkscape:window-y="34"
     inkscape:window-maximized="1"
     inkscape:current-layer="svg1" />
  <path
     d="m -20.399108,0.0039062 c -1.0901,0.015676 -2.3517,0.20259 -3.459,0.78906 -1.1073,0.58647 -2.0743,1.7558 -2.0449,3.291 0.01477,0.77292 0.25319,1.4522 0.68555,1.9102 0.43235,0.45794 0.95666,0.64237 1.3633,0.75195 0.40662,0.10959 0.7364,0.16675 0.88281,0.2207 0.0078,0.00287 0.0038,-9.967e-4 0.0078,0 0.21535,-0.25989 0.43147,-0.51515 0.65039,-0.76562 -0.78799,-0.56379 -2.5525,-0.080216 -2.5918,-2.1367 -0.04429,-2.3123 2.5728,-3.0326 4.5195,-3.0605 0.13009,-0.00187 0.27963,-0.00467 0.40234,0 0.72721,0.024067 1.5526,0.2166 2.3262,0.56055 0.28382,-0.24332 0.5589,-0.46276 0.83789,-0.69141 -1.0114,-0.5333 -2.1088,-0.83531 -3.1309,-0.86914 -0.16622,-0.006073 -0.32413,-0.001798 -0.44922,0 z m 6.3281,0 c -1.8,1.299 -4.2053,3.302 -6.1133,5.334 a 23.02,23.02 0 0 0 -0.50586,0.54688 c -0.103,0.107 -0.21145,0.19464 -0.31445,0.30664 -0.065,0.077 -0.12741,0.16323 -0.19141,0.24023 -0.936,1.035 -1.8656,2.2041 -2.7109,3.3594 -0.33006,0.4510498 -0.63195,0.8924398 -0.93164,1.3300998 -0.31286,-0.15951 -0.70391,-0.18199 -1.1211,0.09375 -0.754,0.498 -0.59644,2.2842 -2.1484,2.2832 0.147,0.602 1.7356,0.59417 2.8086,0.32617 1.013,-0.253 1.3239,-1.1418 1.1309,-1.8848 -0.02676,-0.10285 -0.09474,-0.20557 -0.15625,-0.30859 1.9845,-1.6434998 3.3981,-3.0163998 4.3594,-4.0370998 0.24,-0.246 0.53056,-0.56683 0.85156,-0.92383 1.204,-1.335 2.925,-3.437 5.043,-6.666 z m -8.0488,1.9961 c -1.3356,-8.907e-4 -2.0042,1.6137 -1.0605,2.5586 0.94364,0.9449 2.5577,0.27696 2.5586,-1.0586 0,-0.829 -0.67105,-1.5 -1.498,-1.5 z m 7.5098,0.56445 c -0.19448,0.27577 -0.37441,0.52175 -0.56055,0.77734 1.103,1.2428 2.0862,3.0072 2.2383,4.9512 0.38377,4.8858998 -3.425,7.2932998 -7.0215,6.5878998 -2.2448,-0.4395 -2.5707,-1.6483 -2.9922,-3.0039 -0.009,-0.02909 -0.01197,-0.0587 -0.01953,-0.08789 -0.26726,0.22855 -0.53895,0.45718 -0.83008,0.69727 0.18337,0.59384 0.39224,1.2399 0.87695,1.8555 0.56837,0.72182 1.4904,1.2683 2.7734,1.5195 2.074,0.40624 4.2312,-0.07705 5.834,-1.4082 1.6033,-1.3316 2.5901,-3.525 2.377,-6.2382998 -0.17384,-2.2214 -1.07,-3.8514 -2.498,-5.4668 -0.05641,-0.063816 -0.12071,-0.12015 -0.17773,-0.18359 z m 0.10352,3.4375 c -1.3333,0 -1.3333,2 0,2 1.3333,0 1.3333,-2 0,-2 z m -0.625,3 c -1.3333,0 -1.3333,1.9999998 0,1.9999998 1.3333,0 1.3333,-1.9999998 0,-1.9999998 z m -4.9902,1.9999998 c -1.3333,0 -1.3333,2 0,2 1.2912,-0.04085 1.2912,-1.9592 0,-2 z m 2.9941,0 c -1.3333,0 -1.3333,2 0,2 1.2912,-0.04085 1.2912,-1.9592 0,-2 z"
     fill="#363636"
     id="path1" />
  <g
     id="surface1"
     transform="matrix(0.25,0,0,0.25,0,-1.720189e-5)">
    <path
       style="fill:url(#linear0);fill-rule:nonzero;stroke:none"
       d="M 57.203125,4 H 6.804688 C 5.257812,3.996094 4,5.25 4,6.796875 V 56 h 4 v 4 h 48 v -4 h 4 V 6.796875 C 60,6.054688 59.707031,5.34375 59.183594,4.816406 58.65625,4.292969 57.945312,4 57.203125,4 Z m 0,0"
       id="path2" />
    <path
       style="fill:#3f6bcc;fill-opacity:1;fill-rule:nonzero;stroke:none"
       d="m 42.789062,30 c -1.402343,0 -2.746093,0.546875 -3.75,1.523438 L 10,60 H 57.1875 C 58.726562,60.015625 59.984375,58.78125 60,57.242188 V 44.726562 L 46.539062,31.523438 C 45.535156,30.546875 44.191406,30 42.789062,30 Z m 0,0"
       id="path3" />
    <path
       style="fill:#113f7d;fill-opacity:1;fill-rule:nonzero;stroke:none"
       d="m 24.578125,24 c -0.988281,0 -1.9375,0.398438 -2.632813,1.101562 L 4,43.101562 V 57.1875 C 4,58.738281 5.253906,59.996094 6.804688,60 H 57.320312 C 58.558594,60 59.652344,59.179688 60,57.992188 L 27.21875,25.101562 C 26.519531,24.398438 25.570312,24 24.578125,24 Z m 0,0"
       id="path4" />
    <path
       style="fill:#ffffff;fill-opacity:1;fill-rule:nonzero;stroke:none"
       d="m 46,19 c 0,2.761719 -2.238281,5 -5,5 -2.761719,0 -5,-2.238281 -5,-5 0,-2.761719 2.238281,-5 5,-5 2.761719,0.0039 4.996094,2.238281 5,5 z m 0,0"
       id="path5" />
  </g>
</svg>
