<svg xmlns="http://www.w3.org/2000/svg" width="22" height="22" version="1.1">
 <defs>
  <style id="current-color-scheme" type="text/css">
   .ColorScheme-Text { color:#fbfbfb; } .ColorScheme-Highlight { color:#4285f4; }
  </style>
 </defs>
 <path style="fill:currentColor" class="ColorScheme-Text" d="M 18 2.5 L 2 4.625 L 2 5.0664062 L 2 16.375 L 12.726562 17.798828 A 4 4 0 0 0 12.826172 17.933594 A 4 4 0 0 0 12.910156 18.039062 A 4 4 0 0 0 12.988281 18.130859 A 4 4 0 0 0 13.039062 18.189453 A 4 4 0 0 0 13.042969 18.195312 A 4 4 0 0 0 13.158203 18.314453 A 4 4 0 0 0 13.271484 18.425781 A 4 4 0 0 0 13.306641 18.455078 A 4 4 0 0 0 13.398438 18.537109 A 4 4 0 0 0 13.404297 18.542969 A 4 4 0 0 0 13.507812 18.628906 A 4 4 0 0 0 13.613281 18.710938 A 4 4 0 0 0 13.654297 18.740234 A 4 4 0 0 0 13.667969 18.75 A 4 4 0 0 0 13.779297 18.826172 A 4 4 0 0 0 13.921875 18.917969 A 4 4 0 0 0 14.029297 18.980469 A 4 4 0 0 0 14.089844 19.013672 A 4 4 0 0 0 14.125 19.033203 A 4 4 0 0 0 14.228516 19.085938 A 4 4 0 0 0 14.308594 19.125 A 4 4 0 0 0 14.384766 19.160156 A 4 4 0 0 0 14.433594 19.179688 A 4 4 0 0 0 14.554688 19.228516 A 4 4 0 0 0 14.679688 19.275391 A 4 4 0 0 0 14.800781 19.314453 A 4 4 0 0 0 14.857422 19.332031 A 4 4 0 0 0 14.919922 19.349609 A 4 4 0 0 0 15.001953 19.373047 A 4 4 0 0 0 15.035156 19.380859 A 4 4 0 0 0 15.199219 19.417969 A 4 4 0 0 0 15.421875 19.457031 A 4 4 0 0 0 15.53125 19.472656 A 4 4 0 0 0 15.552734 19.474609 A 4 4 0 0 0 15.697266 19.488281 A 4 4 0 0 0 15.832031 19.496094 A 4 4 0 0 0 16 19.5 A 4 4 0 0 0 16.167969 19.496094 A 4 4 0 0 0 16.296875 19.488281 A 4 4 0 0 0 16.335938 19.486328 A 4 4 0 0 0 16.396484 19.480469 A 4 4 0 0 0 16.529297 19.464844 A 4 4 0 0 0 16.660156 19.445312 A 4 4 0 0 0 16.669922 19.443359 A 4 4 0 0 0 16.673828 19.443359 A 4 4 0 0 0 16.794922 19.419922 A 4 4 0 0 0 16.833984 19.412109 A 4 4 0 0 0 16.894531 19.398438 A 4 4 0 0 0 17.03125 19.363281 A 4 4 0 0 0 17.056641 19.357422 A 4 4 0 0 0 17.175781 19.322266 A 4 4 0 0 0 17.320312 19.275391 A 4 4 0 0 0 17.425781 19.236328 A 4 4 0 0 0 17.533203 19.193359 A 4 4 0 0 0 17.675781 19.132812 A 4 4 0 0 0 17.6875 19.126953 A 4 4 0 0 0 17.826172 19.058594 A 4 4 0 0 0 17.837891 19.052734 A 4 4 0 0 0 17.953125 18.990234 A 4 4 0 0 0 17.986328 18.972656 A 4 4 0 0 0 18.109375 18.898438 A 4 4 0 0 0 18.130859 18.884766 A 4 4 0 0 0 18.222656 18.824219 A 4 4 0 0 0 18.347656 18.738281 A 4 4 0 0 0 18.365234 18.726562 A 4 4 0 0 0 18.460938 18.652344 A 4 4 0 0 0 18.642578 18.501953 A 4 4 0 0 0 18.667969 18.480469 A 4 4 0 0 0 18.746094 18.408203 A 4 4 0 0 0 18.828125 18.328125 A 4 4 0 0 0 18.908203 18.246094 A 4 4 0 0 0 19.001953 18.142578 A 4 4 0 0 0 19.021484 18.121094 A 4 4 0 0 0 19.089844 18.039062 A 4 4 0 0 0 19.128906 17.992188 A 4 4 0 0 0 19.152344 17.960938 A 4 4 0 0 0 19.226562 17.865234 A 4 4 0 0 0 19.230469 17.859375 A 4 4 0 0 0 19.238281 17.847656 A 4 4 0 0 0 19.324219 17.722656 A 4 4 0 0 0 19.326172 17.720703 A 4 4 0 0 0 19.398438 17.609375 A 4 4 0 0 0 19.417969 17.578125 A 4 4 0 0 0 19.490234 17.453125 A 4 4 0 0 0 19.501953 17.433594 A 4 4 0 0 0 19.552734 17.337891 A 4 4 0 0 0 19.580078 17.285156 A 4 4 0 0 0 19.626953 17.1875 A 4 4 0 0 0 19.632812 17.175781 A 4 4 0 0 0 19.693359 17.033203 A 4 4 0 0 0 19.736328 16.925781 A 4 4 0 0 0 19.775391 16.820312 A 4 4 0 0 0 19.822266 16.675781 A 4 4 0 0 0 19.828125 16.660156 A 4 4 0 0 0 19.857422 16.556641 A 4 4 0 0 0 19.873047 16.498047 A 4 4 0 0 0 19.898438 16.394531 A 4 4 0 0 0 19.912109 16.333984 A 4 4 0 0 0 19.919922 16.294922 A 4 4 0 0 0 19.943359 16.173828 A 4 4 0 0 0 19.943359 16.169922 A 4 4 0 0 0 19.945312 16.160156 A 4 4 0 0 0 19.964844 16.029297 A 4 4 0 0 0 19.96875 16.003906 A 4 4 0 0 0 19.980469 15.896484 A 4 4 0 0 0 19.986328 15.835938 A 4 4 0 0 0 19.988281 15.796875 A 4 4 0 0 0 19.996094 15.667969 A 4 4 0 0 0 20 15.5 A 4 4 0 0 0 19.996094 15.332031 A 4 4 0 0 0 19.988281 15.203125 A 4 4 0 0 0 19.986328 15.164062 A 4 4 0 0 0 19.980469 15.103516 A 4 4 0 0 0 19.96875 14.996094 A 4 4 0 0 0 19.964844 14.970703 A 4 4 0 0 0 19.945312 14.839844 A 4 4 0 0 0 19.943359 14.830078 A 4 4 0 0 0 19.943359 14.826172 A 4 4 0 0 0 19.919922 14.705078 A 4 4 0 0 0 19.912109 14.666016 A 4 4 0 0 0 19.898438 14.605469 A 4 4 0 0 0 19.873047 14.501953 A 4 4 0 0 0 19.857422 14.443359 A 4 4 0 0 0 19.828125 14.339844 A 4 4 0 0 0 19.822266 14.324219 A 4 4 0 0 0 19.775391 14.179688 A 4 4 0 0 0 19.736328 14.074219 A 4 4 0 0 0 19.695312 13.970703 A 4 4 0 0 0 19.693359 13.966797 A 4 4 0 0 0 19.650391 13.867188 A 4 4 0 0 0 19.599609 13.755859 A 4 4 0 0 0 19.580078 13.714844 A 4 4 0 0 0 19.552734 13.662109 A 4 4 0 0 0 19.492188 13.550781 A 4 4 0 0 0 19.416016 13.421875 A 4 4 0 0 0 19.328125 13.28125 A 4 4 0 0 0 19.324219 13.277344 A 4 4 0 0 0 19.238281 13.152344 A 4 4 0 0 0 19.226562 13.136719 A 4 4 0 0 0 19.126953 13.007812 A 4 4 0 0 0 19.019531 12.878906 A 4 4 0 0 0 18.908203 12.753906 A 4 4 0 0 0 18.789062 12.634766 A 4 4 0 0 0 18.666016 12.519531 A 4 4 0 0 0 18.539062 12.410156 A 4 4 0 0 0 18.40625 12.306641 A 4 4 0 0 0 18.283203 12.216797 A 4 4 0 0 0 18.255859 12.199219 A 4 4 0 0 0 18.220703 12.173828 A 4 4 0 0 0 18.128906 12.115234 A 4 4 0 0 0 18 12.037109 A 4 4 0 0 0 18 12.035156 L 18 2.5 z M 17 3.6328125 L 17 11.626953 A 4 4 0 0 0 16.912109 11.605469 A 4 4 0 0 0 16.882812 11.599609 A 4 4 0 0 0 16.775391 11.576172 A 4 4 0 0 0 16.699219 11.5625 A 4 4 0 0 0 16.669922 11.556641 A 4 4 0 0 0 16.560547 11.541016 A 4 4 0 0 0 16.40625 11.521484 A 4 4 0 0 0 16.394531 11.519531 A 4 4 0 0 0 16.382812 11.519531 A 4 4 0 0 0 16.289062 11.511719 A 4 4 0 0 0 16.167969 11.503906 A 4 4 0 0 0 16 11.5 A 4 4 0 0 0 15.603516 11.519531 A 4 4 0 0 0 15.4375 11.539062 A 4 4 0 0 0 14.623047 11.744141 A 4 4 0 0 0 14.3125 11.873047 A 4 4 0 0 0 14.013672 12.027344 A 4 4 0 0 0 13.728516 12.207031 A 4 4 0 0 0 13.591797 12.304688 A 4 4 0 0 0 13.332031 12.519531 A 4 4 0 0 0 13.091797 12.753906 A 4 4 0 0 0 12.978516 12.876953 A 4 4 0 0 0 12.673828 13.279297 A 4 4 0 0 0 12.582031 13.419922 A 4 4 0 0 0 12.126953 14.501953 A 4 4 0 0 0 12.087891 14.664062 A 4 4 0 0 0 12 15.5 A 4 4 0 0 0 12.003906 15.667969 A 4 4 0 0 0 12.011719 15.796875 A 4 4 0 0 0 12.017578 15.875 A 4 4 0 0 0 12.023438 15.933594 A 4 4 0 0 0 12.035156 16.029297 A 4 4 0 0 0 12.054688 16.160156 A 4 4 0 0 0 12.056641 16.173828 A 4 4 0 0 0 12.080078 16.294922 A 4 4 0 0 0 12.095703 16.367188 A 4 4 0 0 0 12.113281 16.445312 A 4 4 0 0 0 12.136719 16.53125 A 4 4 0 0 0 12.158203 16.607422 A 4 4 0 0 0 12.179688 16.6875 A 4 4 0 0 0 12.191406 16.722656 L 3 15.492188 L 3 5.5078125 L 17 3.6328125 z M 9.0761719 6.5058594 C 8.8882009 6.4961594 8.6968004 6.4996581 8.5058594 6.5175781 C 6.9783344 6.6606141 5.6731176 7.6809293 5.1660156 9.1289062 A 0.50000008 0.50000008 0 0 0 5.4707031 9.7675781 A 0.50000008 0.50000008 0 0 0 6.109375 9.4589844 C 6.488102 8.3775684 7.4568304 7.6204979 8.5976562 7.5136719 C 9.5434673 7.4251119 10.45463 7.804264 11.066406 8.5 L 10.630859 8.5 C 10.353859 8.5 10.130859 8.723 10.130859 9 C 10.130859 9.277 10.353859 9.5 10.630859 9.5 L 12.5 9.5 C 12.777 9.5 13 9.277 13 9 L 13 7.1308594 C 13 6.8538644 12.776995 6.6308594 12.5 6.6308594 C 12.223005 6.6308594 12 6.8538644 12 7.1308594 L 12 8.0605469 C 11.300519 7.1372669 10.230463 6.5654804 9.0761719 6.5058594 z M 12.408203 11.220703 A 0.50000008 0.50000008 0 0 0 11.957031 11.550781 C 11.574049 12.628031 10.603416 13.384375 9.4648438 13.488281 C 8.5208987 13.574421 7.6136383 13.194917 7.0039062 12.5 L 7.3691406 12.5 C 7.6461406 12.5 7.8691406 12.277 7.8691406 12 C 7.8691406 11.723 7.6461406 11.5 7.3691406 11.5 L 5.5 11.5 C 5.223 11.5 5 11.723 5 12 L 5 13.869141 C 5 14.146136 5.223004 14.369141 5.5 14.369141 C 5.776995 14.369141 6 14.146136 6 13.869141 L 6 12.835938 C 6.803887 13.971049 8.1538226 14.612397 9.5566406 14.484375 C 11.081172 14.345245 12.387584 13.331093 12.900391 11.888672 A 0.50000008 0.50000008 0 0 0 12.595703 11.248047 A 0.50000008 0.50000008 0 0 0 12.408203 11.220703 z M 16 13 C 16.13807 13 16.263034 13.056002 16.353516 13.146484 C 16.444001 13.236967 16.5 13.36193 16.5 13.5 C 16.5 13.63807 16.443996 13.763036 16.353516 13.853516 C 16.263034 13.944001 16.13807 14 16 14 C 15.86193 14 15.736967 13.943999 15.646484 13.853516 C 15.556 13.763034 15.5 13.63807 15.5 13.5 C 15.5 13.36193 15.556004 13.236964 15.646484 13.146484 C 15.736967 13.056 15.86193 13 16 13 z M 16 15 C 16.277 15 16.5 15.223 16.5 15.5 L 16.5 17.5 C 16.5 17.777 16.277 18 16 18 C 15.723 18 15.5 17.777 15.5 17.5 L 15.5 15.5 C 15.5 15.223 15.723 15 16 15 z " />
  <path
     style="fill:#00a0ff;fill-opacity:1;stroke-width:1.33333"
     class="ColorScheme-Highlight"
     d="M 19,4 A 2,2 0 0 1 17,6 2,2 0 0 1 15,4 2,2 0 0 1 17,2 2,2 0 0 1 19,4 Z"
     id="path7" />
</svg>
