<?xml version="1.0" encoding="UTF-8" standalone="no"?>
<svg
   xmlns:dc="http://purl.org/dc/elements/1.1/"
   xmlns:cc="http://creativecommons.org/ns#"
   xmlns:rdf="http://www.w3.org/1999/02/22-rdf-syntax-ns#"
   xmlns:svg="http://www.w3.org/2000/svg"
   xmlns="http://www.w3.org/2000/svg"
   xmlns:xlink="http://www.w3.org/1999/xlink"
   xmlns:sodipodi="http://sodipodi.sourceforge.net/DTD/sodipodi-0.dtd"
   xmlns:inkscape="http://www.inkscape.org/namespaces/inkscape"
   width="22"
   height="22"
   version="1.1"
   id="svg11"
   sodipodi:docname="weather-windy.svg"
   inkscape:version="0.92.5 (2060ec1f9f, 2020-04-08)">
  <metadata
     id="metadata15">
    <rdf:RDF>
      <cc:Work
         rdf:about="">
        <dc:format>image/svg+xml</dc:format>
        <dc:type
           rdf:resource="http://purl.org/dc/dcmitype/StillImage" />
      </cc:Work>
    </rdf:RDF>
  </metadata>
  <sodipodi:namedview
     pagecolor="#ffffff"
     bordercolor="#666666"
     borderopacity="1"
     objecttolerance="10"
     gridtolerance="10"
     guidetolerance="10"
     inkscape:pageopacity="0"
     inkscape:pageshadow="2"
     inkscape:window-width="1920"
     inkscape:window-height="971"
     id="namedview13"
     showgrid="false"
     inkscape:zoom="10.727273"
     inkscape:cx="11"
     inkscape:cy="11"
     inkscape:window-x="0"
     inkscape:window-y="38"
     inkscape:window-maximized="1"
     inkscape:current-layer="svg11" />
  <defs
     id="defs3">
    <style
       id="current-color-scheme"
       type="text/css">
   .ColorScheme-Text { color:#dfdfdf; } .ColorScheme-Highlight { color:#4285f4; }
  </style>
    <linearGradient
       gradientTransform="translate(3.00002,2.9999999)"
       inkscape:collect="always"
       xlink:href="#linearGradient992"
       id="linearGradient890"
       x1="-3.9903614e-05"
       y1="8"
       x2="16"
       y2="8"
       gradientUnits="userSpaceOnUse" />
    <linearGradient
       gradientUnits="userSpaceOnUse"
       gradientTransform="matrix(0.85495515,0,0,0.85495515,-2.1299959,2.6174204)"
       y2="9.1260004"
       y1="9.1260004"
       x2="20.621"
       x1="13.152"
       id="linearGradient992">
      <stop
         id="stop818"
         offset="0"
         stop-color="#fafafa" />
      <stop
         id="stop820"
         offset="1"
         stop-color="#d4d4d4" />
    </linearGradient>
  </defs>
  <path
     inkscape:connector-curvature="0"
     style="color:#dfdfdf;fill:url(#linearGradient890);fill-opacity:1"
     class="ColorScheme-Text"
     d="m 11.02082,2.9999999 a 0.99921,1.0001 0 1 0 0,2 c 0,0 0.2854,0.013 0.5425,0.1426 0.2571,0.1295 0.4429,0.1884 0.4429,0.8574 0,0.669 -0.1858,0.7279 -0.4429,0.8574 -0.2571,0.1296 -0.5425,0.1426 -0.5425,0.1426 h -7.0075 a 0.99921,1.0001 0 1 0 0,2.0000002 h 7.0075 c 0,0 0.707,0.013 1.4421,-0.3574 0.7351,-0.3705002 1.5411,-1.3116002 1.5411,-2.6426002 0,-1.331 -0.806,-2.27215 -1.5411,-2.64258 -0.7351,-0.37043 -1.4421,-0.35742 -1.4421,-0.35742 z m 4.9952,3 a 0.99921,1.0001 0 1 0 0,2 c 0,0 0.286,0.013 0.543,0.1426 0.257,0.1295 0.443,0.1884 0.443,0.8574002 0,0.669 -0.186,0.7279 -0.443,0.8574 C 16.30202,9.9870001 16.01602,10 16.01602,10 h -7.9926 a 0.99921,1.0001 0 1 0 0,2 h 7.9926 c 0,0 0.707,0.013 1.442,-0.3574 0.735,-0.3705 1.542,-1.3116 1.542,-2.6425999 0,-1.3310002 -0.807,-2.2721002 -1.542,-2.6426002 -0.735,-0.3704 -1.442,-0.3574 -1.442,-0.3574 z M 4.01332,13 a 0.99921,1.0001 0 1 0 0,2 h 7.0075 c 0,0 0.2854,0.013 0.5425,0.143 0.2571,0.129 0.4429,0.188 0.4429,0.857 0,0.669 -0.1858,0.728 -0.4429,0.857 -0.2571,0.13 -0.5425,0.143 -0.5425,0.143 a 0.99921,1.0001 0 1 0 0,2 c 0,0 0.707,0.013 1.4421,-0.357 0.7351,-0.371 1.5411,-1.312 1.5411,-2.643 0,-1.331 -0.806,-2.272 -1.5411,-2.643 C 11.72782,12.987 11.02082,13 11.02082,13 Z"
     id="path5" />
</svg>
