<?xml version="1.0" encoding="UTF-8" standalone="no"?>
<svg
   xmlns:dc="http://purl.org/dc/elements/1.1/"
   xmlns:cc="http://creativecommons.org/ns#"
   xmlns:rdf="http://www.w3.org/1999/02/22-rdf-syntax-ns#"
   xmlns:svg="http://www.w3.org/2000/svg"
   xmlns="http://www.w3.org/2000/svg"
   xmlns:sodipodi="http://sodipodi.sourceforge.net/DTD/sodipodi-0.dtd"
   xmlns:inkscape="http://www.inkscape.org/namespaces/inkscape"
   width="22"
   height="22"
   version="1.1"
   id="svg9"
   sodipodi:docname="weather-clear.svg"
   inkscape:version="0.92.5 (2060ec1f9f, 2020-04-08)">
  <metadata
     id="metadata13">
    <rdf:RDF>
      <cc:Work
         rdf:about="">
        <dc:format>image/svg+xml</dc:format>
        <dc:type
           rdf:resource="http://purl.org/dc/dcmitype/StillImage" />
      </cc:Work>
    </rdf:RDF>
  </metadata>
  <sodipodi:namedview
     pagecolor="#ffffff"
     bordercolor="#666666"
     borderopacity="1"
     objecttolerance="10"
     gridtolerance="10"
     guidetolerance="10"
     inkscape:pageopacity="0"
     inkscape:pageshadow="2"
     inkscape:window-width="1920"
     inkscape:window-height="971"
     id="namedview11"
     showgrid="false"
     inkscape:zoom="10.727273"
     inkscape:cx="11"
     inkscape:cy="11"
     inkscape:window-x="0"
     inkscape:window-y="38"
     inkscape:window-maximized="1"
     inkscape:current-layer="svg9" />
  <defs
     id="defs3">
    <style
       id="current-color-scheme"
       type="text/css">
   .ColorScheme-Text { color:#dfdfdf; } .ColorScheme-Highlight { color:#4285f4; }
  </style>
    <linearGradient
       gradientTransform="matrix(0.85494046,0,0,0.85494046,1.280425,5.6175126)"
       id="linearGradient885"
       x1="5.9587002"
       x2="16.556"
       y1="1.0462"
       y2="11.644"
       gradientUnits="userSpaceOnUse">
      <stop
         stop-color="#ffcd00"
         offset="0"
         id="stop826" />
      <stop
         stop-color="#e16405"
         offset="1"
         id="stop828" />
    </linearGradient>
  </defs>
  <path
     id="path851"
     d="m 17.785907,10.999876 c 0,0.813501 -0.143195,1.593438 -0.405788,2.316376 -0.18253,0.502432 -0.422667,0.977454 -0.712953,1.416806 -0.121589,0.184735 -0.252327,0.363136 -0.391093,0.534578 -0.444269,0.548692 -0.972238,1.026527 -1.564883,1.414328 -0.218266,0.14292 -0.445116,0.273666 -0.679976,0.39081 -0.912052,0.456436 -1.941656,0.713192 -3.031278,0.713192 -1.089621,0 -2.119226,-0.256756 -3.031277,-0.713209 C 7.733773,16.955587 7.506649,16.824858 7.288392,16.681947 6.688172,16.288913 6.153886,15.803581 5.706068,15.245818 5.567037,15.072983 5.436565,14.892941 5.314975,14.706547 5.032452,14.27447 4.79842,13.808262 4.619498,13.315559 4.356946,12.592904 4.214,11.813258 4.214,11.000038 c 0,-3.747802 3.038202,-6.7860041 6.786005,-6.7860041 1.881296,0 3.583569,0.7655736 4.812803,2.0019286 0.354244,0.3561768 0.669187,0.7517321 0.937271,1.1793905 0.253439,0.4027367 0.465318,0.8342509 0.630116,1.2882242 0.26262,0.722921 0.405805,1.5028998 0.405805,2.3163758 z"
     inkscape:connector-curvature="0"
     style="fill:url(#linearGradient885);stroke-width:0.02650829" />
</svg>
