<?xml version="1.0" encoding="UTF-8"?>
<svg width="64" height="64" version="1.1" viewBox="0 0 16.933 16.933" xmlns="http://www.w3.org/2000/svg" xmlns:cc="http://creativecommons.org/ns#" xmlns:dc="http://purl.org/dc/elements/1.1/" xmlns:rdf="http://www.w3.org/1999/02/22-rdf-syntax-ns#" xmlns:xlink="http://www.w3.org/1999/xlink">
 <defs>
  <style type="text/css"/>
  <linearGradient id="linearGradient1115" x1="-18.391" x2="-1.1101" y1="14.596" y2="3.9203" gradientTransform="translate(19.01 .46327)" gradientUnits="userSpaceOnUse">
   <stop stop-color="#0078e1" offset="0"/>
   <stop stop-color="#00b9ff" offset="1"/>
  </linearGradient>
 </defs>
 <metadata>
  <rdf:RDF>
   <cc:Work rdf:about="">
    <dc:format>image/svg+xml</dc:format>
    <dc:type rdf:resource="http://purl.org/dc/dcmitype/StillImage"/>
    <dc:title/>
   </cc:Work>
  </rdf:RDF>
 </metadata>
 <g transform="translate(20.337 .46327)">
  <path d="m-19.014 3.77c-0.21986 0-0.41824 0.088556-0.56171 0.23202-0.14347 0.14347-0.23202 0.34185-0.23202 0.56171v9.2608c0 0.21986 0.08856 0.41824 0.23202 0.56171 0.14347 0.14347 0.34185 0.23202 0.56171 0.23202h14.287c0.21986 0 0.41824-0.08856 0.56171-0.23202 0.14347-0.14347 0.23202-0.34185 0.23202-0.56171v-9.2608c0-0.21986-0.08855-0.41825-0.23202-0.56171-0.14347-0.14347-0.34185-0.23202-0.56171-0.23202z" fill="#0079e1"/>
  <path d="m-19.146 2.3148c-0.18265 0-0.34796 0.081238-0.46766 0.2129-0.1197 0.13166-0.19378 0.31377-0.19378 0.51469v4.0017h7.9373v-3.2742l-1.6536-1.4552z" fill="#0078e1"/>
 </g>
 <g fill="#5e4aa6" stroke-width=".26458">
  <circle cx="-330.35" cy="-328.38" r="0"/>
  <circle cx="-312.11" cy="-326.25" r="0"/>
  <circle cx="-306.02" cy="-333.07" r="0"/>
  <circle cx="-308.84" cy="-326.01" r="0"/>
  <circle cx="-328.8" cy="-330.45" r="0"/>
  <g transform="translate(24.108 -4.592)">
   <circle cx="-330.35" cy="-328.38" r="0"/>
   <circle cx="-312.11" cy="-326.25" r="0"/>
   <circle cx="-306.02" cy="-333.07" r="0"/>
   <circle cx="-308.84" cy="-326.01" r="0"/>
   <circle cx="-328.8" cy="-330.45" r="0"/>
  </g>
  <g transform="translate(2.3479 -14.944)">
   <circle cx="-330.35" cy="-328.38" r="0"/>
   <circle cx="-312.11" cy="-326.25" r="0"/>
   <circle cx="-306.02" cy="-333.07" r="0"/>
   <circle cx="-308.84" cy="-326.01" r="0"/>
   <circle cx="-328.8" cy="-330.45" r="0"/>
  </g>
  <g transform="translate(.000295 -.00036978)">
   <circle cx="-330.35" cy="-328.38" r="0"/>
   <circle cx="-312.11" cy="-326.25" r="0"/>
   <circle cx="-306.02" cy="-333.07" r="0"/>
   <circle cx="-308.84" cy="-326.01" r="0"/>
   <circle cx="-328.8" cy="-330.45" r="0"/>
  </g>
 </g>
 <rect x=".9734" y="4.6964" width="14.987" height="9.9217" ry=".29919" fill="#fffffc"/>
 <rect x="2.1165" y="7.4919" width="12.7" height=".26458" ry=".13229" fill="#dcdcdc" stroke-width=".89442"/>
 <rect x="2.1165" y="9.1018" width="12.7" height=".26458" ry=".13229" fill="#dcdcdc" stroke-width=".89442"/>
 <path d="m8.4662 10.152-1.6536 1.4552h-5.6223c-0.18266 0-0.34797 0.08175-0.46766 0.21342-0.1197 0.13167-0.19378 0.31325-0.19378 0.51417v2.0179c0 0.20092 0.07409 0.38302 0.19378 0.51469 0.1197 0.13167 0.28501 0.2129 0.46766 0.2129h14.552c0.18266 0 0.34796-0.08123 0.46766-0.2129 0.1197-0.13167 0.19378-0.31377 0.19378-0.51469v-3.4731c0-0.20092-0.07408-0.38302-0.19378-0.51469-0.1197-0.13167-0.28501-0.2129-0.46766-0.2129h-5.17e-4z" fill="url(#linearGradient1115)" stroke-linecap="round" stroke-width=".027516"/>
</svg>
