<?xml version="1.0" encoding="UTF-8"?>
<svg width="64" height="64" version="1.1" viewBox="0 0 16.933 16.933" xmlns="http://www.w3.org/2000/svg" xmlns:cc="http://creativecommons.org/ns#" xmlns:dc="http://purl.org/dc/elements/1.1/" xmlns:rdf="http://www.w3.org/1999/02/22-rdf-syntax-ns#" xmlns:xlink="http://www.w3.org/1999/xlink">
 <defs>
  <style type="text/css"/>
  <linearGradient id="linearGradient1777" x1=".52969" x2="16.774" y1="15.081" y2="2.5022" gradientTransform="translate(-22.241 -.46327)" gradientUnits="userSpaceOnUse">
   <stop stop-color="#0078e1" offset="0"/>
   <stop stop-color="#05b9ff" offset="1"/>
  </linearGradient>
 </defs>
 <metadata>
  <rdf:RDF>
   <cc:Work rdf:about="">
    <dc:format>image/svg+xml</dc:format>
    <dc:type rdf:resource="http://purl.org/dc/dcmitype/StillImage"/>
    <dc:title/>
   </cc:Work>
  </rdf:RDF>
 </metadata>
 <g transform="translate(22.241 .46327)">
  <path d="m-20.918 3.77c-0.21986 0-0.41824 0.088556-0.56171 0.23202-0.14347 0.14347-0.23202 0.34185-0.23202 0.56171v9.2608c0 0.21986 0.08856 0.41824 0.23202 0.56171 0.14347 0.14347 0.34185 0.23202 0.56171 0.23202h14.287c0.21986 0 0.41824-0.08856 0.56171-0.23202 0.14347-0.14347 0.23202-0.34185 0.23202-0.56171v-9.2608c0-0.21986-0.08855-0.41825-0.23202-0.56171-0.14347-0.14347-0.34185-0.23202-0.56171-0.23202z" fill="#0079e1"/>
  <path d="m-21.051 2.3148c-0.18265 0-0.34796 0.081238-0.46766 0.2129-0.1197 0.13166-0.19378 0.31377-0.19378 0.51469v4.0017h7.9373v-3.2742l-1.6536-1.4552z" fill="#0078e1"/>
  <rect x="-21.268" y="4.233" width="14.987" height="9.9217" ry=".29919" fill="#fffffc"/>
  <path d="m-13.775 3.77-1.6536 1.4552h-5.6223c-0.18265 0-0.34796 0.081235-0.46766 0.2129-0.1197 0.13167-0.19378 0.31377-0.19378 0.51469v7.9373c0 0.20092 0.07409 0.3825 0.19378 0.51417 0.1197 0.13167 0.28501 0.21342 0.46766 0.21342h14.552c0.18266 0 0.34796-0.08175 0.46766-0.21342 0.1197-0.13167 0.19378-0.31325 0.19378-0.51417v-9.3925c0-0.20092-0.07409-0.38302-0.19378-0.51469-0.1197-0.13167-0.28501-0.2129-0.46766-0.2129h-5.16e-4z" fill="url(#linearGradient1777)"/>
 </g>
 <g fill="#5e4aa6" stroke-width=".26458">
  <circle cx="-330.35" cy="-328.38" r="0"/>
  <circle cx="-312.11" cy="-326.25" r="0"/>
  <circle cx="-306.02" cy="-333.07" r="0"/>
  <circle cx="-308.84" cy="-326.01" r="0"/>
  <circle cx="-328.8" cy="-330.45" r="0"/>
 </g>
 <g transform="translate(.000295 -.00033978)" fill="#5e4aa6" stroke-width=".26458">
  <circle cx="-330.35" cy="-328.38" r="0"/>
  <circle cx="-312.11" cy="-326.25" r="0"/>
  <circle cx="-306.02" cy="-333.07" r="0"/>
  <circle cx="-308.84" cy="-326.01" r="0"/>
  <circle cx="-328.8" cy="-330.45" r="0"/>
 </g>
 <path d="m10.421 7.9376c-0.02236-0.00111-0.04522 8.969e-4 -0.0677 0.00568l-2.6458 0.54828c-0.14772 0.03089-0.25476 0.18103-0.25476 0.35708v3.0938c-0.1309-0.13096-0.30019-0.21084-0.48523-0.21084-0.4132 0-0.74981 0.39553-0.74981 0.88107s0.33661 0.88055 0.74981 0.88055c0.4132 0 0.74929-0.39501 0.74929-0.88055v-2.7714l2.7341-0.56688v2.0458c-0.1309-0.13096-0.30018-0.21084-0.48523-0.21084-0.41319 0-0.74929 0.39553-0.74929 0.88107s0.33609 0.88055 0.74929 0.88055c0.4132 0 0.74981-0.39501 0.74981-0.88055v-3.6907c0-0.10735-0.04031-0.20832-0.11059-0.2775-0.05244-0.051892-0.11689-0.081418-0.18396-0.084748zm-0.0217 0.31109c0.01787-0.0031 0.02987 0.00575 0.03566 0.011885 0.0058 0.0056 0.0155 0.01878 0.0155 0.03979v0.65886l-2.7336 0.56636v-0.67695c0-0.02533 0.015153-0.046839 0.036173-0.051159zm-0.43356 3.1718c0.26757 0 0.48523 0.25555 0.48523 0.56998s-0.21765 0.56998-0.48523 0.56998c-0.26758 0-0.48523-0.25555-0.48523-0.56998s0.21766-0.56998 0.48523-0.56998zm-2.9982 0.62114c0.26758 0 0.48523 0.25607 0.48523 0.5705s-0.21766 0.56998-0.48523 0.56998c-0.26758 0-0.48523-0.25555-0.48523-0.56998s0.21765-0.5705 0.48523-0.5705z" fill="#0050b4"/>
</svg>
