<?xml version="1.0" encoding="UTF-8"?>
<svg width="64" height="64" version="1.1" viewBox="0 0 16.933 16.933" xmlns="http://www.w3.org/2000/svg" xmlns:cc="http://creativecommons.org/ns#" xmlns:dc="http://purl.org/dc/elements/1.1/" xmlns:rdf="http://www.w3.org/1999/02/22-rdf-syntax-ns#" xmlns:xlink="http://www.w3.org/1999/xlink">
 <defs>
  <linearGradient id="linearGradient1777" x1=".52969" x2="16.774" y1="15.081" y2="2.5022" gradientTransform="translate(-20.019 -.46327)" gradientUnits="userSpaceOnUse">
   <stop stop-color="#0078e1" offset="0"/>
   <stop stop-color="#05b9ff" offset="1"/>
  </linearGradient>
 </defs>
 <metadata>
  <rdf:RDF>
   <cc:Work rdf:about="">
    <dc:format>image/svg+xml</dc:format>
    <dc:type rdf:resource="http://purl.org/dc/dcmitype/StillImage"/>
    <dc:title/>
   </cc:Work>
  </rdf:RDF>
 </metadata>
 <g transform="translate(20.019 .46327)">
  <path d="m-18.695 3.77c-0.21986 0-0.41824 0.088556-0.56171 0.23202-0.14347 0.14347-0.23202 0.34185-0.23202 0.56171v9.2608c0 0.21986 0.08856 0.41824 0.23202 0.56171 0.14347 0.14347 0.34185 0.23202 0.56171 0.23202h14.287c0.21986 0 0.41824-0.08856 0.56171-0.23202 0.14347-0.14347 0.23202-0.34185 0.23202-0.56171v-9.2608c0-0.21986-0.08855-0.41825-0.23202-0.56171-0.14347-0.14347-0.34185-0.23202-0.56171-0.23202z" fill="#0079e1"/>
  <path d="m-18.828 2.3148c-0.18265 0-0.34796 0.081238-0.46766 0.2129-0.1197 0.13166-0.19378 0.31377-0.19378 0.51469v4.0017h7.9373v-3.2742l-1.6536-1.4552z" fill="#0078e1"/>
  <rect x="-19.045" y="4.233" width="14.987" height="9.9217" ry=".29919" fill="#fffffc"/>
  <path d="m-11.552 3.77-1.6536 1.4552h-5.6223c-0.18265 0-0.34796 0.081235-0.46766 0.2129-0.1197 0.13167-0.19378 0.31377-0.19378 0.51469v7.9373c0 0.20092 0.07409 0.3825 0.19378 0.51417 0.1197 0.13167 0.28501 0.21342 0.46766 0.21342h14.552c0.18266 0 0.34796-0.08175 0.46766-0.21342 0.1197-0.13167 0.19378-0.31325 0.19378-0.51417v-9.3925c0-0.20092-0.07409-0.38302-0.19378-0.51469-0.1197-0.13167-0.28501-0.2129-0.46766-0.2129h-5.16e-4z" fill="url(#linearGradient1777)"/>
 </g>
 <g fill="#5e4aa6" stroke-width=".26458">
  <circle cx="-330.35" cy="-328.38" r="0"/>
  <circle cx="-312.11" cy="-326.25" r="0"/>
  <circle cx="-306.02" cy="-333.07" r="0"/>
  <circle cx="-308.84" cy="-326.01" r="0"/>
  <circle cx="-328.8" cy="-330.45" r="0"/>
 </g>
 <g transform="translate(.000295 -.00032978)" fill="#5e4aa6" stroke-width=".26458">
  <circle cx="-330.35" cy="-328.38" r="0"/>
  <circle cx="-312.11" cy="-326.25" r="0"/>
  <circle cx="-306.02" cy="-333.07" r="0"/>
  <circle cx="-308.84" cy="-326.01" r="0"/>
  <circle cx="-328.8" cy="-330.45" r="0"/>
 </g>
 <path d="m9.3925 8.4657a0.79374 0.79374 0 0 0-0.79373 0.79373 0.79374 0.79374 0 0 0 0.079063 0.34571l-1.6355 0.94411a0.79374 0.79374 0 0 0-0.56016-0.2315 0.79374 0.79374 0 0 0-0.79373 0.79373 0.79374 0.79374 0 0 0 0.79373 0.79373 0.79374 0.79374 0 0 0 0.71777-0.45526l2.4597 0.65834a0.79374 0.79374 0 0 0-0.00258 0.06149 0.79374 0.79374 0 0 0 0.79373 0.79374 0.79374 0.79374 0 0 0 0.79373-0.79374 0.79374 0.79374 0 0 0-0.79373-0.79373 0.79374 0.79374 0 0 0-0.72707 0.47593l-2.4525-0.65731a0.79374 0.79374 0 0 0 0.00465-0.0832 0.79374 0.79374 0 0 0-0.079063-0.34519l1.6355-0.94462a0.79374 0.79374 0 0 0 0.56016 0.23151 0.79374 0.79374 0 0 0 0.79373-0.79373 0.79374 0.79374 0 0 0-0.79373-0.79373zm-0.012919 0.26458a0.52916 0.52916 0 0 1 0.012919 0 0.52916 0.52916 0 0 1 0.52916 0.52916 0.52916 0.52916 0 0 1-0.52916 0.52916 0.52916 0.52916 0 0 1-0.52916-0.52916 0.52916 0.52916 0 0 1 0.51624-0.52916zm-2.9104 1.852a0.52916 0.52916 0 0 1 0.012919 0 0.52916 0.52916 0 0 1 0.52916 0.52916 0.52916 0.52916 0 0 1-0.52916 0.52916 0.52916 0.52916 0 0 1-0.52916-0.52916 0.52916 0.52916 0 0 1 0.51624-0.52916zm3.9687 1.0583a0.52916 0.52916 0 0 1 0.01292 0 0.52916 0.52916 0 0 1 0.52916 0.52916 0.52916 0.52916 0 0 1-0.52916 0.52916 0.52916 0.52916 0 0 1-0.52916-0.52916 0.52916 0.52916 0 0 1 0.51624-0.52916z" fill="#0050b4" stroke-width=".26458"/>
</svg>
