<?xml version="1.0" encoding="UTF-8" standalone="no"?>
<svg
   version="1.1"
   viewBox="0 0 16 16"
   id="svg2"
   sodipodi:docname="audio-on.svg"
   inkscape:version="1.3.2 (091e20ef0f, 2023-11-25, custom)"
   xmlns:inkscape="http://www.inkscape.org/namespaces/inkscape"
   xmlns:sodipodi="http://sodipodi.sourceforge.net/DTD/sodipodi-0.dtd"
   xmlns="http://www.w3.org/2000/svg"
   xmlns:svg="http://www.w3.org/2000/svg">
  <sodipodi:namedview
     id="namedview2"
     pagecolor="#c8c8c8"
     bordercolor="#000000"
     borderopacity="0.25"
     inkscape:showpageshadow="2"
     inkscape:pageopacity="0.0"
     inkscape:pagecheckerboard="0"
     inkscape:deskcolor="#d1d1d1"
     inkscape:zoom="16.506524"
     inkscape:cx="-6.5428676"
     inkscape:cy="4.513367"
     inkscape:window-width="1920"
     inkscape:window-height="954"
     inkscape:window-x="0"
     inkscape:window-y="34"
     inkscape:window-maximized="1"
     inkscape:current-layer="svg2" />
  <defs
     id="defs1">
    <style
       id="current-color-scheme"
       type="text/css">.ColorScheme-Text {
        color:#f2f2f2;
      }
      .ColorScheme-PositiveText {
        color:#27ae60;
      }</style>
  </defs>
  <g
     id="g5"
     transform="translate(0.04553)">
    <path
       id="path1277"
       d="m 13.68434,2.91298 c -0.58741,-0.53488 -1.1988,0.22518 -0.68359,0.73242 1.2147,1.1326 1.9056,2.7181 1.9082,4.3789 -0.002,1.6654 -0.69594,3.2551 -1.916,4.3887 -0.46835,0.44623 0.17346,1.1467 0.67969,0.72852 1.423,-1.3216 2.233,-3.1751 2.2363,-5.1172 -0.002,-1.9383 -0.80739,-3.789 -2.2246,-5.1113 z"
       style="color:#363636;fill:#27ae60;fill-opacity:1" />
    <path
       id="path1279"
       d="M 10.41085,4.36602 C 9.8899,3.87233 9.25575,4.58605 9.72726,5.09649 c 0.81045,0.75501 1.2715,1.8123 1.2734,2.9199 -10e-4,1.1103 -0.46396,2.1701 -1.2773,2.9258 -0.47259,0.42993 0.13957,1.1522 0.67969,0.73047 1.0168,-0.94425 1.5955,-2.2686 1.5977,-3.6562 -0.002,-1.3844 -0.57738,-2.7062 -1.5898,-3.6504 z"
       style="color:#363636;fill:#27ae60;fill-opacity:1" />
    <path
       class="ColorScheme-Text" fill="currentColor"
       d="M 7.38672,1.49968 C 7.19958,1.48818 6.82681,1.6393 6.69531,1.75749 L 4.0918,4.99968 H 1.63672 C 0.73018,4.99968 0,5.75496 0,6.74968 v 2.49985 c 0,0.99472 0.73018,1.75 1.63672,1.75 H 4.0918 l 2.78515,3.33398 c 0.13148,0.11821 0.32268,0.17756 0.50977,0.16602 C 7.69852,14.48023 8,14.26203 8,13.78468 V 2.21452 C 8,1.73717 7.69863,1.519 7.38672,1.49968 Z M 7,2.95206 v 0.22461 9.58018 0.27344 L 4.51337,9.99953 H 1.83398 c -0.0571,0 -0.11419,-0.007 -0.16796,-0.0176 -6.3e-4,-1.3e-4 -0.001,1.3e-4 -0.002,0 -0.0537,-0.0109 -0.10491,-0.0262 -0.15429,-0.0469 -5.3e-4,-2.3e-4 -0.001,2.2e-4 -0.002,0 C 1.45783,9.91403 1.41143,9.88683 1.36711,9.85693 1.32281,9.82703 1.28171,9.79303 1.24406,9.75537 1.20636,9.71767 1.17236,9.67667 1.1425,9.63232 1.1126,9.58802 1.0854,9.54162 1.0644,9.4917 c -2.3e-4,-5.6e-4 2.4e-4,-10e-4 0,-0.002 C 1.0437,9.4403 1.0285,9.38915 1.0175,9.33541 c -1.3e-4,-6.2e-4 1.2e-4,-10e-4 0,-0.002 -0.006,-0.0272 -0.0108,-0.0539 -0.0137,-0.082 -0.003,-0.0281 -0.004,-0.0571 -0.004,-0.0859 V 6.83363 c 0,-0.057 0.007,-0.11419 0.0176,-0.16797 1.2e-4,-6.2e-4 -1.3e-4,-0.001 0,-0.002 0.0109,-0.0537 0.0262,-0.10491 0.0469,-0.1543 2.2e-4,-5.2e-4 -2.2e-4,-0.001 0,-0.002 0.021,-0.0499 0.0482,-0.0963 0.0781,-0.14062 0.0299,-0.0443 0.0639,-0.0854 0.10156,-0.12305 0.0377,-0.0377 0.0787,-0.0717 0.12305,-0.10156 0.0443,-0.0299 0.0907,-0.0571 0.14062,-0.0781 5.6e-4,-2.3e-4 10e-4,2.3e-4 0.002,0 0.0494,-0.0207 0.10055,-0.0359 0.15429,-0.0469 0.0543,-0.0111 0.11222,-0.0176 0.16992,-0.0176 h 2.67939 z"
       sodipodi:nodetypes="cccsssscccssccccccscccccccccsccssscscccccccscc" />
  </g>
</svg>
