<?xml version="1.0" encoding="UTF-8" standalone="no"?>
<svg
   version="1.1"
   viewBox="0 0 32 32"
   id="svg4"
   sodipodi:docname="audio-volume-medium.svg"
   inkscape:version="1.3.2 (091e20ef0f, 2023-11-25, custom)"
   xmlns:inkscape="http://www.inkscape.org/namespaces/inkscape"
   xmlns:sodipodi="http://sodipodi.sourceforge.net/DTD/sodipodi-0.dtd"
   xmlns="http://www.w3.org/2000/svg"
   xmlns:svg="http://www.w3.org/2000/svg">
  <sodipodi:namedview
     id="namedview4"
     pagecolor="#c8c8c8"
     bordercolor="#000000"
     borderopacity="0.25"
     inkscape:showpageshadow="2"
     inkscape:pageopacity="0.0"
     inkscape:pagecheckerboard="0"
     inkscape:deskcolor="#d1d1d1"
     inkscape:zoom="8.7946406"
     inkscape:cx="42.298488"
     inkscape:cy="22.172595"
     inkscape:window-width="1920"
     inkscape:window-height="1003"
     inkscape:window-x="0"
     inkscape:window-y="0"
     inkscape:window-maximized="1"
     inkscape:current-layer="svg4" />
  <defs
     id="defs1">
    <style
       id="current-color-scheme"
       type="text/css">.ColorScheme-Text { color:#363636; }</style>
  </defs>
  <g
     id="audio-volume-medium"
     transform="translate(-246.53572,-394.50504)">
    <path
       id="path6998"
       style="fill:#fefefe;fill-opacity:1;stroke:none;stroke-width:1.3;stroke-linecap:round;stroke-linejoin:round;stroke-miterlimit:4;stroke-dasharray:none;stroke-opacity:1"
       d="m 259.64877,402.57124 c -0.0676,-0.004 -0.15074,0.004 -0.24205,0.0238 -0.0913,0.0194 -0.1902,0.0501 -0.28607,0.0846 -0.0959,0.0346 -0.18956,0.0736 -0.27083,0.11511 -0.0813,0.0415 -0.15057,0.085 -0.19805,0.12526 l -5.20677,4.8496 h -3.54622 c -0.16368,0 -0.3232,0.01 -0.47735,0.0288 -0.15414,0.0189 -0.30199,0.0462 -0.44349,0.0847 -0.0707,0.0192 -0.13951,0.0418 -0.20651,0.066 -0.067,0.0243 -0.13181,0.0503 -0.19466,0.0796 -0.0628,0.0293 -0.12449,0.062 -0.18281,0.0965 -0.0583,0.0345 -0.11418,0.0719 -0.16758,0.11172 -0.0534,0.0398 -0.10424,0.0819 -0.15234,0.12695 -0.0481,0.0451 -0.093,0.0917 -0.13542,0.14219 -0.0424,0.0505 -0.0822,0.10482 -0.11849,0.16081 -0.0363,0.056 -0.07,0.11448 -0.0999,0.17604 -0.0298,0.0615 -0.0549,0.12575 -0.0778,0.19297 -0.023,0.0673 -0.0436,0.13694 -0.0593,0.2099 -0.0157,0.073 -0.0275,0.14974 -0.0355,0.22851 -0.008,0.0788 -0.0119,0.16078 -0.0119,0.24544 v 5.20339 c 0,0.0847 0.003,0.16856 0.0119,0.25052 0.008,0.082 0.0198,0.16147 0.0355,0.24036 0.0157,0.0789 0.0363,0.15641 0.0593,0.2319 0.023,0.0755 0.048,0.15 0.0778,0.22175 0.0298,0.0718 0.0635,0.14055 0.0999,0.2082 0.0363,0.0677 0.0761,0.13313 0.11849,0.19636 0.0424,0.0632 0.0873,0.12436 0.13542,0.1828 0.0481,0.0584 0.0989,0.11426 0.15234,0.16758 0.0534,0.0533 0.10926,0.10449 0.16758,0.15234 0.0583,0.0478 0.11996,0.0934 0.18281,0.13542 0.0628,0.042 0.12767,0.0809 0.19466,0.1168 0.067,0.0359 0.13578,0.0687 0.20651,0.0982 0.0707,0.0294 0.14257,0.0553 0.21667,0.0778 0.0741,0.0225 0.14975,0.0405 0.22682,0.0559 0.0771,0.0154 0.15564,0.0276 0.23529,0.0355 0.0796,0.008 0.16022,0.0119 0.24206,0.0119 h 3.54622 l 5.46745,4.97151 c 0.0475,0.0402 0.1006,0.075 0.15742,0.10494 0.0568,0.0299 0.11784,0.0537 0.18112,0.0728 0.0633,0.0192 0.12949,0.0328 0.19635,0.0407 0.0668,0.008 0.13388,0.0107 0.20143,0.007 0.0563,-0.003 0.11256,-0.0101 0.16758,-0.022 0.055,-0.0119 0.10871,-0.0283 0.16081,-0.0491 0.0521,-0.0208 0.10311,-0.0461 0.15065,-0.0762 0.0475,-0.0301 0.0924,-0.0653 0.13372,-0.10495 0.0413,-0.0397 0.0783,-0.0841 0.11172,-0.13372 0.0335,-0.0496 0.0641,-0.10438 0.088,-0.16419 0.0239,-0.0598 0.0413,-0.12429 0.0542,-0.19467 0.0128,-0.0704 0.0203,-0.14723 0.0203,-0.22849 v -17.98674 c 0,-0.0813 -0.008,-0.15645 -0.0203,-0.22682 -0.0128,-0.0704 -0.0303,-0.13484 -0.0542,-0.19466 -0.0239,-0.0598 -0.0546,-0.11461 -0.088,-0.16419 -0.0334,-0.0496 -0.0704,-0.094 -0.11172,-0.13373 -0.0413,-0.0397 -0.0862,-0.0749 -0.13372,-0.10495 -0.0475,-0.0301 -0.0985,-0.0554 -0.15065,-0.0762 -0.0521,-0.0208 -0.10577,-0.0372 -0.16081,-0.049 -0.055,-0.0119 -0.11126,-0.0187 -0.16758,-0.022 z m -0.31582,1.3915 v 17.23323 l -5.30904,-5.0187 h -4.00664 c -0.11533,0 -0.22276,-0.01 -0.32161,-0.0288 -0.0989,-0.0191 -0.18951,-0.0478 -0.27254,-0.0847 -0.0829,-0.0368 -0.15743,-0.082 -0.22512,-0.13542 -0.0677,-0.0535 -0.12978,-0.11392 -0.18282,-0.18282 -0.0529,-0.0688 -0.0965,-0.14548 -0.13541,-0.22851 -0.0388,-0.083 -0.0712,-0.17315 -0.0965,-0.26914 -0.0254,-0.096 -0.0435,-0.19863 -0.0558,-0.30638 -0.0118,-0.10773 -0.0186,-0.22025 -0.0186,-0.33854 v -4.1535 c 0,-0.11829 0.006,-0.23213 0.0186,-0.34023 0.0123,-0.10811 0.0305,-0.2116 0.0558,-0.30807 0.0253,-0.0965 0.0576,-0.18551 0.0965,-0.26915 0.0388,-0.0835 0.0841,-0.16095 0.1371,-0.2302 0.053,-0.0693 0.11344,-0.13095 0.18113,-0.18451 0.0677,-0.0536 0.1421,-0.099 0.22512,-0.13541 0.0829,-0.0364 0.17368,-0.0634 0.27254,-0.0812 0.0988,-0.0177 0.20629,-0.0271 0.32161,-0.0254 h 4.00664 z"
       sodipodi:nodetypes="csssccssscscsssssssssscssssssssssssscccccsccscsscscssccscsssccccscccccccssccccccccccc" />
    <path
       style="fill:none"
       inkscape:connector-curvature="0"
       id="path7000"
       d="m 246.53572,394.50504 h 32 v 32 h -32 z" />
    <path
       style="fill:none;fill-opacity:1;stroke:#fefefe;stroke-width:1.5;stroke-linecap:round;stroke-linejoin:round;stroke-miterlimit:4;stroke-dasharray:none;stroke-opacity:1"
       id="path7002"
       sodipodi:type="arc"
       sodipodi:cx="259.53571"
       sodipodi:cy="412.53748"
       sodipodi:rx="6.5"
       sodipodi:ry="6.5"
       sodipodi:start="5.7595865"
       sodipodi:end="0.52359878"
       sodipodi:arc-type="arc"
       sodipodi:open="true"
       d="m 265.16487,409.28748 a 6.5,6.5 0 0 1 0,6.5" />
    <path
       style="fill:none;fill-opacity:1;stroke:#fefefe;stroke-width:1.5;stroke-linecap:round;stroke-linejoin:round;stroke-miterlimit:4;stroke-dasharray:none;stroke-opacity:1"
       id="path7004"
       sodipodi:type="arc"
       sodipodi:cx="257.53571"
       sodipodi:cy="412.53748"
       sodipodi:rx="13.5"
       sodipodi:ry="13.5"
       sodipodi:start="5.7595865"
       sodipodi:end="0.52359878"
       sodipodi:arc-type="arc"
       sodipodi:open="true"
       d="m 269.22705,405.78748 a 13.5,13.5 0 0 1 0,13.5" />
    <path
       style="opacity:0.3;fill:none;fill-opacity:1;stroke:#fefefe;stroke-width:1.5;stroke-linecap:round;stroke-linejoin:round;stroke-miterlimit:4;stroke-dasharray:none;stroke-opacity:1"
       id="path7006"
       sodipodi:type="arc"
       sodipodi:cx="256.54199"
       sodipodi:cy="412.53748"
       sodipodi:rx="19.5"
       sodipodi:ry="19.5"
       sodipodi:start="5.7595865"
       sodipodi:end="0.52359878"
       sodipodi:arc-type="arc"
       sodipodi:open="true"
       d="m 273.42949,402.78748 a 19.5,19.5 0 0 1 0,19.5" />
  </g>
</svg>
