<?xml version="1.0" encoding="UTF-8" standalone="no"?>
<svg
   version="1.1"
   viewBox="0 0 32 32"
   id="svg1"
   sodipodi:docname="klipper.svg"
   inkscape:version="1.3.2 (091e20ef0f, 2023-11-25, custom)"
   xmlns:inkscape="http://www.inkscape.org/namespaces/inkscape"
   xmlns:sodipodi="http://sodipodi.sourceforge.net/DTD/sodipodi-0.dtd"
   xmlns="http://www.w3.org/2000/svg"
   xmlns:svg="http://www.w3.org/2000/svg">
  <sodipodi:namedview
     id="namedview1"
     pagecolor="#c8c8c8"
     bordercolor="#000000"
     borderopacity="0.25"
     inkscape:showpageshadow="2"
     inkscape:pageopacity="0.0"
     inkscape:pagecheckerboard="0"
     inkscape:deskcolor="#d1d1d1"
     inkscape:zoom="8.7946406"
     inkscape:cx="-25.242646"
     inkscape:cy="12.735029"
     inkscape:window-width="1920"
     inkscape:window-height="1003"
     inkscape:window-x="0"
     inkscape:window-y="0"
     inkscape:window-maximized="1"
     inkscape:current-layer="svg1" />
  <defs
     id="defs1">
    <style
       id="current-color-scheme"
       type="text/css">.ColorScheme-Text { color:#363636; }</style>
  </defs>
  <g
     id="klipper">
    <rect
       y="0"
       x="-2.8953547e-08"
       height="32"
       width="32.000004"
       id="rect4230"
       style="fill:none;fill-opacity:1;stroke:none" />
    <g
       id="g2755"
       transform="translate(39.000002,1)">
      <path
         id="rect1646"
         style="fill:#fffffe;fill-opacity:1;stroke-width:1.22581;stroke-linecap:round;stroke-linejoin:round"
         d="m -33,4 c -1.108,0 -2,0.892 -2,2 v 20 c 0,1.108 0.892,2 2,2 h 6.777344 c -0.260722,-0.289066 -0.465815,-0.627716 -0.59961,-1 H -33 c -0.554,0 -1,-0.446 -1,-1 V 6 c 0,-0.554 0.446,-1 1,-1 h 3 V 4 Z m 13,0 v 1 h 3 c 0.554,0 1,0.446 1,1 v 3 h 1 V 6 c 0,-1.108 -0.892,-2 -2,-2 z"
         sodipodi:nodetypes="ssssccssssccsccssccssc" />
      <path
         id="rect1953"
         style="fill:#fffffe;fill-opacity:1;stroke-width:1.34164;stroke-linecap:round;stroke-linejoin:round"
         d="m -29,3.000001 c -0.554,0 -1,0.446 -1,1 v 1 c 0,0.554 0.446,1 1,1 h 8 c 0.554,0 1,-0.446 1,-1 v -1 c 0,-0.554 -0.446,-1 -1,-1 z m 0,1 h 8 v 1 h -8 z"
         sodipodi:nodetypes="sssssssssccccc" />
      <path
         style="color:#000000;fill:#fffffe;stroke-width:2;stroke-linecap:round;stroke-linejoin:round;-inkscape-stroke:none"
         d="m -24,10 c -1.108,0 -2,0.892 -2,2 v 14 c 0,1.108 0.892,2 2,2 h 11 c 1.108,0 2,-0.892 2,-2 V 12 c 0,-1.108 -0.892,-2 -2,-2 z m 0,1 h 11 c 0.554,0 1,0.446 1,1 v 14 c 0,0.554 -0.446,1 -1,1 h -11 c -0.554,0 -1,-0.446 -1,-1 V 12 c 0,-0.554 0.446,-1 1,-1 z"
         id="path2564" />
    </g>
  </g>
</svg>
