<?xml version="1.0" encoding="UTF-8" standalone="no"?>
<svg
   xmlns:dc="http://purl.org/dc/elements/1.1/"
   xmlns:cc="http://creativecommons.org/ns#"
   xmlns:rdf="http://www.w3.org/1999/02/22-rdf-syntax-ns#"
   xmlns:svg="http://www.w3.org/2000/svg"
   xmlns="http://www.w3.org/2000/svg"
   xmlns:sodipodi="http://sodipodi.sourceforge.net/DTD/sodipodi-0.dtd"
   xmlns:inkscape="http://www.inkscape.org/namespaces/inkscape"
   width="64"
   height="64"
   viewBox="0 0 16.933333 16.933334"
   version="1.1"
   id="svg8"
   inkscape:version="1.0.2 (e86c870879, 2021-01-15)"
   sodipodi:docname="4kslideshowmaker.svg">
  <defs
     id="defs2">
    <linearGradient
       id="a"
       x1="99.036003"
       x2="99.036003"
       y1="11.64"
       y2="199.84"
       gradientTransform="matrix(0.07937456,0,0,0.07937456,6.0476229,3.354402)"
       gradientUnits="userSpaceOnUse">
      <stop
         stop-color="#ff4b00"
         offset="0"
         id="stop861" />
      <stop
         stop-color="#f50f2d"
         offset="1"
         id="stop863" />
    </linearGradient>
    <linearGradient
       id="a-3"
       x1="99.036003"
       x2="99.036003"
       y1="11.64"
       y2="199.84"
       gradientTransform="matrix(0.07937456,0,0,0.07937456,4.6774592,2.1732264)"
       gradientUnits="userSpaceOnUse">
      <stop
         stop-color="#ff4b00"
         offset="0"
         id="stop861-6" />
      <stop
         stop-color="#f50f2d"
         offset="1"
         id="stop863-7" />
    </linearGradient>
  </defs>
  <sodipodi:namedview
     id="base"
     pagecolor="#ffffff"
     bordercolor="#666666"
     borderopacity="1.0"
     inkscape:pageopacity="0.0"
     inkscape:pageshadow="2"
     inkscape:zoom="5.6"
     inkscape:cx="24.865546"
     inkscape:cy="18.088475"
     inkscape:document-units="mm"
     inkscape:current-layer="layer1"
     inkscape:document-rotation="0"
     showgrid="false"
     units="px"
     inkscape:window-width="1920"
     inkscape:window-height="992"
     inkscape:window-x="0"
     inkscape:window-y="0"
     inkscape:window-maximized="1" />
  <metadata
     id="metadata5">
    <rdf:RDF>
      <cc:Work
         rdf:about="">
        <dc:format>image/svg+xml</dc:format>
        <dc:type
           rdf:resource="http://purl.org/dc/dcmitype/StillImage" />
        <dc:title></dc:title>
      </cc:Work>
    </rdf:RDF>
  </metadata>
  <g
     inkscape:label="图层 1"
     inkscape:groupmode="layer"
     id="layer1">
    <g
       id="g1025"
       transform="translate(-4.1482883,-1.6441961)">
      <circle
         cx="12.614955"
         cy="10.110863"
         r="7.9374566"
         color="#000000"
         fill="url(#a)"
         stroke-width="0.264586"
         id="circle906"
         style="fill:url(#a-3)" />
      <g
         id="g1036"
         transform="matrix(0.22888771,0,0,0.22888771,4.8629337,2.6993629)"
         style="stroke-width:2;stroke-miterlimit:4;stroke-dasharray:none">
        <rect
           style="fill:none;fill-opacity:1;stroke:#ffffff;stroke-width:2;stroke-linecap:round;stroke-miterlimit:4;stroke-dasharray:none;stroke-opacity:1"
           id="rect1026"
           width="35"
           height="30"
           x="16.368231"
           y="17.380508"
           ry="0" />
        <g
           id="g1030"
           style="stroke-width:2;stroke-miterlimit:4;stroke-dasharray:none">
          <path
             id="rect1016"
             style="fill:#ffffff;fill-opacity:1;stroke:none;stroke-width:2;stroke-linecap:round;stroke-miterlimit:4;stroke-dasharray:none"
             d="m 24.86942,24.298303 a 2.2444706,2.2444706 0 0 0 -0.09425,0.0022 2.2444706,2.2444706 0 0 0 -0.09425,0.0055 2.2444706,2.2444706 0 0 0 -0.09425,0.0099 2.2444706,2.2444706 0 0 0 -0.09316,0.01425 2.2444706,2.2444706 0 0 0 -0.09206,0.01753 2.2444706,2.2444706 0 0 0 -0.09206,0.02192 2.2444706,2.2444706 0 0 0 -0.09096,0.02521 2.2444706,2.2444706 0 0 0 -0.08987,0.02959 2.2444706,2.2444706 0 0 0 -0.08877,0.03288 2.2444706,2.2444706 0 0 0 -0.08658,0.03726 2.2444706,2.2444706 0 0 0 -0.08548,0.03945 2.2444706,2.2444706 0 0 0 -0.08329,0.04384 2.2444706,2.2444706 0 0 0 -0.0811,0.04822 2.2444706,2.2444706 0 0 0 -0.08,0.05041 2.2444706,2.2444706 0 0 0 -0.07781,0.0537 2.2444706,2.2444706 0 0 0 -0.07452,0.05699 2.2444706,2.2444706 0 0 0 -0.07233,0.06028 2.2444706,2.2444706 0 0 0 -0.07014,0.06356 2.2444706,2.2444706 0 0 0 -0.06685,0.06685 2.2444706,2.2444706 0 0 0 -0.06466,0.06904 2.2444706,2.2444706 0 0 0 -0.06137,0.07124 2.2444706,2.2444706 0 0 0 -0.05918,0.07452 2.2444706,2.2444706 0 0 0 -0.0548,0.07562 2.2444706,2.2444706 0 0 0 -0.05151,0.07891 2.2444706,2.2444706 0 0 0 -0.04932,0.0811 2.2444706,2.2444706 0 0 0 -0.04493,0.08329 2.2444706,2.2444706 0 0 0 -0.04165,0.08439 2.2444706,2.2444706 0 0 0 -0.03726,0.08658 2.2444706,2.2444706 0 0 0 -0.03507,0.08767 2.2444706,2.2444706 0 0 0 -0.03069,0.08877 2.2444706,2.2444706 0 0 0 -0.0263,0.09096 2.2444706,2.2444706 0 0 0 -0.02302,0.09096 2.2444706,2.2444706 0 0 0 -0.01973,0.09315 2.2444706,2.2444706 0 0 0 -0.01534,0.09315 2.2444706,2.2444706 0 0 0 -0.01096,0.09315 2.2444706,2.2444706 0 0 0 -0.0077,0.09425 2.2444706,2.2444706 0 0 0 -0.0033,0.09425 2.2444706,2.2444706 0 0 0 0,0.03397 2.2444706,2.2444706 0 0 0 0.0022,0.09425 2.2444706,2.2444706 0 0 0 0.0055,0.09425 2.2444706,2.2444706 0 0 0 0.0099,0.09425 2.2444706,2.2444706 0 0 0 0.01425,0.09315 2.2444706,2.2444706 0 0 0 0.01753,0.09315 2.2444706,2.2444706 0 0 0 0.02192,0.09096 2.2444706,2.2444706 0 0 0 0.02521,0.09096 2.2444706,2.2444706 0 0 0 0.02959,0.08987 2.2444706,2.2444706 0 0 0 0.03288,0.08877 2.2444706,2.2444706 0 0 0 0.03617,0.08658 2.2444706,2.2444706 0 0 0 0.04055,0.08548 2.2444706,2.2444706 0 0 0 0.04384,0.08329 2.2444706,2.2444706 0 0 0 0.04712,0.08219 2.2444706,2.2444706 0 0 0 0.05151,0.07891 2.2444706,2.2444706 0 0 0 0.0537,0.07781 2.2444706,2.2444706 0 0 0 0.05699,0.07452 2.2444706,2.2444706 0 0 0 0.06028,0.07233 2.2444706,2.2444706 0 0 0 0.06356,0.07014 2.2444706,2.2444706 0 0 0 0.06576,0.06795 2.2444706,2.2444706 0 0 0 0.06904,0.06356 2.2444706,2.2444706 0 0 0 0.07233,0.06137 2.2444706,2.2444706 0 0 0 0.07343,0.05918 2.2444706,2.2444706 0 0 0 0.07672,0.0548 2.2444706,2.2444706 0 0 0 0.07891,0.05151 2.2444706,2.2444706 0 0 0 0.0811,0.04932 2.2444706,2.2444706 0 0 0 0.08329,0.04493 2.2444706,2.2444706 0 0 0 0.08439,0.04165 2.2444706,2.2444706 0 0 0 0.08658,0.03836 2.2444706,2.2444706 0 0 0 0.08768,0.03397 2.2444706,2.2444706 0 0 0 0.08877,0.03069 2.2444706,2.2444706 0 0 0 0.09096,0.0263 2.2444706,2.2444706 0 0 0 0.09096,0.02301 2.2444706,2.2444706 0 0 0 0.09315,0.01973 2.2444706,2.2444706 0 0 0 0.09316,0.01534 2.2444706,2.2444706 0 0 0 0.09315,0.01096 2.2444706,2.2444706 0 0 0 0.09425,0.0077 2.2444706,2.2444706 0 0 0 0.09425,0.0033 2.2444706,2.2444706 0 0 0 0.03397,0 2.2444706,2.2444706 0 0 0 0.09425,-0.0022 2.2444706,2.2444706 0 0 0 0.09425,-0.0055 2.2444706,2.2444706 0 0 0 0.09425,-0.0099 2.2444706,2.2444706 0 0 0 0.09315,-0.01425 2.2444706,2.2444706 0 0 0 0.09206,-0.01754 2.2444706,2.2444706 0 0 0 0.09206,-0.02192 2.2444706,2.2444706 0 0 0 0.09096,-0.02521 2.2444706,2.2444706 0 0 0 0.08987,-0.02959 2.2444706,2.2444706 0 0 0 0.08877,-0.03288 2.2444706,2.2444706 0 0 0 0.08658,-0.03617 2.2444706,2.2444706 0 0 0 0.08548,-0.04055 2.2444706,2.2444706 0 0 0 0.08329,-0.04384 2.2444706,2.2444706 0 0 0 0.08219,-0.04713 2.2444706,2.2444706 0 0 0 0.07891,-0.05151 2.2444706,2.2444706 0 0 0 0.07781,-0.0537 2.2444706,2.2444706 0 0 0 0.07452,-0.05699 2.2444706,2.2444706 0 0 0 0.07233,-0.06028 2.2444706,2.2444706 0 0 0 0.07014,-0.06356 2.2444706,2.2444706 0 0 0 0.06795,-0.06576 2.2444706,2.2444706 0 0 0 0.06356,-0.06904 2.2444706,2.2444706 0 0 0 0.06137,-0.07233 2.2444706,2.2444706 0 0 0 0.05918,-0.07343 2.2444706,2.2444706 0 0 0 0.0548,-0.07672 2.2444706,2.2444706 0 0 0 0.05151,-0.07891 2.2444706,2.2444706 0 0 0 0.04932,-0.0811 2.2444706,2.2444706 0 0 0 0.04493,-0.08219 2.2444706,2.2444706 0 0 0 0.04165,-0.08548 2.2444706,2.2444706 0 0 0 0.03726,-0.08658 2.2444706,2.2444706 0 0 0 0.03507,-0.08768 2.2444706,2.2444706 0 0 0 0.03069,-0.08877 2.2444706,2.2444706 0 0 0 0.0263,-0.09096 2.2444706,2.2444706 0 0 0 0.02301,-0.09096 2.2444706,2.2444706 0 0 0 0.01973,-0.09315 2.2444706,2.2444706 0 0 0 0.01534,-0.09206 2.2444706,2.2444706 0 0 0 0.01096,-0.09425 2.2444706,2.2444706 0 0 0 0.0077,-0.09425 2.2444706,2.2444706 0 0 0 0.0033,-0.09425 2.2444706,2.2444706 0 0 0 0,-0.03397 2.2444706,2.2444706 0 0 0 -0.0022,-0.09425 2.2444706,2.2444706 0 0 0 -0.0055,-0.09425 2.2444706,2.2444706 0 0 0 -0.0099,-0.09315 2.2444706,2.2444706 0 0 0 -0.01425,-0.09425 2.2444706,2.2444706 0 0 0 -0.01753,-0.09206 2.2444706,2.2444706 0 0 0 -0.02192,-0.09206 2.2444706,2.2444706 0 0 0 -0.02521,-0.09096 2.2444706,2.2444706 0 0 0 -0.02959,-0.08987 2.2444706,2.2444706 0 0 0 -0.03288,-0.08767 2.2444706,2.2444706 0 0 0 -0.03617,-0.08768 2.2444706,2.2444706 0 0 0 -0.04055,-0.08548 2.2444706,2.2444706 0 0 0 -0.04384,-0.08329 2.2444706,2.2444706 0 0 0 -0.04712,-0.0811 2.2444706,2.2444706 0 0 0 -0.05151,-0.08 2.2444706,2.2444706 0 0 0 -0.0537,-0.07781 2.2444706,2.2444706 0 0 0 -0.05699,-0.07452 2.2444706,2.2444706 0 0 0 -0.06028,-0.07233 2.2444706,2.2444706 0 0 0 -0.06356,-0.07014 2.2444706,2.2444706 0 0 0 -0.06575,-0.06685 2.2444706,2.2444706 0 0 0 -0.06904,-0.06466 2.2444706,2.2444706 0 0 0 -0.07233,-0.06137 2.2444706,2.2444706 0 0 0 -0.07343,-0.05808 2.2444706,2.2444706 0 0 0 -0.07672,-0.05589 2.2444706,2.2444706 0 0 0 -0.07891,-0.05151 2.2444706,2.2444706 0 0 0 -0.0811,-0.04822 2.2444706,2.2444706 0 0 0 -0.08329,-0.04603 2.2444706,2.2444706 0 0 0 -0.08439,-0.04165 2.2444706,2.2444706 0 0 0 -0.08658,-0.03726 2.2444706,2.2444706 0 0 0 -0.08768,-0.03507 2.2444706,2.2444706 0 0 0 -0.08877,-0.03068 2.2444706,2.2444706 0 0 0 -0.09096,-0.0263 2.2444706,2.2444706 0 0 0 -0.09096,-0.02301 2.2444706,2.2444706 0 0 0 -0.09315,-0.01973 2.2444706,2.2444706 0 0 0 -0.09315,-0.01425 2.2444706,2.2444706 0 0 0 -0.09315,-0.01206 2.2444706,2.2444706 0 0 0 -0.09425,-0.0077 2.2444706,2.2444706 0 0 0 -0.09425,-0.0033 2.2444706,2.2444706 0 0 0 -0.03397,0 z" />
          <path
             id="path1023"
             style="fill:#ffffff;fill-opacity:1;stroke:none;stroke-width:1.94834;stroke-linecap:round;stroke-miterlimit:4;stroke-dasharray:none"
             d="m 48.702563,34.57485 -2.800745,-5.605295 -5.845032,8.767549 -5.845033,-4.87086 -5.845032,7.793376 -3.896689,-5.845032 -5.845032,9.730304 30.077563,0.01903 z" />
        </g>
      </g>
      <rect
         style="fill:#ffffff;fill-opacity:1;stroke:none;stroke-width:0.369541;stroke-linecap:round;stroke-opacity:1"
         id="rect1038"
         width="0.45777541"
         height="6.866631"
         x="17.209"
         y="7.5205569"
         ry="0" />
      <rect
         style="fill:#ffffff;fill-opacity:1;stroke:none;stroke-width:0.369541;stroke-linecap:round;stroke-opacity:1"
         id="rect1040"
         width="0.45777541"
         height="6.866631"
         x="-14.616076"
         y="10.800143"
         ry="0"
         transform="rotate(-90)" />
    </g>
  </g>
</svg>
