<?xml version="1.0" encoding="UTF-8" standalone="no"?>
<svg
   xmlns:dc="http://purl.org/dc/elements/1.1/"
   xmlns:cc="http://creativecommons.org/ns#"
   xmlns:rdf="http://www.w3.org/1999/02/22-rdf-syntax-ns#"
   xmlns:svg="http://www.w3.org/2000/svg"
   xmlns="http://www.w3.org/2000/svg"
   xmlns:xlink="http://www.w3.org/1999/xlink"
   xmlns:sodipodi="http://sodipodi.sourceforge.net/DTD/sodipodi-0.dtd"
   xmlns:inkscape="http://www.inkscape.org/namespaces/inkscape"
   width="64"
   height="64"
   version="1.1"
   id="svg12"
   sodipodi:docname="4kslideshowmaker.svg"
   inkscape:version="1.0.1 (3bc2e813f5, 2020-09-07)">
  <metadata
     id="metadata18">
    <rdf:RDF>
      <cc:Work
         rdf:about="">
        <dc:format>image/svg+xml</dc:format>
        <dc:type
           rdf:resource="http://purl.org/dc/dcmitype/StillImage" />
        <dc:title></dc:title>
      </cc:Work>
    </rdf:RDF>
  </metadata>
  <defs
     id="defs16">
    <linearGradient
       id="a"
       x1="99.036"
       x2="99.036"
       y1="11.64"
       y2="199.84"
       gradientTransform="matrix(0.29999835,0,0,0.29999835,2.0000143,1.9994829)"
       gradientUnits="userSpaceOnUse">
      <stop
         stop-color="#ff4b00"
         offset="0"
         id="stop861" />
      <stop
         stop-color="#f50f2d"
         offset="1"
         id="stop863" />
    </linearGradient>
    <linearGradient
       id="a-3-3"
       x1="61.751"
       x2="2.4161"
       y1="32.855"
       y2="32.855"
       gradientTransform="matrix(.16757 0 0 .16757 3.1469 3.2402)"
       gradientUnits="userSpaceOnUse">
      <stop
         stop-color="#f0ebeb"
         offset="0"
         id="stop866" />
      <stop
         stop-color="#f0ebeb"
         offset="1"
         id="stop868" />
    </linearGradient>
    <linearGradient
       id="linearGradient1055"
       x1="61.751"
       x2="2.4161"
       y1="32.855"
       y2="32.855"
       gradientTransform="matrix(0.51667159,0,0,0.51667159,102.37816,8.5785321)"
       gradientUnits="userSpaceOnUse">
      <stop
         stop-color="#272727"
         offset="0"
         id="stop871" />
      <stop
         stop-color="#282828"
         offset="1"
         id="stop873" />
    </linearGradient>
    <linearGradient
       id="linearGradient1065"
       x1="61.751"
       x2="2.4161"
       y1="32.855"
       y2="32.855"
       gradientTransform="matrix(0.13333302,0,0,0.13333302,114.54772,20.534547)"
       gradientUnits="userSpaceOnUse"
       xlink:href="#a-3-3" />
    <linearGradient
       id="linearGradient1097"
       x1="2.6927"
       x2="11.329"
       y1="13.665"
       y2="13.665"
       gradientTransform="matrix(3.2927515,0,0,2.9866037,78.366812,-107.34188)"
       gradientUnits="userSpaceOnUse">
      <stop
         stop-color="#f62900"
         offset="0"
         id="stop877" />
      <stop
         stop-color="#f40b24"
         offset="1"
         id="stop879" />
    </linearGradient>
    <filter
       id="filter1105"
       x="-.048"
       y="-.048"
       width="1.096"
       height="1.096"
       color-interpolation-filters="sRGB">
      <feGaussianBlur
         stdDeviation="0.042332501"
         id="feGaussianBlur882" />
    </filter>
    <filter
       id="filter1121"
       x="-.108"
       y="-.108"
       width="1.216"
       height="1.216"
       color-interpolation-filters="sRGB">
      <feGaussianBlur
         stdDeviation="0.45242858"
         id="feGaussianBlur885" />
    </filter>
  </defs>
  <sodipodi:namedview
     pagecolor="#ffffff"
     bordercolor="#666666"
     borderopacity="1"
     objecttolerance="10"
     gridtolerance="10"
     guidetolerance="10"
     inkscape:pageopacity="0"
     inkscape:pageshadow="2"
     inkscape:window-width="1920"
     inkscape:window-height="998"
     id="namedview14"
     showgrid="false"
     inkscape:snap-bbox="true"
     inkscape:bbox-nodes="true"
     inkscape:snap-bbox-edge-midpoints="true"
     inkscape:zoom="5.6568543"
     inkscape:cx="25.780075"
     inkscape:cy="37.675281"
     inkscape:window-x="0"
     inkscape:window-y="0"
     inkscape:window-maximized="1"
     inkscape:current-layer="svg12" />
  <style
     type="text/css"
     id="style904">.st0{opacity:0.15;fill:#45413C;}
	.st1{fill:#FFE500;}
	.st2{fill:#EBCB00;}
	.st3{fill:none;stroke:#45413C;stroke-linecap:round;stroke-linejoin:round;stroke-miterlimit:10;}
	.st4{fill:#FFAA54;}
	.st5{fill:#FF8A14;}
	.st6{fill:#FFB0CA;stroke:#45413C;stroke-linecap:round;stroke-linejoin:round;stroke-miterlimit:10;}
	.st7{fill:#FF87AF;stroke:#45413C;stroke-linecap:round;stroke-linejoin:round;stroke-miterlimit:10;}
	.st8{fill:#FFCC99;}
	.st9{fill:#FFFFFF;}
	.st10{fill:#F0F0F0;}
	.st11{fill:#BF8256;}
	.st12{fill:#915E3A;}
	.st13{fill:#DEA47A;}
	.st14{fill:#F0D5A8;}
	.st15{fill:#DEBB7E;}
	.st16{fill:#F7E5C6;}
	.st17{fill:#FF8A14;stroke:#45413C;stroke-linecap:round;stroke-linejoin:round;stroke-miterlimit:10;}
	.st18{fill:#FFF5E3;}
	.st19{fill:#FFF48C;}
	.st20{fill:#FFFACF;}
	.st21{fill:#FFFCE5;}
	.st22{fill:#FF87AF;}
	.st23{fill:#FFB0CA;}
	.st24{fill:#FFE500;stroke:#45413C;stroke-linecap:round;stroke-linejoin:round;stroke-miterlimit:10;}
	.st25{fill:#9CEB60;stroke:#45413C;stroke-linecap:round;stroke-linejoin:round;stroke-miterlimit:10;}
	.st26{fill:#FFFACF;stroke:#45413C;stroke-linecap:round;stroke-linejoin:round;stroke-miterlimit:10;}
	.st27{fill:#00F5BC;stroke:#45413C;stroke-linecap:round;stroke-linejoin:round;stroke-miterlimit:10;}
	.st28{fill:#BF8256;stroke:#45413C;stroke-linecap:round;stroke-linejoin:round;stroke-miterlimit:10;}
	.st29{fill:#FFE3CF;stroke:#45413C;stroke-linecap:round;stroke-linejoin:round;stroke-miterlimit:10;}
	.st30{fill:#FF6242;}
	.st31{fill:#FF866E;}
	.st32{fill:none;stroke:#E04122;stroke-linecap:round;stroke-linejoin:round;stroke-miterlimit:10;}
	.st33{fill:#FFFEF2;stroke:#45413C;stroke-linecap:round;stroke-linejoin:round;stroke-miterlimit:10;}
	.st34{fill:#FF6242;stroke:#45413C;stroke-linecap:round;stroke-linejoin:round;stroke-miterlimit:10;}
	.st35{fill:#FFA694;}
	.st36{fill:#FFFFFF;stroke:#45413C;stroke-linecap:round;stroke-linejoin:round;stroke-miterlimit:10;}
	.st37{fill:#FFFEF2;}
	.st38{fill:#FF6196;}
	.st39{fill:#B89558;}
	.st40{fill:none;stroke:#915E3A;stroke-linecap:round;stroke-linejoin:round;stroke-miterlimit:10;}
	.st41{fill:#DEBB7E;stroke:#45413C;stroke-linecap:round;stroke-linejoin:round;stroke-miterlimit:10;}
	.st42{fill:#6DD627;stroke:#45413C;stroke-linecap:round;stroke-linejoin:round;stroke-miterlimit:10;}
	.st43{fill:#E5F8FF;}
	.st44{fill:#E8F4FA;}
	.st45{fill:#E8F4FA;stroke:#45413C;stroke-linecap:round;stroke-linejoin:round;stroke-miterlimit:10;}
	.st46{fill:#FFCCDD;}
	.st47{fill:#E5F8FF;stroke:#45413C;stroke-linecap:round;stroke-linejoin:round;stroke-miterlimit:10;}
	.st48{fill:#00B8F0;stroke:#45413C;stroke-linecap:round;stroke-linejoin:round;stroke-miterlimit:10;}
	.st49{fill:#00B8F0;}
	.st50{fill:#4ACFFF;}
	.st51{fill:#E04122;}
	.st52{fill:#E04122;stroke:#45413C;stroke-linecap:round;stroke-linejoin:round;stroke-miterlimit:10;}
	.st53{fill:#87898C;}
	.st54{fill:#BDBEC0;}
	.st55{fill:#656769;}
	.st56{fill:#525252;}
	.st57{fill:#FFF48C;stroke:#45413C;stroke-linecap:round;stroke-linejoin:round;stroke-miterlimit:10;}
	.st58{fill:#6DD627;}
	.st59{fill:#EB6D00;}
	.st60{fill:#46B000;}
	.st61{fill:#80DDFF;}
	.st62{fill:#DAEDF7;}
	.st63{fill:#BF8DF2;stroke:#45413C;stroke-linecap:round;stroke-linejoin:round;stroke-miterlimit:10;}
	.st64{fill:#9F5AE5;stroke:#45413C;stroke-linecap:round;stroke-linejoin:round;stroke-miterlimit:10;}
	.st65{fill:#C8FFA1;}
	.st66{fill:#E4FFD1;}
	.st67{fill:#9CEB60;}
	.st68{fill:#E5FEFF;}
	.st69{fill:#B8ECFF;}
	.st70{fill:#E0E0E0;stroke:#45413C;stroke-linecap:round;stroke-linejoin:round;stroke-miterlimit:10;}
	.st71{fill:#E0E0E0;}
	.st72{fill:none;stroke:#4F4B45;stroke-linejoin:round;stroke-miterlimit:10;}
	.st73{fill:none;stroke:#4F4B45;stroke-linecap:round;stroke-linejoin:round;stroke-miterlimit:10;}
	.st74{fill:#E0366F;stroke:#45413C;stroke-linecap:round;stroke-linejoin:round;stroke-miterlimit:10;}
	.st75{fill:none;stroke:#45413C;stroke-miterlimit:10;}
	.st76{fill:#FF866E;stroke:#45413C;stroke-linecap:round;stroke-linejoin:round;stroke-miterlimit:10;}
	.st77{fill:#45413C;stroke:#45413C;stroke-linecap:round;stroke-linejoin:round;stroke-miterlimit:10;}
	.st78{fill:#9F5AE5;}
	.st79{fill:#803EC2;}
	.st80{fill:#803EC2;stroke:#45413C;stroke-linecap:round;stroke-linejoin:round;stroke-miterlimit:10;}
	.st81{fill:#BF8DF2;}
	.st82{fill:#FFAA54;stroke:#45413C;stroke-linecap:round;stroke-linejoin:round;stroke-miterlimit:10;}
	.st83{fill:none;stroke:#45413C;stroke-linejoin:round;stroke-miterlimit:10;}
	.st84{fill:#FFCCDD;stroke:#45413C;stroke-linecap:round;stroke-linejoin:round;stroke-miterlimit:10;}
	.st85{fill:#FF6196;stroke:#45413C;stroke-linecap:round;stroke-linejoin:round;stroke-miterlimit:10;}
	.st86{fill:#FFE5EE;}
	.st87{fill:#F7E5C6;stroke:#45413C;stroke-linecap:round;stroke-linejoin:round;stroke-miterlimit:10;}
	.st88{fill:#E5FFF9;}
	.st89{fill:none;stroke:#45413C;stroke-width:1.0064;stroke-linecap:round;stroke-linejoin:round;stroke-miterlimit:10;}
	.st90{fill:#4AEFF7;}
	.st91{fill:#A6FBFF;}
	.st92{fill:#E5FEFF;stroke:#45413C;stroke-linecap:round;stroke-linejoin:round;stroke-miterlimit:10;}
	.st93{fill:#46B000;stroke:#45413C;stroke-linecap:round;stroke-linejoin:round;stroke-miterlimit:10;}
	.st94{fill:#FFFFFF;stroke:#45413C;stroke-linejoin:round;stroke-miterlimit:10;}
	.st95{fill:#FFFFFF;stroke:#45413C;stroke-miterlimit:10;}
	.st96{fill:#009FD9;}
	.st97{fill:#00DFEB;}
	.st98{fill:#C0DCEB;stroke:#45413C;stroke-linecap:round;stroke-linejoin:round;stroke-miterlimit:10;}
	.st99{fill:#00DFEB;stroke:#45413C;stroke-linecap:round;stroke-linejoin:round;stroke-miterlimit:10;}
	.st100{fill:#FFE5EE;stroke:#45413C;stroke-linecap:round;stroke-linejoin:round;stroke-miterlimit:10;}
	.st101{fill:#8CA4B8;}
	.st102{fill:#ADC4D9;}
	.st103{fill:#656769;stroke:#45413C;stroke-linecap:round;stroke-linejoin:round;stroke-miterlimit:10;}
	.st104{fill:#F0F0F0;stroke:#45413C;stroke-linecap:round;stroke-linejoin:round;stroke-miterlimit:10;}
	.st105{fill:#C0DCEB;}
	.st106{fill:#45413C;}
	.st107{fill:#FFCABF;}
	.st108{fill:#87898C;stroke:#45413C;stroke-linecap:round;stroke-linejoin:round;stroke-miterlimit:10;}
	.st109{fill:#EBCB00;stroke:#45413C;stroke-linecap:round;stroke-linejoin:round;stroke-miterlimit:10;}</style>
  <g
     fill="#5e4aa6"
     stroke-width="0.26458"
     id="g902"
     transform="matrix(3.779602,0,0,3.779602,86.7805,-7.3067571)">
    <circle
       cx="-330.38"
       cy="-328.51001"
       r="0"
       id="circle890" />
    <circle
       cx="-301.70999"
       cy="-344.42999"
       r="0"
       id="circle892" />
    <circle
       cx="-259.01001"
       cy="-348.26001"
       r="0"
       id="circle894" />
    <circle
       cx="31.886"
       cy="-13.442"
       r="0"
       fill-rule="evenodd"
       id="circle896" />
    <circle
       cx="-257.29001"
       cy="-350.64999"
       r="0"
       id="circle898" />
    <circle
       cx="33.611"
       cy="-15.826"
       r="0"
       fill-rule="evenodd"
       id="circle900" />
  </g>
  <circle
     cx="32"
     cy="32"
     r="29.999836"
     color="#000000"
     fill="url(#a)"
     stroke-width="1.00001"
     id="circle906"
     style="fill:url(#a)" />
  <g
     id="g1036"
     transform="matrix(0.8650874,0,0,0.8650874,2.7010203,3.9880302)"
     style="stroke-width:2;stroke-miterlimit:4;stroke-dasharray:none">
    <rect
       style="fill:none;fill-opacity:1;stroke:#ffffff;stroke-width:2;stroke-linecap:round;stroke-miterlimit:4;stroke-dasharray:none;stroke-opacity:1"
       id="rect1026"
       width="35"
       height="30"
       x="16.368231"
       y="17.380508"
       ry="0" />
    <g
       id="g1030"
       style="stroke-width:2;stroke-miterlimit:4;stroke-dasharray:none">
      <path
         id="rect1016"
         style="fill:#ffffff;fill-opacity:1;stroke:none;stroke-width:2;stroke-linecap:round;stroke-miterlimit:4;stroke-dasharray:none"
         d="m 24.86942,24.298303 a 2.2444706,2.2444706 0 0 0 -0.09425,0.0022 2.2444706,2.2444706 0 0 0 -0.09425,0.0055 2.2444706,2.2444706 0 0 0 -0.09425,0.0099 2.2444706,2.2444706 0 0 0 -0.09316,0.01425 2.2444706,2.2444706 0 0 0 -0.09206,0.01753 2.2444706,2.2444706 0 0 0 -0.09206,0.02192 2.2444706,2.2444706 0 0 0 -0.09096,0.02521 2.2444706,2.2444706 0 0 0 -0.08987,0.02959 2.2444706,2.2444706 0 0 0 -0.08877,0.03288 2.2444706,2.2444706 0 0 0 -0.08658,0.03726 2.2444706,2.2444706 0 0 0 -0.08548,0.03945 2.2444706,2.2444706 0 0 0 -0.08329,0.04384 2.2444706,2.2444706 0 0 0 -0.0811,0.04822 2.2444706,2.2444706 0 0 0 -0.08,0.05041 2.2444706,2.2444706 0 0 0 -0.07781,0.0537 2.2444706,2.2444706 0 0 0 -0.07452,0.05699 2.2444706,2.2444706 0 0 0 -0.07233,0.06028 2.2444706,2.2444706 0 0 0 -0.07014,0.06356 2.2444706,2.2444706 0 0 0 -0.06685,0.06685 2.2444706,2.2444706 0 0 0 -0.06466,0.06904 2.2444706,2.2444706 0 0 0 -0.06137,0.07124 2.2444706,2.2444706 0 0 0 -0.05918,0.07452 2.2444706,2.2444706 0 0 0 -0.0548,0.07562 2.2444706,2.2444706 0 0 0 -0.05151,0.07891 2.2444706,2.2444706 0 0 0 -0.04932,0.0811 2.2444706,2.2444706 0 0 0 -0.04493,0.08329 2.2444706,2.2444706 0 0 0 -0.04165,0.08439 2.2444706,2.2444706 0 0 0 -0.03726,0.08658 2.2444706,2.2444706 0 0 0 -0.03507,0.08767 2.2444706,2.2444706 0 0 0 -0.03069,0.08877 2.2444706,2.2444706 0 0 0 -0.0263,0.09096 2.2444706,2.2444706 0 0 0 -0.02302,0.09096 2.2444706,2.2444706 0 0 0 -0.01973,0.09315 2.2444706,2.2444706 0 0 0 -0.01534,0.09315 2.2444706,2.2444706 0 0 0 -0.01096,0.09315 2.2444706,2.2444706 0 0 0 -0.0077,0.09425 2.2444706,2.2444706 0 0 0 -0.0033,0.09425 2.2444706,2.2444706 0 0 0 0,0.03397 2.2444706,2.2444706 0 0 0 0.0022,0.09425 2.2444706,2.2444706 0 0 0 0.0055,0.09425 2.2444706,2.2444706 0 0 0 0.0099,0.09425 2.2444706,2.2444706 0 0 0 0.01425,0.09315 2.2444706,2.2444706 0 0 0 0.01753,0.09315 2.2444706,2.2444706 0 0 0 0.02192,0.09096 2.2444706,2.2444706 0 0 0 0.02521,0.09096 2.2444706,2.2444706 0 0 0 0.02959,0.08987 2.2444706,2.2444706 0 0 0 0.03288,0.08877 2.2444706,2.2444706 0 0 0 0.03617,0.08658 2.2444706,2.2444706 0 0 0 0.04055,0.08548 2.2444706,2.2444706 0 0 0 0.04384,0.08329 2.2444706,2.2444706 0 0 0 0.04712,0.08219 2.2444706,2.2444706 0 0 0 0.05151,0.07891 2.2444706,2.2444706 0 0 0 0.0537,0.07781 2.2444706,2.2444706 0 0 0 0.05699,0.07452 2.2444706,2.2444706 0 0 0 0.06028,0.07233 2.2444706,2.2444706 0 0 0 0.06356,0.07014 2.2444706,2.2444706 0 0 0 0.06576,0.06795 2.2444706,2.2444706 0 0 0 0.06904,0.06356 2.2444706,2.2444706 0 0 0 0.07233,0.06137 2.2444706,2.2444706 0 0 0 0.07343,0.05918 2.2444706,2.2444706 0 0 0 0.07672,0.0548 2.2444706,2.2444706 0 0 0 0.07891,0.05151 2.2444706,2.2444706 0 0 0 0.0811,0.04932 2.2444706,2.2444706 0 0 0 0.08329,0.04493 2.2444706,2.2444706 0 0 0 0.08439,0.04165 2.2444706,2.2444706 0 0 0 0.08658,0.03836 2.2444706,2.2444706 0 0 0 0.08768,0.03397 2.2444706,2.2444706 0 0 0 0.08877,0.03069 2.2444706,2.2444706 0 0 0 0.09096,0.0263 2.2444706,2.2444706 0 0 0 0.09096,0.02301 2.2444706,2.2444706 0 0 0 0.09315,0.01973 2.2444706,2.2444706 0 0 0 0.09316,0.01534 2.2444706,2.2444706 0 0 0 0.09315,0.01096 2.2444706,2.2444706 0 0 0 0.09425,0.0077 2.2444706,2.2444706 0 0 0 0.09425,0.0033 2.2444706,2.2444706 0 0 0 0.03397,0 2.2444706,2.2444706 0 0 0 0.09425,-0.0022 2.2444706,2.2444706 0 0 0 0.09425,-0.0055 2.2444706,2.2444706 0 0 0 0.09425,-0.0099 2.2444706,2.2444706 0 0 0 0.09315,-0.01425 2.2444706,2.2444706 0 0 0 0.09206,-0.01754 2.2444706,2.2444706 0 0 0 0.09206,-0.02192 2.2444706,2.2444706 0 0 0 0.09096,-0.02521 2.2444706,2.2444706 0 0 0 0.08987,-0.02959 2.2444706,2.2444706 0 0 0 0.08877,-0.03288 2.2444706,2.2444706 0 0 0 0.08658,-0.03617 2.2444706,2.2444706 0 0 0 0.08548,-0.04055 2.2444706,2.2444706 0 0 0 0.08329,-0.04384 2.2444706,2.2444706 0 0 0 0.08219,-0.04713 2.2444706,2.2444706 0 0 0 0.07891,-0.05151 2.2444706,2.2444706 0 0 0 0.07781,-0.0537 2.2444706,2.2444706 0 0 0 0.07452,-0.05699 2.2444706,2.2444706 0 0 0 0.07233,-0.06028 2.2444706,2.2444706 0 0 0 0.07014,-0.06356 2.2444706,2.2444706 0 0 0 0.06795,-0.06576 2.2444706,2.2444706 0 0 0 0.06356,-0.06904 2.2444706,2.2444706 0 0 0 0.06137,-0.07233 2.2444706,2.2444706 0 0 0 0.05918,-0.07343 2.2444706,2.2444706 0 0 0 0.0548,-0.07672 2.2444706,2.2444706 0 0 0 0.05151,-0.07891 2.2444706,2.2444706 0 0 0 0.04932,-0.0811 2.2444706,2.2444706 0 0 0 0.04493,-0.08219 2.2444706,2.2444706 0 0 0 0.04165,-0.08548 2.2444706,2.2444706 0 0 0 0.03726,-0.08658 2.2444706,2.2444706 0 0 0 0.03507,-0.08768 2.2444706,2.2444706 0 0 0 0.03069,-0.08877 2.2444706,2.2444706 0 0 0 0.0263,-0.09096 2.2444706,2.2444706 0 0 0 0.02301,-0.09096 2.2444706,2.2444706 0 0 0 0.01973,-0.09315 2.2444706,2.2444706 0 0 0 0.01534,-0.09206 2.2444706,2.2444706 0 0 0 0.01096,-0.09425 2.2444706,2.2444706 0 0 0 0.0077,-0.09425 2.2444706,2.2444706 0 0 0 0.0033,-0.09425 2.2444706,2.2444706 0 0 0 0,-0.03397 2.2444706,2.2444706 0 0 0 -0.0022,-0.09425 2.2444706,2.2444706 0 0 0 -0.0055,-0.09425 2.2444706,2.2444706 0 0 0 -0.0099,-0.09315 2.2444706,2.2444706 0 0 0 -0.01425,-0.09425 2.2444706,2.2444706 0 0 0 -0.01753,-0.09206 2.2444706,2.2444706 0 0 0 -0.02192,-0.09206 2.2444706,2.2444706 0 0 0 -0.02521,-0.09096 2.2444706,2.2444706 0 0 0 -0.02959,-0.08987 2.2444706,2.2444706 0 0 0 -0.03288,-0.08767 2.2444706,2.2444706 0 0 0 -0.03617,-0.08768 2.2444706,2.2444706 0 0 0 -0.04055,-0.08548 2.2444706,2.2444706 0 0 0 -0.04384,-0.08329 2.2444706,2.2444706 0 0 0 -0.04712,-0.0811 2.2444706,2.2444706 0 0 0 -0.05151,-0.08 2.2444706,2.2444706 0 0 0 -0.0537,-0.07781 2.2444706,2.2444706 0 0 0 -0.05699,-0.07452 2.2444706,2.2444706 0 0 0 -0.06028,-0.07233 2.2444706,2.2444706 0 0 0 -0.06356,-0.07014 2.2444706,2.2444706 0 0 0 -0.06575,-0.06685 2.2444706,2.2444706 0 0 0 -0.06904,-0.06466 2.2444706,2.2444706 0 0 0 -0.07233,-0.06137 2.2444706,2.2444706 0 0 0 -0.07343,-0.05808 2.2444706,2.2444706 0 0 0 -0.07672,-0.05589 2.2444706,2.2444706 0 0 0 -0.07891,-0.05151 2.2444706,2.2444706 0 0 0 -0.0811,-0.04822 2.2444706,2.2444706 0 0 0 -0.08329,-0.04603 2.2444706,2.2444706 0 0 0 -0.08439,-0.04165 2.2444706,2.2444706 0 0 0 -0.08658,-0.03726 2.2444706,2.2444706 0 0 0 -0.08768,-0.03507 2.2444706,2.2444706 0 0 0 -0.08877,-0.03068 2.2444706,2.2444706 0 0 0 -0.09096,-0.0263 2.2444706,2.2444706 0 0 0 -0.09096,-0.02301 2.2444706,2.2444706 0 0 0 -0.09315,-0.01973 2.2444706,2.2444706 0 0 0 -0.09315,-0.01425 2.2444706,2.2444706 0 0 0 -0.09315,-0.01206 2.2444706,2.2444706 0 0 0 -0.09425,-0.0077 2.2444706,2.2444706 0 0 0 -0.09425,-0.0033 2.2444706,2.2444706 0 0 0 -0.03397,0 z" />
      <path
         id="path1023"
         style="fill:#ffffff;fill-opacity:1;stroke:none;stroke-width:1.94834;stroke-linecap:round;stroke-miterlimit:4;stroke-dasharray:none"
         d="m 48.702563,34.57485 -2.800745,-5.605295 -5.845032,8.767549 -5.845033,-4.87086 -5.845032,7.793376 -3.896689,-5.845032 -5.845032,9.730304 30.077563,0.01903 z" />
    </g>
  </g>
  <rect
     style="fill:#ffffff;fill-opacity:1;stroke:none;stroke-width:1.39669;stroke-linecap:round;stroke-opacity:1"
     id="rect1038"
     width="1.7301748"
     height="25.952621"
     x="49.363316"
     y="22.209866"
     ry="0" />
  <rect
     style="fill:#ffffff;fill-opacity:1;stroke:none;stroke-width:1.39669;stroke-linecap:round;stroke-opacity:1"
     id="rect1040"
     width="1.7301748"
     height="25.952621"
     x="-49.027576"
     y="25.140869"
     ry="0"
     transform="rotate(-90)" />
</svg>
