<?xml version="1.0" encoding="UTF-8" standalone="no"?>
<svg
   xmlns:dc="http://purl.org/dc/elements/1.1/"
   xmlns:cc="http://creativecommons.org/ns#"
   xmlns:rdf="http://www.w3.org/1999/02/22-rdf-syntax-ns#"
   xmlns:svg="http://www.w3.org/2000/svg"
   xmlns="http://www.w3.org/2000/svg"
   xmlns:sodipodi="http://sodipodi.sourceforge.net/DTD/sodipodi-0.dtd"
   xmlns:inkscape="http://www.inkscape.org/namespaces/inkscape"
   width="64"
   height="64"
   viewBox="0 0 16.933333 16.933334"
   version="1.1"
   id="svg8"
   inkscape:version="1.0.2 (e86c870879, 2021-01-15)"
   sodipodi:docname="4kvideodownloader.svg">
  <defs
     id="defs2">
    <linearGradient
       id="a"
       x1="99.036003"
       x2="99.036003"
       y1="11.64"
       y2="199.84"
       gradientTransform="matrix(0.07937456,0,0,0.07937456,6.0476229,3.354402)"
       gradientUnits="userSpaceOnUse">
      <stop
         stop-color="#ff4b00"
         offset="0"
         id="stop861" />
      <stop
         stop-color="#f50f2d"
         offset="1"
         id="stop863" />
    </linearGradient>
    <linearGradient
       id="a-3"
       x1="99.036003"
       x2="99.036003"
       y1="11.64"
       y2="199.84"
       gradientTransform="matrix(0.07937456,0,0,0.07937456,4.6774592,2.1732264)"
       gradientUnits="userSpaceOnUse">
      <stop
         stop-color="#ff4b00"
         offset="0"
         id="stop861-6" />
      <stop
         stop-color="#f50f2d"
         offset="1"
         id="stop863-7" />
    </linearGradient>
    <linearGradient
       id="c"
       x1="24.535"
       x2="24.535"
       y1="7.0931001"
       y2="44.483002"
       gradientTransform="matrix(0.3800475,0,0,0.3800475,2.4700367,-1.067707)"
       gradientUnits="userSpaceOnUse">
      <stop
         stop-color="#76dd38"
         offset="0"
         id="stop156" />
      <stop
         stop-color="#42c440"
         offset=".48433"
         id="stop158" />
      <stop
         stop-color="#14ab4b"
         offset="1"
         id="stop160" />
    </linearGradient>
    <filter
       id="filter3001"
       x="-0.029503001"
       y="-0.046935"
       width="1.059"
       height="1.0939"
       color-interpolation-filters="sRGB">
      <feGaussianBlur
         stdDeviation="0.23473412"
         id="feGaussianBlur148" />
    </filter>
    <linearGradient
       id="linearGradient2349"
       x1="33.337002"
       x2="31.709999"
       y1="42.984001"
       y2="26.577"
       gradientTransform="matrix(0.26458333,0,0,0.26458333,3.1561553,0.1794105)"
       gradientUnits="userSpaceOnUse">
      <stop
         stop-color="#aaf8ad"
         offset="0"
         id="stop151" />
      <stop
         stop-color="#fff"
         offset="1"
         id="stop153" />
    </linearGradient>
  </defs>
  <sodipodi:namedview
     id="base"
     pagecolor="#ffffff"
     bordercolor="#666666"
     borderopacity="1.0"
     inkscape:pageopacity="0.0"
     inkscape:pageshadow="2"
     inkscape:zoom="5.6"
     inkscape:cx="24.865546"
     inkscape:cy="18.088475"
     inkscape:document-units="mm"
     inkscape:current-layer="layer1"
     inkscape:document-rotation="0"
     showgrid="false"
     units="px"
     inkscape:window-width="1920"
     inkscape:window-height="992"
     inkscape:window-x="0"
     inkscape:window-y="0"
     inkscape:window-maximized="1" />
  <metadata
     id="metadata5">
    <rdf:RDF>
      <cc:Work
         rdf:about="">
        <dc:format>image/svg+xml</dc:format>
        <dc:type
           rdf:resource="http://purl.org/dc/dcmitype/StillImage" />
        <dc:title></dc:title>
      </cc:Work>
    </rdf:RDF>
  </metadata>
  <g
     inkscape:label="图层 1"
     inkscape:groupmode="layer"
     id="layer1">
    <g
       id="g1111"
       transform="translate(-3.1561008,-0.17953828)">
      <circle
         cx="11.622767"
         cy="8.6462049"
         r="7.9375"
         color="#000000"
         fill="url(#c)"
         overflow="visible"
         style="isolation:auto;mix-blend-mode:normal;fill:url(#c);stroke-width:0.264583"
         id="circle541" />
      <path
         d="m 34.885,20.775 c -4.0064,0 -7.4531,2.2463 -8.9727,5.4668 v 0.002 c -0.81313,-0.61432 -1.8343,-0.98047 -2.9434,-0.98047 -2.6111,0 -4.7361,2.027 -4.8027,4.5527 -2.6954,0.98385 -4.6133,3.5156 -4.6133,6.4824 0,3.5046 2.678,6.3989 6.1504,6.8555 v 0.06445 h 24.598 v -0.01172 c 3.4296,-0.19362 6.1484,-2.9614 6.1484,-6.3477 0,-3.2658 -2.5288,-5.9571 -5.7852,-6.3184 0.01353,-0.19908 0.02149,-0.39919 0.02149,-0.60156 0,-5.0612 -4.388,-9.1641 -9.8008,-9.1641 z m -9.5508,6.7305 h 2.666 8.666 2 v 12.666 1.332 0.002 h -2.666 v -0.002 h -8 v 0.002 h -2.666 v -0.002 -2.668 -1.332 -1.332 -1.334 -1.334 -1.332 -1.334 -1.332 z m 0.66602,0.66602 v 1.334 h 1.334 v -1.334 z m 2,0 v 6 h 8 v -6 z m 8.666,0 v 1.334 h 1.334 v -1.334 z m -10.666,2.666 v 1.334 h 1.334 v -1.334 z m 10.666,0 v 1.334 h 1.334 v -1.334 z m -10.666,2.666 v 1.334 h 1.334 V 34.1715 33.50353 h -1.334 z m 10.666,0 v 0.66797 0.66602 h 1.334 v -1.334 h -1.334 z m -8.666,1.3359 v 5.998 h 8 v -5.998 z m -2,1.332 v 1.332 h 1.334 v -1.332 z m 10.666,0 v 1.332 h 1.334 v -1.332 z m -10.666,2.6641 v 1.3359 h 1.334 v -1.3359 z m 10.666,0 v 1.3359 h 1.334 v -1.3359 z"
         fill="#14b432"
         filter="url(#filter3001)"
         stroke-width="1.3939"
         id="path543"
         transform="matrix(0.26458333,0,0,0.26458333,3.1561013,0.17953882)" />
      <path
         d="m 12.361749,5.6566783 c -1.027324,0 -1.910477,0.5987521 -2.300129,1.4567694 C 9.8531181,6.9497844 9.5910325,6.8524812 9.3066318,6.8524812 c -0.6695545,0 -1.2143316,0.5404644 -1.2314501,1.2133527 C 7.3840371,8.327946 6.892309,9.0019562 6.892309,9.792346 c 0,0.933662 0.6862762,1.705107 1.576652,1.826763 v 0.01705 h 6.307667 v -0.0031 c 0.879422,-0.05158 1.576652,-0.789252 1.576652,-1.6913753 0,-0.8700558 -0.648626,-1.5868649 -1.483625,-1.6830939 0.0035,-0.053038 0.0052,-0.1062831 0.0052,-0.1601973 0,-1.3483695 -1.125087,-2.4417072 -2.513012,-2.4417072 z M 9.8590554,7.4570885 h 0.7053796 2.292879 0.529166 v 3.3512125 0.352425 5.29e-4 h -0.705379 v -5.29e-4 h -2.116666 v 5.29e-4 H 9.8590554 V 11.160726 10.454818 10.102393 9.7499677 9.3970135 9.0440593 8.6916343 8.3386802 7.9862552 Z m 0.1762176,0.1762178 v 0.3529542 h 0.352954 V 7.6333063 Z m 0.529167,0 v 1.5875 h 2.116666 v -1.5875 z m 2.292879,0 v 0.3529542 h 0.352954 V 7.6333063 Z m -2.822046,0.7053792 v 0.3529541 h 0.352954 V 8.3386855 Z m 2.822046,0 v 0.3529541 h 0.352954 V 8.3386855 Z m -2.822046,0.7053791 v 0.3529542 h 0.352954 V 9.220801 9.0440673 h -0.352954 z m 2.822046,0 v 0.1767338 0.1762177 h 0.352954 V 9.044062 H 12.857319 Z M 10.56444,9.3975215 v 1.5869705 h 2.116666 V 9.3975215 Z m -0.529167,0.352425 v 0.3524245 h 0.352954 V 9.7499465 Z m 2.822046,0 v 0.3524245 h 0.352954 V 9.7499465 Z m -2.822046,0.7048765 v 0.353457 h 0.352954 v -0.353457 z m 2.822046,0 v 0.353457 h 0.352954 v -0.353457 z"
         fill="url(#linearGradient2349)"
         id="path545"
         style="fill:url(#linearGradient2349);stroke-width:0.264583" />
    </g>
  </g>
</svg>
