<?xml version="1.0" encoding="UTF-8"?>
<!-- Created with Inkscape (http://www.inkscape.org/) -->
<svg width="64" height="64" version="1.1" viewBox="0 0 16.933 16.933" xmlns="http://www.w3.org/2000/svg" xmlns:cc="http://creativecommons.org/ns#" xmlns:dc="http://purl.org/dc/elements/1.1/" xmlns:rdf="http://www.w3.org/1999/02/22-rdf-syntax-ns#" xmlns:xlink="http://www.w3.org/1999/xlink">
 <defs>
  <style type="text/css"/>
  <linearGradient id="linearGradient889" x1="-37.488" x2="-31.596" y1="5.903" y2="11.794" gradientTransform="matrix(1.0909 0 0 1.0909 46.71 -.62537)" gradientUnits="userSpaceOnUse">
   <stop stop-color="#ffdc0a" offset="0"/>
   <stop stop-color="#ffd20a" offset="1"/>
  </linearGradient>
  <linearGradient id="linearGradient893" x1="-35.057" x2="-27.781" y1="8.3342" y2="15.61" gradientTransform="matrix(.55537 0 0 .55537 31.832 7.7344)" gradientUnits="userSpaceOnUse">
   <stop stop-color="#ffb405" offset="0"/>
   <stop stop-color="#ffc805" offset="1"/>
  </linearGradient>
  <linearGradient id="linearGradient904" x1="-42.332" x2="-35.057" y1="1.0583" y2="8.3342" gradientTransform="matrix(.55537 0 0 .55537 31.832 7.7344)" gradientUnits="userSpaceOnUse">
   <stop stop-color="#505050" offset="0"/>
   <stop stop-color="#323232" offset="1"/>
  </linearGradient>
  <filter id="filter956" x="-.084" y="-.084" width="1.168" height="1.168" color-interpolation-filters="sRGB">
   <feGaussianBlur stdDeviation="0.98000002"/>
  </filter>
 </defs>
 <metadata>
  <rdf:RDF>
   <cc:Work rdf:about="">
    <dc:format>image/svg+xml</dc:format>
    <dc:type rdf:resource="http://purl.org/dc/dcmitype/StillImage"/>
    <dc:title/>
   </cc:Work>
  </rdf:RDF>
 </metadata>
 <g transform="translate(25.83,-8.897)" fill="#5e4aa6" stroke-width=".26458">
  <circle cx="-322.63" cy="-345.67" r="0"/>
  <circle cx="-31.726" cy="-10.849" r="0" fill-rule="evenodd"/>
  <circle cx="-306.92" cy="-328.72" r="0"/>
 </g>
 <g>
  <rect x=".52916" y=".52916" width="15.875" height="15.875" ry=".86589" fill="url(#linearGradient889)"/>
  <path transform="matrix(.27801 0 0 .27801 45.041 -.32118)" d="m-105 31c-0.37816 0-1.1043-1e-6 -1.5273-1e-6h-24.945c-0.84611 0-1.5273 0.68124-1.5273 1.5273v24.945 1.5273z" filter="url(#filter956)" opacity=".5"/>
  <path d="m16.404 8.3222c-0.10915 0-0.31873-3e-7 -0.44084-3e-7h-7.2c-0.24421 0-0.44084 0.19663-0.44084 0.44084v7.2 0.44084z" fill="url(#linearGradient904)"/>
  <path d="m16.404 8.3222-8.0817 8.0817h0.44084 7.2c0.24421 0 0.44084-0.19663 0.44084-0.44084v-7.2-0.44084z" fill="url(#linearGradient893)"/>
 </g>
</svg>
