<?xml version="1.0" encoding="UTF-8"?>
<svg width="64" height="64" version="1.1" xmlns="http://www.w3.org/2000/svg" xmlns:cc="http://creativecommons.org/ns#" xmlns:dc="http://purl.org/dc/elements/1.1/" xmlns:rdf="http://www.w3.org/1999/02/22-rdf-syntax-ns#" xmlns:xlink="http://www.w3.org/1999/xlink">
 <metadata>
  <rdf:RDF>
   <cc:Work rdf:about="">
    <dc:format>image/svg+xml</dc:format>
    <dc:type rdf:resource="http://purl.org/dc/dcmitype/StillImage"/>
    <dc:title/>
   </cc:Work>
  </rdf:RDF>
 </metadata>
 <defs>
  <linearGradient id="linearGradient1064" x1="-15.961" x2="-.30109" y1="-43.254" y2="-54.196" gradientTransform="matrix(3.7796 0 0 4.1576 -93.742 279.12)" gradientUnits="userSpaceOnUse">
   <stop stop-color="#ffc832" offset="0"/>
   <stop stop-color="#ffdc6e" offset="1"/>
  </linearGradient>
  <linearGradient id="linearGradient1096" x1="-159.99" x2="-159.99" y1="8" y2="71.186" gradientUnits="userSpaceOnUse">
   <stop stop-color="#24b1e5" offset="0"/>
   <stop stop-color="#1270c3" offset="1"/>
  </linearGradient>
  <filter id="filter1163" x="-.06633" y="-.054773" width="1.1327" height="1.1095" color-interpolation-filters="sRGB">
   <feGaussianBlur stdDeviation="1.4367675"/>
  </filter>
 </defs>
 <g transform="translate(156.75 -40.116)">
  <path d="m-124.74 65.766h-30v-15.125c0-1.5188 1.1193-2.75 2.5-2.75h21.25l6.25 5.5001z" fill="#ffe55e" stroke-width="2.622"/>
  <g transform="matrix(3.7796 0 0 4.1576 -93.742 279.12)" stroke-width=".66145">
   <path d="m-8.2026-51.317h-7.9373v-3.6379c0-0.36531 0.29614-0.66144 0.66144-0.66144h5.6223l1.6536 1.3229z" fill="#e19600"/>
   <path d="m-9.8562-55.617h-5.6223c-0.36532 0-0.66144 0.29612-0.66144 0.66144v0.16536c0-0.36532 0.29612-0.66144 0.66144-0.66144h5.6223l1.6536 1.3229v-0.16536z" fill="#fff" opacity=".2"/>
  </g>
  <g stroke-width="2.622">
   <path d="m-97.246 53.39h-27.5l-6.25 5.5001h-21.25c-1.3807 0-2.5 1.2312-2.5 2.75v35.75c0 1.5188 1.1193 2.75 2.5 2.75h55.001c1.3807 0 2.5-1.2312 2.5-2.75v-41.251c0-1.5188-1.1193-2.75-2.5-2.75z" fill="url(#linearGradient1064)"/>
   <path d="m-97.246 99.453h-55.001c-1.3808 0-2.5-1.2313-2.5-2.75v0.68751c0 1.5187 1.1192 2.75 2.5 2.75h55.001c1.3808 0 2.5-1.2313 2.5-2.75v-0.68751c0 1.5187-1.1192 2.75-2.5 2.75z" opacity=".1"/>
   <path d="m-97.246 53.39h-27.5l-6.25 5.5001h-21.25c-1.3808 0-2.5 1.2312-2.5 2.75v0.68751c0-1.5188 1.1192-2.75 2.5-2.75h21.25l6.25-5.5001h27.5c1.3808 0 2.5 1.2312 2.5 2.75v-0.68751c0-1.5188-1.1192-2.75-2.5-2.75z" fill="#fff" opacity=".2"/>
  </g>
 </g>
 <g transform="matrix(.95629 0 0 .90203 184.52 -3.6617)" filter="url(#filter1163)" opacity=".3">
  <path d="m-138.01 7.9824v16.25c0 6.1301-4.8562 10.986-10.986 10.986-6.1301 0-10.986-4.8562-10.986-10.986v-16.232a22.5 22.5 0 0 0-1.1699 0.67188 22.5 22.5 0 0 0-1.8301 1.3086 22.5 22.5 0 0 0-1.6894 1.4844 22.5 22.5 0 0 0-0.32422 0.34766v12.42c0 7.7946 5.609 14.297 13 15.707v14.998c0 6.1301-4.8562 10.986-10.986 10.986s-10.986-4.8562-10.986-10.986v-1.3281a8.5 8.5 0 0 1-0.24023 0.08008 8.5 8.5 0 0 1-0.82813 0.1875 8.5 8.5 0 0 1-0.84375 0.10156 8.5 8.5 0 0 1-0.60156 0.02148 8.5 8.5 0 0 1-0.84765-0.04297 8.5 8.5 0 0 1-0.8418-0.12695 8.5 8.5 0 0 1-0.81055-0.20508v1.3125c0 8.8206 7.1794 16 16 16s16-7.1794 16-16v-14.846c7.8718-0.99577 13.986-7.7223 13.986-15.859v-12.436a22.5 22.5 0 0 0-1.5059-1.4004 22.5 22.5 0 0 0-1.7891-1.3613 22.5 22.5 0 0 0-1.7188-1.0527z" color="#000000" color-rendering="auto" dominant-baseline="auto" image-rendering="auto" opacity="1" shape-rendering="auto" solid-color="#000000" style="font-feature-settings:normal;font-variant-alternates:normal;font-variant-caps:normal;font-variant-ligatures:normal;font-variant-numeric:normal;font-variant-position:normal;isolation:auto;mix-blend-mode:normal;shape-padding:0;text-decoration-color:#000000;text-decoration-line:none;text-decoration-style:solid;text-indent:0;text-orientation:mixed;text-transform:none;white-space:normal"/>
  <path d="m-159.99 14h2c1.108 0 2-0.892 2-2v-2c0-1.108-0.892-2-2-2h-2z" opacity="1"/>
  <path d="m-137.99 14h-2c-1.108 0-2-0.892-2-2v-2c0-1.108 0.892-2 2-2h2z" opacity="1"/>
  <circle cx="-176.49" cy="45.5" r="8.5" opacity="1"/>
  <circle cx="-176.49" cy="45.5" r="4" opacity="1"/>
 </g>
 <g transform="matrix(.95306 0 0 .95306 184.01 -5.6077)">
  <path d="m-138.01 7.9824v16.25c0 6.1301-4.8562 10.986-10.986 10.986-6.1301 0-10.986-4.8562-10.986-10.986v-16.232a22.5 22.5 0 0 0-1.1699 0.67188 22.5 22.5 0 0 0-1.8301 1.3086 22.5 22.5 0 0 0-1.6894 1.4844 22.5 22.5 0 0 0-0.32422 0.34766v12.42c0 7.7946 5.609 14.297 13 15.707v14.998c0 6.1301-4.8562 10.986-10.986 10.986s-10.986-4.8562-10.986-10.986v-1.3281a8.5 8.5 0 0 1-0.24023 0.08008 8.5 8.5 0 0 1-0.82813 0.1875 8.5 8.5 0 0 1-0.84375 0.10156 8.5 8.5 0 0 1-0.60156 0.02148 8.5 8.5 0 0 1-0.84765-0.04297 8.5 8.5 0 0 1-0.8418-0.12695 8.5 8.5 0 0 1-0.81055-0.20508v1.3125c0 8.8206 7.1794 16 16 16s16-7.1794 16-16v-14.846c7.8718-0.99577 13.986-7.7223 13.986-15.859v-12.436a22.5 22.5 0 0 0-1.5059-1.4004 22.5 22.5 0 0 0-1.7891-1.3613 22.5 22.5 0 0 0-1.7188-1.0527z" color="#000000" color-rendering="auto" dominant-baseline="auto" fill="url(#linearGradient1096)" image-rendering="auto" shape-rendering="auto" solid-color="#000000" style="font-feature-settings:normal;font-variant-alternates:normal;font-variant-caps:normal;font-variant-ligatures:normal;font-variant-numeric:normal;font-variant-position:normal;isolation:auto;mix-blend-mode:normal;shape-padding:0;text-decoration-color:#000000;text-decoration-line:none;text-decoration-style:solid;text-indent:0;text-orientation:mixed;text-transform:none;white-space:normal"/>
  <g fill="#075daa">
   <path d="m-159.99 14h2c1.108 0 2-0.892 2-2v-2c0-1.108-0.892-2-2-2h-2z"/>
   <path d="m-137.99 14h-2c-1.108 0-2-0.892-2-2v-2c0-1.108 0.892-2 2-2h2z"/>
   <circle cx="-176.49" cy="45.5" r="8.5"/>
  </g>
  <circle cx="-176.49" cy="45.5" r="4" fill="#46d5fb"/>
 </g>
</svg>
