<?xml version="1.0" encoding="UTF-8" standalone="no"?>
<svg
   xmlns:dc="http://purl.org/dc/elements/1.1/"
   xmlns:cc="http://creativecommons.org/ns#"
   xmlns:rdf="http://www.w3.org/1999/02/22-rdf-syntax-ns#"
   xmlns:svg="http://www.w3.org/2000/svg"
   xmlns="http://www.w3.org/2000/svg"
   xmlns:sodipodi="http://sodipodi.sourceforge.net/DTD/sodipodi-0.dtd"
   xmlns:inkscape="http://www.inkscape.org/namespaces/inkscape"
   width="64"
   height="64"
   viewBox="0 0 16.933333 16.933334"
   version="1.1"
   id="svg8"
   inkscape:version="1.0.2 (e86c870879, 2021-01-15)"
   sodipodi:docname="accessories-podcast.svg">
  <defs
     id="defs2">
    <linearGradient
       id="linearGradient1005"
       x1="0.73910999"
       x2="16.388"
       y1="16.296"
       y2="0.64687002"
       gradientTransform="matrix(0.9999897,0,0,0.9999897,4.301386,0.89494188)"
       gradientUnits="userSpaceOnUse">
      <stop
         stop-color="#00a0ff"
         offset="0"
         id="stop16" />
      <stop
         stop-color="#37beff"
         offset="1"
         id="stop18" />
    </linearGradient>
    <filter
       id="filter3440"
       x="-0.068743996"
       y="-0.082507998"
       width="1.1375"
       height="1.165"
       color-interpolation-filters="sRGB">
      <feGaussianBlur
         stdDeviation="0.99297596"
         id="feGaussianBlur21" />
    </filter>
    <linearGradient
       id="linearGradient1005-3"
       x1="0.92150003"
       x2="16.136999"
       y1="16.113001"
       y2="0.89806998"
       gradientTransform="matrix(0.9999927,0,0,0.9999927,-0.03505133,0.00670857)"
       gradientUnits="userSpaceOnUse">
      <stop
         stop-color="#a53cff"
         offset="0"
         id="stop4" />
      <stop
         stop-color="#b496ff"
         offset="1"
         id="stop6" />
    </linearGradient>
  </defs>
  <sodipodi:namedview
     id="base"
     pagecolor="#ffffff"
     bordercolor="#666666"
     borderopacity="1.0"
     inkscape:pageopacity="0.0"
     inkscape:pageshadow="2"
     inkscape:zoom="5.6"
     inkscape:cx="17.496809"
     inkscape:cy="31.338841"
     inkscape:document-units="mm"
     inkscape:current-layer="layer1"
     inkscape:document-rotation="0"
     showgrid="false"
     units="px"
     inkscape:window-width="1920"
     inkscape:window-height="992"
     inkscape:window-x="0"
     inkscape:window-y="0"
     inkscape:window-maximized="1" />
  <metadata
     id="metadata5">
    <rdf:RDF>
      <cc:Work
         rdf:about="">
        <dc:format>image/svg+xml</dc:format>
        <dc:type
           rdf:resource="http://purl.org/dc/dcmitype/StillImage" />
        <dc:title></dc:title>
      </cc:Work>
    </rdf:RDF>
  </metadata>
  <g
     inkscape:label="图层 1"
     inkscape:groupmode="layer"
     id="layer1">
    <g
       id="g3505">
      <path
         d="m 16.40418,8.4667064 c 0,0.951547 -0.167489,1.8638306 -0.474636,2.7093326 -0.213502,0.587693 -0.494374,1.143291 -0.833913,1.657218 -0.142224,0.21608 -0.295143,0.424762 -0.457465,0.62529 -0.519642,0.6418 -1.137179,1.200679 -1.830467,1.654281 -0.255296,0.167171 -0.520647,0.320092 -0.795364,0.45712 -1.0668,0.533876 -2.2710773,0.834205 -3.5456813,0.834205 -1.274524,0 -2.478802,-0.300329 -3.545681,-0.834231 C 4.6462297,15.43287 4.3805607,15.279965 4.1252647,15.112801 3.4231927,14.653088 2.7982737,14.085424 2.2743987,13.432988 2.1117747,13.23083 1.9591737,13.020238 1.8169337,12.802221 1.4864697,12.296841 1.2127317,11.751534 1.0034457,11.175219 0.69634367,10.329928 0.52915367,9.4179624 0.52915367,8.4666804 c 0,-4.3838817 3.55361903,-7.93750043 7.93750003,-7.93750043 2.2004873,0 4.1915293,0.89548233 5.6295403,2.34166833 0.414364,0.4166129 0.782743,0.8792898 1.096274,1.3794581 0.296439,0.4710642 0.544275,0.9758098 0.73705,1.5067756 0.307181,0.8455814 0.474662,1.7579184 0.474662,2.7093334 z"
         fill="url(#linearGradient1005)"
         stroke-width="0.0310065"
         id="path550"
         style="fill:url(#linearGradient1005-3)" />
      <path
         d="m 8.4680228,2.5816581 c -0.225255,-9.29e-5 -0.4504,0.00603 -0.558403,0.01833 -1.323684,0.15063 -2.407496,0.6977063 -3.342745,1.6873537 -0.62955,0.6660886 -1.060106,1.4695488 -1.290664,2.4085555 -0.07543,0.307181 -0.09514,0.441589 -0.113062,0.772901 -0.01843,0.340677 5.56e-4,0.930169 0.03956,1.227508 0.05648,0.430873 0.225139,0.982345 0.449871,1.4709767 0.415687,0.903923 1.086855,1.664388 1.955191,2.215806 0.274162,0.17408 0.831559,0.45974 1.064552,0.545518 0.07043,0.02593 0.08297,0.02577 0.105256,-0.0011 0.04131,-0.04977 -0.01291,-0.508371 -0.07422,-0.62791 -0.03937,-0.07676 -0.07909,-0.10741 -0.249716,-0.192553 -0.933556,-0.465825 -1.675818,-1.22039 -2.14884,-2.1842937 -0.204171,-0.416004 -0.344064,-0.831347 -0.391266,-1.161997 -0.05322,-0.372798 -0.0625,-0.990388 -0.02196,-1.465606 0.03624,-0.424842 0.159019,-0.84455 0.384545,-1.3145036 0.342318,-0.7132637 0.83222,-1.3113279 1.457193,-1.7794022 0.608488,-0.4556654 1.330907,-0.7595129 2.043033,-0.8591021 0.185502,-0.025942 0.982424,-0.035706 1.226238,-0.015063 0.556948,0.047157 1.0294932,0.1875631 1.5841662,0.4707466 0.999014,0.5100902 1.800542,1.3957565 2.22041,2.4535863 0.224483,0.5656 0.283421,0.924163 0.283474,1.724766 3e-5,0.639736 -0.03433,0.894451 -0.178937,1.327362 -0.216684,0.648599 -0.558192,1.2331167 -1.01481,1.7367247 -0.364993,0.402537 -0.909002,0.817589 -1.370806,1.04603 -0.210987,0.104357 -0.250661,0.139353 -0.292365,0.257516 -0.05411,0.153348 -0.09023,0.544037 -0.05372,0.580549 0.03031,0.0303 0.142465,-0.01126 0.468392,-0.173133 0.326099,-0.161962 0.768112,-0.419285 0.971814,-0.565838 0.937763,-0.674687 1.681719,-1.749583 1.990249,-2.8754907 0.127381,-0.464767 0.153112,-0.660638 0.164418,-1.252379 0.0095,-0.495988 -0.0091,-0.859552 -0.05608,-1.095401 C 13.53889,6.0586323 13.191907,5.2902823 12.669329,4.6380315 12.399401,4.3010846 12.057586,3.9556711 11.759056,3.7183134 10.954115,3.0783392 10.078926,2.7202257 9.0274978,2.6004223 8.9188278,2.5880398 8.6934348,2.5816449 8.4681948,2.581547 Z m -0.01543,1.7691629 c -0.398647,0.00198 -0.786685,0.051366 -1.04439,0.1377368 -0.550253,0.1843987 -1.094819,0.5282406 -1.505664,0.9509389 -0.386371,0.3974571 -0.660955,0.8489686 -0.836057,1.3746166 -0.124822,0.374729 -0.163655,0.689557 -0.149897,1.213908 0.0048,0.181483 0.0191,0.393753 0.03249,0.479451 0.104971,0.671989 0.544433,1.489102 1.066535,1.9834227 0.07145,0.06763 0.153691,0.139091 0.182928,0.158798 0.02923,0.0197 0.109323,0.0759 0.17803,0.124856 0.06871,0.04895 0.132001,0.08672 0.140639,0.08384 0.0086,-0.0029 0.02008,-0.0247 0.02523,-0.04846 0.0051,-0.02375 0.01011,-0.19313 0.01107,-0.376396 l 0.0016,-0.33319 -0.171492,-0.2070597 c -0.365601,-0.441272 -0.570548,-0.821108 -0.687255,-1.273783 -0.285962,-1.109054 0.118046,-2.265839 1.044389,-2.9903212 0.437595,-0.342265 0.962687,-0.5351727 1.62814,-0.5981435 0.336921,-0.031877 0.95758,0.096533 1.345618,0.2783945 0.6857472,0.3213365 1.2527492,0.9698302 1.4968542,1.7115102 0.112953,0.34327 0.132789,0.477388 0.13212,0.896144 -5.56e-4,0.335571 -0.0035,0.376555 -0.04011,0.548058 -0.0792,0.371475 -0.23794,0.751258 -0.439526,1.051665 -0.05706,0.08503 -0.18424,0.251254 -0.282548,0.369306 l -0.178753,0.2145027 0.0045,0.365681 c 0.0032,0.265535 0.0094,0.370734 0.02269,0.383989 0.02452,0.02449 0.168132,-0.07374 0.36658,-0.250621 0.699003,-0.6230407 1.070954,-1.3117507 1.216633,-2.2532177 0.03951,-0.255389 0.03578,-0.730091 -0.0076,-0.97708 C 11.93856,6.9890103 11.845631,6.6998213 11.684354,6.3701763 11.131031,5.2390828 10.02576,4.4570009 8.8504018,4.3650847 8.7195868,4.3548479 8.5855008,4.3502706 8.4526008,4.3509295 Z m 0.02704,1.9029363 c -0.235249,-1.21e-4 -0.270193,0.0033 -0.380551,0.0372 -0.309827,0.09525 -0.605975,0.357346 -0.751125,0.66511 -0.07133,0.151222 -0.0979,0.260942 -0.107254,0.442806 -0.01417,0.275484 0.05242,0.539274 0.18801,0.745675 0.07882,0.119989 0.291042,0.329962 0.41865,0.414126 0.300196,0.198014 0.665612,0.26034 1.010656,0.1724 0.439102,-0.111905 0.768059,-0.433414 0.904107,-0.883602 0.03453,-0.114253 0.03938,-0.155713 0.03938,-0.337556 0,-0.181837 -0.0049,-0.223118 -0.03938,-0.33737 -0.135887,-0.449659 -0.455983,-0.76327 -0.905007,-0.886328 -0.10079,-0.02762 -0.156998,-0.03237 -0.377481,-0.03248 z m -0.03321,2.983442 c -0.589386,0.003 -1.021106,0.199575 -1.197557,0.549142 -0.08817,0.17467 -0.115922,0.4762767 -0.08802,0.9581887 0.04665,0.805603 0.239384,2.262161 0.364754,2.756958 0.09136,0.360415 0.222068,0.574728 0.432277,0.708316 0.08253,0.05245 0.267546,0.112818 0.403225,0.131752 0.163509,0.02282 0.424735,0.006 0.557477,-0.03593 0.294957,-0.09319 0.461221,-0.293899 0.564568,-0.68162 0.09128,-0.342397 0.254981,-1.563555 0.33737,-2.516716 0.03234,-0.374121 0.03289,-0.907124 0.0011,-1.06344 -0.04541,-0.2232077 -0.121103,-0.3428997 -0.305965,-0.4836317 -0.298079,-0.226912 -0.52951,-0.305038 -0.949298,-0.32086 -0.04066,-0.0015 -0.08066,-0.0022 -0.119957,-0.002 z"
         fill="#ffffff"
         stroke-width="0.264578"
         style="paint-order:fill markers stroke"
         id="path552" />
    </g>
  </g>
</svg>
