<?xml version="1.0" encoding="UTF-8"?>
<svg id="SimpleNote" width="64" height="64" enable-background="new 0 0 1024 1024" image-rendering="optimizeSpeed" version="1.1" viewBox="0 0 64 64" xmlns="http://www.w3.org/2000/svg" xmlns:cc="http://creativecommons.org/ns#" xmlns:dc="http://purl.org/dc/elements/1.1/" xmlns:rdf="http://www.w3.org/1999/02/22-rdf-syntax-ns#">
 <metadata>
  <rdf:RDF>
   <cc:Work rdf:about="">
    <dc:format>image/svg+xml</dc:format>
    <dc:type rdf:resource="http://purl.org/dc/dcmitype/StillImage"/>
    <dc:title/>
   </cc:Work>
  </rdf:RDF>
 </metadata>
 <defs>
  <linearGradient id="b" x1="539.74" x2="539.74" y1="191.56" y2="985.66" gradientTransform="matrix(.063557 0 0 .063557 -.54556 -.54555)" gradientUnits="userSpaceOnUse">
   <stop stop-color="#eb554b" offset="0"/>
   <stop stop-color="#f51432" offset=".5"/>
   <stop stop-color="#d73782" offset="1"/>
  </linearGradient>
  <filter id="d" x="-.037097" y="-.034966" width="1.0742" height="1.0699" color-interpolation-filters="sRGB">
   <feGaussianBlur stdDeviation="0.86408203"/>
  </filter>
  <linearGradient id="a" x1="38.002" x2="38.106" y1="1.64" y2="63.712" gradientUnits="userSpaceOnUse">
   <stop stop-color="#fff" offset="0"/>
   <stop stop-color="#fae6e6" offset="1"/>
  </linearGradient>
 </defs>
 <g transform="matrix(.90989 0 0 .90989 3.0869 2.7366)">
  <path d="m61.091 24.373c-0.06992-0.27648-0.14936-0.57203-0.23199-0.86441-0.06356-0.2161-0.12712-0.43538-0.20021-0.66739-0.1017-0.32733-0.2161-0.66739-0.33686-1.0074-0.40996-1.1599-0.89934-2.2913-1.4714-3.4099-0.24153-0.47034-0.50529-0.95021-0.78178-1.4237-1.2903-2.1928-2.911-4.2712-4.8528-6.2129-4.6144-4.6144-9.988-7.4145-16.122-8.3932-1.0328-0.16525-2.0847-0.27966-3.1812-0.34004-0.61652-0.034957-1.2617-0.054025-1.9131-0.054025-0.59428 0-1.1822 0.01589-1.7733 0.047669-7.5224 0.38771-14.002 3.3019-19.439 8.7393q-8.787 8.787-8.787 21.213c0 8.2852 2.9301 15.359 8.787 21.216 3.6038 3.6006 7.6622 6.0953 12.146 7.4716 2.3358 0.71503 4.7542 1.1345 7.2932 1.268h0.02542c0.54025 0.0286 1.0551 0.04449 1.5572 0.04449h0.19068c0.65469 0 1.303-0.01907 1.9131-0.05085 0.1589-0.0095 0.30191-0.01907 0.44174-0.0286 1.2839-0.09216 2.536-0.25742 3.7309-0.4894 0.50529-0.09851 1.0043-0.20974 1.4873-0.32733 5.1356-1.2903 9.6704-3.9152 13.643-7.8876 3.089-3.089 5.3644-6.5145 6.8232-10.284 1.1726-3.0286 1.821-6.2796 1.9417-9.7562 0.01271-0.38453 0.01907-0.7786 0.01907-1.1759v-0.19068c-0.01271-2.5837-0.31462-5.0529-0.90887-7.4367z" fill="url(#b)" stroke-width=".99683"/>
  <path transform="matrix(.96764 0 0 .94489 1.6117 1.7826)" d="m38.588 2.6914c-18.233 14.959-30.116 18.999-35.139 19.85-0.64432 1.9843-1.0793 4.0553-1.291 6.2188 3.0205-0.4169 10.267-1.8066 18-6.457 10.068-6.0552 22.105-17.551 22.105-17.551-3.2827 6.1828-4.3067 28.585-4.3809 56.713 0.06661-0.01245 0.13687-0.02034 0.20313-0.0332 0.50529-0.09851 1.0033-0.21054 1.4863-0.32812 5.1356-1.2903 9.6699-3.9163 13.643-7.8887 1.8657-1.8657 3.4297-3.8559 4.7012-5.9688-1.7642-5.857-3.1537-12.275-4.3047-18.273-0.92046-6.7068-0.55003-12.886 0.10156-17.656-0.16792-0.17518-0.32306-0.35627-0.49609-0.5293-4.234-4.234-9.1155-6.9222-14.629-8.0957zm-36.574 29.904c0.040373 2.3429 0.31057 4.5901 0.82617 6.7363 8.4655 0.56771 21.157 9.5115 27.197 22.607 0.06372 0.0037 0.12558 0.01227 0.18945 0.01563h0.02539c0.54025 0.0286 1.0545 0.04492 1.5566 0.04492h0.19141c0.65469 0 1.3019-0.019 1.9121-0.05078 0.1589-0.0095 0.30158-0.01977 0.44141-0.0293 0.41236-0.0296 0.81575-0.07858 1.2207-0.12305-4.7132-13.741-27.114-29.181-33.561-29.201z" color="#000000" enable-background="accumulate" fill-opacity=".89831" filter="url(#d)" opacity=".2"/>
  <path d="m38.588 2.6914c-18.233 14.959-30.116 18.999-35.139 19.85-0.64432 1.9843-1.0793 4.0553-1.291 6.2188 3.0205-0.4169 10.267-1.8066 18-6.457 10.068-6.0552 22.105-17.551 22.105-17.551-3.2827 6.1828-4.3067 28.585-4.3809 56.713 0.06661-0.01245 0.13687-0.02034 0.20313-0.0332 0.50529-0.09851 1.0033-0.21054 1.4863-0.32812 5.1356-1.2903 9.6699-3.9163 13.643-7.8887 1.8657-1.8657 3.4297-3.8559 4.7012-5.9688-1.7642-5.857-3.1537-12.275-4.3047-18.273-0.92046-6.7068-0.55003-12.886 0.10156-17.656-0.16792-0.17518-0.32306-0.35627-0.49609-0.5293-4.234-4.234-9.1155-6.9222-14.629-8.0957zm-36.574 29.904c0.040373 2.3429 0.31057 4.5901 0.82617 6.7363 8.4655 0.56771 21.157 9.5115 27.197 22.607 0.06372 0.0037 0.12558 0.01227 0.18945 0.01563h0.02539c0.54025 0.0286 1.0545 0.04492 1.5566 0.04492h0.19141c0.65469 0 1.3019-0.019 1.9121-0.05078 0.1589-0.0095 0.30158-0.01977 0.44141-0.0293 0.41236-0.0296 0.81575-0.07858 1.2207-0.12305-4.7132-13.741-27.114-29.181-33.561-29.201z" color="#000000" enable-background="accumulate" fill="url(#a)"/>
 </g>
</svg>
