<?xml version="1.0" encoding="UTF-8" standalone="no"?>
<svg
   xmlns:dc="http://purl.org/dc/elements/1.1/"
   xmlns:cc="http://creativecommons.org/ns#"
   xmlns:rdf="http://www.w3.org/1999/02/22-rdf-syntax-ns#"
   xmlns:svg="http://www.w3.org/2000/svg"
   xmlns="http://www.w3.org/2000/svg"
   xmlns:sodipodi="http://sodipodi.sourceforge.net/DTD/sodipodi-0.dtd"
   xmlns:inkscape="http://www.inkscape.org/namespaces/inkscape"
   width="64"
   height="64"
   version="1.1"
   id="svg63"
   sodipodi:docname="accessories-system-cleaner.svg"
   inkscape:version="1.0.1 (3bc2e813f5, 2020-09-07)">
  <sodipodi:namedview
     pagecolor="#ffffff"
     bordercolor="#666666"
     borderopacity="1"
     objecttolerance="10"
     gridtolerance="10"
     guidetolerance="10"
     inkscape:pageopacity="0"
     inkscape:pageshadow="2"
     inkscape:window-width="1920"
     inkscape:window-height="935"
     id="namedview65"
     showgrid="false"
     inkscape:zoom="8.5626212"
     inkscape:cx="13.25599"
     inkscape:cy="28.633871"
     inkscape:window-x="0"
     inkscape:window-y="38"
     inkscape:window-maximized="1"
     inkscape:current-layer="svg63" />
  <metadata
     id="metadata2">
    <rdf:RDF>
      <cc:Work
         rdf:about="">
        <dc:format>image/svg+xml</dc:format>
        <dc:type
           rdf:resource="http://purl.org/dc/dcmitype/StillImage" />
        <dc:title></dc:title>
      </cc:Work>
    </rdf:RDF>
  </metadata>
  <defs
     id="defs17">
    <linearGradient
       id="linearGradient1064"
       x1="-15.961"
       x2="-.30109"
       y1="-43.254"
       y2="-54.196"
       gradientTransform="matrix(3.7796,0,0,4.1576,-93.742,279.12)"
       gradientUnits="userSpaceOnUse">
      <stop
         stop-color="#ffc832"
         offset="0"
         id="stop4" />
      <stop
         stop-color="#ffdc6e"
         offset="1"
         id="stop6" />
    </linearGradient>
    <linearGradient
       id="linearGradient1096"
       x1="-159.99"
       x2="-159.99"
       y1="8"
       y2="71.186"
       gradientUnits="userSpaceOnUse">
      <stop
         stop-color="#24b1e5"
         offset="0"
         id="stop9" />
      <stop
         stop-color="#1270c3"
         offset="1"
         id="stop11" />
    </linearGradient>
    <filter
       id="filter1163"
       x="-.06633"
       y="-.054773"
       width="1.1327"
       height="1.1095"
       color-interpolation-filters="sRGB">
      <feGaussianBlur
         stdDeviation="1.4367675"
         id="feGaussianBlur14" />
    </filter>
  </defs>
  <g
     id="g912"
     transform="matrix(0.92054621,0,0,0.92054621,2.5388391,2.6057982)">
    <g
       transform="translate(156.75,-40.116)"
       id="g35">
      <path
         d="m -124.74,65.766 h -30 V 50.641 c 0,-1.5188 1.1193,-2.75 2.5,-2.75 h 21.25 l 6.25,5.5001 z"
         fill="#ffe55e"
         stroke-width="2.622"
         id="path19" />
      <g
         transform="matrix(3.7796,0,0,4.1576,-93.742,279.12)"
         stroke-width="0.66145"
         id="g25">
        <path
           d="m -8.2026,-51.317 h -7.9373 v -3.6379 c 0,-0.36531 0.29614,-0.66144 0.66144,-0.66144 h 5.6223 l 1.6536,1.3229 z"
           fill="#e19600"
           id="path21" />
        <path
           d="m -9.8562,-55.617 h -5.6223 c -0.36532,0 -0.66144,0.29612 -0.66144,0.66144 v 0.16536 c 0,-0.36532 0.29612,-0.66144 0.66144,-0.66144 h 5.6223 l 1.6536,1.3229 v -0.16536 z"
           fill="#ffffff"
           opacity="0.2"
           id="path23" />
      </g>
      <g
         stroke-width="2.622"
         id="g33">
        <path
           d="m -97.246,53.39 h -27.5 l -6.25,5.5001 h -21.25 c -1.3807,0 -2.5,1.2312 -2.5,2.75 v 35.75 c 0,1.5188 1.1193,2.75 2.5,2.75 h 55.001 c 1.3807,0 2.5,-1.2312 2.5,-2.75 v -41.251 c 0,-1.5188 -1.1193,-2.75 -2.5,-2.75 z"
           fill="url(#linearGradient1064)"
           id="path27"
           style="fill:url(#linearGradient1064)" />
        <path
           d="m -97.246,99.453 h -55.001 c -1.3808,0 -2.5,-1.2313 -2.5,-2.75 v 0.68751 c 0,1.5187 1.1192,2.75 2.5,2.75 h 55.001 c 1.3808,0 2.5,-1.2313 2.5,-2.75 V 96.703 c 0,1.5187 -1.1192,2.75 -2.5,2.75 z"
           opacity="0.1"
           id="path29" />
        <path
           d="m -97.246,53.39 h -27.5 l -6.25,5.5001 h -21.25 c -1.3808,0 -2.5,1.2312 -2.5,2.75 v 0.68751 c 0,-1.5188 1.1192,-2.75 2.5,-2.75 h 21.25 l 6.25,-5.5001 h 27.5 c 1.3808,0 2.5,1.2312 2.5,2.75 V 56.14 c 0,-1.5188 -1.1192,-2.75 -2.5,-2.75 z"
           fill="#ffffff"
           opacity="0.2"
           id="path31" />
      </g>
    </g>
    <g
       transform="matrix(0.95629,0,0,0.90203,184.52,-3.6617)"
       filter="url(#filter1163)"
       opacity="0.3"
       id="g47">
      <path
         d="m -138.01,7.9824 v 16.25 c 0,6.1301 -4.8562,10.986 -10.986,10.986 -6.1301,0 -10.986,-4.8562 -10.986,-10.986 V 8.0004 a 22.5,22.5 0 0 0 -1.1699,0.67188 22.5,22.5 0 0 0 -1.8301,1.3086 22.5,22.5 0 0 0 -1.6894,1.4844 22.5,22.5 0 0 0 -0.32422,0.34766 v 12.42 c 0,7.7946 5.609,14.297 13,15.707 v 14.998 c 0,6.1301 -4.8562,10.986 -10.986,10.986 -6.1298,0 -10.986,-4.8562 -10.986,-10.986 v -1.3281 a 8.5,8.5 0 0 1 -0.24023,0.08008 8.5,8.5 0 0 1 -0.82813,0.1875 8.5,8.5 0 0 1 -0.84375,0.10156 8.5,8.5 0 0 1 -0.60156,0.02148 8.5,8.5 0 0 1 -0.84765,-0.04297 8.5,8.5 0 0 1 -0.8418,-0.12695 8.5,8.5 0 0 1 -0.81055,-0.20508 v 1.3125 c 0,8.8206 7.1794,16 16,16 8.8206,0 16,-7.1794 16,-16 v -14.846 c 7.8718,-0.99577 13.986,-7.7223 13.986,-15.859 v -12.436 a 22.5,22.5 0 0 0 -1.5059,-1.4004 22.5,22.5 0 0 0 -1.7891,-1.3613 22.5,22.5 0 0 0 -1.7188,-1.0527 z"
         color="#000000"
         color-rendering="auto"
         dominant-baseline="auto"
         image-rendering="auto"
         opacity="1"
         shape-rendering="auto"
         solid-color="#000000"
         style="font-variant-ligatures:normal;font-variant-position:normal;font-variant-caps:normal;font-variant-numeric:normal;font-variant-alternates:normal;font-feature-settings:normal;text-indent:0;text-decoration:none;text-decoration-line:none;text-decoration-style:solid;text-decoration-color:#000000;text-transform:none;text-orientation:mixed;white-space:normal;shape-padding:0;isolation:auto;mix-blend-mode:normal"
         id="path37" />
      <path
         d="m -159.99,14 h 2 c 1.108,0 2,-0.892 2,-2 v -2 c 0,-1.108 -0.892,-2 -2,-2 h -2 z"
         opacity="1"
         id="path39" />
      <path
         d="m -137.99,14 h -2 c -1.108,0 -2,-0.892 -2,-2 v -2 c 0,-1.108 0.892,-2 2,-2 h 2 z"
         opacity="1"
         id="path41" />
      <circle
         cx="-176.49001"
         cy="45.5"
         r="8.5"
         opacity="1"
         id="circle43" />
      <circle
         cx="-176.49001"
         cy="45.5"
         r="4"
         opacity="1"
         id="circle45" />
    </g>
    <g
       transform="matrix(0.95306,0,0,0.95306,184.01,-5.6077)"
       id="g61">
      <path
         d="m -138.01,7.9824 v 16.25 c 0,6.1301 -4.8562,10.986 -10.986,10.986 -6.1301,0 -10.986,-4.8562 -10.986,-10.986 V 8.0004 a 22.5,22.5 0 0 0 -1.1699,0.67188 22.5,22.5 0 0 0 -1.8301,1.3086 22.5,22.5 0 0 0 -1.6894,1.4844 22.5,22.5 0 0 0 -0.32422,0.34766 v 12.42 c 0,7.7946 5.609,14.297 13,15.707 v 14.998 c 0,6.1301 -4.8562,10.986 -10.986,10.986 -6.1298,0 -10.986,-4.8562 -10.986,-10.986 v -1.3281 a 8.5,8.5 0 0 1 -0.24023,0.08008 8.5,8.5 0 0 1 -0.82813,0.1875 8.5,8.5 0 0 1 -0.84375,0.10156 8.5,8.5 0 0 1 -0.60156,0.02148 8.5,8.5 0 0 1 -0.84765,-0.04297 8.5,8.5 0 0 1 -0.8418,-0.12695 8.5,8.5 0 0 1 -0.81055,-0.20508 v 1.3125 c 0,8.8206 7.1794,16 16,16 8.8206,0 16,-7.1794 16,-16 v -14.846 c 7.8718,-0.99577 13.986,-7.7223 13.986,-15.859 v -12.436 a 22.5,22.5 0 0 0 -1.5059,-1.4004 22.5,22.5 0 0 0 -1.7891,-1.3613 22.5,22.5 0 0 0 -1.7188,-1.0527 z"
         color="#000000"
         color-rendering="auto"
         dominant-baseline="auto"
         fill="url(#linearGradient1096)"
         image-rendering="auto"
         shape-rendering="auto"
         solid-color="#000000"
         style="font-variant-ligatures:normal;font-variant-position:normal;font-variant-caps:normal;font-variant-numeric:normal;font-variant-alternates:normal;font-feature-settings:normal;text-indent:0;text-decoration:none;text-decoration-line:none;text-decoration-style:solid;text-decoration-color:#000000;text-transform:none;text-orientation:mixed;white-space:normal;shape-padding:0;isolation:auto;mix-blend-mode:normal;fill:url(#linearGradient1096)"
         id="path49" />
      <g
         fill="#075daa"
         id="g57">
        <path
           d="m -159.99,14 h 2 c 1.108,0 2,-0.892 2,-2 v -2 c 0,-1.108 -0.892,-2 -2,-2 h -2 z"
           id="path51" />
        <path
           d="m -137.99,14 h -2 c -1.108,0 -2,-0.892 -2,-2 v -2 c 0,-1.108 0.892,-2 2,-2 h 2 z"
           id="path53" />
        <circle
           cx="-176.49001"
           cy="45.5"
           r="8.5"
           id="circle55" />
      </g>
      <circle
         cx="-176.49001"
         cy="45.5"
         r="4"
         fill="#46d5fb"
         id="circle59" />
    </g>
  </g>
</svg>
