<?xml version="1.0" encoding="UTF-8"?>
<svg width="64" height="64" version="1.1" xmlns="http://www.w3.org/2000/svg" xmlns:cc="http://creativecommons.org/ns#" xmlns:dc="http://purl.org/dc/elements/1.1/" xmlns:rdf="http://www.w3.org/1999/02/22-rdf-syntax-ns#">
 <metadata>
  <rdf:RDF>
   <cc:Work rdf:about="">
    <dc:format>image/svg+xml</dc:format>
    <dc:type rdf:resource="http://purl.org/dc/dcmitype/StillImage"/>
    <dc:title/>
   </cc:Work>
  </rdf:RDF>
 </metadata>
 <defs>
  <linearGradient id="b" x1="32" x2="32" y1=".77966" y2="58.61" gradientTransform="matrix(.91396 0 0 .91396 9.8865 11.179)" gradientUnits="userSpaceOnUse">
   <stop stop-color="#fff" offset="0"/>
   <stop stop-color="#fae6e6" offset="1"/>
  </linearGradient>
  <filter id="e" x="-.037096" y="-.034966" width="1.0742" height="1.0699" color-interpolation-filters="sRGB">
   <feGaussianBlur stdDeviation="0.86407762"/>
  </filter>
  <filter id="d" x="-.054964" y="-.026765" width="1.1099" height="1.0535" color-interpolation-filters="sRGB">
   <feGaussianBlur stdDeviation="0.27481933"/>
  </filter>
  <linearGradient id="linearGradient902" x1="38.119" x2="38.119" y1="61.091" y2="13.227" gradientTransform="matrix(.91396 0 0 .91396 2.8035 2.6603)" gradientUnits="userSpaceOnUse">
   <stop stop-color="#d73782" offset="0"/>
   <stop stop-color="#f51432" offset=".56246"/>
   <stop stop-color="#eb554b" offset="1"/>
  </linearGradient>
 </defs>
 <g transform="matrix(1.0909 0 0 1.0941 -2.9089 -3.0122)">
  <circle cx="32.081" cy="32" r="27.419" fill="url(#b)" stroke-width=".91396" style="paint-order:stroke markers fill"/>
  <path transform="matrix(.88772 0 0 .86042 4.5537 4.2224)" d="m38.588 2.6914c-18.233 14.959-30.116 18.999-35.139 19.85-0.64432 1.9843-1.0793 4.0553-1.291 6.2188 3.0205-0.4169 10.267-1.8066 18-6.457 10.068-6.0552 22.105-17.551 22.105-17.551-3.2827 6.1828-4.3067 28.585-4.3809 56.713 0.06661-0.01245 0.13687-0.02034 0.20313-0.0332 0.50529-0.09851 1.0033-0.21054 1.4863-0.32812 5.1356-1.2903 9.6699-3.9163 13.643-7.8887 1.8657-1.8657 3.4297-3.8559 4.7012-5.9688-1.7642-5.857-3.1537-12.275-4.3047-18.273-0.92046-6.7068-0.55003-12.886 0.10156-17.656-0.16792-0.17518-0.32306-0.35627-0.49609-0.5293-4.234-4.234-9.1155-6.9222-14.629-8.0957zm-36.574 29.904c0.040373 2.3429 0.31057 4.5901 0.82617 6.7363 8.4655 0.56771 21.157 9.5115 27.197 22.607 0.06372 0.0037 0.12558 0.01227 0.18945 0.01563h0.02539c0.54025 0.0286 1.0545 0.04492 1.5566 0.04492h0.19141c0.65469 0 1.3019-0.019 1.9121-0.05078 0.1589-0.0095 0.30158-0.01977 0.44141-0.0293 0.41236-0.0296 0.81575-0.07858 1.2207-0.12305-4.7132-13.741-27.114-29.181-33.561-29.201z" color="#000000" filter="url(#e)" opacity=".15"/>
  <path d="m38.071 5.1201c-16.664 13.672-27.525 17.364-32.116 18.142-0.58888 1.8136-0.98644 3.7064-1.1799 5.6837 2.7606-0.38103 9.3836-1.6512 16.451-5.9014 9.2018-5.5342 20.203-16.041 20.203-16.041-3.0003 5.6508-3.9362 26.126-4.004 51.833 0.06088-0.01138 0.12509-0.01859 0.18565-0.03034 0.46182-0.09003 0.91698-0.19242 1.3584-0.29989 4.6937-1.1793 8.8379-3.5793 12.469-7.21 1.7052-1.7052 3.1346-3.5241 4.2967-5.4552-1.6124-5.3531-2.8824-11.219-3.9343-16.701-0.84126-6.1298-0.50271-11.777 0.09282-16.137-0.15347-0.16011-0.29526-0.32562-0.45341-0.48376-3.8697-3.8697-8.3312-6.3266-13.37-7.3992zm-33.427 27.331c0.036899 2.1413 0.28385 4.1952 0.75509 6.1567 7.7371 0.51886 19.337 8.6931 24.857 20.662 0.05824 0.0034 0.11478 0.01121 0.17315 0.01428h0.02321c0.49377 0.02614 0.96377 0.04106 1.4227 0.04106h0.17494c0.59836 0 1.1899-0.01736 1.7476-0.04641 0.14523-0.0087 0.27563-0.01807 0.40343-0.02678 0.37688-0.02705 0.74556-0.07182 1.1157-0.11246-4.3077-12.559-24.781-26.67-30.673-26.689z" color="#000000" fill="url(#linearGradient902)" stroke-width=".91396"/>
  <path transform="matrix(.91396 0 0 .91396 2.8035 3.1876)" d="m25.289 2.7988a30 30 0 0 0-12 5.7559v18.887l6-3.4648 6 3.4648v-24.643z" filter="url(#d)" opacity=".15"/>
  <path d="m25.917 5.2183a27.419 27.419 0 0 0-10.968 5.2607v17.262l5.4838-3.1667 5.4838 3.1667v-22.523z" fill="#1e82e1" stroke-width=".91396"/>
 </g>
</svg>
