<?xml version="1.0" encoding="UTF-8" standalone="no"?>
<svg
   xmlns:dc="http://purl.org/dc/elements/1.1/"
   xmlns:cc="http://creativecommons.org/ns#"
   xmlns:rdf="http://www.w3.org/1999/02/22-rdf-syntax-ns#"
   xmlns:svg="http://www.w3.org/2000/svg"
   xmlns="http://www.w3.org/2000/svg"
   xmlns:sodipodi="http://sodipodi.sourceforge.net/DTD/sodipodi-0.dtd"
   xmlns:inkscape="http://www.inkscape.org/namespaces/inkscape"
   width="64"
   height="64"
   version="1.1"
   id="svg30"
   sodipodi:docname="adventures-of-shuggy.svg"
   inkscape:version="1.0.1 (3bc2e813f5, 2020-09-07)">
  <metadata
     id="metadata36">
    <rdf:RDF>
      <cc:Work
         rdf:about="">
        <dc:format>image/svg+xml</dc:format>
        <dc:type
           rdf:resource="http://purl.org/dc/dcmitype/StillImage" />
        <dc:title></dc:title>
      </cc:Work>
    </rdf:RDF>
  </metadata>
  <defs
     id="defs34" />
  <sodipodi:namedview
     pagecolor="#ffffff"
     bordercolor="#666666"
     borderopacity="1"
     objecttolerance="10"
     gridtolerance="10"
     guidetolerance="10"
     inkscape:pageopacity="0"
     inkscape:pageshadow="2"
     inkscape:window-width="1920"
     inkscape:window-height="935"
     id="namedview32"
     showgrid="false"
     inkscape:zoom="6.0546875"
     inkscape:cx="9.0380632"
     inkscape:cy="20.533192"
     inkscape:window-x="0"
     inkscape:window-y="38"
     inkscape:window-maximized="1"
     inkscape:current-layer="svg30" />
  <g
     id="g873"
     transform="matrix(0.96491228,0,0,0.96491228,1.122807,0.6403509)">
    <path
       d="M 12,43 10,35 7,38 4,18 c 0,0 12,11 28,11 16,0 28,-11 28,-11 l -3,20 -3,-3 -2,8 -6,-8 H 18 Z"
       style="fill:#323232"
       id="path4" />
    <path
       d="m 4,18 0.1621094,1.140625 C 5.0091314,19.897611 16.593791,30 32,30 47.406209,30 58.990869,19.897611 59.837891,19.140625 L 60,18 C 60,18 48,29 32,29 16,29 4.0000004,18 4,18 Z"
       style="opacity:0.1;fill:#ffffff"
       id="path6" />
    <path
       d="m 18,50 6,11 8,-9 8,9 6,-11 V 47 H 18 Z"
       style="opacity:0.2"
       id="path8" />
    <path
       d="m 18,49 6,11 8,-9 8,9 6,-11 V 46 H 18 Z"
       style="fill:#e4e4e4"
       id="path10" />
    <path
       d="m 15,4 v 45 c 0,0 6,3 17,3 11,0 17,-3 17,-3 V 4 L 38,18 H 26 Z"
       style="fill:#9966ff"
       id="path14" />
    <circle
       cx="25"
       cy="40"
       r="7"
       style="opacity:0.2"
       id="circle16" />
    <circle
       cx="25"
       cy="39"
       r="7"
       style="fill:#15b7ff"
       id="circle18" />
    <circle
       cx="39"
       cy="40"
       r="7"
       style="opacity:0.2"
       id="circle20" />
    <circle
       cx="39"
       cy="39"
       r="7"
       style="fill:#15b7ff"
       id="circle22" />
    <path
       d="M 15,4 V 5 L 26,19 H 38 L 49,5 V 4 L 38,18 H 26 Z"
       style="opacity:0.2;fill:#ffffff"
       id="path24" />
    <path
       d="m 25,32 a 7,7 0 0 0 -7,7 7,7 0 0 0 0.02344,0.541016 A 7,7 0 0 1 25,33 7,7 0 0 1 31.976562,39.458984 7,7 0 0 0 32,39 7,7 0 0 0 25,32 Z"
       style="opacity:0.2;fill:#ffffff"
       id="path26" />
    <path
       d="m 39,32 a 7,7 0 0 0 -7,7 7,7 0 0 0 0.02344,0.541016 A 7,7 0 0 1 39,33 7,7 0 0 1 45.976562,39.458984 7,7 0 0 0 46,39 7,7 0 0 0 39,32 Z"
       style="opacity:0.2;fill:#ffffff"
       id="path28" />
  </g>
</svg>
