<?xml version="1.0" encoding="UTF-8"?>
<svg width="64" height="64" version="1.1" viewBox="0 0 16.933 16.933" xmlns="http://www.w3.org/2000/svg" xmlns:cc="http://creativecommons.org/ns#" xmlns:dc="http://purl.org/dc/elements/1.1/" xmlns:rdf="http://www.w3.org/1999/02/22-rdf-syntax-ns#" xmlns:xlink="http://www.w3.org/1999/xlink">
 <defs>
  <linearGradient id="linearGradient889" x1="-27.781" x2="-42.333" y1="1.0583" y2="15.611" gradientTransform="matrix(1 0 0 1 43.182 .8788)" gradientUnits="userSpaceOnUse">
   <stop stop-color="#ff8c55" offset="0"/>
   <stop stop-color="#ff5a1e" offset="1"/>
  </linearGradient>
 </defs>
 <metadata>
  <rdf:RDF>
   <cc:Work rdf:about="">
    <dc:format>image/svg+xml</dc:format>
    <dc:type rdf:resource="http://purl.org/dc/dcmitype/StillImage"/>
    <dc:title/>
   </cc:Work>
  </rdf:RDF>
 </metadata>
 <g transform="translate(.34018 -.7465)">
  <rect x=".85045" y="1.9371" width="14.552" height="14.552" ry=".79373" fill="url(#linearGradient889)" stroke-width=".91667"/>
  <path d="m3.6797 2.8572c-0.27345 0-0.4936 0.22013-0.4936 0.4936v3.1032c5.0313 0 6.875 3.0974 7.6395 5.4531h2.0457c0.27345 0 0.4936-0.22013 0.4936-0.4936v-8.0627c0-0.27345-0.22012-0.4936-0.4936-0.4936z" fill="#fff" stroke-width=".63657"/>
  <path d="m3.1939 7.5812v1.3097c2.8934 0 5.2387 2.3453 5.2387 5.2387h1.3097c0-3.6181-2.9317-6.5483-6.5483-6.5483m0 2.6193v1.3097c1.4465 0 2.6193 1.1728 2.6193 2.6193h1.3097c0-2.1698-1.7592-3.929-3.929-3.929m0 2.6193c-0.72328 0-1.3097 0.58639-1.3097 1.3097s0.58639 1.3097 1.3097 1.3097c0.72328 0 1.3097-0.58639 1.3097-1.3097s-0.58639-1.3097-1.3097-1.3097" fill="#fff" stroke-linejoin="round" stroke-width="1.4552"/>
  <g fill="#969696" stroke-width=".040248">
   <path d="m3.8391 5.1258v0.44099h0.19967q0.11084 0 0.17137-0.057385 0.060528-0.057385 0.060528-0.16351 0-0.10534-0.060528-0.16272-0.060528-0.057385-0.17137-0.057385zm-0.15879-0.13049h0.35846q0.19731 0 0.29792 0.089615 0.10141 0.088829 0.10141 0.26099 0 0.17373-0.10141 0.26256-0.10062 0.088829-0.29792 0.088829h-0.19967v0.47165h-0.15879z"/>
   <path d="m4.6447 4.9459h0.14464v1.2232h-0.14464z"/>
   <path d="m5.4921 5.7266q-0.1753 0-0.24289 0.040091-0.067603 0.04009-0.067603 0.13678 0 0.077037 0.050311 0.12263 0.051096 0.044808 0.13835 0.044808 0.12027 0 0.19259-0.084898 0.073106-0.085684 0.073106-0.22718v-0.03223zm0.28849-0.059742v0.50231h-0.14464v-0.13363q-0.049525 0.080181-0.12342 0.1187-0.073892 0.037733-0.1808 0.037733-0.13521 0-0.21539-0.075466-0.079395-0.076252-0.079395-0.2036 0-0.14857 0.099047-0.22404 0.099833-0.075466 0.29715-0.075466h0.20281v-0.01415q0-0.099833-0.066032-0.15408-0.065245-0.055025-0.18394-0.055025-0.075466 0-0.147 0.018082-0.071535 0.018082-0.13757 0.054239v-0.13364q0.079395-0.030658 0.15407-0.045594 0.07468-0.015721 0.14543-0.015721 0.19102 0 0.28536 0.099047 0.09433 0.099047 0.09433 0.30028z"/>
   <path d="m6.64 5.3145v0.13678q-0.061314-0.031444-0.12735-0.047165-0.066031-0.015721-0.13678-0.015721-0.1077 0-0.16194 0.033016-0.053454 0.033016-0.053454 0.099047 0 0.050311 0.038519 0.079395 0.038519 0.028299 0.15486 0.05424l0.049525 0.011007q0.15408 0.033015 0.21853 0.093544 0.065246 0.059743 0.065246 0.16744 0 0.12263-0.097476 0.19417-0.09669 0.071534-0.26649 0.071534-0.070749 0-0.14779-0.01415-0.076252-0.013364-0.16115-0.040876v-0.14936q0.080181 0.041662 0.158 0.062888 0.077824 0.020439 0.15408 0.020439 0.10219 0 0.15722-0.034587 0.055025-0.035376 0.055025-0.099047 0-0.058957-0.040091-0.090401-0.039304-0.031444-0.17373-0.060529l-0.050311-0.011792q-0.13442-0.028299-0.19416-0.08647-0.059743-0.058957-0.059743-0.16115 0-0.1242 0.088043-0.19181 0.088044-0.067603 0.24998-0.067603 0.080181 0 0.15093 0.011793 0.070749 0.011792 0.13049 0.035373z"/>
   <path d="m7.6029 5.4576q0.054239-0.097475 0.12971-0.14385 0.075466-0.046379 0.17766-0.046379 0.13757 0 0.21225 0.09669 0.07468 0.095904 0.07468 0.27355v0.53141h-0.14543v-0.52668q0-0.12656-0.044807-0.18788-0.044808-0.061316-0.13678-0.061316-0.11241 0-0.17766 0.07468-0.065246 0.07468-0.065246 0.2036v0.4976h-0.14543v-0.52668q0-0.12735-0.044808-0.18788-0.044807-0.061317-0.13835-0.061317-0.11084 0-0.17608 0.075466-0.065246 0.07468-0.065246 0.20281v0.4976h-0.14543v-0.88043h0.14543v0.13678q0.049525-0.080966 0.1187-0.11949 0.069177-0.038519 0.16429-0.038519 0.095904 0 0.16272 0.048739 0.067603 0.048739 0.099833 0.1415z"/>
   <path d="m8.8859 5.7266q-0.1753 0-0.24289 0.040091-0.067603 0.04009-0.067603 0.13678 0 0.077037 0.050311 0.12263 0.051096 0.044808 0.13835 0.044808 0.12027 0 0.19259-0.084898 0.073106-0.085684 0.073106-0.22718v-0.03223zm0.28849-0.059742v0.50231h-0.14464v-0.13363q-0.049525 0.080181-0.12342 0.1187-0.073892 0.037733-0.1808 0.037733-0.13521 0-0.21539-0.075466-0.079395-0.076252-0.079395-0.2036 0-0.14857 0.099047-0.22404 0.099833-0.075466 0.29715-0.075466h0.20281v-0.01415q0-0.099833-0.066031-0.15408-0.065246-0.055025-0.18395-0.055025-0.075466 0-0.147 0.018082-0.071534 0.018082-0.13757 0.054239v-0.13364q0.079395-0.030658 0.15407-0.045594 0.07468-0.015721 0.14543-0.015721 0.19102 0 0.28536 0.099047 0.094332 0.099047 0.094332 0.30028z"/>
   <path d="m9.9904 4.9953h0.15879v0.49602l0.52668-0.49602h0.20439l-0.58249 0.54712 0.62415 0.62651h-0.2091l-0.56362-0.56519v0.56519h-0.15879z"/>
   <path d="m11.205 5.1258v0.91264h0.19181q0.24289 0 0.35531-0.11005 0.1132-0.11005 0.1132-0.34745 0-0.23583-0.1132-0.3451-0.11241-0.11005-0.35531-0.11005zm-0.15879-0.13049h0.32623q0.34117 0 0.50075 0.14228 0.15958 0.1415 0.15958 0.44335 0 0.30343-0.16036 0.44572-0.16036 0.14229-0.49995 0.14228h-0.32623z"/>
   <path d="m12.286 4.9953h0.74207v0.13364h-0.58329v0.34745h0.55891v0.13363h-0.55891v0.42528h0.59743v0.13363h-0.75621z"/>
  </g>
  <path d="m3.1864 6.4539c0.62891 0 1.2079 0.04855 1.7413 0.13784 0.53342 0.089295 1.0209 0.21915 1.467 0.38274 0.44616 0.1636 0.85072 0.36069 1.2179 0.58358 0.36714 0.2229 0.69698 0.47175 0.99333 0.73897 0.087614 0.078997 0.15259 0.16904 0.23448 0.25107h4.5237v-2.0942h-10.178z" fill="#00a2ef" stroke-width=".72791"/>
  <g fill="#969696" stroke-width=".0098326">
   <path d="m3.719 3.5849v0.10773h0.048779q0.027078 0 0.041865-0.01402 0.014788-0.01402 0.014788-0.039945 0-0.025733-0.014788-0.039753t-0.041865-0.01402zm-0.038792-0.031879h0.087572q0.048202 0 0.072783 0.021892 0.024773 0.021701 0.024773 0.063759 0 0.042442-0.024773 0.064144-0.024582 0.021701-0.072783 0.021701h-0.048779v0.11522h-0.038792z"/>
   <path d="m3.9158 3.5409h0.035336v0.29882h-0.035336z"/>
   <path d="m4.1228 3.7316q-0.042825 0-0.059339 0.00979-0.016515 0.00979-0.016515 0.033415 0 0.01882 0.01229 0.029959 0.012483 0.010946 0.033799 0.010946 0.029382 0 0.047051-0.020741 0.017859-0.020934 0.017859-0.0555v-0.00787zm0.070478-0.014594v0.12271h-0.035336v-0.032647q-0.012099 0.019587-0.030151 0.028998-0.018052 0.00922-0.04417 0.00922-0.033031 0-0.052619-0.018436-0.019397-0.018629-0.019397-0.049739 0-0.036296 0.024196-0.054732 0.024389-0.018436 0.072593-0.018436h0.049547v-0.00346q0-0.024389-0.016132-0.03764-0.015938-0.013444-0.044938-0.013444-0.018436 0-0.035912 0.00442t-0.033607 0.01325v-0.032647q0.019397-0.00749 0.03764-0.011139 0.018243-0.00384 0.035528-0.00384 0.046666 0 0.069714 0.024196 0.023045 0.024196 0.023045 0.073358z"/>
   <path d="m4.4033 3.631v0.033416q-0.014978-0.00768-0.031111-0.011523-0.016132-0.00384-0.033415-0.00384-0.02631 0-0.039561 0.00806-0.01306 0.00806-0.01306 0.024196 0 0.01229 0.00941 0.019397 0.00941 0.00691 0.037832 0.01325l0.012099 0.00269q0.03764 0.00806 0.053388 0.022852 0.015938 0.014595 0.015938 0.040905 0 0.029958-0.023813 0.047435-0.023622 0.017476-0.065104 0.017476-0.017285 0-0.036104-0.00346-0.018629-0.00326-0.039369-0.00999v-0.036488q0.019587 0.010179 0.0386 0.015364 0.019013 0.00499 0.03764 0.00499 0.024966 0 0.038409-0.00845 0.013444-0.00864 0.013444-0.024196 0-0.014404-0.00979-0.022085-0.0096-0.00768-0.042442-0.014788l-0.01229-0.00288q-0.032839-0.00691-0.047435-0.021124-0.014594-0.014404-0.014594-0.039369 0-0.030342 0.021508-0.046858 0.021508-0.016515 0.061069-0.016515 0.019587 0 0.036872 0.00288t0.031879 0.00864z"/>
   <path d="m4.6385 3.6659q0.01325-0.023813 0.031687-0.035144 0.018436-0.011329 0.043401-0.011329 0.033607 0 0.051852 0.023622 0.018246 0.023429 0.018246 0.066828v0.12982h-0.035528v-0.12867q0-0.030919-0.010946-0.045898-0.010946-0.014981-0.033415-0.014981-0.027462 0-0.043401 0.018243-0.015938 0.018246-0.015938 0.049739v0.12156h-0.035529v-0.12867q0-0.031111-0.010946-0.045898-0.010946-0.014981-0.033799-0.014981-0.027078 0-0.043017 0.018436-0.015938 0.018246-0.015938 0.049547v0.12156h-0.035529v-0.21509h0.035528v0.033416q0.012099-0.01978 0.028998-0.02919t0.040137-0.00941q0.023429 0 0.039753 0.011906 0.016515 0.011906 0.024389 0.034568z"/>
   <path d="m4.9519 3.7316q-0.042825 0-0.059339 0.00979-0.016515 0.00979-0.016515 0.033415 0 0.01882 0.01229 0.029959 0.012483 0.010946 0.033799 0.010946 0.029383 0 0.047051-0.020741 0.017859-0.020934 0.017859-0.0555v-0.00787zm0.070478-0.014594v0.12271h-0.035336v-0.032647q-0.012099 0.019587-0.030151 0.028998-0.018052 0.00922-0.04417 0.00922-0.033031 0-0.05262-0.018436-0.019397-0.018629-0.019397-0.049739 0-0.036296 0.024196-0.054732 0.024389-0.018436 0.072593-0.018436h0.049549v-0.00346q0-0.024389-0.016132-0.03764-0.015939-0.013444-0.044938-0.013444-0.018436 0-0.035912 0.00442t-0.033607 0.01325v-0.032647q0.019397-0.00749 0.03764-0.011139 0.018243-0.00384 0.035528-0.00384 0.046666 0 0.069714 0.024196 0.023045 0.024196 0.023045 0.073358z"/>
   <path d="m5.2217 3.553h0.038792v0.12118l0.12867-0.12118h0.049931l-0.1423 0.13366 0.15248 0.15306h-0.051083l-0.13769-0.13808v0.13808h-0.038792z"/>
   <path d="m5.5184 3.5849v0.22296h0.046859q0.059339 0 0.086802-0.026886 0.027654-0.026886 0.027654-0.084882 0-0.057613-0.027654-0.084307-0.027462-0.026886-0.086802-0.026886zm-0.038792-0.031879h0.079698q0.083347 0 0.12233 0.03476 0.038985 0.034568 0.038985 0.10831 0 0.074128-0.039177 0.10889-0.039177 0.034762-0.12214 0.03476h-0.079697z"/>
   <path d="m5.7825 3.553h0.18129v0.032647h-0.1425v0.084882h0.13654v0.032647h-0.13654v0.1039h0.14595v0.032647h-0.18474z"/>
   <path d="m8.4706 3.5849v0.10773h0.048779q0.027078 0 0.041865-0.01402 0.014788-0.01402 0.014788-0.039945 0-0.025733-0.014788-0.039753t-0.041865-0.01402zm-0.038792-0.031879h0.087572q0.048202 0 0.072783 0.021892 0.024773 0.021701 0.024773 0.063759 0 0.042442-0.024773 0.064144-0.024582 0.021701-0.072783 0.021701h-0.04878v0.11522h-0.038792z"/>
   <path d="m8.6675 3.5409h0.035336v0.29882h-0.035336z"/>
   <path d="m8.8745 3.7316q-0.042825 0-0.059339 0.00979-0.016515 0.00979-0.016515 0.033415 0 0.01882 0.01229 0.029959 0.012483 0.010946 0.033799 0.010946 0.029382 0 0.047051-0.020741 0.017859-0.020934 0.017859-0.0555v-0.00787zm0.070478-0.014594v0.12271h-0.035336v-0.032647q-0.012099 0.019587-0.030151 0.028998-0.018053 0.00922-0.04417 0.00922-0.033031 0-0.05262-0.018436-0.019397-0.018629-0.019397-0.049739 0-0.036296 0.024196-0.054732 0.024389-0.018436 0.072593-0.018436h0.049547v-0.00346q0-0.024389-0.016132-0.03764-0.015939-0.013444-0.044938-0.013444-0.018436 0-0.035912 0.00442t-0.033607 0.01325v-0.032647q0.019397-0.00749 0.037641-0.011139 0.018243-0.00384 0.035528-0.00384 0.046666 0 0.069714 0.024196 0.023045 0.024196 0.023045 0.073358z"/>
   <path d="m9.1549 3.631v0.033416q-0.014978-0.00768-0.031111-0.011523-0.016132-0.00384-0.033415-0.00384-0.02631 0-0.039561 0.00806-0.01306 0.00806-0.01306 0.024196 0 0.01229 0.00941 0.019397 0.00941 0.00691 0.037832 0.01325l0.012099 0.00269q0.03764 0.00806 0.053388 0.022852 0.015938 0.014595 0.015938 0.040905 0 0.029958-0.023813 0.047435-0.023622 0.017476-0.065104 0.017476-0.017285 0-0.036104-0.00346-0.018629-0.00326-0.039369-0.00999v-0.036488q0.019587 0.010179 0.0386 0.015364 0.019013 0.00499 0.03764 0.00499 0.024966 0 0.038408-0.00845 0.013444-0.00864 0.013444-0.024196 0-0.014404-0.00979-0.022085-0.0096-0.00768-0.042441-0.014788l-0.01229-0.00288q-0.032839-0.00691-0.047434-0.021124-0.014595-0.014404-0.014595-0.039369 0-0.030342 0.021508-0.046858 0.021508-0.016515 0.061069-0.016515 0.019587 0 0.036872 0.00288t0.031879 0.00864z"/>
   <path d="m9.3901 3.6659q0.01325-0.023813 0.031687-0.035144 0.018436-0.011329 0.043401-0.011329 0.033607 0 0.051852 0.023622 0.018243 0.023429 0.018243 0.066828v0.12982h-0.035526v-0.12867q0-0.030919-0.010946-0.045898-0.010946-0.014981-0.033415-0.014981-0.027462 0-0.043401 0.018243-0.015938 0.018246-0.015938 0.049739v0.12156h-0.035529v-0.12867q0-0.031111-0.010946-0.045898-0.010946-0.014981-0.033799-0.014981-0.027078 0-0.043018 0.018436-0.015938 0.018246-0.015938 0.049547v0.12156h-0.035531v-0.21509h0.035528v0.033416q0.012099-0.01978 0.028998-0.02919t0.040137-0.00941q0.023429 0 0.039753 0.011906 0.016515 0.011906 0.024389 0.034568z"/>
   <path d="m9.7036 3.7316q-0.042825 0-0.059339 0.00979-0.016515 0.00979-0.016515 0.033415 0 0.01882 0.01229 0.029959 0.012483 0.010946 0.0338 0.010946 0.029383 0 0.047051-0.020741 0.017859-0.020934 0.017859-0.0555v-0.00787zm0.070478-0.014594v0.12271h-0.035336v-0.032647q-0.012099 0.019587-0.030151 0.028998-0.018053 0.00922-0.04417 0.00922-0.033031 0-0.05262-0.018436-0.019397-0.018629-0.019397-0.049739 0-0.036296 0.024196-0.054732 0.024389-0.018436 0.072593-0.018436h0.049547v-0.00346q0-0.024389-0.016132-0.03764-0.015939-0.013444-0.044938-0.013444-0.018436 0-0.035912 0.00442t-0.033607 0.01325v-0.032647q0.019397-0.00749 0.03764-0.011139 0.018243-0.00384 0.035528-0.00384 0.046666 0 0.069714 0.024196 0.023045 0.024196 0.023045 0.073358z"/>
   <path d="m9.9734 3.553h0.038792v0.12118l0.12867-0.12118h0.04993l-0.1423 0.13366 0.15248 0.15306h-0.05108l-0.13769-0.13808v0.13808h-0.038792z"/>
   <path d="m10.27 3.5849v0.22296h0.04686q0.05934 0 0.0868-0.026886 0.02765-0.026886 0.02765-0.084882 0-0.057613-0.02765-0.084307-0.02746-0.026886-0.0868-0.026886zm-0.03879-0.031879h0.0797q0.08335 0 0.12233 0.03476 0.03899 0.034568 0.03899 0.10831 0 0.074128-0.03918 0.10889-0.03918 0.034762-0.12214 0.03476h-0.0797z"/>
   <path d="m10.534 3.553h0.18129v0.032647h-0.1425v0.084882h0.13654v0.032647h-0.13654v0.1039h0.14595v0.032647h-0.18474z"/>
   <path d="m10.886 3.5849v0.10773h0.04878q0.02708 0 0.04186-0.01402 0.01479-0.01402 0.01479-0.039945 0-0.025733-0.01479-0.039753t-0.04186-0.01402zm-0.03879-0.031879h0.08757q0.0482 0 0.07278 0.021892 0.02477 0.021701 0.02477 0.063759 0 0.042442-0.02477 0.064144-0.02458 0.021701-0.07278 0.021701h-0.04878v0.11522h-0.03879z"/>
   <path d="m11.083 3.5409h0.03533v0.29882h-0.03533z"/>
   <path d="m11.29 3.7316q-0.04283 0-0.05934 0.00979-0.01652 0.00979-0.01652 0.033415 0 0.01882 0.01229 0.029959 0.01248 0.010946 0.0338 0.010946 0.02938 0 0.04705-0.020741 0.01786-0.020934 0.01786-0.0555v-0.00787zm0.07048-0.014594v0.12271h-0.03534v-0.032647q-0.0121 0.019587-0.03015 0.028998-0.01805 0.00922-0.04417 0.00922-0.03303 0-0.05262-0.018436-0.0194-0.018629-0.0194-0.049739 0-0.036296 0.0242-0.054732 0.02439-0.018436 0.07259-0.018436h0.04955v-0.00346q0-0.024389-0.01613-0.03764-0.01594-0.013444-0.04494-0.013444-0.01844 0-0.03591 0.00442-0.01748 0.00442-0.03361 0.01325v-0.032647q0.0194-0.00749 0.03764-0.011139 0.01825-0.00384 0.03553-0.00384 0.04667 0 0.06971 0.024196 0.02305 0.024196 0.02305 0.073358z"/>
   <path d="m11.571 3.631v0.033416q-0.01498-0.00768-0.03111-0.011523-0.01613-0.00384-0.03341-0.00384-0.02631 0-0.03956 0.00806-0.01306 0.00806-0.01306 0.024196 0 0.01229 0.0094 0.019397 0.0094 0.00691 0.03783 0.01325l0.0121 0.00269q0.03764 0.00806 0.05339 0.022852 0.01594 0.014595 0.01594 0.040905 0 0.029958-0.02381 0.047435-0.02362 0.017476-0.0651 0.017476-0.01729 0-0.0361-0.00346-0.01863-0.00326-0.03937-0.00999v-0.036488q0.01959 0.010179 0.0386 0.015364 0.01901 0.00499 0.03764 0.00499 0.02497 0 0.03841-0.00845 0.01344-0.00864 0.01344-0.024196 0-0.014404-0.0098-0.022085-0.0096-0.00768-0.04244-0.014788l-0.01229-0.00288q-0.03284-0.00691-0.04743-0.021124-0.01459-0.014404-0.01459-0.039369 0-0.030342 0.02151-0.046858 0.02151-0.016515 0.06107-0.016515 0.01959 0 0.03687 0.00288 0.01729 0.00288 0.03188 0.00864z"/>
   <path d="m11.806 3.6659q0.01325-0.023813 0.03169-0.035144 0.01844-0.011329 0.0434-0.011329 0.03361 0 0.05185 0.023622 0.01825 0.023429 0.01825 0.066828v0.12982h-0.03553v-0.12867q0-0.030919-0.01095-0.045898-0.01095-0.014981-0.03341-0.014981-0.02746 0-0.0434 0.018243-0.01594 0.018246-0.01594 0.049739v0.12156h-0.035531v-0.12867q0-0.031111-0.01095-0.045898-0.01094-0.014981-0.0338-0.014981-0.02708 0-0.04302 0.018436-0.01594 0.018246-0.01594 0.049547v0.12156h-0.03553v-0.21509h0.03553v0.033416q0.0121-0.01978 0.029-0.02919t0.04014-0.00941q0.02343 0 0.03975 0.011906 0.01652 0.011906 0.02439 0.034568z"/>
   <path d="m12.119 3.7316q-0.04283 0-0.05934 0.00979-0.01652 0.00979-0.01652 0.033415 0 0.01882 0.01229 0.029959 0.01248 0.010946 0.0338 0.010946 0.02938 0 0.04705-0.020741 0.01786-0.020934 0.01786-0.0555v-0.00787zm0.07048-0.014594v0.12271h-0.03534v-0.032647q-0.0121 0.019587-0.03015 0.028998-0.01805 0.00922-0.04417 0.00922-0.03303 0-0.05262-0.018436-0.0194-0.018629-0.0194-0.049739 0-0.036296 0.0242-0.054732 0.02439-0.018436 0.07259-0.018436h0.04955v-0.00346q0-0.024389-0.01613-0.03764-0.01594-0.013444-0.04494-0.013444-0.01844 0-0.03591 0.00442-0.01748 0.00442-0.03361 0.01325v-0.032647q0.0194-0.00749 0.03764-0.011139 0.01825-0.00384 0.03553-0.00384 0.04667 0 0.06971 0.024196t0.02304 0.073358z"/>
   <path d="m12.389 3.553h0.03879v0.12118l0.12867-0.12118h0.04993l-0.1423 0.13366 0.15248 0.15306h-0.05108l-0.13769-0.13808v0.13808h-0.03879z"/>
   <path d="m12.686 3.5849v0.22296h0.04686q0.05934 0 0.0868-0.026886 0.02765-0.026886 0.02765-0.084882 0-0.057613-0.02765-0.084307-0.02746-0.026886-0.0868-0.026886zm-0.03879-0.031879h0.0797q0.08335 0 0.12233 0.03476 0.03899 0.034568 0.03899 0.10831 0 0.074128-0.03918 0.10889-0.03918 0.034762-0.12214 0.03476h-0.0797z"/>
   <path d="m12.95 3.553h0.18129v0.032647h-0.1425v0.084882h0.13654v0.032647h-0.13654v0.1039h0.14595v0.032647h-0.18474z"/>
   <path d="m10.886 8.9669v0.10773h0.04878q0.02708 0 0.04186-0.01402 0.01479-0.01402 0.01479-0.039945 0-0.025733-0.01479-0.039753t-0.04186-0.01402zm-0.03879-0.031879h0.08757q0.0482 0 0.07278 0.021892 0.02477 0.021701 0.02477 0.063759 0 0.042441-0.02477 0.064144-0.02458 0.021701-0.07278 0.021701h-0.04878v0.11522h-0.03879z"/>
   <path d="m11.083 8.9229h0.03533v0.29882h-0.03533z"/>
   <path d="m11.29 9.1136q-0.04283 0-0.05934 0.00979-0.01652 0.00979-0.01652 0.033415 0 0.01882 0.01229 0.029959 0.01248 0.010946 0.0338 0.010946 0.02938 0 0.04705-0.020741 0.01786-0.020931 0.01786-0.0555v-0.00787zm0.07048-0.014594v0.12271h-0.03534v-0.032647q-0.0121 0.019587-0.03015 0.028998-0.01805 0.00922-0.04417 0.00922-0.03303 0-0.05262-0.018436-0.0194-0.018629-0.0194-0.049739 0-0.036296 0.0242-0.054732 0.02439-0.018436 0.07259-0.018436h0.04955v-0.00346q0-0.024389-0.01613-0.03764-0.01594-0.013444-0.04494-0.013444-0.01844 0-0.03591 0.00442-0.01748 0.00442-0.03361 0.01325v-0.032644q0.0194-0.00749 0.03764-0.011139 0.01825-0.00384 0.03553-0.00384 0.04667 0 0.06971 0.024196 0.02305 0.024196 0.02305 0.073358z"/>
   <path d="m11.571 9.013v0.033415q-0.01498-0.00768-0.03111-0.011523-0.01613-0.00384-0.03341-0.00384-0.02631 0-0.03956 0.00806-0.01306 0.00806-0.01306 0.024196 0 0.01229 0.0094 0.019397 0.0094 0.00691 0.03783 0.01325l0.0121 0.00269q0.03764 0.00807 0.05339 0.022852 0.01594 0.014594 0.01594 0.040905 0 0.029959-0.02381 0.047434-0.02362 0.017476-0.0651 0.017476-0.01729 0-0.0361-0.00346-0.01863-0.00326-0.03937-0.00999v-0.036488q0.01959 0.010179 0.0386 0.015364 0.01901 0.00499 0.03764 0.00499 0.02497 0 0.03841-0.00845 0.01344-0.00864 0.01344-0.024196 0-0.014404-0.0098-0.022085-0.0096-0.00768-0.04244-0.014787l-0.01229-0.00288q-0.03284-0.00691-0.04743-0.021124-0.01459-0.014404-0.01459-0.039369 0-0.030343 0.02151-0.046859 0.02151-0.016515 0.06107-0.016515 0.01959 0 0.03687 0.00288 0.01729 0.00288 0.03188 0.00864z"/>
   <path d="m11.806 9.0479q0.01325-0.023813 0.03169-0.035144 0.01844-0.01133 0.0434-0.01133 0.03361 0 0.05185 0.023622 0.01825 0.023429 0.01825 0.066829v0.12982h-0.03553v-0.12867q0-0.030919-0.01095-0.045898-0.01095-0.014981-0.03341-0.014981-0.02746 0-0.0434 0.018243-0.01594 0.018246-0.01594 0.049739v0.12156h-0.035531v-0.12867q0-0.031111-0.01095-0.045898-0.01094-0.014981-0.0338-0.014981-0.02708 0-0.04302 0.018436-0.01594 0.018246-0.01594 0.049547v0.12156h-0.03553v-0.21509h0.03553v0.033415q0.0121-0.01978 0.029-0.02919t0.04014-0.00941q0.02343 0 0.03975 0.011906 0.01652 0.011906 0.02439 0.034568z"/>
   <path d="m12.119 9.1136q-0.04283 0-0.05934 0.00979-0.01652 0.00979-0.01652 0.033415 0 0.01882 0.01229 0.029959 0.01248 0.010946 0.0338 0.010946 0.02938 0 0.04705-0.020741 0.01786-0.020931 0.01786-0.0555v-0.00787zm0.07048-0.014594v0.12271h-0.03534v-0.032647q-0.0121 0.019587-0.03015 0.028998-0.01805 0.00922-0.04417 0.00922-0.03303 0-0.05262-0.018436-0.0194-0.018629-0.0194-0.049739 0-0.036296 0.0242-0.054732 0.02439-0.018436 0.07259-0.018436h0.04955v-0.00346q0-0.024389-0.01613-0.03764-0.01594-0.013444-0.04494-0.013444-0.01844 0-0.03591 0.00442-0.01748 0.00442-0.03361 0.01325v-0.032644q0.0194-0.00749 0.03764-0.011139 0.01825-0.00384 0.03553-0.00384 0.04667 0 0.06971 0.024196t0.02304 0.073358z"/>
   <path d="m12.389 8.935h0.03879v0.12118l0.12867-0.12118h0.04993l-0.1423 0.13366 0.15248 0.15306h-0.05108l-0.13769-0.13808v0.13808h-0.03879z"/>
   <path d="m12.686 8.9669v0.22296h0.04686q0.05934 0 0.0868-0.026886 0.02765-0.026886 0.02765-0.084882 0-0.057613-0.02765-0.084307-0.02746-0.026886-0.0868-0.026886zm-0.03879-0.031879h0.0797q0.08335 0 0.12233 0.03476 0.03899 0.034568 0.03899 0.10831 0 0.074128-0.03918 0.10889-0.03918 0.034762-0.12214 0.03476h-0.0797z"/>
   <path d="m12.95 8.935h0.18129v0.032647h-0.1425v0.084882h0.13654v0.032647h-0.13654v0.1039h0.14595v0.032647h-0.18474z"/>
  </g>
 </g>
</svg>
