<?xml version="1.0" encoding="UTF-8" standalone="no"?>
<svg
   xmlns:dc="http://purl.org/dc/elements/1.1/"
   xmlns:cc="http://creativecommons.org/ns#"
   xmlns:rdf="http://www.w3.org/1999/02/22-rdf-syntax-ns#"
   xmlns:svg="http://www.w3.org/2000/svg"
   xmlns="http://www.w3.org/2000/svg"
   xmlns:sodipodi="http://sodipodi.sourceforge.net/DTD/sodipodi-0.dtd"
   xmlns:inkscape="http://www.inkscape.org/namespaces/inkscape"
   width="64"
   height="64"
   version="1.1"
   id="svg155"
   sodipodi:docname="akregator.svg"
   inkscape:version="1.0.1 (3bc2e813f5, 2020-09-07)">
  <sodipodi:namedview
     pagecolor="#ffffff"
     bordercolor="#666666"
     borderopacity="1"
     objecttolerance="10"
     gridtolerance="10"
     guidetolerance="10"
     inkscape:pageopacity="0"
     inkscape:pageshadow="2"
     inkscape:window-width="1920"
     inkscape:window-height="935"
     id="namedview157"
     showgrid="false"
     inkscape:zoom="4.2813106"
     inkscape:cx="-2.6675392"
     inkscape:cy="39.063809"
     inkscape:window-x="0"
     inkscape:window-y="38"
     inkscape:window-maximized="1"
     inkscape:current-layer="svg155" />
  <metadata
     id="metadata2">
    <rdf:RDF>
      <cc:Work
         rdf:about="">
        <dc:format>image/svg+xml</dc:format>
        <dc:type
           rdf:resource="http://purl.org/dc/dcmitype/StillImage" />
        <dc:title></dc:title>
      </cc:Work>
    </rdf:RDF>
  </metadata>
  <defs
     id="defs15">
    <style
       type="text/css"
       id="style4" />
    <linearGradient
       id="linearGradient889"
       x1="-27.781"
       x2="-42.333"
       y1="1.0583"
       y2="15.611"
       gradientTransform="matrix(4.1232,0,0,4.1232,176.54,-2.3643)"
       gradientUnits="userSpaceOnUse">
      <stop
         stop-color="#ff8c55"
         offset="0"
         id="stop6" />
      <stop
         stop-color="#ff5a1e"
         offset="1"
         id="stop8" />
    </linearGradient>
    <style
       type="text/css"
       id="style11" />
    <style
       type="text/css"
       id="style13" />
  </defs>
  <style
     type="text/css"
     id="style17">.st0{opacity:0.15;fill:#45413C;}
	.st1{fill:#FFE500;}
	.st2{fill:#EBCB00;}
	.st3{fill:none;stroke:#45413C;stroke-linecap:round;stroke-linejoin:round;stroke-miterlimit:10;}
	.st4{fill:#FFAA54;}
	.st5{fill:#FF8A14;}
	.st6{fill:#FFB0CA;stroke:#45413C;stroke-linecap:round;stroke-linejoin:round;stroke-miterlimit:10;}
	.st7{fill:#FF87AF;stroke:#45413C;stroke-linecap:round;stroke-linejoin:round;stroke-miterlimit:10;}
	.st8{fill:#FFCC99;}
	.st9{fill:#FFFFFF;}
	.st10{fill:#F0F0F0;}
	.st11{fill:#BF8256;}
	.st12{fill:#915E3A;}
	.st13{fill:#DEA47A;}
	.st14{fill:#F0D5A8;}
	.st15{fill:#DEBB7E;}
	.st16{fill:#F7E5C6;}
	.st17{fill:#FF8A14;stroke:#45413C;stroke-linecap:round;stroke-linejoin:round;stroke-miterlimit:10;}
	.st18{fill:#FFF5E3;}
	.st19{fill:#FFF48C;}
	.st20{fill:#FFFACF;}
	.st21{fill:#FFFCE5;}
	.st22{fill:#FF87AF;}
	.st23{fill:#FFB0CA;}
	.st24{fill:#FFE500;stroke:#45413C;stroke-linecap:round;stroke-linejoin:round;stroke-miterlimit:10;}
	.st25{fill:#9CEB60;stroke:#45413C;stroke-linecap:round;stroke-linejoin:round;stroke-miterlimit:10;}
	.st26{fill:#FFFACF;stroke:#45413C;stroke-linecap:round;stroke-linejoin:round;stroke-miterlimit:10;}
	.st27{fill:#00F5BC;stroke:#45413C;stroke-linecap:round;stroke-linejoin:round;stroke-miterlimit:10;}
	.st28{fill:#BF8256;stroke:#45413C;stroke-linecap:round;stroke-linejoin:round;stroke-miterlimit:10;}
	.st29{fill:#FFE3CF;stroke:#45413C;stroke-linecap:round;stroke-linejoin:round;stroke-miterlimit:10;}
	.st30{fill:#FF6242;}
	.st31{fill:#FF866E;}
	.st32{fill:none;stroke:#E04122;stroke-linecap:round;stroke-linejoin:round;stroke-miterlimit:10;}
	.st33{fill:#FFFEF2;stroke:#45413C;stroke-linecap:round;stroke-linejoin:round;stroke-miterlimit:10;}
	.st34{fill:#FF6242;stroke:#45413C;stroke-linecap:round;stroke-linejoin:round;stroke-miterlimit:10;}
	.st35{fill:#FFA694;}
	.st36{fill:#FFFFFF;stroke:#45413C;stroke-linecap:round;stroke-linejoin:round;stroke-miterlimit:10;}
	.st37{fill:#FFFEF2;}
	.st38{fill:#FF6196;}
	.st39{fill:#B89558;}
	.st40{fill:none;stroke:#915E3A;stroke-linecap:round;stroke-linejoin:round;stroke-miterlimit:10;}
	.st41{fill:#DEBB7E;stroke:#45413C;stroke-linecap:round;stroke-linejoin:round;stroke-miterlimit:10;}
	.st42{fill:#6DD627;stroke:#45413C;stroke-linecap:round;stroke-linejoin:round;stroke-miterlimit:10;}
	.st43{fill:#E5F8FF;}
	.st44{fill:#E8F4FA;}
	.st45{fill:#E8F4FA;stroke:#45413C;stroke-linecap:round;stroke-linejoin:round;stroke-miterlimit:10;}
	.st46{fill:#FFCCDD;}
	.st47{fill:#E5F8FF;stroke:#45413C;stroke-linecap:round;stroke-linejoin:round;stroke-miterlimit:10;}
	.st48{fill:#00B8F0;stroke:#45413C;stroke-linecap:round;stroke-linejoin:round;stroke-miterlimit:10;}
	.st49{fill:#00B8F0;}
	.st50{fill:#4ACFFF;}
	.st51{fill:#E04122;}
	.st52{fill:#E04122;stroke:#45413C;stroke-linecap:round;stroke-linejoin:round;stroke-miterlimit:10;}
	.st53{fill:#87898C;}
	.st54{fill:#BDBEC0;}
	.st55{fill:#656769;}
	.st56{fill:#525252;}
	.st57{fill:#FFF48C;stroke:#45413C;stroke-linecap:round;stroke-linejoin:round;stroke-miterlimit:10;}
	.st58{fill:#6DD627;}
	.st59{fill:#EB6D00;}
	.st60{fill:#46B000;}
	.st61{fill:#80DDFF;}
	.st62{fill:#DAEDF7;}
	.st63{fill:#BF8DF2;stroke:#45413C;stroke-linecap:round;stroke-linejoin:round;stroke-miterlimit:10;}
	.st64{fill:#9F5AE5;stroke:#45413C;stroke-linecap:round;stroke-linejoin:round;stroke-miterlimit:10;}
	.st65{fill:#C8FFA1;}
	.st66{fill:#E4FFD1;}
	.st67{fill:#9CEB60;}
	.st68{fill:#E5FEFF;}
	.st69{fill:#B8ECFF;}
	.st70{fill:#E0E0E0;stroke:#45413C;stroke-linecap:round;stroke-linejoin:round;stroke-miterlimit:10;}
	.st71{fill:#E0E0E0;}
	.st72{fill:none;stroke:#4F4B45;stroke-linejoin:round;stroke-miterlimit:10;}
	.st73{fill:none;stroke:#4F4B45;stroke-linecap:round;stroke-linejoin:round;stroke-miterlimit:10;}
	.st74{fill:#E0366F;stroke:#45413C;stroke-linecap:round;stroke-linejoin:round;stroke-miterlimit:10;}
	.st75{fill:none;stroke:#45413C;stroke-miterlimit:10;}
	.st76{fill:#FF866E;stroke:#45413C;stroke-linecap:round;stroke-linejoin:round;stroke-miterlimit:10;}
	.st77{fill:#45413C;stroke:#45413C;stroke-linecap:round;stroke-linejoin:round;stroke-miterlimit:10;}
	.st78{fill:#9F5AE5;}
	.st79{fill:#803EC2;}
	.st80{fill:#803EC2;stroke:#45413C;stroke-linecap:round;stroke-linejoin:round;stroke-miterlimit:10;}
	.st81{fill:#BF8DF2;}
	.st82{fill:#FFAA54;stroke:#45413C;stroke-linecap:round;stroke-linejoin:round;stroke-miterlimit:10;}
	.st83{fill:none;stroke:#45413C;stroke-linejoin:round;stroke-miterlimit:10;}
	.st84{fill:#FFCCDD;stroke:#45413C;stroke-linecap:round;stroke-linejoin:round;stroke-miterlimit:10;}
	.st85{fill:#FF6196;stroke:#45413C;stroke-linecap:round;stroke-linejoin:round;stroke-miterlimit:10;}
	.st86{fill:#FFE5EE;}
	.st87{fill:#F7E5C6;stroke:#45413C;stroke-linecap:round;stroke-linejoin:round;stroke-miterlimit:10;}
	.st88{fill:#E5FFF9;}
	.st89{fill:none;stroke:#45413C;stroke-width:1.0064;stroke-linecap:round;stroke-linejoin:round;stroke-miterlimit:10;}
	.st90{fill:#4AEFF7;}
	.st91{fill:#A6FBFF;}
	.st92{fill:#E5FEFF;stroke:#45413C;stroke-linecap:round;stroke-linejoin:round;stroke-miterlimit:10;}
	.st93{fill:#46B000;stroke:#45413C;stroke-linecap:round;stroke-linejoin:round;stroke-miterlimit:10;}
	.st94{fill:#FFFFFF;stroke:#45413C;stroke-linejoin:round;stroke-miterlimit:10;}
	.st95{fill:#FFFFFF;stroke:#45413C;stroke-miterlimit:10;}
	.st96{fill:#009FD9;}
	.st97{fill:#00DFEB;}
	.st98{fill:#C0DCEB;stroke:#45413C;stroke-linecap:round;stroke-linejoin:round;stroke-miterlimit:10;}
	.st99{fill:#00DFEB;stroke:#45413C;stroke-linecap:round;stroke-linejoin:round;stroke-miterlimit:10;}
	.st100{fill:#FFE5EE;stroke:#45413C;stroke-linecap:round;stroke-linejoin:round;stroke-miterlimit:10;}
	.st101{fill:#8CA4B8;}
	.st102{fill:#ADC4D9;}
	.st103{fill:#656769;stroke:#45413C;stroke-linecap:round;stroke-linejoin:round;stroke-miterlimit:10;}
	.st104{fill:#F0F0F0;stroke:#45413C;stroke-linecap:round;stroke-linejoin:round;stroke-miterlimit:10;}
	.st105{fill:#C0DCEB;}
	.st106{fill:#45413C;}
	.st107{fill:#FFCABF;}
	.st108{fill:#87898C;stroke:#45413C;stroke-linecap:round;stroke-linejoin:round;stroke-miterlimit:10;}
	.st109{fill:#EBCB00;stroke:#45413C;stroke-linecap:round;stroke-linejoin:round;stroke-miterlimit:10;}</style>
  <g
     transform="matrix(3.7796 0 0 3.7796 .18834 .62552)"
     fill="#5e4aa6"
     stroke-width=".26458"
     id="g27">
    <circle
       cx="-351.85"
       cy="-328.38"
       r="0"
       id="circle19" />
    <circle
       cx="-296.85"
       cy="-354.73"
       r="0"
       id="circle21" />
    <circle
       cx="-5.946"
       cy="-19.912"
       r="0"
       fill-rule="evenodd"
       id="circle23" />
    <circle
       cx="-281.14"
       cy="-337.78"
       r="0"
       id="circle25" />
  </g>
  <g
     transform="matrix(3.7796 0 0 3.7796 .18834 .62552)"
     fill="#5e4aa6"
     stroke-width=".26458"
     id="g39">
    <circle
       cx="-272.57"
       cy="-354.73"
       r="0"
       id="circle33" />
    <circle
       cx="18.337"
       cy="-19.912"
       r="0"
       fill-rule="evenodd"
       id="circle35" />
    <circle
       cx="-256.86"
       cy="-337.78"
       r="0"
       id="circle37" />
  </g>
  <style
     type="text/css"
     id="style65">.st0{opacity:0.15;fill:#45413C;}
	.st1{fill:#FFE500;}
	.st2{fill:#EBCB00;}
	.st3{fill:none;stroke:#45413C;stroke-linecap:round;stroke-linejoin:round;stroke-miterlimit:10;}
	.st4{fill:#FFAA54;}
	.st5{fill:#FF8A14;}
	.st6{fill:#FFB0CA;stroke:#45413C;stroke-linecap:round;stroke-linejoin:round;stroke-miterlimit:10;}
	.st7{fill:#FF87AF;stroke:#45413C;stroke-linecap:round;stroke-linejoin:round;stroke-miterlimit:10;}
	.st8{fill:#FFCC99;}
	.st9{fill:#FFFFFF;}
	.st10{fill:#F0F0F0;}
	.st11{fill:#BF8256;}
	.st12{fill:#915E3A;}
	.st13{fill:#DEA47A;}
	.st14{fill:#F0D5A8;}
	.st15{fill:#DEBB7E;}
	.st16{fill:#F7E5C6;}
	.st17{fill:#FF8A14;stroke:#45413C;stroke-linecap:round;stroke-linejoin:round;stroke-miterlimit:10;}
	.st18{fill:#FFF5E3;}
	.st19{fill:#FFF48C;}
	.st20{fill:#FFFACF;}
	.st21{fill:#FFFCE5;}
	.st22{fill:#FF87AF;}
	.st23{fill:#FFB0CA;}
	.st24{fill:#FFE500;stroke:#45413C;stroke-linecap:round;stroke-linejoin:round;stroke-miterlimit:10;}
	.st25{fill:#9CEB60;stroke:#45413C;stroke-linecap:round;stroke-linejoin:round;stroke-miterlimit:10;}
	.st26{fill:#FFFACF;stroke:#45413C;stroke-linecap:round;stroke-linejoin:round;stroke-miterlimit:10;}
	.st27{fill:#00F5BC;stroke:#45413C;stroke-linecap:round;stroke-linejoin:round;stroke-miterlimit:10;}
	.st28{fill:#BF8256;stroke:#45413C;stroke-linecap:round;stroke-linejoin:round;stroke-miterlimit:10;}
	.st29{fill:#FFE3CF;stroke:#45413C;stroke-linecap:round;stroke-linejoin:round;stroke-miterlimit:10;}
	.st30{fill:#FF6242;}
	.st31{fill:#FF866E;}
	.st32{fill:none;stroke:#E04122;stroke-linecap:round;stroke-linejoin:round;stroke-miterlimit:10;}
	.st33{fill:#FFFEF2;stroke:#45413C;stroke-linecap:round;stroke-linejoin:round;stroke-miterlimit:10;}
	.st34{fill:#FF6242;stroke:#45413C;stroke-linecap:round;stroke-linejoin:round;stroke-miterlimit:10;}
	.st35{fill:#FFA694;}
	.st36{fill:#FFFFFF;stroke:#45413C;stroke-linecap:round;stroke-linejoin:round;stroke-miterlimit:10;}
	.st37{fill:#FFFEF2;}
	.st38{fill:#FF6196;}
	.st39{fill:#B89558;}
	.st40{fill:none;stroke:#915E3A;stroke-linecap:round;stroke-linejoin:round;stroke-miterlimit:10;}
	.st41{fill:#DEBB7E;stroke:#45413C;stroke-linecap:round;stroke-linejoin:round;stroke-miterlimit:10;}
	.st42{fill:#6DD627;stroke:#45413C;stroke-linecap:round;stroke-linejoin:round;stroke-miterlimit:10;}
	.st43{fill:#E5F8FF;}
	.st44{fill:#E8F4FA;}
	.st45{fill:#E8F4FA;stroke:#45413C;stroke-linecap:round;stroke-linejoin:round;stroke-miterlimit:10;}
	.st46{fill:#FFCCDD;}
	.st47{fill:#E5F8FF;stroke:#45413C;stroke-linecap:round;stroke-linejoin:round;stroke-miterlimit:10;}
	.st48{fill:#00B8F0;stroke:#45413C;stroke-linecap:round;stroke-linejoin:round;stroke-miterlimit:10;}
	.st49{fill:#00B8F0;}
	.st50{fill:#4ACFFF;}
	.st51{fill:#E04122;}
	.st52{fill:#E04122;stroke:#45413C;stroke-linecap:round;stroke-linejoin:round;stroke-miterlimit:10;}
	.st53{fill:#87898C;}
	.st54{fill:#BDBEC0;}
	.st55{fill:#656769;}
	.st56{fill:#525252;}
	.st57{fill:#FFF48C;stroke:#45413C;stroke-linecap:round;stroke-linejoin:round;stroke-miterlimit:10;}
	.st58{fill:#6DD627;}
	.st59{fill:#EB6D00;}
	.st60{fill:#46B000;}
	.st61{fill:#80DDFF;}
	.st62{fill:#DAEDF7;}
	.st63{fill:#BF8DF2;stroke:#45413C;stroke-linecap:round;stroke-linejoin:round;stroke-miterlimit:10;}
	.st64{fill:#9F5AE5;stroke:#45413C;stroke-linecap:round;stroke-linejoin:round;stroke-miterlimit:10;}
	.st65{fill:#C8FFA1;}
	.st66{fill:#E4FFD1;}
	.st67{fill:#9CEB60;}
	.st68{fill:#E5FEFF;}
	.st69{fill:#B8ECFF;}
	.st70{fill:#E0E0E0;stroke:#45413C;stroke-linecap:round;stroke-linejoin:round;stroke-miterlimit:10;}
	.st71{fill:#E0E0E0;}
	.st72{fill:none;stroke:#4F4B45;stroke-linejoin:round;stroke-miterlimit:10;}
	.st73{fill:none;stroke:#4F4B45;stroke-linecap:round;stroke-linejoin:round;stroke-miterlimit:10;}
	.st74{fill:#E0366F;stroke:#45413C;stroke-linecap:round;stroke-linejoin:round;stroke-miterlimit:10;}
	.st75{fill:none;stroke:#45413C;stroke-miterlimit:10;}
	.st76{fill:#FF866E;stroke:#45413C;stroke-linecap:round;stroke-linejoin:round;stroke-miterlimit:10;}
	.st77{fill:#45413C;stroke:#45413C;stroke-linecap:round;stroke-linejoin:round;stroke-miterlimit:10;}
	.st78{fill:#9F5AE5;}
	.st79{fill:#803EC2;}
	.st80{fill:#803EC2;stroke:#45413C;stroke-linecap:round;stroke-linejoin:round;stroke-miterlimit:10;}
	.st81{fill:#BF8DF2;}
	.st82{fill:#FFAA54;stroke:#45413C;stroke-linecap:round;stroke-linejoin:round;stroke-miterlimit:10;}
	.st83{fill:none;stroke:#45413C;stroke-linejoin:round;stroke-miterlimit:10;}
	.st84{fill:#FFCCDD;stroke:#45413C;stroke-linecap:round;stroke-linejoin:round;stroke-miterlimit:10;}
	.st85{fill:#FF6196;stroke:#45413C;stroke-linecap:round;stroke-linejoin:round;stroke-miterlimit:10;}
	.st86{fill:#FFE5EE;}
	.st87{fill:#F7E5C6;stroke:#45413C;stroke-linecap:round;stroke-linejoin:round;stroke-miterlimit:10;}
	.st88{fill:#E5FFF9;}
	.st89{fill:none;stroke:#45413C;stroke-width:1.0064;stroke-linecap:round;stroke-linejoin:round;stroke-miterlimit:10;}
	.st90{fill:#4AEFF7;}
	.st91{fill:#A6FBFF;}
	.st92{fill:#E5FEFF;stroke:#45413C;stroke-linecap:round;stroke-linejoin:round;stroke-miterlimit:10;}
	.st93{fill:#46B000;stroke:#45413C;stroke-linecap:round;stroke-linejoin:round;stroke-miterlimit:10;}
	.st94{fill:#FFFFFF;stroke:#45413C;stroke-linejoin:round;stroke-miterlimit:10;}
	.st95{fill:#FFFFFF;stroke:#45413C;stroke-miterlimit:10;}
	.st96{fill:#009FD9;}
	.st97{fill:#00DFEB;}
	.st98{fill:#C0DCEB;stroke:#45413C;stroke-linecap:round;stroke-linejoin:round;stroke-miterlimit:10;}
	.st99{fill:#00DFEB;stroke:#45413C;stroke-linecap:round;stroke-linejoin:round;stroke-miterlimit:10;}
	.st100{fill:#FFE5EE;stroke:#45413C;stroke-linecap:round;stroke-linejoin:round;stroke-miterlimit:10;}
	.st101{fill:#8CA4B8;}
	.st102{fill:#ADC4D9;}
	.st103{fill:#656769;stroke:#45413C;stroke-linecap:round;stroke-linejoin:round;stroke-miterlimit:10;}
	.st104{fill:#F0F0F0;stroke:#45413C;stroke-linecap:round;stroke-linejoin:round;stroke-miterlimit:10;}
	.st105{fill:#C0DCEB;}
	.st106{fill:#45413C;}
	.st107{fill:#FFCABF;}
	.st108{fill:#87898C;stroke:#45413C;stroke-linecap:round;stroke-linejoin:round;stroke-miterlimit:10;}
	.st109{fill:#EBCB00;stroke:#45413C;stroke-linecap:round;stroke-linejoin:round;stroke-miterlimit:10;}</style>
  <style
     type="text/css"
     id="style67">.st0{opacity:0.15;fill:#45413C;}
	.st1{fill:#FFE500;}
	.st2{fill:#EBCB00;}
	.st3{fill:none;stroke:#45413C;stroke-linecap:round;stroke-linejoin:round;stroke-miterlimit:10;}
	.st4{fill:#FFAA54;}
	.st5{fill:#FF8A14;}
	.st6{fill:#FFB0CA;stroke:#45413C;stroke-linecap:round;stroke-linejoin:round;stroke-miterlimit:10;}
	.st7{fill:#FF87AF;stroke:#45413C;stroke-linecap:round;stroke-linejoin:round;stroke-miterlimit:10;}
	.st8{fill:#FFCC99;}
	.st9{fill:#FFFFFF;}
	.st10{fill:#F0F0F0;}
	.st11{fill:#BF8256;}
	.st12{fill:#915E3A;}
	.st13{fill:#DEA47A;}
	.st14{fill:#F0D5A8;}
	.st15{fill:#DEBB7E;}
	.st16{fill:#F7E5C6;}
	.st17{fill:#FF8A14;stroke:#45413C;stroke-linecap:round;stroke-linejoin:round;stroke-miterlimit:10;}
	.st18{fill:#FFF5E3;}
	.st19{fill:#FFF48C;}
	.st20{fill:#FFFACF;}
	.st21{fill:#FFFCE5;}
	.st22{fill:#FF87AF;}
	.st23{fill:#FFB0CA;}
	.st24{fill:#FFE500;stroke:#45413C;stroke-linecap:round;stroke-linejoin:round;stroke-miterlimit:10;}
	.st25{fill:#9CEB60;stroke:#45413C;stroke-linecap:round;stroke-linejoin:round;stroke-miterlimit:10;}
	.st26{fill:#FFFACF;stroke:#45413C;stroke-linecap:round;stroke-linejoin:round;stroke-miterlimit:10;}
	.st27{fill:#00F5BC;stroke:#45413C;stroke-linecap:round;stroke-linejoin:round;stroke-miterlimit:10;}
	.st28{fill:#BF8256;stroke:#45413C;stroke-linecap:round;stroke-linejoin:round;stroke-miterlimit:10;}
	.st29{fill:#FFE3CF;stroke:#45413C;stroke-linecap:round;stroke-linejoin:round;stroke-miterlimit:10;}
	.st30{fill:#FF6242;}
	.st31{fill:#FF866E;}
	.st32{fill:none;stroke:#E04122;stroke-linecap:round;stroke-linejoin:round;stroke-miterlimit:10;}
	.st33{fill:#FFFEF2;stroke:#45413C;stroke-linecap:round;stroke-linejoin:round;stroke-miterlimit:10;}
	.st34{fill:#FF6242;stroke:#45413C;stroke-linecap:round;stroke-linejoin:round;stroke-miterlimit:10;}
	.st35{fill:#FFA694;}
	.st36{fill:#FFFFFF;stroke:#45413C;stroke-linecap:round;stroke-linejoin:round;stroke-miterlimit:10;}
	.st37{fill:#FFFEF2;}
	.st38{fill:#FF6196;}
	.st39{fill:#B89558;}
	.st40{fill:none;stroke:#915E3A;stroke-linecap:round;stroke-linejoin:round;stroke-miterlimit:10;}
	.st41{fill:#DEBB7E;stroke:#45413C;stroke-linecap:round;stroke-linejoin:round;stroke-miterlimit:10;}
	.st42{fill:#6DD627;stroke:#45413C;stroke-linecap:round;stroke-linejoin:round;stroke-miterlimit:10;}
	.st43{fill:#E5F8FF;}
	.st44{fill:#E8F4FA;}
	.st45{fill:#E8F4FA;stroke:#45413C;stroke-linecap:round;stroke-linejoin:round;stroke-miterlimit:10;}
	.st46{fill:#FFCCDD;}
	.st47{fill:#E5F8FF;stroke:#45413C;stroke-linecap:round;stroke-linejoin:round;stroke-miterlimit:10;}
	.st48{fill:#00B8F0;stroke:#45413C;stroke-linecap:round;stroke-linejoin:round;stroke-miterlimit:10;}
	.st49{fill:#00B8F0;}
	.st50{fill:#4ACFFF;}
	.st51{fill:#E04122;}
	.st52{fill:#E04122;stroke:#45413C;stroke-linecap:round;stroke-linejoin:round;stroke-miterlimit:10;}
	.st53{fill:#87898C;}
	.st54{fill:#BDBEC0;}
	.st55{fill:#656769;}
	.st56{fill:#525252;}
	.st57{fill:#FFF48C;stroke:#45413C;stroke-linecap:round;stroke-linejoin:round;stroke-miterlimit:10;}
	.st58{fill:#6DD627;}
	.st59{fill:#EB6D00;}
	.st60{fill:#46B000;}
	.st61{fill:#80DDFF;}
	.st62{fill:#DAEDF7;}
	.st63{fill:#BF8DF2;stroke:#45413C;stroke-linecap:round;stroke-linejoin:round;stroke-miterlimit:10;}
	.st64{fill:#9F5AE5;stroke:#45413C;stroke-linecap:round;stroke-linejoin:round;stroke-miterlimit:10;}
	.st65{fill:#C8FFA1;}
	.st66{fill:#E4FFD1;}
	.st67{fill:#9CEB60;}
	.st68{fill:#E5FEFF;}
	.st69{fill:#B8ECFF;}
	.st70{fill:#E0E0E0;stroke:#45413C;stroke-linecap:round;stroke-linejoin:round;stroke-miterlimit:10;}
	.st71{fill:#E0E0E0;}
	.st72{fill:none;stroke:#4F4B45;stroke-linejoin:round;stroke-miterlimit:10;}
	.st73{fill:none;stroke:#4F4B45;stroke-linecap:round;stroke-linejoin:round;stroke-miterlimit:10;}
	.st74{fill:#E0366F;stroke:#45413C;stroke-linecap:round;stroke-linejoin:round;stroke-miterlimit:10;}
	.st75{fill:none;stroke:#45413C;stroke-miterlimit:10;}
	.st76{fill:#FF866E;stroke:#45413C;stroke-linecap:round;stroke-linejoin:round;stroke-miterlimit:10;}
	.st77{fill:#45413C;stroke:#45413C;stroke-linecap:round;stroke-linejoin:round;stroke-miterlimit:10;}
	.st78{fill:#9F5AE5;}
	.st79{fill:#803EC2;}
	.st80{fill:#803EC2;stroke:#45413C;stroke-linecap:round;stroke-linejoin:round;stroke-miterlimit:10;}
	.st81{fill:#BF8DF2;}
	.st82{fill:#FFAA54;stroke:#45413C;stroke-linecap:round;stroke-linejoin:round;stroke-miterlimit:10;}
	.st83{fill:none;stroke:#45413C;stroke-linejoin:round;stroke-miterlimit:10;}
	.st84{fill:#FFCCDD;stroke:#45413C;stroke-linecap:round;stroke-linejoin:round;stroke-miterlimit:10;}
	.st85{fill:#FF6196;stroke:#45413C;stroke-linecap:round;stroke-linejoin:round;stroke-miterlimit:10;}
	.st86{fill:#FFE5EE;}
	.st87{fill:#F7E5C6;stroke:#45413C;stroke-linecap:round;stroke-linejoin:round;stroke-miterlimit:10;}
	.st88{fill:#E5FFF9;}
	.st89{fill:none;stroke:#45413C;stroke-width:1.0064;stroke-linecap:round;stroke-linejoin:round;stroke-miterlimit:10;}
	.st90{fill:#4AEFF7;}
	.st91{fill:#A6FBFF;}
	.st92{fill:#E5FEFF;stroke:#45413C;stroke-linecap:round;stroke-linejoin:round;stroke-miterlimit:10;}
	.st93{fill:#46B000;stroke:#45413C;stroke-linecap:round;stroke-linejoin:round;stroke-miterlimit:10;}
	.st94{fill:#FFFFFF;stroke:#45413C;stroke-linejoin:round;stroke-miterlimit:10;}
	.st95{fill:#FFFFFF;stroke:#45413C;stroke-miterlimit:10;}
	.st96{fill:#009FD9;}
	.st97{fill:#00DFEB;}
	.st98{fill:#C0DCEB;stroke:#45413C;stroke-linecap:round;stroke-linejoin:round;stroke-miterlimit:10;}
	.st99{fill:#00DFEB;stroke:#45413C;stroke-linecap:round;stroke-linejoin:round;stroke-miterlimit:10;}
	.st100{fill:#FFE5EE;stroke:#45413C;stroke-linecap:round;stroke-linejoin:round;stroke-miterlimit:10;}
	.st101{fill:#8CA4B8;}
	.st102{fill:#ADC4D9;}
	.st103{fill:#656769;stroke:#45413C;stroke-linecap:round;stroke-linejoin:round;stroke-miterlimit:10;}
	.st104{fill:#F0F0F0;stroke:#45413C;stroke-linecap:round;stroke-linejoin:round;stroke-miterlimit:10;}
	.st105{fill:#C0DCEB;}
	.st106{fill:#45413C;}
	.st107{fill:#FFCABF;}
	.st108{fill:#87898C;stroke:#45413C;stroke-linecap:round;stroke-linejoin:round;stroke-miterlimit:10;}
	.st109{fill:#EBCB00;stroke:#45413C;stroke-linecap:round;stroke-linejoin:round;stroke-miterlimit:10;}</style>
  <text
     x="13.015968"
     y="-11.70888"
     fill="#969696"
     font-family="sans-serif"
     font-size="6.638px"
     letter-spacing="0px"
     stroke-width=".16595"
     word-spacing="0px"
     style="line-height:1.25"
     xml:space="preserve"
     id="text71"><tspan
       x="13.015968"
       y="-11.70888"
       fill="#969696"
       stroke-width=".16595"
       id="tspan69">Plasma KDE</tspan></text>
  <g
     id="g1037"
     transform="matrix(0.9166514,0,0,0.9166514,2.6672471,2.6672471)">
    <rect
       x="1.9994"
       y="1.9994"
       width="60.000999"
       height="60.000999"
       ry="3.2727001"
       fill="url(#linearGradient889)"
       stroke-width="3.7796"
       id="rect29"
       style="fill:url(#linearGradient889)" />
    <path
       d="m 13.665,5.793 c -1.1275,0 -2.0352,0.90762 -2.0352,2.0352 v 12.795 c 20.745,0 28.347,12.771 31.499,22.484 h 8.435 c 1.1275,0 2.0352,-0.90762 2.0352,-2.0352 V 7.828 c 0,-1.1275 -0.90762,-2.0352 -2.0352,-2.0352 z"
       fill="#ffffff"
       stroke-width="2.6247"
       id="path31" />
    <path
       d="m 11.662,25.271 v 5.4 c 11.93,0 21.6,9.67 21.6,21.6 h 5.4 c 0,-14.918 -12.088,-27 -27,-27 m 0,10.8 v 5.4 c 5.9643,0 10.8,4.8357 10.8,10.8 h 5.4 c 0,-8.9464 -7.2536,-16.2 -16.2,-16.2 m 0,10.8 c -2.9822,0 -5.4,2.4178 -5.4,5.4 0,2.9822 2.4178,5.4 5.4,5.4 2.9822,0 5.4,-2.4178 5.4,-5.4 0,-2.9822 -2.4178,-5.4 -5.4,-5.4"
       fill="#ffffff"
       stroke-linejoin="round"
       stroke-width="5.9999"
       id="path41" />
    <g
       fill="#969696"
       stroke-width="0.16595"
       aria-label="Plasma KDE"
       id="g61">
      <path
         d="m 14.322,15.147 v 1.8183 h 0.82327 q 0.45701,0 0.70658,-0.23661 0.24957,-0.23661 0.24957,-0.67417 0,-0.43432 -0.24957,-0.67093 -0.24957,-0.23661 -0.70658,-0.23661 z m -0.65472,-0.53804 h 1.478 q 0.81354,0 1.2284,0.3695 0.41812,0.36626 0.41812,1.0761 0,0.71631 -0.41812,1.0826 -0.41488,0.36626 -1.2284,0.36626 h -0.82327 v 1.9447 h -0.65472 z"
         id="path43" />
      <path
         d="m 17.644,14.405 h 0.59638 v 5.0433 H 17.644 Z"
         id="path45" />
      <path
         d="m 21.138,17.624 q -0.72279,0 -1.0015,0.1653 -0.27874,0.1653 -0.27874,0.56397 0,0.31764 0.20744,0.50563 0.21068,0.18475 0.57045,0.18475 0.4959,0 0.7941,-0.35005 0.30143,-0.35329 0.30143,-0.93671 V 17.624 Z m 1.1895,-0.24633 v 2.0711 h -0.59638 v -0.551 q -0.2042,0.3306 -0.50887,0.48942 -0.30467,0.15558 -0.74548,0.15558 -0.55749,0 -0.88809,-0.31116 -0.32736,-0.3144 -0.32736,-0.83947 0,-0.61259 0.40839,-0.92374 0.41163,-0.31116 1.2252,-0.31116 h 0.83623 V 17.0989 q 0,-0.41163 -0.27226,-0.63528 -0.26902,-0.22688 -0.75844,-0.22688 -0.31116,0 -0.60611,0.07455 -0.29495,0.07455 -0.56721,0.22364 v -0.55101 q 0.32736,-0.12641 0.63528,-0.18799 0.30792,-0.06482 0.59962,-0.06482 0.78761,0 1.1766,0.40839 0.38894,0.40839 0.38894,1.2381 z"
         id="path47" />
      <path
         d="m 25.871,15.925 v 0.56397 q -0.25281,-0.12965 -0.52508,-0.19447 -0.27226,-0.06482 -0.56397,-0.06482 -0.44405,0 -0.66769,0.13613 -0.2204,0.13613 -0.2204,0.40839 0,0.20744 0.15882,0.32736 0.15882,0.11668 0.63852,0.22364 l 0.2042,0.04538 q 0.63528,0.13613 0.90106,0.3857 0.26902,0.24633 0.26902,0.69038 0,0.50563 -0.40191,0.80058 -0.39867,0.29495 -1.0988,0.29495 -0.29171,0 -0.60935,-0.05834 -0.3144,-0.0551 -0.66445,-0.16854 v -0.61583 q 0.3306,0.17178 0.65148,0.2593 0.32088,0.08427 0.63528,0.08427 0.42136,0 0.64824,-0.14261 0.22688,-0.14586 0.22688,-0.40839 0,-0.24309 -0.1653,-0.37274 -0.16206,-0.12965 -0.71631,-0.24957 L 24.3638,17.82112 q -0.55425,-0.11668 -0.80058,-0.35653 -0.24633,-0.24309 -0.24633,-0.66445 0,-0.51211 0.36302,-0.79086 0.36302,-0.27874 1.0307,-0.27874 0.3306,0 0.62231,0.04862 0.29171,0.04862 0.53804,0.14585 z"
         id="path49" />
      <path
         d="m 29.841,16.515 q 0.22364,-0.40191 0.5348,-0.59314 0.31116,-0.19123 0.73251,-0.19123 0.56721,0 0.87513,0.39867 0.30792,0.39543 0.30792,1.1279 v 2.1911 h -0.59962 v -2.1716 q 0,-0.52184 -0.18475,-0.77465 -0.18475,-0.25282 -0.56397,-0.25282 -0.46349,0 -0.73251,0.30792 -0.26902,0.30792 -0.26902,0.83947 v 2.0517 h -0.59962 v -2.1716 q 0,-0.52508 -0.18475,-0.77465 -0.18475,-0.25282 -0.57045,-0.25282 -0.45701,0 -0.72603,0.31116 -0.26902,0.30792 -0.26902,0.83623 v 2.0517 H 26.992 v -3.6302 h 0.59962 v 0.56397 q 0.2042,-0.33384 0.48942,-0.49266 0.28523,-0.15882 0.67741,-0.15882 0.39543,0 0.67093,0.20096 0.27874,0.20096 0.41163,0.58342 z"
         id="path51" />
      <path
         d="m 35.131,17.624 q -0.72279,0 -1.0015,0.1653 -0.27874,0.1653 -0.27874,0.56397 0,0.31764 0.20744,0.50563 0.21068,0.18475 0.57045,0.18475 0.49591,0 0.7941,-0.35005 0.30143,-0.35329 0.30143,-0.93671 V 17.624 Z m 1.1895,-0.24633 v 2.0711 h -0.59638 v -0.551 q -0.2042,0.3306 -0.50887,0.48942 -0.30467,0.15558 -0.74548,0.15558 -0.55749,0 -0.88809,-0.31116 -0.32736,-0.3144 -0.32736,-0.83947 0,-0.61259 0.40839,-0.92374 0.41163,-0.31116 1.2252,-0.31116 h 0.83623 V 17.0989 q 0,-0.41163 -0.27226,-0.63528 -0.26902,-0.22688 -0.75844,-0.22688 -0.31116,0 -0.60611,0.07455 -0.29495,0.07455 -0.56721,0.22364 v -0.55101 q 0.32736,-0.12641 0.63528,-0.18799 0.30792,-0.06482 0.59962,-0.06482 0.78761,0 1.1766,0.40839 0.38895,0.40839 0.38895,1.2381 z"
         id="path53" />
      <path
         d="m 39.685,14.609 h 0.65472 v 2.0452 l 2.1716,-2.0452 h 0.84272 l -2.4017,2.2559 2.5735,2.5832 h -0.86216 l -2.3239,-2.3304 v 2.3304 h -0.65472 z"
         id="path55" />
      <path
         d="m 44.692,15.147 v 3.763 h 0.79086 q 1.0015,0 1.465,-0.45377 0.46673,-0.45377 0.46673,-1.4326 0,-0.97236 -0.46673,-1.4229 -0.46349,-0.45377 -1.465,-0.45377 z m -0.65472,-0.53804 h 1.3451 q 1.4067,0 2.0647,0.58666 0.65797,0.58342 0.65797,1.828 0,1.2511 -0.66121,1.8378 -0.66121,0.5867 -2.0614,0.58666 h -1.3451 z"
         id="path57" />
      <path
         d="m 49.149,14.609 h 3.0597 v 0.55101 h -2.405 v 1.4326 h 2.3045 v 0.551 h -2.3045 v 1.7535 h 2.4633 v 0.551 h -3.118 z"
         id="path59" />
    </g>
    <path
       d="m 11.631,20.623 c 2.5931,0 4.9803,0.20018 7.1797,0.56836 2.1994,0.36818 4.2092,0.90359 6.0488,1.5781 1.8396,0.67454 3.5077,1.4872 5.0215,2.4062 1.5138,0.91905 2.8738,1.9451 4.0957,3.0469 0.36125,0.32572 0.62914,0.69697 0.9668,1.0352 h 18.652 v -8.6348 h -41.965 z"
       fill="#00a2ef"
       stroke-width="3.0013"
       id="path63" />
    <g
       transform="matrix(0.2443,0,0,0.2443,10.328,5.093)"
       fill="#969696"
       stroke-width="0.16595"
       aria-label="Plasma KDE"
       id="g91">
      <path
         d="m 14.322,15.147 v 1.8183 h 0.82327 q 0.45701,0 0.70658,-0.23661 0.24957,-0.23661 0.24957,-0.67417 0,-0.43432 -0.24957,-0.67093 -0.24957,-0.23661 -0.70658,-0.23661 z m -0.65472,-0.53804 h 1.478 q 0.81354,0 1.2284,0.3695 0.41812,0.36626 0.41812,1.0761 0,0.71631 -0.41812,1.0826 -0.41488,0.36626 -1.2284,0.36626 h -0.82327 v 1.9447 h -0.65472 z"
         id="path73" />
      <path
         d="m 17.644,14.405 h 0.59638 v 5.0433 H 17.644 Z"
         id="path75" />
      <path
         d="m 21.138,17.624 q -0.72279,0 -1.0015,0.1653 -0.27874,0.1653 -0.27874,0.56397 0,0.31764 0.20744,0.50563 0.21068,0.18475 0.57045,0.18475 0.4959,0 0.7941,-0.35005 0.30143,-0.35329 0.30143,-0.93671 V 17.624 Z m 1.1895,-0.24633 v 2.0711 h -0.59638 v -0.551 q -0.2042,0.3306 -0.50887,0.48942 -0.30467,0.15558 -0.74548,0.15558 -0.55749,0 -0.88809,-0.31116 -0.32736,-0.3144 -0.32736,-0.83947 0,-0.61259 0.40839,-0.92374 0.41163,-0.31116 1.2252,-0.31116 h 0.83623 V 17.0989 q 0,-0.41163 -0.27226,-0.63528 -0.26902,-0.22688 -0.75844,-0.22688 -0.31116,0 -0.60611,0.07455 -0.29495,0.07455 -0.56721,0.22364 v -0.55101 q 0.32736,-0.12641 0.63528,-0.18799 0.30792,-0.06482 0.59962,-0.06482 0.78761,0 1.1766,0.40839 0.38894,0.40839 0.38894,1.2381 z"
         id="path77" />
      <path
         d="m 25.871,15.925 v 0.56397 q -0.25281,-0.12965 -0.52508,-0.19447 -0.27226,-0.06482 -0.56397,-0.06482 -0.44405,0 -0.66769,0.13613 -0.2204,0.13613 -0.2204,0.40839 0,0.20744 0.15882,0.32736 0.15882,0.11668 0.63852,0.22364 l 0.2042,0.04538 q 0.63528,0.13613 0.90106,0.3857 0.26902,0.24633 0.26902,0.69038 0,0.50563 -0.40191,0.80058 -0.39867,0.29495 -1.0988,0.29495 -0.29171,0 -0.60935,-0.05834 -0.3144,-0.0551 -0.66445,-0.16854 v -0.61583 q 0.3306,0.17178 0.65148,0.2593 0.32088,0.08427 0.63528,0.08427 0.42136,0 0.64824,-0.14261 0.22688,-0.14586 0.22688,-0.40839 0,-0.24309 -0.1653,-0.37274 -0.16206,-0.12965 -0.71631,-0.24957 L 24.3638,17.82112 q -0.55425,-0.11668 -0.80058,-0.35653 -0.24633,-0.24309 -0.24633,-0.66445 0,-0.51211 0.36302,-0.79086 0.36302,-0.27874 1.0307,-0.27874 0.3306,0 0.62231,0.04862 0.29171,0.04862 0.53804,0.14585 z"
         id="path79" />
      <path
         d="m 29.841,16.515 q 0.22364,-0.40191 0.5348,-0.59314 0.31116,-0.19123 0.73251,-0.19123 0.56721,0 0.87513,0.39867 0.30792,0.39543 0.30792,1.1279 v 2.1911 h -0.59962 v -2.1716 q 0,-0.52184 -0.18475,-0.77465 -0.18475,-0.25282 -0.56397,-0.25282 -0.46349,0 -0.73251,0.30792 -0.26902,0.30792 -0.26902,0.83947 v 2.0517 h -0.59962 v -2.1716 q 0,-0.52508 -0.18475,-0.77465 -0.18475,-0.25282 -0.57045,-0.25282 -0.45701,0 -0.72603,0.31116 -0.26902,0.30792 -0.26902,0.83623 v 2.0517 H 26.992 v -3.6302 h 0.59962 v 0.56397 q 0.2042,-0.33384 0.48942,-0.49266 0.28523,-0.15882 0.67741,-0.15882 0.39543,0 0.67093,0.20096 0.27874,0.20096 0.41163,0.58342 z"
         id="path81" />
      <path
         d="m 35.131,17.624 q -0.72279,0 -1.0015,0.1653 -0.27874,0.1653 -0.27874,0.56397 0,0.31764 0.20744,0.50563 0.21068,0.18475 0.57045,0.18475 0.49591,0 0.7941,-0.35005 0.30143,-0.35329 0.30143,-0.93671 V 17.624 Z m 1.1895,-0.24633 v 2.0711 h -0.59638 v -0.551 q -0.2042,0.3306 -0.50887,0.48942 -0.30467,0.15558 -0.74548,0.15558 -0.55749,0 -0.88809,-0.31116 -0.32736,-0.3144 -0.32736,-0.83947 0,-0.61259 0.40839,-0.92374 0.41163,-0.31116 1.2252,-0.31116 h 0.83623 V 17.0989 q 0,-0.41163 -0.27226,-0.63528 -0.26902,-0.22688 -0.75844,-0.22688 -0.31116,0 -0.60611,0.07455 -0.29495,0.07455 -0.56721,0.22364 v -0.55101 q 0.32736,-0.12641 0.63528,-0.18799 0.30792,-0.06482 0.59962,-0.06482 0.78761,0 1.1766,0.40839 0.38895,0.40839 0.38895,1.2381 z"
         id="path83" />
      <path
         d="m 39.685,14.609 h 0.65472 v 2.0452 l 2.1716,-2.0452 h 0.84272 l -2.4017,2.2559 2.5735,2.5832 h -0.86216 l -2.3239,-2.3304 v 2.3304 h -0.65472 z"
         id="path85" />
      <path
         d="m 44.692,15.147 v 3.763 h 0.79086 q 1.0015,0 1.465,-0.45377 0.46673,-0.45377 0.46673,-1.4326 0,-0.97236 -0.46673,-1.4229 -0.46349,-0.45377 -1.465,-0.45377 z m -0.65472,-0.53804 h 1.3451 q 1.4067,0 2.0647,0.58666 0.65797,0.58342 0.65797,1.828 0,1.2511 -0.66121,1.8378 -0.66121,0.5867 -2.0614,0.58666 h -1.3451 z"
         id="path87" />
      <path
         d="m 49.149,14.609 h 3.0597 v 0.55101 h -2.405 v 1.4326 h 2.3045 v 0.551 h -2.3045 v 1.7535 h 2.4633 v 0.551 h -3.118 z"
         id="path89" />
    </g>
    <g
       fill="#969696"
       stroke-width="0.16595"
       id="g133">
      <g
         transform="matrix(0.2443,0,0,0.2443,29.92,5.093)"
         aria-label="Plasma KDE"
         id="g111">
        <path
           d="m 14.322,15.147 v 1.8183 h 0.82327 q 0.45701,0 0.70658,-0.23661 0.24957,-0.23661 0.24957,-0.67417 0,-0.43432 -0.24957,-0.67093 -0.24957,-0.23661 -0.70658,-0.23661 z m -0.65472,-0.53804 h 1.478 q 0.81354,0 1.2284,0.3695 0.41812,0.36626 0.41812,1.0761 0,0.71631 -0.41812,1.0826 -0.41488,0.36626 -1.2284,0.36626 h -0.82327 v 1.9447 h -0.65472 z"
           id="path93" />
        <path
           d="m 17.644,14.405 h 0.59638 v 5.0433 H 17.644 Z"
           id="path95" />
        <path
           d="m 21.138,17.624 q -0.72279,0 -1.0015,0.1653 -0.27874,0.1653 -0.27874,0.56397 0,0.31764 0.20744,0.50563 0.21068,0.18475 0.57045,0.18475 0.4959,0 0.7941,-0.35005 0.30143,-0.35329 0.30143,-0.93671 V 17.624 Z m 1.1895,-0.24633 v 2.0711 h -0.59638 v -0.551 q -0.2042,0.3306 -0.50887,0.48942 -0.30467,0.15558 -0.74548,0.15558 -0.55749,0 -0.88809,-0.31116 -0.32736,-0.3144 -0.32736,-0.83947 0,-0.61259 0.40839,-0.92374 0.41163,-0.31116 1.2252,-0.31116 h 0.83623 V 17.0989 q 0,-0.41163 -0.27226,-0.63528 -0.26902,-0.22688 -0.75844,-0.22688 -0.31116,0 -0.60611,0.07455 -0.29495,0.07455 -0.56721,0.22364 v -0.55101 q 0.32736,-0.12641 0.63528,-0.18799 0.30792,-0.06482 0.59962,-0.06482 0.78761,0 1.1766,0.40839 0.38894,0.40839 0.38894,1.2381 z"
           id="path97" />
        <path
           d="m 25.871,15.925 v 0.56397 q -0.25281,-0.12965 -0.52508,-0.19447 -0.27226,-0.06482 -0.56397,-0.06482 -0.44405,0 -0.66769,0.13613 -0.2204,0.13613 -0.2204,0.40839 0,0.20744 0.15882,0.32736 0.15882,0.11668 0.63852,0.22364 l 0.2042,0.04538 q 0.63528,0.13613 0.90106,0.3857 0.26902,0.24633 0.26902,0.69038 0,0.50563 -0.40191,0.80058 -0.39867,0.29495 -1.0988,0.29495 -0.29171,0 -0.60935,-0.05834 -0.3144,-0.0551 -0.66445,-0.16854 v -0.61583 q 0.3306,0.17178 0.65148,0.2593 0.32088,0.08427 0.63528,0.08427 0.42136,0 0.64824,-0.14261 0.22688,-0.14586 0.22688,-0.40839 0,-0.24309 -0.1653,-0.37274 -0.16206,-0.12965 -0.71631,-0.24957 L 24.3638,17.82112 q -0.55425,-0.11668 -0.80058,-0.35653 -0.24633,-0.24309 -0.24633,-0.66445 0,-0.51211 0.36302,-0.79086 0.36302,-0.27874 1.0307,-0.27874 0.3306,0 0.62231,0.04862 0.29171,0.04862 0.53804,0.14585 z"
           id="path99" />
        <path
           d="m 29.841,16.515 q 0.22364,-0.40191 0.5348,-0.59314 0.31116,-0.19123 0.73251,-0.19123 0.56721,0 0.87513,0.39867 0.30792,0.39543 0.30792,1.1279 v 2.1911 h -0.59962 v -2.1716 q 0,-0.52184 -0.18475,-0.77465 -0.18475,-0.25282 -0.56397,-0.25282 -0.46349,0 -0.73251,0.30792 -0.26902,0.30792 -0.26902,0.83947 v 2.0517 h -0.59962 v -2.1716 q 0,-0.52508 -0.18475,-0.77465 -0.18475,-0.25282 -0.57045,-0.25282 -0.45701,0 -0.72603,0.31116 -0.26902,0.30792 -0.26902,0.83623 v 2.0517 H 26.992 v -3.6302 h 0.59962 v 0.56397 q 0.2042,-0.33384 0.48942,-0.49266 0.28523,-0.15882 0.67741,-0.15882 0.39543,0 0.67093,0.20096 0.27874,0.20096 0.41163,0.58342 z"
           id="path101" />
        <path
           d="m 35.131,17.624 q -0.72279,0 -1.0015,0.1653 -0.27874,0.1653 -0.27874,0.56397 0,0.31764 0.20744,0.50563 0.21068,0.18475 0.57045,0.18475 0.49591,0 0.7941,-0.35005 0.30143,-0.35329 0.30143,-0.93671 V 17.624 Z m 1.1895,-0.24633 v 2.0711 h -0.59638 v -0.551 q -0.2042,0.3306 -0.50887,0.48942 -0.30467,0.15558 -0.74548,0.15558 -0.55749,0 -0.88809,-0.31116 -0.32736,-0.3144 -0.32736,-0.83947 0,-0.61259 0.40839,-0.92374 0.41163,-0.31116 1.2252,-0.31116 h 0.83623 V 17.0989 q 0,-0.41163 -0.27226,-0.63528 -0.26902,-0.22688 -0.75844,-0.22688 -0.31116,0 -0.60611,0.07455 -0.29495,0.07455 -0.56721,0.22364 v -0.55101 q 0.32736,-0.12641 0.63528,-0.18799 0.30792,-0.06482 0.59962,-0.06482 0.78761,0 1.1766,0.40839 0.38895,0.40839 0.38895,1.2381 z"
           id="path103" />
        <path
           d="m 39.685,14.609 h 0.65472 v 2.0452 l 2.1716,-2.0452 h 0.84272 l -2.4017,2.2559 2.5735,2.5832 h -0.86216 l -2.3239,-2.3304 v 2.3304 h -0.65472 z"
           id="path105" />
        <path
           d="m 44.692,15.147 v 3.763 h 0.79086 q 1.0015,0 1.465,-0.45377 0.46673,-0.45377 0.46673,-1.4326 0,-0.97236 -0.46673,-1.4229 -0.46349,-0.45377 -1.465,-0.45377 z m -0.65472,-0.53804 h 1.3451 q 1.4067,0 2.0647,0.58666 0.65797,0.58342 0.65797,1.828 0,1.2511 -0.66121,1.8378 -0.66121,0.5867 -2.0614,0.58666 h -1.3451 z"
           id="path107" />
        <path
           d="m 49.149,14.609 h 3.0597 v 0.55101 h -2.405 v 1.4326 h 2.3045 v 0.551 h -2.3045 v 1.7535 h 2.4633 v 0.551 h -3.118 z"
           id="path109" />
      </g>
      <g
         transform="matrix(0.2443,0,0,0.2443,39.88,5.093)"
         aria-label="Plasma KDE"
         id="g131">
        <path
           d="m 14.322,15.147 v 1.8183 h 0.82327 q 0.45701,0 0.70658,-0.23661 0.24957,-0.23661 0.24957,-0.67417 0,-0.43432 -0.24957,-0.67093 -0.24957,-0.23661 -0.70658,-0.23661 z m -0.65472,-0.53804 h 1.478 q 0.81354,0 1.2284,0.3695 0.41812,0.36626 0.41812,1.0761 0,0.71631 -0.41812,1.0826 -0.41488,0.36626 -1.2284,0.36626 h -0.82327 v 1.9447 h -0.65472 z"
           id="path113" />
        <path
           d="m 17.644,14.405 h 0.59638 v 5.0433 H 17.644 Z"
           id="path115" />
        <path
           d="m 21.138,17.624 q -0.72279,0 -1.0015,0.1653 -0.27874,0.1653 -0.27874,0.56397 0,0.31764 0.20744,0.50563 0.21068,0.18475 0.57045,0.18475 0.4959,0 0.7941,-0.35005 0.30143,-0.35329 0.30143,-0.93671 V 17.624 Z m 1.1895,-0.24633 v 2.0711 h -0.59638 v -0.551 q -0.2042,0.3306 -0.50887,0.48942 -0.30467,0.15558 -0.74548,0.15558 -0.55749,0 -0.88809,-0.31116 -0.32736,-0.3144 -0.32736,-0.83947 0,-0.61259 0.40839,-0.92374 0.41163,-0.31116 1.2252,-0.31116 h 0.83623 V 17.0989 q 0,-0.41163 -0.27226,-0.63528 -0.26902,-0.22688 -0.75844,-0.22688 -0.31116,0 -0.60611,0.07455 -0.29495,0.07455 -0.56721,0.22364 v -0.55101 q 0.32736,-0.12641 0.63528,-0.18799 0.30792,-0.06482 0.59962,-0.06482 0.78761,0 1.1766,0.40839 0.38894,0.40839 0.38894,1.2381 z"
           id="path117" />
        <path
           d="m 25.871,15.925 v 0.56397 q -0.25281,-0.12965 -0.52508,-0.19447 -0.27226,-0.06482 -0.56397,-0.06482 -0.44405,0 -0.66769,0.13613 -0.2204,0.13613 -0.2204,0.40839 0,0.20744 0.15882,0.32736 0.15882,0.11668 0.63852,0.22364 l 0.2042,0.04538 q 0.63528,0.13613 0.90106,0.3857 0.26902,0.24633 0.26902,0.69038 0,0.50563 -0.40191,0.80058 -0.39867,0.29495 -1.0988,0.29495 -0.29171,0 -0.60935,-0.05834 -0.3144,-0.0551 -0.66445,-0.16854 v -0.61583 q 0.3306,0.17178 0.65148,0.2593 0.32088,0.08427 0.63528,0.08427 0.42136,0 0.64824,-0.14261 0.22688,-0.14586 0.22688,-0.40839 0,-0.24309 -0.1653,-0.37274 -0.16206,-0.12965 -0.71631,-0.24957 L 24.3638,17.82112 q -0.55425,-0.11668 -0.80058,-0.35653 -0.24633,-0.24309 -0.24633,-0.66445 0,-0.51211 0.36302,-0.79086 0.36302,-0.27874 1.0307,-0.27874 0.3306,0 0.62231,0.04862 0.29171,0.04862 0.53804,0.14585 z"
           id="path119" />
        <path
           d="m 29.841,16.515 q 0.22364,-0.40191 0.5348,-0.59314 0.31116,-0.19123 0.73251,-0.19123 0.56721,0 0.87513,0.39867 0.30792,0.39543 0.30792,1.1279 v 2.1911 h -0.59962 v -2.1716 q 0,-0.52184 -0.18475,-0.77465 -0.18475,-0.25282 -0.56397,-0.25282 -0.46349,0 -0.73251,0.30792 -0.26902,0.30792 -0.26902,0.83947 v 2.0517 h -0.59962 v -2.1716 q 0,-0.52508 -0.18475,-0.77465 -0.18475,-0.25282 -0.57045,-0.25282 -0.45701,0 -0.72603,0.31116 -0.26902,0.30792 -0.26902,0.83623 v 2.0517 H 26.992 v -3.6302 h 0.59962 v 0.56397 q 0.2042,-0.33384 0.48942,-0.49266 0.28523,-0.15882 0.67741,-0.15882 0.39543,0 0.67093,0.20096 0.27874,0.20096 0.41163,0.58342 z"
           id="path121" />
        <path
           d="m 35.131,17.624 q -0.72279,0 -1.0015,0.1653 -0.27874,0.1653 -0.27874,0.56397 0,0.31764 0.20744,0.50563 0.21068,0.18475 0.57045,0.18475 0.49591,0 0.7941,-0.35005 0.30143,-0.35329 0.30143,-0.93671 V 17.624 Z m 1.1895,-0.24633 v 2.0711 h -0.59638 v -0.551 q -0.2042,0.3306 -0.50887,0.48942 -0.30467,0.15558 -0.74548,0.15558 -0.55749,0 -0.88809,-0.31116 -0.32736,-0.3144 -0.32736,-0.83947 0,-0.61259 0.40839,-0.92374 0.41163,-0.31116 1.2252,-0.31116 h 0.83623 V 17.0989 q 0,-0.41163 -0.27226,-0.63528 -0.26902,-0.22688 -0.75844,-0.22688 -0.31116,0 -0.60611,0.07455 -0.29495,0.07455 -0.56721,0.22364 v -0.55101 q 0.32736,-0.12641 0.63528,-0.18799 0.30792,-0.06482 0.59962,-0.06482 0.78761,0 1.1766,0.40839 0.38895,0.40839 0.38895,1.2381 z"
           id="path123" />
        <path
           d="m 39.685,14.609 h 0.65472 v 2.0452 l 2.1716,-2.0452 h 0.84272 l -2.4017,2.2559 2.5735,2.5832 h -0.86216 l -2.3239,-2.3304 v 2.3304 h -0.65472 z"
           id="path125" />
        <path
           d="m 44.692,15.147 v 3.763 h 0.79086 q 1.0015,0 1.465,-0.45377 0.46673,-0.45377 0.46673,-1.4326 0,-0.97236 -0.46673,-1.4229 -0.46349,-0.45377 -1.465,-0.45377 z m -0.65472,-0.53804 h 1.3451 q 1.4067,0 2.0647,0.58666 0.65797,0.58342 0.65797,1.828 0,1.2511 -0.66121,1.8378 -0.66121,0.5867 -2.0614,0.58666 h -1.3451 z"
           id="path127" />
        <path
           d="m 49.149,14.609 h 3.0597 v 0.55101 h -2.405 v 1.4326 h 2.3045 v 0.551 h -2.3045 v 1.7535 h 2.4633 v 0.551 h -3.118 z"
           id="path129" />
      </g>
    </g>
    <g
       transform="matrix(0.2443,0,0,0.2443,39.88,27.284)"
       fill="#969696"
       stroke-width="0.16595"
       aria-label="Plasma KDE"
       id="g153">
      <path
         d="m 14.322,15.147 v 1.8183 h 0.82327 q 0.45701,0 0.70658,-0.23661 0.24957,-0.23661 0.24957,-0.67417 0,-0.43432 -0.24957,-0.67093 -0.24957,-0.23661 -0.70658,-0.23661 z m -0.65472,-0.53804 h 1.478 q 0.81354,0 1.2284,0.3695 0.41812,0.36626 0.41812,1.0761 0,0.71631 -0.41812,1.0826 -0.41488,0.36626 -1.2284,0.36626 h -0.82327 v 1.9447 h -0.65472 z"
         id="path135" />
      <path
         d="m 17.644,14.405 h 0.59638 v 5.0433 H 17.644 Z"
         id="path137" />
      <path
         d="m 21.138,17.624 q -0.72279,0 -1.0015,0.1653 -0.27874,0.1653 -0.27874,0.56397 0,0.31764 0.20744,0.50563 0.21068,0.18475 0.57045,0.18475 0.4959,0 0.7941,-0.35005 0.30143,-0.35329 0.30143,-0.93671 V 17.624 Z m 1.1895,-0.24633 v 2.0711 h -0.59638 v -0.551 q -0.2042,0.3306 -0.50887,0.48942 -0.30467,0.15558 -0.74548,0.15558 -0.55749,0 -0.88809,-0.31116 -0.32736,-0.3144 -0.32736,-0.83947 0,-0.61259 0.40839,-0.92374 0.41163,-0.31116 1.2252,-0.31116 h 0.83623 V 17.0989 q 0,-0.41163 -0.27226,-0.63528 -0.26902,-0.22688 -0.75844,-0.22688 -0.31116,0 -0.60611,0.07455 -0.29495,0.07455 -0.56721,0.22364 v -0.55101 q 0.32736,-0.12641 0.63528,-0.18799 0.30792,-0.06482 0.59962,-0.06482 0.78761,0 1.1766,0.40839 0.38894,0.40839 0.38894,1.2381 z"
         id="path139" />
      <path
         d="m 25.871,15.925 v 0.56397 q -0.25281,-0.12965 -0.52508,-0.19447 -0.27226,-0.06482 -0.56397,-0.06482 -0.44405,0 -0.66769,0.13613 -0.2204,0.13613 -0.2204,0.40839 0,0.20744 0.15882,0.32736 0.15882,0.11668 0.63852,0.22364 l 0.2042,0.04538 q 0.63528,0.13613 0.90106,0.3857 0.26902,0.24633 0.26902,0.69038 0,0.50563 -0.40191,0.80058 -0.39867,0.29495 -1.0988,0.29495 -0.29171,0 -0.60935,-0.05834 -0.3144,-0.0551 -0.66445,-0.16854 v -0.61583 q 0.3306,0.17178 0.65148,0.2593 0.32088,0.08427 0.63528,0.08427 0.42136,0 0.64824,-0.14261 0.22688,-0.14586 0.22688,-0.40839 0,-0.24309 -0.1653,-0.37274 -0.16206,-0.12965 -0.71631,-0.24957 L 24.3638,17.82112 q -0.55425,-0.11668 -0.80058,-0.35653 -0.24633,-0.24309 -0.24633,-0.66445 0,-0.51211 0.36302,-0.79086 0.36302,-0.27874 1.0307,-0.27874 0.3306,0 0.62231,0.04862 0.29171,0.04862 0.53804,0.14585 z"
         id="path141" />
      <path
         d="m 29.841,16.515 q 0.22364,-0.40191 0.5348,-0.59314 0.31116,-0.19123 0.73251,-0.19123 0.56721,0 0.87513,0.39867 0.30792,0.39543 0.30792,1.1279 v 2.1911 h -0.59962 v -2.1716 q 0,-0.52184 -0.18475,-0.77465 -0.18475,-0.25282 -0.56397,-0.25282 -0.46349,0 -0.73251,0.30792 -0.26902,0.30792 -0.26902,0.83947 v 2.0517 h -0.59962 v -2.1716 q 0,-0.52508 -0.18475,-0.77465 -0.18475,-0.25282 -0.57045,-0.25282 -0.45701,0 -0.72603,0.31116 -0.26902,0.30792 -0.26902,0.83623 v 2.0517 H 26.992 v -3.6302 h 0.59962 v 0.56397 q 0.2042,-0.33384 0.48942,-0.49266 0.28523,-0.15882 0.67741,-0.15882 0.39543,0 0.67093,0.20096 0.27874,0.20096 0.41163,0.58342 z"
         id="path143" />
      <path
         d="m 35.131,17.624 q -0.72279,0 -1.0015,0.1653 -0.27874,0.1653 -0.27874,0.56397 0,0.31764 0.20744,0.50563 0.21068,0.18475 0.57045,0.18475 0.49591,0 0.7941,-0.35005 0.30143,-0.35329 0.30143,-0.93671 V 17.624 Z m 1.1895,-0.24633 v 2.0711 h -0.59638 v -0.551 q -0.2042,0.3306 -0.50887,0.48942 -0.30467,0.15558 -0.74548,0.15558 -0.55749,0 -0.88809,-0.31116 -0.32736,-0.3144 -0.32736,-0.83947 0,-0.61259 0.40839,-0.92374 0.41163,-0.31116 1.2252,-0.31116 h 0.83623 V 17.0989 q 0,-0.41163 -0.27226,-0.63528 -0.26902,-0.22688 -0.75844,-0.22688 -0.31116,0 -0.60611,0.07455 -0.29495,0.07455 -0.56721,0.22364 v -0.55101 q 0.32736,-0.12641 0.63528,-0.18799 0.30792,-0.06482 0.59962,-0.06482 0.78761,0 1.1766,0.40839 0.38895,0.40839 0.38895,1.2381 z"
         id="path145" />
      <path
         d="m 39.685,14.609 h 0.65472 v 2.0452 l 2.1716,-2.0452 h 0.84272 l -2.4017,2.2559 2.5735,2.5832 h -0.86216 l -2.3239,-2.3304 v 2.3304 h -0.65472 z"
         id="path147" />
      <path
         d="m 44.692,15.147 v 3.763 h 0.79086 q 1.0015,0 1.465,-0.45377 0.46673,-0.45377 0.46673,-1.4326 0,-0.97236 -0.46673,-1.4229 -0.46349,-0.45377 -1.465,-0.45377 z m -0.65472,-0.53804 h 1.3451 q 1.4067,0 2.0647,0.58666 0.65797,0.58342 0.65797,1.828 0,1.2511 -0.66121,1.8378 -0.66121,0.5867 -2.0614,0.58666 h -1.3451 z"
         id="path149" />
      <path
         d="m 49.149,14.609 h 3.0597 v 0.55101 h -2.405 v 1.4326 h 2.3045 v 0.551 h -2.3045 v 1.7535 h 2.4633 v 0.551 h -3.118 z"
         id="path151" />
    </g>
  </g>
</svg>
