<?xml version="1.0" encoding="UTF-8"?>
<svg width="64" height="64" version="1.1" viewBox="0 0 16.933 16.933" xmlns="http://www.w3.org/2000/svg" xmlns:cc="http://creativecommons.org/ns#" xmlns:dc="http://purl.org/dc/elements/1.1/" xmlns:rdf="http://www.w3.org/1999/02/22-rdf-syntax-ns#" xmlns:xlink="http://www.w3.org/1999/xlink">
 <defs>
  <linearGradient id="linearGradient1005" x1="3.7292" x2="12.359" y1="13.306" y2="4.676" gradientTransform="matrix(.99999 0 0 .99999 .38065 .18624)" gradientUnits="userSpaceOnUse">
   <stop stop-color="#232223" offset="0"/>
   <stop stop-color="#49484d" offset="1"/>
  </linearGradient>
  <filter id="e" x="-.065454" y="-.055385" width="1.1309" height="1.1108" color-interpolation-filters="sRGB">
   <feGaussianBlur stdDeviation="0.59999875"/>
  </filter>
  <linearGradient id="c" x1="31.458" x2="31.458" y1="51.726" y2="62.898" gradientTransform="matrix(.32565 0 0 .32565 -1.3618 -7.6029)" gradientUnits="userSpaceOnUse">
   <stop stop-color="#1776ff" offset="0"/>
   <stop stop-color="#2fceff" offset="1"/>
  </linearGradient>
  <linearGradient id="linearGradient941" x1="31.458" x2="31.458" y1="36.898" y2="59.898" gradientTransform="matrix(.32565 0 0 .32565 -1.3618 -7.6029)" gradientUnits="userSpaceOnUse">
   <stop stop-color="#ff5514" offset="0"/>
   <stop stop-color="#ff9014" offset="1"/>
  </linearGradient>
  <linearGradient id="a" x1="31.458" x2="31.458" y1="46.898" y2="56.898" gradientTransform="matrix(.32565 0 0 .32565 -1.3618 -7.6029)" gradientUnits="userSpaceOnUse">
   <stop stop-color="#c0e5fb" offset="0"/>
   <stop stop-color="#c3faff" offset="1"/>
  </linearGradient>
 </defs>
 <metadata>
  <rdf:RDF>
   <cc:Work rdf:about="">
    <dc:format>image/svg+xml</dc:format>
    <dc:type rdf:resource="http://purl.org/dc/dcmitype/StillImage"/>
    <dc:title/>
   </cc:Work>
  </rdf:RDF>
 </metadata>
 <g transform="translate(-.41577 -.17954)">
  <path d="m16.82 8.6462c0 0.95155-0.16749 1.8638-0.47464 2.7093-0.2135 0.58769-0.49437 1.1433-0.83391 1.6572-0.14222 0.21608-0.29514 0.42476-0.45746 0.62529-0.51964 0.6418-1.1372 1.2007-1.8305 1.6543-0.2553 0.16717-0.52065 0.32009-0.79536 0.45712-1.0668 0.53388-2.2711 0.8342-3.5457 0.8342-1.2745 0-2.4788-0.30033-3.5457-0.83423-0.27474-0.13705-0.54041-0.28996-0.79571-0.45712-0.70207-0.45971-1.327-1.0274-1.8509-1.6798-0.16262-0.20216-0.31522-0.41275-0.45746-0.63077-0.33046-0.50538-0.6042-1.0507-0.81349-1.627-0.3071-0.84529-0.47429-1.7573-0.47429-2.7085 0-4.3839 3.5536-7.9375 7.9375-7.9375 2.2005 0 4.1915 0.89548 5.6295 2.3417 0.41436 0.41661 0.78274 0.87929 1.0963 1.3795 0.29644 0.47106 0.54428 0.97581 0.73705 1.5068 0.30718 0.84558 0.47466 1.7579 0.47466 2.7093z" fill="url(#linearGradient1005)" stroke-width=".031006"/>
  <g clip-rule="evenodd" fill-rule="evenodd">
   <path transform="matrix(.32565 0 0 .32565 -1.3618 -7.6031)" d="m29.39 51.726-0.93164 2.1719 3 9 3-9-0.93164-2.1719z" enable-background="new" filter="url(#e)" opacity=".35" style="paint-order:normal"/>
   <path transform="matrix(.32565 0 0 .32565 -1.3618 -7.6031)" d="m29.458 36.898-9 23h4l7-17 7 17h4l-9-23z" enable-background="new" filter="url(#e)" opacity=".35" style="paint-order:normal"/>
   <path transform="matrix(.32565 0 0 .32565 -1.3618 -7.6031)" d="m31.458 46.898-2.0684 4.8281 2.0684 5.1719 2.0684-5.1719z" enable-background="new" filter="url(#e)" opacity=".35" style="paint-order:normal"/>
   <g stroke-width=".32565">
    <path d="m8.209 9.2417-0.30339 0.70728 0.97695 2.9308 0.97695-2.9308-0.30339-0.70728z" enable-background="new" fill="url(#c)" style="paint-order:normal"/>
    <path d="m8.2312 4.4129-2.9308 7.4899h1.3026l2.2795-5.536 2.2795 5.536h1.3026l-2.9308-7.4899z" enable-background="new" fill="url(#linearGradient941)" style="paint-order:normal"/>
    <path d="m8.8825 7.6694-0.67357 1.5723 0.67357 1.6842 0.67357-1.6842z" enable-background="new" fill="url(#a)" style="paint-order:normal"/>
   </g>
  </g>
 </g>
</svg>
