<?xml version="1.0" encoding="UTF-8" standalone="no"?>
<svg
   xmlns:dc="http://purl.org/dc/elements/1.1/"
   xmlns:cc="http://creativecommons.org/ns#"
   xmlns:rdf="http://www.w3.org/1999/02/22-rdf-syntax-ns#"
   xmlns:svg="http://www.w3.org/2000/svg"
   xmlns="http://www.w3.org/2000/svg"
   xmlns:sodipodi="http://sodipodi.sourceforge.net/DTD/sodipodi-0.dtd"
   xmlns:inkscape="http://www.inkscape.org/namespaces/inkscape"
   width="64"
   height="64"
   version="1.1"
   id="svg12"
   sodipodi:docname="allegorithmic-Substance_B2M.svg"
   inkscape:version="1.0.1 (3bc2e813f5, 2020-09-07, custom)">
  <metadata
     id="metadata18">
    <rdf:RDF>
      <cc:Work
         rdf:about="">
        <dc:format>image/svg+xml</dc:format>
        <dc:type
           rdf:resource="http://purl.org/dc/dcmitype/StillImage" />
        <dc:title></dc:title>
      </cc:Work>
    </rdf:RDF>
  </metadata>
  <defs
     id="defs16" />
  <sodipodi:namedview
     pagecolor="#ffffff"
     bordercolor="#666666"
     borderopacity="1"
     objecttolerance="10"
     gridtolerance="10"
     guidetolerance="10"
     inkscape:pageopacity="0"
     inkscape:pageshadow="2"
     inkscape:window-width="1920"
     inkscape:window-height="935"
     id="namedview14"
     showgrid="false"
     inkscape:zoom="4.2813106"
     inkscape:cx="30.587374"
     inkscape:cy="48.267661"
     inkscape:window-x="0"
     inkscape:window-y="38"
     inkscape:window-maximized="1"
     inkscape:current-layer="svg12" />
  <g
     id="g847"
     transform="matrix(1.0377328,0,0,1.0377328,-1.2073503,-1.7261455)">
    <path
       style="fill:#16aca8"
       d="M 37.406,6.008 C 36.85,6.0688 36.425,6.4742 35.988,7.3225 L 34.529,10.157 A 22.5,22.5 0 0 0 32,9.9999 22.5,22.5 0 0 0 29.477,10.17 L 28.01,7.3244 C 27.263,6.0104 26.594,5.9362 25.418,6.2502 22.977,7.2637 20.534,8.2746 18.092,9.2854 16.867,9.7928 16.552,10.423 17.018,11.877 l 0.966,3.024 A 22.5,22.5 0 0 0 14.42,18.493 L 11.377,17.52 C 9.9227,17.055 9.2926,17.367 8.7852,18.592 7.775,21.035 6.7627,23.478 5.75,25.92 5.2425,27.145 5.4651,27.813 6.8223,28.512 l 2.834,1.459 A 22.5,22.5 0 0 0 9.5,32.5 22.5,22.5 0 0 0 9.6699,35.022 L 6.8223,36.491 C 5.4651,37.19 5.2425,37.857 5.75,39.082 c 1.0137,2.442 2.0241,4.884 3.0352,7.327 0.5074,1.225 1.1375,1.539 2.5918,1.074 L 14.4,46.514 a 22.5,22.5 0 0 0 3.592,3.566 l -0.974,3.043 c -0.466,1.455 -0.151,2.085 1.074,2.592 2.443,1.01 4.886,2.023 7.328,3.035 1.225,0.508 1.892,0.285 2.592,-1.072 l 1.459,-2.834 A 22.5,22.5 0 0 0 32,55 22.5,22.5 0 0 0 34.521,54.83 l 1.467,2.848 c 0.7,1.357 1.367,1.58 2.592,1.072 2.442,-1.013 4.885,-2.024 7.328,-3.035 1.225,-0.507 1.54,-1.137 1.074,-2.592 L 46.014,50.1 a 22.5,22.5 0 0 0 3.566,-3.592 l 3.043,0.973 c 1.454,0.465 2.084,0.153 2.592,-1.072 1.01,-2.444 2.022,-4.886 3.035,-7.329 0.507,-1.225 0.285,-1.892 -1.072,-2.591 L 54.344,35.03 A 22.5,22.5 0 0 0 54.5,32.5 22.5,22.5 0 0 0 54.33,29.979 l 2.848,-1.469 c 1.357,-0.699 1.579,-1.367 1.072,-2.592 -1.014,-2.441 -2.024,-4.883 -3.035,-7.326 -0.508,-1.225 -1.138,-1.539 -2.592,-1.074 L 49.6,18.487 A 22.5,22.5 0 0 0 46.008,14.92 l 0.974,-3.043 C 47.448,10.423 47.133,9.7929 45.908,9.2854 43.465,8.2753 41.022,7.263 38.58,6.2502 38.121,6.0599 37.74,5.9716 37.406,6.008 Z"
       id="path4" />
    <path
       style="opacity:0.2"
       d="m 32,15 -16,9 v 8 l 23,8 -7,4 -9,-5 V 37 L 16,34.5 V 43 l 16,9 16,-9 v -8 l -23,-8 7,-4 9,5 v 2 l 7,2.5 V 24 Z"
       id="path6" />
    <path
       style="fill:#ffffff"
       d="m 32,14 -16,9 v 8 l 23,8 -7,4 -9,-5 V 36 L 16,33.5 V 42 l 16,9 16,-9 v -8 l -23,-8 7,-4 9,5 v 2 l 7,2.5 V 23 Z"
       id="path8" />
    <path
       style="opacity:0.2;fill:#ffffff"
       d="M 37.406,6.0078 C 36.85,6.0686 36.425,6.474 35.988,7.3223 L 34.529,10.156 A 22.5,22.5 0 0 0 32,10 22.5,22.5 0 0 0 29.477,10.17 L 28.01,7.3242 C 27.263,6.0102 26.594,5.936 25.418,6.25 22.977,7.2635 20.534,8.2744 18.092,9.2852 17.02,9.7291 16.646,10.268 16.881,11.369 17.022,10.893 17.412,10.567 18.092,10.285 20.534,9.2749 22.977,8.2635 25.418,7.25 26.594,6.936 27.263,7.0102 28.01,8.3242 L 29.477,11.17 A 22.5,22.5 0 0 1 32,11 22.5,22.5 0 0 1 34.529,11.156 L 35.988,8.3223 C 36.425,7.474 36.85,7.0686 37.406,7.0078 37.74,6.9714 38.121,7.0597 38.58,7.25 c 2.442,1.0128 4.885,2.0256 7.328,3.035 0.68,0.282 1.07,0.608 1.211,1.084 C 47.354,10.268 46.98,9.7292 45.908,9.2852 43.465,8.2751 41.022,7.2628 38.58,6.25 38.121,6.0597 37.74,5.9714 37.406,6.0078 Z M 17.736,15.121 A 22.5,22.5 0 0 0 14.42,18.492 L 11.377,17.52 C 9.9227,17.055 9.2926,17.367 8.7852,18.592 7.775,21.035 6.7627,23.478 5.75,25.92 5.4985,26.527 5.4277,26.997 5.584,27.402 5.6253,27.251 5.6786,27.092 5.75,26.92 6.7627,24.478 7.775,22.035 8.7852,19.592 9.2926,18.367 9.9227,18.055 11.377,18.52 l 3.043,0.972 A 22.5,22.5 0 0 1 17.984,15.9 Z m 28.526,0.006 -0.254,0.793 a 22.5,22.5 0 0 1 3.592,3.566 l 3.023,-0.968 c 1.454,-0.465 2.084,-0.151 2.592,1.074 1.011,2.443 2.021,4.885 3.035,7.326 0.072,0.173 0.123,0.332 0.164,0.484 0.157,-0.405 0.088,-0.876 -0.164,-1.484 -1.014,-2.441 -2.024,-4.883 -3.035,-7.326 -0.508,-1.225 -1.138,-1.539 -2.592,-1.074 L 49.6,18.486 A 22.5,22.5 0 0 0 46.262,15.127 Z M 9.5898,30.938 A 22.5,22.5 0 0 0 9.5,32.5 22.5,22.5 0 0 0 9.5254,32.906 22.5,22.5 0 0 1 9.6562,30.971 Z m 44.8142,0.001 -0.074,0.04 A 22.5,22.5 0 0 1 54.475,33.094 22.5,22.5 0 0 0 54.5,32.5 22.5,22.5 0 0 0 54.404,30.939 Z M 9.5957,35.061 6.8223,36.49 C 5.6559,37.091 5.3311,37.672 5.584,38.6 5.7435,38.188 6.1385,37.842 6.8223,37.49 L 9.6699,36.021 A 22.5,22.5 0 0 1 9.5957,35.061 Z M 54.41,35.062 a 22.5,22.5 0 0 1 -0.066,0.967 l 2.834,1.459 c 0.683,0.352 1.077,0.698 1.236,1.11 0.253,-0.928 -0.07,-1.509 -1.236,-2.11 z m -36.672,15.811 -0.72,2.25 c -0.208,0.647 -0.25,1.125 -0.137,1.508 0.033,-0.158 0.078,-0.326 0.137,-0.508 l 0.974,-3.043 a 22.5,22.5 0 0 1 -0.254,-0.207 z m 28.526,0.006 a 22.5,22.5 0 0 1 -0.25,0.221 l 0.968,3.023 c 0.059,0.182 0.104,0.35 0.137,0.508 0.113,-0.383 0.071,-0.861 -0.137,-1.508 z"
       id="path10" />
  </g>
</svg>
