<?xml version="1.0" encoding="UTF-8"?>
<svg width="64" height="64" version="1.1" xmlns="http://www.w3.org/2000/svg" xmlns:cc="http://creativecommons.org/ns#" xmlns:dc="http://purl.org/dc/elements/1.1/" xmlns:rdf="http://www.w3.org/1999/02/22-rdf-syntax-ns#">
 <metadata>
  <rdf:RDF>
   <cc:Work rdf:about="">
    <dc:format>image/svg+xml</dc:format>
    <dc:type rdf:resource="http://purl.org/dc/dcmitype/StillImage"/>
    <dc:title/>
   </cc:Work>
  </rdf:RDF>
 </metadata>
 <defs>
  <filter id="d" x="-.058883" y="-.061161" width="1.1178" height="1.1223" color-interpolation-filters="sRGB">
   <feGaussianBlur stdDeviation="10.562379"/>
  </filter>
  <filter id="filter883" x="-.05999" y="-.06001" width="1.12" height="1.12" color-interpolation-filters="sRGB">
   <feGaussianBlur stdDeviation="0.21163584"/>
  </filter>
  <linearGradient id="a-3" x1="32" x2="32" y1="2" y2="62" gradientTransform="translate(.25274 .81328)" gradientUnits="userSpaceOnUse">
   <stop stop-color="#f5faff" offset="0"/>
   <stop stop-color="#cfdef0" offset="1"/>
  </linearGradient>
 </defs>
 <circle cx="32" cy="32" r="30" fill="url(#a-3)" style="paint-order:stroke markers fill"/>
 <g transform="matrix(3.7795 0 0 3.7807 .00042365 -1058.9)" fill-rule="evenodd" filter="url(#filter883)" opacity=".25" stroke-opacity=".255" stroke-width=".21497">
  <path d="m9.073 287.94c0 0.445 0.011 0.815-0.204 1.21-0.173 0.32-0.448 0.517-0.754 0.517-0.419 0-0.662-0.333-0.662-0.825 0-0.972 0.833-1.149 1.62-1.149v0.247m1.099 2.778a0.22 0.22 0 0 1-0.257 0.028c-0.361-0.314-0.426-0.46-0.626-0.76-0.598 0.638-1.02 0.829-1.796 0.829-0.917 0-1.632-0.592-1.632-1.776 0-0.925 0.48-1.556 1.162-1.864 0.59-0.272 1.417-0.32 2.049-0.395v-0.148c0-0.27 0.02-0.591-0.131-0.825-0.133-0.21-0.388-0.297-0.612-0.297-0.416 0-0.786 0.223-0.876 0.685-0.02 0.103-0.09 0.203-0.19 0.208l-1.057-0.118c-0.089-0.021-0.187-0.096-0.163-0.239 0.245-1.338 1.402-1.743 2.438-1.743 0.53 0 1.223 0.148 1.64 0.568 0.531 0.517 0.48 1.208 0.48 1.96v1.776c0 0.534 0.212 0.768 0.411 1.057 0.07 0.102 0.086 0.226-2e-3 0.303a52.39 52.39 0 0 0-0.836 0.757l-4e-3 -4e-3"/>
  <path d="m11.886 291.69c-0.927 0.7-2.27 1.073-3.428 1.073a6.117 6.117 0 0 1-4.187-1.638c-0.087-0.08-0.01-0.19 0.095-0.127a8.27 8.27 0 0 0 4.19 1.138 8.138 8.138 0 0 0 3.196-0.67c0.157-0.068 0.289 0.105 0.135 0.223"/>
  <path d="m12.272 291.24c-0.118-0.156-0.784-0.074-1.081-0.037-0.092 0.01-0.106-0.07-0.023-0.129 0.529-0.382 1.4-0.272 1.5-0.143 0.101 0.128-0.026 1.021-0.525 1.447-0.076 0.066-0.148 0.03-0.114-0.056 0.11-0.286 0.362-0.927 0.243-1.082"/>
 </g>
 <g transform="matrix(3.7795 0 0 3.7807 .00042425 -1058.9)" fill-rule="evenodd" stroke-opacity=".255" stroke-width=".21497">
  <path d="m9.073 287.94c0 0.445 0.011 0.815-0.204 1.21-0.173 0.32-0.448 0.517-0.754 0.517-0.419 0-0.662-0.333-0.662-0.825 0-0.972 0.833-1.149 1.62-1.149v0.247m1.099 2.778a0.22 0.22 0 0 1-0.257 0.028c-0.361-0.314-0.426-0.46-0.626-0.76-0.598 0.638-1.02 0.829-1.796 0.829-0.917 0-1.632-0.592-1.632-1.776 0-0.925 0.48-1.556 1.162-1.864 0.59-0.272 1.417-0.32 2.049-0.395v-0.148c0-0.27 0.02-0.591-0.131-0.825-0.133-0.21-0.388-0.297-0.612-0.297-0.416 0-0.786 0.223-0.876 0.685-0.02 0.103-0.09 0.203-0.19 0.208l-1.057-0.118c-0.089-0.021-0.187-0.096-0.163-0.239 0.245-1.338 1.402-1.743 2.438-1.743 0.53 0 1.223 0.148 1.64 0.568 0.531 0.517 0.48 1.208 0.48 1.96v1.776c0 0.534 0.212 0.768 0.411 1.057 0.07 0.102 0.086 0.226-2e-3 0.303a52.39 52.39 0 0 0-0.836 0.757l-4e-3 -4e-3" fill="#2d3237"/>
  <path d="m11.886 291.69c-0.927 0.7-2.27 1.073-3.428 1.073a6.117 6.117 0 0 1-4.187-1.638c-0.087-0.08-0.01-0.19 0.095-0.127a8.27 8.27 0 0 0 4.19 1.138 8.138 8.138 0 0 0 3.196-0.67c0.157-0.068 0.289 0.105 0.135 0.223" fill="#ff9b00"/>
  <path d="m12.272 291.24c-0.118-0.156-0.784-0.074-1.081-0.037-0.092 0.01-0.106-0.07-0.023-0.129 0.529-0.382 1.4-0.272 1.5-0.143 0.101 0.128-0.026 1.021-0.525 1.447-0.076 0.066-0.148 0.03-0.114-0.056 0.11-0.286 0.362-0.927 0.243-1.082" fill="#ff9b00"/>
 </g>
</svg>
