<?xml version="1.0" encoding="UTF-8"?>
<svg width="64" height="64" version="1.1" viewBox="0 0 16.933 16.933" xmlns="http://www.w3.org/2000/svg" xmlns:cc="http://creativecommons.org/ns#" xmlns:dc="http://purl.org/dc/elements/1.1/" xmlns:rdf="http://www.w3.org/1999/02/22-rdf-syntax-ns#" xmlns:xlink="http://www.w3.org/1999/xlink">
 <defs>
  <filter id="filter1010" x="-.079807" y="-.04807" width="1.1596" height="1.0961" color-interpolation-filters="sRGB">
   <feGaussianBlur stdDeviation="0.95786011"/>
  </filter>
  <linearGradient id="linearGradient1305" x1="39.304" x2="39.304" y1="55.823" y2="49.448" gradientTransform="matrix(.30022 0 0 .30022 -.32454 -2.7865)" gradientUnits="userSpaceOnUse">
   <stop stop-color="#ff4e4e" offset="0"/>
   <stop stop-color="#d00" stop-opacity=".97647" offset="1"/>
  </linearGradient>
  <linearGradient id="linearGradient1309" x1="32.928" x2="32.928" y1="42.679" y2="25.535" gradientTransform="matrix(.29724 .042233 -.042233 .29724 .070671 -2.8045)" gradientUnits="userSpaceOnUse">
   <stop stop-color="#b76e2c" offset="0"/>
   <stop stop-color="#cd7e35" offset="1"/>
  </linearGradient>
  <linearGradient id="linearGradient1311" x1="32.952" x2="32.952" y1="54.202" y2="39.883" gradientTransform="matrix(.29724 .042233 -.042233 .29724 .070671 -2.8045)" gradientUnits="userSpaceOnUse">
   <stop stop-color="#707070" offset="0"/>
   <stop stop-color="#8e8e8e" stop-opacity=".87778" offset="1"/>
  </linearGradient>
  <linearGradient id="linearGradient1313" x1="32.297" x2="32.297" y1="54.23" y2="39.887" gradientTransform="matrix(.29724 .042233 -.042233 .29724 .070671 -2.8045)" gradientUnits="userSpaceOnUse">
   <stop stop-color="#c6c6c6" offset="0"/>
   <stop stop-color="#e4e4e4" stop-opacity=".99444" offset="1"/>
  </linearGradient>
  <linearGradient id="linearGradient1315" x1="34.865" x2="34.865" y1="35.1" y2="37.492" gradientTransform="matrix(.30022 0 0 .30022 -.32454 -2.7865)" gradientUnits="userSpaceOnUse" xlink:href="#linearGradient944"/>
  <linearGradient id="linearGradient944">
   <stop stop-color="#232323" offset="0"/>
   <stop stop-color="#5f5f5f" offset="1"/>
  </linearGradient>
  <linearGradient id="linearGradient1317" x1="28.489" x2="28.489" y1="35.1" y2="37.492" gradientTransform="matrix(.30022 0 0 .30022 -.32454 -2.7865)" gradientUnits="userSpaceOnUse" xlink:href="#linearGradient944"/>
  <linearGradient id="linearGradient1307" x1="27.355" x2="27.355" y1="30.203" y2="8" gradientTransform="matrix(.29724 .042233 -.042233 .29724 .070671 -2.8045)" gradientUnits="userSpaceOnUse">
   <stop stop-color="#78502d" offset="0"/>
   <stop stop-color="#c2752f" offset="1"/>
  </linearGradient>
 </defs>
 <metadata>
  <rdf:RDF>
   <cc:Work rdf:about="">
    <dc:format>image/svg+xml</dc:format>
    <dc:type rdf:resource="http://purl.org/dc/dcmitype/StillImage"/>
    <dc:title/>
   </cc:Work>
  </rdf:RDF>
 </metadata>
 <g transform="matrix(1.0235 0 0 1.0235 .10051 -.18965)">
  <g stroke-width=".89321">
   <circle transform="matrix(.29724 .042233 -.042233 .29724 .070671 -2.8045)" cx="39.304" cy="52.635" r="3.1879" filter="url(#filter1010)" opacity=".15"/>
   <path transform="matrix(.29724 .042233 -.042233 .29724 .070671 -2.8045)" d="m30.945 25.535c-3.5126 0.32692-5.8355 2.1929-7.2093 4.8413-0.21367 0.66148-0.32928 1.3957-0.32928 2.1986 0 2.7774 0.86794 4.923 0.61931 7.7448-0.33693 3.8243-3.2064 6.1332-1.9321 9.5899 0.02644 0.08453 0.03442 0.16176 0.06542 0.24788 0.2631 0.73076 0.78643 1.4878 1.5221 2.3323 0.11912 0.13673 0.26074 0.25574 0.4056 0.3729 0.57808 0.47734 1.341 0.80782 2.2199 1.0217 0.60108 0.14627 1.2529 0.24224 1.9255 0.29962 0.22901 0.0195 0.46052 0.03382 0.69345 0.04525l0.19844-0.02589c2.3606 0.0922 4.834-0.17219 6.2803-0.25004 0.34547-0.01859 0.69225-0.05679 1.038-0.11208 1.068-0.17087 2.1227-0.51284 3.0944-0.99154h0.0065c0.04702-0.02369 0.08859-0.05532 0.1352-0.07975 0.37021-0.18939 0.7332-0.39077 1.0729-0.61863 1.0872-0.72918 1.997-1.6455 2.5906-2.6901 0.50662-0.89137 0.78038-1.8761 0.74143-2.9164-0.01287-1.0774-0.34353-2.2149-1.0947-3.3734-2.4473-3.7741-5.1023-8.4074-5.2402-13.453-0.07412-0.73502-0.33483-1.3758-0.73707-1.9227-1.3816-1.694-4.1397-2.2521-6.0666-2.2611z" filter="url(#filter1010)" opacity=".15"/>
   <path transform="matrix(.29724 .042233 -.042233 .29724 .070671 -2.8045)" d="m36.047 39.888c1.2699 0 2.4439-0.02683 3.3208 0.27885 0.94638 0.32984 1.5463 1.0471 1.5463 2.6035 0 1.4234-2.2145 3.5109-2.873 5.4625 0.22157 1.6765 0.76063 3.3366 1.5025 4.6166 0.42022-0.20749 0.8245-0.44074 1.2067-0.69729 1.0866-0.72918 1.9955-1.6459 2.5888-2.6905 1.0009-1.762 1.1039-3.8877-0.35296-6.0899-3.531-6.8788-17.462-1.957-20.11 0.95159-0.13666 0.92431-1.7541 2.9306-0.70868 5.8357 0.26296 0.73075 0.78598 1.4865 1.5213 2.331 0.5943 0.68248 1.5262 1.113 2.6247 1.375 0.60075 0.14331 1.2512 0.23619 1.9235 0.2924 0.22888 0.0191 0.46021 0.03398 0.69302 0.04518-0.0015-1.0742 0.07589-2.1445 0.05272-3.1666-2e-3 -0.08885-0.0049-0.17737-0.0084-0.26547-0.23106-2.3458-4.5444-2.7965-4.5444-6.0934 0-0.68366 0.22627-1.2727 0.61965-1.7795 1.9551-2.5189 8.0381-3.0095 10.997-3.0095z" filter="url(#filter1010)" opacity=".15"/>
   <path transform="matrix(.29724 .042233 -.042233 .29724 .070671 -2.8045)" d="m36.047 39.888c-2.9591 0-9.0421 0.49064-10.997 3.0095 1.3155 1.6949 2.3491 3.2564 3.2832 5.0609 0.44401 0.85775 0.59979 1.8093 0.64152 2.812 0.0084 0.08591 0.01125 0.17425 0.0084 0.26547 0.02317 1.0221-0.05429 2.0924-0.0527 3.1666 2.4179 0.11614 4.9889-0.16828 6.4748-0.2483 0.34528-0.01859 0.69197-0.05613 1.0375-0.11142 1.0697-0.17125 2.1281-0.51319 3.1009-0.99347-0.7419-1.28-1.281-2.94-1.5025-4.6166-0.07301-0.55223-0.11154-1.1061-0.11154-1.6489 0-1.6987 0.6369-4.6826 1.4382-6.417-0.87686-0.3056-2.0509-0.27876-3.3208-0.27876z" filter="url(#filter1010)" opacity=".15"/>
   <path transform="matrix(.29724 .042233 -.042233 .29724 .070671 -2.8045)" d="m28.333 47.958c-0.93418-1.8045-1.9678-3.366-3.2832-5.0609-0.39338 0.50688-0.61965 1.0959-0.61965 1.7795 0 3.2969 4.3134 3.7475 4.5444 6.0934-0.04173-1.0026-0.19752-1.9542-0.64152-2.812z" filter="url(#filter1010)" opacity=".15"/>
   <path transform="matrix(.29724 .042233 -.042233 .29724 .070671 -2.8045)" d="m39.368 40.166c-0.80132 1.7344-1.4382 4.7184-1.4382 6.417 0 0.5428 0.03851 1.0967 0.11154 1.6489 0.65851-1.9515 2.873-4.0391 2.873-5.4625 0-1.5564-0.59996-2.2736-1.5463-2.6035z" filter="url(#filter1010)" opacity=".15"/>
   <path transform="matrix(.29724 .042233 -.042233 .29724 .070671 -2.8045)" d="m34.642 31.982c-0.676 0.19066-1.7684 3.1314-1.7696 4.0932-0.0016 1.2566 0.39592 1.7385 1.1554 2.3097 0.75944 0.57121 4.4142 1.2701 4.4231-0.06819 0.0088-1.3179-0.03963-2.4371-0.21663-3.178-0.17701-0.74092-0.53742-2.1448-1.2638-2.7494-0.45645-0.37986-1.6524-0.598-2.3284-0.40734z" filter="url(#filter1010)" opacity=".15"/>
   <circle transform="matrix(.29724 .042233 -.042233 .29724 .070671 -2.8045)" cx="34.865" cy="36.296" r="1.196" filter="url(#filter1010)" opacity=".15"/>
   <path transform="matrix(.29724 .042233 -.042233 .29724 .070671 -2.8045)" d="m30.432 35.486c-0.13169-0.98465-1.4238-2.6503-2.2406-3.1787-2.063-1.3344-3.4471 0.98338-3.2748 2.911 0.12802 1.4326 0.89495 5.3832 2.6543 4.5505 1.7593-0.83268 3.1993-1.7558 2.8611-4.2828z" filter="url(#filter1010)" opacity=".15"/>
   <circle transform="matrix(.29724 .042233 -.042233 .29724 .070671 -2.8045)" cx="28.489" cy="36.296" r="1.196" filter="url(#filter1010)" opacity=".15"/>
  </g>
  <g stroke-width=".26816">
   <circle transform="rotate(8.0868)" cx="11.475" cy="13.015" r=".95707" fill="url(#linearGradient1305)"/>
   <path d="m11.325 1.2205c-0.1398-0.021736-0.41184 0.25-0.63239 0.4964-0.50282 0.56168-1.0333 1.179-1.5788 1.9737-0.54251 0.7904-0.57543 0.74486-0.77845 2.5349 0.31259 0.062234 0.9564 0.32291 1.2296 0.51197 0.053418-0.067887 0.11276-0.18356 0.16371-0.25748 0.79976-1.1606 1.2037-3.0436 1.5958-4.5271 0.13777-0.52133 0.10938-0.71547 6.35e-4 -0.73237zm-7.2629 1.3773c-0.46688-0.036165 0.26014 1.8476 0.48412 2.3321 0.20315 0.4394 0.75202 1.2173 1.1902 1.8458 0.093891 0.13468 0.17814 0.2519 0.25803 0.36273 0 0 0.048532 0.09179 0.093038 0.061718 0.25162-0.17003 1.0877-0.8501 1.3794-0.91735l-0.028446-0.062947c-0.59845-1.2358-1.7022-2.3982-3.0982-3.4789-0.12038-0.093199-0.21139-0.13776-0.27808-0.14293z" fill="url(#linearGradient1307)"/>
   <path d="m8.1901 6.0925c-1.0579-0.051178-1.8271 0.40534-2.3473 1.1345-0.091448 0.18759-0.15682 0.40095-0.19072 0.63958-0.1173 0.82555 0.05008 1.4999-0.143 2.3282-0.26166 1.1225-1.2121 1.6876-0.9793 2.7689 0.00429 0.02624 0.00339 0.04954 0.00898 0.07644 0.04734 0.22832 0.17092 0.47544 0.35393 0.75754 0.029635 0.04567 0.066702 0.08703 0.10481 0.12797 0.15167 0.1663 0.36447 0.29674 0.61667 0.39744 0.17248 0.06886 0.36218 0.12492 0.55966 0.17037 0.067241 0.01548 0.13545 0.0295 0.20421 0.04273l0.060075 6.88e-4c0.69776 0.1271 1.4441 0.15297 1.8773 0.19091 0.10347 0.0091 0.20816 0.01236 0.31326 0.01052 0.32467-0.0057 0.65259-0.06279 0.96165-0.16404l0.00193 2.91e-4c0.014978-0.0051 0.028666-0.0127 0.043554-0.018 0.11804-0.04066 0.23444-0.08519 0.34503-0.13857 0.35395-0.17082 0.66308-0.40476 0.88363-0.6902 0.18823-0.24355 0.31119-0.52468 0.34355-0.83556 0.04169-0.3208-0.0086-0.67288-0.18291-1.0489-0.56802-1.2251-1.1615-2.7144-0.98939-4.2202 0.009009-0.22161-0.041422-0.42308-0.13789-0.60262-0.33913-0.56186-1.1354-0.84425-1.7077-0.92829z" fill="url(#linearGradient1309)"/>
   <path d="m9.1005 10.574c0.37744 0.05363 0.72755 0.09524 0.97528 0.22313 0.26737 0.13801 0.41539 0.37654 0.34965 0.83916-0.06012 0.4231-0.80651 0.95003-1.0847 1.5023-0.00495 0.50768 0.085169 1.0239 0.25162 1.4357 0.13367-0.04393 0.26368-0.09618 0.38812-0.1563 0.35377-0.17085 0.66266-0.40495 0.88309-0.69038 0.37192-0.48147 0.49231-1.1089 0.15228-1.825-0.75902-2.1938-5.1077-1.3192-6.0176-0.56644-0.079658 0.26897-0.64516 0.797-0.4571 1.7047 0.047298 0.22831 0.17085 0.47503 0.35375 0.75712 0.14782 0.22796 0.40664 0.39528 0.72207 0.51954 0.17251 0.06797 0.36192 0.12304 0.55939 0.16815 0.067227 0.01534 0.13536 0.02953 0.20408 0.0427 0.044916-0.31936 0.11313-0.63423 0.1494-0.93899 0.00315-0.02649 0.00604-0.05293 0.00872-0.07926 0.03039-0.70702-1.2326-1.0231-1.0934-2.0031 0.028876-0.20321 0.12101-0.36873 0.25934-0.50277 0.6875-0.66614 2.5163-0.55507 3.3958-0.43009z" fill="url(#linearGradient1311)"/>
   <path d="m9.1005 10.574c-0.87954-0.12497-2.7084-0.23603-3.3958 0.43009 0.31942 0.55933 0.56072 1.0671 0.76215 1.6429 0.09575 0.27371 0.10187 0.56313 0.071922 0.86293-0.00111 0.02589-4e-3 0.05227-0.00872 0.07926-0.03628 0.30478-0.1045 0.61964-0.1494 0.939 0.71378 0.13663 1.49 0.16068 1.935 0.19965 0.10342 0.0091 0.20805 0.01254 0.31309 0.0107 0.32519-0.0057 0.65422-0.06266 0.96365-0.16434-0.16646-0.4118-0.25659-0.92798-0.25162-1.4357 0.00161-0.16722 0.013563-0.33348 0.036483-0.49482 0.071742-0.50492 0.38707-1.365 0.69849-1.8466-0.24772-0.12786-0.59781-0.16947-0.97529-0.22311z" fill="url(#linearGradient1313)"/>
   <path d="m6.4668 12.647c-0.20147-0.57581-0.44273-1.0836-0.76215-1.6429-0.13833 0.13405-0.23046 0.29957-0.25934 0.50277-0.13924 0.97995 1.1238 1.296 1.0934 2.0031 0.029939-0.29977 0.023821-0.58919-0.071922-0.86293z" fill="#3f3f3f"/>
   <path d="m10.076 10.797c-0.31143 0.48168-0.62676 1.3417-0.69849 1.8466-0.022924 0.16134-0.03487 0.3276-0.036483 0.49482 0.27815-0.55225 1.0245-1.0792 1.0847-1.5023 0.06573-0.46261-0.08231-0.70112-0.34965-0.83916z" fill="#3f3f3f"/>
   <path d="m9.0168 8.1648c-0.20898 0.028121-0.65787 0.85608-0.69887 1.1419-0.053555 0.37344 0.04426 0.53347 0.24587 0.73532 0.20161 0.20186 1.2584 0.56395 1.3176 0.16654 0.058291-0.39136 0.091149-0.72608 0.069827-0.95376-0.021323-0.2277-0.069162-0.6602-0.25952-0.87058-0.11963-0.13218-0.46589-0.24753-0.67487-0.21941z" fill="#fff"/>
   <circle transform="rotate(8.0868)" cx="10.143" cy="8.1104" r=".35905" fill="url(#linearGradient1315)"/>
   <path d="m7.6174 9.0284c0.0024607-0.29823-0.31129-0.84788-0.53175-1.0395-0.55683-0.48375-1.0661 0.14673-1.0963 0.72694-0.022455 0.43123 0.038674 1.6379 0.59678 1.4647 0.5581-0.1732 1.0251-0.38676 1.0313-1.1522z" fill="#fff"/>
   <circle transform="rotate(8.0868)" cx="8.2284" cy="8.1104" r=".35905" fill="url(#linearGradient1317)"/>
  </g>
 </g>
</svg>
