<?xml version="1.0" encoding="UTF-8"?>
<svg width="64" height="64" version="1.1" viewBox="0 0 64 64" xmlns="http://www.w3.org/2000/svg" xmlns:cc="http://creativecommons.org/ns#" xmlns:dc="http://purl.org/dc/elements/1.1/" xmlns:rdf="http://www.w3.org/1999/02/22-rdf-syntax-ns#">
 <metadata>
  <rdf:RDF>
   <cc:Work rdf:about="">
    <dc:format>image/svg+xml</dc:format>
    <dc:type rdf:resource="http://purl.org/dc/dcmitype/StillImage"/>
    <dc:title/>
   </cc:Work>
  </rdf:RDF>
 </metadata>
 <defs>
  <style type="text/css"/>
  <style type="text/css"/>
  <style type="text/css"/>
  <style type="text/css"/>
  <linearGradient id="b" x1="399.57" x2="399.57" y1="545.8" y2="517.8" gradientTransform="matrix(2.1429 0 0 2.1429 -1170 -1181.9)" gradientUnits="userSpaceOnUse">
   <stop stop-color="#3889e9" offset="0"/>
   <stop stop-color="#5ea5fb" offset="1"/>
  </linearGradient>
  <linearGradient id="linearGradient1005" x1="12.27" x2="4.5684" y1="12.966" y2="5.7063" gradientTransform="matrix(3.4645 0 0 3.4645 2.5451 .19014)" gradientUnits="userSpaceOnUse">
   <stop stop-color="#1cd664" offset="0"/>
   <stop stop-color="#18d862" offset="1"/>
  </linearGradient>
 </defs>
 <path d="m59.5 29.5c0 3.2967-0.58028 6.4574-1.6444 9.3867-0.73969 2.0361-1.7128 3.961-2.8891 5.7415-0.49274 0.74862-1.0225 1.4716-1.5849 2.1664-1.8003 2.2236-3.9398 4.1598-6.3418 5.7314-0.88449 0.57918-1.8038 1.109-2.7556 1.5837-3.696 1.8496-7.8683 2.8902-12.284 2.8902-4.4157 0-8.588-1.0405-12.284-2.8902-0.95186-0.47482-1.8723-1.0046-2.7568-1.5837-2.4324-1.5927-4.5974-3.5594-6.4124-5.8198-0.56342-0.70039-1.0921-1.43-1.5849-2.1853-1.1449-1.7509-2.0933-3.6402-2.8184-5.6368-1.064-2.9286-1.6432-6.0881-1.6432-9.3839 0-15.188 12.312-27.5 27.5-27.5 7.6237 0 14.522 3.1025 19.504 8.1129 1.4356 1.4434 2.7119 3.0464 3.7981 4.7792 1.027 1.632 1.8857 3.3808 2.5536 5.2203 1.0642 2.9296 1.6445 6.0904 1.6445 9.3867z" fill="url(#linearGradient1005)" stroke-width=".10742"/>
 <g transform="matrix(1.0759 0 0 1.0759 -3.2251 -2.02)" stroke-width=".99997">
  <path d="m30.985 21.199-3.7527 2.1666 19.499 33.774 4.0429 2.6693-0.29019-4.8359z" fill="#fff"/>
  <path d="m47.887 28.132c0 5.7896-1.7204 7.1629-3.8142 9.6094-1.0821 1.2468-2.3525 2.3054-3.8109 3.1052-1.9761 1.1057-4.9803 1.7174-7.4034 1.7174-2.423 0-4.7048-0.63525-6.6574-1.7174-1.4245-1.1474-4.3133 3.1858-2.3994 3.7539 2.6818 1.5056 5.787 2.3207 9.0804 2.3207s7.121-0.81508 9.8029-2.3207c1.435-0.79976 2.7523-1.7877 3.9051-2.917 3.4816-3.3876 5.6694-8.2816 5.6694-13.528-1.4854-0.01444-3.055 0-4.3723-0.01444z" fill="#f0f0f0"/>
  <path d="m33.011 21.199 3.7527 2.1666-19.499 33.774-4.0429 2.6693 0.2902-4.8359z" fill="#f0f0f0"/>
  <path d="m36.497 20.91h-1.6088v-4.3335h-5.7776v4.3335h-1.6323c-1.4796 0-2.7009 1.2227-2.7009 2.6854v7.0711h0.0235c-0.0235 0.23226 0.11739 0.48777 0.42275 0.78951l5.4253 4.7852c0.37578 0.3715 0.86899 0.55725 1.3387 0.55725v-0.02311l0.0235 0.02311c0.4932 0 0.98641-0.18575 1.3387-0.55725l5.4253-4.7852c0.30532-0.30174 0.42275-0.5805 0.42275-0.78951h0.0235v-7.0478c-0.0235-1.4859-1.2213-2.7087-2.7244-2.7087z" fill="#323232"/>
  <path d="m32.009 29.577h-0.01883c-1.5809 0-2.8794-1.2858-2.8794-2.8696 0-1.5839 1.2985-2.8697 2.8794-2.8697v-0.03755l0.01883 0.03755c1.5809 0.01878 2.8794 1.2858 2.8794 2.8697 0 1.5838-1.2985 2.851-2.8794 2.8696z" fill="#1bd763"/>
 </g>
 <g transform="matrix(3.7796 0 0 3.7796 101.59 7.0752)" fill="#5e4aa6" stroke-width=".26458">
  <circle cx="-330.35" cy="-328.38" r="0"/>
  <circle cx="-312.11" cy="-326.25" r="0"/>
  <circle cx="-306.02" cy="-333.07" r="0"/>
  <circle cx="-308.84" cy="-326.01" r="0"/>
 </g>
 <style type="text/css">.st0{opacity:0.15;fill:#45413C;}
	.st1{fill:#FFE500;}
	.st2{fill:#EBCB00;}
	.st3{fill:none;stroke:#45413C;stroke-linecap:round;stroke-linejoin:round;stroke-miterlimit:10;}
	.st4{fill:#FFAA54;}
	.st5{fill:#FF8A14;}
	.st6{fill:#FFB0CA;stroke:#45413C;stroke-linecap:round;stroke-linejoin:round;stroke-miterlimit:10;}
	.st7{fill:#FF87AF;stroke:#45413C;stroke-linecap:round;stroke-linejoin:round;stroke-miterlimit:10;}
	.st8{fill:#FFCC99;}
	.st9{fill:#FFFFFF;}
	.st10{fill:#F0F0F0;}
	.st11{fill:#BF8256;}
	.st12{fill:#915E3A;}
	.st13{fill:#DEA47A;}
	.st14{fill:#F0D5A8;}
	.st15{fill:#DEBB7E;}
	.st16{fill:#F7E5C6;}
	.st17{fill:#FF8A14;stroke:#45413C;stroke-linecap:round;stroke-linejoin:round;stroke-miterlimit:10;}
	.st18{fill:#FFF5E3;}
	.st19{fill:#FFF48C;}
	.st20{fill:#FFFACF;}
	.st21{fill:#FFFCE5;}
	.st22{fill:#FF87AF;}
	.st23{fill:#FFB0CA;}
	.st24{fill:#FFE500;stroke:#45413C;stroke-linecap:round;stroke-linejoin:round;stroke-miterlimit:10;}
	.st25{fill:#9CEB60;stroke:#45413C;stroke-linecap:round;stroke-linejoin:round;stroke-miterlimit:10;}
	.st26{fill:#FFFACF;stroke:#45413C;stroke-linecap:round;stroke-linejoin:round;stroke-miterlimit:10;}
	.st27{fill:#00F5BC;stroke:#45413C;stroke-linecap:round;stroke-linejoin:round;stroke-miterlimit:10;}
	.st28{fill:#BF8256;stroke:#45413C;stroke-linecap:round;stroke-linejoin:round;stroke-miterlimit:10;}
	.st29{fill:#FFE3CF;stroke:#45413C;stroke-linecap:round;stroke-linejoin:round;stroke-miterlimit:10;}
	.st30{fill:#FF6242;}
	.st31{fill:#FF866E;}
	.st32{fill:none;stroke:#E04122;stroke-linecap:round;stroke-linejoin:round;stroke-miterlimit:10;}
	.st33{fill:#FFFEF2;stroke:#45413C;stroke-linecap:round;stroke-linejoin:round;stroke-miterlimit:10;}
	.st34{fill:#FF6242;stroke:#45413C;stroke-linecap:round;stroke-linejoin:round;stroke-miterlimit:10;}
	.st35{fill:#FFA694;}
	.st36{fill:#FFFFFF;stroke:#45413C;stroke-linecap:round;stroke-linejoin:round;stroke-miterlimit:10;}
	.st37{fill:#FFFEF2;}
	.st38{fill:#FF6196;}
	.st39{fill:#B89558;}
	.st40{fill:none;stroke:#915E3A;stroke-linecap:round;stroke-linejoin:round;stroke-miterlimit:10;}
	.st41{fill:#DEBB7E;stroke:#45413C;stroke-linecap:round;stroke-linejoin:round;stroke-miterlimit:10;}
	.st42{fill:#6DD627;stroke:#45413C;stroke-linecap:round;stroke-linejoin:round;stroke-miterlimit:10;}
	.st43{fill:#E5F8FF;}
	.st44{fill:#E8F4FA;}
	.st45{fill:#E8F4FA;stroke:#45413C;stroke-linecap:round;stroke-linejoin:round;stroke-miterlimit:10;}
	.st46{fill:#FFCCDD;}
	.st47{fill:#E5F8FF;stroke:#45413C;stroke-linecap:round;stroke-linejoin:round;stroke-miterlimit:10;}
	.st48{fill:#00B8F0;stroke:#45413C;stroke-linecap:round;stroke-linejoin:round;stroke-miterlimit:10;}
	.st49{fill:#00B8F0;}
	.st50{fill:#4ACFFF;}
	.st51{fill:#E04122;}
	.st52{fill:#E04122;stroke:#45413C;stroke-linecap:round;stroke-linejoin:round;stroke-miterlimit:10;}
	.st53{fill:#87898C;}
	.st54{fill:#BDBEC0;}
	.st55{fill:#656769;}
	.st56{fill:#525252;}
	.st57{fill:#FFF48C;stroke:#45413C;stroke-linecap:round;stroke-linejoin:round;stroke-miterlimit:10;}
	.st58{fill:#6DD627;}
	.st59{fill:#EB6D00;}
	.st60{fill:#46B000;}
	.st61{fill:#80DDFF;}
	.st62{fill:#DAEDF7;}
	.st63{fill:#BF8DF2;stroke:#45413C;stroke-linecap:round;stroke-linejoin:round;stroke-miterlimit:10;}
	.st64{fill:#9F5AE5;stroke:#45413C;stroke-linecap:round;stroke-linejoin:round;stroke-miterlimit:10;}
	.st65{fill:#C8FFA1;}
	.st66{fill:#E4FFD1;}
	.st67{fill:#9CEB60;}
	.st68{fill:#E5FEFF;}
	.st69{fill:#B8ECFF;}
	.st70{fill:#E0E0E0;stroke:#45413C;stroke-linecap:round;stroke-linejoin:round;stroke-miterlimit:10;}
	.st71{fill:#E0E0E0;}
	.st72{fill:none;stroke:#4F4B45;stroke-linejoin:round;stroke-miterlimit:10;}
	.st73{fill:none;stroke:#4F4B45;stroke-linecap:round;stroke-linejoin:round;stroke-miterlimit:10;}
	.st74{fill:#E0366F;stroke:#45413C;stroke-linecap:round;stroke-linejoin:round;stroke-miterlimit:10;}
	.st75{fill:none;stroke:#45413C;stroke-miterlimit:10;}
	.st76{fill:#FF866E;stroke:#45413C;stroke-linecap:round;stroke-linejoin:round;stroke-miterlimit:10;}
	.st77{fill:#45413C;stroke:#45413C;stroke-linecap:round;stroke-linejoin:round;stroke-miterlimit:10;}
	.st78{fill:#9F5AE5;}
	.st79{fill:#803EC2;}
	.st80{fill:#803EC2;stroke:#45413C;stroke-linecap:round;stroke-linejoin:round;stroke-miterlimit:10;}
	.st81{fill:#BF8DF2;}
	.st82{fill:#FFAA54;stroke:#45413C;stroke-linecap:round;stroke-linejoin:round;stroke-miterlimit:10;}
	.st83{fill:none;stroke:#45413C;stroke-linejoin:round;stroke-miterlimit:10;}
	.st84{fill:#FFCCDD;stroke:#45413C;stroke-linecap:round;stroke-linejoin:round;stroke-miterlimit:10;}
	.st85{fill:#FF6196;stroke:#45413C;stroke-linecap:round;stroke-linejoin:round;stroke-miterlimit:10;}
	.st86{fill:#FFE5EE;}
	.st87{fill:#F7E5C6;stroke:#45413C;stroke-linecap:round;stroke-linejoin:round;stroke-miterlimit:10;}
	.st88{fill:#E5FFF9;}
	.st89{fill:none;stroke:#45413C;stroke-width:1.0064;stroke-linecap:round;stroke-linejoin:round;stroke-miterlimit:10;}
	.st90{fill:#4AEFF7;}
	.st91{fill:#A6FBFF;}
	.st92{fill:#E5FEFF;stroke:#45413C;stroke-linecap:round;stroke-linejoin:round;stroke-miterlimit:10;}
	.st93{fill:#46B000;stroke:#45413C;stroke-linecap:round;stroke-linejoin:round;stroke-miterlimit:10;}
	.st94{fill:#FFFFFF;stroke:#45413C;stroke-linejoin:round;stroke-miterlimit:10;}
	.st95{fill:#FFFFFF;stroke:#45413C;stroke-miterlimit:10;}
	.st96{fill:#009FD9;}
	.st97{fill:#00DFEB;}
	.st98{fill:#C0DCEB;stroke:#45413C;stroke-linecap:round;stroke-linejoin:round;stroke-miterlimit:10;}
	.st99{fill:#00DFEB;stroke:#45413C;stroke-linecap:round;stroke-linejoin:round;stroke-miterlimit:10;}
	.st100{fill:#FFE5EE;stroke:#45413C;stroke-linecap:round;stroke-linejoin:round;stroke-miterlimit:10;}
	.st101{fill:#8CA4B8;}
	.st102{fill:#ADC4D9;}
	.st103{fill:#656769;stroke:#45413C;stroke-linecap:round;stroke-linejoin:round;stroke-miterlimit:10;}
	.st104{fill:#F0F0F0;stroke:#45413C;stroke-linecap:round;stroke-linejoin:round;stroke-miterlimit:10;}
	.st105{fill:#C0DCEB;}
	.st106{fill:#45413C;}
	.st107{fill:#FFCABF;}
	.st108{fill:#87898C;stroke:#45413C;stroke-linecap:round;stroke-linejoin:round;stroke-miterlimit:10;}
	.st109{fill:#EBCB00;stroke:#45413C;stroke-linecap:round;stroke-linejoin:round;stroke-miterlimit:10;}</style>
 <style type="text/css">.st0{opacity:0.15;fill:#45413C;}
	.st1{fill:#FFE500;}
	.st2{fill:#EBCB00;}
	.st3{fill:none;stroke:#45413C;stroke-linecap:round;stroke-linejoin:round;stroke-miterlimit:10;}
	.st4{fill:#FFAA54;}
	.st5{fill:#FF8A14;}
	.st6{fill:#FFB0CA;stroke:#45413C;stroke-linecap:round;stroke-linejoin:round;stroke-miterlimit:10;}
	.st7{fill:#FF87AF;stroke:#45413C;stroke-linecap:round;stroke-linejoin:round;stroke-miterlimit:10;}
	.st8{fill:#FFCC99;}
	.st9{fill:#FFFFFF;}
	.st10{fill:#F0F0F0;}
	.st11{fill:#BF8256;}
	.st12{fill:#915E3A;}
	.st13{fill:#DEA47A;}
	.st14{fill:#F0D5A8;}
	.st15{fill:#DEBB7E;}
	.st16{fill:#F7E5C6;}
	.st17{fill:#FF8A14;stroke:#45413C;stroke-linecap:round;stroke-linejoin:round;stroke-miterlimit:10;}
	.st18{fill:#FFF5E3;}
	.st19{fill:#FFF48C;}
	.st20{fill:#FFFACF;}
	.st21{fill:#FFFCE5;}
	.st22{fill:#FF87AF;}
	.st23{fill:#FFB0CA;}
	.st24{fill:#FFE500;stroke:#45413C;stroke-linecap:round;stroke-linejoin:round;stroke-miterlimit:10;}
	.st25{fill:#9CEB60;stroke:#45413C;stroke-linecap:round;stroke-linejoin:round;stroke-miterlimit:10;}
	.st26{fill:#FFFACF;stroke:#45413C;stroke-linecap:round;stroke-linejoin:round;stroke-miterlimit:10;}
	.st27{fill:#00F5BC;stroke:#45413C;stroke-linecap:round;stroke-linejoin:round;stroke-miterlimit:10;}
	.st28{fill:#BF8256;stroke:#45413C;stroke-linecap:round;stroke-linejoin:round;stroke-miterlimit:10;}
	.st29{fill:#FFE3CF;stroke:#45413C;stroke-linecap:round;stroke-linejoin:round;stroke-miterlimit:10;}
	.st30{fill:#FF6242;}
	.st31{fill:#FF866E;}
	.st32{fill:none;stroke:#E04122;stroke-linecap:round;stroke-linejoin:round;stroke-miterlimit:10;}
	.st33{fill:#FFFEF2;stroke:#45413C;stroke-linecap:round;stroke-linejoin:round;stroke-miterlimit:10;}
	.st34{fill:#FF6242;stroke:#45413C;stroke-linecap:round;stroke-linejoin:round;stroke-miterlimit:10;}
	.st35{fill:#FFA694;}
	.st36{fill:#FFFFFF;stroke:#45413C;stroke-linecap:round;stroke-linejoin:round;stroke-miterlimit:10;}
	.st37{fill:#FFFEF2;}
	.st38{fill:#FF6196;}
	.st39{fill:#B89558;}
	.st40{fill:none;stroke:#915E3A;stroke-linecap:round;stroke-linejoin:round;stroke-miterlimit:10;}
	.st41{fill:#DEBB7E;stroke:#45413C;stroke-linecap:round;stroke-linejoin:round;stroke-miterlimit:10;}
	.st42{fill:#6DD627;stroke:#45413C;stroke-linecap:round;stroke-linejoin:round;stroke-miterlimit:10;}
	.st43{fill:#E5F8FF;}
	.st44{fill:#E8F4FA;}
	.st45{fill:#E8F4FA;stroke:#45413C;stroke-linecap:round;stroke-linejoin:round;stroke-miterlimit:10;}
	.st46{fill:#FFCCDD;}
	.st47{fill:#E5F8FF;stroke:#45413C;stroke-linecap:round;stroke-linejoin:round;stroke-miterlimit:10;}
	.st48{fill:#00B8F0;stroke:#45413C;stroke-linecap:round;stroke-linejoin:round;stroke-miterlimit:10;}
	.st49{fill:#00B8F0;}
	.st50{fill:#4ACFFF;}
	.st51{fill:#E04122;}
	.st52{fill:#E04122;stroke:#45413C;stroke-linecap:round;stroke-linejoin:round;stroke-miterlimit:10;}
	.st53{fill:#87898C;}
	.st54{fill:#BDBEC0;}
	.st55{fill:#656769;}
	.st56{fill:#525252;}
	.st57{fill:#FFF48C;stroke:#45413C;stroke-linecap:round;stroke-linejoin:round;stroke-miterlimit:10;}
	.st58{fill:#6DD627;}
	.st59{fill:#EB6D00;}
	.st60{fill:#46B000;}
	.st61{fill:#80DDFF;}
	.st62{fill:#DAEDF7;}
	.st63{fill:#BF8DF2;stroke:#45413C;stroke-linecap:round;stroke-linejoin:round;stroke-miterlimit:10;}
	.st64{fill:#9F5AE5;stroke:#45413C;stroke-linecap:round;stroke-linejoin:round;stroke-miterlimit:10;}
	.st65{fill:#C8FFA1;}
	.st66{fill:#E4FFD1;}
	.st67{fill:#9CEB60;}
	.st68{fill:#E5FEFF;}
	.st69{fill:#B8ECFF;}
	.st70{fill:#E0E0E0;stroke:#45413C;stroke-linecap:round;stroke-linejoin:round;stroke-miterlimit:10;}
	.st71{fill:#E0E0E0;}
	.st72{fill:none;stroke:#4F4B45;stroke-linejoin:round;stroke-miterlimit:10;}
	.st73{fill:none;stroke:#4F4B45;stroke-linecap:round;stroke-linejoin:round;stroke-miterlimit:10;}
	.st74{fill:#E0366F;stroke:#45413C;stroke-linecap:round;stroke-linejoin:round;stroke-miterlimit:10;}
	.st75{fill:none;stroke:#45413C;stroke-miterlimit:10;}
	.st76{fill:#FF866E;stroke:#45413C;stroke-linecap:round;stroke-linejoin:round;stroke-miterlimit:10;}
	.st77{fill:#45413C;stroke:#45413C;stroke-linecap:round;stroke-linejoin:round;stroke-miterlimit:10;}
	.st78{fill:#9F5AE5;}
	.st79{fill:#803EC2;}
	.st80{fill:#803EC2;stroke:#45413C;stroke-linecap:round;stroke-linejoin:round;stroke-miterlimit:10;}
	.st81{fill:#BF8DF2;}
	.st82{fill:#FFAA54;stroke:#45413C;stroke-linecap:round;stroke-linejoin:round;stroke-miterlimit:10;}
	.st83{fill:none;stroke:#45413C;stroke-linejoin:round;stroke-miterlimit:10;}
	.st84{fill:#FFCCDD;stroke:#45413C;stroke-linecap:round;stroke-linejoin:round;stroke-miterlimit:10;}
	.st85{fill:#FF6196;stroke:#45413C;stroke-linecap:round;stroke-linejoin:round;stroke-miterlimit:10;}
	.st86{fill:#FFE5EE;}
	.st87{fill:#F7E5C6;stroke:#45413C;stroke-linecap:round;stroke-linejoin:round;stroke-miterlimit:10;}
	.st88{fill:#E5FFF9;}
	.st89{fill:none;stroke:#45413C;stroke-width:1.0064;stroke-linecap:round;stroke-linejoin:round;stroke-miterlimit:10;}
	.st90{fill:#4AEFF7;}
	.st91{fill:#A6FBFF;}
	.st92{fill:#E5FEFF;stroke:#45413C;stroke-linecap:round;stroke-linejoin:round;stroke-miterlimit:10;}
	.st93{fill:#46B000;stroke:#45413C;stroke-linecap:round;stroke-linejoin:round;stroke-miterlimit:10;}
	.st94{fill:#FFFFFF;stroke:#45413C;stroke-linejoin:round;stroke-miterlimit:10;}
	.st95{fill:#FFFFFF;stroke:#45413C;stroke-miterlimit:10;}
	.st96{fill:#009FD9;}
	.st97{fill:#00DFEB;}
	.st98{fill:#C0DCEB;stroke:#45413C;stroke-linecap:round;stroke-linejoin:round;stroke-miterlimit:10;}
	.st99{fill:#00DFEB;stroke:#45413C;stroke-linecap:round;stroke-linejoin:round;stroke-miterlimit:10;}
	.st100{fill:#FFE5EE;stroke:#45413C;stroke-linecap:round;stroke-linejoin:round;stroke-miterlimit:10;}
	.st101{fill:#8CA4B8;}
	.st102{fill:#ADC4D9;}
	.st103{fill:#656769;stroke:#45413C;stroke-linecap:round;stroke-linejoin:round;stroke-miterlimit:10;}
	.st104{fill:#F0F0F0;stroke:#45413C;stroke-linecap:round;stroke-linejoin:round;stroke-miterlimit:10;}
	.st105{fill:#C0DCEB;}
	.st106{fill:#45413C;}
	.st107{fill:#FFCABF;}
	.st108{fill:#87898C;stroke:#45413C;stroke-linecap:round;stroke-linejoin:round;stroke-miterlimit:10;}
	.st109{fill:#EBCB00;stroke:#45413C;stroke-linecap:round;stroke-linejoin:round;stroke-miterlimit:10;}</style>
 <g fill="#5e4aa6">
  <circle cx="-1364.3" cy="-1292.3" r="0"/>
  <circle cx="-1295.3" cy="-1284.2" r="0"/>
  <circle cx="-1272.3" cy="-1310" r="0"/>
  <circle cx="-1283" cy="-1283.3" r="0"/>
  <circle cx="-1364.3" cy="-1292.3" r="0"/>
  <circle cx="-1295.3" cy="-1284.2" r="0"/>
  <circle cx="-1272.3" cy="-1310" r="0"/>
  <circle cx="-1283" cy="-1283.3" r="0"/>
  <circle cx="-1364.3" cy="-1292.3" r="0"/>
  <circle cx="-1295.3" cy="-1284.2" r="0"/>
  <circle cx="-1272.3" cy="-1310" r="0"/>
  <circle cx="-1283" cy="-1283.3" r="0"/>
  <circle cx="-1499.6" cy="-1314.6" r="0" image-rendering="optimizeSpeed"/>
  <circle cx="-1499.6" cy="-1314.7" r="0" image-rendering="optimizeSpeed"/>
  <circle cx="-1499.6" cy="-1314.7" r="0" image-rendering="optimizeSpeed"/>
  <circle cx="-1583.8" cy="-1346.7" r="0" image-rendering="optimizeSpeed"/>
  <circle cx="-1499.6" cy="-1314.6" r="0" image-rendering="optimizeSpeed"/>
  <circle cx="-1496.5" cy="-1316.2" r="0"/>
 </g>
 <circle cx="-311.62" cy="-42.346" r="0" fill="url(#b)" stroke-width="1.5715"/>
 <g fill="#5e4aa6">
  <circle cx="-1668.5" cy="-1315" r="0"/>
  <circle cx="-568.99" cy="-49.55" r="0" fill-rule="evenodd"/>
  <circle cx="-1592.3" cy="-1315" r="0"/>
  <circle cx="-1523.4" cy="-1307" r="0"/>
  <circle cx="-1500.4" cy="-1332.7" r="0"/>
  <circle cx="-1511" cy="-1306.1" r="0"/>
  <circle cx="-1513.2" cy="-1321.2" r="0"/>
  <circle cx="-1603.4" cy="-1316.9" r="0"/>
  <circle cx="-1534.5" cy="-1308.8" r="0"/>
  <circle cx="-1511.5" cy="-1334.6" r="0"/>
  <circle cx="-1522.1" cy="-1307.9" r="0"/>
  <circle cx="-1346.6" cy="-1328" r="0"/>
  <circle cx="-247.06" cy="-62.479" r="0" fill-rule="evenodd"/>
 </g>
 <g fill="#fff" stroke-width="1.3333">
  <g fill-rule="evenodd">
   <path d="m1076.2 404.3c5.1545 0 9.3331-4.1786 9.3331-9.3331s-4.1786-9.3331-9.3331-9.3331-9.3331 4.1786-9.3331 9.3331 4.1786 9.3331 9.3331 9.3331"/>
   <path d="m1110.8 404.3c5.1545 0 9.3331-4.1786 9.3331-9.3331s-4.1786-9.3331-9.3331-9.3331-9.3331 4.1786-9.3331 9.3331 4.1786 9.3331 9.3331 9.3331"/>
   <path d="m1141.5 404.3c5.1545 0 9.3331-4.1786 9.3331-9.3331s-4.1786-9.3331-9.3331-9.3331-9.3331 4.1786-9.3331 9.3331 4.1786 9.3331 9.3331 9.3331"/>
   <path d="m1269.5-591.67h47.999v23.999h-47.999zm23.999 14.666c8.0997 0 14.666-1.1933 14.666-2.6666s-6.5666-2.6666-14.666-2.6666c-8.0998 0-14.666 1.1933-14.666 2.6666s6.5665 2.6666 14.666 2.6666"/>
  </g>
  <path d="m1256.7-578.34s28.775-30.909 28.775-46.862c0-16.064-12.912-29.137-28.775-29.137-15.754 0-28.557 13.073-28.557 29.137 0 10.746 13.021 28.25 21.335 38.442zm0-56.721c5.2505 0 9.5198 4.4306 9.5198 9.8598 0 5.0959-4.2693 9.5278-9.5198 9.5278-5.1412 0-9.6291-4.4319-9.6291-9.5278 0-5.4292 4.4879-9.8598 9.6291-9.8598"/>
  <path d="m1228.2 125.64h46.666c3.6826 0 6.6665 2.9839 6.6665 6.6665s-2.9839 6.6665-6.6665 6.6665h-46.666c-3.6826 0-6.6665-2.9839-6.6665-6.6665s2.9839-6.6665 6.6665-6.6665" fill-rule="evenodd"/>
  <path d="m1228.2 148.31h46.666c3.6826 0 6.6665 2.9839 6.6665 6.6665s-2.9839 6.6665-6.6665 6.6665h-46.666c-3.6826 0-6.6665-2.9839-6.6665-6.6665s2.9839-6.6665 6.6665-6.6665" fill-rule="evenodd"/>
  <path d="m1194.1 660.52c-13.346 17.221-29.717 12.062-32.306 10.762-6.4625-1.724-8.6184-13.353-0.4346-17.224 13.357-4.3012 25.413 0.43332 34.031 4.7372-0.8586 1.2893-1.2906 1.724-1.2906 1.724m14.222-4.7372c6.0279-10.762 8.1851-21.101 8.1851-21.101h-20.252v-7.7491h23.689v-3.0133h-23.689v-11.63h-10.765v11.63h-21.541v3.4452h21.541v7.7491h-18.093v3.4466h37.043c0 0.43332 0 0.43332-0.432 1.2906 0 3.8786-2.5813 9.0384-4.7386 13.352-27.569-10.772-35.32-4.3132-37.476-3.4452-18.085 12.918-1.2906 29.283 1.724 28.85 19.384 4.3026 31.872-3.8799 40.491-14.209 0.432 0.43332 1.2893 0.43332 1.7226 0.43332 6.0372 3.4372 34.463 16.789 34.463 16.789v-16.365c-5.1705-0.43332-20.674-5.5932-31.872-9.4731"/>
  <path d="m1438.9-616.34c-0.1987-0.47199-0.2987-1.116-0.2987-1.9346 0-0.49599 0.1374-1.104 0.408-1.824 0.2734-0.71865 0.5707-1.2773 0.8947-1.6746-0.025-0.54532 0.068-1.2026 0.2786-1.9706 0.212-0.76799 0.4907-1.3013 0.8387-1.6 0-3.4479 1.1466-7.0252 3.4412-10.733 2.296-3.7092 4.9919-6.3065 8.0932-7.7945 3.4465-1.6373 7.4664-2.4559 12.054-2.4559 3.2999 0 6.5985 0.68132 9.8971 2.0453 1.216 0.52132 2.332 1.116 3.3493 1.7866 1.0159 0.66932 1.8972 1.3626 2.6412 2.0826 0.7453 0.71998 1.4267 1.5626 2.0453 2.5293 0.62 0.96664 1.1413 1.884 1.5626 2.7519 0.424 0.86798 0.8253 1.916 1.2107 3.1439 0.3826 1.228 0.6986 2.3373 0.9466 3.3292 0.248 0.99198 0.5213 2.2066 0.8187 3.6452l0.037 0.18667c1.364 2.0573 2.0466 3.9186 2.0466 5.5812 0 0.34666-0.112 0.84264-0.336 1.4866-0.224 0.64532-0.336 1.116-0.336 1.4146 0 0.0253 0.02 0.0693 0.057 0.132s0.081 0.12399 0.1306 0.18533c0.051 0.0613 0.076 0.10266 0.076 0.13066 1.9093 2.8279 3.4039 5.4879 4.4839 7.9798 1.0786 2.4919 1.6186 5.0772 1.6186 7.7558 0 1.0666-0.2426 2.3066-0.7253 3.7212-0.484 1.4133-1.172 2.1199-2.0653 2.1199-0.2226 0-0.4653-0.092-0.7253-0.27866-0.2586-0.18666-0.4946-0.40399-0.7053-0.65198-0.212-0.24799-0.4466-0.57065-0.7066-0.96664s-0.4587-0.72399-0.596-0.98531c-0.1374-0.26133-0.304-0.58399-0.5027-0.96664-0.196-0.38399-0.308-0.60132-0.3346-0.65199-0.025-0.0253-0.063-0.0373-0.1134-0.0373l-0.184 0.148c-1.4653 3.8186-3.1026 6.5838-4.9118 8.2958 0.4959 0.49599 1.2586 0.97331 2.2879 1.4333 1.0293 0.45998 1.8853 0.97331 2.5666 1.544 0.6813 0.56798 1.1213 1.3746 1.3213 2.4186-0.049 0.0987-0.099 0.29733-0.1493 0.59599-0.048 0.29866-0.1347 0.52132-0.26 0.66798-1.5866 2.4053-5.3332 3.6079-11.236 3.6079-1.3147 0-2.684-0.112-4.1119-0.33466-1.4253-0.22399-2.6413-0.47198-3.6453-0.74398-1.004-0.27199-2.3013-0.64398-3.8879-1.116-0.372-0.124-0.6573-0.21066-0.8573-0.26133-0.3453-0.1-0.916-0.15333-1.7093-0.16666-0.7933-0.012-1.2893-0.0307-1.4879-0.056-1.0174 1.1173-2.5986 1.9226-4.7453 2.4186-2.1452 0.49599-4.2345 0.74398-6.2691 0.74398-0.8667 0-1.724-0.0187-2.5666-0.056-0.8427-0.0373-1.9973-0.15066-3.46-0.33599-1.4639-0.18533-2.7172-0.43999-3.7599-0.76265-1.0413-0.32132-1.9639-0.81731-2.7706-1.4866-0.8053-0.66931-1.2079-1.464-1.2079-2.3813 0-0.99198 0.124-1.7306 0.372-2.2146 0.2493-0.48532 0.7586-1.0866 1.5253-1.804 0.2733-0.0507 0.7746-0.21199 1.5079-0.48399 0.732-0.27199 1.3453-0.42132 1.8413-0.44532 0.099 0 0.272-0.0253 0.52-0.076 0.051-0.0493 0.076-0.0987 0.076-0.14799l-0.076-0.112c-1.1893-0.27199-2.5293-1.58-4.0186-3.9252-1.4893-2.344-2.3946-4.2852-2.7172-5.8225l-0.1854-0.11199c-0.099 0-0.248 0.24666-0.4453 0.74265-0.4466 1.0173-1.1226 1.94-2.0279 2.7719-0.9053 0.82931-1.8667 1.2946-2.884 1.3946h-0.037c-0.097 0-0.172-0.0547-0.2227-0.16666-0.049-0.11067-0.112-0.17867-0.1853-0.204-0.5706-1.3386-0.856-2.5786-0.856-3.7199 0-6.8212 3.124-12.6 9.3758-17.336z"/>
 </g>
 <path d="m1352.2 438.97c22.09 0 39.999-17.909 39.999-39.999s-17.909-39.999-39.999-39.999-39.999 17.909-39.999 39.999 17.909 39.999 39.999 39.999z" fill="none" stroke="#fff" stroke-miterlimit="10" stroke-width="10.666"/>
 <path d="m567.98-605.14c0-7.0692-4.8812-12.998-11.454-14.597-0.27866-11.085-9.3411-19.988-20.487-19.988-6.5292 0-12.338 3.0573-16.093 7.8145-2.1053-2.7213-5.3999-4.4772-9.1038-4.4772-6.3585 0-11.51 5.1572-11.51 11.518 0 0.55465 0.0413 1.1 0.11866 1.632-0.96797-0.17333-1.96-0.27066-2.9759-0.27066-9.2171 0-16.686 7.4758-16.686 16.698 0 9.2211 7.4691 16.697 16.686 16.697h56.524c8.2798-0.0173 14.988-6.7372 14.988-15.025z" fill="#fff" stroke-width="1.3333"/>
 <path d="m566.18-69.019c12.15 0 21.999-9.8491 21.999-21.999 0-12.15-9.8491-21.999-21.999-21.999s-21.999 9.8491-21.999 21.999c0 12.15 9.8491 21.999 21.999 21.999z" fill="none" stroke="#fff" stroke-miterlimit="10" stroke-width="5.3332"/>
 <path d="m582.18-109.02c9.9411 0 18-8.0585 18-18s-8.0585-18-18-18-18 8.0585-18 18 8.0585 18 18 18z" fill="none" stroke="#fff" stroke-miterlimit="10" stroke-width="5.3332"/>
 <g stroke-width="1.3333">
  <g fill="#fff">
   <path d="m1086.7-403.05c-0.9893 1.3853-6.3332 3.7612-10.886 4.7506-5.7399 1.188-8.7078 2.1773-11.677 3.7599-3.9586 2.3759-6.1345 5.3452-5.7399 8.1158 0.1987 0.59332 4.9479 7.5198 10.49 15.437 5.7385 7.9171 10.49 14.646 10.688 14.845 0.1987 0.39599-0.5933 0.39599-3.3652 0.19733-8.7078-0.59332-16.625 3.9586-20.189 11.085-0.9893 2.1759-1.1867 3.3639-1.1867 5.9372 0 5.9372 3.168 10.688 9.1051 13.458 2.3746 0.98931 3.1666 1.188 8.1145 1.188 5.3425 0 5.5412 0 9.1051-1.7813 9.4998-4.5519 13.457-13.46 9.4998-21.574-0.792-1.7813-5.7399-10.292-11.084-19.001l-9.6984-16.032h1.5826c6.3332-0.39599 10.689-2.3746 13.658-5.7399 2.5719-2.9693 3.3639-5.9372 3.1652-10.688-0.1973-4.3546-0.5933-5.3439-1.5826-3.9586"/>
   <path d="m1524.2-364.09c0 2.0866-1.2053 3.9079-3.0013 4.8985l-37.04 24.629c-0.016 0.0107-0.035 0.0187-0.049 0.0267l-0.023 0.0147c-0.9119 0.50132-1.9732 0.78932-3.1079 0.78932-3.3732 0-6.1105-2.5506-6.1105-5.6919v-49.332c0-3.1412 2.7373-5.6932 6.1105-5.6932 1.1347 0 2.196 0.28933 3.1079 0.79465l0.023 0.0107c0.015 0.012 0.029 0.0187 0.049 0.0267l37.04 24.627c1.796 0.99064 3.0013 2.8133 3.0013 4.8999"/>
   <path d="m777.18-105.48c-20.164 0-36.556-16.438-36.556-36.647 0-1.8426 1.4813-3.3399 3.3159-3.3399 1.8386 0 3.3319 1.4973 3.3319 3.3399 0 16.533 13.413 29.982 29.909 29.982 16.5 0 29.923-13.449 29.923-29.982 0-1.8426 1.4826-3.3399 3.3172-3.3399 1.8373 0 3.3319 1.4973 3.3319 3.3399 0 20.209-16.405 36.647-36.572 36.647" fill-rule="evenodd"/>
   <path d="m999.84 653.16c-20.164 0-36.556-16.438-36.556-36.646 0-1.844 1.4813-3.3412 3.3159-3.3412 1.8386 0 3.3319 1.4973 3.3319 3.3412 0 16.53 13.413 29.981 29.909 29.981 16.5 0 29.923-13.45 29.923-29.981 0-1.844 1.4826-3.3412 3.3172-3.3412 1.8373 0 3.3319 1.4973 3.3319 3.3412 0 20.207-16.405 36.646-36.572 36.646" fill-rule="evenodd"/>
   <path d="m1044.1-76.205c0.3267 0.38132 0.8066 0.60798 1.3146 0.60798 0.5094 0 0.9907-0.22666 1.3173-0.60798l23.354-27.329c0.444-0.51732 0.544-1.244 0.2547-1.8506-0.2813-0.61732-0.8987-1.008-1.5786-1.008h-13.24c-2.8239-5.5625-4.1452-11.176-3.9639-16.84 0.18-5.6639 2.6052-16.481 7.2731-32.453-14.608 8.7864-23.541 24.586-23.541 41.632v7.6598h-13.24c-0.68 0-1.2879 0.39065-1.5786 1.008-0.2813 0.61599-0.18 1.3333 0.2547 1.8506z"/>
   <g fill-rule="evenodd">
    <path d="m358.15-393.15 33.751-28.089-34.768-24.867c7.7945-10.228 20.105-16.829 33.956-16.829 23.563 0 42.666 19.102 42.666 42.666s-19.102 42.666-42.666 42.666c-13.264 0-25.114-6.0518-32.939-15.546m36.464-42.415c3.7799 0 6.8425-3.0626 6.8425-6.8425 0-3.7786-3.0626-6.8425-6.8425-6.8425-3.7786 0-6.8425 3.0639-6.8425 6.8425 0 3.7799 3.0639 6.8425 6.8425 6.8425"/>
    <path d="m604.92-512.35c26.897 15.438 58.453-2.6666 68.41-19.816 9.9558-17.148 6.7092-41.516-13.957-50.183s-60.648-8.8144-72.665 12c-12.017 20.814-8.6864 42.562 18.212 57.999"/>
    <path d="m977.72-415.29c2.2093 0 3.9999-2.0013 3.9999-4.4706s-1.7906-4.4706-3.9999-4.4706c-2.2079 0-3.9999 2.0013-3.9999 4.4706s1.792 4.4706 3.9999 4.4706"/>
    <path d="m1003.2-431.69c2.2093 0 3.9999-2.0013 3.9999-4.4706s-1.7906-4.4706-3.9999-4.4706-3.9999 2.0013-3.9999 4.4706 1.7906 4.4706 3.9999 4.4706"/>
    <path d="m1025.9-403.69c2.2093 0 3.9999-2.0013 3.9999-4.4706s-1.7906-4.4706-3.9999-4.4706-3.9999 2.0013-3.9999 4.4706 1.7906 4.4706 3.9999 4.4706"/>
   </g>
  </g>
  <path d="m1421.2-434.89c-4.8892 18.666-12.666 29.11-23.333 31.333" fill="none" stroke="#fff" stroke-linecap="round" stroke-miterlimit="10"/>
  <g fill="#fff">
   <g fill-rule="evenodd">
    <path d="m1415.2-426.89c-6.6278 0-12-5.3719-12-12s5.3719-12 12-12 12 5.3719 12 12-5.3719 12-12 12m0-7.9998c2.2093 0 3.9999-1.7906 3.9999-3.9999s-1.7906-3.9999-3.9999-3.9999-3.9999 1.7906-3.9999 3.9999 1.7906 3.9999 3.9999 3.9999"/>
    <path d="m508.59 334.38h3.9999c0.73731 0 1.3333 0.59599 1.3333 1.3333v2.6666c0 0.73731-0.59599 1.3333-1.3333 1.3333h-3.9999c-0.73731 0-1.3333-0.59599-1.3333-1.3333v-2.6666c0-0.73731 0.59599-1.3333 1.3333-1.3333"/>
    <path d="m617.92 334.38h3.9999c0.73731 0 1.3333 0.59599 1.3333 1.3333v2.6666c0 0.73731-0.59599 1.3333-1.3333 1.3333h-3.9999c-0.73731 0-1.3333-0.59599-1.3333-1.3333v-2.6666c0-0.73731 0.59599-1.3333 1.3333-1.3333"/>
    <path d="m1419.2 351.71c5.8905 0 10.666-4.7759 10.666-10.666s-4.7759-10.666-10.666-10.666-10.666 4.7759-10.666 10.666 4.7759 10.666 10.666 10.666"/>
   </g>
   <path d="m1223.2-439.55c0 6.2585 5.0745 11.333 11.333 11.333s11.333-5.0745 11.333-11.333-5.0745-11.333-11.333-11.333c-6.2586 0-11.333 5.0745-11.333 11.333"/>
   <path d="m966.49-448.22h114.48v100.42h-114.48zm85.931 33.474c-0.644-1.02-1.9373-1.2626-2.9039-0.57465l-20.672 14.68c-0.4787 0.33999-1.1293 0.204-1.428-0.31732l-24.361-42.491c-0.584-1.028-1.5186-1.0346-2.0653 0.0213l-2.4093 4.6852-28.093 63.268c17.781 24.586 64.446 35.919 98.446 4.5866 1.1213 0 8.6358-8.3278 7.9998-9.3331z" fill-rule="evenodd"/>
  </g>
 </g>
 <path d="m315.26-121.61c25.037 0 45.332-20.295 45.332-45.332s-20.295-45.332-45.332-45.332-45.332 20.295-45.332 45.332 20.295 45.332 45.332 45.332z" fill="none" stroke="#fff" stroke-miterlimit="10" stroke-width="10.666"/>
 <g fill="#fff" stroke-width="1.3333">
  <path d="m1204.6 33.049h109.33v109.33h-109.33zm54.665 108c29.455 0 53.332-23.877 53.332-53.332s-23.877-53.332-53.332-53.332-53.332 23.877-53.332 53.332 23.877 53.332 53.332 53.332" fill-rule="evenodd"/>
  <path d="m1164.4 359.99c0.2493 1.028 0.1973 2.0026-0.1547 2.9239-0.3546 0.92264-0.9039 1.7373-1.6519 2.4439-0.748 0.70798-1.6626 1.2653-2.7426 1.6733-1.08 0.40665-2.244 0.60932-3.4893 0.60932-7.8518 0.044-14.874 0.0653-21.063 0.0653h-21.188c-1.496 0-2.8146-0.27866-3.9572-0.83598-1.1427-0.55732-2.0573-1.2426-2.7413-2.0573-0.6867-0.81465-1.144-1.7053-1.372-2.6693s-0.1973-1.8333 0.095-2.6039c0.248-0.60131 0.4973-1.2226 0.7466-1.864 0.2094-0.55732 0.4574-1.1906 0.748-1.8986 0.292-0.70665 0.6027-1.4253 0.9347-2.1533l2.3679-5.9172h7.1052l-2.68 8.1025h40.131l-2.6786-8.1025h6.7919c0.8733 2.1866 1.6612 4.1586 2.3692 5.9172 0.2907 0.77065 0.58 1.52 0.872 2.2493 0.2907 0.72931 0.5493 1.3826 0.7787 1.9626 0.2279 0.57732 0.4159 1.072 0.5613 1.4786 0.144 0.40799 0.2173 0.63198 0.2173 0.67598m-30.562-12.314c-0.8013-0.93064-1.7186-2.0946-2.7519-3.4906-1.0347-1.3946-2.1-2.8333-3.1973-4.3132-1.096-1.48-2.1826-2.9386-3.2572-4.3772-1.0773-1.4386-2.036-2.6866-2.88-3.7439-0.9706-1.1413-1.3506-2.0826-1.1399-2.8226 0.2106-0.73998 0.9279-1.1093 2.1519-1.1093 0.6747 0.0413 1.5826 0.032 2.7213-0.032 1.1399-0.064 2.0893-0.096 2.8479-0.096 0.844 0 1.372-0.25333 1.5826-0.75998 0.2107-0.50799 0.316-1.1853 0.316-2.0306 0-0.93064-0.011-1.956-0.032-3.0773s-0.032-2.2733-0.032-3.4572-0.011-2.3466-0.031-3.4892c-0.021-1.1413-0.032-2.1999-0.032-3.1719 0-0.42399 0.032-0.86664 0.095-1.3333 0.063-0.46399 0.2107-0.88798 0.444-1.268 0.2307-0.37999 0.568-0.69731 1.0107-0.95197 0.4426-0.25333 1.0453-0.37999 1.8039-0.37999 0.8867 0 1.6986-0.012 2.4359-0.032 0.74-0.0213 1.5933-0.032 2.564-0.032 1.3919 0 2.3306 0.32799 2.8159 0.98264 0.4853 0.65598 0.7493 1.7026 0.7907 3.1412v2.4733c0 0.9733 0.011 2.0093 0.031 3.1079 0.023 1.1013 0.033 2.2013 0.033 3.2999v2.9812c0 1.2266 0.1266 2.212 0.3786 2.9506 0.2547 0.73998 0.8227 1.0893 1.7093 1.0466 0.6333 0 1.4026 0.0213 2.3093 0.0627 0.9066 0.0427 1.6986 0.0653 2.3733 0.0653 1.1399 0 1.8666 0.30666 2.1839 0.91998 0.316 0.61332 0.095 1.4053-0.664 2.3786-0.8026 1.0133-1.7306 2.2399-2.7852 3.6786-1.0547 1.44-2.1413 2.9293-3.26 4.4732-1.1173 1.544-2.2146 3.0453-3.2892 4.5052-1.076 1.4586-2.0373 2.7159-2.8799 3.7732-0.76 0.97331-1.488 1.4706-2.1827 1.492-0.6973 0.0213-1.4253-0.43466-2.1839-1.364"/>
  <path d="m1130.8 553.04h-65.733c-3.2133 0-5.8225 2.5879-5.8225 5.7319v65.868c0 3.1906 2.6092 5.7319 5.8225 5.7319h65.733c3.2133 0 5.7759-2.5879 5.7759-5.7319v-65.821c0-3.1906-2.6093-5.7785-5.7759-5.7785m-44.536 70.676h-11.785v-9.0598h11.785zm-11.88-32.773h11.786v9.0598h-11.786zm11.926 20.754h-11.786v-9.0598h11.786zm17.33 12.018h-11.786v-9.0598h11.786zm-11.88-32.773h11.786v9.0598h-11.786zm11.925 20.754h-11.785v-9.0598h11.785zm17.702 12.018h-11.786v-9.0598h11.786zm-11.878-32.773h11.786v9.0598h-11.786zm11.926 20.754h-11.786v-9.0598h11.786zm7.0345-32.587c0 3.1893-2.6092 5.7319-5.8238 5.7319h-50.359c-3.2146 0.0467-5.8225-2.5426-5.8225-5.7319v-13.405c0-3.1893 2.6079-5.7772 5.7759-5.7772h50.405c3.2146 0 5.8238 2.5879 5.8238 5.7772z"/>
  <path d="m1158.3 578.08h-0.96c-0.2746 0-0.5026 0-0.6853 0.28266-0.1373 0.18933-0.1373 0.37732-0.1373 0.61332v0.75465c0 0.23732 0 0.42532 0.1373 0.61465 0.1827 0.28266 0.4107 0.28266 0.6853 0.28266h0.96c0.2733 0 0.5013 0 0.6853-0.28266 0.136-0.18933 0.136-0.37733 0.136-0.61465v-0.75465c0-0.284 0-0.42399-0.136-0.61332-0.184-0.28266-0.3666-0.28266-0.6853-0.28266m-6.6705-6.3718h-3.9292c-0.7307 0-1.324 0.61332-1.324 1.368v3.2092h1.324v-3.2092h3.9292v3.2092h1.324v-3.2092c0-0.75465-0.5934-1.368-1.324-1.368m0 9.2971h-3.9292v-3.2092h-1.324v3.2092c0 0.75598 0.548 1.3693 1.324 1.3693h3.9292c0.776 0 1.324-0.61332 1.324-1.3693v-3.2092h-1.324zm-19.142 0h-3.9292v-3.4452h-1.3253v3.4452c0 0.75598 0.548 1.3693 1.3253 1.3693h3.9292c0.7773 0 1.3253-0.61332 1.3253-1.3693v-3.4452h-1.3253zm0-9.2971h-3.9292c-0.7307 0-1.3253 0.61332-1.3253 1.368v2.9746h1.3253v-2.9746h3.9292v2.9746h1.3253v-2.9746c0-0.75465-0.5946-1.368-1.3253-1.368m9.5931 0h-3.9279c-0.732 0-1.3253 0.61332-1.3253 1.368v2.9746h1.3253v-2.9746h3.9279v2.9746h1.3253v-2.9746c0-0.75465-0.5933-1.368-1.3253-1.368m0 9.2971h-3.9279v-3.4452h-1.3253v3.4452c0 0.75598 0.5933 1.3693 1.3253 1.3693h3.9279c0.7773 0 1.3253-0.61332 1.3253-1.3693v-3.4452h-1.3253zm24.899-9.2971h-3.9293c-0.7306 0-1.3253 0.61332-1.3253 1.368v3.4452h1.3253v-3.4452h3.9293v3.4452h1.3253v-3.4452c0-0.75465-0.5933-1.368-1.3253-1.368m0 9.2971h-3.9293v-2.9733h-1.3253v2.9733c0 0.75598 0.5947 1.3693 1.3253 1.3693h3.9293c0.7773 0 1.3253-0.61332 1.3253-1.3693v-2.9733h-1.3253zm9.5931 0h-3.9279v-2.7373h-1.3253v2.7373c0 0.75598 0.548 1.3693 1.3253 1.3693h3.9279c0.7773 0 1.3253-0.61332 1.3253-1.3693v-2.7373h-1.3253zm0-9.2971h-3.9279c-0.7307 0-1.3253 0.61332-1.3253 1.368v3.6812h1.3253v-3.6812h3.9279v3.6812h1.3253v-3.6812c0-0.75465-0.6387-1.368-1.3253-1.368"/>
  <path d="m1368.2 821.03h-21v-8.9238c0-1.652-1.3506-3.0759-3.0759-3.0759h-17.848c-1.6519 0-3.0759 1.3506-3.0759 3.0759v8.9238h-20.999c-1.6493 0-3 1.3506-3 2.9999v15l35.999 5.9998 35.999-5.9998v-15c0-1.6493-1.3506-2.9999-2.9999-2.9999m-38.999-5.9998h12v5.9998h-12zm12 22.499c0 0.82531-0.6747 1.5-1.5 1.5h-8.9998c-0.8253 0-1.4999-0.67465-1.4999-1.5v-2.9999c0-0.82531 0.6746-1.5 1.4999-1.5h8.9998c0.8253 0 1.5 0.67465 1.5 1.5zm-5.9999 10.5 35.999-5.9999v35.999c0 1.6493-1.3506 2.9999-2.9999 2.9999h-65.998c-1.6493 0-3-1.3506-3-2.9999v-35.999z"/>
  <path d="m868.58 885.03-5.7999-5.2545c-20.599-18.682-34.199-31.011-34.199-46.099 0-12.328 9.6598-21.978 21.999-21.978 6.9598 0 13.64 3.2372 18 8.3331 4.3599-5.0959 11.04-8.3331 18-8.3331 12.34 0 21.999 9.6504 21.999 21.978 0 15.088-13.6 27.417-34.199 46.099z"/>
  <path d="m1069.6 843.7c0-3.4946 1.18-6.3998 3.5852-8.8051 2.4053-2.4053 5.3106-3.5852 8.8052-3.5852 3.4959 0 6.4011 1.18 8.8051 3.5852 2.4066 2.4053 3.5865 5.3105 3.5865 8.8051s-1.1799 6.4452-3.5865 8.8518c-2.404 2.4039-5.3092 3.5852-8.8051 3.5852-3.4946 0-6.4119-1.1693-8.8052-3.5852-2.4172-2.4399-3.5852-5.4012-3.5852-8.8518m-17.521 8.0798c0.7267 2.5866 1.8173 5.1279 3.1333 7.4891l-8.1705 10.03 9.2584 9.2598 10.032-8.1691c2.3586 1.3146 4.9465 2.4039 7.5331 3.1759l1.3627 12.8h13.344l1.3627-12.8c2.5866-0.77198 5.0372-1.8613 7.5344-3.1759l9.9865 8.1691 9.3491-9.2598-8.2158-10.03c1.2706-2.3613 2.4066-4.9025 3.1772-7.4891l12.801-1.408v-13.344l-12.801-1.3613c-0.7706-2.5879-1.9066-4.9932-3.1772-7.4905l8.2158-10.03-9.3491-9.3504-9.9865 8.2145c-2.5426-1.2706-4.9478-2.4039-7.5344-3.1759l-1.3627-12.8h-13.344l-1.3627 12.8c-2.6772 0.77198-5.1732 1.9053-7.5331 3.1759l-10.032-8.2145-9.2584 9.3504 8.1705 10.03c-1.2707 2.4973-2.3613 4.9025-3.1333 7.4905l-12.844 1.3613v13.344z"/>
  <g fill-rule="evenodd">
   <path d="m976.57 63.715h17.333v17.333h-17.333zm8.6664 16c4.0492 0 7.3332-3.2839 7.3332-7.3332 0-4.0506-3.2839-7.3332-7.3332-7.3332s-7.3332 3.2826-7.3332 7.3332c0 4.0492 3.2839 7.3332 7.3332 7.3332"/>
   <path d="m976.57 93.048h17.333v17.333h-17.333zm8.6664 16c4.0492 0 7.3332-3.2839 7.3332-7.3332 0-4.0506-3.2839-7.3332-7.3332-7.3332s-7.3332 3.2826-7.3332 7.3332c0 4.0492 3.2839 7.3332 7.3332 7.3332"/>
   <path d="m968.57 78.382h17.333v17.333h-17.333zm8.6664 16c4.0492 0 7.3332-3.2839 7.3332-7.3332 0-4.0506-3.2839-7.3332-7.3332-7.3332s-7.3332 3.2826-7.3332 7.3332c0 4.0492 3.2839 7.3332 7.3332 7.3332"/>
   <path d="m993.91 63.715h17.333v17.333h-17.333zm8.6664 16c4.0492 0 7.3331-3.2839 7.3331-7.3332 0-4.0506-3.2839-7.3332-7.3331-7.3332s-7.3332 3.2826-7.3332 7.3332c0 4.0492 3.2839 7.3332 7.3332 7.3332"/>
   <path d="m993.91 93.048h17.333v17.333h-17.333zm8.6664 16c4.0492 0 7.3331-3.2839 7.3331-7.3332 0-4.0506-3.2839-7.3332-7.3331-7.3332s-7.3332 3.2826-7.3332 7.3332c0 4.0492 3.2839 7.3332 7.3332 7.3332"/>
   <path d="m985.91 78.382h17.333v17.333h-17.333zm8.6664 16c4.0492 0 7.3331-3.2839 7.3331-7.3332 0-4.0506-3.2839-7.3332-7.3331-7.3332s-7.3332 3.2826-7.3332 7.3332c0 4.0492 3.2839 7.3332 7.3332 7.3332"/>
   <path d="m1003.2 78.382h17.333v17.333h-17.333zm8.6665 16c4.0492 0 7.3331-3.2839 7.3331-7.3332 0-4.0506-3.2839-7.3332-7.3331-7.3332s-7.3332 3.2826-7.3332 7.3332c0 4.0492 3.284 7.3332 7.3332 7.3332"/>
   <path d="m560.58 558.37h97.331v37.332h-97.331zm18.666 6.6665h59.998c6.6278 0 12 5.3719 12 12 0 6.6265-5.3719 12-12 12h-59.998c-6.6278 0-12-5.3732-12-12 0-6.6278 5.3719-12 12-12"/>
   <path d="m561.92 591.7h97.331v37.332h-97.331zm18.666 6.6665h59.998c6.6278 0 12 5.3719 12 12 0 6.6265-5.3719 12-12 12h-59.998c-6.6278 0-12-5.3732-12-12 0-6.6278 5.3719-12 12-12"/>
  </g>
  <path d="m485.24 821.92c-5.7305 0.45066-10.886 0.84931-15.472 1.1973-1.944 0.15067-3.8746 0.3-5.7919 0.44799-1.92 0.152-3.6626 0.276-5.2319 0.37599-1.5706 0.0987-2.8906 0.19866-3.9626 0.29866-1.0706 0.0987-1.7066 0.15066-1.904 0.15066-0.25066 0.0493-0.53732 0.0867-0.85998 0.112-0.32532 0.024-0.61198 0.0867-0.85997 0.18533l-0.89732 0.29999-3.2892-1.4946c0.24933-0.35065 0.54932-0.67465 0.89865-0.97464 0.24666-0.24799 0.55998-0.48532 0.93331-0.71065 0.37332-0.22399 0.75865-0.35999 1.1573-0.41199 0.29999-0.0493 1.096-0.12399 2.3933-0.22399 1.2946-0.0987 2.8893-0.224 4.7839-0.37333 0-0.64798 0.0627-1.5333 0.18666-2.6559 0.12266-1.1213 0.42265-2.2319 0.89598-3.3292 0.47465-1.096 1.1586-2.0706 2.0546-2.9173 0.89731-0.84798 2.1186-1.3453 3.6626-1.4973 1.7946-0.14799 3.2519 0.12533 4.3746 0.82398 1.12 0.69732 1.992 1.5586 2.6146 2.5799 0.62266 1.024 1.06 2.0706 1.308 3.1439 0.24933 1.072 0.39866 1.9066 0.44932 2.5039 2.1413-0.148 3.9226-0.27333 5.3439-0.37199 1.4186-0.10133 2.204-0.17466 2.3533-0.22533 0.54932-0.0507 1.16 0.0507 1.8306 0.29999 0.67331 0.248 1.2093 0.57332 1.608 0.97198 0.1 0.1 0.23599 0.25066 0.41065 0.44799 0.17466 0.20133 0.33599 0.39999 0.48666 0.59865 0.19866 0.20133 0.37332 0.44932 0.52265 0.74798m-20.703-8.9011c-0.94531 0.0987-1.7066 0.43465-2.2786 1.0093-0.57332 0.57465-1.0106 1.2586-1.3093 2.0573-0.29733 0.79865-0.49866 1.608-0.59732 2.4306-0.1 0.82264-0.14933 1.4853-0.14933 1.984 1.5453-0.10134 3.1252-0.22533 4.7452-0.37466s3.2026-0.27466 4.7466-0.37466c-0.0493-0.44799-0.16133-1.072-0.33599-1.8693-0.17466-0.79864-0.46132-1.5706-0.85998-2.3199-0.39865-0.74798-0.92131-1.3706-1.568-1.8706-0.64932-0.49732-1.4453-0.72265-2.3933-0.67198m29.225 54.985c0.24799 1.396 0.212 2.5559-0.112 3.4799-0.32532 0.92131-1.2333 1.5573-2.7279 1.9066-0.49865 0.15067-1.5826 0.39866-3.2519 0.74932-1.6693 0.34932-3.6626 0.77198-5.9798 1.2706-2.3159 0.49866-4.7959 1.036-7.4358 1.6093-2.6426 0.57331-5.1705 1.1093-7.5878 1.6066-2.4159 0.49999-4.5826 0.94798-6.5025 1.348-1.9173 0.39999-3.2759 0.67332-4.0719 0.82264-1.844 0.39999-3.2026 0.27466-4.0732-0.37332-0.87197-0.64798-1.3093-1.6226-1.3093-2.9186v-45.935c0-1.2453 0.26266-2.2546 0.78532-3.0279 0.52398-0.77331 1.2826-1.1853 2.2786-1.2346 0.39865 0 0.88531-0.0267 1.4586-0.076s1.1333-0.0987 1.6813-0.14933c0.64665-0.0493 1.3213-0.1 2.0186-0.14933l0.67199 10.697c-0.0493 0.0507-0.14933 0.076-0.29866 0.076-0.0987 0-0.24933 0.0133-0.44799 0.036-0.2 0.0267-0.42399 0.0387-0.67332 0.0387-1.0453 0.1-1.5453 0.72265-1.4946 1.8706 0.0507 0.44799 0.1 1.0733 0.14933 1.8693 0.0493 0.79865 0.088 1.6333 0.112 2.5066 0.0253 0.87331 0.0627 1.72 0.112 2.5426s0.0987 1.4853 0.15066 1.984c0.0493 0.94798 0.19866 1.4826 0.44799 1.608 0.24799 0.124 0.79731 0.18666 1.644 0.18666h1.0466c0.29999 0 0.58532-0.0133 0.85998-0.036 0.27332-0.0267 0.58532-0.0507 0.93464-0.076 0.34799-0.024 0.79598-0.0627 1.344-0.112 1.0466-0.1 1.72-0.32399 2.0173-0.67465 0.29999-0.34799 0.42532-0.87198 0.37466-1.5693 0-0.34932-0.0373-0.96131-0.112-1.8333-0.0747-0.87331-0.15066-1.7826-0.22399-2.7306-0.0747-0.94664-0.13733-1.8453-0.18667-2.6933-0.0493-0.84664-0.0987-1.4466-0.14933-1.7946-0.10133-0.59998-0.22399-1.024-0.37465-1.272-0.14933-0.24932-0.42399-0.34932-0.82265-0.29866-0.19733 0-0.39866 0.012-0.59598 0.036-0.20133 0.0253-0.39999 0.0373-0.59866 0.0373h-0.59865l-0.67331-10.622c3.3892-0.29999 6.5025-0.54932 9.3438-0.74798 1.196-0.10133 2.4039-0.19999 3.6252-0.29866 1.2213-0.10133 2.3546-0.18799 3.4012-0.26399 1.0466-0.0733 1.968-0.148 2.7653-0.22399 0.79731-0.0747 1.3946-0.13733 1.7946-0.18667 1.444-0.0987 2.5893 0.15067 3.4372 0.74798 0.84664 0.59866 1.3693 1.496 1.5706 2.6946 0.0493 0.39866 0.224 1.5946 0.52132 3.5906 0.29866 1.9946 0.67332 4.3879 1.1213 7.1812 0.44799 2.7933 0.92131 5.7985 1.42 9.0144 0.49866 3.2172 0.97198 6.2225 1.4213 9.0144 0.44799 2.7933 0.83331 5.1879 1.1586 7.1825 0.32266 1.9946 0.53332 3.1933 0.63465 3.5906m-47.013 6.5078c0 0.69998 0.0373 1.3106 0.112 1.8333 0.076 0.52398 0.16266 0.93464 0.26266 1.2346 0.0987 0.39866 0.22399 0.69865 0.37199 0.89865-1.244-0.64799-2.4413-1.2973-3.5866-1.9453-0.99598-0.54932-1.9933-1.1093-2.9893-1.684-0.99597-0.57332-1.844-1.06-2.5413-1.4586-1.296-0.74798-2.1799-1.6466-2.6533-2.6933-0.47332-1.0466-0.58531-2.144-0.33732-3.2919 0.10133-0.29866 0.32532-1.396 0.67332-3.2919 0.34932-1.8946 0.78398-4.1892 1.308-6.8825 0.52266-2.6919 1.0706-5.5852 1.644-8.6771 0.57332-3.0933 1.108-5.9865 1.6066-8.6784 0.49865-2.6933 0.93464-5.0132 1.3093-6.9572 0.37332-1.9453 0.58532-3.0919 0.63465-3.4412 0.2-1.0973 0.55999-1.9453 1.084-2.5439 0.52266-0.59865 1.132-0.74798 1.8306-0.44799 0.39866 0.19866 0.72399 0.42266 0.97065 0.67198 0.15199 0.15067 0.25066 0.276 0.29999 0.37466z"/>
 </g>
 <g fill="#5e4aa6">
  <circle cx="-1674.7" cy="-1311.6" r="0"/>
  <circle cx="-1605.8" cy="-1303.6" r="0"/>
  <circle cx="-1582.8" cy="-1329.4" r="0"/>
  <circle cx="-1593.4" cy="-1302.7" r="0"/>
 </g>
</svg>
