<?xml version="1.0" encoding="UTF-8"?>
<svg width="64" height="64" version="1.1" viewBox="0 0 16.933 16.933" xmlns="http://www.w3.org/2000/svg" xmlns:cc="http://creativecommons.org/ns#" xmlns:dc="http://purl.org/dc/elements/1.1/" xmlns:rdf="http://www.w3.org/1999/02/22-rdf-syntax-ns#" xmlns:xlink="http://www.w3.org/1999/xlink">
 <defs>
  <linearGradient id="linearGradient1005-3" x1="3.7292" x2="12.359" y1="13.306" y2="4.676" gradientTransform="matrix(.99999 0 0 .99999 -.035115 .0067372)" gradientUnits="userSpaceOnUse">
   <stop stop-color="#232223" offset="0"/>
   <stop stop-color="#49484d" offset="1"/>
  </linearGradient>
  <linearGradient id="linearGradient1005-9-3" x1=".73911" x2="16.388" y1="16.296" y2=".64687" gradientTransform="matrix(.41666 0 0 .41666 .2941 9.5719)" gradientUnits="userSpaceOnUse">
   <stop stop-color="#cfdade" offset="0"/>
   <stop stop-color="#eaeff2" offset="1"/>
  </linearGradient>
  <linearGradient id="linearGradient924" x1="162.61" x2="162.61" y1="15.335" y2="27.41" gradientTransform="matrix(.30322 0 0 .30322 -45.513 6.6164)" gradientUnits="userSpaceOnUse" xlink:href="#linearGradient922"/>
  <linearGradient id="linearGradient922">
   <stop stop-color="#91aab4" offset="0"/>
   <stop stop-color="#648291" offset="1"/>
  </linearGradient>
  <linearGradient id="linearGradient951" x1="156.58" x2="168.85" y1="15.3" y2="27.534" gradientTransform="matrix(.30322 0 0 .30322 -45.513 6.6301)" gradientUnits="userSpaceOnUse" xlink:href="#linearGradient922"/>
  <linearGradient id="linearGradient965" x1="162.73" x2="163.37" y1="20.333" y2="19.09" gradientTransform="matrix(.34986 0 0 .34986 -52.3 5.6223)" gradientUnits="userSpaceOnUse">
   <stop stop-color="#fafafa" offset="0"/>
   <stop stop-color="#c8e6f0" offset="1"/>
  </linearGradient>
 </defs>
 <metadata>
  <rdf:RDF>
   <cc:Work rdf:about="">
    <dc:format>image/svg+xml</dc:format>
    <dc:type rdf:resource="http://purl.org/dc/dcmitype/StillImage"/>
    <dc:title/>
   </cc:Work>
  </rdf:RDF>
 </metadata>
 <path d="m16.404 8.4667c0 0.95155-0.16749 1.8638-0.47464 2.7093-0.2135 0.58769-0.49437 1.1433-0.83391 1.6572-0.14222 0.21608-0.29514 0.42476-0.45746 0.62529-0.51964 0.6418-1.1372 1.2007-1.8305 1.6543-0.2553 0.16717-0.52065 0.32009-0.79536 0.45712-1.0668 0.53388-2.2711 0.8342-3.5457 0.8342-1.2745 0-2.4788-0.30033-3.5457-0.83423-0.27474-0.13705-0.54041-0.28996-0.79571-0.45712-0.70207-0.45971-1.327-1.0274-1.8509-1.6798-0.16262-0.20216-0.31522-0.41275-0.45746-0.63077-0.33046-0.50538-0.6042-1.0507-0.81349-1.627-0.3071-0.84529-0.47429-1.7573-0.47429-2.7085 0-4.3839 3.5536-7.9375 7.9375-7.9375 2.2005 0 4.1915 0.89548 5.6295 2.3417 0.41436 0.41661 0.78274 0.87929 1.0963 1.3795 0.29644 0.47106 0.54427 0.97581 0.73705 1.5068 0.30718 0.84558 0.47466 1.7579 0.47466 2.7093z" fill="url(#linearGradient1005-3)" stroke-width=".031006"/>
 <path d="m6.8781 3.9741a0.26352 0.26352 0 0 0-0.18389 0.45217l0.46831 0.46831a2.3786 2.3786 0 0 0-1.0152 1.4605h4.6381a2.3794 2.3794 0 0 0-1.1803-1.56l0.36936-0.36883a0.26352 0.26352 0 0 0-0.18389-0.45244 0.26352 0.26352 0 0 0-0.18865 0.07964l-0.52864 0.52864a2.3707 2.3707 0 0 0-1.415 0.062971l-0.59161-0.59161a0.26352 0.26352 0 0 0-0.18865-0.079375zm0.79481 1.3229a0.26458 0.26458 0 0 1 0.26458 0.26458 0.26458 0.26458 0 0 1-0.26458 0.26458 0.26458 0.26458 0 0 1-0.26458-0.26458 0.26458 0.26458 0 0 1 0.26458-0.26458zm1.5875 0a0.26458 0.26458 0 0 1 0.26458 0.26458 0.26458 0.26458 0 0 1-0.26458 0.26458 0.26458 0.26458 0 0 1-0.26458-0.26458 0.26458 0.26458 0 0 1 0.26458-0.26458zm-4.2333 1.5875c-0.29316 0-0.52917 0.23601-0.52917 0.52917v1.8521c0 0.29316 0.23601 0.52917 0.52917 0.52917s0.52917-0.23601 0.52917-0.52917v-1.8521c0-0.29316-0.23601-0.52917-0.52917-0.52917zm1.0583 0v3.7042c0 0.43974 0.35401 0.79375 0.79375 0.79375h0.26458v1.0583c0 0.29316 0.23601 0.52917 0.52917 0.52917 0.29316 0 0.52917-0.23601 0.52917-0.52917v-1.0583h0.52917v1.0583c0 0.29316 0.23601 0.52917 0.52917 0.52917 0.29316 0 0.52917-0.23601 0.52917-0.52917v-1.0583h0.26458c0.43974 0 0.79375-0.35401 0.79375-0.79375v-3.7042zm5.8208 0c-0.29316 0-0.52917 0.23601-0.52917 0.52917v1.8521c0 0.29316 0.23601 0.52917 0.52917 0.52917 0.29316 0 0.52917-0.23601 0.52917-0.52917v-1.8521c0-0.29316-0.23601-0.52917-0.52917-0.52917z" fill="#fff" stroke-width=".26458"/>
 <path d="m7.1437 13.097c0 0.39648-0.06979 0.7766-0.19777 1.1289-0.08896 0.24487-0.206 0.47638-0.34747 0.69051-0.05926 0.09004-0.12298 0.17698-0.19061 0.26054-0.21652 0.26742-0.47384 0.5003-0.76268 0.68926-0.10637 0.06966-0.21694 0.13337-0.3314 0.19047-0.44451 0.22246-0.94631 0.34759-1.4774 0.34759s-1.0329-0.12514-1.4774-0.3476c-0.11448-0.057105-0.22517-0.12081-0.33154-0.19047-0.29253-0.19156-0.55293-0.42809-0.77118-0.69993-0.06776-0.084235-0.13134-0.17198-0.19061-0.26282-0.13769-0.21059-0.25175-0.4378-0.33895-0.67793-0.12796-0.35221-0.19762-0.73218-0.19762-1.1286 0-1.8266 1.4807-3.3073 3.3073-3.3073 0.91689 0 1.7466 0.37311 2.3456 0.97569 0.17265 0.17359 0.32614 0.36637 0.4568 0.5748 0.12352 0.19628 0.22678 0.40659 0.30711 0.62785 0.128 0.35233 0.19778 0.73247 0.19778 1.1289z" fill="url(#linearGradient1005-9-3)" image-rendering="optimizeSpeed" stroke-width=".012919"/>
 <g fill="#5a7882" stroke-width=".30322">
  <path d="m3.4725 10.782h0.73089c0.071139 0 0.11901 0.05789 0.12841 0.12841l0.080588 0.60426c0.0094 0.07052-0.057273 0.12841-0.12841 0.12841h-0.90548c-0.071139 0-0.13935-0.05812-0.12841-0.12841l0.094017-0.60426c0.010946-0.07029 0.057273-0.12841 0.12841-0.12841z"/>
  <path d="m3.4725 15.412h0.73089c0.071139 0 0.11901-0.05789 0.12841-0.12841l0.080588-0.60426c0.0094-0.07052-0.057273-0.12841-0.12841-0.12841h-0.90548c-0.071139 0-0.13935 0.05812-0.12841 0.12841l0.094017 0.60426c0.010946 0.07029 0.057273 0.12841 0.12841 0.12841z"/>
  <path d="m5.6557 11.629 0.36544 0.63298c0.03557 0.06161 0.0094 0.13201-0.047 0.17541l-0.483 0.37193c-0.056366 0.0434-0.13984 0.01461-0.17541-0.047l-0.45274-0.7842c-0.035568-0.06161-0.019346-0.14974 0.047002-0.17541l0.5703-0.22071c0.066351-0.02567 0.13984-0.01461 0.17541 0.04701z"/>
  <path d="m1.6471 13.944 0.36544 0.63298c0.035571 0.06161 0.10964 0.07411 0.17541 0.047l0.5636-0.23234c0.065766-0.02712 0.082571-0.1138 0.047-0.17541l-0.45274-0.78419c-0.035571-0.06161-0.12001-0.09162-0.17541-0.047l-0.4763 0.38355c-0.055402 0.04463-0.082568 0.11381-0.046996 0.17542z"/>
  <path d="m6.0226 13.944-0.36544 0.63298c-0.035571 0.06161-0.10964 0.07412-0.17541 0.047l-0.5636-0.23234c-0.065766-0.02711-0.08257-0.1138-0.047-0.17541l0.45274-0.78419c0.035571-0.06161 0.12-0.09162 0.17541-0.047l0.4763 0.38355c0.0554 0.04463 0.08257 0.11381 0.047 0.17542z"/>
  <path d="m2.014 11.629-0.36544 0.63298c-0.035568 0.06161-0.00937 0.13201 0.046999 0.17541l0.483 0.37193c0.056366 0.0434 0.13984 0.0146 0.17541-0.047l0.45274-0.78419c0.035568-0.06161 0.019346-0.14974-0.047003-0.17542l-0.5703-0.22071c-0.066348-0.02567-0.13984-0.0146-0.17541 0.04701z"/>
 </g>
 <g stroke-dashoffset=".42096">
  <circle cx="3.8303" cy="13.097" r="1.8538" fill="url(#linearGradient924)" stroke="url(#linearGradient951)" stroke-width=".024068"/>
  <circle transform="rotate(90)" cx="13.097" cy="-3.8303" r="1.043" fill="#2a495d" stroke="#4f6c7a" stroke-width=".53419"/>
  <path d="m3.8303 14.14a1.043 1.043 0 0 1-1.0341-0.90667 1.043 1.043 0 0 1 0.7637-1.1438 1.043 1.043 0 0 1 1.2338 0.60763" fill="none" stroke="#00a2f3" stroke-width=".53419"/>
 </g>
 <circle cx="4.7157" cy="12.532" r=".40793" fill="url(#linearGradient965)" stroke-width=".30322"/>
</svg>
