<?xml version="1.0" encoding="UTF-8"?>
<svg width="64" height="64" version="1.1" viewBox="0 0 16.933 16.933" xmlns="http://www.w3.org/2000/svg" xmlns:cc="http://creativecommons.org/ns#" xmlns:dc="http://purl.org/dc/elements/1.1/" xmlns:rdf="http://www.w3.org/1999/02/22-rdf-syntax-ns#">
 <defs>
  <linearGradient id="linearGradient2323" x1=".73911" x2="16.388" y1="16.296" y2=".64687" gradientTransform="matrix(.99999 0 0 .99999 1.231 2.5959)" gradientUnits="userSpaceOnUse">
   <stop stop-color="#5564ff" offset="0"/>
   <stop stop-color="#7841ff" offset="1"/>
  </linearGradient>
  <linearGradient id="b" x1="30.207" x2="14" y1="43" y2="10" gradientTransform="matrix(.39688 0 0 .39688 .19732 2.2884)" gradientUnits="userSpaceOnUse">
   <stop stop-color="#e4eef6" offset="0"/>
   <stop stop-color="#f1f1f1" offset="1"/>
  </linearGradient>
 </defs>
 <metadata>
  <rdf:RDF>
   <cc:Work rdf:about="">
    <dc:format>image/svg+xml</dc:format>
    <dc:type rdf:resource="http://purl.org/dc/dcmitype/StillImage"/>
    <dc:title/>
   </cc:Work>
  </rdf:RDF>
 </metadata>
 <g transform="translate(-1.2662 -2.5891)">
  <path d="m17.67 11.056c0 0.95155-0.16749 1.8638-0.47464 2.7093-0.21351 0.58769-0.4944 1.1433-0.83391 1.6572-0.14222 0.21608-0.29514 0.42474-0.45746 0.62529-0.51964 0.6418-1.1372 1.2007-1.8304 1.6543-0.2553 0.16718-0.52065 0.32009-0.79536 0.45712-1.0668 0.5339-2.2711 0.8342-3.5457 0.8342-1.2745 0-2.4789-0.30033-3.5457-0.83423-0.27474-0.13705-0.54041-0.28996-0.79571-0.45712-0.70207-0.45974-1.327-1.0274-1.8508-1.6798-0.16262-0.20216-0.31522-0.41275-0.45746-0.63077-0.33046-0.50538-0.6042-1.0507-0.81349-1.627-0.3071-0.84529-0.47429-1.7572-0.47429-2.7085 0-4.3839 3.5536-7.9375 7.9375-7.9375 2.2005 0 4.1918 0.89548 5.6295 2.3416 0.41436 0.41661 0.78274 0.87929 1.0963 1.3795 0.29644 0.47109 0.54428 0.97581 0.73705 1.5068 0.30718 0.84558 0.47466 1.7579 0.47466 2.7093z" fill="url(#linearGradient2323)" stroke-width=".031006"/>
  <path d="m10.962 5.8604s-1.2689 0.87035-1.3557 1.3643c0 0-2.6845-0.84857-5.0432 1.4139h1.1906s-3.1208 1.9503-3.175 3.175c0.054261-0.03411 0.57362-0.30496 0.79375-0.39688 0 0-0.9553 2.0508-0.3787 3.7544 1.0223 2.1026 3.7319 3.8383 6.6744 3.8203 0.08718-5.3e-4 0.17174-0.0094 0.25812-0.0124 0.099492-0.34068 0.5601-2.0963-0.28681-3.1898-0.72901-0.94321-2.0011-3.502-0.31393-4.3725 0 0 1.0663 1.4965 2.3185 1.6418 0 0 0.14617 1.2828 1.6596 0.46818 0.40391-0.21649 0.55409-0.93268 0.1465-1.5139l-0.32091-0.46432s-1.0626-2.5517-1.8193-3.3068c0 0-0.39688-1.1906 0-1.9844 0 0-0.44963 0.33388-0.59531 0.59531 0 0 0.10127-0.84796 0.24727-0.99219z" fill="url(#b)" stroke-width=".26458"/>
 </g>
</svg>
