<?xml version="1.0" encoding="UTF-8"?>
<svg width="64" height="64" version="1.1" viewBox="0 0 16.933 16.933" xmlns="http://www.w3.org/2000/svg" xmlns:cc="http://creativecommons.org/ns#" xmlns:dc="http://purl.org/dc/elements/1.1/" xmlns:rdf="http://www.w3.org/1999/02/22-rdf-syntax-ns#">
 <defs>
  <linearGradient id="SVGID_3_" x1="236.94" x2="236.94" y1="499.1" y2="188.45" gradientTransform="matrix(.029983 -.0080341 -.0080341 -.029983 1.896 15.279)" gradientUnits="userSpaceOnUse">
   <stop stop-color="#fff" offset="0"/>
   <stop stop-color="#E8EFEE" offset="1"/>
  </linearGradient>
  <linearGradient id="SVGID_4_" x1="47.937" x2="218.81" y1="214.76" y2="43.895" gradientTransform="matrix(.029983 -.0080341 -.0080341 -.029983 1.896 15.279)" gradientUnits="userSpaceOnUse">
   <stop stop-color="#C2CECE" stop-opacity="0" offset="0"/>
   <stop stop-color="#AFBCBC" stop-opacity=".179" offset=".179"/>
   <stop stop-color="#5B6A6A" offset="1"/>
  </linearGradient>
  <linearGradient id="SVGID_5_" x1="415.97" x2="289.99" y1="209.97" y2="284.46" gradientTransform="matrix(.029983 -.0080341 -.0080341 -.029983 1.896 15.279)" gradientUnits="userSpaceOnUse">
   <stop stop-color="#C2CECE" stop-opacity="0" offset="0"/>
   <stop stop-color="#AFBCBC" stop-opacity=".179" offset=".179"/>
   <stop stop-color="#5B6A6A" offset="1"/>
  </linearGradient>
  <linearGradient id="SVGID_7_" x1="337.68" x2="337.68" y1="405.48" y2="212.51" gradientTransform="matrix(.031043 0 0 -.031043 -2.1229 15.249)" gradientUnits="userSpaceOnUse">
   <stop stop-color="#fff" offset="0"/>
   <stop stop-color="#E8EFEE" offset="1"/>
  </linearGradient>
  <linearGradient id="SVGID_9_" x1="136.02" x2="136.02" y1="427.08" y2="205.27" gradientTransform="matrix(.031043 0 0 -.031043 -2.1229 15.249)" gradientUnits="userSpaceOnUse">
   <stop stop-color="#fff" offset="0"/>
   <stop stop-color="#E8EFEE" offset="1"/>
  </linearGradient>
  <linearGradient id="SVGID_11_" x1="136.53" x2="136.53" y1="332.5" y2="271.22" gradientTransform="matrix(.029983 -.0080341 -.0080341 -.029983 1.896 15.279)" gradientUnits="userSpaceOnUse">
   <stop stop-color="#5B6A6A" offset="0"/>
   <stop stop-color="#303033" offset="1"/>
  </linearGradient>
  <linearGradient id="SVGID_13_" x1="175.85" x2="175.85" y1="223.35" y2="141.16" gradientTransform="matrix(.031043 0 0 -.031043 -2.1229 15.249)" gradientUnits="userSpaceOnUse">
   <stop stop-color="#fff" offset="0"/>
   <stop stop-color="#E8EFEE" offset="1"/>
  </linearGradient>
  <linearGradient id="SVGID_14_" x1="175.85" x2="175.85" y1="162.49" y2="227.31" gradientTransform="matrix(.031043 0 0 -.031043 -2.1229 15.249)" gradientUnits="userSpaceOnUse">
   <stop stop-color="#97AAAA" offset="0"/>
   <stop stop-color="#E8EFEE" offset="1"/>
  </linearGradient>
  <linearGradient id="SVGID_16_" x1="175.85" x2="175.85" y1="207.92" y2="149.41" gradientTransform="matrix(.031043 0 0 -.031043 -2.1229 15.249)" gradientUnits="userSpaceOnUse">
   <stop stop-color="#5B6A6A" offset="0"/>
   <stop stop-color="#303033" offset="1"/>
  </linearGradient>
  <linearGradient id="SVGID_17_" x1="298" x2="298" y1="223.35" y2="141.16" gradientTransform="matrix(.031043 0 0 -.031043 -2.1229 15.249)" gradientUnits="userSpaceOnUse">
   <stop stop-color="#fff" offset="0"/>
   <stop stop-color="#E8EFEE" offset="1"/>
  </linearGradient>
  <linearGradient id="SVGID_18_" x1="298" x2="298" y1="162.49" y2="227.31" gradientTransform="matrix(.031043 0 0 -.031043 -2.1229 15.249)" gradientUnits="userSpaceOnUse">
   <stop stop-color="#97AAAA" offset="0"/>
   <stop stop-color="#E8EFEE" offset="1"/>
  </linearGradient>
  <linearGradient id="SVGID_20_" x1="298" x2="298" y1="207.92" y2="149.41" gradientTransform="matrix(.031043 0 0 -.031043 -2.1229 15.249)" gradientUnits="userSpaceOnUse">
   <stop stop-color="#5B6A6A" offset="0"/>
   <stop stop-color="#303033" offset="1"/>
  </linearGradient>
  <linearGradient id="SVGID_21_" x1="316.79" x2="316.79" y1="342.86" y2="270.21" gradientTransform="matrix(.029983 -.0080341 -.0080341 -.029983 1.896 15.279)" gradientUnits="userSpaceOnUse">
   <stop stop-color="#5B6A6A" offset="0"/>
   <stop stop-color="#303033" offset="1"/>
  </linearGradient>
  <linearGradient id="SVGID_23_" x1="358.38" x2="358.38" y1="301.28" y2="228.63" gradientTransform="matrix(.029983 -.0080341 -.0080341 -.029983 1.896 15.279)" gradientUnits="userSpaceOnUse">
   <stop stop-color="#5B6A6A" offset="0"/>
   <stop stop-color="#303033" offset="1"/>
  </linearGradient>
  <linearGradient id="SVGID_28_" x1="329.49" x2="357.44" y1="265.25" y2="237.3" gradientTransform="matrix(.031043 0 0 -.031043 -2.1229 15.249)" gradientUnits="userSpaceOnUse">
   <stop stop-color="#00A6F9" offset="0"/>
   <stop stop-color="#0071E2" offset="1"/>
  </linearGradient>
  <linearGradient id="SVGID_32_" x1="329.49" x2="357.44" y1="348.29" y2="320.34" gradientTransform="matrix(.031043 0 0 -.031043 -2.1229 15.249)" gradientUnits="userSpaceOnUse">
   <stop stop-color="#7BD101" offset="0"/>
   <stop stop-color="#5CCD0B" offset=".262"/>
   <stop stop-color="#08C126" offset="1"/>
  </linearGradient>
  <linearGradient id="SVGID_33_" x1="287.97" x2="315.92" y1="306.77" y2="278.82" gradientTransform="matrix(.031043 0 0 -.031043 -2.1229 15.249)" gradientUnits="userSpaceOnUse">
   <stop stop-color="#FFCF95" offset="0"/>
   <stop stop-color="#FFC954" offset=".427"/>
   <stop stop-color="#FFC200" offset="1"/>
  </linearGradient>
  <linearGradient id="SVGID_34_" x1="371.26" x2="399.21" y1="306.77" y2="278.82" gradientTransform="matrix(.031043 0 0 -.031043 -2.1229 15.249)" gradientUnits="userSpaceOnUse">
   <stop stop-color="#D63305" offset="0"/>
   <stop stop-color="#960000" offset="1"/>
  </linearGradient>
  <linearGradient id="SVGID_35_" x1="213.77" x2="213.77" y1="251.43" y2="227.41" gradientTransform="matrix(.029983 -.0080341 -.0080341 -.029983 1.896 15.279)" gradientUnits="userSpaceOnUse">
   <stop stop-color="#5B6A6A" offset="0"/>
   <stop stop-color="#303033" offset="1"/>
  </linearGradient>
  <linearGradient id="SVGID_36_" x1="260.08" x2="260.08" y1="251.43" y2="227.41" gradientTransform="matrix(.029983 -.0080341 -.0080341 -.029983 1.896 15.279)" gradientUnits="userSpaceOnUse">
   <stop stop-color="#5B6A6A" offset="0"/>
   <stop stop-color="#303033" offset="1"/>
  </linearGradient>
 </defs>
 <metadata>
  <rdf:RDF>
   <cc:Work rdf:about="">
    <dc:format>image/svg+xml</dc:format>
    <dc:type rdf:resource="http://purl.org/dc/dcmitype/StillImage"/>
    <dc:title/>
   </cc:Work>
  </rdf:RDF>
 </metadata>
 <g transform="translate(.8529 2.1426)" stroke-width=".0291">
  <path d="m14.547 5.6585c0.11375 0.18583 0.20287 0.39126 0.26221 0.61273 0.21692 0.80956-0.02005 1.6339-0.55483 2.2026-0.06732 0.072328-0.14001 0.14019-0.21694 0.20331-0.01925 0.016092-0.03902 0.031934-0.05924 0.047416-0.23652 0.18205-0.51222 0.32156-0.81885 0.40372-0.62034 0.16622-1.2493 0.066284-1.7651-0.2302-0.0015-8.731e-4 -0.0035-0.00204-5e-3 -0.00288-4.76e-4 -2.911e-4 -1e-3 -5.821e-4 -0.0015-8.731e-4 -7e-3 -0.00401-0.01394-0.00805-0.02092-0.012081-0.01893-0.010924-0.03771-0.021439-0.05656-0.031994-0.01878-0.010514-0.03761-0.021074-0.05671-0.03108-0.01682-0.00938-0.03394-0.018261-0.05055-0.026857-0.01084-0.00592-0.02207-0.011771-0.03281-0.017301-0.0044-0.0022-0.0092-0.00427-0.01351-0.00647-0.0015-8.731e-4 -0.0026-0.00185-4e-3 -0.0023-0.01511-0.00773-0.03013-0.015065-0.04524-0.022793-0.02764-0.013652-0.05529-0.027242-0.08319-0.040402-0.03191-0.01543-0.06451-0.030284-0.09647-0.044436-0.0044-0.0022-0.0095-0.00417-0.01441-0.00665-1e-3 -5.821e-4 -0.0019-7.673e-4 -0.0024-0.00103 0 0-4.76e-4 -2.911e-4 -1e-3 -5.821e-4 -3.71e-4 1.05e-4 -9e-4 -1.823e-4 -0.0019-7.673e-4 -0.0095-0.00419-0.01858-0.00806-0.0276-0.011943-0.0024-0.00103-0.0048-0.00209-0.0071-0.00312-0.01958-0.00864-0.03905-0.016891-0.05839-0.024754-0.0024-0.00103-0.0048-0.00209-7e-3 -0.00275-0.0054-0.00278-0.01103-0.00506-0.01669-0.00731-0.0038-0.00151-0.0075-0.00302-0.01132-0.00456-0.0029-0.00132-0.0053-0.00238-0.0081-0.00329-0.0162-0.00705-0.03256-0.013147-0.04904-0.019669-0.0071-0.00312-0.01459-0.00576-0.02202-0.00841-0.01283-0.00539-0.0259-0.010321-0.039-0.015219-0.0038-0.00151-0.0075-0.00302-0.01121-0.00417-0.01787-0.00699-0.03511-0.013308-0.0533-0.019822-0.0088-0.00308-0.01724-0.00632-0.02598-0.00904-2e-3 -0.00114-0.0039-0.00193-6e-3 -0.00217-0.0032-0.00122-0.0061-0.00257-0.0094-0.00377l-3.71e-4 1.051e-4c-0.04325-0.015343-0.08668-0.029799-0.13-0.043859-0.01111-0.00377-0.02212-0.00712-0.03362-0.010784-0.0092-0.00298-0.01884-0.00589-0.02834-0.0084-0.0038-0.00151-7e-3 -0.00275-0.01049-0.00306l-1.05e-4 -3.704e-4 -3.7e-4 1.05e-4c-0.0047-0.00172-0.0097-0.00328-0.01477-0.00487-0.01049-0.00306-0.02099-0.00615-0.03152-0.00924-0.01606-0.00495-0.03202-0.00953-0.04826-0.013581-0.01566-0.00505-0.0311-0.00935-0.04697-0.013504-0.0014-4.498e-4 -0.0027-5.291e-4 -0.0041-9.789e-4 -0.0027-5.292e-4 -0.0059-0.0018-0.0095-0.00249-0.0054-0.00148-0.01128-0.00285-0.01671-0.00435-0.03445-0.00927-0.06872-0.017769-0.10339-0.026164-4.76e-4 -2.91e-4 -0.0013-7.7e-5 -0.0019-7.673e-4l-3.7e-4 1.053e-4c-0.03503-0.0083-0.07048-0.016454-0.10569-0.023862-0.020568-0.00458-0.041061-0.00876-0.061533-0.012975-0.017423-0.00374-0.034716-0.00712-0.052425-0.010356-0.00138-4.498e-4 -0.00277-9.26e-4 -0.00406-9.789e-4 1.05e-4 3.704e-4 -3.705e-4 1.053e-4 -3.705e-4 1.053e-4 -0.013353-0.00272-0.026241-0.00517-0.039465-0.00753-8.995e-4 -1.82e-4 -0.00177-3.704e-4 -0.00257-1.54e-4 -0.00979-0.00201-0.019965-0.0039-0.030149-0.00581-0.021566-0.00347-0.042713-0.00705-0.064258-0.010559-0.00979-0.00201-0.019859-0.00351-0.029439-0.00474-0.00832-0.00114-0.017113-0.00257-0.025397-0.00371-0.00138-4.498e-4 -0.00225-6.614e-4 -0.00346-3.175e-4 -6.085e-4 -6.879e-4 -0.00138-4.498e-4 -0.00177-3.704e-4 -0.00486-8.202e-4 -0.010078-0.00151-0.015041-0.00272-0.00869-0.00106-0.017899-0.00238-0.027077-0.00368-0.00435-4.763e-4 -0.00869-0.00106-0.012642-0.00164l-3.704e-4 1.053e-4c-0.00214-2.646e-4 -0.00445-8.996e-4 -0.00622-0.00127l-3.704e-4 1.05e-4c-0.010078-0.00151-0.020047-0.00262-0.030043-0.00373-0.00572-0.00101-0.010969-0.00172-0.016613-0.0023-0.00743-9.79e-4 -0.014819-0.00191-0.022143-0.00246-0.014819-0.0019-0.029621-0.00384-0.044371-0.00537-0.00908-9.524e-4 -0.018687-0.00217-0.027759-0.00308-0.00257-1.54e-4 -0.00511-2.91e-4 -0.00782-8.731e-4 -0.02676-0.00249-0.053625-0.0054-0.080682-0.00742-0.00435-4.762e-4 -0.00908-9.524e-4 -0.013824-0.00132-0.034477-0.00296-0.069213-0.00544-0.10395-0.00791-0.014118-8.731e-4 -0.028228-0.00167-0.042317-0.00254-0.025193-0.00127-0.049816-0.0022-0.074904-0.00307l-0.049711-0.00183c-0.025847-6.879e-4 -0.051187-0.00103-0.077025-0.00164-0.00589-7.49e-5 -0.01147-2.91e-4 -0.016872-1.175e-4 -0.024484-1.875e-4 -0.048903-3.439e-4 -0.073141 2.546e-4l-3.704e-4 1.055e-4c-0.00101-5.82e-4 -0.00177-3.704e-4 -0.00257-1.542e-4 -4.762e-4 -2.91e-4 -8.995e-4 -1.82e-4 -0.00127-7.7e-5 -0.025635 1.212e-4 -0.051265 2.646e-4 -0.077188 8.996e-4 -0.015875 4.497e-4 -0.032116 0.00101-0.047982 0.00148-0.022558 6.085e-4 -0.045411 0.00164-0.067863 0.00262-0.021666 7.938e-4 -0.04326 0.00193-0.064721 0.00345-0.015769 8.466e-4 -0.031904 0.0018-0.047668 0.00268-0.02728 0.00188-0.054462 0.00408-0.082029 0.00643-0.013091 0.0014-0.026291 0.00241-0.039487 0.00341-0.033681 0.00315-0.067639 0.00674-0.10108 0.010663-0.060414 0.00694-0.12091 0.015134-0.18069 0.024437-0.022717 0.00314-0.045249 0.00709-0.067476 0.01049-0.034209 0.00579-0.068305 0.012007-0.1027 0.01869-0.01052 0.00153-0.020928 0.00353-0.031243 0.00585-0.031663 0.00596-0.063196 0.012292-0.094932 0.019563-0.035066 0.00732-0.069963 0.015375-0.10433 0.023735-0.00719 0.00151-0.013851 0.00329-0.020513 0.00508-0.036436 0.0085-0.072653 0.017811-0.10877 0.027491l-0.00275 7.408e-4c-0.023947 0.00642-0.0474 0.01312-0.070849 0.019825l-0.010626 0.00285c-0.010991 0.00294-0.021484 0.00618-0.032367 0.00951l-0.00748 0.00201c-0.00354 9.524e-4 -0.00737 0.00238-0.010885 0.00334-0.00235 6.35e-4 -0.00469 0.00124-0.00659 0.0022-0.010202 0.00273-0.020695 0.00597-0.030793 0.00909-0.012067 0.00365-0.023741 0.0072-0.035708 0.011223-0.00931 0.00292-0.018229 0.00573-0.027174 0.00854-0.00469 0.00124-0.00931 0.00292-0.013901 0.00456-0.00275 7.408e-4 -0.00587 0.00156-0.00842 0.0031-0.00509 0.00135-0.010202 0.00273-0.015108 0.00489-0.00315 8.467e-4 -0.00669 0.0018-0.0097 0.00302-0.016293 0.00521-0.032454 0.010771-0.048627 0.016404-0.00196 5.027e-4 -0.00422 0.00153-0.00619 0.00209-0.00343 0.00135-0.00698 0.0023-0.010414 0.00363l-3.704e-4 1.05e-4c-0.0096 0.00341-0.018841 0.0067-0.028041 0.010036-0.019235 0.00681-0.038002 0.013557-0.057236 0.02037-0.00225 0.00103-0.00459 0.00164-0.00687 0.00268-0.00881 0.0032-0.017237 0.00627-0.025542 0.0098-0.017632 0.00638-0.034778 0.013115-0.051937 0.019793l1.053e-4 3.704e-4c-4.762e-4 -2.911e-4 -3.704e-4 1.053e-4 -3.704e-4 1.053e-4l-3.704e-4 1.053e-4c-0.00275 7.408e-4 -0.00538 0.00188-0.00802 0.00299-0.010416 0.00363-0.020677 0.00761-0.030476 0.011964-0.029268 0.011639-0.058461 0.023677-0.08716 0.035978-0.00304 0.00124-0.00609 0.00246-0.0091 0.0037-0.00235 6.35e-4 -0.00422 0.00153-0.00648 0.00257-0.00488 0.00214-0.01021 0.00439-0.015081 0.00657-3.704e-4 1.05e-4 -0.00116 3.175e-4 -0.00143 8.202e-4 -0.012152 0.00491-0.023894 0.00978-0.035832 0.015478-3.704e-4 1.053e-4 -3.704e-4 1.053e-4 -7.937e-4 2.106e-4 -9e-3 0.00407-0.018412 0.00831-0.027413 0.012377-0.010969 0.00459-0.021849 0.00965-0.032684 0.014634-0.028174 0.012581-0.055763 0.025876-0.083744 0.039281-0.014581 0.00686-0.029038 0.014076-0.043225 0.020833-0.011538 0.00562-0.02269 0.011112-0.033724 0.017047-0.00193 5.027e-4 -0.00343 0.00135-0.00477 0.00254-0.00566 0.00235-0.010866 0.00499-0.016311 0.00817-0.00637 0.00297-0.012612 0.00633-0.018595 0.0092-0.00556 0.00275-0.011038 0.00591-0.016205 0.00856l-3.704e-4 1.053e-4c-0.00556 0.00275-0.011432 0.00602-0.016597 0.00866-0.00265 0.00114-0.00488 0.00214-0.00743 0.00365-0.00918 0.00498-0.018095 0.00949-0.026879 0.014375-0.00667 0.00344-0.012903 0.00683-0.01915 0.010162-0.00294 0.00161-0.00586 0.00323-0.00878 0.00488-0.010644 0.0058-0.021328 0.011588-0.031945 0.017388-0.00254 0.00151-0.00517 0.00265-0.00771 0.00417-0.013163 0.00732-0.026381 0.01466-0.039443 0.022349-0.00333 0.00175-0.00706 0.00355-0.01025 0.0057-0.00143 8.202e-4 -0.00333 0.00175-0.00467 0.00291l-3.705e-4 1.053e-4c-0.037715 0.021042-0.074693 0.043152-0.1117 0.065268-0.00428 0.0028-0.00868 0.00528-0.012951 0.00811-0.00143 8.201e-4 -0.00294 0.00161-0.00438 0.00243-0.00362 0.00222-0.00721 0.00446-0.010723 0.00709 0 0-1.051e-4 -3.704e-4 -3.704e-4 1.053e-4 -0.00401 0.00233-0.00839 0.00477-0.012298 0.00751-0.019902 0.012078-0.039311 0.02442-0.059 0.037289-0.010541 0.0062-0.020899 0.013192-0.031208 0.020142-0.021947 0.013893-0.043398 0.028047-0.064748 0.042597-0.00645 0.00425-0.012488 0.00838-0.018248 0.012059-0.00496 0.00341-0.010329 0.00699-0.015319 0.010403-0.00496 0.00341-0.00994 0.00688-0.014816 0.010718-0.013956 0.00919-0.028157 0.018931-0.041508 0.028808-0.00496 0.00341-0.00994 0.00688-0.014531 0.010189-0.00428 0.0028-0.00886 0.00617-0.013036 0.00937-0.00925 0.00627-0.018404 0.012943-0.027559 0.019587-0.00606 0.00415-0.011988 0.00866-0.018039 0.012845-0.010125 0.00774-0.019957 0.015017-0.029683 0.022685-0.0071 0.00486-0.013745 0.00998-0.020381 0.015131-0.00362 0.00222-0.0071 0.00486-0.010226 0.00738-0.00283 0.00204-0.00524 0.00393-0.00757 0.00625-0.00564 0.00404-0.011308 0.00806-0.016859 0.012531-0.013353 0.00987-0.026169 0.020058-0.038628 0.030113-0.00446 0.00372-0.00947 0.00718-0.013922 0.010901-0.00342 0.00299-0.00728 0.00575-0.010699 0.00874l-3.704e-4 1.053e-4c-0.00214 0.0014-0.0038 0.00312-0.00585 0.00494-0.00457 0.0033-0.00904 0.00706-0.013631 0.010401-0.00485 0.00382-0.00937 0.00754-0.014102 0.011792-0.00797 0.00635-0.015943 0.012679-0.023521 0.018925-0.022762 0.018722-0.0451 0.03733-0.06739 0.056347-0.00624 0.00505-0.011951 0.010377-0.01778 0.015279-0.00323 0.00214-0.00624 0.00505-0.00963 0.00803 0 0-2.91e-4 4.763e-4 -3.704e-4 1.051e-4 -0.00757 0.00625-0.014687 0.012763-0.022053 0.019798-0.00585 0.00494-0.011271 0.00977-0.016732 0.014578-0.00418 0.00319-0.00826 0.00685-0.011848 0.010766-0.00143 8.202e-4 -0.00283 0.00204-0.0037 0.00351-0.00564 0.00403-0.0107 0.00874-0.016126 0.013573-0.00916 0.00833-0.018251 0.016668-0.027399 0.025027-0.046435 0.041906-0.091632 0.085169-0.13623 0.12908-0.015708 0.015144-0.031622 0.031189-0.04711 0.047148-0.00464 0.00462-0.00959 0.00974-0.014266 0.014335-0.00863 0.00861-0.017147 0.017639-0.025775 0.026249-0.00359 0.00392-0.00745 0.00829-0.011038 0.012208-0.00108 7.143e-4 -0.00175 0.0013-0.00233 0.00228-0.00435 0.00412-0.00824 0.0085-0.012221 0.012522-0.0037 0.00351-0.00687 0.00729-0.010168 0.010739-0.00532 0.00522-0.010168 0.010737-0.015285 0.016716-0.015496 0.015933-0.03052 0.032159-0.045408 0.048773-0.036203 0.039164-0.071331 0.079306-0.10573 0.12049-0.018978 0.021926-0.037799 0.044233-0.056179 0.066813-0.00251 0.0032-0.00514 6e-3 -0.00763 0.0092-0.00889 0.01079-0.017772 0.0216-0.026162 0.03268-0.020296 0.02478-0.040082 0.04988-0.059772 0.07534-2.911e-4 4.76e-4 -6.879e-4 6.09e-4 -5.821e-4 1e-3 -0.024005 0.03129-0.047684 0.06243-0.070987 0.09476-0.00414 0.0049-0.00771 0.01047-0.011771 0.01578-0.022754 0.03134-0.045365 0.0631-0.067417 0.09549-0.01764 0.02536-0.034833 0.05058-0.051845 0.07659-0.00932 0.01388-0.01856 0.02811-0.027784 0.04236-0.020574 0.0316-0.041014 0.06359-0.060909 0.09628-0.01093 0.01724-0.021701 0.03528-0.032126 0.0528-0.010427 0.01753-0.020804 0.03546-0.031135 0.05335-8.731e-4 0.0015-0.00201 0.0035-0.00327 0.0051-0.00401 7e-3 -0.00805 0.01394-0.01179 0.02042-0.00249 0.0049-0.00508 0.0094-0.00726 0.01372-0.00632 0.01094-0.012634 0.02188-0.018872 0.03323 0.00238-0.0053 0.00553-0.01073 0.00841-0.01572-0.29992 0.50286-0.78846 0.89386-1.399 1.0575-1.2451 0.33335-2.5245-0.40534-2.8579-1.6495-0.061963-0.23125-0.086781-0.46362-0.078269-0.69102 6.0853e-4 -0.021222 0.001659-0.042502 0.003188-0.063548l0.1956-3.8557c0.001058-0.025952 0.002082-0.051926 0.003545-0.077954 4.1539e-4 -0.011046 0.001222-0.022201 0.002003-0.033345 0.001482-0.024378 0.003427-0.048489 0.005675-0.073043 3.8629e-4 -0.00474 7.3024e-4 -0.00987 0.001402-0.015107 0.002837-0.030225 0.006076-0.060528 0.010122-0.091074-1.052e-4 -3.704e-4 -2.1037e-4 -7.938e-4 7.699e-5 -0.00127 3e-3 -0.026472 0.006807-0.053191 0.010966-0.079943 7.858e-4 -0.00651 0.00154-0.013036 0.002747-0.019658 0.004517-0.030254 0.009829-0.060687 0.015344-0.090365 0.011234-0.063204 0.024681-0.12613 0.040413-0.1884 0.007665-0.031097 0.015801-0.061898 0.024367-0.092784 0.29867-1.0841 1.1482-1.9858 2.3135-2.2981 0.57873-0.15507 1.1625-0.14527 1.7019 5.821e-4 0.23225 0.062735 0.46852 0.093272 0.70367 0.09296 0.47467-7.92e-5 0.94266-0.12548 1.3537-0.36274 0.2038-0.1173 0.39313-0.26188 0.56293-0.43233 0.39424-0.39598 0.8949-0.69635 1.4736-0.85142 1.1653-0.31224 2.3519 0.043965 3.1525 0.83346 0.02286 0.022465 0.04534 0.045092 0.0675 0.06817 0.04473 0.04607 0.08784 0.093867 0.1292 0.14295 0.01961 0.022915 0.03944 0.046674 0.05847 0.070586 0.0061 0.00718 0.012 0.01489 0.01736 0.022285 0.01429 0.017232 0.02789 0.035039 0.04112 0.052942 0.0043 0.00514 0.0082 0.010414 0.01192 0.016147 0.01602 0.02056 0.03138 0.041665 0.04632 0.062906 0.03847 0.054072 0.07529 0.10986 0.11067 0.16644l0.29033 0.44907 1.7853 2.7589c0.0021 0.00322 0.0041 0.00606 0.0063 0.00925 7.14e-4 0.00108 0.0013 0.00175 2e-3 0.00283l0.05972 0.092548c0.0013 0.00212 0.0028 0.00426 0.0043 0.0068z" fill="url(#SVGID_3_)"/>
  <path d="m6.0823 9.1488c-0.00994 0.00688-0.019772 0.014126-0.029211 0.021296-0.00536 0.00351-0.010618 0.00748-0.015753 0.011813-7.937e-4 2.103e-4 -0.00143 8.202e-4 -0.00225 0.00103-0.010125 0.00774-0.019957 0.01502-0.029683 0.022685-0.0071 0.00486-0.013742 0.00998-0.02038 0.015129-0.00362 0.00222-0.0071 0.00486-0.010223 0.00738-0.00847 0.00606-0.016436 0.012419-0.024442 0.018748-0.013353 0.00987-0.026169 0.020058-0.038628 0.030114-0.00446 0.00372-0.00904 0.00706-0.013922 0.010901-0.00428 0.0028-0.00807 0.00596-0.011882 0.00906-0.018674 0.015097-0.037729 0.030325-0.056293 0.045815-0.022473 0.018224-0.045197 0.036964-0.067389 0.056347-0.00108 7.144e-4 -0.00204 0.00183-0.00313 0.00249-0.00485 0.00383-0.01002 0.00814-0.014687 0.012766-0.00323 0.00214-0.00624 0.00505-0.00963 0.00803 0 0-2.911e-4 4.763e-4 -3.705e-4 1.051e-4 -0.013028 0.011083-0.025937 0.022497-0.038782 0.034375-0.00418 0.00319-0.00826 0.00685-0.012319 0.010472-0.00653 0.00555-0.012922 0.011475-0.019328 0.01738-0.00916 0.00833-0.018251 0.016668-0.027399 0.025026-0.00204 0.00183-0.00435 0.00412-0.00642 0.00594-0.043975 0.039953-0.087282 0.081051-0.12987 0.12316-0.015708 0.015144-0.031622 0.031189-0.04711 0.047148-0.00464 0.00462-0.00959 0.00974-0.014266 0.014335-0.01725 0.017245-0.034321 0.035288-0.05136 0.053319-0.0037 0.00351-0.00688 0.00729-0.010168 0.010737-0.00161 0.00172-0.0033 0.00341-0.00464 0.00462-0.00359 0.00392-0.00716 0.00779-0.011147 0.011813-0.014994 0.016221-0.03001 0.032476-0.04491 0.04906-0.036203 0.039164-0.071331 0.079306-0.10573 0.12049-0.018978 0.021926-0.037799 0.044233-0.056179 0.066812-0.00251 0.0032-0.00514 6e-3 -0.00763 0.0092-0.00889 0.01079-0.017772 0.02161-0.026161 0.03268-0.020296 0.02478-0.040083 0.04988-0.059772 0.07534-2.91e-4 4.76e-4 -6.879e-4 6.09e-4 -5.82e-4 1e-3 -0.024005 0.03129-0.047684 0.06243-0.070987 0.09476-0.00414 0.0049-0.00771 0.01047-0.011771 0.01578-0.022754 0.03134-0.045365 0.0631-0.067417 0.09549-0.017639 0.02536-0.034833 0.05058-0.051845 0.07659-0.00932 0.01388-0.01856 0.02811-0.027784 0.04236-0.020576 0.0316-0.041015 0.06359-0.06091 0.09628-0.017407 0.0278-0.034537 0.0564-0.051444 0.08449-0.00103 0.0024-0.00249 0.0049-0.00391 0.0073l-0.011213 0.01943c-0.00959 0.01604-0.018684 0.03236-0.027778 0.04869-5.821e-4 1e-3 -0.00114 2e-3 -0.00175 3e-3 -0.29997 0.50285-0.78851 0.89384-1.399 1.0574-1.2445 0.33343-2.5239-0.40526-2.8572-1.6494-0.061963-0.23125-0.086781-0.46362-0.078269-0.69102 6.0853e-4 -0.021222 0.001659-0.042502 0.003188-0.063548l0.19564-3.8557c0.001058-0.025953 0.002082-0.051926 0.003545-0.077955 4.1539e-4 -0.011049 0.001222-0.022201 0.002003-0.033345 0.001482-0.024378 0.003427-0.048489 0.005675-0.073043 3.8628e-4 -0.00474 7.3023e-4 -0.00987 0.001402-0.015107 0.002837-0.030225 0.006076-0.060528 0.010122-0.091074-1.052e-4 -3.704e-4 -2.1037e-4 -7.937e-4 7.699e-5 -0.00127 3e-3 -0.026473 0.006807-0.053192 0.010966-0.079943 7.858e-4 -0.00651 0.00154-0.013036 0.002747-0.019656 0.004517-0.030254 0.009829-0.060688 0.015344-0.090365 0.011627-0.06331 0.025075-0.12623 0.040413-0.1884 0.007665-0.031097 0.015801-0.061898 0.024367-0.092784-0.065897 0.40272-0.049404 0.82541 0.063052 1.2451 0.1557 0.58108 0.47362 1.0749 0.89211 1.4463 0.66552 0.59132 1.5857 0.87206 2.5109 0.69863 0.032059-0.00607 0.063879-0.012898 0.096083-0.01987 0.042515-0.00932 0.08515-0.019862 0.12757-0.031229 0.046324-0.012411 0.092331-0.026 0.13763-0.040673 0.056971-0.018219 0.11276-0.037807 0.16787-0.059712 0.045853-0.017319 0.090912-0.036138 0.13513-0.056423 0.098565-0.043672 0.19356-0.092686 0.28496-0.1458z" fill="url(#SVGID_4_)"/>
  <path d="m14.255 8.474c-0.06733 0.072328-0.14001 0.14019-0.21694 0.20331-0.01925 0.016092-0.03901 0.031934-0.05924 0.047416-0.23652 0.18205-0.51222 0.32156-0.81885 0.40372-0.62034 0.16622-1.2493 0.066284-1.7651-0.2302-0.0015-8.731e-4 -0.0035-0.00204-5e-3 -0.00288-4.76e-4 -2.91e-4 -1e-3 -5.82e-4 -0.0015-8.731e-4 -7e-3 -0.00401-0.01394-0.00805-0.02092-0.012081-0.01892-0.010924-0.03771-0.021439-0.05656-0.031994-0.0189-0.010932-0.038-0.020968-0.05671-0.03108-0.01682-0.00938-0.03394-0.018261-0.05055-0.026857-0.01084-0.00592-0.02207-0.011771-0.03281-0.017301-0.0059-0.00307-0.01173-0.00611-0.01748-0.00878-0.01512-0.00773-0.03013-0.015065-0.04524-0.022793-0.02775-0.014046-0.05529-0.027242-0.08319-0.040402-0.03191-0.01543-0.06451-0.030284-0.09647-0.044436-0.0044-0.0022-0.0095-0.00417-0.01441-0.00665-1e-3 -5.821e-4 -0.0019-7.673e-4 -0.0024-0.00103 0 0-4.76e-4 -2.91e-4 -1e-3 -5.82e-4 -9e-4 -1.823e-4 -0.0014-4.498e-4 -0.0019-7.673e-4 -0.0095-0.00419-0.01858-0.00806-0.0276-0.011943-0.0024-0.00103-0.0048-0.00209-0.0071-0.00312-0.01958-0.00864-0.03905-0.016893-0.05839-0.024754-0.0077-0.0038-0.01569-0.00673-0.02336-0.010162 0 0 1.05e-4 3.704e-4 -3.71e-4 1.05e-4 -0.0038-0.00151-0.0075-0.00302-0.01132-0.00456-0.0029-0.00132-0.0053-0.00238-0.0081-0.00329-0.0162-0.00705-0.03256-0.013147-0.04904-0.019669-0.0071-0.00312-0.01459-0.00576-0.02201-0.00841-0.01283-0.00539-0.0259-0.010321-0.039-0.015219-0.0038-0.00151-0.0075-0.00302-0.01121-0.00417-0.01778-0.00663-0.0355-0.013202-0.0533-0.019822-0.0088-0.00308-0.01724-0.00632-0.02598-0.00904-2e-3 -0.00114-0.0039-0.00193-6e-3 -0.00217-0.0032-0.00122-0.0065-0.00246-0.0098-0.00367-0.04325-0.015343-0.08668-0.029799-0.13-0.043859-0.0111-0.00377-0.02212-0.00712-0.03362-0.010784-0.01289-0.00414-0.02566-0.00786-0.03854-0.011967l-3.7e-4 1.053e-4 -1.05e-4 -3.704e-4c-5e-3 -0.00119-0.01-0.00278-0.01506-0.00437-0.01049-0.00306-0.02099-0.00615-0.03152-0.00924-0.03202-0.00953-0.06339-0.018354-0.0952-0.027093-0.0014-4.498e-4 -0.0027-5.292e-4 -0.0041-9.79e-4 -0.0027-5.291e-4 -0.0059-0.0018-0.0095-0.00249-0.0054-0.00148-0.01128-0.00285-0.01671-0.00435-0.03534-0.00945-0.07011-0.01824-0.10524-0.026903l-3.7e-4 1.05e-4c-0.03514-0.00869-0.07048-0.016454-0.10569-0.02386-0.020571-0.00458-0.04106-0.00876-0.061533-0.012975-0.01742-0.00374-0.035139-0.00701-0.052425-0.010355-0.00138-4.498e-4 -0.00277-9.261e-4 -0.00406-9.79e-4 1.053e-4 3.704e-4 -3.704e-4 1.053e-4 -3.704e-4 1.053e-4 -0.013353-0.00272-0.026241-0.00517-0.039465-0.00753-0.01107-0.00206-0.022068-0.00376-0.032747-0.00596-0.021566-0.00347-0.042713-0.00705-0.064258-0.010559-0.00979-0.00201-0.019859-0.00351-0.029439-0.00474-0.00929-0.00175-0.018502-0.00305-0.027681-0.00436-0.00611-8.996e-4 -0.011882-0.00185-0.018005-0.00277-0.00869-0.00106-0.017899-0.00238-0.027076-0.00368-0.00435-4.762e-4 -0.00869-0.00106-0.012644-0.00164l-3.704e-4 1.053e-4c-0.00225-6.615e-4 -0.00445-8.996e-4 -0.00661-0.00119-0.010078-0.00151-0.020047-0.00262-0.030043-0.00373-0.00572-0.00101-0.010969-0.00172-0.016613-0.0023-0.00743-9.79e-4 -0.014819-0.00191-0.022142-0.00246-0.014822-0.0019-0.029621-0.00384-0.044371-0.00537-0.00908-9.525e-4 -0.018293-0.00228-0.027759-0.00308-0.00257-1.54e-4 -0.00511-2.91e-4 -0.00782-8.731e-4 -0.00997-0.00114-0.020367-0.00214-0.030731-0.00316l0.19774-1.6823c0.1057 2.645e-4 0.21248-0.00475 0.31966-0.016213 0.00297 4.69e-5 0.0058-2.91e-4 0.00855-0.00103 0.045571-0.0042 0.091031-0.010504 0.13665-0.017695 0.03038-0.00434 0.06058-0.00949 0.09063-0.015036 0.0284-0.00554 0.05679-0.010999 0.08538-0.017425 0.0064-0.0013 0.01238-0.00246 0.01865-0.00416 0.04018-0.00869 0.08004-0.018491 0.12009-0.029225 0.04239-0.011358 0.08459-0.023508 0.12609-0.036739 0.04426-0.013935 0.08777-0.02897 0.13107-0.044791 0.86862-0.31858 1.5104-1.014 1.7873-1.8465 0.17674-0.53086 0.20514-1.1175 0.04944-1.6986-0.01957-0.073027-0.04178-0.14492-0.06641-0.21491-0.11673-0.33356-0.2881-0.63396-0.50155-0.8949 0.02286 0.022465 0.04534 0.045092 0.06749 0.06817 0.04434 0.046175 0.08745 0.093973 0.1292 0.14295 0.01961 0.022915 0.03944 0.046674 0.05847 0.070586 0.0061 0.00718 0.01201 0.014888 0.01736 0.022285 0.01429 0.017232 0.02789 0.035036 0.04112 0.052942 0.0043 0.00514 0.0082 0.010414 0.01192 0.016145 0.01602 0.02056 0.03138 0.041665 0.04632 0.062906 0.03847 0.054074 0.07529 0.10986 0.11067 0.16644l0.29032 0.44907 1.7853 2.7589c0.0021 0.00322 0.0041 0.00606 0.0063 0.00925l0.06174 0.095379c0.0014 0.00214 0.0028 0.00428 0.0043 0.00685 0.11375 0.18583 0.20287 0.39126 0.26221 0.61273 0.21687 0.80959-0.02011 1.6339-0.55489 2.2026z" fill="url(#SVGID_5_)"/>
  <circle transform="rotate(-15)" cx="8.3587" cy="5.9806" r="2.2535" fill="url(#SVGID_7_)"/>
  <circle transform="rotate(-15)" cx="2.0992" cy="5.9806" r="2.2535" fill="url(#SVGID_9_)"/>
  <path d="m4.6235 4.6153-0.78746 0.211-0.211-0.78746c-0.048784-0.18206-0.2359-0.29008-0.41795-0.24131-0.18206 0.048784-0.29008 0.2359-0.24131 0.41795l0.21099 0.78746-0.78746 0.21099c-0.18206 0.048784-0.29008 0.2359-0.24131 0.41795 0.048784 0.18206 0.2359 0.29008 0.41795 0.24131l0.78746-0.211 0.211 0.78746c0.048784 0.18206 0.2359 0.29008 0.41795 0.24131 0.18205-0.048773 0.29008-0.2359 0.24131-0.41795l-0.21099-0.78746 0.78746-0.21099c0.18206-0.048784 0.29008-0.2359 0.24131-0.41795-0.048784-0.18206-0.23593-0.29008-0.41795-0.24131z" fill="url(#SVGID_11_)"/>
  <circle transform="rotate(-15)" cx="3.3354" cy="9.5207" r="1.4836" fill="url(#SVGID_13_)"/>
  <circle transform="rotate(-15)" cx="3.3354" cy="9.5207" r="1.0908" fill="url(#SVGID_14_)"/>
  <circle transform="rotate(-15)" cx="3.3354" cy="9.5207" r=".98459" fill="url(#SVGID_16_)"/>
  <circle transform="rotate(-15)" cx="7.1272" cy="9.5207" r="1.4836" fill="url(#SVGID_17_)"/>
  <circle transform="rotate(-15)" cx="7.1272" cy="9.5207" r="1.0908" fill="url(#SVGID_18_)"/>
  <circle transform="rotate(-15)" cx="7.1272" cy="9.5207" r=".98459" fill="url(#SVGID_20_)"/>
  <path d="m9.1529 1.7822c-0.019198 0.00514-0.038679 0.011485-0.057884 0.018851-0.00336 0.0013-0.00654 0.00271-0.0097 0.00417l-0.00393 0.00177c-0.014057 0.00579-0.02803 0.011761-0.041429 0.018539-0.00284 0.00143-0.00555 3e-3 -0.00829 0.00461l-0.00374 0.00212c-0.013557 0.00731-0.026906 0.014832-0.039693 0.023108-0.00214 0.00138-0.0042 0.00286-0.00875 0.00611-0.013525 0.00911-0.026773 0.018592-0.039489 0.028808l-0.00524 0.00451c-0.013501 0.01112-0.02654 0.022714-0.041348 0.037501-0.013163 0.013165-0.025728 0.026987-0.034973 0.038473l-0.00287 0.00321c-0.024336 0.029596-0.045934 0.061988-0.06354 0.095114-0.1554 0.26904-0.92524 1.6019-0.9468 1.6411l-7.6e-6 -2.83e-5c-0.069445 0.13053-0.086775 0.28027-0.048892 0.42166 0.08282 0.3091 0.40164 0.49315 0.71068 0.41033 0.15651-0.041943 0.2849-0.14426 0.36087-0.28692l0.92705-1.6057c0.086201-0.13827 0.11061-0.30059 0.068682-0.45709-0.082825-0.30899-0.40164-0.49307-0.71068-0.41025z" fill="url(#SVGID_21_)"/>
  <path d="m10.734 2.6949c-0.0192 0.00514-0.03868 0.011485-0.05788 0.018851-0.0034 0.0013-0.0065 0.00271-0.0097 0.00417l-0.0039 0.00177c-0.01406 0.00579-0.02803 0.01176-0.04143 0.018542-0.0028 0.00143-0.0056 3e-3 -0.0083 0.00461l-0.0037 0.00212c-0.01356 0.00731-0.02691 0.014832-0.03969 0.023108-0.0021 0.00138-0.0042 0.00286-0.0088 0.00611-0.01353 0.00911-0.02677 0.018592-0.03949 0.028808l-0.0052 0.00451c-0.0135 0.01112-0.02654 0.022714-0.04135 0.037501-0.01316 0.013165-0.02573 0.026987-0.03497 0.038473l-0.0029 0.00321c-0.02434 0.029596-0.04593 0.061988-0.06354 0.095116-0.1554 0.26904-0.92524 1.6019-0.9468 1.6411l-7.6e-6 -2.8e-5c-0.069446 0.13053-0.086775 0.28027-0.048892 0.42166 0.08282 0.3091 0.40164 0.49315 0.71068 0.41033 0.15651-0.041936 0.28491-0.14425 0.36087-0.28691l0.92703-1.6057c0.0862-0.13827 0.11061-0.30059 0.06868-0.45709-0.08282-0.30896-0.40164-0.49307-0.71068-0.41025z" fill="url(#SVGID_23_)"/>
  <circle transform="rotate(-15)" cx="8.3587" cy="7.2693" r=".52503" fill="url(#SVGID_28_)"/>
  <circle transform="rotate(-15)" cx="8.3587" cy="4.6917" r=".52503" fill="url(#SVGID_32_)"/>
  <circle transform="rotate(-15)" cx="7.07" cy="5.9806" r=".52503" fill="url(#SVGID_33_)"/>
  <circle transform="rotate(-15)" cx="9.6555" cy="5.9806" r=".52503" fill="url(#SVGID_34_)"/>
  <path d="m6.6308 6.0914 0.00687 0.025635c0.027821 0.10383-0.033806 0.21058-0.13764 0.2384l-0.2339 0.062673c-0.10383 0.027822-0.21058-0.033806-0.2384-0.13764l-0.00687-0.025635c-0.027822-0.10383 0.033805-0.21058 0.13764-0.2384l0.2339-0.062673c0.10381-0.027816 0.21057 0.033779 0.2384 0.13764z" fill="url(#SVGID_35_)"/>
  <path d="m8.0195 5.7195 0.00687 0.025635c0.027823 0.10383-0.033805 0.21058-0.13764 0.2384l-0.2339 0.062673c-0.10384 0.027821-0.21058-0.033806-0.2384-0.13764l-0.00687-0.025635c-0.027823-0.10383 0.033805-0.21058 0.13764-0.2384l0.2339-0.062673c0.10383-0.027822 0.21057 0.033779 0.2384 0.13764z" fill="url(#SVGID_36_)"/>
 </g>
</svg>
