<?xml version="1.0" encoding="UTF-8" standalone="no"?>
<svg
   xmlns:dc="http://purl.org/dc/elements/1.1/"
   xmlns:cc="http://creativecommons.org/ns#"
   xmlns:rdf="http://www.w3.org/1999/02/22-rdf-syntax-ns#"
   xmlns:svg="http://www.w3.org/2000/svg"
   xmlns="http://www.w3.org/2000/svg"
   xmlns:xlink="http://www.w3.org/1999/xlink"
   xmlns:sodipodi="http://sodipodi.sourceforge.net/DTD/sodipodi-0.dtd"
   xmlns:inkscape="http://www.inkscape.org/namespaces/inkscape"
   width="64"
   height="64"
   version="1.1"
   id="svg12"
   sodipodi:docname="appimagekit-diffuse.svg"
   inkscape:version="1.0.2 (e86c870879, 2021-01-15)">
  <metadata
     id="metadata18">
    <rdf:RDF>
      <cc:Work
         rdf:about="">
        <dc:format>image/svg+xml</dc:format>
        <dc:type
           rdf:resource="http://purl.org/dc/dcmitype/StillImage" />
        <dc:title></dc:title>
      </cc:Work>
    </rdf:RDF>
  </metadata>
  <defs
     id="defs16">
    <linearGradient
       inkscape:collect="always"
       id="linearGradient917">
      <stop
         style="stop-color:#b3cad6;stop-opacity:1"
         offset="0"
         id="stop913" />
      <stop
         style="stop-color:#5286a5;stop-opacity:1"
         offset="1"
         id="stop915" />
    </linearGradient>
    <radialGradient
       gradientUnits="userSpaceOnUse"
       gradientTransform="matrix(0,2.5253,-4.9716,0,10.95796,-25.898)"
       fx="9.7251997"
       r="12.672"
       cy="9.9089003"
       cx="10.255"
       id="radialGradient5521-1">
      <stop
         id="stop4"
         offset="0"
         stop-color="#5c96ff" />
      <stop
         id="stop6"
         offset="1"
         stop-color="#1e4ea4" />
    </radialGradient>
    <filter
       color-interpolation-filters="sRGB"
       height="1.096"
       width="1.096"
       y="-0.048"
       x="-0.048"
       id="filter975">
      <feGaussianBlur
         id="feGaussianBlur9"
         stdDeviation="0.56" />
    </filter>
    <filter
       color-interpolation-filters="sRGB"
       height="1.0731"
       width="1.1396"
       y="-0.036571"
       x="-0.069817998"
       id="filter871">
      <feGaussianBlur
         id="feGaussianBlur12"
         stdDeviation="1.28" />
    </filter>
    <linearGradient
       id="linearGradient873"
       x1="-48.646"
       x2="-32.772"
       y1="-6.3007"
       y2="9.574"
       gradientTransform="matrix(3.779602,0,0,3.779602,185.86403,25.81351)"
       gradientUnits="userSpaceOnUse">
      <stop
         stop-color="#28afea"
         offset="0"
         id="stop866" />
      <stop
         stop-color="#838be4"
         offset="1"
         id="stop868" />
    </linearGradient>
    <linearGradient
       inkscape:collect="always"
       xlink:href="#linearGradient917"
       id="linearGradient919"
       x1="33"
       y1="7"
       x2="33"
       y2="58"
       gradientUnits="userSpaceOnUse" />
  </defs>
  <sodipodi:namedview
     pagecolor="#ffffff"
     bordercolor="#666666"
     borderopacity="1"
     objecttolerance="10"
     gridtolerance="10"
     guidetolerance="10"
     inkscape:pageopacity="0"
     inkscape:pageshadow="2"
     inkscape:window-width="1920"
     inkscape:window-height="936"
     id="namedview14"
     showgrid="true"
     inkscape:snap-bbox="true"
     inkscape:bbox-nodes="true"
     inkscape:snap-bbox-edge-midpoints="true"
     inkscape:zoom="3.0273438"
     inkscape:cx="12.553551"
     inkscape:cy="7.9063221"
     inkscape:window-x="0"
     inkscape:window-y="38"
     inkscape:window-maximized="1"
     inkscape:current-layer="svg12">
    <inkscape:grid
       type="xygrid"
       id="grid909" />
  </sodipodi:namedview>
  <path
     d="M 7.7499104,5 C 6.2264684,5 5,6.2264684 5,7.7499104 V 57.2483 c 0,1.523442 1.2264684,2.74991 2.7499104,2.74991 H 57.250089 C 58.773532,59.99821 60,58.771742 60,57.2483 V 7.7499104 C 60,6.2264684 58.773532,5 57.250089,5 Z"
     style="color:#000000;fill:#637d8c;fill-opacity:0.945098;stroke-width:2.21712;enable-background:accumulate"
     id="rect901" />
  <path
     d="M 9.5499755,7 C 8.1373329,7 7.0000651,8.1372678 7.0000651,9.5499104 V 55.4483 c 0,1.412643 1.1372678,2.54991 2.5499104,2.54991 H 55.450024 c 1.412643,0 2.549911,-1.137267 2.549911,-2.54991 V 9.5499104 C 57.999935,8.1372678 56.862667,7 55.450024,7 Z"
     style="color:#000000;fill:url(#linearGradient919);fill-opacity:1;stroke-width:2.05587;enable-background:accumulate"
     id="path911" />
  <path
     d="m 44.421546,40.611519 c -0.03955,-0.351423 -0.449288,-0.615482 -0.803652,-0.615482 -1.14549,0 -2.162069,-0.672635 -2.588435,-1.712782 -0.435519,-1.065416 -0.154694,-2.307988 0.699092,-3.090906 0.26873,-0.245657 0.301396,-0.656895 0.07603,-0.942578 -0.586297,-0.744582 -1.252642,-1.417002 -1.98035,-1.99987 -0.284929,-0.228637 -0.702953,-0.196828 -0.950005,0.07678 -0.745067,0.82514 -2.083425,1.131855 -3.117632,0.700333 -1.076216,-0.452716 -1.754925,-1.543293 -1.688512,-2.713756 0.02186,-0.367701 -0.246862,-0.687429 -0.613456,-0.730139 -0.933724,-0.107999 -1.875656,-0.111349 -2.812026,-0.0076 -0.362409,0.03999 -0.631139,0.352149 -0.618963,0.715208 0.04074,1.159069 -0.646123,2.23056 -1.711649,2.667077 -1.021788,0.417376 -2.350724,0.113288 -3.094415,-0.704546 -0.245755,-0.269377 -0.657003,-0.302502 -0.94328,-0.07931 -0.749226,0.587782 -1.430581,1.260848 -2.022224,1.99914 -0.230773,0.287061 -0.196837,0.703087 0.0746,0.950085 0.87001,0.787858 1.150943,2.041202 0.698955,3.118983 -0.431522,1.027512 -1.498504,1.689725 -2.719964,1.689725 -0.396345,-0.01274 -0.678681,0.253294 -0.722066,0.613646 -0.109938,0.93907 -0.11125,1.896012 -0.0051,2.842802 0.03922,0.352908 0.461489,0.614645 0.819633,0.614645 1.088581,-0.02784 2.133586,0.646097 2.572075,1.712997 0.437003,1.065417 0.156097,2.307206 -0.698957,3.090907 -0.267434,0.245647 -0.301396,0.656247 -0.07602,0.941931 0.580817,0.739777 1.24735,1.412924 1.977489,2.000706 0.286413,0.230772 0.703168,0.198214 0.951353,-0.07535 0.747848,-0.827221 2.086153,-1.133368 3.116283,-0.700982 1.078915,0.451312 1.757651,1.541782 1.691211,2.713216 -0.0216,0.36789 0.248373,0.688158 0.613457,0.73022 0.477661,0.05569 0.958211,0.08352 1.440083,0.08352 0.457386,0 0.914853,-0.02511 1.372212,-0.07602 0.362491,-0.03999 0.631058,-0.352151 0.618856,-0.715857 -0.04192,-1.158422 0.646124,-2.229939 1.710297,-2.665647 1.028647,-0.420157 2.352076,-0.112637 3.095766,0.70433 0.247159,0.26881 0.655519,0.301287 0.943444,0.07889 0.747794,-0.586379 1.427718,-1.258932 2.022222,-1.999357 0.230691,-0.286386 0.198133,-0.703087 -0.07468,-0.950003 -0.87001,-0.787859 -1.152347,-2.041364 -0.700333,-3.118444 0.424908,-1.013797 1.452204,-1.694504 2.557226,-1.694504 l 0.154586,0.0042 c 0.358414,0.02911 0.688157,-0.246965 0.731569,-0.612808 0.110125,-0.939933 0.11145,-1.896012 0.0051,-2.842802 z m -12.401421,5.583824 c -2.299295,0 -4.169443,-1.870148 -4.169443,-4.169443 0,-2.299132 1.870283,-4.169442 4.169443,-4.169442 2.299213,0 4.169444,1.870362 4.169444,4.169442 0,2.299214 -1.870284,4.169443 -4.169444,4.169443 z"
     clip-rule="evenodd"
     fill="#ffffff"
     fill-rule="evenodd"
     image-rendering="optimizeSpeed"
     stroke-width="0.103194"
     id="path2190"
     style="stroke:#627d8c;stroke-width:1;stroke-miterlimit:4;stroke-dasharray:none;stroke-opacity:0.945098" />
  <path
     id="rect2132"
     style="fill:#ffffff;fill-opacity:1;stroke:#627d8c;stroke-width:0.857143;stroke-linecap:round;stroke-miterlimit:4;stroke-dasharray:none;stroke-opacity:0.945098"
     d="m 27.953489,9 0,8.547439 H 22.750831 L 32,27.374681 41.249169,17.547439 h -5.202658 l 0,-8.547439 z"
     sodipodi:nodetypes="cccccccc" />
</svg>
