<?xml version="1.0" encoding="UTF-8"?>
<svg width="64" height="64" version="1.1" viewBox="0 0 16.933 16.933" xmlns="http://www.w3.org/2000/svg" xmlns:cc="http://creativecommons.org/ns#" xmlns:dc="http://purl.org/dc/elements/1.1/" xmlns:rdf="http://www.w3.org/1999/02/22-rdf-syntax-ns#" xmlns:xlink="http://www.w3.org/1999/xlink">
 <defs>
  <linearGradient id="linearGradient1005" x1=".73911" x2="16.388" y1="16.296" y2=".64687" gradientTransform="matrix(.99999 0 0 .99999 -24.615 5.3946)" gradientUnits="userSpaceOnUse">
   <stop stop-color="#00a0ff" offset="0"/>
   <stop stop-color="#37beff" offset="1"/>
  </linearGradient>
 </defs>
 <metadata>
  <rdf:RDF>
   <cc:Work rdf:about="">
    <dc:format>image/svg+xml</dc:format>
    <dc:type rdf:resource="http://purl.org/dc/dcmitype/StillImage"/>
    <dc:title/>
   </cc:Work>
  </rdf:RDF>
 </metadata>
 <g transform="translate(24.58 -5.3879)">
  <path d="m-8.1757 13.855c0 0.95154-0.16749 1.8638-0.47464 2.7095-0.2135 0.58768-0.49438 1.1433-0.83392 1.6572-0.14222 0.21608-0.29514 0.42475-0.45746 0.62528-0.51965 0.64179-1.1372 1.2006-1.8304 1.6542-0.2553 0.16717-0.52064 0.3201-0.79536 0.45712-1.0668 0.53389-2.271 0.83421-3.5456 0.83421-1.2745 0-2.4787-0.30032-3.5456-0.83423-0.27474-0.13705-0.5404-0.28996-0.7957-0.45712-0.70206-0.45973-1.327-1.0274-1.8508-1.6798-0.16262-0.20216-0.31524-0.41275-0.45746-0.63077-0.33047-0.50539-0.60421-1.0507-0.81349-1.627-0.30711-0.84528-0.4743-1.7572-0.4743-2.7085 0-4.3838 3.5537-7.9375 7.9375-7.9375 2.2005 0 4.1917 0.89547 5.6295 2.3416 0.41435 0.41661 0.78274 0.87929 1.0962 1.3794 0.29645 0.47107 0.54427 0.97581 0.73703 1.5068 0.30719 0.84559 0.47466 1.7579 0.47466 2.7095z" fill="url(#linearGradient1005)" stroke-width=".031006"/>
  <path d="m-16.113 8.5631c-2.9224 0-5.2915 2.3691-5.2915 5.2915 0 2.9224 2.3691 5.2915 5.2915 5.2915 2.9224 0 5.2915-2.3691 5.2915-5.2915 0-2.9224-2.3691-5.2915-5.2915-5.2915zm-0.49505 1.0552c0.05758-0.00603 0.13001 0.00344 0.1881 0 0.0069 0.027537-0.04079 0.12634-0.10645 0.26974-0.41814 0.91347-0.44285 1.983-0.05478 2.5548 0.07023 0.10367 0.13436 0.20215 0.13436 0.21497 0 0.01283-0.07559 0.02687-0.16123 0.02687-0.20102 0-0.3916-0.12215-0.78029-0.42994-0.17267-0.13673-0.39671-0.25133-0.48368-0.26871-0.13656-0.02728-0.17265-0.01546-0.34932 0.16123-0.16437 0.16435-0.21497 0.25364-0.21497 0.4041 0 0.57054 0.67775 1.0229 1.9368 1.2898 1.7098 0.36238 2.1304 0.68734 2.1776 1.5864 0.05921 1.1274-0.54044 1.9773-1.8551 2.6354-0.15692 0.07857-0.25661 0.11-0.32245 0.13539-0.02918-0.0026-0.05256 0.0026-0.08165 0-0.01119-0.03486-0.02687-0.11548-0.02687-0.26871 0-0.59881-0.23551-1.2159-0.59116-1.5606-0.09547-0.09253-0.36225-0.28823-0.59116-0.42994-0.2289-0.14169-0.46012-0.30597-0.51158-0.37619-0.08527-0.11654-0.09137-0.18778-0.02585-0.40306 0.11942-0.39319 0.26109-0.6135 0.53742-0.86194 0.14487-0.13025 0.29036-0.23821 0.32245-0.24081 0.0321-0.0026-0.18472-0.06873-0.51055-0.13539-0.32582-0.06678-0.80361-0.20639-1.05-0.29558-0.45061-0.16304-1.0589-0.5057-1.2908-0.75342-0.0098-0.0105-0.01836-0.01757-0.02687-0.02687 0.33231-1.3237 1.2648-2.4082 2.5011-2.931 0.25868-0.10941 0.52567-0.18426 0.80716-0.24184 0.14021-0.028659 0.28516-0.040056 0.42994-0.054776zm4.0348 2.0174c0.10108 0.06248 0.48325 0.8891 0.5922 1.2919 0.14066 0.51998 0.13048 1.4192 0 1.9357-0.04966 0.1966-0.11422 0.38017-0.13539 0.40306-0.02117 0.02289-0.09881-0.10763-0.18913-0.26768-0.09032-0.16002-0.37724-0.50044-0.617-0.75342-0.69207-0.73027-0.80148-1.1111-0.51158-1.6939 0.1462-0.2939 0.78268-0.96396 0.8609-0.91568z" fill="#fff" stroke-width=".26458"/>
 </g>
 <g transform="translate(.65705 .64904)" stroke-width=".26458">
  <circle cx="12.043" cy="12.051" r="4.2333" fill="#f71a24"/>
  <path d="m11.514 9.9343-0.04667 0.55753a1.6631 1.6631 0 0 0-0.48605 0.28112l-0.50672-0.2386-0.52917 0.91657 0.46006 0.31951a1.6631 1.6631 0 0 0-0.0254 0.28053 1.6631 1.6631 0 0 0 0.02418 0.28171l-0.45889 0.31832 0.52917 0.91657 0.50554-0.23801a1.6631 1.6631 0 0 0 0.48723 0.27935l0.04667 0.55869h1.0583l0.04667-0.55753a1.6631 1.6631 0 0 0 0.48606-0.28112l0.50672 0.2386 0.52917-0.91657-0.46007-0.31951a1.6631 1.6631 0 0 0 0.0254-0.28053 1.6631 1.6631 0 0 0-0.02418-0.28171l0.45889-0.31833-0.52917-0.91657-0.50535 0.23812a1.6631 1.6631 0 0 0-0.48736-0.2794l-0.04657-0.5588h-1.0583zm0.52917 1.5119a0.60478 0.60478 0 0 1 0.60484 0.60484 0.60478 0.60478 0 0 1-0.60484 0.60484 0.60478 0.60478 0 0 1-0.60484-0.60484 0.60478 0.60478 0 0 1 0.60473-0.60473z" fill="#fff"/>
 </g>
</svg>
