<?xml version="1.0" encoding="UTF-8"?>
<svg width="64" height="64" version="1.1" viewBox="0 0 16.933 16.933" xmlns="http://www.w3.org/2000/svg" xmlns:cc="http://creativecommons.org/ns#" xmlns:dc="http://purl.org/dc/elements/1.1/" xmlns:rdf="http://www.w3.org/1999/02/22-rdf-syntax-ns#" xmlns:xlink="http://www.w3.org/1999/xlink">
 <defs>
  <linearGradient id="linearGradient3490" x1="19.843" x2="33.837" y1="-82.284" y2="-72.245" gradientTransform="matrix(.83332 0 0 .83332 -14.904 74.081)" gradientUnits="userSpaceOnUse">
   <stop stop-color="#0c35f9" offset="0"/>
   <stop stop-color="#2acbd7" offset="1"/>
  </linearGradient>
  <linearGradient id="linearGradient984-9" x1="19.843" x2="33.837" y1="-82.284" y2="-72.245" gradientTransform="matrix(.83334 0 0 .83334 -12.211 69.548)" gradientUnits="userSpaceOnUse" xlink:href="#linearGradient3490"/>
  <filter id="filter994-1" x="-.0318" y="-.041478" width="1.0636" height="1.083" color-interpolation-filters="sRGB">
   <feGaussianBlur stdDeviation="0.17528405"/>
  </filter>
  <linearGradient id="linearGradient986-2" x1="19.843" x2="33.837" y1="-82.284" y2="-72.245" gradientTransform="matrix(.83334 0 0 .83334 -13.827 71.924)" gradientUnits="userSpaceOnUse" xlink:href="#linearGradient3490"/>
  <filter id="filter1428" x="-.030235" y="-.04448" width="1.0605" height="1.089" color-interpolation-filters="sRGB">
   <feGaussianBlur stdDeviation="0.12021149"/>
  </filter>
  <linearGradient id="linearGradient1456-7" x1="134.9" x2="875.38" y1="874.55" y2="133.73" gradientTransform="matrix(.0085716 0 0 .0085716 2.3876 3.0909)" gradientUnits="userSpaceOnUse" xlink:href="#linearGradient1001"/>
  <linearGradient id="linearGradient1001" x1="16.821" x2="18.42" y1="-18.285" y2="-18.285" gradientTransform="translate(-4.9974)" gradientUnits="userSpaceOnUse">
   <stop stop-color="#b2b5b0" offset="0"/>
   <stop stop-color="#9d9a9c" offset="1"/>
  </linearGradient>
  <linearGradient id="linearGradient1391" x1="4.3072" x2="10.24" y1="9.0524" y2="9.0524" gradientTransform="matrix(-.83335 0 0 .83335 16.64 -.93765)" gradientUnits="userSpaceOnUse">
   <stop stop-color="#232220" offset="0"/>
   <stop stop-color="#4c4b4b" offset="1"/>
  </linearGradient>
  <linearGradient id="linearGradient1440" x1="8.2453" x2="8.8287" y1="10.045" y2="10.045" gradientTransform="matrix(1 0 0 1 -.24572 -1.1432)" gradientUnits="userSpaceOnUse" xlink:href="#linearGradient1001"/>
 </defs>
 <metadata>
  <rdf:RDF>
   <cc:Work rdf:about="">
    <dc:format>image/svg+xml</dc:format>
    <dc:type rdf:resource="http://purl.org/dc/dcmitype/StillImage"/>
    <dc:title/>
   </cc:Work>
  </rdf:RDF>
 </metadata>
 <g transform="translate(.24568 1.1434)">
  <rect transform="rotate(15)" x="3.2216" y="-.12509" width="13.229" height="10.142" ry=".66144" fill="url(#linearGradient984-9)" stroke-width=".83334"/>
  <rect transform="matrix(1 0 0 1 -.24572 -1.1432)" x="1.852" y="3.3954" width="13.229" height="10.142" ry=".66143" filter="url(#filter994-1)" opacity=".3" stroke-width=".83332"/>
  <rect x="1.6063" y="2.2522" width="13.229" height="10.142" ry=".66144" fill="url(#linearGradient986-2)" stroke-width=".83334"/>
  <g fill="#eaeaea">
   <rect x="1.6063" y="3.5158" width="13.229" height=".13184" ry="0"/>
   <rect x="1.6063" y="10.999" width="13.229" height=".13184" ry="0"/>
   <rect transform="rotate(-90)" x="-12.395" y="2.9926" width="10.143" height=".13184" ry="0" stroke-width=".87562"/>
   <rect transform="rotate(-90)" x="-12.395" y="13.318" width="10.143" height=".13184" ry="0" stroke-width=".87562"/>
  </g>
  <path transform="matrix(.0087893 0 0 .0087893 2.238 2.9824)" d="M 130.72,736.4 739.5,127.63 879.57,267.7 270.8,876.47 Z" filter="url(#filter1428)" opacity=".3" stroke-width="1.0181" p-id="24015"/>
  <path transform="matrix(.0087893 0 0 .0087893 2.238 2.9824)" d="m144.14 724.34 583.31-583.31 119.48 119.47-583.32 583.32z" filter="url(#filter1428)" opacity=".3" p-id="24017"/>
  <path transform="matrix(.0087893 0 0 .0087893 2.238 2.9824)" d="m645.15 221.59 94.413 94.413a10.24 10.24 0 0 1 0 14.029 10.24 10.24 0 0 1-14.131 0l-94.31-94.515zm-118.58 118.68 94.31 94.31a10.24 10.24 0 0 1-14.131 14.131l-94.31-94.31zm-120.73 120.52 65.434 65.331a10.24 10.24 0 0 1 0 14.029 10.24 10.24 0 0 1-14.131 0l-65.331-65.331zm90.931 90.931a10.24 10.24 0 0 1-14.029 14.029 10.24 10.24 0 0 1 14.029-14.029zm-207.56 25.907 94.31 94.31a10.24 10.24 0 1 1-13.517 14.131l-94.31-94.31zm296.96-296.96 43.622 43.622a10.24 10.24 0 0 1-14.029 14.336l-43.622-43.622zm-118.99 118.68 43.725 43.622a10.24 10.24 0 0 1-14.131 14.029l-43.622-43.315zm-118.68 118.89 43.725 43.725a10.24 10.24 0 0 1 0 14.029 10.24 10.24 0 0 1-14.131 0l-43.622-43.52zm-118.58 118.68 43.622 43.622a10.24 10.24 0 1 1-14.131 14.131l-43.622-43.622z" filter="url(#filter1428)" opacity=".3" p-id="24019"/>
  <path transform="matrix(1.0254 0 0 1.0254 1.0985 -1.3592)" d="m11.612 5.4224c-0.21614-0.21606-0.56656-0.21606-0.78276 0l-3.9987 4.3392 0.4765 0.47643 4.3051-4.0327c0.21606-0.21627 0.21606-0.56677-6.9e-5 -0.7829z" filter="url(#filter1428)" opacity=".3" stroke-width=".00653" p-id="34455"/>
  <path transform="matrix(1.0254 0 0 1.0254 1.0985 -1.3592)" d="m5.1593 11.526c0.31393 0.31386 0.82832 0.02577 0.82832 0.02577 0.45867-0.20374 0.8217-0.74271 1.1021-1.2233l-0.36645-0.36651z" filter="url(#filter1428)" opacity=".3" stroke-width=".00653" p-id="34456"/>
  <path d="m3.5081 9.403 5.2182-5.2181 1.2006 1.2006-5.2181 5.2181z" fill="url(#linearGradient1456-7)" stroke-width=".0087267" p-id="24015"/>
  <path d="m3.6231 9.2996 4.9999-4.9999 1.0241 1.024-5 5z" fill="#f0f0f0" stroke-width=".0085716" p-id="24017"/>
  <path d="m7.9176 4.9902 0.80927 0.80927a0.087773 0.087773 0 0 1 0 0.12025 0.087773 0.087773 0 0 1-0.12112 0l-0.80838-0.81014zm-1.0164 1.0173 0.80838 0.80838a0.087773 0.087773 0 0 1-0.12112 0.12112l-0.80838-0.80838zm-1.0348 1.033 0.56087 0.55999a0.087773 0.087773 0 0 1 0 0.12025 0.087773 0.087773 0 0 1-0.12112 0l-0.55999-0.55999zm0.77942 0.77942a0.087773 0.087773 0 0 1-0.12025 0.12025 0.087773 0.087773 0 0 1 0.12025-0.12025zm-1.7791 0.22206 0.80838 0.80838a0.087773 0.087773 0 1 1-0.11586 0.12112l-0.80838-0.80838zm2.5454-2.5454 0.37391 0.37391a0.087773 0.087773 0 0 1-0.12025 0.12288l-0.37391-0.37391zm-1.0199 1.0173 0.37479 0.37391a0.087773 0.087773 0 0 1-0.12112 0.12025l-0.37391-0.37128zm-1.0173 1.0191 0.37479 0.37479a0.087773 0.087773 0 0 1 0 0.12025 0.087773 0.087773 0 0 1-0.12112 0l-0.37391-0.37303zm-1.0164 1.0173 0.37391 0.37391a0.087773 0.087773 0 1 1-0.12112 0.12112l-0.37391-0.37391z" fill="#323232" stroke-width=".0085716" p-id="24019"/>
  <path d="m12.889 4.2793c-0.21614-0.21606-0.56657-0.21606-0.78278 0l-3.9988 4.3393 0.47651 0.47644 4.3052-4.0328c0.21606-0.21627 0.21606-0.56678-6.9e-5 -0.78292z" fill="url(#linearGradient1391)" stroke-width=".0065301" p-id="34455"/>
  <path d="m6.4357 10.383c0.31394 0.31387 0.82834 0.02577 0.82834 0.02577 0.45868-0.20374 0.82172-0.74272 1.1021-1.2233l-0.36646-0.36652z" fill="#f0f0f0" stroke-width=".0065301" p-id="34456"/>
  <path d="m8.1066 8.6186-0.10685 0.2004 0.36646 0.36652 0.2169-0.090481z" fill="url(#linearGradient1440)"/>
 </g>
</svg>
