<?xml version="1.0" encoding="UTF-8" standalone="no"?>
<svg
   xmlns:dc="http://purl.org/dc/elements/1.1/"
   xmlns:cc="http://creativecommons.org/ns#"
   xmlns:rdf="http://www.w3.org/1999/02/22-rdf-syntax-ns#"
   xmlns:svg="http://www.w3.org/2000/svg"
   xmlns="http://www.w3.org/2000/svg"
   xmlns:xlink="http://www.w3.org/1999/xlink"
   xmlns:sodipodi="http://sodipodi.sourceforge.net/DTD/sodipodi-0.dtd"
   xmlns:inkscape="http://www.inkscape.org/namespaces/inkscape"
   width="64"
   height="64"
   version="1"
   id="svg20"
   sodipodi:docname="applications-development-translation.svg"
   inkscape:version="1.0.2 (e86c870879, 2021-01-15)">
  <metadata
     id="metadata26">
    <rdf:RDF>
      <cc:Work
         rdf:about="">
        <dc:format>image/svg+xml</dc:format>
        <dc:type
           rdf:resource="http://purl.org/dc/dcmitype/StillImage" />
        <dc:title></dc:title>
      </cc:Work>
    </rdf:RDF>
  </metadata>
  <defs
     id="defs24">
    <style
       type="text/css"
       id="style853" />
    <style
       type="text/css"
       id="style855" />
    <filter
       id="filter926"
       x="-.12"
       y="-.12"
       width="1.24"
       height="1.24"
       color-interpolation-filters="sRGB">
      <feGaussianBlur
         stdDeviation="1.0779662"
         id="feGaussianBlur857" />
    </filter>
    <linearGradient
       id="linearGradient947"
       x1="327.23"
       x2="694.26"
       y1="243.81"
       y2="644.29"
       gradientTransform="matrix(0.081878,0,0,0.081878,-10.969,-8.4803)"
       gradientUnits="userSpaceOnUse">
      <stop
         stop-color="#d63902"
         offset="0"
         id="stop860" />
      <stop
         stop-color="#b83b1a"
         offset="1"
         id="stop862" />
    </linearGradient>
    <linearGradient
       id="linearGradient972"
       x1="521.49"
       x2="521.49"
       y1="858.73"
       y2="631.85"
       gradientTransform="matrix(0.082753,0,0,0.082753,-11.428,-9.2332)"
       gradientUnits="userSpaceOnUse">
      <stop
         stop-color="#d24314"
         offset="0"
         id="stop865" />
      <stop
         stop-color="#e85512"
         offset="1"
         id="stop867" />
    </linearGradient>
    <filter
       id="filter876"
       x="-.073724"
       y="-.10139"
       width="1.1474"
       height="1.2028"
       color-interpolation-filters="sRGB">
      <feGaussianBlur
         stdDeviation="0.80426171"
         id="feGaussianBlur870" />
    </filter>
    <linearGradient
       id="linearGradient873"
       x1="-48.646"
       x2="-32.772"
       y1="-6.3007"
       y2="9.574"
       gradientTransform="matrix(3.4644143,0,0,3.4644143,173.0325,26.329413)"
       gradientUnits="userSpaceOnUse">
      <stop
         stop-color="#28afea"
         offset="0"
         id="stop4" />
      <stop
         stop-color="#838be4"
         offset="1"
         id="stop6" />
    </linearGradient>
    <linearGradient
       id="a-3">
      <stop
         stop-color="#c52828"
         offset="0"
         id="stop957" />
      <stop
         stop-color="#ff5454"
         offset="1"
         id="stop959" />
    </linearGradient>
    <linearGradient
       id="linearGradient951"
       x1="220.51"
       x2="217.88"
       y1="314.42"
       y2="-128.4"
       gradientUnits="userSpaceOnUse"
       xlink:href="#a-3" />
    <linearGradient
       id="a-6"
       x1="99.036"
       x2="99.036"
       y1="11.64"
       y2="199.84"
       gradientTransform="matrix(0.3,0,0,0.3,2,1.9995)"
       gradientUnits="userSpaceOnUse">
      <stop
         stop-color="#ff4b00"
         offset="0"
         id="stop963" />
      <stop
         stop-color="#f50f2d"
         offset="1"
         id="stop965" />
    </linearGradient>
  </defs>
  <sodipodi:namedview
     pagecolor="#ffffff"
     bordercolor="#666666"
     borderopacity="1"
     objecttolerance="10"
     gridtolerance="10"
     guidetolerance="10"
     inkscape:pageopacity="0"
     inkscape:pageshadow="2"
     inkscape:window-width="1920"
     inkscape:window-height="936"
     id="namedview22"
     showgrid="false"
     inkscape:zoom="6.0546875"
     inkscape:cx="48.861892"
     inkscape:cy="40.229292"
     inkscape:window-x="0"
     inkscape:window-y="38"
     inkscape:window-maximized="1"
     inkscape:current-layer="svg20" />
  <rect
     x="4.5012112"
     y="4.5012112"
     width="54.997578"
     height="54.997578"
     ry="2.7498097"
     fill="url(#linearGradient873)"
     id="rect24"
     style="fill:url(#linearGradient873);stroke-width:3.46441" />
  <path
     style="opacity:0.3"
     d="m 15.1432,34.762 c 0.8254,0.57146 1.5873,1.26986 2.2858,2.0952 l -1.238,1.522 c -0.7628,-0.952 -1.5566,-1.746 -2.382,-2.38 l 1.3334,-1.238 m 0,6 c 0.7619,0.57146 1.49204,1.20636 2.1904,1.90476 L 16.09472,44.285 c -0.6986,-0.89 -1.4606,-1.652 -2.286,-2.286 l 1.3334,-1.238 m 0.38096,6.5714 1.52382,1.04764 c -0.762,2.602 -1.8728,5.11 -3.3332,7.522 l -1.619,-1.238 c 1.46032,-2.3492 2.6032,-4.7936 3.4286,-7.3334 m 4.4756,-13.332 1.80952,0.38094 c -0.127,0.63496 -0.31746,1.23812 -0.57142,1.80954 l 7.4286,0 0,1.71426 -8.1904,0 -0.85714,1.42858 C 19.36408,39.8399 18.95138,40.3796 18.37998,40.951 l -1.142,-1.334 c 1.20636,-1.4603 2.127,-3.3334 2.762,-5.619 m -0.47618,5.9048 8.762,0 c -4e-5,1.96826 -0.0318,3.8096 -0.0954,5.5238 l 1.23808,0 0,1.7143 -1.33332,0 c -0.127,1.33334 -0.22224,2.635 -0.2857,3.9048 l 1.42856,0 0,1.61906 -1.61904,0 c -0.254,2.222 -1.144,3.334 -2.668,3.334 -0.38096,0 -0.92064,-0.0636 -1.61904,-0.1904 l -0.28572,-1.61904 c 0.82538,0.1268 1.46032,0.1904 1.90476,0.1904 0.44444,0 0.73014,-0.57144 0.85716,-1.7143 l -7.4286,0 c 0.25396,-1.7143 0.47618,-3.5556 0.66666,-5.5238 l -1.33332,0 0,-1.7143 1.5238,0 c 0.127,-1.77778 0.22222,-3.619 0.28572,-5.5238 m 1.42856,5.5238 5.4286,0 c 0.0636,-1.33332 0.0954,-2.6348 0.0954,-3.9048 l -5.238,0 c -0.0636,1.39684 -0.1588,2.6984 -0.28572,3.9048 m 2.384,-3.428 c 0.6984,0.44444 1.33334,0.95238 1.90478,1.5238 l -1.14286,1.42856 c -0.568,-0.634 -1.202,-1.206 -1.9,-1.714 l 1.142,-1.238 m 2.6666,9.0476 c 0.127,-1.33332 0.2222,-2.635 0.28572,-3.9048 l -5.4286,0 c -0.127,1.3968 -0.28572,2.6984 -0.47618,3.9048 l 5.619,0 m -2.9524,-3.4286 c 0.76188,0.44444 1.4603,0.95238 2.0952,1.5238 l -1.2381,1.42858 c -0.63492,-0.69842 -1.3016,-1.30158 -2,-1.80952 l 1.14286,-1.14286 m -10,-11.3334 0,14.9524 -1.71428,0 0,-1.61904 -1.61904,0 0,2.4762 -1.71428,0 0,-15.8096 5.0476,0 m -3.3334,11.7142 1.61904,0 0,-10.0952 -1.61904,0 0,10.0952"
     id="path10" />
  <path
     style="fill:#ffffff"
     d="m 43.422,19.390184 0.53988,-2.0246 c 0.60736,-2.1932 1.18098,-4.7576 1.72086,-7.086 h 0.135 c 0.57362,2.2944 1.18098,4.8926 1.78836,7.086 l 0.50612,2.0246 h -4.6902 m 7.056,9.11 h 5.264 l -6.884,-22 h -5.972 l -6.884,22 h 5.0614 l 1.3497,-5.23 h 6.7148 l 1.35,5.23"
     id="path14" />
  <circle
     style="fill:#f71a24;fill-opacity:1"
     cx="47.534531"
     cy="47.595078"
     r="16"
     id="circle16" />
  <path
     style="fill:#ffffff"
     d="m 45.534532,39.595078 -0.1764,2.1072 a 6.2858,6.2858 0 0 0 -1.83704,1.06252 l -1.91518,-0.9018 -2,3.4642 1.73882,1.2076 a 6.2858,6.2858 0 0 0 -0.096,1.06026 6.2858,6.2858 0 0 0 0.0914,1.06474 l -1.73438,1.20312 2,3.4642 1.91072,-0.89956 a 6.2858,6.2858 0 0 0 1.8415,1.0558 l 0.1764,2.1116 h 4 l 0.1764,-2.1072 a 6.2858,6.2858 0 0 0 1.83708,-1.06252 l 1.91516,0.9018 2,-3.4642 -1.73884,-1.2076 a 6.2858,6.2858 0 0 0 0.096,-1.06026 6.2858,6.2858 0 0 0 -0.0914,-1.06474 l 1.73438,-1.20312 -2,-3.4642 -1.91,0.9 a 6.2858,6.2858 0 0 0 -1.842,-1.056 l -0.176,-2.112 h -4 z m 2,5.7144 a 2.2858,2.2858 0 0 1 2.286,2.286 2.2858,2.2858 0 0 1 -2.286,2.286 2.2858,2.2858 0 0 1 -2.286,-2.286 2.2858,2.2858 0 0 1 2.2856,-2.2856 z"
     id="path18" />
  <g
     transform="matrix(3.7796,0,0,3.7796,-210.36884,-27.199)"
     fill="#5e4aa6"
     stroke-width="0.26458"
     id="g22">
    <circle
       cx="-330.35001"
       cy="-328.38"
       r="0"
       id="circle14" />
    <circle
       cx="-312.10999"
       cy="-326.25"
       r="0"
       id="circle16-3" />
    <circle
       cx="-306.01999"
       cy="-333.07001"
       r="0"
       id="circle18" />
    <circle
       cx="-308.84"
       cy="-326.01001"
       r="0"
       id="circle20" />
  </g>
  <style
     type="text/css"
     id="style970">.st0{opacity:0.15;fill:#45413C;}
	.st1{fill:#FFE500;}
	.st2{fill:#EBCB00;}
	.st3{fill:none;stroke:#45413C;stroke-linecap:round;stroke-linejoin:round;stroke-miterlimit:10;}
	.st4{fill:#FFAA54;}
	.st5{fill:#FF8A14;}
	.st6{fill:#FFB0CA;stroke:#45413C;stroke-linecap:round;stroke-linejoin:round;stroke-miterlimit:10;}
	.st7{fill:#FF87AF;stroke:#45413C;stroke-linecap:round;stroke-linejoin:round;stroke-miterlimit:10;}
	.st8{fill:#FFCC99;}
	.st9{fill:#FFFFFF;}
	.st10{fill:#F0F0F0;}
	.st11{fill:#BF8256;}
	.st12{fill:#915E3A;}
	.st13{fill:#DEA47A;}
	.st14{fill:#F0D5A8;}
	.st15{fill:#DEBB7E;}
	.st16{fill:#F7E5C6;}
	.st17{fill:#FF8A14;stroke:#45413C;stroke-linecap:round;stroke-linejoin:round;stroke-miterlimit:10;}
	.st18{fill:#FFF5E3;}
	.st19{fill:#FFF48C;}
	.st20{fill:#FFFACF;}
	.st21{fill:#FFFCE5;}
	.st22{fill:#FF87AF;}
	.st23{fill:#FFB0CA;}
	.st24{fill:#FFE500;stroke:#45413C;stroke-linecap:round;stroke-linejoin:round;stroke-miterlimit:10;}
	.st25{fill:#9CEB60;stroke:#45413C;stroke-linecap:round;stroke-linejoin:round;stroke-miterlimit:10;}
	.st26{fill:#FFFACF;stroke:#45413C;stroke-linecap:round;stroke-linejoin:round;stroke-miterlimit:10;}
	.st27{fill:#00F5BC;stroke:#45413C;stroke-linecap:round;stroke-linejoin:round;stroke-miterlimit:10;}
	.st28{fill:#BF8256;stroke:#45413C;stroke-linecap:round;stroke-linejoin:round;stroke-miterlimit:10;}
	.st29{fill:#FFE3CF;stroke:#45413C;stroke-linecap:round;stroke-linejoin:round;stroke-miterlimit:10;}
	.st30{fill:#FF6242;}
	.st31{fill:#FF866E;}
	.st32{fill:none;stroke:#E04122;stroke-linecap:round;stroke-linejoin:round;stroke-miterlimit:10;}
	.st33{fill:#FFFEF2;stroke:#45413C;stroke-linecap:round;stroke-linejoin:round;stroke-miterlimit:10;}
	.st34{fill:#FF6242;stroke:#45413C;stroke-linecap:round;stroke-linejoin:round;stroke-miterlimit:10;}
	.st35{fill:#FFA694;}
	.st36{fill:#FFFFFF;stroke:#45413C;stroke-linecap:round;stroke-linejoin:round;stroke-miterlimit:10;}
	.st37{fill:#FFFEF2;}
	.st38{fill:#FF6196;}
	.st39{fill:#B89558;}
	.st40{fill:none;stroke:#915E3A;stroke-linecap:round;stroke-linejoin:round;stroke-miterlimit:10;}
	.st41{fill:#DEBB7E;stroke:#45413C;stroke-linecap:round;stroke-linejoin:round;stroke-miterlimit:10;}
	.st42{fill:#6DD627;stroke:#45413C;stroke-linecap:round;stroke-linejoin:round;stroke-miterlimit:10;}
	.st43{fill:#E5F8FF;}
	.st44{fill:#E8F4FA;}
	.st45{fill:#E8F4FA;stroke:#45413C;stroke-linecap:round;stroke-linejoin:round;stroke-miterlimit:10;}
	.st46{fill:#FFCCDD;}
	.st47{fill:#E5F8FF;stroke:#45413C;stroke-linecap:round;stroke-linejoin:round;stroke-miterlimit:10;}
	.st48{fill:#00B8F0;stroke:#45413C;stroke-linecap:round;stroke-linejoin:round;stroke-miterlimit:10;}
	.st49{fill:#00B8F0;}
	.st50{fill:#4ACFFF;}
	.st51{fill:#E04122;}
	.st52{fill:#E04122;stroke:#45413C;stroke-linecap:round;stroke-linejoin:round;stroke-miterlimit:10;}
	.st53{fill:#87898C;}
	.st54{fill:#BDBEC0;}
	.st55{fill:#656769;}
	.st56{fill:#525252;}
	.st57{fill:#FFF48C;stroke:#45413C;stroke-linecap:round;stroke-linejoin:round;stroke-miterlimit:10;}
	.st58{fill:#6DD627;}
	.st59{fill:#EB6D00;}
	.st60{fill:#46B000;}
	.st61{fill:#80DDFF;}
	.st62{fill:#DAEDF7;}
	.st63{fill:#BF8DF2;stroke:#45413C;stroke-linecap:round;stroke-linejoin:round;stroke-miterlimit:10;}
	.st64{fill:#9F5AE5;stroke:#45413C;stroke-linecap:round;stroke-linejoin:round;stroke-miterlimit:10;}
	.st65{fill:#C8FFA1;}
	.st66{fill:#E4FFD1;}
	.st67{fill:#9CEB60;}
	.st68{fill:#E5FEFF;}
	.st69{fill:#B8ECFF;}
	.st70{fill:#E0E0E0;stroke:#45413C;stroke-linecap:round;stroke-linejoin:round;stroke-miterlimit:10;}
	.st71{fill:#E0E0E0;}
	.st72{fill:none;stroke:#4F4B45;stroke-linejoin:round;stroke-miterlimit:10;}
	.st73{fill:none;stroke:#4F4B45;stroke-linecap:round;stroke-linejoin:round;stroke-miterlimit:10;}
	.st74{fill:#E0366F;stroke:#45413C;stroke-linecap:round;stroke-linejoin:round;stroke-miterlimit:10;}
	.st75{fill:none;stroke:#45413C;stroke-miterlimit:10;}
	.st76{fill:#FF866E;stroke:#45413C;stroke-linecap:round;stroke-linejoin:round;stroke-miterlimit:10;}
	.st77{fill:#45413C;stroke:#45413C;stroke-linecap:round;stroke-linejoin:round;stroke-miterlimit:10;}
	.st78{fill:#9F5AE5;}
	.st79{fill:#803EC2;}
	.st80{fill:#803EC2;stroke:#45413C;stroke-linecap:round;stroke-linejoin:round;stroke-miterlimit:10;}
	.st81{fill:#BF8DF2;}
	.st82{fill:#FFAA54;stroke:#45413C;stroke-linecap:round;stroke-linejoin:round;stroke-miterlimit:10;}
	.st83{fill:none;stroke:#45413C;stroke-linejoin:round;stroke-miterlimit:10;}
	.st84{fill:#FFCCDD;stroke:#45413C;stroke-linecap:round;stroke-linejoin:round;stroke-miterlimit:10;}
	.st85{fill:#FF6196;stroke:#45413C;stroke-linecap:round;stroke-linejoin:round;stroke-miterlimit:10;}
	.st86{fill:#FFE5EE;}
	.st87{fill:#F7E5C6;stroke:#45413C;stroke-linecap:round;stroke-linejoin:round;stroke-miterlimit:10;}
	.st88{fill:#E5FFF9;}
	.st89{fill:none;stroke:#45413C;stroke-width:1.0064;stroke-linecap:round;stroke-linejoin:round;stroke-miterlimit:10;}
	.st90{fill:#4AEFF7;}
	.st91{fill:#A6FBFF;}
	.st92{fill:#E5FEFF;stroke:#45413C;stroke-linecap:round;stroke-linejoin:round;stroke-miterlimit:10;}
	.st93{fill:#46B000;stroke:#45413C;stroke-linecap:round;stroke-linejoin:round;stroke-miterlimit:10;}
	.st94{fill:#FFFFFF;stroke:#45413C;stroke-linejoin:round;stroke-miterlimit:10;}
	.st95{fill:#FFFFFF;stroke:#45413C;stroke-miterlimit:10;}
	.st96{fill:#009FD9;}
	.st97{fill:#00DFEB;}
	.st98{fill:#C0DCEB;stroke:#45413C;stroke-linecap:round;stroke-linejoin:round;stroke-miterlimit:10;}
	.st99{fill:#00DFEB;stroke:#45413C;stroke-linecap:round;stroke-linejoin:round;stroke-miterlimit:10;}
	.st100{fill:#FFE5EE;stroke:#45413C;stroke-linecap:round;stroke-linejoin:round;stroke-miterlimit:10;}
	.st101{fill:#8CA4B8;}
	.st102{fill:#ADC4D9;}
	.st103{fill:#656769;stroke:#45413C;stroke-linecap:round;stroke-linejoin:round;stroke-miterlimit:10;}
	.st104{fill:#F0F0F0;stroke:#45413C;stroke-linecap:round;stroke-linejoin:round;stroke-miterlimit:10;}
	.st105{fill:#C0DCEB;}
	.st106{fill:#45413C;}
	.st107{fill:#FFCABF;}
	.st108{fill:#87898C;stroke:#45413C;stroke-linecap:round;stroke-linejoin:round;stroke-miterlimit:10;}
	.st109{fill:#EBCB00;stroke:#45413C;stroke-linecap:round;stroke-linejoin:round;stroke-miterlimit:10;}</style>
</svg>
