<?xml version="1.0" encoding="UTF-8" standalone="no"?>
<svg
   xmlns:dc="http://purl.org/dc/elements/1.1/"
   xmlns:cc="http://creativecommons.org/ns#"
   xmlns:rdf="http://www.w3.org/1999/02/22-rdf-syntax-ns#"
   xmlns:svg="http://www.w3.org/2000/svg"
   xmlns="http://www.w3.org/2000/svg"
   xmlns:xlink="http://www.w3.org/1999/xlink"
   xmlns:sodipodi="http://sodipodi.sourceforge.net/DTD/sodipodi-0.dtd"
   xmlns:inkscape="http://www.inkscape.org/namespaces/inkscape"
   width="64"
   height="64"
   version="1"
   id="svg18"
   sodipodi:docname="applications-development-web.svg"
   inkscape:version="1.0.2 (e86c870879, 2021-01-15)">
  <metadata
     id="metadata24">
    <rdf:RDF>
      <cc:Work
         rdf:about="">
        <dc:format>image/svg+xml</dc:format>
        <dc:type
           rdf:resource="http://purl.org/dc/dcmitype/StillImage" />
        <dc:title></dc:title>
      </cc:Work>
    </rdf:RDF>
  </metadata>
  <defs
     id="defs22">
    <style
       type="text/css"
       id="style853" />
    <style
       type="text/css"
       id="style855" />
    <filter
       id="filter926"
       x="-.12"
       y="-.12"
       width="1.24"
       height="1.24"
       color-interpolation-filters="sRGB">
      <feGaussianBlur
         stdDeviation="1.0779662"
         id="feGaussianBlur857" />
    </filter>
    <linearGradient
       id="linearGradient947"
       x1="327.23"
       x2="694.26"
       y1="243.81"
       y2="644.29"
       gradientTransform="matrix(0.081878,0,0,0.081878,-10.969,-8.4803)"
       gradientUnits="userSpaceOnUse">
      <stop
         stop-color="#d63902"
         offset="0"
         id="stop860" />
      <stop
         stop-color="#b83b1a"
         offset="1"
         id="stop862" />
    </linearGradient>
    <linearGradient
       id="linearGradient972"
       x1="521.49"
       x2="521.49"
       y1="858.73"
       y2="631.85"
       gradientTransform="matrix(0.082753,0,0,0.082753,-11.428,-9.2332)"
       gradientUnits="userSpaceOnUse">
      <stop
         stop-color="#d24314"
         offset="0"
         id="stop865" />
      <stop
         stop-color="#e85512"
         offset="1"
         id="stop867" />
    </linearGradient>
    <filter
       id="filter876"
       x="-.073724"
       y="-.10139"
       width="1.1474"
       height="1.2028"
       color-interpolation-filters="sRGB">
      <feGaussianBlur
         stdDeviation="0.80426171"
         id="feGaussianBlur870" />
    </filter>
    <linearGradient
       id="linearGradient873"
       x1="-48.646"
       x2="-32.772"
       y1="-6.3007"
       y2="9.574"
       gradientTransform="matrix(3.4644143,0,0,3.4644143,172.2251,25.720654)"
       gradientUnits="userSpaceOnUse">
      <stop
         stop-color="#28afea"
         offset="0"
         id="stop4" />
      <stop
         stop-color="#838be4"
         offset="1"
         id="stop6" />
    </linearGradient>
    <linearGradient
       id="a-3">
      <stop
         stop-color="#c52828"
         offset="0"
         id="stop957" />
      <stop
         stop-color="#ff5454"
         offset="1"
         id="stop959" />
    </linearGradient>
    <linearGradient
       id="linearGradient951"
       x1="220.51"
       x2="217.88"
       y1="314.42"
       y2="-128.4"
       gradientUnits="userSpaceOnUse"
       xlink:href="#a-3" />
    <linearGradient
       id="a-6"
       x1="99.036"
       x2="99.036"
       y1="11.64"
       y2="199.84"
       gradientTransform="matrix(0.3,0,0,0.3,2,1.9995)"
       gradientUnits="userSpaceOnUse">
      <stop
         stop-color="#ff4b00"
         offset="0"
         id="stop963" />
      <stop
         stop-color="#f50f2d"
         offset="1"
         id="stop965" />
    </linearGradient>
    <filter
       id="filter917"
       x="-.083994"
       y="-.084006"
       width="1.168"
       height="1.168"
       color-interpolation-filters="sRGB">
      <feGaussianBlur
         stdDeviation="0.22223482"
         id="feGaussianBlur933" />
    </filter>
    <linearGradient
       id="linearGradient1005"
       x1=".73911"
       x2="16.388"
       y1="16.296"
       y2=".64687"
       gradientTransform="matrix(3.7794886,0,0,3.7794886,-0.13423289,0.02523909)"
       gradientUnits="userSpaceOnUse">
      <stop
         stop-color="#00a0ff"
         offset="0"
         id="stop936" />
      <stop
         stop-color="#37beff"
         offset="1"
         id="stop938" />
    </linearGradient>
  </defs>
  <sodipodi:namedview
     pagecolor="#ffffff"
     bordercolor="#666666"
     borderopacity="1"
     objecttolerance="10"
     gridtolerance="10"
     guidetolerance="10"
     inkscape:pageopacity="0"
     inkscape:pageshadow="2"
     inkscape:window-width="1920"
     inkscape:window-height="936"
     id="namedview20"
     showgrid="false"
     inkscape:zoom="6.0546875"
     inkscape:cx="73.921406"
     inkscape:cy="30.865503"
     inkscape:window-x="0"
     inkscape:window-y="38"
     inkscape:window-maximized="1"
     inkscape:current-layer="svg18" />
  <path
     d="m 61.999174,31.999698 c 0,3.596367 -0.633046,7.044422 -1.793913,10.240453 -0.806945,2.221159 -1.868522,4.321219 -3.15181,6.263557 -0.537535,0.816696 -1.115474,1.605348 -1.728979,2.363271 -1.964032,2.425673 -4.298163,4.537791 -6.918184,6.252218 -0.964894,0.631836 -1.967774,1.209813 -3.006068,1.727694 -4.03208,2.017854 -8.583476,3.152906 -13.400579,3.152906 -4.817103,0 -9.3685,-1.135052 -13.400579,-3.152982 -1.03837,-0.517994 -2.042459,-1.095933 -3.007354,-1.727693 C 12.938239,55.381563 10.576176,53.235958 8.5964209,50.770146 7.9817821,50.006062 7.404977,49.210153 6.867442,48.386124 5.6184347,46.475989 4.5838065,44.414896 3.7928492,42.236712 2.6321334,39.041965 2.0002217,35.595195 2.0002217,32.000038 c 0,-16.568641 13.4311933,-29.9998352 29.9998353,-29.9998352 8.317014,0 15.842579,3.3844447 21.276891,8.8503162 1.56604,1.574582 2.95837,3.323291 4.1432,5.213583 1.120425,1.780419 2.057086,3.688098 2.785642,5.695104 1.161018,3.195918 1.793988,6.644163 1.793988,10.240454 z"
     fill="url(#linearGradient1005)"
     stroke-width="0.11719"
     id="path943"
     style="fill:url(#linearGradient1005)" />
  <g
     transform="matrix(3.779602,0,0,3.779602,-155.21833,-24.531809)"
     fill="#5e4aa6"
     stroke-width="0.26458"
     id="g957">
    <circle
       cx="-330.35001"
       cy="-328.38"
       r="0"
       id="circle949" />
    <circle
       cx="-312.10999"
       cy="-326.25"
       r="0"
       id="circle951" />
    <circle
       cx="-306.01999"
       cy="-333.07001"
       r="0"
       id="circle953" />
    <circle
       cx="-308.84"
       cy="-326.01001"
       r="0"
       id="circle955" />
  </g>
  <path
     style="fill:#ffffff"
     d="m 31.999995,12.000564 c -11.0454,0 -19.99943,8.954033 -19.99943,19.999436 0,11.045403 8.95403,19.999436 19.99943,19.999436 11.04541,0 19.99944,-8.954033 19.99944,-19.999436 0,-11.045403 -8.95403,-19.999436 -19.99944,-19.999436 z m -1.87104,3.988169 c 0.21761,-0.02278 0.49136,0.013 0.71092,0 0.026,0.104077 -0.15415,0.477495 -0.40233,1.019501 -1.58039,3.452479 -1.67375,7.494845 -0.20703,9.655978 0.26543,0.391827 0.5078,0.764019 0.5078,0.812478 0,0.04848 -0.28571,0.101557 -0.60936,0.101557 -0.75978,2e-6 -1.48008,-0.461669 -2.94913,-1.624954 -0.65261,-0.516766 -1.49938,-0.949898 -1.82808,-1.015596 -0.51614,-0.103117 -0.65255,-0.05844 -1.32027,0.609359 -0.62125,0.62115 -0.81248,0.958653 -0.81248,1.527299 0,2.156385 2.56158,3.866181 7.32011,4.874862 6.46226,1.369638 8.05198,2.597833 8.23024,5.995925 0.2238,4.261114 -2.04261,7.473272 -7.01153,9.960657 -0.59307,0.296976 -0.96988,0.415747 -1.21871,0.511704 -0.11028,-0.0098 -0.19866,0.0098 -0.30859,0 -0.0423,-0.131736 -0.10155,-0.436476 -0.10155,-1.015595 0,-2.263207 -0.89012,-4.595543 -2.23432,-5.898272 -0.36082,-0.349736 -1.36914,-1.089387 -2.23431,-1.624954 -0.86514,-0.535535 -1.73902,-1.15641 -1.93354,-1.421834 -0.32227,-0.440456 -0.34532,-0.709716 -0.0977,-1.523395 0.45135,-1.486086 0.9868,-2.318743 2.03119,-3.25772 0.54754,-0.492268 1.09742,-0.900333 1.21872,-0.910133 0.12134,-0.0098 -0.69814,-0.259778 -1.92963,-0.511703 -1.23143,-0.252413 -3.03728,-0.780072 -3.96864,-1.117157 -1.70308,-0.616232 -4.00215,-1.9113 -4.87877,-2.847573 -0.0371,-0.0397 -0.0694,-0.06642 -0.10156,-0.101557 1.25599,-5.003071 4.78027,-9.10176 9.45286,-11.077812 0.97768,-0.413525 1.98678,-0.696427 3.0507,-0.914039 0.52994,-0.108317 1.07777,-0.151395 1.62495,-0.207026 z m 15.24957,7.624786 c 0.38204,0.236149 1.82645,3.360381 2.23822,4.882674 0.53163,1.965286 0.49315,5.363893 0,7.316199 -0.18769,0.74306 -0.43169,1.436878 -0.5117,1.523396 -0.08,0.08652 -0.37347,-0.406777 -0.71483,-1.011692 -0.34137,-0.604821 -1.42578,-1.891427 -2.33196,-2.847576 -2.61568,-2.760066 -3.0292,-4.199393 -1.93354,-6.402163 0.55255,-1.110785 2.95814,-3.643313 3.25381,-3.460838 z"
     id="path8" />
  <style
     type="text/css"
     id="style970">.st0{opacity:0.15;fill:#45413C;}
	.st1{fill:#FFE500;}
	.st2{fill:#EBCB00;}
	.st3{fill:none;stroke:#45413C;stroke-linecap:round;stroke-linejoin:round;stroke-miterlimit:10;}
	.st4{fill:#FFAA54;}
	.st5{fill:#FF8A14;}
	.st6{fill:#FFB0CA;stroke:#45413C;stroke-linecap:round;stroke-linejoin:round;stroke-miterlimit:10;}
	.st7{fill:#FF87AF;stroke:#45413C;stroke-linecap:round;stroke-linejoin:round;stroke-miterlimit:10;}
	.st8{fill:#FFCC99;}
	.st9{fill:#FFFFFF;}
	.st10{fill:#F0F0F0;}
	.st11{fill:#BF8256;}
	.st12{fill:#915E3A;}
	.st13{fill:#DEA47A;}
	.st14{fill:#F0D5A8;}
	.st15{fill:#DEBB7E;}
	.st16{fill:#F7E5C6;}
	.st17{fill:#FF8A14;stroke:#45413C;stroke-linecap:round;stroke-linejoin:round;stroke-miterlimit:10;}
	.st18{fill:#FFF5E3;}
	.st19{fill:#FFF48C;}
	.st20{fill:#FFFACF;}
	.st21{fill:#FFFCE5;}
	.st22{fill:#FF87AF;}
	.st23{fill:#FFB0CA;}
	.st24{fill:#FFE500;stroke:#45413C;stroke-linecap:round;stroke-linejoin:round;stroke-miterlimit:10;}
	.st25{fill:#9CEB60;stroke:#45413C;stroke-linecap:round;stroke-linejoin:round;stroke-miterlimit:10;}
	.st26{fill:#FFFACF;stroke:#45413C;stroke-linecap:round;stroke-linejoin:round;stroke-miterlimit:10;}
	.st27{fill:#00F5BC;stroke:#45413C;stroke-linecap:round;stroke-linejoin:round;stroke-miterlimit:10;}
	.st28{fill:#BF8256;stroke:#45413C;stroke-linecap:round;stroke-linejoin:round;stroke-miterlimit:10;}
	.st29{fill:#FFE3CF;stroke:#45413C;stroke-linecap:round;stroke-linejoin:round;stroke-miterlimit:10;}
	.st30{fill:#FF6242;}
	.st31{fill:#FF866E;}
	.st32{fill:none;stroke:#E04122;stroke-linecap:round;stroke-linejoin:round;stroke-miterlimit:10;}
	.st33{fill:#FFFEF2;stroke:#45413C;stroke-linecap:round;stroke-linejoin:round;stroke-miterlimit:10;}
	.st34{fill:#FF6242;stroke:#45413C;stroke-linecap:round;stroke-linejoin:round;stroke-miterlimit:10;}
	.st35{fill:#FFA694;}
	.st36{fill:#FFFFFF;stroke:#45413C;stroke-linecap:round;stroke-linejoin:round;stroke-miterlimit:10;}
	.st37{fill:#FFFEF2;}
	.st38{fill:#FF6196;}
	.st39{fill:#B89558;}
	.st40{fill:none;stroke:#915E3A;stroke-linecap:round;stroke-linejoin:round;stroke-miterlimit:10;}
	.st41{fill:#DEBB7E;stroke:#45413C;stroke-linecap:round;stroke-linejoin:round;stroke-miterlimit:10;}
	.st42{fill:#6DD627;stroke:#45413C;stroke-linecap:round;stroke-linejoin:round;stroke-miterlimit:10;}
	.st43{fill:#E5F8FF;}
	.st44{fill:#E8F4FA;}
	.st45{fill:#E8F4FA;stroke:#45413C;stroke-linecap:round;stroke-linejoin:round;stroke-miterlimit:10;}
	.st46{fill:#FFCCDD;}
	.st47{fill:#E5F8FF;stroke:#45413C;stroke-linecap:round;stroke-linejoin:round;stroke-miterlimit:10;}
	.st48{fill:#00B8F0;stroke:#45413C;stroke-linecap:round;stroke-linejoin:round;stroke-miterlimit:10;}
	.st49{fill:#00B8F0;}
	.st50{fill:#4ACFFF;}
	.st51{fill:#E04122;}
	.st52{fill:#E04122;stroke:#45413C;stroke-linecap:round;stroke-linejoin:round;stroke-miterlimit:10;}
	.st53{fill:#87898C;}
	.st54{fill:#BDBEC0;}
	.st55{fill:#656769;}
	.st56{fill:#525252;}
	.st57{fill:#FFF48C;stroke:#45413C;stroke-linecap:round;stroke-linejoin:round;stroke-miterlimit:10;}
	.st58{fill:#6DD627;}
	.st59{fill:#EB6D00;}
	.st60{fill:#46B000;}
	.st61{fill:#80DDFF;}
	.st62{fill:#DAEDF7;}
	.st63{fill:#BF8DF2;stroke:#45413C;stroke-linecap:round;stroke-linejoin:round;stroke-miterlimit:10;}
	.st64{fill:#9F5AE5;stroke:#45413C;stroke-linecap:round;stroke-linejoin:round;stroke-miterlimit:10;}
	.st65{fill:#C8FFA1;}
	.st66{fill:#E4FFD1;}
	.st67{fill:#9CEB60;}
	.st68{fill:#E5FEFF;}
	.st69{fill:#B8ECFF;}
	.st70{fill:#E0E0E0;stroke:#45413C;stroke-linecap:round;stroke-linejoin:round;stroke-miterlimit:10;}
	.st71{fill:#E0E0E0;}
	.st72{fill:none;stroke:#4F4B45;stroke-linejoin:round;stroke-miterlimit:10;}
	.st73{fill:none;stroke:#4F4B45;stroke-linecap:round;stroke-linejoin:round;stroke-miterlimit:10;}
	.st74{fill:#E0366F;stroke:#45413C;stroke-linecap:round;stroke-linejoin:round;stroke-miterlimit:10;}
	.st75{fill:none;stroke:#45413C;stroke-miterlimit:10;}
	.st76{fill:#FF866E;stroke:#45413C;stroke-linecap:round;stroke-linejoin:round;stroke-miterlimit:10;}
	.st77{fill:#45413C;stroke:#45413C;stroke-linecap:round;stroke-linejoin:round;stroke-miterlimit:10;}
	.st78{fill:#9F5AE5;}
	.st79{fill:#803EC2;}
	.st80{fill:#803EC2;stroke:#45413C;stroke-linecap:round;stroke-linejoin:round;stroke-miterlimit:10;}
	.st81{fill:#BF8DF2;}
	.st82{fill:#FFAA54;stroke:#45413C;stroke-linecap:round;stroke-linejoin:round;stroke-miterlimit:10;}
	.st83{fill:none;stroke:#45413C;stroke-linejoin:round;stroke-miterlimit:10;}
	.st84{fill:#FFCCDD;stroke:#45413C;stroke-linecap:round;stroke-linejoin:round;stroke-miterlimit:10;}
	.st85{fill:#FF6196;stroke:#45413C;stroke-linecap:round;stroke-linejoin:round;stroke-miterlimit:10;}
	.st86{fill:#FFE5EE;}
	.st87{fill:#F7E5C6;stroke:#45413C;stroke-linecap:round;stroke-linejoin:round;stroke-miterlimit:10;}
	.st88{fill:#E5FFF9;}
	.st89{fill:none;stroke:#45413C;stroke-width:1.0064;stroke-linecap:round;stroke-linejoin:round;stroke-miterlimit:10;}
	.st90{fill:#4AEFF7;}
	.st91{fill:#A6FBFF;}
	.st92{fill:#E5FEFF;stroke:#45413C;stroke-linecap:round;stroke-linejoin:round;stroke-miterlimit:10;}
	.st93{fill:#46B000;stroke:#45413C;stroke-linecap:round;stroke-linejoin:round;stroke-miterlimit:10;}
	.st94{fill:#FFFFFF;stroke:#45413C;stroke-linejoin:round;stroke-miterlimit:10;}
	.st95{fill:#FFFFFF;stroke:#45413C;stroke-miterlimit:10;}
	.st96{fill:#009FD9;}
	.st97{fill:#00DFEB;}
	.st98{fill:#C0DCEB;stroke:#45413C;stroke-linecap:round;stroke-linejoin:round;stroke-miterlimit:10;}
	.st99{fill:#00DFEB;stroke:#45413C;stroke-linecap:round;stroke-linejoin:round;stroke-miterlimit:10;}
	.st100{fill:#FFE5EE;stroke:#45413C;stroke-linecap:round;stroke-linejoin:round;stroke-miterlimit:10;}
	.st101{fill:#8CA4B8;}
	.st102{fill:#ADC4D9;}
	.st103{fill:#656769;stroke:#45413C;stroke-linecap:round;stroke-linejoin:round;stroke-miterlimit:10;}
	.st104{fill:#F0F0F0;stroke:#45413C;stroke-linecap:round;stroke-linejoin:round;stroke-miterlimit:10;}
	.st105{fill:#C0DCEB;}
	.st106{fill:#45413C;}
	.st107{fill:#FFCABF;}
	.st108{fill:#87898C;stroke:#45413C;stroke-linecap:round;stroke-linejoin:round;stroke-miterlimit:10;}
	.st109{fill:#EBCB00;stroke:#45413C;stroke-linecap:round;stroke-linejoin:round;stroke-miterlimit:10;}</style>
  <circle
     style="fill:#f71a24;fill-opacity:1"
     cx="46.727131"
     cy="46.986317"
     r="16"
     id="circle16" />
  <path
     style="fill:#ffffff"
     d="m 44.727135,38.986319 -0.1764,2.1072 a 6.2858,6.2858 0 0 0 -1.83704,1.06252 l -1.91518,-0.9018 -2,3.4642 1.73882,1.2076 a 6.2858,6.2858 0 0 0 -0.096,1.06026 6.2858,6.2858 0 0 0 0.0914,1.06474 l -1.73438,1.20312 2,3.4642 1.91072,-0.89956 a 6.2858,6.2858 0 0 0 1.8415,1.0558 l 0.1764,2.1116 h 4 l 0.1764,-2.1072 a 6.2858,6.2858 0 0 0 1.83708,-1.06252 l 1.91516,0.9018 2,-3.4642 -1.73884,-1.2076 a 6.2858,6.2858 0 0 0 0.096,-1.06026 6.2858,6.2858 0 0 0 -0.0914,-1.06474 l 1.73438,-1.20312 -2,-3.4642 -1.91,0.9 a 6.2858,6.2858 0 0 0 -1.842,-1.056 l -0.176,-2.112 h -4 z m 2,5.7144 a 2.2858,2.2858 0 0 1 2.286,2.286 2.2858,2.2858 0 0 1 -2.286,2.286 2.2858,2.2858 0 0 1 -2.286,-2.286 2.2858,2.2858 0 0 1 2.2856,-2.2856 z"
     id="path18" />
  <g
     transform="matrix(3.7796,0,0,3.7796,-211.17624,-27.807759)"
     fill="#5e4aa6"
     stroke-width="0.26458"
     id="g22">
    <circle
       cx="-330.35001"
       cy="-328.38"
       r="0"
       id="circle14-6" />
    <circle
       cx="-312.10999"
       cy="-326.25"
       r="0"
       id="circle16-3" />
    <circle
       cx="-306.01999"
       cy="-333.07001"
       r="0"
       id="circle18" />
    <circle
       cx="-308.84"
       cy="-326.01001"
       r="0"
       id="circle20" />
  </g>
</svg>
