<?xml version="1.0" encoding="UTF-8" standalone="no"?>
<svg
   xmlns:dc="http://purl.org/dc/elements/1.1/"
   xmlns:cc="http://creativecommons.org/ns#"
   xmlns:rdf="http://www.w3.org/1999/02/22-rdf-syntax-ns#"
   xmlns:svg="http://www.w3.org/2000/svg"
   xmlns="http://www.w3.org/2000/svg"
   xmlns:sodipodi="http://sodipodi.sourceforge.net/DTD/sodipodi-0.dtd"
   xmlns:inkscape="http://www.inkscape.org/namespaces/inkscape"
   width="64"
   height="64"
   version="1.1"
   viewBox="0 0 64 64"
   id="svg34"
   sodipodi:docname="applications-graphics.svg"
   inkscape:version="1.0.1 (3bc2e813f5, 2020-09-07)">
  <sodipodi:namedview
     pagecolor="#ffffff"
     bordercolor="#666666"
     borderopacity="1"
     objecttolerance="10"
     gridtolerance="10"
     guidetolerance="10"
     inkscape:pageopacity="0"
     inkscape:pageshadow="2"
     inkscape:window-width="1920"
     inkscape:window-height="935"
     id="namedview36"
     showgrid="false"
     inkscape:zoom="6.0546875"
     inkscape:cx="25.397052"
     inkscape:cy="46.053015"
     inkscape:window-x="0"
     inkscape:window-y="38"
     inkscape:window-maximized="1"
     inkscape:current-layer="svg34" />
  <metadata
     id="metadata2">
    <rdf:RDF>
      <cc:Work
         rdf:about="">
        <dc:format>image/svg+xml</dc:format>
        <dc:type
           rdf:resource="http://purl.org/dc/dcmitype/StillImage" />
        <dc:title></dc:title>
      </cc:Work>
    </rdf:RDF>
  </metadata>
  <defs
     id="defs9">
    <linearGradient
       id="linearGradient873"
       x1="-48.646"
       x2="-32.772"
       y1="-6.3007"
       y2="9.574"
       gradientTransform="translate(1.0224,-0.57831)"
       gradientUnits="userSpaceOnUse">
      <stop
         stop-color="#28afea"
         offset="0"
         id="stop4" />
      <stop
         stop-color="#838be4"
         offset="1"
         id="stop6" />
    </linearGradient>
  </defs>
  <filter
     id="b"
     x="-.011996"
     y="-.012004"
     width="1.024"
     height="1.024"
     color-interpolation-filters="sRGB">
    <feGaussianBlur
       stdDeviation=".47521291"
       id="feGaussianBlur11" />
  </filter>
  <g
     transform="matrix(3.7796 0 0 3.7796 -151.13 -27.199)"
     fill="#5e4aa6"
     stroke-width=".26458"
     id="g22">
    <circle
       cx="-330.35"
       cy="-328.38"
       r="0"
       id="circle14" />
    <circle
       cx="-312.11"
       cy="-326.25"
       r="0"
       id="circle16" />
    <circle
       cx="-306.02"
       cy="-333.07"
       r="0"
       id="circle18" />
    <circle
       cx="-308.84"
       cy="-326.01"
       r="0"
       id="circle20" />
  </g>
  <g
     transform="matrix(3.4644143,0,0,3.4644143,169.49102,28.332918)"
     id="g32">
    <rect
       x="-47.624001"
       y="-6.8790002"
       width="15.875"
       height="15.875"
       ry="0.79373002"
       fill="url(#linearGradient873)"
       id="rect24"
       style="fill:url(#linearGradient873)" />
    <path
       transform="scale(0.26458)"
       d="m -138.37,1.3379 c -1.446,0 -2.892,0.55411 -4,1.6621 l -31,31 h 50.373 c 1.662,0 3,-1.338 3,-3 V 17.373 L -134.37,3 c -1.108,-1.108 -2.554,-1.6621 -4,-1.6621 z"
       fill="#406ccd"
       id="path26" />
    <path
       transform="scale(0.26458)"
       d="m -158,-4.3535 c -1.0181,0 -2.0363,0.38982 -2.8164,1.1699 l -19.184,19.184 v 15 c 0,1.662 1.338,3 3,3 h 54 c 1.3602,0 2.491,-0.90221 2.8613,-2.1387 l -35.045,-35.045 c -0.7801,-0.7801 -1.7983,-1.1699 -2.8164,-1.1699 z"
       fill="#13427e"
       id="path28" />
    <circle
       cx="-37.041"
       cy="-2.9103999"
       r="1.3229001"
       fill="#ffffff"
       id="circle30" />
  </g>
</svg>
