<?xml version="1.0" encoding="UTF-8" standalone="no"?>
<svg
   xmlns:dc="http://purl.org/dc/elements/1.1/"
   xmlns:cc="http://creativecommons.org/ns#"
   xmlns:rdf="http://www.w3.org/1999/02/22-rdf-syntax-ns#"
   xmlns:svg="http://www.w3.org/2000/svg"
   xmlns="http://www.w3.org/2000/svg"
   xmlns:xlink="http://www.w3.org/1999/xlink"
   xmlns:sodipodi="http://sodipodi.sourceforge.net/DTD/sodipodi-0.dtd"
   xmlns:inkscape="http://www.inkscape.org/namespaces/inkscape"
   width="64"
   height="64"
   version="1.1"
   id="svg18"
   sodipodi:docname="aqemu.svg"
   inkscape:version="1.0.2 (e86c870879, 2021-01-15)">
  <metadata
     id="metadata24">
    <rdf:RDF>
      <cc:Work
         rdf:about="">
        <dc:format>image/svg+xml</dc:format>
        <dc:type
           rdf:resource="http://purl.org/dc/dcmitype/StillImage" />
        <dc:title></dc:title>
      </cc:Work>
    </rdf:RDF>
  </metadata>
  <defs
     id="defs22">
    <linearGradient
       inkscape:collect="always"
       id="linearGradient871">
      <stop
         style="stop-color:#23c7ff;stop-opacity:1"
         offset="0"
         id="stop867" />
      <stop
         style="stop-color:#2f56ff;stop-opacity:0.2"
         offset="1"
         id="stop869" />
    </linearGradient>
    <radialGradient
       inkscape:collect="always"
       xlink:href="#linearGradient871"
       id="radialGradient873"
       cx="32"
       cy="32"
       fx="32"
       fy="32"
       r="28"
       gradientUnits="userSpaceOnUse" />
  </defs>
  <sodipodi:namedview
     pagecolor="#ffffff"
     bordercolor="#666666"
     borderopacity="1"
     objecttolerance="10"
     gridtolerance="10"
     guidetolerance="10"
     inkscape:pageopacity="0"
     inkscape:pageshadow="2"
     inkscape:window-width="1920"
     inkscape:window-height="942"
     id="namedview20"
     showgrid="false"
     inkscape:zoom="8.5626212"
     inkscape:cx="22.424926"
     inkscape:cy="24.545448"
     inkscape:window-x="0"
     inkscape:window-y="38"
     inkscape:window-maximized="1"
     inkscape:current-layer="svg18" />
  <circle
     style="opacity:1;fill:#081a32;fill-opacity:1;stroke-width:3.78255;stroke-linecap:round;paint-order:stroke fill markers"
     id="path863"
     cx="32"
     cy="32"
     r="30" />
  <circle
     cx="32"
     cy="32"
     r="28"
     style="fill:url(#radialGradient873);fill-opacity:1"
     id="circle865" />
  <g
     id="g966"
     transform="matrix(0.97435897,0,0,0.97435897,0.82051325,0.82051315)">
    <path
       d="M 31.999998,9.4999986 A 22.500001,22.500001 0 0 0 9.4999994,32 22.500001,22.500001 0 0 0 31.999998,54.500001 22.500001,22.500001 0 0 0 54.5,32 22.500001,22.500001 0 0 0 31.999998,9.4999986 Z m 0,4.7368424 A 17.763159,17.763159 0 0 1 49.763157,32 17.763159,17.763159 0 0 1 31.999998,49.763159 17.763159,17.763159 0 0 1 14.236842,32 17.763159,17.763159 0 0 1 31.999998,14.236841 Z"
       style="fill:#89b9e2;stroke:#081a32;stroke-width:1.18421;stroke-opacity:0.776471"
       id="path889" />
    <path
       style="color:#000000;font-style:normal;font-variant:normal;font-weight:normal;font-stretch:normal;font-size:medium;line-height:normal;font-family:sans-serif;font-variant-ligatures:normal;font-variant-position:normal;font-variant-caps:normal;font-variant-numeric:normal;font-variant-alternates:normal;font-variant-east-asian:normal;font-feature-settings:normal;font-variation-settings:normal;text-indent:0;text-align:start;text-decoration:none;text-decoration-line:none;text-decoration-style:solid;text-decoration-color:#000000;letter-spacing:normal;word-spacing:normal;text-transform:none;writing-mode:lr-tb;direction:ltr;text-orientation:mixed;dominant-baseline:auto;baseline-shift:baseline;text-anchor:start;white-space:normal;shape-padding:0;shape-margin:0;inline-size:0;clip-rule:nonzero;display:inline;overflow:visible;visibility:visible;opacity:1;isolation:auto;mix-blend-mode:normal;color-interpolation:sRGB;color-interpolation-filters:linearRGB;solid-color:#000000;solid-opacity:1;vector-effect:none;fill:#081a32;fill-opacity:0.776471;fill-rule:nonzero;stroke:#081a32;stroke-linecap:round;stroke-linejoin:round;stroke-miterlimit:4;stroke-dasharray:none;stroke-dashoffset:0;stroke-opacity:0.776471;color-rendering:auto;image-rendering:auto;shape-rendering:auto;text-rendering:auto;enable-background:accumulate;stop-color:#000000;stop-opacity:1"
       d="m 16.599609,16.605469 a 2.3687368,2.3687368 0 0 0 -2.035156,3.570312 l 18.947266,32.19336 a 2.3685,2.3685 0 0 0 3.242187,0.839843 2.3685,2.3685 0 0 0 0.839844,-3.242187 L 22.162109,23.746094 51.251953,35.382812 a 2.3685,2.3685 0 0 0 3.078125,-1.318359 2.3685,2.3685 0 0 0 -1.318359,-3.080078 L 17.484375,16.775391 a 2.3687368,2.3687368 0 0 0 -0.884766,-0.169922 z"
       id="path891" />
    <path
       style="color:#000000;font-style:normal;font-variant:normal;font-weight:normal;font-stretch:normal;font-size:medium;line-height:normal;font-family:sans-serif;font-variant-ligatures:normal;font-variant-position:normal;font-variant-caps:normal;font-variant-numeric:normal;font-variant-alternates:normal;font-variant-east-asian:normal;font-feature-settings:normal;font-variation-settings:normal;text-indent:0;text-align:start;text-decoration:none;text-decoration-line:none;text-decoration-style:solid;text-decoration-color:#000000;letter-spacing:normal;word-spacing:normal;text-transform:none;writing-mode:lr-tb;direction:ltr;text-orientation:mixed;dominant-baseline:auto;baseline-shift:baseline;text-anchor:start;white-space:normal;shape-padding:0;shape-margin:0;inline-size:0;clip-rule:nonzero;display:inline;overflow:visible;visibility:visible;opacity:1;isolation:auto;mix-blend-mode:normal;color-interpolation:sRGB;color-interpolation-filters:linearRGB;solid-color:#000000;solid-opacity:1;vector-effect:none;fill:#081a32;fill-opacity:0.776471;fill-rule:nonzero;stroke:#081a32;stroke-linecap:round;stroke-linejoin:round;stroke-miterlimit:4;stroke-dasharray:none;stroke-dashoffset:0;stroke-opacity:0.776471;color-rendering:auto;image-rendering:auto;shape-rendering:auto;text-rendering:auto;enable-background:accumulate;stop-color:#000000;stop-opacity:1"
       d="m 37.839844,26.080078 a 2.3684199,2.3684199 0 0 0 -1.59375,0.69336 l -9.472656,9.472656 a 2.3684199,2.3684199 0 0 0 0,3.349609 2.3684199,2.3684199 0 0 0 3.349609,0 l 9.472656,-9.472656 a 2.3684199,2.3684199 0 0 0 0,-3.349609 2.3684199,2.3684199 0 0 0 -1.755859,-0.69336 z"
       id="path893" />
    <path
       style="color:#000000;font-style:normal;font-variant:normal;font-weight:normal;font-stretch:normal;font-size:medium;line-height:normal;font-family:sans-serif;font-variant-ligatures:normal;font-variant-position:normal;font-variant-caps:normal;font-variant-numeric:normal;font-variant-alternates:normal;font-variant-east-asian:normal;font-feature-settings:normal;font-variation-settings:normal;text-indent:0;text-align:start;text-decoration:none;text-decoration-line:none;text-decoration-style:solid;text-decoration-color:#000000;letter-spacing:normal;word-spacing:normal;text-transform:none;writing-mode:lr-tb;direction:ltr;text-orientation:mixed;dominant-baseline:auto;baseline-shift:baseline;text-anchor:start;white-space:normal;shape-padding:0;shape-margin:0;inline-size:0;clip-rule:nonzero;display:inline;overflow:visible;visibility:visible;opacity:1;isolation:auto;mix-blend-mode:normal;color-interpolation:sRGB;color-interpolation-filters:linearRGB;solid-color:#000000;solid-opacity:1;vector-effect:none;fill:#081a32;fill-opacity:0.776471;fill-rule:nonzero;stroke:#081a32;stroke-linecap:butt;stroke-linejoin:miter;stroke-miterlimit:4;stroke-dasharray:none;stroke-dashoffset:0;stroke-opacity:0.776471;color-rendering:auto;image-rendering:auto;shape-rendering:auto;text-rendering:auto;enable-background:accumulate;stop-color:#000000;stop-opacity:1"
       d="m 44.332031,40.982422 -3.349609,3.349609 9.474609,9.47461 3.34961,-3.34961 z"
       id="path895" />
    <g
       id="g887"
       transform="matrix(1.1842106,0,0,1.1842106,-93.520712,-4.7105286)">
      <path
         d="m 105.99526,12 a 19,19 0 0 0 -18.999998,19 19,19 0 0 0 18.999998,19 19,19 0 0 0 19,-19 19,19 0 0 0 -19,-19 z m 0,4 a 15,15 0 0 1 15,15 15,15 0 0 1 -15,15 A 15,15 0 0 1 90.995262,31 15,15 0 0 1 105.99526,16 Z"
         style="fill:#89b9e2"
         id="path875" />
      <path
         d="M 108.99526,47.18644 92.995262,20 122.99526,32"
         style="fill:none;stroke:#89b9e2;stroke-width:4;stroke-linecap:round;stroke-linejoin:round"
         id="path877" />
      <path
         d="m 102.99526,36 8,-8"
         style="fill:none;stroke:#89b9e2;stroke-width:4;stroke-linecap:round;stroke-linejoin:round"
         id="path879" />
      <path
         d="m 114.99526,40 8,8"
         style="fill:none;stroke:#89b9e2;stroke-width:4"
         id="path881" />
    </g>
  </g>
</svg>
