<?xml version="1.0" encoding="UTF-8" standalone="no"?>
<svg
   xmlns:dc="http://purl.org/dc/elements/1.1/"
   xmlns:cc="http://creativecommons.org/ns#"
   xmlns:rdf="http://www.w3.org/1999/02/22-rdf-syntax-ns#"
   xmlns:svg="http://www.w3.org/2000/svg"
   xmlns="http://www.w3.org/2000/svg"
   xmlns:sodipodi="http://sodipodi.sourceforge.net/DTD/sodipodi-0.dtd"
   xmlns:inkscape="http://www.inkscape.org/namespaces/inkscape"
   width="64"
   height="64"
   version="1.1"
   id="svg20"
   sodipodi:docname="argouml.svg"
   inkscape:version="1.0.2 (e86c870879, 2021-01-15)">
  <metadata
     id="metadata26">
    <rdf:RDF>
      <cc:Work
         rdf:about="">
        <dc:format>image/svg+xml</dc:format>
        <dc:type
           rdf:resource="http://purl.org/dc/dcmitype/StillImage" />
        <dc:title></dc:title>
      </cc:Work>
    </rdf:RDF>
  </metadata>
  <defs
     id="defs24" />
  <sodipodi:namedview
     pagecolor="#ffffff"
     bordercolor="#666666"
     borderopacity="1"
     objecttolerance="10"
     gridtolerance="10"
     guidetolerance="10"
     inkscape:pageopacity="0"
     inkscape:pageshadow="2"
     inkscape:window-width="1920"
     inkscape:window-height="942"
     id="namedview22"
     showgrid="false"
     inkscape:zoom="8.5626212"
     inkscape:cx="31.67167"
     inkscape:cy="34.530022"
     inkscape:window-x="0"
     inkscape:window-y="38"
     inkscape:window-maximized="1"
     inkscape:current-layer="svg20" />
  <g
     id="g859"
     transform="matrix(0.91666668,0,0,0.91666668,2.6666664,2.6658317)">
    <path
       style="fill:#bcbcbc;fill-rule:evenodd"
       d="m 4.5999733,29.001073 c -2.094033,0.01031 -3.3228371,2.352062 -2.1370514,4.072499 L 16.80842,53.87277 c 0.486641,0.705716 1.29068,1.127337 2.149788,1.127301 h 26.082724 c 0.859106,3.6e-5 1.663146,-0.421585 2.149788,-1.127301 L 61.536218,33.073572 c 1.252192,-1.818846 -0.1937,-4.267884 -2.39686,-4.059804 L 31.999568,29 4.8597817,29.013768 c -0.086336,-0.0084 -0.173048,-0.0128 -0.2598084,-0.0128 z"
       id="path4" />
    <path
       style="opacity:0.3;fill-rule:evenodd"
       d="M 4.8666321,29.015178 31.999178,36.000765 59.131726,29.015178 31.999178,29.001021 Z"
       id="path6" />
    <path
       style="fill:#bcbcbc;fill-rule:evenodd"
       d="m 32.089024,9.0035015 c -0.87978,-0.034003 -1.70704,0.4291128 -2.155258,1.2065525 L 14.340952,37.282957 c -1.073306,1.862718 0.550023,4.137767 2.60505,3.650901 L 32,36.000765 47.054002,40.933858 c 2.055024,0.486864 3.678352,-1.788183 2.605046,-3.650901 L 34.066236,10.210054 C 33.650342,9.4887616 32.905322,9.0341272 32.089024,9.0035015 Z"
       id="path8" />
    <path
       style="opacity:0.1;fill:#ffffff;fill-rule:evenodd"
       d="m 32.089844,9.0039062 c -0.87978,-0.034003 -1.708032,0.4295916 -2.15625,1.2070318 L 14.341797,37.283203 c -0.322435,0.559585 -0.380234,1.149316 -0.277344,1.697266 0.05469,-0.234959 0.145732,-0.468854 0.277344,-0.697266 L 29.933594,11.210938 c 0.448218,-0.77744 1.27647,-1.2410337 2.15625,-1.207032 0.816298,0.03063 1.560668,0.485739 1.976562,1.207032 l 15.591797,27.072265 c 0.131612,0.228412 0.222651,0.462307 0.277344,0.697266 0.10289,-0.54795 0.04509,-1.137681 -0.277344,-1.697266 L 34.066406,10.210938 C 33.650512,9.4896451 32.906142,9.034532 32.089844,9.0039062 Z"
       id="path10" />
    <path
       style="opacity:0.3;fill-rule:evenodd"
       d="M 31.999178,10 35.484,39.289098 31.999178,36.000765 28.614,39.289098 Z"
       id="path12" />
    <path
       style="fill:#e4e4e4;fill-rule:evenodd"
       d="m 4.6044011,29.001073 c -2.0936982,0.0104 -3.3225005,2.353192 -2.1369042,4.073625 L 16.809304,53.871644 c 0.486564,0.705714 1.291883,1.128463 2.150853,1.128427 L 31.999178,36.000743 4.8638423,29.015178 c -0.086324,-0.0085 -0.172694,-0.01416 -0.2594412,-0.01416 z M 31.999178,36.000743 45.0382,55.000071 c 0.85897,3.6e-5 1.66429,-0.422713 2.150854,-1.128427 L 61.530862,33.074698 c 1.185596,-1.720433 -0.0432,-4.063226 -2.136904,-4.073625 -0.08674,-1.46e-4 -0.17312,0.0056 -0.259442,0.0142 l -27.135338,6.985515 z"
       id="path14" />
    <path
       style="opacity:0.1;fill-rule:evenodd"
       d="m 2.0625,32.125 c -8.686e-4,0.0045 -0.00111,0.0092 -0.00195,0.01367 0.033312,0.155635 0.083726,0.308624 0.1484375,0.460937 C 2.1440263,32.443162 2.0957669,32.284842 2.0625,32.125 Z m 59.873047,0 c -0.03381,0.16243 -0.08187,0.32353 -0.148438,0.482422 0.06615,-0.154068 0.11653,-0.309798 0.150391,-0.466797 -9.62e-4,-0.0051 -9.62e-4,-0.01049 -0.002,-0.01563 z m -0.148438,0.482422 c -0.06657,0.158891 -0.151647,0.315574 -0.255859,0.466797 L 47.189453,53.871094 c -0.121641,0.176428 -0.262622,0.335691 -0.419922,0.474609 0.157237,-0.138768 0.300215,-0.296227 0.421875,-0.472656 L 61.537109,33.074219 c 0.104301,-0.151499 0.182017,-0.308453 0.25,-0.466797 z m -59.5722652,0.0059 c 0.067449,0.156249 0.1454485,0.31208 0.2480468,0.460938 L 16.808594,53.871094 2.4667969,33.074219 C 2.3639588,32.924989 2.2809946,32.770005 2.2148438,32.613281 Z M 31.416016,36.849609 18.960938,55 h 0.685546 L 32,37 V 36 Z M 32,37 44.353516,55 h 0.685546 L 32.583984,36.849609 32,36 Z"
       id="path16" />
    <path
       style="opacity:0.2;fill:#ffffff;fill-rule:evenodd"
       d="M 4.6035156,29.001953 C 2.8778812,29.010525 1.7455118,30.601924 2.0625,32.125 2.2839557,30.977834 3.2596403,30.008629 4.6035156,30.001953 V 30 c 0.086747,0 0.1734416,0.0071 0.2597656,0.01563 L 31.416016,36.849609 32,36 4.8632812,29.015625 c -0.086324,-0.0085 -0.1730184,-0.01367 -0.2597656,-0.01367 z M 32,36 l 0.583984,0.849609 26.550782,-6.833984 c 0.08632,-0.0086 0.173025,-0.01382 0.259765,-0.01367 1.343879,0.0067 2.319561,0.975881 2.541016,2.123047 0.316989,-1.523076 -0.815377,-3.114476 -2.541016,-3.123047 -0.08674,-1.46e-4 -0.173443,0.0051 -0.259765,0.01367 z"
       id="path18" />
  </g>
</svg>
