<?xml version="1.0" encoding="UTF-8"?>
<svg width="64" height="64" version="1.1" xmlns="http://www.w3.org/2000/svg" xmlns:cc="http://creativecommons.org/ns#" xmlns:dc="http://purl.org/dc/elements/1.1/" xmlns:rdf="http://www.w3.org/1999/02/22-rdf-syntax-ns#">
 <metadata>
  <rdf:RDF>
   <cc:Work rdf:about="">
    <dc:format>image/svg+xml</dc:format>
    <dc:type rdf:resource="http://purl.org/dc/dcmitype/StillImage"/>
    <dc:title/>
   </cc:Work>
  </rdf:RDF>
 </metadata>
 <defs>
  <style id="current-color-scheme" type="text/css">.ColorScheme-Text { color:#dedede; } .ColorScheme-Highlight { color:#5294e2; } .ColorScheme-ButtonBackground { color:#dedede; }</style>
  <linearGradient id="linearGradient980" x1="5.0121" x2="50.126" y1="9.2204" y2="51.254" gradientTransform="matrix(1.2092 0 0 1.2092 -29.629 -184.16)" gradientUnits="userSpaceOnUse">
   <stop stop-color="#55c3f8" offset="0"/>
   <stop stop-color="#1484f4" offset="1"/>
  </linearGradient>
  <linearGradient id="linearGradient984" x1="5.6964" x2="50.126" y1="9.9047" y2="50.57" gradientTransform="matrix(-.67771 0 0 .67771 62.57 24.331)" gradientUnits="userSpaceOnUse">
   <stop stop-color="#f4f4f4" offset="0"/>
   <stop stop-color="#dce3ec" offset="1"/>
  </linearGradient>
 </defs>
 <path d="m51.463 11.516c-5.2054-4.5241-12.116-7.0158-19.462-7.0158-7.3447 0-14.256 2.4916-19.462 7.0158-5.2505 4.5634-8.1421 10.645-8.1421 17.125 0 6.1848 2.6359 12.006 7.4407 16.49-0.08664 0.20809-0.15541 0.42705-0.1993 0.65727l-1.5787 8.2939c-0.18773 0.98569 0.06456 1.5735 0.309 1.8931 0.28264 0.36928 0.70152 0.57275 1.1797 0.57275 0.36101 0 0.749-0.11375 1.1533-0.33819l9.1831-5.095c3.1794 1.0929 6.5976 1.666 10.115 1.666 7.3447 0 14.256-2.4916 19.462-7.0158 5.2505-4.5633 8.1421-10.645 8.1421-17.125 0-6.4803-2.8916-12.562-8.1421-17.126z" fill="url(#linearGradient980)" image-rendering="optimizeSpeed" stroke-width="1.2092"/>
 <path d="m26.592 13.475 2.7039 0.64378q-0.38626 1.03-0.90129 1.9313h13.004v10.172h-19.313v1.6738h22.79v2.0601h-22.79v1.6738h23.047q-0.38626 8.3691-1.2876 10.043-0.77253 1.8026-2.9614 1.8026-1.03 0-3.2189-0.38626l-0.51503-2.5751q2.4463 0.38626 3.4764 0.38626 0.77253 0 1.03-0.77252 0.38626-0.90129 0.64377-6.309h-22.79v-17.768h6.0515q0.64377-1.2875 1.03-2.5751zm-4.5064 4.6352v2.0601h16.738v-2.0601zm0 3.9914v2.0601h16.738v-2.0601zm5.5365 12.489h2.5751v3.4764h6.309v-3.2189h2.4464v5.279h-17.511v2.1888h-2.5751v-7.3391h2.5751v3.0901h6.1803z" fill="#fff" stroke-width="1.35"/>
 <path d="m32.98 34.261c2.9173-2.5356 6.7909-3.932 10.907-3.932 4.1164 0 7.9902 1.3964 10.907 3.932 2.9427 2.5576 4.5633 5.9663 4.5633 9.5977 0 3.4663-1.4773 6.7287-4.1702 9.242 0.04856 0.11663 0.0871 0.23935 0.11169 0.36837l0.88483 4.6484c0.10521 0.55244-0.03618 0.88188-0.17318 1.061-0.1584 0.20697-0.39317 0.32101-0.66115 0.32101-0.20234 0-0.41979-0.06375-0.64638-0.18954l-5.1467-2.8555c-1.7819 0.61253-3.6977 0.93372-5.6692 0.93372-4.1164 0-7.9902-1.3964-10.907-3.932-2.9426-2.5575-4.5633-5.966-4.5633-9.5977 0-3.632 1.6206-7.0403 4.5633-9.5985z" fill="url(#linearGradient984)" image-rendering="optimizeSpeed" stroke-width="1.2092"/>
 <path d="m39.131 37.445c-0.23394 0-0.42227 0.19059-0.42227 0.42476v0.58125h-3.3012c-0.23394 0-0.42227 0.18822-0.42227 0.42227v1.1302c-1e-4 0.23342 0.18831 0.42227 0.42227 0.42227h6.3192c-0.17806 1.1409-0.78405 2.3575-1.8009 3.6166-0.64809-1.0382-1.0639-2.047-1.3016-2.7174-0.06002-0.16918-0.22057-0.28069-0.39992-0.28069h-1.0383c-0.13509 0-0.26296 0.06486-0.34278 0.17388-0.07974 0.10912-0.10292 0.24856-0.0621 0.37756 0.24634 0.7757 0.81398 2.2977 1.863 3.8452-1.2391 1.2046-2.4734 2.0747-2.9509 2.3945-0.19003 0.1274-0.2456 0.3823-0.12419 0.57628l0.52412 0.83461c0.06041 0.0965 0.15688 0.16431 0.26826 0.18878 0.02991 0.0067 0.05929 0.0099 0.08942 0.0099 0.08217 0 0.16392-0.02389 0.2335-0.06955 0.49174-0.3232 1.7665-1.2066 3.1025-2.4864 0.49429 0.51514 1.6563 1.4193 2.3449 1.9201 0.10505 0.07642 0.23978 0.09996 0.36514 0.06458 0.12527-0.03568 0.22883-0.12826 0.27821-0.2484l0.3875-0.95135c0.07822-0.1912 0.0062-0.41045-0.1689-0.51915-0.44868-0.2783-1.2927-0.84943-1.9822-1.5922 1.5137-1.7715 2.3759-3.5 2.5659-5.1368h0.33533c0.23396 0 0.42227-0.18821 0.42227-0.42227v-1.1302c0-0.23395-0.18821-0.42227-0.42227-0.42227h-3.3012v-0.58125c0-0.23406-0.18821-0.42476-0.42227-0.42476zm8.0306 1.3339c-0.18628 0-0.35038 0.12251-0.40488 0.30056l-2.8118 9.1981c-0.03945 0.12846-0.01556 0.26681 0.06458 0.37508 0.07986 0.10784 0.20585 0.17139 0.34031 0.17139h1.4606c0.19013 0 0.35639-0.12741 0.40736-0.3105l0.63094-2.2678h2.8764l0.68309 2.2778c0.05367 0.17934 0.22036 0.30056 0.40738 0.30056h1.55c0.13489 0 0.26306-0.06334 0.34278-0.17139 0.08-0.10848 0.10217-0.24899 0.0621-0.37756l-2.8491-9.1956c-0.0552-0.17741-0.21914-0.30056-0.40489-0.30056zm1.0731 1.7015h0.0273l1.1352 4.0687h-2.2231z" fill="#222" stroke-width=".10688"/>
</svg>
