<?xml version="1.0" encoding="UTF-8" standalone="no"?>
<svg
   xmlns:dc="http://purl.org/dc/elements/1.1/"
   xmlns:cc="http://creativecommons.org/ns#"
   xmlns:rdf="http://www.w3.org/1999/02/22-rdf-syntax-ns#"
   xmlns:svg="http://www.w3.org/2000/svg"
   xmlns="http://www.w3.org/2000/svg"
   xmlns:sodipodi="http://sodipodi.sourceforge.net/DTD/sodipodi-0.dtd"
   xmlns:inkscape="http://www.inkscape.org/namespaces/inkscape"
   width="64"
   height="64"
   version="1"
   id="svg24"
   sodipodi:docname="artscontrol.svg"
   inkscape:version="1.0.2 (e86c870879, 2021-01-15)">
  <metadata
     id="metadata30">
    <rdf:RDF>
      <cc:Work
         rdf:about="">
        <dc:format>image/svg+xml</dc:format>
        <dc:type
           rdf:resource="http://purl.org/dc/dcmitype/StillImage" />
        <dc:title></dc:title>
      </cc:Work>
    </rdf:RDF>
  </metadata>
  <defs
     id="defs28" />
  <sodipodi:namedview
     pagecolor="#ffffff"
     bordercolor="#666666"
     borderopacity="1"
     objecttolerance="10"
     gridtolerance="10"
     guidetolerance="10"
     inkscape:pageopacity="0"
     inkscape:pageshadow="2"
     inkscape:window-width="1920"
     inkscape:window-height="942"
     id="namedview26"
     showgrid="false"
     inkscape:zoom="8.5626212"
     inkscape:cx="24.865077"
     inkscape:cy="38.103641"
     inkscape:window-x="0"
     inkscape:window-y="38"
     inkscape:window-maximized="1"
     inkscape:current-layer="svg24" />
  <g
     id="g866"
     transform="matrix(1.0714286,0,0,1.0714286,-2.2857152,-2.2857152)">
    <rect
       style="fill:#9d9d9d"
       width="56"
       height="56"
       x="4"
       y="4"
       rx="27.999001"
       ry="27.999001"
       id="rect4" />
    <circle
       style="fill:#707070"
       cx="-32"
       cy="-32"
       r="22"
       transform="matrix(0,-1,-1,0,0,0)"
       id="circle8" />
    <circle
       style="fill:#3f3f3f"
       cx="-32"
       cy="-32"
       r="16"
       transform="matrix(0,-1,-1,0,0,0)"
       id="circle10" />
    <circle
       style="fill:#4f4f4f"
       cx="-32"
       cy="-32"
       r="8"
       transform="matrix(0,-1,-1,0,0,0)"
       id="circle14" />
  </g>
  <circle
     style="fill:#be53d1"
     cx="46"
     cy="46"
     r="16"
     id="circle20" />
  <path
     style="fill:#ffffff"
     d="m 43.927734,38 -0.175781,2.107422 a 6.2858,6.2858 0 0 0 -1.837891,1.0625 L 40,40.267578 l -2,3.464844 1.738281,1.207031 A 6.2858,6.2858 0 0 0 39.642578,46 a 6.2858,6.2858 0 0 0 0.0918,1.064453 L 38,48.269531 l 2,3.462891 1.910156,-0.898438 a 6.2858,6.2858 0 0 0 1.841797,1.054688 L 43.927734,54 h 4 l 0.177735,-2.105469 a 6.2858,6.2858 0 0 0 1.835937,-1.064453 l 1.916016,0.902344 2,-3.462891 -1.740234,-1.208984 A 6.2858,6.2858 0 0 0 52.214844,46 a 6.2858,6.2858 0 0 0 -0.0918,-1.064453 l 1.734375,-1.203125 -2,-3.462891 -1.91211,0.898438 a 6.2858,6.2858 0 0 0 -1.83984,-1.054688 L 47.929688,38 h -4 z M 46,43 a 3,3 0 0 1 3,3 3,3 0 0 1 -3,3 3,3 0 0 1 -3,-3 3,3 0 0 1 3,-3 z"
     id="path22" />
</svg>
