<?xml version="1.0" encoding="UTF-8" standalone="no"?>
<svg
   xmlns:dc="http://purl.org/dc/elements/1.1/"
   xmlns:cc="http://creativecommons.org/ns#"
   xmlns:rdf="http://www.w3.org/1999/02/22-rdf-syntax-ns#"
   xmlns:svg="http://www.w3.org/2000/svg"
   xmlns="http://www.w3.org/2000/svg"
   xmlns:sodipodi="http://sodipodi.sourceforge.net/DTD/sodipodi-0.dtd"
   xmlns:inkscape="http://www.inkscape.org/namespaces/inkscape"
   width="64"
   height="64"
   version="1.1"
   id="svg46"
   sodipodi:docname="asc-de.svg"
   inkscape:version="1.0.1 (3bc2e813f5, 2020-09-07)">
  <sodipodi:namedview
     pagecolor="#ffffff"
     bordercolor="#666666"
     borderopacity="1"
     objecttolerance="10"
     gridtolerance="10"
     guidetolerance="10"
     inkscape:pageopacity="0"
     inkscape:pageshadow="2"
     inkscape:window-width="1920"
     inkscape:window-height="935"
     id="namedview48"
     showgrid="false"
     inkscape:zoom="6.0546875"
     inkscape:cx="31.105257"
     inkscape:cy="45.133897"
     inkscape:window-x="0"
     inkscape:window-y="38"
     inkscape:window-maximized="1"
     inkscape:current-layer="svg46" />
  <defs
     id="defs6">
    <style
       type="text/css"
       id="style2" />
    <style
       type="text/css"
       id="style4" />
  </defs>
  <metadata
     id="metadata8">
    <rdf:RDF>
      <cc:Work
         rdf:about="">
        <dc:format>image/svg+xml</dc:format>
        <dc:type
           rdf:resource="http://purl.org/dc/dcmitype/StillImage" />
        <dc:title></dc:title>
      </cc:Work>
    </rdf:RDF>
  </metadata>
  <circle
     cx="-1248.7"
     cy="-1241.6"
     r="0"
     fill="#5e4aa6"
     id="circle10" />
  <circle
     cx="-149.15"
     cy="23.855"
     r="0"
     fill="#5e4aa6"
     fill-rule="evenodd"
     id="circle12" />
  <style
     type="text/css"
     id="style14">.st0{opacity:0.15;fill:#45413C;}
	.st1{fill:#FFE500;}
	.st2{fill:#EBCB00;}
	.st3{fill:none;stroke:#45413C;stroke-linecap:round;stroke-linejoin:round;stroke-miterlimit:10;}
	.st4{fill:#FFAA54;}
	.st5{fill:#FF8A14;}
	.st6{fill:#FFB0CA;stroke:#45413C;stroke-linecap:round;stroke-linejoin:round;stroke-miterlimit:10;}
	.st7{fill:#FF87AF;stroke:#45413C;stroke-linecap:round;stroke-linejoin:round;stroke-miterlimit:10;}
	.st8{fill:#FFCC99;}
	.st9{fill:#FFFFFF;}
	.st10{fill:#F0F0F0;}
	.st11{fill:#BF8256;}
	.st12{fill:#915E3A;}
	.st13{fill:#DEA47A;}
	.st14{fill:#F0D5A8;}
	.st15{fill:#DEBB7E;}
	.st16{fill:#F7E5C6;}
	.st17{fill:#FF8A14;stroke:#45413C;stroke-linecap:round;stroke-linejoin:round;stroke-miterlimit:10;}
	.st18{fill:#FFF5E3;}
	.st19{fill:#FFF48C;}
	.st20{fill:#FFFACF;}
	.st21{fill:#FFFCE5;}
	.st22{fill:#FF87AF;}
	.st23{fill:#FFB0CA;}
	.st24{fill:#FFE500;stroke:#45413C;stroke-linecap:round;stroke-linejoin:round;stroke-miterlimit:10;}
	.st25{fill:#9CEB60;stroke:#45413C;stroke-linecap:round;stroke-linejoin:round;stroke-miterlimit:10;}
	.st26{fill:#FFFACF;stroke:#45413C;stroke-linecap:round;stroke-linejoin:round;stroke-miterlimit:10;}
	.st27{fill:#00F5BC;stroke:#45413C;stroke-linecap:round;stroke-linejoin:round;stroke-miterlimit:10;}
	.st28{fill:#BF8256;stroke:#45413C;stroke-linecap:round;stroke-linejoin:round;stroke-miterlimit:10;}
	.st29{fill:#FFE3CF;stroke:#45413C;stroke-linecap:round;stroke-linejoin:round;stroke-miterlimit:10;}
	.st30{fill:#FF6242;}
	.st31{fill:#FF866E;}
	.st32{fill:none;stroke:#E04122;stroke-linecap:round;stroke-linejoin:round;stroke-miterlimit:10;}
	.st33{fill:#FFFEF2;stroke:#45413C;stroke-linecap:round;stroke-linejoin:round;stroke-miterlimit:10;}
	.st34{fill:#FF6242;stroke:#45413C;stroke-linecap:round;stroke-linejoin:round;stroke-miterlimit:10;}
	.st35{fill:#FFA694;}
	.st36{fill:#FFFFFF;stroke:#45413C;stroke-linecap:round;stroke-linejoin:round;stroke-miterlimit:10;}
	.st37{fill:#FFFEF2;}
	.st38{fill:#FF6196;}
	.st39{fill:#B89558;}
	.st40{fill:none;stroke:#915E3A;stroke-linecap:round;stroke-linejoin:round;stroke-miterlimit:10;}
	.st41{fill:#DEBB7E;stroke:#45413C;stroke-linecap:round;stroke-linejoin:round;stroke-miterlimit:10;}
	.st42{fill:#6DD627;stroke:#45413C;stroke-linecap:round;stroke-linejoin:round;stroke-miterlimit:10;}
	.st43{fill:#E5F8FF;}
	.st44{fill:#E8F4FA;}
	.st45{fill:#E8F4FA;stroke:#45413C;stroke-linecap:round;stroke-linejoin:round;stroke-miterlimit:10;}
	.st46{fill:#FFCCDD;}
	.st47{fill:#E5F8FF;stroke:#45413C;stroke-linecap:round;stroke-linejoin:round;stroke-miterlimit:10;}
	.st48{fill:#00B8F0;stroke:#45413C;stroke-linecap:round;stroke-linejoin:round;stroke-miterlimit:10;}
	.st49{fill:#00B8F0;}
	.st50{fill:#4ACFFF;}
	.st51{fill:#E04122;}
	.st52{fill:#E04122;stroke:#45413C;stroke-linecap:round;stroke-linejoin:round;stroke-miterlimit:10;}
	.st53{fill:#87898C;}
	.st54{fill:#BDBEC0;}
	.st55{fill:#656769;}
	.st56{fill:#525252;}
	.st57{fill:#FFF48C;stroke:#45413C;stroke-linecap:round;stroke-linejoin:round;stroke-miterlimit:10;}
	.st58{fill:#6DD627;}
	.st59{fill:#EB6D00;}
	.st60{fill:#46B000;}
	.st61{fill:#80DDFF;}
	.st62{fill:#DAEDF7;}
	.st63{fill:#BF8DF2;stroke:#45413C;stroke-linecap:round;stroke-linejoin:round;stroke-miterlimit:10;}
	.st64{fill:#9F5AE5;stroke:#45413C;stroke-linecap:round;stroke-linejoin:round;stroke-miterlimit:10;}
	.st65{fill:#C8FFA1;}
	.st66{fill:#E4FFD1;}
	.st67{fill:#9CEB60;}
	.st68{fill:#E5FEFF;}
	.st69{fill:#B8ECFF;}
	.st70{fill:#E0E0E0;stroke:#45413C;stroke-linecap:round;stroke-linejoin:round;stroke-miterlimit:10;}
	.st71{fill:#E0E0E0;}
	.st72{fill:none;stroke:#4F4B45;stroke-linejoin:round;stroke-miterlimit:10;}
	.st73{fill:none;stroke:#4F4B45;stroke-linecap:round;stroke-linejoin:round;stroke-miterlimit:10;}
	.st74{fill:#E0366F;stroke:#45413C;stroke-linecap:round;stroke-linejoin:round;stroke-miterlimit:10;}
	.st75{fill:none;stroke:#45413C;stroke-miterlimit:10;}
	.st76{fill:#FF866E;stroke:#45413C;stroke-linecap:round;stroke-linejoin:round;stroke-miterlimit:10;}
	.st77{fill:#45413C;stroke:#45413C;stroke-linecap:round;stroke-linejoin:round;stroke-miterlimit:10;}
	.st78{fill:#9F5AE5;}
	.st79{fill:#803EC2;}
	.st80{fill:#803EC2;stroke:#45413C;stroke-linecap:round;stroke-linejoin:round;stroke-miterlimit:10;}
	.st81{fill:#BF8DF2;}
	.st82{fill:#FFAA54;stroke:#45413C;stroke-linecap:round;stroke-linejoin:round;stroke-miterlimit:10;}
	.st83{fill:none;stroke:#45413C;stroke-linejoin:round;stroke-miterlimit:10;}
	.st84{fill:#FFCCDD;stroke:#45413C;stroke-linecap:round;stroke-linejoin:round;stroke-miterlimit:10;}
	.st85{fill:#FF6196;stroke:#45413C;stroke-linecap:round;stroke-linejoin:round;stroke-miterlimit:10;}
	.st86{fill:#FFE5EE;}
	.st87{fill:#F7E5C6;stroke:#45413C;stroke-linecap:round;stroke-linejoin:round;stroke-miterlimit:10;}
	.st88{fill:#E5FFF9;}
	.st89{fill:none;stroke:#45413C;stroke-width:1.0064;stroke-linecap:round;stroke-linejoin:round;stroke-miterlimit:10;}
	.st90{fill:#4AEFF7;}
	.st91{fill:#A6FBFF;}
	.st92{fill:#E5FEFF;stroke:#45413C;stroke-linecap:round;stroke-linejoin:round;stroke-miterlimit:10;}
	.st93{fill:#46B000;stroke:#45413C;stroke-linecap:round;stroke-linejoin:round;stroke-miterlimit:10;}
	.st94{fill:#FFFFFF;stroke:#45413C;stroke-linejoin:round;stroke-miterlimit:10;}
	.st95{fill:#FFFFFF;stroke:#45413C;stroke-miterlimit:10;}
	.st96{fill:#009FD9;}
	.st97{fill:#00DFEB;}
	.st98{fill:#C0DCEB;stroke:#45413C;stroke-linecap:round;stroke-linejoin:round;stroke-miterlimit:10;}
	.st99{fill:#00DFEB;stroke:#45413C;stroke-linecap:round;stroke-linejoin:round;stroke-miterlimit:10;}
	.st100{fill:#FFE5EE;stroke:#45413C;stroke-linecap:round;stroke-linejoin:round;stroke-miterlimit:10;}
	.st101{fill:#8CA4B8;}
	.st102{fill:#ADC4D9;}
	.st103{fill:#656769;stroke:#45413C;stroke-linecap:round;stroke-linejoin:round;stroke-miterlimit:10;}
	.st104{fill:#F0F0F0;stroke:#45413C;stroke-linecap:round;stroke-linejoin:round;stroke-miterlimit:10;}
	.st105{fill:#C0DCEB;}
	.st106{fill:#45413C;}
	.st107{fill:#FFCABF;}
	.st108{fill:#87898C;stroke:#45413C;stroke-linecap:round;stroke-linejoin:round;stroke-miterlimit:10;}
	.st109{fill:#EBCB00;stroke:#45413C;stroke-linecap:round;stroke-linejoin:round;stroke-miterlimit:10;}</style>
  <circle
     cx="-1248.7"
     cy="-1241.6"
     r="0"
     fill="#5e4aa6"
     id="circle16" />
  <g
     transform="matrix(3.7796 0 0 3.7796 -5.9149e-5 -2.9142e-5)"
     fill="#5e4aa6"
     stroke-width=".26458"
     id="g24">
    <circle
       cx="-330.38"
       cy="-328.5"
       r="0"
       id="circle18" />
    <circle
       cx="-39.462"
       cy="6.3115"
       r="0"
       fill-rule="evenodd"
       id="circle20" />
    <circle
       cx="-330.38"
       cy="-328.5"
       r="0"
       image-rendering="optimizeSpeed"
       id="circle22" />
  </g>
  <g
     transform="matrix(1.7237094,0,0,1.7237094,-23.169121,-23.12185)"
     stroke-width="0.61359"
     id="g44">
    <path
       d="m 32.006,33.049 c 0.39086,-2e-6 0.82347,0.13869 1.7389,0.44364 l 13.468,5.5089 c 0.53628,0.26998 0.7461,0.62769 0.74611,0.95106 -6e-6,0.32214 -0.20985,0.67985 -0.74675,0.94987 l -13.493,5.52 -0.0098,0.0062 c -1.1536,0.57677 -2.2543,0.57676 -3.4078,-1.3e-5 l -0.0098,-0.0061 -13.493,-5.5199 c -0.5369,-0.26998 -0.74676,-0.62771 -0.74678,-0.95046 -1.6e-5,-0.32275 0.20985,-0.68047 0.74674,-0.95046 l 13.463,-5.508 0.005,-1.3e-5 c 0.91547,-0.30495 1.3481,-0.44362 1.7389,-0.44366 z"
       fill="#f35a23"
       overflow="visible"
       style="font-variant-ligatures:normal;font-variant-position:normal;font-variant-caps:normal;font-variant-numeric:normal;font-variant-alternates:normal;font-feature-settings:normal;text-indent:0;text-decoration:none;text-decoration-line:none;text-decoration-style:solid;text-decoration-color:#000000;text-transform:none;text-orientation:mixed;white-space:normal;shape-padding:0;isolation:auto;mix-blend-mode:normal"
       id="path26" />
    <path
       d="m 32.006,33.049 -2e-6,0.0019 c -0.39086,3e-6 -0.82344,0.13806 -1.7389,0.44299 l -0.005,1.3e-5 -9.8473,4.0294 9.6344,3.9417 c 1.2867,0.63629 2.6262,0.6363 3.9135,2.1e-5 l 9.6349,-3.9416 -9.8521,-4.0306 c -0.91548,-0.30495 -1.3481,-0.44301 -1.7389,-0.44302 z"
       fill-opacity="0.078"
       overflow="visible"
       style="font-variant-ligatures:normal;font-variant-position:normal;font-variant-caps:normal;font-variant-numeric:normal;font-variant-alternates:normal;font-feature-settings:normal;text-indent:0;text-decoration:none;text-decoration-line:none;text-decoration-style:solid;text-decoration-color:#000000;text-transform:none;text-orientation:mixed;white-space:normal;shape-padding:0;isolation:auto;mix-blend-mode:normal"
       id="path28" />
    <path
       d="m 32.007,25.073 c 0.39086,-2e-6 0.82347,0.13868 1.7389,0.44364 l 13.468,5.5094 c 0.53628,0.26998 0.74609,0.62708 0.74611,0.94983 8e-6,0.32336 -0.20985,0.68108 -0.74673,0.95104 l -13.492,5.5192 -0.0098,0.0062 c -1.1536,0.57677 -2.2543,0.57676 -3.4078,-1.3e-5 l -0.0098,-0.0061 -13.493,-5.5199 c -0.53689,-0.26937 -0.74676,-0.62709 -0.74678,-0.95046 4e-6,-0.32275 0.20985,-0.68047 0.74675,-0.94987 l 13.463,-5.508 0.005,-1.4e-5 c 0.91546,-0.30496 1.3481,-0.44362 1.7389,-0.44366 z"
       fill="#8bc34a"
       overflow="visible"
       style="font-variant-ligatures:normal;font-variant-position:normal;font-variant-caps:normal;font-variant-numeric:normal;font-variant-alternates:normal;font-feature-settings:normal;text-indent:0;text-decoration:none;text-decoration-line:none;text-decoration-style:solid;text-decoration-color:#000000;text-transform:none;text-orientation:mixed;white-space:normal;shape-padding:0;isolation:auto;mix-blend-mode:normal"
       id="path30" />
    <path
       d="m 32.006,32.432 1.8e-5,0.0061 c -0.5283,-3e-6 -1.0173,0.16874 -1.9377,0.47556 l -0.0098,0.0062 -0.0092,0.0061 -6.6274,2.712 6.8704,2.8103 0.0098,0.0061 c 1.1535,0.57677 2.2544,0.57678 3.4078,1.3e-5 l 0.0098,-0.0062 6.8778,-2.8139 -6.6439,-2.7182 -0.0098,-0.0068 c -0.92042,-0.30678 -1.4094,-0.47611 -1.9378,-0.47612 z"
       fill="#7eb73d"
       overflow="visible"
       style="font-variant-ligatures:normal;font-variant-position:normal;font-variant-caps:normal;font-variant-numeric:normal;font-variant-alternates:normal;font-feature-settings:normal;text-indent:0;text-decoration:none;text-decoration-line:none;text-decoration-style:solid;text-decoration-color:#000000;text-transform:none;text-orientation:mixed;white-space:normal;shape-padding:0;isolation:auto;mix-blend-mode:normal"
       id="path32" />
    <path
       d="m 32.006,33.049 -2e-6,0.0019 c -0.39086,3e-6 -0.82344,0.13806 -1.7389,0.44299 l -0.005,1.3e-5 -6.0377,2.4703 6.0678,2.482 0.0098,0.0061 c 1.1535,0.57677 2.2544,0.57678 3.4078,1.3e-5 l 0.0098,-0.0062 6.0666,-2.4826 -6.0414,-2.4716 c -0.91547,-0.30497 -1.3481,-0.44304 -1.7389,-0.44302 z"
       fill="#83be3f"
       overflow="visible"
       style="font-variant-ligatures:normal;font-variant-position:normal;font-variant-caps:normal;font-variant-numeric:normal;font-variant-alternates:normal;font-feature-settings:normal;text-indent:0;text-decoration:none;text-decoration-line:none;text-decoration-style:solid;text-decoration-color:#000000;text-transform:none;text-orientation:mixed;white-space:normal;shape-padding:0;isolation:auto;mix-blend-mode:normal"
       id="path34" />
    <path
       d="m 32.007,25.073 -10e-7,0.0019 c -0.39086,2e-6 -0.82344,0.13806 -1.7389,0.44299 l -0.005,1.3e-5 -9.8473,4.0294 9.6344,3.9417 c 1.2867,0.63629 2.6262,0.6363 3.9135,2.1e-5 l 9.6349,-3.9416 -9.8521,-4.0306 c -0.91548,-0.30495 -1.3481,-0.44301 -1.7389,-0.44302 z"
       fill-opacity="0.078"
       overflow="visible"
       style="font-variant-ligatures:normal;font-variant-position:normal;font-variant-caps:normal;font-variant-numeric:normal;font-variant-alternates:normal;font-feature-settings:normal;text-indent:0;text-decoration:none;text-decoration-line:none;text-decoration-style:solid;text-decoration-color:#000000;text-transform:none;text-orientation:mixed;white-space:normal;shape-padding:0;isolation:auto;mix-blend-mode:normal"
       id="path36" />
    <path
       d="m 32.006,17.096 c 0.39086,-3e-6 0.82347,0.13868 1.7389,0.44364 l 13.468,5.5094 c 0.53628,0.26998 0.74609,0.62708 0.74611,0.94983 -10e-7,0.32336 -0.20985,0.68108 -0.74673,0.95104 l -13.492,5.5192 -0.0098,0.0062 c -1.1536,0.57677 -2.2543,0.57676 -3.4078,-1.3e-5 l -0.0098,-0.0062 -13.493,-5.5199 c -0.53689,-0.26937 -0.74676,-0.62709 -0.74678,-0.95046 3e-6,-0.32275 0.20985,-0.68047 0.74675,-0.94987 l 13.463,-5.508 0.005,-1.3e-5 c 0.91546,-0.30495 1.3481,-0.44362 1.7389,-0.44366 z"
       fill="#29b6f6"
       overflow="visible"
       style="font-variant-ligatures:normal;font-variant-position:normal;font-variant-caps:normal;font-variant-numeric:normal;font-variant-alternates:normal;font-feature-settings:normal;text-indent:0;text-decoration:none;text-decoration-line:none;text-decoration-style:solid;text-decoration-color:#000000;text-transform:none;text-orientation:mixed;white-space:normal;shape-padding:0;isolation:auto;mix-blend-mode:normal"
       id="path38" />
    <path
       d="m 32.006,24.456 4e-6,0.0037 c -0.5283,-3e-6 -1.0173,0.16874 -1.9377,0.47556 l -0.0098,0.0062 -0.0092,0.0061 -6.6274,2.712 6.8704,2.8103 0.0098,0.0061 c 1.1535,0.57677 2.2544,0.57678 3.4078,1.3e-5 l 0.0098,-0.0062 6.8778,-2.8139 -6.6439,-2.7182 -0.0098,-0.0061 c -0.92041,-0.30682 -1.4094,-0.47556 -1.9377,-0.47557 z"
       fill="#0aa8f0"
       overflow="visible"
       style="font-variant-ligatures:normal;font-variant-position:normal;font-variant-caps:normal;font-variant-numeric:normal;font-variant-alternates:normal;font-feature-settings:normal;text-indent:0;text-decoration:none;text-decoration-line:none;text-decoration-style:solid;text-decoration-color:#000000;text-transform:none;text-orientation:mixed;white-space:normal;shape-padding:0;isolation:auto;mix-blend-mode:normal"
       id="path40" />
    <path
       d="m 32.007,25.073 -10e-7,0.0019 c -0.39086,2e-6 -0.82344,0.13806 -1.7389,0.44299 l -0.005,1.3e-5 -6.0377,2.4703 6.0678,2.482 0.0098,0.0062 c 1.1535,0.57677 2.2544,0.57678 3.4078,1.3e-5 l 0.0098,-0.0062 6.0666,-2.4826 -6.0414,-2.4716 c -0.91547,-0.30497 -1.3481,-0.44303 -1.7389,-0.44302 z"
       fill="#10adf5"
       overflow="visible"
       style="font-variant-ligatures:normal;font-variant-position:normal;font-variant-caps:normal;font-variant-numeric:normal;font-variant-alternates:normal;font-feature-settings:normal;text-indent:0;text-decoration:none;text-decoration-line:none;text-decoration-style:solid;text-decoration-color:#000000;text-transform:none;text-orientation:mixed;white-space:normal;shape-padding:0;isolation:auto;mix-blend-mode:normal"
       id="path42" />
  </g>
</svg>
