<?xml version="1.0" encoding="UTF-8" standalone="no"?>
<svg
   xmlns:dc="http://purl.org/dc/elements/1.1/"
   xmlns:cc="http://creativecommons.org/ns#"
   xmlns:rdf="http://www.w3.org/1999/02/22-rdf-syntax-ns#"
   xmlns:svg="http://www.w3.org/2000/svg"
   xmlns="http://www.w3.org/2000/svg"
   xmlns:sodipodi="http://sodipodi.sourceforge.net/DTD/sodipodi-0.dtd"
   xmlns:inkscape="http://www.inkscape.org/namespaces/inkscape"
   width="64"
   height="64"
   version="1"
   id="svg20"
   sodipodi:docname="badland.svg"
   inkscape:version="1.0.2 (e86c870879, 2021-01-15)">
  <metadata
     id="metadata26">
    <rdf:RDF>
      <cc:Work
         rdf:about="">
        <dc:format>image/svg+xml</dc:format>
        <dc:type
           rdf:resource="http://purl.org/dc/dcmitype/StillImage" />
        <dc:title></dc:title>
      </cc:Work>
    </rdf:RDF>
  </metadata>
  <defs
     id="defs24" />
  <sodipodi:namedview
     pagecolor="#ffffff"
     bordercolor="#666666"
     borderopacity="1"
     objecttolerance="10"
     gridtolerance="10"
     guidetolerance="10"
     inkscape:pageopacity="0"
     inkscape:pageshadow="2"
     inkscape:window-width="1920"
     inkscape:window-height="936"
     id="namedview22"
     showgrid="false"
     inkscape:zoom="8.5626212"
     inkscape:cx="36.728583"
     inkscape:cy="40.069916"
     inkscape:window-x="0"
     inkscape:window-y="38"
     inkscape:window-maximized="1"
     inkscape:current-layer="svg20" />
  <g
     id="g859">
    <path
       style="fill:#4f4f4f"
       d="m30.106 61.661c-0.19076-0.18548-0.34684-0.45913-0.34684-0.60815 0-0.19592-0.08404-0.2344-0.30348-0.13898-0.16692 0.0726-0.98039 0.1639-1.8077 0.20294l-1.505 0.071-0.275-0.517c-0.24482-0.46027-0.3239-0.49921-0.71807-0.35352-1.0798 0.39915-2.1546 0.08782-2.1546-0.62419 0-0.43847-0.001-0.43875-1.1083-0.32846-0.63311 0.06306-1.307 0.03694-1.5718-0.06094-0.39059-0.144-0.45479-0.256-0.40879-0.71799l0.0544-0.54799-1.0576-0.084c-1.2398-0.1-1.6726-0.368-1.5232-0.94799 0.0938-0.362 0.0476-0.402-0.47859-0.406-0.72219-0.008-1.1702-0.324-1.3432-0.94799-0.1086-0.394-0.2142-0.46999-0.58519-0.42799-0.70539 0.082-1.0852-0.61999-1.0474-1.938 0.0302-1.058-0.0522-1.234-0.41319-0.88199-0.1036 0.1-0.3728 0.158-0.59839 0.126-0.52219-0.072-0.63919-0.89799-0.2582-1.824 0.3054-0.74199 0.24-0.86199-0.39879-0.73799-0.83879 0.162-1.0414-0.42999-0.60859-1.78 0.1144-0.354 0.0886-0.39-0.2-0.276-0.69299 0.274-0.84999 0.198-0.90479-0.44199-0.0328-0.384 0.084-0.88199 0.307-1.306 0.37219-0.70999 0.3572-0.74599-0.298-0.69399-0.63219 0.05-0.65519-0.43599-0.064-1.36 0.2979-0.46589 0.54161-0.90575 0.54161-0.97743s-0.19509-0.21676-0.43353-0.3224c-0.55221-0.24464-0.54789-0.61081 0.01652-1.4027 0.47803-0.67065 0.43979-0.98843-0.11891-0.98843-0.72629 0-0.64097-0.92343 0.1779-1.9253 0.41115-0.50299 0.49675-0.74155 0.41851-1.166-0.05411-0.29352-0.24592-0.65965-0.42625-0.81361s-0.32788-0.42427-0.32788-0.60071c0-0.34116 0.69699-1.0573 1.344-1.3808 0.46161-0.23086 0.49295-0.54847 0.11012-1.1165-0.2584-0.38343-0.25774-0.44871 0.0085-0.84375 0.1587-0.2355 0.54633-0.54769 0.86139-0.69375 0.31506-0.14608 0.70887-0.48949 0.87513-0.76315 0.28856-0.47493 0.28802-0.51293-0.01202-0.83519-0.49585-0.53269-0.04526-1.1327 1.1452-1.5249 1.2376-0.40773 1.5482-0.69715 1.2487-1.1634-0.43503-0.67727 0.0056-1.1112 1.4413-1.4197 0.75815-0.16288 0.95433-0.38159 0.84013-0.93669-0.08438-0.41016-0.02669-0.51805 0.37112-0.69427 0.41897-0.1856 0.45957-0.27468 0.3675-0.80635-0.25596-1.478-0.30872-2.3292-0.1503-2.4244 0.09303-0.0559 0.41171-0.0126 0.70817 0.09618 0.29648 0.10882 0.58231 0.15576 0.63519 0.10434s0.0078-0.67161-0.10038-1.3782c-0.1092-0.70659-0.146-1.5526-0.0828-1.88 0.1048-0.54479 0.1648-0.59519 0.71479-0.59519 0.69399 0 0.67319 0.0871 0.342-1.4332-0.33276-1.5274-0.32738-1.7078 0.06222-2.0866 0.63289-0.61533 0.73335-2.155 0.28804-4.4143-0.36474-1.8506-0.27708-2.8564 0.24896-2.8564 0.1795 0 0.47983 0.18968 0.66741 0.42151 0.39289 0.48561 0.64295 0.53445 0.79279 0.15481 0.197-0.4973 0.108-0.9213-0.394-1.8891-0.556-1.0707-1.06-2.5868-1.06-3.1872 0-0.59867 0.39677-0.47579 1.431 0.44323 0.97825 0.86927 1.7869 2.1672 2.2902 3.6759 0.47543 1.4253 0.77195 1.1811 0.87907-0.72401 0.07302-1.2985 0.15362-1.5943 0.43459-1.5943 0.32472 0 0.68923 1.0345 1.0485 2.9758 0.32192 1.7393 0.35412 2.3402 0.2485 4.6397-0.0667 1.4529-0.0647 2.815 0.0044 3.027l0.1258 0.38535 0.39931-0.48691 0.39932-0.48691 0.12308 0.47677c0.06768 0.26222 0.08318 1.6609 0.03442 3.1082-0.04876 1.4472-0.05354 2.7262-0.0104 2.8422 0.19658 0.53057 1.152 0.0126 1.2885-0.69849 0.12306-0.64109 0.58271-0.70799 1.3726-0.1998 0.40393 0.25988 0.97609 0.53991 1.2715 0.62227 0.45575 0.12708 0.58149 0.0925 0.83051-0.2285 0.27256-0.3513 0.33436-0.36202 0.86789-0.15044 1.0826 0.42931 1.2737 0.3638 1.2241-0.41975-0.0289-0.45627 0.04562-0.76771 0.21678-0.90581 0.1503-0.12127 0.26598-0.50533 0.273-0.90637 0.0068-0.38276 0.07128-0.84263 0.1435-1.022 0.08506-0.21118-0.07196-0.89365-0.44573-1.9372-0.94937-2.6506-0.69997-4.3361 0.46343-3.132 0.57283 0.59281 0.86709 0.54093 0.86709-0.15288 0-0.3707-0.36897-1.2731-1.0405-2.5448-1.4099-2.67-1.4-3.3442 0.03618-2.4588 0.98699 0.60857 1.9391 1.7027 2.8252 3.2468 0.96615 1.6835 1.2075 1.7087 1.0834 0.11299-0.16138-2.0748 0.41109-2.4474 1.2571-0.81795 0.82729 1.5934 1.044 2.6926 1.23 6.2381 0.0948 1.8075 0.24296 3.355 0.32928 3.439 0.09362 0.09102 0.27918-0.09669 0.46001-0.46535 0.58375-1.1902 0.87599-0.50255 1.0299 2.4232 0.12896 2.4514 0.11594 2.411 0.69443 2.1548 0.40775-0.18064 0.49669-0.15932 0.78621 0.1883 0.17954 0.2156 0.32646 0.60189 0.32646 0.85847 0 0.71709 0.42607 0.97177 1.0379 0.62037 0.44581-0.25604 0.52145-0.25846 0.76219-0.0244 0.147 0.14292 0.31432 0.54193 0.37182 0.88669 0.16052 0.96233 0.38997 1.3856 0.75119 1.3856 0.45307 0 0.68347 0.31712 0.81605 1.1232 0.16762 1.0192 0.32804 1.2043 0.73397 0.84713 0.75551-0.66475 1.2597 0.18034 0.82379 1.3808-0.14734 0.40577-0.2679 0.77081-0.2679 0.81119 0 0.0404 0.35116 0.02224 0.78037-0.04034 0.73133-0.10664 0.78037-0.08958 0.78037 0.27146 0 0.21188-0.11764 0.51161-0.26144 0.66609-0.40641 0.43663-0.16056 1.3474 0.36372 1.3474 0.23132 0 0.48739 0.1483 0.59565 0.34496 0.15328 0.27846 0.1043 0.49383-0.25402 1.1172-0.55063 0.95785-0.54999 0.99825 0.02018 1.2685 0.63545 0.30118 0.66427 0.51407 0.15004 1.1082-0.53137 0.61397-0.55159 0.81453-0.09388 0.93091 0.3904 0.09926 0.47773 0.76805 0.14284 1.0937-0.15638 0.15204-0.12976 0.27814 0.11424 0.54021 0.26414 0.28376 0.2845 0.41384 0.11984 0.76519-0.10912 0.23282-0.39462 0.51023-0.63447 0.61649-0.49735 0.22032-0.55651 0.50639-0.16936 0.81881 0.20412 0.16472 0.2397 0.39714 0.15154 0.99011-0.1325 0.89123-0.33046 1.1964-0.77611 1.1964-0.48335 0-0.53959 0.25422-0.16006 0.72335 0.59447 0.73479 0.294 1.379-0.46571 0.99847-0.398-0.19936-0.75057-0.08506-0.75057 0.24332 0 0.13804 0.20088 0.58425 0.44641 0.99159 0.54609 0.90599 0.50909 1.4885-0.09956 1.5677-0.67759 0.0882-0.76825 0.29548-0.36815 0.84177 0.47373 0.64685 0.48355 1.3196 0.02132 1.4622-0.44399 0.137-0.43995 0.49519 0.0124 1.113 0.43715 0.59689 0.37812 1.0602-0.14436 1.1327-0.48381 0.06712-0.49019 0.22582-0.02552 0.63467 0.67917 0.59759 0.76331 0.93317 0.3162 1.2611-0.3572 0.26196-0.37908 0.34542-0.194 0.74033 0.45569 0.97239 0.13712 1.9332-0.52649 1.5879-0.39731-0.20674-0.36362-0.24126-0.62307 0.63803-0.15822 0.53621-0.3252 0.74091-0.71105 0.87169-0.3178 0.1077-0.52543 0.3098-0.56149 0.54651-0.0875 0.57425-0.57201 0.79633-0.97117 0.44511-0.46093-0.40555-0.51481-0.37314-0.64739 0.38979-0.1126 0.64799-0.46295 1.1769-0.77959 1.1769-0.08164 0-0.30888-0.19828-0.50493-0.44063-0.40439-0.49983-0.82659-0.44521-0.91249 0.11804-0.03124 0.20484-0.19428 0.45607-0.36228 0.55827-0.25166 0.1531-0.379 0.09672-0.72279-0.32l-0.41731-0.50581-0.50059 0.46365c-0.55333 0.51249-1.046 0.59907-1.1993 0.21076-0.14062-0.35626-0.36878-0.31624-0.96141 0.1686-0.282 0.23-0.62599 0.41999-0.76599 0.41999-0.13812 0-0.32528-0.18968-0.41593-0.42151-0.09064-0.23184-0.19608-0.42151-0.23426-0.42151s-0.51977 0.19364-1.0702 0.43031c-1.1733 0.50449-1.8319 0.48757-2.076-0.05328-0.11338-0.25132-0.26146-0.34404-0.43353-0.2715-1.3172 0.55535-1.7439 0.64481-2.0856 0.43729-0.2861-0.1737-0.53871-0.16568-1.3693 0.04356-1.338 0.3371-1.6795 0.32396-2.0956-0.08062z"
       id="path2" />
    <path
       style="opacity:.2"
       d="m36.922 45.032c-0.22752-0.0022-0.45743 0.019-0.68749 0.06446-1.9229 0.37924-4.2067 1.7711-5.4283 3.3106-0.90199 1.1367-1.3977 2.4622-1.5182 4.0605l-0.0888 1.1894 0.91093 0.96679c1.5366 1.6347 3.1462 2.1542 6.4137 2.0712 1.4569-0.03694 1.9643-0.11842 2.5408-0.40721 0.96679-0.48427 1.3874-1.0468 1.6299-2.1826 0.2563-1.2003 0.12318-5.0419-0.21484-6.2079-0.49507-1.7078-1.9652-2.8494-3.5578-2.8652zm1.7588 3.9725c0.3801 0 0.44399 0.0744 0.44399 0.52147 0 0.37162-0.09632 0.54643-0.3323 0.60643-0.30656 0.07794-0.31224 0.12672-0.08594 0.65331 0.29856 0.69473 0.3198 2.4264 0.03724 3.0292-0.38407 0.81955-1.7991 1.228-2.9992 0.86717-0.83423-0.25086-1.1223-0.73079-1.1258-1.8721-0.0064-2.0414 1.8757-3.8055 4.0619-3.8055z"
       id="path4" />
    <path
       style="fill:#929292"
       d="m36.922 44.032c-0.22752-0.0022-0.45743 0.019-0.68749 0.06446-1.9229 0.37923-4.2067 1.7711-5.4283 3.3106-0.90199 1.1367-1.3977 2.4622-1.5182 4.0605l-0.0888 1.1894 0.91093 0.96679c1.5366 1.6347 3.1462 2.1542 6.4137 2.0712 1.4569-0.03694 1.9643-0.11842 2.5408-0.40721 0.96679-0.48427 1.3874-1.0468 1.6299-2.1826 0.2563-1.2003 0.12318-5.0419-0.21484-6.2079-0.49507-1.7078-1.9652-2.8494-3.5578-2.8652zm1.7588 3.9725c0.3801 0 0.44399 0.0744 0.44399 0.52147 0 0.37162-0.09632 0.54643-0.3323 0.60643-0.30656 0.07794-0.31224 0.12672-0.08594 0.65331 0.29856 0.69473 0.3198 2.4264 0.03724 3.0292-0.38407 0.81955-1.7991 1.228-2.9992 0.86717-0.83423-0.25086-1.1223-0.73079-1.1258-1.8721-0.0064-2.0414 1.8757-3.8055 4.0619-3.8055z"
       id="path6" />
    <path
       style="fill:#ffffff"
       d="m37.45 52.708c1.2021-0.53253 0.99875-2.8476-0.25018-2.8476-0.59871 0-1.5438 1.0498-1.5407 1.7113 0.0032 0.64455 0.11488 0.85223 0.60429 1.1221 0.44169 0.24352 0.66311 0.24618 1.1866 0.0142z"
       id="path8" />
    <path
       style="opacity:.2"
       d="m48.879 55.346c0.49303-0.36382 0.69587-1.9615 0.60149-4.7379-0.08966-2.638-0.32132-3.7049-0.87491-4.0299-0.26034-0.15288-0.38531-0.10048-0.71877 0.30128-0.60631 0.73053-1.6294 3.4792-1.6498 4.4323-0.0024 0.10878 0.22386-0.024 0.50267-0.29506 0.35748-0.34756 0.67729-0.49283 1.0849-0.49283 0.52699 0 0.61401 0.07642 0.98685 0.86659 0.46945 0.99493 0.44897 2.3318-0.04306 2.8102-0.58919 0.57285-2.3928 0.15776-2.5878-0.59561-0.04262-0.16456-0.05208-0.04584-0.02102 0.2638 0.07142 0.71203 0.33086 1.0143 1.2005 1.3989 0.82411 0.36448 1.1112 0.37928 1.519 0.07832z"
       id="path10" />
    <path
       style="fill:#929292"
       d="m48.879 54.346c0.49303-0.36382 0.69587-1.9615 0.60149-4.7379-0.08966-2.638-0.32132-3.7049-0.87491-4.0299-0.26034-0.15288-0.38531-0.10048-0.71877 0.30128-0.60631 0.73053-1.6294 3.4792-1.6498 4.4323-0.0024 0.10878 0.22386-0.024 0.50267-0.29506 0.35748-0.34756 0.67729-0.49283 1.0849-0.49283 0.52699 0 0.61401 0.07642 0.98685 0.86659 0.46945 0.99493 0.44897 2.3318-0.04306 2.8102-0.58919 0.57285-2.3928 0.15776-2.5878-0.59561-0.04262-0.16456-0.05208-0.04584-0.02102 0.2638 0.07142 0.71203 0.33086 1.0143 1.2005 1.3989 0.82411 0.36448 1.1112 0.37928 1.519 0.07832z"
       id="path12" />
    <path
       style="fill:#ffffff"
       d="m48.215 52.462c0.38863-0.37786 0.33688-0.99231-0.12784-1.5176-0.51929-0.58695-1.0939-0.44677-1.3034 0.31798-0.22606 0.82517 0.06548 1.4646 0.66779 1.4646 0.27 0 0.61351-0.11922 0.76341-0.26496z"
       id="path14" />
    <path
       style="opacity:.1;fill:#ffffff"
       d="m21.789 2.0039c-0.124 0.0176-0.18 0.1407-0.18 0.3652 0 0.1635 0.042 0.4003 0.108 0.6719 0.176-0.1281 0.584 0.1156 1.322 0.7715 0.978 0.8693 1.788 2.167 2.291 3.6758 0.476 1.4253 0.772 1.1805 0.879-0.7246 0.073-1.2985 0.153-1.5938 0.434-1.5938 0.324 0 0.689 1.0333 1.048 2.9746 0.189 1.0194 0.271 1.6741 0.291 2.4825 0.036-1.3886-0.033-2.0902-0.291-3.4825-0.359-1.9413-0.724-2.9746-1.048-2.9746-0.281 0-0.361 0.2953-0.434 1.5938-0.107 1.9051-0.403 2.1499-0.879 0.7246-0.503-1.5088-1.313-2.8065-2.291-3.6758-0.646-0.5744-1.043-0.838-1.25-0.8086zm13.787 4.1484c-0.334-0.0361-0.35 0.3007-0.078 1.0176 0.175-0.0243 0.459 0.0822 0.887 0.3457 0.987 0.6086 1.94 1.7041 2.826 3.2484 0.966 1.683 1.206 1.707 1.082 0.111-0.001-0.009 0.001-0.015 0-0.023-0.088 0.44-0.404 0.094-1.082-1.0883-0.886-1.544-1.839-2.6395-2.826-3.2481-0.359-0.2213-0.628-0.3437-0.809-0.3633zm-13.972 0.7149c-0.392 0-0.538 0.5602-0.438 1.6074 0.058-0.3929 0.201-0.6074 0.438-0.6074 0.179 0 0.48 0.19 0.667 0.4219 0.393 0.4856 0.644 0.5339 0.793 0.1543 0.121-0.3043 0.117-0.596-0.007-0.9883-0.151 0.362-0.398 0.3126-0.786-0.166-0.187-0.2319-0.488-0.4219-0.667-0.4219zm19.134 1.1875c-0.354-0.1047-0.538 0.5103-0.447 1.7676 0.099-1.0708 0.59-1.0537 1.26 0.2367 0.827 1.593 1.044 2.692 1.23 6.238 0.095 1.807 0.242 3.353 0.328 3.437 0.094 0.091 0.28-0.096 0.461-0.464 0.584-1.191 0.876-0.502 1.03 2.423 0.129 2.452 0.116 2.411 0.695 2.155 0.408-0.181 0.496-0.16 0.785 0.187 0.18 0.216 0.326 0.603 0.326 0.86 0 0.717 0.427 0.97 1.039 0.619 0.446-0.256 0.521-0.258 0.762-0.024 0.147 0.143 0.314 0.542 0.371 0.887 0.161 0.962 0.391 1.385 0.752 1.385 0.453 0 0.684 0.317 0.816 1.123 0.168 1.019 0.329 1.205 0.735 0.847 0.42-0.369 0.754-0.261 0.9 0.104 0.266-1.045-0.205-1.715-0.9-1.104-0.406 0.358-0.567 0.174-0.735-0.845-0.132-0.806-0.363-1.125-0.816-1.125-0.361 0-0.591-0.423-0.752-1.385-0.057-0.345-0.224-0.744-0.371-0.887-0.241-0.234-0.316-0.23-0.762 0.026-0.612 0.351-1.039 0.096-1.039-0.621 0-0.257-0.146-0.644-0.326-0.86-0.289-0.347-0.377-0.368-0.785-0.187-0.579 0.256-0.566 0.297-0.695-2.155-0.154-2.925-0.446-3.614-1.03-2.423-0.181 0.368-0.367 0.555-0.461 0.464-0.086-0.084-0.233-1.63-0.328-3.437-0.186-3.546-0.403-4.645-1.23-6.2384-0.317-0.611-0.597-0.9401-0.813-1.0039zm-4.912 3.2263c-0.304 0.053-0.403 0.595-0.299 1.422 0.115-0.506 0.449-0.595 0.994-0.031 0.573 0.593 0.868 0.541 0.868-0.152 0-0.115-0.045-0.295-0.114-0.506-0.133 0.151-0.385 0.039-0.754-0.342-0.29-0.301-0.523-0.421-0.695-0.391zm-14.23 1.428c-0.064 0.656-0.238 1.146-0.53 1.43-0.304 0.296-0.367 0.492-0.224 1.285 0.05-0.1 0.123-0.186 0.224-0.285 0.421-0.41 0.584-1.263 0.53-2.43zm6.312 1.385c-0.014 0.854-0.009 1.577 0.037 1.718l0.125 0.385 0.401-0.486 0.398-0.488 0.123 0.476c0.028 0.109 0.042 0.5 0.051 0.922 0.008-0.929-0.003-1.736-0.051-1.92l-0.123-0.478-0.398 0.488-0.401 0.486-0.125-0.385c-0.023-0.072-0.029-0.418-0.037-0.718zm8.531 2.945c-0.04 0.217-0.073 0.473-0.078 0.725-0.007 0.401-0.123 0.785-0.273 0.906-0.171 0.138-0.246 0.45-0.217 0.906 0.05 0.784-0.142 0.849-1.225 0.42-0.533-0.211-0.594-0.201-0.867 0.15-0.249 0.321-0.374 0.356-0.83 0.229-0.295-0.082-0.867-0.363-1.271-0.623-0.79-0.508-1.25-0.44-1.373 0.201-0.137 0.711-1.093 1.228-1.289 0.697-0.013-0.032-0.011-0.324-0.016-0.519-0.012 0.795-0.013 1.443 0.016 1.519 0.196 0.531 1.152 0.012 1.289-0.699 0.123-0.641 0.583-0.707 1.373-0.199 0.404 0.26 0.976 0.541 1.271 0.623 0.456 0.127 0.581 0.092 0.83-0.229 0.273-0.351 0.334-0.361 0.867-0.15 1.083 0.429 1.275 0.364 1.225-0.42-0.029-0.456 0.046-0.768 0.217-0.906 0.15-0.121 0.266-0.505 0.273-0.906 0.007-0.383 0.071-0.842 0.143-1.022 0.044-0.109 0.018-0.356-0.065-0.703zm-15.347 0.596c-0.091 0.027-0.227 0.023-0.43 0.023-0.55 0-0.61 0.051-0.715 0.596-0.038 0.198-0.029 0.593 0 1.025 0.001-0.006-0.001-0.021 0-0.027 0.105-0.545 0.165-0.594 0.715-0.594 0.612 0 0.652 0.002 0.43-1.023zm-2.026 3.662c-0.128-0.018-0.232-0.014-0.279 0.014-0.097 0.058-0.088 0.484-0.029 1.078 0.011-0.022 0.014-0.07 0.029-0.078 0.093-0.056 0.413-0.014 0.709 0.095 0.297 0.109 0.582 0.157 0.635 0.106 0.042-0.041 0.01-0.48-0.055-0.998-0.093 0.024-0.319-0.012-0.58-0.108-0.148-0.054-0.301-0.092-0.43-0.109zm-0.181 3.039c-0.064 0.073-0.155 0.134-0.315 0.205-0.397 0.176-0.455 0.285-0.371 0.695 0.114 0.555-0.081 0.773-0.84 0.936-1.435 0.308-1.876 0.743-1.441 1.42 0.027 0.042 0.044 0.082 0.061 0.121 0.245-0.217 0.696-0.394 1.38-0.541 0.759-0.163 0.954-0.381 0.84-0.936-0.084-0.41-0.026-0.519 0.371-0.695 0.419-0.186 0.46-0.275 0.368-0.807-0.03-0.17-0.029-0.245-0.053-0.398zm-3.106 3.914c-0.21 0.162-0.553 0.323-1.109 0.506-1.191 0.392-1.642 0.993-1.147 1.525 0.025 0.026 0.035 0.042 0.055 0.065 0.223-0.22 0.587-0.424 1.092-0.59 1.237-0.408 1.547-0.698 1.248-1.164-0.079-0.123-0.118-0.235-0.139-0.342zm36.867 2.582c-0.107 0.008-0.246 0.026-0.429 0.053-0.181 0.026-0.331 0.039-0.463 0.049-0.018 0.06-0.028 0.117-0.051 0.179-0.147 0.406-0.267 0.77-0.267 0.811 0 0.04 0.352 0.023 0.781-0.039 0.245-0.036 0.394-0.049 0.51-0.049 0.003-0.004 0.005-0.01 0.009-0.014 0.144-0.154 0.26-0.454 0.26-0.666 0-0.271-0.027-0.347-0.35-0.324zm-39.181 0.363c-0.187 0.258-0.519 0.551-0.805 0.684-0.315 0.146-0.702 0.458-0.861 0.693-0.266 0.395-0.266 0.461-0.008 0.844 0.027 0.039 0.036 0.068 0.059 0.105 0.175-0.228 0.516-0.506 0.81-0.642 0.315-0.146 0.709-0.49 0.875-0.764 0.289-0.475 0.288-0.513-0.012-0.836-0.025-0.027-0.037-0.056-0.058-0.084zm39.217 1.709c-0.317 0.458-0.077 1.266 0.418 1.266 0.173 0 0.34 0.096 0.468 0.221 0.228-0.434 0.257-0.641 0.127-0.877-0.108-0.197-0.364-0.344-0.595-0.344-0.178 0-0.319-0.111-0.418-0.266zm-40.875 1.539c-0.043 0.03-0.071 0.063-0.125 0.09-0.647 0.324-1.344 1.04-1.344 1.381 0 0.15 0.114 0.357 0.258 0.514 0.259-0.327 0.673-0.689 1.086-0.895 0.453-0.226 0.486-0.541 0.125-1.09zm41.525 1.385c-0.414 0.736-0.391 0.826 0.129 1.072 0.07 0.034 0.105 0.064 0.16 0.096 0.502-0.583 0.47-0.797-0.16-1.096-0.058-0.027-0.083-0.048-0.129-0.072zm0.293 2.162c-0.006 0.007-0.008 0.011-0.014 0.018-0.531 0.614-0.551 0.815-0.093 0.931 0.058 0.015 0.106 0.046 0.15 0.082 0.289-0.295 0.247-0.848-0.043-1.031zm-42.639 0.045c-0.071 0.134-0.166 0.277-0.314 0.459-0.653 0.799-0.8301 1.54-0.51 1.811 0.113-0.253 0.278-0.527 0.51-0.811 0.411-0.503 0.498-0.741 0.42-1.166-0.017-0.093-0.065-0.194-0.106-0.293zm42.854 1.621c-0.026 0.14-0.076 0.276-0.18 0.377-0.146 0.143-0.116 0.271 0.086 0.5 0.052-0.066 0.119-0.131 0.149-0.195 0.146-0.313 0.134-0.455-0.055-0.682zm-43.244 1.782c-0.469 0.666-0.508 1.02-0.162 1.261 0.057-0.095 0.1-0.179 0.179-0.291 0.441-0.618 0.422-0.924-0.017-0.97zm42.636 0.535c-0.465 0.218-0.52 0.495-0.142 0.8 0.05 0.041 0.09 0.086 0.121 0.139 0.009-0.054 0.022-0.089 0.031-0.148 0.06-0.4 0.057-0.63-0.01-0.791zm-42.582 1.867c-0.056 0.093-0.099 0.171-0.162 0.269-0.4979 0.779-0.5544 1.242-0.183 1.34 0.058-0.111 0.101-0.211 0.183-0.34 0.298-0.466 0.543-0.905 0.543-0.976 0-0.066-0.171-0.191-0.381-0.293zm41.84 1.115c-0.009 0-0.015 0.006-0.025 0.006-0.484 0-0.54 0.253-0.16 0.723 0.024 0.029 0.037 0.058 0.058 0.087 0.271-0.075 0.348-0.406 0.127-0.816zm-41.562 1.502c-0.044-0.004-0.125 0.005-0.188 0.008-0.134 0.347-0.221 0.708-0.195 1.006 0.013 0.147 0.032 0.257 0.06 0.347 0.054-0.221 0.137-0.446 0.247-0.654 0.279-0.532 0.339-0.686 0.076-0.707zm40.441 0.145c-0.166 0.032-0.279 0.141-0.279 0.324 0 0.138 0.2 0.583 0.445 0.99 0.098 0.162 0.155 0.301 0.215 0.441 0.278-0.227 0.211-0.735-0.215-1.441-0.065-0.107-0.11-0.208-0.166-0.314zm-39.752 2.255c-0.033 0.006-0.083 0.025-0.137 0.045-0.059 0.362-0.053 0.644 0.041 0.823 0.037-0.173 0.061-0.329 0.127-0.537 0.086-0.266 0.093-0.352-0.031-0.331zm39.571 0.684c-0.42 0.11-0.457 0.324-0.12 0.785 0.088 0.12 0.142 0.238 0.198 0.356 0.231-0.216 0.193-0.667-0.078-1.141zm-38.555 1.385c-0.011-0.001-0.032 0.004-0.043 0.004-0.166 0.505-0.198 0.967-0.074 1.261 0.037-0.158 0.071-0.317 0.14-0.486 0.229-0.556 0.25-0.763-0.023-0.779zm38.414 0.888c-0.388 0.15-0.378 0.497 0.055 1.088 0.015 0.022 0.018 0.04 0.033 0.061 0.33-0.155 0.34-0.551-0.033-1.061-0.024-0.032-0.034-0.056-0.055-0.088zm0.148 2.124c-0.066 0.042-0.136 0.081-0.238 0.095-0.484 0.067-0.49 0.226-0.025 0.635 0.121 0.107 0.201 0.197 0.285 0.289 0.013-0.01 0.017-0.017 0.031-0.027 0.373-0.274 0.351-0.561-0.053-0.992zm-0.021 2.052c-0.272 0.213-0.288 0.32-0.119 0.68 0.054 0.116 0.096 0.23 0.129 0.344 0.104-0.25 0.112-0.621-0.01-1.024zm-31.235 3.045c0.006 0.013 0.011 0.028 0.018 0.039l0.004-0.037-0.022-0.002z"
       id="path16" />
  </g>
</svg>
