<?xml version="1.0" encoding="UTF-8"?>
<svg width="64" height="64" version="1.1" xmlns="http://www.w3.org/2000/svg" xmlns:cc="http://creativecommons.org/ns#" xmlns:dc="http://purl.org/dc/elements/1.1/" xmlns:rdf="http://www.w3.org/1999/02/22-rdf-syntax-ns#">
 <metadata>
  <rdf:RDF>
   <cc:Work rdf:about="">
    <dc:format>image/svg+xml</dc:format>
    <dc:type rdf:resource="http://purl.org/dc/dcmitype/StillImage"/>
    <dc:title/>
   </cc:Work>
  </rdf:RDF>
 </metadata>
 <defs>
  <linearGradient id="a" x1="99.036" x2="99.036" y1="11.64" y2="199.84" gradientTransform="matrix(.3 0 0 .3 2 2.0015)" gradientUnits="userSpaceOnUse">
   <stop stop-color="#ff4b00" offset="0"/>
   <stop stop-color="#f50f2d" offset="1"/>
  </linearGradient>
  <linearGradient id="b" x2="0" y1="33" y2="7.3099" gradientTransform="matrix(1.75 0 0 1.75 54.75 -2.9998)" gradientUnits="userSpaceOnUse">
   <stop stop-color="#fcdbd4" offset="0"/>
   <stop stop-color="#fff" offset="1"/>
  </linearGradient>
  <filter id="filter4273" x="-.0625" y="-.057692" width="1.125" height="1.1154" color-interpolation-filters="sRGB">
   <feGaussianBlur stdDeviation="1.093751"/>
  </filter>
 </defs>
 <circle cx="32" cy="32.002" r="30" color="#000000" fill="url(#a)"/>
 <path d="m25 9.25c-0.875 0-3.9375 3.5-4.375 3.5h-2.1875c-0.875 0-3.9375 3.0625-3.9375 3.9375v2.625c0 0.4375-3.4808 3.5-3.5 4.375s6.125 21.438 7 22.312 10.5 8.75 13.125 8.75h1.75c2.625 0 12.25-7.875 13.125-8.75s7.0175-21.438 7-22.312c-0.01925-0.86975-3.5-3.9375-3.5-4.375v-2.625c0-0.875-3.0625-3.9375-3.9375-3.9375h-2.1875c-0.4375 0-3.5-3.5-4.375-3.5h-14zm7 6.1113c0.875 0 1.7395 0.29892 2.625 0.88867 2.625 1.75 6.125-0.875 7-0.875s6.125 6.3752 6.125 8.75c0 1.75-6.5625 5.775-6.5625 7 0 0.875 1.3125 1.2973 1.3125 3.1523 0 1.2232-1.75 3.4102-3.5 3.4102s-6.1285-3.4347-6.125-4.2852v-0.52734c0-1.05 3.9375-2.373 3.9375-4.375 0-1.75-1.3125-2.3975-1.3125-4.375 0-1.701 3.5-2.1875 6.125-2.625 0.875 0-2.625-2.8791-7.4375 0.23242-1.218 0.7875 1.3125 3.9011 0.875 6.7676-0.65625 0.6125-1.8585 0.91992-3.0625 0.91992-1.2022 0-2.4062-0.30742-3.0625-0.91992-0.4375-2.8665 2.093-5.9801 0.875-6.7676-4.8125-3.1115-8.3125-0.23242-7.4375-0.23242 2.625 0.4375 6.125 0.924 6.125 2.625 0 1.9775-1.3125 2.625-1.3125 4.375 0 2.002 3.9375 3.325 3.9375 4.375v0.52734c0.0035 0.8505-4.375 4.2852-6.125 4.2852s-3.5-2.1869-3.5-3.4102c0-1.8568 1.3125-2.2773 1.3125-3.1523 0-1.225-6.5625-5.25-6.5625-7 0-2.3748 5.25-8.75 6.125-8.75s4.375 2.625 7 0.875c0.8855-0.58975 1.7535-0.88867 2.625-0.88867zm0 20.84c1.75 0 5.6875 2.7113 5.6875 3.2363s-3.9375 4.8125-5.6875 4.8125-5.6875-4.2875-5.6875-4.8125 3.9375-3.2363 5.6875-3.2363z" fill="#f50f2d" filter="url(#filter4273)"/>
 <path d="m25 9.25c-0.875 0-3.9375 3.5-4.375 3.5h-2.1875c-0.875 0-3.9375 3.0625-3.9375 3.9375v2.625c0 0.4375-3.4808 3.5-3.5 4.375s6.125 21.438 7 22.312 10.5 8.75 13.125 8.75h1.75c2.625 0 12.25-7.875 13.125-8.75s7.0175-21.438 7-22.312c-0.01925-0.86975-3.5-3.9375-3.5-4.375v-2.625c0-0.875-3.0625-3.9375-3.9375-3.9375h-2.1875c-0.4375 0-3.5-3.5-4.375-3.5zm7 6.1113c0.875 0 1.7395 0.29892 2.625 0.88867 2.625 1.75 6.125-0.875 7-0.875s6.125 6.3752 6.125 8.75c0 1.75-6.5625 5.775-6.5625 7 0 0.875 1.3125 1.2973 1.3125 3.1523 0 1.2232-1.75 3.4102-3.5 3.4102s-6.1285-3.4347-6.125-4.2852v-0.52734c0-1.05 3.9375-2.373 3.9375-4.375 0-1.75-1.3125-2.3975-1.3125-4.375 0-1.701 3.5-2.1875 6.125-2.625 0.875 0-2.625-2.8791-7.4375 0.23242-1.218 0.7875 1.3125 3.9011 0.875 6.7676-0.65625 0.6125-1.8585 0.91992-3.0625 0.91992-1.2022 0-2.4062-0.30742-3.0625-0.91992-0.4375-2.8665 2.093-5.9801 0.875-6.7676-4.8125-3.1115-8.3125-0.23242-7.4375-0.23242 2.625 0.4375 6.125 0.924 6.125 2.625 0 1.9775-1.3125 2.625-1.3125 4.375 0 2.002 3.9375 3.325 3.9375 4.375v0.52734c0.0035 0.8505-4.375 4.2852-6.125 4.2852s-3.5-2.1869-3.5-3.4102c0-1.8568 1.3125-2.2773 1.3125-3.1523 0-1.225-6.5625-5.25-6.5625-7 0-2.3748 5.25-8.75 6.125-8.75s4.375 2.625 7 0.875c0.8855-0.58975 1.7535-0.88867 2.625-0.88867zm0 20.84c1.75 0 5.6875 2.7113 5.6875 3.2363s-3.9375 4.8125-5.6875 4.8125-5.6875-4.2875-5.6875-4.8125 3.9375-3.2363 5.6875-3.2363z" fill="url(#b)"/>
 <style type="text/css">.st0{opacity:0.15;fill:#45413C;}
	.st1{fill:#FFE500;}
	.st2{fill:#EBCB00;}
	.st3{fill:none;stroke:#45413C;stroke-linecap:round;stroke-linejoin:round;stroke-miterlimit:10;}
	.st4{fill:#FFAA54;}
	.st5{fill:#FF8A14;}
	.st6{fill:#FFB0CA;stroke:#45413C;stroke-linecap:round;stroke-linejoin:round;stroke-miterlimit:10;}
	.st7{fill:#FF87AF;stroke:#45413C;stroke-linecap:round;stroke-linejoin:round;stroke-miterlimit:10;}
	.st8{fill:#FFCC99;}
	.st9{fill:#FFFFFF;}
	.st10{fill:#F0F0F0;}
	.st11{fill:#BF8256;}
	.st12{fill:#915E3A;}
	.st13{fill:#DEA47A;}
	.st14{fill:#F0D5A8;}
	.st15{fill:#DEBB7E;}
	.st16{fill:#F7E5C6;}
	.st17{fill:#FF8A14;stroke:#45413C;stroke-linecap:round;stroke-linejoin:round;stroke-miterlimit:10;}
	.st18{fill:#FFF5E3;}
	.st19{fill:#FFF48C;}
	.st20{fill:#FFFACF;}
	.st21{fill:#FFFCE5;}
	.st22{fill:#FF87AF;}
	.st23{fill:#FFB0CA;}
	.st24{fill:#FFE500;stroke:#45413C;stroke-linecap:round;stroke-linejoin:round;stroke-miterlimit:10;}
	.st25{fill:#9CEB60;stroke:#45413C;stroke-linecap:round;stroke-linejoin:round;stroke-miterlimit:10;}
	.st26{fill:#FFFACF;stroke:#45413C;stroke-linecap:round;stroke-linejoin:round;stroke-miterlimit:10;}
	.st27{fill:#00F5BC;stroke:#45413C;stroke-linecap:round;stroke-linejoin:round;stroke-miterlimit:10;}
	.st28{fill:#BF8256;stroke:#45413C;stroke-linecap:round;stroke-linejoin:round;stroke-miterlimit:10;}
	.st29{fill:#FFE3CF;stroke:#45413C;stroke-linecap:round;stroke-linejoin:round;stroke-miterlimit:10;}
	.st30{fill:#FF6242;}
	.st31{fill:#FF866E;}
	.st32{fill:none;stroke:#E04122;stroke-linecap:round;stroke-linejoin:round;stroke-miterlimit:10;}
	.st33{fill:#FFFEF2;stroke:#45413C;stroke-linecap:round;stroke-linejoin:round;stroke-miterlimit:10;}
	.st34{fill:#FF6242;stroke:#45413C;stroke-linecap:round;stroke-linejoin:round;stroke-miterlimit:10;}
	.st35{fill:#FFA694;}
	.st36{fill:#FFFFFF;stroke:#45413C;stroke-linecap:round;stroke-linejoin:round;stroke-miterlimit:10;}
	.st37{fill:#FFFEF2;}
	.st38{fill:#FF6196;}
	.st39{fill:#B89558;}
	.st40{fill:none;stroke:#915E3A;stroke-linecap:round;stroke-linejoin:round;stroke-miterlimit:10;}
	.st41{fill:#DEBB7E;stroke:#45413C;stroke-linecap:round;stroke-linejoin:round;stroke-miterlimit:10;}
	.st42{fill:#6DD627;stroke:#45413C;stroke-linecap:round;stroke-linejoin:round;stroke-miterlimit:10;}
	.st43{fill:#E5F8FF;}
	.st44{fill:#E8F4FA;}
	.st45{fill:#E8F4FA;stroke:#45413C;stroke-linecap:round;stroke-linejoin:round;stroke-miterlimit:10;}
	.st46{fill:#FFCCDD;}
	.st47{fill:#E5F8FF;stroke:#45413C;stroke-linecap:round;stroke-linejoin:round;stroke-miterlimit:10;}
	.st48{fill:#00B8F0;stroke:#45413C;stroke-linecap:round;stroke-linejoin:round;stroke-miterlimit:10;}
	.st49{fill:#00B8F0;}
	.st50{fill:#4ACFFF;}
	.st51{fill:#E04122;}
	.st52{fill:#E04122;stroke:#45413C;stroke-linecap:round;stroke-linejoin:round;stroke-miterlimit:10;}
	.st53{fill:#87898C;}
	.st54{fill:#BDBEC0;}
	.st55{fill:#656769;}
	.st56{fill:#525252;}
	.st57{fill:#FFF48C;stroke:#45413C;stroke-linecap:round;stroke-linejoin:round;stroke-miterlimit:10;}
	.st58{fill:#6DD627;}
	.st59{fill:#EB6D00;}
	.st60{fill:#46B000;}
	.st61{fill:#80DDFF;}
	.st62{fill:#DAEDF7;}
	.st63{fill:#BF8DF2;stroke:#45413C;stroke-linecap:round;stroke-linejoin:round;stroke-miterlimit:10;}
	.st64{fill:#9F5AE5;stroke:#45413C;stroke-linecap:round;stroke-linejoin:round;stroke-miterlimit:10;}
	.st65{fill:#C8FFA1;}
	.st66{fill:#E4FFD1;}
	.st67{fill:#9CEB60;}
	.st68{fill:#E5FEFF;}
	.st69{fill:#B8ECFF;}
	.st70{fill:#E0E0E0;stroke:#45413C;stroke-linecap:round;stroke-linejoin:round;stroke-miterlimit:10;}
	.st71{fill:#E0E0E0;}
	.st72{fill:none;stroke:#4F4B45;stroke-linejoin:round;stroke-miterlimit:10;}
	.st73{fill:none;stroke:#4F4B45;stroke-linecap:round;stroke-linejoin:round;stroke-miterlimit:10;}
	.st74{fill:#E0366F;stroke:#45413C;stroke-linecap:round;stroke-linejoin:round;stroke-miterlimit:10;}
	.st75{fill:none;stroke:#45413C;stroke-miterlimit:10;}
	.st76{fill:#FF866E;stroke:#45413C;stroke-linecap:round;stroke-linejoin:round;stroke-miterlimit:10;}
	.st77{fill:#45413C;stroke:#45413C;stroke-linecap:round;stroke-linejoin:round;stroke-miterlimit:10;}
	.st78{fill:#9F5AE5;}
	.st79{fill:#803EC2;}
	.st80{fill:#803EC2;stroke:#45413C;stroke-linecap:round;stroke-linejoin:round;stroke-miterlimit:10;}
	.st81{fill:#BF8DF2;}
	.st82{fill:#FFAA54;stroke:#45413C;stroke-linecap:round;stroke-linejoin:round;stroke-miterlimit:10;}
	.st83{fill:none;stroke:#45413C;stroke-linejoin:round;stroke-miterlimit:10;}
	.st84{fill:#FFCCDD;stroke:#45413C;stroke-linecap:round;stroke-linejoin:round;stroke-miterlimit:10;}
	.st85{fill:#FF6196;stroke:#45413C;stroke-linecap:round;stroke-linejoin:round;stroke-miterlimit:10;}
	.st86{fill:#FFE5EE;}
	.st87{fill:#F7E5C6;stroke:#45413C;stroke-linecap:round;stroke-linejoin:round;stroke-miterlimit:10;}
	.st88{fill:#E5FFF9;}
	.st89{fill:none;stroke:#45413C;stroke-width:1.0064;stroke-linecap:round;stroke-linejoin:round;stroke-miterlimit:10;}
	.st90{fill:#4AEFF7;}
	.st91{fill:#A6FBFF;}
	.st92{fill:#E5FEFF;stroke:#45413C;stroke-linecap:round;stroke-linejoin:round;stroke-miterlimit:10;}
	.st93{fill:#46B000;stroke:#45413C;stroke-linecap:round;stroke-linejoin:round;stroke-miterlimit:10;}
	.st94{fill:#FFFFFF;stroke:#45413C;stroke-linejoin:round;stroke-miterlimit:10;}
	.st95{fill:#FFFFFF;stroke:#45413C;stroke-miterlimit:10;}
	.st96{fill:#009FD9;}
	.st97{fill:#00DFEB;}
	.st98{fill:#C0DCEB;stroke:#45413C;stroke-linecap:round;stroke-linejoin:round;stroke-miterlimit:10;}
	.st99{fill:#00DFEB;stroke:#45413C;stroke-linecap:round;stroke-linejoin:round;stroke-miterlimit:10;}
	.st100{fill:#FFE5EE;stroke:#45413C;stroke-linecap:round;stroke-linejoin:round;stroke-miterlimit:10;}
	.st101{fill:#8CA4B8;}
	.st102{fill:#ADC4D9;}
	.st103{fill:#656769;stroke:#45413C;stroke-linecap:round;stroke-linejoin:round;stroke-miterlimit:10;}
	.st104{fill:#F0F0F0;stroke:#45413C;stroke-linecap:round;stroke-linejoin:round;stroke-miterlimit:10;}
	.st105{fill:#C0DCEB;}
	.st106{fill:#45413C;}
	.st107{fill:#FFCABF;}
	.st108{fill:#87898C;stroke:#45413C;stroke-linecap:round;stroke-linejoin:round;stroke-miterlimit:10;}
	.st109{fill:#EBCB00;stroke:#45413C;stroke-linecap:round;stroke-linejoin:round;stroke-miterlimit:10;}</style>
</svg>
