<?xml version="1.0" encoding="UTF-8" standalone="no"?>
<svg
   xmlns:dc="http://purl.org/dc/elements/1.1/"
   xmlns:cc="http://creativecommons.org/ns#"
   xmlns:rdf="http://www.w3.org/1999/02/22-rdf-syntax-ns#"
   xmlns:svg="http://www.w3.org/2000/svg"
   xmlns="http://www.w3.org/2000/svg"
   xmlns:xlink="http://www.w3.org/1999/xlink"
   xmlns:sodipodi="http://sodipodi.sourceforge.net/DTD/sodipodi-0.dtd"
   xmlns:inkscape="http://www.inkscape.org/namespaces/inkscape"
   inkscape:version="1.0 (4035a4fb49, 2020-05-01)"
   sodipodi:docname="cherrytree.svg"
   id="svg18"
   viewBox="0 0 16.933 16.933"
   version="1.1"
   height="64"
   width="64">
  <metadata
     id="metadata24">
    <rdf:RDF>
      <cc:Work
         rdf:about="">
        <dc:format>image/svg+xml</dc:format>
        <dc:type
           rdf:resource="http://purl.org/dc/dcmitype/StillImage" />
        <dc:title></dc:title>
      </cc:Work>
    </rdf:RDF>
  </metadata>
  <defs
     id="defs22">
    <linearGradient
       inkscape:collect="always"
       id="linearGradient1006">
      <stop
         style="stop-color:#d3d3d3;stop-opacity:1"
         offset="0"
         id="stop1002" />
      <stop
         style="stop-color:#858585;stop-opacity:1"
         offset="1"
         id="stop1004" />
    </linearGradient>
    <linearGradient
       inkscape:collect="always"
       id="linearGradient999">
      <stop
         style="stop-color:#d3d3d3;stop-opacity:1"
         offset="0"
         id="stop995" />
      <stop
         style="stop-color:#858585;stop-opacity:1"
         offset="1"
         id="stop997" />
    </linearGradient>
    <linearGradient
       id="c"
       x1="200"
       x2="200"
       y1="268"
       y2="44"
       gradientTransform="matrix(0.086563,0,0,0.086563,-19.285,288.52)"
       gradientUnits="userSpaceOnUse">
      <stop
         stop-color="#e6e6e6"
         offset="0"
         id="stop834" />
      <stop
         stop-color="#d3d3d3"
         offset="1"
         id="stop836" />
    </linearGradient>
    <linearGradient
       id="d"
       x1="152"
       x2="152"
       y1="100"
       y2="212"
       gradientTransform="translate(-64,-68)"
       gradientUnits="userSpaceOnUse">
      <stop
         stop-opacity="0"
         offset="0"
         id="stop839" />
      <stop
         offset=".5"
         id="stop841" />
      <stop
         stop-opacity="0"
         offset="1"
         id="stop843" />
    </linearGradient>
    <filter
       id="a"
       x="-.024"
       y="-.024"
       width="1.048"
       height="1.048"
       color-interpolation-filters="sRGB">
      <feGaussianBlur
         stdDeviation="1.5000091"
         id="feGaussianBlur846" />
    </filter>
    <linearGradient
       id="b"
       x1="152"
       x2="152"
       y1="124"
       y2="236"
       gradientUnits="userSpaceOnUse">
      <stop
         offset="0"
         id="stop849" />
      <stop
         stop-opacity="0"
         offset="1"
         id="stop851" />
    </linearGradient>
    <clipPath
       id="f">
      <path
         d="m152 68c-48.601 0-88 39.399-88 88s39.399 88 88 88 88-39.399 88-88-39.399-88-88-88z"
         color="#000000"
         fill="#5d5d5d"
         id="path854" />
    </clipPath>
    <filter
       id="e"
       x="-.06"
       y="-.06"
       width="1.12"
       height="1.12"
       color-interpolation-filters="sRGB">
      <feGaussianBlur
         stdDeviation="4.4"
         id="feGaussianBlur857" />
    </filter>
    <style
       type="text/css"
       id="style857" />
    <linearGradient
       gradientTransform="matrix(0.06445408,0,0,0.06445408,-1.6792525,-0.87806223)"
       y2="951.04694"
       x2="500.11551"
       y1="371.07248"
       x1="500.11551"
       gradientUnits="userSpaceOnUse"
       id="linearGradient920"
       xlink:href="#linearGradient1006"
       inkscape:collect="always" />
    <linearGradient
       gradientTransform="matrix(0.06445408,0,0,0.06445408,-1.6792525,-0.87806225)"
       y2="563.1684"
       x2="625.39099"
       y1="70.322533"
       x1="625.39099"
       gradientUnits="userSpaceOnUse"
       id="linearGradient926"
       xlink:href="#linearGradient999"
       inkscape:collect="always" />
    <filter
       height="1.1138922"
       y="-0.056946117"
       width="1.0829662"
       x="-0.041483092"
       id="filter1024"
       style="color-interpolation-filters:sRGB"
       inkscape:collect="always">
      <feGaussianBlur
         id="feGaussianBlur1026"
         stdDeviation="0.22461558"
         inkscape:collect="always" />
    </filter>
  </defs>
  <sodipodi:namedview
     inkscape:document-rotation="0"
     inkscape:current-layer="svg18"
     inkscape:window-maximized="1"
     inkscape:window-y="36"
     inkscape:window-x="0"
     inkscape:cy="93.985901"
     inkscape:cx="68.721881"
     inkscape:zoom="1.84375"
     showgrid="false"
     id="namedview20"
     inkscape:window-height="936"
     inkscape:window-width="1920"
     inkscape:pageshadow="2"
     inkscape:pageopacity="0"
     guidetolerance="10"
     gridtolerance="10"
     objecttolerance="10"
     borderopacity="1"
     bordercolor="#666666"
     pagecolor="#ffffff" />
  <path
     id="path1008"
     style="fill:#000000;fill-opacity:1;stroke-width:0.0170531;opacity:0.5;filter:url(#filter1024)"
     d="M 3.8518854,6.805652 C 2.66439,6.8286385 1.6629554,7.7912417 1.4381268,9.8100606 1.1823751,11.519558 2.0424862,13.665216 3.6544853,13.62629 c 0.3943595,-0.0095 0.8024308,0.161951 0.9177553,0.21652 0.5331657,0.252358 1.0564335,0.238216 1.5430278,0.07028 C 5.8871225,13.247812 5.7881713,12.519242 5.8439727,11.827986 5.9007099,10.561253 6.2430829,9.6015085 6.7942836,8.9594832 7.163736,8.5291535 7.6289662,8.2530028 8.1383611,8.1249253 7.6940706,7.6789825 7.0757235,7.4141261 6.3720952,7.4092208 5.8725976,7.4073952 5.4784186,7.2802295 5.0796933,7.091417 4.6643241,6.894692 4.2477171,6.7979895 3.8518854,6.805652 Z m 5.0585061,1.5016877 c -1.478471,-0.061644 -2.6952803,1.0811408 -2.8028744,3.5392493 -0.156798,1.926685 0.9630792,4.256096 2.7584338,4.091659 0.4391068,-0.04002 0.9074386,0.121089 1.0402259,0.173113 2.1820742,0.858569 3.9983422,-1.948872 4.2962942,-3.26692 C 14.932981,10.41862 13.411646,8.6796572 11.431118,8.7982559 10.873775,8.8339084 10.424356,8.7217212 9.9656037,8.5409124 9.6070101,8.3997124 9.2515772,8.3215647 8.9103915,8.3073397 Z" />
  <path
     transform="scale(0.26457812)"
     d="M 14.558594 23.722656 C 10.070334 23.809536 6.2853096 27.447793 5.4355469 35.078125 C 4.4689072 41.539345 7.7197849 49.649078 13.8125 49.501953 C 15.303022 49.466203 16.845369 50.114062 17.28125 50.320312 C 19.296404 51.274126 21.274148 51.220675 23.113281 50.585938 C 22.25098 48.071456 21.876984 45.317753 22.087891 42.705078 C 22.302335 37.917332 23.596369 34.289881 25.679688 31.863281 C 27.076071 30.236806 28.834456 29.193066 30.759766 28.708984 C 29.080525 27.023498 26.743419 26.022446 24.083984 26.003906 C 22.196082 25.997006 20.706242 25.51637 19.199219 24.802734 C 17.629289 24.059192 16.05468 23.693695 14.558594 23.722656 z M 33.677734 29.398438 C 28.089702 29.165448 23.490647 33.48472 23.083984 42.775391 C 22.49135 50.057496 26.72404 58.861741 33.509766 58.240234 C 35.169415 58.088982 36.939523 58.697901 37.441406 58.894531 C 45.688779 62.13958 52.553548 51.528572 53.679688 46.546875 C 56.440727 37.378239 50.690686 30.80565 43.205078 31.253906 C 41.098543 31.388658 39.399916 30.964635 37.666016 30.28125 C 36.310675 29.74757 34.96728 29.452203 33.677734 29.398438 z "
     style="fill:url(#linearGradient920);fill-opacity:1;stroke-width:0.0644539"
     id="path861" />
  <path
     transform="scale(0.26457812)"
     d="M 18.419922 25.375 C 18.193366 25.411503 18.031705 25.541934 17.943359 25.800781 C 17.591354 26.836171 19.077389 28.279551 21.263672 29.023438 C 23.449954 29.767324 25.505995 29.531484 25.859375 28.496094 C 26.212756 27.460704 24.192142 27.292714 22.005859 26.548828 C 20.366148 25.989878 19.09959 25.265491 18.419922 25.375 z M 36.357422 31.880859 C 35.86608 31.874261 35.558001 32.018291 35.486328 32.4375 C 35.2952 33.554017 37.202886 34.811587 39.748047 35.246094 C 42.293212 35.680601 44.511998 35.127657 44.703125 34.009766 C 44.894252 32.893246 42.638915 33.026303 40.09375 32.591797 C 38.503883 32.320232 37.176324 31.891857 36.357422 31.880859 z "
     style="fill:#505050;fill-opacity:1;stroke-width:0.0644539"
     id="path863" />
  <path
     transform="scale(0.26457812)"
     d="M 37.042969 4.5 C 34.882895 4.5047586 32.071125 5.1477865 28.898438 7.4199219 C 27.002284 8.778442 23.891822 7.7156472 21.144531 6.203125 C 20.855777 6.0436224 20.561607 6.4019498 20.787109 6.6425781 C 22.829992 8.8190677 27.302898 12.986099 32.820312 14.662109 C 28.353768 18.258344 24.939453 21.992187 24.939453 21.992188 C 21.632529 25.931609 19.466797 25.921875 19.466797 25.921875 C 17.961149 26.170753 19.704498 27.723237 19.703125 27.724609 C 20.183007 28.194866 21.422033 28.71992 22.189453 28.857422 C 24.00723 29.181927 25.260778 28.996133 24.431641 27.412109 C 23.72488 26.06184 26.224609 23.578125 26.224609 23.578125 C 29.176213 20.276493 32.596279 17.501112 35.716797 15.275391 C 36.335831 15.349081 36.961873 15.399789 37.597656 15.394531 C 40.460077 15.371143 42.746922 14.668515 44.576172 13.693359 C 41.521244 19.143271 40.306641 26.464844 40.306641 26.464844 C 39.498131 31.522168 37.716797 31.853516 37.716797 31.853516 C 36.003522 32.517651 38.328125 33.833404 38.328125 33.832031 C 39.034884 34.208786 39.69266 34.387325 40.638672 34.486328 C 42.88958 34.721456 44.492723 34.155457 43.095703 32.820312 C 41.56668 31.360042 42.517578 27.902344 42.517578 27.902344 C 44.554499 17.958368 47.312912 12.680929 48.787109 10.654297 C 48.294308 13.239398 48.577107 16.980767 52.375 20.730469 C 52.375 20.730469 55.281703 23.676202 56.402344 25.865234 C 56.530208 26.115489 56.899218 26.048085 56.933594 25.767578 C 57.12333 24.206929 57.542425 21.502882 58.289062 20.037109 C 58.289062 20.037109 60.422215 15.041048 55.322266 12.806641 C 55.322266 12.807907 51.602676 10.697579 50.335938 7.9648438 C 50.577701 7.5100435 50.732422 7.171875 50.732422 7.171875 C 50.732422 7.171875 45.980097 8.0001299 41.519531 5.5429688 C 41.519531 5.5429688 39.820206 4.4938818 37.042969 4.5 z "
     style="fill:url(#linearGradient926);fill-opacity:1;stroke-width:0.0644539"
     id="path867" />
</svg>
