<?xml version="1.0" encoding="UTF-8" standalone="no"?>
<svg
   xmlns:dc="http://purl.org/dc/elements/1.1/"
   xmlns:cc="http://creativecommons.org/ns#"
   xmlns:rdf="http://www.w3.org/1999/02/22-rdf-syntax-ns#"
   xmlns:svg="http://www.w3.org/2000/svg"
   xmlns="http://www.w3.org/2000/svg"
   xmlns:xlink="http://www.w3.org/1999/xlink"
   xmlns:sodipodi="http://sodipodi.sourceforge.net/DTD/sodipodi-0.dtd"
   xmlns:inkscape="http://www.inkscape.org/namespaces/inkscape"
   inkscape:version="1.0 (4035a4fb49, 2020-05-01)"
   sodipodi:docname="cinnamon-panel-launcher.svg"
   id="svg37"
   version="1.1"
   viewBox="0 0 16.933 16.933"
   height="64"
   width="64">
  <metadata
     id="metadata41">
    <rdf:RDF>
      <cc:Work
         rdf:about="">
        <dc:format>image/svg+xml</dc:format>
        <dc:type
           rdf:resource="http://purl.org/dc/dcmitype/StillImage" />
        <dc:title></dc:title>
      </cc:Work>
    </rdf:RDF>
  </metadata>
  <sodipodi:namedview
     inkscape:document-rotation="0"
     inkscape:current-layer="svg37"
     inkscape:window-maximized="1"
     inkscape:window-y="36"
     inkscape:window-x="0"
     inkscape:cy="34.339212"
     inkscape:cx="37.758002"
     inkscape:zoom="10.429825"
     showgrid="false"
     id="namedview39"
     inkscape:window-height="936"
     inkscape:window-width="1920"
     inkscape:pageshadow="2"
     inkscape:pageopacity="0"
     guidetolerance="10"
     gridtolerance="10"
     objecttolerance="10"
     borderopacity="1"
     bordercolor="#666666"
     pagecolor="#ffffff" />
  <defs
     id="defs9">
    <linearGradient
       id="a">
      <stop
         id="stop2"
         stop-color="#66bcff"
         offset="0" />
      <stop
         id="stop4"
         stop-color="#b29aff"
         offset="1" />
    </linearGradient>
    <linearGradient
       gradientTransform="matrix(1.07143,0,0,1,-27.4395,-280.067)"
       gradientUnits="userSpaceOnUse"
       y2="280.067"
       x2="2.117"
       y1="297"
       x1="13.229"
       id="c"
       xlink:href="#a" />
    <linearGradient
       y2="280.067"
       x2="2.117"
       y1="297"
       x1="13.229"
       gradientUnits="userSpaceOnUse"
       id="b"
       xlink:href="#a" />
    <filter
       id="filter11290"
       x="-.024"
       y="-.024"
       width="1.048"
       height="1.048"
       color-interpolation-filters="sRGB">
      <feGaussianBlur
         stdDeviation="0.15875313"
         id="feGaussianBlur848" />
    </filter>
    <linearGradient
       id="linearGradient918"
       x1="1.2518"
       x2="16.367"
       y1="1.2378"
       y2="16.353"
       gradientUnits="userSpaceOnUse">
      <stop
         stop-color="#af64ff"
         offset="0"
         id="stop851" />
      <stop
         stop-color="#3287ff"
         offset="1"
         id="stop853" />
    </linearGradient>
    <linearGradient
       id="linearGradient894"
       x1="0.52916002"
       x2="16.403999"
       y1="14.42"
       y2="2.5135"
       gradientTransform="matrix(0.99999999,0,0,1.1111,-28.036213,0.35084286)"
       gradientUnits="userSpaceOnUse">
      <stop
         stop-color="#005ae1"
         offset="0"
         id="stop2-3" />
      <stop
         stop-color="#0096ff"
         offset="1"
         id="stop4-6" />
    </linearGradient>
  </defs>
  <g
     transform="translate(21.757088,0.00650014)"
     id="g920">
    <circle
       style="opacity:0.25;stroke-width:0.14032;filter:url(#filter11290)"
       cx="8.4937"
       cy="8.46"
       r="7.9376998"
       id="circle860" />
    <path
       style="fill:url(#linearGradient918);stroke-width:0.031006"
       inkscape:connector-curvature="0"
       d="m 16.439,8.46 c 0,0.95154 -0.16749,1.8639 -0.47464,2.7094 -0.21351,0.58768 -0.49439,1.1433 -0.83393,1.6572 -0.14222,0.21608 -0.29514,0.42475 -0.45746,0.62529 -0.51966,0.64179 -1.1372,1.2007 -1.8305,1.6543 -0.2553,0.16718 -0.52065,0.3201 -0.79536,0.45712 -1.0668,0.53389 -2.2711,0.83421 -3.5456,0.83421 -1.2745,0 -2.4788,-0.30032 -3.5456,-0.83424 -0.27474,-0.13705 -0.5404,-0.28997 -0.7957,-0.45712 -0.70207,-0.45973 -1.327,-1.0274 -1.8509,-1.6798 -0.16263,-0.20216 -0.31524,-0.41275 -0.45746,-0.63078 -0.33046,-0.5054 -0.60421,-1.0507 -0.8135,-1.627 -0.30711,-0.84529 -0.4743,-1.7573 -0.4743,-2.7085 0,-4.3838 3.5537,-7.9375 7.9375,-7.9375 2.2005,0 4.1917,0.89548 5.6295,2.3417 0.41436,0.41662 0.78274,0.87929 1.0963,1.3795 0.29645,0.47107 0.54428,0.97582 0.73704,1.5068 0.30718,0.84559 0.47467,1.7579 0.47467,2.7094 z"
       id="path862" />
    <circle
       style="fill:#5e4aa6;stroke-width:0.26458"
       cx="-330.35001"
       cy="-328.38"
       r="0"
       id="circle864" />
    <g
       transform="translate(-16.733,-2.3095)"
       id="g880">
      <path
         style="opacity:0.2;fill:none;stroke:#000000;stroke-width:1.2214"
         inkscape:connector-curvature="0"
         d="m 19.52,6.1865 c 1.3432,-1.6729 3.4054,-2.7438 5.7177,-2.7438 2.0317,0 3.8702,0.82679 5.1977,2.1621 0.18112,0.18211 0.35273,0.37376 0.51396,0.5741"
         id="path866" />
      <g
         style="fill:#ffffff;stroke-width:0.61304"
         transform="translate(16.759,2.3076)"
         id="g878">
        <rect
           x="7.6304998"
           y="1.1056"
           width="1.5843"
           height="0.33204001"
           ry="0.16632999"
           style="opacity:0.35;paint-order:stroke markers fill"
           id="rect868" />
        <rect
           transform="rotate(30)"
           x="11.799"
           y="-4.3899002"
           width="0.31674001"
           height="0.33204001"
           ry="0.16632999"
           style="opacity:0.35;paint-order:stroke markers fill"
           id="rect870" />
        <rect
           transform="rotate(30)"
           x="11.165"
           y="-4.3899002"
           width="0.47542"
           height="0.33204001"
           ry="0.16632999"
           style="opacity:0.35;paint-order:stroke markers fill"
           id="rect872" />
        <rect
           transform="rotate(30)"
           x="10.69"
           y="-4.3899002"
           width="0.31674001"
           height="0.33204001"
           ry="0.16632999"
           style="opacity:0.35;paint-order:stroke markers fill"
           id="rect874" />
        <rect
           transform="rotate(-30)"
           x="2.5922999"
           y="4.0352001"
           width="0.63349003"
           height="0.33204001"
           ry="0.16632999"
           style="opacity:0.35;paint-order:stroke markers fill"
           id="rect876" />
      </g>
    </g>
    <path
       style="opacity:0.3;fill:none;stroke:#ffffff;stroke-width:1.2214"
       inkscape:connector-curvature="0"
       d="m 2.7871,13.043 c 1.3432,1.6729 3.4054,2.7438 5.7177,2.7438 2.0317,0 3.8702,-0.8268 5.1977,-2.1621 0.18112,-0.18211 0.35273,-0.37376 0.51396,-0.5741"
       id="path882" />
    <g
       style="fill:#ccdfff;stroke-width:0.082447"
       transform="translate(-1.26e-4,-0.0018919)"
       id="g892">
      <path
         style="enable-background:new"
         inkscape:connector-curvature="0"
         d="m 5.5922,13.732 c 0.31452,0.18159 0.33173,0.25558 0.13735,0.59225 L 5.57389,14.59387 C 5.37951,14.93055 5.30683,14.95263 4.99231,14.77104 L 4.6722,14.58622 C 4.35768,14.40463 4.34046,14.33064 4.53484,13.99396 L 4.6905,13.72434 c 0.19438,-0.33668 0.26706,-0.35876 0.58159,-0.17717 z"
         id="path884" />
      <path
         style="enable-background:new"
         inkscape:connector-curvature="0"
         d="m 7.712,14.305 c 0.3508,0.094 0.38658,0.16101 0.28596,0.53652 l -0.080578,0.30072 c -0.10062,0.37551 -0.16511,0.41566 -0.51591,0.32166 l -0.35704,-0.09567 c -0.3508,-0.094 -0.38659,-0.16101 -0.28597,-0.53653 L 6.83904,14.53098 c 0.10062,-0.37551 0.16511,-0.41566 0.51592,-0.32166 z"
         id="path886" />
      <path
         style="enable-background:new"
         inkscape:connector-curvature="0"
         d="m 9.6484,14.209 c 0.3508,-0.094 0.41529,-0.05385 0.51591,0.32166 l 0.08058,0.30072 c 0.10062,0.37551 0.06484,0.44253 -0.28596,0.53652 l -0.35704,0.09567 c -0.3508,0.094 -0.4153,0.05385 -0.51592,-0.32166 L 9.00539,14.84119 C 8.90477,14.46568 8.940546,14.39866 9.29136,14.30466 Z"
         id="path888" />
      <path
         style="enable-background:new"
         inkscape:connector-curvature="0"
         d="m 11.731,13.547 c 0.31452,-0.18159 0.3872,-0.1595 0.58158,0.17717 l 0.15566,0.26962 c 0.19438,0.33668 0.17717,0.41066 -0.13736,0.59225 l -0.32011,0.18482 c -0.31452,0.18159 -0.38721,0.15951 -0.58159,-0.17717 l -0.15566,-0.26962 c -0.19438,-0.33668 -0.17717,-0.41066 0.13736,-0.59226 z"
         id="path890" />
    </g>
  </g>
  <g
     transform="translate(21.784288,-280.61277)"
     id="g33"
     style="stroke-width:2">
    <path
       d="m 9.393,290.12 c 0,0 1.176,1.044 1.19,2.647 a 0.53,0.53 0 1 1 -1.058,0 c 0.199,-1.858 -0.397,-1.852 -0.397,-1.852 z"
       style="color:#000000;overflow:visible;fill:#525292;marker:none"
       overflow="visible"
       id="path25"
       inkscape:connector-curvature="0" />
    <path
       style="color:#000000;overflow:visible;fill:#5a5ecc;fill-opacity:1;marker:none"
       d="m 7.54,290.12 c 0,0 -1.176,1.044 -1.19,2.647 a 0.53,0.53 0 1 0 1.058,0 c -0.198,-1.858 0.397,-1.852 0.397,-1.852 z"
       overflow="visible"
       id="path27"
       inkscape:connector-curvature="0" />
    <path
       d="m 8.467,284.83 c 0,0 -0.573,0.787 -0.897,2.116 h 0.367 v 0.794 h 1.059 v -0.794 h 0.368 c -0.325,-1.329 -0.897,-2.117 -0.897,-2.117 z m 0.897,2.116 c 0.025,0.103 0.051,0.21 0.074,0.318 -0.022,-0.111 -0.049,-0.214 -0.074,-0.318 z m -0.368,0.794 v 0.793 H 9.579 A 7.681,7.681 0 0 0 9.521,287.74 Z m 0.583,0.793 z m 0,0.389 z m -0.02,0.405 H 8.996 v 0.794 H 7.937 v -0.794 H 7.375 c 0.02,0.257 0.05,0.521 0.1,0.794 l 0.33,1.852 h 1.323 l 0.33,-1.852 a 7.96,7.96 0 0 0 0.1,-0.794 z m -2.184,0 z m -0.02,-0.405 z m 0,-0.389 H 7.937 V 287.74 H 7.412 a 7.68,7.68 0 0 0 -0.057,0.793 z m 0.582,0 v 0.794 h 1.059 v -0.794 z M 7.57,286.946 c -0.026,0.104 -0.053,0.207 -0.075,0.318 0.023,-0.108 0.05,-0.215 0.075,-0.318 z"
       id="path29"
       inkscape:connector-curvature="0"
       style="fill:#5a5ecc;fill-opacity:1" />
    <path
       d="m 7.57,286.946 c -0.061,0.248 -0.12,0.509 -0.158,0.794 h 0.525 v -0.794 z m 0.367,0.794 v 0.793 h 1.059 v -0.793 z m 1.059,0 H 9.521 A 7.35,7.35 0 0 0 9.364,286.946 H 8.996 Z m 0,0.793 v 0.794 h 0.562 c 0.021,-0.275 0.028,-0.539 0.02,-0.794 z m 0,0.794 H 7.937 v 0.794 h 1.059 z m -1.059,0 v -0.794 H 7.355 c -0.007,0.255 0,0.519 0.02,0.794 z"
       style="color:#000000;overflow:visible;opacity:0.5;fill:#ffffff;marker:none"
       overflow="visible"
       id="path31"
       inkscape:connector-curvature="0" />
  </g>
  <g
     transform="translate(28.036071,-1.2917628)"
     id="g911">
    <rect
       id="rect15"
       style="fill:url(#linearGradient894);paint-order:stroke fill markers"
       stroke-width="1.0541"
       fill-rule="evenodd"
       fill="url(#linearGradient894)"
       ry="1.1911"
       height="13.229"
       width="15.875"
       y="3.1436529"
       x="-27.507063" />
    <g
       id="g39"
       fill="#ffffff"
       transform="translate(-28.036213,1.2915528)">
      <path
         id="path17"
         style="paint-order:stroke fill markers"
         stroke-width="1.0541"
         opacity="0.35"
         fill-rule="evenodd"
         d="m 1.6014,1.8521 c -0.14543,0 -0.28356,0.032922 -0.40979,0.090719 -0.013902,0.00648 -0.026708,0.014814 -0.040307,0.021819 -0.36707,0.18867 -0.62217,0.5984 -0.62217,1.0789 v 0.1424 h 15.875 v -0.1424 c 0,-0.65989 -0.47785,-1.1914 -1.0717,-1.1914 z" />
      <rect
         id="rect19"
         style="paint-order:stroke markers fill"
         ry="0.26459"
         height="0.52917999"
         width="2.6458001"
         y="2.3104"
         x="7.1437001" />
      <rect
         id="rect21"
         style="paint-order:stroke markers fill"
         ry="0.26459"
         height="0.52917999"
         width="1.0583"
         y="2.3104"
         x="2.5764" />
      <rect
         id="rect23"
         style="paint-order:stroke markers fill"
         ry="0.26459"
         height="0.52917999"
         width="0.52916998"
         y="2.3104"
         x="13.827" />
      <rect
         id="rect25"
         style="paint-order:stroke markers fill"
         ry="0.26459"
         height="0.52917999"
         width="0.79374999"
         y="2.3104"
         x="12.769" />
      <rect
         id="rect27"
         style="paint-order:stroke markers fill"
         ry="0.26459"
         height="0.52917999"
         width="0.52916998"
         y="2.3104"
         x="11.975" />
      <path
         id="path29-7"
         style="paint-order:stroke markers fill"
         stroke-width="0.26458"
         opacity="0.35"
         d="m 3.9687,14.023 c -0.29316,0 -0.52916,0.23601 -0.52916,0.52916 v 0.52916 h 10.054 v -0.52916 c 0,-0.29316 -0.23601,-0.52916 -0.52916,-0.52916 z" />
      <rect
         id="rect31"
         style="paint-order:stroke markers fill"
         ry="0.13229001"
         height="1.3229001"
         width="1.3229001"
         y="13.233"
         x="4.4979" />
      <rect
         id="rect33"
         style="paint-order:stroke markers fill"
         ry="0.13229001"
         height="1.3229001"
         width="1.3229001"
         y="13.233"
         x="6.7027998" />
      <rect
         id="rect35"
         style="paint-order:stroke markers fill"
         ry="0.13229001"
         height="1.3229001"
         width="1.3229001"
         y="13.233"
         x="8.9076004" />
      <rect
         id="rect37"
         style="paint-order:stroke markers fill"
         ry="0.13229001"
         height="1.3229001"
         width="1.3229001"
         y="13.233"
         x="11.112" />
    </g>
  </g>
  <path
     d="m 9.393,9.50723 c 0,0 1.176,1.044 1.19,2.647 a 0.53,0.53 0 1 1 -1.058,0 c 0.199,-1.858 -0.397,-1.852 -0.397,-1.852 z"
     style="color:#000000;overflow:visible;fill:#0091fc;stroke-width:2;marker:none;fill-opacity:1"
     overflow="visible"
     id="path968"
     inkscape:connector-curvature="0" />
  <path
     style="color:#000000;overflow:visible;fill:#005de2;fill-opacity:1;stroke-width:2;marker:none"
     d="m 7.54,9.50723 c 0,0 -1.176,1.044 -1.19,2.647 a 0.53,0.53 0 1 0 1.058,0 c -0.198,-1.858 0.397,-1.852 0.397,-1.852 z"
     overflow="visible"
     id="path970"
     inkscape:connector-curvature="0" />
  <path
     d="m 8.467,4.21723 c 0,0 -0.573,0.787 -0.897,2.116 h 0.367 v 0.794 h 1.059 v -0.794 h 0.368 c -0.325,-1.329 -0.897,-2.117 -0.897,-2.117 z m 0.897,2.116 c 0.025,0.103 0.051,0.21 0.074,0.318 -0.022,-0.111 -0.049,-0.214 -0.074,-0.318 z m -0.368,0.794 v 0.793 h 0.583 a 7.681,7.681 0 0 0 -0.058,-0.793 z m 0.583,0.793 z m 0,0.389 z m -0.02,0.405 H 8.996 v 0.794 H 7.937 v -0.794 H 7.375 c 0.02,0.257 0.05,0.521 0.1,0.794 l 0.33,1.852 h 1.323 l 0.33,-1.852 a 7.96,7.96 0 0 0 0.1,-0.794 z m -2.184,0 z m -0.02,-0.405 z m 0,-0.389 h 0.582 v -0.793 H 7.412 a 7.68,7.68 0 0 0 -0.057,0.793 z m 0.582,0 v 0.794 h 1.059 v -0.794 z M 7.57,6.33323 c -0.026,0.104 -0.053,0.207 -0.075,0.318 0.023,-0.108 0.05,-0.215 0.075,-0.318 z"
     id="path972"
     inkscape:connector-curvature="0"
     style="fill:#005de2;fill-opacity:1;stroke-width:2" />
  <path
     d="m 7.57,6.33323 c -0.061,0.248 -0.12,0.509 -0.158,0.794 h 0.525 v -0.794 z m 0.367,0.794 v 0.793 h 1.059 v -0.793 z m 1.059,0 H 9.521 A 7.35,7.35 0 0 0 9.364,6.33323 H 8.996 Z m 0,0.793 v 0.794 h 0.562 c 0.021,-0.275 0.028,-0.539 0.02,-0.794 z m 0,0.794 H 7.937 v 0.794 h 1.059 z m -1.059,0 v -0.794 H 7.355 c -0.007,0.255 0,0.519 0.02,0.794 z"
     style="color:#000000;overflow:visible;opacity:0.5;fill:#ffffff;stroke-width:2;marker:none"
     overflow="visible"
     id="path974"
     inkscape:connector-curvature="0" />
</svg>
