<?xml version="1.0" encoding="UTF-8" standalone="no"?>
<svg
   xmlns:dc="http://purl.org/dc/elements/1.1/"
   xmlns:cc="http://creativecommons.org/ns#"
   xmlns:rdf="http://www.w3.org/1999/02/22-rdf-syntax-ns#"
   xmlns:svg="http://www.w3.org/2000/svg"
   xmlns="http://www.w3.org/2000/svg"
   xmlns:xlink="http://www.w3.org/1999/xlink"
   xmlns:sodipodi="http://sodipodi.sourceforge.net/DTD/sodipodi-0.dtd"
   xmlns:inkscape="http://www.inkscape.org/namespaces/inkscape"
   inkscape:version="1.0 (4035a4fb49, 2020-05-01)"
   sodipodi:docname="cmake.svg"
   id="svg16"
   viewBox="0 0 16.933 16.933"
   version="1.1"
   height="64"
   width="64">
  <metadata
     id="metadata22">
    <rdf:RDF>
      <cc:Work
         rdf:about="">
        <dc:format>image/svg+xml</dc:format>
        <dc:type
           rdf:resource="http://purl.org/dc/dcmitype/StillImage" />
        <dc:title></dc:title>
      </cc:Work>
    </rdf:RDF>
  </metadata>
  <defs
     id="defs20">
    <linearGradient
       id="linearGradient4566"
       inkscape:collect="always">
      <stop
         id="stop4562"
         offset="0"
         style="stop-color:#ffffff;stop-opacity:1;" />
      <stop
         id="stop4564"
         offset="1"
         style="stop-color:#646464;stop-opacity:1" />
    </linearGradient>
    <linearGradient
       id="linearGradient4508"
       inkscape:collect="always">
      <stop
         id="stop4504"
         offset="0"
         style="stop-color:#16a15c;stop-opacity:1" />
      <stop
         id="stop4506"
         offset="1"
         style="stop-color:#127b44;stop-opacity:1" />
    </linearGradient>
    <linearGradient
       id="linearGradient4464"
       inkscape:collect="always">
      <stop
         id="stop4460"
         offset="0"
         style="stop-color:#ba360e;stop-opacity:1" />
      <stop
         id="stop4462"
         offset="1"
         style="stop-color:#e13c0a;stop-opacity:1" />
    </linearGradient>
    <linearGradient
       id="linearGradient920"
       inkscape:collect="always">
      <stop
         id="stop916"
         offset="0"
         style="stop-color:#0a5192;stop-opacity:1" />
      <stop
         id="stop918"
         offset="1"
         style="stop-color:#0575ce;stop-opacity:1" />
    </linearGradient>
    <linearGradient
       gradientUnits="userSpaceOnUse"
       gradientTransform="matrix(0.086563,0,0,0.086563,-19.285,288.52)"
       y2="44"
       y1="268"
       x2="200"
       x1="200"
       id="c">
      <stop
         id="stop854"
         offset="0"
         stop-color="#e6e6e6" />
      <stop
         id="stop856"
         offset="1"
         stop-color="#d3d3d3" />
    </linearGradient>
    <linearGradient
       gradientUnits="userSpaceOnUse"
       gradientTransform="translate(-64,-68)"
       y2="212"
       y1="100"
       x2="152"
       x1="152"
       id="d">
      <stop
         id="stop859"
         offset="0"
         stop-opacity="0" />
      <stop
         id="stop861"
         offset=".5" />
      <stop
         id="stop863"
         offset="1"
         stop-opacity="0" />
    </linearGradient>
    <filter
       color-interpolation-filters="sRGB"
       height="1.048"
       width="1.048"
       y="-.024"
       x="-.024"
       id="a">
      <feGaussianBlur
         id="feGaussianBlur866"
         stdDeviation="1.5000091" />
    </filter>
    <linearGradient
       gradientUnits="userSpaceOnUse"
       y2="236"
       y1="124"
       x2="152"
       x1="152"
       id="b">
      <stop
         id="stop869"
         offset="0" />
      <stop
         id="stop871"
         offset="1"
         stop-opacity="0" />
    </linearGradient>
    <clipPath
       id="f">
      <path
         id="path874"
         fill="#5d5d5d"
         color="#000000"
         d="m152 68c-48.601 0-88 39.399-88 88s39.399 88 88 88 88-39.399 88-88-39.399-88-88-88z" />
    </clipPath>
    <filter
       color-interpolation-filters="sRGB"
       height="1.12"
       width="1.12"
       y="-.06"
       x="-.06"
       id="e">
      <feGaussianBlur
         id="feGaussianBlur877"
         stdDeviation="4.4" />
    </filter>
    <filter
       id="filter917"
       x="-.083994"
       y="-.084006"
       width="1.168"
       height="1.168"
       color-interpolation-filters="sRGB">
      <feGaussianBlur
         stdDeviation="0.22223482"
         id="feGaussianBlur871" />
    </filter>
    <linearGradient
       id="linearGradient1005"
       x1=".73911"
       x2="16.388"
       y1="16.296"
       y2=".64687"
       gradientTransform="matrix(0.99997,0,0,0.99997,-0.03514,0.0066578)"
       gradientUnits="userSpaceOnUse">
      <stop
         stop-color="#00a0ff"
         offset="0"
         id="stop874" />
      <stop
         stop-color="#37beff"
         offset="1"
         id="stop876" />
    </linearGradient>
    <linearGradient
       gradientUnits="userSpaceOnUse"
       y2="7.1064954"
       x2="7.5057144"
       y1="14.767272"
       x1="1.1906018"
       id="linearGradient922"
       xlink:href="#linearGradient920"
       inkscape:collect="always" />
    <clipPath
       id="clipPath13429">
      <path
         d="m481 318h22v22h-22z"
         id="path926" />
    </clipPath>
    <clipPath
       id="clipPath13465">
      <path
         d="m507 318h22v22h-22z"
         id="path929" />
    </clipPath>
    <clipPath
       id="clipPath13501">
      <path
         d="m530 318h22v22h-22z"
         id="path932" />
    </clipPath>
    <clipPath
       id="clipPath13753">
      <path
         d="m672 1064c0-1.105 4.925-2 11-2s11 0.895 11 2-4.925 2-11 2-11-0.895-11-2"
         id="path935" />
    </clipPath>
    <clipPath
       id="clipPath13771">
      <path
         d="m660 1057h51v65.001h-51z"
         id="path938" />
    </clipPath>
    <clipPath
       id="clipPath14035">
      <path
         d="m659 517h53v18h-53z"
         id="path941" />
    </clipPath>
    <clipPath
       id="clipPath14127">
      <path
         d="m659 500h53v18h-53z"
         id="path944" />
    </clipPath>
    <clipPath
       id="clipPath14445">
      <path
         d="m648 112h73v60h-73z"
         id="path947" />
    </clipPath>
    <clipPath
       id="clipPath14609">
      <path
         d="m826 1056h59v60h-59z"
         id="path950" />
    </clipPath>
    <clipPath
       id="clipPath15305">
      <path
         d="m805 276h100v100h-100z"
         id="path953" />
    </clipPath>
    <clipPath
       id="clipPath15341">
      <path
         d="m145 1063.8h74.152v45.21h-74.152z"
         id="path956" />
    </clipPath>
    <clipPath
       id="clipPath15715">
      <path
         d="m151 667h57v57h-57z"
         id="path959" />
    </clipPath>
    <clipPath
       id="clipPath15807">
      <path
         d="m154 697h51v51h-51z"
         id="path962" />
    </clipPath>
    <clipPath
       id="clipPath16001">
      <path
         d="m500.04 864.45h36.012v67.52h-36.012z"
         id="path965" />
    </clipPath>
    <clipPath
       id="clipPath16093">
      <path
         d="m836 870.54h47v55.539h-47z"
         id="path968" />
    </clipPath>
    <clipPath
       id="clipPath16477">
      <path
         d="m318.03 702.35h62.848v37.991h-62.848z"
         id="path971" />
    </clipPath>
    <clipPath
       id="clipPath16579">
      <path
         d="m485.03 133.35h62.847v37.991h-62.847z"
         id="path974" />
    </clipPath>
    <clipPath
       id="clipPath16709">
      <path
         d="m493.37 677.93h45.643v68.067h-45.643z"
         id="path977" />
    </clipPath>
    <clipPath
       id="clipPath24218">
      <path
         d="m144.34 1018.2h71.467v78h-71.467z"
         id="path980" />
    </clipPath>
    <clipPath
       id="clipPath24382">
      <path
         d="m293.21 1068.6 66.323-38.292 36.047 62.435-66.323 38.292z"
         id="path983" />
    </clipPath>
    <clipPath
       id="clipPath24650">
      <path
         d="m488.86 1054.5h10v10.706h-10z"
         id="path986" />
    </clipPath>
    <clipPath
       id="clipPath24700">
      <path
         d="m508 1066.8h10.001v10.705h-10.001z"
         id="path989" />
    </clipPath>
    <clipPath
       id="clipPath24750">
      <path
         d="m525 1045.8h10v10.706h-10z"
         id="path992" />
    </clipPath>
    <clipPath
       id="clipPath24864">
      <path
         d="m836 1043.7h25.5v31.5h-25.5z"
         id="path995" />
    </clipPath>
    <clipPath
       id="clipPath24896">
      <path
         d="m838 1062.2h24v24h-24z"
         id="path998" />
    </clipPath>
    <clipPath
       id="clipPath25070">
      <path
         d="m134 489.24h7v6h-7z"
         id="path1001" />
    </clipPath>
    <clipPath
       id="clipPath25100">
      <path
         d="m216 489.24h7v6h-7z"
         id="path1004" />
    </clipPath>
    <clipPath
       id="clipPath25502">
      <path
         d="m838 477.24h22v22h-22z"
         id="path1007" />
    </clipPath>
    <clipPath
       id="clipPath25686">
      <path
         d="m704 1061.2h25v25h-25z"
         id="path1010" />
    </clipPath>
    <clipPath
       id="clipPath25788">
      <path
         d="m663.04 1078.6-1.808-3.514-21.07-47.453c13.336-18.439 48.336-26.938 73.836-3.439 0.842 0 6.476 6.246 6 7l-18.386 25.895c-0.483 0.765-1.453 0.946-2.177 0.431l-15.505-11.011c-0.359-0.255-0.847-0.153-1.07 0.238l-18.272 31.869c-0.218 0.384-0.502 0.578-0.782 0.578-0.282 0-0.561-0.197-0.766-0.594"
         id="path1013" />
    </clipPath>
    <clipPath
       id="clipPath26420">
      <path
         d="m127 820.24h100v100h-100z"
         id="path1016" />
    </clipPath>
    <clipPath
       id="clipPath26860">
      <path
         d="m809 680.24c0-22.092 17.908-40 40-40s40 17.908 40 40c0 22.091-17.908 40-40 40s-40-17.909-40-40"
         id="path1019" />
    </clipPath>
    <clipPath
       id="clipPath27506">
      <path
         d="m658 469.24h44v45h-44z"
         id="path1022" />
    </clipPath>
    <clipPath
       id="clipPath27772">
      <path
         d="m651 271.24h58v58h-58z"
         id="path1025" />
    </clipPath>
    <clipPath
       id="clipPath27864">
      <path
         d="m662 307.24h38v8h-38z"
         id="path1028" />
    </clipPath>
    <clipPath
       id="clipPath28028">
      <path
         d="m858.98 137.24c0.013-0.101 0.021-0.203 0.021-0.307v-6.693h15.75c1.237 0 2.25-1.013 2.25-2.25v-11.25l-27-4.5-27 4.5v-2.25l27-4.5 27 4.5v-27c0-1.237-1.013-2.25-2.25-2.25h-49.5c-1.237 0-2.25 1.013-2.25 2.25v-4.25h54v54zm-35.979 0v-9.25c0 1.237 1.013 2.25 2.25 2.25h15.75v6.693c0 0.104 7e-3 0.207 0.02 0.307zm22.5-7h9v4.5h-9zm1.125-9c-0.62 0-1.125-0.506-1.125-1.125v-2.25c0-0.619 0.505-1.125 1.125-1.125h6.75c0.619 0 1.125 0.506 1.125 1.125v2.25c0 0.619-0.506 1.125-1.125 1.125z"
         id="path1031" />
    </clipPath>
    <clipPath
       id="clipPath28200">
      <path
         d="m531.27 136.24c6.325-2.29 10.727-8.277 10.727-15.484 0-11.316-10.2-20.563-25.65-34.575l-4.35-3.941-4.35 3.941c-15.45 14.012-25.65 23.259-25.65 34.575v-39.516h60v55zm-26.983 0c2.995-1.052 5.686-2.883 7.71-5.25 2.024 2.367 4.715 4.198 7.71 5.25zm-22.29 0v-15.484c0 7.207 4.402 13.194 10.727 15.484z"
         id="path1034" />
    </clipPath>
    <clipPath
       id="clipPath28364">
      <path
         d="m648 79.241h64v64h-64z"
         id="path1037" />
    </clipPath>
    <clipPath
       id="clipPath28984">
      <path
         d="m500 691.74c0-3.037 2.463-5.5 5.5-5.5s5.5 2.463 5.5 5.5-2.463 5.5-5.5 5.5-5.5-2.463-5.5-5.5"
         id="path1040" />
    </clipPath>
    <clipPath
       id="clipPath29012">
      <path
         d="m500 669.74c0-3.037 2.463-5.5 5.5-5.5s5.5 2.463 5.5 5.5c0 3.038-2.463 5.5-5.5 5.5s-5.5-2.462-5.5-5.5"
         id="path1043" />
    </clipPath>
    <clipPath
       id="clipPath29040">
      <path
         d="m494 680.74c0-3.037 2.462-5.5 5.5-5.5s5.5 2.463 5.5 5.5c0 3.038-2.462 5.5-5.5 5.5s-5.5-2.462-5.5-5.5"
         id="path1046" />
    </clipPath>
    <clipPath
       id="clipPath29068">
      <path
         d="m513 691.74c0-3.037 2.463-5.5 5.5-5.5s5.5 2.463 5.5 5.5-2.463 5.5-5.5 5.5-5.5-2.463-5.5-5.5"
         id="path1049" />
    </clipPath>
    <clipPath
       id="clipPath29096">
      <path
         d="m513 669.74c0-3.037 2.463-5.5 5.5-5.5s5.5 2.463 5.5 5.5c0 3.038-2.463 5.5-5.5 5.5s-5.5-2.462-5.5-5.5"
         id="path1052" />
    </clipPath>
    <clipPath
       id="clipPath29124">
      <path
         d="m507 680.74c0-3.037 2.463-5.5 5.5-5.5s5.5 2.463 5.5 5.5c0 3.038-2.463 5.5-5.5 5.5s-5.5-2.462-5.5-5.5"
         id="path1055" />
    </clipPath>
    <clipPath
       id="clipPath29152">
      <path
         d="m520 680.74c0-3.037 2.463-5.5 5.5-5.5s5.5 2.463 5.5 5.5c0 3.038-2.463 5.5-5.5 5.5s-5.5-2.462-5.5-5.5"
         id="path1058" />
    </clipPath>
    <clipPath
       id="clipPath29252">
      <path
         d="m321 322.24c-4.97 0-9-4.029-9-9 0-4.97 4.03-9 9-9h45c4.971 0 9 4.03 9 9 0 4.971-4.029 9-9 9z"
         id="path1061" />
    </clipPath>
    <clipPath
       id="clipPath29280">
      <path
         d="m322 297.24c-4.971 0-9-4.029-9-9 0-4.97 4.029-9 9-9h45c4.971 0 9 4.03 9 9 0 4.971-4.029 9-9 9z"
         id="path1064" />
    </clipPath>
    <clipPath
       id="clipPath29400">
      <path
         d="m155 83.24h44v53h-44z"
         id="path1067" />
    </clipPath>
    <linearGradient
       id="linearGradient996"
       x1="30.426"
       x2="41.01"
       y1="12.418"
       y2="22.868"
       gradientTransform="matrix(0.95841,0,0,0.95841,-22.41,-5.513)"
       gradientUnits="userSpaceOnUse">
      <stop
         stop-color="#0578d2"
         offset="0"
         id="stop1070" />
      <stop
         stop-color="#0a5091"
         offset="1"
         id="stop1072" />
    </linearGradient>
    <linearGradient
       id="linearGradient1000"
       x1="31.796"
       x2="40.362"
       y1="12.285"
       y2="22.221"
       gradientTransform="matrix(-0.88682,0,0,0.88682,37.812,-8.5646)"
       gradientUnits="userSpaceOnUse">
      <stop
         stop-color="#28bef0"
         offset="0"
         id="stop1075" />
      <stop
         stop-color="#28b4f5"
         offset="1"
         id="stop1077" />
    </linearGradient>
    <filter
       id="filter1191"
       x="-.084"
       y="-.084"
       width="1.168"
       height="1.168"
       color-interpolation-filters="sRGB">
      <feGaussianBlur
         stdDeviation="0.39816695"
         id="feGaussianBlur1080" />
    </filter>
    <clipPath
       id="clipPath13429-3">
      <path
         d="m481 318h22v22h-22z"
         id="path1083" />
    </clipPath>
    <clipPath
       id="clipPath13465-6">
      <path
         d="m507 318h22v22h-22z"
         id="path1086" />
    </clipPath>
    <clipPath
       id="clipPath13501-7">
      <path
         d="m530 318h22v22h-22z"
         id="path1089" />
    </clipPath>
    <clipPath
       id="clipPath13753-5">
      <path
         d="m672 1064c0-1.105 4.925-2 11-2s11 0.895 11 2-4.925 2-11 2-11-0.895-11-2"
         id="path1092" />
    </clipPath>
    <clipPath
       id="clipPath13771-3">
      <path
         d="m660 1057h51v65.001h-51z"
         id="path1095" />
    </clipPath>
    <clipPath
       id="clipPath14035-5">
      <path
         d="m659 517h53v18h-53z"
         id="path1098" />
    </clipPath>
    <clipPath
       id="clipPath14127-6">
      <path
         d="m659 500h53v18h-53z"
         id="path1101" />
    </clipPath>
    <clipPath
       id="clipPath14445-2">
      <path
         d="m648 112h73v60h-73z"
         id="path1104" />
    </clipPath>
    <clipPath
       id="clipPath14609-9">
      <path
         d="m826 1056h59v60h-59z"
         id="path1107" />
    </clipPath>
    <clipPath
       id="clipPath15305-1">
      <path
         d="m805 276h100v100h-100z"
         id="path1110" />
    </clipPath>
    <clipPath
       id="clipPath15341-2">
      <path
         d="m145 1063.8h74.152v45.21h-74.152z"
         id="path1113" />
    </clipPath>
    <clipPath
       id="clipPath15715-7">
      <path
         d="m151 667h57v57h-57z"
         id="path1116" />
    </clipPath>
    <clipPath
       id="clipPath15807-0">
      <path
         d="m154 697h51v51h-51z"
         id="path1119" />
    </clipPath>
    <clipPath
       id="clipPath16001-9">
      <path
         d="m500.04 864.45h36.012v67.52h-36.012z"
         id="path1122" />
    </clipPath>
    <clipPath
       id="clipPath16093-3">
      <path
         d="m836 870.54h47v55.539h-47z"
         id="path1125" />
    </clipPath>
    <clipPath
       id="clipPath16477-6">
      <path
         d="m318.03 702.35h62.848v37.991h-62.848z"
         id="path1128" />
    </clipPath>
    <clipPath
       id="clipPath16579-0">
      <path
         d="m485.03 133.35h62.847v37.991h-62.847z"
         id="path1131" />
    </clipPath>
    <clipPath
       id="clipPath16709-6">
      <path
         d="m493.37 677.93h45.643v68.067h-45.643z"
         id="path1134" />
    </clipPath>
    <clipPath
       id="clipPath24218-2">
      <path
         d="m144.34 1018.2h71.467v78h-71.467z"
         id="path1137" />
    </clipPath>
    <clipPath
       id="clipPath24382-6">
      <path
         d="m293.21 1068.6 66.323-38.292 36.047 62.435-66.323 38.292z"
         id="path1140" />
    </clipPath>
    <clipPath
       id="clipPath24650-1">
      <path
         d="m488.86 1054.5h10v10.706h-10z"
         id="path1143" />
    </clipPath>
    <clipPath
       id="clipPath24700-8">
      <path
         d="m508 1066.8h10.001v10.705h-10.001z"
         id="path1146" />
    </clipPath>
    <clipPath
       id="clipPath24750-7">
      <path
         d="m525 1045.8h10v10.706h-10z"
         id="path1149" />
    </clipPath>
    <clipPath
       id="clipPath24864-9">
      <path
         d="m836 1043.7h25.5v31.5h-25.5z"
         id="path1152" />
    </clipPath>
    <clipPath
       id="clipPath24896-2">
      <path
         d="m838 1062.2h24v24h-24z"
         id="path1155" />
    </clipPath>
    <clipPath
       id="clipPath25070-0">
      <path
         d="m134 489.24h7v6h-7z"
         id="path1158" />
    </clipPath>
    <clipPath
       id="clipPath25100-2">
      <path
         d="m216 489.24h7v6h-7z"
         id="path1161" />
    </clipPath>
    <clipPath
       id="clipPath25502-3">
      <path
         d="m838 477.24h22v22h-22z"
         id="path1164" />
    </clipPath>
    <clipPath
       id="clipPath25686-7">
      <path
         d="m704 1061.2h25v25h-25z"
         id="path1167" />
    </clipPath>
    <clipPath
       id="clipPath25788-5">
      <path
         d="m663.04 1078.6-1.808-3.514-21.07-47.453c13.336-18.439 48.336-26.938 73.836-3.439 0.842 0 6.476 6.246 6 7l-18.386 25.895c-0.483 0.765-1.453 0.946-2.177 0.431l-15.505-11.011c-0.359-0.255-0.847-0.153-1.07 0.238l-18.272 31.869c-0.218 0.384-0.502 0.578-0.782 0.578-0.282 0-0.561-0.197-0.766-0.594"
         id="path1170" />
    </clipPath>
    <clipPath
       id="clipPath26420-9">
      <path
         d="m127 820.24h100v100h-100z"
         id="path1173" />
    </clipPath>
    <clipPath
       id="clipPath26860-2">
      <path
         d="m809 680.24c0-22.092 17.908-40 40-40s40 17.908 40 40c0 22.091-17.908 40-40 40s-40-17.909-40-40"
         id="path1176" />
    </clipPath>
    <clipPath
       id="clipPath27506-2">
      <path
         d="m658 469.24h44v45h-44z"
         id="path1179" />
    </clipPath>
    <clipPath
       id="clipPath27772-8">
      <path
         d="m651 271.24h58v58h-58z"
         id="path1182" />
    </clipPath>
    <clipPath
       id="clipPath27864-9">
      <path
         d="m662 307.24h38v8h-38z"
         id="path1185" />
    </clipPath>
    <clipPath
       id="clipPath28028-7">
      <path
         d="m858.98 137.24c0.013-0.101 0.021-0.203 0.021-0.307v-6.693h15.75c1.237 0 2.25-1.013 2.25-2.25v-11.25l-27-4.5-27 4.5v-2.25l27-4.5 27 4.5v-27c0-1.237-1.013-2.25-2.25-2.25h-49.5c-1.237 0-2.25 1.013-2.25 2.25v-4.25h54v54zm-35.979 0v-9.25c0 1.237 1.013 2.25 2.25 2.25h15.75v6.693c0 0.104 7e-3 0.207 0.02 0.307zm22.5-7h9v4.5h-9zm1.125-9c-0.62 0-1.125-0.506-1.125-1.125v-2.25c0-0.619 0.505-1.125 1.125-1.125h6.75c0.619 0 1.125 0.506 1.125 1.125v2.25c0 0.619-0.506 1.125-1.125 1.125z"
         id="path1188" />
    </clipPath>
    <clipPath
       id="clipPath28200-3">
      <path
         d="m531.27 136.24c6.325-2.29 10.727-8.277 10.727-15.484 0-11.316-10.2-20.563-25.65-34.575l-4.35-3.941-4.35 3.941c-15.45 14.012-25.65 23.259-25.65 34.575v-39.516h60v55zm-26.983 0c2.995-1.052 5.686-2.883 7.71-5.25 2.024 2.367 4.715 4.198 7.71 5.25zm-22.29 0v-15.484c0 7.207 4.402 13.194 10.727 15.484z"
         id="path1191" />
    </clipPath>
    <clipPath
       id="clipPath28364-6">
      <path
         d="m648 79.241h64v64h-64z"
         id="path1194" />
    </clipPath>
    <clipPath
       id="clipPath28984-1">
      <path
         d="m500 691.74c0-3.037 2.463-5.5 5.5-5.5s5.5 2.463 5.5 5.5-2.463 5.5-5.5 5.5-5.5-2.463-5.5-5.5"
         id="path1197" />
    </clipPath>
    <clipPath
       id="clipPath29012-2">
      <path
         d="m500 669.74c0-3.037 2.463-5.5 5.5-5.5s5.5 2.463 5.5 5.5c0 3.038-2.463 5.5-5.5 5.5s-5.5-2.462-5.5-5.5"
         id="path1200" />
    </clipPath>
    <clipPath
       id="clipPath29040-9">
      <path
         d="m494 680.74c0-3.037 2.462-5.5 5.5-5.5s5.5 2.463 5.5 5.5c0 3.038-2.462 5.5-5.5 5.5s-5.5-2.462-5.5-5.5"
         id="path1203" />
    </clipPath>
    <clipPath
       id="clipPath29068-3">
      <path
         d="m513 691.74c0-3.037 2.463-5.5 5.5-5.5s5.5 2.463 5.5 5.5-2.463 5.5-5.5 5.5-5.5-2.463-5.5-5.5"
         id="path1206" />
    </clipPath>
    <clipPath
       id="clipPath29096-1">
      <path
         d="m513 669.74c0-3.037 2.463-5.5 5.5-5.5s5.5 2.463 5.5 5.5c0 3.038-2.463 5.5-5.5 5.5s-5.5-2.462-5.5-5.5"
         id="path1209" />
    </clipPath>
    <clipPath
       id="clipPath29124-9">
      <path
         d="m507 680.74c0-3.037 2.463-5.5 5.5-5.5s5.5 2.463 5.5 5.5c0 3.038-2.463 5.5-5.5 5.5s-5.5-2.462-5.5-5.5"
         id="path1212" />
    </clipPath>
    <clipPath
       id="clipPath29152-4">
      <path
         d="m520 680.74c0-3.037 2.463-5.5 5.5-5.5s5.5 2.463 5.5 5.5c0 3.038-2.463 5.5-5.5 5.5s-5.5-2.462-5.5-5.5"
         id="path1215" />
    </clipPath>
    <clipPath
       id="clipPath29252-7">
      <path
         d="m321 322.24c-4.97 0-9-4.029-9-9 0-4.97 4.03-9 9-9h45c4.971 0 9 4.03 9 9 0 4.971-4.029 9-9 9z"
         id="path1218" />
    </clipPath>
    <clipPath
       id="clipPath29280-8">
      <path
         d="m322 297.24c-4.971 0-9-4.029-9-9 0-4.97 4.029-9 9-9h45c4.971 0 9 4.03 9 9 0 4.971-4.029 9-9 9z"
         id="path1221" />
    </clipPath>
    <clipPath
       id="clipPath29400-4">
      <path
         d="m155 83.24h44v53h-44z"
         id="path1224" />
    </clipPath>
    <linearGradient
       id="linearGradient2667"
       x1="51.171"
       x2="51.171"
       y1="52.127"
       y2="27.199"
       gradientTransform="translate(-10.876,-0.96165)"
       gradientUnits="userSpaceOnUse">
      <stop
         stop-color="#afd2f5"
         offset="0"
         id="stop1227" />
      <stop
         stop-color="#fff"
         offset="1"
         id="stop1229" />
    </linearGradient>
    <filter
       id="filter2679"
       x="-.054304"
       y="-.026925"
       width="1.1086"
       height="1.0538"
       color-interpolation-filters="sRGB">
      <feGaussianBlur
         stdDeviation="0.28046598"
         id="feGaussianBlur1232" />
    </filter>
    <linearGradient
       id="linearGradient2043">
      <stop
         stop-color="#a2a2a2"
         offset="0"
         id="stop2719" />
      <stop
         stop-color="#b2b3b3"
         offset="1"
         id="stop2721" />
    </linearGradient>
    <clipPath
       id="clipPath13429-36">
      <path
         d="m481 318h22v22h-22z"
         id="path2724" />
    </clipPath>
    <clipPath
       id="clipPath13465-7">
      <path
         d="m507 318h22v22h-22z"
         id="path2727" />
    </clipPath>
    <clipPath
       id="clipPath13501-5">
      <path
         d="m530 318h22v22h-22z"
         id="path2730" />
    </clipPath>
    <clipPath
       id="clipPath13753-3">
      <path
         d="m672 1064c0-1.105 4.925-2 11-2s11 0.895 11 2-4.925 2-11 2-11-0.895-11-2"
         id="path2733" />
    </clipPath>
    <clipPath
       id="clipPath13771-5">
      <path
         d="m660 1057h51v65.001h-51z"
         id="path2736" />
    </clipPath>
    <clipPath
       id="clipPath14035-6">
      <path
         d="m659 517h53v18h-53z"
         id="path2739" />
    </clipPath>
    <clipPath
       id="clipPath14127-2">
      <path
         d="m659 500h53v18h-53z"
         id="path2742" />
    </clipPath>
    <clipPath
       id="clipPath14445-9">
      <path
         d="m648 112h73v60h-73z"
         id="path2745" />
    </clipPath>
    <clipPath
       id="clipPath14609-1">
      <path
         d="m826 1056h59v60h-59z"
         id="path2748" />
    </clipPath>
    <clipPath
       id="clipPath15305-27">
      <path
         d="m805 276h100v100h-100z"
         id="path2751" />
    </clipPath>
    <clipPath
       id="clipPath15341-09">
      <path
         d="m145 1063.8h74.152v45.21h-74.152z"
         id="path2754" />
    </clipPath>
    <clipPath
       id="clipPath15715-3">
      <path
         d="m151 667h57v57h-57z"
         id="path2757" />
    </clipPath>
    <clipPath
       id="clipPath15807-6">
      <path
         d="m154 697h51v51h-51z"
         id="path2760" />
    </clipPath>
    <clipPath
       id="clipPath16001-0">
      <path
         d="m500.04 864.45h36.012v67.52h-36.012z"
         id="path2763" />
    </clipPath>
    <clipPath
       id="clipPath16093-6">
      <path
         d="m836 870.54h47v55.539h-47z"
         id="path2766" />
    </clipPath>
    <clipPath
       id="clipPath16477-2">
      <path
         d="m318.03 702.35h62.848v37.991h-62.848z"
         id="path2769" />
    </clipPath>
    <clipPath
       id="clipPath16579-6">
      <path
         d="m485.03 133.35h62.847v37.991h-62.847z"
         id="path2772" />
    </clipPath>
    <clipPath
       id="clipPath16709-1">
      <path
         d="m493.37 677.93h45.643v68.067h-45.643z"
         id="path2775" />
    </clipPath>
    <clipPath
       id="clipPath24218-87">
      <path
         d="m144.34 1018.2h71.467v78h-71.467z"
         id="path2778" />
    </clipPath>
    <clipPath
       id="clipPath24382-92">
      <path
         d="m293.21 1068.6 66.323-38.292 36.047 62.435-66.323 38.292z"
         id="path2781" />
    </clipPath>
    <clipPath
       id="clipPath24650-0">
      <path
         d="m488.86 1054.5h10v10.706h-10z"
         id="path2784" />
    </clipPath>
    <clipPath
       id="clipPath24700-2">
      <path
         d="m508 1066.8h10.001v10.705h-10.001z"
         id="path2787" />
    </clipPath>
    <clipPath
       id="clipPath24750-3">
      <path
         d="m525 1045.8h10v10.706h-10z"
         id="path2790" />
    </clipPath>
    <clipPath
       id="clipPath24864-7">
      <path
         d="m836 1043.7h25.5v31.5h-25.5z"
         id="path2793" />
    </clipPath>
    <clipPath
       id="clipPath24896-5">
      <path
         d="m838 1062.2h24v24h-24z"
         id="path2796" />
    </clipPath>
    <clipPath
       id="clipPath25070-92">
      <path
         d="m134 489.24h7v6h-7z"
         id="path2799" />
    </clipPath>
    <clipPath
       id="clipPath25100-28">
      <path
         d="m216 489.24h7v6h-7z"
         id="path2802" />
    </clipPath>
    <clipPath
       id="clipPath25502-9">
      <path
         d="m838 477.24h22v22h-22z"
         id="path2805" />
    </clipPath>
    <clipPath
       id="clipPath25686-73">
      <path
         d="m704 1061.2h25v25h-25z"
         id="path2808" />
    </clipPath>
    <clipPath
       id="clipPath25788-6">
      <path
         d="m663.04 1078.6-1.808-3.514-21.07-47.453c13.336-18.439 48.336-26.938 73.836-3.439 0.842 0 6.476 6.246 6 7l-18.386 25.895c-0.483 0.765-1.453 0.946-2.177 0.431l-15.505-11.011c-0.359-0.255-0.847-0.153-1.07 0.238l-18.272 31.869c-0.218 0.384-0.502 0.578-0.782 0.578-0.282 0-0.561-0.197-0.766-0.594"
         id="path2811" />
    </clipPath>
    <clipPath
       id="clipPath26420-1">
      <path
         d="m127 820.24h100v100h-100z"
         id="path2814" />
    </clipPath>
    <clipPath
       id="clipPath26860-29">
      <path
         d="m809 680.24c0-22.092 17.908-40 40-40s40 17.908 40 40c0 22.091-17.908 40-40 40s-40-17.909-40-40"
         id="path2817" />
    </clipPath>
    <clipPath
       id="clipPath27506-3">
      <path
         d="m658 469.24h44v45h-44z"
         id="path2820" />
    </clipPath>
    <clipPath
       id="clipPath27772-1">
      <path
         d="m651 271.24h58v58h-58z"
         id="path2823" />
    </clipPath>
    <clipPath
       id="clipPath27864-94">
      <path
         d="m662 307.24h38v8h-38z"
         id="path2826" />
    </clipPath>
    <clipPath
       id="clipPath28028-78">
      <path
         d="m858.98 137.24c0.013-0.101 0.021-0.203 0.021-0.307v-6.693h15.75c1.237 0 2.25-1.013 2.25-2.25v-11.25l-27-4.5-27 4.5v-2.25l27-4.5 27 4.5v-27c0-1.237-1.013-2.25-2.25-2.25h-49.5c-1.237 0-2.25 1.013-2.25 2.25v-4.25h54v54zm-35.979 0v-9.25c0 1.237 1.013 2.25 2.25 2.25h15.75v6.693c0 0.104 7e-3 0.207 0.02 0.307zm22.5-7h9v4.5h-9zm1.125-9c-0.62 0-1.125-0.506-1.125-1.125v-2.25c0-0.619 0.505-1.125 1.125-1.125h6.75c0.619 0 1.125 0.506 1.125 1.125v2.25c0 0.619-0.506 1.125-1.125 1.125z"
         id="path2829" />
    </clipPath>
    <clipPath
       id="clipPath28200-4">
      <path
         d="m531.27 136.24c6.325-2.29 10.727-8.277 10.727-15.484 0-11.316-10.2-20.563-25.65-34.575l-4.35-3.941-4.35 3.941c-15.45 14.012-25.65 23.259-25.65 34.575v-39.516h60v55zm-26.983 0c2.995-1.052 5.686-2.883 7.71-5.25 2.024 2.367 4.715 4.198 7.71 5.25zm-22.29 0v-15.484c0 7.207 4.402 13.194 10.727 15.484z"
         id="path2832" />
    </clipPath>
    <clipPath
       id="clipPath28364-5">
      <path
         d="m648 79.241h64v64h-64z"
         id="path2835" />
    </clipPath>
    <clipPath
       id="clipPath28984-03">
      <path
         d="m500 691.74c0-3.037 2.463-5.5 5.5-5.5s5.5 2.463 5.5 5.5-2.463 5.5-5.5 5.5-5.5-2.463-5.5-5.5"
         id="path2838" />
    </clipPath>
    <clipPath
       id="clipPath29012-61">
      <path
         d="m500 669.74c0-3.037 2.463-5.5 5.5-5.5s5.5 2.463 5.5 5.5c0 3.038-2.463 5.5-5.5 5.5s-5.5-2.462-5.5-5.5"
         id="path2841" />
    </clipPath>
    <clipPath
       id="clipPath29040-0">
      <path
         d="m494 680.74c0-3.037 2.462-5.5 5.5-5.5s5.5 2.463 5.5 5.5c0 3.038-2.462 5.5-5.5 5.5s-5.5-2.462-5.5-5.5"
         id="path2844" />
    </clipPath>
    <clipPath
       id="clipPath29068-6">
      <path
         d="m513 691.74c0-3.037 2.463-5.5 5.5-5.5s5.5 2.463 5.5 5.5-2.463 5.5-5.5 5.5-5.5-2.463-5.5-5.5"
         id="path2847" />
    </clipPath>
    <clipPath
       id="clipPath29096-3">
      <path
         d="m513 669.74c0-3.037 2.463-5.5 5.5-5.5s5.5 2.463 5.5 5.5c0 3.038-2.463 5.5-5.5 5.5s-5.5-2.462-5.5-5.5"
         id="path2850" />
    </clipPath>
    <clipPath
       id="clipPath29124-2">
      <path
         d="m507 680.74c0-3.037 2.463-5.5 5.5-5.5s5.5 2.463 5.5 5.5c0 3.038-2.463 5.5-5.5 5.5s-5.5-2.462-5.5-5.5"
         id="path2853" />
    </clipPath>
    <clipPath
       id="clipPath29152-0">
      <path
         d="m520 680.74c0-3.037 2.463-5.5 5.5-5.5s5.5 2.463 5.5 5.5c0 3.038-2.463 5.5-5.5 5.5s-5.5-2.462-5.5-5.5"
         id="path2856" />
    </clipPath>
    <clipPath
       id="clipPath29252-6">
      <path
         d="m321 322.24c-4.97 0-9-4.029-9-9 0-4.97 4.03-9 9-9h45c4.971 0 9 4.03 9 9 0 4.971-4.029 9-9 9z"
         id="path2859" />
    </clipPath>
    <clipPath
       id="clipPath29280-1">
      <path
         d="m322 297.24c-4.971 0-9-4.029-9-9 0-4.97 4.029-9 9-9h45c4.971 0 9 4.03 9 9 0 4.971-4.029 9-9 9z"
         id="path2862" />
    </clipPath>
    <clipPath
       id="clipPath29400-5">
      <path
         d="m155 83.24h44v53h-44z"
         id="path2865" />
    </clipPath>
    <clipPath
       id="clipPath13429-6">
      <path
         d="m481 318h22v22h-22z"
         id="path2868" />
    </clipPath>
    <clipPath
       id="clipPath13465-0">
      <path
         d="m507 318h22v22h-22z"
         id="path2871" />
    </clipPath>
    <clipPath
       id="clipPath13501-6">
      <path
         d="m530 318h22v22h-22z"
         id="path2874" />
    </clipPath>
    <clipPath
       id="clipPath13753-2">
      <path
         d="m672 1064c0-1.105 4.925-2 11-2s11 0.895 11 2-4.925 2-11 2-11-0.895-11-2"
         id="path2877" />
    </clipPath>
    <clipPath
       id="clipPath13771-6">
      <path
         d="m660 1057h51v65.001h-51z"
         id="path2880" />
    </clipPath>
    <clipPath
       id="clipPath14035-1">
      <path
         d="m659 517h53v18h-53z"
         id="path2883" />
    </clipPath>
    <clipPath
       id="clipPath14127-8">
      <path
         d="m659 500h53v18h-53z"
         id="path2886" />
    </clipPath>
    <clipPath
       id="clipPath14445-7">
      <path
         d="m648 112h73v60h-73z"
         id="path2889" />
    </clipPath>
    <clipPath
       id="clipPath14609-9-5">
      <path
         d="m826 1056h59v60h-59z"
         id="path2892" />
    </clipPath>
    <clipPath
       id="clipPath15305-2">
      <path
         d="m805 276h100v100h-100z"
         id="path2895" />
    </clipPath>
    <clipPath
       id="clipPath15341-0">
      <path
         d="m145 1063.8h74.152v45.21h-74.152z"
         id="path2898" />
    </clipPath>
    <clipPath
       id="clipPath15715-2">
      <path
         d="m151 667h57v57h-57z"
         id="path2901" />
    </clipPath>
    <clipPath
       id="clipPath15807-3">
      <path
         d="m154 697h51v51h-51z"
         id="path2904" />
    </clipPath>
    <clipPath
       id="clipPath16001-7">
      <path
         d="m500.04 864.45h36.012v67.52h-36.012z"
         id="path2907" />
    </clipPath>
    <clipPath
       id="clipPath16093-5">
      <path
         d="m836 870.54h47v55.539h-47z"
         id="path2910" />
    </clipPath>
    <clipPath
       id="clipPath16477-9">
      <path
         d="m318.03 702.35h62.848v37.991h-62.848z"
         id="path2913" />
    </clipPath>
    <clipPath
       id="clipPath16579-2">
      <path
         d="m485.03 133.35h62.847v37.991h-62.847z"
         id="path2916" />
    </clipPath>
    <clipPath
       id="clipPath16709-2">
      <path
         d="m493.37 677.93h45.643v68.067h-45.643z"
         id="path2919" />
    </clipPath>
    <clipPath
       id="clipPath24218-8">
      <path
         d="m144.34 1018.2h71.467v78h-71.467z"
         id="path2922" />
    </clipPath>
    <clipPath
       id="clipPath24382-9">
      <path
         d="m293.21 1068.6 66.323-38.292 36.047 62.435-66.323 38.292z"
         id="path2925" />
    </clipPath>
    <clipPath
       id="clipPath24650-7">
      <path
         d="m488.86 1054.5h10v10.706h-10z"
         id="path2928" />
    </clipPath>
    <clipPath
       id="clipPath24700-3">
      <path
         d="m508 1066.8h10.001v10.705h-10.001z"
         id="path2931" />
    </clipPath>
    <clipPath
       id="clipPath24750-6">
      <path
         d="m525 1045.8h10v10.706h-10z"
         id="path2934" />
    </clipPath>
    <clipPath
       id="clipPath24864-1">
      <path
         d="m836 1043.7h25.5v31.5h-25.5z"
         id="path2937" />
    </clipPath>
    <clipPath
       id="clipPath24896-2-4">
      <path
         d="m838 1062.2h24v24h-24z"
         id="path2940" />
    </clipPath>
    <clipPath
       id="clipPath25070-9">
      <path
         d="m134 489.24h7v6h-7z"
         id="path2943" />
    </clipPath>
    <clipPath
       id="clipPath25100-3">
      <path
         d="m216 489.24h7v6h-7z"
         id="path2946" />
    </clipPath>
    <clipPath
       id="clipPath25502-1">
      <path
         d="m838 477.24h22v22h-22z"
         id="path2949" />
    </clipPath>
    <clipPath
       id="clipPath25686-9">
      <path
         d="m704 1061.2h25v25h-25z"
         id="path2952" />
    </clipPath>
    <clipPath
       id="clipPath25788-4">
      <path
         d="m663.04 1078.6-1.808-3.514-21.07-47.453c13.336-18.439 48.336-26.938 73.836-3.439 0.842 0 6.476 6.246 6 7l-18.386 25.895c-0.483 0.765-1.453 0.946-2.177 0.431l-15.505-11.011c-0.359-0.255-0.847-0.153-1.07 0.238l-18.272 31.869c-0.218 0.384-0.502 0.578-0.782 0.578-0.282 0-0.561-0.197-0.766-0.594"
         id="path2955" />
    </clipPath>
    <clipPath
       id="clipPath26420-7">
      <path
         d="m127 820.24h100v100h-100z"
         id="path2958" />
    </clipPath>
    <clipPath
       id="clipPath26860-8">
      <path
         d="m809 680.24c0-22.092 17.908-40 40-40s40 17.908 40 40c0 22.091-17.908 40-40 40s-40-17.909-40-40"
         id="path2961" />
    </clipPath>
    <clipPath
       id="clipPath27506-4">
      <path
         d="m658 469.24h44v45h-44z"
         id="path2964" />
    </clipPath>
    <clipPath
       id="clipPath27772-5">
      <path
         d="m651 271.24h58v58h-58z"
         id="path2967" />
    </clipPath>
    <clipPath
       id="clipPath27864-0">
      <path
         d="m662 307.24h38v8h-38z"
         id="path2970" />
    </clipPath>
    <clipPath
       id="clipPath28028-3">
      <path
         d="m858.98 137.24c0.013-0.101 0.021-0.203 0.021-0.307v-6.693h15.75c1.237 0 2.25-1.013 2.25-2.25v-11.25l-27-4.5-27 4.5v-2.25l27-4.5 27 4.5v-27c0-1.237-1.013-2.25-2.25-2.25h-49.5c-1.237 0-2.25 1.013-2.25 2.25v-4.25h54v54zm-35.979 0v-9.25c0 1.237 1.013 2.25 2.25 2.25h15.75v6.693c0 0.104 7e-3 0.207 0.02 0.307zm22.5-7h9v4.5h-9zm1.125-9c-0.62 0-1.125-0.506-1.125-1.125v-2.25c0-0.619 0.505-1.125 1.125-1.125h6.75c0.619 0 1.125 0.506 1.125 1.125v2.25c0 0.619-0.506 1.125-1.125 1.125z"
         id="path2973" />
    </clipPath>
    <clipPath
       id="clipPath28200-6">
      <path
         d="m531.27 136.24c6.325-2.29 10.727-8.277 10.727-15.484 0-11.316-10.2-20.563-25.65-34.575l-4.35-3.941-4.35 3.941c-15.45 14.012-25.65 23.259-25.65 34.575v-39.516h60v55zm-26.983 0c2.995-1.052 5.686-2.883 7.71-5.25 2.024 2.367 4.715 4.198 7.71 5.25zm-22.29 0v-15.484c0 7.207 4.402 13.194 10.727 15.484z"
         id="path2976" />
    </clipPath>
    <clipPath
       id="clipPath28364-1">
      <path
         d="m648 79.241h64v64h-64z"
         id="path2979" />
    </clipPath>
    <clipPath
       id="clipPath28984-0">
      <path
         d="m500 691.74c0-3.037 2.463-5.5 5.5-5.5s5.5 2.463 5.5 5.5-2.463 5.5-5.5 5.5-5.5-2.463-5.5-5.5"
         id="path2982" />
    </clipPath>
    <clipPath
       id="clipPath29012-6">
      <path
         d="m500 669.74c0-3.037 2.463-5.5 5.5-5.5s5.5 2.463 5.5 5.5c0 3.038-2.463 5.5-5.5 5.5s-5.5-2.462-5.5-5.5"
         id="path2985" />
    </clipPath>
    <clipPath
       id="clipPath29040-3">
      <path
         d="m494 680.74c0-3.037 2.462-5.5 5.5-5.5s5.5 2.463 5.5 5.5c0 3.038-2.462 5.5-5.5 5.5s-5.5-2.462-5.5-5.5"
         id="path2988" />
    </clipPath>
    <clipPath
       id="clipPath29068-2">
      <path
         d="m513 691.74c0-3.037 2.463-5.5 5.5-5.5s5.5 2.463 5.5 5.5-2.463 5.5-5.5 5.5-5.5-2.463-5.5-5.5"
         id="path2991" />
    </clipPath>
    <clipPath
       id="clipPath29096-0">
      <path
         d="m513 669.74c0-3.037 2.463-5.5 5.5-5.5s5.5 2.463 5.5 5.5c0 3.038-2.463 5.5-5.5 5.5s-5.5-2.462-5.5-5.5"
         id="path2994" />
    </clipPath>
    <clipPath
       id="clipPath29124-6">
      <path
         d="m507 680.74c0-3.037 2.463-5.5 5.5-5.5s5.5 2.463 5.5 5.5c0 3.038-2.463 5.5-5.5 5.5s-5.5-2.462-5.5-5.5"
         id="path2997" />
    </clipPath>
    <clipPath
       id="clipPath29152-1">
      <path
         d="m520 680.74c0-3.037 2.463-5.5 5.5-5.5s5.5 2.463 5.5 5.5c0 3.038-2.463 5.5-5.5 5.5s-5.5-2.462-5.5-5.5"
         id="path3000" />
    </clipPath>
    <clipPath
       id="clipPath29252-5">
      <path
         d="m321 322.24c-4.97 0-9-4.029-9-9 0-4.97 4.03-9 9-9h45c4.971 0 9 4.03 9 9 0 4.971-4.029 9-9 9z"
         id="path3003" />
    </clipPath>
    <clipPath
       id="clipPath29280-5">
      <path
         d="m322 297.24c-4.971 0-9-4.029-9-9 0-4.97 4.029-9 9-9h45c4.971 0 9 4.03 9 9 0 4.971-4.029 9-9 9z"
         id="path3006" />
    </clipPath>
    <clipPath
       id="clipPath29400-4-7">
      <path
         d="m155 83.24h44v53h-44z"
         id="path3009" />
    </clipPath>
    <linearGradient
       id="linearGradient1952"
       x1="28.574"
       x2="28.574"
       y1="-5.2916"
       gradientUnits="userSpaceOnUse">
      <stop
         stop-color="#28c3fa"
         offset="0"
         id="stop3012" />
      <stop
         stop-color="#037cd5"
         offset="1"
         id="stop3014" />
    </linearGradient>
    <linearGradient
       id="linearGradient1966"
       x1="28.045"
       x2="28.045"
       y1="-16.404"
       y2="-5.2916"
       gradientUnits="userSpaceOnUse">
      <stop
         stop-color="#cecece"
         offset="0"
         id="stop3017" />
      <stop
         stop-color="#b2b3b3"
         offset="1"
         id="stop3019" />
    </linearGradient>
    <linearGradient
       id="linearGradient2015"
       x1="28.574"
       x2="28.574"
       y1="-5.2916"
       gradientTransform="matrix(-0.70711,-0.70711,-0.70711,0.70711,46.027,18.856)"
       gradientUnits="userSpaceOnUse">
      <stop
         stop-color="#0e69b4"
         offset="0"
         id="stop3022" />
      <stop
         stop-color="#1299e4"
         offset="1"
         id="stop3024" />
    </linearGradient>
    <linearGradient
       id="linearGradient2017"
       x1="28.045"
       x2="28.045"
       y1="-16.404"
       y2="-5.2916"
       gradientTransform="matrix(-0.70711,-0.70711,-0.70711,0.70711,46.027,18.856)"
       gradientUnits="userSpaceOnUse"
       xlink:href="#linearGradient2043" />
    <linearGradient
       id="linearGradient2061"
       x1="25.662"
       x2="36.914"
       y1="-15.481"
       y2="-4.4096"
       gradientTransform="translate(2.6458,1.4221)"
       gradientUnits="userSpaceOnUse">
      <stop
         stop-color="#e13c0a"
         offset="0"
         id="stop3028" />
      <stop
         stop-color="#b4350e"
         offset="1"
         id="stop3030" />
    </linearGradient>
    <linearGradient
       id="linearGradient2076"
       x1="28.045"
       x2="28.045"
       y1="-16.404"
       y2="-5.2916"
       gradientTransform="matrix(-2.6726,-2.6726,-2.6726,2.6726,173.96,71.267)"
       gradientUnits="userSpaceOnUse"
       xlink:href="#linearGradient2043" />
    <linearGradient
       id="linearGradient2106"
       x1="28.045"
       x2="28.045"
       y1="-16.404"
       y2="-5.2916"
       gradientTransform="matrix(-0.71944,-0.71944,-0.71944,0.71944,46.305,19.28)"
       gradientUnits="userSpaceOnUse"
       xlink:href="#linearGradient2043" />
    <filter
       id="filter2118"
       x="-.047725"
       y="-.048279"
       width="1.0954"
       height="1.0966"
       color-interpolation-filters="sRGB">
      <feGaussianBlur
         stdDeviation="0.2551873"
         id="feGaussianBlur3035" />
    </filter>
    <linearGradient
       gradientUnits="userSpaceOnUse"
       y2="10.701424"
       x2="11.910378"
       y1="2.1657276"
       x1="8.4670286"
       id="linearGradient4466"
       xlink:href="#linearGradient4464"
       inkscape:collect="always" />
    <linearGradient
       id="linearGradient1001"
       x1="49.441"
       x2="15.077"
       y1="49.048"
       y2="14.685"
       gradientTransform="matrix(1.5738,0,0,1.5738,-18.36,-18.361)"
       gradientUnits="userSpaceOnUse">
      <stop
         stop-color="#17aa61"
         offset="0"
         id="stop4470" />
      <stop
         stop-color="#0d4d28"
         offset="1"
         id="stop4472" />
    </linearGradient>
    <linearGradient
       id="linearGradient2638"
       x1="1.5979"
       x2="62.452"
       y1="62.151"
       y2="1.6145"
       gradientTransform="matrix(0.91803,0,0,0.91803,2.623,2.623)"
       gradientUnits="userSpaceOnUse">
      <stop
         stop-color="#134629"
         offset="0"
         id="stop4475" />
      <stop
         stop-color="#2ca75d"
         offset="1"
         id="stop4477" />
    </linearGradient>
    <linearGradient
       gradientUnits="userSpaceOnUse"
       y2="55.814411"
       x2="59.5"
       y1="49.356255"
       x1="20.765087"
       id="linearGradient4510"
       xlink:href="#linearGradient4508"
       inkscape:collect="always" />
    <linearGradient
       gradientUnits="userSpaceOnUse"
       y2="13.530388"
       x2="7.1988139"
       y1="8.8657513"
       x1="9.2115936"
       id="linearGradient4568"
       xlink:href="#linearGradient4566"
       inkscape:collect="always" />
  </defs>
  <sodipodi:namedview
     inkscape:document-rotation="0"
     inkscape:current-layer="svg16"
     inkscape:window-maximized="1"
     inkscape:window-y="36"
     inkscape:window-x="0"
     inkscape:cy="28.855454"
     inkscape:cx="16.468639"
     inkscape:zoom="3.6875"
     showgrid="false"
     id="namedview18"
     inkscape:window-height="936"
     inkscape:window-width="1920"
     inkscape:pageshadow="2"
     inkscape:pageopacity="0"
     guidetolerance="10"
     gridtolerance="10"
     objecttolerance="10"
     borderopacity="1"
     bordercolor="#666666"
     pagecolor="#ffffff">
    <inkscape:grid
       id="grid908"
       type="xygrid" />
  </sodipodi:namedview>
  <circle
     style="fill:#5e4aa6;stroke-width:0.26458001"
     cx="-330.37701"
     cy="-328.5105"
     r="0"
     id="circle882" />
  <circle
     style="fill:#5e4aa6;fill-rule:evenodd;stroke-width:0.26458001"
     cx="-39.460999"
     cy="6.3115196"
     r="0"
     id="circle888" />
  <path
     style="fill:url(#linearGradient4568);stroke-width:0.980858;fill-opacity:1"
     inkscape:connector-curvature="0"
     id="path894"
     d="M 8.6707913,5.1793254 3.820545,13.581061 h 9.700493 z" />
  <path
     transform="scale(0.26457812)"
     d="M 25.03125 40.712891 C 15.321606 42.879472 9.9604257 49.390661 4.5 55.814453 L 32.001953 55.814453 L 59.5 55.814453 C 52.140816 52.092891 49.871272 44.610577 36.15625 45.585938 L 32.001953 43.765625 L 25.03125 40.712891 z "
     style="fill:url(#linearGradient4510);stroke-width:3.70725;fill-opacity:1"
     id="path896" />
  <path
     style="fill:url(#linearGradient922);stroke-width:0.980858;fill-opacity:1"
     inkscape:connector-curvature="0"
     id="path900"
     d="M 8.4670288,2.1657277 1.1906018,14.767272 9.2115934,8.8657516 C 10.232197,6.2872736 9.1777496,4.2725071 8.4670288,2.1657277 Z" />
  <path
     style="fill:url(#linearGradient4466);stroke-width:0.980858;fill-opacity:1"
     inkscape:connector-curvature="0"
     id="path902"
     d="m 8.4670288,2.1657277 1.099925,9.8950943 6.1754442,2.70645 z" />
</svg>
