<?xml version="1.0" encoding="UTF-8" standalone="no"?>
<svg
   xmlns:dc="http://purl.org/dc/elements/1.1/"
   xmlns:cc="http://creativecommons.org/ns#"
   xmlns:rdf="http://www.w3.org/1999/02/22-rdf-syntax-ns#"
   xmlns:svg="http://www.w3.org/2000/svg"
   xmlns="http://www.w3.org/2000/svg"
   xmlns:sodipodi="http://sodipodi.sourceforge.net/DTD/sodipodi-0.dtd"
   xmlns:inkscape="http://www.inkscape.org/namespaces/inkscape"
   width="64"
   height="64"
   version="1"
   id="svg22"
   sodipodi:docname="conky-manager.svg"
   inkscape:version="1.0.2 (e86c870879, 2021-01-15)">
  <metadata
     id="metadata28">
    <rdf:RDF>
      <cc:Work
         rdf:about="">
        <dc:format>image/svg+xml</dc:format>
        <dc:type
           rdf:resource="http://purl.org/dc/dcmitype/StillImage" />
        <dc:title></dc:title>
      </cc:Work>
    </rdf:RDF>
  </metadata>
  <defs
     id="defs26" />
  <sodipodi:namedview
     pagecolor="#ffffff"
     bordercolor="#666666"
     borderopacity="1"
     objecttolerance="10"
     gridtolerance="10"
     guidetolerance="10"
     inkscape:pageopacity="0"
     inkscape:pageshadow="2"
     inkscape:window-width="1920"
     inkscape:window-height="935"
     id="namedview24"
     showgrid="false"
     inkscape:zoom="6.0546875"
     inkscape:cx="36.053394"
     inkscape:cy="37.606781"
     inkscape:window-x="0"
     inkscape:window-y="38"
     inkscape:window-maximized="1"
     inkscape:current-layer="svg22" />
  <g
     id="g860"
     transform="matrix(1.0185185,0,0,1.0185185,-0.592592,-0.59259149)">
    <rect
       style="fill:#c2352a"
       width="8"
       height="40"
       x="51"
       y="12"
       rx="1.3329999"
       ry="1.429"
       id="rect6" />
    <rect
       style="fill:#c2352a"
       width="8"
       height="40"
       x="29"
       y="12"
       rx="1.3329999"
       ry="1.429"
       id="rect8" />
    <rect
       style="fill:#c2352a"
       width="8"
       height="40"
       x="5"
       y="12"
       rx="1.3329999"
       ry="1.429"
       id="rect10" />
    <rect
       style="fill:#d8564d"
       width="8"
       height="20"
       x="12"
       y="-25"
       rx="1.3329999"
       ry="1.429"
       transform="rotate(90)"
       id="rect14" />
    <rect
       style="fill:#d8564d"
       width="8"
       height="20"
       x="44"
       y="-25"
       rx="1.3329999"
       ry="1.429"
       transform="rotate(90)"
       id="rect16" />
    <path
       style="fill:#d8564d"
       d="m 30.952676,11.999999 a 1.9532883,1.6212212 0 0 0 -1.691154,2.43159 l 6.525568,9.378081 6.523024,9.37808 a 1.9532883,1.6212212 0 0 0 1.599608,0.81053 1.9532883,1.6212212 0 0 0 1.782702,-0.81053 l 6.523028,-9.37808 6.523024,-9.378081 a 1.9532883,1.6212212 0 0 0 -1.691152,-2.43159 H 44.00127 Z"
       id="path18" />
    <path
       style="opacity:0.2;fill:#ffffff"
       d="M 6.4296875,12 C 5.6382587,12 5,12.593365 5,13.332031 v 1 C 5,13.593365 5.6382587,13 6.4296875,13 H 23.570312 C 24.361742,13 25,13.593365 25,14.332031 v -1 C 25,12.593365 24.361742,12 23.570312,12 Z M 30.953125,12 A 1.9532883,1.6212212 0 0 0 29.099609,14.121094 1.9532883,1.6212212 0 0 1 30.953125,13 H 44 57.046875 A 1.9532883,1.6212212 0 0 1 58.902344,14.123047 1.9532883,1.6212212 0 0 0 57.046875,12 H 44 Z M 6.4296875,44 C 5.6382587,44 5,44.593363 5,45.332031 v 1 C 5,45.593363 5.6382587,45 6.4296875,45 H 23.570312 C 24.361742,45 25,45.593363 25,46.332031 v -1 C 25,44.593363 24.361742,44 23.570312,44 Z"
       id="path20" />
  </g>
</svg>
