<?xml version="1.0" encoding="UTF-8"?>
<!-- Created with Inkscape (http://www.inkscape.org/) -->
<svg width="64" height="64" version="1.1" viewBox="0 0 64 64" xmlns="http://www.w3.org/2000/svg" xmlns:cc="http://creativecommons.org/ns#" xmlns:dc="http://purl.org/dc/elements/1.1/" xmlns:rdf="http://www.w3.org/1999/02/22-rdf-syntax-ns#" xmlns:xlink="http://www.w3.org/1999/xlink">
 <metadata>
  <rdf:RDF>
   <cc:Work rdf:about="">
    <dc:format>image/svg+xml</dc:format>
    <dc:type rdf:resource="http://purl.org/dc/dcmitype/StillImage"/>
    <dc:title/>
   </cc:Work>
  </rdf:RDF>
 </metadata>
 <defs>
  <linearGradient id="linearGradient1116" x1="127.53" x2="169.73" y1="-14.592" y2="-14.592" gradientTransform="translate(-107.93 56.506)" gradientUnits="userSpaceOnUse">
   <stop stop-color="#2db4f5" offset="0"/>
   <stop stop-color="#1e96e6" offset="1"/>
  </linearGradient>
  <linearGradient id="linearGradient1124" x1="110.68" x2="148.88" y1="-23.382" y2="-23.382" gradientTransform="translate(-107.93 56.506)" gradientUnits="userSpaceOnUse">
   <stop stop-color="#1982dc" offset="0"/>
   <stop stop-color="#1987d7" offset="1"/>
  </linearGradient>
  <linearGradient id="linearGradient1132" x1="131.56" x2="159.67" y1="-33.473" y2="-33.473" gradientTransform="translate(-107.93 56.506)" gradientUnits="userSpaceOnUse">
   <stop stop-color="#0573c3" offset="0"/>
   <stop stop-color="#0564be" offset="1"/>
  </linearGradient>
  <linearGradient id="linearGradient1140" x1="148.88" x2="170.68" y1="-19.898" y2="-19.898" gradientTransform="translate(-107.93 56.506)" gradientUnits="userSpaceOnUse">
   <stop stop-color="#1496e6" offset="0"/>
   <stop stop-color="#0a78dc" offset="1"/>
  </linearGradient>
 </defs>
 <g fill="#5e4aa6">
  <g transform="matrix(3.7796 0 0 3.7796 -71.985 -28.735)" stroke-width=".26458">
   <circle cx="-330.35" cy="-328.38" r="0"/>
   <circle cx="-312.11" cy="-326.25" r="0"/>
   <circle cx="-306.02" cy="-333.07" r="0"/>
   <circle cx="-308.84" cy="-326.01" r="0"/>
  </g>
  <circle cx="-1328.7" cy="-1277.1" r="0"/>
  <circle cx="-229.1" cy="-11.553" r="0" fill-rule="evenodd"/>
 </g>
 <g transform="translate(-.74743 -.4281)" fill-rule="evenodd" stroke-width="6.4002">
  <path d="m51.737 28.661-10.787 3.8594 20.846 12.035a11.015 11.325 0 0 0 0.95312-4.5723 11.015 11.325 0 0 0-11.012-11.322z" fill="url(#linearGradient1140)"/>
  <path d="m37.039 13.547a14.695 15.108 0 0 0-13.412 8.9707l17.322 10.002 10.787-3.8594a14.695 15.108 0 0 1 0-0.0039 14.695 15.108 0 0 0 0-0.0078 14.695 15.108 0 0 0-14.695-15.098z" fill="url(#linearGradient1132)"/>
  <path d="m40.95 32.52-17.322-10.002a14.695 15.108 0 0 0-6.1856-1.4258 14.695 15.108 0 0 0-14.695 15.107 14.695 15.108 0 0 0 2.8809 8.957z" fill="url(#linearGradient1124)"/>
  <path d="m40.95 32.52-35.322 12.637a14.695 15.108 0 0 0 11.814 6.1523 14.695 15.108 0 0 0 0.0059 0h34.289a11.015 11.325 0 0 0 10.059-6.7539z" fill="url(#linearGradient1116)"/>
 </g>
</svg>
