<?xml version="1.0" encoding="UTF-8" standalone="no"?>
<svg
   xmlns:dc="http://purl.org/dc/elements/1.1/"
   xmlns:cc="http://creativecommons.org/ns#"
   xmlns:rdf="http://www.w3.org/1999/02/22-rdf-syntax-ns#"
   xmlns:svg="http://www.w3.org/2000/svg"
   xmlns="http://www.w3.org/2000/svg"
   xmlns:sodipodi="http://sodipodi.sourceforge.net/DTD/sodipodi-0.dtd"
   xmlns:inkscape="http://www.inkscape.org/namespaces/inkscape"
   inkscape:version="1.0 (4035a4fb49, 2020-05-01)"
   sodipodi:docname="datagrip.svg"
   id="svg14"
   viewBox="0 0 16.933 16.933"
   version="1.1"
   height="64"
   width="64">
  <metadata
     id="metadata20">
    <rdf:RDF>
      <cc:Work
         rdf:about="">
        <dc:format>image/svg+xml</dc:format>
        <dc:type
           rdf:resource="http://purl.org/dc/dcmitype/StillImage" />
        <dc:title></dc:title>
      </cc:Work>
    </rdf:RDF>
  </metadata>
  <defs
     id="defs18">
    <linearGradient
       id="a"
       x1="-6.1472"
       x2="-6.1472"
       y1="-137.82"
       y2="-100.78"
       gradientTransform="matrix(0.53033,0,0,0.53033,11.536,352.06)"
       gradientUnits="userSpaceOnUse">
      <stop
         stop-color="#32b4ff"
         offset="0"
         id="stop827" />
      <stop
         stop-color="#3287ff"
         offset="1"
         id="stop829" />
    </linearGradient>
    <linearGradient
       id="a-3"
       x1="-6.1472"
       x2="-6.1472"
       y1="-137.82"
       y2="-100.78"
       gradientTransform="matrix(0.53032038,0,0,0.53032038,26.534137,71.864974)"
       gradientUnits="userSpaceOnUse">
      <stop
         stop-color="#14dc78"
         offset="0"
         id="stop909" />
      <stop
         stop-color="#14a03c"
         offset="1"
         id="stop911" />
    </linearGradient>
  </defs>
  <sodipodi:namedview
     inkscape:document-rotation="0"
     inkscape:current-layer="svg14"
     inkscape:window-maximized="1"
     inkscape:window-y="36"
     inkscape:window-x="0"
     inkscape:cy="29.743405"
     inkscape:cx="50.857342"
     inkscape:zoom="5.2149125"
     showgrid="false"
     id="namedview16"
     inkscape:window-height="936"
     inkscape:window-width="1920"
     inkscape:pageshadow="2"
     inkscape:pageopacity="0"
     guidetolerance="10"
     gridtolerance="10"
     objecttolerance="10"
     borderopacity="1"
     bordercolor="#666666"
     pagecolor="#ffffff" />
  <circle
     id="circle924"
     r="0"
     cy="-337.68082"
     cx="-306.19653"
     style="fill:#5e4aa6;stroke-width:0.26457813" />
  <circle
     id="circle926"
     r="0"
     cy="-2.8608832"
     cx="-15.282561"
     style="fill:#5e4aa6;fill-rule:evenodd;stroke-width:0.26457813" />
  <g
     transform="matrix(1.7666971,0,0,1.7666971,-43.378459,-6.4908898)"
     id="g958">
    <path
       style="fill:#000000;fill-opacity:1;stroke:#00c800;stroke-width:0.29951725;stroke-miterlimit:4;stroke-dasharray:none;stroke-opacity:1"
       inkscape:connector-curvature="0"
       id="path4"
       d="m 25.377094,4.4976974 h 7.937207 v 7.9372076 h -7.937207 z" />
    <path
       style="fill:#f9f9f9;stroke-width:0.264574"
       inkscape:connector-curvature="0"
       id="path6"
       d="m 26.239793,5.3603965 h 1.343411 c 0.803488,0 1.451645,0.6264517 1.451645,1.7005115 v 0.015529 c 0,1.0845428 -0.7792,1.6875987 -1.380624,1.6947595 l -0.482966,0.00563 H 26.2395 Z m 1.242338,2.7952906 c 0.373852,0 0.93176,-0.3053548 0.93176,-1.0792953 v -0.01553 c 0,-0.7634224 -0.557814,-1.0792954 -0.93176,-1.0792954 H 26.86095 v 2.1740628 z" />
    <path
       style="fill:#f9f9f9;stroke-width:0.264574"
       inkscape:connector-curvature="0"
       id="path8"
       d="m 31.053957,5.3603965 c -0.492932,0 -0.931642,0.162456 -1.238699,0.469513 -0.307175,0.3068575 -0.469607,0.74572 -0.469607,1.2385819 0,0.4929324 0.162456,0.9316423 0.469513,1.2386993 0.306857,0.3071744 0.74572,0.4696069 1.238582,0.4696069 0.451071,0 0.789295,-0.1411497 1.008204,-0.2887559 0.21892,-0.1475944 0.337883,-0.3221064 0.337883,-0.3221064 l 0.05156,-0.077653 V 6.9133253 H 30.898441 V 7.5345062 H 31.8302 v 0.3354654 c -0.01928,0.023807 -0.02509,0.042331 -0.115256,0.1031271 -0.130443,0.087902 -0.335747,0.1826237 -0.661246,0.1826237 -0.361209,0 -0.621181,-0.1093253 -0.799449,-0.2876055 -0.17828,-0.1782802 -0.287606,-0.4382404 -0.287606,-0.7994612 0,-0.361209 0.109328,-0.6211809 0.287606,-0.7994493 0.17828,-0.1782802 0.43824,-0.2876055 0.799449,-0.2876055 0.361186,0 0.621334,0.1093088 0.79952,0.287535 L 32.292419,5.829933 C 31.985562,5.5227586 31.546699,5.360326 31.053837,5.360326 Z" />
    <path
       style="fill:#f9f9f9;stroke-width:0.264574"
       inkscape:connector-curvature="0"
       id="path10"
       d="m 25.929179,10.95133 h 3.105905 v 0.621181 h -3.105905 z" />
  </g>
</svg>
