<?xml version="1.0" encoding="UTF-8" standalone="no"?>
<svg
   xmlns:dc="http://purl.org/dc/elements/1.1/"
   xmlns:cc="http://creativecommons.org/ns#"
   xmlns:rdf="http://www.w3.org/1999/02/22-rdf-syntax-ns#"
   xmlns:svg="http://www.w3.org/2000/svg"
   xmlns="http://www.w3.org/2000/svg"
   xmlns:sodipodi="http://sodipodi.sourceforge.net/DTD/sodipodi-0.dtd"
   xmlns:inkscape="http://www.inkscape.org/namespaces/inkscape"
   width="64"
   height="64"
   version="1.1"
   viewBox="0 0 16.933 16.933"
   id="svg19"
   sodipodi:docname="distributor-logo-debian.svg"
   inkscape:version="1.0.1 (3bc2e813f5, 2020-09-07)">
  <metadata
     id="metadata23">
    <rdf:RDF>
      <cc:Work
         rdf:about="">
        <dc:format>image/svg+xml</dc:format>
        <dc:type
           rdf:resource="http://purl.org/dc/dcmitype/StillImage" />
        <dc:title></dc:title>
      </cc:Work>
    </rdf:RDF>
  </metadata>
  <sodipodi:namedview
     pagecolor="#ffffff"
     bordercolor="#666666"
     borderopacity="1"
     objecttolerance="10"
     gridtolerance="10"
     guidetolerance="10"
     inkscape:pageopacity="0"
     inkscape:pageshadow="2"
     inkscape:window-width="1920"
     inkscape:window-height="932"
     id="namedview21"
     showgrid="false"
     inkscape:zoom="4.2260679"
     inkscape:cx="-3.5798985"
     inkscape:cy="31.498143"
     inkscape:window-x="0"
     inkscape:window-y="36"
     inkscape:window-maximized="1"
     inkscape:current-layer="svg19"
     inkscape:document-rotation="0" />
  <defs
     id="defs7">
    <linearGradient
       id="b"
       x1="45.628"
       x2="45.628"
       y1="57.955"
       y2="12.461"
       gradientUnits="userSpaceOnUse">
      <stop
         offset="0"
         id="stop2" />
      <stop
         stop-opacity="0"
         offset="1"
         id="stop4" />
    </linearGradient>
    <style
       type="text/css"
       id="style850" />
    <linearGradient
       id="a-3"
       x1="-6.1472"
       x2="-6.1472"
       y1="-140.25"
       y2="-98.292"
       gradientTransform="matrix(2.0044,0,0,2.0044,158.75,201.78)"
       gradientUnits="userSpaceOnUse">
      <stop
         stop-color="#ff3c69"
         offset="0"
         id="stop852" />
      <stop
         stop-color="#ff462b"
         offset="1"
         id="stop854" />
    </linearGradient>
  </defs>
  <path
     id="rect841"
     style="fill:#d70651;stroke-width:4.648;stroke-linecap:round"
     d="M 31.324219 4.5 C 29.927622 4.5844454 27.99223 5.31101 28.589844 4.6484375 C 26.316311 5.6617836 22.26899 7.0926681 20.001953 9.2167969 L 19.931641 8.7421875 C 18.892312 9.9893824 15.395871 12.470435 15.123047 14.087891 L 14.837891 14.152344 C 14.298737 15.061755 13.948255 16.101076 13.519531 17.042969 C 12.811488 18.251189 12.480051 17.511477 12.583984 17.693359 C 11.193882 20.519036 10.505818 22.889148 9.9082031 24.837891 C 10.330431 25.467984 9.9072804 28.663944 10.076172 31.216797 C 9.3746245 43.838148 18.929741 56.090336 29.375 58.916016 C 30.90801 59.468159 33.181438 59.441537 35.117188 59.5 C 32.837158 58.850419 32.538607 59.149942 30.310547 58.376953 C 28.706083 57.623437 28.362012 56.752352 27.21875 55.771484 L 27.673828 56.564453 C 25.43927 55.778458 26.375467 55.589209 24.556641 55.017578 L 25.037109 54.388672 C 24.32257 54.336702 23.127525 53.173019 22.802734 52.523438 L 22.009766 52.556641 C 21.061378 51.387372 20.553459 50.542159 20.585938 49.892578 L 20.333984 50.347656 C 20.048168 49.847479 16.839027 45.944102 18.501953 46.853516 C 18.190154 46.574195 17.786738 46.397913 17.332031 45.585938 L 17.675781 45.195312 C 16.876798 44.168973 16.202576 42.850555 16.248047 42.402344 C 16.683266 42.986965 16.975267 43.092019 17.267578 43.189453 C 15.253878 38.174692 15.136526 42.916229 13.603516 38.089844 L 13.927734 38.064453 C 13.680895 37.687795 13.524952 37.283599 13.330078 36.880859 L 13.466797 35.478516 C 12.011734 33.796101 13.065572 28.327236 13.273438 25.326172 C 13.416345 24.10496 14.486852 22.805308 15.298828 20.765625 L 14.804688 20.681641 C 15.753075 19.031706 20.209724 14.055257 22.275391 14.308594 C 23.282241 13.048407 22.081595 14.309164 21.886719 13.984375 C 24.082302 11.710841 24.776768 12.379939 26.257812 11.970703 C 27.855781 11.022315 24.887111 12.339495 25.640625 11.605469 C 28.407839 10.897426 27.60186 10.001801 31.207031 9.6445312 C 31.590287 9.8588914 30.323517 9.9765392 30.011719 10.255859 C 32.311236 9.1320847 37.300244 9.3842342 40.535156 10.884766 C 44.302724 12.638634 48.525102 17.835856 48.6875 22.720703 L 48.882812 22.773438 C 48.785374 24.715684 49.174251 26.955819 48.492188 29.021484 L 48.953125 28.046875 C 49.009906 29.529974 48.525048 30.252135 48.083984 31.523438 L 47.291016 31.912109 C 46.641434 33.17879 47.356382 32.718395 46.888672 33.71875 C 45.875327 34.628164 43.808422 36.537502 43.152344 36.712891 C 42.671654 36.712891 43.478088 36.147958 43.582031 35.933594 C 42.230903 36.862495 42.496629 37.329399 40.417969 37.894531 L 40.353516 37.757812 C 35.241313 40.161258 28.135621 35.393565 28.226562 28.884766 C 28.174597 29.300499 28.069413 29.196996 27.958984 29.359375 C 27.699168 26.014026 29.505567 22.648596 32.558594 21.271484 C 35.546668 19.796936 39.054921 20.402272 41.185547 22.396484 C 40.016301 20.856978 37.678007 19.225596 34.904297 19.375 C 32.18905 19.413975 29.641329 21.148739 28.796875 23.019531 C 27.406772 23.896465 27.244735 26.396857 26.640625 26.851562 C 25.822153 32.853691 28.173005 35.439797 32.148438 38.486328 C 32.460238 38.697442 32.505969 38.818117 32.482422 38.927734 C 37.171851 40.680844 42.016797 40.253358 46.076172 37.005859 C 47.109005 36.200381 48.239664 34.828081 48.564453 34.808594 C 48.070773 35.549116 48.648235 35.166844 48.271484 35.816406 C 49.297824 34.159977 47.816555 35.141576 49.330078 32.958984 L 49.888672 33.724609 C 49.680794 32.340999 51.597216 30.672188 51.402344 28.496094 C 51.844058 27.827025 51.897289 29.209177 51.429688 30.742188 C 52.079269 29.040286 51.598668 28.768328 51.767578 27.365234 C 51.949453 27.839427 52.183218 28.339666 52.306641 28.839844 C 51.884414 27.196405 52.734859 26.072071 52.949219 25.117188 C 52.741341 25.026246 52.299244 25.84459 52.195312 23.902344 C 52.214966 23.057889 52.428594 23.461772 52.519531 23.253906 C 52.350659 23.156468 51.91672 22.512184 51.650391 21.271484 C 51.845267 20.979174 52.163362 22.024842 52.429688 22.070312 C 52.254314 21.08295 51.968069 20.336181 51.955078 19.576172 C 51.195068 17.984699 51.689346 19.790951 51.072266 18.894531 C 50.26029 16.367662 51.741768 18.309914 51.845703 17.160156 C 53.066915 18.940007 53.767008 21.694629 54.091797 22.837891 A 23.222511 23.222511 0 0 0 52.962891 18.791016 C 53.339641 18.946917 52.36442 15.933522 53.449219 17.927734 C 52.292963 13.666485 48.486928 9.6774332 44.992188 7.8066406 C 45.414414 8.196389 45.960497 8.6896284 45.765625 8.7675781 C 44.024748 7.7282488 44.329507 7.6506993 44.076172 7.2089844 C 42.666581 6.6373536 42.568211 7.2609501 41.632812 7.2089844 C 38.963038 5.7928987 38.450831 5.9478829 35.982422 5.0644531 L 36.099609 5.5839844 C 34.332748 4.992866 34.039309 5.8048416 32.123047 5.5839844 C 32.006106 5.4930434 32.740275 5.2608648 33.337891 5.1699219 C 31.629495 5.3972763 31.707167 4.8303166 30.03125 5.2265625 C 30.446866 4.9342504 30.876007 4.7468405 31.324219 4.5 z M 32.482422 38.927734 C 32.482422 38.927734 32.480469 38.927734 32.480469 38.927734 C 32.477809 38.929919 32.480666 38.935041 32.478516 38.9375 C 32.479327 38.93427 32.481724 38.930983 32.482422 38.927734 z M 32.478516 38.9375 C 32.451961 39.043233 32.369171 39.141247 32.410156 39.298828 A 10.78304 10.78304 0 0 1 28.882812 36.601562 C 29.415468 37.374563 29.986678 38.121772 30.720703 38.712891 C 29.473506 38.290664 27.809451 35.693775 27.322266 35.589844 C 29.465884 39.43536 36.027928 42.330741 39.470703 40.888672 C 37.87923 40.953643 35.858615 40.921726 34.072266 40.265625 C 33.32977 39.881575 32.333606 39.103213 32.478516 38.9375 z "
     transform="scale(0.26457812)" />
  <circle
     cx="-317.23749"
     cy="-346.88895"
     r="0"
     fill="#5e4aa6"
     id="circle865"
     style="stroke-width:0.264578" />
  <circle
     cx="-288.58365"
     cy="-362.79007"
     r="0"
     fill="#5e4aa6"
     id="circle867"
     style="stroke-width:0.264578" />
</svg>
