<?xml version="1.0" encoding="UTF-8" standalone="no"?>
<svg
   xmlns:dc="http://purl.org/dc/elements/1.1/"
   xmlns:cc="http://creativecommons.org/ns#"
   xmlns:rdf="http://www.w3.org/1999/02/22-rdf-syntax-ns#"
   xmlns:svg="http://www.w3.org/2000/svg"
   xmlns="http://www.w3.org/2000/svg"
   xmlns:sodipodi="http://sodipodi.sourceforge.net/DTD/sodipodi-0.dtd"
   xmlns:inkscape="http://www.inkscape.org/namespaces/inkscape"
   width="64"
   height="64"
   version="1.1"
   viewBox="0 0 16.933 16.933"
   id="svg21"
   sodipodi:docname="distributor-logo-rhel.svg"
   inkscape:version="1.0.1 (3bc2e813f5, 2020-09-07)">
  <metadata
     id="metadata25">
    <rdf:RDF>
      <cc:Work
         rdf:about="">
        <dc:format>image/svg+xml</dc:format>
        <dc:type
           rdf:resource="http://purl.org/dc/dcmitype/StillImage" />
        <dc:title></dc:title>
      </cc:Work>
    </rdf:RDF>
  </metadata>
  <sodipodi:namedview
     pagecolor="#ffffff"
     bordercolor="#666666"
     borderopacity="1"
     objecttolerance="10"
     gridtolerance="10"
     guidetolerance="10"
     inkscape:pageopacity="0"
     inkscape:pageshadow="2"
     inkscape:window-width="1920"
     inkscape:window-height="932"
     id="namedview23"
     showgrid="false"
     inkscape:zoom="5.9765625"
     inkscape:cx="8.9212702"
     inkscape:cy="33.286493"
     inkscape:window-x="0"
     inkscape:window-y="36"
     inkscape:window-maximized="1"
     inkscape:current-layer="svg21"
     inkscape:document-rotation="0" />
  <defs
     id="defs7">
    <linearGradient
       id="a"
       x1="45.628"
       x2="45.628"
       y1="57.955"
       y2="12.461"
       gradientTransform="matrix(0.26458,0,0,0.26458,0,280.07)"
       gradientUnits="userSpaceOnUse">
      <stop
         offset="0"
         id="stop2" />
      <stop
         stop-opacity="0"
         offset="1"
         id="stop4" />
    </linearGradient>
  </defs>
  <g
     id="g874"
     transform="matrix(1.3333334,0,0,1.3333334,-2.8221676,-2.8221676)">
    <circle
       style="fill:#000000;fill-opacity:1;stroke-width:1.70036;stroke-linecap:round"
       id="path854"
       cx="8.4665003"
       cy="8.4665003"
       r="5.9530077" />
    <path
       d="M 8.467,3.699 A 4.76,4.76 0 0 0 3.704,8.462 c 0,0.518 0.089,1.033 0.257,1.524 C 4.471,9.979 4.849,9.909 5.114,9.78 5.572,9.556 5.662,10.28 6.084,10.246 6.56,10.206 6.101,9.894 5.924,9.685 5.694,9.415 5.61,8.932 6.116,8.887 6.5,8.854 6.729,9.541 6.859,9.449 c 0.338,-0.238 0.51,0.269 0.76,0.46 0.33,0.253 0.77,0.314 1.124,0.16 0.359,-0.156 0.522,0.15 0.948,-0.03 0.315,-0.132 0.326,0.196 0.925,-0.046 -0.017,0.283 -0.118,0.557 -0.172,0.822 -0.065,0.317 -0.58,1.006 -0.84,1.314 0.294,-0.071 0.531,-0.174 0.57,-0.247 0.302,-0.563 0.812,-0.328 0.814,-0.659 0,-0.221 0.56,-0.221 0.654,-0.221 0.171,0 0.524,0.002 0.815,0.051 A 4.756,4.756 0 0 0 8.467,3.7 Z m 1.03,6.91 c -0.061,0.129 -0.23,0.243 -0.338,0.133 -0.12,-0.123 -0.468,-0.136 -0.45,0.061 0.014,0.15 0.075,10e-4 0.247,0.125 0.258,0.186 0.743,0.067 0.54,-0.317 z m 3.574,0.075 a 0.159,0.159 0 1 0 0,0.318 0.159,0.159 0 0 0 0,-0.318 z m 0,0.032 a 0.127,0.127 0 1 1 0,0.254 0.127,0.127 0 0 1 0,-0.254 z m -0.063,0.047 v 0.16 h 0.029 V 10.86 h 0.026 l 0.038,0.062 h 0.033 l -0.04,-0.066 c 0.024,-0.009 0.036,-0.023 0.036,-0.046 0,-0.031 -0.023,-0.047 -0.068,-0.047 z m 0.029,0.026 h 0.021 c 0.022,0 0.042,0.003 0.042,0.023 0,0.021 -0.023,0.022 -0.049,0.022 h -0.014 z"
       fill="#2c2c2c"
       id="path15"
       style="fill:#000000;fill-opacity:0" />
    <path
       d="m 11.083,7.191 c -0.017,0.204 -0.294,0.565 -0.427,0.44 0.276,-0.36 0.16,-0.838 0.012,-1.229 C 10.464,5.864 10.308,5.256 9.872,4.868 9.47,4.509 8.883,4.695 8.403,4.814 7.891,4.942 7.307,4.512 6.836,4.839 6.446,5.11 6.505,5.657 6.373,6.076 6.236,6.506 6.714,6.791 7.068,6.913 7.518,7.068 8.054,7.018 8.432,7.323 8.64,7.493 8.784,7.833 8.784,8.151 7.832,8.151 6.86,7.765 6.258,7.178 6.056,6.975 6.312,6.563 5.862,6.563 c -0.38,0 -0.757,-0.02 -1.037,0.213 -0.286,0.238 -0.173,0.695 0.083,0.943 0.834,0.812 1.888,1.338 2.97,1.694 1.124,0.37 2.4,0.493 3.509,0.003 0.507,-0.225 0.994,-0.762 0.871,-1.355 -0.11,-0.535 -0.7,-0.76 -1.175,-0.87 z M 8.616,5.057 C 8.919,4.854 9.457,4.753 9.691,5.032 c 0.276,0.33 -0.469,0.5 -0.7,0.333 0.13,-0.032 0.407,-0.287 0.09,-0.317 -0.163,-0.02 -0.328,0 -0.465,0.01 z M 8.041,5.952 C 7.658,5.909 7.323,6.353 6.965,5.998 6.76,5.795 6.788,5.318 7.123,5.585 7.456,5.85 8.035,5.387 8.283,5.781 8.375,5.925 8.161,5.966 8.041,5.952 Z"
       fill="#f03030"
       id="path17" />
    <path
       id="circle856"
       style="fill:#ffffff;fill-opacity:1;stroke-width:1.36029;stroke-linecap:round"
       d="m 13.158633,7.6520953 c 0.004,0.023053 0.0078,0.046136 0.01138,0.069245 -0.0036,-0.023108 -0.0074,-0.046192 -0.01138,-0.069245 z m 0.01138,0.069245 c 0.0044,0.027868 0.0085,0.055773 0.01241,0.083714 -0.0039,-0.027941 -0.008,-0.055847 -0.01241,-0.083714 z m 0.02687,0.1984336 c 0.0032,0.027362 0.0061,0.054751 0.0088,0.082164 -0.0027,-0.027413 -0.0056,-0.054802 -0.0088,-0.082164 z m 0.0088,0.082164 c 0.0031,0.031321 0.0058,0.062673 0.0083,0.094049 -0.0024,-0.031376 -0.0052,-0.062727 -0.0083,-0.094049 z m 0.0083,0.094049 c 0.0049,0.062622 0.0085,0.1253336 0.01085,0.1880987 -0.0024,-0.062765 -0.006,-0.1254767 -0.01085,-0.1880987 z m 0.01085,0.1880987 c 0.03653,0.9818189 -0.231902,1.9508564 -0.768414,2.7739364 -0.291,-0.049 -0.643921,-0.05116 -0.814921,-0.05116 -0.094,0 -0.654211,1.71e-4 -0.654211,0.221171 -0.002,0.331 -0.511888,0.09586 -0.813888,0.658861 -0.039,0.073 -0.2759797,0.176009 -0.5699797,0.247009 0.2599998,-0.308 0.7747257,-0.996589 0.8397257,-1.313589 0.054,-0.265 0.155079,-0.539156 0.172079,-0.8221561 -0.599,0.2420001 -0.60999,-0.086009 -0.92499,0.045991 -0.4260002,0.18 -0.5887274,-0.1260287 -0.9477273,0.02997 -0.354,0.154 -0.7939402,0.09281 -1.1239403,-0.1601945 C 7.3685025,9.7229282 7.1963571,9.2160171 6.8583573,9.454017 6.7283571,9.5460169 6.4992647,8.8593052 6.1152648,8.8923053 5.6092647,8.9373052 5.6935489,9.4201735 5.9235488,9.6901736 6.1005489,9.8991737 6.559226,10.210852 6.0832259,10.250852 5.6612259,10.284852 5.5712784,9.5612564 5.1132783,9.7852564 4.8482785,9.9142565 4.4704,9.9839247 3.9604001,9.9909246 3.8346223,9.623324 3.752612,9.2423421 3.7195924,8.8566491 c 0.203105,2.4707949 2.2677835,4.3725199 4.7469117,4.3722569 2.6302039,0 4.7624059,-2.132202 4.7624059,-4.7624062 -2.12e-4,-0.060825 -0.0016,-0.1216413 -0.0041,-0.1824141 z M 3.70409,8.4794187 C 3.7044075,8.6034219 3.70959,8.7273651 3.719592,8.8509649 3.7091725,8.7274805 3.7044313,8.6035563 3.70409,8.4794187 Z m 5.7912714,2.1367783 c 0.2030002,0.384 -0.282008,0.50277 -0.5400079,0.31677 -0.1720002,-0.124 -0.2330084,0.02495 -0.2470086,-0.125054 -0.017999,-0.197 0.330093,-0.183977 0.4500929,-0.06098 0.1074417,0.109431 0.2751327,-0.0026 0.3369236,-0.130739 z"
       sodipodi:nodetypes="cccccccccccccccccsccccccccccccccccccccccsccc" />
  </g>
</svg>
