<?xml version="1.0" encoding="UTF-8" standalone="no"?>
<svg
   xmlns:dc="http://purl.org/dc/elements/1.1/"
   xmlns:cc="http://creativecommons.org/ns#"
   xmlns:rdf="http://www.w3.org/1999/02/22-rdf-syntax-ns#"
   xmlns:svg="http://www.w3.org/2000/svg"
   xmlns="http://www.w3.org/2000/svg"
   xmlns:sodipodi="http://sodipodi.sourceforge.net/DTD/sodipodi-0.dtd"
   xmlns:inkscape="http://www.inkscape.org/namespaces/inkscape"
   width="64"
   height="64"
   version="1.1"
   viewBox="0 0 16.933 16.933"
   id="svg56"
   sodipodi:docname="file-manager.svg"
   inkscape:version="1.0.2 (e86c870879, 2021-01-15)">
  <sodipodi:namedview
     pagecolor="#ffffff"
     bordercolor="#666666"
     borderopacity="1"
     objecttolerance="10"
     gridtolerance="10"
     guidetolerance="10"
     inkscape:pageopacity="0"
     inkscape:pageshadow="2"
     inkscape:window-width="1920"
     inkscape:window-height="936"
     id="namedview58"
     showgrid="false"
     inkscape:zoom="4.2813106"
     inkscape:cx="11.767403"
     inkscape:cy="56.372057"
     inkscape:window-x="0"
     inkscape:window-y="38"
     inkscape:window-maximized="1"
     inkscape:current-layer="svg56" />
  <defs
     id="defs22">
    <linearGradient
       id="linearGradient1064"
       x1="-15.961"
       x2="-.30109"
       y1="-43.254"
       y2="-54.196"
       gradientTransform="matrix(1,0,0,1.1,-15.599,68.547)"
       gradientUnits="userSpaceOnUse">
      <stop
         stop-color="#ffc832"
         offset="0"
         id="stop2" />
      <stop
         stop-color="#ffdc6e"
         offset="1"
         id="stop4" />
    </linearGradient>
    <linearGradient
       id="linearGradient1142"
       x1="-59.707"
       x2="-24.213"
       y1="-182.27"
       y2="-182.27"
       gradientTransform="matrix(0.26458,0,0,0.26458,-12.7,64.557)"
       gradientUnits="userSpaceOnUse">
      <stop
         stop-color="#1496ff"
         offset="0"
         id="stop7" />
      <stop
         stop-color="#0a78ff"
         offset="1"
         id="stop9" />
    </linearGradient>
    <linearGradient
       id="linearGradient1150"
       x1="-56.875"
       x2="-56.875"
       y1="-185.88"
       y2="-160.88"
       gradientUnits="userSpaceOnUse">
      <stop
         stop-color="#0a82ff"
         offset="0"
         id="stop12" />
      <stop
         stop-color="#0564c8"
         offset="1"
         id="stop14" />
    </linearGradient>
    <linearGradient
       id="linearGradient1164"
       x1="-27.625"
       x2="-27.625"
       y1="-188"
       y2="-160.75"
       gradientUnits="userSpaceOnUse">
      <stop
         stop-color="#004bb9"
         offset="0"
         id="stop17" />
      <stop
         stop-color="#0546b4"
         offset="1"
         id="stop19" />
    </linearGradient>
  </defs>
  <metadata
     id="metadata24">
    <rdf:RDF>
      <cc:Work
         rdf:about="">
        <dc:format>image/svg+xml</dc:format>
        <dc:type
           rdf:resource="http://purl.org/dc/dcmitype/StillImage" />
        <dc:title></dc:title>
      </cc:Work>
    </rdf:RDF>
  </metadata>
  <g
     transform="matrix(0.91664343,0,0,0.91664343,30.284351,-4.9571757)"
     id="g54">
    <path
       d="m -23.801,12.098 h -7.9373 V 8.0963 c 0,-0.40184 0.29614,-0.72759 0.66144,-0.72759 h 5.6223 l 1.6536,1.4552 z"
       fill="#ffe55e"
       stroke-width="0.69373"
       id="path26" />
    <g
       transform="matrix(1,0,0,1.1,-15.599,68.547)"
       stroke-width="0.66145"
       id="g32">
      <path
         d="m -8.2026,-51.317 h -7.9373 v -3.6379 c 0,-0.36531 0.29614,-0.66144 0.66144,-0.66144 h 5.6223 l 1.6536,1.3229 z"
         fill="#e19600"
         id="path28" />
      <path
         d="m -9.8562,-55.617 h -5.6223 c -0.36532,0 -0.66144,0.29612 -0.66144,0.66144 v 0.16536 c 0,-0.36532 0.29612,-0.66144 0.66144,-0.66144 h 5.6223 l 1.6536,1.3229 v -0.16536 z"
         fill="#ffffff"
         opacity="0.2"
         id="path30" />
    </g>
    <path
       d="m -16.526,8.8236 h -7.2759 l -1.6536,1.4552 h -5.6223 c -0.36531,0 -0.66144,0.32575 -0.66144,0.72759 v 9.4587 c 0,0.40184 0.29614,0.72759 0.66144,0.72759 h 14.552 c 0.36531,0 0.66145,-0.32575 0.66145,-0.72759 v -10.914 c 0,-0.40184 -0.29614,-0.72759 -0.66145,-0.72759 z"
       fill="url(#linearGradient1064)"
       stroke-width="0.69373"
       id="path34"
       style="fill:url(#linearGradient1064)" />
    <path
       d="m -16.526,21.011 h -14.552 c -0.36532,0 -0.66144,-0.32578 -0.66144,-0.72759 v 0.1819 c 0,0.40181 0.29612,0.72759 0.66144,0.72759 h 14.552 c 0.36532,0 0.66145,-0.32578 0.66145,-0.72759 v -0.1819 c 0,0.40181 -0.29612,0.72759 -0.66145,0.72759 z"
       opacity="0.1"
       stroke-width="0.69373"
       id="path36" />
    <path
       d="m -19.106,14.892 c -0.1111,-0.14787 -0.26255,-0.24804 -0.44182,-0.24804 h -8.5068 c -0.17958,0 -0.3311,0.10078 -0.44234,0.24908 l 2.5161,3.1279 h 4.3578 z"
       fill="url(#linearGradient1142)"
       stroke-width="0.66491"
       id="path38"
       style="fill:url(#linearGradient1142)" />
    <path
       d="m -16.526,8.8236 h -7.2759 l -1.6536,1.4552 h -5.6223 c -0.36532,0 -0.66144,0.32574 -0.66144,0.72759 v 0.1819 c 0,-0.40185 0.29612,-0.72759 0.66144,-0.72759 h 5.6223 l 1.6536,-1.4552 h 7.2759 c 0.36532,0 0.66145,0.32574 0.66145,0.72759 v -0.1819 c 0,-0.40185 -0.29612,-0.72759 -0.66145,-0.72759 z"
       fill="#ffffff"
       opacity="0.2"
       stroke-width="0.69373"
       id="path40" />
    <g
       transform="translate(-12.7,64.557)"
       id="g46">
      <path
         transform="scale(0.26458)"
         d="m -50.197,-175.89 -9.5098,-11.822 c -0.36526,0.48695 -0.625,1.1025 -0.625,1.8086 v 23.375 c 0,0.75939 0.51425,1.375 1.1484,1.375 h 7.8379 c 0.63419,0 1.1484,-0.61561 1.1484,-1.375 z"
         fill="url(#linearGradient1150)"
         stroke-width="2.5131"
         id="path42"
         style="fill:url(#linearGradient1150)" />
      <path
         d="m -13.617,-42.819 h -2.0112 c -0.18512,0 -0.33521,-0.16289 -0.33521,-0.36379 v 0.1819 c 0,0.2009 0.15009,0.3638 0.33521,0.3638 h 2.0112 c 0.18512,0 0.33521,-0.16289 0.33521,-0.3638 v -0.1819 c 0,0.2009 -0.15009,0.36379 -0.33521,0.36379 z"
         opacity="0.1"
         stroke-width="0.69842"
         id="path44" />
    </g>
    <g
       transform="translate(-12.7,64.557)"
       id="g52">
      <path
         transform="scale(0.26458)"
         d="m -24.213,-187.71 -9.5137,11.826 h 0.0039 v 13.361 c 0,0.75939 0.51425,1.375 1.1484,1.375 h 7.8398 c 0.63419,0 1.1465,-0.61561 1.1465,-1.375 v -23.375 c 0,-0.70742 -0.25887,-1.3252 -0.625,-1.8125 z"
         fill="url(#linearGradient1164)"
         stroke-width="2.5131"
         id="path48"
         style="fill:url(#linearGradient1164)" />
      <path
         d="m -6.578,-42.819 h -2.0112 c -0.18512,0 -0.33521,-0.16289 -0.33521,-0.36379 v 0.1819 c 0,0.2009 0.15009,0.3638 0.33521,0.3638 h 2.0112 c 0.18512,0 0.33521,-0.16289 0.33521,-0.3638 v -0.1819 c 0,0.2009 -0.15009,0.36379 -0.33521,0.36379 z"
         opacity="0.1"
         stroke-width="0.69842"
         id="path50" />
    </g>
  </g>
</svg>
