<?xml version="1.0" encoding="UTF-8"?>
<!-- Created with Inkscape (http://www.inkscape.org/) -->
<svg width="64" height="64" version="1.1" viewBox="0 0 16.933 16.933" xmlns="http://www.w3.org/2000/svg" xmlns:cc="http://creativecommons.org/ns#" xmlns:dc="http://purl.org/dc/elements/1.1/" xmlns:rdf="http://www.w3.org/1999/02/22-rdf-syntax-ns#" xmlns:xlink="http://www.w3.org/1999/xlink">
 <defs>
  <linearGradient id="linearGradient1064" x1="-15.961" x2="-.30109" y1="-43.254" y2="-54.196" gradientTransform="matrix(1 0 0 1.1 -15.599 68.547)" gradientUnits="userSpaceOnUse">
   <stop stop-color="#ffc832" offset="0"/>
   <stop stop-color="#ffdc6e" offset="1"/>
  </linearGradient>
  <linearGradient id="linearGradient1142" x1="-59.707" x2="-24.213" y1="-182.27" y2="-182.27" gradientTransform="matrix(.26458 0 0 .26458 -12.7 64.557)" gradientUnits="userSpaceOnUse">
   <stop stop-color="#1496ff" offset="0"/>
   <stop stop-color="#0a78ff" offset="1"/>
  </linearGradient>
  <linearGradient id="linearGradient1150" x1="-56.875" x2="-56.875" y1="-185.88" y2="-160.88" gradientUnits="userSpaceOnUse">
   <stop stop-color="#0a82ff" offset="0"/>
   <stop stop-color="#0564c8" offset="1"/>
  </linearGradient>
  <linearGradient id="linearGradient1164" x1="-27.625" x2="-27.625" y1="-188" y2="-160.75" gradientUnits="userSpaceOnUse">
   <stop stop-color="#004bb9" offset="0"/>
   <stop stop-color="#0546b4" offset="1"/>
  </linearGradient>
 </defs>
 <metadata>
  <rdf:RDF>
   <cc:Work rdf:about="">
    <dc:format>image/svg+xml</dc:format>
    <dc:type rdf:resource="http://purl.org/dc/dcmitype/StillImage"/>
    <dc:title/>
   </cc:Work>
  </rdf:RDF>
 </metadata>
 <g transform="translate(32.268 -6.1778)">
  <path d="m-23.801 12.098h-7.9373v-4.0017c0-0.40184 0.29614-0.72759 0.66144-0.72759h5.6223l1.6536 1.4552z" fill="#ffe55e" stroke-width=".69373"/>
  <g transform="matrix(1 0 0 1.1 -15.599 68.547)" stroke-width=".66145">
   <path d="m-8.2026-51.317h-7.9373v-3.6379c0-0.36531 0.29614-0.66144 0.66144-0.66144h5.6223l1.6536 1.3229z" fill="#e19600"/>
   <path d="m-9.8562-55.617h-5.6223c-0.36532 0-0.66144 0.29612-0.66144 0.66144v0.16536c0-0.36532 0.29612-0.66144 0.66144-0.66144h5.6223l1.6536 1.3229v-0.16536z" fill="#fff" opacity=".2"/>
  </g>
  <path d="m-16.526 8.8236h-7.2759l-1.6536 1.4552h-5.6223c-0.36531 0-0.66144 0.32575-0.66144 0.72759v9.4587c0 0.40184 0.29614 0.72759 0.66144 0.72759h14.552c0.36531 0 0.66145-0.32575 0.66145-0.72759v-10.914c0-0.40184-0.29614-0.72759-0.66145-0.72759z" fill="url(#linearGradient1064)" stroke-width=".69373"/>
  <path d="m-16.526 21.011h-14.552c-0.36532 0-0.66144-0.32578-0.66144-0.72759v0.1819c0 0.40181 0.29612 0.72759 0.66144 0.72759h14.552c0.36532 0 0.66145-0.32578 0.66145-0.72759v-0.1819c0 0.40181-0.29612 0.72759-0.66145 0.72759z" opacity=".1" stroke-width=".69373"/>
  <path d="m-19.106 14.892c-0.1111-0.14787-0.26255-0.24804-0.44182-0.24804h-8.5068c-0.17958 0-0.3311 0.10078-0.44234 0.24908l2.5161 3.1279h4.3578z" fill="url(#linearGradient1142)" stroke-width=".66491"/>
  <path d="m-16.526 8.8236h-7.2759l-1.6536 1.4552h-5.6223c-0.36532 0-0.66144 0.32574-0.66144 0.72759v0.1819c0-0.40185 0.29612-0.72759 0.66144-0.72759h5.6223l1.6536-1.4552h7.2759c0.36532 0 0.66145 0.32574 0.66145 0.72759v-0.1819c0-0.40185-0.29612-0.72759-0.66145-0.72759z" fill="#fff" opacity=".2" stroke-width=".69373"/>
  <g transform="translate(-12.7 64.557)">
   <path transform="scale(.26458)" d="m-50.197-175.89-9.5098-11.822c-0.36526 0.48695-0.625 1.1025-0.625 1.8086v23.375c0 0.75939 0.51425 1.375 1.1484 1.375h7.8379c0.63419 0 1.1484-0.61561 1.1484-1.375z" fill="url(#linearGradient1150)" stroke-width="2.5131"/>
   <path d="m-13.617-42.819h-2.0112c-0.18512 0-0.33521-0.16289-0.33521-0.36379v0.1819c0 0.2009 0.15009 0.3638 0.33521 0.3638h2.0112c0.18512 0 0.33521-0.16289 0.33521-0.3638v-0.1819c0 0.2009-0.15009 0.36379-0.33521 0.36379z" opacity=".1" stroke-width=".69842"/>
  </g>
  <g transform="translate(-12.7 64.557)">
   <path transform="scale(.26458)" d="m-24.213-187.71-9.5137 11.826h0.0039v13.361c0 0.75939 0.51425 1.375 1.1484 1.375h7.8398c0.63419 0 1.1465-0.61561 1.1465-1.375v-23.375c0-0.70742-0.25887-1.3252-0.625-1.8125z" fill="url(#linearGradient1164)" stroke-width="2.5131"/>
   <path d="m-6.578-42.819h-2.0112c-0.18512 0-0.33521-0.16289-0.33521-0.36379v0.1819c0 0.2009 0.15009 0.3638 0.33521 0.3638h2.0112c0.18512 0 0.33521-0.16289 0.33521-0.3638v-0.1819c0 0.2009-0.15009 0.36379-0.33521 0.36379z" opacity=".1" stroke-width=".69842"/>
  </g>
 </g>
</svg>
