<?xml version="1.0" encoding="UTF-8"?>
<svg width="64" height="64" version="1.1" viewBox="0 0 16.933 16.933" xmlns="http://www.w3.org/2000/svg" xmlns:cc="http://creativecommons.org/ns#" xmlns:dc="http://purl.org/dc/elements/1.1/" xmlns:rdf="http://www.w3.org/1999/02/22-rdf-syntax-ns#">
 <metadata>
  <rdf:RDF>
   <cc:Work rdf:about="">
    <dc:format>image/svg+xml</dc:format>
    <dc:type rdf:resource="http://purl.org/dc/dcmitype/StillImage"/>
    <dc:title/>
   </cc:Work>
  </rdf:RDF>
 </metadata>
 <defs>
  <linearGradient id="l" x1="442.08" x2="102.64" y1="74.772" y2="414.21" gradientTransform="matrix(.26458 0 0 .26458 -28.197 -57.651)" gradientUnits="userSpaceOnUse">
   <stop stop-color="#54ffbd" stop-opacity=".8" offset=".167"/>
   <stop stop-color="#43f8ca" stop-opacity=".639" offset=".236"/>
   <stop stop-color="#27ede1" stop-opacity=".368" offset=".361"/>
   <stop stop-color="#12e4f1" stop-opacity=".169" offset=".466"/>
   <stop stop-color="#05dffb" stop-opacity=".046" offset=".545"/>
   <stop stop-color="#0df" stop-opacity="0" offset=".589"/>
  </linearGradient>
  <radialGradient id="k" cx="-9238.9" cy="-9803.9" r="80.686" gradientTransform="matrix(1.6406 0 0 1.6404 15223 16057)" gradientUnits="userSpaceOnUse">
   <stop stop-color="#54ffbd" offset=".094"/>
   <stop stop-color="#41f7cc" offset=".242"/>
   <stop stop-color="#0fe3f3" offset=".543"/>
   <stop stop-color="#0df" offset=".626"/>
  </radialGradient>
  <radialGradient id="j" cx="-9258.4" cy="-9808.2" r="73.72" gradientTransform="matrix(1.6406 0 0 1.6404 15223 16057)" gradientUnits="userSpaceOnUse">
   <stop stop-color="#3fe1b0" offset=".137"/>
   <stop stop-color="#0df" offset=".435"/>
   <stop stop-color="#1ec1ff" offset=".484"/>
   <stop stop-color="#7077ff" offset=".622"/>
   <stop stop-color="#9059ff" offset=".685"/>
  </radialGradient>
  <radialGradient id="i" cx="-9247.2" cy="-9822.9" r="86.499" gradientTransform="matrix(.17171 1.6314 -1.0705 .11271 -8875.8 16137)" gradientUnits="userSpaceOnUse">
   <stop stop-color="#54ffbd" offset="0"/>
   <stop stop-color="#4cf3b8" offset=".095"/>
   <stop stop-color="#3fe1b0" offset=".197"/>
   <stop stop-color="#33d8bd" offset=".257"/>
   <stop stop-color="#12c0e1" offset=".369"/>
   <stop stop-color="#00b3f4" offset=".423"/>
   <stop stop-color="#0060df" offset=".737"/>
  </radialGradient>
  <radialGradient id="h" cx="-9236" cy="-9836" r="118.08" gradientTransform="matrix(1.6406 0 0 1.6404 15223 16057)" gradientUnits="userSpaceOnUse">
   <stop stop-color="#3fe1b0" offset=".126"/>
   <stop stop-color="#0df" offset=".429"/>
   <stop stop-color="#1ec1ff" offset=".479"/>
   <stop stop-color="#7077ff" offset=".624"/>
   <stop stop-color="#9059ff" offset=".69"/>
   <stop stop-color="#b833e1" offset=".904"/>
  </radialGradient>
  <radialGradient id="g" cx="-9257.7" cy="-9818.4" r="27.676" gradientTransform="matrix(1.6406 0 0 1.6404 15223 16057)" gradientUnits="userSpaceOnUse">
   <stop stop-color="#0df" offset="0"/>
   <stop stop-color="#00d6fd" offset=".235"/>
   <stop stop-color="#00c3f8" offset=".572"/>
   <stop stop-color="#00b3f4" offset=".792"/>
  </radialGradient>
  <radialGradient id="f" cx="-9255.6" cy="-9791.5" r="20.397" gradientTransform="matrix(1.5946 -.38575 .4519 1.8677 19222 14711)" gradientUnits="userSpaceOnUse">
   <stop stop-color="#45278d" stop-opacity="0" offset=".206"/>
   <stop stop-color="#44268a" stop-opacity=".055" offset=".251"/>
   <stop stop-color="#371f6f" stop-opacity=".591" offset=".725"/>
   <stop stop-color="#321c64" stop-opacity=".8" offset=".956"/>
  </radialGradient>
  <radialGradient id="e" cx="-9265.6" cy="-9761" r="38.471" gradientTransform="matrix(1.6406 0 0 1.6404 15223 16057)" gradientUnits="userSpaceOnUse">
   <stop stop-color="#0060df" offset=".287"/>
   <stop stop-color="#2357e1" offset=".417"/>
   <stop stop-color="#4f4ce3" offset=".604"/>
   <stop stop-color="#6b45e4" offset=".748"/>
   <stop stop-color="#7542e5" offset=".833"/>
  </radialGradient>
  <radialGradient id="d" cx="-9247" cy="-9833.5" r="58.534" gradientTransform="matrix(1.6406 0 0 1.6404 15223 16057)" gradientUnits="userSpaceOnUse">
   <stop stop-color="#3fe1b0" offset=".132"/>
   <stop stop-color="#28d0c8" offset=".289"/>
   <stop stop-color="#00b3f4" offset=".526"/>
  </radialGradient>
  <radialGradient id="c" cx="-9256.7" cy="-9782.1" r="80.797" gradientTransform="matrix(1.6406 0 0 1.6404 15223 16057)" gradientUnits="userSpaceOnUse">
   <stop stop-color="#45278d" offset=".3"/>
   <stop stop-color="#562896" stop-opacity=".787" offset=".341"/>
   <stop stop-color="#782aa9" stop-opacity=".364" offset=".43"/>
   <stop stop-color="#8d2bb5" stop-opacity=".1" offset=".495"/>
   <stop stop-color="#952bb9" stop-opacity="0" offset=".53"/>
  </radialGradient>
  <radialGradient id="b" cx="-9227.2" cy="-9815.1" r="80.797" gradientTransform="matrix(1.6406 0 0 1.6404 15223 16057)" gradientUnits="userSpaceOnUse">
   <stop stop-color="#3fe1b0" offset=".108"/>
   <stop stop-color="#3bdcb3" offset=".122"/>
   <stop stop-color="#1bb3d3" offset=".254"/>
   <stop stop-color="#0799e6" offset=".358"/>
   <stop stop-color="#0090ed" offset=".42"/>
   <stop stop-color="#2482f1" offset=".487"/>
   <stop stop-color="#7165fb" offset=".64"/>
   <stop stop-color="#9059ff" offset=".71"/>
   <stop stop-color="#7d49ed" offset=".795"/>
   <stop stop-color="#7542e5" offset=".86"/>
  </radialGradient>
  <linearGradient id="a" x1="471.8" x2="55.983" y1="127.35" y2="389.28" gradientTransform="matrix(.26458 0 0 .26458 -28.197 -57.651)" gradientUnits="userSpaceOnUse">
   <stop stop-color="#3fe1b0" offset="0"/>
   <stop stop-color="#00b3f4" offset=".406"/>
   <stop stop-color="#03b0f4" offset=".421"/>
   <stop stop-color="#5561e9" offset=".818"/>
   <stop stop-color="#7542e5" offset="1"/>
  </linearGradient>
 </defs>
 <circle cx="296.65" cy="5.7567" r="0" enable-background="new" fill="#d5d3cf" stroke-width=".87152"/>
 <circle cx="-15.774" cy="13.461" r="0" enable-background="new" fill="#d5d3cf" stroke-width=".87152"/>
 <g transform="matrix(.125 0 0 .125 3.5248 7.471)" stroke-width=".26458">
  <path id="shape-base" d="m98.459-13.638c-2.7635-6.6473-8.3607-13.824-12.756-16.092 3.5771 7.0126 5.6474 14.047 6.4385 19.297 0 0.01032 4e-3 0.03598 0.0124 0.10583-7.1899-17.921-19.381-25.147-29.337-40.881-0.5027-0.79559-1.0067-1.5933-1.4978-2.4341a19.504 19.504 0 0 1-0.70007-1.3155 11.562 11.562 0 0 1-0.95063-2.5151 0.16563 0.16563 0 0 0-0.14446-0.17039 0.21642 0.21642 0 0 0-0.11932 0c-9e-3 0.0032-0.02222 0.01349-0.03175 0.0172-0.01402 0.0056-0.03175 0.01826-0.04657 0.02646 0.0071-0.0095 0.02196-0.03096 0.02646-0.03598-15.973 9.3544-21.391 26.659-21.889 35.317a31.815 31.815 0 0 0-17.5 6.7436 18.879 18.879 0 0 0-1.647-1.2435 29.458 29.458 0 0 1-0.17832-15.539c-6.5319 2.9741-11.612 7.6754-15.306 11.827h-0.02937c-2.5206-3.1927-2.3428-13.724-2.1992-15.923-0.03016-0.13626-1.8804 0.96042-2.1227 1.1258a46.32 46.32 0 0 0-6.2139 5.3233 55.688 55.688 0 0 0-5.9377 7.1206c0 0.0032-0.0019 0.0069-0.0029 0.01005 0-0.0034 0.0019-0.0069 0.0029-0.01005a53.666 53.666 0 0 0-8.5318 19.263c-0.03043 0.13784-0.05609 0.28072-0.08572 0.41962-0.11959 0.55985-0.55032 3.3601-0.62573 3.9687-0.0058 0.04683-0.0085 0.09181-0.01402 0.13864a60.606 60.606 0 0 0-1.0319 8.7726c0 0.10848-0.0066 0.2159-0.0066 0.32464 0.0011 35.113 28.47 63.577 63.586 63.577 31.449 0 57.562-22.83 62.674-52.818 0.10768-0.81384 0.19393-1.6319 0.28892-2.4529 1.2639-10.903-0.14023-22.363-4.124-31.947zm-73.287 49.766c0.29739 0.14208 0.57678 0.29739 0.8821 0.43364 0.0127 0.0087 0.03016 0.01852 0.04313 0.02646a33.387 33.387 0 0 1-0.92523-0.4601zm14.566-38.345m52.421-8.0934-8e-3 -0.06165c3e-3 0.02249 7e-3 0.04604 0.0106 0.06853z" fill="url(#a)"/>
  <path id="body-outer-ring" d="m98.459-13.638c-2.7635-6.6473-8.3607-13.824-12.756-16.092 3.5771 7.0126 5.6474 14.047 6.4385 19.297 0-0.01535 3e-3 0.0127 0.01 0.0598 3e-3 0.02249 7e-3 0.04604 0.0106 0.06853 5.9993 16.264 2.731 32.802-1.9788 42.908-7.2867 15.637-24.928 31.662-52.539 30.88-29.833-0.84479-56.114-22.98-61.02-51.972-0.89401-4.5719 0-6.8933 0.44978-10.605-0.54794 2.8617-0.75669 3.6882-1.0319 8.7726 0 0.10848-0.0066 0.2159-0.0066 0.32464 5.29e-4 35.112 28.469 63.575 63.585 63.575 31.449 0 57.562-22.83 62.674-52.818 0.10768-0.81384 0.19393-1.6319 0.28892-2.4529 1.2639-10.903-0.14023-22.363-4.124-31.947z" fill="url(#b)"/>
  <path id="body-outer-ring-shadow" d="m98.459-13.638c-2.7635-6.6473-8.3607-13.824-12.756-16.092 3.5771 7.0126 5.6474 14.047 6.4385 19.297 0-0.01535 3e-3 0.0127 0.01 0.0598 3e-3 0.02249 7e-3 0.04604 0.0106 0.06853 5.9993 16.264 2.731 32.802-1.9788 42.908-7.2867 15.637-24.928 31.662-52.539 30.88-29.833-0.84479-56.114-22.98-61.02-51.972-0.89401-4.5719 0-6.8933 0.44978-10.605-0.54794 2.8617-0.75669 3.6882-1.0319 8.7726 0 0.10848-0.0066 0.2159-0.0066 0.32464 5.29e-4 35.112 28.469 63.575 63.585 63.575 31.449 0 57.562-22.83 62.674-52.818 0.10768-0.81384 0.19393-1.6319 0.28892-2.4529 1.2639-10.903-0.14023-22.363-4.124-31.947z" fill="url(#c)"/>
  <path id="tail-tip" d="m67.559-6.1644c0.13864 0.09737 0.26458 0.1942 0.39502 0.29104a34.582 34.582 0 0 0-5.9027-7.7024c-19.765-19.763-5.1828-42.852-2.7236-44.024 0.0071-0.0095 0.02196-0.03095 0.02646-0.03598-15.973 9.3544-21.391 26.659-21.889 35.317 0.74082-0.05133 1.4795-0.1135 2.2336-0.1135 11.92 0 22.301 6.5536 27.86 16.268z" fill="url(#d)"/>
  <path id="globe-base" d="m39.739-2.2185c-0.10398 1.5816-5.6921 7.0359-7.6463 7.0359-18.081 0-21.016 10.936-21.016 10.936 0.80088 9.21 7.2127 16.794 14.978 20.807 0.35427 0.18309 0.71277 0.34845 1.0715 0.51196a35.128 35.128 0 0 0 1.8677 0.76357 28.242 28.242 0 0 0 8.2736 1.5957c31.691 1.4864 37.831-37.886 14.961-49.319 5.857-1.0186 11.936 1.3369 15.332 3.7218-5.5593-9.7137-15.941-16.267-27.86-16.267-0.75405 0-1.4925 0.06218-2.2336 0.1135a31.815 31.815 0 0 0-17.5 6.7436c0.96941 0.82019 2.0637 1.9166 4.3692 4.1877 4.3132 4.251 15.38 8.653 15.403 9.1695z" fill="url(#e)"/>
  <path id="globe-shadow" d="m39.739-2.2185c-0.10398 1.5816-5.6921 7.0359-7.6463 7.0359-18.081 0-21.016 10.936-21.016 10.936 0.80088 9.21 7.2127 16.794 14.978 20.807 0.35427 0.18309 0.71277 0.34845 1.0715 0.51196a35.128 35.128 0 0 0 1.8677 0.76357 28.242 28.242 0 0 0 8.2736 1.5957c31.691 1.4864 37.831-37.886 14.961-49.319 5.857-1.0186 11.936 1.3369 15.332 3.7218-5.5593-9.7137-15.941-16.267-27.86-16.267-0.75405 0-1.4925 0.06218-2.2336 0.1135a31.815 31.815 0 0 0-17.5 6.7436c0.96941 0.82019 2.0637 1.9166 4.3692 4.1877 4.3132 4.251 15.38 8.653 15.403 9.1695z" fill="url(#f)"/>
  <path id="ear" d="m17-17.69a64.568 64.568 0 0 1 1.3179 0.87311 29.458 29.458 0 0 1-0.17832-15.539c-6.5319 2.9741-11.612 7.6754-15.306 11.827 0.30559-0.0087 9.5285-0.17462 14.166 2.8395z" fill="url(#g)"/>
  <path id="body" d="m-23.376 11.512c4.9061 28.992 31.188 51.127 61.02 51.972 27.612 0.78157 45.253-15.245 52.539-30.88 4.7095-10.107 7.9781-26.643 1.9788-42.908l-2e-3 -0.0069-8e-3 -0.06165c-7e-3 -0.04709-0.0106-0.07514-0.01-0.0598 0 0.01032 4e-3 0.03598 0.0124 0.10583 2.2553 14.727-5.236 28.994-16.946 38.64l-0.03519 0.08281c-22.819 18.58-44.654 11.21-49.075 8.193a38.128 38.128 0 0 1-0.92602-0.46116c-13.304-6.3575-18.799-18.478-17.621-28.872-11.233 0-15.063-9.4743-15.063-9.4743s10.085-7.191 23.378-0.93687c12.311 5.7924 23.872 0.9374 23.874 0.93687-0.02355-0.51646-11.09-4.9185-15.405-9.1692-2.3053-2.2711-3.3998-3.3662-4.3692-4.1877a18.879 18.879 0 0 0-1.647-1.2435 74.857 74.857 0 0 0-1.3179-0.87311c-4.6375-3.0141-13.861-2.8482-14.166-2.8402h-0.02937c-2.5206-3.1927-2.3428-13.724-2.1992-15.923-0.03016-0.13626-1.8804 0.96042-2.1227 1.1258a46.32 46.32 0 0 0-6.2139 5.3233 55.688 55.688 0 0 0-5.9377 7.1222c0 0.0032-0.0019 0.0069-0.0029 0.01005 0-0.0034 0.0019-0.0069 0.0029-0.01005a53.666 53.666 0 0 0-8.5318 19.263c-0.03043 0.13784-2.2886 10.012-1.1747 15.134z" fill="url(#h)"/>
  <path id="tail-flame" d="m62.052-13.576a34.582 34.582 0 0 1 5.9027 7.7024c0.35004 0.26299 0.67706 0.52519 0.9546 0.78103 14.415 13.282 6.8621 32.067 6.2988 33.406 11.71-9.6465 19.202-23.913 16.946-38.64-7.1899-17.92-19.381-25.147-29.337-40.88-0.5027-0.79559-1.0067-1.5933-1.4978-2.4341a19.504 19.504 0 0 1-0.70007-1.3155 11.562 11.562 0 0 1-0.95063-2.5151 0.16563 0.16563 0 0 0-0.14446-0.17039 0.21642 0.21642 0 0 0-0.11932 0c-9e-3 0.0032-0.02222 0.01349-0.03175 0.0172-0.01402 0.0056-0.03175 0.01826-0.04657 0.02646-2.4582 1.1716-17.041 24.26 2.7246 44.023z" fill="url(#i)"/>
  <path id="tail-small" d="m68.909-5.0926c-0.27754-0.25585-0.60456-0.51804-0.9546-0.78103-0.12938-0.097365-0.25638-0.1942-0.39502-0.29104-3.3951-2.3849-9.4745-4.7404-15.332-3.7218 22.87 11.433 16.731 50.806-14.961 49.319a28.242 28.242 0 0 1-8.2736-1.5957 35.588 35.588 0 0 1-1.8677-0.76357c-0.35877-0.16351-0.71727-0.32887-1.0715-0.51196 0.0127 0.0087 0.03016 0.01852 0.04313 0.02646 4.4211 3.0162 26.256 10.387 49.075-8.1929l0.03519-0.08281c0.56329-1.3372 8.1159-20.123-6.2988-33.405z" fill="url(#j)"/>
  <path id="cheek-tufts" d="m11.077 15.754s2.935-10.936 21.016-10.936c1.9547 0 7.5429-5.4543 7.6463-7.0359 0.10345-1.5816-11.562 4.8555-23.874-0.93687-13.292-6.2541-23.378 0.93687-23.378 0.93687s3.8303 9.4743 15.063 9.4743c-1.1782 10.394 4.3177 22.516 17.621 28.872 0.29739 0.14208 0.57678 0.29739 0.8821 0.43364-7.7648-4.0134-14.177-11.598-14.978-20.807z" fill="url(#k)"/>
  <path id="overlay-green" d="m98.459-13.638c-2.7635-6.6473-8.3607-13.824-12.756-16.092 3.5771 7.0126 5.6474 14.047 6.4385 19.297 0 0.01032 4e-3 0.03598 0.0124 0.10583-7.1899-17.921-19.381-25.147-29.337-40.881-0.5027-0.79559-1.0067-1.5933-1.4978-2.4341a19.504 19.504 0 0 1-0.70007-1.3155 11.562 11.562 0 0 1-0.95063-2.5151 0.16563 0.16563 0 0 0-0.14446-0.17039 0.21642 0.21642 0 0 0-0.11932 0c-9e-3 0.0032-0.02222 0.01349-0.03175 0.0172-0.01402 0.0056-0.03175 0.01826-0.04657 0.02646 0.0071-0.0095 0.02196-0.03096 0.02646-0.03598-15.973 9.3544-21.391 26.659-21.889 35.317 0.74082-0.05133 1.4795-0.1135 2.2336-0.1135 11.92 0 22.302 6.5536 27.86 16.267-3.3951-2.3849-9.4745-4.7405-15.332-3.7218 22.87 11.433 16.731 50.806-14.961 49.319a28.242 28.242 0 0 1-8.2736-1.5957 35.588 35.588 0 0 1-1.8677-0.76357c-0.35877-0.16351-0.71727-0.32887-1.0715-0.51196 0.0127 0.0087 0.03016 0.01852 0.04313 0.02646a38.128 38.128 0 0 1-0.92602-0.46116c0.29739 0.14208 0.57678 0.29739 0.8821 0.43364-7.7654-4.0131-14.177-11.597-14.978-20.807 0 0 2.935-10.936 21.016-10.936 1.9547 0 7.5429-5.4543 7.6463-7.0359-0.02355-0.51646-11.09-4.9185-15.405-9.1692-2.3053-2.2711-3.3998-3.3662-4.3692-4.1877a18.879 18.879 0 0 0-1.647-1.2435 29.458 29.458 0 0 1-0.17832-15.539c-6.5319 2.9741-11.612 7.6754-15.306 11.827h-0.02937c-2.5206-3.1927-2.3428-13.724-2.1992-15.923-0.03016-0.13626-1.8804 0.96042-2.1227 1.1258a46.32 46.32 0 0 0-6.2139 5.3233 55.688 55.688 0 0 0-5.9358 7.1214c0 0.0032-0.0019 0.0069-0.0029 0.01005 0-0.0034 0.0019-0.0069 0.0029-0.01005a53.666 53.666 0 0 0-8.5319 19.263c-0.03043 0.13784-0.05609 0.28072-0.08572 0.41962-0.11959 0.55985-0.65774 3.4006-0.73288 4.0099-0.0058 0.04683 0.0056-0.04657 0 0a73.967 73.967 0 0 0-0.93767 8.8713c0 0.10848-0.0066 0.2159-0.0066 0.32464 0 35.112 28.469 63.575 63.584 63.575 31.449 0 57.562-22.83 62.674-52.818 0.10768-0.81384 0.19393-1.6319 0.28893-2.4529 1.2639-10.903-0.14024-22.363-4.124-31.947zm-6.3078 3.2652c3e-3 0.02249 7e-3 0.04604 0.0106 0.06853l-2e-3 -0.0069z" fill="url(#l)"/>
 </g>
</svg>
