<?xml version="1.0" encoding="UTF-8" standalone="no"?>
<svg
   xmlns:dc="http://purl.org/dc/elements/1.1/"
   xmlns:cc="http://creativecommons.org/ns#"
   xmlns:rdf="http://www.w3.org/1999/02/22-rdf-syntax-ns#"
   xmlns:svg="http://www.w3.org/2000/svg"
   xmlns="http://www.w3.org/2000/svg"
   xmlns:xlink="http://www.w3.org/1999/xlink"
   xmlns:sodipodi="http://sodipodi.sourceforge.net/DTD/sodipodi-0.dtd"
   xmlns:inkscape="http://www.inkscape.org/namespaces/inkscape"
   id="Iterm"
   width="64"
   height="64"
   enable-background="new 0 0 1024 1024"
   image-rendering="optimizeSpeed"
   version="1.1"
   viewBox="0 0 64 64"
   sodipodi:docname="gnome-power-manager.svg"
   inkscape:version="1.0.1 (3bc2e813f5, 2020-09-07)">
  <sodipodi:namedview
     pagecolor="#ffffff"
     bordercolor="#666666"
     borderopacity="1"
     objecttolerance="10"
     gridtolerance="10"
     guidetolerance="10"
     inkscape:pageopacity="0"
     inkscape:pageshadow="2"
     inkscape:window-width="1920"
     inkscape:window-height="998"
     id="namedview56"
     showgrid="false"
     inkscape:zoom="2.8284271"
     inkscape:cx="-38.475611"
     inkscape:cy="6.8546494"
     inkscape:window-x="0"
     inkscape:window-y="0"
     inkscape:window-maximized="1"
     inkscape:current-layer="Iterm" />
  <metadata
     id="metadata2">
    <rdf:RDF>
      <cc:Work
         rdf:about="">
        <dc:format>image/svg+xml</dc:format>
        <dc:type
           rdf:resource="http://purl.org/dc/dcmitype/StillImage" />
        <dc:title></dc:title>
      </cc:Work>
    </rdf:RDF>
  </metadata>
  <defs
     id="defs30">
    <linearGradient
       inkscape:collect="always"
       id="linearGradient967">
      <stop
         style="stop-color:#4d4d4d;stop-opacity:0"
         offset="0"
         id="stop963" />
      <stop
         style="stop-color:#4d4d4d;stop-opacity:1"
         offset="0.4817318"
         id="stop971" />
      <stop
         style="stop-color:#4d4d4d;stop-opacity:0"
         offset="1"
         id="stop965" />
    </linearGradient>
    <linearGradient
       id="linearGradient1375">
      <stop
         stop-color="#4d4d4d"
         stop-opacity="0"
         offset="0"
         id="stop4" />
      <stop
         stop-color="#4d4d4d"
         offset=".49138"
         id="stop6" />
      <stop
         stop-color="#4d4d4d"
         stop-opacity="0"
         offset="1"
         id="stop8" />
    </linearGradient>
    <style
       type="text/css"
       id="style11" />
    <linearGradient
       id="linearGradient1295"
       x1="83.784"
       x2="83.784"
       y1="-77.807"
       y2="-38.297"
       gradientTransform="translate(-51.929 80.085)"
       gradientUnits="userSpaceOnUse">
      <stop
         stop-color="#3c3c3c"
         offset="0"
         id="stop13" />
      <stop
         stop-color="#1e1e1e"
         offset="1"
         id="stop15" />
    </linearGradient>
    <linearGradient
       id="linearGradient1377"
       x1="82.29"
       x2="82.29"
       y1="-45.99"
       y2="-43.708"
       gradientTransform="matrix(-.043158 -.75151 -2.1394 .12286 -41.741 90.842)"
       gradientUnits="userSpaceOnUse"
       xlink:href="#linearGradient1375" />
    <linearGradient
       id="linearGradient1384"
       x1="82.29"
       x2="82.29"
       y1="-45.99"
       y2="-43.708"
       gradientTransform="matrix(0.043158,-0.75151,2.1394,0.12286,158.37059,90.842)"
       gradientUnits="userSpaceOnUse"
       xlink:href="#linearGradient1375" />
    <linearGradient
       id="linearGradient1405"
       x1="19.069"
       x2="44.717"
       y1="23.02"
       y2="23.02"
       gradientTransform="matrix(.95 0 0 .95 1.7016 2.4316)"
       gradientUnits="userSpaceOnUse">
      <stop
         stop-color="#00bffb"
         offset="0"
         id="stop20" />
      <stop
         stop-color="#01a1f3"
         offset="1"
         id="stop22" />
    </linearGradient>
    <linearGradient
       id="linearGradient1415"
       x1="32.173"
       x2="32.173"
       y1="42.116"
       y2="57.636"
       gradientTransform="matrix(.93767 0 0 .76002 1.9637 11.43)"
       gradientUnits="userSpaceOnUse">
      <stop
         stop-color="#323232"
         offset="0"
         id="stop25" />
      <stop
         stop-color="#505050"
         offset="1"
         id="stop27" />
    </linearGradient>
    <linearGradient
       inkscape:collect="always"
       xlink:href="#linearGradient1375"
       id="linearGradient899"
       gradientUnits="userSpaceOnUse"
       gradientTransform="matrix(0.043158,-0.75151,2.1394,0.12286,16.488171,90.842)"
       x1="82.29"
       y1="-45.99"
       x2="82.29"
       y2="-43.708" />
    <linearGradient
       inkscape:collect="always"
       xlink:href="#linearGradient1375"
       id="linearGradient901"
       gradientUnits="userSpaceOnUse"
       gradientTransform="matrix(-0.043158,-0.75151,-2.1394,0.12286,-131.07283,90.842)"
       x1="82.29"
       y1="-45.99"
       x2="82.29"
       y2="-43.708" />
    <linearGradient
       inkscape:collect="always"
       xlink:href="#linearGradient1295"
       id="linearGradient903"
       gradientUnits="userSpaceOnUse"
       gradientTransform="translate(-141.26083,80.085)"
       x1="83.784"
       y1="-77.807"
       x2="83.784"
       y2="-38.297" />
    <linearGradient
       inkscape:collect="always"
       xlink:href="#linearGradient1405"
       id="linearGradient905"
       gradientUnits="userSpaceOnUse"
       gradientTransform="matrix(0.95,0,0,0.95,-87.630229,2.4316)"
       x1="19.069"
       y1="23.02"
       x2="44.717"
       y2="23.02" />
    <linearGradient
       inkscape:collect="always"
       xlink:href="#linearGradient1415"
       id="linearGradient907"
       gradientUnits="userSpaceOnUse"
       gradientTransform="matrix(0.93767,0,0,0.76002,-87.368129,11.43)"
       x1="32.173"
       y1="42.116"
       x2="32.173"
       y2="57.636" />
    <linearGradient
       inkscape:collect="always"
       xlink:href="#linearGradient1415"
       id="linearGradient917"
       gradientUnits="userSpaceOnUse"
       gradientTransform="matrix(0.93767,0,0,0.76002,1.9637,15.569553)"
       x1="32.173"
       y1="42.116"
       x2="32.173"
       y2="57.636" />
    <linearGradient
       inkscape:collect="always"
       xlink:href="#linearGradient1295"
       id="linearGradient924"
       gradientUnits="userSpaceOnUse"
       gradientTransform="translate(-51.929,80.085)"
       x1="83.784"
       y1="-77.807"
       x2="83.784"
       y2="-38.297" />
    <linearGradient
       inkscape:collect="always"
       xlink:href="#linearGradient967"
       id="linearGradient969"
       x1="6.2883377"
       y1="31.081312"
       x2="14.413876"
       y2="31.850182"
       gradientUnits="userSpaceOnUse"
       gradientTransform="translate(1.2554182e-5)" />
    <linearGradient
       inkscape:collect="always"
       xlink:href="#linearGradient967"
       id="linearGradient975"
       gradientUnits="userSpaceOnUse"
       gradientTransform="matrix(-1,0,0,1,63.999296,0)"
       x1="6.2883377"
       y1="31.081312"
       x2="14.413876"
       y2="31.850182" />
  </defs>
  <mask
     id="mask35">
    <g
       id="g">
      <path
         d="m969.75 392.05c-1.1-4.35-2.35-9-3.65-13.6-1-3.4-2-6.85-3.15-10.5-1.6-5.15-3.4-10.5-5.3-15.85-6.45-18.25-14.15-36.05-23.15-53.65-3.8-7.4-7.95-14.95-12.3-22.4-20.3-34.5-45.8-67.2-76.35-97.75-72.6-72.6-157.15-116.65-253.65-132.05-16.25-2.6-32.8-4.4-50.05-5.35-9.7-0.55-19.85-0.85-30.1-0.85-9.35 0-18.6 0.25-27.9 0.75-118.35 6.1-220.3 51.95-305.85 137.5q-138.25 138.25-138.25 333.75c0 130.35 46.1 241.65 138.25 333.8 56.7 56.65 120.55 95.9 191.1 117.55 36.75 11.25 74.8 17.85 114.75 19.95h0.4c8.5 0.45 16.6 0.7 24.5 0.7h3c10.3 0 20.5-0.3 30.1-0.8 2.5-0.15 4.75-0.3 6.95-0.45 20.2-1.45 39.9-4.05 58.7-7.7 7.95-1.55 15.8-3.3 23.4-5.15 80.8-20.3 152.15-61.6 214.65-124.1 48.6-48.6 84.4-102.5 107.35-161.8 18.45-47.65 28.65-98.8 30.55-153.5 0.2-6.05 0.3-12.25 0.3-18.5v-3c-0.2-40.65-4.95-79.5-14.3-117z"
         fill="#fff"
         id="path32" />
    </g>
  </mask>
  <rect
     x="9.2091999"
     y="46.835552"
     width="45.582001"
     height="12.933"
     ry="6.4667001"
     fill="url(#linearGradient1415)"
     id="rect37"
     style="fill:url(#linearGradient917)" />
  <rect
     x="19.818"
     y="9.9213"
     width="24.365"
     height="28.759"
     ry="1.114"
     fill="url(#linearGradient1405)"
     id="rect39" />
  <path
     id="path41"
     style="fill:url(#linearGradient924)"
     d="M 16.130859 2 A 8.5714 8.5714 0 0 0 7.6074219 9.6582031 L 3.2695312 50.144531 A 10.714 10.714 0 0 0 3.2089844 51.285156 C 3.2089844 57.202356 8.0063282 62 13.923828 62 L 50.076172 62 A 10.714 10.714 0 0 0 51.216797 61.939453 C 57.101097 61.309453 61.358516 56.027731 60.728516 50.144531 L 56.390625 9.6582031 A 8.5714 8.5714 0 0 0 47.869141 2 L 16.130859 2 z M 32.917969 13.785156 L 32.535156 22.96875 L 40.572266 22.203125 L 30.623047 35.212891 L 32.917969 26.029297 L 24.5 27.560547 L 32.917969 13.785156 z M 15.884766 46.919922 L 48.115234 46.919922 C 51.652043 46.919922 54.5 49.767987 54.5 53.304688 C 54.5 56.841386 51.652043 59.6875 48.115234 59.6875 L 15.884766 59.6875 C 12.347957 59.6875 9.5 56.841387 9.5 53.304688 C 9.5 49.767987 12.347957 46.919922 15.884766 46.919922 z " />
  <rect
     x="-80.122627"
     y="42.695999"
     width="45.582001"
     height="12.933"
     ry="6.4667001"
     fill="url(#linearGradient1415)"
     id="rect881"
     style="fill:url(#linearGradient907)" />
  <rect
     x="-69.513824"
     y="9.9212999"
     width="24.365"
     height="28.759001"
     ry="1.114"
     fill="url(#linearGradient1405)"
     id="rect883"
     style="fill:url(#linearGradient905)" />
  <path
     d="m -73.201829,2 h 31.739 a 8.5714,8.5714 0 0 1 8.5221,7.6586 l 4.3382,40.486 c 0.63,5.8832 -3.6279,11.164 -9.5122,11.794 a 10.714,10.714 0 0 1 -1.1411,0.06104 h -36.153 c -5.9175,0 -10.714,-4.7968 -10.714,-10.714 a 10.714,10.714 0 0 1 0.06104,-1.1411 l 4.3382,-40.486 a 8.5714,8.5714 0 0 1 8.5221,-7.6586 z m -0.20143,40.714 a 6.4286,6.4286 0 0 0 0,12.857 h 32.143 a 6.4286,6.4286 0 1 0 0,-12.857 z m 16.99,-28.929 -8.4182,13.775 8.4182,-1.53 -2.2961,9.1832 9.9493,-13.01 -8.0357,0.765 z"
     fill="url(#linearGradient1295)"
     stroke-width="0.06801"
     p-id="12649"
     id="path885"
     style="fill:url(#linearGradient903)" />
  <path
     d="m -34.999829,47.074 c 0.40136,1.0101 -0.23554,-42.687 -2.2531,-43.921 -2.3155,-1.4158 -4.9554,-1.127 -4.9554,-1.127 l 2.3329,40.818 c 0,0 3.3042,0.27518 4.8756,4.23 z"
     fill="url(#linearGradient1377)"
     id="path887"
     style="fill:url(#linearGradient901)" />
  <path
     d="m -79.584029,47.074 c -0.40136,1.0101 0.23554,-42.687 2.2531,-43.921 2.3155,-1.4158 4.9554,-1.127 4.9554,-1.127 l -2.3329,40.818 c 0,0 -3.3042,0.27518 -4.8756,4.23 z"
     fill="url(#linearGradient1384)"
     id="path889"
     style="fill:url(#linearGradient899)" />
  <g
     transform="translate(-89.653569,0.60698)"
     stroke-width="0.11719"
     id="g897">
    <circle
       transform="scale(-1)"
       cx="-48.925999"
       cy="-48.905998"
       r="1.2471"
       fill="#f44e24"
       id="circle891" />
    <circle
       transform="scale(-1)"
       cx="-45.473"
       cy="-48.905998"
       r="1.2471"
       fill="#ffb800"
       id="circle893" />
    <circle
       transform="scale(-1)"
       cx="-42.018002"
       cy="-48.905998"
       r="1.2471"
       fill="#00a2ef"
       id="circle895" />
  </g>
  <g
     transform="translate(-0.32174,4.7465329)"
     stroke-width=".11719"
     id="g53">
    <circle
       transform="scale(-1)"
       cx="-48.925999"
       cy="-48.905998"
       r="1.2471"
       fill="#f44e24"
       id="circle47" />
    <circle
       transform="scale(-1)"
       cx="-45.473"
       cy="-48.905998"
       r="1.2471"
       fill="#ffb800"
       id="circle49" />
    <circle
       transform="scale(-1)"
       cx="-42.018002"
       cy="-48.905998"
       r="1.2471"
       fill="#00a2ef"
       id="circle51" />
  </g>
  <path
     id="path946"
     style="opacity:0.555247;fill:#1e1e1e;fill-opacity:1;stroke-linecap:round"
     d="M 14.716797 47.070312 C 14.272695 47.155009 13.800368 47.164858 13.394531 47.335938 C 12.630231 47.658127 11.9422 48.124224 11.365234 48.701172 C 10.788268 49.27812 10.322199 49.966192 10 50.730469 C 9.6778008 51.494745 9.5 52.334575 9.5 53.21875 C 9.5 53.233951 9.5077075 53.246544 9.5078125 53.261719 C 9.5138092 52.394189 9.6832816 51.565668 10 50.814453 C 10.322259 50.050098 10.788189 49.362208 11.365234 48.785156 C 11.94228 48.208104 12.630172 47.742189 13.394531 47.419922 C 13.799247 47.249287 14.270127 47.239034 14.712891 47.154297 L 14.716797 47.070312 z " />
  <path
     id="path958"
     style="opacity:1;fill:url(#linearGradient969);fill-opacity:1;stroke-linecap:round"
     d="m 16.130872,2 a 8.5714,8.5714 0 0 0 -0.246093,0.00391 8.5714,8.5714 0 0 0 -0.246094,0.00977 8.5714,8.5714 0 0 0 -0.246094,0.017578 8.5714,8.5714 0 0 0 -0.24414,0.025391 8.5714,8.5714 0 0 0 -0.244141,0.03125 8.5714,8.5714 0 0 0 -0.244141,0.039063 8.5714,8.5714 0 0 0 -0.240234,0.044922 8.5714,8.5714 0 0 0 -0.242188,0.052734 8.5714,8.5714 0 0 0 -0.238281,0.060547 8.5714,8.5714 0 0 0 -0.236328,0.066406 8.5714,8.5714 0 0 0 -0.236328,0.072266 8.5714,8.5714 0 0 0 -0.232422,0.080078 8.5714,8.5714 0 0 0 -0.230469,0.085938 8.5714,8.5714 0 0 0 -0.228515,0.09375 8.5714,8.5714 0 0 0 -0.22461,0.099609 8.5714,8.5714 0 0 0 -0.222656,0.1054688 8.5714,8.5714 0 0 0 -0.21875,0.1132812 8.5714,8.5714 0 0 0 -0.214844,0.1171875 8.5714,8.5714 0 0 0 -0.21289,0.125 A 8.5714,8.5714 0 0 0 11.472669,3.375 8.5714,8.5714 0 0 0 11.269544,3.5117188 8.5714,8.5714 0 0 0 11.068372,3.6542969 8.5714,8.5714 0 0 0 10.871107,3.8027344 8.5714,8.5714 0 0 0 10.679701,3.9570312 8.5714,8.5714 0 0 0 10.492201,4.1152344 8.5714,8.5714 0 0 0 10.308607,4.28125 8.5714,8.5714 0 0 0 10.130872,4.4511719 8.5714,8.5714 0 0 0 9.9570436,4.625 a 8.5714,8.5714 0 0 0 -0.167969,0.1796875 8.5714,8.5714 0 0 0 -0.164062,0.1855469 8.5714,8.5714 0 0 0 -0.15625,0.1875 8.5714,8.5714 0 0 0 -0.152344,0.1933594 8.5714,8.5714 0 0 0 -0.146484,0.1992187 8.5714,8.5714 0 0 0 -0.140625,0.2011719 8.5714,8.5714 0 0 0 -0.134766,0.2070312 8.5714,8.5714 0 0 0 -0.130859,0.2089844 8.5714,8.5714 0 0 0 -0.121094,0.2128906 8.5714,8.5714 0 0 0 -0.117188,0.2167969 8.5714,8.5714 0 0 0 -0.111328,0.2207031 8.5714,8.5714 0 0 0 -0.103515,0.2226563 8.5714,8.5714 0 0 0 -0.09766,0.2265625 8.5714,8.5714 0 0 0 -0.0918,0.2285156 8.5714,8.5714 0 0 0 -0.08398,0.2304688 8.5714,8.5714 0 0 0 -0.07813,0.234375 8.5714,8.5714 0 0 0 -0.07031,0.2363281 8.5714,8.5714 0 0 0 -0.06445,0.2363281 8.5714,8.5714 0 0 0 -0.05664,0.2402344 8.5714,8.5714 0 0 0 -0.05078,0.2402344 8.5714,8.5714 0 0 0 -0.04297,0.2421874 8.5714,8.5714 0 0 0 -0.03711,0.2441407 8.5714,8.5714 0 0 0 -0.0293,0.2382812 L 3.2695436,50.144531 a 10.714,10.714 0 0 0 -0.02539,0.273438 10.714,10.714 0 0 0 -0.01953,0.27539 10.714,10.714 0 0 0 -0.01172,0.275391 10.714,10.714 0 0 0 -0.0039,0.275391 10.714,10.714 0 0 0 0,0.04102 c 0,1.4793 0.299585,2.888037 0.841797,4.169922 0.542212,1.281886 1.327363,2.43672 2.296875,3.40625 0.969512,0.969531 2.124351,1.75464 3.40625,2.296875 C 11.035819,61.700439 12.444466,62 13.923841,62 h 0.238281 l 0.09766,-2.638672 C 13.977072,59.285648 13.660131,59.299408 13.394547,59.1875 12.630188,58.865416 11.942296,58.399073 11.36525,57.822266 10.788205,57.245458 10.322275,56.559093 10.000016,55.794922 9.6777566,55.03075 9.5000156,54.188862 9.5000156,53.304688 c 0,-0.0152 0.0077,-0.02779 0.0078,-0.04297 -1.05e-4,-0.01517 -0.0078,-0.02777 -0.0078,-0.04297 0,-0.884175 0.1778,-1.724005 0.5000004,-2.488281 0.322199,-0.764277 0.788268,-1.452349 1.365234,-2.029297 0.576966,-0.576948 1.264997,-1.043045 2.029297,-1.365234 0.405837,-0.17108 0.878164,-0.180929 1.322266,-0.265626 L 16.390638,2 Z" />
  <path
     id="path973"
     style="opacity:1;fill:url(#linearGradient975);fill-opacity:1;stroke-linecap:round"
     d="m 47.868437,2 a 8.5714,8.5714 0 0 1 0.246093,0.00391 8.5714,8.5714 0 0 1 0.246094,0.00977 8.5714,8.5714 0 0 1 0.246094,0.017578 8.5714,8.5714 0 0 1 0.24414,0.025391 8.5714,8.5714 0 0 1 0.244141,0.03125 8.5714,8.5714 0 0 1 0.244141,0.039063 8.5714,8.5714 0 0 1 0.240234,0.044922 8.5714,8.5714 0 0 1 0.242188,0.052734 8.5714,8.5714 0 0 1 0.238281,0.060547 8.5714,8.5714 0 0 1 0.236328,0.066406 8.5714,8.5714 0 0 1 0.236328,0.072266 8.5714,8.5714 0 0 1 0.232422,0.080078 8.5714,8.5714 0 0 1 0.230469,0.085938 8.5714,8.5714 0 0 1 0.228515,0.09375 8.5714,8.5714 0 0 1 0.22461,0.099609 8.5714,8.5714 0 0 1 0.222656,0.1054688 8.5714,8.5714 0 0 1 0.21875,0.1132812 8.5714,8.5714 0 0 1 0.214844,0.1171875 8.5714,8.5714 0 0 1 0.21289,0.125 8.5714,8.5714 0 0 1 0.208985,0.1308505 8.5714,8.5714 0 0 1 0.203125,0.1367188 8.5714,8.5714 0 0 1 0.201172,0.1425781 8.5714,8.5714 0 0 1 0.197265,0.1484375 8.5714,8.5714 0 0 1 0.191406,0.1542968 8.5714,8.5714 0 0 1 0.1875,0.1582032 8.5714,8.5714 0 0 1 0.183594,0.1660156 8.5714,8.5714 0 0 1 0.177735,0.1699219 8.5714,8.5714 0 0 1 0.173829,0.1738281 8.5714,8.5714 0 0 1 0.167969,0.1796875 8.5714,8.5714 0 0 1 0.164062,0.1855469 8.5714,8.5714 0 0 1 0.156249,0.1875 8.5714,8.5714 0 0 1 0.152344,0.1933594 8.5714,8.5714 0 0 1 0.146484,0.1992187 8.5714,8.5714 0 0 1 0.140625,0.2011719 8.5714,8.5714 0 0 1 0.134766,0.2070312 8.5714,8.5714 0 0 1 0.130859,0.2089844 8.5714,8.5714 0 0 1 0.121094,0.2128906 8.5714,8.5714 0 0 1 0.117188,0.2167969 8.5714,8.5714 0 0 1 0.111328,0.2207031 8.5714,8.5714 0 0 1 0.103515,0.2226563 8.5714,8.5714 0 0 1 0.09766,0.2265625 8.5714,8.5714 0 0 1 0.0918,0.2285156 8.5714,8.5714 0 0 1 0.08398,0.2304688 8.5714,8.5714 0 0 1 0.07813,0.234375 8.5714,8.5714 0 0 1 0.07031,0.2363281 8.5714,8.5714 0 0 1 0.06445,0.2363281 8.5714,8.5714 0 0 1 0.05664,0.2402344 8.5714,8.5714 0 0 1 0.05078,0.2402344 8.5714,8.5714 0 0 1 0.04297,0.2421874 8.5714,8.5714 0 0 1 0.03711,0.2441407 8.5714,8.5714 0 0 1 0.0293,0.2382812 l 4.337886,40.4863279 a 10.714,10.714 0 0 1 0.02539,0.273438 10.714,10.714 0 0 1 0.01953,0.27539 10.714,10.714 0 0 1 0.01172,0.275391 10.714,10.714 0 0 1 0.0039,0.275391 10.714,10.714 0 0 1 0,0.04102 c 0,1.4793 -0.299585,2.888037 -0.841797,4.169922 -0.542212,1.281886 -1.327363,2.43672 -2.296875,3.40625 -0.969512,0.969531 -2.124351,1.75464 -3.406249,2.296875 C 52.96349,61.700439 51.554843,62 50.075468,62 h -0.238281 l -0.09766,-2.638672 c 0.28271,-0.07568 0.599651,-0.06192 0.865235,-0.173828 0.764359,-0.322084 1.452251,-0.788427 2.029297,-1.365234 0.577045,-0.576808 1.042975,-1.263173 1.365234,-2.027344 0.32226,-0.764172 0.5,-1.60606 0.5,-2.490234 0,-0.0152 -0.0077,-0.02779 -0.0078,-0.04297 1.05e-4,-0.01517 0.0078,-0.02777 0.0078,-0.04297 0,-0.884175 -0.177799,-1.724005 -0.5,-2.488281 C 53.677094,49.96619 53.211025,49.278118 52.634059,48.70117 52.057093,48.124222 51.369062,47.658125 50.604762,47.335936 50.198925,47.164856 49.726598,47.155007 49.282496,47.07031 L 47.608671,2 Z" />
</svg>
