<?xml version="1.0" encoding="UTF-8"?>
<!-- Created with Inkscape (http://www.inkscape.org/) -->
<svg width="64" height="64" version="1.1" viewBox="0 0 16.933 16.933" xmlns="http://www.w3.org/2000/svg" xmlns:cc="http://creativecommons.org/ns#" xmlns:dc="http://purl.org/dc/elements/1.1/" xmlns:rdf="http://www.w3.org/1999/02/22-rdf-syntax-ns#" xmlns:xlink="http://www.w3.org/1999/xlink">
 <defs>
  <linearGradient id="linearGradient1004" x1="8.7162" x2="8.7162" y1="2.9006" y2="16.928" gradientTransform="matrix(.4915 0 0 .4915 -35.219 20.275)" gradientUnits="userSpaceOnUse">
   <stop stop-color="#909aa4" offset="0"/>
   <stop stop-color="#8c949c" offset=".69055"/>
   <stop stop-color="#646e78" offset="1"/>
  </linearGradient>
  <linearGradient id="linearGradient1012" x1="1.4538" x2="15.614" y1="14.535" y2="14.535" gradientUnits="userSpaceOnUse">
   <stop stop-color="#979ea5" offset="0"/>
   <stop stop-color="#909aa4" offset=".4"/>
   <stop stop-color="#646e78" offset="1"/>
  </linearGradient>
  <linearGradient id="linearGradient886" x1="1.4702" x2="15.599" y1="13.326" y2="13.326" gradientTransform="matrix(.10656 0 0 .10656 -.46662 .14318)" gradientUnits="userSpaceOnUse">
   <stop stop-color="#0ac8ff" offset="0"/>
   <stop stop-color="#0a87eb" offset="1"/>
  </linearGradient>
  <radialGradient id="radialGradient900" cx="128.24" cy="137.29" r="2.397" gradientTransform="matrix(.10656 0 0 .10656 -.46662 .14318)" gradientUnits="userSpaceOnUse">
   <stop stop-color="#00bffb" offset="0"/>
   <stop stop-color="#01a1f3" offset="1"/>
  </radialGradient>
 </defs>
 <metadata>
  <rdf:RDF>
   <cc:Work rdf:about="">
    <dc:format>image/svg+xml</dc:format>
    <dc:type rdf:resource="http://purl.org/dc/dcmitype/StillImage"/>
    <dc:title/>
   </cc:Work>
  </rdf:RDF>
 </metadata>
 <g transform="matrix(.33777 0 0 .33777 .19138 .19104)">
  <g transform="translate(1,1)">
   <g opacity=".1">
    <!-- color: #1f4a5e --></g>
  </g>
 </g>
 <g transform="matrix(.33777 0 0 .33777 .19138 .19104)">
  <!-- color: #1f4a5e --></g>
 <style type="text/css">.st0{opacity:0.15;fill:#45413C;}
	.st1{fill:#FFE500;}
	.st2{fill:#EBCB00;}
	.st3{fill:none;stroke:#45413C;stroke-linecap:round;stroke-linejoin:round;stroke-miterlimit:10;}
	.st4{fill:#FFAA54;}
	.st5{fill:#FF8A14;}
	.st6{fill:#FFB0CA;stroke:#45413C;stroke-linecap:round;stroke-linejoin:round;stroke-miterlimit:10;}
	.st7{fill:#FF87AF;stroke:#45413C;stroke-linecap:round;stroke-linejoin:round;stroke-miterlimit:10;}
	.st8{fill:#FFCC99;}
	.st9{fill:#FFFFFF;}
	.st10{fill:#F0F0F0;}
	.st11{fill:#BF8256;}
	.st12{fill:#915E3A;}
	.st13{fill:#DEA47A;}
	.st14{fill:#F0D5A8;}
	.st15{fill:#DEBB7E;}
	.st16{fill:#F7E5C6;}
	.st17{fill:#FF8A14;stroke:#45413C;stroke-linecap:round;stroke-linejoin:round;stroke-miterlimit:10;}
	.st18{fill:#FFF5E3;}
	.st19{fill:#FFF48C;}
	.st20{fill:#FFFACF;}
	.st21{fill:#FFFCE5;}
	.st22{fill:#FF87AF;}
	.st23{fill:#FFB0CA;}
	.st24{fill:#FFE500;stroke:#45413C;stroke-linecap:round;stroke-linejoin:round;stroke-miterlimit:10;}
	.st25{fill:#9CEB60;stroke:#45413C;stroke-linecap:round;stroke-linejoin:round;stroke-miterlimit:10;}
	.st26{fill:#FFFACF;stroke:#45413C;stroke-linecap:round;stroke-linejoin:round;stroke-miterlimit:10;}
	.st27{fill:#00F5BC;stroke:#45413C;stroke-linecap:round;stroke-linejoin:round;stroke-miterlimit:10;}
	.st28{fill:#BF8256;stroke:#45413C;stroke-linecap:round;stroke-linejoin:round;stroke-miterlimit:10;}
	.st29{fill:#FFE3CF;stroke:#45413C;stroke-linecap:round;stroke-linejoin:round;stroke-miterlimit:10;}
	.st30{fill:#FF6242;}
	.st31{fill:#FF866E;}
	.st32{fill:none;stroke:#E04122;stroke-linecap:round;stroke-linejoin:round;stroke-miterlimit:10;}
	.st33{fill:#FFFEF2;stroke:#45413C;stroke-linecap:round;stroke-linejoin:round;stroke-miterlimit:10;}
	.st34{fill:#FF6242;stroke:#45413C;stroke-linecap:round;stroke-linejoin:round;stroke-miterlimit:10;}
	.st35{fill:#FFA694;}
	.st36{fill:#FFFFFF;stroke:#45413C;stroke-linecap:round;stroke-linejoin:round;stroke-miterlimit:10;}
	.st37{fill:#FFFEF2;}
	.st38{fill:#FF6196;}
	.st39{fill:#B89558;}
	.st40{fill:none;stroke:#915E3A;stroke-linecap:round;stroke-linejoin:round;stroke-miterlimit:10;}
	.st41{fill:#DEBB7E;stroke:#45413C;stroke-linecap:round;stroke-linejoin:round;stroke-miterlimit:10;}
	.st42{fill:#6DD627;stroke:#45413C;stroke-linecap:round;stroke-linejoin:round;stroke-miterlimit:10;}
	.st43{fill:#E5F8FF;}
	.st44{fill:#E8F4FA;}
	.st45{fill:#E8F4FA;stroke:#45413C;stroke-linecap:round;stroke-linejoin:round;stroke-miterlimit:10;}
	.st46{fill:#FFCCDD;}
	.st47{fill:#E5F8FF;stroke:#45413C;stroke-linecap:round;stroke-linejoin:round;stroke-miterlimit:10;}
	.st48{fill:#00B8F0;stroke:#45413C;stroke-linecap:round;stroke-linejoin:round;stroke-miterlimit:10;}
	.st49{fill:#00B8F0;}
	.st50{fill:#4ACFFF;}
	.st51{fill:#E04122;}
	.st52{fill:#E04122;stroke:#45413C;stroke-linecap:round;stroke-linejoin:round;stroke-miterlimit:10;}
	.st53{fill:#87898C;}
	.st54{fill:#BDBEC0;}
	.st55{fill:#656769;}
	.st56{fill:#525252;}
	.st57{fill:#FFF48C;stroke:#45413C;stroke-linecap:round;stroke-linejoin:round;stroke-miterlimit:10;}
	.st58{fill:#6DD627;}
	.st59{fill:#EB6D00;}
	.st60{fill:#46B000;}
	.st61{fill:#80DDFF;}
	.st62{fill:#DAEDF7;}
	.st63{fill:#BF8DF2;stroke:#45413C;stroke-linecap:round;stroke-linejoin:round;stroke-miterlimit:10;}
	.st64{fill:#9F5AE5;stroke:#45413C;stroke-linecap:round;stroke-linejoin:round;stroke-miterlimit:10;}
	.st65{fill:#C8FFA1;}
	.st66{fill:#E4FFD1;}
	.st67{fill:#9CEB60;}
	.st68{fill:#E5FEFF;}
	.st69{fill:#B8ECFF;}
	.st70{fill:#E0E0E0;stroke:#45413C;stroke-linecap:round;stroke-linejoin:round;stroke-miterlimit:10;}
	.st71{fill:#E0E0E0;}
	.st72{fill:none;stroke:#4F4B45;stroke-linejoin:round;stroke-miterlimit:10;}
	.st73{fill:none;stroke:#4F4B45;stroke-linecap:round;stroke-linejoin:round;stroke-miterlimit:10;}
	.st74{fill:#E0366F;stroke:#45413C;stroke-linecap:round;stroke-linejoin:round;stroke-miterlimit:10;}
	.st75{fill:none;stroke:#45413C;stroke-miterlimit:10;}
	.st76{fill:#FF866E;stroke:#45413C;stroke-linecap:round;stroke-linejoin:round;stroke-miterlimit:10;}
	.st77{fill:#45413C;stroke:#45413C;stroke-linecap:round;stroke-linejoin:round;stroke-miterlimit:10;}
	.st78{fill:#9F5AE5;}
	.st79{fill:#803EC2;}
	.st80{fill:#803EC2;stroke:#45413C;stroke-linecap:round;stroke-linejoin:round;stroke-miterlimit:10;}
	.st81{fill:#BF8DF2;}
	.st82{fill:#FFAA54;stroke:#45413C;stroke-linecap:round;stroke-linejoin:round;stroke-miterlimit:10;}
	.st83{fill:none;stroke:#45413C;stroke-linejoin:round;stroke-miterlimit:10;}
	.st84{fill:#FFCCDD;stroke:#45413C;stroke-linecap:round;stroke-linejoin:round;stroke-miterlimit:10;}
	.st85{fill:#FF6196;stroke:#45413C;stroke-linecap:round;stroke-linejoin:round;stroke-miterlimit:10;}
	.st86{fill:#FFE5EE;}
	.st87{fill:#F7E5C6;stroke:#45413C;stroke-linecap:round;stroke-linejoin:round;stroke-miterlimit:10;}
	.st88{fill:#E5FFF9;}
	.st89{fill:none;stroke:#45413C;stroke-width:1.0064;stroke-linecap:round;stroke-linejoin:round;stroke-miterlimit:10;}
	.st90{fill:#4AEFF7;}
	.st91{fill:#A6FBFF;}
	.st92{fill:#E5FEFF;stroke:#45413C;stroke-linecap:round;stroke-linejoin:round;stroke-miterlimit:10;}
	.st93{fill:#46B000;stroke:#45413C;stroke-linecap:round;stroke-linejoin:round;stroke-miterlimit:10;}
	.st94{fill:#FFFFFF;stroke:#45413C;stroke-linejoin:round;stroke-miterlimit:10;}
	.st95{fill:#FFFFFF;stroke:#45413C;stroke-miterlimit:10;}
	.st96{fill:#009FD9;}
	.st97{fill:#00DFEB;}
	.st98{fill:#C0DCEB;stroke:#45413C;stroke-linecap:round;stroke-linejoin:round;stroke-miterlimit:10;}
	.st99{fill:#00DFEB;stroke:#45413C;stroke-linecap:round;stroke-linejoin:round;stroke-miterlimit:10;}
	.st100{fill:#FFE5EE;stroke:#45413C;stroke-linecap:round;stroke-linejoin:round;stroke-miterlimit:10;}
	.st101{fill:#8CA4B8;}
	.st102{fill:#ADC4D9;}
	.st103{fill:#656769;stroke:#45413C;stroke-linecap:round;stroke-linejoin:round;stroke-miterlimit:10;}
	.st104{fill:#F0F0F0;stroke:#45413C;stroke-linecap:round;stroke-linejoin:round;stroke-miterlimit:10;}
	.st105{fill:#C0DCEB;}
	.st106{fill:#45413C;}
	.st107{fill:#FFCABF;}
	.st108{fill:#87898C;stroke:#45413C;stroke-linecap:round;stroke-linejoin:round;stroke-miterlimit:10;}
	.st109{fill:#EBCB00;stroke:#45413C;stroke-linecap:round;stroke-linejoin:round;stroke-miterlimit:10;}</style>
 <g transform="matrix(.10656 0 0 .10656 -33.143 .19865)" fill="none" opacity=".7" stroke="#000" stroke-linecap="round" stroke-linejoin="round" stroke-opacity=".045627">
  <path d="m339.39 6.1016c-3.1589 0-5.4287 2.5541-5.7012 5.7012l-9.4609 109.24h-0.19922v22.324c0 3.1589 2.5442 5.7012 5.7031 5.7012h121.48c3.1589 0 5.7031-2.5423 5.7031-5.7012v-22.324h-0.20898l-10.811-109.24c-0.31109-3.1435-2.5442-5.7012-5.7031-5.7012z" opacity="1" stroke-width="2" style="paint-order:fill markers stroke"/>
  <path d="m339.39 6.1016c-3.1589 0-5.4287 2.5541-5.7012 5.7012l-9.4609 109.24h-0.19922v22.324c0 3.1589 2.5442 5.7012 5.7031 5.7012h121.48c3.1589 0 5.7031-2.5423 5.7031-5.7012v-22.324h-0.20898l-10.811-109.24c-0.31109-3.1435-2.5442-5.7012-5.7031-5.7012z" opacity="1" stroke-width="4" style="paint-order:fill markers stroke"/>
  <path d="m339.39 6.1016c-3.1589 0-5.4287 2.5541-5.7012 5.7012l-9.4609 109.24h-0.19922v22.324c0 3.1589 2.5442 5.7012 5.7031 5.7012h121.48c3.1589 0 5.7031-2.5423 5.7031-5.7012v-22.324h-0.20898l-10.811-109.24c-0.31109-3.1435-2.5442-5.7012-5.7031-5.7012z" opacity="1" stroke-width="6" style="paint-order:fill markers stroke"/>
 </g>
 <path d="m15.614 13.042v2.379c0 0.33662-0.271 0.60762-0.60762 0.60762h-12.945c-0.33662 0-0.60762-0.271-0.60762-0.60762v-2.379z" fill="url(#linearGradient1012)" style="paint-order:fill markers stroke"/>
 <path d="m3.0911 0.79339h10.741c0.33662 0 0.57447 0.27263 0.60762 0.60762l1.1559 11.681c0.03315 0.33498-0.271 0.60762-0.60762 0.60762h-12.909c-0.33662 0-0.63666-0.27225-0.60762-0.60762l1.0114-11.681c0.029041-0.33536 0.271-0.60762 0.60762-0.60762z" fill="url(#linearGradient1004)" style="paint-order:fill markers stroke"/>
 <g transform="matrix(2.345 0 0 2.345 -17.817 -19.817)">
  <circle cx="13.199" cy="14.773" r=".25543" fill="url(#radialGradient900)" stroke="#292929" stroke-linecap="round" stroke-linejoin="round" stroke-width=".053281" style="paint-order:fill markers stroke"/>
  <circle cx="13.199" cy="14.773" r=".063857" fill="#fff" fill-opacity=".29658" style="paint-order:fill markers stroke"/>
 </g>
 <path d="m1.4823 12.963-0.010199 0.11822c-0.029041 0.33536 0.27091 0.60774 0.60753 0.60774h12.909c0.33662 0 0.64089-0.27276 0.60774-0.60774l-0.01083-0.10948c-0.05874 0.25728-0.31617 0.44706-0.59692 0.44706h-12.909c-0.28395 0-0.541-0.19389-0.59733-0.4558z" fill="url(#linearGradient886)" style="paint-order:fill markers stroke"/>
 <g transform="matrix(.10228 0 0 .10228 3.6631 1.7581)" fill="#69737d">
  <path d="m11.093 25.07c-0.86117 0.1479-1.6608 0.35413-2.2312 0.9245-0.57013 0.57038-0.92438 1.6899-0.92438 2.5641v22.091h34.714v-29.697l-6.3116 0.80129z"/>
  <path d="m45.807 20.52v30.128h40.183v-31.531c0-0.87417-0.37151-1.6608-0.96942-2.2313-0.59792-0.57037-1.4311-1.0379-2.3401-0.9245l-30.254 3.7564z" stroke-width="1.0241"/>
  <path d="m7.9381 53.81v22.091c0 0.87416 0.35425 2.0553 0.92439 2.6258 0.57013 0.57037 1.3645 0.81071 2.2313 0.9245l25.247 3.3144 6.3116 0.78888v-29.744z"/>
  <path d="m45.807 53.81v30.165l6.6192 0.82587 30.254 3.5575c0.90939 0.11331 1.7418-0.35413 2.34-0.9245 0.59791-0.57037 0.96942-1.3571 0.96942-2.2313v-31.393z" stroke-width="1.0241"/>
 </g>
</svg>
