<?xml version="1.0" encoding="UTF-8" standalone="no"?>
<svg
   xmlns:dc="http://purl.org/dc/elements/1.1/"
   xmlns:cc="http://creativecommons.org/ns#"
   xmlns:rdf="http://www.w3.org/1999/02/22-rdf-syntax-ns#"
   xmlns:svg="http://www.w3.org/2000/svg"
   xmlns="http://www.w3.org/2000/svg"
   xmlns:sodipodi="http://sodipodi.sourceforge.net/DTD/sodipodi-0.dtd"
   xmlns:inkscape="http://www.inkscape.org/namespaces/inkscape"
   id="Iterm"
   width="64"
   height="64"
   enable-background="new 0 0 1024 1024"
   image-rendering="optimizeSpeed"
   version="1.1"
   viewBox="0 0 64 64"
   sodipodi:docname="input-mouse.svg"
   inkscape:version="1.0.2 (e86c870879, 2021-01-15)">
  <sodipodi:namedview
     pagecolor="#ffffff"
     bordercolor="#666666"
     borderopacity="1"
     objecttolerance="10"
     gridtolerance="10"
     guidetolerance="10"
     inkscape:pageopacity="0"
     inkscape:pageshadow="2"
     inkscape:window-width="1920"
     inkscape:window-height="936"
     id="namedview55"
     showgrid="false"
     inkscape:zoom="4.2813106"
     inkscape:cx="6.5680871"
     inkscape:cy="35.232734"
     inkscape:window-x="0"
     inkscape:window-y="38"
     inkscape:window-maximized="1"
     inkscape:current-layer="Iterm" />
  <metadata
     id="metadata2">
    <rdf:RDF>
      <cc:Work
         rdf:about="">
        <dc:format>image/svg+xml</dc:format>
        <dc:type
           rdf:resource="http://purl.org/dc/dcmitype/StillImage" />
        <dc:title></dc:title>
      </cc:Work>
    </rdf:RDF>
  </metadata>
  <defs
     id="defs29">
    <linearGradient
       id="linearGradient1330"
       x1="-129.28"
       x2="-129.28"
       y1="65.932"
       y2="-5.839"
       gradientTransform="matrix(0.72563,-0.19443,0.19443,0.72563,134.88,-20.621)"
       gradientUnits="userSpaceOnUse">
      <stop
         stop-color="#d4d4d4"
         offset="0"
         id="stop4" />
      <stop
         stop-color="#c8c8c8"
         offset="1"
         id="stop6" />
    </linearGradient>
    <linearGradient
       id="linearGradient1338"
       x1="-149.76"
       x2="-149.76"
       y1="38.218"
       y2="-2.0339"
       gradientTransform="matrix(0.72563,-0.19443,0.19443,0.72563,134.88,-20.621)"
       gradientUnits="userSpaceOnUse">
      <stop
         stop-color="#232323"
         offset="0"
         id="stop9" />
      <stop
         stop-color="#6e6e6e"
         offset="1"
         id="stop11" />
    </linearGradient>
    <linearGradient
       id="linearGradient1352"
       x1="-149.84"
       x2="-149.84"
       y1="12.784"
       y2="1.7352"
       gradientTransform="matrix(0.75123,0,0,0.75123,135.62,14.993)"
       gradientUnits="userSpaceOnUse">
      <stop
         stop-color="#1e1e1e"
         offset="0"
         id="stop14" />
      <stop
         stop-color="#505050"
         offset="1"
         id="stop16" />
    </linearGradient>
    <linearGradient
       id="linearGradient1360"
       x1="-150.51"
       x2="-150.51"
       y1="69.532"
       y2="-5.9668"
       gradientTransform="matrix(0.72563,-0.19443,0.19443,0.72563,134.78,-21.005)"
       gradientUnits="userSpaceOnUse">
      <stop
         stop-color="#00bffb"
         offset="0"
         id="stop19" />
      <stop
         stop-color="#01a1f3"
         offset="1"
         id="stop21" />
    </linearGradient>
    <linearGradient
       id="linearGradient1368"
       x1="-150.42"
       x2="-150.42"
       y1="73.048"
       y2="-7.1855"
       gradientTransform="matrix(0.72563,-0.19443,0.19443,0.72563,134.78,-21.005)"
       gradientUnits="userSpaceOnUse">
      <stop
         stop-color="#323232"
         offset="0"
         id="stop24" />
      <stop
         stop-color="#191919"
         offset="1"
         id="stop26" />
    </linearGradient>
  </defs>
  <mask
     id="mask34">
    <g
       id="g">
      <path
         d="m969.75 392.05c-1.1-4.35-2.35-9-3.65-13.6-1-3.4-2-6.85-3.15-10.5-1.6-5.15-3.4-10.5-5.3-15.85-6.45-18.25-14.15-36.05-23.15-53.65-3.8-7.4-7.95-14.95-12.3-22.4-20.3-34.5-45.8-67.2-76.35-97.75-72.6-72.6-157.15-116.65-253.65-132.05-16.25-2.6-32.8-4.4-50.05-5.35-9.7-0.55-19.85-0.85-30.1-0.85-9.35 0-18.6 0.25-27.9 0.75-118.35 6.1-220.3 51.95-305.85 137.5q-138.25 138.25-138.25 333.75c0 130.35 46.1 241.65 138.25 333.8 56.7 56.65 120.55 95.9 191.1 117.55 36.75 11.25 74.8 17.85 114.75 19.95h0.4c8.5 0.45 16.6 0.7 24.5 0.7h3c10.3 0 20.5-0.3 30.1-0.8 2.5-0.15 4.75-0.3 6.95-0.45 20.2-1.45 39.9-4.05 58.7-7.7 7.95-1.55 15.8-3.3 23.4-5.15 80.8-20.3 152.15-61.6 214.65-124.1 48.6-48.6 84.4-102.5 107.35-161.8 18.45-47.65 28.65-98.8 30.55-153.5 0.2-6.05 0.3-12.25 0.3-18.5v-3c-0.2-40.65-4.95-79.5-14.3-117z"
         fill="#fff"
         id="path31" />
    </g>
  </mask>
  <g
     transform="matrix(0.91378145,0,0,0.91378145,3.3241937,3.1327742)"
     stroke-width="0.75123"
     id="g52">
    <path
       d="m 24.237,3.0263 c 0,0 -9.0072,2.2021 -11.326,5.3544 -2.319,3.1523 -4.3597,8.1287 -3.5687,11.081 0.79091,2.9517 5.6298,21.795 7.5473,28.558 1.9175,6.7626 10.184,16.359 22.876,12.958 12.692,-3.4009 15.053,-15.845 13.332,-22.66 C 51.3769,31.5024 46.1441,12.7637 45.3533,9.8127 44.56239,6.861 40.3069,3.5717 36.7224,2.0009 33.1379,0.4305 24.2374,3.0266 24.2374,3.0266 Z"
       fill="url(#linearGradient1368)"
       id="path36"
       style="fill:url(#linearGradient1368)" />
    <path
       d="m 21.442,4.6182 c -1.6111,0.4317 -3.4794,1.0376 -4.5055,1.7343 -2.0521,1.3935 -6.0707,4.8959 -6.8451,10.271 -0.77441,5.3748 5.8708,19.939 7.3524,24.288 1.4816,4.3487 7.3756,21.33 21.544,17.534 14.168,-3.7964 10.832,-21.463 9.9407,-25.97 C 48.0373,27.9688 46.5101,12.0335 43.152,7.7655 39.794,3.498 34.5626,2.4741 32.088,2.2931 29.6141,2.11236 24.4076,3.9288 24.4076,3.9288 c 0,0 -1.3544,0.2581 -2.9656,0.68981 z"
       fill="url(#linearGradient1360)"
       id="path38"
       style="fill:url(#linearGradient1360)" />
    <path
       d="m 23.584,4.5296 c -1.7117,0.41911 -5.3598,1.4154 -7.1545,2.6872 -2.3929,1.6957 -8.4983,4.4928 -2.4495,20.377 6.0489,15.884 11.082,32.358 24.463,28.773 13.381,-3.5855 9.5297,-20.375 6.8258,-37.157 -2.7036,-16.781 -9.3896,-16.15 -12.31,-16.422 -2.9202,-0.27207 -8.4502,1.526 -8.4502,1.526 0,0 -0.35436,0.076234 -0.92496,0.21594 z"
       fill="url(#linearGradient1330)"
       id="path40"
       style="fill:url(#linearGradient1330)" />
    <path
       d="m 45.465,20.454 -31.034,8.3155 c 5.8532,15.502 10.966,31.094 24.011,27.598 13.045,-3.4955 9.7026,-19.561 7.022,-35.913 z"
       fill="#323232"
       opacity="0.3"
       id="path42" />
    <path
       d="m 24.51,4.3134 5.4389,20.298 15.516,-4.1576 c -0.06903,-0.42101 -0.1285,-0.82185 -0.19637,-1.2431 -2.7036,-16.781 -9.3896,-16.15 -12.31,-16.422 -2.9195,-0.272 -8.4459,1.5247 -8.4488,1.5256 z"
       fill="#323232"
       opacity="0.3"
       id="path44" />
    <path
       d="m 25.814,7.0227 c 1.6493,-0.44193 3.384,0.51721 3.7748,2.1794 l 5.4694,23.266 c 0.39077,1.6621 0.18327,3.1417 -1.466,3.5836 -1.6493,0.44193 -2.6478,-0.71432 -3.1352,-2.3507 L 23.6347,10.798 C 23.14723,9.1616 24.16476,7.4652 25.8141,7.0232 Z"
       fill="url(#linearGradient1338)"
       id="path46"
       style="fill:url(#linearGradient1338)" />
    <ellipse
       transform="rotate(-15)"
       cx="23.118"
       cy="20.413"
       rx="2.4576001"
       ry="4.6539001"
       fill="#19191e"
       id="ellipse48" />
    <ellipse
       transform="rotate(-15)"
       cx="23.118"
       cy="20.413"
       rx="2.0306001"
       ry="4.1504002"
       fill="url(#linearGradient1352)"
       id="ellipse50"
       style="fill:url(#linearGradient1352)" />
  </g>
</svg>
