<?xml version="1.0" encoding="UTF-8"?>
<svg width="64" height="64" version="1.1" viewBox="0 0 16.933 16.933" xmlns="http://www.w3.org/2000/svg" xmlns:cc="http://creativecommons.org/ns#" xmlns:dc="http://purl.org/dc/elements/1.1/" xmlns:rdf="http://www.w3.org/1999/02/22-rdf-syntax-ns#" xmlns:xlink="http://www.w3.org/1999/xlink">
 <metadata>
  <rdf:RDF>
   <cc:Work rdf:about="">
    <dc:format>image/svg+xml</dc:format>
    <dc:type rdf:resource="http://purl.org/dc/dcmitype/StillImage"/>
    <dc:title/>
   </cc:Work>
  </rdf:RDF>
 </metadata>
 <defs>
  <style type="text/css"/>
  <linearGradient id="linearGradient998" x1="4.5" x2="59.5" y1="32" y2="32" gradientUnits="userSpaceOnUse">
   <stop stop-color="#2fb9ff" offset="0"/>
   <stop stop-color="#08a5ff" offset="1"/>
  </linearGradient>
 </defs>
 <g transform="matrix(.28863 0 0 .28863 -.76968 -.76968)">
  <path d="m4.5 10.55m2.75 0h49.5q2.75 0 2.75 2.75v37.4q0 2.75-2.75 2.75h-49.5q-2.75 0-2.75-2.75v-37.4q0-2.75 2.75-2.75z" fill="url(#linearGradient998)" stroke-width=".053711" p-id="3966"/>
  <path d="m43.551 23.75a8.25 8.25 0 0 0-8.25 8.25 8.25 8.25 0 0 0 8.25 8.25h15.949v-16.5z" fill="#fdfdfd" stroke-linecap="round" stroke-opacity=".99608" stroke-width="3" style="paint-order:stroke fill markers"/>
  <path d="m43.55 32m-3.85 0a3.85 3.85 0 1 0 7.7 0 3.85 3.85 0 1 0-7.7 0z" fill="#13abff" stroke-width=".053711" p-id="3968"/>
  <path d="m17.369 33.602-2.7988 0.23828-0.10547 11.24 2.7695-0.38281 0.04492-4.793 3.6719 5.3516 2.9238-0.87695-3.7617-5.1484 3.8867-4.7871-2.9688-0.69141-3.7383 4.7891zm-6.3633 2.6816-2e-3 2e-3c-0.03167 0.0022-0.06573 0.0094-0.08984 0.0332l-1.1094 1.0625c-0.04659 0.04483-0.051611 0.115-0.019531 0.16992l1.2637 2.0801c-0.23164 0.37208-0.42026 0.77294-0.55469 1.1973l-2.3652 0.45703c-0.06579 0.01287-0.11462 0.07304-0.11523 0.13867l-0.013629 1.5156c-6.13e-4 0.06401 0.049731 0.11892 0.11328 0.13477l2.2812 0.5625c0.11769 0.49376 0.30275 0.96682 0.54883 1.3984l-1.3457 1.959c-0.0376 0.05484-0.029709 0.12901 0.019531 0.17578l1.0898 1.082c0.04597 0.04538 0.1159 0.05099 0.17188 0.01953l2.0918-1.2109c0.4056 0.2335 0.84464 0.42202 1.3086 0.54883l0.46289 2.2773c0.01226 0.0644 0.0695 0.11266 0.13672 0.11328l1.5527 0.01367c0.06538 5.97e-4 0.12232-0.04126 0.13867-0.10352l0.5957-2.2812c0.48088-0.1218 0.93487-0.30452 1.3555-0.54102l2.0352 1.3301c0.05619 0.03637 0.13147 0.02976 0.17969-0.01758l1.1035-1.0625c0.04679-0.04485 0.06003-0.11332 0.02734-0.16797l-0.73633-1.207-0.24414 0.07227c-0.03555 0.01042-0.07486-0.0053-0.0957-0.03516-2e-5 2e-6 -0.46506-0.68131-1.0723-1.5664-0.74966 1.3992-2.2608 2.3458-3.9902 2.3301-2.4574-0.02233-4.4331-1.9848-4.4102-4.3828 0.01635-1.764 1.1136-3.2698 2.668-3.9355l0.0098-1.1191c-0.28264 0.09358-0.55643 0.20669-0.81641 0.3418-4.7e-4 -3e-4 4.49e-4 -0.0059 0-0.0059l-2.084-1.3594c-0.02799-0.019-0.05797-0.0219-0.08984-0.01953z" fill="#fdfdfd" stroke-linecap="round" stroke-opacity=".99608" stroke-width="3" style="paint-order:stroke fill markers"/>
 </g>
</svg>
