<?xml version="1.0" encoding="UTF-8" standalone="no"?>
<svg
   xmlns:dc="http://purl.org/dc/elements/1.1/"
   xmlns:cc="http://creativecommons.org/ns#"
   xmlns:rdf="http://www.w3.org/1999/02/22-rdf-syntax-ns#"
   xmlns:svg="http://www.w3.org/2000/svg"
   xmlns="http://www.w3.org/2000/svg"
   xmlns:xlink="http://www.w3.org/1999/xlink"
   xmlns:sodipodi="http://sodipodi.sourceforge.net/DTD/sodipodi-0.dtd"
   xmlns:inkscape="http://www.inkscape.org/namespaces/inkscape"
   width="64"
   height="64"
   version="1.1"
   viewBox="0 0 16.933 16.933"
   id="svg10"
   sodipodi:docname="keyring-manager.svg"
   inkscape:version="1.0.1 (3bc2e813f5, 2020-09-07)">
  <metadata
     id="metadata16">
    <rdf:RDF>
      <cc:Work
         rdf:about="">
        <dc:format>image/svg+xml</dc:format>
        <dc:type
           rdf:resource="http://purl.org/dc/dcmitype/StillImage" />
        <dc:title></dc:title>
      </cc:Work>
    </rdf:RDF>
  </metadata>
  <defs
     id="defs14">
    <linearGradient
       inkscape:collect="always"
       id="linearGradient996">
      <stop
         style="stop-color:#2fb9ff;stop-opacity:1"
         offset="0"
         id="stop992" />
      <stop
         style="stop-color:#08a5ff;stop-opacity:1"
         offset="1"
         id="stop994" />
    </linearGradient>
    <linearGradient
       id="g"
       x1="-322.18"
       x2="-320.91"
       y1="509.99"
       y2="594.99"
       gradientTransform="matrix(0.26453,0,0,0.23277,36.061043,-91.006)"
       gradientUnits="userSpaceOnUse">
      <stop
         stop-color="#eff0f1"
         offset="0"
         id="stop2" />
      <stop
         stop-color="#ccd2d7"
         offset="1"
         id="stop4" />
    </linearGradient>
    <linearGradient
       id="e"
       x1="-303.15"
       x2="-301.88"
       y1="591.82"
       y2="515.06"
       gradientTransform="matrix(0.26453,0,0,0.22561,38.061043,-94.346)"
       gradientUnits="userSpaceOnUse">
      <stop
         stop-color="#ffee5e"
         offset="0"
         id="stop7" />
      <stop
         stop-color="#feff9f"
         offset="1"
         id="stop9" />
    </linearGradient>
    <linearGradient
       id="f"
       x1="-322.73"
       x2="-320.91"
       y1="595.62"
       y2="510.62"
       gradientTransform="matrix(0.26757,0,0,0.22024,41.241043,-98.601)"
       gradientUnits="userSpaceOnUse">
      <stop
         stop-color="#ff594d"
         offset="0"
         id="stop12" />
      <stop
         stop-color="#ff7f76"
         offset="1"
         id="stop14" />
    </linearGradient>
    <linearGradient
       id="a"
       x1="32.079"
       x2="31.961"
       y1="62.104"
       y2="3.0577"
       gradientTransform="matrix(1.2321,0,0,1.2321,-84.897155,-8.4535)"
       gradientUnits="userSpaceOnUse">
      <stop
         stop-color="#957d75"
         offset="0"
         id="stop17" />
      <stop
         stop-color="#d1b0a4"
         offset="1"
         id="stop19" />
    </linearGradient>
    <filter
       id="j"
       x="-.027881"
       y="-.05079"
       width="1.0558"
       height="1.1016"
       color-interpolation-filters="sRGB">
      <feGaussianBlur
         stdDeviation="0.4249491"
         id="feGaussianBlur22" />
    </filter>
    <filter
       id="i"
       x="-.027577"
       y="-.05183"
       width="1.0552"
       height="1.1037"
       color-interpolation-filters="sRGB">
      <feGaussianBlur
         stdDeviation="0.42031726"
         id="feGaussianBlur25" />
    </filter>
    <filter
       id="h"
       x="-.027243"
       y="-.053053"
       width="1.0545"
       height="1.1061"
       color-interpolation-filters="sRGB">
      <feGaussianBlur
         stdDeviation="0.41999768"
         id="feGaussianBlur28" />
    </filter>
    <filter
       id="k"
       x="-.084"
       y="-.084"
       width="1.168"
       height="1.168"
       color-interpolation-filters="sRGB">
      <feGaussianBlur
         stdDeviation="1.4069033"
         id="feGaussianBlur31" />
    </filter>
    <linearGradient
       id="linearGradient862-3"
       x1="7.9373"
       x2="7.9373"
       y1="15.081"
       y2="1.852"
       gradientTransform="matrix(3.7796,0,0,3.7796,-76.448957,0)"
       gradientUnits="userSpaceOnUse">
      <stop
         stop-color="#846458"
         offset="0"
         id="stop34" />
      <stop
         stop-color="#ad8578"
         offset="1"
         id="stop36" />
    </linearGradient>
    <style
       type="text/css"
       id="style891" />
    <linearGradient
       id="linearGradient1005"
       x1=".73911"
       x2="16.388"
       y1="16.296"
       y2=".64687"
       gradientTransform="matrix(0.91665,0,0,0.91665,0.6739,0.71189)"
       gradientUnits="userSpaceOnUse">
      <stop
         stop-color="#00a0ff"
         offset="0"
         id="stop913" />
      <stop
         stop-color="#37beff"
         offset="1"
         id="stop915" />
    </linearGradient>
    <linearGradient
       id="w"
       x1="123.64"
       x2="146.53"
       y1="131.03"
       y2="174.71"
       gradientTransform="matrix(4.2812,0,0,3.5908,41,42)"
       gradientUnits="userSpaceOnUse">
      <stop
         stop-color="#fafafa"
         offset="0"
         id="stop918" />
      <stop
         stop-color="#fff"
         offset="1"
         id="stop920" />
    </linearGradient>
    <filter
       id="filter1152"
       x="-.055255"
       y="-.065641"
       width="1.1105"
       height="1.1313"
       color-interpolation-filters="sRGB">
      <feGaussianBlur
         stdDeviation="2.9934784"
         id="feGaussianBlur923" />
    </filter>
    <linearGradient
       inkscape:collect="always"
       xlink:href="#linearGradient996"
       id="linearGradient998"
       x1="4.4999987"
       y1="32"
       x2="59.500001"
       y2="32"
       gradientUnits="userSpaceOnUse" />
  </defs>
  <sodipodi:namedview
     pagecolor="#ffffff"
     bordercolor="#666666"
     borderopacity="1"
     objecttolerance="10"
     gridtolerance="10"
     guidetolerance="10"
     inkscape:pageopacity="0"
     inkscape:pageshadow="2"
     inkscape:window-width="1920"
     inkscape:window-height="946"
     id="namedview12"
     showgrid="false"
     inkscape:zoom="6.0859375"
     inkscape:cx="38.022936"
     inkscape:cy="33.377298"
     inkscape:window-x="0"
     inkscape:window-y="38"
     inkscape:window-maximized="1"
     inkscape:current-layer="svg10" />
  <g
     id="g925"
     transform="scale(0.26457812)">
    <path
       d="m 4.4999987,10.549999 m 2.7500001,0 H 56.750001 q 2.75,0 2.75,2.75 v 37.400002 q 0,2.75 -2.75,2.75 H 7.2499988 q -2.7500001,0 -2.7500001,-2.75 V 13.299999 q 0,-2.75 2.7500001,-2.75 z"
       p-id="3966"
       id="path895"
       style="fill:url(#linearGradient998);fill-opacity:1;stroke-width:0.0537109" />
    <path
       id="rect1090"
       style="fill:#fdfdfd;fill-opacity:1;stroke-width:3;stroke-linecap:round;stroke-opacity:0.996078;paint-order:stroke fill markers"
       d="m 43.550781,23.75 a 8.2500004,8.2500004 0 0 0 -8.25,8.25 8.2500004,8.2500004 0 0 0 8.25,8.25 H 59.5 v -16.5 z" />
    <path
       d="M 43.550001,32 M 39.7,32 A 3.8500005,3.8500005 0 1 0 47.400001,32 3.8500005,3.8500005 0 1 0 39.7,32 Z"
       p-id="3968"
       id="path899"
       style="fill:#13abff;fill-opacity:1;stroke-width:0.0537109" />
    <path
       id="rect1086"
       style="fill:#fdfdfd;fill-opacity:1;stroke-width:3;stroke-linecap:round;stroke-opacity:0.996078;paint-order:stroke fill markers"
       d="m 17.369141,33.601562 -2.798829,0.238282 -0.105468,11.240234 2.769531,-0.382812 0.04492,-4.792969 3.671875,5.351562 L 23.875,44.378906 20.113281,39.230469 24,34.443359 21.03125,33.751953 17.292969,38.541016 Z m -6.363282,2.681641 -0.002,0.002 c -0.03167,0.0022 -0.06573,0.0094 -0.08984,0.0332 l -1.1093745,1.0625 c -0.04659,0.04483 -0.051611,0.115002 -0.019531,0.169922 l 1.2636715,2.080078 c -0.23164,0.37208 -0.420257,0.772936 -0.554687,1.197266 L 8.1288635,41.2852 c -0.06579,0.01287 -0.1146243,0.07304 -0.1152343,0.138672 L 8,42.939453 c -6.13e-4,0.06401 0.049731,0.118916 0.1132812,0.134766 l 2.2812498,0.5625 c 0.11769,0.49376 0.302748,0.966817 0.548828,1.398437 l -1.3457028,1.958985 c -0.0376,0.05484 -0.029709,0.129011 0.019531,0.175781 l 1.0898438,1.082031 c 0.04597,0.04538 0.115895,0.05099 0.171875,0.01953 l 2.091797,-1.210937 c 0.4056,0.2335 0.844644,0.422018 1.308594,0.548828 l 0.462891,2.277344 c 0.01226,0.0644 0.0695,0.112661 0.136718,0.113281 l 1.552735,0.01367 c 0.06538,5.97e-4 0.122321,-0.04126 0.138671,-0.103516 l 0.595704,-2.28125 c 0.48088,-0.1218 0.934868,-0.304515 1.355468,-0.541015 l 2.035157,1.330078 c 0.05619,0.03637 0.131467,0.02976 0.179687,-0.01758 l 1.103516,-1.0625 c 0.04679,-0.04485 0.06003,-0.113319 0.02734,-0.167969 l -0.736329,-1.207031 -0.24414,0.07227 c -0.03555,0.01042 -0.07486,-0.0053 -0.0957,-0.03516 -2e-5,2e-6 -0.465056,-0.681306 -1.072266,-1.566406 -0.74966,1.3992 -2.260834,2.345778 -3.990234,2.330078 -2.4574,-0.02233 -4.433057,-1.984813 -4.410157,-4.382813 0.01635,-1.764 1.113569,-3.269846 2.667969,-3.935547 l 0.0098,-1.11914 c -0.28264,0.09358 -0.556426,0.206687 -0.816406,0.341797 -4.7e-4,-3e-4 4.49e-4,-0.0059 0,-0.0059 L 11.095736,36.30269 c -0.02799,-0.019 -0.05797,-0.0219 -0.08984,-0.01953 z" />
  </g>
</svg>
