<?xml version="1.0" encoding="UTF-8"?>
<svg width="64" height="64" version="1.1" viewBox="0 0 64 64" xmlns="http://www.w3.org/2000/svg" xmlns:cc="http://creativecommons.org/ns#" xmlns:dc="http://purl.org/dc/elements/1.1/" xmlns:rdf="http://www.w3.org/1999/02/22-rdf-syntax-ns#" xmlns:xlink="http://www.w3.org/1999/xlink">
 <metadata>
  <rdf:RDF>
   <cc:Work rdf:about="">
    <dc:format>image/svg+xml</dc:format>
    <dc:type rdf:resource="http://purl.org/dc/dcmitype/StillImage"/>
    <dc:title/>
   </cc:Work>
  </rdf:RDF>
 </metadata>
 <defs>
  <linearGradient id="linearGradient856" x1="86.345" x2="97.988" y1="58.765" y2="56.894" gradientTransform="matrix(.35581 0 0 .35581 8.1503 10.145)" gradientUnits="userSpaceOnUse">
   <stop offset="0"/>
   <stop stop-opacity=".054902" offset=".8249"/>
   <stop stop-opacity=".027451" offset=".90864"/>
   <stop stop-opacity=".019608" offset=".92884"/>
   <stop stop-opacity=".011765" offset=".95191"/>
   <stop stop-opacity="0" offset="1"/>
  </linearGradient>
  <linearGradient id="b-3" x1="410.79" x2="410.79" y1="546.47" y2="501.28" gradientTransform="matrix(1.3182,0,0,1.3182,-506.82,-658.63)" gradientUnits="userSpaceOnUse">
   <stop stop-color="#cfdef0" offset="0"/>
   <stop stop-color="#f5faff" offset="1"/>
  </linearGradient>
  <linearGradient id="linearGradient1013" x1="410.79" x2="410.79" y1="546.47" y2="501.28" gradientTransform="matrix(1.3182,0,0,1.3182,-506.82,-658.63)" gradientUnits="userSpaceOnUse" xlink:href="#b-3"/>
  <linearGradient id="linearGradient4283" x1="365.4" x2="365.4" y1="-19.589" y2="-407.29" gradientUnits="userSpaceOnUse" xlink:href="#b-3"/>
 </defs>
 <linearGradient id="a" x1="509.48" x2="452.97" y1="103.96" y2="191.84" gradientTransform="matrix(5.2304 -.79467 .79467 5.2304 -2427.9 -584.9)" gradientUnits="userSpaceOnUse">
  <stop stop-color="#ff641e" offset="0"/>
  <stop stop-color="#f5461e" offset="1"/>
 </linearGradient>
 <filter id="b" x="-.38565" y="-.29393" width="1.7713" height="1.5879" color-interpolation-filters="sRGB">
  <feGaussianBlur stdDeviation="23.130703"/>
 </filter>
 <rect x="2.212" y="2.212" width="59.576" height="59.576" ry="29.788" fill="url(#linearGradient1013)" stroke-width="1.0044"/>
 <g transform="matrix(.089182 0 0 .089182 9.31 50.277)">
  <g>
   <rect transform="rotate(3.9056)" x="262.38" y="-442.82" width="195.15" height="411.66" ry="25.079" fill="#fa5a1e"/>
   <path d="m288.52-403.4 175.71 11.996-25.015 366.4-175.71-11.996z" fill="url(#linearGradient4283)"/>
   <path d="m425.72-78.704-131.6-10.258 74.685-108.84z" fill="#fa5a1e" stroke-width="10.007"/>
   <path d="m326.56-365.32 117.75 8.8062-8.8062 117.75-117.75-8.8062z" fill="#fa5a1e"/>
  </g>
  <path d="m23.864-401.11 295.6-44.912 69.84 459.67-295.6 44.912z" fill="url(#a)"/>
  <g transform="rotate(-7.9784 -3212.1 -224)" font-family="'TeX Gyre Heros Cn'" font-size="242px" font-stretch="condensed" font-weight="bold" letter-spacing="0" stroke-width="2.5208" word-spacing="0">
   <text x="101.36855" y="369.62732" fill="#ffffff"><tspan x="101.36855" y="369.62732" stroke-width="2.5208">D</tspan></text>
  </g>
 </g>
 <path d="m38.127 12.651 5.6492 37.184 4.1988 0.28701c1.2362 0.0844 2.2993-0.84305 2.3837-2.0793l2.196-32.165c0.0844-1.2362-0.84305-2.2993-2.0793-2.3837z" fill="url(#linearGradient856)"/>
</svg>
