<?xml version="1.0" encoding="UTF-8"?>
<!-- Created with Inkscape (http://www.inkscape.org/) -->
<svg width="64" height="64" version="1.1" viewBox="0 0 16.933 16.933" xmlns="http://www.w3.org/2000/svg" xmlns:cc="http://creativecommons.org/ns#" xmlns:dc="http://purl.org/dc/elements/1.1/" xmlns:rdf="http://www.w3.org/1999/02/22-rdf-syntax-ns#" xmlns:xlink="http://www.w3.org/1999/xlink">
 <defs>
  <linearGradient id="linearGradient857">
   <stop stop-color="#323232" offset="0"/>
   <stop offset="1"/>
  </linearGradient>
  <linearGradient id="linearGradient825" x1=".52917" x2="16.404" y1="282.45" y2="291.71" gradientUnits="userSpaceOnUse">
   <stop stop-color="#323232" offset="0"/>
   <stop stop-color="#191919" offset="1"/>
  </linearGradient>
  <linearGradient id="linearGradient829" x1=".52917" x2="16.404" y1="282.45" y2="291.71" gradientTransform="matrix(.96667 0 0 .94286 .28222 16.405)" gradientUnits="userSpaceOnUse">
   <stop stop-color="#32b4ff" offset="0"/>
   <stop stop-color="#2db4ff" offset=".2964"/>
   <stop stop-color="#5087e1" offset=".72739"/>
   <stop stop-color="#5a7dd2" offset="1"/>
  </linearGradient>
  <linearGradient id="linearGradient851" x1="8.2021" x2="8.2021" y1="293.56" y2="291.71" gradientUnits="userSpaceOnUse" xlink:href="#linearGradient857"/>
  <linearGradient id="linearGradient865" x1="8.2021" x2="8.2021" y1="293.56" y2="294.09" gradientUnits="userSpaceOnUse" xlink:href="#linearGradient857"/>
 </defs>
 <metadata>
  <rdf:RDF>
   <cc:Work rdf:about="">
    <dc:format>image/svg+xml</dc:format>
    <dc:type rdf:resource="http://purl.org/dc/dcmitype/StillImage"/>
    <dc:title/>
   </cc:Work>
  </rdf:RDF>
 </metadata>
 <g transform="translate(0 -280.07)">
  <path d="m2.3833 282.45h12.168c0.29316 0 0.48245 0.23975 0.52916 0.52916l1.3238 8.2021c0.04671 0.28941-0.23601 0.52916-0.52916 0.52916h-14.817c-0.29315 0-0.57591-0.23975-0.52916-0.52916l1.325-8.2021c0.046752-0.28941 0.23601-0.52916 0.52916-0.52916z" fill="url(#linearGradient825)"/>
  <path d="m2.3855 282.71h12.167c0.14657 0 0.24124 0.11987 0.26457 0.26458l1.3227 8.2021c0.02333 0.1447-0.118 0.26457-0.26457 0.26457h-14.817c-0.14657 0-0.28798-0.11988-0.26457-0.26457l1.3272-8.2021c0.023413-0.1447 0.118-0.26458 0.26457-0.26458z" fill="url(#linearGradient829)"/>
  <rect x="7.9375" y="291.71" width=".79375" height="1.8521" ry="0" fill="url(#linearGradient851)"/>
  <rect x=".52917" y="293.56" width="15.875" height=".52917" ry=".26458" fill="url(#linearGradient865)"/>
  <g transform="matrix(.073058 0 0 .073058 5.0356 283.14)" fill="#fff">
   <path d="m11.093 25.07c-0.86117 0.1479-1.6608 0.35413-2.2312 0.9245-0.57013 0.57038-0.92438 1.6899-0.92438 2.5641v22.091h34.714v-29.697l-6.3116 0.80129z"/>
   <path d="m45.807 20.52v30.128h40.183v-31.531c0-0.87417-0.37151-1.6608-0.96942-2.2313-0.59792-0.57037-1.4311-1.0379-2.3401-0.9245l-30.254 3.7564z" stroke-width="1.0241"/>
   <path d="m7.9381 53.81v22.091c0 0.87416 0.35425 2.0553 0.92439 2.6258 0.57013 0.57037 1.3645 0.81071 2.2313 0.9245l25.247 3.3144 6.3116 0.78888v-29.744z"/>
   <path d="m45.807 53.81v30.165l6.6192 0.82587 30.254 3.5575c0.90939 0.11331 1.7418-0.35413 2.34-0.9245 0.59791-0.57037 0.96942-1.3571 0.96942-2.2313v-31.393z" stroke-width="1.0241"/>
  </g>
 </g>
</svg>
