<?xml version="1.0" encoding="UTF-8" standalone="no"?>
<svg
   xmlns:dc="http://purl.org/dc/elements/1.1/"
   xmlns:cc="http://creativecommons.org/ns#"
   xmlns:rdf="http://www.w3.org/1999/02/22-rdf-syntax-ns#"
   xmlns:svg="http://www.w3.org/2000/svg"
   xmlns="http://www.w3.org/2000/svg"
   xmlns:xlink="http://www.w3.org/1999/xlink"
   xmlns:sodipodi="http://sodipodi.sourceforge.net/DTD/sodipodi-0.dtd"
   xmlns:inkscape="http://www.inkscape.org/namespaces/inkscape"
   inkscape:version="1.0 (4035a4fb49, 2020-05-01)"
   sodipodi:docname="rhythmbox.svg"
   id="svg636"
   viewBox="0 0 16.933 16.933"
   version="1.1"
   height="64"
   width="64">
  <sodipodi:namedview
     inkscape:current-layer="svg636"
     inkscape:window-maximized="1"
     inkscape:window-y="36"
     inkscape:window-x="0"
     inkscape:cy="9.7499056"
     inkscape:cx="61.553051"
     inkscape:zoom="4.2150193"
     showgrid="false"
     id="namedview638"
     inkscape:window-height="932"
     inkscape:window-width="1920"
     inkscape:pageshadow="2"
     inkscape:pageopacity="0"
     guidetolerance="10"
     gridtolerance="10"
     objecttolerance="10"
     borderopacity="1"
     bordercolor="#666666"
     pagecolor="#ffffff" />
  <metadata
     id="metadata2">
    <rdf:RDF>
      <cc:Work
         rdf:about="">
        <dc:format>image/svg+xml</dc:format>
        <dc:type
           rdf:resource="http://purl.org/dc/dcmitype/StillImage" />
        <dc:title></dc:title>
      </cc:Work>
    </rdf:RDF>
  </metadata>
  <defs
     id="defs176">
    <clipPath
       id="clipPath13429">
      <path
         id="path4"
         d="m481 318h22v22h-22z" />
    </clipPath>
    <clipPath
       id="clipPath13465">
      <path
         id="path7"
         d="m507 318h22v22h-22z" />
    </clipPath>
    <clipPath
       id="clipPath13501">
      <path
         id="path10"
         d="m530 318h22v22h-22z" />
    </clipPath>
    <clipPath
       id="clipPath13753">
      <path
         id="path13"
         d="m672 1064c0-1.105 4.925-2 11-2s11 0.895 11 2-4.925 2-11 2-11-0.895-11-2" />
    </clipPath>
    <clipPath
       id="clipPath13771">
      <path
         id="path16"
         d="m660 1057h51v65.001h-51z" />
    </clipPath>
    <clipPath
       id="clipPath14035">
      <path
         id="path19"
         d="m659 517h53v18h-53z" />
    </clipPath>
    <clipPath
       id="clipPath14127">
      <path
         id="path22"
         d="m659 500h53v18h-53z" />
    </clipPath>
    <clipPath
       id="clipPath14445">
      <path
         id="path25"
         d="m648 112h73v60h-73z" />
    </clipPath>
    <clipPath
       id="clipPath14609">
      <path
         id="path28"
         d="m826 1056h59v60h-59z" />
    </clipPath>
    <clipPath
       id="clipPath15305">
      <path
         id="path31"
         d="m805 276h100v100h-100z" />
    </clipPath>
    <clipPath
       id="clipPath15341">
      <path
         id="path34"
         d="m145 1063.8h74.152v45.21h-74.152z" />
    </clipPath>
    <clipPath
       id="clipPath15715">
      <path
         id="path37"
         d="m151 667h57v57h-57z" />
    </clipPath>
    <clipPath
       id="clipPath15807">
      <path
         id="path40"
         d="m154 697h51v51h-51z" />
    </clipPath>
    <clipPath
       id="clipPath16001">
      <path
         id="path43"
         d="m500.04 864.45h36.012v67.52h-36.012z" />
    </clipPath>
    <clipPath
       id="clipPath16093">
      <path
         id="path46"
         d="m836 870.54h47v55.539h-47z" />
    </clipPath>
    <clipPath
       id="clipPath16477">
      <path
         id="path49"
         d="m318.03 702.35h62.848v37.991h-62.848z" />
    </clipPath>
    <clipPath
       id="clipPath16579">
      <path
         id="path52"
         d="m485.03 133.35h62.847v37.991h-62.847z" />
    </clipPath>
    <clipPath
       id="clipPath16709">
      <path
         id="path55"
         d="m493.37 677.93h45.643v68.067h-45.643z" />
    </clipPath>
    <clipPath
       id="clipPath24218">
      <path
         id="path58"
         d="m144.34 1018.2h71.467v78h-71.467z" />
    </clipPath>
    <clipPath
       id="clipPath24382">
      <path
         id="path61"
         d="m293.21 1068.6 66.323-38.292 36.047 62.435-66.323 38.292z" />
    </clipPath>
    <clipPath
       id="clipPath24650">
      <path
         id="path64"
         d="m488.86 1054.5h10v10.706h-10z" />
    </clipPath>
    <clipPath
       id="clipPath24700">
      <path
         id="path67"
         d="m508 1066.8h10.001v10.705h-10.001z" />
    </clipPath>
    <clipPath
       id="clipPath24750">
      <path
         id="path70"
         d="m525 1045.8h10v10.706h-10z" />
    </clipPath>
    <clipPath
       id="clipPath24864">
      <path
         id="path73"
         d="m836 1043.7h25.5v31.5h-25.5z" />
    </clipPath>
    <clipPath
       id="clipPath24896">
      <path
         id="path76"
         d="m838 1062.2h24v24h-24z" />
    </clipPath>
    <clipPath
       id="clipPath25070">
      <path
         id="path79"
         d="m134 489.24h7v6h-7z" />
    </clipPath>
    <clipPath
       id="clipPath25100">
      <path
         id="path82"
         d="m216 489.24h7v6h-7z" />
    </clipPath>
    <clipPath
       id="clipPath25502">
      <path
         id="path85"
         d="m838 477.24h22v22h-22z" />
    </clipPath>
    <clipPath
       id="clipPath25686">
      <path
         id="path88"
         d="m704 1061.2h25v25h-25z" />
    </clipPath>
    <clipPath
       id="clipPath25788">
      <path
         id="path91"
         d="m663.04 1078.6-1.808-3.514-21.07-47.453c13.336-18.439 48.336-26.938 73.836-3.439 0.842 0 6.476 6.246 6 7l-18.386 25.895c-0.483 0.765-1.453 0.946-2.177 0.431l-15.505-11.011c-0.359-0.255-0.847-0.153-1.07 0.238l-18.272 31.869c-0.218 0.384-0.502 0.578-0.782 0.578-0.282 0-0.561-0.197-0.766-0.594" />
    </clipPath>
    <clipPath
       id="clipPath26420">
      <path
         id="path94"
         d="m127 820.24h100v100h-100z" />
    </clipPath>
    <clipPath
       id="clipPath26860">
      <path
         id="path97"
         d="m809 680.24c0-22.092 17.908-40 40-40s40 17.908 40 40c0 22.091-17.908 40-40 40s-40-17.909-40-40" />
    </clipPath>
    <clipPath
       id="clipPath27506">
      <path
         id="path100"
         d="m658 469.24h44v45h-44z" />
    </clipPath>
    <clipPath
       id="clipPath27772">
      <path
         id="path103"
         d="m651 271.24h58v58h-58z" />
    </clipPath>
    <clipPath
       id="clipPath27864">
      <path
         id="path106"
         d="m662 307.24h38v8h-38z" />
    </clipPath>
    <clipPath
       id="clipPath28028">
      <path
         id="path109"
         d="m858.98 137.24c0.013-0.101 0.021-0.203 0.021-0.307v-6.693h15.75c1.237 0 2.25-1.013 2.25-2.25v-11.25l-27-4.5-27 4.5v-2.25l27-4.5 27 4.5v-27c0-1.237-1.013-2.25-2.25-2.25h-49.5c-1.237 0-2.25 1.013-2.25 2.25v-4.25h54v54zm-35.979 0v-9.25c0 1.237 1.013 2.25 2.25 2.25h15.75v6.693c0 0.104 7e-3 0.207 0.02 0.307zm22.5-7h9v4.5h-9zm1.125-9c-0.62 0-1.125-0.506-1.125-1.125v-2.25c0-0.619 0.505-1.125 1.125-1.125h6.75c0.619 0 1.125 0.506 1.125 1.125v2.25c0 0.619-0.506 1.125-1.125 1.125z" />
    </clipPath>
    <clipPath
       id="clipPath28200">
      <path
         id="path112"
         d="m531.27 136.24c6.325-2.29 10.727-8.277 10.727-15.484 0-11.316-10.2-20.563-25.65-34.575l-4.35-3.941-4.35 3.941c-15.45 14.012-25.65 23.259-25.65 34.575v-39.516h60v55zm-26.983 0c2.995-1.052 5.686-2.883 7.71-5.25 2.024 2.367 4.715 4.198 7.71 5.25zm-22.29 0v-15.484c0 7.207 4.402 13.194 10.727 15.484z" />
    </clipPath>
    <clipPath
       id="clipPath28364">
      <path
         id="path115"
         d="m648 79.241h64v64h-64z" />
    </clipPath>
    <clipPath
       id="clipPath28984">
      <path
         id="path118"
         d="m500 691.74c0-3.037 2.463-5.5 5.5-5.5s5.5 2.463 5.5 5.5-2.463 5.5-5.5 5.5-5.5-2.463-5.5-5.5" />
    </clipPath>
    <clipPath
       id="clipPath29012">
      <path
         id="path121"
         d="m500 669.74c0-3.037 2.463-5.5 5.5-5.5s5.5 2.463 5.5 5.5c0 3.038-2.463 5.5-5.5 5.5s-5.5-2.462-5.5-5.5" />
    </clipPath>
    <clipPath
       id="clipPath29040">
      <path
         id="path124"
         d="m494 680.74c0-3.037 2.462-5.5 5.5-5.5s5.5 2.463 5.5 5.5c0 3.038-2.462 5.5-5.5 5.5s-5.5-2.462-5.5-5.5" />
    </clipPath>
    <clipPath
       id="clipPath29068">
      <path
         id="path127"
         d="m513 691.74c0-3.037 2.463-5.5 5.5-5.5s5.5 2.463 5.5 5.5-2.463 5.5-5.5 5.5-5.5-2.463-5.5-5.5" />
    </clipPath>
    <clipPath
       id="clipPath29096">
      <path
         id="path130"
         d="m513 669.74c0-3.037 2.463-5.5 5.5-5.5s5.5 2.463 5.5 5.5c0 3.038-2.463 5.5-5.5 5.5s-5.5-2.462-5.5-5.5" />
    </clipPath>
    <clipPath
       id="clipPath29124">
      <path
         id="path133"
         d="m507 680.74c0-3.037 2.463-5.5 5.5-5.5s5.5 2.463 5.5 5.5c0 3.038-2.463 5.5-5.5 5.5s-5.5-2.462-5.5-5.5" />
    </clipPath>
    <clipPath
       id="clipPath29152">
      <path
         id="path136"
         d="m520 680.74c0-3.037 2.463-5.5 5.5-5.5s5.5 2.463 5.5 5.5c0 3.038-2.463 5.5-5.5 5.5s-5.5-2.462-5.5-5.5" />
    </clipPath>
    <clipPath
       id="clipPath29252">
      <path
         id="path139"
         d="m321 322.24c-4.97 0-9-4.029-9-9 0-4.97 4.03-9 9-9h45c4.971 0 9 4.03 9 9 0 4.971-4.029 9-9 9z" />
    </clipPath>
    <clipPath
       id="clipPath29280">
      <path
         id="path142"
         d="m322 297.24c-4.971 0-9-4.029-9-9 0-4.97 4.029-9 9-9h45c4.971 0 9 4.03 9 9 0 4.971-4.029 9-9 9z" />
    </clipPath>
    <clipPath
       id="clipPath29400">
      <path
         id="path145"
         d="m155 83.24h44v53h-44z" />
    </clipPath>
    <linearGradient
       gradientUnits="userSpaceOnUse"
       gradientTransform="matrix(.41967 0 0 .41967 -173.34 -178.23)"
       y2="517.62"
       y1="545.62"
       x2="400.4"
       x1="400.4"
       id="i">
      <stop
         id="stop148"
         offset="0"
         stop-color="#d3d3d3" />
      <stop
         id="stop150"
         offset="1"
         stop-color="#fcf9f9" />
    </linearGradient>
    <linearGradient
       gradientUnits="userSpaceOnUse"
       gradientTransform="matrix(.43343 0 0 .43343 -193.09 -179.69)"
       y2="517.62"
       y1="545.62"
       x2="400.4"
       x1="400.4"
       id="f">
      <stop
         id="stop153"
         offset="0"
         stop-color="#8d3aff" />
      <stop
         id="stop155"
         offset="1"
         stop-color="#ff3680" />
    </linearGradient>
    <linearGradient
       gradientUnits="userSpaceOnUse"
       gradientTransform="matrix(.48338 0 0 .48338 -200.17 -248.05)"
       y2="524.17"
       y1="536.57"
       x2="433.31"
       x1="430.56"
       id="k">
      <stop
         id="stop158"
         offset="0"
         stop-color="#c4e7f9" />
      <stop
         id="stop160"
         offset="1"
         stop-color="#edfafd" />
    </linearGradient>
    <filter
       color-interpolation-filters="sRGB"
       height="1.0426"
       width="1.055"
       y="-.021303"
       x="-.027479"
       id="filter1877">
      <feGaussianBlur
         id="feGaussianBlur163"
         stdDeviation="0.072702461" />
    </filter>
    <linearGradient
       gradientUnits="userSpaceOnUse"
       gradientTransform="translate(-27.818 .64364)"
       y2="-11.929"
       y1=".7041"
       x2="-59.235"
       x1="-59.235"
       id="linearGradient1978">
      <stop
         id="stop166"
         offset="0"
         stop-color="#005ad7" />
      <stop
         id="stop168"
         offset="1"
         stop-color="#0aaff0" />
    </linearGradient>
    <linearGradient
       gradientUnits="userSpaceOnUse"
       gradientTransform="matrix(.83729 0 0 .83729 -37.435 -.42228)"
       y2="-11.929"
       y1=".7041"
       x2="-59.235"
       x1="-59.235"
       id="linearGradient1988">
      <stop
         id="stop171"
         offset="0"
         stop-color="#0273dc" />
      <stop
         id="stop173"
         offset="1"
         stop-color="#0ab9f0" />
    </linearGradient>
    <linearGradient
       id="linearGradient987"
       x1="-54.828"
       x2="-63.444"
       y1="-1.7294"
       y2="-11.074"
       gradientTransform="matrix(3.4523,0,0,3.4523,191.99,263.05)"
       gradientUnits="userSpaceOnUse">
      <stop
         stop-color="#232223"
         offset="0"
         id="stop1473" />
      <stop
         stop-color="#49484d"
         offset="1"
         id="stop1475" />
    </linearGradient>
    <linearGradient
       id="linearGradient1034"
       x1="-54.828"
       x2="-63.444"
       y1="-1.7294"
       y2="-11.074"
       gradientTransform="matrix(0.3727,0,0,0.3727,18.862,66.055)"
       gradientUnits="userSpaceOnUse">
      <stop
         stop-color="#d2d2d2"
         offset="0"
         id="stop1478" />
      <stop
         stop-color="#fff"
         offset="1"
         id="stop1480" />
    </linearGradient>
    <linearGradient
       id="linearGradient1044"
       x1="-54.828"
       x2="-63.444"
       y1="-1.7294"
       y2="-11.074"
       gradientTransform="matrix(0.14259,0,0,0.14259,5.2712,64.548)"
       gradientUnits="userSpaceOnUse">
      <stop
         stop-color="#232223"
         offset="0"
         id="stop1483" />
      <stop
         stop-color="#49484d"
         offset="1"
         id="stop1485" />
    </linearGradient>
    <linearGradient
       id="linearGradient967"
       x1="400.4"
       x2="400.4"
       y1="545.62"
       y2="517.62"
       gradientTransform="matrix(0.41967,0,0,0.41967,-173.34,-178.23)"
       gradientUnits="userSpaceOnUse"
       xlink:href="#i" />
    <linearGradient
       id="linearGradient969"
       x1="400.4"
       x2="400.4"
       y1="545.62"
       y2="517.62"
       gradientTransform="matrix(0.43343,0,0,0.43343,-193.09,-179.69)"
       gradientUnits="userSpaceOnUse"
       xlink:href="#f" />
    <linearGradient
       id="linearGradient4338"
       x1="-8.4328"
       x2="1.7737"
       y1="59.166"
       y2="68.565"
       gradientTransform="matrix(0.15144,1.4684e-4,-1.4608e-4,0.15224,-17.519,1.7135)"
       gradientUnits="userSpaceOnUse">
      <stop
         stop-color="#30c8f1"
         offset="0"
         id="stop1490" />
      <stop
         stop-color="#1283e2"
         offset="1"
         id="stop1492" />
    </linearGradient>
    <linearGradient
       y2="517.62"
       x2="400.4"
       y1="545.62"
       x1="400.4"
       gradientTransform="matrix(0.41967,0,0,0.41967,-173.34,-178.23)"
       gradientUnits="userSpaceOnUse"
       id="linearGradient1579"
       xlink:href="#i"
       inkscape:collect="always" />
    <linearGradient
       y2="517.62"
       x2="400.4"
       y1="545.62"
       x1="400.4"
       gradientTransform="matrix(0.43343,0,0,0.43343,-193.09,-179.69)"
       gradientUnits="userSpaceOnUse"
       id="linearGradient1581"
       xlink:href="#f"
       inkscape:collect="always" />
  </defs>
  <g
     id="g214"
     stroke-width=".26458"
     image-rendering="optimizeSpeed"
     fill="#5e4aa6"
     transform="matrix(.26458 0 0 .26458 2.8981 .45038)">
    <g
       id="g186"
       image-rendering="optimizeSpeed"
       transform="matrix(3.7796,0,0,3.7796,22.433,-101.83)">
      <circle
         id="circle178"
         r="0"
         cy="-328.38"
         cx="-330.35" />
      <circle
         id="circle180"
         r="0"
         cy="-326.25"
         cx="-312.11" />
      <circle
         id="circle182"
         r="0"
         cy="-333.07"
         cx="-306.02" />
      <circle
         id="circle184"
         r="0"
         cy="-326.01"
         cx="-308.84" />
    </g>
    <g
       id="g196"
       image-rendering="optimizeSpeed"
       transform="matrix(3.7796,0,0,3.7796,22.433,-101.83)">
      <circle
         id="circle188"
         r="0"
         cy="-328.38"
         cx="-330.35" />
      <circle
         id="circle190"
         r="0"
         cy="-326.25"
         cx="-312.11" />
      <circle
         id="circle192"
         r="0"
         cy="-333.07"
         cx="-306.02" />
      <circle
         id="circle194"
         r="0"
         cy="-326.01"
         cx="-308.84" />
    </g>
    <g
       id="g212"
       transform="matrix(3.7796,0,0,3.7796,-87.61,14.55)">
      <g
         id="g206"
         transform="translate(-21.833 .89722)">
        <circle
           id="circle198"
           r="0"
           cy="-328.38"
           cx="-330.35" />
        <circle
           id="circle200"
           r="0"
           cy="-326.25"
           cx="-312.11" />
        <circle
           id="circle202"
           r="0"
           cy="-333.07"
           cx="-306.02" />
        <circle
           id="circle204"
           r="0"
           cy="-326.01"
           cx="-308.84" />
      </g>
      <circle
         id="circle208"
         r="0"
         cy="-330.42"
         cx="-284.23" />
      <circle
         id="circle210"
         fill-rule="evenodd"
         r="0"
         cy="4.3998"
         cx="6.6786" />
    </g>
  </g>
  <g
     id="g222"
     image-rendering="optimizeSpeed"
     transform="matrix(.35276 0 0 -.35276 178.46 247.2)">
    <g
       id="g220"
       clip-path="url(#clipPath13429)">
      <g
         id="g218"
         transform="translate(448,326)">
        <path
           id="path216"
           fill-rule="evenodd"
           fill="#fff"
           d="m0 0c3.866 0 7 3.134 7 7s-3.134 7-7 7-7-3.134-7-7 3.134-7 7-7" />
      </g>
    </g>
  </g>
  <g
     id="g230"
     image-rendering="optimizeSpeed"
     transform="matrix(.35276 0 0 -.35276 178.46 247.2)">
    <g
       id="g228"
       clip-path="url(#clipPath13465)">
      <g
         id="g226"
         transform="translate(474,326)">
        <path
           id="path224"
           fill-rule="evenodd"
           fill="#fff"
           d="m0 0c3.866 0 7 3.134 7 7s-3.134 7-7 7-7-3.134-7-7 3.134-7 7-7" />
      </g>
    </g>
  </g>
  <g
     id="g238"
     image-rendering="optimizeSpeed"
     transform="matrix(.35276 0 0 -.35276 178.46 247.2)">
    <g
       id="g236"
       clip-path="url(#clipPath13501)">
      <g
         id="g234"
         transform="translate(497,326)">
        <path
           id="path232"
           fill-rule="evenodd"
           fill="#fff"
           d="m0 0c3.866 0 7 3.134 7 7s-3.134 7-7 7-7-3.134-7-7 3.134-7 7-7" />
      </g>
    </g>
  </g>
  <g
     id="g244"
     image-rendering="optimizeSpeed"
     transform="matrix(.35276 0 0 -.35276 178.46 247.2)">
    <g
       id="g242"
       clip-path="url(#clipPath13753)">
      <path
         id="path240"
         fill-rule="evenodd"
         fill="#fff"
         d="m593 1073h36v-18h-36zm18-11c6.075 0 11 0.895 11 2s-4.925 2-11 2-11-0.895-11-2 4.925-2 11-2" />
    </g>
  </g>
  <g
     id="g252"
     image-rendering="optimizeSpeed"
     transform="matrix(.35276 0 0 -.35276 178.46 247.2)">
    <g
       id="g250"
       clip-path="url(#clipPath13771)">
      <g
         id="g248"
         transform="translate(583.42,1063)">
        <path
           id="path246"
           fill="#fff"
           d="m0 0s21.582 23.182 21.582 35.147c0 12.048-9.684 21.853-21.582 21.853-11.816 0-21.418-9.805-21.418-21.853 0-8.06 9.766-21.188 16.002-28.832zm0 42.542c3.938 0 7.14-3.323 7.14-7.395 0-3.822-3.202-7.146-7.14-7.146-3.856 0-7.222 3.324-7.222 7.146 0 4.072 3.366 7.395 7.222 7.395" />
      </g>
    </g>
  </g>
  <g
     id="g260"
     image-rendering="optimizeSpeed"
     transform="matrix(.35276 0 0 -.35276 178.46 247.2)">
    <g
       id="g258"
       clip-path="url(#clipPath14035)">
      <g
         id="g256"
         transform="translate(562,535)">
        <path
           id="path254"
           fill-rule="evenodd"
           fill="#fff"
           d="m0 0h35c2.762 0 5-2.238 5-5s-2.238-5-5-5h-35c-2.762 0-5 2.238-5 5s2.238 5 5 5" />
      </g>
    </g>
  </g>
  <g
     id="g268"
     image-rendering="optimizeSpeed"
     transform="matrix(.35276 0 0 -.35276 178.46 247.2)">
    <g
       id="g266"
       clip-path="url(#clipPath14127)">
      <g
         id="g264"
         transform="translate(562,518)">
        <path
           id="path262"
           fill-rule="evenodd"
           fill="#fff"
           d="m0 0h35c2.762 0 5-2.238 5-5s-2.238-5-5-5h-35c-2.762 0-5 2.238-5 5s2.238 5 5 5" />
      </g>
    </g>
  </g>
  <g
     id="g276"
     image-rendering="optimizeSpeed"
     transform="matrix(.35276 0 0 -.35276 178.46 247.2)">
    <g
       id="g274"
       clip-path="url(#clipPath14445)">
      <g
         id="g272"
         transform="translate(536.43,133.83)">
        <path
           id="path270"
           fill="#fff"
           d="m0 0c-10.01-12.916-22.288-9.047-24.23-8.072-4.847 1.293-6.464 10.015-0.326 12.918 10.018 3.226 19.06-0.325 25.524-3.553-0.644-0.967-0.968-1.293-0.968-1.293m10.667 3.553c4.521 8.072 6.139 15.826 6.139 15.826h-15.189v5.812h17.767v2.26h-17.767v8.723h-8.074v-8.723h-16.156v-2.584h16.156v-5.812h-13.57v-2.585h27.783c0-0.325 0-0.325-0.324-0.968 0-2.909-1.936-6.779-3.554-10.014-20.677 8.079-26.491 3.235-28.108 2.584-13.564-9.689-0.968-21.963 1.293-21.638 14.538-3.227 23.905 2.91 30.369 10.657 0.324-0.325 0.967-0.325 1.292-0.325 4.528-2.578 25.848-12.592 25.848-12.592v12.274c-3.878 0.325-15.506 4.195-23.905 7.105" />
      </g>
    </g>
  </g>
  <g
     id="g284"
     image-rendering="optimizeSpeed"
     transform="matrix(.35276 0 0 -.35276 178.46 247.2)">
    <g
       id="g282"
       clip-path="url(#clipPath14609)">
      <g
         id="g280"
         transform="translate(720.03,1091.5)">
        <path
           id="path278"
           fill="#fff"
           d="m0 0c-0.149 0.354-0.224 0.837-0.224 1.451 0 0.372 0.103 0.828 0.306 1.368 0.205 0.539 0.428 0.958 0.671 1.256-0.019 0.409 0.051 0.902 0.209 1.478 0.159 0.576 0.368 0.976 0.629 1.2 0 2.586 0.86 5.269 2.581 8.05 1.722 2.782 3.744 4.73 6.07 5.846 2.585 1.228 5.6 1.842 9.041 1.842 2.475 0 4.949-0.511 7.423-1.534 0.912-0.391 1.749-0.837 2.512-1.34 0.762-0.502 1.423-1.022 1.981-1.562 0.559-0.54 1.07-1.172 1.534-1.897 0.465-0.725 0.856-1.413 1.172-2.064 0.318-0.651 0.619-1.437 0.908-2.358 0.287-0.921 0.524-1.753 0.71-2.497s0.391-1.655 0.614-2.734l0.028-0.14c1.023-1.543 1.535-2.939 1.535-4.186 0-0.26-0.084-0.632-0.252-1.115-0.168-0.484-0.252-0.837-0.252-1.061 0-0.019 0.015-0.052 0.043-0.099s0.061-0.093 0.098-0.139c0.038-0.046 0.057-0.077 0.057-0.098 1.432-2.121 2.553-4.116 3.363-5.985 0.809-1.869 1.214-3.808 1.214-5.817 0-0.8-0.182-1.73-0.544-2.791-0.363-1.06-0.879-1.59-1.549-1.59-0.167 0-0.349 0.069-0.544 0.209-0.194 0.14-0.371 0.303-0.529 0.489-0.159 0.186-0.335 0.428-0.53 0.725s-0.344 0.543-0.447 0.739-0.228 0.438-0.377 0.725c-0.147 0.288-0.231 0.451-0.251 0.489-0.019 0.019-0.047 0.028-0.085 0.028l-0.138-0.111c-1.099-2.864-2.327-4.938-3.684-6.222 0.372-0.372 0.944-0.73 1.716-1.075s1.414-0.73 1.925-1.158c0.511-0.426 0.841-1.031 0.991-1.814-0.037-0.074-0.074-0.223-0.112-0.447-0.036-0.224-0.101-0.391-0.195-0.501-1.19-1.804-4-2.706-8.427-2.706-0.986 0-2.013 0.084-3.084 0.251-1.069 0.168-1.981 0.354-2.734 0.558s-1.726 0.483-2.916 0.837c-0.279 0.093-0.493 0.158-0.643 0.196-0.259 0.075-0.687 0.115-1.282 0.125-0.595 9e-3 -0.967 0.023-1.116 0.042-0.763-0.838-1.949-1.442-3.559-1.814-1.609-0.372-3.176-0.558-4.702-0.558-0.65 0-1.293 0.014-1.925 0.042s-1.498 0.113-2.595 0.252c-1.098 0.139-2.038 0.33-2.82 0.572-0.781 0.241-1.473 0.613-2.078 1.115-0.604 0.502-0.906 1.098-0.906 1.786 0 0.744 0.093 1.298 0.279 1.661 0.187 0.364 0.569 0.815 1.144 1.353 0.205 0.038 0.581 0.159 1.131 0.363 0.549 0.204 1.009 0.316 1.381 0.334 0.074 0 0.204 0.019 0.39 0.057 0.038 0.037 0.057 0.074 0.057 0.111l-0.057 0.084c-0.892 0.204-1.897 1.185-3.014 2.944-1.117 1.758-1.796 3.214-2.038 4.367l-0.139 0.084c-0.074 0-0.186-0.185-0.334-0.557-0.335-0.763-0.842-1.455-1.521-2.079-0.679-0.622-1.4-0.971-2.163-1.046h-0.028c-0.073 0-0.129 0.041-0.167 0.125-0.037 0.083-0.084 0.134-0.139 0.153-0.428 1.004-0.642 1.934-0.642 2.79 0 5.116 2.343 9.45 7.032 13.002z" />
      </g>
    </g>
  </g>
  <g
     id="g292"
     image-rendering="optimizeSpeed"
     transform="matrix(.35276 0 0 -.35276 178.46 247.2)">
    <g
       id="g290"
       clip-path="url(#clipPath15305)">
      <g
         id="g288"
         transform="translate(655,300)">
        <path
           id="path286"
           stroke-width="8"
           stroke-miterlimit="10"
           stroke="#fff"
           fill="none"
           d="m0 0c16.568 0 30 13.432 30 30s-13.432 30-30 30-30-13.432-30-30 13.432-30 30-30z" />
      </g>
    </g>
  </g>
  <g
     id="g300"
     image-rendering="optimizeSpeed"
     transform="matrix(.35276 0 0 -.35276 178.46 247.2)">
    <g
       id="g298"
       clip-path="url(#clipPath15341)">
      <g
         id="g296"
         transform="translate(66.849,1083.1)">
        <path
           id="path294"
           fill="#fff"
           d="m0 0c0 5.302-3.661 9.749-8.591 10.948-0.209 8.314-7.006 14.991-15.366 14.991-4.897 0-9.254-2.293-12.07-5.861-1.579 2.041-4.05 3.358-6.828 3.358-4.769 0-8.633-3.868-8.633-8.639 0-0.416 0.031-0.825 0.089-1.224-0.726 0.13-1.47 0.203-2.232 0.203-6.913 0-12.515-5.607-12.515-12.524 0-6.916 5.602-12.523 12.515-12.523h42.394c6.21 0.013 11.241 5.053 11.241 11.269z" />
      </g>
    </g>
  </g>
  <g
     id="g308"
     image-rendering="optimizeSpeed"
     transform="matrix(.35276 0 0 -.35276 178.46 247.2)">
    <g
       id="g306"
       clip-path="url(#clipPath15715)">
      <g
         id="g304"
         transform="translate(65.5,681)">
        <path
           id="path302"
           stroke-width="4"
           stroke-miterlimit="10"
           stroke="#fff"
           fill="none"
           d="m0 0c9.113 0 16.5 7.387 16.5 16.5s-7.387 16.5-16.5 16.5-16.5-7.387-16.5-16.5 7.387-16.5 16.5-16.5z" />
      </g>
    </g>
  </g>
  <g
     id="g316"
     image-rendering="optimizeSpeed"
     transform="matrix(.35276 0 0 -.35276 178.46 247.2)">
    <g
       id="g314"
       clip-path="url(#clipPath15807)">
      <g
         id="g312"
         transform="translate(77.5,711)">
        <path
           id="path310"
           stroke-width="4"
           stroke-miterlimit="10"
           stroke="#fff"
           fill="none"
           d="m0 0c7.456 0 13.5 6.044 13.5 13.5s-6.044 13.5-13.5 13.5-13.5-6.044-13.5-13.5 6.044-13.5 13.5-13.5z" />
      </g>
    </g>
  </g>
  <g
     id="g324"
     image-rendering="optimizeSpeed"
     transform="matrix(.35276 0 0 -.35276 178.46 247.2)">
    <g
       id="g322"
       clip-path="url(#clipPath16001)">
      <g
         id="g320"
         transform="translate(455.91,931.53)">
        <path
           id="path318"
           fill="#fff"
           d="m0 0c-0.742-1.039-4.75-2.821-8.165-3.563-4.305-0.891-6.531-1.633-8.758-2.82-2.969-1.782-4.601-4.009-4.305-6.087 0.149-0.445 3.711-5.64 7.868-11.578 4.304-5.938 7.868-10.985 8.016-11.134 0.149-0.297-0.445-0.297-2.524-0.148-6.531 0.445-12.469-2.969-15.142-8.314-0.742-1.632-0.89-2.523-0.89-4.453 0-4.453 2.376-8.016 6.829-10.094 1.781-0.742 2.375-0.891 6.086-0.891 4.007 0 4.156 0 6.829 1.336 7.125 3.414 10.093 10.095 7.125 16.181-0.594 1.336-4.305 7.719-8.313 14.251l-7.274 12.024h1.187c4.75 0.297 8.017 1.781 10.244 4.305 1.929 2.227 2.523 4.453 2.374 8.016-0.148 3.266-0.445 4.008-1.187 2.969" />
      </g>
    </g>
  </g>
  <g
     id="g332"
     image-rendering="optimizeSpeed"
     transform="matrix(.35276 0 0 -.35276 178.46 247.2)">
    <g
       id="g330"
       clip-path="url(#clipPath16093)">
      <g
         id="g328"
         transform="translate(784,902.31)">
        <path
           id="path326"
           fill="#fff"
           d="m0 0c0-1.565-0.904-2.931-2.251-3.674l-27.781-18.472c-0.012-8e-3 -0.026-0.014-0.037-0.02l-0.017-0.011c-0.684-0.376-1.48-0.592-2.331-0.592-2.53 0-4.583 1.913-4.583 4.269v37c0 2.356 2.053 4.27 4.583 4.27 0.851 0 1.647-0.217 2.331-0.596l0.017-8e-3c0.011-9e-3 0.022-0.014 0.037-0.02l27.781-18.471c1.347-0.743 2.251-2.11 2.251-3.675" />
      </g>
    </g>
  </g>
  <g
     id="g340"
     image-rendering="optimizeSpeed"
     transform="matrix(.35276 0 0 -.35276 178.46 247.2)">
    <g
       id="g338"
       clip-path="url(#clipPath16477)">
      <g
         id="g336"
         transform="translate(223.75,708.35)">
        <path
           id="path334"
           fill-rule="evenodd"
           fill="#fff"
           d="m0 0c-15.123 0-27.418 12.329-27.418 27.486 0 1.382 1.111 2.505 2.487 2.505 1.379 0 2.499-1.123 2.499-2.505 0-12.4 10.06-22.487 22.432-22.487 12.375 0 22.443 10.087 22.443 22.487 0 1.382 1.112 2.505 2.488 2.505 1.378 0 2.499-1.123 2.499-2.505 0-15.157-12.304-27.486-27.43-27.486" />
      </g>
    </g>
  </g>
  <g
     id="g348"
     image-rendering="optimizeSpeed"
     transform="matrix(.35276 0 0 -.35276 178.46 247.2)">
    <g
       id="g346"
       clip-path="url(#clipPath16579)">
      <g
         id="g344"
         transform="translate(390.75,139.35)">
        <path
           id="path342"
           fill-rule="evenodd"
           fill="#fff"
           d="m0 0c-15.123 0-27.418 12.329-27.418 27.485 0 1.383 1.111 2.506 2.487 2.506 1.379 0 2.499-1.123 2.499-2.506 0-12.398 10.06-22.486 22.432-22.486 12.375 0 22.443 10.088 22.443 22.486 0 1.383 1.112 2.506 2.488 2.506 1.378 0 2.499-1.123 2.499-2.506 0-15.156-12.304-27.485-27.43-27.485" />
      </g>
    </g>
  </g>
  <g
     id="g356"
     image-rendering="optimizeSpeed"
     transform="matrix(.35276 0 0 -.35276 178.46 247.2)">
    <g
       id="g354"
       clip-path="url(#clipPath16709)">
      <g
         id="g352"
         transform="translate(423.93,686.39)">
        <path
           id="path350"
           fill="#fff"
           d="m0 0c0.245-0.286 0.605-0.456 0.986-0.456 0.382 0 0.743 0.17 0.988 0.456l17.516 20.497c0.333 0.388 0.408 0.933 0.191 1.388-0.211 0.463-0.674 0.756-1.184 0.756h-9.93c-2.118 4.172-3.109 8.382-2.973 12.63 0.135 4.248 1.954 12.361 5.455 24.34-10.956-6.59-17.656-18.44-17.656-31.225v-5.745h-9.93c-0.51 0-0.966-0.293-1.184-0.756-0.211-0.462-0.135-1 0.191-1.388z" />
      </g>
    </g>
  </g>
  <g
     id="g364"
     image-rendering="optimizeSpeed"
     transform="matrix(.35276 0 0 -.35276 143.29 288.39)">
    <g
       id="g362"
       clip-path="url(#clipPath24218)">
      <g
         id="g360"
         transform="translate(9.1685,1040.9)">
        <path
           id="path358"
           fill-rule="evenodd"
           fill="#fff"
           d="m0 0 25.314 21.067-26.077 18.651c5.846 7.671 15.079 12.622 25.468 12.622 17.673 0 32-14.327 32-32s-14.327-32-32-32c-9.948 0-18.836 4.539-24.705 11.66m27.349 31.812c2.835 0 5.132 2.297 5.132 5.132 0 2.834-2.297 5.132-5.132 5.132-2.834 0-5.132-2.298-5.132-5.132 0-2.835 2.298-5.132 5.132-5.132" />
      </g>
    </g>
  </g>
  <g
     id="g372"
     image-rendering="optimizeSpeed"
     transform="matrix(.35276 0 0 -.35276 143.29 288.39)">
    <g
       id="g370"
       clip-path="url(#clipPath24382)">
      <g
         id="g368"
         transform="translate(194.25,1130.3)">
        <path
           id="path366"
           fill-rule="evenodd"
           fill="#fff"
           d="m0 0c20.173-11.579 43.841 2 51.309 14.862 7.467 12.861 5.032 31.138-10.468 37.638s-45.487 6.611-54.5-9-6.515-31.922 13.659-43.5" />
      </g>
    </g>
  </g>
  <g
     id="g380"
     image-rendering="optimizeSpeed"
     transform="matrix(.35276 0 0 -.35276 143.29 288.39)">
    <g
       id="g378"
       clip-path="url(#clipPath24650)">
      <g
         id="g376"
         transform="translate(473.86,1057.5)">
        <path
           id="path374"
           fill-rule="evenodd"
           fill="#fff"
           d="m0 0c1.657 0 3 1.501 3 3.353s-1.343 3.353-3 3.353c-1.656 0-3-1.501-3-3.353s1.344-3.353 3-3.353" />
      </g>
    </g>
  </g>
  <g
     id="g388"
     image-rendering="optimizeSpeed"
     transform="matrix(.35276 0 0 -.35276 143.29 288.39)">
    <g
       id="g386"
       clip-path="url(#clipPath24700)">
      <g
         id="g384"
         transform="translate(493,1069.8)">
        <path
           id="path382"
           fill-rule="evenodd"
           fill="#fff"
           d="m0 0c1.657 0 3 1.501 3 3.353s-1.343 3.353-3 3.353-3-1.501-3-3.353 1.343-3.353 3-3.353" />
      </g>
    </g>
  </g>
  <g
     id="g396"
     image-rendering="optimizeSpeed"
     transform="matrix(.35276 0 0 -.35276 143.29 288.39)">
    <g
       id="g394"
       clip-path="url(#clipPath24750)">
      <g
         id="g392"
         transform="translate(510,1048.8)">
        <path
           id="path390"
           fill-rule="evenodd"
           fill="#fff"
           d="m0 0c1.657 0 3 1.501 3 3.353s-1.343 3.353-3 3.353-3-1.501-3-3.353 1.343-3.353 3-3.353" />
      </g>
    </g>
  </g>
  <g
     id="g404"
     image-rendering="optimizeSpeed"
     transform="matrix(.35276 0 0 -.35276 143.29 288.39)">
    <g
       id="g402"
       clip-path="url(#clipPath24864)">
      <g
         id="g400"
         transform="translate(806.5,1072.2)">
        <path
           id="path398"
           stroke-miterlimit="10"
           stroke-linecap="round"
           stroke="#fff"
           fill="none"
           d="m0 0c-3.667-14-9.5-21.833-17.5-23.5" />
      </g>
    </g>
  </g>
  <g
     id="g412"
     image-rendering="optimizeSpeed"
     transform="matrix(.35276 0 0 -.35276 143.29 288.39)">
    <g
       id="g410"
       clip-path="url(#clipPath24896)">
      <g
         id="g408"
         transform="translate(802,1066.2)">
        <path
           id="path406"
           fill-rule="evenodd"
           fill="#fff"
           d="m0 0c-4.971 0-9 4.029-9 9s4.029 9 9 9 9-4.029 9-9-4.029-9-9-9m0 6c1.657 0 3 1.343 3 3s-1.343 3-3 3-3-1.343-3-3 1.343-3 3-3" />
      </g>
    </g>
  </g>
  <g
     id="g420"
     image-rendering="optimizeSpeed"
     transform="matrix(.35276 0 0 -.35276 143.29 288.39)">
    <g
       id="g418"
       clip-path="url(#clipPath25070)">
      <g
         id="g416"
         transform="translate(122,495.24)">
        <path
           id="path414"
           fill-rule="evenodd"
           fill="#fff"
           d="m0 0h3c0.553 0 1-0.447 1-1v-2c0-0.553-0.447-1-1-1h-3c-0.553 0-1 0.447-1 1v2c0 0.553 0.447 1 1 1" />
      </g>
    </g>
  </g>
  <g
     id="g428"
     image-rendering="optimizeSpeed"
     transform="matrix(.35276 0 0 -.35276 143.29 288.39)">
    <g
       id="g426"
       clip-path="url(#clipPath25100)">
      <g
         id="g424"
         transform="translate(204,495.24)">
        <path
           id="path422"
           fill-rule="evenodd"
           fill="#fff"
           d="m0 0h3c0.553 0 1-0.447 1-1v-2c0-0.553-0.447-1-1-1h-3c-0.553 0-1 0.447-1 1v2c0 0.553 0.447 1 1 1" />
      </g>
    </g>
  </g>
  <g
     id="g436"
     image-rendering="optimizeSpeed"
     transform="matrix(.35276 0 0 -.35276 143.29 288.39)">
    <g
       id="g434"
       clip-path="url(#clipPath25502)">
      <g
         id="g432"
         transform="translate(805,482.24)">
        <path
           id="path430"
           fill-rule="evenodd"
           fill="#fff"
           d="m0 0c4.418 0 8 3.582 8 8s-3.582 8-8 8-8-3.582-8-8 3.582-8 8-8" />
      </g>
    </g>
  </g>
  <g
     id="g444"
     image-rendering="optimizeSpeed"
     transform="matrix(.35276 0 0 -.35276 143.29 288.39)">
    <g
       id="g442"
       clip-path="url(#clipPath25686)">
      <g
         id="g440"
         transform="translate(658,1075.7)">
        <path
           id="path438"
           fill="#fff"
           d="m0 0c0-4.694 3.806-8.5 8.5-8.5s8.5 3.806 8.5 8.5-3.806 8.5-8.5 8.5-8.5-3.806-8.5-8.5" />
      </g>
    </g>
  </g>
  <g
     id="g450"
     image-rendering="optimizeSpeed"
     transform="matrix(.35276 0 0 -.35276 143.29 288.39)">
    <g
       id="g448"
       clip-path="url(#clipPath25788)">
      <path
         id="path446"
         fill-rule="evenodd"
         fill="#fff"
         d="m465.44 1082.2h85.864v-75.319h-85.864zm64.45-25.106c-0.483 0.765-1.453 0.947-2.178 0.431l-15.504-11.01c-0.359-0.255-0.847-0.153-1.071 0.238l-18.271 31.869c-0.438 0.771-1.139 0.776-1.549-0.016l-1.807-3.514-21.07-47.452c13.336-18.44 48.336-26.94 73.836-3.44 0.841 0 6.477 6.246 6 7z" />
    </g>
  </g>
  <g
     id="g458"
     image-rendering="optimizeSpeed"
     transform="matrix(.35276 0 0 -.35276 143.29 288.39)">
    <g
       id="g456"
       clip-path="url(#clipPath26420)">
      <g
         id="g454"
         transform="translate(-23,837.24)">
        <path
           id="path452"
           stroke-width="8"
           stroke-miterlimit="10"
           stroke="#fff"
           fill="none"
           d="m0 0c18.778 0 34 15.222 34 34s-15.222 34-34 34-34-15.222-34-34 15.222-34 34-34z" />
      </g>
    </g>
  </g>
  <g
     id="g464"
     image-rendering="optimizeSpeed"
     transform="matrix(.35276 0 0 -.35276 143.29 288.39)">
    <g
       id="g462"
       clip-path="url(#clipPath26860)">
      <path
         id="path460"
         fill-rule="evenodd"
         fill="#fff"
         d="m644 721.24h82v-82h-82zm41-81c22.092 0 40 17.908 40 40s-17.908 40-40 40-40-17.908-40-40 17.908-40 40-40" />
    </g>
  </g>
  <g
     id="g472"
     image-rendering="optimizeSpeed"
     transform="matrix(.35276 0 0 -.35276 143.29 288.39)">
    <g
       id="g470"
       clip-path="url(#clipPath27506)">
      <g
         id="g468"
         transform="translate(613.88,476.03)">
        <path
           id="path466"
           fill="#fff"
           d="m0 0c0.187-0.771 0.148-1.502-0.116-2.193-0.266-0.692-0.678-1.303-1.239-1.833-0.561-0.531-1.247-0.949-2.057-1.255-0.81-0.305-1.683-0.457-2.617-0.457-5.889-0.033-11.156-0.049-15.798-0.049h-15.891c-1.122 0-2.111 0.209-2.968 0.627s-1.543 0.932-2.056 1.543c-0.515 0.611-0.858 1.279-1.029 2.002s-0.148 1.375 0.071 1.953c0.186 0.451 0.373 0.917 0.56 1.398 0.157 0.418 0.343 0.893 0.561 1.424 0.219 0.53 0.452 1.069 0.701 1.615l1.776 4.438h5.329l-2.01-6.077h30.099l-2.009 6.077h5.094c0.655-1.64 1.246-3.119 1.777-4.438 0.218-0.578 0.435-1.14 0.654-1.687 0.218-0.547 0.412-1.037 0.584-1.472 0.171-0.433 0.312-0.804 0.421-1.109 0.108-0.306 0.163-0.474 0.163-0.507m-22.922 9.236c-0.601 0.698-1.289 1.571-2.064 2.618-0.776 1.046-1.575 2.125-2.398 3.235-0.822 1.11-1.637 2.204-2.443 3.283-0.808 1.079-1.527 2.015-2.16 2.808-0.728 0.856-1.013 1.562-0.855 2.117s0.696 0.832 1.614 0.832c0.506-0.031 1.187-0.024 2.041 0.024 0.855 0.048 1.567 0.072 2.136 0.072 0.633 0 1.029 0.19 1.187 0.57 0.158 0.381 0.237 0.889 0.237 1.523 0 0.698-8e-3 1.467-0.024 2.308s-0.024 1.705-0.024 2.593-8e-3 1.76-0.023 2.617c-0.016 0.856-0.024 1.65-0.024 2.379 0 0.318 0.024 0.65 0.071 1 0.047 0.348 0.158 0.666 0.333 0.951 0.173 0.285 0.426 0.523 0.758 0.714 0.332 0.19 0.784 0.285 1.353 0.285 0.665 0 1.274 9e-3 1.827 0.024 0.555 0.016 1.195 0.024 1.923 0.024 1.044 0 1.748-0.246 2.112-0.737 0.364-0.492 0.562-1.277 0.593-2.356v-1.855c0-0.73 8e-3 -1.507 0.023-2.331 0.017-0.826 0.025-1.651 0.025-2.475v-2.236c0-0.92 0.095-1.659 0.284-2.213 0.191-0.555 0.617-0.817 1.282-0.785 0.475 0 1.052-0.016 1.732-0.047 0.68-0.032 1.274-0.049 1.78-0.049 0.855 0 1.4-0.23 1.638-0.69 0.237-0.46 0.071-1.054-0.498-1.784-0.602-0.76-1.298-1.68-2.089-2.759-0.791-1.08-1.606-2.197-2.445-3.355-0.838-1.158-1.661-2.284-2.467-3.379-0.807-1.094-1.528-2.037-2.16-2.83-0.57-0.73-1.116-1.103-1.637-1.119-0.523-0.016-1.069 0.326-1.638 1.023" />
      </g>
    </g>
  </g>
  <g
     id="g480"
     image-rendering="optimizeSpeed"
     transform="matrix(.35276 0 0 -.35276 143.29 288.39)">
    <g
       id="g478"
       clip-path="url(#clipPath27772)">
      <g
         id="g476"
         transform="translate(588.67,331.24)">
        <path
           id="path474"
           fill="#fff"
           d="m0 0h-49.301c-2.41 0-4.367-1.941-4.367-4.299v-49.402c0-2.393 1.957-4.299 4.367-4.299h49.301c2.41 0 4.332 1.941 4.332 4.299v49.367c0 2.393-1.957 4.334-4.332 4.334m-33.403-53.008h-8.839v6.795h8.839zm-8.91 24.58h8.84v-6.795h-8.84zm8.945-15.566h-8.84v6.795h8.84zm12.998-9.014h-8.84v6.795h8.84zm-8.91 24.58h8.84v-6.795h-8.84zm8.944-15.566h-8.839v6.795h8.839zm13.277-9.014h-8.84v6.795h8.84zm-8.909 24.58h8.84v-6.795h-8.84zm8.945-15.566h-8.84v6.795h8.84zm5.276 24.441c0-2.392-1.957-4.299-4.368-4.299h-37.77c-2.411-0.035-4.367 1.907-4.367 4.299v10.054c0 2.392 1.956 4.333 4.332 4.333h37.805c2.411 0 4.368-1.941 4.368-4.333z" />
      </g>
    </g>
  </g>
  <g
     id="g488"
     image-rendering="optimizeSpeed"
     transform="matrix(.35276 0 0 -.35276 143.29 288.39)">
    <g
       id="g486"
       clip-path="url(#clipPath27864)">
      <g
         id="g484"
         transform="translate(609.3,312.46)">
        <path
           id="path482"
           fill="#fff"
           d="m0 0h-0.72c-0.206 0-0.377 0-0.514-0.212-0.103-0.142-0.103-0.283-0.103-0.46v-0.566c0-0.178 0-0.319 0.103-0.461 0.137-0.212 0.308-0.212 0.514-0.212h0.72c0.205 0 0.376 0 0.514 0.212 0.102 0.142 0.102 0.283 0.102 0.461v0.566c0 0.213 0 0.318-0.102 0.46-0.138 0.212-0.275 0.212-0.514 0.212m-5.003 4.779h-2.947c-0.548 0-0.993-0.46-0.993-1.026v-2.407h0.993v2.407h2.947v-2.407h0.993v2.407c0 0.566-0.445 1.026-0.993 1.026m0-6.973h-2.947v2.407h-0.993v-2.407c0-0.567 0.411-1.027 0.993-1.027h2.947c0.582 0 0.993 0.46 0.993 1.027v2.407h-0.993zm-14.357 0h-2.947v2.584h-0.994v-2.584c0-0.567 0.411-1.027 0.994-1.027h2.947c0.583 0 0.994 0.46 0.994 1.027v2.584h-0.994zm0 6.973h-2.947c-0.548 0-0.994-0.46-0.994-1.026v-2.231h0.994v2.231h2.947v-2.231h0.994v2.231c0 0.566-0.446 1.026-0.994 1.026m7.195 0h-2.946c-0.549 0-0.994-0.46-0.994-1.026v-2.231h0.994v2.231h2.946v-2.231h0.994v2.231c0 0.566-0.445 1.026-0.994 1.026m0-6.973h-2.946v2.584h-0.994v-2.584c0-0.567 0.445-1.027 0.994-1.027h2.946c0.583 0 0.994 0.46 0.994 1.027v2.584h-0.994zm18.675 6.973h-2.947c-0.548 0-0.994-0.46-0.994-1.026v-2.584h0.994v2.584h2.947v-2.584h0.994v2.584c0 0.566-0.445 1.026-0.994 1.026m0-6.973h-2.947v2.23h-0.994v-2.23c0-0.567 0.446-1.027 0.994-1.027h2.947c0.583 0 0.994 0.46 0.994 1.027v2.23h-0.994zm7.195 0h-2.946v2.053h-0.994v-2.053c0-0.567 0.411-1.027 0.994-1.027h2.946c0.583 0 0.994 0.46 0.994 1.027v2.053h-0.994zm0 6.973h-2.946c-0.548 0-0.994-0.46-0.994-1.026v-2.761h0.994v2.761h2.946v-2.761h0.994v2.761c0 0.566-0.479 1.026-0.994 1.026" />
      </g>
    </g>
  </g>
  <g
     id="g496"
     image-rendering="optimizeSpeed"
     transform="matrix(.35276 0 0 -.35276 143.29 288.39)">
    <g
       id="g494"
       clip-path="url(#clipPath28028)">
      <g
         id="g492"
         transform="translate(766.75,130.24)">
        <path
           id="path490"
           fill="#fff"
           d="m0 0h-15.75v6.693c0 1.239-1.013 2.307-2.307 2.307h-13.386c-1.239 0-2.307-1.013-2.307-2.307v-6.693h-15.75c-1.237 0-2.25-1.013-2.25-2.25v-11.25l27-4.5 27 4.5v11.25c0 1.237-1.013 2.25-2.25 2.25m-29.25 4.5h9v-4.5h-9zm9-16.875c0-0.619-0.506-1.125-1.125-1.125h-6.75c-0.619 0-1.125 0.506-1.125 1.125v2.25c0 0.619 0.506 1.125 1.125 1.125h6.75c0.619 0 1.125-0.506 1.125-1.125zm-4.5-7.875 27 4.5v-27c0-1.237-1.013-2.25-2.25-2.25h-49.5c-1.237 0-2.25 1.013-2.25 2.25v27z" />
      </g>
    </g>
  </g>
  <g
     id="g504"
     image-rendering="optimizeSpeed"
     transform="matrix(.35276 0 0 -.35276 143.29 288.39)">
    <g
       id="g502"
       clip-path="url(#clipPath28200)">
      <g
         id="g500"
         transform="translate(392,82.24)">
        <path
           id="path498"
           fill="#fff"
           d="M 0,0 -4.35,3.941 C -19.8,17.953 -30,27.2 -30,38.516 -30,47.762 -22.755,55 -13.5,55 -8.28,55 -3.27,52.572 0,48.75 3.27,52.572 8.28,55 13.5,55 22.755,55 30,47.762 30,38.516 30,27.2 19.8,17.953 4.35,3.941 Z" />
      </g>
    </g>
  </g>
  <g
     id="g512"
     image-rendering="optimizeSpeed"
     transform="matrix(.35276 0 0 -.35276 143.29 288.39)">
    <g
       id="g510"
       clip-path="url(#clipPath28364)">
      <g
         id="g508"
         transform="translate(542.77,113.24)">
        <path
           id="path506"
           fill="#fff"
           d="m0 0c0 2.621 0.885 4.8 2.689 6.604s3.983 2.689 6.604 2.689c2.622 0 4.801-0.885 6.604-2.689 1.805-1.804 2.69-3.983 2.69-6.604s-0.885-4.834-2.69-6.639c-1.803-1.803-3.982-2.689-6.604-2.689-2.621 0-4.809 0.877-6.604 2.689-1.813 1.83-2.689 4.051-2.689 6.639m-13.141-6.06c0.545-1.94 1.363-3.846 2.35-5.617l-6.128-7.523 6.944-6.945 7.524 6.127c1.769-0.986 3.71-1.803 5.65-2.382l1.022-9.6h10.008l1.022 9.6c1.94 0.579 3.778 1.396 5.651 2.382l7.49-6.127 7.012 6.945-6.162 7.523c0.953 1.771 1.805 3.677 2.383 5.617l9.601 1.056v10.008l-9.601 1.021c-0.578 1.941-1.43 3.745-2.383 5.618l6.162 7.523-7.012 7.013-7.49-6.161c-1.907 0.953-3.711 1.803-5.651 2.382l-1.022 9.6h-10.008l-1.022-9.6c-2.008-0.579-3.88-1.429-5.65-2.382l-7.524 6.161-6.944-7.013 6.128-7.523c-0.953-1.873-1.771-3.677-2.35-5.618l-9.633-1.021v-10.008z" />
      </g>
    </g>
  </g>
  <g
     id="g518"
     image-rendering="optimizeSpeed"
     transform="matrix(.35276 0 0 -.35276 143.29 288.39)">
    <g
       id="g516"
       clip-path="url(#clipPath28984)">
      <path
         id="path514"
         fill-rule="evenodd"
         fill="#fff"
         d="m473 698.24h13v-13h-13zm6.5-12c3.037 0 5.5 2.463 5.5 5.5 0 3.038-2.463 5.5-5.5 5.5s-5.5-2.462-5.5-5.5c0-3.037 2.463-5.5 5.5-5.5" />
    </g>
  </g>
  <g
     id="g524"
     image-rendering="optimizeSpeed"
     transform="matrix(.35276 0 0 -.35276 143.29 288.39)">
    <g
       id="g522"
       clip-path="url(#clipPath29012)">
      <path
         id="path520"
         fill-rule="evenodd"
         fill="#fff"
         d="m473 676.24h13v-13h-13zm6.5-12c3.037 0 5.5 2.463 5.5 5.5 0 3.038-2.463 5.5-5.5 5.5s-5.5-2.462-5.5-5.5c0-3.037 2.463-5.5 5.5-5.5" />
    </g>
  </g>
  <g
     id="g530"
     image-rendering="optimizeSpeed"
     transform="matrix(.35276 0 0 -.35276 143.29 288.39)">
    <g
       id="g528"
       clip-path="url(#clipPath29040)">
      <path
         id="path526"
         fill-rule="evenodd"
         fill="#fff"
         d="m467 687.24h13v-13h-13zm6.5-12c3.037 0 5.5 2.463 5.5 5.5 0 3.038-2.463 5.5-5.5 5.5s-5.5-2.462-5.5-5.5c0-3.037 2.463-5.5 5.5-5.5" />
    </g>
  </g>
  <g
     id="g536"
     image-rendering="optimizeSpeed"
     transform="matrix(.35276 0 0 -.35276 143.29 288.39)">
    <g
       id="g534"
       clip-path="url(#clipPath29068)">
      <path
         id="path532"
         fill-rule="evenodd"
         fill="#fff"
         d="m486 698.24h13v-13h-13zm6.5-12c3.037 0 5.5 2.463 5.5 5.5 0 3.038-2.463 5.5-5.5 5.5s-5.5-2.462-5.5-5.5c0-3.037 2.463-5.5 5.5-5.5" />
    </g>
  </g>
  <g
     id="g542"
     image-rendering="optimizeSpeed"
     transform="matrix(.35276 0 0 -.35276 143.29 288.39)">
    <g
       id="g540"
       clip-path="url(#clipPath29096)">
      <path
         id="path538"
         fill-rule="evenodd"
         fill="#fff"
         d="m486 676.24h13v-13h-13zm6.5-12c3.037 0 5.5 2.463 5.5 5.5 0 3.038-2.463 5.5-5.5 5.5s-5.5-2.462-5.5-5.5c0-3.037 2.463-5.5 5.5-5.5" />
    </g>
  </g>
  <g
     id="g548"
     image-rendering="optimizeSpeed"
     transform="matrix(.35276 0 0 -.35276 143.29 288.39)">
    <g
       id="g546"
       clip-path="url(#clipPath29124)">
      <path
         id="path544"
         fill-rule="evenodd"
         fill="#fff"
         d="m480 687.24h13v-13h-13zm6.5-12c3.037 0 5.5 2.463 5.5 5.5 0 3.038-2.463 5.5-5.5 5.5s-5.5-2.462-5.5-5.5c0-3.037 2.463-5.5 5.5-5.5" />
    </g>
  </g>
  <g
     id="g554"
     image-rendering="optimizeSpeed"
     transform="matrix(.35276 0 0 -.35276 143.29 288.39)">
    <g
       id="g552"
       clip-path="url(#clipPath29152)">
      <path
         id="path550"
         fill-rule="evenodd"
         fill="#fff"
         d="m493 687.24h13v-13h-13zm6.5-12c3.037 0 5.5 2.463 5.5 5.5 0 3.038-2.463 5.5-5.5 5.5s-5.5-2.462-5.5-5.5c0-3.037 2.463-5.5 5.5-5.5" />
    </g>
  </g>
  <g
     id="g560"
     image-rendering="optimizeSpeed"
     transform="matrix(.35276 0 0 -.35276 143.29 288.39)">
    <g
       id="g558"
       clip-path="url(#clipPath29252)">
      <path
         id="path556"
         fill-rule="evenodd"
         fill="#fff"
         d="m161 327.24h73v-28h-73zm14-5h45c4.971 0 9-4.029 9-9 0-4.97-4.029-9-9-9h-45c-4.971 0-9 4.03-9 9 0 4.971 4.029 9 9 9" />
    </g>
  </g>
  <g
     id="g566"
     image-rendering="optimizeSpeed"
     transform="matrix(.35276 0 0 -.35276 143.29 288.39)">
    <g
       id="g564"
       clip-path="url(#clipPath29280)">
      <path
         id="path562"
         fill-rule="evenodd"
         fill="#fff"
         d="m162 302.24h73v-28h-73zm14-5h45c4.971 0 9-4.029 9-9 0-4.97-4.029-9-9-9h-45c-4.971 0-9 4.03-9 9 0 4.971 4.029 9 9 9" />
    </g>
  </g>
  <g
     id="g574"
     image-rendering="optimizeSpeed"
     transform="matrix(.35276 0 0 -.35276 143.29 288.39)">
    <g
       id="g572"
       clip-path="url(#clipPath29400)">
      <g
         id="g570"
         transform="translate(104.49,129.57)">
        <path
           id="path568"
           fill="#fff"
           d="m0 0c-4.298-0.338-8.165-0.637-11.604-0.898-1.458-0.113-2.906-0.225-4.344-0.336-1.44-0.114-2.747-0.207-3.924-0.282-1.178-0.074-2.168-0.149-2.972-0.224-0.803-0.074-1.28-0.113-1.428-0.113-0.188-0.037-0.403-0.065-0.645-0.084-0.244-0.018-0.459-0.065-0.645-0.139l-0.673-0.225-2.467 1.121c0.187 0.263 0.412 0.506 0.674 0.731 0.185 0.186 0.42 0.364 0.7 0.533 0.28 0.168 0.569 0.27 0.868 0.309 0.225 0.037 0.822 0.093 1.795 0.168 0.971 0.074 2.167 0.168 3.588 0.28 0 0.486 0.047 1.15 0.14 1.992 0.092 0.841 0.317 1.674 0.672 2.497 0.356 0.822 0.869 1.553 1.541 2.188 0.673 0.636 1.589 1.009 2.747 1.123 1.346 0.111 2.439-0.094 3.281-0.618 0.84-0.523 1.494-1.169 1.961-1.935 0.467-0.768 0.795-1.553 0.981-2.358 0.187-0.804 0.299-1.43 0.337-1.878 1.606 0.111 2.942 0.205 4.008 0.279 1.064 0.076 1.653 0.131 1.765 0.169 0.412 0.038 0.87-0.038 1.373-0.225 0.505-0.186 0.907-0.43 1.206-0.729 0.075-0.075 0.177-0.188 0.308-0.336 0.131-0.151 0.252-0.3 0.365-0.449 0.149-0.151 0.28-0.337 0.392-0.561m-15.528 6.676c-0.709-0.074-1.28-0.326-1.709-0.757-0.43-0.431-0.758-0.944-0.982-1.543-0.223-0.599-0.374-1.206-0.448-1.823-0.075-0.617-0.112-1.114-0.112-1.488 1.159 0.076 2.344 0.169 3.559 0.281s2.402 0.206 3.56 0.281c-0.037 0.336-0.121 0.804-0.252 1.402-0.131 0.599-0.346 1.178-0.645 1.74-0.299 0.561-0.691 1.028-1.176 1.403-0.487 0.373-1.084 0.542-1.795 0.504m21.919-41.24c0.186-1.047 0.159-1.917-0.084-2.61-0.244-0.691-0.925-1.168-2.046-1.43-0.374-0.113-1.187-0.299-2.439-0.562-1.252-0.262-2.747-0.579-4.485-0.953-1.737-0.374-3.597-0.777-5.577-1.207-1.982-0.43-3.878-0.832-5.691-1.205-1.812-0.375-3.437-0.711-4.877-1.011-1.438-0.3-2.457-0.505-3.054-0.617-1.383-0.3-2.402-0.206-3.055 0.28-0.654 0.486-0.982 1.217-0.982 2.189v34.452c0 0.934 0.197 1.691 0.589 2.271 0.393 0.58 0.962 0.889 1.709 0.926 0.299 0 0.664 0.02 1.094 0.057s0.85 0.074 1.261 0.112c0.485 0.037 0.991 0.075 1.514 0.112l0.504-8.023c-0.037-0.038-0.112-0.057-0.224-0.057-0.074 0-0.187-0.01-0.336-0.027-0.15-0.02-0.318-0.029-0.505-0.029-0.784-0.075-1.159-0.542-1.121-1.403 0.038-0.336 0.075-0.805 0.112-1.402 0.037-0.599 0.066-1.225 0.084-1.88 0.019-0.655 0.047-1.29 0.084-1.907s0.074-1.114 0.113-1.488c0.037-0.711 0.149-1.112 0.336-1.206 0.186-0.093 0.598-0.14 1.233-0.14h0.785c0.225 0 0.439 0.01 0.645 0.027 0.205 0.02 0.439 0.038 0.701 0.057 0.261 0.018 0.597 0.047 1.008 0.084 0.785 0.075 1.29 0.243 1.513 0.506 0.225 0.261 0.319 0.654 0.281 1.177 0 0.262-0.028 0.721-0.084 1.375-0.056 0.655-0.113 1.337-0.168 2.048-0.056 0.71-0.103 1.384-0.14 2.02-0.037 0.635-0.074 1.085-0.112 1.346-0.076 0.45-0.168 0.768-0.281 0.954-0.112 0.187-0.318 0.262-0.617 0.224-0.148 0-0.299-9e-3 -0.447-0.027-0.151-0.019-0.3-0.028-0.449-0.028h-0.449l-0.505 7.967c2.542 0.225 4.877 0.412 7.008 0.561 0.897 0.076 1.803 0.15 2.719 0.224 0.916 0.076 1.766 0.141 2.551 0.198 0.785 0.055 1.476 0.111 2.074 0.168 0.598 0.056 1.046 0.103 1.346 0.14 1.083 0.074 1.942-0.113 2.578-0.561 0.635-0.449 1.027-1.122 1.178-2.021 0.037-0.299 0.168-1.196 0.391-2.693 0.224-1.496 0.505-3.291 0.841-5.386s0.691-4.349 1.065-6.761c0.374-2.413 0.729-4.667 1.066-6.761 0.336-2.095 0.625-3.891 0.869-5.387 0.242-1.496 0.4-2.395 0.476-2.693m-35.261-4.881c0-0.525 0.028-0.983 0.084-1.375 0.057-0.393 0.122-0.701 0.197-0.926 0.074-0.299 0.168-0.524 0.279-0.674-0.933 0.486-1.831 0.973-2.69 1.459-0.747 0.412-1.495 0.832-2.242 1.263-0.747 0.43-1.383 0.795-1.906 1.094-0.972 0.561-1.635 1.235-1.99 2.02s-0.439 1.608-0.253 2.469c0.076 0.224 0.244 1.047 0.505 2.469 0.262 1.421 0.588 3.142 0.981 5.162 0.392 2.019 0.803 4.189 1.233 6.508 0.43 2.32 0.831 4.49 1.205 6.509 0.374 2.02 0.701 3.76 0.982 5.218 0.28 1.459 0.439 2.319 0.476 2.581 0.15 0.823 0.42 1.459 0.813 1.908 0.392 0.449 0.849 0.561 1.373 0.336 0.299-0.149 0.543-0.317 0.728-0.504 0.114-0.113 0.188-0.207 0.225-0.281z" />
      </g>
    </g>
  </g>
  <g
     id="g594"
     stroke-width=".7572"
     opacity=".15"
     transform="matrix(.72214 0 0 .72214 5.1762 -744.84)">
    <g
       id="g592"
       stroke-width=".7572"
       transform="translate(-401.01,510.63)">
      <g
         id="g590"
         stroke-width=".7572"
         transform="translate(5.0558,-5.2511)">
        <g
           id="g588"
           stroke-width=".7572"
           stroke-opacity=".8"
           stroke="#000"
           transform="translate(-11.317,5.8825)">
          <g
             id="g586"
             stroke-width=".7572"
             transform="translate(1.8733 -.28411)">
            <g
               id="g584"
               stroke-width=".7572"
               transform="translate(-2.0519 -.97859)">
              <g
                 id="g582"
                 stroke-width=".7572"
                 transform="translate(.22097 .44194)">
                <g
                   id="g580"
                   stroke-width=".7572"
                   transform="translate(1.3574,-1.2627)">
                  <g
                     id="g578"
                     stroke-width=".7572"
                     transform="translate(-.41037 -.59978)">
                    <g
                       id="g576"
                       stroke-width=".7572"
                       transform="matrix(.78637 0 0 .78395 92.594 111.88)" />
                  </g>
                </g>
              </g>
            </g>
          </g>
        </g>
      </g>
    </g>
  </g>
  <g
     id="g1577">
    <g
       transform="translate(-21.834,0.89695)"
       fill="#5e4aa6"
       stroke-width="0.26458"
       id="g1507">
      <circle
         cx="-330.35001"
         cy="-328.38"
         r="0"
         id="circle1499" />
      <circle
         cx="-312.10999"
         cy="-326.25"
         r="0"
         id="circle1501" />
      <circle
         cx="-306.01999"
         cy="-333.07001"
         r="0"
         id="circle1503" />
      <circle
         cx="-308.84"
         cy="-326.01001"
         r="0"
         id="circle1505" />
    </g>
    <circle
       style="fill:url(#linearGradient1579)"
       cx="-5.2346001"
       cy="44.956001"
       r="0"
       fill="url(#i)"
       image-rendering="optimizeSpeed"
       stroke-width="0.26458"
       id="circle1509" />
    <circle
       style="stroke:url(#linearGradient1581)"
       cx="-19.466"
       cy="50.818001"
       r="0"
       fill="none"
       image-rendering="optimizeSpeed"
       stroke="url(#f)"
       stroke-width="0.56347"
       id="circle1511" />
    <g
       transform="translate(-3.15e-4,-6.45e-4)"
       id="g1537">
      <g
         transform="translate(-21.834,0.89695)"
         fill="#5e4aa6"
         stroke-width="0.26458"
         id="g1521">
        <circle
           cx="-330.35001"
           cy="-328.38"
           r="0"
           id="circle1513" />
        <circle
           cx="-312.10999"
           cy="-326.25"
           r="0"
           id="circle1515" />
        <circle
           cx="-306.01999"
           cy="-333.07001"
           r="0"
           id="circle1517" />
        <circle
           cx="-308.84"
           cy="-326.01001"
           r="0"
           id="circle1519" />
      </g>
      <circle
         style="fill:url(#linearGradient967)"
         cx="-5.2346001"
         cy="44.956001"
         r="0"
         fill="url(#linearGradient967)"
         image-rendering="optimizeSpeed"
         stroke-width="0.26458"
         id="circle1523" />
      <circle
         style="stroke:url(#linearGradient969)"
         cx="-19.466"
         cy="50.818001"
         r="0"
         fill="none"
         image-rendering="optimizeSpeed"
         stroke="url(#linearGradient969)"
         stroke-width="0.56347"
         id="circle1525" />
      <g
         transform="translate(11.617,-55.147)"
         id="g1535">
        <path
           style="fill:url(#linearGradient4338)"
           d="m 4.7871,63.614 c 0,0.95153 -0.16749,1.8638 -0.47464,2.7094 -0.2135,0.58768 -0.49438,1.1433 -0.83392,1.6572 -0.14222,0.21608 -0.29514,0.42475 -0.45745,0.62528 -0.51965,0.64178 -1.1372,1.2007 -1.8304,1.6543 -0.2553,0.16717 -0.52064,0.3201 -0.79535,0.45712 -1.0668,0.53388 -2.2711,0.8342 -3.5456,0.8342 -1.2745,0 -2.4788,-0.30032 -3.5456,-0.83422 -0.27474,-0.13705 -0.5404,-0.28996 -0.79569,-0.45712 -0.70206,-0.45972 -1.327,-1.0274 -1.8508,-1.6798 -0.16262,-0.20216 -0.31523,-0.41275 -0.45745,-0.63077 -0.33046,-0.50539 -0.6042,-1.0507 -0.81348,-1.627 -0.3071,-0.84527 -0.4743,-1.7572 -0.4743,-2.7084 0,-4.3837 3.5537,-7.9374 7.9374,-7.9374 2.2005,0 4.1916,0.89547 5.6294,2.3416 0.41435,0.41661 0.78273,0.87928 1.0963,1.3795 0.29645,0.47107 0.54427,0.9758 0.73703,1.5068 0.30718,0.84558 0.47466,1.7579 0.47466,2.7094 z"
           fill="url(#linearGradient4338)"
           stroke-width="0.031006"
           id="path1527" />
        <path
           style="fill:url(#linearGradient987)"
           transform="scale(0.26458)"
           d="m -11.906,215.32 c -13.873,0 -25.119,11.246 -25.119,25.119 0,3.0101 0.53009,5.8953 1.502,8.5703 0.66229,1.8238 1.5284,3.5491 2.5742,5.1484 0.45008,0.68994 0.93263,1.3563 1.4473,1.9961 1.6578,2.0646 3.6357,3.8616 5.8574,5.3164 0.80791,0.52897 1.6481,1.0136 2.5176,1.4473 3.376,1.6896 7.1873,2.6387 11.221,2.6387 4.0334,0 7.8447,-0.94914 11.221,-2.6387 0.86936,-0.43362 1.7097,-0.91822 2.5176,-1.4473 2.194,-1.4355 4.1465,-3.2034 5.791,-5.2344 0.51367,-0.63461 0.99914,-1.2947 1.4492,-1.9785 1.0745,-1.6264 1.963,-3.3863 2.6387,-5.2461 0.972,-2.6759 1.502,-5.563 1.502,-8.5742 0,-3.0111 -0.52985,-5.8983 -1.502,-8.5742 -0.56324,-1.5515 -1.3081,-3.011 -2.1523,-4.4024 l -6.002,4.1348 -2.5977,-3.7676 5.8164,-4.0078 4.0039,-2.7578 c -0.491,-0.57438 -0.8757,-1.238 -1.4082,-1.7734 -0.82781,-0.83263 -1.7907,-1.5166 -2.7109,-2.248 l -4.1328,2.8477 c -4.0846,-2.8742 -9.0593,-4.5684 -14.434,-4.5684 z"
           fill="url(#linearGradient987)"
           stroke-width="0.098122"
           id="path1529" />
        <path
           style="fill:url(#linearGradient1034)"
           d="m -0.43854,63.614 c 0,0.32508 -0.05722,0.63675 -0.16215,0.92563 -0.07294,0.20077 -0.1689,0.39058 -0.2849,0.56616 -0.048588,0.07382 -0.10083,0.14511 -0.15628,0.21362 -0.17753,0.21926 -0.3885,0.41019 -0.62535,0.56516 -0.087218,0.05711 -0.17787,0.10936 -0.27172,0.15617 -0.36445,0.18239 -0.77588,0.28499 -1.2113,0.28499 -0.43542,0 -0.84684,-0.1026 -1.2113,-0.285 -0.09386,-0.04682 -0.18462,-0.09906 -0.27184,-0.15617 -0.23985,-0.15706 -0.45335,-0.35099 -0.63232,-0.57388 -0.055558,-0.06906 -0.10769,-0.14101 -0.15628,-0.21549 -0.1129,-0.17266 -0.20642,-0.35895 -0.27792,-0.55584 -0.10492,-0.28878 -0.16204,-0.60034 -0.16204,-0.92529 0,-1.4976 1.2141,-2.7117 2.7117,-2.7117 0.75176,0 1.432,0.30592 1.9232,0.79999 0.14156,0.14233 0.26741,0.30039 0.37452,0.47127 0.10128,0.16093 0.18594,0.33337 0.2518,0.51477 0.10494,0.28888 0.16216,0.60056 0.16216,0.92563 z"
           fill="url(#linearGradient1034)"
           stroke-width="0.010593"
           id="path1531" />
        <path
           style="fill:url(#linearGradient1044)"
           d="m -2.1128,63.614 c 0,0.12437 -0.021891,0.24361 -0.062037,0.35413 -0.027906,0.07681 -0.064617,0.14943 -0.109,0.2166 -0.018589,0.02824 -0.038575,0.05552 -0.059791,0.08173 -0.067919,0.08388 -0.14863,0.15693 -0.23925,0.21622 -0.033368,0.02185 -0.068049,0.04184 -0.10396,0.05975 -0.13943,0.06978 -0.29684,0.10903 -0.46342,0.10903 -0.16658,0 -0.32398,-0.03925 -0.46342,-0.10904 -0.035909,-0.01791 -0.070632,-0.0379 -0.104,-0.05975 -0.091762,-0.06009 -0.17344,-0.13428 -0.24191,-0.21955 -0.021255,-0.02642 -0.041202,-0.05395 -0.059791,-0.08244 -0.043192,-0.06606 -0.078972,-0.13733 -0.10633,-0.21265 -0.04014,-0.11048 -0.061992,-0.22968 -0.061992,-0.354 0,-0.57297 0.46448,-1.0374 1.0374,-1.0374 0.28761,0 0.54786,0.11704 0.73579,0.30606 0.054157,0.05445 0.10231,0.11492 0.14328,0.1803 0.038747,0.06157 0.071138,0.12754 0.096333,0.19694 0.04015,0.11052 0.062039,0.22976 0.062039,0.35413 z"
           fill="url(#linearGradient1044)"
           stroke-width="0.0040526"
           id="path1533" />
      </g>
    </g>
  </g>
</svg>
