<?xml version="1.0" encoding="UTF-8"?>
<svg width="64" height="64" version="1.1" viewBox="0 0 16.933 16.933" xmlns="http://www.w3.org/2000/svg" xmlns:cc="http://creativecommons.org/ns#" xmlns:dc="http://purl.org/dc/elements/1.1/" xmlns:rdf="http://www.w3.org/1999/02/22-rdf-syntax-ns#" xmlns:xlink="http://www.w3.org/1999/xlink">
 <metadata>
  <rdf:RDF>
   <cc:Work rdf:about="">
    <dc:format>image/svg+xml</dc:format>
    <dc:type rdf:resource="http://purl.org/dc/dcmitype/StillImage"/>
    <dc:title/>
   </cc:Work>
  </rdf:RDF>
 </metadata>
 <defs>
  <radialGradient id="g" cx="32" cy="53.196" r="9.9092" gradientTransform="matrix(.3738 1.4135e-7 -4.447e-8 .1302 -3.4952 5.7248)" gradientUnits="userSpaceOnUse">
   <stop stop-color="#636363" offset="0"/>
   <stop stop-color="#424242" offset=".47277"/>
   <stop stop-color="#373737" offset="1"/>
  </radialGradient>
  <filter id="j" x="-.086731" y="-.42391" width="1.1735" height="1.8478" color-interpolation-filters="sRGB">
   <feGaussianBlur stdDeviation="0.70652346"/>
  </filter>
  <radialGradient id="d" cx="7.9373" cy="13.903" r="7.142" gradientTransform="matrix(1.1114 4.7498e-8 -5.5414e-8 1.2966 -.88353 -5.2238)" gradientUnits="userSpaceOnUse">
   <stop stop-color="#4d4d4d" offset="0"/>
   <stop stop-color="#4d4d4d" stop-opacity="0" offset="1"/>
  </radialGradient>
  <filter id="n" x="-.019841" y="-.23809" width="1.0397" height="1.4762" color-interpolation-filters="sRGB">
   <feGaussianBlur stdDeviation="0.1049892"/>
  </filter>
  <filter id="m" x="-.020048" y="-.17621" width="1.0401" height="1.3524" color-interpolation-filters="sRGB">
   <feGaussianBlur stdDeviation="0.43981933"/>
  </filter>
  <filter id="k" x="-.041258" y="-.10994" width="1.0825" height="1.2199" color-interpolation-filters="sRGB">
   <feGaussianBlur stdDeviation="0.34069824"/>
  </filter>
  <filter id="e" x="-.059473" y="-.060537" width="1.1189" height="1.1211" color-interpolation-filters="sRGB">
   <feGaussianBlur stdDeviation="1.3378352"/>
  </filter>
  <linearGradient id="linearGradient856" x1="-73.361" x2="-58.736" y1="6.9799" y2="17.198" gradientTransform="translate(75.14 -.97417)" gradientUnits="userSpaceOnUse">
   <stop stop-color="#3c3c3c" offset="0"/>
   <stop stop-color="#1e1e1e" offset="1"/>
  </linearGradient>
  <linearGradient id="linearGradient2136" x1="1.8646" x2="15.069" y1="14.552" y2="14.552" gradientUnits="userSpaceOnUse">
   <stop offset="0"/>
   <stop stop-opacity="0" offset="1"/>
  </linearGradient>
  <linearGradient id="linearGradient2168" x1="1.2396" x2="15.693" y1="13.917" y2="13.917" gradientUnits="userSpaceOnUse" xlink:href="#linearGradient856"/>
  <linearGradient id="linearGradient2176" x1="20.388" x2="43.331" y1="49" y2="49" gradientUnits="userSpaceOnUse">
   <stop offset="0"/>
   <stop stop-opacity="0" offset="1"/>
  </linearGradient>
  <linearGradient id="linearGradient952" x1="8.3205" x2="8.3205" y1="1.2559" y2="13.432" gradientUnits="userSpaceOnUse" xlink:href="#linearGradient856"/>
 </defs>
 <path transform="scale(.26458)" d="m14 5c-0.54275-9.566e-4 -1.0131 0.089051-1.3945 0.2793-0.62057 0.23101-0.88354 0.66383-1.0625 1.3691l-6.5273 41.746c-0.021015 0.22364-0.0064316 0.43929 0.037109 0.64648 0.0026425 0.01257 0.0068993 0.0246 0.0097656 0.037109-0.006706 0.41826 0.0069119 0.85899 0.037109 1.3125 0.036851 1.9891 0.14217 2.4666 0.31836 4.5371 0.096546 1.7208 1.1493 3.1125 2.5762 3.1113l48.012-0.039062c1.427-0.00116 2.4796-1.3515 2.5762-3.0723 0.17617-2.0706 0.28151-2.55 0.31836-4.5391 0.030049-0.45129 0.041538-0.88816 0.035156-1.3047 0.003281-0.014535 0.008652-0.028362 0.011719-0.042968 0.043541-0.2072 0.058199-0.4248 0.037109-0.64844l-7.5273-41.742c-0.179-0.70535-0.44193-1.1382-1.0625-1.3691-0.38144-0.19021-0.85178-0.28025-1.3945-0.2793h-17l-18-0.0019531zm18 38.982a13.526 21.831 0 0 1 6.9766 3.1758h-13.959a13.526 21.831 0 0 1 6.9824-3.1758z" filter="url(#e)" opacity=".35" stroke-width="3.7796"/>
 <path d="m1.6002 12.477c-0.2479 0.04331-0.24215 0.44936-0.21527 0.855 0.0097 0.52627 0.037489 0.65268 0.083869 1.2005 0.025415 0.45528 0.30241 0.8239 0.67804 0.82359l12.639-0.01034c0.37564-3.07e-4 0.65263-0.35798 0.67804-0.81326 0.04638-0.54783 0.07417-0.67424 0.08386-1.2005 0.02687-0.40564 0.03262-0.81164-0.21527-0.855h-12.738z" fill="url(#linearGradient2168)" stroke="#000" stroke-opacity=".19608" stroke-width=".26458"/>
 <g fill-rule="evenodd">
  <path transform="scale(.26458)" d="m6.7715 45.307c-0.6077 0-1.0977 0.74583-1.0977 1.6719v2.6465c0 0.92605 0.48996 1.6719 1.0977 1.6719h15.867a9.8639 5.1132 0 0 1 9.3613-3.5117 9.8639 5.1132 0 0 1 9.3535 3.5117h15.875c0.6077 0 1.0977-0.74583 1.0977-1.6719v-2.6465c0-0.92605-0.48996-1.6719-1.0977-1.6719h-50.457z" filter="url(#m)" opacity=".35" style="paint-order:stroke fill markers"/>
  <path transform="matrix(.26458 0 0 .26458 0 -.26458)" d="m31.855 47a10.294 5.7981 0 0 0-9.7715 4h2.502a10.294 5.7981 0 0 1 7.2695-1.6992 10.294 5.7981 0 0 1 7.2578 1.6992h2.5215a10.294 5.7981 0 0 0-9.7793-4z" fill="url(#linearGradient2176)" filter="url(#j)" opacity=".35" style="paint-order:stroke fill markers"/>
  <path transform="matrix(.26458 0 0 .26458 0 -.0071905)" d="m31.855 47a10.294 5.7981 0 0 0-9.7715 4h2.502a10.294 5.7981 0 0 1 7.2695-1.6992 10.294 5.7981 0 0 1 7.2578 1.6992h2.5215a10.294 5.7981 0 0 0-9.7793-4z" fill="#00a2ef" filter="url(#j)" style="paint-order:stroke fill markers"/>
 </g>
 <path d="m8.4665 11.522a3.5786 6.1316 0 0 0-2.621 1.9678h0.23202a2.7237 1.6285 0 0 1 2.389-0.847 2.7237 1.6285 0 0 1 2.3859 0.847h0.23667a3.5786 6.1316 0 0 0-2.6225-1.9678z" fill="url(#g)"/>
 <path d="m3.7041 1.3229c-0.1436-2.531e-4 -0.26805 0.023561-0.36896 0.073897-0.1642 0.061121-0.23376 0.17563-0.28112 0.36224l-1.727 11.045c-0.00556 0.05917-0.0017 0.11623 0.00982 0.17105 0.00461 0.02193 0.010519 0.04352 0.01757 0.06459 0.00352 0.01054 0.00726 0.02074 0.011369 0.03101 0.012317 0.03079 0.027273 0.06055 0.044441 0.08888 0.028614 0.04721 0.06333 0.09085 0.10335 0.1297 0.00801 0.0077 0.016404 0.01539 0.024804 0.02274 0.042002 0.03698 0.088687 0.06914 0.13901 0.0956 0.010063 0.0052 0.020155 0.01016 0.030488 0.01499 0.093002 0.04345 0.19675 0.0677 0.30334 0.0677h3.8343a3.5787 5.776 0 0 1 2.621-1.8536 3.5787 5.776 0 0 1 2.6225 1.8536h3.8327c0.24866 0 0.4808-0.1325 0.60099-0.33072 0.01717-0.02831 0.03212-0.05808 0.04444-0.08888 0.0041-0.01026 0.0083-0.0205 0.01189-0.03101 7e-3 -0.02104 0.01245-0.04268 0.01705-0.06459 0.01152-0.05482 0.01538-0.11239 0.0098-0.17156l-1.9916-11.044c-0.04736-0.18662-0.11693-0.30112-0.28112-0.36224-0.10092-0.050326-0.22536-0.074149-0.36896-0.073897h-9.2603z" fill="url(#linearGradient952)"/>
 <path transform="scale(.26458)" d="m32 43.549a13.526 23.175 0 0 0-9.9062 7.4375h0.29688a13.526 23.175 0 0 1 9.6094-6.9199 13.526 23.175 0 0 1 9.6035 6.9199h0.30859a13.526 23.175 0 0 0-9.9121-7.4375z" filter="url(#k)" opacity=".15" stroke-width="3.7796"/>
 <g fill-rule="evenodd">
  <rect transform="matrix(1.0417 0 0 .96682 -.35277 .50035)" x="2.1166" y="14.023" width="12.7" height="1.0583" rx=".26458" ry=".29539" fill="url(#linearGradient2136)" filter="url(#n)" opacity=".1" style="paint-order:stroke fill markers"/>
  <circle cx="14.155" cy="14.42" r=".39687" fill="#f44e24" style="paint-order:stroke fill markers"/>
  <circle cx="12.871" cy="14.414" r=".31443" fill="#ffb800" stroke-width=".79226" style="paint-order:stroke fill markers"/>
  <circle cx="11.669" cy="14.414" r=".31443" fill="#00a2ef" stroke-width=".79226" style="paint-order:stroke fill markers"/>
 </g>
 <path d="m3.7045 1.3229c-0.1436-2.53e-4 -0.26804 0.02356-0.36896 0.0739-0.16419 0.06112-0.23376 0.17563-0.28111 0.36224l-1.727 11.045c-0.0056 0.05917-0.0017 0.11623 0.0098 0.17105 0.0046 0.02193 0.01052 0.04352 0.01757 0.06459 0.0035 0.01054 0.0073 0.02074 0.01137 0.03101 0.01232 0.03079 0.02727 0.06055 0.04444 0.08888 0.02861 0.04721 0.06333 0.09084 0.10335 0.1297 8e-3 0.0077 0.0164 0.01539 0.0248 0.02274 0.042 0.03698 0.08869 0.06914 0.13901 0.0956 0.01006 0.0052 0.02015 0.01017 0.03049 0.01499 0.093 0.04345 0.19675 0.06769 0.30333 0.06769h3.8343a3.5786 5.7759 0 0 1 2.621-1.8536 3.5786 5.7759 0 0 1 2.6225 1.8536h3.8328c0.24865 0 0.48079-0.1325 0.60098-0.33072 0.01717-0.02831 0.03212-0.05808 0.04444-0.08888 0.0041-0.01026 0.0083-0.0205 0.01188-0.03101 7e-3 -0.02104 0.01245-0.04268 0.01705-0.06459 0.01152-0.05482 0.01538-0.11239 0.0098-0.17156l-1.9916-11.044c-0.04736-0.18662-0.11693-0.30113-0.28112-0.36224-0.10092-0.05033-0.22536-0.07415-0.36896-0.0739h-4.4978z" fill="url(#d)"/>
</svg>
