<?xml version="1.0" encoding="UTF-8" standalone="no"?>
<svg
   xmlns:dc="http://purl.org/dc/elements/1.1/"
   xmlns:cc="http://creativecommons.org/ns#"
   xmlns:rdf="http://www.w3.org/1999/02/22-rdf-syntax-ns#"
   xmlns:svg="http://www.w3.org/2000/svg"
   xmlns="http://www.w3.org/2000/svg"
   xmlns:sodipodi="http://sodipodi.sourceforge.net/DTD/sodipodi-0.dtd"
   xmlns:inkscape="http://www.inkscape.org/namespaces/inkscape"
   width="64"
   height="64"
   version="1.1"
   viewBox="0 0 16.933 16.933"
   id="svg210"
   sodipodi:docname="sk1-color-picker.svg"
   inkscape:version="1.0.1 (3bc2e813f5, 2020-09-07)">
  <g
     id="g1000"
     transform="matrix(1.2260207,0,0,1.2260207,-2.2845157,-2.2159034)">
    <path
       transform="rotate(90,4.9631,12.296)"
       d="m -3.5091,11.696 c 0,1.1726 0.94401,2.1166 2.1166,2.1166 h 6.3499 c 0.55884,0 1.0642,-0.21602 1.4417,-0.5674 0.00686,-0.0062 0.013885,-0.01226 0.02067,-0.0186 0.032601,-0.03115 0.063498,-0.06398 0.094049,-0.09715 0.022668,-0.0241 0.045514,-0.04805 0.067178,-0.07338 0.00977,-0.01166 0.018906,-0.02379 0.028422,-0.03566 0.072627,-0.08869 0.14072,-0.1826 0.19998,-0.28525 0.24373,-0.42215 0.3241,-0.89122 0.26458,-1.3379 v -6.1127 c 0,-1.1726 -0.94401,-2.1166 -2.1166,-2.1166 -0.84158,0 -1.5631,0.48774 -1.9048,1.1958 -0.65912,-0.51324 -1.5861,-0.60543 -2.3564,-0.16071 -0.79216,0.45735 -1.1743,1.3422 -1.0268,2.1916 -0.79644,-0.073476 -1.5976,0.30853 -2.0252,1.049 -0.43389,0.75153 -0.35663,1.6527 0.12402,2.3083 -0.75256,0.32381 -1.2774,1.0701 -1.2774,1.944 z"
       filter="url(#filter1275)"
       opacity="0.15"
       id="path96" />
    <g
       stroke-linecap="round"
       stroke-linejoin="round"
       id="g208">
      <path
         d="m 14.084,11.641 c 0,1.1726 -0.94401,2.1166 -2.1166,2.1166 H 5.6175 c -1.1726,0 -2.1166,-0.94401 -2.1166,-2.1166 0,-1.17259 0.94402,-2.1166 2.1166,-2.1166 h 6.3499 c 1.1726,0 2.1166,0.94401 2.1166,2.1166 z"
         fill="url(#linearGradient1250)"
         stroke="#7f7f7f"
         stroke-opacity="0.2"
         stroke-width="0.052916"
         id="path98"
         style="fill:url(#linearGradient1250)" />
      <g
         transform="rotate(90,5.19,12.069)"
         stroke-opacity="0.15"
         id="g118">
        <g
           stroke-width="0.052916"
           id="g114">
          <rect
             x="3.1749001"
             y="8.7924995"
             width="3.1749001"
             height="1.3229001"
             rx="0.26458001"
             ry="0.26458001"
             fill="none"
             stroke="#fdfdfd"
             id="rect100" />
          <rect
             x="3.1749001"
             y="7.2051001"
             width="3.1749001"
             height="1.3229001"
             rx="0.26458001"
             ry="0.26458001"
             fill="none"
             stroke="#fdfdfd"
             id="rect102" />
          <rect
             x="3.1749001"
             y="8.7311001"
             width="3.1749001"
             height="1.3229001"
             rx="0.26458001"
             ry="0.26458001"
             fill="#bb1112"
             stroke="#000000"
             id="rect104" />
          <rect
             x="3.1749001"
             y="5.6176"
             width="3.1749001"
             height="1.3229001"
             rx="0.26458001"
             ry="0.26458001"
             fill="none"
             stroke="#fdfdfd"
             id="rect106" />
          <rect
             x="3.1749001"
             y="7.1436"
             width="3.1749001"
             height="1.3229001"
             rx="0.26458001"
             ry="0.26458001"
             fill="#c72020"
             stroke="#000000"
             id="rect108" />
          <path
             d="m 4.7624,3.7656 c -0.81246,0 -1.4773,0.60462 -1.574,1.3901 0.030141,0.113 0.12838,0.1974 0.25114,0.1974 h 2.6458 c 0.12276,0 0.221,-0.084398 0.25114,-0.1974 C 6.239699,4.37025 5.57491,3.7656 4.76248,3.7656 Z"
             fill="none"
             stroke="#fdfdfd"
             id="path110" />
          <rect
             x="3.1749001"
             y="5.5560999"
             width="3.1749001"
             height="1.3229001"
             rx="0.26458001"
             ry="0.26458001"
             fill="#d22b2b"
             stroke="#000000"
             id="rect112" />
        </g>
        <path
           transform="scale(0.26458)"
           d="m 18,14 c -3.0708,0 -5.5834,2.2852 -5.9492,5.2539 0.11392,0.4271 0.48524,0.74609 0.94922,0.74609 h 10 c 0.46398,0 0.8353,-0.31899 0.94922,-0.74609 C 23.58345,16.2852 21.07084,14 18.00004,14 Z"
           fill="#db3636"
           stroke="#000000"
           stroke-width="0.2"
           id="path116" />
      </g>
      <g
         transform="rotate(60,5.264,12.454)"
         id="g142">
        <path
           d="m 4.7624,3.1749 c 1.1726,0 2.1166,0.94401 2.1166,2.1166 v 6.3499 c 0,1.1726 -0.94401,2.1166 -2.1166,2.1166 -1.17259,0 -2.1166,-0.94402 -2.1166,-2.1166 V 5.2915 c 0,-1.1726 0.94401,-2.1166 2.1166,-2.1166 z"
           fill="url(#linearGradient1242)"
           stroke="#7f7f7f"
           stroke-opacity="0.2"
           stroke-width="0.052916"
           id="path120"
           style="fill:url(#linearGradient1242)" />
        <g
           stroke-opacity="0.15"
           id="g140">
          <g
             stroke-width="0.052916"
             id="g136">
            <rect
               x="3.1749001"
               y="8.7924995"
               width="3.1749001"
               height="1.3229001"
               rx="0.26458001"
               ry="0.26458001"
               fill="none"
               stroke="#fdfdfd"
               id="rect122" />
            <rect
               x="3.1749001"
               y="7.2051001"
               width="3.1749001"
               height="1.3229001"
               rx="0.26458001"
               ry="0.26458001"
               fill="none"
               stroke="#fdfdfd"
               id="rect124" />
            <rect
               x="3.1749001"
               y="8.7311001"
               width="3.1749001"
               height="1.3229001"
               rx="0.26458001"
               ry="0.26458001"
               fill="#ce5801"
               stroke="#000000"
               id="rect126" />
            <rect
               x="3.1749001"
               y="5.6176"
               width="3.1749001"
               height="1.3229001"
               rx="0.26458001"
               ry="0.26458001"
               fill="none"
               stroke="#fdfdfd"
               id="rect128" />
            <rect
               x="3.1749001"
               y="7.1436"
               width="3.1749001"
               height="1.3229001"
               rx="0.26458001"
               ry="0.26458001"
               fill="#dd6d01"
               stroke="#000000"
               id="rect130" />
            <path
               d="m 4.7624,3.7656 c -0.81246,0 -1.4773,0.60462 -1.574,1.3901 0.030141,0.113 0.12838,0.1974 0.25114,0.1974 h 2.6458 c 0.12276,0 0.221,-0.084398 0.25114,-0.1974 C 6.239699,4.37025 5.57491,3.7656 4.76248,3.7656 Z"
               fill="none"
               stroke="#fdfdfd"
               id="path132" />
            <rect
               x="3.1749001"
               y="5.5560999"
               width="3.1749001"
               height="1.3229001"
               rx="0.26458001"
               ry="0.26458001"
               fill="#e57d00"
               stroke="#000000"
               id="rect134" />
          </g>
          <path
             transform="scale(0.26458)"
             d="m 18,14 c -3.0708,0 -5.5834,2.2852 -5.9492,5.2539 0.11392,0.4271 0.48524,0.74609 0.94922,0.74609 h 10 c 0.46398,0 0.8353,-0.31899 0.94922,-0.74609 C 23.58345,16.2852 21.07084,14 18.00004,14 Z"
             fill="#ed8b01"
             stroke="#000000"
             stroke-width="0.2"
             id="path138" />
        </g>
      </g>
      <g
         transform="rotate(30,5.1333,13.168)"
         id="g166">
        <path
           d="m 4.7624,3.1749 c 1.1726,0 2.1166,0.94401 2.1166,2.1166 v 6.3499 c 0,1.1726 -0.94401,2.1166 -2.1166,2.1166 -1.17259,0 -2.1166,-0.94402 -2.1166,-2.1166 V 5.2915 c 0,-1.1726 0.94401,-2.1166 2.1166,-2.1166 z"
           fill="url(#linearGradient1234)"
           stroke="#7f7f7f"
           stroke-opacity="0.2"
           stroke-width="0.052916"
           id="path144"
           style="fill:url(#linearGradient1234)" />
        <g
           stroke-opacity="0.15"
           id="g164">
          <g
             stroke-width="0.052916"
             id="g160">
            <rect
               x="3.1749001"
               y="8.7924995"
               width="3.1749001"
               height="1.3229001"
               rx="0.26458001"
               ry="0.26458001"
               fill="none"
               stroke="#fdfdfd"
               id="rect146" />
            <rect
               x="3.1749001"
               y="7.2051001"
               width="3.1749001"
               height="1.3229001"
               rx="0.26458001"
               ry="0.26458001"
               fill="none"
               stroke="#fdfdfd"
               id="rect148" />
            <rect
               x="3.1749001"
               y="8.7311001"
               width="3.1749001"
               height="1.3229001"
               rx="0.26458001"
               ry="0.26458001"
               fill="#d68f01"
               stroke="#000000"
               id="rect150" />
            <rect
               x="3.1749001"
               y="5.6176"
               width="3.1749001"
               height="1.3229001"
               rx="0.26458001"
               ry="0.26458001"
               fill="none"
               stroke="#fdfdfd"
               id="rect152" />
            <rect
               x="3.1749001"
               y="7.1436"
               width="3.1749001"
               height="1.3229001"
               rx="0.26458001"
               ry="0.26458001"
               fill="#e3a101"
               stroke="#000000"
               id="rect154" />
            <path
               d="m 4.7624,3.7656 c -0.81246,0 -1.4773,0.60462 -1.574,1.3901 0.030141,0.113 0.12838,0.1974 0.25114,0.1974 h 2.6458 c 0.12276,0 0.221,-0.084398 0.25114,-0.1974 C 6.239699,4.37025 5.57491,3.7656 4.76248,3.7656 Z"
               fill="none"
               stroke="#fdfdfd"
               id="path156" />
            <rect
               x="3.1749001"
               y="5.5560999"
               width="3.1749001"
               height="1.3229001"
               rx="0.26458001"
               ry="0.26458001"
               fill="#eaad01"
               stroke="#000000"
               id="rect158" />
          </g>
          <path
             transform="scale(0.26458)"
             d="m 18,14 c -3.0708,0 -5.5834,2.2852 -5.9492,5.2539 0.11392,0.4271 0.48524,0.74609 0.94922,0.74609 h 10 c 0.46398,0 0.8353,-0.31899 0.94922,-0.74609 C 23.58345,16.2852 21.07084,14 18.00004,14 Z"
             fill="#f2b800"
             stroke="#000000"
             stroke-width="0.2"
             id="path162" />
        </g>
      </g>
      <g
         transform="translate(0.79373)"
         id="g190">
        <path
           d="m 4.7624,3.1749 c 1.1726,0 2.1166,0.94401 2.1166,2.1166 v 6.3499 c 0,1.1726 -0.94401,2.1166 -2.1166,2.1166 -1.17259,0 -2.1166,-0.94402 -2.1166,-2.1166 V 5.2915 c 0,-1.1726 0.94401,-2.1166 2.1166,-2.1166 z"
           fill="url(#linearGradient1226)"
           stroke="#7f7f7f"
           stroke-opacity="0.2"
           stroke-width="0.052916"
           id="path168"
           style="fill:url(#linearGradient1226)" />
        <g
           stroke-opacity="0.15"
           id="g188">
          <g
             stroke-width="0.052916"
             id="g184">
            <rect
               x="3.1749001"
               y="8.7924995"
               width="3.1749001"
               height="1.3229001"
               rx="0.26458001"
               ry="0.26458001"
               fill="none"
               stroke="#fdfdfd"
               id="rect170" />
            <rect
               x="3.1749001"
               y="7.2051001"
               width="3.1749001"
               height="1.3229001"
               rx="0.26458001"
               ry="0.26458001"
               fill="none"
               stroke="#fdfdfd"
               id="rect172" />
            <rect
               x="3.1749001"
               y="8.7311001"
               width="3.1749001"
               height="1.3229001"
               rx="0.26458001"
               ry="0.26458001"
               fill="#29860a"
               stroke="#000000"
               id="rect174" />
            <rect
               x="3.1749001"
               y="5.6176"
               width="3.1749001"
               height="1.3229001"
               rx="0.26458001"
               ry="0.26458001"
               fill="none"
               stroke="#fdfdfd"
               id="rect176" />
            <rect
               x="3.1749001"
               y="7.1436"
               width="3.1749001"
               height="1.3229001"
               rx="0.26458001"
               ry="0.26458001"
               fill="#3b9a1a"
               stroke="#000000"
               id="rect178" />
            <path
               d="m 4.7624,3.7656 c -0.81246,0 -1.4773,0.60462 -1.574,1.3901 0.030141,0.113 0.12838,0.1974 0.25114,0.1974 h 2.6458 c 0.12276,0 0.221,-0.084398 0.25114,-0.1974 C 6.239699,4.37025 5.57491,3.7656 4.76248,3.7656 Z"
               fill="none"
               stroke="#fdfdfd"
               id="path180" />
            <rect
               x="3.1749001"
               y="5.5560999"
               width="3.1749001"
               height="1.3229001"
               rx="0.26458001"
               ry="0.26458001"
               fill="#4eaa2a"
               stroke="#000000"
               id="rect182" />
          </g>
          <path
             transform="scale(0.26458)"
             d="m 18,14 c -3.0708,0 -5.5834,2.2852 -5.9492,5.2539 0.11392,0.4271 0.48524,0.74609 0.94922,0.74609 h 10 c 0.46398,0 0.8353,-0.31899 0.94922,-0.74609 C 23.58345,16.2852 21.07084,14 18.00004,14 Z"
             fill="#5db837"
             stroke="#000000"
             stroke-width="0.2"
             id="path186" />
        </g>
      </g>
      <g
         transform="translate(0.79373)"
         id="g206">
        <circle
           cx="4.7624002"
           cy="11.906"
           r="1.3229001"
           fill="url(#radialGradient1076)"
           stroke-width="1.0162"
           id="circle192"
           style="fill:url(#radialGradient1076)" />
        <circle
           cx="4.7624002"
           cy="11.641"
           r="1.0583"
           fill="url(#linearGradient921)"
           stroke-width="0.81296"
           id="circle194"
           style="fill:url(#linearGradient921)" />
        <circle
           cx="4.7624002"
           cy="11.641"
           r="1.0583"
           fill="url(#radialGradient1043)"
           opacity="0.35"
           stroke-width="0.81296"
           id="circle196"
           style="fill:url(#radialGradient1043)" />
        <circle
           cx="4.7624002"
           cy="11.641"
           r="0.64420998"
           fill="url(#linearGradient925)"
           stroke-width="0.49486"
           id="circle198"
           style="fill:url(#linearGradient925)" />
        <circle
           cx="4.7624002"
           cy="11.641"
           r="0.40401"
           fill="url(#linearGradient929)"
           stroke-width="0.31034"
           id="circle200"
           style="fill:url(#linearGradient929)" />
        <path
           transform="scale(0.26458)"
           d="M 17.939,40 A 4,4 0 0 0 17.89408,40.002 3.7708,3.5 0 0 1 17.99955,40 4,4 0 0 0 17.939,40 Z m -0.04492,0.002 a 4,4 0 0 0 -0.16602,0.0078 3.7708,3.5 0 0 1 0.16602,-0.0078 z m -2.293,0.79688 a 4,4 0 0 0 -0.125,0.09961 3.7708,3.5 0 0 1 0.125,-0.09961 z m -0.125,0.09961 a 4,4 0 0 0 -1.4766,3.1015 4,4 0 0 0 4,4 4,4 0 0 0 4,-4 4,4 0 0 0 -1.5547,-3.1641 3.7708,3.5 0 0 1 1.3262,2.6641 3.7708,3.5 0 0 1 -3.7715,3.5 3.7708,3.5 0 0 1 -3.7715,-3.5 3.7708,3.5 0 0 1 1.248,-2.6016 z"
           fill="url(#radialGradient981)"
           filter="url(#filter1037)"
           stroke-width="3.0727"
           id="path202"
           style="fill:url(#radialGradient981)" />
        <path
           transform="scale(0.26458)"
           d="m 17.98,41.564 a 2.4349,2.4349 0 0 0 -2.416,2.4355 2.4349,2.4349 0 0 0 2.4355,2.4355 2.4349,2.4349 0 0 0 2.4355,-2.4355 2.4349,2.4349 0 0 0 -2.4355,-2.4355 2.4349,2.4349 0 0 0 -0.01953,0 z m -0.0293,0.43555 a 2,2 0 0 1 0.04883,0 2,2 0 0 1 2,2 2,2 0 0 1 -2,2 2,2 0 0 1 -2,-2 2,2 0 0 1 1.9512,-2 z"
           fill="url(#radialGradient1057)"
           opacity="0.35"
           stroke-width="1.8704"
           id="path204"
           style="fill:url(#radialGradient1057)" />
      </g>
    </g>
  </g>
  <metadata
     id="metadata214">
    <rdf:RDF>
      <cc:Work
         rdf:about="">
        <dc:format>image/svg+xml</dc:format>
        <dc:type
           rdf:resource="http://purl.org/dc/dcmitype/StillImage" />
        <dc:title></dc:title>
      </cc:Work>
    </rdf:RDF>
  </metadata>
  <sodipodi:namedview
     pagecolor="#ffffff"
     bordercolor="#666666"
     borderopacity="1"
     objecttolerance="10"
     gridtolerance="10"
     guidetolerance="10"
     inkscape:pageopacity="0"
     inkscape:pageshadow="2"
     inkscape:window-width="1920"
     inkscape:window-height="968"
     id="namedview212"
     showgrid="false"
     inkscape:zoom="6.2109375"
     inkscape:cx="17.125326"
     inkscape:cy="39.834154"
     inkscape:window-x="0"
     inkscape:window-y="36"
     inkscape:window-maximized="1"
     inkscape:current-layer="svg210"
     inkscape:document-rotation="0" />
  <defs
     id="defs80">
    <linearGradient
       id="linearGradient862-3"
       x1="7.9373"
       x2="7.9373"
       y1="15.081"
       y2="1.852"
       gradientTransform="matrix(.99997 0 0 .99997 3.7616e-5 .0083364)"
       gradientUnits="userSpaceOnUse">
      <stop
         stop-color="#f1efeb"
         offset="0"
         id="stop2" />
      <stop
         stop-color="#fdfcfc"
         offset="1"
         id="stop4" />
    </linearGradient>
    <linearGradient
       id="linearGradient921"
       x1="4.7162"
       x2="4.7162"
       y1="12.46"
       y2="10.806"
       gradientTransform="translate(0.031579,-0.025181)"
       gradientUnits="userSpaceOnUse">
      <stop
         stop-color="#8290ae"
         offset="0"
         id="stop7" />
      <stop
         stop-color="#fff"
         offset="1"
         id="stop9" />
    </linearGradient>
    <linearGradient
       id="linearGradient925"
       x1="4.7162"
       x2="4.7162"
       y1="12.56"
       y2="10.806"
       gradientTransform="matrix(0.60872,0,0,0.60872,1.8827,4.5398)"
       gradientUnits="userSpaceOnUse">
      <stop
         stop-color="#c0c6d4"
         offset="0"
         id="stop12" />
      <stop
         stop-color="#515769"
         offset="1"
         id="stop14" />
    </linearGradient>
    <linearGradient
       id="linearGradient929"
       x1="4.7162"
       x2="4.7162"
       y1="12.56"
       y2="10.806"
       gradientTransform="matrix(0.38175,0,0,0.38175,2.9564,7.1877)"
       gradientUnits="userSpaceOnUse">
      <stop
         stop-color="#2f323b"
         offset="0"
         id="stop17" />
      <stop
         stop-color="#111419"
         offset="1"
         id="stop19" />
    </linearGradient>
    <radialGradient
       id="radialGradient981"
       cx="18"
       cy="44"
       r="4"
       gradientTransform="translate(0,-6.3009e-4)"
       gradientUnits="userSpaceOnUse">
      <stop
         stop-color="#8290ae"
         offset="0"
         id="stop22" />
      <stop
         stop-color="#020403"
         offset=".75"
         id="stop24" />
      <stop
         stop-color="#2b402c"
         offset=".84466"
         id="stop26" />
      <stop
         stop-color="#3a5635"
         offset=".88874"
         id="stop28" />
      <stop
         stop-color="#4a8242"
         offset=".94376"
         id="stop30" />
      <stop
         stop-color="#010201"
         offset="1"
         id="stop32" />
    </radialGradient>
    <filter
       id="filter1037"
       x="-.012"
       y="-.012"
       width="1.024"
       height="1.024"
       color-interpolation-filters="sRGB">
      <feGaussianBlur
         stdDeviation="0.040000286"
         id="feGaussianBlur35" />
    </filter>
    <radialGradient
       id="radialGradient1043"
       cx="4.7624"
       cy="11.377"
       r="1.0583"
       gradientUnits="userSpaceOnUse">
      <stop
         stop-opacity="0"
         offset="0"
         id="stop38" />
      <stop
         stop-opacity="0"
         offset=".70384"
         id="stop40" />
      <stop
         offset="1"
         id="stop42" />
    </radialGradient>
    <radialGradient
       id="radialGradient1057"
       cx="4.7624"
       cy="11.641"
       r=".64421"
       gradientTransform="scale(3.7796)"
       gradientUnits="userSpaceOnUse">
      <stop
         stop-opacity="0"
         offset="0"
         id="stop45" />
      <stop
         stop-opacity="0"
         offset=".8214"
         id="stop47" />
      <stop
         offset="1"
         id="stop49" />
    </radialGradient>
    <radialGradient
       id="radialGradient1076"
       cx="4.7624"
       cy="11.641"
       r="1.0583"
       gradientTransform="matrix(1.25,0,0,1.25,-1.1906,-2.6458)"
       gradientUnits="userSpaceOnUse">
      <stop
         offset="0"
         id="stop52" />
      <stop
         stop-color="#111419"
         stop-opacity="0"
         offset="1"
         id="stop54" />
    </radialGradient>
    <linearGradient
       id="linearGradient1226"
       x1="4.7624"
       x2="4.7624"
       y1="12.725"
       y2="3.9687"
       gradientUnits="userSpaceOnUse">
      <stop
         stop-color="#4dae33"
         offset="0"
         id="stop57" />
      <stop
         stop-color="#6fc84a"
         offset="1"
         id="stop59" />
    </linearGradient>
    <linearGradient
       id="linearGradient1234"
       x1="4.7624"
       x2="4.7624"
       y1="12.171"
       y2="3.7041"
       gradientUnits="userSpaceOnUse">
      <stop
         stop-color="#fcaa00"
         offset="0"
         id="stop62" />
      <stop
         stop-color="#fdc500"
         offset="1"
         id="stop64" />
    </linearGradient>
    <linearGradient
       id="linearGradient1242"
       x1="4.7624"
       x2="4.7624"
       y1="12.435"
       y2="3.7041"
       gradientUnits="userSpaceOnUse">
      <stop
         stop-color="#f36d01"
         offset="0"
         id="stop67" />
      <stop
         stop-color="#f69901"
         offset="1"
         id="stop69" />
    </linearGradient>
    <linearGradient
       id="linearGradient1250"
       x1="4.7624"
       x2="4.7624"
       y1="12.435"
       y2="3.7041"
       gradientTransform="rotate(90,5.19,12.069)"
       gradientUnits="userSpaceOnUse">
      <stop
         stop-color="#db2f2f"
         offset="0"
         id="stop72" />
      <stop
         stop-color="#e54243"
         offset="1"
         id="stop74" />
    </linearGradient>
    <filter
       id="filter1275"
       x="-.10778"
       y="-.10822"
       width="1.2156"
       height="1.2164"
       color-interpolation-filters="sRGB">
      <feGaussianBlur
         stdDeviation="0.47804664"
         id="feGaussianBlur77" />
    </filter>
    <filter
       id="filter883"
       x="-.05999"
       y="-.06001"
       width="1.12"
       height="1.12"
       color-interpolation-filters="sRGB">
      <feGaussianBlur
         stdDeviation="0.21163584"
         id="feGaussianBlur1041" />
    </filter>
    <linearGradient
       id="linearGradient1448"
       x1="3.9687"
       x2="3.9687"
       y1="16.404"
       y2="2.6458"
       gradientTransform="matrix(0.91665735,0,0,0.91665735,3.4835785,-4.9831126)"
       gradientUnits="userSpaceOnUse">
      <stop
         stop-color="#dcdcdc"
         offset="0"
         id="stop1044" />
      <stop
         stop-color="#f0f0f0"
         offset="1"
         id="stop1046" />
    </linearGradient>
    <filter
       id="filter861"
       x="-.027"
       y="-.027"
       width="1.054"
       height="1.054"
       color-interpolation-filters="sRGB">
      <feGaussianBlur
         stdDeviation="0.16371"
         id="feGaussianBlur1049" />
    </filter>
    <linearGradient
       id="a-3"
       x1="32"
       x2="32"
       y1="2"
       y2="62"
       gradientTransform="matrix(0.26457812,0,0,0.26457812,18.059341,-8.4970129)"
       gradientUnits="userSpaceOnUse">
      <stop
         stop-color="#f5faff"
         offset="0"
         id="stop10" />
      <stop
         stop-color="#cfdef0"
         offset="1"
         id="stop12-3" />
    </linearGradient>
  </defs>
</svg>
