<?xml version="1.0" encoding="UTF-8"?>
<!-- Created with Inkscape (http://www.inkscape.org/) -->
<svg width="64" height="64" version="1.1" viewBox="0 0 16.933 16.933" xmlns="http://www.w3.org/2000/svg" xmlns:cc="http://creativecommons.org/ns#" xmlns:dc="http://purl.org/dc/elements/1.1/" xmlns:rdf="http://www.w3.org/1999/02/22-rdf-syntax-ns#" xmlns:xlink="http://www.w3.org/1999/xlink">
 <defs>
  <linearGradient id="linearGradient1005-6" x1=".73911" x2="16.388" y1="16.296" y2=".64687" gradientTransform="matrix(.91665 0 0 .91665 .67327 .71162)" gradientUnits="userSpaceOnUse">
   <stop stop-color="#cfdef0" offset="0"/>
   <stop stop-color="#f5faff" offset=".49575"/>
   <stop stop-color="#f5faff" offset="1"/>
  </linearGradient>
 </defs>
 <metadata>
  <rdf:RDF>
   <cc:Work rdf:about="">
    <dc:format>image/svg+xml</dc:format>
    <dc:type rdf:resource="http://purl.org/dc/dcmitype/StillImage"/>
    <dc:title/>
   </cc:Work>
  </rdf:RDF>
 </metadata>
 <path d="m15.742 8.4664c0 0.87223-0.15353 1.7085-0.43508 2.4836-0.19571 0.5387-0.45318 1.048-0.76442 1.5191-0.13037 0.19807-0.27054 0.38935-0.41933 0.57317-0.47634 0.5883-1.0424 1.1006-1.6779 1.5164-0.23402 0.15324-0.47725 0.29342-0.72907 0.41902-0.97788 0.48939-2.0818 0.76468-3.2501 0.76468s-2.2722-0.27529-3.2501-0.7647c-0.25184-0.12563-0.49536-0.2658-0.72938-0.41902-0.64355-0.42141-1.2164-0.94176-1.6966-1.5398-0.14907-0.18531-0.28896-0.37835-0.41933-0.5782-0.30292-0.46327-0.55385-0.96312-0.74569-1.4914-0.28151-0.77483-0.43477-1.6108-0.43477-2.4827 0-4.0184 3.2575-7.2759 7.2759-7.2759 2.0171 0 3.8423 0.82084 5.1603 2.1465 0.37982 0.38189 0.7175 0.806 1.0049 1.2645 0.27174 0.43181 0.49891 0.89448 0.67561 1.3812 0.28158 0.77511 0.4351 1.6114 0.4351 2.4836z" fill="url(#linearGradient1005-6)" stroke-width=".028422"/>
 <g transform="translate(-21.834 .89695)" fill="#5e4aa6" stroke-width=".26458">
  <circle cx="-330.35" cy="-328.38" r="0"/>
  <circle cx="-312.11" cy="-326.25" r="0"/>
  <circle cx="-306.02" cy="-333.07" r="0"/>
  <circle cx="-308.84" cy="-326.01" r="0"/>
 </g>
 <path d="m4.0676 4.6213-0.18198 0.54747 1.8474 0.74102-1.8474 0.74102 0.18198 0.54747 2.3768-1.0065v-0.56406zm2.3734 3.3291v0.56712h2.8356v-0.56712z" enable-background="new" fill="#373737"/>
</svg>
