<?xml version="1.0" encoding="UTF-8" standalone="no"?>
<svg
   xmlns:dc="http://purl.org/dc/elements/1.1/"
   xmlns:cc="http://creativecommons.org/ns#"
   xmlns:rdf="http://www.w3.org/1999/02/22-rdf-syntax-ns#"
   xmlns:svg="http://www.w3.org/2000/svg"
   xmlns="http://www.w3.org/2000/svg"
   xmlns:xlink="http://www.w3.org/1999/xlink"
   xmlns:sodipodi="http://sodipodi.sourceforge.net/DTD/sodipodi-0.dtd"
   xmlns:inkscape="http://www.inkscape.org/namespaces/inkscape"
   width="64"
   height="64"
   version="1.1"
   viewBox="0 0 16.933 16.933"
   id="svg39"
   sodipodi:docname="vidcutter.svg"
   inkscape:version="1.0.1 (3bc2e813f5, 2020-09-07)">
  <metadata
     id="metadata43">
    <rdf:RDF>
      <cc:Work
         rdf:about="">
        <dc:format>image/svg+xml</dc:format>
        <dc:type
           rdf:resource="http://purl.org/dc/dcmitype/StillImage" />
        <dc:title></dc:title>
      </cc:Work>
    </rdf:RDF>
  </metadata>
  <sodipodi:namedview
     pagecolor="#ffffff"
     bordercolor="#666666"
     borderopacity="1"
     objecttolerance="10"
     gridtolerance="10"
     guidetolerance="10"
     inkscape:pageopacity="0"
     inkscape:pageshadow="2"
     inkscape:window-width="1920"
     inkscape:window-height="1004"
     id="namedview41"
     showgrid="false"
     inkscape:zoom="3.1054687"
     inkscape:cx="-2.4618152"
     inkscape:cy="13.876138"
     inkscape:window-x="0"
     inkscape:window-y="0"
     inkscape:window-maximized="1"
     inkscape:current-layer="svg39"
     inkscape:document-rotation="0" />
  <defs
     id="defs19">
    <linearGradient
       id="linearGradient851">
      <stop
         stop-color="#fff"
         offset="0"
         id="stop2" />
      <stop
         stop-color="#a3d0df"
         offset="1"
         id="stop4" />
    </linearGradient>
    <linearGradient
       id="linearGradient862"
       x1="7.9373"
       x2="7.9373"
       y1="15.081"
       y2="1.852"
       gradientUnits="userSpaceOnUse"
       gradientTransform="translate(-42.691027,-1.3527719)">
      <stop
         stop-color="#3fbefb"
         offset="0"
         id="stop7" />
      <stop
         stop-color="#8073f8"
         offset="1"
         id="stop9" />
    </linearGradient>
    <linearGradient
       id="linearGradient853"
       x1="6.879"
       x2="6.879"
       y1="6.3499"
       y2="10.583"
       gradientTransform="matrix(1.2 0 0 1.2222 -1.1642 -1.8814)"
       gradientUnits="userSpaceOnUse"
       xlink:href="#linearGradient851" />
    <linearGradient
       id="linearGradient861"
       x1="11.112"
       x2="11.112"
       y1="6.6145"
       y2="10.319"
       gradientTransform="matrix(1.4257 0 0 1.4257 -3.5989 -3.6043)"
       gradientUnits="userSpaceOnUse"
       xlink:href="#linearGradient851" />
    <linearGradient
       id="linearGradient1007"
       x1="46"
       x2="46"
       y1="60"
       y2="30"
       gradientTransform="matrix(0.26458,0,0,0.26458,-20.637907,-3.7406507)"
       gradientUnits="userSpaceOnUse">
      <stop
         stop-color="#1e1e1e"
         offset="0"
         id="stop14" />
      <stop
         stop-color="#3c3c3c"
         offset="1"
         id="stop16" />
    </linearGradient>
    <linearGradient
       id="b"
       x1="399.57"
       x2="399.57"
       y1="545.8"
       y2="517.8"
       gradientTransform="matrix(0.56696445,0,0,0.56696445,-218.63654,-293.02036)"
       gradientUnits="userSpaceOnUse">
      <stop
         stop-color="#3889e9"
         offset="0"
         id="stop869" />
      <stop
         stop-color="#5ea5fb"
         offset="1"
         id="stop871" />
    </linearGradient>
    <linearGradient
       id="linearGradient873"
       x1="-45.602"
       x2="-33.697"
       y1="-2.1742"
       y2="6.0465"
       gradientTransform="matrix(0.99998277,0,0,0.91665089,49.174859,6.9661138)"
       gradientUnits="userSpaceOnUse">
      <stop
         stop-color="#28afea"
         offset="0"
         id="stop874" />
      <stop
         stop-color="#838be4"
         offset="1"
         id="stop876" />
    </linearGradient>
  </defs>
  <path
     id="rect1063"
     style="fill:#2b1038;fill-opacity:1;stroke-width:0.529156;stroke-linecap:round"
     d="m 1.2567462,1.1906015 c -0.40307812,0 -0.7275898,0.3245118 -0.7275898,0.7275899 V 15.014808 c 0,0.403078 0.32451168,0.72759 0.7275898,0.72759 H 15.676254 c 0.403078,0 0.72759,-0.324512 0.72759,-0.72759 V 1.9181914 c 0,-0.4030781 -0.324512,-0.7275899 -0.72759,-0.7275899 z" />
  <circle
     cx="8.4720259"
     cy="8.4780483"
     r="0"
     fill="url(#b)"
     stroke-width="0.415785"
     id="circle881"
     style="fill:url(#b)" />
  <circle
     cx="-269.68423"
     cy="-318.02298"
     r="0"
     fill="#5e4aa6"
     id="circle883"
     style="stroke-width:0.264578" />
  <rect
     x="22.060099"
     y="1.1906016"
     width="15.874687"
     height="14.551797"
     ry="0.72757769"
     fill="url(#linearGradient873)"
     stroke-width="1.01404"
     id="rect885"
     style="fill:#2b1038;fill-opacity:1" />
  <g
     id="g1059"
     transform="translate(0,-0.10320619)">
    <g
       id="g997"
       transform="translate(0.23916502,-1.8141181)">
      <rect
         x="-5.1241331"
         y="1.5789326"
         width="1.5066367"
         height="1.5066367"
         ry="0.21523382"
         id="rect895"
         style="fill:#ffffff;stroke-width:0.215234"
         transform="rotate(-90)" />
      <rect
         x="-5.1241331"
         y="4.5264745"
         width="1.5066367"
         height="1.5066367"
         ry="0.21523382"
         id="rect897"
         style="fill:#ffffff;stroke-width:0.215234"
         transform="rotate(-90)" />
      <rect
         x="-5.1241331"
         y="7.4740167"
         width="1.5066367"
         height="1.5066367"
         ry="0.21523382"
         id="rect899"
         style="fill:#ffffff;stroke-width:0.215234"
         transform="rotate(-90)" />
      <rect
         x="-5.1241331"
         y="10.421558"
         width="1.5066367"
         height="1.5066367"
         ry="0.21523382"
         id="rect901"
         style="fill:#ffffff;stroke-width:0.215234"
         transform="rotate(-90)" />
      <rect
         x="-5.1241331"
         y="13.369101"
         width="1.5066367"
         height="1.5066367"
         ry="0.21523382"
         id="rect990"
         style="fill:#ffffff;stroke-width:0.215234"
         transform="rotate(-90)" />
    </g>
    <g
       id="g1009"
       transform="translate(0.23916502,10.211901)">
      <rect
         x="-5.1241331"
         y="1.5789326"
         width="1.5066367"
         height="1.5066367"
         ry="0.21523382"
         id="rect999"
         style="fill:#ffffff;stroke-width:0.215234"
         transform="rotate(-90)" />
      <rect
         x="-5.1241331"
         y="4.5264745"
         width="1.5066367"
         height="1.5066367"
         ry="0.21523382"
         id="rect1001"
         style="fill:#ffffff;stroke-width:0.215234"
         transform="rotate(-90)" />
      <rect
         x="-5.1241331"
         y="7.4740167"
         width="1.5066367"
         height="1.5066367"
         ry="0.21523382"
         id="rect1003"
         style="fill:#ffffff;stroke-width:0.215234"
         transform="rotate(-90)" />
      <rect
         x="-5.1241331"
         y="10.421558"
         width="1.5066367"
         height="1.5066367"
         ry="0.21523382"
         id="rect1005"
         style="fill:#ffffff;stroke-width:0.215234"
         transform="rotate(-90)" />
      <rect
         x="-5.1241331"
         y="13.369101"
         width="1.5066367"
         height="1.5066367"
         ry="0.21523382"
         id="rect1007"
         style="fill:#ffffff;stroke-width:0.215234"
         transform="rotate(-90)" />
    </g>
  </g>
  <circle
     style="fill:#642c68;fill-opacity:1;stroke-width:0.632852;stroke-linecap:round"
     id="path1070"
     cx="8.4665003"
     cy="8.4665003"
     r="4.2332501" />
  <path
     d="m 5.8210435,10.095107 c 0,0.561528 0.4557094,1.017237 1.0172375,1.017237 0.561978,0 1.017575,-0.455571 1.017575,-1.017575 0,-0.1815633 -0.056584,-0.3484783 -0.1399164,-0.4960573 L 8.466631,8.7970864 9.21706,9.5983747 c -0.083332,0.147578 -0.1399165,0.314493 -0.1399165,0.4960573 0,0.561528 0.4557099,1.017238 1.0178995,1.017238 0.561528,0 1.017238,-0.45571 1.017238,-1.017238 0,-0.5619783 -0.455573,-1.0175753 -1.017575,-1.0175753 -0.09327,0 -0.1812885,0.014649 -0.2671085,0.038135 L 8.9881489,8.25007 10.705292,6.4311817 V 5.8206563 h -0.407011 l -3.1925539,3.294298 c -0.08582,-0.023524 -0.1738268,-0.038135 -0.2671086,-0.038135 -0.5621904,0 -1.0179,0.4557094 -1.0179,1.0178997 z m 0.610525,0 c 0,-0.2247863 0.1822263,-0.4070133 0.4070125,-0.4070133 0.2247862,0 0.4070125,0.182227 0.4070125,0.4070133 0,0.224786 -0.1822263,0.407013 -0.4070125,0.407013 -0.2247862,0 -0.4070125,-0.182227 -0.4070125,-0.407013 z M 6.228056,6.4319566 7.741713,8.0346082 8.263206,7.5004034 6.635181,5.8213813 H 6.2281685 Z m 3.4596624,3.6631504 c 0,-0.2247863 0.182226,-0.4070133 0.4070126,-0.4070133 0.224786,0 0.407012,0.182227 0.407012,0.4070133 0,0.224786 -0.182226,0.407013 -0.407012,0.407013 -0.2247866,0 -0.4070126,-0.182227 -0.4070126,-0.407013 z"
     fill="#ffffff"
     stroke-width="0.330705"
     id="path37" />
</svg>
