<?xml version="1.0" encoding="UTF-8" standalone="no"?>
<svg
   xmlns:dc="http://purl.org/dc/elements/1.1/"
   xmlns:cc="http://creativecommons.org/ns#"
   xmlns:rdf="http://www.w3.org/1999/02/22-rdf-syntax-ns#"
   xmlns:svg="http://www.w3.org/2000/svg"
   xmlns="http://www.w3.org/2000/svg"
   xmlns:xlink="http://www.w3.org/1999/xlink"
   xmlns:sodipodi="http://sodipodi.sourceforge.net/DTD/sodipodi-0.dtd"
   xmlns:inkscape="http://www.inkscape.org/namespaces/inkscape"
   id="App-Store"
   width="64"
   height="64"
   enable-background="new 0 0 1024 1024"
   image-rendering="optimizeSpeed"
   version="1.1"
   viewBox="0 0 64 64"
   sodipodi:docname="vmware-player.svg"
   inkscape:version="1.0.1 (3bc2e813f5, 2020-09-07)">
  <metadata
     id="metadata41">
    <rdf:RDF>
      <cc:Work
         rdf:about="">
        <dc:format>image/svg+xml</dc:format>
        <dc:type
           rdf:resource="http://purl.org/dc/dcmitype/StillImage" />
        <dc:title></dc:title>
      </cc:Work>
    </rdf:RDF>
  </metadata>
  <sodipodi:namedview
     pagecolor="#ffffff"
     bordercolor="#666666"
     borderopacity="1"
     objecttolerance="10"
     gridtolerance="10"
     guidetolerance="10"
     inkscape:pageopacity="0"
     inkscape:pageshadow="2"
     inkscape:window-width="1920"
     inkscape:window-height="1004"
     id="namedview39"
     showgrid="false"
     inkscape:zoom="4.5906698"
     inkscape:cx="62.381201"
     inkscape:cy="27.201827"
     inkscape:window-x="0"
     inkscape:window-y="0"
     inkscape:window-maximized="1"
     inkscape:current-layer="App-Store"
     inkscape:document-rotation="0" />
  <defs
     id="defs18">
    <linearGradient
       inkscape:collect="always"
       id="linearGradient1664">
      <stop
         style="stop-color:#ffeb37;stop-opacity:1"
         offset="0"
         id="stop1660" />
      <stop
         style="stop-color:#fdc31c;stop-opacity:1"
         offset="1"
         id="stop1662" />
    </linearGradient>
    <filter
       id="g"
       x="-.036"
       y="-.036"
       width="1.072"
       height="1.072"
       color-interpolation-filters="sRGB">
      <feGaussianBlur
         stdDeviation="14.16"
         id="feGaussianBlur2" />
    </filter>
    <linearGradient
       id="a"
       x1="400.51"
       x2="400.7"
       y1="546.07"
       y2="517.77"
       gradientTransform="matrix(2.1429,0,0,2.1429,-819.56424,-1140.0685)"
       gradientUnits="userSpaceOnUse">
      <stop
         stop-color="#ff9300"
         offset="0"
         id="stop5" />
      <stop
         stop-color="#ffd702"
         offset="1"
         id="stop7" />
    </linearGradient>
    <clipPath
       id="c">
      <g
         transform="translate(0 -1004.4)"
         id="g12">
        <path
           transform="matrix(15.333 0 0 11.5 415 878.86)"
           d="m-24 13c0 1.105-0.672 2-1.5 2s-1.5-0.895-1.5-2 0.672-2 1.5-2 1.5 0.895 1.5 2z"
           fill="#1890d0"
           id="path10" />
      </g>
    </clipPath>
    <filter
       id="b"
       x="-.06"
       y="-.06"
       width="1.12"
       height="1.12"
       color-interpolation-filters="sRGB">
      <feGaussianBlur
         stdDeviation="0.6"
         id="feGaussianBlur15" />
    </filter>
    <filter
       id="filter968"
       x="-.12009"
       y="-.12009"
       width="1.2402"
       height="1.2402"
       color-interpolation-filters="sRGB">
      <feGaussianBlur
         stdDeviation="0.066194553"
         id="feGaussianBlur868" />
    </filter>
    <filter
       id="filter1016"
       x="-.036858"
       y="-.17692"
       width="1.0737"
       height="1.3538"
       color-interpolation-filters="sRGB">
      <feGaussianBlur
         stdDeviation="0.097518237"
         id="feGaussianBlur871" />
    </filter>
    <filter
       id="filter1024"
       x="-.10615"
       y="-.50953"
       width="1.2123"
       height="2.0191"
       color-interpolation-filters="sRGB">
      <feGaussianBlur
         stdDeviation="0.28085546"
         id="feGaussianBlur874" />
    </filter>
    <linearGradient
       id="linearGradient1154"
       x1="-184.76"
       x2="-170.21"
       y1="-15.818"
       y2="-1.2664"
       gradientTransform="matrix(3.779602,0,0,3.779602,623.84797,91.918219)"
       gradientUnits="userSpaceOnUse">
      <stop
         stop-color="#fed54f"
         offset="0"
         id="stop877" />
      <stop
         stop-color="#ffbb4d"
         offset="1"
         id="stop879" />
    </linearGradient>
    <linearGradient
       id="linearGradient1190"
       x1="-38.893"
       x2="-38.893"
       y1="8.9957"
       y2="10.583"
       gradientTransform="matrix(3.6284179,0,0,3.1496557,93.671863,14.830969)"
       gradientUnits="userSpaceOnUse">
      <stop
         stop-color="#c6d4e7"
         offset="0"
         id="stop882" />
      <stop
         stop-color="#d8e5f8"
         offset=".097346"
         id="stop884" />
      <stop
         stop-color="#fff"
         offset=".20734"
         id="stop886" />
      <stop
         stop-color="#f1f4f5"
         offset=".49769"
         id="stop888" />
      <stop
         stop-color="#a1aab0"
         offset=".73738"
         id="stop890" />
      <stop
         stop-color="#a2abb0"
         offset=".78932"
         id="stop892" />
      <stop
         stop-color="#a2a7a2"
         offset=".94113"
         id="stop894" />
      <stop
         stop-color="#d6d1b4"
         offset="1"
         id="stop896" />
    </linearGradient>
    <filter
       id="filter1221"
       x="-.018237"
       y="-.035087"
       width="1.0365"
       height="1.0702"
       color-interpolation-filters="sRGB">
      <feGaussianBlur
         stdDeviation="0.096503745"
         id="feGaussianBlur899" />
    </filter>
    <filter
       id="filter1227"
       x="-.021559"
       y="-.027064"
       width="1.0431"
       height="1.0541"
       color-interpolation-filters="sRGB">
      <feGaussianBlur
         stdDeviation="0.1140825"
         id="feGaussianBlur902" />
    </filter>
    <filter
       id="filter1233"
       x="-.024"
       y="-.024"
       width="1.048"
       height="1.048"
       color-interpolation-filters="sRGB">
      <feGaussianBlur
         stdDeviation="0.1269975"
         id="feGaussianBlur905" />
    </filter>
    <linearGradient
       id="linearGradient4436">
      <stop
         stop-color="#fee8c2"
         offset="0"
         id="stop1061" />
      <stop
         stop-color="#fff9f2"
         offset=".56878"
         id="stop1063" />
      <stop
         stop-color="#fff"
         offset=".74339"
         id="stop1065" />
      <stop
         stop-color="#f9efe5"
         offset="1"
         id="stop1067" />
    </linearGradient>
    <clipPath
       id="clipPath13429">
      <path
         d="m481 318h22v22h-22z"
         id="path1070" />
    </clipPath>
    <clipPath
       id="clipPath13465">
      <path
         d="m507 318h22v22h-22z"
         id="path1073" />
    </clipPath>
    <clipPath
       id="clipPath13501">
      <path
         d="m530 318h22v22h-22z"
         id="path1076" />
    </clipPath>
    <clipPath
       id="clipPath13753">
      <path
         d="m672 1064c0-1.105 4.925-2 11-2s11 0.895 11 2-4.925 2-11 2-11-0.895-11-2"
         id="path1079" />
    </clipPath>
    <clipPath
       id="clipPath13771">
      <path
         d="m660 1057h51v65.001h-51z"
         id="path1082" />
    </clipPath>
    <clipPath
       id="clipPath14035">
      <path
         d="m659 517h53v18h-53z"
         id="path1085" />
    </clipPath>
    <clipPath
       id="clipPath14127">
      <path
         d="m659 500h53v18h-53z"
         id="path1088" />
    </clipPath>
    <clipPath
       id="clipPath14445">
      <path
         d="m648 112h73v60h-73z"
         id="path1091" />
    </clipPath>
    <clipPath
       id="clipPath14609">
      <path
         d="m826 1056h59v60h-59z"
         id="path1094" />
    </clipPath>
    <clipPath
       id="clipPath15305">
      <path
         d="m805 276h100v100h-100z"
         id="path1097" />
    </clipPath>
    <clipPath
       id="clipPath15341">
      <path
         d="m145 1063.8h74.152v45.21h-74.152z"
         id="path1100" />
    </clipPath>
    <clipPath
       id="clipPath15715">
      <path
         d="m151 667h57v57h-57z"
         id="path1103" />
    </clipPath>
    <clipPath
       id="clipPath15807">
      <path
         d="m154 697h51v51h-51z"
         id="path1106" />
    </clipPath>
    <clipPath
       id="clipPath16001">
      <path
         d="m500.04 864.45h36.012v67.52h-36.012z"
         id="path1109" />
    </clipPath>
    <clipPath
       id="clipPath16093">
      <path
         d="m836 870.54h47v55.539h-47z"
         id="path1112" />
    </clipPath>
    <clipPath
       id="clipPath16477">
      <path
         d="m318.03 702.35h62.848v37.991h-62.848z"
         id="path1115" />
    </clipPath>
    <clipPath
       id="clipPath16579">
      <path
         d="m485.03 133.35h62.847v37.991h-62.847z"
         id="path1118" />
    </clipPath>
    <clipPath
       id="clipPath16709">
      <path
         d="m493.37 677.93h45.643v68.067h-45.643z"
         id="path1121" />
    </clipPath>
    <clipPath
       id="clipPath24218">
      <path
         d="m144.34 1018.2h71.467v78h-71.467z"
         id="path1124" />
    </clipPath>
    <clipPath
       id="clipPath24382">
      <path
         d="m293.21 1068.6 66.323-38.292 36.047 62.435-66.323 38.292z"
         id="path1127" />
    </clipPath>
    <clipPath
       id="clipPath24650">
      <path
         d="m488.86 1054.5h10v10.706h-10z"
         id="path1130" />
    </clipPath>
    <clipPath
       id="clipPath24700">
      <path
         d="m508 1066.8h10.001v10.705h-10.001z"
         id="path1133" />
    </clipPath>
    <clipPath
       id="clipPath24750">
      <path
         d="m525 1045.8h10v10.706h-10z"
         id="path1136" />
    </clipPath>
    <clipPath
       id="clipPath24864">
      <path
         d="m836 1043.7h25.5v31.5h-25.5z"
         id="path1139" />
    </clipPath>
    <clipPath
       id="clipPath24896">
      <path
         d="m838 1062.2h24v24h-24z"
         id="path1142" />
    </clipPath>
    <clipPath
       id="clipPath25070">
      <path
         d="m134 489.24h7v6h-7z"
         id="path1145" />
    </clipPath>
    <clipPath
       id="clipPath25100">
      <path
         d="m216 489.24h7v6h-7z"
         id="path1148" />
    </clipPath>
    <clipPath
       id="clipPath25502">
      <path
         d="m838 477.24h22v22h-22z"
         id="path1151" />
    </clipPath>
    <clipPath
       id="clipPath25686">
      <path
         d="m704 1061.2h25v25h-25z"
         id="path1154" />
    </clipPath>
    <clipPath
       id="clipPath25788">
      <path
         d="m663.04 1078.6-1.808-3.514-21.07-47.453c13.336-18.439 48.336-26.938 73.836-3.439 0.842 0 6.476 6.246 6 7l-18.386 25.895c-0.483 0.765-1.453 0.946-2.177 0.431l-15.505-11.011c-0.359-0.255-0.847-0.153-1.07 0.238l-18.272 31.869c-0.218 0.384-0.502 0.578-0.782 0.578-0.282 0-0.561-0.197-0.766-0.594"
         id="path1157" />
    </clipPath>
    <clipPath
       id="clipPath26420">
      <path
         d="m127 820.24h100v100h-100z"
         id="path1160" />
    </clipPath>
    <clipPath
       id="clipPath26860">
      <path
         d="m809 680.24c0-22.092 17.908-40 40-40s40 17.908 40 40c0 22.091-17.908 40-40 40s-40-17.909-40-40"
         id="path1163" />
    </clipPath>
    <clipPath
       id="clipPath27506">
      <path
         d="m658 469.24h44v45h-44z"
         id="path1166" />
    </clipPath>
    <clipPath
       id="clipPath27772">
      <path
         d="m651 271.24h58v58h-58z"
         id="path1169" />
    </clipPath>
    <clipPath
       id="clipPath27864">
      <path
         d="m662 307.24h38v8h-38z"
         id="path1172" />
    </clipPath>
    <clipPath
       id="clipPath28028">
      <path
         d="m858.98 137.24c0.013-0.101 0.021-0.203 0.021-0.307v-6.693h15.75c1.237 0 2.25-1.013 2.25-2.25v-11.25l-27-4.5-27 4.5v-2.25l27-4.5 27 4.5v-27c0-1.237-1.013-2.25-2.25-2.25h-49.5c-1.237 0-2.25 1.013-2.25 2.25v-4.25h54v54zm-35.979 0v-9.25c0 1.237 1.013 2.25 2.25 2.25h15.75v6.693c0 0.104 7e-3 0.207 0.02 0.307zm22.5-7h9v4.5h-9zm1.125-9c-0.62 0-1.125-0.506-1.125-1.125v-2.25c0-0.619 0.505-1.125 1.125-1.125h6.75c0.619 0 1.125 0.506 1.125 1.125v2.25c0 0.619-0.506 1.125-1.125 1.125z"
         id="path1175" />
    </clipPath>
    <clipPath
       id="clipPath28200">
      <path
         d="m531.27 136.24c6.325-2.29 10.727-8.277 10.727-15.484 0-11.316-10.2-20.563-25.65-34.575l-4.35-3.941-4.35 3.941c-15.45 14.012-25.65 23.259-25.65 34.575v-39.516h60v55zm-26.983 0c2.995-1.052 5.686-2.883 7.71-5.25 2.024 2.367 4.715 4.198 7.71 5.25zm-22.29 0v-15.484c0 7.207 4.402 13.194 10.727 15.484z"
         id="path1178" />
    </clipPath>
    <clipPath
       id="clipPath28364">
      <path
         d="m648 79.241h64v64h-64z"
         id="path1181" />
    </clipPath>
    <clipPath
       id="clipPath28984">
      <path
         d="m500 691.74c0-3.037 2.463-5.5 5.5-5.5s5.5 2.463 5.5 5.5-2.463 5.5-5.5 5.5-5.5-2.463-5.5-5.5"
         id="path1184" />
    </clipPath>
    <clipPath
       id="clipPath29012">
      <path
         d="m500 669.74c0-3.037 2.463-5.5 5.5-5.5s5.5 2.463 5.5 5.5c0 3.038-2.463 5.5-5.5 5.5s-5.5-2.462-5.5-5.5"
         id="path1187" />
    </clipPath>
    <clipPath
       id="clipPath29040">
      <path
         d="m494 680.74c0-3.037 2.462-5.5 5.5-5.5s5.5 2.463 5.5 5.5c0 3.038-2.462 5.5-5.5 5.5s-5.5-2.462-5.5-5.5"
         id="path1190" />
    </clipPath>
    <clipPath
       id="clipPath29068">
      <path
         d="m513 691.74c0-3.037 2.463-5.5 5.5-5.5s5.5 2.463 5.5 5.5-2.463 5.5-5.5 5.5-5.5-2.463-5.5-5.5"
         id="path1193" />
    </clipPath>
    <clipPath
       id="clipPath29096">
      <path
         d="m513 669.74c0-3.037 2.463-5.5 5.5-5.5s5.5 2.463 5.5 5.5c0 3.038-2.463 5.5-5.5 5.5s-5.5-2.462-5.5-5.5"
         id="path1196" />
    </clipPath>
    <clipPath
       id="clipPath29124">
      <path
         d="m507 680.74c0-3.037 2.463-5.5 5.5-5.5s5.5 2.463 5.5 5.5c0 3.038-2.463 5.5-5.5 5.5s-5.5-2.462-5.5-5.5"
         id="path1199" />
    </clipPath>
    <clipPath
       id="clipPath29152">
      <path
         d="m520 680.74c0-3.037 2.463-5.5 5.5-5.5s5.5 2.463 5.5 5.5c0 3.038-2.463 5.5-5.5 5.5s-5.5-2.462-5.5-5.5"
         id="path1202" />
    </clipPath>
    <clipPath
       id="clipPath29252">
      <path
         d="m321 322.24c-4.97 0-9-4.029-9-9 0-4.97 4.03-9 9-9h45c4.971 0 9 4.03 9 9 0 4.971-4.029 9-9 9z"
         id="path1205" />
    </clipPath>
    <clipPath
       id="clipPath29280">
      <path
         d="m322 297.24c-4.971 0-9-4.029-9-9 0-4.97 4.029-9 9-9h45c4.971 0 9 4.03 9 9 0 4.971-4.029 9-9 9z"
         id="path1208" />
    </clipPath>
    <clipPath
       id="clipPath29400">
      <path
         d="m155 83.24h44v53h-44z"
         id="path1211" />
    </clipPath>
    <clipPath
       id="clipPath13429-6">
      <path
         d="m481 318h22v22h-22z"
         id="path1214" />
    </clipPath>
    <clipPath
       id="clipPath13465-0">
      <path
         d="m507 318h22v22h-22z"
         id="path1217" />
    </clipPath>
    <clipPath
       id="clipPath13501-6">
      <path
         d="m530 318h22v22h-22z"
         id="path1220" />
    </clipPath>
    <clipPath
       id="clipPath13753-2">
      <path
         d="m672 1064c0-1.105 4.925-2 11-2s11 0.895 11 2-4.925 2-11 2-11-0.895-11-2"
         id="path1223" />
    </clipPath>
    <clipPath
       id="clipPath13771-6">
      <path
         d="m660 1057h51v65.001h-51z"
         id="path1226" />
    </clipPath>
    <clipPath
       id="clipPath14035-1">
      <path
         d="m659 517h53v18h-53z"
         id="path1229" />
    </clipPath>
    <clipPath
       id="clipPath14127-8">
      <path
         d="m659 500h53v18h-53z"
         id="path1232" />
    </clipPath>
    <clipPath
       id="clipPath14445-7">
      <path
         d="m648 112h73v60h-73z"
         id="path1235" />
    </clipPath>
    <clipPath
       id="clipPath14609-9">
      <path
         d="m826 1056h59v60h-59z"
         id="path1238" />
    </clipPath>
    <clipPath
       id="clipPath15305-2">
      <path
         d="m805 276h100v100h-100z"
         id="path1241" />
    </clipPath>
    <clipPath
       id="clipPath15341-0">
      <path
         d="m145 1063.8h74.152v45.21h-74.152z"
         id="path1244" />
    </clipPath>
    <clipPath
       id="clipPath15715-2">
      <path
         d="m151 667h57v57h-57z"
         id="path1247" />
    </clipPath>
    <clipPath
       id="clipPath15807-3">
      <path
         d="m154 697h51v51h-51z"
         id="path1250" />
    </clipPath>
    <clipPath
       id="clipPath16001-7">
      <path
         d="m500.04 864.45h36.012v67.52h-36.012z"
         id="path1253" />
    </clipPath>
    <clipPath
       id="clipPath16093-5">
      <path
         d="m836 870.54h47v55.539h-47z"
         id="path1256" />
    </clipPath>
    <clipPath
       id="clipPath16477-9">
      <path
         d="m318.03 702.35h62.848v37.991h-62.848z"
         id="path1259" />
    </clipPath>
    <clipPath
       id="clipPath16579-2">
      <path
         d="m485.03 133.35h62.847v37.991h-62.847z"
         id="path1262" />
    </clipPath>
    <clipPath
       id="clipPath16709-2">
      <path
         d="m493.37 677.93h45.643v68.067h-45.643z"
         id="path1265" />
    </clipPath>
    <clipPath
       id="clipPath24218-8">
      <path
         d="m144.34 1018.2h71.467v78h-71.467z"
         id="path1268" />
    </clipPath>
    <clipPath
       id="clipPath24382-9">
      <path
         d="m293.21 1068.6 66.323-38.292 36.047 62.435-66.323 38.292z"
         id="path1271" />
    </clipPath>
    <clipPath
       id="clipPath24650-7">
      <path
         d="m488.86 1054.5h10v10.706h-10z"
         id="path1274" />
    </clipPath>
    <clipPath
       id="clipPath24700-3">
      <path
         d="m508 1066.8h10.001v10.705h-10.001z"
         id="path1277" />
    </clipPath>
    <clipPath
       id="clipPath24750-6">
      <path
         d="m525 1045.8h10v10.706h-10z"
         id="path1280" />
    </clipPath>
    <clipPath
       id="clipPath24864-1">
      <path
         d="m836 1043.7h25.5v31.5h-25.5z"
         id="path1283" />
    </clipPath>
    <clipPath
       id="clipPath24896-2">
      <path
         d="m838 1062.2h24v24h-24z"
         id="path1286" />
    </clipPath>
    <clipPath
       id="clipPath25070-9">
      <path
         d="m134 489.24h7v6h-7z"
         id="path1289" />
    </clipPath>
    <clipPath
       id="clipPath25100-3">
      <path
         d="m216 489.24h7v6h-7z"
         id="path1292" />
    </clipPath>
    <clipPath
       id="clipPath25502-1">
      <path
         d="m838 477.24h22v22h-22z"
         id="path1295" />
    </clipPath>
    <clipPath
       id="clipPath25686-9">
      <path
         d="m704 1061.2h25v25h-25z"
         id="path1298" />
    </clipPath>
    <clipPath
       id="clipPath25788-4">
      <path
         d="m663.04 1078.6-1.808-3.514-21.07-47.453c13.336-18.439 48.336-26.938 73.836-3.439 0.842 0 6.476 6.246 6 7l-18.386 25.895c-0.483 0.765-1.453 0.946-2.177 0.431l-15.505-11.011c-0.359-0.255-0.847-0.153-1.07 0.238l-18.272 31.869c-0.218 0.384-0.502 0.578-0.782 0.578-0.282 0-0.561-0.197-0.766-0.594"
         id="path1301" />
    </clipPath>
    <clipPath
       id="clipPath26420-7">
      <path
         d="m127 820.24h100v100h-100z"
         id="path1304" />
    </clipPath>
    <clipPath
       id="clipPath26860-8">
      <path
         d="m809 680.24c0-22.092 17.908-40 40-40s40 17.908 40 40c0 22.091-17.908 40-40 40s-40-17.909-40-40"
         id="path1307" />
    </clipPath>
    <clipPath
       id="clipPath27506-4">
      <path
         d="m658 469.24h44v45h-44z"
         id="path1310" />
    </clipPath>
    <clipPath
       id="clipPath27772-5">
      <path
         d="m651 271.24h58v58h-58z"
         id="path1313" />
    </clipPath>
    <clipPath
       id="clipPath27864-0">
      <path
         d="m662 307.24h38v8h-38z"
         id="path1316" />
    </clipPath>
    <clipPath
       id="clipPath28028-3">
      <path
         d="m858.98 137.24c0.013-0.101 0.021-0.203 0.021-0.307v-6.693h15.75c1.237 0 2.25-1.013 2.25-2.25v-11.25l-27-4.5-27 4.5v-2.25l27-4.5 27 4.5v-27c0-1.237-1.013-2.25-2.25-2.25h-49.5c-1.237 0-2.25 1.013-2.25 2.25v-4.25h54v54zm-35.979 0v-9.25c0 1.237 1.013 2.25 2.25 2.25h15.75v6.693c0 0.104 7e-3 0.207 0.02 0.307zm22.5-7h9v4.5h-9zm1.125-9c-0.62 0-1.125-0.506-1.125-1.125v-2.25c0-0.619 0.505-1.125 1.125-1.125h6.75c0.619 0 1.125 0.506 1.125 1.125v2.25c0 0.619-0.506 1.125-1.125 1.125z"
         id="path1319" />
    </clipPath>
    <clipPath
       id="clipPath28200-6">
      <path
         d="m531.27 136.24c6.325-2.29 10.727-8.277 10.727-15.484 0-11.316-10.2-20.563-25.65-34.575l-4.35-3.941-4.35 3.941c-15.45 14.012-25.65 23.259-25.65 34.575v-39.516h60v55zm-26.983 0c2.995-1.052 5.686-2.883 7.71-5.25 2.024 2.367 4.715 4.198 7.71 5.25zm-22.29 0v-15.484c0 7.207 4.402 13.194 10.727 15.484z"
         id="path1322" />
    </clipPath>
    <clipPath
       id="clipPath28364-1">
      <path
         d="m648 79.241h64v64h-64z"
         id="path1325" />
    </clipPath>
    <clipPath
       id="clipPath28984-0">
      <path
         d="m500 691.74c0-3.037 2.463-5.5 5.5-5.5s5.5 2.463 5.5 5.5-2.463 5.5-5.5 5.5-5.5-2.463-5.5-5.5"
         id="path1328" />
    </clipPath>
    <clipPath
       id="clipPath29012-6">
      <path
         d="m500 669.74c0-3.037 2.463-5.5 5.5-5.5s5.5 2.463 5.5 5.5c0 3.038-2.463 5.5-5.5 5.5s-5.5-2.462-5.5-5.5"
         id="path1331" />
    </clipPath>
    <clipPath
       id="clipPath29040-3">
      <path
         d="m494 680.74c0-3.037 2.462-5.5 5.5-5.5s5.5 2.463 5.5 5.5c0 3.038-2.462 5.5-5.5 5.5s-5.5-2.462-5.5-5.5"
         id="path1334" />
    </clipPath>
    <clipPath
       id="clipPath29068-2">
      <path
         d="m513 691.74c0-3.037 2.463-5.5 5.5-5.5s5.5 2.463 5.5 5.5-2.463 5.5-5.5 5.5-5.5-2.463-5.5-5.5"
         id="path1337" />
    </clipPath>
    <clipPath
       id="clipPath29096-0">
      <path
         d="m513 669.74c0-3.037 2.463-5.5 5.5-5.5s5.5 2.463 5.5 5.5c0 3.038-2.463 5.5-5.5 5.5s-5.5-2.462-5.5-5.5"
         id="path1340" />
    </clipPath>
    <clipPath
       id="clipPath29124-6">
      <path
         d="m507 680.74c0-3.037 2.463-5.5 5.5-5.5s5.5 2.463 5.5 5.5c0 3.038-2.463 5.5-5.5 5.5s-5.5-2.462-5.5-5.5"
         id="path1343" />
    </clipPath>
    <clipPath
       id="clipPath29152-1">
      <path
         d="m520 680.74c0-3.037 2.463-5.5 5.5-5.5s5.5 2.463 5.5 5.5c0 3.038-2.463 5.5-5.5 5.5s-5.5-2.462-5.5-5.5"
         id="path1346" />
    </clipPath>
    <clipPath
       id="clipPath29252-5">
      <path
         d="m321 322.24c-4.97 0-9-4.029-9-9 0-4.97 4.03-9 9-9h45c4.971 0 9 4.03 9 9 0 4.971-4.029 9-9 9z"
         id="path1349" />
    </clipPath>
    <clipPath
       id="clipPath29280-5">
      <path
         d="m322 297.24c-4.971 0-9-4.029-9-9 0-4.97 4.029-9 9-9h45c4.971 0 9 4.03 9 9 0 4.971-4.029 9-9 9z"
         id="path1352" />
    </clipPath>
    <clipPath
       id="clipPath29400-4">
      <path
         d="m155 83.24h44v53h-44z"
         id="path1355" />
    </clipPath>
    <linearGradient
       id="linearGradient1005-3-3"
       x1="7.4778"
       x2="9.0954"
       y1="15.67"
       y2="2.7627"
       gradientTransform="matrix(.99998 0 0 .99998 -40.286 -52.471)"
       gradientUnits="userSpaceOnUse">
      <stop
         stop-color="#fe6d00"
         offset="0"
         id="stop1358" />
      <stop
         stop-color="#fe7100"
         offset=".36953"
         id="stop1360" />
      <stop
         stop-color="#ffb400"
         offset="1"
         id="stop1362" />
    </linearGradient>
    <clipPath
       id="clipPath13429-3">
      <path
         d="m481 318h22v22h-22z"
         id="path1365" />
    </clipPath>
    <clipPath
       id="clipPath13465-6-6">
      <path
         d="m507 318h22v22h-22z"
         id="path1368" />
    </clipPath>
    <clipPath
       id="clipPath13501-7">
      <path
         d="m530 318h22v22h-22z"
         id="path1371" />
    </clipPath>
    <clipPath
       id="clipPath13753-5">
      <path
         d="m672 1064c0-1.105 4.925-2 11-2s11 0.895 11 2-4.925 2-11 2-11-0.895-11-2"
         id="path1374" />
    </clipPath>
    <clipPath
       id="clipPath13771-3">
      <path
         d="m660 1057h51v65.001h-51z"
         id="path1377" />
    </clipPath>
    <clipPath
       id="clipPath14035-5">
      <path
         d="m659 517h53v18h-53z"
         id="path1380" />
    </clipPath>
    <clipPath
       id="clipPath14127-6">
      <path
         d="m659 500h53v18h-53z"
         id="path1383" />
    </clipPath>
    <clipPath
       id="clipPath14445-2">
      <path
         d="m648 112h73v60h-73z"
         id="path1386" />
    </clipPath>
    <clipPath
       id="clipPath14609-9-2">
      <path
         d="m826 1056h59v60h-59z"
         id="path1389" />
    </clipPath>
    <clipPath
       id="clipPath15305-1">
      <path
         d="m805 276h100v100h-100z"
         id="path1392" />
    </clipPath>
    <clipPath
       id="clipPath15341-2">
      <path
         d="m145 1063.8h74.152v45.21h-74.152z"
         id="path1395" />
    </clipPath>
    <clipPath
       id="clipPath15715-7-9">
      <path
         d="m151 667h57v57h-57z"
         id="path1398" />
    </clipPath>
    <clipPath
       id="clipPath15807-0">
      <path
         d="m154 697h51v51h-51z"
         id="path1401" />
    </clipPath>
    <clipPath
       id="clipPath16001-9">
      <path
         d="m500.04 864.45h36.012v67.52h-36.012z"
         id="path1404" />
    </clipPath>
    <clipPath
       id="clipPath16093-3-1">
      <path
         d="m836 870.54h47v55.539h-47z"
         id="path1407" />
    </clipPath>
    <clipPath
       id="clipPath16477-6">
      <path
         d="m318.03 702.35h62.848v37.991h-62.848z"
         id="path1410" />
    </clipPath>
    <clipPath
       id="clipPath16579-0">
      <path
         d="m485.03 133.35h62.847v37.991h-62.847z"
         id="path1413" />
    </clipPath>
    <clipPath
       id="clipPath16709-6">
      <path
         d="m493.37 677.93h45.643v68.067h-45.643z"
         id="path1416" />
    </clipPath>
    <clipPath
       id="clipPath24218-2">
      <path
         d="m144.34 1018.2h71.467v78h-71.467z"
         id="path1419" />
    </clipPath>
    <clipPath
       id="clipPath24382-6">
      <path
         d="m293.21 1068.6 66.323-38.292 36.047 62.435-66.323 38.292z"
         id="path1422" />
    </clipPath>
    <clipPath
       id="clipPath24650-1">
      <path
         d="m488.86 1054.5h10v10.706h-10z"
         id="path1425" />
    </clipPath>
    <clipPath
       id="clipPath24700-8">
      <path
         d="m508 1066.8h10.001v10.705h-10.001z"
         id="path1428" />
    </clipPath>
    <clipPath
       id="clipPath24750-7">
      <path
         d="m525 1045.8h10v10.706h-10z"
         id="path1431" />
    </clipPath>
    <clipPath
       id="clipPath24864-9">
      <path
         d="m836 1043.7h25.5v31.5h-25.5z"
         id="path1434" />
    </clipPath>
    <clipPath
       id="clipPath24896-2-2">
      <path
         d="m838 1062.2h24v24h-24z"
         id="path1437" />
    </clipPath>
    <clipPath
       id="clipPath25070-0">
      <path
         d="m134 489.24h7v6h-7z"
         id="path1440" />
    </clipPath>
    <clipPath
       id="clipPath25100-2">
      <path
         d="m216 489.24h7v6h-7z"
         id="path1443" />
    </clipPath>
    <clipPath
       id="clipPath25502-3">
      <path
         d="m838 477.24h22v22h-22z"
         id="path1446" />
    </clipPath>
    <clipPath
       id="clipPath25686-7">
      <path
         d="m704 1061.2h25v25h-25z"
         id="path1449" />
    </clipPath>
    <clipPath
       id="clipPath25788-5">
      <path
         d="m663.04 1078.6-1.808-3.514-21.07-47.453c13.336-18.439 48.336-26.938 73.836-3.439 0.842 0 6.476 6.246 6 7l-18.386 25.895c-0.483 0.765-1.453 0.946-2.177 0.431l-15.505-11.011c-0.359-0.255-0.847-0.153-1.07 0.238l-18.272 31.869c-0.218 0.384-0.502 0.578-0.782 0.578-0.282 0-0.561-0.197-0.766-0.594"
         id="path1452" />
    </clipPath>
    <clipPath
       id="clipPath26420-9">
      <path
         d="m127 820.24h100v100h-100z"
         id="path1455" />
    </clipPath>
    <clipPath
       id="clipPath26860-2">
      <path
         d="m809 680.24c0-22.092 17.908-40 40-40s40 17.908 40 40c0 22.091-17.908 40-40 40s-40-17.909-40-40"
         id="path1458" />
    </clipPath>
    <clipPath
       id="clipPath27506-2">
      <path
         d="m658 469.24h44v45h-44z"
         id="path1461" />
    </clipPath>
    <clipPath
       id="clipPath27772-8">
      <path
         d="m651 271.24h58v58h-58z"
         id="path1464" />
    </clipPath>
    <clipPath
       id="clipPath27864-9-7">
      <path
         d="m662 307.24h38v8h-38z"
         id="path1467" />
    </clipPath>
    <clipPath
       id="clipPath28028-7">
      <path
         d="m858.98 137.24c0.013-0.101 0.021-0.203 0.021-0.307v-6.693h15.75c1.237 0 2.25-1.013 2.25-2.25v-11.25l-27-4.5-27 4.5v-2.25l27-4.5 27 4.5v-27c0-1.237-1.013-2.25-2.25-2.25h-49.5c-1.237 0-2.25 1.013-2.25 2.25v-4.25h54v54zm-35.979 0v-9.25c0 1.237 1.013 2.25 2.25 2.25h15.75v6.693c0 0.104 7e-3 0.207 0.02 0.307zm22.5-7h9v4.5h-9zm1.125-9c-0.62 0-1.125-0.506-1.125-1.125v-2.25c0-0.619 0.505-1.125 1.125-1.125h6.75c0.619 0 1.125 0.506 1.125 1.125v2.25c0 0.619-0.506 1.125-1.125 1.125z"
         id="path1470" />
    </clipPath>
    <clipPath
       id="clipPath28200-3">
      <path
         d="m531.27 136.24c6.325-2.29 10.727-8.277 10.727-15.484 0-11.316-10.2-20.563-25.65-34.575l-4.35-3.941-4.35 3.941c-15.45 14.012-25.65 23.259-25.65 34.575v-39.516h60v55zm-26.983 0c2.995-1.052 5.686-2.883 7.71-5.25 2.024 2.367 4.715 4.198 7.71 5.25zm-22.29 0v-15.484c0 7.207 4.402 13.194 10.727 15.484z"
         id="path1473" />
    </clipPath>
    <clipPath
       id="clipPath28364-6">
      <path
         d="m648 79.241h64v64h-64z"
         id="path1476" />
    </clipPath>
    <clipPath
       id="clipPath28984-1">
      <path
         d="m500 691.74c0-3.037 2.463-5.5 5.5-5.5s5.5 2.463 5.5 5.5-2.463 5.5-5.5 5.5-5.5-2.463-5.5-5.5"
         id="path1479" />
    </clipPath>
    <clipPath
       id="clipPath29012-2">
      <path
         d="m500 669.74c0-3.037 2.463-5.5 5.5-5.5s5.5 2.463 5.5 5.5c0 3.038-2.463 5.5-5.5 5.5s-5.5-2.462-5.5-5.5"
         id="path1482" />
    </clipPath>
    <clipPath
       id="clipPath29040-9">
      <path
         d="m494 680.74c0-3.037 2.462-5.5 5.5-5.5s5.5 2.463 5.5 5.5c0 3.038-2.462 5.5-5.5 5.5s-5.5-2.462-5.5-5.5"
         id="path1485" />
    </clipPath>
    <clipPath
       id="clipPath29068-3">
      <path
         d="m513 691.74c0-3.037 2.463-5.5 5.5-5.5s5.5 2.463 5.5 5.5-2.463 5.5-5.5 5.5-5.5-2.463-5.5-5.5"
         id="path1488" />
    </clipPath>
    <clipPath
       id="clipPath29096-1">
      <path
         d="m513 669.74c0-3.037 2.463-5.5 5.5-5.5s5.5 2.463 5.5 5.5c0 3.038-2.463 5.5-5.5 5.5s-5.5-2.462-5.5-5.5"
         id="path1491" />
    </clipPath>
    <clipPath
       id="clipPath29124-9">
      <path
         d="m507 680.74c0-3.037 2.463-5.5 5.5-5.5s5.5 2.463 5.5 5.5c0 3.038-2.463 5.5-5.5 5.5s-5.5-2.462-5.5-5.5"
         id="path1494" />
    </clipPath>
    <clipPath
       id="clipPath29152-4">
      <path
         d="m520 680.74c0-3.037 2.463-5.5 5.5-5.5s5.5 2.463 5.5 5.5c0 3.038-2.463 5.5-5.5 5.5s-5.5-2.462-5.5-5.5"
         id="path1497" />
    </clipPath>
    <clipPath
       id="clipPath29252-7">
      <path
         d="m321 322.24c-4.97 0-9-4.029-9-9 0-4.97 4.03-9 9-9h45c4.971 0 9 4.03 9 9 0 4.971-4.029 9-9 9z"
         id="path1500" />
    </clipPath>
    <clipPath
       id="clipPath29280-8">
      <path
         d="m322 297.24c-4.971 0-9-4.029-9-9 0-4.97 4.029-9 9-9h45c4.971 0 9 4.03 9 9 0 4.971-4.029 9-9 9z"
         id="path1503" />
    </clipPath>
    <clipPath
       id="clipPath29400-4-0">
      <path
         d="m155 83.24h44v53h-44z"
         id="path1506" />
    </clipPath>
    <linearGradient
       id="linearGradient4438"
       x1="-49.059"
       x2="-42.279"
       y1="-33.99"
       y2="-33.99"
       gradientTransform="matrix(.78042 0 0 .78042 1.2115 -17.484)"
       gradientUnits="userSpaceOnUse"
       xlink:href="#linearGradient4436" />
    <linearGradient
       id="linearGradient4448"
       x1="-49.059"
       x2="-42.279"
       y1="-33.99"
       y2="-33.99"
       gradientTransform="matrix(-.78042 0 0 .78042 -64.779 -17.484)"
       gradientUnits="userSpaceOnUse"
       xlink:href="#linearGradient4436" />
    <filter
       id="filter4466"
       x="-.022092"
       y="-.026268"
       width="1.0442"
       height="1.0525"
       color-interpolation-filters="sRGB">
      <feGaussianBlur
         stdDeviation="0.097419499"
         id="feGaussianBlur1511" />
    </filter>
    <linearGradient
       id="bg"
       x1="1"
       x2="47"
       gradientTransform="rotate(-90,23.999999,24.000001)"
       gradientUnits="userSpaceOnUse">
      <stop
         style="stop-color:#d5d5d5"
         offset="0"
         id="stop1178" />
      <stop
         style="stop-color:#dfdfdf"
         offset="1"
         id="stop1180" />
    </linearGradient>
    <linearGradient
       inkscape:collect="always"
       xlink:href="#linearGradient1664"
       id="linearGradient1666"
       x1="77.279137"
       y1="4.7361703"
       x2="132.14597"
       y2="58.935963"
       gradientUnits="userSpaceOnUse"
       gradientTransform="translate(-73.035158)" />
  </defs>
  <path
     id="rect1656"
     style="fill:url(#linearGradient1666);fill-opacity:1;stroke:none;stroke-width:2;stroke-linecap:round;stroke-opacity:1"
     d="M 9.08203,4.5 C 6.790362,4.5 4.499998,6.7923165 4.499998,9.0839844 V 25.125 c 0,2.291667 2.290364,4.583984 4.582032,4.583984 2.291666,0 4.583984,-2.292317 4.583984,-4.583984 V 18.25 l 4.583984,4.583984 v 6.875 h 6.875 v -2.292968 c -0.07104,-1.521667 0.689135,-2.28185 2.291014,-2.291016 h 2.29102 V 18.25 H 22.83203 l -4.582032,-4.583984 h 6.875 c 2.291674,0 4.582034,-2.290366 4.582034,-4.5820316 C 29.707032,6.7923165 27.416672,4.5 25.124998,4.5 Z m 29.792972,0 c -2.29167,0 -4.58399,2.2923165 -4.58399,4.5839844 0,2.2916656 2.29232,4.5820316 4.58399,4.5820316 h 6.875 L 41.166012,18.25 h -6.875 v 6.875 h 2.29102 c 1.52167,-0.07104 2.2838,0.68914 2.29297,2.291016 v 2.292968 h 6.875 v -6.875 L 50.332032,18.25 v 6.875 c 0,2.291667 2.29231,4.583984 4.58398,4.583984 2.29166,0 4.58399,-2.292317 4.58399,-4.583984 V 9.0839844 C 59.500002,6.7923165 57.207672,4.5 54.916012,4.5 Z M 18.249998,34.291016 v 6.875 c 0,2.291667 2.290364,4.583984 4.582032,4.583984 h 6.875002 v -6.875 h -2.29102 c -1.52167,0.07104 -2.281848,-0.689141 -2.291014,-2.291016 v -2.292968 z m 20.625004,0 v 2.292968 c 0.071,1.521667 -0.69109,2.28185 -2.29297,2.291016 h -2.29102 v 6.875 h 6.875 l 4.58399,4.583984 h -6.875 c -2.29167,0 -4.58399,2.290365 -4.58399,4.582032 0,2.291667 2.29232,4.583984 4.58399,4.583984 h 16.04101 c 2.29166,0 4.58399,-2.292317 4.58399,-4.583984 V 38.875 c 0,-2.291667 -2.29233,-4.583984 -4.58399,-4.583984 -2.29167,0 -4.58398,2.292317 -4.58398,4.583984 v 6.875 l -4.58203,-4.583984 v -6.875 z" />
  <circle
     cx="-1327.6702"
     cy="-1241.6373"
     r="0"
     fill="#5e4aa6"
     stroke-width="1.00001"
     id="circle910" />
  <circle
     cx="-228.11211"
     cy="23.854692"
     r="0"
     fill="#5e4aa6"
     fill-rule="evenodd"
     stroke-width="1.00001"
     id="circle912" />
  <style
     type="text/css"
     id="style1516">.st0{opacity:0.15;fill:#45413C;}
	.st1{fill:#FFE500;}
	.st2{fill:#EBCB00;}
	.st3{fill:none;stroke:#45413C;stroke-linecap:round;stroke-linejoin:round;stroke-miterlimit:10;}
	.st4{fill:#FFAA54;}
	.st5{fill:#FF8A14;}
	.st6{fill:#FFB0CA;stroke:#45413C;stroke-linecap:round;stroke-linejoin:round;stroke-miterlimit:10;}
	.st7{fill:#FF87AF;stroke:#45413C;stroke-linecap:round;stroke-linejoin:round;stroke-miterlimit:10;}
	.st8{fill:#FFCC99;}
	.st9{fill:#FFFFFF;}
	.st10{fill:#F0F0F0;}
	.st11{fill:#BF8256;}
	.st12{fill:#915E3A;}
	.st13{fill:#DEA47A;}
	.st14{fill:#F0D5A8;}
	.st15{fill:#DEBB7E;}
	.st16{fill:#F7E5C6;}
	.st17{fill:#FF8A14;stroke:#45413C;stroke-linecap:round;stroke-linejoin:round;stroke-miterlimit:10;}
	.st18{fill:#FFF5E3;}
	.st19{fill:#FFF48C;}
	.st20{fill:#FFFACF;}
	.st21{fill:#FFFCE5;}
	.st22{fill:#FF87AF;}
	.st23{fill:#FFB0CA;}
	.st24{fill:#FFE500;stroke:#45413C;stroke-linecap:round;stroke-linejoin:round;stroke-miterlimit:10;}
	.st25{fill:#9CEB60;stroke:#45413C;stroke-linecap:round;stroke-linejoin:round;stroke-miterlimit:10;}
	.st26{fill:#FFFACF;stroke:#45413C;stroke-linecap:round;stroke-linejoin:round;stroke-miterlimit:10;}
	.st27{fill:#00F5BC;stroke:#45413C;stroke-linecap:round;stroke-linejoin:round;stroke-miterlimit:10;}
	.st28{fill:#BF8256;stroke:#45413C;stroke-linecap:round;stroke-linejoin:round;stroke-miterlimit:10;}
	.st29{fill:#FFE3CF;stroke:#45413C;stroke-linecap:round;stroke-linejoin:round;stroke-miterlimit:10;}
	.st30{fill:#FF6242;}
	.st31{fill:#FF866E;}
	.st32{fill:none;stroke:#E04122;stroke-linecap:round;stroke-linejoin:round;stroke-miterlimit:10;}
	.st33{fill:#FFFEF2;stroke:#45413C;stroke-linecap:round;stroke-linejoin:round;stroke-miterlimit:10;}
	.st34{fill:#FF6242;stroke:#45413C;stroke-linecap:round;stroke-linejoin:round;stroke-miterlimit:10;}
	.st35{fill:#FFA694;}
	.st36{fill:#FFFFFF;stroke:#45413C;stroke-linecap:round;stroke-linejoin:round;stroke-miterlimit:10;}
	.st37{fill:#FFFEF2;}
	.st38{fill:#FF6196;}
	.st39{fill:#B89558;}
	.st40{fill:none;stroke:#915E3A;stroke-linecap:round;stroke-linejoin:round;stroke-miterlimit:10;}
	.st41{fill:#DEBB7E;stroke:#45413C;stroke-linecap:round;stroke-linejoin:round;stroke-miterlimit:10;}
	.st42{fill:#6DD627;stroke:#45413C;stroke-linecap:round;stroke-linejoin:round;stroke-miterlimit:10;}
	.st43{fill:#E5F8FF;}
	.st44{fill:#E8F4FA;}
	.st45{fill:#E8F4FA;stroke:#45413C;stroke-linecap:round;stroke-linejoin:round;stroke-miterlimit:10;}
	.st46{fill:#FFCCDD;}
	.st47{fill:#E5F8FF;stroke:#45413C;stroke-linecap:round;stroke-linejoin:round;stroke-miterlimit:10;}
	.st48{fill:#00B8F0;stroke:#45413C;stroke-linecap:round;stroke-linejoin:round;stroke-miterlimit:10;}
	.st49{fill:#00B8F0;}
	.st50{fill:#4ACFFF;}
	.st51{fill:#E04122;}
	.st52{fill:#E04122;stroke:#45413C;stroke-linecap:round;stroke-linejoin:round;stroke-miterlimit:10;}
	.st53{fill:#87898C;}
	.st54{fill:#BDBEC0;}
	.st55{fill:#656769;}
	.st56{fill:#525252;}
	.st57{fill:#FFF48C;stroke:#45413C;stroke-linecap:round;stroke-linejoin:round;stroke-miterlimit:10;}
	.st58{fill:#6DD627;}
	.st59{fill:#EB6D00;}
	.st60{fill:#46B000;}
	.st61{fill:#80DDFF;}
	.st62{fill:#DAEDF7;}
	.st63{fill:#BF8DF2;stroke:#45413C;stroke-linecap:round;stroke-linejoin:round;stroke-miterlimit:10;}
	.st64{fill:#9F5AE5;stroke:#45413C;stroke-linecap:round;stroke-linejoin:round;stroke-miterlimit:10;}
	.st65{fill:#C8FFA1;}
	.st66{fill:#E4FFD1;}
	.st67{fill:#9CEB60;}
	.st68{fill:#E5FEFF;}
	.st69{fill:#B8ECFF;}
	.st70{fill:#E0E0E0;stroke:#45413C;stroke-linecap:round;stroke-linejoin:round;stroke-miterlimit:10;}
	.st71{fill:#E0E0E0;}
	.st72{fill:none;stroke:#4F4B45;stroke-linejoin:round;stroke-miterlimit:10;}
	.st73{fill:none;stroke:#4F4B45;stroke-linecap:round;stroke-linejoin:round;stroke-miterlimit:10;}
	.st74{fill:#E0366F;stroke:#45413C;stroke-linecap:round;stroke-linejoin:round;stroke-miterlimit:10;}
	.st75{fill:none;stroke:#45413C;stroke-miterlimit:10;}
	.st76{fill:#FF866E;stroke:#45413C;stroke-linecap:round;stroke-linejoin:round;stroke-miterlimit:10;}
	.st77{fill:#45413C;stroke:#45413C;stroke-linecap:round;stroke-linejoin:round;stroke-miterlimit:10;}
	.st78{fill:#9F5AE5;}
	.st79{fill:#803EC2;}
	.st80{fill:#803EC2;stroke:#45413C;stroke-linecap:round;stroke-linejoin:round;stroke-miterlimit:10;}
	.st81{fill:#BF8DF2;}
	.st82{fill:#FFAA54;stroke:#45413C;stroke-linecap:round;stroke-linejoin:round;stroke-miterlimit:10;}
	.st83{fill:none;stroke:#45413C;stroke-linejoin:round;stroke-miterlimit:10;}
	.st84{fill:#FFCCDD;stroke:#45413C;stroke-linecap:round;stroke-linejoin:round;stroke-miterlimit:10;}
	.st85{fill:#FF6196;stroke:#45413C;stroke-linecap:round;stroke-linejoin:round;stroke-miterlimit:10;}
	.st86{fill:#FFE5EE;}
	.st87{fill:#F7E5C6;stroke:#45413C;stroke-linecap:round;stroke-linejoin:round;stroke-miterlimit:10;}
	.st88{fill:#E5FFF9;}
	.st89{fill:none;stroke:#45413C;stroke-width:1.0064;stroke-linecap:round;stroke-linejoin:round;stroke-miterlimit:10;}
	.st90{fill:#4AEFF7;}
	.st91{fill:#A6FBFF;}
	.st92{fill:#E5FEFF;stroke:#45413C;stroke-linecap:round;stroke-linejoin:round;stroke-miterlimit:10;}
	.st93{fill:#46B000;stroke:#45413C;stroke-linecap:round;stroke-linejoin:round;stroke-miterlimit:10;}
	.st94{fill:#FFFFFF;stroke:#45413C;stroke-linejoin:round;stroke-miterlimit:10;}
	.st95{fill:#FFFFFF;stroke:#45413C;stroke-miterlimit:10;}
	.st96{fill:#009FD9;}
	.st97{fill:#00DFEB;}
	.st98{fill:#C0DCEB;stroke:#45413C;stroke-linecap:round;stroke-linejoin:round;stroke-miterlimit:10;}
	.st99{fill:#00DFEB;stroke:#45413C;stroke-linecap:round;stroke-linejoin:round;stroke-miterlimit:10;}
	.st100{fill:#FFE5EE;stroke:#45413C;stroke-linecap:round;stroke-linejoin:round;stroke-miterlimit:10;}
	.st101{fill:#8CA4B8;}
	.st102{fill:#ADC4D9;}
	.st103{fill:#656769;stroke:#45413C;stroke-linecap:round;stroke-linejoin:round;stroke-miterlimit:10;}
	.st104{fill:#F0F0F0;stroke:#45413C;stroke-linecap:round;stroke-linejoin:round;stroke-miterlimit:10;}
	.st105{fill:#C0DCEB;}
	.st106{fill:#45413C;}
	.st107{fill:#FFCABF;}
	.st108{fill:#87898C;stroke:#45413C;stroke-linecap:round;stroke-linejoin:round;stroke-miterlimit:10;}
	.st109{fill:#EBCB00;stroke:#45413C;stroke-linecap:round;stroke-linejoin:round;stroke-miterlimit:10;}</style>
</svg>
