<?xml version="1.0" encoding="UTF-8"?>
<svg width="64" height="64" version="1.1" xmlns="http://www.w3.org/2000/svg" xmlns:cc="http://creativecommons.org/ns#" xmlns:dc="http://purl.org/dc/elements/1.1/" xmlns:rdf="http://www.w3.org/1999/02/22-rdf-syntax-ns#" xmlns:xlink="http://www.w3.org/1999/xlink">
 <metadata>
  <rdf:RDF>
   <cc:Work rdf:about="">
    <dc:format>image/svg+xml</dc:format>
    <dc:type rdf:resource="http://purl.org/dc/dcmitype/StillImage"/>
    <dc:title/>
   </cc:Work>
  </rdf:RDF>
 </metadata>
 <defs>
  <linearGradient id="linearGradient953" x1="-48.646" x2="-32.772" y1="-6.3007" y2="9.574" gradientTransform="translate(1.0224 -.57831)" gradientUnits="userSpaceOnUse">
   <stop stop-color="#cfdef0" offset="0"/>
   <stop stop-color="#f5faff" offset="1"/>
  </linearGradient>
  <linearGradient id="linearGradient1092" x1="10.973" x2="36.937" y1="24" y2="24" gradientTransform="matrix(1.0014 0 0 1.0026 -88.438 .43837)" gradientUnits="userSpaceOnUse">
   <stop stop-color="#2a2c2f" offset="0"/>
   <stop stop-color="#424649" offset="1"/>
  </linearGradient>
  <linearGradient id="linearGradient1094" x1="319.21" x2="657.65" y1="235.15" y2="269.49" gradientTransform="matrix(.088238 0 0 .087173 -107.37 3.3915)" gradientUnits="userSpaceOnUse">
   <stop stop-color="#e54c18" offset="0"/>
   <stop stop-color="#fec350" offset="1"/>
  </linearGradient>
 </defs>
 <g transform="translate(-384.57,-499.8)" font-size="12.666px">
  <text x="730.88" y="132.19" font-family="'Droid Sans'"/>
 </g>
 <rect x="45.98" y="22.53" width=".045" height="0" fill="#000cff" opacity=".40741"/>
 <g transform="translate(.00043962 6.5706e-5)" fill="#5e4aa6">
  <circle cx="-1469.1" cy="-1265.6" r="0"/>
  <circle cx="-1400.2" cy="-1257.6" r="0"/>
  <circle cx="-1377.2" cy="-1283.4" r="0"/>
  <circle cx="-1387.8" cy="-1256.7" r="0"/>
 </g>
 <g transform="matrix(.95051 0 0 .95051 1.6412 2.4157)">
  <g transform="matrix(3.7796,0,0,3.7796,-151.13,-27.199)" fill="#5e4aa6" stroke-width=".26458">
   <circle cx="-330.35" cy="-328.38" r="0"/>
   <circle cx="-312.11" cy="-326.25" r="0"/>
   <circle cx="-306.02" cy="-333.07" r="0"/>
   <circle cx="-308.84" cy="-326.01" r="0"/>
  </g>
  <g transform="matrix(3.7796,0,0,3.7796,182,27.999)">
   <rect x="-47.624" y="-6.879" width="15.875" height="15.875" ry=".79373" fill="url(#linearGradient953)"/>
  </g>
 </g>
 <g transform="matrix(1.4062 0 0 1.4062 122.63 -2.4531)">
  <path d="m-77.16 37.991 9.8168-12.85-10.107-14.129 6.4959 0.0054 8.0532 11.11-12.041 15.864h-2.2181zm19.214 0.009123-7.9976-11.129 12.141-15.871h2.1633l-9.8569 12.911 10.046 14.089z" fill="url(#linearGradient1092)"/>
  <path d="m-64.451 15.929c-0.781 0-1.6154 0.05974-2.3665 0.13098 1.3382 1.7243 2.4486 3.1844 3.7265 4.8426-0.71726-1.5249-2.1914-2.9872-1.6818-3.7392 0.50447-0.74443 1.434-0.61913 1.5048-0.61913 1.4902 0 2.9247 0.16627 4.2657 0.474l0.31435-0.42769c-1.7887-0.45489-3.7314-0.66152-5.763-0.66152zm8.071 1.3916-0.28953 0.40862c4.1318 1.5985 6.9267 4.6516 6.9267 8.1506 0 5.1524-6.0588 9.3329-13.525 9.3329-7.4664 0-13.528-4.1805-13.528-9.3329 1e-6 -2.8059 1.7975-5.3245 4.6408-7.0365l-0.87411-1.3158c-4.4601 1.8683-7.4202 5.1475-7.4202 8.8807 0 5.8086 7.1669 10.521 15.999 10.521 8.8317 0 16.001-4.712 16.001-10.521 0-3.8733-3.1874-7.2608-7.9304-9.0878z" fill="url(#linearGradient1094)"/>
 </g>
</svg>
