<?xml version="1.0" encoding="UTF-8"?>
<svg width="64" height="64" version="1.1" viewBox="0 0 16.933 16.933" xmlns="http://www.w3.org/2000/svg" xmlns:cc="http://creativecommons.org/ns#" xmlns:dc="http://purl.org/dc/elements/1.1/" xmlns:rdf="http://www.w3.org/1999/02/22-rdf-syntax-ns#" xmlns:xlink="http://www.w3.org/1999/xlink">
 <metadata>
  <rdf:RDF>
   <cc:Work rdf:about="">
    <dc:format>image/svg+xml</dc:format>
    <dc:type rdf:resource="http://purl.org/dc/dcmitype/StillImage"/>
    <dc:title/>
   </cc:Work>
  </rdf:RDF>
 </metadata>
 <defs>
  <linearGradient id="linearGradient2556" x1="-305" x2="-240" y1="38" y2="38" gradientTransform="matrix(.22387 0 0 .22387 54.931 -4.8242)" gradientUnits="userSpaceOnUse">
   <stop stop-color="#505050" offset="0"/>
   <stop stop-color="#323232" offset="1"/>
  </linearGradient>
  <linearGradient id="linearGradient2652" x1="-261.67" x2="-240" y1="13" y2="13" gradientTransform="matrix(.22387 0 0 .22387 54.931 -4.8242)" gradientUnits="userSpaceOnUse">
   <stop stop-color="#636363" offset="0"/>
   <stop stop-color="#646464" offset="1"/>
  </linearGradient>
  <linearGradient id="linearGradient2644" x1="-283.33" x2="-261.67" y1="13" y2="13" gradientTransform="matrix(.22387 0 0 .22387 54.931 -4.8242)" gradientUnits="userSpaceOnUse">
   <stop stop-color="#989898" offset="0"/>
   <stop stop-color="#999" offset="1"/>
  </linearGradient>
  <linearGradient id="linearGradient2636" x1="-305" x2="-283.33" y1="13" y2="13" gradientTransform="matrix(.22387 0 0 .22387 54.931 -4.8242)" gradientUnits="userSpaceOnUse">
   <stop stop-color="#cecece" offset="0"/>
   <stop stop-color="#d0d0d0" offset="1"/>
  </linearGradient>
  <linearGradient id="linearGradient2580" x1="-183.26" x2="-133.33" y1="-122.79" y2="-134.57" gradientTransform="matrix(.080469 0 0 .080469 2.3077 6.7492)" gradientUnits="userSpaceOnUse">
   <stop stop-color="#a9a9a9" offset="0"/>
   <stop stop-color="#8c8c8c" offset="1"/>
  </linearGradient>
  <filter id="filter2594" x="-.084" y="-.084" width="1.168" height="1.168" color-interpolation-filters="sRGB">
   <feGaussianBlur stdDeviation="0.43959997"/>
  </filter>
  <linearGradient id="linearGradient2574" x1="-183.26" x2="-133.33" y1="-122.79" y2="-134.57" gradientTransform="matrix(.08047 0 0 .08047 7.5104 1.5352)" gradientUnits="userSpaceOnUse" xlink:href="#linearGradient2586"/>
  <linearGradient id="linearGradient2586" x1="-183.26" x2="-133.33" y1="-122.79" y2="-134.57" gradientTransform="matrix(.25137 0 0 .25137 -7.3652 -24.336)" gradientUnits="userSpaceOnUse">
   <stop stop-color="#e5e5e5" offset="0"/>
   <stop stop-color="#cecece" offset="1"/>
  </linearGradient>
  <linearGradient id="linearGradient2608" x1="-183.26" x2="-133.33" y1="-122.79" y2="-134.57" gradientTransform="matrix(.08047 0 0 .08047 10.094 4.6601)" gradientUnits="userSpaceOnUse" xlink:href="#linearGradient2586"/>
 </defs>
 <g transform="matrix(1.0909 0 0 1.0909 15.093 5.4256)">
  <g stroke-width=".22387">
   <path d="m1.2017-1.0184h-14.552v8.7311c0 0.37208 0.29954 0.67162 0.67162 0.67162h13.209c0.37208 0 0.67162-0.29954 0.67162-0.67162z" fill="url(#linearGradient2556)"/>
   <path d="m-3.6497-2.8093v1.791h4.8504v-1.1194c0-0.37208-0.29954-0.67162-0.67162-0.67162z" fill="url(#linearGradient2652)"/>
   <path d="m-8.4988-2.8093v1.791h4.8509v-1.791z" fill="url(#linearGradient2644)"/>
   <path d="m-13.35-2.1377v1.1194h4.8504v-1.791h-4.1788c-0.37208 0-0.67162 0.29954-0.67162 0.67162z" fill="url(#linearGradient2636)"/>
  </g>
  <rect transform="rotate(-45)" x="-12.577" y="-4.3857" width="4.426" height="1.4485" ry=".16094" fill="url(#linearGradient2580)" stroke-width=".080469"/>
  <rect transform="matrix(.22636 .22636 .22636 -.22636 13.58 6.9821)" x="-68.454" y="-44.561" width="13.826" height="4.5247" ry=".50275" filter="url(#filter2594)" opacity=".6" stroke-width=".25137"/>
  <rect transform="matrix(.70711 .70711 .70711 -.70711 0 0)" x="-7.3741" y="-9.5996" width="4.426" height="1.4485" ry=".16094" fill="url(#linearGradient2574)" stroke-width=".08047"/>
  <rect transform="matrix(.32012 0 0 -.32012 17.123 -7.7903)" x="-68.454" y="-44.561" width="13.826" height="4.5247" ry=".50275" filter="url(#filter2594)" opacity=".6" stroke-width=".25137"/>
  <rect transform="scale(1,-1)" x="-4.791" y="-6.4744" width="4.4259" height="1.4484" ry=".16094" fill="url(#linearGradient2608)" stroke-width=".08047"/>
 </g>
</svg>
