<?xml version="1.0" encoding="UTF-8" standalone="no"?>
<svg
   xmlns:dc="http://purl.org/dc/elements/1.1/"
   xmlns:cc="http://creativecommons.org/ns#"
   xmlns:rdf="http://www.w3.org/1999/02/22-rdf-syntax-ns#"
   xmlns:svg="http://www.w3.org/2000/svg"
   xmlns="http://www.w3.org/2000/svg"
   xmlns:sodipodi="http://sodipodi.sourceforge.net/DTD/sodipodi-0.dtd"
   xmlns:inkscape="http://www.inkscape.org/namespaces/inkscape"
   inkscape:version="1.0.1 (3bc2e813f5, 2020-09-07)"
   sodipodi:docname="yast-update.svg"
   id="svg16"
   version="1.1"
   height="64"
   width="64">
  <g
     id="g2035"
     transform="translate(85.965572,8.1527622)">
    <rect
       x="-83.966164"
       y="5.6623816"
       width="60.001183"
       height="43.998344"
       ry="2.0000143"
       fill="#505050"
       id="rect1426"
       style="stroke-width:3.7796" />
    <rect
       x="3.7039001"
       y="3.7284"
       width="1.5875"
       height="1.5875"
       ry="0"
       filter="url(#filter954)"
       opacity="0.5"
       id="rect1428"
       transform="matrix(3.779602,0,0,3.779602,-85.965609,-8.152819)" />
    <rect
       x="11.641"
       y="3.7284"
       width="1.5875"
       height="1.5875"
       ry="0"
       filter="url(#filter962)"
       opacity="0.5"
       id="rect1430"
       transform="matrix(3.779602,0,0,3.779602,-85.965609,-8.152819)" />
    <path
       d="m -71.965963,3.938884 v 6.000118 h -10.000071 c -1.10799,0 -2.000014,0.891986 -2.000014,2.000014 v 39.999528 c 0,1.10799 0.891986,2.000014 2.000014,2.000014 h 55.998583 c 1.10799,0 2.000014,-0.891986 2.000014,-2.000014 V 11.939016 c 0,-1.10799 -0.891986,-2.000014 -2.000014,-2.000014 H -35.967522 V 3.938884 H -41.96764 V 9.939002 H -65.967735 V 3.938884 Z"
       fill="url(#linearGradient856)"
       id="path1432"
       style="fill:url(#linearGradient856);stroke-width:3.7796" />
    <g
       transform="matrix(3.779602,0,0,3.779602,-85.966176,-5.744041)"
       id="g1450">
      <path
         d="M 5.2916,2.5619 V -0.1323 L 3.7041,1.1906 v 1.3713 z"
         fill="url(#linearGradient908)"
         id="path1444"
         style="fill:url(#linearGradient908)" />
      <path
         d="m 11.641,2.5619 v -2.6942 l 1.5875,1.3229 v 1.3713 z"
         fill="url(#linearGradient922)"
         id="path1446"
         style="fill:url(#linearGradient922)" />
      <rect
         x="5.2916002"
         y="-0.13229001"
         width="6.3498998"
         height="1.5875"
         ry="0"
         fill="#1e1e1e"
         id="rect1448" />
    </g>
  </g>
  <circle
     cx="-1409.8224"
     cy="-1308.7703"
     r="0"
     fill="#5e4aa6"
     stroke-width="1.00001"
     id="circle861-9" />
  <circle
     cx="-310.27563"
     cy="-43.276386"
     r="0"
     fill="#5e4aa6"
     fill-rule="evenodd"
     stroke-width="1.00001"
     id="circle879-1" />
  <circle
     cx="-1325.3909"
     cy="-1277.7192"
     r="0"
     fill="#5e4aa6"
     stroke-width="1.00001"
     id="circle861-91" />
  <circle
     cx="-225.8441"
     cy="-12.22536"
     r="0"
     fill="#5e4aa6"
     fill-rule="evenodd"
     stroke-width="1.00001"
     id="circle879-2" />
  <metadata
     id="metadata22">
    <rdf:RDF>
      <cc:Work
         rdf:about="">
        <dc:format>image/svg+xml</dc:format>
        <dc:type
           rdf:resource="http://purl.org/dc/dcmitype/StillImage" />
        <dc:title></dc:title>
      </cc:Work>
    </rdf:RDF>
  </metadata>
  <defs
     id="defs20">
    <linearGradient
       gradientUnits="userSpaceOnUse"
       gradientTransform="matrix(0.53033,0,0,0.53033,11.536,352.06)"
       y2="-100.78"
       y1="-137.82"
       x2="-6.1472"
       x1="-6.1472"
       id="b">
      <stop
         id="stop849"
         offset="0"
         stop-color="#14dc78" />
      <stop
         id="stop851"
         offset="1"
         stop-color="#14a03c" />
    </linearGradient>
    <linearGradient
       gradientUnits="userSpaceOnUse"
       gradientTransform="matrix(0.53033,0,0,0.53033,11.537,352.06)"
       y2="-126.7"
       y1="-126.08"
       x2="-6.1738"
       x1="-6.1738"
       id="a">
      <stop
         id="stop854"
         offset="0"
         stop-color="#14e650" />
      <stop
         id="stop856"
         offset="1"
         stop-color="#148232" />
    </linearGradient>
    <linearGradient
       id="linearGradient1485"
       x1="-112.01"
       x2="-101.23"
       y1="18.859"
       y2="18.859"
       gradientTransform="matrix(1.0736,0,0,1,8.2445,0)"
       gradientUnits="userSpaceOnUse">
      <stop
         stop-color="#00f0f0"
         offset="0"
         id="stop848" />
      <stop
         stop-color="#f0f000"
         offset="1"
         id="stop850" />
    </linearGradient>
    <linearGradient
       id="linearGradient1493"
       x1="-111.06"
       x2="-111.06"
       y1="15.413"
       y2="24.998"
       gradientUnits="userSpaceOnUse">
      <stop
         stop-color="#2d96f0"
         offset="0"
         id="stop853" />
      <stop
         stop-color="#28f0c8"
         offset="1"
         id="stop855" />
    </linearGradient>
    <linearGradient
       id="linearGradient1529"
       x1="-112.02"
       x2="-97.816"
       y1="16.153"
       y2="16.153"
       gradientUnits="userSpaceOnUse">
      <stop
         stop-color="#19d264"
         offset="0"
         id="stop858" />
      <stop
         stop-color="#19c869"
         offset="1"
         id="stop860" />
    </linearGradient>
    <linearGradient
       id="linearGradient1537"
       x1="-101.09"
       x2="-101.09"
       y1="24.823"
       y2="12.616"
       gradientUnits="userSpaceOnUse">
      <stop
         stop-color="#f55a37"
         offset="0"
         id="stop863" />
      <stop
         stop-color="#fa8c19"
         offset="1"
         id="stop865" />
    </linearGradient>
    <linearGradient
       id="linearGradient1545"
       x1="-111.51"
       x2="-103.44"
       y1="22.313"
       y2="22.313"
       gradientUnits="userSpaceOnUse">
      <stop
         stop-color="#b4329b"
         offset="0"
         id="stop868" />
      <stop
         stop-color="#870f50"
         offset="1"
         id="stop870" />
    </linearGradient>
    <filter
       id="filter954"
       x="-0.18000001"
       y="-0.18000001"
       width="1.36"
       height="1.36"
       color-interpolation-filters="sRGB">
      <feGaussianBlur
         stdDeviation="0.11906016"
         id="feGaussianBlur1030" />
    </filter>
    <filter
       id="filter962"
       x="-0.18000001"
       y="-0.18000001"
       width="1.36"
       height="1.36"
       color-interpolation-filters="sRGB">
      <feGaussianBlur
         stdDeviation="0.11906016"
         id="feGaussianBlur1033" />
    </filter>
    <linearGradient
       id="linearGradient856"
       x1="-73.361"
       x2="-58.736"
       y1="6.9798999"
       y2="17.198"
       gradientTransform="matrix(3.779602,0,0,3.779602,198.03368,-11.061185)"
       gradientUnits="userSpaceOnUse">
      <stop
         stop-color="#3c3c3c"
         offset="0"
         id="stop1015" />
      <stop
         stop-color="#1e1e1e"
         offset="1"
         id="stop1017" />
    </linearGradient>
    <linearGradient
       id="linearGradient908"
       x1="-70.641998"
       x2="-70.641998"
       y2="2.6738"
       gradientTransform="translate(75.14,-0.13229)"
       gradientUnits="userSpaceOnUse">
      <stop
         stop-color="#1e1e1e"
         offset="0"
         id="stop1020" />
      <stop
         stop-color="#3c3c3c"
         offset="1"
         id="stop1022" />
    </linearGradient>
    <linearGradient
       id="linearGradient922"
       x1="-62.705002"
       x2="-62.705002"
       y2="3.8515"
       gradientTransform="translate(75.14,-0.13229)"
       gradientUnits="userSpaceOnUse">
      <stop
         stop-color="#1e1e1e"
         offset="0"
         id="stop1025" />
      <stop
         stop-color="#3c3c3c"
         offset="1"
         id="stop1027" />
    </linearGradient>
  </defs>
  <sodipodi:namedview
     inkscape:current-layer="svg16"
     inkscape:window-maximized="1"
     inkscape:window-y="0"
     inkscape:window-x="0"
     inkscape:cy="67.982229"
     inkscape:cx="95.179886"
     inkscape:zoom="2.1075097"
     showgrid="false"
     id="namedview18"
     inkscape:window-height="1004"
     inkscape:window-width="1920"
     inkscape:pageshadow="2"
     inkscape:pageopacity="0"
     guidetolerance="10"
     gridtolerance="10"
     objecttolerance="10"
     borderopacity="1"
     bordercolor="#666666"
     pagecolor="#ffffff"
     inkscape:document-rotation="0" />
  <circle
     id="circle861"
     stroke-width="1.00001"
     fill="#5e4aa6"
     r="0"
     cy="-1241.6389"
     cx="-1248.6936" />
  <circle
     id="circle879"
     stroke-width="1.00001"
     fill-rule="evenodd"
     fill="#5e4aa6"
     r="0"
     cy="23.855019"
     cx="-149.14687" />
  <path
     style="stroke-width:0.833333"
     d="m 32,35 a 9.9333333,9.9333333 0 0 0 -5.051667,1.406667 L 31.426667,40.885 32.625,39.688333 29.916667,36.98 c 0.325,-0.08667 0.65,-0.163333 0.99,-0.208333 0.08667,-0.01333 0.171666,-0.04333 0.26,-0.05333 0.28,-0.02833 0.545,-0.05167 0.833333,-0.05167 A 8.3333333,8.3333333 0 0 1 40.333333,45 c 0,0.405 -0.04667,0.81 -0.105,1.198333 C 40.195,46.425 40.176667,46.655 40.125,46.875 a 7.895,7.895 0 0 1 -0.468333,1.355 c -0.02333,0.05 -0.03,0.105 -0.05333,0.155 -0.06667,0.153333 -0.18,0.273333 -0.26,0.416667 -0.0067,0.01333 0.0083,0.03833 0,0.05333 l 1.25,1.196667 A 9.9333333,9.9333333 0 0 0 42,45 10,10 0 0 0 32,35 Z m -8.593333,4.948333 A 9.9333333,9.9333333 0 0 0 22,45 10,10 0 0 0 32,55 9.9333333,9.9333333 0 0 0 37.051667,53.593333 l -1.25,-1.25 -3.228334,-3.176666 -1.146666,1.146666 2.656666,2.708334 c -0.325,0.08333 -0.65,0.161666 -0.99,0.208333 -0.08667,0.01167 -0.171666,0.04167 -0.26,0.05 -0.28,0.03 -0.545,0.05333 -0.833333,0.05333 -0.288333,0 -0.553333,-0.02333 -0.833333,-0.05167 -0.28,-0.02833 -0.561667,-0.05 -0.833334,-0.105 A 8.3616667,8.3616667 0 0 1 23.666667,45 c 0,-0.413333 0.04667,-0.8 0.105,-1.198333 C 23.805,43.575 23.823333,43.345 23.875,43.125 c 0.111667,-0.478333 0.278333,-0.913333 0.468333,-1.355 0.02167,-0.05 0.03,-0.105 0.05333,-0.155 0.06667,-0.15 0.18,-0.275 0.26,-0.416667 V 41.145 Z"
     fill="#ffffff"
     id="path904" />
</svg>
