<?xml version="1.0" encoding="UTF-8"?>
<svg width="64" height="64" version="1.1" xmlns="http://www.w3.org/2000/svg" xmlns:cc="http://creativecommons.org/ns#" xmlns:dc="http://purl.org/dc/elements/1.1/" xmlns:rdf="http://www.w3.org/1999/02/22-rdf-syntax-ns#">
 <metadata>
  <rdf:RDF>
   <cc:Work rdf:about="">
    <dc:format>image/svg+xml</dc:format>
    <dc:type rdf:resource="http://purl.org/dc/dcmitype/StillImage"/>
    <dc:title/>
   </cc:Work>
  </rdf:RDF>
 </metadata>
 <defs>
  <style type="text/css"/>
  <style type="text/css"/>
  <style type="text/css"/>
  <style id="current-color-scheme" type="text/css">.ColorScheme-Text {
        color:#4d4d4d;
      }</style>
  <style type="text/css">.ColorScheme-Text {
        color:#4d4d4d;
      }</style>
  <linearGradient id="linearGradient1064" x1="-15.961" x2="-.30109" y1="-43.254" y2="-54.196" gradientTransform="matrix(3.7796 0 0 4.1576 63.003 235.98)" gradientUnits="userSpaceOnUse">
   <stop stop-color="#148c64" offset="0"/>
   <stop stop-color="#14d778" offset="1"/>
  </linearGradient>
 </defs>
 <g transform="matrix(12.283,0,0,12.283,227.22,-3.994)" fill="#5e4aa6" stroke-width=".26458">
  <circle cx="-330.35" cy="-328.38" r="0"/>
  <circle cx="-312.11" cy="-326.25" r="0"/>
  <circle cx="-306.02" cy="-333.07" r="0"/>
  <circle cx="-308.84" cy="-326.01" r="0"/>
  <circle cx="-328.8" cy="-330.45" r="0"/>
 </g>
 <g transform="matrix(12.283,0,0,12.283,-40.062,-131.15)" fill="#5e4aa6" stroke-width=".26458">
  <circle cx="-330.35" cy="-328.38" r="0"/>
  <circle cx="-312.11" cy="-326.25" r="0"/>
  <circle cx="-306.02" cy="-333.07" r="0"/>
  <circle cx="-308.84" cy="-326.01" r="0"/>
  <circle cx="-328.8" cy="-330.45" r="0"/>
 </g>
 <path d="m32 28.375h-30v-15.125c0-1.5188 1.1193-2.75 2.5-2.75h21.25l6.25 5.5001z" fill="#148c64" stroke-width="2.622"/>
 <rect x="2.002" y="16" width="59.997" height="41.001" ry="3" fill="#148c64" stroke-width="3.7796"/>
 <rect x="3.6791" y="17.75" width="56.645" height="37.5" ry="1.1308" fill="#fffffc" stroke-width="3.7796"/>
 <path d="m59.5 16h-27.5l-6.2499 5.5001h-21.25c-1.3807 0-2.5 1.2312-2.5 2.75v30c0 1.5188 1.1193 2.75 2.5 2.75h55.001c1.3807 0 2.5-1.2312 2.5-2.75v-35.5c0-1.5188-1.1193-2.75-2.5-2.75z" fill="url(#linearGradient1064)" stroke-width="2.622"/>
 <path d="m39.613 38.358 2.6274-2.6274c0.0831-0.08312 0.12288-0.19878 0.10842-0.31081-0.0181-0.11926-0.0831-0.22046-0.18432-0.27828l-7.0872-4.0912c-0.14818-0.08312-0.3325-0.05782-0.45176 0.06144l-2.6274 2.6238-2.6274-2.6238c-0.11926-0.11926-0.30358-0.14818-0.45176-0.06144l-7.0836 4.0912c-0.10119 0.05783-0.16986 0.15902-0.18432 0.27828-0.0144 0.11204 0.0217 0.2313 0.10481 0.31081l2.6274 2.6274-2.6274 2.6274c-0.0831 0.08313-0.11926 0.19878-0.10481 0.31081 0.0144 0.11565 0.0795 0.21685 0.18432 0.27467l2.7033 1.5613v3.4009c0 0.13372 0.0723 0.2566 0.18793 0.32527l7.0872 4.0912c0.0578 0.03614 0.12288 0.0506 0.18793 0.0506 0.065 0 0.12649-0.01446 0.18793-0.0506l7.0836-4.0912c0.11565-0.06867 0.18793-0.18793 0.18793-0.32527v-3.4009l2.7033-1.5577c0.1012-0.05782 0.16625-0.15902 0.18432-0.27467 0.0145-0.11565-0.0253-0.2313-0.10842-0.31081zm-1.2794 0-6.3319 3.6611-6.3391-3.6611 4.7525-2.7431 1.5866-0.91436 5.7283 3.3069zm-3.3792-6.5162 6.415 3.7081-2.3455 2.3419-0.38309-0.22046-6.0319-3.4804zm-5.9054 0 2.3455 2.3455-6.4186 3.7044-2.3456-2.3419zm-4.0731 6.9824 6.415 3.7044-2.3456 2.3455-6.415-3.7009zm0.31081 4.7453 3.6322 2.0962c0.0578 0.03614 0.12288 0.0506 0.18793 0.0506 7e-3 0 0.0145-0.01084 0.0217-0.01084 0.0867-0.0036 0.17709-0.03253 0.24214-0.09758l2.2552-2.2552v6.6319l-6.3391-3.6647zm13.423 2.7539-6.3355 3.6575v-6.6282l2.2516 2.2552c0.065 0.06505 0.15179 0.09397 0.24214 0.09758 7e-3 0 0.0145 0.01084 0.0217 0.01084 0.065 0 0.12649-0.01446 0.18793-0.0506l3.6322-2.0962zm-3.7587-1.4492-2.3455-2.3419 6.415-3.7044 2.3455 2.3455z" fill="#146e50" stroke="#146e50" stroke-width=".15" p-id="6965"/>
</svg>
