<svg xmlns="http://www.w3.org/2000/svg" viewBox="0 0 16 16">
    <path d="M8 2C4.676 2 2 4.676 2 8s2.676 6 6 6 6-2.676 6-6-2.676-6-6-6zm0 1c2.992 0 5 2.008 5 5s-2.008 5-5 5-5-2.008-5-5 2.008-5 5-5zm1.5 2a1 1 0 0 0-1 1 1 1 0 0 0 1 1 1 1 0 0 0 1-1 1 1 0 0 0-1-1zm-2 1.5A.5.5 0 0 0 7 7a.5.5 0 0 0 .5.5A.5.5 0 0 0 8 7a.5.5 0 0 0-.5-.5zm-2 .5a1 1 0 0 0-1 1 1 1 0 0 0 1 1 1 1 0 0 0 1-1 1 1 0 0 0-1-1zm2 1.5A.5.5 0 0 0 7 9a.5.5 0 0 0 .5.5A.5.5 0 0 0 8 9a.5.5 0 0 0-.5-.5zm2 .5a1 1 0 0 0-1 1 1 1 0 0 0 1 1 1 1 0 0 0 1-1 1 1 0 0 0-1-1z" fill="currentColor" color="#e1e1e1"/>
</svg>
