<?xml version="1.0" encoding="UTF-8"?>
<svg width="16" height="16" version="1.1" viewBox="0 0 16 16" xmlns="http://www.w3.org/2000/svg" xmlns:cc="http://creativecommons.org/ns#" xmlns:dc="http://purl.org/dc/elements/1.1/" xmlns:rdf="http://www.w3.org/1999/02/22-rdf-syntax-ns#">
 <metadata>
  <rdf:RDF>
   <cc:Work rdf:about="">
    <dc:format>image/svg+xml</dc:format>
    <dc:type rdf:resource="http://purl.org/dc/dcmitype/StillImage"/>
    <dc:title/>
   </cc:Work>
  </rdf:RDF>
 </metadata>
 <defs>
  <style id="current-color-scheme" type="text/css">.ColorScheme-Text { color:#727272; } .ColorScheme-Highlight { color:#5294e2; }</style>
  <style type="text/css">.ColorScheme-Text { color:#727272; } .ColorScheme-Highlight { color:#5294e2; }</style>
  <style type="text/css">.ColorScheme-Text { color:#727272; } .ColorScheme-Highlight { color:#5294e2; }</style>
  <linearGradient id="linearGradient864" x1="11.397" x2="126.08" y1="-52.462" y2="-229.84" gradientTransform="matrix(.088969 0 0 .088969 1.8644 20.596)" gradientUnits="userSpaceOnUse">
   <stop stop-color="#00a1f4" offset="0"/>
   <stop stop-color="#009afb" offset="1"/>
  </linearGradient>
 </defs>
 <path class="ColorScheme-Text" d="m-19.916 2v8.275a1.982 1.982 0 0 0-1-0.275c-1.108 0-2 0.892-2 2s0.892 2 2 2 2-0.892 2-2v-6h7v2.275a1.982 1.982 0 0 0-1-0.275c-1.108 0-2 0.892-2 2s0.892 2 2 2 2-0.892 2-2v-8zm1 2h7v1h-7z" fill="currentColor"/>
 <path d="m8.2059 0.38533v10.986s-3.6506-1.3481-5.2666 2.2024c0 0-0.49191 2.0074 2.1741 2.3513s4.2643-2.321 4.2643-2.7866v-8.1683s4.6626 1.87 2.1199 5.9277c0 0-0.15124 0.39819 0.26603 0.36759s3.0073-3.9175-0.40753-7.4878c0 0-1.8405-1.2538-2.0195-3.3946 0 0-0.46622-0.7634-1.1308 2e-3z" fill="url(#linearGradient864)" stroke="#007ac0" stroke-opacity=".97255" stroke-width=".088969px"/>
</svg>
