<?xml version="1.0" encoding="UTF-8" standalone="no"?>
<svg
   version="1.1"
   viewBox="0 0 16 16"
   id="svg59"
   sodipodi:docname="document-open-recent.svg"
   inkscape:version="1.4 (e7c3feb100, 2024-10-09)"
   xmlns:inkscape="http://www.inkscape.org/namespaces/inkscape"
   xmlns:sodipodi="http://sodipodi.sourceforge.net/DTD/sodipodi-0.dtd"
   xmlns="http://www.w3.org/2000/svg"
   xmlns:svg="http://www.w3.org/2000/svg"
   xmlns:rdf="http://www.w3.org/1999/02/22-rdf-syntax-ns#"
   xmlns:cc="http://creativecommons.org/ns#"
   xmlns:dc="http://purl.org/dc/elements/1.1/">
  <sodipodi:namedview
     id="namedview61"
     pagecolor="#ffffff"
     bordercolor="#999999"
     borderopacity="1"
     inkscape:pageshadow="0"
     inkscape:pageopacity="0"
     inkscape:pagecheckerboard="0"
     showgrid="false"
     inkscape:zoom="17.633475"
     inkscape:cx="1.5878889"
     inkscape:cy="5.4441905"
     inkscape:window-width="2560"
     inkscape:window-height="1411"
     inkscape:window-x="0"
     inkscape:window-y="0"
     inkscape:window-maximized="1"
     inkscape:current-layer="svg59"
     inkscape:showpageshadow="0"
     inkscape:deskcolor="#505050" />
  <metadata
     id="metadata2">
    <rdf:RDF>
      <cc:Work
         rdf:about="">
        <dc:format>image/svg+xml</dc:format>
        <dc:type
           rdf:resource="http://purl.org/dc/dcmitype/StillImage" />
        <dc:title />
      </cc:Work>
    </rdf:RDF>
  </metadata>
  <defs
     id="defs25">
    <style
       id="current-color-scheme"
       type="text/css">.ColorScheme-Text {
        color:#363636;
      }</style>
    <linearGradient
       id="linearGradient1064"
       x1="-15.961"
       x2="-.30109"
       y1="-43.254"
       y2="-54.196"
       gradientTransform="matrix(1,0,0,1.1,-15.599,68.547)"
       gradientUnits="userSpaceOnUse">
      <stop
         stop-color="#ffc832"
         offset="0"
         id="stop5" />
      <stop
         stop-color="#ffdc6e"
         offset="1"
         id="stop7" />
    </linearGradient>
    <linearGradient
       id="linearGradient1142"
       x1="-59.707"
       x2="-24.213"
       y1="-182.27"
       y2="-182.27"
       gradientTransform="matrix(0.26458,0,0,0.26458,-12.7,64.557)"
       gradientUnits="userSpaceOnUse">
      <stop
         stop-color="#1496ff"
         offset="0"
         id="stop10" />
      <stop
         stop-color="#0a78ff"
         offset="1"
         id="stop12" />
    </linearGradient>
    <linearGradient
       id="linearGradient1150"
       x1="-56.875"
       x2="-56.875"
       y1="-185.88"
       y2="-160.88"
       gradientUnits="userSpaceOnUse">
      <stop
         stop-color="#0a82ff"
         offset="0"
         id="stop15" />
      <stop
         stop-color="#0564c8"
         offset="1"
         id="stop17" />
    </linearGradient>
    <linearGradient
       id="linearGradient1164"
       x1="-27.625"
       x2="-27.625"
       y1="-188"
       y2="-160.75"
       gradientUnits="userSpaceOnUse">
      <stop
         stop-color="#004bb9"
         offset="0"
         id="stop20" />
      <stop
         stop-color="#0546b4"
         offset="1"
         id="stop22" />
    </linearGradient>
    <linearGradient
       id="linearGradient1911"
       x1="25.084999"
       x2="25.084999"
       y1="24.031"
       y2="26.412001"
       gradientTransform="translate(-34.300037,-22.575694)"
       gradientUnits="userSpaceOnUse">
      <stop
         stop-color="#fcbc19"
         stop-opacity=".99608"
         offset="0"
         id="stop22-3"
         style="stop-color:#e19600;stop-opacity:1" />
      <stop
         stop-color="#f4b61f"
         offset="1"
         id="stop24"
         style="stop-color:#e19600;stop-opacity:1" />
    </linearGradient>
    <linearGradient
       id="linearGradient4625"
       x1="0.52917999"
       x2="16.403999"
       y1="5.0665002"
       y2="5.0665002"
       gradientTransform="translate(-16.403037,-1.1905934)"
       gradientUnits="userSpaceOnUse">
      <stop
         stop-color="#b78815"
         offset="0"
         id="stop27" />
      <stop
         stop-color="#e2b24b"
         stop-opacity="0"
         offset="1"
         id="stop29" />
    </linearGradient>
    <linearGradient
       id="linearGradient1951"
       x1="100"
       x2="133.19"
       y1="17.452999"
       y2="51.605999"
       gradientTransform="matrix(0.26458,0,0,0.26458,-36.511037,-1.3259934)"
       gradientUnits="userSpaceOnUse">
      <stop
         stop-color="#fce798"
         offset="0"
         id="stop32" />
      <stop
         stop-color="#ffc937"
         offset="1"
         id="stop34" />
    </linearGradient>
    <linearGradient
       id="linearGradient11110"
       x1="0.52916998"
       x2="16.403999"
       y1="5.3814998"
       y2="5.3814998"
       gradientTransform="translate(-16.403037,-1.1905934)"
       gradientUnits="userSpaceOnUse">
      <stop
         stop-color="#fff"
         offset="0"
         id="stop37" />
      <stop
         stop-color="#fff"
         stop-opacity="0"
         offset="1"
         id="stop39" />
    </linearGradient>
  </defs>
  <path
     class="ColorScheme-Text"
     d="m23.904 0c-1.108 0-2 0.892-2 2v1h-2c-1.108 0-2 0.892-2 2v9c0 1.108 0.892 2 2 2h6c0.52949 0 1.0062-0.20738 1.3633-0.54102a4.5 4.5 0 0 1-0.86328-0.61133c-0.14906 0.08808-0.31363 0.15234-0.5 0.15234h-6c-0.554 0-1-0.446-1-1v-9c0-0.1385 0.02766-0.27092 0.07813-0.39062 0.15141-0.35916 0.50638-0.60938 0.92188-0.60938h2v5h3.7598a4.5 4.5 0 0 1 1.7207-1.5195l-4.4805-4.4805v-1c0-0.1385 0.02766-0.27092 0.07813-0.39062 0.15141-0.35916 0.50638-0.60938 0.92188-0.60938h2v5h5v1.2637a4.5 4.5 0 0 1 1 0.49609v-2.7598l-5-5h-3zm3 1.4141 3.5859 3.5859h-3.5859zm-4 3 3.5859 3.5859h-3.5859z"
     fill="currentColor"
     id="path27" />
  <path
     class="ColorScheme-Text"
     d="m29.404 8c-1.933 0-3.5 1.567-3.5 3.5s1.567 3.5 3.5 3.5 3.5-1.567 3.5-3.5-1.567-3.5-3.5-3.5zm-1 1c0.277 0 0.5 0.223 0.5 0.5v2.5h2.5c0.277 0 0.5 0.223 0.5 0.5s-0.223 0.5-0.5 0.5h-3c-0.277 0-0.5-0.223-0.5-0.5v-3c0-0.277 0.223-0.5 0.5-0.5z"
     fill="currentColor"
     id="path29" />
  <g
     transform="matrix(0.88188476,0,0,0.88188476,28.990528,-4.9146565)"
     id="g54">
    <path
       d="m -23.801,12.098 h -7.9373 V 8.0963 c 0,-0.40184 0.29614,-0.72759 0.66144,-0.72759 h 5.6223 l 1.6536,1.4552 z"
       fill="#ffe55e"
       stroke-width="0.69373"
       id="path26" />
    <g
       transform="matrix(1,0,0,1.1,-15.599,68.547)"
       stroke-width="0.66145"
       id="g32">
      <path
         d="m -8.2026,-51.317 h -7.9373 v -3.6379 c 0,-0.36531 0.29614,-0.66144 0.66144,-0.66144 h 5.6223 l 1.6536,1.3229 z"
         fill="#e19600"
         id="path28" />
      <path
         d="m -9.8562,-55.617 h -5.6223 c -0.36532,0 -0.66144,0.29612 -0.66144,0.66144 v 0.16536 c 0,-0.36532 0.29612,-0.66144 0.66144,-0.66144 h 5.6223 l 1.6536,1.3229 v -0.16536 z"
         fill="#ffffff"
         opacity="0.2"
         id="path30" />
    </g>
    <path
       d="m -16.526,8.8236 h -7.2759 l -1.6536,1.4552 h -5.6223 c -0.36531,0 -0.66144,0.32575 -0.66144,0.72759 v 9.4587 c 0,0.40184 0.29614,0.72759 0.66144,0.72759 h 14.552 c 0.36531,0 0.66145,-0.32575 0.66145,-0.72759 v -10.914 c 0,-0.40184 -0.29614,-0.72759 -0.66145,-0.72759 z"
       fill="url(#linearGradient1064)"
       stroke-width="0.69373"
       id="path34"
       style="fill:url(#linearGradient1064)" />
    <path
       d="m -16.526,21.011 h -14.552 c -0.36532,0 -0.66144,-0.32578 -0.66144,-0.72759 v 0.1819 c 0,0.40181 0.29612,0.72759 0.66144,0.72759 h 14.552 c 0.36532,0 0.66145,-0.32578 0.66145,-0.72759 v -0.1819 c 0,0.40181 -0.29612,0.72759 -0.66145,0.72759 z"
       opacity="0.1"
       stroke-width="0.69373"
       id="path36" />
    <path
       d="m -19.106,14.892 c -0.1111,-0.14787 -0.26255,-0.24804 -0.44182,-0.24804 h -8.5068 c -0.17958,0 -0.3311,0.10078 -0.44234,0.24908 l 2.5161,3.1279 h 4.3578 z"
       fill="url(#linearGradient1142)"
       stroke-width="0.66491"
       id="path38"
       style="fill:url(#linearGradient1142)" />
    <path
       d="m -16.526,8.8236 h -7.2759 l -1.6536,1.4552 h -5.6223 c -0.36532,0 -0.66144,0.32574 -0.66144,0.72759 v 0.1819 c 0,-0.40185 0.29612,-0.72759 0.66144,-0.72759 h 5.6223 l 1.6536,-1.4552 h 7.2759 c 0.36532,0 0.66145,0.32574 0.66145,0.72759 v -0.1819 c 0,-0.40185 -0.29612,-0.72759 -0.66145,-0.72759 z"
       fill="#ffffff"
       opacity="0.2"
       stroke-width="0.69373"
       id="path40" />
    <g
       transform="translate(-12.7,64.557)"
       id="g46">
      <path
         transform="scale(0.26458)"
         d="m -50.197,-175.89 -9.5098,-11.822 c -0.36526,0.48695 -0.625,1.1025 -0.625,1.8086 v 23.375 c 0,0.75939 0.51425,1.375 1.1484,1.375 h 7.8379 c 0.63419,0 1.1484,-0.61561 1.1484,-1.375 z"
         fill="url(#linearGradient1150)"
         stroke-width="2.5131"
         id="path42"
         style="fill:url(#linearGradient1150)" />
      <path
         d="m -13.617,-42.819 h -2.0112 c -0.18512,0 -0.33521,-0.16289 -0.33521,-0.36379 v 0.1819 c 0,0.2009 0.15009,0.3638 0.33521,0.3638 h 2.0112 c 0.18512,0 0.33521,-0.16289 0.33521,-0.3638 v -0.1819 c 0,0.2009 -0.15009,0.36379 -0.33521,0.36379 z"
         opacity="0.1"
         stroke-width="0.69842"
         id="path44" />
    </g>
    <g
       transform="translate(-12.7,64.557)"
       id="g52">
      <path
         transform="scale(0.26458)"
         d="m -24.213,-187.71 -9.5137,11.826 h 0.0039 v 13.361 c 0,0.75939 0.51425,1.375 1.1484,1.375 h 7.8398 c 0.63419,0 1.1465,-0.61561 1.1465,-1.375 v -23.375 c 0,-0.70742 -0.25887,-1.3252 -0.625,-1.8125 z"
         fill="url(#linearGradient1164)"
         stroke-width="2.5131"
         id="path48"
         style="fill:url(#linearGradient1164)" />
      <path
         d="m -6.578,-42.819 h -2.0112 c -0.18512,0 -0.33521,-0.16289 -0.33521,-0.36379 v 0.1819 c 0,0.2009 0.15009,0.3638 0.33521,0.3638 h 2.0112 c 0.18512,0 0.33521,-0.16289 0.33521,-0.3638 v -0.1819 c 0,0.2009 -0.15009,0.36379 -0.33521,0.36379 z"
         opacity="0.1"
         stroke-width="0.69842"
         id="path50" />
    </g>
  </g>
</svg>
