<?xml version="1.0" encoding="UTF-8"?>
<svg width="64" height="64" version="1.1" viewBox="0 0 64 64" xmlns="http://www.w3.org/2000/svg" xmlns:cc="http://creativecommons.org/ns#" xmlns:dc="http://purl.org/dc/elements/1.1/" xmlns:rdf="http://www.w3.org/1999/02/22-rdf-syntax-ns#" xmlns:xlink="http://www.w3.org/1999/xlink">
 <metadata>
  <rdf:RDF>
   <cc:Work rdf:about="">
    <dc:format>image/svg+xml</dc:format>
    <dc:type rdf:resource="http://purl.org/dc/dcmitype/StillImage"/>
    <dc:title/>
   </cc:Work>
  </rdf:RDF>
 </metadata>
 <defs>
  <style id="current-color-scheme" type="text/css">.ColorScheme-Text { color:#565656; } .ColorScheme-Highlight { color:#5294e2; }</style>
  <style type="text/css"/>
  <style type="text/css">.ColorScheme-Text {
        color:#4d4d4d;
      }</style>
  <style type="text/css">.ColorScheme-Text {
        color:#4d4d4d;
      }</style>
  <style type="text/css"/>
  <style type="text/css">.ColorScheme-Text {
        color:#4d4d4d;
      }</style>
  <style type="text/css">.ColorScheme-Text {
        color:#4d4d4d;
      }</style>
  <style type="text/css">.ColorScheme-Text { color:#565656; } .ColorScheme-Highlight { color:#5294e2; }</style>
  <linearGradient id="linearGradient947" x1="-16.14" x2="-1.0699" y1="-55.616" y2="-44.835" gradientTransform="matrix(1,0,0,1.1,16.669,62.435)" gradientUnits="userSpaceOnUse" xlink:href="#linearGradient992"/>
  <linearGradient id="linearGradient992" x1="-16.14" x2="-1.0699" y1="-55.616" y2="-44.835" gradientTransform="matrix(1,0,0,1.1,16.669,62.435)" gradientUnits="userSpaceOnUse">
   <stop stop-color="#e1a000" offset="0"/>
   <stop stop-color="#ffdc6e" offset="1"/>
  </linearGradient>
  <linearGradient id="linearGradient1006" x1=".52939" x2="16.217" y1="2.7784" y2="14.872" gradientTransform="matrix(1,0,0,1.1,16.669,62.435)" gradientUnits="userSpaceOnUse">
   <stop stop-color="#e1a000" offset="0"/>
   <stop stop-color="#ffdc6e" offset="1"/>
  </linearGradient>
  <linearGradient id="linearGradient1064-3" x1="-15.961" x2="-.30109" y1="-43.254" y2="-54.196" gradientTransform="matrix(3.7796 0 0 4.1576 63.003 235.98)" gradientUnits="userSpaceOnUse">
   <stop stop-color="#ffc832" offset="0"/>
   <stop stop-color="#ffdc6e" offset="1"/>
  </linearGradient>
 </defs>
 <g transform="matrix(3.7796 0 0 3.7796 .00096427 .00016737)">
  <g transform="matrix(1,0,0,1.1,16.669,63.956)" fill="url(#linearGradient947)" stroke-width=".66145">
   <path d="m-8.2026-51.317h-7.9373v-3.6379c0-0.36531 0.29614-0.66144 0.66144-0.66144h5.6223l1.6536 1.3229z" fill="url(#linearGradient947)"/>
  </g>
  <rect x=".52939" y="4.2333" width="15.874" height="10.848" ry=".79373" fill="url(#linearGradient1006)"/>
  <rect x=".97311" y="4.6963" width="14.987" height="9.9217" ry=".29919" fill="#fffffc"/>
 </g>
 <path d="m59.5 16h-27.5l-6.2499 5.5001h-21.25c-1.3807 0-2.5 1.2312-2.5 2.75v30c0 1.5188 1.1193 2.75 2.5 2.75h55.001c1.3807 0 2.5-1.2312 2.5-2.75v-35.5c0-1.5188-1.1193-2.75-2.5-2.75z" fill="url(#linearGradient1064-3)" stroke-width="2.622"/>
 <path d="m32.017 31.476c-3.7316 0-4.5966 2.3257-4.4066 5.3683 6e-3 0.10056 0.025 0.20857 0.0335 0.31064-2e-3 -0.0013-9e-3 -0.01436-0.0112-0.01488 0 0-1.332-0.05154-0.97656 1.2723 0.3554 1.3239 1.0301 2.7355 1.7764 2.8943 0.0252 0.0054 0.0427-0.0068 0.0633-0.01116 0.18256 0.4947 0.3871 0.93855 0.62128 1.3151v0.59896s0.23078 1.828-1.0751 2.5037c-1.306 0.67564-5.6291 2.7013-5.8612 3.0766-0.23216 0.37536-0.57934 1.4584 0.40737 1.7336h18.824c0.98673-0.27526 0.63955-1.3583 0.40737-1.7336-0.23218-0.37536-4.5554-2.4009-5.8612-3.0766-1.306-0.67564-1.0751-2.5037-1.0751-2.5037v-0.54129c0.14843-0.23256 0.29062-0.47779 0.41853-0.75707 0.0687-0.14998 0.12496-0.32963 0.18787-0.49293 0.0241 0.0081 0.0471 0.01963 0.0781 0.01302 0.74634-0.15884 1.421-1.5705 1.7764-2.8943 0.35133-1.3087-0.93752-1.2715-0.96726-1.2705 0.29357-3.2432-0.46089-5.7906-4.3601-5.7906z" fill="none" stroke="#e1a000" stroke-width=".95238"/>
</svg>
