<?xml version="1.0" encoding="UTF-8"?>
<svg width="64" height="64" version="1.1" viewBox="0 0 16.933 16.933" xmlns="http://www.w3.org/2000/svg" xmlns:cc="http://creativecommons.org/ns#" xmlns:dc="http://purl.org/dc/elements/1.1/" xmlns:rdf="http://www.w3.org/1999/02/22-rdf-syntax-ns#" xmlns:xlink="http://www.w3.org/1999/xlink">
 <metadata>
  <rdf:RDF>
   <cc:Work rdf:about="">
    <dc:format>image/svg+xml</dc:format>
    <dc:type rdf:resource="http://purl.org/dc/dcmitype/StillImage"/>
    <dc:title/>
   </cc:Work>
  </rdf:RDF>
 </metadata>
 <defs>
  <linearGradient id="linearGradient947" x1="-16.14" x2="-1.0699" y1="-55.616" y2="-44.835" gradientTransform="matrix(1,0,0,1.1,16.669,62.435)" gradientUnits="userSpaceOnUse" xlink:href="#linearGradient992"/>
  <linearGradient id="linearGradient992" x1="-16.14" x2="-1.0699" y1="-55.616" y2="-44.835" gradientTransform="matrix(1,0,0,1.1,16.669,62.435)" gradientUnits="userSpaceOnUse">
   <stop stop-color="#e1a000" offset="0"/>
   <stop stop-color="#ffdc6e" offset="1"/>
  </linearGradient>
  <linearGradient id="linearGradient1006" x1=".52939" x2="16.217" y1="2.7784" y2="14.872" gradientTransform="matrix(1,0,0,1.1,16.669,62.435)" gradientUnits="userSpaceOnUse">
   <stop stop-color="#e1a000" offset="0"/>
   <stop stop-color="#ffdc6e" offset="1"/>
  </linearGradient>
  <linearGradient id="linearGradient1064-3" x1="-15.961" x2="-.30109" y1="-43.254" y2="-54.196" gradientTransform="matrix(1 0 0 1.1 16.669 62.435)" gradientUnits="userSpaceOnUse">
   <stop stop-color="#ffc832" offset="0"/>
   <stop stop-color="#ffdc6e" offset="1"/>
  </linearGradient>
 </defs>
 <g transform="translate(.00025521 4.4312e-5)">
  <g transform="matrix(1,0,0,1.1,16.669,63.956)" fill="url(#linearGradient947)" stroke-width=".66145">
   <path d="m-8.2026-51.317h-7.9373v-3.6379c0-0.36531 0.29614-0.66144 0.66144-0.66144h5.6223l1.6536 1.3229z" fill="url(#linearGradient947)"/>
  </g>
  <rect x=".52939" y="4.2333" width="15.874" height="10.848" ry=".79373" fill="url(#linearGradient1006)"/>
  <rect x=".97311" y="4.6963" width="14.987" height="9.9217" ry=".29919" fill="#fffffc"/>
 </g>
 <path d="m15.742 4.2333h-7.2759l-1.6536 1.4552h-5.6223c-0.36531 0-0.66144 0.32575-0.66144 0.72759v7.9373c0 0.40184 0.29614 0.72759 0.66144 0.72759h14.552c0.36531 0 0.66145-0.32575 0.66145-0.72759v-9.3926c0-0.40184-0.29614-0.72759-0.66145-0.72759z" fill="url(#linearGradient1064-3)" stroke-width=".69373"/>
 <g class="ColorScheme-Text" transform="matrix(.39687 0 0 .39687 5.2915 7.2759)" fill="#e1a000" stroke-width=".66667">
  <path d="m9.3333 2.3333h-1.3333l-6 12h1.3334z"/>
  <rect x="8" y="13.667" width="6" height=".66666" stroke-width=".47141"/>
 </g>
</svg>
