<?xml version="1.0" encoding="UTF-8" standalone="no"?>
<svg
   width="24"
   height="24"
   version="1.1"
   id="svg1"
   sodipodi:docname="account-logged-in.svg"
   inkscape:version="1.3.2 (091e20ef0f, 2023-11-25, custom)"
   xmlns:inkscape="http://www.inkscape.org/namespaces/inkscape"
   xmlns:sodipodi="http://sodipodi.sourceforge.net/DTD/sodipodi-0.dtd"
   xmlns="http://www.w3.org/2000/svg"
   xmlns:svg="http://www.w3.org/2000/svg">
  <defs
     id="defs1" />
  <sodipodi:namedview
     id="namedview1"
     pagecolor="#c8c8c8"
     bordercolor="#000000"
     borderopacity="0.25"
     inkscape:showpageshadow="2"
     inkscape:pageopacity="0.0"
     inkscape:pagecheckerboard="0"
     inkscape:deskcolor="#d1d1d1"
     inkscape:zoom="8.2916667"
     inkscape:cx="4.3417085"
     inkscape:cy="10.492462"
     inkscape:window-width="1920"
     inkscape:window-height="1003"
     inkscape:window-x="0"
     inkscape:window-y="0"
     inkscape:window-maximized="1"
     inkscape:current-layer="svg1" />
  <g
     id="g885"
     transform="translate(1,-22)">
    <path
       id="path866"
       style="opacity:1;fill:#fbfbfb;fill-opacity:1;stroke-width:2;stroke-linecap:round"
       d="m 10.9902,25 a 9,9 0 0 0 -8.990234,9 9,9 0 0 0 9,9 9,9 0 0 0 9,-9 9,9 0 0 0 -9,-9 9,9 0 0 0 -0.0098,0 z M 11,26 a 8,8 0 0 1 8,8 8,8 0 0 1 -8,8 8,8 0 0 1 -8,-8 8,8 0 0 1 8,-8 z" />
    <g
       id="g879"
       transform="translate(17.732653,1.6824353)">
      <rect
         style="opacity:1;fill:#fbfbfb;fill-opacity:1;stroke-width:1.82574;stroke-linecap:round"
         id="rect873"
         width="5"
         height="1"
         x="14.59124"
         y="30.612698"
         ry="0.5"
         transform="rotate(45)" />
      <rect
         style="opacity:1;fill:#fbfbfb;fill-opacity:1;stroke-width:2.58199;stroke-linecap:round"
         id="rect875"
         width="10"
         height="1"
         x="-31.612698"
         y="18.59124"
         ry="0.5"
         transform="rotate(-45)" />
    </g>
  </g>
</svg>
