<?xml version="1.0" encoding="UTF-8" standalone="no"?>
<svg
   width="24"
   height="24"
   enable-background="new"
   version="1.1"
   id="svg5"
   sodipodi:docname="audio-volume-medium-panel.svg"
   inkscape:version="1.3.2 (091e20ef0f, 2023-11-25, custom)"
   xmlns:inkscape="http://www.inkscape.org/namespaces/inkscape"
   xmlns:sodipodi="http://sodipodi.sourceforge.net/DTD/sodipodi-0.dtd"
   xmlns="http://www.w3.org/2000/svg"
   xmlns:svg="http://www.w3.org/2000/svg"
   xmlns:rdf="http://www.w3.org/1999/02/22-rdf-syntax-ns#"
   xmlns:cc="http://creativecommons.org/ns#"
   xmlns:dc="http://purl.org/dc/elements/1.1/">
  <defs
     id="defs5" />
  <sodipodi:namedview
     id="namedview5"
     pagecolor="#c8c8c8"
     bordercolor="#000000"
     borderopacity="0.25"
     inkscape:showpageshadow="2"
     inkscape:pageopacity="0.0"
     inkscape:pagecheckerboard="0"
     inkscape:deskcolor="#d1d1d1"
     inkscape:zoom="11.726187"
     inkscape:cx="11.256856"
     inkscape:cy="24.389854"
     inkscape:window-width="1920"
     inkscape:window-height="1003"
     inkscape:window-x="0"
     inkscape:window-y="0"
     inkscape:window-maximized="1"
     inkscape:current-layer="svg5" />
  <title
     id="title1">Paper Symbolic Icon Theme</title>
  <metadata
     id="metadata5">
    <rdf:RDF>
      <cc:Work
         rdf:about="">
        <dc:title>Paper Symbolic Icon Theme</dc:title>
      </cc:Work>
    </rdf:RDF>
  </metadata>
  <g
     id="22-22-audio-volume-medium"
     transform="translate(-239.53572,-363.50504)">
    <path
       style="fill:none"
       inkscape:connector-curvature="0"
       id="path10710"
       d="m 240.53572,364.50504 h 22 v 22 h -22 z" />
    <g
       id="g10720"
       transform="translate(56.996856)">
      <path
         id="path10712"
         style="color:#363636;fill:#fefefe;fill-opacity:1;stroke:#fefefe;stroke-width:0;stroke-miterlimit:4;stroke-dasharray:none;stroke-opacity:1"
         d="m 190.92558,370.00504 c -0.18714,-0.0115 -0.55991,0.13962 -0.69141,0.25781 l -2.60351,3.24219 h -2.45508 c -0.90654,0 -1.63672,0.75528 -1.63672,1.75 v 2.5 c 0,0.99472 0.73018,1.75 1.63672,1.75 h 2.45508 l 2.78515,3.33398 c 0.13148,0.11821 0.32268,0.17756 0.50977,0.16602 0.3118,-0.0193 0.61328,-0.2375 0.61328,-0.71485 v -11.57031 c 0,-0.47735 -0.30137,-0.69552 -0.61328,-0.71484 z m -0.38672,1.45238 v 0.22461 9.58033 0.27344 l -2.48663,-3.03076 h -2.67939 c -0.0571,0 -0.11419,-0.007 -0.16796,-0.0176 -6.3e-4,-1.3e-4 -0.001,1.3e-4 -0.002,0 -0.0537,-0.0109 -0.10491,-0.0262 -0.15429,-0.0469 -5.3e-4,-2.3e-4 -10e-4,2.2e-4 -0.002,0 -0.0499,-0.021 -0.0963,-0.0482 -0.14062,-0.0781 -0.0443,-0.0299 -0.0854,-0.0639 -0.12305,-0.10156 -0.0377,-0.0377 -0.0717,-0.0787 -0.10156,-0.12305 -0.0299,-0.0443 -0.0571,-0.0907 -0.0781,-0.14062 -2.3e-4,-5.6e-4 2.4e-4,-10e-4 0,-0.002 -0.0207,-0.0494 -0.0359,-0.10055 -0.0469,-0.15429 -1.3e-4,-6.2e-4 1.2e-4,-10e-4 0,-0.002 -0.006,-0.0272 -0.0108,-0.0539 -0.0137,-0.082 -0.003,-0.0281 -0.004,-0.0571 -0.004,-0.0859 v -2.33203 c 0,-0.057 0.007,-0.11419 0.0176,-0.16797 1.2e-4,-6.2e-4 -1.3e-4,-10e-4 0,-0.002 0.0109,-0.0537 0.0262,-0.10491 0.0469,-0.1543 2.2e-4,-5.2e-4 -2.2e-4,-0.001 0,-0.002 0.021,-0.0499 0.0482,-0.0963 0.0781,-0.14062 0.0299,-0.0443 0.0639,-0.0854 0.10156,-0.12305 0.0377,-0.0377 0.0787,-0.0717 0.12305,-0.10156 0.0443,-0.0299 0.0907,-0.0571 0.14062,-0.0781 5.6e-4,-2.3e-4 0.001,2.3e-4 0.002,0 0.0494,-0.0207 0.10055,-0.0359 0.15429,-0.0469 0.0543,-0.0111 0.11222,-0.0176 0.16992,-0.0176 h 2.67939 z"
         sodipodi:nodetypes="cccsssscccssccccccscccccccccsccssscscccccccscc" />
      <path
         style="fill:none;fill-opacity:1;stroke:#fefefe;stroke-width:1.2;stroke-linecap:round;stroke-linejoin:round;stroke-miterlimit:4;stroke-dasharray:none;stroke-opacity:1"
         id="path10714"
         sodipodi:type="arc"
         sodipodi:cx="192.1636"
         sodipodi:cy="376.50299"
         sodipodi:rx="4.1397295"
         sodipodi:ry="4.1397295"
         sodipodi:start="5.4977871"
         sodipodi:end="0.78539816"
         sodipodi:arc-type="arc"
         d="m 195.09084,373.57576 a 4.1397295,4.1397295 0 0 1 1.21249,2.92723 4.1397295,4.1397295 0 0 1 -1.21249,2.92723"
         sodipodi:open="true" />
      <path
         style="fill:none;fill-opacity:1;stroke:#fefefe;stroke-width:1.2;stroke-linecap:round;stroke-linejoin:round;stroke-miterlimit:4;stroke-dasharray:none;stroke-opacity:1"
         id="path10716"
         sodipodi:type="arc"
         sodipodi:cx="192.1636"
         sodipodi:cy="376.50299"
         sodipodi:rx="7.819489"
         sodipodi:ry="7.819489"
         sodipodi:start="5.4977871"
         sodipodi:end="0.78539816"
         sodipodi:arc-type="arc"
         d="m 197.69282,370.97378 a 7.819489,7.819489 0 0 1 2.29027,5.52921 7.819489,7.819489 0 0 1 -2.29027,5.52921"
         sodipodi:open="true" />
      <path
         style="opacity:0.3;fill:none;fill-opacity:1;stroke:#fefefe;stroke-width:1.2;stroke-linecap:round;stroke-linejoin:round;stroke-miterlimit:4;stroke-dasharray:none;stroke-opacity:1"
         id="path10718"
         sodipodi:type="arc"
         sodipodi:cx="193.08643"
         sodipodi:cy="376.50299"
         sodipodi:rx="10.579309"
         sodipodi:ry="10.579309"
         sodipodi:start="5.4977871"
         sodipodi:end="0.78539816"
         sodipodi:arc-type="arc"
         d="m 200.56713,369.02229 a 10.579309,10.579309 0 0 1 3.09861,7.4807 10.579309,10.579309 0 0 1 -3.09861,7.4807"
         sodipodi:open="true" />
    </g>
  </g>
</svg>
