<?xml version="1.0" encoding="UTF-8" standalone="no"?>
<svg
   width="24"
   height="24"
   enable-background="new"
   version="1.1"
   id="svg5"
   sodipodi:docname="audio-volume-medium-panel.svg"
   inkscape:version="1.4 (e7c3feb100, 2024-10-09)"
   xmlns:inkscape="http://www.inkscape.org/namespaces/inkscape"
   xmlns:sodipodi="http://sodipodi.sourceforge.net/DTD/sodipodi-0.dtd"
   xmlns="http://www.w3.org/2000/svg"
   xmlns:svg="http://www.w3.org/2000/svg"
   xmlns:rdf="http://www.w3.org/1999/02/22-rdf-syntax-ns#"
   xmlns:cc="http://creativecommons.org/ns#"
   xmlns:dc="http://purl.org/dc/elements/1.1/">
  <defs
     id="defs5" />
  <sodipodi:namedview
     id="namedview5"
     pagecolor="#c8c8c8"
     bordercolor="#000000"
     borderopacity="0.25"
     inkscape:showpageshadow="2"
     inkscape:pageopacity="0.0"
     inkscape:pagecheckerboard="0"
     inkscape:deskcolor="#d1d1d1"
     inkscape:zoom="33.166665"
     inkscape:cx="11.427136"
     inkscape:cy="14.502513"
     inkscape:window-width="2560"
     inkscape:window-height="1411"
     inkscape:window-x="0"
     inkscape:window-y="0"
     inkscape:window-maximized="1"
     inkscape:current-layer="svg5" />
  <title
     id="title1">Paper Symbolic Icon Theme</title>
  <metadata
     id="metadata5">
    <rdf:RDF>
      <cc:Work
         rdf:about="">
        <dc:title>Paper Symbolic Icon Theme</dc:title>
      </cc:Work>
    </rdf:RDF>
  </metadata>
  <path
     class="ColorScheme-Text" fill="currentColor"
     d="M 8.38672,6.5 C 8.19958,6.4885 7.82682,6.63962 7.69532,6.75781 L 5.0918,10 H 2.63672 C 1.73018,10 1,10.75528 1,11.75 v 2.5 C 1,15.24472 1.73018,16 2.63672,16 H 5.0918 l 2.78516,3.33398 C 8.00844,19.45219 8.19963,19.51154 8.38672,19.5 8.69852,19.4807 9,19.26251 9,18.78516 V 7.21484 C 9,6.73749 8.69863,6.51932 8.38672,6.5 Z m 6.76758,0.36719 a 0.60000002,0.60000002 0 0 0 -0.42578,0.17578 0.60000002,0.60000002 0 0 0 0,0.84961 c 1.35408,1.35408 2.11523,3.19051 2.11523,5.10547 0,1.91495 -0.76115,3.74943 -2.11523,5.10351 a 0.60000002,0.60000002 0 0 0 0,0.84961 0.60000002,0.60000002 0 0 0 0.84961,0 c 1.57879,-1.5788 2.4668,-3.72037 2.4668,-5.95312 0,-2.23276 -0.888,-4.37628 -2.4668,-5.95508 A 0.60000002,0.60000002 0 0 0 15.1543,6.86719 Z M 8,7.95313 v 0.2246 9.58008 0.27344 L 5.51368,15 H 2.83399 c -0.0571,0 -0.1142,-0.007 -0.16797,-0.0176 h -0.002 C 2.61032,14.9715 2.5591,14.9562 2.50972,14.9355 h -0.002 c -0.0499,-0.021 -0.0963,-0.0482 -0.14063,-0.0781 -0.0443,-0.0299 -0.0854,-0.0639 -0.12305,-0.10156 -0.0377,-0.0377 -0.0717,-0.0787 -0.10156,-0.12305 -0.0299,-0.0443 -0.0571,-0.0907 -0.0781,-0.14062 v -0.002 c -0.0207,-0.0494 -0.0359,-0.10055 -0.0469,-0.15429 v -0.002 c -0.006,-0.0272 -0.0108,-0.0539 -0.0137,-0.082 -0.003,-0.0281 -0.004,-0.0571 -0.004,-0.0859 v -2.33204 c 0,-0.057 0.007,-0.11418 0.0176,-0.16796 v -0.002 c 0.0109,-0.0537 0.0262,-0.1049 0.0469,-0.15429 v -0.002 c 0.021,-0.0499 0.0482,-0.0963 0.0781,-0.14062 0.0299,-0.0443 0.0639,-0.0854 0.10156,-0.12305 0.0377,-0.0377 0.0787,-0.0717 0.12305,-0.10156 0.0443,-0.0299 0.0907,-0.0571 0.14063,-0.0781 h 0.002 c 0.0494,-0.0207 0.10056,-0.0359 0.1543,-0.0469 0.0543,-0.0111 0.11222,-0.0176 0.16992,-0.0176 h 2.67969 z m 4.45704,1.52539 a 0.60000002,0.60000002 0 0 0 -0.33008,0.16796 0.60000002,0.60000002 0 0 0 0,0.84766 c 0.66398,0.66399 1.03712,1.56488 1.03711,2.50391 10e-6,0.93902 -0.37313,1.83796 -1.03711,2.50195 a 0.60000002,0.60000002 0 0 0 0,0.84766 0.60000002,0.60000002 0 0 0 0.84961,0 c 0.88871,-0.88871 1.38867,-2.09279 1.38867,-3.34961 0,-1.25683 -0.49996,-2.46286 -1.38867,-3.35157 A 0.60000002,0.60000002 0 0 0 12.45704,9.47852 Z"
     id="path1"
     style="fill:#ffffff;fill-opacity:1" />
  <path
     class="ColorScheme-Text" fill="currentColor"
     d="m 18.02755,4.91683 a 0.60000002,0.60000002 0 0 0 -0.42383,0.17579 0.60000002,0.60000002 0 0 0 0,0.84961 c 1.87164,1.87164 2.92383,4.40973 2.92383,7.05664 0,2.6469 -1.05219,5.18304 -2.92383,7.05468 a 0.60000002,0.60000002 0 0 0 0,0.84961 0.60000002,0.60000002 0 0 0 0.84961,0 c 2.09636,-2.09636 3.27343,-4.93959 3.27343,-7.90429 0,-2.96471 -1.17707,-5.80989 -3.27343,-7.90625 A 0.60000002,0.60000002 0 0 0 18.02755,4.91683 Z"
     id="path10718"
     style="opacity:0.3;fill:#ffffff;fill-opacity:1" />
</svg>
