<?xml version="1.0" encoding="UTF-8" standalone="no"?>
<svg
   width="24"
   height="24"
   enable-background="new"
   version="1.1"
   id="svg1"
   sodipodi:docname="audio-volume-muted-blocking-panel.svg"
   inkscape:version="1.4 (e7c3feb100, 2024-10-09)"
   xmlns:inkscape="http://www.inkscape.org/namespaces/inkscape"
   xmlns:sodipodi="http://sodipodi.sourceforge.net/DTD/sodipodi-0.dtd"
   xmlns="http://www.w3.org/2000/svg"
   xmlns:svg="http://www.w3.org/2000/svg"
   xmlns:rdf="http://www.w3.org/1999/02/22-rdf-syntax-ns#"
   xmlns:cc="http://creativecommons.org/ns#"
   xmlns:dc="http://purl.org/dc/elements/1.1/">
  <defs
     id="defs1" />
  <sodipodi:namedview
     id="namedview1"
     pagecolor="#c8c8c8"
     bordercolor="#000000"
     borderopacity="0.25"
     inkscape:showpageshadow="2"
     inkscape:pageopacity="0.0"
     inkscape:pagecheckerboard="0"
     inkscape:deskcolor="#d1d1d1"
     inkscape:zoom="33.166666"
     inkscape:cx="14.231156"
     inkscape:cy="13.17588"
     inkscape:window-width="2560"
     inkscape:window-height="1411"
     inkscape:window-x="0"
     inkscape:window-y="0"
     inkscape:window-maximized="1"
     inkscape:current-layer="svg1"
     showgrid="true">
    <inkscape:grid
       id="grid1"
       units="px"
       originx="0"
       originy="0"
       spacingx="1"
       spacingy="1"
       empcolor="#0099e5"
       empopacity="0.30196078"
       color="#0099e5"
       opacity="0.14901961"
       empspacing="5"
       enabled="true"
       visible="true" />
  </sodipodi:namedview>
  <title
     id="title1">Paper Symbolic Icon Theme</title>
  <metadata
     id="metadata1">
    <rdf:RDF>
      <cc:Work
         rdf:about="">
        <dc:title>Paper Symbolic Icon Theme</dc:title>
      </cc:Work>
    </rdf:RDF>
  </metadata>
  <path
     class="ColorScheme-Text" fill="currentColor"
     d="M 8.38672,6.5 C 8.19958,6.4885 7.82681,6.63962 7.69531,6.75781 L 5.0918,10 H 2.63672 C 1.73018,10 1,10.75528 1,11.75 v 2.5 C 1,15.24472 1.73018,16 2.63672,16 H 5.0918 l 2.78515,3.33398 C 8.00843,19.45219 8.19963,19.51154 8.38672,19.5 8.69852,19.4807 9,19.2625 9,18.78515 V 7.21484 C 9,6.73749 8.69863,6.51932 8.38672,6.5 Z M 8,7.95238 v 0.22461 9.58033 0.27344 L 5.51337,15 H 2.83398 c -0.0571,0 -0.11419,-0.007 -0.16796,-0.0176 -6.3e-4,-1.3e-4 -10e-4,1.3e-4 -0.002,0 -0.0537,-0.0109 -0.10491,-0.0262 -0.15429,-0.0469 -5.3e-4,-2.3e-4 -10e-4,2.2e-4 -0.002,0 -0.0499,-0.021 -0.0963,-0.0482 -0.14062,-0.0781 -0.0443,-0.0299 -0.0854,-0.0639 -0.12305,-0.10156 -0.0377,-0.0377 -0.0717,-0.0787 -0.10156,-0.12305 -0.0299,-0.0443 -0.0571,-0.0907 -0.0781,-0.14062 -2.3e-4,-5.6e-4 2.4e-4,-10e-4 0,-0.002 -0.0207,-0.0494 -0.0359,-0.10055 -0.0469,-0.15429 -1.3e-4,-6.2e-4 1.2e-4,-10e-4 0,-0.002 -0.006,-0.0272 -0.0108,-0.0539 -0.0137,-0.082 -0.003,-0.0281 -0.004,-0.0571 -0.004,-0.0859 v -2.33203 c 0,-0.057 0.007,-0.11419 0.0176,-0.16797 1.2e-4,-6.2e-4 -1.3e-4,-10e-4 0,-0.002 0.0109,-0.0537 0.0262,-0.10491 0.0469,-0.1543 2.2e-4,-5.2e-4 -2.2e-4,-10e-4 0,-0.002 0.021,-0.0499 0.0482,-0.0963 0.0781,-0.14062 0.0299,-0.0443 0.0639,-0.0854 0.10156,-0.12305 0.0377,-0.0377 0.0787,-0.0717 0.12305,-0.10156 0.0443,-0.0299 0.0907,-0.0571 0.14062,-0.0781 5.6e-4,-2.3e-4 0.001,2.3e-4 0.002,0 0.0494,-0.0207 0.10055,-0.0359 0.15429,-0.0469 0.0543,-0.0111 0.11222,-0.0176 0.16992,-0.0176 h 2.67939 z"
     sodipodi:nodetypes="cccsssscccssccccccscccccccccsccssscscccccccscc"
     id="path1"
     style="fill:#ffffff;fill-opacity:1;opacity:0.3" />
  <path
     class="ColorScheme-Text" fill="currentColor"
     d="m 11.516727,7.3723497 c -0.131976,0 -0.263912,0.05215 -0.365037,0.1532752 -0.202253,0.2022526 -0.202253,0.5278238 0,0.7300763 l 4.745489,4.7454898 -4.745491,4.745491 c -0.202251,0.202252 -0.202251,0.527823 2e-6,0.730076 0.202252,0.202251 0.527823,0.202251 0.730074,1e-6 l 4.745491,-4.745492 4.745491,4.745491 c 0.202252,0.202251 0.527824,0.202251 0.730076,0 0.202252,-0.202253 0.202251,-0.527824 -1e-6,-0.730076 L 17.35733,13.001191 22.102822,8.2557012 c 0.202252,-0.2022525 0.202252,-0.5278237 0,-0.7300763 -0.202252,-0.2022524 -0.527824,-0.2022524 -0.730076,0 L 16.627254,12.271116 11.881764,7.5256258 C 11.780639,7.4244994 11.648702,7.3723497 11.516727,7.3723497 Z"
     id="path2"
     style="fill:#ffffff;fill-opacity:1;opacity:0.3" />
</svg>
