<?xml version="1.0" encoding="UTF-8" standalone="no"?>
<svg
   width="24"
   height="24"
   enable-background="new"
   version="1.1"
   id="svg5"
   sodipodi:docname="audio-volume-high-panel.svg"
   inkscape:version="1.4 (e7c3feb100, 2024-10-09)"
   xmlns:inkscape="http://www.inkscape.org/namespaces/inkscape"
   xmlns:sodipodi="http://sodipodi.sourceforge.net/DTD/sodipodi-0.dtd"
   xmlns="http://www.w3.org/2000/svg"
   xmlns:svg="http://www.w3.org/2000/svg"
   xmlns:rdf="http://www.w3.org/1999/02/22-rdf-syntax-ns#"
   xmlns:cc="http://creativecommons.org/ns#"
   xmlns:dc="http://purl.org/dc/elements/1.1/"><defs
   id="defs5" />
<sodipodi:namedview
   id="namedview5"
   pagecolor="#c8c8c8"
   bordercolor="#000000"
   borderopacity="0.25"
   inkscape:showpageshadow="2"
   inkscape:pageopacity="0.0"
   inkscape:pagecheckerboard="0"
   inkscape:deskcolor="#d1d1d1"
   inkscape:zoom="16.583333"
   inkscape:cx="20.743719"
   inkscape:cy="13.929649"
   inkscape:window-width="2560"
   inkscape:window-height="1411"
   inkscape:window-x="0"
   inkscape:window-y="0"
   inkscape:window-maximized="1"
   inkscape:current-layer="22-22-audio-volume-high" />
<title
   id="title1">Paper Symbolic Icon Theme</title>




style=&quot;color:#363636;fill:#fefefe;fill-opacity:1;stroke:#fefefe;stroke-width:0;stroke-miterlimit:4;stroke-dasharray:none;stroke-opacity:1&quot;
  <metadata
   id="metadata5">
  <rdf:RDF>
    <cc:Work
       rdf:about="">
      <dc:title>Paper Symbolic Icon Theme</dc:title>
    </cc:Work>
  </rdf:RDF>
</metadata>
<g
   id="22-22-audio-volume-high"
   transform="translate(-239.53572,-363.50504)">
  <rect
     style="opacity:0.001;fill:#fe20fe;stroke-width:1.50295;stroke-linecap:round;stroke-linejoin:round"
     id="rect1"
     width="24"
     height="23.585981"
     x="239.53572"
     y="363.71204" />
  <path
     class="ColorScheme-Text" fill="currentColor"
     d="m 257.55916,368.45426 a 0.60000002,0.60000002 0 0 0 -0.42383,0.17578 0.60000002,0.60000002 0 0 0 0,0.84766 c 1.86307,1.86307 2.90821,4.3906 2.90821,7.02539 0,2.63478 -1.04514,5.16036 -2.90821,7.02343 a 0.60000002,0.60000002 0 0 0 0,0.84766 0.60000002,0.60000002 0 0 0 0.84766,0 c 2.08779,-2.08779 3.26172,-4.91851 3.26172,-7.87109 0,-2.95258 -1.17393,-5.78526 -3.26172,-7.87305 a 0.60000002,0.60000002 0 0 0 -0.42383,-0.17578 z m -9.63672,1.55078 c -0.18714,-0.0115 -0.5599,0.13962 -0.6914,0.25781 l -2.60352,3.24219 h -2.45508 c -0.90654,0 -1.63672,0.75528 -1.63672,1.75 v 2.5 c 0,0.99472 0.73018,1.75 1.63672,1.75 h 2.45508 l 2.78516,3.33398 c 0.13148,0.11821 0.32267,0.17756 0.50976,0.16602 0.3118,-0.0193 0.61328,-0.23749 0.61328,-0.71484 v -11.57032 c 0,-0.47735 -0.30137,-0.69552 -0.61328,-0.71484 z m 6.77344,0.39258 a 0.60000002,0.60000002 0 0 0 -0.42383,0.17578 0.60000002,0.60000002 0 0 0 0,0.84766 c 1.34774,1.34775 2.10547,3.17603 2.10547,5.08203 0,1.90599 -0.75773,3.73234 -2.10547,5.08008 a 0.60000002,0.60000002 0 0 0 0,0.84765 0.60000002,0.60000002 0 0 0 0.84961,0 c 1.57246,-1.57246 2.45508,-3.70394 2.45508,-5.92773 0,-2.2238 -0.88262,-4.35723 -2.45508,-5.92969 a 0.60000002,0.60000002 0 0 0 -0.42578,-0.17578 z m -7.16016,1.06055 v 0.2246 9.58008 0.27344 l -2.48632,-3.03125 h -2.67969 c -0.0571,0 -0.1142,-0.007 -0.16797,-0.0176 h -0.002 c -0.0537,-0.0109 -0.10492,-0.0262 -0.1543,-0.0469 h -0.002 c -0.0499,-0.021 -0.0963,-0.0482 -0.14063,-0.0781 -0.0443,-0.0299 -0.0854,-0.0639 -0.12305,-0.10156 -0.0377,-0.0377 -0.0717,-0.0787 -0.10156,-0.12305 -0.0299,-0.0443 -0.0571,-0.0907 -0.0781,-0.14062 v -0.002 c -0.0207,-0.0494 -0.0359,-0.10055 -0.0469,-0.15429 v -0.002 c -0.006,-0.0272 -0.0108,-0.0539 -0.0137,-0.082 -0.003,-0.0281 -0.004,-0.0571 -0.004,-0.0859 v -2.33204 c 0,-0.057 0.007,-0.11418 0.0176,-0.16796 v -0.002 c 0.0109,-0.0537 0.0262,-0.1049 0.0469,-0.15429 v -0.002 c 0.021,-0.0499 0.0482,-0.0963 0.0781,-0.14062 0.0299,-0.0443 0.0639,-0.0854 0.10156,-0.12305 0.0377,-0.0377 0.0787,-0.0717 0.12305,-0.10156 0.0443,-0.0299 0.0907,-0.0571 0.14063,-0.0781 h 0.002 c 0.0494,-0.0207 0.10056,-0.0359 0.1543,-0.0469 0.0543,-0.0111 0.11222,-0.0176 0.16992,-0.0176 h 2.67969 z m 4.57032,1.52929 a 0.60000002,0.60000002 0 0 0 -0.42383,0.17578 0.60000002,0.60000002 0 0 0 0,0.84766 c 0.66063,0.66063 1.03125,1.55791 1.03125,2.49219 0,0.93428 -0.37062,1.82959 -1.03125,2.49023 a 0.60000002,0.60000002 0 0 0 0,0.84766 0.60000002,0.60000002 0 0 0 0.84765,0 c 0.88536,-0.88536 1.38282,-2.08581 1.38282,-3.33789 0,-1.25208 -0.49746,-2.45449 -1.38282,-3.33985 a 0.60000002,0.60000002 0 0 0 -0.42382,-0.17578 z"
     id="path1"
     style="fill:#ffffff;fill-opacity:1" />
</g>
</svg>
