<?xml version="1.0" encoding="UTF-8"?>
<!-- Created with Inkscape (http://www.inkscape.org/) -->
<svg width="64" height="64" version="1.1" viewBox="0 0 16.933 16.933" xmlns="http://www.w3.org/2000/svg" xmlns:cc="http://creativecommons.org/ns#" xmlns:dc="http://purl.org/dc/elements/1.1/" xmlns:rdf="http://www.w3.org/1999/02/22-rdf-syntax-ns#">
 <defs>
  <linearGradient id="linearGradient1011" x1="3.9687" x2="3.9687" y1="-12.171" y2="-6.879" gradientTransform="matrix(1 0 0 .99894 1.0583 14.153)" gradientUnits="userSpaceOnUse">
   <stop stop-color="#059bff" offset="0"/>
   <stop stop-color="#005aff" offset="1"/>
  </linearGradient>
  <linearGradient id="linearGradient921" x1="7.9373" x2="7.9373" y1="1.0583" y2="-8.2019" gradientTransform="translate(1.0583 14.42)" gradientUnits="userSpaceOnUse">
   <stop stop-color="#005aff" offset="0"/>
   <stop stop-color="#059bff" offset="1"/>
  </linearGradient>
  <style type="text/css"/>
 </defs>
 <metadata>
  <rdf:RDF>
   <cc:Work rdf:about="">
    <dc:format>image/svg+xml</dc:format>
    <dc:type rdf:resource="http://purl.org/dc/dcmitype/StillImage"/>
    <dc:title/>
   </cc:Work>
  </rdf:RDF>
 </metadata>
 <g fill="#5e4aa6" stroke-width=".26458">
  <circle cx="-330.35" cy="-328.38" r="0"/>
  <circle cx="-312.11" cy="-326.25" r="0"/>
  <circle cx="-306.02" cy="-333.07" r="0"/>
  <circle cx="-308.84" cy="-326.01" r="0"/>
  <circle cx="-328.8" cy="-330.45" r="0"/>
 </g>
 <g transform="translate(-.52916 -.39687)">
  <path d="m1.5875 2.2489c-0.29315 0-0.52916 0.23575-0.52916 0.5286v9.2614c0 0.29284 0.236 0.5286 0.52916 0.5286h14.816c0.29315 0 0.52916-0.23576 0.52916-0.5286v-6.6075c0-0.21963-0.08855-0.4178-0.23202-0.56112s-0.34185-0.23178-0.56171-0.23178h-6.8651c-0.83239 0-1.7561-1.3313-2.1306-1.8604 0 0-0.26458-0.52916-0.80355-0.52916z" fill="url(#linearGradient1011)"/>
  <rect x="1.852" y="5.4239" width="14.287" height="9.6192" ry=".52916" fill="#fff"/>
  <path d="m1.0583 6.2176v8.4665c0 0.43973 0.35401 0.79373 0.79373 0.79373h14.287c0.43973 0 0.79373-0.354 0.79373-0.79373v-8.4665z" fill="url(#linearGradient921)"/>
  <rect x="1.0583" y="6.2176" width="15.875" height=".26458" fill="#fff" opacity=".3"/>
 </g>
 <path d="m10.605 8.0222c-0.06992-0.06919-0.16191-0.09822-0.25181-0.07907l-2.6458 0.54855c-0.14772 0.03089-0.25496 0.181-0.25496 0.35705v3.0936c-0.1309-0.13096-0.30017-0.21065-0.48521-0.21065-0.4132 0-0.74964 0.39535-0.74964 0.88089s0.33644 0.88089 0.74964 0.88089 0.74964-0.39535 0.74964-0.88089v-2.7712l2.7341-0.56708v2.0459c-0.1309-0.13096-0.30017-0.21065-0.48522-0.21065-0.41319 0-0.74964 0.39535-0.74964 0.88089 0 0.48554 0.33644 0.88089 0.74964 0.88089 0.4132 0 0.74964-0.39535 0.74964-0.88089v-3.6904c0-0.10749-0.03995-0.2088-0.1104-0.27798zm-3.6378 5.16c-0.26758 0-0.48522-0.25574-0.48522-0.57017s0.21764-0.57017 0.48522-0.57017 0.48521 0.25574 0.48521 0.57017-0.21764 0.57017-0.48521 0.57017zm0.74964-3.6564v-0.67704c0-0.02533 0.01525-0.04695 0.03627-0.05127l2.6458-0.54855c0.01787-0.0031 0.02996 0.0056 0.03575 0.01174 0.0058 0.0056 0.01577 0.01853 0.01577 0.03954v0.65912zm2.2489 3.0349c-0.26758 0-0.48521-0.25574-0.48521-0.57017 0-0.31443 0.21764-0.57017 0.48521-0.57017s0.48522 0.25574 0.48522 0.57017c0 0.31443-0.21764 0.57017-0.48522 0.57017z" fill="#0050e1" stroke-width=".0056986" p-id="7717"/>
</svg>
