<?xml version="1.0" encoding="UTF-8"?>
<!-- Created with Inkscape (http://www.inkscape.org/) -->
<svg width="64" height="64" version="1.1" viewBox="0 0 16.933 16.933" xmlns="http://www.w3.org/2000/svg" xmlns:cc="http://creativecommons.org/ns#" xmlns:dc="http://purl.org/dc/elements/1.1/" xmlns:rdf="http://www.w3.org/1999/02/22-rdf-syntax-ns#" xmlns:xlink="http://www.w3.org/1999/xlink">
 <defs>
  <linearGradient id="linearGradient1064" x1="-15.961" x2="-.30109" y1="-43.254" y2="-54.196" gradientTransform="matrix(1 0 0 1.1 16.669 62.435)" gradientUnits="userSpaceOnUse">
   <stop stop-color="#ffc832" offset="0"/>
   <stop stop-color="#ffdc6e" offset="1"/>
  </linearGradient>
  <linearGradient id="linearGradient992" x1="-16.14" x2="-1.0699" y1="-55.616" y2="-44.835" gradientTransform="matrix(1 0 0 1.1 16.669 62.435)" gradientUnits="userSpaceOnUse">
   <stop stop-color="#e1a000" offset="0"/>
   <stop stop-color="#ffdc6e" offset="1"/>
  </linearGradient>
  <linearGradient id="linearGradient1006" x1=".52939" x2="16.217" y1="2.7784" y2="14.872" gradientTransform="matrix(1,0,0,1.1,16.669,62.435)" gradientUnits="userSpaceOnUse">
   <stop stop-color="#e1a000" offset="0"/>
   <stop stop-color="#ffdc6e" offset="1"/>
  </linearGradient>
  <linearGradient id="linearGradient943" x1="-16.14" x2="-1.0699" y1="-55.616" y2="-44.835" gradientTransform="matrix(1,0,0,1.1,16.669,62.435)" gradientUnits="userSpaceOnUse" xlink:href="#linearGradient992"/>
 </defs>
 <metadata>
  <rdf:RDF>
   <cc:Work rdf:about="">
    <dc:format>image/svg+xml</dc:format>
    <dc:type rdf:resource="http://purl.org/dc/dcmitype/StillImage"/>
    <dc:title/>
   </cc:Work>
  </rdf:RDF>
 </metadata>
 <g fill="#5e4aa6" stroke-width=".26458">
  <circle cx="-330.35" cy="-328.38" r="0"/>
  <circle cx="-312.11" cy="-326.25" r="0"/>
  <circle cx="-306.02" cy="-333.07" r="0"/>
  <circle cx="-308.84" cy="-326.01" r="0"/>
  <circle cx="-328.8" cy="-330.45" r="0"/>
 </g>
 <g transform="translate(.000295 -.00032978)" fill="#5e4aa6" stroke-width=".26458">
  <circle cx="-330.35" cy="-328.38" r="0"/>
  <circle cx="-312.11" cy="-326.25" r="0"/>
  <circle cx="-306.02" cy="-333.07" r="0"/>
  <circle cx="-308.84" cy="-326.01" r="0"/>
  <circle cx="-328.8" cy="-330.45" r="0"/>
 </g>
 <g transform="translate(.000295 -.00032978)">
  <g transform="matrix(1,0,0,1.1,16.669,63.956)" fill="url(#linearGradient943)" stroke-width=".66145">
   <path d="m-8.2026-51.317h-7.9373v-3.6379c0-0.36531 0.29614-0.66144 0.66144-0.66144h5.6223l1.6536 1.3229z" fill="url(#linearGradient943)"/>
  </g>
  <rect x=".52939" y="4.2333" width="15.874" height="10.848" ry=".79373" fill="url(#linearGradient1006)"/>
  <rect x=".97311" y="4.6963" width="14.987" height="9.9217" ry=".29919" fill="#fffffc"/>
 </g>
 <path d="m15.742 4.2329h-7.2759l-1.6536 1.4552h-5.6223c-0.36531 0-0.66144 0.32575-0.66144 0.72759v7.9373c0 0.40184 0.29614 0.72759 0.66144 0.72759h14.552c0.36531 0 0.66145-0.32575 0.66145-0.72759v-9.3926c0-0.40184-0.29614-0.72759-0.66145-0.72759z" fill="url(#linearGradient1064)" stroke-width=".69373"/>
 <path d="m8.4664 8.1684c-0.09154 0-0.18362 0.00743-0.27278 0.016749a2.5929 2.6094 0 0 0-0.51276 0.099844 2.6576 2.6746 0 0 0-1.7443 1.7554 2.5929 2.6094 0 0 0-0.09922 0.51601 2.6537 2.6707 0 0 0-0.01667 0.27451c0 0.09212 0.0074 0.18479 0.01667 0.27452a2.5929 2.6094 0 0 0 0.09922 0.51602 2.6576 2.6746 0 0 0 1.7443 1.7554 2.5929 2.6094 0 0 0 0.51276 0.10012c0.08917 9e-3 0.18123 0.0165 0.27278 0.0165 0.09156 0 0.18361-0.0075 0.27278-0.01675a2.5929 2.6094 0 0 0 0.51275-0.09957 2.7027 2.7199 0 0 0 0.4794-0.20822 2.6409 2.6578 0 0 0 1.2653-1.5475 2.5929 2.6094 0 0 0 0.09894-0.51601c0.0093-0.08973 0.01667-0.18239 0.01667-0.27452 0-0.09184-0.0075-0.18505-0.01667-0.27451a2.5929 2.6094 0 0 0-0.09894-0.51603 2.6644 2.6813 0 0 0-0.48788-0.90686c-0.054-0.065759-0.11376-0.12274-0.17382-0.18319-0.23892-0.24043-0.5183-0.43959-0.83495-0.57406a2.7416 2.759 0 0 0-0.24791-0.091328 2.5929 2.6094 0 0 0-0.51275-0.099844 2.7288 2.7462 0 0 0-0.27278-0.016749zm0 0.26625c0.40029 0 0.7768 0.098788 1.108 0.27451 0.0087 0.00495 0.01591 0.011964 0.02458 0.016749 0.0066 0.00883 5e-3 0.018399 0.01667 0.024752 0.0085 0.00495 0.01667 0.012459 0.02458 0.016749 0.01401 0.00841 0.02775 0.01972 0.02483 0.033251-0.0035 0.019967-0.03599 0.018648-0.04949 0.033334 0.0016 0.027889-0.0095 0.022608-0.01667 0.041502 0.0042 0.012211 0.01483 0.010644 0.01667 0.025082-0.0025 0.015429-0.0225 0.017245-0.01667 0.033251 0.02592 0.020214 0.04999 0.00331 0.07459 0 0.05367-0.0066 0.09895 8.251e-4 0.1323-0.025001-0.0035-0.020792 0.01583-0.026567 0.02458-0.041502 0.01775 0.012459 0.03258 0.028796 0.04976 0.041502-0.01004 0.00412-0.03224 0.010892-0.0415 0.016749-0.01325 0.00908-0.01749 0.023185-0.03284 0.033251-0.01109 0.00743-0.03808 0.033251-0.04976 0.033251-0.01401 0-0.03967-0.011715-0.04976-0.00858-0.01425 0.00412-0.0085 0.02764-0.02458 0.033251-0.03175 0.011716-0.0881-0.031105-0.09922 0.016749 0.01325 0.02764 0.05849 0.018399 0.08257 0.033251 0.01508 0.00958 0.03758 0.058664 0.04158 0.074835a0.19393 0.19517 0 0 1 0 0.075084c-0.01508 0.038613-0.055 0.034079-0.09948 0.033252-0.01192 0-0.022 8.252e-4 -0.03285 0-0.07459-0.00494-0.14817-0.028799-0.18203 0.024747 0.0025 0.041253 0.0092 0.063864 0 0.099847-0.0066 0.026068-0.03441 0.043973-0.03308 0.066585 5.43e-4 0.011718 0.022 0.034079 0.02483 0.05008 0.0016 0.00856-0.0042 0.025574 0 0.033252 0.01242 0.02376 0.04391-0.00413 0.06616 0 0.02117 0.00333 0.04126 0.034653 0.04126 0.058a0.15108 0.15204 0 0 1-0.01667 0.066585c-0.02117 0.031932-0.06058 0.024254-0.09077 0.041747-0.02516 0.014359-0.03466 0.049586-0.04976 0.074837-0.01591 0.027146-0.03092 0.036225-0.02458 0.074837a0.1786 0.17973 0 0 1-0.09101 0.091595 0.2614 0.26307 0 0 0-0.0415 0.02508 0.20955 0.21089 0 0 0-0.03284 0.033252c-0.01691 0.018645-0.0405 0.026892-0.04976 0.04151-0.0066 0.01114-8.21e-4 0.03491-0.0083 0.05008-0.01058 0.02022-0.02809 0.03779-0.0415 0.058-0.0058 0.0097-0.01801 0.0208-0.02458 0.03333-0.01533 0.02821-0.03599 0.05033-0.03308 0.07508 0.0025 0.02376 0.03175 0.02904 0.03308 0.04984 0.0016 0.01172-0.0087 0.02079-0.0085 0.03325 7.81e-4 0.01864 0.0066 0.02714 0.0085 0.04151 0.0034 0.03597-0.01825 0.05033-0.02491 0.07508-0.0034 0.01146 0.0025 0.02401 0 0.033-0.0058 0.01815-0.03258 0.0288-0.03308 0.05008-5.43e-4 0.01493 0.02325 0.0288 0.02483 0.05008 8.2e-4 0.01444-0.01109 0.0279-0.0085 0.04151 5e-3 0.02607 0.05425 0.06278 0.07459 0.0831 0.02726 0.02764 0.054 0.0458 0.06616 0.07508 0.01004 0.02451 0.01425 0.06477 0.03308 0.0831 0.01375 0.01337 0.03992 0.01922 0.05766 0.03333 0.01691 0.01336 0.04025 0.01922 0.05826 0.03333 0.02907 0.02311 0.06875 0.07005 0.11562 0.06658 0.02433-0.0016 0.04683-0.01172 0.07433-0.01675 0.02833-5e-3 0.06216-0.01948 0.09101-0.0165 0.022 0.0025 0.04283 0.01815 0.06616 0.01675 0.02383-0.0016 0.05533-0.01312 0.08257-0.025 0.04767-0.02079 0.12091-0.06024 0.19023-0.05008 0.05292 0.0084 0.054 0.0679 0.09101 0.09159 0.04233 0.0033 0.07383-0.0084 0.10741 0 0.02541 0.0067 0.05558 0.05462 0.05791 0.07484 0.0025 0.02079-0.01375 0.03697-0.01667 0.05008-0.0066 0.0279-0.01167 0.06527-0.01641 0.0831-0.0042 0.01411-0.0087 0.02764-0.0085 0.04174 0 0.01246 0.02008 0.04151 0.03333 0.058 0.01591 0.02047 0.03867 0.03597 0.05766 0.05826 0.03517 0.04076 0.04999 0.09587 0.07459 0.14991 0.0058 0.01337-0.0058 0.01592 0 0.03309-0.01058 0.08144-0.03809 0.13472-0.091 0.22472-0.02516 0.0293-0.05025 0.06361-0.04976 0.09985-0.0016 0.08706 0.04525 0.13207 0.04158 0.21647-0.0087 0.11316 2.61e-4 0.13073-0.0085 0.19117 0.03808 0.01947 0.01933 0.07639 0.0085 0.11662-0.01641 0.04785-0.03233 0.05965-0.04158 0.09159a0.10582 0.1065 0 0 0 0.05791 0.0084 2.3793 2.3945 0 0 1-1.7198 0.73222 2.3766 2.3917 0 0 1-0.89291-0.17468c-7.92e-4 -5.24e-4 7.99e-4 -0.0084 0-0.0085 0.02516-0.01064 0.07274 0.01865 0.09102-0.0165 9e-3 -0.017-0.01216-0.04958 0-0.06658 0.0085-0.01172 0.06482-0.02211 0.08257-0.02499 0.02566-0.0042 0.05184 8.26e-4 0.06616-0.0084a0.075405 0.075886 0 0 0 0.03308-0.06658c-0.0016-0.01411-0.01375-0.0208-0.02458-0.03333-0.0092-0.01064-0.0025-0.02376-0.0085-0.03325-0.01133-0.017-0.02833-0.02533-0.03308-0.05008 0.03466-0.0067 0.08234 0.03919 0.1323 0.02499 0.02383-0.0067 0.0635-0.05239 0.07459-0.07483 0.0035-0.0067-0.0042-0.03333 0-0.04151 0.0042-0.0093 0.01483-0.01196 0.01641-0.01675 0.0035-0.01304-0.0025-0.01675 0-0.02475 0.0087-0.02476 0.03517-0.0405 0.04976-0.05858 0.01083-0.01337 0.02275-0.02739 0.03308-0.04151 0.01133-0.01493 0.01691-0.01997 0.02458-0.03308 0.0075-0.04423-0.02699-0.07797-0.01641-0.11661 0.01133-0.04373 0.07408-0.07187 0.1156-0.0916 0.01459-0.0067 0.02934-0.02046 0.04158-0.02475 0.02884-0.0104 0.06375-0.0067 0.09075-0.01675 0.04525-0.0165 0.06083-0.06658 0.08284-0.1081 0.01058-0.01948 0.02275-0.03597 0.02458-0.05008 0.0025-0.01247-0.0025-0.02689 0-0.04151 0.0025-0.01436 0.0042-0.02557 0.0085-0.04151a0.42067 0.42335 0 0 0 0.0083-0.08335c0-0.01922-0.0083-0.02401-0.0083-0.04151-0.0035-0.06278 0.01825-0.06551 0.04126-0.09985 0.01167-0.017 0.01667-0.04604 0.02491-0.05826 0.03892-0.058 0.10398-0.08654 0.09922-0.17466-0.0016-0.02929-0.01192-0.09052-0.03308-0.09986-0.01216-5e-3 -0.04025-0.0016-0.05791-0.0084-0.05691-0.02129-0.09789-0.0868-0.15715-0.09158-0.01242-5.25e-4 -0.01908 5.45e-4 -0.03308 0-0.023-5.25e-4 -0.04841-0.0221-0.07433-0.025-0.01641-0.0016-0.04817 5e-3 -0.05791 0-0.01483-0.0067-0.01267-0.03325-0.02458-0.04151-0.0098-0.0067-0.02642-0.01115-0.0415-0.01675a0.19711 0.19836 0 0 0-0.06616-0.0165c-0.0085-5.45e-4 -0.03175 0.0016-0.04126 0-0.01483-0.0025-0.02749-0.01625-0.04124-0.025-0.01749-0.01064-0.02592-0.01815-0.03308-0.03325 0.01583-0.05215-0.03917-0.06098-0.04976-0.09134-5e-3 -0.01411 5e-3 -0.03729 0-0.05008-0.0058-0.01791-0.02141-0.02657-0.04124-0.04151-0.03442-0.02714-0.06616-0.05191-0.11589-0.05826-0.022-0.0025-0.04767 0.0016-0.07408 0a0.12884 0.12966 0 0 1-0.08284-0.04158c-0.02034-0.02401-0.02383-0.04712-0.0415-0.05826-0.01668-0.01064-0.04633-0.01387-0.05767-0.02508-5e-3 -5e-3 -0.0034-0.01387-0.0085-0.02475-0.0085-0.01757-0.02699-0.02055-0.01641-0.04174-0.01933-0.0095-0.01242 0.01221-0.03308 0.0085-0.01849-0.02657-0.032-0.04151-0.07433-0.0335-0.01933 0.0042-0.03549 0.033-0.05791 0.0335-0.01849 5.45e-4 -0.03333-0.03012-0.05791-0.0335-0.01849-0.0025-0.045 0.01972-0.05766 0.01675-0.02092-0.0033-0.02275-0.02904-0.0415-0.04151-0.01375-0.0093-0.04183-0.03383-0.04949-0.03325-0.02408 5.46e-4 -0.04124 0.05116-0.07459 0.03325-0.01617-0.02079 0.02775-0.02236 0.0085-0.04174-0.01459-0.01436-0.02167 7.86e-4 -0.03308 0.0085-0.01351 9e-3 -0.02651 0.01972-0.04158 0.02476-0.03308 0.01271-0.05658 0.01146-0.08257 0.02508-0.02383 0.01271-0.0275 0.03351-0.04125 0.05825-0.01109 0.02022-0.03284 0.04902-0.04976 0.05008-0.02008 0.0016-0.03966-0.02557-0.05766-0.03359-0.05558-0.02401-0.08678 0.01625-0.13229 0.01675-0.04233 5.25e-4 -0.10134-0.0679-0.09922-0.1081 0.0016-0.02475 0.01351-0.06123 0.01641-0.09161 0.0025-0.02401 0.02432-0.04423 0.02483-0.06659 5.34e-4 -0.02929-0.04708-0.05487-0.06616-0.05826-0.04525-0.0084-0.10583 0.02054-0.15716 0-0.0095-0.01651 0.01907-0.02557 0.02483-0.04151 0.0035-0.0093-0.0034-0.01493 0-0.02499 0.0058-0.01543 0.02566-0.02508 0.03308-0.04151 5e-3 -0.01247 0.0025-0.03465 0.0083-0.05008 0.0066-0.01724 0.02325-0.0288 0.02491-0.04151 0.0016-0.0165-0.01192-0.0392-0.02491-0.04984a0.25769 0.25934 0 0 0-0.091 0.01651c-0.05184 0.02401-0.03832 0.09185-0.09075 0.10837-0.01799 0.0058-0.04608 0.01337-0.06616 0.0165a2.3575 2.3725 0 0 1 0.15695-0.49919c0.01849 0.00333 0.03383 0.015186 0.04976 0.016747 0.04417 0.00333 0.046-0.030613 0.08257-0.05008 0.03757 0.00494 0.05691-0.00333 0.09101 0 0.023 0.00252 0.05609 0.031932 0.07433 0.033252 0.01533 5.361e-4 0.01849-0.019226 0.03308-0.016747 0.01459 0.00252 0.03892 0.032758 0.0415 0.05008 0.0025 0.021785-0.01459 0.042573-0.0085 0.066585 0.02275 0.023186 0.06691 0.036467 0.09922 0.05008 0.02117-0.017488 0.0035-0.058 0-0.083362-5.25e-4 -0.011134 0.0016-0.023186 0-0.033252-0.0025-0.017241-0.0083-0.034904-0.0083-0.05008 0-0.069225 0.05292-0.097459 0.09922-0.12463 0.01983-0.011719 0.0405-0.033 0.05791-0.041747 0.02432-0.011961 0.03757-0.013372 0.05766-0.024757 0.03675-0.020797 0.07091-0.042825 0.09922-0.066585 0.01325-0.031438-0.0016-0.068973 0-0.099847 0.01325-0.00846 0.01933 0.00161 0.03308 0 0.02225-0.00494 0.02907-0.037292 0.0415-0.05008 0.0075-0.00746 0.03258-0.00927 0.04125-0.016505 0.02225-0.017492 0.02225-0.042331 0.04126-0.05008 0.0066-0.00252 0.0225-0.00494 0.03308-0.00846 0.01459-0.00413 0.03491-0.016747 0.05791-0.02508 0.01483-0.00494 0.05216-0.00252 0.05791-0.00846 0.0074-0.00746-0.0016-0.038865 0-0.05008 0.01133-0.054624 0.09181-0.056438 0.14049-0.074586 0.03359-0.013372 0.06983-0.04076 0.10742-0.033585-0.0075 0.026078-0.03917 0.018652-0.03308 0.05008 0.0083 0.043973 0.059-0.010641 0.07459-0.016747 0.02907-0.012455 0.08545-0.019226 0.12383-0.033252 0.03383-0.011964 0.08969-0.035726 0.05791-0.074835-0.02651-0.00165-0.03466 0.023762-0.05791 0.033251-0.01583 0.00248-0.01958-0.00743-0.03308-0.00841-0.013-5.445e-4 -0.02008 0.010644-0.03308 0.00841-0.013-0.00248-0.031-0.026073-0.03308-0.041502-5e-3 -0.04076 0.0415-0.053218 0.05791-0.083358-0.01109-0.036716-0.06007-0.00248-0.09102-0.016502 0.0035-0.021782 0.01583-0.045545 0.0415-0.050083a0.16352 0.16456 0 0 1 0.08257 0.016749c0.0074 0.00577-0.0025 0.022937 0.0083 0.033334 0.01267 0.011138 0.03333 0.00248 0.04976 0 0.0058-0.02764-0.03783-0.015429-0.03308-0.033334 0.03258-0.021287 0.09235-0.011469 0.13229-0.016749 0.023-0.00331 0.0455-0.022113 0.06616-0.033251 0.01908-0.011138 0.03758-0.02665 0.05766-0.00841 0.0058 0.019967-0.01375 0.031436-0.02458 0.041502-0.03709 0.033086-0.07042 0.07005-0.09922 0.10837 0.01775 0.017245 0.04441 0.00495 0.07433 0.00841 0.01167 0.00165 0.02907 0.0066 0.04126 0.00858 0.01459 0.00248 0.02991-0.00248 0.0415 0 0.02008 0.00495 0.02117 0.033251 0.04126 0.033251 0.03258 0 0.03517-0.02764 0.01641-0.050083 0.0058-0.022608 0.01667-0.042079 0.0085-0.058004-0.01508-0.030109-0.07141 0.00496-0.07459-0.033245-0.0016-0.024258 0.02458-0.031684 0.03308-0.050083-0.0035-0.046369 0.03783-0.049257 0.03308-0.091328-0.0025-0.017491-0.02117-0.016997-0.03308-0.033251-0.0058-0.00883-0.0092-0.027145-0.01641-0.033251-0.02517-0.021287-0.07141-0.017905-0.07459-0.058664-0.0016-0.02401 0.0035-0.040182 0-0.066585-0.0035-0.024505-0.02833-0.094785-0.04949-0.09958-0.02699-0.00577-0.04233 0.043069-0.07432 0.058004a0.13043 0.13127 0 0 1-0.06616 0.00858c-0.01167-0.00248-0.03174-0.011138-0.03308-0.033334-0.0016-0.012706 0.0025-0.017245 0.0083-0.025001 0.0016-0.00165-0.0016-0.0066 0-0.00841a2.3997 2.415 0 0 1 0.66144-0.091606zm-0.984 0.21647c-0.02325 0.075661-0.09128 0.11875-0.18176 0.11635-0.02225 0.021287-0.013 0.062047-0.02491 0.091593a0.073023 0.073488 0 0 1-0.06616 0.041502c-0.01775-0.00165-0.04976-0.024752-0.04976-0.041502 0-0.013861 0.01325-0.029538 0.01667-0.04175a2.3611 2.3761 0 0 1 0.30586-0.1664zm2.0258 0.083104a0.072494 0.072956 0 0 0-0.02483 0.00841c-0.01849 0.011138-0.01933 0.027889-0.03308 0.033251-0.01983 0.00743-0.04682 0.00743-0.04976 0.025082-0.0025 0.014934 0.01717 0.01972 0.01667 0.033251-0.0075 0.017905-0.02117 0.01972-0.02483 0.041502 0.02458 0.040181 0.08545 5.373e-4 0.11589-0.00841 0.01325-0.00412 0.02566 0.00248 0.03283-0.00841 0.0083-0.013367 0.0016-0.039934 0.0085-0.058252 0.0066-0.020214 0.02726-0.015429 0.02458-0.033251-0.0016-0.017905-0.03624-0.036222-0.06616-0.033251zm-2.6212 0.30779c0.01775 0.021287 0.03258 0.052723 0 0.066585-5e-3 0.00248-0.06266 0.010644-0.07434 0.00858-0.0034-5.281e-4 -5e-3 -0.00577-0.0083-0.00858 0.02518-0.024752 0.05633-0.042822 0.08257-0.066585zm0.06616 0.083358c0.01167 5.373e-4 0.01958 0.02401 0.03308 0.024752 0.01325 0.00165 0.03358-0.010644 0.04158-0.00841 0.02008 0.00495 0.02749 0.043069 0.0083 0.058004-0.01584 0.00161-0.02117-0.019226-0.03284-0.016747-0.03283 0.00574-0.04183 0.06865-0.06616 0.066585-0.02325-0.00252-0.04025-0.049586-0.01667-0.066585 5.25e-4 -0.014357-0.0092-0.018647-0.0083-0.033334 0.0075-0.00908 0.02192-0.026321 0.04126-0.024752zm-0.1074 0.016502c0.0066 0 0.0058-0.00248 0.0083 0-0.0035 0.025824-0.01325 0.029538-0.03308 0.04175a0.13546 0.13632 0 0 0-0.06613 0.091322c-0.0035 0.013372-0.0415 0.053223-0.05766 0.05008-0.03809-0.00836 0.01583-0.08045 0.02458-0.091595 0.0098-0.012212 0.022-0.01972 0.03308-0.033252 0.01109-0.013372 0.01432-0.042079 0.02491-0.050083 0.01167-0.00841 0.04599-0.00908 0.06616-0.00841zm3.2577 0.066585c0.03783-0.00252 0.05691 0.04348 0.07408 0.066585 0.01459 0.018893 0.05924 0.045294 0.08284 0.058252 0.0135 0.00746 0.0265 0.018148 0.04158 0.02508 0.01559 0.00655 0.03916 0.015921 0.05766 0.033252 0.01849 0.016999 0.03258 0.042573 0.03308 0.058 5.43e-4 0.015678-0.01058 0.027145-0.0083 0.041747 0.01667 0.00252 0.02541-0.014359 0.03308-0.033333 0.06242 0.089469 0.11537 0.18506 0.16536 0.28277a0.031219 0.031418 0 0 0-0.01667 0.02508c-5e-3 0.027146 0.01582 0.061798-0.02458 0.066585-0.02566 0.00333-0.05583-0.025574-0.09102-0.033252-0.01425-0.00333-0.03808 0.00333-0.04976 0-0.02642-0.00927-0.01849-0.042331-0.04126-0.058252a0.1852 0.18638 0 0 0-0.06616-0.024757c-0.01301-0.00161-0.01958 0.00161-0.03308 0-0.01641-0.00252-0.04442 0-0.05766-0.00856-0.01325-0.00846-0.04633-0.022108-0.04976-0.033252-5e-3 -0.017906 0.0405-0.043066 0.04126-0.058 8.2e-4 -0.011719-0.014-0.015921-0.01641-0.033585-0.0016-0.010641 0.0025-0.02632 0-0.033-0.0034-0.012706-0.02167-0.024506-0.0415-0.025-0.01717 0-0.03442 0.00846-0.04949 0.00846-0.02117 5.29e-4 -0.06459-0.010641-0.09101-0.00846-0.01584 0.00161-0.02642 0.00746-0.04126 0.00846-0.04183 0.00333-0.06641-0.00252-0.09923 0-0.02383 0.00161-0.06875 0.014933-0.09101 0.025-0.01109 0.00494-0.01849 0.017573-0.03308 0.024757-0.0066 0.00333-0.01583 0.00413-0.02458 0.00856-0.01351 0.00574-0.03674 0.021291-0.04976 0.024757-0.01849 0.00494-0.04025-0.00161-0.07432 0-0.02458 0.00161-0.06558-0.00333-0.06616-0.033-5.2e-4 -0.045294 0.08175-0.025574 0.12384-0.033585 0.01583-0.00333 0.02225-0.022118 0.0415-0.033 9e-3 -0.00494 0.01583-0.010893 0.02458-0.016747 0.01459-0.010147 0.03917-0.030119 0.0415-0.041505 0.0016-0.010641-0.0097-0.025574-0.0085-0.033252 0.0016-0.010147 0.02008-0.020213 0.03333-0.033252 0.02007-0.020546 0.03283-0.045294 0.05766-0.058252 0.01691-0.00927 0.05025-0.011387 0.05791-0.025 0.0016-0.015427-5.43e-4 -0.019226 0-0.033252 0.01058-0.00958 0.0075-0.014691 0.01668-0.016505 0.02592-0.00574 0.05217 0.00978 0.08257 0.00846 0.01325-5.28e-4 0.02749 8.252e-4 0.04126-0.00846 0.01167-0.00846 0.02167-0.019226 0.03308-0.025 0.01267-0.00665 0.02592-0.024012 0.0415-0.02508zm-3.0347 0.02508c0.0066-8.252e-4 0.01717 8.011e-4 0.02517 0 0.01083-5.37e-4 0.02117 0 0.03308 0 0.01192 0 0.02808-0.00494 0.03308 0-0.0083 0.031932-0.08257 0.019972-0.10769 0.00846 7.92e-4 -0.00574 0.01034-0.00746 0.01668-0.00846zm-0.09075 0.058252c0.0083 0 0.01617-0.00333 0.02491 0-0.02225 0.018652-0.05267 0.029292-0.09102 0.041505-0.01849 0.00574-0.04633 0.011961-0.04976-0.00846-0.0035-0.025333 0.01691-0.022612 0.03308-0.025 0.02117-0.00252 0.05826-0.00846 0.08284-0.00846zm3.1336 0c-0.01583 0.00494-0.02383 0.037293 0 0.041505 0.01109-0.00665 0.01109-0.021291 0.0083-0.041505-0.0066-0.00655-0.0035-0.00161-0.0083 0zm-0.0085 0.066585c-0.0075 0.00252-0.01641-5.362e-4 -0.02458 0.00846 5.44e-4 0.027145 5e-3 0.042573 0 0.066585 0.01533 0.030119 0.05025 0.011961 0.05767-0.00846 0.0093-0.050574-0.0098-0.072943-0.03284-0.066585zm0.2069 0.13314a0.071172 0.071625 0 0 0-0.04976 0.016505c0.01799 0.029292 0.05108 0.034653 0.09101 0.041747 0.01432-0.010641 0.0098-0.039933 0.01667-0.058585-0.01741 0-0.02858 0.00161-0.04976 0h-0.0083zm-4.2002 1.0232c0.01691 0.02179 0.03517 0.04711 0.05766 0.05866 0.01216 0.0058 0.02617 5e-3 0.0415 0.0084 0.01242 0.0025 0.02117 0.01312 0.03308 0.01675 0.02541 0.0088 0.06242 0.0075 0.08257 0.01675 0.03092 0.01337 0.04791 0.06757 0.07459 0.0831 0.0016 0.01543-5e-3 0.03012 0 0.04151 0.01242 0.017 0.03757 0.02202 0.05766 0.03325 0.02458 0.01361 0.03492 0.04761 0.05791 0.05826 0.0083 0.0033 0.02066-0.0033 0.03308 0 0.03175 0.0095 0.03867 0.058 0.06616 0.05008 0.01775-5e-3 0.02192-0.03275 0.02483-0.05008 0.01192-0.01337 0.0225-0.03325 0.04126-0.03325 0.02991-5.23e-4 0.03867 0.03729 0.04976 0.06658 0.0058 0.01651 0.02042 0.03243 0.02458 0.05008a0.43391 0.43667 0 0 1 0 0.13313c-0.0074 0.0221-0.03967 0.03383-0.05766 0.058-0.0087 0.01172-0.01825 0.02557-0.02483 0.03325-0.01167 0.01469-0.02432 0.02022-0.03308 0.03325-5e-3 0.0074-0.0042 0.02319-0.0085 0.03325-0.01425 0.03118-0.03674 0.05437-0.02458 0.09159 5e-3 0.01493 0.02458 0.03193 0.02458 0.05008 0 0.02128-0.04601 0.02657-0.04949 0.04984-0.0025 0.017 0.01958 0.05215 0.02491 0.07484 0.0034 0.017 0.03125 0.03061 0.04125 0.04182 0.01691 0.01866 0.03441 0.04233 0.04976 0.06658 0.03016 0.04687 0.04442 0.10384 0.07408 0.14964 0.01583 0.02401 0.04767 0.04126 0.05826 0.06658 5e-3 0.01247-5e-3 0.03828 0 0.05008 0.01717 0.0392 0.10133 0.08045 0.14022 0.09958 0.01849 0.0093 0.03308 0.01543 0.04976 0.02499 0.02567 0.01468 0.07808 0.04397 0.09102 0.06659 0.01167 0.02047 0.01908 0.06733 0.02483 0.09986 0.0075 0.04257-0.0016 0.0788 0 0.12488 0.0016 0.025 0.0083 0.04126 0.0083 0.06659 0 0.0087 5.34e-4 0.02451 0 0.03325-5.25e-4 0.03012 0.0025 0.06122 0 0.09159a0.34448 0.34668 0 0 0 0 0.04984c0.0016 0.01519 0.01559 0.02022 0.01667 0.03325 8.2e-4 0.01411-0.01825 0.03061-0.01667 0.04182 0.0035 0.03036 0.03549 0.05512 0.04126 0.08311 5e-3 0.02236 0.01109 0.07319 0.0085 0.09985-0.0025 0.01411-0.0066 0.03465-0.0085 0.05008-0.0016 0.01196 0.0016 0.02211 0 0.033-0.65906-0.42603-1.0995-1.1661-1.0995-2.0136 0-0.10863 0.01083-0.2114 0.02483-0.31632zm0.90932 0.2415c0.02325-0.01064 0.01876 0.03036 0 0.03325-0.01775 0.0025-0.01717-0.02508 0-0.03325z" color="#000000" fill="#e1a000" stroke-width=".26542"/>
</svg>
