<?xml version="1.0" encoding="UTF-8"?>
<!-- Created with Inkscape (http://www.inkscape.org/) -->
<svg width="64" height="64" version="1.1" viewBox="0 0 16.933 16.933" xmlns="http://www.w3.org/2000/svg" xmlns:cc="http://creativecommons.org/ns#" xmlns:dc="http://purl.org/dc/elements/1.1/" xmlns:rdf="http://www.w3.org/1999/02/22-rdf-syntax-ns#">
 <defs>
  <linearGradient id="linearGradient1011" x1="3.9687" x2="3.9687" y1="-12.171" y2="-6.879" gradientTransform="matrix(1 0 0 .99894 1.0583 14.153)" gradientUnits="userSpaceOnUse">
   <stop stop-color="#059bff" offset="0"/>
   <stop stop-color="#005aff" offset="1"/>
  </linearGradient>
  <linearGradient id="linearGradient921" x1="7.9373" x2="7.9373" y1="1.0583" y2="-8.2019" gradientTransform="translate(1.0583,14.42)" gradientUnits="userSpaceOnUse">
   <stop stop-color="#005aff" offset="0"/>
   <stop stop-color="#059bff" offset="1"/>
  </linearGradient>
 </defs>
 <metadata>
  <rdf:RDF>
   <cc:Work rdf:about="">
    <dc:format>image/svg+xml</dc:format>
    <dc:type rdf:resource="http://purl.org/dc/dcmitype/StillImage"/>
    <dc:title/>
   </cc:Work>
  </rdf:RDF>
 </metadata>
 <g fill="#5e4aa6" stroke-width=".26458">
  <circle cx="-330.35" cy="-328.38" r="0"/>
  <circle cx="-312.11" cy="-326.25" r="0"/>
  <circle cx="-306.02" cy="-333.07" r="0"/>
  <circle cx="-308.84" cy="-326.01" r="0"/>
  <circle cx="-328.8" cy="-330.45" r="0"/>
 </g>
 <g transform="translate(-.5293 -.39686)">
  <path d="m1.5875 2.2489c-0.29315 0-0.52916 0.23575-0.52916 0.5286v9.2614c0 0.29284 0.236 0.5286 0.52916 0.5286h14.816c0.29315 0 0.52916-0.23576 0.52916-0.5286v-6.6075c0-0.21963-0.08855-0.4178-0.23202-0.56112s-0.34185-0.23178-0.56171-0.23178h-6.8651c-0.83239 0-1.7561-1.3313-2.1306-1.8604 0 0-0.26458-0.52916-0.80355-0.52916z" fill="url(#linearGradient1011)"/>
  <rect x="1.852" y="5.4239" width="14.287" height="9.6192" ry=".52916" fill="#fff"/>
  <path d="m1.0583 6.2176v8.4665c0 0.43973 0.35401 0.79373 0.79373 0.79373h14.287c0.43973 0 0.79373-0.354 0.79373-0.79373v-8.4665z" fill="url(#linearGradient921)"/>
  <rect x="1.0583" y="6.2176" width="15.875" height=".26458" fill="#fff" opacity=".3"/>
 </g>
 <path d="m8.4664 8.1684c-0.091539 0-0.18362 0.00743-0.27278 0.016749a2.5929 2.6094 0 0 0-0.51276 0.099844 2.6576 2.6746 0 0 0-1.7443 1.7554 2.5929 2.6094 0 0 0-0.099218 0.51601 2.6537 2.6707 0 0 0-0.016667 0.27451c0 0.09212 0.00741 0.18479 0.016667 0.27452a2.5929 2.6094 0 0 0 0.099218 0.51602 2.6576 2.6746 0 0 0 1.7443 1.7554 2.5929 2.6094 0 0 0 0.51276 0.10012c0.089166 9e-3 0.18123 0.0165 0.27278 0.0165 0.09156 0 0.18361-0.0075 0.27278-0.01675a2.5929 2.6094 0 0 0 0.51275-0.09957 2.7027 2.7199 0 0 0 0.4794-0.20822 2.6409 2.6578 0 0 0 1.2653-1.5475 2.5929 2.6094 0 0 0 0.09894-0.51601c0.0093-0.08973 0.01667-0.18239 0.01667-0.27452 0-0.09184-0.0075-0.18505-0.01667-0.27451a2.5929 2.6094 0 0 0-0.09894-0.51603 2.6644 2.6813 0 0 0-0.48788-0.90686c-0.053996-0.065759-0.11376-0.12274-0.17382-0.18319-0.23892-0.24043-0.5183-0.43959-0.83495-0.57406a2.7416 2.759 0 0 0-0.24791-0.091328 2.5929 2.6094 0 0 0-0.51275-0.099844 2.7288 2.7462 0 0 0-0.27278-0.016749zm0 0.26625c0.40029 0 0.7768 0.098788 1.108 0.27451 0.00872 0.00495 0.015906 0.011964 0.024579 0.016749 0.00659 0.00883 0.00497 0.018399 0.016667 0.024752 0.00852 0.00495 0.016667 0.012459 0.024579 0.016749 0.014009 0.00841 0.027754 0.01972 0.024832 0.033251-0.00345 0.019967-0.035991 0.018648-0.049492 0.033334 0.00162 0.027889-0.00954 0.022608-0.016667 0.041502 0.00416 0.012211 0.014831 0.010644 0.016667 0.025082-0.00254 0.015429-0.022499 0.017245-0.016667 0.033251 0.025918 0.020214 0.04999 0.00331 0.074589 0 0.053672-0.0066 0.098954 8.251e-4 0.1323-0.025001-0.00345-0.020792 0.015835-0.026567 0.024579-0.041502 0.017752 0.012459 0.032583 0.028796 0.049756 0.041502-0.010043 0.00412-0.032238 0.010892-0.041499 0.016749-0.013248 0.00908-0.017488 0.023185-0.032836 0.033251-0.011087 0.00743-0.038081 0.033251-0.049756 0.033251-0.014009 0-0.039673-0.011715-0.049756-0.00858-0.014252 0.00412-0.00852 0.02764-0.024579 0.033251-0.031751 0.011716-0.0881-0.031105-0.099218 0.016749 0.013248 0.02764 0.05849 0.018399 0.082572 0.033251 0.015084 0.00958 0.037583 0.058664 0.04158 0.074835a0.19393 0.19517 0 0 1 0 0.075084c-0.015084 0.038613-0.055001 0.034079-0.099482 0.033252-0.011919 0-0.022002 8.252e-4 -0.032846 0-0.074589-0.00494-0.14817-0.028799-0.18203 0.024747 0.00254 0.041253 0.00923 0.063864 0 0.099847-0.00659 0.026068-0.034408 0.043973-0.03308 0.066585 5.427e-4 0.011718 0.022002 0.034079 0.024832 0.05008 0.00162 0.00856-0.00416 0.025574 0 0.033252 0.012416 0.02376 0.043913-0.00413 0.066159 0 0.02117 0.00333 0.041256 0.034653 0.041256 0.058a0.15108 0.15204 0 0 1-0.016667 0.066585c-0.021171 0.031932-0.06058 0.024254-0.090768 0.041747-0.025157 0.014359-0.034662 0.049586-0.049756 0.074837-0.015906 0.027146-0.030919 0.036225-0.024579 0.074837a0.1786 0.17973 0 0 1-0.091012 0.091595 0.2614 0.26307 0 0 0-0.041499 0.02508 0.20955 0.21089 0 0 0-0.032836 0.033252c-0.01691 0.018645-0.040505 0.026892-0.049756 0.04151-0.00659 0.01114-8.206e-4 0.03491-0.00832 0.05008-0.01058 0.02022-0.028089 0.03779-0.041499 0.058-0.00578 0.0097-0.018006 0.0208-0.024579 0.03333-0.015327 0.02821-0.035991 0.05033-0.033079 0.07508 0.00254 0.02376 0.031751 0.02904 0.033079 0.04984 0.00162 0.01172-0.00872 0.02079-0.00852 0.03325 7.811e-4 0.01864 0.00659 0.02714 0.00852 0.04151 0.00345 0.03597-0.018249 0.05033-0.024914 0.07508-0.00345 0.01146 0.00254 0.02401 0 0.033-0.00578 0.01815-0.032582 0.0288-0.03308 0.05008-5.427e-4 0.01493 0.02325 0.0288 0.024833 0.05008 8.196e-4 0.01444-0.011087 0.0279-0.00852 0.04151 0.00497 0.02607 0.05425 0.06278 0.074589 0.0831 0.027257 0.02764 0.053996 0.0458 0.066159 0.07508 0.010042 0.02451 0.014252 0.06477 0.03308 0.0831 0.013745 0.01337 0.039917 0.01922 0.057658 0.03333 0.01691 0.01336 0.040251 0.01922 0.058257 0.03333 0.029073 0.02311 0.068746 0.07005 0.11562 0.06658 0.024325-0.0016 0.046825-0.01172 0.074325-0.01675 0.028332-5e-3 0.062162-0.01948 0.091012-0.0165 0.022002 0.0025 0.042828 0.01815 0.066159 0.01675 0.023828-0.0016 0.055325-0.01312 0.082572-0.025 0.047667-0.02079 0.12091-0.06024 0.19023-0.05008 0.052921 0.0084 0.053996 0.0679 0.091012 0.09159 0.042331 0.0033 0.073828-0.0084 0.10741 0 0.02541 0.0067 0.05558 0.05462 0.05791 0.07484 0.0025 0.02079-0.01375 0.03697-0.01667 0.05008-0.0066 0.0279-0.01167 0.06527-0.01641 0.0831-0.0042 0.01411-0.0087 0.02764-0.0085 0.04174 0 0.01246 0.02008 0.04151 0.03333 0.058 0.01591 0.02047 0.03867 0.03597 0.05766 0.05826 0.03517 0.04076 0.04999 0.09587 0.07459 0.14991 0.0058 0.01337-0.0058 0.01592 0 0.03309-0.01058 0.08144-0.03809 0.13472-0.091 0.22472-0.02516 0.0293-0.05025 0.06361-0.04976 0.09985-0.0016 0.08706 0.04525 0.13207 0.04158 0.21647-0.0087 0.11316 2.61e-4 0.13073-0.0085 0.19117 0.03808 0.01947 0.01933 0.07639 0.0085 0.11662-0.01641 0.04785-0.03233 0.05965-0.04158 0.09159a0.10582 0.1065 0 0 0 0.05791 0.0084 2.3793 2.3945 0 0 1-1.7198 0.73222 2.3766 2.3917 0 0 1-0.89291-0.17468c-7.922e-4 -5.24e-4 7.994e-4 -0.0084 0-0.0085 0.025157-0.01064 0.072742 0.01865 0.091022-0.0165 0.00903-0.017-0.012163-0.04958 0-0.06658 0.00852-0.01172 0.06482-0.02211 0.082572-0.02499 0.025664-0.0042 0.051836 8.26e-4 0.066159-0.0084a0.075405 0.075886 0 0 0 0.033079-0.06658c-0.00162-0.01411-0.013745-0.0208-0.024579-0.03333-0.00923-0.01064-0.00254-0.02376-0.00852-0.03325-0.011331-0.017-0.028332-0.02533-0.033079-0.05008 0.034662-0.0067 0.082339 0.03919 0.1323 0.02499 0.023828-0.0067 0.063501-0.05239 0.074589-0.07483 0.00345-0.0067-0.00416-0.03333 0-0.04151 0.00416-0.0093 0.01483-0.01196 0.016413-0.01675 0.00345-0.01304-0.00254-0.01675 0-0.02475 0.00872-0.02476 0.035169-0.0405 0.049756-0.05858 0.010834-0.01337 0.022753-0.02739 0.033079-0.04151 0.011331-0.01493 0.01691-0.01997 0.024579-0.03308 0.00751-0.04423-0.026993-0.07797-0.016413-0.11661 0.011331-0.04373 0.074082-0.07187 0.1156-0.0916 0.014587-0.0067 0.029336-0.02046 0.04158-0.02475 0.028839-0.0104 0.063745-0.0067 0.090748-0.01675 0.045252-0.0165 0.060834-0.06658 0.082836-0.1081 0.01058-0.01948 0.022753-0.03597 0.024579-0.05008 0.00254-0.01247-0.00254-0.02689 0-0.04151 0.00254-0.01436 0.00416-0.02557 0.00852-0.04151a0.42067 0.42335 0 0 0 0.00832-0.08335c0-0.01922-0.00832-0.02401-0.00832-0.04151-0.00345-0.06278 0.018249-0.06551 0.041256-0.09985 0.011666-0.017 0.016666-0.04604 0.024914-0.05826 0.038922-0.058 0.10398-0.08654 0.099218-0.17466-0.00162-0.02929-0.011919-0.09052-0.033079-0.09986-0.012163-5e-3 -0.040251-0.0016-0.057912-0.0084-0.056908-0.02129-0.09789-0.0868-0.15715-0.09158-0.012416-5.25e-4 -0.019081 5.45e-4 -0.03308 0-0.022996-5.25e-4 -0.048407-0.0221-0.074335-0.025-0.016413-0.0016-0.048174 5e-3 -0.057912 0-0.01483-0.0067-0.01267-0.03325-0.024579-0.04151-0.00984-0.0067-0.026415-0.01115-0.041499-0.01675a0.19711 0.19836 0 0 0-0.066159-0.0165c-0.00852-5.45e-4 -0.031751 0.0016-0.041256 0-0.01483-0.0025-0.02749-0.01625-0.041245-0.025-0.017488-0.01064-0.025918-0.01815-0.03308-0.03325 0.015835-0.05215-0.039166-0.06098-0.049756-0.09134-0.00497-0.01411 0.00497-0.03729 0-0.05008-0.00578-0.01791-0.021414-0.02657-0.041245-0.04151-0.034419-0.02714-0.066159-0.05191-0.11589-0.05826-0.022002-0.0025-0.047667 0.0016-0.074081 0a0.12884 0.12966 0 0 1-0.082836-0.04158c-0.020339-0.02401-0.023828-0.04712-0.041499-0.05826-0.016677-0.01064-0.046327-0.01387-0.057669-0.02508-0.00497-5e-3 -0.00345-0.01387-0.00852-0.02475-0.00852-0.01757-0.026993-0.02055-0.016413-0.04174-0.019334-0.0095-0.012416 0.01221-0.033079 0.0085-0.018493-0.02657-0.032004-0.04151-0.074325-0.0335-0.019334 0.0042-0.035494 0.033-0.057912 0.0335-0.018493 5.45e-4 -0.033333-0.03012-0.057912-0.0335-0.018492-0.0025-0.044999 0.01972-0.057658 0.01675-0.020917-0.0033-0.022753-0.02904-0.041499-0.04151-0.013745-0.0093-0.041834-0.03383-0.049492-0.03325-0.024082 5.46e-4 -0.041245 0.05116-0.074589 0.03325-0.01617-0.02079 0.027754-0.02236 0.00852-0.04174-0.014587-0.01436-0.021668 7.86e-4 -0.03308 0.0085-0.013512 9e-3 -0.026506 0.01972-0.04158 0.02476-0.033079 0.01271-0.056583 0.01146-0.082572 0.02508-0.023828 0.01271-0.0275 0.03351-0.041255 0.05825-0.011087 0.02022-0.032836 0.04902-0.049756 0.05008-0.020085 0.0016-0.039663-0.02557-0.057658-0.03359-0.055579-0.02401-0.086782 0.01625-0.13229 0.01675-0.042331 5.25e-4 -0.10134-0.0679-0.099218-0.1081 0.00162-0.02475 0.013512-0.06123 0.016413-0.09161 0.00254-0.02401 0.024325-0.04423 0.024832-0.06659 5.336e-4 -0.02929-0.047078-0.05487-0.066159-0.05826-0.045252-0.0084-0.10583 0.02054-0.15716 0-0.00954-0.01651 0.019071-0.02557 0.024833-0.04151 0.00345-0.0093-0.00345-0.01493 0-0.02499 0.00578-0.01543 0.025664-0.02508 0.03308-0.04151 0.00497-0.01247 0.00254-0.03465 0.00832-0.05008 0.00659-0.01724 0.02325-0.0288 0.024914-0.04151 0.00162-0.0165-0.011919-0.0392-0.024914-0.04984a0.25769 0.25934 0 0 0-0.091002 0.01651c-0.051836 0.02401-0.038324 0.09185-0.090748 0.10837-0.017995 0.0058-0.046084 0.01337-0.066159 0.0165a2.3575 2.3725 0 0 1 0.15695-0.49919c0.018493 0.00333 0.03383 0.015186 0.049756 0.016747 0.044167 0.00333 0.046003-0.030613 0.082572-0.05008 0.037573 0.00494 0.056908-0.00333 0.091012 0 0.022996 0.00252 0.056086 0.031932 0.074335 0.033252 0.015327 5.361e-4 0.018493-0.019226 0.033079-0.016747 0.014587 0.00252 0.038923 0.032758 0.041499 0.05008 0.00254 0.021785-0.014587 0.042573-0.00852 0.066585 0.022753 0.023186 0.06691 0.036467 0.099218 0.05008 0.02117-0.017488 0.00345-0.058 0-0.083362-5.245e-4 -0.011134 0.00162-0.023186 0-0.033252-0.00254-0.017241-0.00832-0.034904-0.00832-0.05008 0-0.069225 0.052921-0.097459 0.099218-0.12463 0.019832-0.011719 0.040505-0.033 0.057912-0.041747 0.024325-0.011961 0.037573-0.013372 0.057658-0.024757 0.036752-0.020797 0.070906-0.042825 0.099218-0.066585 0.013248-0.031438-0.00162-0.068973 0-0.099847 0.013248-0.00846 0.019334 0.00161 0.033079 0 0.022246-0.00494 0.029073-0.037292 0.041499-0.05008 0.00751-0.00746 0.032582-0.00927 0.041246-0.016505 0.022246-0.017492 0.022246-0.042331 0.041256-0.05008 0.00659-0.00252 0.022499-0.00494 0.03308-0.00846 0.014587-0.00413 0.034915-0.016747 0.057912-0.02508 0.01483-0.00494 0.05216-0.00252 0.057912-0.00846 0.00741-0.00746-0.00162-0.038865 0-0.05008 0.011331-0.054624 0.091813-0.056438 0.14049-0.074586 0.033587-0.013372 0.069831-0.04076 0.10742-0.033585-0.00751 0.026078-0.039166 0.018652-0.033079 0.05008 0.00832 0.043973 0.058997-0.010641 0.074589-0.016747 0.029073-0.012455 0.085453-0.019226 0.12383-0.033252 0.03383-0.011964 0.089693-0.035726 0.057912-0.074835-0.026506-0.00165-0.034662 0.023762-0.057912 0.033251-0.015835 0.00248-0.019578-0.00743-0.03308-0.00841-0.013005-5.445e-4 -0.020075 0.010644-0.033079 0.00841-0.013005-0.00248-0.031-0.026073-0.03308-0.041502-0.00497-0.04076 0.041499-0.053218 0.057912-0.083358-0.011087-0.036716-0.060073-0.00248-0.091022-0.016502 0.00345-0.021782 0.015835-0.045545 0.041499-0.050083a0.16352 0.16456 0 0 1 0.082572 0.016749c0.00741 0.00577-0.00254 0.022937 0.00832 0.033334 0.01267 0.011138 0.033333 0.00248 0.049756 0 0.00578-0.02764-0.037827-0.015429-0.033079-0.033334 0.032582-0.021287 0.092351-0.011469 0.13229-0.016749 0.022996-0.00331 0.045496-0.022113 0.066159-0.033251 0.019081-0.011138 0.037583-0.02665 0.057658-0.00841 0.00578 0.019967-0.013745 0.031436-0.024579 0.041502-0.037086 0.033086-0.070419 0.07005-0.099218 0.10837 0.017752 0.017245 0.04441 0.00495 0.074335 0.00841 0.011666 0.00165 0.029073 0.0066 0.041256 0.00858 0.014587 0.00248 0.029915-0.00248 0.041499 0 0.020085 0.00495 0.02117 0.033251 0.041256 0.033251 0.032582 0 0.035169-0.02764 0.016413-0.050083 0.00578-0.022608 0.016667-0.042079 0.00852-0.058004-0.015084-0.030109-0.071414 0.00496-0.074589-0.033245-0.00162-0.024258 0.024579-0.031684 0.033079-0.050083-0.00345-0.046369 0.037827-0.049257 0.033079-0.091328-0.00254-0.017491-0.021171-0.016997-0.033079-0.033251-0.00578-0.00883-0.00923-0.027145-0.016413-0.033251-0.025167-0.021287-0.071414-0.017905-0.074589-0.058664-0.00162-0.02401 0.00345-0.040182 0-0.066585-0.00345-0.024505-0.028332-0.094785-0.049492-0.09958-0.026993-0.00577-0.042331 0.043069-0.074325 0.058004a0.13043 0.13127 0 0 1-0.066159 0.00858c-0.011666-0.00248-0.031741-0.011138-0.03308-0.033334-0.00162-0.012706 0.00254-0.017245 0.00832-0.025001 0.00162-0.00165-0.00162-0.0066 0-0.00841a2.3997 2.415 0 0 1 0.66144-0.091606zm-0.984 0.21647c-0.02325 0.075661-0.091275 0.11875-0.18176 0.11635-0.022246 0.021287-0.013005 0.062047-0.024914 0.091593a0.073023 0.073488 0 0 1-0.066159 0.041502c-0.017752-0.00165-0.049756-0.024752-0.049756-0.041502 0-0.013861 0.013248-0.029538 0.016666-0.04175a2.3611 2.3761 0 0 1 0.30586-0.1664zm2.0258 0.083104a0.072494 0.072956 0 0 0-0.024833 0.00841c-0.018492 0.011138-0.019334 0.027889-0.033079 0.033251-0.019832 0.00743-0.046825 0.00743-0.049756 0.025082-0.00254 0.014934 0.017174 0.01972 0.016666 0.033251-0.00751 0.017905-0.02117 0.01972-0.024832 0.041502 0.024579 0.040181 0.085453 5.373e-4 0.11589-0.00841 0.013248-0.00412 0.025664 0.00248 0.032826-0.00841 0.00832-0.013367 0.00162-0.039934 0.00852-0.058252 0.00659-0.020214 0.027257-0.015429 0.024579-0.033251-0.00162-0.017905-0.036245-0.036222-0.066159-0.033251zm-2.6212 0.30779c0.017752 0.021287 0.032582 0.052723 0 0.066585-0.00497 0.00248-0.062659 0.010644-0.074335 0.00858-0.00345-5.281e-4 -0.00497-0.00577-0.00832-0.00858 0.025177-0.024752 0.05633-0.042822 0.082572-0.066585zm0.066159 0.083358c0.011666 5.373e-4 0.019578 0.02401 0.03308 0.024752 0.013248 0.00165 0.033577-0.010644 0.04158-0.00841 0.020085 0.00495 0.02749 0.043069 0.00832 0.058004-0.015835 0.00161-0.021171-0.019226-0.032836-0.016747-0.032826 0.00574-0.041834 0.06865-0.066159 0.066585-0.02325-0.00252-0.040251-0.049586-0.016667-0.066585 5.255e-4 -0.014357-0.00923-0.018647-0.00832-0.033334 0.00751-0.00908 0.021921-0.026321 0.041256-0.024752zm-0.1074 0.016502c0.00659 0 0.00578-0.00248 0.00832 0-0.00345 0.025824-0.013248 0.029538-0.03308 0.04175a0.13546 0.13632 0 0 0-0.066149 0.091322c-0.00345 0.013372-0.041499 0.053223-0.057658 0.05008-0.038091-0.00836 0.015835-0.08045 0.024579-0.091595 0.00984-0.012212 0.022002-0.01972 0.033079-0.033252 0.011087-0.013372 0.014323-0.042079 0.024914-0.050083 0.011666-0.00841 0.045993-0.00908 0.066159-0.00841zm3.2577 0.066585c0.03783-0.00252 0.05691 0.04348 0.07408 0.066585 0.01459 0.018893 0.05924 0.045294 0.08284 0.058252 0.0135 0.00746 0.0265 0.018148 0.04158 0.02508 0.01559 0.00655 0.03916 0.015921 0.05766 0.033252 0.01849 0.016999 0.03258 0.042573 0.03308 0.058 5.43e-4 0.015678-0.01058 0.027145-0.0083 0.041747 0.01667 0.00252 0.02541-0.014359 0.03308-0.033333 0.06242 0.089469 0.11537 0.18506 0.16536 0.28277a0.031219 0.031418 0 0 0-0.01667 0.02508c-5e-3 0.027146 0.01582 0.061798-0.02458 0.066585-0.02566 0.00333-0.05583-0.025574-0.09102-0.033252-0.01425-0.00333-0.03808 0.00333-0.04976 0-0.02642-0.00927-0.01849-0.042331-0.04126-0.058252a0.1852 0.18638 0 0 0-0.06616-0.024757c-0.01301-0.00161-0.01958 0.00161-0.03308 0-0.01641-0.00252-0.04442 0-0.05766-0.00856-0.01325-0.00846-0.04633-0.022108-0.04976-0.033252-5e-3 -0.017906 0.0405-0.043066 0.04126-0.058 8.2e-4 -0.011719-0.014-0.015921-0.01641-0.033585-0.0016-0.010641 0.0025-0.02632 0-0.033-0.0034-0.012706-0.02167-0.024506-0.0415-0.025-0.01717 0-0.03442 0.00846-0.04949 0.00846-0.02117 5.29e-4 -0.06459-0.010641-0.091012-0.00846-0.015835 0.00161-0.026415 0.00746-0.041256 0.00846-0.041834 0.00333-0.066413-0.00252-0.099228 0-0.023828 0.00161-0.068746 0.014933-0.091012 0.025-0.011087 0.00494-0.018492 0.017573-0.033079 0.024757-0.00659 0.00333-0.015835 0.00413-0.024579 0.00856-0.013512 0.00574-0.036742 0.021291-0.049756 0.024757-0.018493 0.00494-0.040251-0.00161-0.074325 0-0.024579 0.00161-0.065581-0.00333-0.066159-0.033-5.204e-4 -0.045294 0.08175-0.025574 0.12384-0.033585 0.015835-0.00333 0.022246-0.022118 0.041499-0.033 0.00903-0.00494 0.015835-0.010893 0.024579-0.016747 0.014587-0.010147 0.039166-0.030119 0.041499-0.041505 0.00162-0.010641-0.00974-0.025574-0.00852-0.033252 0.00162-0.010147 0.020075-0.020213 0.033333-0.033252 0.020075-0.020546 0.032826-0.045294 0.057658-0.058252 0.01691-0.00927 0.050253-0.011387 0.057912-0.025 0.00162-0.015427-5.427e-4 -0.019226 0-0.033252 0.01058-0.00958 0.00751-0.014691 0.016677-0.016505 0.025918-0.00574 0.05217 0.00978 0.082572 0.00846 0.013248-5.28e-4 0.02749 8.252e-4 0.041256-0.00846 0.01167-0.00846 0.02167-0.019226 0.03308-0.025 0.01267-0.00665 0.02592-0.024012 0.0415-0.02508zm-3.0347 0.02508c0.00659-8.252e-4 0.017174 8.011e-4 0.025167 0 0.010834-5.37e-4 0.02117 0 0.03308 0 0.011919 0 0.028078-0.00494 0.033079 0-0.00832 0.031932-0.082572 0.019972-0.10769 0.00846 7.923e-4 -0.00574 0.010337-0.00746 0.016677-0.00846zm-0.090748 0.058252c0.00832 0 0.01617-0.00333 0.024914 0-0.022246 0.018652-0.052668 0.029292-0.091022 0.041505-0.018493 0.00574-0.046327 0.011961-0.049756-0.00846-0.00345-0.025333 0.01691-0.022612 0.03308-0.025 0.02117-0.00252 0.058257-0.00846 0.082836-0.00846zm3.1336 0c-0.01583 0.00494-0.02383 0.037293 0 0.041505 0.01109-0.00665 0.01109-0.021291 0.0083-0.041505-0.0066-0.00655-0.0035-0.00161-0.0083 0zm-0.0085 0.066585c-0.0075 0.00252-0.01641-5.362e-4 -0.02458 0.00846 5.44e-4 0.027145 5e-3 0.042573 0 0.066585 0.01533 0.030119 0.05025 0.011961 0.05767-0.00846 0.0093-0.050574-0.0098-0.072943-0.03284-0.066585zm0.2069 0.13314a0.071172 0.071625 0 0 0-0.04976 0.016505c0.01799 0.029292 0.05108 0.034653 0.09101 0.041747 0.01432-0.010641 0.0098-0.039933 0.01667-0.058585-0.01741 0-0.02858 0.00161-0.04976 0h-0.0083zm-4.2002 1.0232c0.01691 0.02179 0.035169 0.04711 0.057658 0.05866 0.012163 0.0058 0.026171 5e-3 0.041499 0.0084 0.012416 0.0025 0.02117 0.01312 0.033079 0.01675 0.025411 0.0088 0.062416 0.0075 0.082572 0.01675 0.030919 0.01337 0.04791 0.06757 0.074589 0.0831 0.00162 0.01543-0.00497 0.03012 0 0.04151 0.012416 0.017 0.037573 0.02202 0.057658 0.03325 0.024579 0.01361 0.034916 0.04761 0.057912 0.05826 0.00832 0.0033 0.020663-0.0033 0.03308 0 0.031751 0.0095 0.038669 0.058 0.066159 0.05008 0.017752-5e-3 0.021921-0.03275 0.024833-0.05008 0.011919-0.01337 0.022499-0.03325 0.041256-0.03325 0.029915-5.23e-4 0.038669 0.03729 0.049756 0.06658 0.00578 0.01651 0.02042 0.03243 0.024579 0.05008a0.43391 0.43667 0 0 1 0 0.13313c-0.00741 0.0221-0.039673 0.03383-0.057658 0.058-0.00872 0.01172-0.018249 0.02557-0.024833 0.03325-0.011666 0.01469-0.024325 0.02022-0.033079 0.03325-0.00497 0.0074-0.00416 0.02319-0.00852 0.03325-0.014252 0.03118-0.036741 0.05437-0.024579 0.09159 0.00497 0.01493 0.024579 0.03193 0.024579 0.05008 0 0.02128-0.046013 0.02657-0.049493 0.04984-0.00254 0.017 0.019578 0.05215 0.024914 0.07484 0.00345 0.017 0.031254 0.03061 0.041246 0.04182 0.01691 0.01866 0.034408 0.04233 0.049756 0.06658 0.030158 0.04687 0.04442 0.10384 0.074081 0.14964 0.015835 0.02401 0.047667 0.04126 0.058257 0.06658 0.00497 0.01247-0.00497 0.03828 0 0.05008 0.017174 0.0392 0.10133 0.08045 0.14022 0.09958 0.018492 0.0093 0.033079 0.01543 0.049756 0.02499 0.025675 0.01468 0.078078 0.04397 0.091022 0.06659 0.011666 0.02047 0.019081 0.06733 0.024833 0.09986 0.00751 0.04257-0.00162 0.0788 0 0.12488 0.00162 0.025 0.00832 0.04126 0.00832 0.06659 0 0.0087 5.336e-4 0.02451 0 0.03325-5.254e-4 0.03012 0.00254 0.06122 0 0.09159a0.34448 0.34668 0 0 0 0 0.04984c0.00162 0.01519 0.015591 0.02022 0.016667 0.03325 8.196e-4 0.01411-0.018249 0.03061-0.016667 0.04182 0.00345 0.03036 0.035494 0.05512 0.041256 0.08311 0.00497 0.02236 0.011087 0.07319 0.00852 0.09985-0.00254 0.01411-0.00659 0.03465-0.00852 0.05008-0.00162 0.01196 0.00162 0.02211 0 0.033-0.65906-0.42603-1.0995-1.1661-1.0995-2.0136 0-0.10863 0.010834-0.2114 0.024833-0.31632zm0.90932 0.2415c0.02325-0.01064 0.018756 0.03036 0 0.03325-0.017752 0.0025-0.017174-0.02508 0-0.03325z" color="#000000" fill="#0050e1" stroke-width=".26542"/>
</svg>
