<?xml version="1.0" encoding="UTF-8"?>
<svg width="64" height="64" version="1.1" viewBox="0 0 16.933 16.933" xmlns="http://www.w3.org/2000/svg" xmlns:cc="http://creativecommons.org/ns#" xmlns:dc="http://purl.org/dc/elements/1.1/" xmlns:rdf="http://www.w3.org/1999/02/22-rdf-syntax-ns#">
 <defs>
  <linearGradient id="linearGradient1064" x1="-15.961" x2="-.30109" y1="-43.254" y2="-54.196" gradientTransform="matrix(1 0 0 1.1 16.669 62.435)" gradientUnits="userSpaceOnUse">
   <stop stop-color="#e65a0a" offset="0"/>
   <stop stop-color="#f57800" offset="1"/>
  </linearGradient>
 </defs>
 <metadata>
  <rdf:RDF>
   <cc:Work rdf:about="">
    <dc:format>image/svg+xml</dc:format>
    <dc:type rdf:resource="http://purl.org/dc/dcmitype/StillImage"/>
    <dc:title/>
   </cc:Work>
  </rdf:RDF>
 </metadata>
 <g fill="#5e4aa6" stroke-width=".26458">
  <circle cx="-330.35" cy="-328.38" r="0"/>
  <circle cx="-312.11" cy="-326.25" r="0"/>
  <circle cx="-306.02" cy="-333.07" r="0"/>
  <circle cx="-308.84" cy="-326.01" r="0"/>
  <circle cx="-328.8" cy="-330.45" r="0"/>
 </g>
 <path d="m8.4661 7.5073h-7.9373v-4.0017c0-0.40184 0.29614-0.72758 0.66144-0.72758h5.6223l1.6536 1.4552z" fill="#e65a0a" stroke-width=".69373"/>
 <rect x=".52939" y="4.2333" width="15.874" height="10.848" ry=".79373" fill="#e65a0a"/>
 <rect x=".97311" y="4.6963" width="14.987" height="9.9217" ry=".29919" fill="#fffffc"/>
 <path d="m15.742 4.2332h-7.2759l-1.6536 1.4552h-5.6223c-0.36531 0-0.66144 0.32575-0.66144 0.72759v7.9373c0 0.40184 0.29614 0.72759 0.66144 0.72759h14.552c0.36531 0 0.66145-0.32575 0.66145-0.72759v-9.3926c0-0.40184-0.29614-0.72759-0.66145-0.72759z" fill="url(#linearGradient1064)" stroke-width=".69373"/>
 <g transform="translate(1.0583 13.493)" fill="#d24600" stroke-width=".26458">
  <path d="m5.8203-5.5566c-0.36415 0-0.66016 0.29795-0.66016 0.66211v4.2324c0 0.36415 0.296 0.66211 0.66016 0.66211h2.4355l1.4004-1.4004v-3.4941c0-0.36415-0.296-0.66211-0.66016-0.66211h-3.1758zm0 0.26562h3.1758c0.22216 0 0.39648 0.17433 0.39648 0.39648v3.3848l-1.2461 1.2441h-2.3262c-0.22216 0-0.39648-0.17433-0.39648-0.39648v-4.2324c0-0.22216 0.17433-0.39648 0.39648-0.39648z" color="#000000" color-rendering="auto" dominant-baseline="auto" image-rendering="auto" shape-rendering="auto" solid-color="#000000" stop-color="#000000" style="font-feature-settings:normal;font-variant-alternates:normal;font-variant-caps:normal;font-variant-east-asian:normal;font-variant-ligatures:normal;font-variant-numeric:normal;font-variant-position:normal;font-variation-settings:normal;inline-size:0;isolation:auto;mix-blend-mode:normal;shape-margin:0;shape-padding:0;text-decoration-color:#000000;text-decoration-line:none;text-decoration-style:solid;text-indent:0;text-orientation:mixed;text-transform:none;white-space:normal"/>
  <path d="m8.6861-1.5875c-0.29315 0-0.52916 0.236-0.52916 0.52916v0.79373l1.3229-1.3229z" stroke-width=".26458"/>
 </g>
 <g transform="translate(3e-5,13.493)" fill="#d24600">
  <rect x="7.1436" y="-4.7624" width="2.6458" height=".26458"/>
  <rect x="7.1436" y="-3.9687" width="2.6458" height=".26458"/>
  <rect x="7.1436" y="-3.1749" width="2.6458" height=".26458"/>
  <rect x="7.1436" y="-2.3812" width="1.5875" height=".26458"/>
 </g>
</svg>
