<?xml version="1.0" encoding="UTF-8"?>
<svg width="64" height="64" version="1.1" viewBox="0 0 16.933 16.933" xmlns="http://www.w3.org/2000/svg" xmlns:cc="http://creativecommons.org/ns#" xmlns:dc="http://purl.org/dc/elements/1.1/" xmlns:rdf="http://www.w3.org/1999/02/22-rdf-syntax-ns#" xmlns:xlink="http://www.w3.org/1999/xlink">
 <metadata>
  <rdf:RDF>
   <cc:Work rdf:about="">
    <dc:format>image/svg+xml</dc:format>
    <dc:type rdf:resource="http://purl.org/dc/dcmitype/StillImage"/>
    <dc:title/>
   </cc:Work>
  </rdf:RDF>
 </metadata>
 <defs>
  <linearGradient id="a">
   <stop stop-color="#fff" offset="0"/>
   <stop stop-color="#fff" stop-opacity="0" offset="1"/>
  </linearGradient>
  <filter id="c" x="-.085574" y="-.069658" width="1.1711" height="1.1393" color-interpolation-filters="sRGB">
   <feGaussianBlur stdDeviation="0.93845522"/>
  </filter>
  <filter id="ah" x="-.080085" y="-.1059" width="1.1602" height="1.2118" color-interpolation-filters="sRGB">
   <feGaussianBlur stdDeviation="0.20389857"/>
  </filter>
  <filter id="aj" x="-.080085" y="-.1059" width="1.1602" height="1.2118" color-interpolation-filters="sRGB">
   <feGaussianBlur stdDeviation="0.20389857"/>
  </filter>
  <filter id="ae" x="-.37642" y="-.28625" width="1.7528" height="1.5725" color-interpolation-filters="sRGB">
   <feGaussianBlur stdDeviation="0.46610163"/>
  </filter>
  <filter id="ad" x="-.37642" y="-.28625" width="1.7528" height="1.5725" color-interpolation-filters="sRGB">
   <feGaussianBlur stdDeviation="0.46610163"/>
  </filter>
  <filter id="ai" x="-.080085" y="-.1059" width="1.1602" height="1.2118" color-interpolation-filters="sRGB">
   <feGaussianBlur stdDeviation="0.20389857"/>
  </filter>
  <filter id="aa" x="-.054222" y="-.07024" width="1.1084" height="1.1405" color-interpolation-filters="sRGB">
   <feGaussianBlur stdDeviation="0.053991352"/>
  </filter>
  <filter id="ac" x="-.37642" y="-.28625" width="1.7528" height="1.5725" color-interpolation-filters="sRGB">
   <feGaussianBlur stdDeviation="0.46610163"/>
  </filter>
  <filter id="ag" x="-.080085" y="-.1059" width="1.1602" height="1.2118" color-interpolation-filters="sRGB">
   <feGaussianBlur stdDeviation="0.20389857"/>
  </filter>
  <filter id="ab" x="-.37642" y="-.28625" width="1.7528" height="1.5725" color-interpolation-filters="sRGB">
   <feGaussianBlur stdDeviation="0.46610163"/>
  </filter>
  <filter id="af" x="-.080085" y="-.1059" width="1.1602" height="1.2118" color-interpolation-filters="sRGB">
   <feGaussianBlur stdDeviation="0.20389857"/>
  </filter>
  <filter id="z" x="-.24316" y="-.78397" width="1.4863" height="2.5679" color-interpolation-filters="sRGB">
   <feGaussianBlur stdDeviation="0.89514091"/>
  </filter>
  <filter id="v" x="-.24316" y="-.78397" width="1.4863" height="2.5679" color-interpolation-filters="sRGB">
   <feGaussianBlur stdDeviation="0.89514091"/>
  </filter>
  <filter id="y" x="-.24316" y="-.78397" width="1.4863" height="2.5679" color-interpolation-filters="sRGB">
   <feGaussianBlur stdDeviation="0.89514091"/>
  </filter>
  <filter id="u" x="-.24316" y="-.78397" width="1.4863" height="2.5679" color-interpolation-filters="sRGB">
   <feGaussianBlur stdDeviation="0.89514091"/>
  </filter>
  <filter id="t" x="-.16005" y="-.24367" width="1.3201" height="1.4873" color-interpolation-filters="sRGB">
   <feGaussianBlur stdDeviation="0.5727377"/>
  </filter>
  <filter id="x" x="-.24316" y="-.78397" width="1.4863" height="2.5679" color-interpolation-filters="sRGB">
   <feGaussianBlur stdDeviation="0.89514091"/>
  </filter>
  <filter id="w" x="-.24316" y="-.78397" width="1.4863" height="2.5679" color-interpolation-filters="sRGB">
   <feGaussianBlur stdDeviation="0.89514091"/>
  </filter>
  <clipPath id="ax">
   <path d="m-16.962 206.64c-1.1694-0.69689-2.6576-1.9844-2.6576-3.9333 0-1.1694 0.75595-1.7127 0.75595-1.7127-0.05906 0.61421-0.7087 1.7954 0.12993 2.4805 0.2008 0.3071 0.43703 0.33073 1.1103 0.3071 0.67327-0.0236 0.53153 0.17718 0.53153 0.17718s0.16536-0.74414 0.33073-0.93313c0.16536-0.18899 0.86226-1.7009 0.86226-1.7009s3.3191-1.6891 3.5553-1.7954c0.23624-0.1063 1.193-0.24805 1.193-0.24805s3.39 1.193 3.5553 1.3584c0.16536 0.16536 0.37798 1.2638 0.37798 1.2638l-0.42522 1.6418-3.0829 1.1576 1.571 3.3782-3.3545 0.22443s-3.6616-0.29529-4.453-1.6655z" fill="#b0afad" fill-rule="evenodd"/>
  </clipPath>
  <clipPath id="az">
   <path d="m-16.962 206.64c-1.1694-0.69689-2.6576-1.9844-2.6576-3.9333 0-1.1694 0.75595-1.7127 0.75595-1.7127-0.05906 0.61421-0.7087 1.7954 0.12993 2.4805 0.2008 0.3071 0.43703 0.33073 1.1103 0.3071 0.67327-0.0236 0.53153 0.17718 0.53153 0.17718s0.16536-0.74414 0.33073-0.93313c0.16536-0.18899 0.86226-1.7009 0.86226-1.7009s3.3191-1.6891 3.5553-1.7954c0.23624-0.1063 1.193-0.24805 1.193-0.24805s3.39 1.193 3.5553 1.3584c0.16536 0.16536 0.37798 1.2638 0.37798 1.2638l-0.42522 1.6418-3.0829 1.1576 1.571 3.3782-3.3545 0.22443s-3.6616-0.29529-4.453-1.6655z" fill="#b0afad" fill-rule="evenodd"/>
  </clipPath>
  <clipPath id="ay">
   <path d="m-16.962 206.64c-1.1694-0.69689-2.6576-1.9844-2.6576-3.9333 0-1.1694 0.75595-1.7127 0.75595-1.7127-0.05906 0.61421-0.7087 1.7954 0.12993 2.4805 0.2008 0.3071 0.43703 0.33073 1.1103 0.3071 0.67327-0.0236 0.53153 0.17718 0.53153 0.17718s0.16536-0.74414 0.33073-0.93313c0.16536-0.18899 0.86226-1.7009 0.86226-1.7009s3.3191-1.6891 3.5553-1.7954c0.23624-0.1063 1.193-0.24805 1.193-0.24805s3.39 1.193 3.5553 1.3584c0.16536 0.16536 0.37798 1.2638 0.37798 1.2638l-0.42522 1.6418-3.0829 1.1576 1.571 3.3782-3.3545 0.22443s-3.6616-0.29529-4.453-1.6655z" fill="#b0afad" fill-rule="evenodd"/>
  </clipPath>
  <clipPath id="bh">
   <path d="m-14.611 203.49c4.2995 1.6064 4.3704 4.3113 5.3035 4.3113 0.93313 0 0.83863 0.4961 1.3229-0.16536 0.48428-0.66146 1.6064-1.8308 1.7245-2.8939 0.11812-1.0631 1.0276-0.57878 1.0158-0.14174-0.011811 0.43703-0.30711 3.3545-0.2008 3.579s0.25986 0.34254 0.35435-0.43704c0.094494-0.77957 0.11812-1.9844 0.31892-2.1379 0.2008-0.15356 1.4292-0.8977 1.6655-1.7481 0 0 0.03543-0.42523-0.68508-0.67328-0.72052-0.24804 1.7127-2.2915 1.7127-2.2915s3.4845 1.6064 4.3704 2.5277c0 0-0.33707 1.2262 0.08054 1.2262s0.60136 1.0858-0.31738 0.86862-1.6203-0.61806-2.1883 0.0167-0.81851 1.2361-1.1192 1.353-0.70158 0.31738-0.68488-0.53454-0.11693 0.70158-0.3675 0.66817c-0.25056-0.0334-0.15034 0.40091-1.6871 0.45102 0 0 0.90204 0.3508 0.96885 0.88534 0.06682 0.53454 0.11693 0.55124 0.11693 0.55124s1.921 0.16705 2.0045-0.3842c0.08352-0.55124 0.55124-1.3029 0.7517-1.5535 0.20045-0.25057 1.1025-1.2862 1.9544-1.1693 0 0-1.5535 0.98555-2.1716 2.3553-0.61806 1.3698 4.3932 1.0023 4.3932 1.0023s2.6727-0.70158 2.9734-1.6537 0.3675-4.6271-0.21716-5.2285c-0.89971-0.75589-2.0809-1.4646-3.5219-0.54328-1.441 0.92131-0.25986 1.3702-2.2206-0.35435-1.9608-1.7245-3.7561-2.5041-3.7561-2.5041s-2.2915 3.0947-2.3387 2.764c-0.047247-0.33073-0.56696-2.0552-0.82682-0.77957 0 0-0.75595-0.28348-0.68508 0.37797 0.070871 0.66146-1.0158-0.7087-1.0158-0.7087s0.094494 1.8899-0.37798 2.1261c0 0 1.9844-0.51971 1.252 0.54335-0.73233 1.063-1.5592 1.1339-2.8348 1.2048-1.2757 0.0709-2.1025-0.66145-2.7403-0.85044s-1.1576-0.75595-2.3269-0.0591z" fill="#dedede" fill-rule="evenodd"/>
  </clipPath>
  <filter id="aq" x="-.17321" y="-.12147" width="1.3464" height="1.2429" color-interpolation-filters="sRGB">
   <feGaussianBlur stdDeviation="0.18354709"/>
  </filter>
  <clipPath id="bg">
   <path d="m-14.611 203.49c4.2995 1.6064 4.3704 4.3113 5.3035 4.3113 0.93313 0 0.83863 0.4961 1.3229-0.16536 0.48428-0.66146 1.6064-1.8308 1.7245-2.8939 0.11812-1.0631 1.0276-0.57878 1.0158-0.14174-0.011811 0.43703-0.30711 3.3545-0.2008 3.579s0.25986 0.34254 0.35435-0.43704c0.094494-0.77957 0.11812-1.9844 0.31892-2.1379 0.2008-0.15356 1.4292-0.8977 1.6655-1.7481 0 0 0.03543-0.42523-0.68508-0.67328-0.72052-0.24804 1.7127-2.2915 1.7127-2.2915s3.4845 1.6064 4.3704 2.5277c0 0-0.33707 1.2262 0.08054 1.2262s0.60136 1.0858-0.31738 0.86862-1.6203-0.61806-2.1883 0.0167-0.81851 1.2361-1.1192 1.353-0.70158 0.31738-0.68488-0.53454-0.11693 0.70158-0.3675 0.66817c-0.25056-0.0334-0.15034 0.40091-1.6871 0.45102 0 0 0.90204 0.3508 0.96885 0.88534 0.06682 0.53454 0.11693 0.55124 0.11693 0.55124s1.921 0.16705 2.0045-0.3842c0.08352-0.55124 0.55124-1.3029 0.7517-1.5535 0.20045-0.25057 1.1025-1.2862 1.9544-1.1693 0 0-1.5535 0.98555-2.1716 2.3553-0.61806 1.3698 4.3932 1.0023 4.3932 1.0023s2.6727-0.70158 2.9734-1.6537 0.3675-4.6271-0.21716-5.2285c-0.89971-0.75589-2.0809-1.4646-3.5219-0.54328-1.441 0.92131-0.25986 1.3702-2.2206-0.35435-1.9608-1.7245-3.7561-2.5041-3.7561-2.5041s-2.2915 3.0947-2.3387 2.764c-0.047247-0.33073-0.56696-2.0552-0.82682-0.77957 0 0-0.75595-0.28348-0.68508 0.37797 0.070871 0.66146-1.0158-0.7087-1.0158-0.7087s0.094494 1.8899-0.37798 2.1261c0 0 1.9844-0.51971 1.252 0.54335-0.73233 1.063-1.5592 1.1339-2.8348 1.2048-1.2757 0.0709-2.1025-0.66145-2.7403-0.85044s-1.1576-0.75595-2.3269-0.0591z" fill="#dedede" fill-rule="evenodd"/>
  </clipPath>
  <filter id="ap" x="-.053854" y="-.03284" width="1.1077" height="1.0657" color-interpolation-filters="sRGB">
   <feGaussianBlur stdDeviation="0.097488778"/>
  </filter>
  <clipPath id="bf">
   <path d="m-14.611 203.49c4.2995 1.6064 4.3704 4.3113 5.3035 4.3113 0.93313 0 0.83863 0.4961 1.3229-0.16536 0.48428-0.66146 1.6064-1.8308 1.7245-2.8939 0.11812-1.0631 1.0276-0.57878 1.0158-0.14174-0.011811 0.43703-0.30711 3.3545-0.2008 3.579s0.25986 0.34254 0.35435-0.43704c0.094494-0.77957 0.11812-1.9844 0.31892-2.1379 0.2008-0.15356 1.4292-0.8977 1.6655-1.7481 0 0 0.03543-0.42523-0.68508-0.67328-0.72052-0.24804 1.7127-2.2915 1.7127-2.2915s3.4845 1.6064 4.3704 2.5277c0 0-0.33707 1.2262 0.08054 1.2262s0.60136 1.0858-0.31738 0.86862-1.6203-0.61806-2.1883 0.0167-0.81851 1.2361-1.1192 1.353-0.70158 0.31738-0.68488-0.53454-0.11693 0.70158-0.3675 0.66817c-0.25056-0.0334-0.15034 0.40091-1.6871 0.45102 0 0 0.90204 0.3508 0.96885 0.88534 0.06682 0.53454 0.11693 0.55124 0.11693 0.55124s1.921 0.16705 2.0045-0.3842c0.08352-0.55124 0.55124-1.3029 0.7517-1.5535 0.20045-0.25057 1.1025-1.2862 1.9544-1.1693 0 0-1.5535 0.98555-2.1716 2.3553-0.61806 1.3698 4.3932 1.0023 4.3932 1.0023s2.6727-0.70158 2.9734-1.6537 0.3675-4.6271-0.21716-5.2285c-0.89971-0.75589-2.0809-1.4646-3.5219-0.54328-1.441 0.92131-0.25986 1.3702-2.2206-0.35435-1.9608-1.7245-3.7561-2.5041-3.7561-2.5041s-2.2915 3.0947-2.3387 2.764c-0.047247-0.33073-0.56696-2.0552-0.82682-0.77957 0 0-0.75595-0.28348-0.68508 0.37797 0.070871 0.66146-1.0158-0.7087-1.0158-0.7087s0.094494 1.8899-0.37798 2.1261c0 0 1.9844-0.51971 1.252 0.54335-0.73233 1.063-1.5592 1.1339-2.8348 1.2048-1.2757 0.0709-2.1025-0.66145-2.7403-0.85044s-1.1576-0.75595-2.3269-0.0591z" fill="#dedede" fill-rule="evenodd"/>
  </clipPath>
  <filter id="ao" x="-.21518" y="-.1753" width="1.4304" height="1.3506" color-interpolation-filters="sRGB">
   <feGaussianBlur stdDeviation="0.13798654"/>
  </filter>
  <clipPath id="be">
   <path d="m-14.611 203.49c4.2995 1.6064 4.3704 4.3113 5.3035 4.3113 0.93313 0 0.83863 0.4961 1.3229-0.16536 0.48428-0.66146 1.6064-1.8308 1.7245-2.8939 0.11812-1.0631 1.0276-0.57878 1.0158-0.14174-0.011811 0.43703-0.30711 3.3545-0.2008 3.579s0.25986 0.34254 0.35435-0.43704c0.094494-0.77957 0.11812-1.9844 0.31892-2.1379 0.2008-0.15356 1.4292-0.8977 1.6655-1.7481 0 0 0.03543-0.42523-0.68508-0.67328-0.72052-0.24804 1.7127-2.2915 1.7127-2.2915s3.4845 1.6064 4.3704 2.5277c0 0-0.33707 1.2262 0.08054 1.2262s0.60136 1.0858-0.31738 0.86862-1.6203-0.61806-2.1883 0.0167-0.81851 1.2361-1.1192 1.353-0.70158 0.31738-0.68488-0.53454-0.11693 0.70158-0.3675 0.66817c-0.25056-0.0334-0.15034 0.40091-1.6871 0.45102 0 0 0.90204 0.3508 0.96885 0.88534 0.06682 0.53454 0.11693 0.55124 0.11693 0.55124s1.921 0.16705 2.0045-0.3842c0.08352-0.55124 0.55124-1.3029 0.7517-1.5535 0.20045-0.25057 1.1025-1.2862 1.9544-1.1693 0 0-1.5535 0.98555-2.1716 2.3553-0.61806 1.3698 4.3932 1.0023 4.3932 1.0023s2.6727-0.70158 2.9734-1.6537 0.3675-4.6271-0.21716-5.2285c-0.89971-0.75589-2.0809-1.4646-3.5219-0.54328-1.441 0.92131-0.25986 1.3702-2.2206-0.35435-1.9608-1.7245-3.7561-2.5041-3.7561-2.5041s-2.2915 3.0947-2.3387 2.764c-0.047247-0.33073-0.56696-2.0552-0.82682-0.77957 0 0-0.75595-0.28348-0.68508 0.37797 0.070871 0.66146-1.0158-0.7087-1.0158-0.7087s0.094494 1.8899-0.37798 2.1261c0 0 1.9844-0.51971 1.252 0.54335-0.73233 1.063-1.5592 1.1339-2.8348 1.2048-1.2757 0.0709-2.1025-0.66145-2.7403-0.85044s-1.1576-0.75595-2.3269-0.0591z" fill="#dedede" fill-rule="evenodd"/>
  </clipPath>
  <filter id="an" x="-.042908" y="-.08227" width="1.0858" height="1.1645" color-interpolation-filters="sRGB">
   <feGaussianBlur stdDeviation="0.17003381"/>
  </filter>
  <clipPath id="bd">
   <path d="m-14.611 203.49c4.2995 1.6064 4.3704 4.3113 5.3035 4.3113 0.93313 0 0.83863 0.4961 1.3229-0.16536 0.48428-0.66146 1.6064-1.8308 1.7245-2.8939 0.11812-1.0631 1.0276-0.57878 1.0158-0.14174-0.011811 0.43703-0.30711 3.3545-0.2008 3.579s0.25986 0.34254 0.35435-0.43704c0.094494-0.77957 0.11812-1.9844 0.31892-2.1379 0.2008-0.15356 1.4292-0.8977 1.6655-1.7481 0 0 0.03543-0.42523-0.68508-0.67328-0.72052-0.24804 1.7127-2.2915 1.7127-2.2915s3.4845 1.6064 4.3704 2.5277c0 0-0.33707 1.2262 0.08054 1.2262s0.60136 1.0858-0.31738 0.86862-1.6203-0.61806-2.1883 0.0167-0.81851 1.2361-1.1192 1.353-0.70158 0.31738-0.68488-0.53454-0.11693 0.70158-0.3675 0.66817c-0.25056-0.0334-0.15034 0.40091-1.6871 0.45102 0 0 0.90204 0.3508 0.96885 0.88534 0.06682 0.53454 0.11693 0.55124 0.11693 0.55124s1.921 0.16705 2.0045-0.3842c0.08352-0.55124 0.55124-1.3029 0.7517-1.5535 0.20045-0.25057 1.1025-1.2862 1.9544-1.1693 0 0-1.5535 0.98555-2.1716 2.3553-0.61806 1.3698 4.3932 1.0023 4.3932 1.0023s2.6727-0.70158 2.9734-1.6537 0.3675-4.6271-0.21716-5.2285c-0.89971-0.75589-2.0809-1.4646-3.5219-0.54328-1.441 0.92131-0.25986 1.3702-2.2206-0.35435-1.9608-1.7245-3.7561-2.5041-3.7561-2.5041s-2.2915 3.0947-2.3387 2.764c-0.047247-0.33073-0.56696-2.0552-0.82682-0.77957 0 0-0.75595-0.28348-0.68508 0.37797 0.070871 0.66146-1.0158-0.7087-1.0158-0.7087s0.094494 1.8899-0.37798 2.1261c0 0 1.9844-0.51971 1.252 0.54335-0.73233 1.063-1.5592 1.1339-2.8348 1.2048-1.2757 0.0709-2.1025-0.66145-2.7403-0.85044s-1.1576-0.75595-2.3269-0.0591z" fill="#dedede" fill-rule="evenodd"/>
  </clipPath>
  <filter id="am" x="-.076365" y="-.076177" width="1.1527" height="1.1524" color-interpolation-filters="sRGB">
   <feGaussianBlur stdDeviation="0.22924756"/>
  </filter>
  <clipPath id="bc">
   <path d="m-55.223 402.47c16.25 6.0714 16.518 16.295 20.045 16.295 3.5268 0 3.1696 1.875 5-0.62498 1.8304-2.5 6.0714-6.9196 6.5179-10.938 0.44643-4.0179 3.8839-2.1875 3.8393-0.53571-0.04464 1.6518-1.1607 12.679-0.75893 13.527s0.98214 1.2946 1.3393-1.6518c0.35714-2.9464 0.44643-7.5 1.2054-8.0803 0.75893-0.58039 5.4018-3.3929 6.2946-6.6072 0 0 0.13391-1.6072-2.5893-2.5447-2.7232-0.93747 6.4732-8.6607 6.4732-8.6607s13.17 6.0714 16.518 9.5536c0 0-1.274 4.6345 0.3044 4.6345s2.2728 4.1037-1.1996 3.283c-3.4724-0.82076-6.124-2.336-8.2706 0.0631s-3.0936 4.672-4.23 5.1139-2.6517 1.1996-2.5885-2.0203c0.063118-3.2198-0.44194 2.6516-1.389 2.5254-0.94702-0.12624-0.56821 1.5152-6.3766 1.7046 0 0 3.4093 1.3259 3.6618 3.3462 0.25255 2.0203 0.44194 2.0834 0.44194 2.0834s7.2605 0.63137 7.5761-1.4521c0.31567-2.0834 2.0834-4.9245 2.8411-5.8715 0.75761-0.94703 4.1669-4.8614 7.3867-4.4194 0 0-5.8715 3.7249-8.2075 8.902-2.336 5.177 16.604 3.7881 16.604 3.7881s10.102-2.6516 11.238-6.2503c1.1364-3.5987 1.389-17.488-0.82075-19.761-3.4005-2.8569-7.8648-5.5355-13.311-2.0533-5.4464 3.4821-0.98214 5.1786-8.3929-1.3393-7.4107-6.5179-14.196-9.4643-14.196-9.4643s-8.6607 11.696-8.8393 10.446c-0.17857-1.25-2.1429-7.7678-3.125-2.9464 0 0-2.8571-1.0714-2.5893 1.4286 0.26786 2.5-3.8393-2.6786-3.8393-2.6786s0.35714 7.1428-1.4286 8.0357c0 0 7.5-1.9643 4.7321 2.0536-2.7679 4.0178-5.8929 4.2857-10.714 4.5535-4.8214 0.26797-7.9464-2.5-10.357-3.2143s-4.375-2.8571-8.7946-0.22337z" fill="#dedede" fill-rule="evenodd"/>
  </clipPath>
  <filter id="al" x="-.19752" y="-.12406" width="1.395" height="1.2481" color-interpolation-filters="sRGB">
   <feGaussianBlur stdDeviation="0.2430634"/>
  </filter>
  <clipPath id="bb">
   <path d="m-14.611 203.49c4.2995 1.6064 4.3704 4.3113 5.3035 4.3113 0.93313 0 0.83863 0.4961 1.3229-0.16536 0.48428-0.66146 1.6064-1.8308 1.7245-2.8939 0.11812-1.0631 1.0276-0.57878 1.0158-0.14174-0.011811 0.43703-0.30711 3.3545-0.2008 3.579s0.25986 0.34254 0.35435-0.43704c0.094494-0.77957 0.11812-1.9844 0.31892-2.1379 0.2008-0.15356 1.4292-0.8977 1.6655-1.7481 0 0 0.03543-0.42523-0.68508-0.67328-0.72052-0.24804 1.7127-2.2915 1.7127-2.2915s3.4845 1.6064 4.3704 2.5277c0 0-0.33707 1.2262 0.08054 1.2262s0.60136 1.0858-0.31738 0.86862-1.6203-0.61806-2.1883 0.0167-0.81851 1.2361-1.1192 1.353-0.70158 0.31738-0.68488-0.53454-0.11693 0.70158-0.3675 0.66817c-0.25056-0.0334-0.15034 0.40091-1.6871 0.45102 0 0 0.90204 0.3508 0.96885 0.88534 0.06682 0.53454 0.11693 0.55124 0.11693 0.55124s1.921 0.16705 2.0045-0.3842c0.08352-0.55124 0.55124-1.3029 0.7517-1.5535 0.20045-0.25057 1.1025-1.2862 1.9544-1.1693 0 0-1.5535 0.98555-2.1716 2.3553-0.61806 1.3698 4.3932 1.0023 4.3932 1.0023s2.6727-0.70158 2.9734-1.6537 0.3675-4.6271-0.21716-5.2285c-0.89971-0.75589-2.0809-1.4646-3.5219-0.54328-1.441 0.92131-0.25986 1.3702-2.2206-0.35435-1.9608-1.7245-3.7561-2.5041-3.7561-2.5041s-2.2915 3.0947-2.3387 2.764c-0.047247-0.33073-0.56696-2.0552-0.82682-0.77957 0 0-0.75595-0.28348-0.68508 0.37797 0.070871 0.66146-1.0158-0.7087-1.0158-0.7087s0.094494 1.8899-0.37798 2.1261c0 0 1.9844-0.51971 1.252 0.54335-0.73233 1.063-1.5592 1.1339-2.8348 1.2048-1.2757 0.0709-2.1025-0.66145-2.7403-0.85044s-1.1576-0.75595-2.3269-0.0591z" fill="#dedede" fill-rule="evenodd"/>
  </clipPath>
  <filter id="ak" x="-.11969" y="-.14714" width="1.2394" height="1.2943" color-interpolation-filters="sRGB">
   <feGaussianBlur stdDeviation="0.12848643"/>
  </filter>
  <clipPath id="ba">
   <path d="m-16.962 206.64c-1.1694-0.69689-2.6576-1.9844-2.6576-3.9333 0-1.1694 0.75595-1.7127 0.75595-1.7127-0.05906 0.61421-0.7087 1.7954 0.12993 2.4805 0.2008 0.3071 0.43703 0.33073 1.1103 0.3071 0.67327-0.0236 0.53153 0.17718 0.53153 0.17718s0.16536-0.74414 0.33073-0.93313c0.16536-0.18899 0.86226-1.7009 0.86226-1.7009s3.3191-1.6891 3.5553-1.7954c0.23624-0.1063 1.193-0.24805 1.193-0.24805s3.39 1.193 3.5553 1.3584c0.16536 0.16536 0.37798 1.2638 0.37798 1.2638l-0.42522 1.6418-3.0829 1.1576 1.571 3.3782-3.3545 0.22443s-3.6616-0.29529-4.453-1.6655z" fill="#b0afad" fill-rule="evenodd"/>
  </clipPath>
  <linearGradient id="linearGradient1252" x1="-23.601" x2="-17.977" y1="99.967" y2="88.087" gradientTransform="matrix(1.0427,0,0,1.0427,33.769,-88.39)" gradientUnits="userSpaceOnUse">
   <stop stop-color="#afb4b8" offset="0"/>
   <stop stop-color="#aeb4ba" offset="1"/>
  </linearGradient>
  <linearGradient id="linearGradient1260" x1="-30.796" x2="-17.736" y1="87.688" y2="87.688" gradientTransform="matrix(1.0427 0 0 1.0427 33.769 -88.39)" gradientUnits="userSpaceOnUse">
   <stop stop-color="#e2e9ed" offset="0"/>
   <stop stop-color="#dee2e3" stop-opacity=".78431" offset="1"/>
  </linearGradient>
  <linearGradient id="linearGradient1589" x1="-.68508" x2="-3.3545" y1="217.79" y2="211.6" gradientUnits="userSpaceOnUse" xlink:href="#a"/>
  <radialGradient id="radialGradient1591" cx="1.4014" cy="209.31" r="1.1949" gradientTransform="matrix(1.5723 1.7816 -.76333 .67366 158.91 65.624)" gradientUnits="userSpaceOnUse" xlink:href="#a"/>
  <linearGradient id="linearGradient1593" x1="-8.6403" x2="-5.0417" y1="207.18" y2="207.18" gradientTransform="matrix(.35798 .099595 -.099595 .35798 30.782 -69.187)" gradientUnits="userSpaceOnUse">
   <stop stop-color="#99662e" offset="0"/>
   <stop stop-color="#b67937" offset="1"/>
  </linearGradient>
  <linearGradient id="linearGradient1595" x1="-7.6835" x2="-4.1513" y1="202.91" y2="205.26" gradientTransform="matrix(.35798 .099595 -.099595 .35798 30.782 -69.187)" gradientUnits="userSpaceOnUse">
   <stop stop-color="#77d743" offset="0"/>
   <stop stop-color="#254a12" offset="1"/>
  </linearGradient>
  <linearGradient id="linearGradient1597" x1="-9.8639" x2="-9.916" y1="203.74" y2="204.85" gradientTransform="matrix(.35798 .099595 -.099595 .35798 30.782 -69.187)" gradientUnits="userSpaceOnUse">
   <stop stop-color="#3cd0f2" offset="0"/>
   <stop stop-color="#0eacd0" offset="1"/>
  </linearGradient>
  <linearGradient id="linearGradient1599" x1="-7.6187" x2="-5.0417" y1="205.46" y2="205.46" gradientTransform="matrix(.35798 .099595 -.099595 .35798 30.782 -69.187)" gradientUnits="userSpaceOnUse">
   <stop stop-color="#872c1f" offset="0"/>
   <stop stop-color="#bf3f2d" offset="1"/>
  </linearGradient>
  <linearGradient id="linearGradient1601" x1="-3.579" x2="-2.2384" y1="206.88" y2="205.53" gradientTransform="matrix(.35798 .099595 -.099595 .35798 30.782 -69.187)" gradientUnits="userSpaceOnUse">
   <stop stop-color="#3c4533" offset="0"/>
   <stop stop-color="#3c4533" offset=".32423"/>
   <stop stop-color="#414a37" offset=".5756"/>
   <stop stop-color="#3c4533" offset=".80512"/>
   <stop stop-color="#3c4533" offset="1"/>
  </linearGradient>
  <linearGradient id="linearGradient1168" x1="1.6576" x2="9.1599" y1="2.7155" y2="15.845" gradientUnits="userSpaceOnUse">
   <stop stop-color="#d3d7d9" offset="0"/>
   <stop stop-color="#cfd1d3" offset="1"/>
  </linearGradient>
 </defs>
 <path d="m1.6576 2.7155 5.6342-2.1863 7.9839 3.0239-6.1159 2.0052z" fill="url(#linearGradient1260)" opacity=".8"/>
 <g transform="matrix(.37157 0 0 .37157 10.189 -73.314)" fill-opacity=".26812" filter="url(#c)">
  <g fill-rule="evenodd">
   <path transform="matrix(.56862 .49084 -.49084 .56862 102.6 102.57)" d="m-5.2506 221.1c-1.1359-0.80181-2.4388-3.5079-1.0023-3.8754 1.4366-0.36749 3.8754 2.4722 1.0023 3.8754z" fill="#10d52a" filter="url(#ac)" opacity=".572"/>
   <path transform="rotate(52.102,-11.742,227.05)" d="m-14.797 228.53c0.51972-1.9844 2.4096-3.638 4.1577-3.7798 1.7481-0.14174 3.1183 3.5435 0.47247 3.827-2.6458 0.28348-3.9215 1.6536-4.6302-0.0472z" fill="#f2a457" filter="url(#ag)" opacity=".475"/>
   <path transform="matrix(.56862 .49084 -.49084 .56862 96.049 108.45)" d="m-5.2506 221.1c-1.1359-0.80181-2.4388-3.5079-1.0023-3.8754 1.4366-0.36749 3.8754 2.4722 1.0023 3.8754z" fill="#10d52a" filter="url(#ab)" opacity=".572"/>
   <path transform="matrix(.41309 .53069 -.53069 .41309 124.49 140.63)" d="m-14.797 228.53c0.51972-1.9844 2.4096-3.638 4.1577-3.7798 1.7481-0.14174 3.1183 3.5435 0.47247 3.827-2.6458 0.28348-3.9215 1.6536-4.6302-0.0472z" fill="#f2a457" filter="url(#af)" opacity=".475"/>
  </g>
  <rect transform="matrix(.79466 0 0 .79466 -1.3437 45.676)" x="-10.961" y="221.07" width="8.8352" height="2.7403" color="#000000" fill="#1c1c1c" filter="url(#z)" opacity=".436"/>
  <rect transform="matrix(.79466 0 0 .79466 -.91843 50.778)" x="-10.961" y="221.07" width="8.8352" height="2.7403" color="#000000" fill="#fff" filter="url(#v)" opacity=".98305"/>
  <rect transform="matrix(.79466 0 0 .79466 -.72945 52.763)" x="-10.961" y="221.07" width="8.8352" height="2.7403" color="#000000" fill="#1c1c1c" filter="url(#y)" opacity=".436"/>
  <rect transform="matrix(.74345 .28067 -.28067 .74345 57.778 68.26)" x="-10.961" y="221.07" width="8.8352" height="2.7403" color="#000000" fill="#1c1c1c" filter="url(#u)" opacity=".436"/>
  <path d="m-15.025 232.84c1.3702 2.7876 3.9215 5.1027 7.3233 4.8664 3.4018-0.23624-1.1339-3.5908-1.1339-3.5908s-3.5435-3.5435-6.1894-1.2757z" fill="#e8dd70" fill-rule="evenodd" filter="url(#t)"/>
  <rect transform="matrix(.73666 -.29803 .29803 .73666 -60.696 66.692)" x="-10.961" y="221.07" width="8.8352" height="2.7403" color="#000000" fill="#1c1c1c" filter="url(#x)" opacity=".436"/>
  <rect transform="matrix(.18133 -.7737 .7737 .18133 -168.34 178.51)" x="-10.961" y="221.07" width="8.8352" height="2.7403" color="#000000" fill="#1c1c1c" filter="url(#w)" opacity=".436"/>
 </g>
 <g transform="translate(.078592 .12692)" fill-rule="evenodd">
  <g stroke-width="5.308">
   <path d="m10.755 3.7618 0.29947-0.41325 0.41386 0.55929-0.08829 0.74306-0.30662 0.078691-1.1296 0.67885-0.48168-0.16818 0.83647-0.82874z" fill="#96999f"/>
   <path d="m9.8403 4.5526c0.1825-0.23914 0.17023-0.28765 0.23834-0.30092 0.06812-0.013254 0.14325-0.12121 0.21867-0.126 0.07542-0.00478 0.07949-0.21625 0.12419-0.22637 0.0447-0.010126 0.18688 0.022991 0.2414-0.045589 0.05452-0.068584 0.02414-0.14469 0.02414-0.14469l-0.60347-0.15821-0.67359 0.73068s0.13844 0.66024 0.43031 0.27112z" fill="#5975b5"/>
   <path d="m10.738 3.7494c0.32777-0.11381 0.37771-0.12953 0.40195 0.061716 0.02424 0.19124-0.29998 0.51331-0.29998 0.51331l-0.46146-0.16711s0.01566-0.39197 0.11081-0.4065c0.09516-0.014528 0.24868-0.00143 0.24868-0.00143z" fill="#39497e"/>
   <path d="m10.363 3.6876c0.2034 0.12037 0.35247 0.10038 0.43215 0.067839 0.07966-0.032504 0.20792-0.31343 0.25679-0.30895 0.04886 0.00449-0.19388-0.13822-0.19388-0.13822z" fill="#252921"/>
   <path d="m9.3315 2.8066 0.49234 0.11765s0.7057 0.33486 0.8653 0.42113c0.15961 0.086282 0.34269 0.053467 0.34269 0.053467l-0.99413-1.1044z" fill="#eae9e8"/>
   <path d="m7.4918 4.578c0.015118 0.39722 0.54366 0.57003 0.58291 0.45209 0.039256-0.11793 0.1136-0.33884 0.1136-0.33884s0.27766-0.59276 0.14112-0.61143c-0.13655-0.018668-0.83763 0.49822-0.83763 0.49822z" fill="#759d70"/>
   <path d="m7.0723 4.9048c0.26043 0.11755 1.2504-0.67331 1.3734-0.88384 0.12302-0.2106 0.082846-0.28619-0.15801-0.34677-0.24086-0.060569-1.8184 0.57323-1.2153 1.2306z" fill="url(#linearGradient1593)"/>
   <path d="m4.1296 3.0949c-0.34921-0.36594-0.7537-0.97504-0.55961-1.6727 0.11647-0.41862 0.44118-0.53782 0.44118-0.53782-0.082313 0.21399-0.43251 0.57213-0.20054 0.90093 0.041296 0.12993 0.12351 0.16192 0.36687 0.22051 0.24336 0.058605 0.17263 0.11636 0.17263 0.11636s0.13331-0.24992 0.21133-0.3011c0.078017-0.051186 0.47807-0.523 0.47807-0.523s1.3564-0.2741 1.4515-0.28862c0.095155-0.014525 0.45177 0.030019 0.45177 0.030019s1.0948 0.76471 1.1374 0.84036c0.042726 0.075664 0.00944 0.49005 0.00944 0.49005l-0.31573 0.54538-1.2189 0.10734 0.22594 1.3657-1.2232-0.25376s-1.2814-0.47039-1.4282-1.0397z" fill="#b0afad"/>
  </g>
  <path transform="matrix(.35798 .099595 -.099595 .35798 30.782 -69.187)" d="m-16.913 206.41c1.186-0.3675 1.0273-0.29233 1.1359-0.70994 0.61806-1.7122 0.92709-2.205 1.2445-2.2551 0.31738-0.0501 3.0569 0.80181 3.9088 1.5535 0.85192 0.75169 1.7456 3.416 1.7456 3.416l-5.5041 0.46772s-2.8063-1.2361-2.5307-2.4722z" clip-path="url(#ax)" fill="#626262" stroke-width="14.285"/>
  <path d="m5.1464 2.8417c0.10991 0.17231 0.26563 0.43469 0.33492 0.40565 0.069284-0.029046 0.49791-0.1224 0.49791-0.1224s0.37462 0.84188 0.45913 0.92017c0.084525 0.078279 0.20213 0.072359 0.20213 0.072359l-0.23825-1.1583-0.50392-0.24972s-0.38801-0.13371-0.61298 0.0034c-0.22499 0.13713-0.13893 0.12885-0.13893 0.12885z" fill="#411" stroke-width="5.308"/>
  <path transform="matrix(.35798 .099595 -.099595 .35798 30.782 -69.187)" d="m-19.867 203.53c1.3111 0.38979 2.0198 0.77957 2.445 1.1576s1.7836 1.252 1.7836 1.252l-0.86226 1.0867-3.0829-1.0394z" clip-path="url(#az)" fill="#9f9f9f" stroke-width="14.285"/>
  <path transform="matrix(.35798 .099595 -.099595 .35798 30.782 -69.187)" d="m-19.636 203.88c1.5452 1.6955 3.4912 2.9817 3.4912 2.9817l-0.29233 0.43432s-3.1655-0.7684-3.1989-1.3781c-0.03341-0.60971 0-2.0379 0-2.0379z" clip-path="url(#ay)" fill="#606060" stroke-width="14.285"/>
  <g stroke-width="5.308">
   <path d="m6.9834 1.27c0.16252 0.13633 0.064945 1.4531 0.064945 1.4531l0.33407 0.010943s0.1062-1.2005-0.11012-1.3563c-0.21631-0.15585-0.28892-0.10773-0.28892-0.10773z" fill="#444342"/>
   <path d="m6.7822 2.4599c0.32375-0.04204 0.81336-0.03338 0.98067 0.102 0 0 0.2072-0.073938 0.36252-0.053275 0.15532 0.020649 0.23379 0.2712 0.221 0.27087-0.012756-4.635e-4 -0.4891 0.47277-0.60454 0.42453-0.11543-0.048237-0.95964-0.74411-0.95964-0.74411z" fill="url(#linearGradient1595)"/>
   <path d="m6.3257 2.8728c-0.15751-0.32627 0.22879-0.47847 0.55226-0.42947 0.32349 0.048996 0.85444 0.71149 0.85444 0.71149s-1.0622 0.14181-1.4067-0.28203z" fill="url(#linearGradient1597)"/>
   <path d="m7.4329 4.1759c0.26043 0.11755 1.0331-0.34395 1.1561-0.55455 0.12302-0.2106 0.067919-0.34834-0.17293-0.4089-0.24086-0.060569-0.91793 0.65946-0.98317 0.96342z" fill="url(#linearGradient1599)"/>
   <path d="m9.5027 4.3546c0.30792-0.2268 0.52982-0.13285 0.56357-0.18467 0.03374-0.051816 0.0434-0.13288 0.01338-0.22177-0.03003-0.088891 0.14363-0.24995 0.24661-0.21487 0.10298 0.035098 0.25124-0.16203 0.25124-0.16203l-0.35968-0.29335-0.73842 0.049044-0.22144 0.40225-0.12163 0.47191z" fill="#aa531f"/>
   <path d="m9.6643 4.5962c0.3451-0.15203 0.59656-0.036975 0.59656-0.036975l-0.5606 0.24348z" fill="#c1c2c9"/>
   <path d="m8.7419 3.8073c0.31055 0.095502 0.45995 0.082409 0.64784 0.2258 0.18789 0.14338 0.15638 0.20751 0.20522 0.29398 0.048828 0.086476 0.17689 0.035559 0.11845 0.47484-0.058449 0.43931-1.2103-0.13628-1.2103-0.13628z" fill="url(#linearGradient1601)"/>
   <path d="m8.7799 3.8371c-0.13904 0.46699-0.14583 0.44231-0.01524 0.49688 0.13061 0.054542-0.075256 0.18862-0.064958 0.2826 0.010299 0.093975 0.087584 0.11092 0.087584 0.11092l0.00416 0.16516-0.39228-0.14558s-0.032395-0.063679-0.038721-0.10644c-0.00633-0.042758 0.2508-0.8687 0.26256-0.91099 0.011763-0.042281 0.15689 0.10743 0.15689 0.10743z" fill="#242f65"/>
   <path d="m9.8704 2.8832c0.03842-0.11494 0.32584-0.16383 0.43012-0.063954 0.10429 0.099883 0.01072 0.19304 0.13975 0.29659 0.12904 0.10355 0.52747 0.32714 0.46051 0.3826-0.06697 0.055459-0.21172 0.20525-0.33246 0.12977-0.12075-0.075471-0.08531-0.19124-0.25873-0.23949-0.17341-0.048246-0.31212-0.070714-0.31212-0.070714z" fill="#5975b5"/>
   <path d="m9.6833 3.4058c0.052444 0.12412 0.12253 0.15006 0.29948 0.093004 0.17694-0.057076 0.27932-0.17033 0.06239-0.22424-0.21694-0.053908-0.62182-0.34695-0.62182-0.34695s-0.16579 0.00541-0.18692 0.092953c-0.021135 0.087532 0.068854 0.21566 0.068854 0.21566z" fill="#252921"/>
   <path d="m9.1092 3.9982c0.43392-0.0081299 0.30181-0.30905 0.27443-0.38431-0.027383-0.075268 0.11605-0.23187 0.31505-0.18294 0.199 0.048923-0.086003-0.10768-0.26373-0.16357-0.17773-0.055888-0.21754-0.20226-0.12566-0.23146 0.091879-0.029198 0.19819-0.00606 0.25578 0.1227 0.057597 0.12876 0.41555 0.23158 0.49795 0.19008 0.08242-0.041495 0.21017-0.060712 0.21017-0.060712s-0.26572-0.20278-0.2989-0.31509c-0.03319-0.11232-0.11086-0.2499-0.26322-0.21175-0.15236 0.038147-0.42161-0.00133-0.42161-0.00133l-0.46799 0.44319-0.01658 0.74272z" fill="#3d4b6f"/>
   <path d="m8.6934 3.8517c-0.13967 0.28915-0.21906 0.83651-0.18829 0.84051 0.030772 0.00401 0.11273 0.086031 0.27698 0.036056 0.48436 0.12565 0.20531 0.65389 0.20531 0.65389l-0.95462-0.38403s0.398-1.2013 0.49974-1.2231c0.10174-0.021807 0.16089 0.076659 0.16089 0.076659z" fill="#652424"/>
  </g>
  <g fill="#dedede" stroke-width="1.4044">
   <path d="m5.2848 2.2027c1.3791 1.0033 1.1351 1.9786 1.4692 2.0716 0.33404 0.092935 0.2508 0.26112 0.49004 0.072559 0.23924-0.18856 0.7574-0.4954 0.90556-0.86421 0.14816-0.3688 0.4255-0.10485 0.37775 0.050429-0.047756 0.15527-0.44403 1.1703-0.42833 1.2612 0.015697 0.090954 0.058909 0.1485 0.17038-0.12116 0.11147-0.26966 0.23992-0.69861 0.32709-0.73356 0.087177-0.034972 0.60103-0.17902 0.77032-0.45991 0 0 0.055036-0.14869-0.17819-0.30925-0.23323-0.16055 0.84134-0.64973 0.84134-0.64973s1.0874 0.9221 1.3127 1.3401c0 0-0.24279 0.40538-0.09329 0.44698 0.1495 0.041592 0.10714 0.44859-0.20012 0.27934-0.30726-0.16924-0.51848-0.38263-0.78503-0.21196-0.26656 0.17066-0.41612 0.36097-0.53541 0.37287-0.11928 0.011912-0.28276 0.043742-0.19194-0.25957 0.090827-0.30331-0.11173 0.23951-0.1981 0.20259-0.086373-0.036912-0.093748 0.12854-0.64887-0.0065713 0 0 0.28797 0.21542 0.25865 0.41343-0.029318 0.19801-0.013043 0.20898-0.013043 0.20898s0.67104 0.25112 0.75584 0.062103c0.084796-0.18902 0.3271-0.41151 0.42382-0.48126 0.09671-0.069736 0.52277-0.35063 0.81609-0.22394 0 0-0.65428 0.19809-1.012 0.62687-0.35768 0.4288 1.4729 0.79635 1.4729 0.79635s1.0266 0.015037 1.2291-0.29585c0.20247-0.31089 0.5924-1.6198 0.443-1.8933-0.24679-0.3602-0.59905-0.73155-1.2067-0.54525-0.60761 0.18629-0.22949 0.46462-0.75964-0.34801-0.53017-0.81262-1.0952-1.2705-1.0952-1.2705s-1.1285 0.87962-1.1125 0.75653c0.01604-0.12308 0.00173-0.79219-0.21834-0.36142 0 0-0.24238-0.17677-0.28289 0.067075-0.040508 0.24385-0.29305-0.35487-0.29305-0.35487s-0.1544 0.68596-0.34706 0.72346c0 0 0.76214 0.011591 0.39408 0.3192-0.36803 0.3076-0.67109 0.25062-1.1348 0.14896-0.46374-0.10167-0.68678-0.44618-0.89627-0.57736s-0.33911-0.38591-0.8271-0.25291z"/>
   <path d="m4.0209 3.4864s0.055203-0.55866 0.23216-0.68708c0 0 0.045712 0.24506 0.46332 0.47969 0.41761 0.23463-0.47569 0.43257-0.47569 0.43257 0.9731 0.0065059 1.0103 0.85511 0.32499 0.43665-0.68538-0.41847-0.54479-0.6618-0.54479-0.6618z"/>
   <path d="m4.6005 3.0112c-0.043019-0.42431 0.066418-0.74819 0.60336-0.7792 0 0-0.032282 0.1392 0.061055 0.19738 0.093339 0.058174 0.090232 0.34724 0.23973 0.38883 0 0-0.29436-0.030355-0.42408 0.32012 0 0-0.25848-0.020371-0.48003-0.12711z"/>
   <path d="m4.5014 1.9076c1.0393-0.12318 0.94567-0.22653 0.94567-0.22653s-0.73655-0.10828-0.29161-0.24864 1.137-0.057345 1.3893-0.43167c0 0-0.40288-0.31181-2.2032 0.11506 0 0-0.034453 0.56382 0.15982 0.79181z"/>
   <path d="m6.7478 1.3138c-0.10769 0.086009-0.19342 0.13947-0.043069-0.30834 0.15036-0.4478 0.36195-0.3052 0.53793-0.011411 0.17597 0.29378 0.3654 0.19186 0.49857 0.33843 0.13317 0.14658 0.43614 0.30818 0.34694 0.60548 0 0-0.33127 0.056016-0.60289-0.38034-0.12121-0.14325-0.61287-0.34446-0.73748-0.24384z"/>
  </g>
  <path transform="matrix(.35798 .099595 -.099595 .35798 30.782 -69.187)" d="m-11.008 206.81c1.6203-2.5056 1.7707-2.4054 2.3386-2.1883s-0.15034 2.7562-0.88533 3.391c-0.73499 0.63477-1.4533-1.2027-1.4533-1.2027z" clip-path="url(#bh)" fill="#a3a3a3" filter="url(#aq)" opacity=".424" stroke-width="14.285"/>
  <g fill="#838383">
   <path transform="matrix(.35798 .099595 -.099595 .35798 30.782 -69.187)" d="m-9.3043 208.22c2.4388-4.3431 3.0235-6.1472 3.2573-5.9969 0.23386 0.15034 1.3363 1.6871 1.0357 2.1549-0.30068 0.46772-0.81851 1.0858-0.88533 1.1025-0.066817 0.0167-1.3698 3.8587-1.3698 3.8587z" clip-path="url(#bg)" filter="url(#ap)" opacity=".479" stroke-width="53.992"/>
   <path transform="matrix(.35798 .099595 -.099595 .35798 30.782 -69.187)" d="m-6.4646 202.84c0.60136 0.96885 0.93544 1.637 1.3363 1.3865 0.4009-0.25056 0.16704-1.2862-0.35079-1.6036-0.51783-0.31738-0.85192-0.36749-0.98556 0.21716z" clip-path="url(#bf)" filter="url(#ao)" opacity=".708" stroke-width="3.7796"/>
   <path transform="matrix(.35798 .099595 -.099595 .35798 30.782 -69.187)" d="m-4.1814 209.25c-0.035435-2.3269 0.33073-3.1419 2.3269-4.4885 1.9962-1.3465 1.2875 0.67327 1.5828 0.86226s1.0158 1.2166 1.3702 0.85045c0.35435-0.36617 1.1457-0.95676 1.441-0.85045 0.29529 0.1063 2.7876 2.7758 2.7876 2.7758l-6.7563 0.66146-2.6931 0.2008z" clip-path="url(#be)" filter="url(#an)" opacity=".64831" stroke-width="3.7796"/>
  </g>
  <g stroke-width="14.285">
   <path transform="matrix(.35798 .099595 -.099595 .35798 30.782 -69.187)" d="m2.386 205.86c0.49609-0.53153 0.33073-0.61421 0.92132-0.34254s0.90951 1.3347 1.3229 1.382c0.41341 0.0472 1.76-0.33073 1.9844-0.79139 0.22442-0.46066-0.23624-2.3033-0.14174-2.4568 0.094494-0.15356 1.5119-1.4056 2.1734-0.48429 0.66146 0.92132 1.8308 6.461-0.17718 6.8626-2.008 0.4016-4.9964-4.2758-6.0831-4.1696z" clip-path="url(#bd)" fill="#373737" filter="url(#am)" opacity=".758"/>
   <path transform="matrix(.094712 .02635 -.02635 .094712 21.121 -34.464)" d="m20.09 393s-6.4735 1.2943-7.2324 6.5176c-0.75893 5.2232 0.22266 6.3848 0.22266 6.3848 0.9375 1.8304 3.3926 4.9991 4.9551 4.8652 1.5625-0.13379 4.3747-0.62419 4.9551-2.3652 0.58036-1.7411 0.76032-6.2517-1.3379-7.1445-2.0982-0.89284-3.0368-1.3839-0.80469-1.25 2.2321 0.13379 3.4383 0.53736 2.6348-0.66797-0.80357-1.2054-3.3926-6.3398-3.3926-6.3398zm-1.7461 12.457c1.8794-0.0636 2.1311 2.096-0.12891 2.7656-1.6518-0.35716-2.4997-2.3208-0.26758-2.7226 0.13951-0.0251 0.27119-0.0387 0.39648-0.043z" clip-path="url(#bc)" fill="#a8a8a8" filter="url(#al)" opacity=".585"/>
   <path transform="matrix(.35798 .099595 -.099595 .35798 30.782 -69.187)" d="m5.3035 203.86c-1.76-0.2008-1.7718-1.0276-1.1576-1.382 0.61421-0.35435 1.2402-0.55515 1.7127-0.1063 0.47247 0.44884 0.73233 0.54334 0.2008 0.57877-0.53153 0.0354-0.63784 0.0118-0.62602-0.24804 0.011811-0.25986-0.38979-0.41342-0.81501-0.10631s-0.41341 0.66146 0.24805 0.69689c0.66146 0.0354 1.0394 0.37798 0.98038 0.77958s-0.54334-0.21261-0.54334-0.21261z" clip-path="url(#bb)" fill="#676767" filter="url(#ak)" opacity=".47"/>
   <path transform="matrix(.35798 .099595 -.099595 .35798 30.782 -69.187)" d="m-19.26 204.73c-0.2067-3.1301 0.73893-3.7927 0.73893-3.7927l-0.43704-0.18308s-2.8237 3.1844-0.3019 3.9758z" clip-path="url(#ba)" fill="#dedede"/>
  </g>
  <path d="m9.762 4.5809 0.26378 0.047624s0.72703-0.15852 0.85741-0.16411c0.13037-0.0056 0.29708-0.12995 0.33716-0.25088s-0.09003-0.44058-0.09003-0.44058-0.07523 0.33986-0.18571 0.38963c-0.1105 0.049788-0.22582 0.14011-0.43894-0.28641-0.21312-0.42653-0.7437 0.70473-0.7437 0.70473z" fill="#773520" stroke-width="5.308"/>
 </g>
 <g transform="matrix(.37157 0 0 .37157 10.294 -72.978)" fill-rule="evenodd" filter="url(#c)">
  <path d="m0.56696 212.66c0.51972-1.9844 2.4096-3.638 4.1577-3.7798s3.1183 3.5435 0.47247 3.827c-2.6458 0.28348-3.9215 1.6536-4.6302-0.0472z" fill="#f2a457" fill-opacity=".26812" filter="url(#ah)" opacity=".475"/>
  <path d="m-18.497 207.77c-0.47247 4.016 2.008 4.205 2.008 4.205l0.66146-2.0316s-1.6773-2.764-2.6695-2.1734z" fill="#eae9e8" opacity=".572"/>
  <path d="m-16.3 208.7c2.0789 1.63 2.9529 2.8584 3.9924 2.8584 1.0394 0 3.0474-0.30711 2.9293-0.4016-0.11812-0.0945-3.3545-1.9844-3.3545-1.8899s-0.37798-1.5592-0.37798-1.5592l-4.3231-2.3151z" fill="#eae9e8" fill-opacity=".26812"/>
  <path transform="matrix(.26458 0 0 .26458 0 97)" d="m-28.303 419.48s-3.0357 4.911-8.125 7.2324l0.53516 2.4102 7.4824-0.62891c2.5751-4.4575 4.5001-6.6928 5.4961-7.6855z" fill="#b58043" opacity=".356"/>
  <path d="m-7.5595 210.44c1.0394-1.819 1.7009-2.2915 1.7009-2.2915l0.89769 0.0945s0.30711 1.5828-0.68508 2.1261c-0.99219 0.54334-1.5592 0.47248-1.9135 0.0709z" fill="#6c9781" opacity=".657"/>
  <path d="m-3.0236 208.98s-0.8032 1.2994-2.1497 1.9136l0.14159 0.63769 1.9797-0.1664c0.68132-1.1794 1.1906-1.7708 1.4542-2.0335z" fill="#b58043" opacity=".11"/>
  <g fill-opacity=".26812">
   <path d="m-17.67 218.57c0.51972-1.9844 2.4096-3.638 4.1577-3.7798s3.1183 3.5435 0.47247 3.827c-2.6458 0.28348-3.9215 1.6536-4.6302-0.0472z" fill="#f2a457" filter="url(#aj)" opacity=".475"/>
   <path d="m-18.007 217.09c-1.1359-0.80181-2.4388-3.5079-1.0023-3.8754 1.4366-0.36749 3.8754 2.4722 1.0023 3.8754z" fill="#57f26b" filter="url(#ae)" opacity=".381"/>
   <path transform="rotate(40.801,-5.3999,219.15)" d="m-5.2506 221.1c-1.1359-0.80181-2.4388-3.5079-1.0023-3.8754 1.4366-0.36749 3.8754 2.4722 1.0023 3.8754z" fill="#57f26b" filter="url(#ad)" opacity=".144"/>
   <path d="m0.094494 219.33c0.51972-1.9844 2.4096-3.638 4.1577-3.7798s3.1183 3.5435 0.47247 3.827c-2.6458 0.28348-3.9215 1.6536-4.6302-0.0472z" fill="#f2a457" filter="url(#ai)" opacity=".475"/>
  </g>
  <path d="m-4.1427 215.58c3.2406-0.86862 5.2786-2.5725 5.7129-3.7418 0.43431-1.1693-0.83522-2.0713-0.83522-2.0713s-5.9133 3.2072-13.096 4.3598c4.5102 1.8542 4.9779 2.3219 8.2185 1.4533z" fill="url(#linearGradient1589)"/>
  <path d="m1.7205 209.79s-0.4009-0.43431 0.18375-0.45101 1.4032 0.65147 1.9878 0.45101c0.58465-0.20045-2.0713 1.6203-1.9878 1.3698-0.033409-0.7684-0.18375-1.3698-0.18375-1.3698z" fill="url(#radialGradient1591)" filter="url(#aa)"/>
 </g>
 <path d="m1.6576 2.7155 0.71412 0.28223 4.9103-1.8789 0.0098-0.58965z" fill="#b3b3b3" fill-opacity=".53726"/>
 <path d="m7.2918 0.52917 7.984 3.0239-0.83455 0.25693-7.1592-2.6912z" fill="#b3b3b3" fill-opacity=".53726"/>
 <g>
  <path d="m1.6575 2.7155 7.5023 2.8428v10.287l-6.1099-2.0338z" fill="url(#linearGradient1168)"/>
  <path d="m3.05 13.812v0.53725l6.114 2.0551-0.00416-0.55857z" fill="#787878"/>
  <path d="m9.1599 15.846 4.5231-1.571v0.55549l-4.5189 1.5741z" fill="#787878"/>
 </g>
 <path d="m1.6576 2.7155 0.27805-0.11105 7.2266 2.7015-0.00239 0.25232z" fill="#f0f1f1"/>
 <path d="m9.1599 5.5583 0.00239-0.25232 5.8626-1.8477 0.25087 0.094845z" fill="#f0f1f1"/>
 <path d="m9.1599 5.5583 6.1159-2.0052-1.5928 10.721-4.5231 1.571z" fill="url(#linearGradient1252)"/>
 <path d="m3.8198 10.083c-0.077691 0.08017-0.15745 0.21073-0.18133 0.29984-0.00554 0.02069-0.012626 0.04712-0.017331 0.08514l-0.35314-1.3024a0.30262 0.30262 0 0 1-1.14e-4 -0.14625c0.012679-0.047317 0.043672-0.10071 0.074541-0.13152l0.46197-0.46636-0.29786-0.29278 1.1483 0.28508 0.28735 1.1497-0.30171-0.29973zm1.387-3.164c0.14594-0.14642 0.33388-0.19727 0.53278-0.14397 0.21509 0.057632 0.35633 0.20239 0.42185 0.43883l0.098184 0.34641-0.93808 1.0264-0.81205-0.97284zm-1.0535 4.225a0.56728 0.56728 0 0 1-0.39888-0.69088c0.022504-0.08398 0.097099-0.2157 0.17341-0.29076l0.24758-0.25376 1.2422 0.33285-0.31033 1.1582zm2.1313-3.9701c-0.041953-0.15725-0.12149-0.27999-0.23341-0.36618l1.2893 0.34546c0.11533 0.030903 0.19176 0.1021 0.22047 0.20552l0.17356 0.6305 0.40056-0.11179-0.82239 0.84707-1.1328-0.32065 0.40446-0.10503zm1.1588 3.6215c0.15712 0.0421 0.29941 0.03544 0.43186-0.01887l-0.95328 0.95779a0.29309 0.29309 0 0 1-0.29455 0.07257l-0.61351-0.16439-0.10813 0.40354-0.3243-1.1372 0.8495-0.82287-0.10956 0.40888zm0.75564-0.80856c0.024616 0.09661 0.027217 0.1926 0.00191 0.28702-0.050496 0.18845-0.22477 0.35538-0.41737 0.40476a0.60589 0.60589 0 0 1-0.31699-0.0116l-0.34618-0.09276-0.3317-1.2349 1.154-0.30333z" fill="#0078d7" stroke-width=".21208"/>
 <circle cx="-357.64" cy="-346.22" r="0" fill="#5e4aa6" stroke-width=".26458"/>
</svg>
