<?xml version="1.0" encoding="UTF-8"?>
<!-- Created with Inkscape (http://www.inkscape.org/) -->
<svg width="64" height="64" version="1.1" viewBox="0 0 16.933 16.933" xmlns="http://www.w3.org/2000/svg" xmlns:cc="http://creativecommons.org/ns#" xmlns:dc="http://purl.org/dc/elements/1.1/" xmlns:rdf="http://www.w3.org/1999/02/22-rdf-syntax-ns#" xmlns:xlink="http://www.w3.org/1999/xlink">
 <defs>
  <linearGradient id="linearGradient1064" x1="-15.961" x2="-.30109" y1="-43.254" y2="-54.196" gradientTransform="matrix(1 0 0 1.1 16.669 62.435)" gradientUnits="userSpaceOnUse">
   <stop stop-color="#ffc832" offset="0"/>
   <stop stop-color="#ffdc6e" offset="1"/>
  </linearGradient>
  <linearGradient id="linearGradient992" x1="-16.14" x2="-1.0699" y1="-55.616" y2="-44.835" gradientTransform="matrix(1 0 0 1.1 16.669 62.435)" gradientUnits="userSpaceOnUse">
   <stop stop-color="#e1a000" offset="0"/>
   <stop stop-color="#ffdc6e" offset="1"/>
  </linearGradient>
  <linearGradient id="linearGradient1006" x1=".52939" x2="16.217" y1="2.7784" y2="14.872" gradientTransform="matrix(1 0 0 1.1 16.669 62.435)" gradientUnits="userSpaceOnUse">
   <stop stop-color="#e1a000" offset="0"/>
   <stop stop-color="#ffdc6e" offset="1"/>
  </linearGradient>
 </defs>
 <metadata>
  <rdf:RDF>
   <cc:Work rdf:about="">
    <dc:format>image/svg+xml</dc:format>
    <dc:type rdf:resource="http://purl.org/dc/dcmitype/StillImage"/>
    <dc:title/>
   </cc:Work>
  </rdf:RDF>
 </metadata>
 <g fill="#5e4aa6" stroke-width=".26458">
  <circle cx="-330.35" cy="-328.38" r="0"/>
  <circle cx="-312.11" cy="-326.25" r="0"/>
  <circle cx="-306.02" cy="-333.07" r="0"/>
  <circle cx="-308.84" cy="-326.01" r="0"/>
  <circle cx="-328.8" cy="-330.45" r="0"/>
 </g>
 <g>
  <g transform="matrix(1 0 0 1.1 16.669 63.956)" fill="url(#linearGradient992)" stroke-width=".66145">
   <path d="m-8.2026-51.317h-7.9373v-3.6379c0-0.36531 0.29614-0.66144 0.66144-0.66144h5.6223l1.6536 1.3229z" fill="url(#linearGradient992)"/>
  </g>
  <rect x=".52939" y="4.2333" width="15.874" height="10.848" ry=".79373" fill="url(#linearGradient1006)"/>
  <rect x=".97311" y="4.6963" width="14.987" height="9.9217" ry=".29919" fill="#fffffc"/>
 </g>
 <path d="m15.742 4.2332h-7.2759l-1.6536 1.4552h-5.6223c-0.36531 0-0.66144 0.32575-0.66144 0.72759v7.9373c0 0.40184 0.29614 0.72759 0.66144 0.72759h14.552c0.36531 0 0.66145-0.32575 0.66145-0.72759v-9.3926c0-0.40184-0.29614-0.72759-0.66145-0.72759z" fill="url(#linearGradient1064)" stroke-width=".69373"/>
 <g transform="translate(1.0583 13.493)">
  <path d="m5.8207-5.4239c-0.29315 0-0.52916 0.236-0.52916 0.52916v4.2332c0 0.29315 0.236 0.52916 0.52916 0.52916h2.3812l1.3229-1.3229v-3.4395c0-0.29315-0.236-0.52916-0.52916-0.52916z" fill="none" stroke="#e1a000" stroke-width=".26458"/>
  <path d="m8.6861-1.5875c-0.29315 0-0.52916 0.236-0.52916 0.52916v0.79373l1.3229-1.3229z" fill="#e1a000"/>
 </g>
 <g transform="translate(3e-5,13.493)" fill="#e1a000">
  <rect x="7.1436" y="-4.7624" width="2.6458" height=".26458"/>
  <rect x="7.1436" y="-3.9687" width="2.6458" height=".26458"/>
  <rect x="7.1436" y="-3.1749" width="2.6458" height=".26458"/>
  <rect x="7.1436" y="-2.3812" width="1.5875" height=".26458"/>
 </g>
</svg>
