<?xml version="1.0" encoding="UTF-8"?>
<svg width="64" height="64" version="1.1" viewBox="0 0 16.933 16.933" xmlns="http://www.w3.org/2000/svg" xmlns:cc="http://creativecommons.org/ns#" xmlns:dc="http://purl.org/dc/elements/1.1/" xmlns:rdf="http://www.w3.org/1999/02/22-rdf-syntax-ns#" xmlns:xlink="http://www.w3.org/1999/xlink">
 <defs>
  <linearGradient id="linearGradient1510-3" x1="25.085" x2="25.085" y1="23.62" y2="26.412" gradientTransform="matrix(1 0 0 1 -7.5545 -18.86)" gradientUnits="userSpaceOnUse">
   <stop stop-color="#fbbc1e" offset="0"/>
   <stop stop-color="#e2b24b" offset="1"/>
  </linearGradient>
  <linearGradient id="linearGradient2267-3" x1="19" x2="62" y1="16" y2="55" gradientTransform="matrix(.26458 0 0 .26458 10.295 2.5248)" gradientUnits="userSpaceOnUse">
   <stop stop-color="#fce798" offset="0"/>
   <stop stop-color="#f8c941" offset="1"/>
  </linearGradient>
  <linearGradient id="linearGradient1118" x1="20.108" x2="20.108" y1="6.3499" y2="13.493" gradientTransform="matrix(1 0 0 1 -1.5638 2.2602)" gradientUnits="userSpaceOnUse">
   <stop stop-color="#be900d" offset="0"/>
   <stop stop-color="#a87704" offset="1"/>
  </linearGradient>
 </defs>
 <metadata>
  <rdf:RDF>
   <cc:Work rdf:about="">
    <dc:format>image/svg+xml</dc:format>
    <dc:type rdf:resource="http://purl.org/dc/dcmitype/StillImage"/>
    <dc:title/>
   </cc:Work>
  </rdf:RDF>
 </metadata>
 <g transform="translate(-10.342 -2.5248)">
  <path d="m11.54 4.7737c-0.36531 0-0.66145 0.32576-0.66145 0.7276v2.9637c-0.0026 0.02629-0.0072 0.052001-0.0072 0.079062v7.9375c0 0.40185 0.29615 0.7276 0.66145 0.7276h14.552c0.36532 0 0.66145-0.32576 0.66145-0.7276v-9.3932c0-0.40185-0.29615-0.7276-0.66145-0.7276v5.17e-4h-7.5317c-0.19843 0-0.39688-0.066141-0.58704-0.1695-0.1902-0.10335-0.37211-0.24391-0.53747-0.39274-0.33073-0.29766-0.59531-0.62838-0.7276-0.76068-0.11517-0.11517-0.29265-0.18102-0.46974-0.21859-0.16944-0.035941-0.33337-0.044141-0.44649-0.045991h-0.14211z" color="#000000" color-rendering="auto" dominant-baseline="auto" fill="url(#linearGradient1510-3)" image-rendering="auto" shape-rendering="auto" solid-color="#000000" stop-color="#000000" style="font-feature-settings:normal;font-variant-alternates:normal;font-variant-caps:normal;font-variant-east-asian:normal;font-variant-ligatures:normal;font-variant-numeric:normal;font-variant-position:normal;font-variation-settings:normal;inline-size:0;isolation:auto;mix-blend-mode:normal;shape-margin:0;shape-padding:0;text-decoration-color:#000000;text-decoration-line:none;text-decoration-style:solid;text-indent:0;text-orientation:mixed;text-transform:none;white-space:normal"/>
  <path d="m18.703 6.6388c-0.11312 0.0018-0.30849-0.015417-0.51986 0.095085-0.73649 0.37947-0.77228 0.59367-1.557 0.71417h-4.9609c-0.21986 0-0.41825 0.088551-0.56172 0.23203-0.13937 0.13936-0.22042 0.33334-0.22531 0.5457v0.51676c-0.0026 0.02629-0.0067 0.052014-0.0067 0.079064v7.66c0 0.20092 0.07357 0.38251 0.19327 0.51418 0.1197 0.13167 0.28553 0.21342 0.46819 0.21342h14.552c0.18266 0 0.34797-0.08175 0.46767-0.21342 0.1197-0.13167 0.19379-0.31326 0.19379-0.51418v-9.1157c0-0.20092-0.07408-0.38303-0.19379-0.5147-0.11944-0.13137-0.28447-0.21202-0.46664-0.21239h-1.1653z" fill="url(#linearGradient2267-3)" style="paint-order:stroke fill markers"/>
  <path d="m18.703 6.3613c-0.11312 0.0018-0.30849-0.01542-0.51986 0.095082-0.73649 0.37947-0.77228 0.59367-1.557 0.71417h-4.9609c-0.21986 0-0.41825 0.088552-0.56172 0.23203-0.13937 0.13936-0.22042 0.33334-0.22531 0.5457v0.2775c0.0049-0.21236 0.08593-0.40634 0.22531-0.5457 0.14347-0.14348 0.34186-0.23203 0.56172-0.23203h4.9609c0.78474-0.1205 0.82052-0.3347 1.557-0.71417 0.21138-0.1105 0.40674-0.093282 0.51986-0.095082h7.383c0.18217 3.651e-4 0.3472 0.081012 0.46664 0.21239 0.1197 0.13167 0.19379 0.31377 0.19379 0.5147v-0.2775c0-0.20092-0.07408-0.38303-0.19379-0.5147-0.11943-0.13137-0.28447-0.21203-0.46664-0.21239h-1.1653zm-7.8248 2.1037c-0.0026 0.02629-0.0067 0.052011-0.0067 0.079062v0.2775c0-0.02705 0.0041-0.052771 0.0067-0.079061z" fill="#e2b24b" stroke-width=".26458"/>
  <path d="m10.872 16.199v0.28215c0 0.20092 0.07357 0.38251 0.19327 0.51418 0.1197 0.13167 0.28553 0.21342 0.46819 0.21342h14.552c0.18266 0 0.34797-0.08175 0.46767-0.21342 0.1197-0.13167 0.19379-0.31326 0.19379-0.51418v-0.28215c0 0.20092-0.07409 0.38251-0.19379 0.51418-0.1197 0.13167-0.28501 0.21343-0.46767 0.21343h-14.552c-0.18265 0-0.34849-0.08176-0.46819-0.21343-0.1197-0.13167-0.19327-0.31326-0.19327-0.51418z" fill="#e2b24b" stroke-width=".26458"/>
  <path d="m18.703 6.6388c-0.11312 0.0018-0.30849-0.015417-0.51986 0.095085-0.73649 0.37947-0.77228 0.59367-1.557 0.71417h-4.9609c-0.21986 0-0.41825 0.088551-0.56172 0.23203-0.13937 0.13936-0.22042 0.33334-0.22531 0.5457v0.38396c0.0049-0.21236 0.08594-0.40634 0.22531-0.5457 0.14347-0.14348 0.34186-0.23203 0.56172-0.23203h4.9609c0.78474-0.1205 0.82052-0.3347 1.557-0.71417 0.21138-0.1105 0.40674-0.093285 0.51986-0.095085h7.383c0.18217 3.704e-4 0.3472 0.081017 0.46664 0.21239 0.11971 0.13167 0.19379 0.31377 0.19379 0.5147v-0.38396c0-0.20092-0.07408-0.38303-0.19379-0.5147-0.1194-0.13137-0.28444-0.21203-0.46661-0.21239h-1.1653zm-7.8248 2.1037c-0.0026 0.02629-0.0067 0.052014-0.0067 0.079064v0.38396c0-0.02705 0.0041-0.052774 0.0067-0.079065v-0.2775z" fill="#fff" opacity=".2" style="paint-order:stroke fill markers"/>
  <path d="m22.296 11.777c-0.50623 0.6167-1.3698 1.5962-1.3698 1.5962s0.11446 1.1566 0.1965 1.9205c0.03562 0.38894-0.24466 0.55697-0.56237 0.4055-0.60412-0.30367-1.5439-0.8973-1.7508-1.0031-0.21049 0.10506-1.1193 0.69077-1.7296 0.99373-0.3213 0.15112-0.60482-0.01691-0.56885-0.40514 0.08311-0.76242 0.18175-1.9115 0.18175-1.9115s-0.85638-0.98417-1.3687-1.6002c-0.18098-0.22381-0.06475-0.54186 0.29217-0.60016 0.72824-0.13781 1.8562-0.18094 1.8562-0.18094s0.61705-1.3137 1.0074-2.0106c0.2148-0.42385 0.3634-0.37491 0.38894-0.36232 0.06621 0.022671 0.17091 0.10506 0.30728 0.36268 0.38607 0.69765 0.95628 2.0103 0.95628 2.0103s1.155 0.04601 1.8746 0.18382c0.3526 0.05901 0.46774 0.37743 0.28892 0.60123z" fill="url(#linearGradient1118)" stroke-width=".007032" p-id="13941"/>
 </g>
</svg>
