<svg width="22" height="22" version="1.1" viewBox="0 0 22 22" xmlns="http://www.w3.org/2000/svg">
 <defs>
  <style id="current-color-scheme" type="text/css">.ColorScheme-Text { color:#727272; } .ColorScheme-Highlight { color:#5294e2; }</style>
 </defs>
<path class="ColorScheme-Text" d="M 4 4 C 3.446 4 3 4.446 3 5 L 3 7 L 3 8 L 3 17 C 3 17.554 3.446 18 4 18 L 6 18 C 6 18.554 6.446 19 7 19 L 8 19 C 8.554 19 9 18.554 9 18 L 13 18 C 13 18.554 13.446 19 14 19 L 15 19 C 15.554 19 16 18.554 16 18 L 18 18 C 18.554 18 19 17.554 19 17 L 19 6 C 19 5.446 18.554 5 18 5 L 10 5 C 10 4.446 9.554 4 9 4 L 4 4 z M 4 5 L 9 5 L 9 6 L 9 7 L 4 7 L 4 5 z M 10 6 L 18 6 L 18 17 L 16 17 L 16 16 L 16 13 C 16 12.446 15.554 12 15 12 L 7 12 C 6.446 12 6 12.446 6 13 L 6 16 L 6 17 L 4 17 L 4 8 L 9 8 C 9.554 8 10 7.554 10 7 L 10 6 z M 7 13 L 15 13 L 15 16 L 15 17 L 15 18 L 14 18 L 14 17 L 14 16 L 14 15 L 8 15 L 8 16 L 8 17 L 8 18 L 7 18 L 7 17 L 7 16 L 7 13 z M 9 16 L 13 16 L 13 17 L 9 17 L 9 16 z " fill="currentColor"/>
  <g
     style="fill:#eaeaea;fill-opacity:1"
     id="g1293"
     transform="translate(-33,-15.999999)">
    <g
       style="fill:#eaeaea;fill-opacity:1"
       transform="translate(-126,11)"
       id="g3147" />
  </g>
</svg>
