<?xml version="1.0" encoding="UTF-8" standalone="no"?>
<svg
   xmlns:dc="http://purl.org/dc/elements/1.1/"
   xmlns:cc="http://creativecommons.org/ns#"
   xmlns:rdf="http://www.w3.org/1999/02/22-rdf-syntax-ns#"
   xmlns:svg="http://www.w3.org/2000/svg"
   xmlns="http://www.w3.org/2000/svg"
   xmlns:sodipodi="http://sodipodi.sourceforge.net/DTD/sodipodi-0.dtd"
   xmlns:inkscape="http://www.inkscape.org/namespaces/inkscape"
   height="20"
   width="20"
   version="1.1"
   id="svg4"
   sodipodi:docname="folder-open-symbolic.svg"
   inkscape:version="0.92.4 5da689c313, 2019-01-14">
  <metadata
     id="metadata10">
    <rdf:RDF>
      <cc:Work
         rdf:about="">
        <dc:format>image/svg+xml</dc:format>
        <dc:type
           rdf:resource="http://purl.org/dc/dcmitype/StillImage" />
      </cc:Work>
    </rdf:RDF>
  </metadata>
  <defs
     id="defs8">
    <style
       type="text/css"
       id="current-color-scheme">.ColorScheme-Text { color:#727272; } .ColorScheme-Highlight { color:#5294e2; }</style>
  </defs>
  <sodipodi:namedview
     pagecolor="#ffffff"
     bordercolor="#666666"
     borderopacity="1"
     objecttolerance="10"
     gridtolerance="10"
     guidetolerance="10"
     inkscape:pageopacity="0"
     inkscape:pageshadow="2"
     inkscape:window-width="1920"
     inkscape:window-height="971"
     id="namedview6"
     showgrid="false"
     inkscape:zoom="14.75"
     inkscape:cx="-4.1694915"
     inkscape:cy="8"
     inkscape:window-x="0"
     inkscape:window-y="38"
     inkscape:window-maximized="1"
     inkscape:current-layer="svg4" />
  <g
     id="g834"
     transform="translate(-1,-1.5)"
     style="fill:#ebebeb;fill-opacity:1">
    <path
       id="path820"
       d="M 4,4 C 3.446,4 3,4.446 3,5 v 2 1 9 c 0,0.554 0.446,1 1,1 h 2 c 0,0.554 0.446,1 1,1 h 1 c 0.554,0 1,-0.446 1,-1 h 4 c 0,0.554 0.446,1 1,1 h 1 c 0.554,0 1,-0.446 1,-1 h 2 c 0.554,0 1,-0.446 1,-1 V 6 C 19,5.446 18.554,5 18,5 H 10 C 10,4.446 9.554,4 9,4 Z M 4,5 H 9 V 6 7 H 4 Z m 6,1 h 8 v 11 h -2 v -1 -3 c 0,-0.554 -0.446,-1 -1,-1 H 7 c -0.554,0 -1,0.446 -1,1 v 3 1 H 4 V 8 h 5 c 0.554,0 1,-0.446 1,-1 z m -3,7 h 8 v 3 1 1 H 14 V 17 16 15 H 8 v 1 1 1 H 7 v -1 -1 z m 2,3 h 4 v 1 H 9 Z"
       class="ColorScheme-Text"
       inkscape:connector-curvature="0"
       style="color:#727272;fill:#ebebeb;fill-opacity:1" />
    <g
       transform="translate(-33,-15.999999)"
       id="g1293"
       style="fill:#ebebeb;fill-opacity:1">
      <g
         id="g3147"
         transform="translate(-126,11)"
         style="fill:#ebebeb;fill-opacity:1" />
    </g>
  </g>
</svg>
