<?xml version="1.0" encoding="UTF-8" standalone="no"?>
<svg
   width="64"
   height="64"
   version="1.1"
   viewBox="0 0 64 64"
   id="svg7"
   sodipodi:docname="folder-crash.svg"
   inkscape:version="1.4 (e7c3feb100, 2024-10-09)"
   xmlns:inkscape="http://www.inkscape.org/namespaces/inkscape"
   xmlns:sodipodi="http://sodipodi.sourceforge.net/DTD/sodipodi-0.dtd"
   xmlns:xlink="http://www.w3.org/1999/xlink"
   xmlns="http://www.w3.org/2000/svg"
   xmlns:svg="http://www.w3.org/2000/svg">
  <sodipodi:namedview
     id="namedview7"
     pagecolor="#505050"
     bordercolor="#eeeeee"
     borderopacity="1"
     inkscape:showpageshadow="0"
     inkscape:pageopacity="0"
     inkscape:pagecheckerboard="0"
     inkscape:deskcolor="#505050"
     inkscape:zoom="2.921875"
     inkscape:cx="23.614973"
     inkscape:cy="63.657753"
     inkscape:window-width="1920"
     inkscape:window-height="1051"
     inkscape:window-x="0"
     inkscape:window-y="0"
     inkscape:window-maximized="1"
     inkscape:current-layer="svg7" />
  <defs
     id="defs2">
    <linearGradient
       id="linearGradient1"
       inkscape:collect="always">
      <stop
         style="stop-color:#fffefe;stop-opacity:1"
         offset="0"
         id="stop3" />
      <stop
         style="stop-color:#fecfce;stop-opacity:1"
         offset="1"
         id="stop4" />
    </linearGradient>
    <style
       id="current-color-scheme"
       type="text/css">.ColorScheme-Text {
      color:#333333;
    }
    .ColorScheme-Highlight {
      color:#60c0f0;
    }</style>
    <linearGradient
       id="a"
       x1="445.28"
       x2="445.28"
       y1="179.28"
       y2="200.07"
       gradientTransform="matrix(1.4723,0,0,1.4432,-555.57883,-239.75)"
       gradientUnits="userSpaceOnUse">
      <stop
         stop-opacity=".15"
         offset="0"
         id="stop1" />
      <stop
         stop-opacity="0"
         offset="1"
         id="stop2" />
    </linearGradient>
    <filter
       color-interpolation-filters="sRGB"
       height="1.0264005"
       width="1.0219998"
       y="-0.013200229"
       x="-0.010999908"
       id="filter1733">
      <feGaussianBlur
         id="feGaussianBlur869"
         stdDeviation="0.072761339" />
    </filter>
    <linearGradient
       gradientUnits="userSpaceOnUse"
       gradientTransform="matrix(0.26458,0,0,0.26458,-0.79373,-39.158)"
       y2="166"
       y1="155"
       x2="25"
       x1="25"
       id="linearGradient1387">
      <stop
         id="stop850"
         offset="0"
         stop-color="#3296d7"
         style="stop-color:#f27a79;stop-opacity:1" />
      <stop
         id="stop852"
         offset="1"
         stop-color="#0a7db4"
         style="stop-color:#c26261;stop-opacity:1" />
    </linearGradient>
    <filter
       color-interpolation-filters="sRGB"
       height="1.2969998"
       width="1.0296998"
       y="-0.14849988"
       x="-0.014849913"
       id="filter935">
      <feGaussianBlur
         id="feGaussianBlur872"
         stdDeviation="0.098224626" />
    </filter>
    <linearGradient
       gradientUnits="userSpaceOnUse"
       gradientTransform="matrix(0.26458,0,0,0.26458,-0.79374,-39.158)"
       y2="185"
       y1="185"
       x2="65"
       x1="5"
       id="linearGradient1401">
      <stop
         id="stop855"
         offset="0"
         stop-color="#3492cb"
         style="stop-color:#c26261;stop-opacity:1" />
      <stop
         id="stop857"
         offset=".083713"
         stop-color="#6ec8fa"
         style="stop-color:#f27a79;stop-opacity:1" />
      <stop
         id="stop859"
         offset=".91237"
         stop-color="#6ec8fa"
         style="stop-color:#f37b7a;stop-opacity:1" />
      <stop
         id="stop861"
         offset="1"
         stop-color="#3492cb"
         style="stop-color:#c26261;stop-opacity:1" />
    </linearGradient>
    <linearGradient
       gradientUnits="userSpaceOnUse"
       gradientTransform="matrix(0.18168,0,0,0.40956,9.2005,-451.88)"
       y2="1140.2"
       y1="1138.4"
       x2="-9.6169996"
       x1="-9.6169996"
       id="linearGradient1438">
      <stop
         id="stop864"
         offset="0"
         stop-opacity="0"
         stop-color="#1482be"
         style="stop-color:#8c4746;stop-opacity:0;" />
      <stop
         id="stop866"
         offset="1"
         stop-color="#1482be"
         style="stop-color:#8c4746;stop-opacity:1;" />
    </linearGradient>
    <linearGradient
       id="linearGradient1911-3-3"
       x1="25.084999"
       x2="25.084999"
       y1="24.031"
       y2="26.412001"
       gradientTransform="matrix(3.7795903,0,0,3.7795903,-67.646015,-80.824836)"
       gradientUnits="userSpaceOnUse">
      <stop
         stop-color="#892a3c"
         offset="0"
         id="stop5" />
      <stop
         stop-color="#732332"
         offset="1"
         id="stop6" />
    </linearGradient>
    <linearGradient
       id="linearGradient1951-6-6"
       x1="100"
       x2="133.19"
       y1="17.452999"
       y2="51.605999"
       gradientTransform="matrix(2.2947,0,0,2.2947,-262.41,-67.465)"
       gradientUnits="userSpaceOnUse">
      <stop
         stop-color="#bf7474"
         offset="0"
         id="stop7" />
      <stop
         stop-color="#be4c63"
         offset="1"
         id="stop8" />
    </linearGradient>
    <linearGradient
       id="linearGradient11110-7-5"
       x1="0.52916998"
       x2="16.403999"
       y1="5.3814998"
       y2="5.3814998"
       gradientTransform="matrix(8.673,0,0,8.673,-88.013,-66.291)"
       gradientUnits="userSpaceOnUse">
      <stop
         stop-color="#fff"
         offset="0"
         id="stop9" />
      <stop
         stop-color="#fff"
         stop-opacity="0"
         offset="1"
         id="stop10" />
    </linearGradient>
    <linearGradient
       id="linearGradient29077-6"
       x1="0.52916002"
       x2="16.403999"
       y1="14.179"
       y2="14.179"
       gradientTransform="matrix(8.673,0,0,8.673,-88.013,-66.426)"
       gradientUnits="userSpaceOnUse">
      <stop
         stop-color="#4e1822"
         offset="0"
         id="stop11" />
      <stop
         stop-color="#4e1821"
         offset="1"
         id="stop12" />
    </linearGradient>
    <linearGradient
       id="linearGradient1006-1"
       x1="8.5258999"
       x2="8.5258999"
       y1="6.0935998"
       y2="13.269"
       gradientTransform="matrix(3.7795903,0,0,3.7795903,-55.101102,-8.638812e-5)"
       gradientUnits="userSpaceOnUse">
      <stop
         stop-color="#fff"
         offset="0"
         id="stop13" />
      <stop
         stop-color="#fececd"
         offset="1"
         id="stop14" />
    </linearGradient>
    <linearGradient
       inkscape:collect="always"
       xlink:href="#linearGradient1"
       id="linearGradient4"
       x1="32"
       y1="24.000492"
       x2="32"
       y2="50.000492"
       gradientUnits="userSpaceOnUse" />
  </defs>
  <path
     d="m 4.527033,8.5003965 c -1.3806639,0 -2.4999857,1.2312321 -2.4999857,2.7500405 v 11.201062 c -0.011331,0.0994 -0.026452,0.196536 -0.026452,0.298964 v 29.999653 c 0,1.518809 1.1193217,2.750041 2.4999856,2.750041 H 59.501398 c 1.380751,0 2.499986,-1.231232 2.499986,-2.750041 V 17.248202 c 0,-1.518809 -1.119279,-2.749997 -2.499986,-2.749997 v 0.0017 h -30.9902 L 25.114709,10.30649 c 0,0 -1.383627,-1.806647 -3.999925,-1.806647 h -5.000232 z"
     color="#000000"
     color-rendering="auto"
     dominant-baseline="auto"
     fill="url(#linearGradient1911-3-3)"
     image-rendering="auto"
     shape-rendering="auto"
     solid-color="#000000"
     stop-color="#000000"
     stroke-width="3.77959"
     style="font-variant-ligatures:normal;font-variant-position:normal;font-variant-caps:normal;font-variant-numeric:normal;font-variant-alternates:normal;font-variant-east-asian:normal;font-feature-settings:normal;font-variation-settings:normal;text-indent:0;text-decoration-line:none;text-decoration-style:solid;text-decoration-color:#000000;text-transform:none;text-orientation:mixed;white-space:normal;shape-padding:0;shape-margin:0;inline-size:0;isolation:auto;mix-blend-mode:normal;fill:url(#linearGradient1911-3-3)"
     id="path34" />
  <path
     d="m 31.599062,14.441932 c -0.427539,0.0075 -1.165908,-0.0582 -1.964881,0.359433 -2.783553,1.434179 -2.918822,2.243786 -5.884883,2.699185 H 4.9995144 c -0.8310043,0 -1.5807778,0.334493 -2.1230725,0.87698 -0.5267371,0.526737 -0.8330525,1.259819 -0.85153,2.062498 v 1.048811 c 0.018913,-0.802635 0.3246622,-1.535761 0.85153,-2.062498 0.5422947,-0.542251 1.2920682,-0.876937 2.1230725,-0.876937 H 23.749298 c 2.96593,-0.455485 3.101199,-1.265005 5.884883,-2.699228 0.798973,-0.417637 1.537286,-0.352626 1.964881,-0.359429 H 59.50301 c 0.688458,0.0013 1.312289,0.306141 1.763678,0.802722 0.452392,0.49767 0.732386,1.185954 0.732386,1.945358 v -1.048855 c 0,-0.759361 -0.280064,-1.447688 -0.732386,-1.945314 -0.451389,-0.496537 -1.07522,-0.801328 -1.763678,-0.802722 H 55.098936 Z M 2.0247376,22.392886 c -0.011331,0.0994 -0.026452,0.196536 -0.026452,0.298963 v 1.048812 c 0,-0.102428 0.015122,-0.199556 0.026452,-0.29896 z"
     fill="#1e5992"
     opacity="0.00100002"
     stroke-width="1"
     id="path35" />
  <g
     stroke-width="8.673"
     id="g38"
     transform="matrix(0.43578811,0,0,0.43578811,38.355085,28.889179)">
    <path
       d="m -22.597,-30.75 c 0,0 -3.1153,4.1516 -10.039,6.8706 -0.2836,0.052 -0.5646,0.10061 -0.87404,0.14831 h -43.025 c -1.9069,0 -3.6274,0.76754 -4.8717,2.0123 -1.2088,1.2086 -1.9118,2.891 -1.9541,4.7328 v 4.4818 c -0.026,0.2281 -0.0607,0.45099 -0.0607,0.68602 v 64.14 c 0,1.7426 0.63832,3.3175 1.6762,4.4594 1.0382,1.1419 2.4765,1.851 4.0605,1.851 h 126.21 c 1.5841,0 3.0179,-0.70857 4.056,-1.851 1.0381,-1.142 1.6806,-2.7169 1.6806,-4.4594 v -76.765 c 0,-1.7426 -0.64266,-3.322 -1.6806,-4.464 -1.036,-1.1393 -2.4674,-1.8388 -4.0473,-1.842 h -64.892 z"
       fill="url(#linearGradient1951-6-6)"
       id="path36"
       style="fill:url(#linearGradient1951-6-6)" />
    <path
       d="m -22.597,-30.75 c 0,0 -3.1153,4.1516 -10.039,6.8706 -0.2836,0.052 -0.5646,0.10061 -0.87404,0.14831 h -43.025 c -1.9069,0 -3.6274,0.76754 -4.8717,2.0123 -1.2088,1.2086 -1.9117,2.891 -1.9541,4.7328 v 3.3344 c 0.0434,-1.8418 0.745,-3.5241 1.9541,-4.7328 1.2443,-1.2443 2.9648,-2.0124 4.8717,-2.0124 h 43.025 c 0.30961,-0.052 0.59062,-0.0971 0.87404,-0.14831 6.5837,-2.2812 11.173,-6.8705 11.173,-6.8705 h 69.997 c 1.5798,0.003 3.0111,0.7025 4.0471,1.842 1.0381,1.142 1.6806,2.7214 1.6806,4.4639 v -3.3344 c 0,-1.7426 -0.64266,-3.322 -1.6806,-4.464 -1.036,-1.1393 -2.4673,-1.8388 -4.0471,-1.842 h -64.892 z m -60.765,18.245 c -0.026,0.2281 -0.0607,0.45099 -0.0607,0.68603 v 3.3345 c 0,-0.23504 0.0347,-0.45793 0.0607,-0.68603 z"
       fill="url(#linearGradient11110-7-5)"
       opacity="0.3"
       id="path37"
       style="fill:url(#linearGradient11110-7-5)" />
    <path
       d="m -83.423,52.164 v 2.4471 c 0,1.7426 0.63832,3.3174 1.6762,4.4594 1.0382,1.142 2.4765,1.851 4.0605,1.851 h 126.21 c 1.5841,0 3.0179,-0.70857 4.056,-1.851 1.0381,-1.142 1.6806,-2.7168 1.6806,-4.4594 V 52.164 c 0,1.7426 -0.64266,3.3175 -1.6806,4.4594 -1.0381,1.1419 -2.4719,1.851 -4.056,1.851 h -126.21 c -1.5841,0 -3.0223,-0.70944 -4.0605,-1.851 -1.0381,-1.1419 -1.6762,-2.7169 -1.6762,-4.4594 z"
       color="#000000"
       color-rendering="auto"
       dominant-baseline="auto"
       fill="url(#linearGradient29077-6)"
       image-rendering="auto"
       shape-rendering="auto"
       solid-color="#000000"
       stop-color="#000000"
       style="font-variant-ligatures:normal;font-variant-position:normal;font-variant-caps:normal;font-variant-numeric:normal;font-variant-alternates:normal;font-variant-east-asian:normal;font-feature-settings:normal;font-variation-settings:normal;text-indent:0;text-decoration-line:none;text-decoration-style:solid;text-decoration-color:#000000;text-transform:none;text-orientation:mixed;white-space:normal;shape-padding:0;shape-margin:0;inline-size:0;isolation:auto;mix-blend-mode:normal;fill:url(#linearGradient29077-6)"
       id="path38" />
  </g>
  <path
     d="M 22.545457,24.000492 C 20.581277,24.000492 19,25.581764 19,27.545946 v 18.909092 c 0,1.964182 1.581277,3.545454 3.545457,3.545454 H 41.454542 C 43.418723,50.000492 45,48.41922 45,46.455038 V 27.545946 c 0,-1.964182 -1.581277,-3.545454 -3.545458,-3.545454 z m 0,1.181818 h 18.909086 c 1.309457,0 2.363638,1.054182 2.363638,2.363636 v 18.909092 c 0,1.309454 -1.054181,2.363636 -2.363638,2.363636 H 22.545457 c -1.309457,0 -2.363638,-1.054182 -2.363638,-2.363636 V 27.545946 c 0,-1.309454 1.054181,-2.363636 2.363638,-2.363636 z m 0,3.545454 v 1.181818 h 1.18182 v -1.181818 z m 1.18182,1.181818 v 2.363638 h 2.363638 v -2.363638 z m 2.363638,0 h 1.181819 v -1.181818 h -1.181819 z m 0,2.363638 v 1.181818 h 1.181819 V 32.27322 Z m -2.363638,0 h -1.18182 v 1.181818 h 1.18182 z m 13,-3.545456 v 1.181818 h 1.181819 v -1.181818 z m 1.181819,1.181818 v 2.363638 h 2.363627 v -2.363638 z m 2.363627,0 h 1.181819 v -1.181818 h -1.181819 z m 0,2.363638 v 1.181818 h 1.181819 V 32.27322 Z m -2.363627,0 h -1.181819 v 1.181818 h 1.181819 z m -9.454543,5.90909 v 2.363636 h 7.090904 V 38.18231 Z m 7.090904,2.363636 v 2.363636 h 2.363639 v -2.363636 z m 2.363639,2.363636 v 2.363638 h 2.363627 v -2.363638 z m -9.454543,-2.363636 h -2.363638 v 2.363636 h 2.363638 z m -2.363638,2.363636 h -2.363638 v 2.363638 h 2.363638 z"
     fill="#000000"
     opacity="0.15"
     id="path1"
     style="opacity:1;fill:url(#linearGradient4);fill-opacity:1;stroke-width:1.18182" />
</svg>
