<?xml version="1.0" encoding="UTF-8" standalone="no"?>
<svg
   xmlns:dc="http://purl.org/dc/elements/1.1/"
   xmlns:cc="http://creativecommons.org/ns#"
   xmlns:rdf="http://www.w3.org/1999/02/22-rdf-syntax-ns#"
   xmlns:svg="http://www.w3.org/2000/svg"
   xmlns="http://www.w3.org/2000/svg"
   xmlns:sodipodi="http://sodipodi.sourceforge.net/DTD/sodipodi-0.dtd"
   xmlns:inkscape="http://www.inkscape.org/namespaces/inkscape"
   width="200"
   height="200"
   version="1.1"
   id="svg42"
   sodipodi:docname="folder-network.svg"
   inkscape:version="0.92.5 (6c0c36ef5a, 2020-05-15, custom)">
  <sodipodi:namedview
     pagecolor="#ffffff"
     bordercolor="#666666"
     borderopacity="1"
     objecttolerance="10"
     gridtolerance="10"
     guidetolerance="10"
     inkscape:pageopacity="0"
     inkscape:pageshadow="2"
     inkscape:window-width="1920"
     inkscape:window-height="949"
     id="namedview44"
     showgrid="false"
     inkscape:zoom="0.834386"
     inkscape:cx="42.579243"
     inkscape:cy="71.068494"
     inkscape:window-x="0"
     inkscape:window-y="36"
     inkscape:window-maximized="1"
     inkscape:current-layer="svg42" />
  <metadata
     id="metadata2">
    <rdf:RDF>
      <cc:Work
         rdf:about="">
        <dc:format>image/svg+xml</dc:format>
        <dc:type
           rdf:resource="http://purl.org/dc/dcmitype/StillImage" />
        <dc:title></dc:title>
      </cc:Work>
    </rdf:RDF>
  </metadata>
  <defs
     id="defs14">
    <linearGradient
       id="linearGradient1011"
       x1="3.9687"
       x2="3.9687"
       y1="-12.171"
       y2="-6.879"
       gradientTransform="matrix(1 0 0 .99894 1.0583 14.153)"
       gradientUnits="userSpaceOnUse">
      <stop
         stop-color="#059bff"
         offset="0"
         id="stop4" />
      <stop
         stop-color="#005aff"
         offset="1"
         id="stop6" />
    </linearGradient>
    <linearGradient
       id="linearGradient921"
       x1="7.9373"
       x2="7.9373"
       y1="1.0583"
       y2="-8.2019"
       gradientTransform="translate(1.0583,14.42)"
       gradientUnits="userSpaceOnUse">
      <stop
         stop-color="#005aff"
         offset="0"
         id="stop9" />
      <stop
         stop-color="#059bff"
         offset="1"
         id="stop11" />
    </linearGradient>
    <style
       type="text/css"
       id="current-color-scheme">.ColorScheme-Text {
        color:#4d4d4d;
      }</style>
    <style
       id="style852"
       type="text/css">.ColorScheme-Text {
        color:#4d4d4d;
      }</style>
    <linearGradient
       gradientUnits="userSpaceOnUse"
       gradientTransform="matrix(0.26458,0,0,0.26458,-0.79373,-39.158)"
       y2="166"
       y1="155"
       x2="25"
       x1="25"
       id="linearGradient1387">
      <stop
         id="stop854"
         offset="0"
         stop-color="#3296d7" />
      <stop
         id="stop856"
         offset="1"
         stop-color="#0a7db4" />
    </linearGradient>
    <linearGradient
       gradientUnits="userSpaceOnUse"
       gradientTransform="matrix(0.26458,0,0,0.26458,-0.79374,-39.158)"
       y2="185"
       y1="185"
       x2="65"
       x1="5"
       id="linearGradient1401">
      <stop
         id="stop859"
         offset="0"
         stop-color="#3492cb" />
      <stop
         id="stop861"
         offset=".083713"
         stop-color="#6ec8fa" />
      <stop
         id="stop863"
         offset=".91237"
         stop-color="#6ec8fa" />
      <stop
         id="stop865"
         offset="1"
         stop-color="#3492cb" />
    </linearGradient>
    <linearGradient
       gradientUnits="userSpaceOnUse"
       gradientTransform="matrix(0.18168,0,0,0.40956,9.2005,-451.88)"
       y2="1140.2"
       y1="1138.4"
       x2="-9.617"
       x1="-9.617"
       id="linearGradient1438">
      <stop
         id="stop868"
         offset="0"
         stop-opacity="0"
         stop-color="#1482be" />
      <stop
         id="stop870"
         offset="1"
         stop-color="#1482be" />
    </linearGradient>
    <filter
       color-interpolation-filters="sRGB"
       height="1.0264"
       width="1.022"
       y="-.0132"
       x="-.011"
       id="filter1733">
      <feGaussianBlur
         id="feGaussianBlur873"
         stdDeviation="0.072761339" />
    </filter>
    <filter
       color-interpolation-filters="sRGB"
       height="1.297"
       width="1.0297"
       y="-.1485"
       x="-.01485"
       id="filter935">
      <feGaussianBlur
         id="feGaussianBlur876"
         stdDeviation="0.098224626" />
    </filter>
  </defs>
  <g
     id="g1012"
     transform="matrix(11.929333,0,0,11.929333,-0.99970172,-0.99913381)">
    <g
       id="g895"
       transform="translate(-0.79373,-39.158)"
       style="opacity:0.5;filter:url(#filter1733)">
      <g
         id="g889"
         style="stroke-opacity:0.95293998">
        <path
           id="path883"
           d="m 10,155 c -2.77,0 -5,2.23 -5,5 v 40 c 0,2.77 2.23,5 5,5 h 50 c 2.77,0 5,-2.23 5,-5 v -36 c 0,-0.831 -0.3347,-1.5808 -0.87695,-2.123 -0.54225,-0.5422 -1.292,-0.87695 -2.123,-0.87695 h -31 c -0.75,0 -1.5,-0.25001 -2.2188,-0.64062 -0.71875,-0.39063 -1.4062,-0.92188 -2.0312,-1.4844 -1.25,-1.125 -2.25,-2.375 -2.75,-2.875 -0.43528,-0.43528 -1.1061,-0.68419 -1.7754,-0.82617 -0.64042,-0.13585 -1.26,-0.16683 -1.6875,-0.17383 h -0.53711 z"
           transform="scale(0.26458)"
           inkscape:connector-curvature="0"
           style="opacity:1;stroke-width:0.20101" />
        <path
           id="path885"
           d="M 7.4004,165 C 6.0708,165 5,166.0708 5,167.4004 v 32.6 c 0,2.77 2.23,5 5,5 h 50 c 2.77,0 5,-2.23 5,-5 v -32.6 C 65,166.0708 63.9292,165 62.5996,165 Z"
           transform="scale(0.26458)"
           inkscape:connector-curvature="0"
           style="opacity:1;stroke-width:0.17979001" />
        <path
           id="path887"
           d="M 7.4004,165 C 6.0708,165 5,166.0708 5,167.4004 v 1 C 5,167.0708 6.0708,166 7.4004,166 h 55.199 c 1.3296,0 2.4004,1.0708 2.4004,2.4004 v -1 C 64.9998,166.0708 63.929,165 62.5994,165 Z"
           transform="scale(0.26458)"
           inkscape:connector-curvature="0"
           style="opacity:1;stroke-width:0.17979001" />
      </g>
      <path
         id="path891"
         style="color:#000000;text-indent:0;text-transform:none;opacity:0.5;stroke-width:0.27278"
         d="m 1.3229,52.916 c 0.037387,0.72117 0.52916,1.3229 1.3188,1.3229 h 13.233 c 0.79328,0 1.3224,-0.64408 1.3224,-1.3229 z"
         inkscape:connector-curvature="0" />
      <path
         id="path893"
         style="color:#000000;text-indent:0;text-transform:none;opacity:0.15;stroke-width:0.095585"
         d="m 1.3237,52.916 3.337e-4,0.26458 H 17.198034 L 17.1977,52.916 H 1.3226997 Z m 0.26376,0.79373 h 15.346 c 0.05347,-0.07329 0.11377,-0.15529 0.15166,-0.26458 h -15.653 c 0.046511,0.1129 0.09263,0.17706 0.15532,0.26458 z"
         inkscape:connector-curvature="0" />
    </g>
    <path
       id="path897"
       d="m 1.852,1.852 c -0.73288,0 -1.3229,0.59001 -1.3229,1.3229 v 10.583 c 0,0.73288 0.59001,1.3229 1.3229,1.3229 h 13.229 c 0.73288,0 1.3229,-0.59001 1.3229,-1.3229 V 4.2331 c 0,-0.21986 -0.08855,-0.41825 -0.23202,-0.56171 C 16.02841,3.52792 15.83003,3.43937 15.61017,3.43937 H 7.40827 C 7.20984,3.43937 7.0114,3.373223 6.82124,3.26988 6.63107,3.16653 6.44918,3.02597 6.28382,2.87715 5.9531,2.5795 5.68852,2.24878 5.55623,2.11649 5.44106,2.00132 5.26359,1.93547 5.0865,1.8979 4.91706,1.861957 4.75314,1.85376 4.64002,1.851908 H 4.49791 Z"
       inkscape:connector-curvature="0"
       style="fill:url(#linearGradient1387);stroke-width:0.053182" />
    <path
       id="path899"
       d="M 1.852,4.3131 C 1.66878,4.3131 1.49466,4.350202 1.33628,4.41697 1.1779,4.483736 1.0352,4.58008 0.91564,4.69963 0.79608,4.81919 0.69922,4.96189 0.63246,5.12027 0.56569,5.27865 0.52911,5.45277 0.52911,5.63599 v 0.26458 c 0,-0.18322 0.03658,-0.35734 0.10335,-0.51572 C 0.69922,5.22647 0.79608,5.08377 0.91564,4.96421 1.0352,4.84465 1.1779,4.74831 1.33628,4.68155 1.49466,4.614785 1.66878,4.57768 1.852,4.57768 h 13.229 c 0.18322,0 0.35734,0.037103 0.51572,0.10387 0.15838,0.066765 0.30108,0.16311 0.42064,0.28266 0.11956,0.11956 0.21642,0.26226 0.28318,0.42064 0.06676,0.15838 0.10335,0.3325 0.10335,0.51572 V 5.63599 c 0,-0.18322 -0.03659,-0.35734 -0.10335,-0.51572 C 16.23377,4.96189 16.13692,4.81919 16.01736,4.69963 15.8978,4.58007 15.7551,4.48373 15.59672,4.41697 15.43834,4.350205 15.26422,4.3131 15.081,4.3131 Z"
       inkscape:connector-curvature="0"
       style="opacity:0.1;stroke-width:0.047568;filter:url(#filter935)" />
    <path
       id="path901"
       d="M 1.8521,4.4979 C 1.66888,4.4979 1.49476,4.535002 1.33638,4.60177 1.178,4.668537 1.03529,4.76488 0.91575,4.88445 0.79619,5.00401 0.69933,5.14671 0.63257,5.30508 0.565809,5.46344 0.52922,5.63758 0.52922,5.8208 v 7.9374 c 0,0.73289 0.59001,1.3229 1.3229,1.3229 h 13.229 c 0.73289,0 1.3229,-0.59001 1.3229,-1.3229 V 5.8208 c 0,-0.18322 -0.03659,-0.35734 -0.10335,-0.51572 C 16.2339,5.1467 16.13705,5.00399 16.01749,4.88445 15.89793,4.76489 15.75523,4.66855 15.59686,4.60177 15.43848,4.535006 15.26436,4.4979 15.08114,4.4979 h -13.229 z"
       inkscape:connector-curvature="0"
       style="fill:url(#linearGradient1401);stroke-width:0.047569" />
    <path
       id="path903"
       style="color:#000000;text-indent:0;text-transform:none;fill:url(#linearGradient1438);stroke-width:0.27278"
       d="m 0.52916,13.758 c 0.037387,0.72117 0.52916,1.3229 1.3188,1.3229 h 13.233 c 0.79328,0 1.3224,-0.64408 1.3224,-1.3229 z"
       inkscape:connector-curvature="0" />
    <path
       id="path905"
       style="color:#000000;text-indent:0;text-transform:none;opacity:0.25;fill:#1482be;stroke-width:0.095585"
       d="m 0.52997,13.758 3.337e-4,0.26458 H 16.404304 L 16.40397,13.758 H 0.5289697 Z m 0.26376,0.79373 h 15.346 c 0.05347,-0.07329 0.11377,-0.15529 0.15166,-0.26458 h -15.653 c 0.046511,0.1129 0.09263,0.17706 0.15532,0.26458 z"
       inkscape:connector-curvature="0" />
    <path
       id="path907"
       d="M 1.852,4.4978 C 1.66878,4.4978 1.49466,4.534902 1.33628,4.60167 1.1779,4.668436 1.0352,4.76478 0.91564,4.88433 0.79608,5.00389 0.69922,5.14659 0.63246,5.30497 0.56569,5.46335 0.52911,5.63747 0.52911,5.82069 v 0.26458 c 0,-0.18322 0.036581,-0.35735 0.10335,-0.51572 C 0.699225,5.41117 0.79608,5.26847 0.91564,5.14891 1.0352,5.02935 1.1779,4.93301 1.33628,4.86625 1.49466,4.799484 1.66878,4.76238 1.852,4.76238 h 13.229 c 0.18322,0 0.35734,0.037103 0.51572,0.10387 0.15838,0.066765 0.30108,0.16311 0.42064,0.28266 0.11956,0.11956 0.21642,0.26226 0.28318,0.42064 0.06676,0.15838 0.10335,0.3325 0.10335,0.51572 V 5.82069 c 0,-0.18322 -0.03659,-0.35734 -0.10335,-0.51572 C 16.23377,5.14659 16.13691,5.00389 16.01736,4.88433 15.8978,4.76477 15.7551,4.66843 15.59672,4.60167 15.43834,4.534905 15.26422,4.4978 15.081,4.4978 Z"
       inkscape:connector-curvature="0"
       style="fill:#80cbff;stroke-width:0.047568" />
    <g
       id="g951"
       style="fill:#5e4aa6;stroke-width:0.26458001">
      <g
         id="g945"
         transform="translate(-3.2526e-7,4.7281e-5)">
        <g
           id="g939"
           transform="translate(-3.2526e-7,4.7281e-5)">
          <g
             id="g933"
             transform="translate(-3.2526e-7,4.7281e-5)">
            <g
               id="g927"
               transform="translate(-3.2526e-7,4.7281e-5)">
              <g
                 id="g921"
                 transform="translate(-3.2526e-7,4.7281e-5)">
                <g
                   id="g915"
                   transform="translate(-3.2526e-7,4.7281e-5)">
                  <circle
                     id="circle909"
                     r="0"
                     cy="-325.31"
                     cx="-284.20001" />
                  <circle
                     id="circle911"
                     r="0"
                     cy="-325.31"
                     cx="-284.20001" />
                  <circle
                     id="circle913"
                     r="0"
                     cy="-326.53"
                     cx="-317.64999" />
                </g>
                <circle
                   id="circle917"
                   r="0"
                   cy="-325.38"
                   cx="-281.60001" />
                <circle
                   id="circle919"
                   r="0"
                   cy="-325.38"
                   cx="-281.60001" />
              </g>
              <circle
                 id="circle923"
                 r="0"
                 cy="-325.16"
                 cx="-283.03" />
              <circle
                 id="circle925"
                 r="0"
                 cy="-325.16"
                 cx="-283.03" />
            </g>
            <circle
               id="circle929"
               r="0"
               cy="-325.66"
               cx="-283.95001" />
            <circle
               id="circle931"
               r="0"
               cy="-325.66"
               cx="-283.95001" />
          </g>
          <circle
             id="circle935"
             r="0"
             cy="-325.72"
             cx="-277.78" />
          <circle
             id="circle937"
             r="0"
             cy="-325.72"
             cx="-277.78" />
        </g>
        <circle
           id="circle941"
           r="0"
           cy="-325.41"
           cx="-280.04999" />
        <circle
           id="circle943"
           r="0"
           cy="-325.41"
           cx="-280.04999" />
      </g>
      <circle
         id="circle947"
         r="0"
         cy="-325.41"
         cx="-283.42999" />
      <circle
         id="circle949"
         r="0"
         cy="-325.41"
         cx="-283.42999" />
    </g>
    <path
       id="path953"
       d="m 8.4664,6.0854 c -0.10069,0 -0.20198,0.00812 -0.30006,0.018307 a 2.8522,2.8522 0 0 0 -0.56403,0.10913 2.9234,2.9234 0 0 0 -1.9187,1.9187 2.8522,2.8522 0 0 0 -0.10914,0.56402 2.9191,2.9191 0 0 0 -0.01834,0.30005 c 0,0.10069 0.0083,0.20198 0.01834,0.30006 a 2.8522,2.8522 0 0 0 0.10914,0.56402 2.9234,2.9234 0 0 0 1.9187,1.9187 2.8522,2.8522 0 0 0 0.56403,0.10943 c 0.09808,0.0099 0.19935,0.01804 0.30006,0.01804 0.10071,0 0.20197,-0.0082 0.30006,-0.01831 a 2.8522,2.8522 0 0 0 0.56402,-0.10884 2.973,2.973 0 0 0 0.52734,-0.22759 2.905,2.905 0 0 0 1.3918,-1.6915 2.8522,2.8522 0 0 0 0.10884,-0.56402 c 0.01024,-0.098078 0.01834,-0.19936 0.01834,-0.30006 0,-0.10039 -0.0083,-0.20227 -0.01834,-0.30005 A 2.8522,2.8522 0 0 0 11.24962,8.131447 2.9308,2.9308 0 0 0 10.71295,7.140217 C 10.65355,7.068339 10.58781,7.006057 10.52175,6.939987 10.25894,6.677187 9.95162,6.459497 9.6033,6.312517 A 3.0157,3.0157 0 0 0 9.3306,6.212692 2.8522,2.8522 0 0 0 8.76658,6.103562 3.0017,3.0017 0 0 0 8.46652,6.085255 Z m 0,0.29102 c 0.44032,0 0.85448,0.10798 1.2188,0.30005 0.0096,0.00541 0.0175,0.013077 0.02704,0.018307 0.0073,0.00965 0.0055,0.020111 0.01834,0.027056 0.0094,0.00541 0.01834,0.013618 0.02704,0.018307 0.01541,0.0092 0.03053,0.021554 0.02731,0.036345 C 9.78123,6.79831 9.74534,6.796867 9.73049,6.81292 9.73229,6.843403 9.72003,6.837631 9.71215,6.858283 9.71675,6.871631 9.72846,6.869917 9.73049,6.885699 9.72769,6.902563 9.70574,6.904548 9.71215,6.922044 c 0.0285,0.022095 0.05499,0.00361 0.08204,0 C 9.85322,6.914834 9.90304,6.9229458 9.93972,6.894717 9.93602,6.871991 9.95713,6.865678 9.96676,6.849354 9.98629,6.862972 10.0026,6.880828 10.02149,6.894717 10.0104,6.899217 9.98603,6.906622 9.97584,6.913024 9.96127,6.922944 9.9566,6.938366 9.93972,6.949369 9.92753,6.957489 9.89784,6.985714 9.88499,6.985714 c -0.01541,0 -0.04364,-0.012806 -0.05473,-0.00938 -0.01567,0.0045 -0.0094,0.030212 -0.02704,0.036345 -0.03492,0.012806 -0.09691,-0.034 -0.10914,0.018307 0.01457,0.030212 0.06434,0.020111 0.09083,0.036345 0.0166,0.010463 0.04135,0.064122 0.04574,0.081798 a 0.21333,0.21333 0 0 1 0,0.082069 c -0.0166,0.042206 -0.0605,0.037247 -0.10943,0.036345 -0.01311,0 -0.0242,9.018e-4 -0.03612,0 -0.08204,-0.00541 -0.16298,-0.031474 -0.20023,0.027056 0.0028,0.045092 0.01013,0.069802 0,0.10913 -0.0073,0.028498 -0.03786,0.048069 -0.03639,0.07278 5.97e-4,0.012806 0.0242,0.037247 0.02731,0.054742 0.0018,0.00938 -0.0046,0.027958 0,0.036345 0.01366,0.025973 0.04831,-0.0045 0.07278,0 0.02328,0.00361 0.04538,0.037878 0.04538,0.0634 A 0.16619,0.16619 0 0 1 9.57561,7.703776 C 9.55233,7.738678 9.50898,7.730291 9.47577,7.74941 9.44809,7.765103 9.43764,7.803612 9.42104,7.831208 9.40354,7.860879 9.38703,7.870799 9.394,7.913006 A 0.19645,0.19645 0 0 1 9.29388,8.013116 0.28754,0.28754 0 0 0 9.24823,8.040532 0.23051,0.23051 0 0 0 9.21212,8.076877 C 9.19352,8.097258 9.16757,8.106277 9.15739,8.12224 9.15009,8.134415 9.156488,8.160388 9.14829,8.176982 9.13665,8.199077 9.1174,8.218286 9.10264,8.240382 9.09624,8.251109 9.08284,8.263109 9.0756,8.276817 9.05874,8.30766 9.03601,8.33183 9.03921,8.358886 9.04201,8.384859 9.07414,8.390631 9.0756,8.413357 9.0774,8.426163 9.066,8.436083 9.0662,8.449702 c 8.59e-4,0.020376 0.0073,0.029671 0.0094,0.045366 0.0037,0.03932 -0.02008,0.055014 -0.0274,0.082064 -0.0037,0.012534 0.0027,0.026246 0,0.03607 C 9.0418,8.633038 9.01236,8.64468 9.01181,8.667941 9.011213,8.684264 9.03738,8.699419 9.03912,8.72268 9.040022,8.738463 9.02693,8.753166 9.02972,8.768046 9.03522,8.796539 9.08939,8.836673 9.11176,8.858877 9.14174,8.889088 9.17116,8.908935 9.18454,8.940941 9.19563,8.967727 9.20021,9.011738 9.22093,9.031772 9.23605,9.046387 9.26484,9.052786 9.28436,9.068206 9.30296,9.08281 9.32864,9.08922 9.34844,9.10464 9.38042,9.129895 9.42406,9.181208 9.47562,9.17742 9.50238,9.17566 9.52713,9.164611 9.55738,9.159115 9.58855,9.153715 9.62575,9.137825 9.6575,9.141074 9.6817,9.143824 9.70461,9.16091 9.73028,9.159379 9.75649,9.157619 9.79114,9.145039 9.82111,9.132054 c 0.05244,-0.022733 0.133,-0.065841 0.20925,-0.054739 0.05821,0.00925 0.0594,0.074222 0.10012,0.10012 0.04657,0.00363 0.08122,-0.00925 0.11815,0 0.02795,0.00727 0.06114,0.059706 0.0637,0.0818 0.0028,0.022733 -0.01512,0.040399 -0.01834,0.054739 -0.0073,0.030486 -0.01283,0.071337 -0.01805,0.090831 -0.0046,0.015419 -0.0096,0.030211 -0.0094,0.04563 0,0.013613 0.02208,0.045366 0.03667,0.063396 0.0175,0.022369 0.04254,0.03932 0.06343,0.063671 0.03868,0.044551 0.05499,0.10479 0.08204,0.16385 0.0064,0.014615 -0.0064,0.017402 0,0.03617 -0.01164,0.089015 -0.0419,0.14726 -0.1001,0.24563 -0.02768,0.03202 -0.05528,0.06953 -0.05473,0.10914 -0.0018,0.09516 0.04977,0.14436 0.04574,0.23661 -0.0096,0.12368 2.86e-4,0.14289 -0.0094,0.20896 0.04189,0.02128 0.02127,0.08351 0.0094,0.12747 -0.01805,0.0523 -0.03556,0.0652 -0.04574,0.10012 a 0.11641,0.11641 0 0 0 0.0637,0.0093 2.6172,2.6172 0 0 1 -1.8917,0.80034 2.6143,2.6143 0 0 1 -0.98221,-0.19093 c -8.71e-4,-5.74e-4 8.8e-4,-0.0093 0,-0.0094 0.02768,-0.01163 0.08003,0.02039 0.10013,-0.01804 0.0099,-0.01858 -0.01338,-0.0542 0,-0.07278 0.0094,-0.01281 0.07132,-0.02417 0.09083,-0.02732 0.02823,-0.0045 0.05702,9.02e-4 0.07278,-0.0093 a 0.082945,0.082945 0 0 0 0.03639,-0.07278 c -0.0018,-0.01542 -0.01512,-0.02273 -0.02704,-0.03643 -0.01013,-0.01163 -0.0028,-0.02597 -0.0094,-0.03635 -0.01247,-0.01858 -0.03117,-0.02769 -0.03639,-0.05474 0.03813,-0.0073 0.09057,0.04283 0.14553,0.02732 0.02621,-0.0073 0.06985,-0.05727 0.08204,-0.0818 0.0037,-0.0073 -0.0046,-0.03643 0,-0.04537 0.0046,-0.01024 0.01631,-0.01307 0.01805,-0.0183 0.0037,-0.01425 -0.0027,-0.0183 0,-0.02705 0.0096,-0.02706 0.03868,-0.04428 0.05473,-0.06404 0.01192,-0.01461 0.02502,-0.02994 0.03639,-0.04537 0.01247,-0.01632 0.0186,-0.02183 0.02704,-0.03616 0.0083,-0.04834 -0.02969,-0.08522 -0.01805,-0.12746 0.01247,-0.0478 0.08149,-0.07855 0.12717,-0.10013 0.01605,-0.0073 0.03227,-0.02237 0.04574,-0.02705 0.03172,-0.01137 0.07011,-0.0073 0.09982,-0.0183 0.04977,-0.01804 0.06692,-0.07278 0.09112,-0.11816 0.01164,-0.02129 0.02502,-0.03932 0.02704,-0.05474 0.0027,-0.01362 -0.0027,-0.0294 0,-0.04537 0.0027,-0.01569 0.0046,-0.02795 0.0094,-0.04537 a 0.46274,0.46274 0 0 0 0.0091,-0.09111 c 0,-0.02102 -0.0091,-0.02625 -0.0091,-0.04537 -0.0037,-0.06863 0.02008,-0.0716 0.04538,-0.10914 0.01283,-0.01858 0.01834,-0.05032 0.0274,-0.06367 0.04281,-0.0634 0.11438,-0.09459 0.10914,-0.19092 C 8.63708,9.727445 8.62577,9.660513 8.60249,9.650312 8.58911,9.644912 8.55821,9.648552 8.53879,9.641062 8.47619,9.61779 8.43111,9.546188 8.36593,9.540952 c -0.01366,-5.727e-4 -0.02099,5.97e-4 -0.03639,0 -0.0253,-5.727e-4 -0.05325,-0.024164 -0.08177,-0.027325 -0.01805,-0.00176 -0.05299,0.0054 -0.0637,0 C 8.16776,9.506357 8.17014,9.477281 8.15703,9.468261 8.14624,9.460991 8.12798,9.45608 8.11138,9.449956 A 0.21682,0.21682 0 0 0 8.0386,9.431915 c -0.0094,-5.958e-4 -0.03493,0.00176 -0.04538,0 C 7.97691,9.429165 7.96298,9.41415 7.94784,9.40459 7.9286,9.392959 7.91934,9.384754 7.91145,9.368244 7.92886,9.311247 7.86836,9.301599 7.85672,9.268414 7.85122,9.252995 7.86222,9.227652 7.85672,9.213675 7.85032,9.194103 7.83316,9.184631 7.81134,9.168309 7.77348,9.138638 7.73856,9.111577 7.68387,9.104638 c -0.0242,-0.00275 -0.05244,0.00176 -0.08149,0 A 0.14173,0.14173 0 0 1 7.51126,9.059184 C 7.48889,9.032938 7.48505,9.007683 7.46561,8.995513 7.44727,8.983882 7.41465,8.980358 7.40218,8.968099 7.39668,8.962699 7.39848,8.952944 7.39278,8.941049 7.38338,8.921841 7.36309,8.918592 7.37473,8.895418 7.35346,8.884955 7.36107,8.908767 7.33834,8.904778 7.318,8.875734 7.30314,8.859412 7.25657,8.868168 7.2353,8.872688 7.21753,8.904238 7.19287,8.904778 7.17253,8.905375 7.15621,8.871858 7.12917,8.868168 7.10883,8.865418 7.07967,8.889722 7.06574,8.886473 7.04273,8.882843 7.04072,8.854731 7.02009,8.841107 7.00497,8.830864 6.97407,8.804133 6.96565,8.804761 6.93916,8.8053579 6.92027,8.860678 6.88361,8.841107 6.86582,8.818374 6.91414,8.816667 6.89301,8.795477 6.87696,8.779782 6.86918,8.7963361 6.85662,8.804837 6.84176,8.814747 6.82748,8.826391 6.81088,8.831898 6.77449,8.845787 6.74864,8.844432 6.72005,8.859311 6.69384,8.8732 6.68981,8.895932 6.67468,8.922982 6.66249,8.945076 6.63856,8.976554 6.61995,8.977721 6.59786,8.979481 6.57632,8.949768 6.55652,8.941012 6.49538,8.914766 6.46106,8.958777 6.411,8.959317 6.36443,8.9598897 6.29953,8.885094 6.30186,8.841157 6.30366,8.814107 6.31672,8.774237 6.31991,8.741027 6.32261,8.714781 6.34667,8.692687 6.34722,8.668247 6.347807,8.63623 6.29542,8.608276 6.27444,8.604576 6.22467,8.595326 6.15802,8.627033 6.10157,8.604576 6.09111,8.586535 6.12255,8.576623 6.12888,8.55921 6.13258,8.548967 6.12518,8.542888 6.12888,8.531885 6.13528,8.515023 6.15711,8.504472 6.16527,8.486519 6.17077,8.472895 6.16797,8.448642 6.17437,8.43178 6.18167,8.412931 6.19994,8.400305 6.20177,8.386416 6.20357,8.368379 6.18866,8.343577 6.17437,8.331945 A 0.28346,0.28346 0 0 0 6.07431,8.350037 C 6.01729,8.376281 6.03215,8.450437 5.97449,8.468487 5.9547,8.474767 5.92379,8.483102 5.90171,8.486528 a 2.5932,2.5932 0 0 1 0.17265,-0.54564 c 0.02034,0.00361 0.03722,0.016595 0.05473,0.018307 0.04858,0.00361 0.0506,-0.033459 0.09083,-0.054742 0.04134,0.00541 0.0626,-0.00361 0.10012,0 0.0253,0.00271 0.06169,0.034902 0.08177,0.036345 0.01686,5.863e-4 0.02034,-0.021013 0.03639,-0.018307 0.01605,0.00271 0.04281,0.035804 0.04565,0.054742 0.0027,0.023809 -0.01605,0.046536 -0.0094,0.072779 0.02502,0.025342 0.07361,0.039861 0.10914,0.054742 0.02328,-0.019119 0.0037,-0.0634 0,-0.091113 -5.77e-4,-0.012174 0.0018,-0.025341 0,-0.036344 C 6.58089,7.958448 6.57449,7.939149 6.57449,7.922555 6.57449,7.84689 6.6327,7.816025 6.68364,7.786335 6.70546,7.773529 6.72819,7.750261 6.74734,7.740701 6.7741,7.727624 6.78869,7.726091 6.81077,7.713645 c 0.04042,-0.022727 0.078,-0.046806 0.10914,-0.07278 0.01457,-0.03436 -0.0018,-0.075394 0,-0.10913 0.01457,-0.0092 0.02127,0.00181 0.03639,0 C 6.98077,7.526325 6.98828,7.490972 7.00195,7.476993 7.01025,7.468873 7.03779,7.466805 7.04732,7.458956 7.07179,7.439837 7.07179,7.412691 7.09269,7.404214 c 0.0073,-0.00271 0.02475,-0.00541 0.03639,-0.0092 0.01605,-0.0045 0.0384,-0.018307 0.0637,-0.027416 0.01631,-0.00541 0.05738,-0.00271 0.0637,-0.0092 0.0082,-0.00812 -0.0018,-0.042477 0,-0.054742 C 7.26895,7.243953 7.35748,7.24197 7.41102,7.222129 7.44796,7.207519 7.48783,7.177578 7.52918,7.185424 7.52088,7.213922 7.48609,7.205805 7.49279,7.240166 7.50189,7.288235 7.55768,7.228532 7.57483,7.221859 7.60681,7.208242 7.66883,7.200846 7.71104,7.185514 7.74825,7.172437 7.8097,7.146464 7.77474,7.103716 7.7456,7.101906 7.73661,7.129689 7.71104,7.140061 7.69363,7.142771 7.68951,7.131941 7.67465,7.130861 7.66034,7.1302658 7.65257,7.142495 7.63826,7.140061 7.62395,7.137351 7.60416,7.111563 7.60187,7.094698 7.59637,7.050147 7.64752,7.036528 7.66557,7.003585 7.65338,6.963453 7.59949,7.000875 7.56544,6.985548 7.56914,6.961739 7.58285,6.935765 7.61109,6.930806 a 0.17987,0.17987 0 0 1 0.09083,0.018307 c 0.0081,0.00631 -0.0028,0.025071 0.0091,0.036435 0.01393,0.012175 0.03666,0.00271 0.05473,0 C 7.77215,6.955336 7.72414,6.968684 7.72936,6.949113 7.7652,6.925845 7.83093,6.936577 7.87488,6.930806 7.90018,6.927196 7.92493,6.906636 7.94766,6.894461 7.96865,6.882286 7.989,6.865332 8.01109,6.885261 8.01749,6.907086 7.99597,6.919622 7.98405,6.930624 7.94326,6.966788 7.90659,7.007191 7.87491,7.049074 c 0.01953,0.018849 0.04886,0.00541 0.08177,0.0092 0.01283,0.00181 0.03198,0.00721 0.04537,0.00938 0.01605,0.00271 0.03291,-0.00271 0.04565,0 0.02209,0.00541 0.02328,0.036345 0.04538,0.036345 0.03584,0 0.03868,-0.030212 0.01805,-0.054742 0.0064,-0.024711 0.01834,-0.045994 0.0094,-0.0634 C 8.10393,6.95294 8.04198,6.991267 8.03849,6.949512 8.03669,6.922997 8.06553,6.914881 8.07488,6.89477 8.07118,6.844086 8.11649,6.84093 8.11127,6.794945 8.10857,6.775826 8.08799,6.776367 8.07488,6.7586 8.06848,6.74895 8.06475,6.72893 8.05683,6.722255 8.02915,6.698987 7.97828,6.702684 7.97479,6.658133 c -0.0018,-0.026244 0.0037,-0.04392 0,-0.07278 C 7.97109,6.558568 7.94362,6.481753 7.92035,6.476513 7.89066,6.470203 7.87378,6.52359 7.83858,6.539913 A 0.14348,0.14348 0 0 1 7.7658,6.549293 C 7.75297,6.546583 7.73087,6.537118 7.72941,6.512858 7.72761,6.498969 7.73211,6.494009 7.73851,6.485531 c 0.0018,-0.00181 -0.0018,-0.00721 0,-0.0092 A 2.6397,2.6397 0 0 1 8.4661,6.376221 Z M 7.384,6.61303 C 7.35843,6.69573 7.2836,6.74283 7.18407,6.74021 7.1596,6.763478 7.16976,6.808029 7.15667,6.84032 A 0.080325,0.080325 0 0 1 7.08389,6.885683 C 7.06436,6.883873 7.02916,6.858627 7.02916,6.84032 c 0,-0.015151 0.01457,-0.032286 0.01834,-0.045634 a 2.5972,2.5972 0 0 1 0.33644,-0.18188 z m 2.2283,0.090835 a 0.079744,0.079744 0 0 0 -0.02731,0.0092 C 9.56465,6.72524 9.56372,6.743548 9.5486,6.74941 9.52678,6.75753 9.49709,6.75753 9.49387,6.776826 9.49117,6.79315 9.51276,6.79838 9.51221,6.813171 9.50391,6.832741 9.48893,6.834725 9.4849,6.858534 c 0.02704,0.04392 0.094,5.872e-4 0.12747,-0.0092 0.01457,-0.0045 0.02823,0.00271 0.03611,-0.0092 0.0091,-0.01461 0.0018,-0.043649 0.0094,-0.063671 C 9.66518,6.754368 9.68786,6.759599 9.68492,6.740118 9.68312,6.720548 9.64505,6.700526 9.61214,6.703773 Z M 6.729,7.040295 c 0.01953,0.023268 0.03584,0.057628 0,0.07278 C 6.7235,7.115785 6.66007,7.124709 6.64723,7.122455 6.64353,7.1218779 6.64173,7.116145 6.63813,7.113075 6.66582,7.086019 6.70009,7.066269 6.72896,7.040295 Z m 0.07278,0.091113 c 0.01283,5.871e-4 0.02153,0.026244 0.03639,0.027056 0.01457,0.00181 0.03694,-0.011634 0.04574,-0.0092 0.02209,0.00541 0.03024,0.047077 0.0091,0.0634 C 6.8756,7.214474 6.86973,7.191651 6.8569,7.194357 6.82079,7.200667 6.81088,7.269391 6.78412,7.267137 6.75855,7.264427 6.73984,7.212936 6.76578,7.194357 6.766357,7.178664 6.75565,7.173976 6.75668,7.157922 6.76488,7.148002 6.78079,7.129153 6.80205,7.130866 Z M 6.68363,7.149445 c 0.0073,0 0.0064,-0.00271 0.0091,0 C 6.68903,7.177672 6.67816,7.181731 6.65634,7.195079 A 0.14901,0.14901 0 0 0 6.58356,7.294895 C 6.57986,7.309505 6.53791,7.353065 6.52013,7.349637 6.47823,7.340437 6.53754,7.261707 6.54717,7.249527 6.55796,7.236179 6.57137,7.227973 6.58356,7.213182 6.59575,7.198572 6.59932,7.167188 6.61096,7.15844 6.62379,7.14924 6.66156,7.14852 6.68374,7.14924 Z m 3.5835,0.07278 c 0.04161,-0.00271 0.0626,0.047527 0.08149,0.07278 0.01605,0.020652 0.06517,0.049512 0.09112,0.06367 0.01486,0.00812 0.02914,0.01984 0.04574,0.027416 0.01715,0.00721 0.04308,0.017405 0.06343,0.036345 0.02034,0.018578 0.03584,0.046536 0.03639,0.0634 5.97e-4,0.017135 -0.01164,0.02967 -0.0091,0.045634 0.01834,0.00271 0.02795,-0.015693 0.03639,-0.036435 0.06866,0.097797 0.1269,0.20228 0.18189,0.30908 a 0.034341,0.034341 0 0 0 -0.01834,0.027416 c -0.0055,0.02967 0.01741,0.067548 -0.02704,0.07278 -0.02823,0.00361 -0.06141,-0.027958 -0.10013,-0.036345 -0.01567,-0.00361 -0.04189,0.00361 -0.05473,0 C 10.56519,7.857778 10.5739,7.821701 10.54886,7.804296 A 0.20372,0.20372 0 0 0 10.47608,7.777241 c -0.01431,-0.00181 -0.02153,0.00181 -0.03639,0 -0.01805,-0.00271 -0.04886,0 -0.06343,-0.00938 -0.01457,-0.0092 -0.05096,-0.02417 -0.05473,-0.036345 -0.0055,-0.019571 0.04455,-0.047077 0.04538,-0.0634 9.02e-4,-0.012806 -0.0154,-0.017405 -0.01805,-0.036705 -0.0018,-0.011634 0.0028,-0.028769 0,-0.036074 -0.0037,-0.013888 -0.02383,-0.026785 -0.04565,-0.027327 -0.01889,0 -0.03787,0.0092 -0.05444,0.0092 -0.02328,5.78e-4 -0.07104,-0.011634 -0.10012,-0.0092 -0.01741,0.00181 -0.02905,0.00812 -0.04538,0.0092 -0.04602,0.00361 -0.07306,-0.00271 -0.10915,0 C 9.96791,7.57902 9.9185,7.593534 9.894,7.604537 9.88181,7.609947 9.87366,7.623746 9.85761,7.631593 9.85031,7.635203 9.8402,7.636093 9.83057,7.640973 9.81571,7.647283 9.79015,7.664241 9.77584,7.668029 9.7555,7.673439 9.73156,7.666219 9.69408,7.668029 9.66704,7.669839 9.62194,7.664419 9.6213,7.631955 9.620727,7.582443 9.71123,7.603997 9.75752,7.59525 9.77493,7.59164 9.78199,7.57108 9.80317,7.559176 9.81307,7.553766 9.82058,7.547271 9.83021,7.540869 9.84626,7.529776 9.8733,7.507952 9.87586,7.495506 9.87766,7.483872 9.86518,7.467548 9.86646,7.459161 9.86826,7.448068 9.88854,7.437066 9.90312,7.422816 9.9252,7.40036 9.93924,7.373304 9.96655,7.359146 9.98515,7.348958 10.02183,7.3467 10.03025,7.331821 c 0.0018,-0.016864 -5.97e-4,-0.021013 0,-0.036345 0.01164,-0.010463 0.0083,-0.016053 0.01834,-0.018037 0.0285,-0.00631 0.05738,0.010727 0.09083,0.0092 0.01457,-5.771e-4 0.03024,9.019e-4 0.04538,-0.0092 0.01283,-0.0092 0.02383,-0.021013 0.03639,-0.027325 0.01393,-0.00721 0.0285,-0.026244 0.04565,-0.027416 z m -3.3382,0.027416 c 0.0073,-9.02e-4 0.01889,8.757e-4 0.02769,0 0.01192,-5.863e-4 0.02328,0 0.03639,0 0.01311,0 0.03088,-0.00541 0.03639,0 -0.0091,0.034902 -0.09083,0.021825 -0.11845,0.0092 8.71e-4,-0.00631 0.01137,-0.00812 0.01834,-0.0092 z m -0.09982,0.06367 c 0.0091,0 0.01779,-0.00361 0.0274,0 C 6.83204,7.333693 6.79858,7.345327 6.75638,7.358674 6.73604,7.364984 6.70542,7.371751 6.70165,7.349474 6.69795,7.321787 6.72025,7.324763 6.73804,7.322147 c 0.02328,-0.00271 0.06408,-0.0092 0.09112,-0.0092 z m 3.447,0 c -0.01741,0.00541 -0.02621,0.040763 0,0.045363 0.01219,-0.00721 0.01219,-0.023268 0.0091,-0.045363 -0.0073,-0.00721 -0.0037,-0.00181 -0.0091,0 z m -0.0094,0.07278 c -0.0083,0.00271 -0.01805,-5.862e-4 -0.02704,0.0092 5.98e-4,0.02967 0.0055,0.046536 0,0.07278 0.01686,0.032917 0.05528,0.013077 0.06344,-0.0092 C 10.31335,7.403588 10.29232,7.379147 10.267,7.386091 Z m 0.22759,0.14553 a 0.078289,0.078289 0 0 0 -0.05473,0.018037 c 0.01979,0.032016 0.05619,0.037878 0.10012,0.045634 0.01576,-0.011634 0.01079,-0.043649 0.01834,-0.064031 -0.01915,0 -0.03143,0.00181 -0.05473,0 h -0.0091 z m -4.6202,1.1183 c 0.0186,0.023812 0.03868,0.05149 0.06343,0.064123 0.01338,0.00628 0.02879,0.0054 0.04565,0.00925 0.01366,0.00275 0.02328,0.01434 0.03639,0.018305 0.02795,0.00969 0.06866,0.00815 0.09083,0.018305 0.03401,0.014615 0.0527,0.073859 0.08204,0.090831 0.0018,0.016862 -0.0055,0.03292 0,0.045366 0.01366,0.01858 0.04134,0.024076 0.06343,0.036346 0.02704,0.01488 0.03841,0.052041 0.0637,0.063671 0.0091,0.00363 0.02273,-0.00363 0.03639,0 C 6.39087,9.006581 6.3985,9.059514 6.42874,9.050857 6.44827,9.045457 6.45285,9.015051 6.45605,8.996118 6.46916,8.981503 6.4808,8.959772 6.50142,8.959772 c 0.03291,-5.727e-4 0.04254,0.040762 0.05473,0.07278 0.0064,0.018041 0.02246,0.035443 0.02704,0.054739 a 0.4773,0.4773 0 0 1 0,0.14552 C 6.57489,9.256975 6.53955,9.269785 6.51976,9.296207 6.51016,9.309016 6.49968,9.32416 6.49245,9.332553 6.47962,9.348611 6.46569,9.354647 6.45606,9.368899 6.45056,9.377049 6.45146,9.394242 6.44666,9.405245 6.43099,9.439333 6.40624,9.464676 6.41962,9.505365 c 0.0055,0.016323 0.02704,0.034903 0.02704,0.054739 0,0.023261 -0.0506,0.029044 -0.05444,0.054475 -0.0028,0.01858 0.02153,0.056997 0.0274,0.0818 0.0037,0.01858 0.03437,0.03346 0.04538,0.045719 0.0186,0.020387 0.03786,0.046269 0.05473,0.07278 0.03318,0.05123 0.04886,0.1135 0.08149,0.16357 0.01741,0.02625 0.05244,0.04509 0.06408,0.07278 0.0055,0.01362 -0.0055,0.04184 0,0.05474 0.01889,0.04284 0.11146,0.08793 0.15424,0.10885 0.02034,0.01024 0.03639,0.01686 0.05473,0.02733 0.02824,0.01605 0.08589,0.04806 0.10013,0.07278 0.01283,0.02237 0.02099,0.07359 0.02731,0.10915 0.0082,0.04653 -0.0018,0.08613 0,0.1365 0.0018,0.02733 0.0091,0.04509 0.0091,0.07278 0,0.0096 5.87e-4,0.02679 0,0.03635 -5.77e-4,0.03292 0.0027,0.06692 0,0.10012 a 0.37893,0.37893 0 0 0 0,0.05448 c 0.0018,0.0166 0.01715,0.02209 0.01834,0.03635 9.02e-4,0.01542 -0.02008,0.03346 -0.01834,0.04572 0.0037,0.03318 0.03904,0.06025 0.04537,0.09084 0.0055,0.02444 0.01219,0.07999 0.0094,0.10914 -0.0027,0.01542 -0.0073,0.03788 -0.0094,0.05474 -0.0018,0.01307 0.0018,0.02418 0,0.03607 -0.72497,-0.46569 -1.2094,-1.2747 -1.2094,-2.2009 0,-0.11874 0.01192,-0.23107 0.02731,-0.34575 z m 1.0002,0.26397 c 0.02557,-0.011631 0.02063,0.033185 0,0.036346 -0.01953,0.00275 -0.01889,-0.027413 0,-0.036346 z"
       inkscape:connector-curvature="0"
       style="color:#282828;opacity:0.7;fill:#328cc3;stroke-width:0.29102999" />
  </g>
</svg>
