<?xml version="1.0" encoding="UTF-8" standalone="no"?>
<svg
   width="64"
   height="64"
   version="1.1"
   viewBox="0 0 64 64"
   id="svg18"
   sodipodi:docname="folder-build.svg"
   inkscape:version="1.4 (e7c3feb100, 2024-10-09)"
   xmlns:inkscape="http://www.inkscape.org/namespaces/inkscape"
   xmlns:sodipodi="http://sodipodi.sourceforge.net/DTD/sodipodi-0.dtd"
   xmlns:xlink="http://www.w3.org/1999/xlink"
   xmlns="http://www.w3.org/2000/svg"
   xmlns:svg="http://www.w3.org/2000/svg">
  <sodipodi:namedview
     id="namedview18"
     pagecolor="#505050"
     bordercolor="#eeeeee"
     borderopacity="1"
     inkscape:showpageshadow="0"
     inkscape:pageopacity="0"
     inkscape:pagecheckerboard="0"
     inkscape:deskcolor="#505050"
     inkscape:zoom="2.9296875"
     inkscape:cx="47.104"
     inkscape:cy="47.445333"
     inkscape:window-width="1920"
     inkscape:window-height="1051"
     inkscape:window-x="0"
     inkscape:window-y="0"
     inkscape:window-maximized="1"
     inkscape:current-layer="svg18" />
  <defs
     id="defs13">
    <linearGradient
       id="linearGradient16"
       x1="100"
       x2="133.19"
       y1="17.452999"
       y2="51.605999"
       gradientTransform="matrix(0.26458,0,0,0.26458,-26.458,2.5104)"
       gradientUnits="userSpaceOnUse">
      <stop
         stop-color="#fce798"
         offset="0"
         id="stop15"
         style="stop-color:#be8f0d;stop-opacity:1" />
      <stop
         stop-color="#ffc937"
         offset="1"
         id="stop16"
         style="stop-color:#a67101;stop-opacity:1" />
    </linearGradient>
    <style
       id="current-color-scheme"
       type="text/css">.ColorScheme-Text {
      color:#333333;
    }
    .ColorScheme-Highlight {
      color:#60c0f0;
    }</style>
    <linearGradient
       id="e"
       x1="1.058"
       x2="15.875"
       y1="289.59"
       y2="289.59"
       gradientTransform="matrix(3.7796,0,0,3.7796,0,-1058.6)"
       gradientUnits="userSpaceOnUse">
      <stop
         stop-color="#46a2d7"
         stop-opacity=".5"
         offset="0"
         id="stop1" />
      <stop
         stop-color="#46a2d7"
         stop-opacity="0"
         offset=".108"
         id="stop2" />
      <stop
         stop-color="#46a2d7"
         stop-opacity=".096"
         offset=".894"
         id="stop3" />
      <stop
         stop-color="#46a2d7"
         stop-opacity=".5"
         offset="1"
         id="stop4" />
    </linearGradient>
    <linearGradient
       id="d"
       x1="8.467"
       x2="8.467"
       y1="294.62"
       y2="293.56"
       gradientTransform="matrix(3.7795,0,0,3.7795,0,-1058.5)"
       gradientUnits="userSpaceOnUse">
      <stop
         stop-color="#008ea2"
         stop-opacity=".251"
         offset="0"
         id="stop5" />
      <stop
         stop-color="#008ea2"
         stop-opacity=".15"
         offset=".757"
         id="stop6" />
      <stop
         stop-color="#fff"
         stop-opacity=".15"
         offset="1"
         id="stop7" />
    </linearGradient>
    <linearGradient
       id="c"
       x1="8.467"
       x2="8.467"
       y1="293.3"
       y2="292.77"
       gradientTransform="matrix(3.7796,0,0,3.7796,0,-1058.6)"
       gradientUnits="userSpaceOnUse">
      <stop
         stop-color="#008ea2"
         stop-opacity=".25"
         offset="0"
         id="stop8" />
      <stop
         stop-color="#fff"
         stop-opacity=".15"
         offset="1"
         id="stop9" />
    </linearGradient>
    <linearGradient
       id="b"
       x1="445.28"
       x2="445.28"
       y1="179.28"
       y2="200.07"
       gradientTransform="matrix(1.4724,0,0,1.4432,-625.6,-239.78)"
       gradientUnits="userSpaceOnUse">
      <stop
         stop-color="#60c0f0"
         offset="0"
         id="stop10" />
      <stop
         stop-color="#83d4fb"
         offset="1"
         id="stop11" />
    </linearGradient>
    <linearGradient
       id="a"
       x1="6.879"
       x2="6.879"
       y1="285.36"
       y2="283.77"
       gradientTransform="matrix(3.7795,0,0,3.7795,0,-1058.5)"
       gradientUnits="userSpaceOnUse">
      <stop
         offset="0"
         id="stop12" />
      <stop
         stop-opacity="0"
         offset="1"
         id="stop13" />
    </linearGradient>
    <filter
       color-interpolation-filters="sRGB"
       height="1.0264005"
       width="1.0219998"
       y="-0.013200229"
       x="-0.010999908"
       id="filter1733">
      <feGaussianBlur
         id="feGaussianBlur869"
         stdDeviation="0.072761339" />
    </filter>
    <linearGradient
       gradientUnits="userSpaceOnUse"
       gradientTransform="matrix(0.26458,0,0,0.26458,-0.79373,-39.158)"
       y2="166"
       y1="155"
       x2="25"
       x1="25"
       id="linearGradient1387">
      <stop
         id="stop850"
         offset="0"
         stop-color="#3296d7" />
      <stop
         id="stop852"
         offset="1"
         stop-color="#0a7db4" />
    </linearGradient>
    <filter
       color-interpolation-filters="sRGB"
       height="1.2969998"
       width="1.0296998"
       y="-0.14849988"
       x="-0.014849913"
       id="filter935">
      <feGaussianBlur
         id="feGaussianBlur872"
         stdDeviation="0.098224626" />
    </filter>
    <linearGradient
       gradientUnits="userSpaceOnUse"
       gradientTransform="matrix(0.26458,0,0,0.26458,-0.79374,-39.158)"
       y2="185"
       y1="185"
       x2="65"
       x1="5"
       id="linearGradient1401">
      <stop
         id="stop855"
         offset="0"
         stop-color="#3492cb" />
      <stop
         id="stop857"
         offset=".083713"
         stop-color="#6ec8fa" />
      <stop
         id="stop859"
         offset=".91237"
         stop-color="#6ec8fa" />
      <stop
         id="stop861"
         offset="1"
         stop-color="#3492cb" />
    </linearGradient>
    <linearGradient
       gradientUnits="userSpaceOnUse"
       gradientTransform="matrix(0.18168,0,0,0.40956,9.2005,-451.88)"
       y2="1140.2"
       y1="1138.4"
       x2="-9.6169996"
       x1="-9.6169996"
       id="linearGradient1438">
      <stop
         id="stop864"
         offset="0"
         stop-opacity="0"
         stop-color="#1482be" />
      <stop
         id="stop866"
         offset="1"
         stop-color="#1482be" />
    </linearGradient>
    <linearGradient
       id="linearGradient1911"
       x1="25.084999"
       x2="25.084999"
       y1="24.031"
       y2="26.412001"
       gradientTransform="translate(-24.247,-18.739)"
       gradientUnits="userSpaceOnUse">
      <stop
         stop-color="#fcbc19"
         stop-opacity=".99608"
         offset="0"
         id="stop7-6" />
      <stop
         stop-color="#f4b61f"
         offset="1"
         id="stop8-1" />
    </linearGradient>
    <linearGradient
       id="linearGradient4625"
       x1="0.52917999"
       x2="16.403999"
       y1="5.0665002"
       y2="5.0665002"
       gradientTransform="translate(-6.3499,2.6458)"
       gradientUnits="userSpaceOnUse">
      <stop
         stop-color="#b78815"
         offset="0"
         id="stop9-2" />
      <stop
         stop-color="#e2b24b"
         stop-opacity="0"
         offset="1"
         id="stop10-9" />
    </linearGradient>
    <linearGradient
       id="linearGradient1951"
       x1="100"
       x2="133.19"
       y1="17.452999"
       y2="51.605999"
       gradientTransform="matrix(0.26458,0,0,0.26458,-26.458,2.5104)"
       gradientUnits="userSpaceOnUse">
      <stop
         stop-color="#fce798"
         offset="0"
         id="stop11-3" />
      <stop
         stop-color="#ffc937"
         offset="1"
         id="stop12-1" />
    </linearGradient>
    <linearGradient
       id="linearGradient11110"
       x1="0.52916998"
       x2="16.403999"
       y1="5.3814998"
       y2="5.3814998"
       gradientTransform="translate(-6.3499,2.6458)"
       gradientUnits="userSpaceOnUse">
      <stop
         stop-color="#fff"
         offset="0"
         id="stop13-9" />
      <stop
         stop-color="#fff"
         stop-opacity="0"
         offset="1"
         id="stop14" />
    </linearGradient>
    <linearGradient
       id="linearGradient1118"
       x1="20.108"
       x2="20.108"
       y1="6.3498998"
       y2="13.493"
       gradientTransform="matrix(3.779602,0,0,3.779602,-96.892076,-0.5001855)"
       gradientUnits="userSpaceOnUse">
      <stop
         stop-color="#be900d"
         offset="0"
         id="stop5-4" />
      <stop
         stop-color="#a57001"
         offset="1"
         id="stop6-7" />
    </linearGradient>
    <linearGradient
       inkscape:collect="always"
       xlink:href="#linearGradient16"
       id="linearGradient1"
       x1="32.085335"
       y1="25.258667"
       x2="32.085335"
       y2="50.499947"
       gradientUnits="userSpaceOnUse" />
  </defs>
  <g
     transform="matrix(3.779602,0,0,3.779602,24.00017,-9.9999126)"
     id="g18">
    <path
       d="m -5.1524,4.8947 c -0.3653,0 -0.66145,0.32575 -0.66145,0.72759 v 2.9636 c -0.0026,0.02629 -0.0072,0.052 -0.0072,0.07906 v 7.9373 c 0,0.40184 0.29614,0.72759 0.66144,0.72759 h 14.552 c 0.36531,0 0.66144,-0.32575 0.66144,-0.72759 v -9.393 c 0,-0.40184 -0.29614,-0.72759 -0.66144,-0.72759 v 5.16e-4 h -8.1993 l -0.89864,-1.1095 c 0,0 -0.36607,-0.478 -1.0583,-0.478 h -1.3229 z"
       color="#000000"
       color-rendering="auto"
       dominant-baseline="auto"
       fill="url(#linearGradient1911)"
       image-rendering="auto"
       shape-rendering="auto"
       solid-color="#000000"
       stop-color="#000000"
       style="font-variant-ligatures:normal;font-variant-position:normal;font-variant-caps:normal;font-variant-numeric:normal;font-variant-alternates:normal;font-variant-east-asian:normal;font-feature-settings:normal;font-variation-settings:normal;text-indent:0;text-decoration-line:none;text-decoration-style:solid;text-decoration-color:#000000;text-transform:none;text-orientation:mixed;white-space:normal;shape-padding:0;shape-margin:0;inline-size:0;isolation:auto;mix-blend-mode:normal;fill:url(#linearGradient1911)"
       id="path14" />
    <path
       d="M 2.0107,6.4822 C 1.89758,6.484 1.70222,6.46678 1.49084,6.57728 0.75437,6.95674 0.71858,7.17094 -0.06616,7.29143 h -4.9608 c -0.21986,0 -0.41824,0.08855 -0.56171,0.23202 -0.13937,0.13936 -0.22041,0.33333 -0.2253,0.54569 v 0.2775 c 0.0049,-0.21236 0.08593,-0.40633 0.2253,-0.54569 0.14347,-0.14347 0.34185,-0.23202 0.56171,-0.23202 h 4.9608 C 0.71856,7.44843 0.75435,7.23424 1.49084,6.85478 1.70222,6.74428 1.89757,6.7615 2.0107,6.7597 h 7.3828 c 0.18216,3.65e-4 0.3472,0.08101 0.46663,0.21239 0.1197,0.13167 0.19378,0.31377 0.19378,0.51469 V 7.20928 C 10.05391,7.00836 9.97983,6.82626 9.86013,6.69459 9.7407,6.56322 9.57566,6.48257 9.3935,6.4822 H 8.2283 Z M -5.814,8.5859 c -0.0026,0.02629 -0.0067,0.05201 -0.0067,0.07906 v 0.2775 c 0,-0.02705 0.0041,-0.05277 0.0067,-0.07906 z"
       fill="url(#linearGradient4625)"
       opacity="0.00100002"
       stroke-width="0.26458"
       id="path15"
       style="fill:url(#linearGradient4625)" />
    <path
       d="m -5.8207,16.32 v 0.28215 c 0,0.20092 0.07357,0.3825 0.19327,0.51417 0.1197,0.13167 0.28553,0.21342 0.46818,0.21342 h 14.552 c 0.18265,0 0.34796,-0.08175 0.46766,-0.21342 0.1197,-0.13167 0.19378,-0.31325 0.19378,-0.51417 V 16.32 c 0,0.20092 -0.07409,0.3825 -0.19378,0.51417 -0.1197,0.13167 -0.28501,0.21342 -0.46766,0.21342 h -14.552 c -0.18265,0 -0.34848,-0.08176 -0.46818,-0.21342 C -5.74713,16.70251 -5.8207,16.52092 -5.8207,16.32 Z"
       fill="#e4a729"
       fill-opacity="0.99608"
       stroke-width="0.26458"
       id="path16" />
    <path
       d="m 1.1921,6.7436 c 0,0 -0.35919,0.47868 -1.1575,0.79218 -0.03271,0.00587 -0.06509,0.011575 -0.10077,0.017052 h -4.9608 c -0.21986,0 -0.41824,0.088552 -0.56171,0.23202 -0.13937,0.13936 -0.22042,0.33333 -0.2253,0.54569 v 0.51675 c -0.0026,0.026291 -0.0067,0.052014 -0.0067,0.079064 v 7.3953 c 0,0.20092 0.07357,0.3825 0.19327,0.51417 0.1197,0.13167 0.28553,0.21342 0.46818,0.21342 h 14.552 c 0.18265,0 0.34796,-0.08175 0.46766,-0.21342 0.1197,-0.13167 0.19378,-0.31325 0.19378,-0.51417 v -8.851 c 0,-0.20092 -0.07408,-0.38302 -0.19378,-0.51469 C 9.74098,6.824596 9.57594,6.743946 9.39378,6.743576 h -7.4821 z"
       fill="url(#linearGradient1951)"
       id="path17"
       style="fill:url(#linearGradient1951)" />
    <path
       d="m 1.1921,6.7436 c 0,0 -0.35919,0.47868 -1.1575,0.79218 -0.03271,0.00587 -0.06509,0.011575 -0.10077,0.017052 h -4.9608 c -0.21986,0 -0.41824,0.088552 -0.56171,0.23202 -0.13937,0.13936 -0.22041,0.33333 -0.2253,0.54569 v 0.38446 c 0.0049,-0.21236 0.08593,-0.40633 0.2253,-0.54569 0.14347,-0.14347 0.34185,-0.23202 0.56171,-0.23202 h 4.9608 C -0.03049,7.931812 0.00189,7.926108 0.0346,7.92024 0.79371,7.65721 1.3229,7.12806 1.3229,7.12806 h 8.0707 c 0.18216,3.704e-4 0.34718,0.081016 0.46663,0.21239 0.1197,0.13167 0.19378,0.31377 0.19378,0.51469 V 7.47068 C 10.05401,7.26976 9.97993,7.08766 9.86023,6.95599 9.74078,6.82462 9.57576,6.74397 9.3936,6.7436 H 1.9115 Z m -7.0062,2.1037 c -0.0026,0.026291 -0.0067,0.052013 -0.0067,0.079063 v 0.38447 c 0,-0.02705 0.0041,-0.052773 0.0067,-0.079063 z"
       fill="url(#linearGradient11110)"
       opacity="0.3"
       id="path18"
       style="fill:url(#linearGradient11110)" />
  </g>
  <path
     d="m 40.402173,25.499948 -0.336981,1.15076 c -0.69013,-0.05751 -1.385361,0.01853 -2.047278,0.222534 l -0.574349,-1.051201 -1.905345,1.0406 0.574349,1.0512 c -0.530619,0.447066 -0.969395,0.990229 -1.294971,1.602274 l -1.146528,-0.334854 -0.610374,2.081242 1.150759,0.336981 c -0.05751,0.69013 0.01638,1.387531 0.220408,2.049448 l -1.051201,0.574349 1.040599,1.905345 1.051201,-0.576465 c 0.447065,0.530619 0.992355,0.971511 1.604336,1.297033 l -0.336981,1.146527 2.083303,0.610375 0.336981,-1.150759 c 0.69013,0.05751 1.385361,-0.01853 2.047278,-0.222535 l 0.576465,1.051201 1.903175,-1.040599 -0.574349,-1.051201 c 0.530619,-0.447066 0.969394,-0.990228 1.294971,-1.602274 l 1.146528,0.334854 0.610374,-2.081242 -1.150759,-0.336981 c 0.05751,-0.69013 -0.01639,-1.38753 -0.220408,-2.049448 l 1.051201,-0.574349 -1.040599,-1.905345 -1.051201,0.576465 c -0.447066,-0.530619 -0.992355,-0.97151 -1.604336,-1.297033 l 0.336981,-1.146527 z m -1.072393,2.223174 c 0.215362,-0.01403 0.432666,-0.01183 0.648527,0.0064 0.287804,0.02424 0.574902,0.07648 0.856217,0.158947 1.08294,0.317938 2.000401,1.045114 2.555978,2.02818 0.577279,1.020004 0.717714,2.231855 0.38784,3.357115 -0.317937,1.08294 -1.045113,2.000401 -2.02818,2.555977 -1.020004,0.577279 -2.231855,0.717714 -3.357115,0.387841 -1.08294,-0.317938 -2.002462,-1.045114 -2.558039,-2.02818 -0.577279,-1.020004 -0.717714,-2.231855 -0.38784,-3.357115 0.317937,-1.08294 1.045113,-2.000401 2.02818,-2.555977 0.573752,-0.32472 1.208379,-0.511066 1.854454,-0.553146 z m -14.464522,3.170584 -2.159587,0.211933 0.116563,1.193188 c -0.661918,0.204 -1.278043,0.532333 -1.816258,0.968548 l -0.928279,-0.760847 -1.377548,1.676387 0.926163,0.760847 c -0.325533,0.613087 -0.528112,1.283034 -0.6019,1.973164 l -1.188955,0.116563 0.211933,2.159587 1.193187,-0.116563 c 0.204001,0.661918 0.532334,1.278043 0.968548,1.816258 l -0.760847,0.928279 1.676387,1.377548 0.760847,-0.926163 c 0.613088,0.325533 1.283035,0.528112 1.973165,0.6019 l 0.116563,1.188955 2.159586,-0.211933 -0.116562,-1.193187 c 0.661917,-0.204001 1.278043,-0.532334 1.816258,-0.968548 l 0.928279,0.760847 1.377548,-1.676387 -0.926164,-0.760847 c 0.325533,-0.613088 0.528113,-1.283035 0.6019,-1.973165 l 1.188956,-0.116563 -0.211933,-2.159586 -1.193188,0.116562 c -0.204,-0.661917 -0.532333,-1.278043 -0.968548,-1.816258 l 0.760847,-0.928279 -1.676387,-1.377548 -0.760847,0.926164 c -0.613087,-0.325533 -1.283034,-0.528113 -1.973164,-0.6019 z m -0.02962,2.263432 c 0.831227,0.08 1.628533,0.400102 2.290993,0.92828 0.916918,0.731364 1.498863,1.801608 1.6128,2.969187 0.110681,1.124175 -0.221927,2.247047 -0.926164,3.130327 -0.731364,0.916918 -1.803779,1.498863 -2.971358,1.612799 -1.124174,0.110682 -2.244876,-0.221926 -3.128156,-0.926163 -0.916918,-0.731364 -1.498863,-1.803779 -1.612799,-2.971358 -0.110682,-1.124174 0.221926,-2.244876 0.926163,-3.128156 0.731364,-0.916919 1.801609,-1.498863 2.969188,-1.6128 0.281043,-0.02772 0.562184,-0.02879 0.839267,-0.0022 z m 9.35057,4.321344 v 1.199589 c -0.67928,0.138895 -1.324812,0.406439 -1.903176,0.788398 l -0.847742,-0.847742 -1.534455,1.534454 0.847743,0.847743 c -0.383044,0.578364 -0.652662,1.223896 -0.792641,1.903175 h -1.19536 v 2.170221 h 1.199589 c 0.138894,0.679279 0.406439,1.324811 0.788398,1.903175 l -0.847743,0.847743 1.534455,1.534454 0.847743,-0.847742 c 0.578363,0.383044 1.223896,0.652661 1.903175,0.79264 v 1.195358 h 2.170221 v -1.19959 c 0.679279,-0.138894 1.324811,-0.406439 1.903175,-0.788397 l 0.847742,0.847742 1.534455,-1.534455 -0.847743,-0.847742 c 0.383044,-0.578364 0.652662,-1.223896 0.792641,-1.903175 h 1.195358 V 42.90411 h -1.19959 c -0.138894,-0.679279 -0.406439,-1.324811 -0.788398,-1.903175 l 0.847743,-0.847743 -1.534455,-1.534454 -0.847742,0.847742 c -0.578364,-0.383044 -1.223896,-0.652661 -1.903176,-0.79264 v -1.195358 z m 1.08511,2.170221 c 1.1296,0 2.213734,0.440403 3.024311,1.227151 0.840961,0.817088 1.316131,1.940286 1.316131,3.11329 0,1.1296 -0.440403,2.213734 -1.227152,3.024312 -0.817088,0.84096 -1.940286,1.31613 -3.11329,1.31613 -1.1296,0 -2.213734,-0.440403 -3.024311,-1.227151 -0.840961,-0.817088 -1.316131,-1.940286 -1.316131,-3.113291 0,-1.1296 0.440403,-2.213733 1.227152,-3.024311 0.817088,-0.84096 1.940286,-1.31613 3.11329,-1.31613 z"
     fill="#000000"
     opacity="0.15"
     id="path1"
     style="opacity:1;fill:url(#linearGradient1);fill-opacity:1;stroke-width:1.08511" />
</svg>
