<?xml version="1.0" encoding="UTF-8" standalone="no"?>
<svg
   version="1.1"
   viewBox="0 0 64 64"
   id="svg7"
   sodipodi:docname="folder-deb.svg"
   inkscape:version="1.4 (e7c3feb100, 2024-10-09)"
   xmlns:inkscape="http://www.inkscape.org/namespaces/inkscape"
   xmlns:sodipodi="http://sodipodi.sourceforge.net/DTD/sodipodi-0.dtd"
   xmlns:xlink="http://www.w3.org/1999/xlink"
   xmlns="http://www.w3.org/2000/svg"
   xmlns:svg="http://www.w3.org/2000/svg">
  <sodipodi:namedview
     id="namedview7"
     pagecolor="#505050"
     bordercolor="#eeeeee"
     borderopacity="1"
     inkscape:showpageshadow="0"
     inkscape:pageopacity="0"
     inkscape:pagecheckerboard="0"
     inkscape:deskcolor="#505050"
     inkscape:zoom="4.1321553"
     inkscape:cx="35.332651"
     inkscape:cy="48.400891"
     inkscape:window-width="1920"
     inkscape:window-height="1051"
     inkscape:window-x="0"
     inkscape:window-y="0"
     inkscape:window-maximized="1"
     inkscape:current-layer="svg7" />
  <defs
     id="defs2">
    <linearGradient
       id="linearGradient14"
       x1="100"
       x2="133.19"
       y1="17.452999"
       y2="51.605999"
       gradientTransform="matrix(2.2947,0,0,2.2947,-262.41,-67.465)"
       gradientUnits="userSpaceOnUse">
      <stop
         stop-color="#bf7474"
         offset="0"
         id="stop13"
         style="stop-color:#fffdfd;stop-opacity:1" />
      <stop
         stop-color="#be4c63"
         offset="1"
         id="stop14"
         style="stop-color:#fed0cf;stop-opacity:1" />
    </linearGradient>
    <style
       id="current-color-scheme"
       type="text/css">.ColorScheme-Text {
        color:#232629;
      }
      .ColorScheme-Highlight {
        color:#3daee9;
      }</style>
    <linearGradient
       id="a"
       x1="445.28"
       x2="445.28"
       y1="179.28"
       y2="200.07"
       gradientTransform="matrix(1.4723,0,0,1.4432,-548.04128,-239.75)"
       gradientUnits="userSpaceOnUse">
      <stop
         stop-opacity=".15"
         offset="0"
         id="stop1" />
      <stop
         stop-opacity="0"
         offset="1"
         id="stop2" />
    </linearGradient>
    <filter
       color-interpolation-filters="sRGB"
       height="1.0264005"
       width="1.0219998"
       y="-0.013200229"
       x="-0.010999908"
       id="filter1733">
      <feGaussianBlur
         id="feGaussianBlur869"
         stdDeviation="0.072761339" />
    </filter>
    <linearGradient
       gradientUnits="userSpaceOnUse"
       gradientTransform="matrix(0.26458,0,0,0.26458,-0.79373,-39.158)"
       y2="166"
       y1="155"
       x2="25"
       x1="25"
       id="linearGradient1387">
      <stop
         id="stop850"
         offset="0"
         stop-color="#3296d7"
         style="stop-color:#e25378;stop-opacity:1" />
      <stop
         id="stop852"
         offset="1"
         stop-color="#0a7db4"
         style="stop-color:#b94462;stop-opacity:1" />
    </linearGradient>
    <filter
       color-interpolation-filters="sRGB"
       height="1.2969998"
       width="1.0296998"
       y="-0.14849988"
       x="-0.014849913"
       id="filter935">
      <feGaussianBlur
         id="feGaussianBlur872"
         stdDeviation="0.098224626" />
    </filter>
    <linearGradient
       gradientUnits="userSpaceOnUse"
       gradientTransform="matrix(0.26458,0,0,0.26458,-0.79374,-39.158)"
       y2="185"
       y1="185"
       x2="65"
       x1="5"
       id="linearGradient1401">
      <stop
         id="stop855"
         offset="0"
         stop-color="#3492cb"
         style="stop-color:#b94462;stop-opacity:1" />
      <stop
         id="stop857"
         offset=".083713"
         stop-color="#6ec8fa"
         style="stop-color:#e5547a;stop-opacity:1" />
      <stop
         id="stop859"
         offset=".91237"
         stop-color="#6ec8fa"
         style="stop-color:#e6547a;stop-opacity:1" />
      <stop
         id="stop861"
         offset="1"
         stop-color="#3492cb"
         style="stop-color:#b94462;stop-opacity:1" />
    </linearGradient>
    <linearGradient
       gradientUnits="userSpaceOnUse"
       gradientTransform="matrix(0.18168,0,0,0.40956,9.2005,-451.88)"
       y2="1140.2"
       y1="1138.4"
       x2="-9.6169996"
       x1="-9.6169996"
       id="linearGradient1438">
      <stop
         id="stop864"
         offset="0"
         stop-opacity="0"
         stop-color="#1482be"
         style="stop-color:#c44869;stop-opacity:0;" />
      <stop
         id="stop866"
         offset="1"
         stop-color="#1482be"
         style="stop-color:#b44262;stop-opacity:1;" />
    </linearGradient>
    <linearGradient
       id="linearGradient1911-3-3"
       x1="25.084999"
       x2="25.084999"
       y1="24.031"
       y2="26.412001"
       gradientTransform="matrix(3.7795903,0,0,3.7795903,-67.646015,-80.824836)"
       gradientUnits="userSpaceOnUse">
      <stop
         stop-color="#892a3c"
         offset="0"
         id="stop5" />
      <stop
         stop-color="#732332"
         offset="1"
         id="stop6" />
    </linearGradient>
    <linearGradient
       id="linearGradient1951-6-6"
       x1="100"
       x2="133.19"
       y1="17.452999"
       y2="51.605999"
       gradientTransform="matrix(2.2947,0,0,2.2947,-262.41,-67.465)"
       gradientUnits="userSpaceOnUse">
      <stop
         stop-color="#bf7474"
         offset="0"
         id="stop7" />
      <stop
         stop-color="#be4c63"
         offset="1"
         id="stop8" />
    </linearGradient>
    <linearGradient
       id="linearGradient11110-7-5"
       x1="0.52916998"
       x2="16.403999"
       y1="5.3814998"
       y2="5.3814998"
       gradientTransform="matrix(8.673,0,0,8.673,-88.013,-66.291)"
       gradientUnits="userSpaceOnUse">
      <stop
         stop-color="#fff"
         offset="0"
         id="stop9" />
      <stop
         stop-color="#fff"
         stop-opacity="0"
         offset="1"
         id="stop10" />
    </linearGradient>
    <linearGradient
       id="linearGradient29077-6"
       x1="0.52916002"
       x2="16.403999"
       y1="14.179"
       y2="14.179"
       gradientTransform="matrix(8.673,0,0,8.673,-88.013,-66.426)"
       gradientUnits="userSpaceOnUse">
      <stop
         stop-color="#4e1822"
         offset="0"
         id="stop11" />
      <stop
         stop-color="#4e1821"
         offset="1"
         id="stop12" />
    </linearGradient>
    <linearGradient
       inkscape:collect="always"
       xlink:href="#linearGradient14"
       id="linearGradient2"
       x1="25.411764"
       y1="23.957218"
       x2="25.411764"
       y2="50.000492"
       gradientUnits="userSpaceOnUse" />
  </defs>
  <path
     d="m 4.527033,8.5003965 c -1.3806639,0 -2.4999857,1.2312321 -2.4999857,2.7500405 v 11.201062 c -0.011331,0.0994 -0.026452,0.196536 -0.026452,0.298964 v 29.999653 c 0,1.518809 1.1193217,2.750041 2.4999856,2.750041 H 59.501398 c 1.380751,0 2.499986,-1.231232 2.499986,-2.750041 V 17.248202 c 0,-1.518809 -1.119279,-2.749997 -2.499986,-2.749997 v 0.0017 h -30.9902 L 25.114709,10.30649 c 0,0 -1.383627,-1.806647 -3.999925,-1.806647 h -5.000232 z"
     color="#000000"
     color-rendering="auto"
     dominant-baseline="auto"
     fill="url(#linearGradient1911-3-3)"
     image-rendering="auto"
     shape-rendering="auto"
     solid-color="#000000"
     stop-color="#000000"
     stroke-width="3.77959"
     style="font-variant-ligatures:normal;font-variant-position:normal;font-variant-caps:normal;font-variant-numeric:normal;font-variant-alternates:normal;font-variant-east-asian:normal;font-feature-settings:normal;font-variation-settings:normal;text-indent:0;text-decoration-line:none;text-decoration-style:solid;text-decoration-color:#000000;text-transform:none;text-orientation:mixed;white-space:normal;shape-padding:0;shape-margin:0;inline-size:0;isolation:auto;mix-blend-mode:normal;fill:url(#linearGradient1911-3-3)"
     id="path34" />
  <path
     d="m 31.599062,14.441932 c -0.427539,0.0075 -1.165908,-0.0582 -1.964881,0.359433 -2.783553,1.434179 -2.918822,2.243786 -5.884883,2.699185 H 4.9995144 c -0.8310043,0 -1.5807778,0.334493 -2.1230725,0.87698 -0.5267371,0.526737 -0.8330525,1.259819 -0.85153,2.062498 v 1.048811 c 0.018913,-0.802635 0.3246622,-1.535761 0.85153,-2.062498 0.5422947,-0.542251 1.2920682,-0.876937 2.1230725,-0.876937 H 23.749298 c 2.96593,-0.455485 3.101199,-1.265005 5.884883,-2.699228 0.798973,-0.417637 1.537286,-0.352626 1.964881,-0.359429 H 59.50301 c 0.688458,0.0013 1.312289,0.306141 1.763678,0.802722 0.452392,0.49767 0.732386,1.185954 0.732386,1.945358 v -1.048855 c 0,-0.759361 -0.280064,-1.447688 -0.732386,-1.945314 -0.451389,-0.496537 -1.07522,-0.801328 -1.763678,-0.802722 H 55.098936 Z M 2.0247376,22.392886 c -0.011331,0.0994 -0.026452,0.196536 -0.026452,0.298963 v 1.048812 c 0,-0.102428 0.015122,-0.199556 0.026452,-0.29896 z"
     fill="#1e5992"
     opacity="0.00100002"
     stroke-width="1"
     id="path35" />
  <g
     stroke-width="8.673"
     id="g38"
     transform="matrix(0.43578811,0,0,0.43578811,38.355085,28.889179)">
    <path
       d="m -22.597,-30.75 c 0,0 -3.1153,4.1516 -10.039,6.8706 -0.2836,0.052 -0.5646,0.10061 -0.87404,0.14831 h -43.025 c -1.9069,0 -3.6274,0.76754 -4.8717,2.0123 -1.2088,1.2086 -1.9118,2.891 -1.9541,4.7328 v 4.4818 c -0.026,0.2281 -0.0607,0.45099 -0.0607,0.68602 v 64.14 c 0,1.7426 0.63832,3.3175 1.6762,4.4594 1.0382,1.1419 2.4765,1.851 4.0605,1.851 h 126.21 c 1.5841,0 3.0179,-0.70857 4.056,-1.851 1.0381,-1.142 1.6806,-2.7169 1.6806,-4.4594 v -76.765 c 0,-1.7426 -0.64266,-3.322 -1.6806,-4.464 -1.036,-1.1393 -2.4674,-1.8388 -4.0473,-1.842 h -64.892 z"
       fill="url(#linearGradient1951-6-6)"
       id="path36"
       style="fill:url(#linearGradient1951-6-6)" />
    <path
       d="m -22.597,-30.75 c 0,0 -3.1153,4.1516 -10.039,6.8706 -0.2836,0.052 -0.5646,0.10061 -0.87404,0.14831 h -43.025 c -1.9069,0 -3.6274,0.76754 -4.8717,2.0123 -1.2088,1.2086 -1.9117,2.891 -1.9541,4.7328 v 3.3344 c 0.0434,-1.8418 0.745,-3.5241 1.9541,-4.7328 1.2443,-1.2443 2.9648,-2.0124 4.8717,-2.0124 h 43.025 c 0.30961,-0.052 0.59062,-0.0971 0.87404,-0.14831 6.5837,-2.2812 11.173,-6.8705 11.173,-6.8705 h 69.997 c 1.5798,0.003 3.0111,0.7025 4.0471,1.842 1.0381,1.142 1.6806,2.7214 1.6806,4.4639 v -3.3344 c 0,-1.7426 -0.64266,-3.322 -1.6806,-4.464 -1.036,-1.1393 -2.4673,-1.8388 -4.0471,-1.842 h -64.892 z m -60.765,18.245 c -0.026,0.2281 -0.0607,0.45099 -0.0607,0.68603 v 3.3345 c 0,-0.23504 0.0347,-0.45793 0.0607,-0.68603 z"
       fill="url(#linearGradient11110-7-5)"
       opacity="0.3"
       id="path37"
       style="fill:url(#linearGradient11110-7-5)" />
    <path
       d="m -83.423,52.164 v 2.4471 c 0,1.7426 0.63832,3.3174 1.6762,4.4594 1.0382,1.142 2.4765,1.851 4.0605,1.851 h 126.21 c 1.5841,0 3.0179,-0.70857 4.056,-1.851 1.0381,-1.142 1.6806,-2.7168 1.6806,-4.4594 V 52.164 c 0,1.7426 -0.64266,3.3175 -1.6806,4.4594 -1.0381,1.1419 -2.4719,1.851 -4.056,1.851 h -126.21 c -1.5841,0 -3.0223,-0.70944 -4.0605,-1.851 -1.0381,-1.1419 -1.6762,-2.7169 -1.6762,-4.4594 z"
       color="#000000"
       color-rendering="auto"
       dominant-baseline="auto"
       fill="url(#linearGradient29077-6)"
       image-rendering="auto"
       shape-rendering="auto"
       solid-color="#000000"
       stop-color="#000000"
       style="font-variant-ligatures:normal;font-variant-position:normal;font-variant-caps:normal;font-variant-numeric:normal;font-variant-alternates:normal;font-variant-east-asian:normal;font-feature-settings:normal;font-variation-settings:normal;text-indent:0;text-decoration-line:none;text-decoration-style:solid;text-decoration-color:#000000;text-transform:none;text-orientation:mixed;white-space:normal;shape-padding:0;shape-margin:0;inline-size:0;isolation:auto;mix-blend-mode:normal;fill:url(#linearGradient29077-6)"
       id="path38" />
  </g>
  <path
     d="M 33.781347,49.863098 C 32.364212,49.62691 30.356608,48.800248 29.17566,48.032634 26.459494,46.261215 24.681697,44.290809 23.582822,41.83149 23.228541,41.004829 23.018321,40.414356 22.401885,38.288656 22.283781,37.75723 22.083463,37.161727 22.009536,36.976153 c -0.124702,-0.313022 -0.130173,-0.41861 -0.07583,-1.462719 0.05157,-0.944756 0.236198,-2.36189 0.354292,-2.475261 0.01744,-0.0274 0.05861,-0.0339 0.09143,-0.01441 0.111009,0.0659 0.213654,-0.238774 0.314523,-0.933714 0.05525,-0.380737 0.142089,-0.780002 0.192952,-0.88728 0.05092,-0.107228 0.13703,-0.343997 0.191478,-0.526063 0.125309,-0.41907 0.296171,-0.741197 0.824381,-1.554123 0.232309,-0.357543 0.473783,-0.746972 0.536616,-0.865397 0.07388,-0.139328 0.1547,-0.207599 0.228864,-0.19344 0.0715,0.01358 0.189366,-0.07676 0.312855,-0.239732 0.53705,-0.708826 3.066558,-2.800138 3.300622,-2.728809 0.06392,0.01949 0.330805,-0.06838 0.593155,-0.195151 0.47452,-0.229328 0.683602,-0.282376 0.683602,-0.173457 0,0.03142 -0.06857,0.102743 -0.152413,0.15853 -0.147105,0.0979 -0.144159,0.09956 0.08472,0.04641 0.130401,-0.03036 0.350013,-0.07345 0.488029,-0.0959 0.170516,-0.02775 0.239849,-0.06862 0.216319,-0.127411 -0.02069,-0.05161 0.02849,-0.102743 0.121615,-0.126728 0.233197,-0.05988 0.596557,-0.05007 0.596557,0.01619 0,0.07947 -0.207761,0.159735 -0.372568,0.144051 -0.112417,-0.01062 -0.118159,-0.0012 -0.03391,0.05397 0.08385,0.05527 0.08493,0.06708 0.0054,0.0679 -0.05276,5.44e-4 -0.07854,0.01759 -0.05742,0.03803 0.02123,0.02031 0.162478,-0.02362 0.313873,-0.09778 0.151406,-0.07416 0.428706,-0.166348 0.616219,-0.204953 0.230825,-0.04747 0.340935,-0.102624 0.340935,-0.170646 0,-0.08751 0.107249,-0.09495 0.829786,-0.05763 0.456407,0.02362 1.145112,0.09223 1.530506,0.152567 0.70061,0.10971 0.700675,0.10971 0.961769,-0.03448 0.313158,-0.172962 0.816873,-0.195482 0.949234,-0.04239 0.04843,0.05598 0.181707,0.148267 0.296193,0.205083 0.186744,0.0927 0.199105,0.09282 0.120163,0.0012 -0.149944,-0.173481 -10e-4,-0.169112 0.577945,0.01701 1.866609,0.599932 3.388253,1.668321 4.517352,3.1719 0.267767,0.35654 0.283984,0.516948 0.03033,0.299914 l -0.145166,-0.124201 0.110889,0.208059 c 0.06088,0.114434 0.11089,0.243027 0.11089,0.285766 0,0.04275 0.179507,0.358676 0.398881,0.70206 0.494432,0.773908 0.632751,1.03465 0.59958,1.130164 -0.0143,0.04098 -0.233273,-0.23163 -0.486772,-0.605742 -0.253499,-0.374089 -0.628624,-0.878139 -0.833611,-1.12008 -0.306127,-0.36131 -0.386305,-0.423108 -0.448759,-0.345886 -0.04182,0.05173 -0.143974,0.103328 -0.227,0.114905 l -0.150951,0.0209 0.149336,0.280947 c 0.08212,0.154514 0.160214,0.249593 0.173539,0.211271 0.07128,-0.205225 0.403215,0.0646 0.554155,0.4504 0.04886,0.125134 0.179075,0.382839 0.289184,0.572676 0.110066,0.189826 0.186322,0.35844 0.169389,0.374702 -0.0169,0.01629 -0.117389,-0.03578 -0.223068,-0.115614 l -0.192258,-0.145139 0.131115,0.216043 c 0.07215,0.118826 0.192887,0.264177 0.268362,0.323012 0.09414,0.07345 0.139165,0.189376 0.143368,0.369659 0.0087,0.33285 0.206439,0.726057 0.31448,0.62237 0.168327,-0.161529 0.20294,-0.06058 0.160582,0.468422 -0.0312,0.389747 -0.01463,0.646638 0.05937,0.919354 0.112428,0.414027 0.08818,0.516215 -0.07616,0.322716 -0.104541,-0.123054 -0.105625,-0.122972 -0.05882,0.0048 0.100425,0.273767 0.175326,0.683319 0.154483,0.844068 -0.03889,0.299961 -0.15627,0.175253 -0.196646,-0.209003 l -0.03943,-0.375032 -0.01181,0.399111 c -0.0054,0.219526 -0.06002,0.643698 -0.119362,0.942619 -0.06002,0.301932 -0.09046,0.667789 -0.06847,0.82313 0.04117,0.292249 0.01203,0.303574 -0.242471,0.09424 -0.103566,-0.08527 -0.121441,-0.06802 -0.192594,0.185585 -0.05991,0.213386 -0.05937,0.334869 0.0022,0.51357 0.04431,0.128747 0.07009,0.303373 0.0572,0.388035 -0.02968,0.195399 -0.192735,0.256324 -0.192735,0.07204 0,-0.231725 -0.09187,-0.149248 -0.372567,0.334502 -0.758027,1.306362 -1.957413,2.317251 -3.314911,2.794116 -0.800321,0.281136 -1.337067,0.385378 -2.239664,0.434955 l -0.812865,0.04464 0.401622,0.118897 c 0.323851,0.0959 0.514029,0.110182 0.982212,0.07393 0.613359,-0.04759 1.333513,-0.1753 1.66005,-0.294446 0.130324,-0.04759 0.218345,-0.04971 0.263389,-0.007 0.106167,0.10192 -0.837175,0.502634 -1.39718,0.593425 -0.952853,0.154491 -2.228321,-0.01252 -3.354236,-0.439087 -0.76392,-0.28945 -1.897548,-1.043283 -1.723826,-1.146308 0.03293,-0.01949 0.24857,0.07901 0.479265,0.219029 0.294872,0.178914 0.419422,0.226045 0.419422,0.158648 0,-0.127293 0.04355,-0.121188 0.277874,0.03886 0.211552,0.144572 0.862265,0.413012 1.330924,0.549068 0.510876,0.148292 0.3128,-0.03142 -0.372557,-0.338091 -2.167037,-0.969521 -3.066569,-1.939231 -3.51497,-3.788827 -0.164416,-0.678265 0.01181,-2.165263 0.311588,-2.63091 0.07605,-0.117977 0.138178,-0.263127 0.138178,-0.322492 0,-0.257623 0.447632,-0.938273 0.906963,-1.379108 0.809388,-0.776743 1.650842,-1.099212 2.743336,-1.05123 0.528069,0.02327 0.753607,0.06778 1.193103,0.235728 0.498483,0.19051 1.126142,0.58934 0.933916,0.593437 -0.04528,9.56e-4 -0.243326,-0.0627 -0.440297,-0.141478 -0.299422,-0.119736 -0.491409,-0.143721 -1.171003,-0.146259 -0.954316,-0.0036 -1.420797,0.126361 -2.099958,0.584957 -0.962873,0.650169 -1.498265,1.399066 -1.687924,2.360827 -0.127237,0.64534 -0.131137,0.824147 -0.03185,1.464255 0.0572,0.368856 0.09783,0.477089 0.169346,0.450755 0.06013,-0.02208 0.09414,0.01062 0.09414,0.08951 0,0.228619 0.51834,1.155969 0.877821,1.570539 0.865244,0.997851 2.264819,1.634665 3.592904,1.634665 0.689268,0 1.24649,-0.126964 1.75937,-0.400896 0.205963,-0.110064 0.465918,-0.244491 0.577685,-0.298862 0.394354,-0.191833 0.639013,-0.410945 0.925044,-0.828457 0.159022,-0.232114 0.331889,-0.422011 0.384149,-0.422011 0.07724,0 0.07388,0.03354 -0.01788,0.178772 -0.302358,0.478873 0.407245,-0.391837 0.774699,-0.950601 l 0.411589,-0.625843 -0.04485,-0.41111 c -0.04312,-0.39505 -0.03683,-0.419165 0.160084,-0.617576 0.18968,-0.191064 0.206721,-0.247619 0.228582,-0.758391 0.01961,-0.457143 0.0054,-0.552056 -0.078,-0.552576 -0.07822,-4.48e-4 -0.111713,-0.120846 -0.145372,-0.520678 -0.04453,-0.529158 -0.493478,-2.309693 -0.598009,-2.37181 -0.03153,-0.01866 -0.119101,-0.18992 -0.194533,-0.380477 -0.254615,-0.643072 -0.701196,-1.261486 -1.397538,-1.935097 -1.001928,-0.969285 -2.264103,-1.717803 -3.456264,-2.049649 -1.014104,-0.282316 -2.736131,-0.179833 -3.962785,0.2358 -0.598626,0.202863 -1.188499,0.471457 -1.287937,0.586551 -0.04507,0.05219 -0.110652,0.07806 -0.145491,0.05739 -0.03673,-0.02173 -0.02654,-0.08007 0.02405,-0.138631 0.225961,-0.261296 -0.523865,0.216939 -1.006596,0.641985 -0.291828,0.256974 -0.541242,0.475035 -0.554253,0.484589 -0.013,0.0094 0.04387,4.49e-4 0.12624,-0.02019 0.13716,-0.03436 0.142967,-0.02527 0.06857,0.10817 -0.04767,0.0855 -0.29602,0.23926 -0.600403,0.371762 -0.511429,0.222632 -0.842212,0.467299 -1.105028,0.817391 -0.104866,0.139777 -0.111009,0.169879 -0.02795,0.139316 0.05817,-0.02149 0.10595,-0.0082 0.10595,0.02988 0,0.185657 -0.17577,0.392925 -0.436138,0.514338 -0.576851,0.26896 -1.590251,1.705639 -2.13302,3.024046 -0.241908,0.587533 -0.238062,0.567126 -0.106492,0.567126 0.138634,0 0.128992,0.15109 -0.06142,0.962741 -0.277398,1.182245 -0.277723,1.144442 0.02437,2.807697 0.368072,2.026502 0.583102,2.703539 0.99194,3.12301 0.09587,0.09838 0.189127,0.307719 0.230684,0.51801 0.04962,0.251092 0.132924,0.416802 0.288837,0.574518 0.142144,0.143791 0.189539,0.231973 0.13494,0.251081 -0.107142,0.03744 0.228246,0.517372 0.534233,0.764449 0.15393,0.124294 0.268015,0.166088 0.39159,0.143414 0.270844,-0.04971 0.546616,0.100024 0.970349,0.526748 0.440352,0.443469 0.484465,0.562698 0.19306,0.521648 -0.187957,-0.02645 -0.192258,-0.02161 -0.09977,0.113961 0.0533,0.07794 0.249458,0.265252 0.436126,0.416295 0.262177,0.21218 0.329711,0.303964 0.2968,0.403482 -0.04734,0.143106 0.08764,0.276624 0.393053,0.388672 0.189366,0.06944 0.250379,0.219325 0.107792,0.26491 -0.04312,0.01381 0.223588,0.277262 0.592711,0.585477 0.415868,0.347245 0.695605,0.537578 0.735482,0.50039 0.1053,-0.09814 0.240305,-0.06826 0.242731,0.05373 0.0022,0.133116 0.122189,0.272975 0.552292,0.646024 0.271786,0.23574 0.339635,0.265406 0.506229,0.221369 0.152554,-0.04039 0.248494,-0.01441 0.463351,0.124931 0.428641,0.27809 0.688553,0.389087 0.911112,0.389087 0.218973,0 0.250151,0.06034 0.136456,0.264307 -0.06023,0.107943 -0.04734,0.125735 0.091,0.125735 0.08862,0 0.338323,0.05846 0.554892,0.130011 0.492438,0.162592 0.697848,0.173645 0.574424,0.03094 -0.182313,-0.210823 0.01083,-0.153205 0.662434,0.197335 0.910192,0.489832 1.370606,0.545797 3.183113,0.386854 0.268352,-0.0235 0.355636,-0.0094 0.355636,0.05598 0,0.05645 -0.232851,0.141217 -0.660463,0.240499 -0.562117,0.130494 -0.862145,0.155744 -2.015165,0.169584 -0.908599,0.01062 -1.529206,-0.01287 -1.884548,-0.07204 z m -0.926593,-9.745277 c 0,-0.01381 -0.08385,-0.07405 -0.186278,-0.133871 l -0.186289,-0.108884 0.159931,0.133872 c 0.156043,0.130624 0.212636,0.159592 0.212636,0.108883 z m 9.326521,-6.81299 c -0.02167,-0.05185 -0.0377,-0.03649 -0.04095,0.03932 -0.0033,0.0685 0.01311,0.106871 0.03553,0.08526 0.02253,-0.02161 0.02492,-0.07771 0.0043,-0.124589 z M 26.808911,26.48688 c 0.08428,-0.103101 0.08179,-0.105462 -0.02567,-0.02456 -0.06522,0.04913 -0.118538,0.100262 -0.118538,0.113724 0,0.0535 0.05557,0.01901 0.144115,-0.08916 z m 0.770356,-0.601325 c 0.06738,-0.07156 0.107358,-0.13001 0.08872,-0.13001 -0.01863,0 -0.08905,0.05846 -0.156465,0.13001 -0.06738,0.07156 -0.107358,0.130009 -0.08872,0.130009 0.01863,0 0.08905,-0.05846 0.156476,-0.130009 z m 0.852666,-0.456978 c 0.223285,-0.07251 0.350165,-0.08538 0.397257,-0.04015 0.04713,0.04523 0.221812,0.01843 0.547027,-0.08397 0.262805,-0.08267 0.465745,-0.161919 0.45099,-0.176103 -0.01473,-0.01417 -0.231161,0.03968 -0.480857,0.119701 -0.342961,0.109946 -0.466384,0.126243 -0.504637,0.06684 -0.06457,-0.100382 -0.681002,0.09742 -0.94593,0.30362 l -0.181046,0.140863 0.194555,-0.112071 c 0.107033,-0.06164 0.342191,-0.160066 0.522641,-0.2187 z m 1.952928,-0.165026 c 0.196722,-0.05609 0.345929,-0.113252 0.331597,-0.126952 -0.03163,-0.03034 -0.732417,0.162214 -0.732417,0.20128 0,0.03933 0.0054,0.03838 0.40082,-0.07428 z m 1.123304,-0.35439 0.270963,-0.04747 -0.237087,-0.0059 c -0.1304,-0.0036 -0.313288,0.03909 -0.406432,0.09388 -0.10959,0.0646 -0.121582,0.08337 -0.03391,0.05326 0.07453,-0.02551 0.257399,-0.06778 0.406422,-0.09388 z m 0.538014,-0.122677 c 0.02091,-0.03236 -0.02307,-0.04357 -0.09772,-0.02492 -0.158166,0.03968 -0.178164,0.08385 -0.03792,0.08385 0.05373,0 0.114671,-0.02657 0.135579,-0.05893 z m 2.187111,0.01961 c -0.02253,-0.02161 -0.08092,-0.02385 -0.129837,-0.0048 -0.05406,0.02079 -0.03802,0.03614 0.04095,0.03933 0.07139,0.0024 0.111356,-0.01252 0.08894,-0.03412 z m -0.405024,-0.0705 c -0.06522,-0.01629 -0.171881,-0.01629 -0.237086,0 -0.06522,0.01629 -0.01181,0.02976 0.118548,0.02976 0.130401,0 0.183744,-0.01335 0.118538,-0.02976 z m -0.675596,-0.06744 c -0.138721,-0.01393 -0.382589,-0.01417 -0.541914,-4.25e-4 -0.159314,0.01369 -0.04583,0.02515 0.252232,0.02539 0.298056,2.36e-4 0.428413,-0.01062 0.289682,-0.02492 z m -0.883802,-0.05704 c -0.02253,-0.02161 -0.08092,-0.02397 -0.129837,-0.0048 -0.05406,0.02079 -0.03803,0.03614 0.04095,0.03933 0.0715,0.0024 0.111366,-0.01251 0.08894,-0.03412 z M 31.810338,40.2362 C 31.120344,39.761755 30.8647,39.516355 30.8647,39.328442 c 0,-0.09968 0.02351,-0.181251 0.05222,-0.181251 0.09761,0 1.251212,1.155508 1.225938,1.228183 -0.01463,0.04204 -0.153789,-0.01619 -0.332538,-0.139128 z m -0.35505,-1.204683 C 31.096945,38.684 30.982122,38.497081 31.126953,38.497081 c 0.08699,0 0.753823,0.732669 0.753823,0.82829 0,0.04499 -0.0087,0.08183 -0.01896,0.08183 -0.01083,0 -0.193374,-0.169041 -0.406443,-0.37567 z m 3.964909,-1.422567 c -0.189193,-0.07322 -0.07107,-0.209015 0.237086,-0.272467 0.176962,-0.03649 0.458194,-0.124885 0.62494,-0.196569 0.166757,-0.07168 0.315227,-0.118744 0.32995,-0.104628 0.01473,0.01417 -0.06077,0.158601 -0.16771,0.321075 -0.193288,0.293595 -0.196744,0.295366 -0.567026,0.290383 -0.204922,-0.0024 -0.410679,-0.01972 -0.45724,-0.03779 z m 2.032173,-1.454097 c -0.182855,-0.0705 -0.190416,-0.190558 -0.03781,-0.599307 0.131126,-0.351083 0.267117,-0.420345 0.191468,-0.09754 -0.0273,0.116206 -0.06359,0.28442 -0.08082,0.373793 l -0.03131,0.162523 0.135373,-0.14795 c 0.08006,-0.08751 0.154255,-0.293039 0.181588,-0.503082 0.02535,-0.195328 0.07323,-0.339097 0.106274,-0.319516 0.08385,0.04971 0.07486,0.5637 -0.01571,0.909256 -0.07919,0.30185 -0.150453,0.337018 -0.449203,0.221781 z M 21.42222,35.338961 c -0.02253,-0.05657 -0.04106,-0.278396 -0.04106,-0.492975 0,-0.283107 0.02329,-0.382768 0.08472,-0.36327 0.100642,0.03188 0.159629,0.959081 0.0611,0.959081 -0.03499,0 -0.0819,-0.04629 -0.104649,-0.102862 z m 16.295858,-1.520586 c -0.105191,-0.136623 -0.137691,-0.244491 -0.107791,-0.358629 0.06132,-0.234406 0.221671,-0.201067 0.33997,0.07062 0.184058,0.422743 0.02437,0.62087 -0.232135,0.28795 z M 21.408039,32.78629 c -0.0043,-0.36862 -3.2e-5,-0.380017 0.170007,-0.373793 0.14418,0.0048 0.178988,0.04169 0.195617,0.204905 0.01874,0.184051 -0.189788,0.549105 -0.313689,0.549105 -0.02567,0 -0.04897,-0.171096 -0.052,-0.380205 z m 17.558294,-7.991575 c 0.0098,-0.581768 0.111605,-0.778845 0.191186,-0.371525 0.05547,0.283817 -0.01506,0.784986 -0.122567,0.870593 -0.0585,0.04653 -0.07594,-0.08031 -0.06858,-0.499068 z M 30.06555,24.446089 c 0.0273,-0.07841 0.961671,-0.445689 1.13404,-0.445689 0.202507,0 -0.160766,0.238137 -0.579744,0.380039 -0.467164,0.158224 -0.591562,0.172963 -0.554296,0.06566 z"
     fill="#000000"
     opacity="0.15"
     id="path2"
     style="stroke-width:1.18095;opacity:1;fill-opacity:1;fill:url(#linearGradient2)" />
</svg>
