<?xml version="1.0" encoding="UTF-8" standalone="no"?>
<svg
   xmlns:dc="http://purl.org/dc/elements/1.1/"
   xmlns:cc="http://creativecommons.org/ns#"
   xmlns:rdf="http://www.w3.org/1999/02/22-rdf-syntax-ns#"
   xmlns:svg="http://www.w3.org/2000/svg"
   xmlns="http://www.w3.org/2000/svg"
   xmlns:xlink="http://www.w3.org/1999/xlink"
   xmlns:sodipodi="http://sodipodi.sourceforge.net/DTD/sodipodi-0.dtd"
   xmlns:inkscape="http://www.inkscape.org/namespaces/inkscape"
   width="64"
   height="64"
   version="1.1"
   viewBox="0 0 16.933 16.933"
   id="svg165"
   sodipodi:docname="user-trash.svg"
   inkscape:version="1.0.1 (3bc2e813f5, 2020-09-07)">
  <sodipodi:namedview
     pagecolor="#ffffff"
     bordercolor="#666666"
     borderopacity="1"
     objecttolerance="10"
     gridtolerance="10"
     guidetolerance="10"
     inkscape:pageopacity="0"
     inkscape:pageshadow="2"
     inkscape:window-width="1920"
     inkscape:window-height="932"
     id="namedview167"
     showgrid="false"
     inkscape:zoom="8"
     inkscape:cx="32.812138"
     inkscape:cy="46.38915"
     inkscape:window-x="0"
     inkscape:window-y="36"
     inkscape:window-maximized="1"
     inkscape:current-layer="svg165"
     inkscape:document-rotation="0"
     inkscape:snap-bbox="true"
     inkscape:object-paths="true"
     inkscape:snap-intersection-paths="true"
     inkscape:snap-smooth-nodes="true"
     inkscape:snap-midpoints="true" />
  <metadata
     id="metadata2">
    <rdf:RDF>
      <cc:Work
         rdf:about="">
        <dc:format>image/svg+xml</dc:format>
        <dc:type
           rdf:resource="http://purl.org/dc/dcmitype/StillImage" />
        <dc:title></dc:title>
      </cc:Work>
    </rdf:RDF>
  </metadata>
  <defs
     id="defs87">
    <linearGradient
       id="linearGradient1260-3"
       x1="-30.796"
       x2="-17.736"
       y1="87.688"
       y2="87.688"
       gradientTransform="matrix(1.0427,0,0,1.0427,33.769,-88.388)"
       gradientUnits="userSpaceOnUse">
      <stop
         stop-color="#e2e9ed"
         offset="0"
         id="stop4" />
      <stop
         stop-color="#dee2e3"
         stop-opacity=".78431"
         offset="1"
         id="stop6" />
    </linearGradient>
    <filter
       id="c-3-6"
       x="-.085574"
       y="-.069658"
       width="1.1711"
       height="1.1393"
       color-interpolation-filters="sRGB">
      <feGaussianBlur
         stdDeviation="0.93845522"
         id="feGaussianBlur9" />
    </filter>
    <filter
       id="ac-2"
       x="-.37642"
       y="-.28625"
       width="1.7528"
       height="1.5725"
       color-interpolation-filters="sRGB">
      <feGaussianBlur
         stdDeviation="0.46610163"
         id="feGaussianBlur12" />
    </filter>
    <filter
       id="ag-9"
       x="-.080085"
       y="-.1059"
       width="1.1602"
       height="1.2118"
       color-interpolation-filters="sRGB">
      <feGaussianBlur
         stdDeviation="0.20389857"
         id="feGaussianBlur15" />
    </filter>
    <filter
       id="ab-1"
       x="-.37642"
       y="-.28625"
       width="1.7528"
       height="1.5725"
       color-interpolation-filters="sRGB">
      <feGaussianBlur
         stdDeviation="0.46610163"
         id="feGaussianBlur18" />
    </filter>
    <filter
       id="af-2"
       x="-.080085"
       y="-.1059"
       width="1.1602"
       height="1.2118"
       color-interpolation-filters="sRGB">
      <feGaussianBlur
         stdDeviation="0.20389857"
         id="feGaussianBlur21" />
    </filter>
    <filter
       id="z-7"
       x="-.24316"
       y="-.78397"
       width="1.4863"
       height="2.5679"
       color-interpolation-filters="sRGB">
      <feGaussianBlur
         stdDeviation="0.89514091"
         id="feGaussianBlur24" />
    </filter>
    <filter
       id="v-0"
       x="-.24316"
       y="-.78397"
       width="1.4863"
       height="2.5679"
       color-interpolation-filters="sRGB">
      <feGaussianBlur
         stdDeviation="0.89514091"
         id="feGaussianBlur27" />
    </filter>
    <filter
       id="y-9"
       x="-.24316"
       y="-.78397"
       width="1.4863"
       height="2.5679"
       color-interpolation-filters="sRGB">
      <feGaussianBlur
         stdDeviation="0.89514091"
         id="feGaussianBlur30" />
    </filter>
    <filter
       id="u-3"
       x="-.24316"
       y="-.78397"
       width="1.4863"
       height="2.5679"
       color-interpolation-filters="sRGB">
      <feGaussianBlur
         stdDeviation="0.89514091"
         id="feGaussianBlur33" />
    </filter>
    <filter
       id="t-6"
       x="-.16005"
       y="-.24367"
       width="1.3201"
       height="1.4873"
       color-interpolation-filters="sRGB">
      <feGaussianBlur
         stdDeviation="0.5727377"
         id="feGaussianBlur36" />
    </filter>
    <filter
       id="x-0"
       x="-.24316"
       y="-.78397"
       width="1.4863"
       height="2.5679"
       color-interpolation-filters="sRGB">
      <feGaussianBlur
         stdDeviation="0.89514091"
         id="feGaussianBlur39" />
    </filter>
    <filter
       id="w-6"
       x="-.24316"
       y="-.78397"
       width="1.4863"
       height="2.5679"
       color-interpolation-filters="sRGB">
      <feGaussianBlur
         stdDeviation="0.89514091"
         id="feGaussianBlur42" />
    </filter>
    <filter
       id="ah-6"
       x="-.080085"
       y="-.1059"
       width="1.1602"
       height="1.2118"
       color-interpolation-filters="sRGB">
      <feGaussianBlur
         stdDeviation="0.20389857"
         id="feGaussianBlur45" />
    </filter>
    <filter
       id="aj-7"
       x="-.080085"
       y="-.1059"
       width="1.1602"
       height="1.2118"
       color-interpolation-filters="sRGB">
      <feGaussianBlur
         stdDeviation="0.20389857"
         id="feGaussianBlur48" />
    </filter>
    <filter
       id="ae-5"
       x="-.37642"
       y="-.28625"
       width="1.7528"
       height="1.5725"
       color-interpolation-filters="sRGB">
      <feGaussianBlur
         stdDeviation="0.46610163"
         id="feGaussianBlur51" />
    </filter>
    <filter
       id="ad-3"
       x="-.37642"
       y="-.28625"
       width="1.7528"
       height="1.5725"
       color-interpolation-filters="sRGB">
      <feGaussianBlur
         stdDeviation="0.46610163"
         id="feGaussianBlur54" />
    </filter>
    <filter
       id="ai-5"
       x="-.080085"
       y="-.1059"
       width="1.1602"
       height="1.2118"
       color-interpolation-filters="sRGB">
      <feGaussianBlur
         stdDeviation="0.20389857"
         id="feGaussianBlur57" />
    </filter>
    <linearGradient
       id="l"
       x1="-.68508"
       x2="-3.3545"
       y1="217.79"
       y2="211.6"
       gradientUnits="userSpaceOnUse"
       xlink:href="#a" />
    <linearGradient
       id="a">
      <stop
         stop-color="#fff"
         offset="0"
         id="stop61" />
      <stop
         stop-color="#fff"
         stop-opacity="0"
         offset="1"
         id="stop63" />
    </linearGradient>
    <radialGradient
       id="radialGradient1591"
       cx="1.4014"
       cy="209.31"
       r="1.1949"
       gradientTransform="matrix(1.5723,1.7816,-0.76333,0.67366,158.91,65.624)"
       gradientUnits="userSpaceOnUse"
       xlink:href="#a" />
    <filter
       id="aa-6"
       x="-.054222"
       y="-.07024"
       width="1.1084"
       height="1.1405"
       color-interpolation-filters="sRGB">
      <feGaussianBlur
         stdDeviation="0.053991352"
         id="feGaussianBlur67" />
    </filter>
    <linearGradient
       id="linearGradient1168-2"
       x1="1.6576"
       x2="9.1599"
       y1="2.7155"
       y2="15.845"
       gradientTransform="translate(-1.0053e-4,-19.072)"
       gradientUnits="userSpaceOnUse">
      <stop
         stop-color="#d3d7d9"
         offset="0"
         id="stop70" />
      <stop
         stop-color="#cfd1d3"
         offset="1"
         id="stop72" />
    </linearGradient>
    <linearGradient
       id="linearGradient2093"
       x1="11.527"
       x2="51.715"
       y1="57.103"
       y2="57.103"
       gradientTransform="matrix(0.26458,0,0,0.26458,4.977e-5,-19.072)"
       gradientUnits="userSpaceOnUse">
      <stop
         stop-color="#aeaeae"
         offset="0"
         id="stop75" />
      <stop
         stop-color="#a2a2a2"
         offset=".57164"
         id="stop77" />
      <stop
         stop-color="#828282"
         offset="1"
         id="stop79" />
    </linearGradient>
    <linearGradient
       id="linearGradient1252-9"
       x1="-23.601"
       x2="-17.977"
       y1="99.967"
       y2="88.087"
       gradientTransform="matrix(1.0427,0,0,1.0427,33.769,-88.388)"
       gradientUnits="userSpaceOnUse">
      <stop
         stop-color="#afb4b8"
         offset="0"
         id="stop82" />
      <stop
         stop-color="#aeb4ba"
         offset="1"
         id="stop84" />
    </linearGradient>
    <linearGradient
       inkscape:collect="always"
       xlink:href="#linearGradient3045"
       id="linearGradient2193"
       x1="8.4665003"
       y1="4.3382287"
       x2="8.4665003"
       y2="15.462834"
       gradientUnits="userSpaceOnUse"
       gradientTransform="matrix(1.0383098,0,0,1.0383098,-0.276304,0.0917633)" />
    <linearGradient
       inkscape:collect="always"
       id="linearGradient3045">
      <stop
         style="stop-color:#f0f5fa;stop-opacity:1"
         offset="0"
         id="stop3041" />
      <stop
         style="stop-color:#e6ebf0;stop-opacity:1"
         offset="1"
         id="stop3043" />
    </linearGradient>
    <linearGradient
       id="linearGradient1593"
       x1="-8.6402998"
       x2="-5.0416999"
       y1="207.17999"
       y2="207.17999"
       gradientTransform="matrix(0.37156764,0.00251724,-0.00251724,0.37156764,11.175156,-72.411836)"
       gradientUnits="userSpaceOnUse">
      <stop
         stop-color="#99662e"
         offset="0"
         id="stop129" />
      <stop
         stop-color="#b67937"
         offset="1"
         id="stop131" />
    </linearGradient>
    <clipPath
       id="ax-2">
      <path
         d="m -16.962,206.64 c -1.1694,-0.69689 -2.6576,-1.9844 -2.6576,-3.9333 0,-1.1694 0.75595,-1.7127 0.75595,-1.7127 -0.05906,0.61421 -0.7087,1.7954 0.12993,2.4805 0.2008,0.3071 0.43703,0.33073 1.1103,0.3071 0.67327,-0.0236 0.53153,0.17718 0.53153,0.17718 0,0 0.16536,-0.74414 0.33073,-0.93313 0.16536,-0.18899 0.86226,-1.7009 0.86226,-1.7009 0,0 3.3191,-1.6891 3.5553,-1.7954 0.23624,-0.1063 1.193,-0.24805 1.193,-0.24805 0,0 3.39,1.193 3.5553,1.3584 0.16536,0.16536 0.37798,1.2638 0.37798,1.2638 l -0.42522,1.6418 -3.0829,1.1576 1.571,3.3782 -3.3545,0.22443 c 0,0 -3.6616,-0.29529 -4.453,-1.6655 z"
         fill="#b0afad"
         fill-rule="evenodd"
         id="path64" />
    </clipPath>
    <clipPath
       id="az-6">
      <path
         d="m -16.962,206.64 c -1.1694,-0.69689 -2.6576,-1.9844 -2.6576,-3.9333 0,-1.1694 0.75595,-1.7127 0.75595,-1.7127 -0.05906,0.61421 -0.7087,1.7954 0.12993,2.4805 0.2008,0.3071 0.43703,0.33073 1.1103,0.3071 0.67327,-0.0236 0.53153,0.17718 0.53153,0.17718 0,0 0.16536,-0.74414 0.33073,-0.93313 0.16536,-0.18899 0.86226,-1.7009 0.86226,-1.7009 0,0 3.3191,-1.6891 3.5553,-1.7954 0.23624,-0.1063 1.193,-0.24805 1.193,-0.24805 0,0 3.39,1.193 3.5553,1.3584 0.16536,0.16536 0.37798,1.2638 0.37798,1.2638 l -0.42522,1.6418 -3.0829,1.1576 1.571,3.3782 -3.3545,0.22443 c 0,0 -3.6616,-0.29529 -4.453,-1.6655 z"
         fill="#b0afad"
         fill-rule="evenodd"
         id="path67" />
    </clipPath>
    <clipPath
       id="ay-1">
      <path
         d="m -16.962,206.64 c -1.1694,-0.69689 -2.6576,-1.9844 -2.6576,-3.9333 0,-1.1694 0.75595,-1.7127 0.75595,-1.7127 -0.05906,0.61421 -0.7087,1.7954 0.12993,2.4805 0.2008,0.3071 0.43703,0.33073 1.1103,0.3071 0.67327,-0.0236 0.53153,0.17718 0.53153,0.17718 0,0 0.16536,-0.74414 0.33073,-0.93313 0.16536,-0.18899 0.86226,-1.7009 0.86226,-1.7009 0,0 3.3191,-1.6891 3.5553,-1.7954 0.23624,-0.1063 1.193,-0.24805 1.193,-0.24805 0,0 3.39,1.193 3.5553,1.3584 0.16536,0.16536 0.37798,1.2638 0.37798,1.2638 l -0.42522,1.6418 -3.0829,1.1576 1.571,3.3782 -3.3545,0.22443 c 0,0 -3.6616,-0.29529 -4.453,-1.6655 z"
         fill="#b0afad"
         fill-rule="evenodd"
         id="path70" />
    </clipPath>
    <linearGradient
       id="linearGradient1595"
       x1="-7.6834998"
       x2="-4.1513"
       y1="202.91"
       y2="205.25999"
       gradientTransform="matrix(0.37156764,0.00251724,-0.00251724,0.37156764,11.175156,-72.411836)"
       gradientUnits="userSpaceOnUse">
      <stop
         stop-color="#77d743"
         offset="0"
         id="stop134" />
      <stop
         stop-color="#254a12"
         offset="1"
         id="stop136" />
    </linearGradient>
    <linearGradient
       id="linearGradient1597"
       x1="-9.8639002"
       x2="-9.9160004"
       y1="203.74001"
       y2="204.85001"
       gradientTransform="matrix(0.37156764,0.00251724,-0.00251724,0.37156764,11.175156,-72.411836)"
       gradientUnits="userSpaceOnUse">
      <stop
         stop-color="#3cd0f2"
         offset="0"
         id="stop139" />
      <stop
         stop-color="#0eacd0"
         offset="1"
         id="stop141" />
    </linearGradient>
    <linearGradient
       id="linearGradient1599"
       x1="-7.6187"
       x2="-5.0416999"
       y1="205.46001"
       y2="205.46001"
       gradientTransform="matrix(0.37156764,0.00251724,-0.00251724,0.37156764,11.175156,-72.411836)"
       gradientUnits="userSpaceOnUse">
      <stop
         stop-color="#872c1f"
         offset="0"
         id="stop144" />
      <stop
         stop-color="#bf3f2d"
         offset="1"
         id="stop146" />
    </linearGradient>
    <linearGradient
       id="linearGradient1601"
       x1="-3.579"
       x2="-2.2384"
       y1="206.88"
       y2="205.53"
       gradientTransform="matrix(0.37156764,0.00251724,-0.00251724,0.37156764,11.175156,-72.411836)"
       gradientUnits="userSpaceOnUse">
      <stop
         stop-color="#3c4533"
         offset="0"
         id="stop149" />
      <stop
         stop-color="#3c4533"
         offset=".32423"
         id="stop151" />
      <stop
         stop-color="#414a37"
         offset=".5756"
         id="stop153" />
      <stop
         stop-color="#3c4533"
         offset=".80512"
         id="stop155" />
      <stop
         stop-color="#3c4533"
         offset="1"
         id="stop157" />
    </linearGradient>
    <clipPath
       id="bh-8">
      <path
         d="m -14.611,203.49 c 4.2995,1.6064 4.3704,4.3113 5.3035,4.3113 0.93313,0 0.83863,0.4961 1.3229,-0.16536 0.48428,-0.66146 1.6064,-1.8308 1.7245,-2.8939 0.11812,-1.0631 1.0276,-0.57878 1.0158,-0.14174 -0.011811,0.43703 -0.30711,3.3545 -0.2008,3.579 0.10631,0.2245 0.25986,0.34254 0.35435,-0.43704 0.094494,-0.77957 0.11812,-1.9844 0.31892,-2.1379 0.2008,-0.15356 1.4292,-0.8977 1.6655,-1.7481 0,0 0.03543,-0.42523 -0.68508,-0.67328 -0.72052,-0.24804 1.7127,-2.2915 1.7127,-2.2915 0,0 3.4845,1.6064 4.3704,2.5277 0,0 -0.33707,1.2262 0.08054,1.2262 0.41761,0 0.60136,1.0858 -0.31738,0.86862 -0.91874,-0.21718 -1.6203,-0.61806 -2.1883,0.0167 -0.568,0.63476 -0.81851,1.2361 -1.1192,1.353 -0.30069,0.1169 -0.70158,0.31738 -0.68488,-0.53454 0.0167,-0.85192 -0.11693,0.70158 -0.3675,0.66817 -0.25056,-0.0334 -0.15034,0.40091 -1.6871,0.45102 0,0 0.90204,0.3508 0.96885,0.88534 0.06682,0.53454 0.11693,0.55124 0.11693,0.55124 0,0 1.921,0.16705 2.0045,-0.3842 0.08352,-0.55124 0.55124,-1.3029 0.7517,-1.5535 0.20045,-0.25057 1.1025,-1.2862 1.9544,-1.1693 0,0 -1.5535,0.98555 -2.1716,2.3553 -0.61806,1.3698 4.3932,1.0023 4.3932,1.0023 0,0 2.6727,-0.70158 2.9734,-1.6537 0.3007,-0.95212 0.3675,-4.6271 -0.21716,-5.2285 -0.89971,-0.75589 -2.0809,-1.4646 -3.5219,-0.54328 -1.441,0.92131 -0.25986,1.3702 -2.2206,-0.35435 -1.9608,-1.7245 -3.7561,-2.5041 -3.7561,-2.5041 0,0 -2.2915,3.0947 -2.3387,2.764 -0.047247,-0.33073 -0.56696,-2.0552 -0.82682,-0.77957 0,0 -0.75595,-0.28348 -0.68508,0.37797 0.070871,0.66146 -1.0158,-0.7087 -1.0158,-0.7087 0,0 0.094494,1.8899 -0.37798,2.1261 0,0 1.9844,-0.51971 1.252,0.54335 -0.73233,1.063 -1.5592,1.1339 -2.8348,1.2048 -1.2757,0.0709 -2.1025,-0.66145 -2.7403,-0.85044 -0.6378,-0.18899 -1.1576,-0.75595 -2.3269,-0.0591 z"
         fill="#dedede"
         fill-rule="evenodd"
         id="path73" />
    </clipPath>
    <filter
       id="aq-7"
       x="-0.17321"
       y="-0.12147"
       width="1.3464"
       height="1.2429"
       color-interpolation-filters="sRGB">
      <feGaussianBlur
         stdDeviation="0.18354709"
         id="feGaussianBlur76" />
    </filter>
    <clipPath
       id="bg-9">
      <path
         d="m -14.611,203.49 c 4.2995,1.6064 4.3704,4.3113 5.3035,4.3113 0.93313,0 0.83863,0.4961 1.3229,-0.16536 0.48428,-0.66146 1.6064,-1.8308 1.7245,-2.8939 0.11812,-1.0631 1.0276,-0.57878 1.0158,-0.14174 -0.011811,0.43703 -0.30711,3.3545 -0.2008,3.579 0.10631,0.2245 0.25986,0.34254 0.35435,-0.43704 0.094494,-0.77957 0.11812,-1.9844 0.31892,-2.1379 0.2008,-0.15356 1.4292,-0.8977 1.6655,-1.7481 0,0 0.03543,-0.42523 -0.68508,-0.67328 -0.72052,-0.24804 1.7127,-2.2915 1.7127,-2.2915 0,0 3.4845,1.6064 4.3704,2.5277 0,0 -0.33707,1.2262 0.08054,1.2262 0.41761,0 0.60136,1.0858 -0.31738,0.86862 -0.91874,-0.21718 -1.6203,-0.61806 -2.1883,0.0167 -0.568,0.63476 -0.81851,1.2361 -1.1192,1.353 -0.30069,0.1169 -0.70158,0.31738 -0.68488,-0.53454 0.0167,-0.85192 -0.11693,0.70158 -0.3675,0.66817 -0.25056,-0.0334 -0.15034,0.40091 -1.6871,0.45102 0,0 0.90204,0.3508 0.96885,0.88534 0.06682,0.53454 0.11693,0.55124 0.11693,0.55124 0,0 1.921,0.16705 2.0045,-0.3842 0.08352,-0.55124 0.55124,-1.3029 0.7517,-1.5535 0.20045,-0.25057 1.1025,-1.2862 1.9544,-1.1693 0,0 -1.5535,0.98555 -2.1716,2.3553 -0.61806,1.3698 4.3932,1.0023 4.3932,1.0023 0,0 2.6727,-0.70158 2.9734,-1.6537 0.3007,-0.95212 0.3675,-4.6271 -0.21716,-5.2285 -0.89971,-0.75589 -2.0809,-1.4646 -3.5219,-0.54328 -1.441,0.92131 -0.25986,1.3702 -2.2206,-0.35435 -1.9608,-1.7245 -3.7561,-2.5041 -3.7561,-2.5041 0,0 -2.2915,3.0947 -2.3387,2.764 -0.047247,-0.33073 -0.56696,-2.0552 -0.82682,-0.77957 0,0 -0.75595,-0.28348 -0.68508,0.37797 0.070871,0.66146 -1.0158,-0.7087 -1.0158,-0.7087 0,0 0.094494,1.8899 -0.37798,2.1261 0,0 1.9844,-0.51971 1.252,0.54335 -0.73233,1.063 -1.5592,1.1339 -2.8348,1.2048 -1.2757,0.0709 -2.1025,-0.66145 -2.7403,-0.85044 -0.6378,-0.18899 -1.1576,-0.75595 -2.3269,-0.0591 z"
         fill="#dedede"
         fill-rule="evenodd"
         id="path79" />
    </clipPath>
    <filter
       id="ap-2"
       x="-0.053854"
       y="-0.032839999"
       width="1.1077"
       height="1.0657001"
       color-interpolation-filters="sRGB">
      <feGaussianBlur
         stdDeviation="0.097488778"
         id="feGaussianBlur82" />
    </filter>
    <clipPath
       id="bf-0">
      <path
         d="m -14.611,203.49 c 4.2995,1.6064 4.3704,4.3113 5.3035,4.3113 0.93313,0 0.83863,0.4961 1.3229,-0.16536 0.48428,-0.66146 1.6064,-1.8308 1.7245,-2.8939 0.11812,-1.0631 1.0276,-0.57878 1.0158,-0.14174 -0.011811,0.43703 -0.30711,3.3545 -0.2008,3.579 0.10631,0.2245 0.25986,0.34254 0.35435,-0.43704 0.094494,-0.77957 0.11812,-1.9844 0.31892,-2.1379 0.2008,-0.15356 1.4292,-0.8977 1.6655,-1.7481 0,0 0.03543,-0.42523 -0.68508,-0.67328 -0.72052,-0.24804 1.7127,-2.2915 1.7127,-2.2915 0,0 3.4845,1.6064 4.3704,2.5277 0,0 -0.33707,1.2262 0.08054,1.2262 0.41761,0 0.60136,1.0858 -0.31738,0.86862 -0.91874,-0.21718 -1.6203,-0.61806 -2.1883,0.0167 -0.568,0.63476 -0.81851,1.2361 -1.1192,1.353 -0.30069,0.1169 -0.70158,0.31738 -0.68488,-0.53454 0.0167,-0.85192 -0.11693,0.70158 -0.3675,0.66817 -0.25056,-0.0334 -0.15034,0.40091 -1.6871,0.45102 0,0 0.90204,0.3508 0.96885,0.88534 0.06682,0.53454 0.11693,0.55124 0.11693,0.55124 0,0 1.921,0.16705 2.0045,-0.3842 0.08352,-0.55124 0.55124,-1.3029 0.7517,-1.5535 0.20045,-0.25057 1.1025,-1.2862 1.9544,-1.1693 0,0 -1.5535,0.98555 -2.1716,2.3553 -0.61806,1.3698 4.3932,1.0023 4.3932,1.0023 0,0 2.6727,-0.70158 2.9734,-1.6537 0.3007,-0.95212 0.3675,-4.6271 -0.21716,-5.2285 -0.89971,-0.75589 -2.0809,-1.4646 -3.5219,-0.54328 -1.441,0.92131 -0.25986,1.3702 -2.2206,-0.35435 -1.9608,-1.7245 -3.7561,-2.5041 -3.7561,-2.5041 0,0 -2.2915,3.0947 -2.3387,2.764 -0.047247,-0.33073 -0.56696,-2.0552 -0.82682,-0.77957 0,0 -0.75595,-0.28348 -0.68508,0.37797 0.070871,0.66146 -1.0158,-0.7087 -1.0158,-0.7087 0,0 0.094494,1.8899 -0.37798,2.1261 0,0 1.9844,-0.51971 1.252,0.54335 -0.73233,1.063 -1.5592,1.1339 -2.8348,1.2048 -1.2757,0.0709 -2.1025,-0.66145 -2.7403,-0.85044 -0.6378,-0.18899 -1.1576,-0.75595 -2.3269,-0.0591 z"
         fill="#dedede"
         fill-rule="evenodd"
         id="path85" />
    </clipPath>
    <filter
       id="ao-2"
       x="-0.21517999"
       y="-0.1753"
       width="1.4304"
       height="1.3506"
       color-interpolation-filters="sRGB">
      <feGaussianBlur
         stdDeviation="0.13798654"
         id="feGaussianBlur88" />
    </filter>
    <clipPath
       id="be-3">
      <path
         d="m -14.611,203.49 c 4.2995,1.6064 4.3704,4.3113 5.3035,4.3113 0.93313,0 0.83863,0.4961 1.3229,-0.16536 0.48428,-0.66146 1.6064,-1.8308 1.7245,-2.8939 0.11812,-1.0631 1.0276,-0.57878 1.0158,-0.14174 -0.011811,0.43703 -0.30711,3.3545 -0.2008,3.579 0.10631,0.2245 0.25986,0.34254 0.35435,-0.43704 0.094494,-0.77957 0.11812,-1.9844 0.31892,-2.1379 0.2008,-0.15356 1.4292,-0.8977 1.6655,-1.7481 0,0 0.03543,-0.42523 -0.68508,-0.67328 -0.72052,-0.24804 1.7127,-2.2915 1.7127,-2.2915 0,0 3.4845,1.6064 4.3704,2.5277 0,0 -0.33707,1.2262 0.08054,1.2262 0.41761,0 0.60136,1.0858 -0.31738,0.86862 -0.91874,-0.21718 -1.6203,-0.61806 -2.1883,0.0167 -0.568,0.63476 -0.81851,1.2361 -1.1192,1.353 -0.30069,0.1169 -0.70158,0.31738 -0.68488,-0.53454 0.0167,-0.85192 -0.11693,0.70158 -0.3675,0.66817 -0.25056,-0.0334 -0.15034,0.40091 -1.6871,0.45102 0,0 0.90204,0.3508 0.96885,0.88534 0.06682,0.53454 0.11693,0.55124 0.11693,0.55124 0,0 1.921,0.16705 2.0045,-0.3842 0.08352,-0.55124 0.55124,-1.3029 0.7517,-1.5535 0.20045,-0.25057 1.1025,-1.2862 1.9544,-1.1693 0,0 -1.5535,0.98555 -2.1716,2.3553 -0.61806,1.3698 4.3932,1.0023 4.3932,1.0023 0,0 2.6727,-0.70158 2.9734,-1.6537 0.3007,-0.95212 0.3675,-4.6271 -0.21716,-5.2285 -0.89971,-0.75589 -2.0809,-1.4646 -3.5219,-0.54328 -1.441,0.92131 -0.25986,1.3702 -2.2206,-0.35435 -1.9608,-1.7245 -3.7561,-2.5041 -3.7561,-2.5041 0,0 -2.2915,3.0947 -2.3387,2.764 -0.047247,-0.33073 -0.56696,-2.0552 -0.82682,-0.77957 0,0 -0.75595,-0.28348 -0.68508,0.37797 0.070871,0.66146 -1.0158,-0.7087 -1.0158,-0.7087 0,0 0.094494,1.8899 -0.37798,2.1261 0,0 1.9844,-0.51971 1.252,0.54335 -0.73233,1.063 -1.5592,1.1339 -2.8348,1.2048 -1.2757,0.0709 -2.1025,-0.66145 -2.7403,-0.85044 -0.6378,-0.18899 -1.1576,-0.75595 -2.3269,-0.0591 z"
         fill="#dedede"
         fill-rule="evenodd"
         id="path91" />
    </clipPath>
    <filter
       id="an-7"
       x="-0.042908002"
       y="-0.082269996"
       width="1.0858001"
       height="1.1645"
       color-interpolation-filters="sRGB">
      <feGaussianBlur
         stdDeviation="0.17003381"
         id="feGaussianBlur94" />
    </filter>
    <clipPath
       id="bd-5">
      <path
         d="m -14.611,203.49 c 4.2995,1.6064 4.3704,4.3113 5.3035,4.3113 0.93313,0 0.83863,0.4961 1.3229,-0.16536 0.48428,-0.66146 1.6064,-1.8308 1.7245,-2.8939 0.11812,-1.0631 1.0276,-0.57878 1.0158,-0.14174 -0.011811,0.43703 -0.30711,3.3545 -0.2008,3.579 0.10631,0.2245 0.25986,0.34254 0.35435,-0.43704 0.094494,-0.77957 0.11812,-1.9844 0.31892,-2.1379 0.2008,-0.15356 1.4292,-0.8977 1.6655,-1.7481 0,0 0.03543,-0.42523 -0.68508,-0.67328 -0.72052,-0.24804 1.7127,-2.2915 1.7127,-2.2915 0,0 3.4845,1.6064 4.3704,2.5277 0,0 -0.33707,1.2262 0.08054,1.2262 0.41761,0 0.60136,1.0858 -0.31738,0.86862 -0.91874,-0.21718 -1.6203,-0.61806 -2.1883,0.0167 -0.568,0.63476 -0.81851,1.2361 -1.1192,1.353 -0.30069,0.1169 -0.70158,0.31738 -0.68488,-0.53454 0.0167,-0.85192 -0.11693,0.70158 -0.3675,0.66817 -0.25056,-0.0334 -0.15034,0.40091 -1.6871,0.45102 0,0 0.90204,0.3508 0.96885,0.88534 0.06682,0.53454 0.11693,0.55124 0.11693,0.55124 0,0 1.921,0.16705 2.0045,-0.3842 0.08352,-0.55124 0.55124,-1.3029 0.7517,-1.5535 0.20045,-0.25057 1.1025,-1.2862 1.9544,-1.1693 0,0 -1.5535,0.98555 -2.1716,2.3553 -0.61806,1.3698 4.3932,1.0023 4.3932,1.0023 0,0 2.6727,-0.70158 2.9734,-1.6537 0.3007,-0.95212 0.3675,-4.6271 -0.21716,-5.2285 -0.89971,-0.75589 -2.0809,-1.4646 -3.5219,-0.54328 -1.441,0.92131 -0.25986,1.3702 -2.2206,-0.35435 -1.9608,-1.7245 -3.7561,-2.5041 -3.7561,-2.5041 0,0 -2.2915,3.0947 -2.3387,2.764 -0.047247,-0.33073 -0.56696,-2.0552 -0.82682,-0.77957 0,0 -0.75595,-0.28348 -0.68508,0.37797 0.070871,0.66146 -1.0158,-0.7087 -1.0158,-0.7087 0,0 0.094494,1.8899 -0.37798,2.1261 0,0 1.9844,-0.51971 1.252,0.54335 -0.73233,1.063 -1.5592,1.1339 -2.8348,1.2048 -1.2757,0.0709 -2.1025,-0.66145 -2.7403,-0.85044 -0.6378,-0.18899 -1.1576,-0.75595 -2.3269,-0.0591 z"
         fill="#dedede"
         fill-rule="evenodd"
         id="path97" />
    </clipPath>
    <filter
       id="am-9"
       x="-0.076365001"
       y="-0.076177001"
       width="1.1526999"
       height="1.1524"
       color-interpolation-filters="sRGB">
      <feGaussianBlur
         stdDeviation="0.22924756"
         id="feGaussianBlur100" />
    </filter>
    <clipPath
       id="bc-2">
      <path
         d="m -55.223,402.47 c 16.25,6.0714 16.518,16.295 20.045,16.295 3.5268,0 3.1696,1.875 5,-0.62498 1.8304,-2.5 6.0714,-6.9196 6.5179,-10.938 0.44643,-4.0179 3.8839,-2.1875 3.8393,-0.53571 -0.04464,1.6518 -1.1607,12.679 -0.75893,13.527 0.40177,0.848 0.98214,1.2946 1.3393,-1.6518 0.35714,-2.9464 0.44643,-7.5 1.2054,-8.0803 0.75893,-0.58039 5.4018,-3.3929 6.2946,-6.6072 0,0 0.13391,-1.6072 -2.5893,-2.5447 -2.7232,-0.93747 6.4732,-8.6607 6.4732,-8.6607 0,0 13.17,6.0714 16.518,9.5536 0,0 -1.274,4.6345 0.3044,4.6345 1.5784,0 2.2728,4.1037 -1.1996,3.283 -3.4724,-0.82076 -6.124,-2.336 -8.2706,0.0631 -2.1466,2.3991 -3.0936,4.672 -4.23,5.1139 -1.1364,0.4419 -2.6517,1.1996 -2.5885,-2.0203 0.063118,-3.2198 -0.44194,2.6516 -1.389,2.5254 -0.94702,-0.12624 -0.56821,1.5152 -6.3766,1.7046 0,0 3.4093,1.3259 3.6618,3.3462 0.25255,2.0203 0.44194,2.0834 0.44194,2.0834 0,0 7.2605,0.63137 7.5761,-1.4521 0.31567,-2.0834 2.0834,-4.9245 2.8411,-5.8715 0.75761,-0.94703 4.1669,-4.8614 7.3867,-4.4194 0,0 -5.8715,3.7249 -8.2075,8.902 -2.336,5.177 16.604,3.7881 16.604,3.7881 0,0 10.102,-2.6516 11.238,-6.2503 1.1364,-3.5987 1.389,-17.488 -0.82075,-19.761 -3.4005,-2.8569 -7.8648,-5.5355 -13.311,-2.0533 -5.4464,3.4821 -0.98214,5.1786 -8.3929,-1.3393 -7.4107,-6.5179 -14.196,-9.4643 -14.196,-9.4643 0,0 -8.6607,11.696 -8.8393,10.446 -0.17857,-1.25 -2.1429,-7.7678 -3.125,-2.9464 0,0 -2.8571,-1.0714 -2.5893,1.4286 0.26786,2.5 -3.8393,-2.6786 -3.8393,-2.6786 0,0 0.35714,7.1428 -1.4286,8.0357 0,0 7.5,-1.9643 4.7321,2.0536 -2.7679,4.0178 -5.8929,4.2857 -10.714,4.5535 -4.8214,0.26797 -7.9464,-2.5 -10.357,-3.2143 -2.4106,-0.7143 -4.375,-2.8571 -8.7946,-0.22337 z"
         fill="#dedede"
         fill-rule="evenodd"
         id="path103" />
    </clipPath>
    <filter
       id="al-2"
       x="-0.19752"
       y="-0.12406"
       width="1.395"
       height="1.2481"
       color-interpolation-filters="sRGB">
      <feGaussianBlur
         stdDeviation="0.2430634"
         id="feGaussianBlur106" />
    </filter>
    <clipPath
       id="bb-8">
      <path
         d="m -14.611,203.49 c 4.2995,1.6064 4.3704,4.3113 5.3035,4.3113 0.93313,0 0.83863,0.4961 1.3229,-0.16536 0.48428,-0.66146 1.6064,-1.8308 1.7245,-2.8939 0.11812,-1.0631 1.0276,-0.57878 1.0158,-0.14174 -0.011811,0.43703 -0.30711,3.3545 -0.2008,3.579 0.10631,0.2245 0.25986,0.34254 0.35435,-0.43704 0.094494,-0.77957 0.11812,-1.9844 0.31892,-2.1379 0.2008,-0.15356 1.4292,-0.8977 1.6655,-1.7481 0,0 0.03543,-0.42523 -0.68508,-0.67328 -0.72052,-0.24804 1.7127,-2.2915 1.7127,-2.2915 0,0 3.4845,1.6064 4.3704,2.5277 0,0 -0.33707,1.2262 0.08054,1.2262 0.41761,0 0.60136,1.0858 -0.31738,0.86862 -0.91874,-0.21718 -1.6203,-0.61806 -2.1883,0.0167 -0.568,0.63476 -0.81851,1.2361 -1.1192,1.353 -0.30069,0.1169 -0.70158,0.31738 -0.68488,-0.53454 0.0167,-0.85192 -0.11693,0.70158 -0.3675,0.66817 -0.25056,-0.0334 -0.15034,0.40091 -1.6871,0.45102 0,0 0.90204,0.3508 0.96885,0.88534 0.06682,0.53454 0.11693,0.55124 0.11693,0.55124 0,0 1.921,0.16705 2.0045,-0.3842 0.08352,-0.55124 0.55124,-1.3029 0.7517,-1.5535 0.20045,-0.25057 1.1025,-1.2862 1.9544,-1.1693 0,0 -1.5535,0.98555 -2.1716,2.3553 -0.61806,1.3698 4.3932,1.0023 4.3932,1.0023 0,0 2.6727,-0.70158 2.9734,-1.6537 0.3007,-0.95212 0.3675,-4.6271 -0.21716,-5.2285 -0.89971,-0.75589 -2.0809,-1.4646 -3.5219,-0.54328 -1.441,0.92131 -0.25986,1.3702 -2.2206,-0.35435 -1.9608,-1.7245 -3.7561,-2.5041 -3.7561,-2.5041 0,0 -2.2915,3.0947 -2.3387,2.764 -0.047247,-0.33073 -0.56696,-2.0552 -0.82682,-0.77957 0,0 -0.75595,-0.28348 -0.68508,0.37797 0.070871,0.66146 -1.0158,-0.7087 -1.0158,-0.7087 0,0 0.094494,1.8899 -0.37798,2.1261 0,0 1.9844,-0.51971 1.252,0.54335 -0.73233,1.063 -1.5592,1.1339 -2.8348,1.2048 -1.2757,0.0709 -2.1025,-0.66145 -2.7403,-0.85044 -0.6378,-0.18899 -1.1576,-0.75595 -2.3269,-0.0591 z"
         fill="#dedede"
         fill-rule="evenodd"
         id="path109" />
    </clipPath>
    <filter
       id="ak-9"
       x="-0.11969"
       y="-0.14714"
       width="1.2394"
       height="1.2943"
       color-interpolation-filters="sRGB">
      <feGaussianBlur
         stdDeviation="0.12848643"
         id="feGaussianBlur112" />
    </filter>
    <clipPath
       id="ba-7">
      <path
         d="m -16.962,206.64 c -1.1694,-0.69689 -2.6576,-1.9844 -2.6576,-3.9333 0,-1.1694 0.75595,-1.7127 0.75595,-1.7127 -0.05906,0.61421 -0.7087,1.7954 0.12993,2.4805 0.2008,0.3071 0.43703,0.33073 1.1103,0.3071 0.67327,-0.0236 0.53153,0.17718 0.53153,0.17718 0,0 0.16536,-0.74414 0.33073,-0.93313 0.16536,-0.18899 0.86226,-1.7009 0.86226,-1.7009 0,0 3.3191,-1.6891 3.5553,-1.7954 0.23624,-0.1063 1.193,-0.24805 1.193,-0.24805 0,0 3.39,1.193 3.5553,1.3584 0.16536,0.16536 0.37798,1.2638 0.37798,1.2638 l -0.42522,1.6418 -3.0829,1.1576 1.571,3.3782 -3.3545,0.22443 c 0,0 -3.6616,-0.29529 -4.453,-1.6655 z"
         fill="#b0afad"
         fill-rule="evenodd"
         id="path115" />
    </clipPath>
  </defs>
  <g
     transform="matrix(0.37157,0,0,0.37157,10.189,-73.314)"
     fill-opacity="0.26812"
     filter="url(#c-3-6)"
     id="g115">
    <g
       fill-rule="evenodd"
       id="g99" />
  </g>
  <path
     id="path3036"
     style="fill:#afb4b9;fill-opacity:1;stroke-width:0.806969"
     d="m 3.457607,2.2411216 v 0.3369237 a 5.4474763,1.2668549 0 0 1 0.02015,-0.010852 5.4474763,1.2668549 0 0 1 0.04857,-0.025321 5.4474763,1.2668549 0 0 1 0.05116,-0.024804 5.4474763,1.2668549 0 0 1 0.05323,-0.024804 5.4474763,1.2668549 0 0 1 0.05581,-0.024288 5.4474763,1.2668549 0 0 1 0.05788,-0.023771 5.4474763,1.2668549 0 0 1 0.06046,-0.023771 5.4474763,1.2668549 0 0 1 0.06201,-0.023771 5.4474763,1.2668549 0 0 1 0.06459,-0.022737 5.4474763,1.2668549 0 0 1 0.06666,-0.022737 5.4474763,1.2668549 0 0 1 0.06924,-0.022737 5.4474763,1.2668549 0 0 1 0.0708,-0.021704 5.4474763,1.2668549 0 0 1 0.07286,-0.021704 5.4474763,1.2668549 0 0 1 0.07493,-0.021704 5.4474763,1.2668549 0 0 1 0.077,-0.02067 5.4474763,1.2668549 0 0 1 0.07906,-0.02067 5.4474763,1.2668549 0 0 1 0.08061,-0.020153 5.4474763,1.2668549 0 0 1 0.08268,-0.019637 5.4474763,1.2668549 0 0 1 0.08475,-0.019637 5.4474763,1.2668549 0 0 1 0.08578,-0.018603 5.4474763,1.2668549 0 0 1 0.08836,-0.018603 5.4474763,1.2668549 0 0 1 0.0894,-0.018086 5.4474763,1.2668549 0 0 1 0.09146,-0.01757 5.4474763,1.2668549 0 0 1 0.09302,-0.017053 5.4474763,1.2668549 0 0 1 0.09457,-0.016536 5.4474763,1.2668549 0 0 1 0.09612,-0.016019 5.4474763,1.2668549 0 0 1 0.09767,-0.015503 5.4474763,1.2668549 0 0 1 0.09922,-0.014986 5.4474763,1.2668549 0 0 1 0.100251,-0.014986 5.4474763,1.2668549 0 0 1 0.1018,-0.013952 5.4474763,1.2668549 0 0 1 0.102834,-0.013435 5.4474763,1.2668549 0 0 1 0.104385,-0.013436 5.4474763,1.2668549 0 0 1 0.105417,-0.012402 5.4474763,1.2668549 0 0 1 0.106969,-0.011885 5.4474763,1.2668549 0 0 1 0.107484,-0.011369 5.4474763,1.2668549 0 0 1 0.1090354,-0.010852 5.4474763,1.2668549 0 0 1 0.109552,-0.010852 5.4474763,1.2668549 0 0 1 0.1111022,-0.0093 5.4474763,1.2668549 0 0 1 0.1116189,-0.0093 5.4474763,1.2668549 0 0 1 0.1121356,-0.00878 5.4474763,1.2668549 0 0 1 0.1131691,-0.00827 5.4474763,1.2668549 0 0 1 0.1142027,-0.00723 5.4474763,1.2668549 0 0 1 0.1147195,-0.00723 5.4474763,1.2668549 0 0 1 0.1152362,-0.0062 5.4474763,1.2668549 0 0 1 0.115753,-0.00568 5.4474763,1.2668549 0 0 1 0.1162696,-0.00517 5.4474763,1.2668549 0 0 1 0.1167864,-0.00465 5.4474763,1.2668549 0 0 1 0.1173031,-0.00413 5.4474763,1.2668549 0 0 1 0.1178201,-0.00362 5.4474763,1.2668549 0 0 1 0.1178198,-0.00259 5.4474763,1.2668549 0 0 1 0.1178201,-0.00207 5.4474763,1.2668549 0 0 1 0.1183365,-0.00207 5.4474763,1.2668549 0 0 1 0.1183368,-0.00103 5.4474763,1.2668549 0 0 1 0.1183365,0 5.4474763,1.2668549 0 0 1 0.026355,0 5.4474763,1.2668549 0 0 1 0.1183368,0 5.4474763,1.2668549 0 0 1 0.1183365,0.00103 5.4474763,1.2668549 0 0 1 0.1183368,0.00155 5.4474763,1.2668549 0 0 1 0.1183365,0.00207 5.4474763,1.2668549 0 0 1 0.1178201,0.00258 5.4474763,1.2668549 0 0 1 0.1178201,0.0031 5.4474763,1.2668549 0 0 1 0.1173031,0.00413 5.4474763,1.2668549 0 0 1 0.1167864,0.00465 5.4474763,1.2668549 0 0 1 0.1162696,0.00465 5.4474763,1.2668549 0 0 1 0.1162697,0.00568 5.4474763,1.2668549 0 0 1 0.1152362,0.0062 5.4474763,1.2668549 0 0 1 0.1147194,0.00723 5.4474763,1.2668549 0 0 1 0.1142028,0.00723 5.4474763,1.2668549 0 0 1 0.1136855,0.00775 5.4474763,1.2668549 0 0 1 0.112653,0.00878 5.4474763,1.2668549 0 0 1 0.111619,0.00878 5.4474763,1.2668549 0 0 1 0.111102,0.00982 5.4474763,1.2668549 0 0 1 0.109552,0.010335 5.4474763,1.2668549 0 0 1 0.109035,0.010852 5.4474763,1.2668549 0 0 1 0.108001,0.011369 5.4474763,1.2668549 0 0 1 0.106969,0.011885 5.4474763,1.2668549 0 0 1 0.105934,0.012402 5.4474763,1.2668549 0 0 1 0.104385,0.012919 5.4474763,1.2668549 0 0 1 0.10335,0.013435 5.4474763,1.2668549 0 0 1 0.102318,0.013952 5.4474763,1.2668549 0 0 1 0.100767,0.014469 5.4474763,1.2668549 0 0 1 0.09922,0.014986 5.4474763,1.2668549 0 0 1 0.09767,0.015503 5.4474763,1.2668549 0 0 1 0.09663,0.016019 5.4474763,1.2668549 0 0 1 0.09508,0.016536 5.4474763,1.2668549 0 0 1 0.09302,0.017053 5.4474763,1.2668549 0 0 1 0.09198,0.01757 5.4474763,1.2668549 0 0 1 0.08991,0.01757 5.4474763,1.2668549 0 0 1 0.08836,0.018603 5.4474763,1.2668549 0 0 1 0.08681,0.018603 5.4474763,1.2668549 0 0 1 0.08475,0.01912 5.4474763,1.2668549 0 0 1 0.0832,0.019637 5.4474763,1.2668549 0 0 1 0.08113,0.020153 5.4474763,1.2668549 0 0 1 0.07958,0.02067 5.4474763,1.2668549 0 0 1 0.077,0.02067 5.4474763,1.2668549 0 0 1 0.07545,0.021187 5.4474763,1.2668549 0 0 1 0.07338,0.021704 5.4474763,1.2668549 0 0 1 0.07131,0.02222 5.4474763,1.2668549 0 0 1 0.06976,0.02222 5.4474763,1.2668549 0 0 1 0.06718,0.022737 5.4474763,1.2668549 0 0 1 0.06459,0.023254 5.4474763,1.2668549 0 0 1 0.06304,0.023254 5.4474763,1.2668549 0 0 1 0.06098,0.023771 5.4474763,1.2668549 0 0 1 0.05839,0.023771 5.4474763,1.2668549 0 0 1 0.05581,0.024287 5.4474763,1.2668549 0 0 1 0.05426,0.024288 5.4474763,1.2668549 0 0 1 0.05167,0.024804 5.4474763,1.2668549 0 0 1 0.04909,0.025321 5.4474763,1.2668549 0 0 1 0.0047,0.00259 V 2.2318221 a 5.9063524,1.3735702 0 0 0 -4.9830612,-0.6361245 5.9063524,1.3735702 0 0 0 -0.1483084,0 5.9063524,1.3735702 0 0 0 -4.8605894,0.6454261 z" />
  <ellipse
     style="fill:#e0e3e7;fill-opacity:0.615686;stroke-width:0.744274"
     id="ellipse2260"
     cx="8.4665051"
     cy="3.0757279"
     rx="5.4474764"
     ry="1.2668549" />
  <path
     id="path2165"
     style="fill:url(#linearGradient2193);fill-opacity:1;stroke:none;stroke-width:0.274714px;stroke-linecap:butt;stroke-linejoin:miter;stroke-opacity:1"
     d="m 4.97583,1.8607905 a 5.9063524,1.3735703 0 0 1 0.0072,-0.00103 5.9063524,1.3735703 0 0 1 0.05219,-0.00878 c -0.02099,0.00334 -0.03878,0.00643 -0.05943,0.00982 z" />
  <path
     id="path3030"
     style="fill:#afb4b9;fill-opacity:1;stroke-width:0.806969"
     d="m 13.449565,2.5640929 a 5.4474763,1.2668549 0 0 1 0.04237,0.022737 5.4474763,1.2668549 0 0 1 0.04444,0.025321 5.4474763,1.2668549 0 0 1 0.04186,0.025838 5.4474763,1.2668549 0 0 1 0.03979,0.025838 5.4474763,1.2668549 0 0 1 0.03772,0.026354 5.4474763,1.2668549 0 0 1 0.03462,0.026354 5.4474763,1.2668549 0 0 1 0.03256,0.026354 5.4474763,1.2668549 0 0 1 0.02946,0.026871 5.4474763,1.2668549 0 0 1 0.02739,0.026871 5.4474763,1.2668549 0 0 1 0.0248,0.026871 5.4474763,1.2668549 0 0 1 0.02274,0.026871 5.4474763,1.2668549 0 0 1 0.01964,0.027388 5.4474763,1.2668549 0 0 1 0.01705,0.026871 5.4474763,1.2668549 0 0 1 0.01499,0.027388 5.4474763,1.2668549 0 0 1 0.01188,0.027388 5.4474763,1.2668549 0 0 1 0.0098,0.027905 5.4474763,1.2668549 0 0 1 0.0067,0.027388 5.4474763,1.2668549 0 0 1 0.0047,0.027388 5.4474763,1.2668549 0 0 1 0.0021,0.027388 5.4474763,1.2668549 0 0 1 0,0.0062 5.4474763,1.2668549 0 0 1 -0.0016,0.027388 5.4474763,1.2668549 0 0 1 -0.0036,0.027905 5.4474763,1.2668549 0 0 1 -0.0067,0.027388 5.4474763,1.2668549 0 0 1 -0.0088,0.027388 5.4474763,1.2668549 0 0 1 -0.01189,0.027388 5.4474763,1.2668549 0 0 1 -0.01395,0.027388 5.4474763,1.2668549 0 0 1 -0.01654,0.027388 5.4474763,1.2668549 0 0 1 -0.01912,0.027388 5.4474763,1.2668549 0 0 1 -0.02222,0.026871 5.4474763,1.2668549 0 0 1 -0.02429,0.026871 5.4474763,1.2668549 0 0 1 -0.02687,0.026871 5.4474763,1.2668549 0 0 1 -0.02894,0.026871 5.4474763,1.2668549 0 0 1 -0.03204,0.026355 5.4474763,1.2668549 0 0 1 -0.03411,0.026355 5.4474763,1.2668549 0 0 1 -0.03669,0.026355 5.4474763,1.2668549 0 0 1 -0.03927,0.025839 5.4474763,1.2668549 0 0 1 -0.04186,0.025839 5.4474763,1.2668549 0 0 1 -0.04392,0.025839 5.4474763,1.2668549 0 0 1 -0.04651,0.02532 5.4474763,1.2668549 0 0 1 -0.04857,0.024804 5.4474763,1.2668549 0 0 1 -0.05116,0.024804 5.4474763,1.2668549 0 0 1 -0.05323,0.024804 5.4474763,1.2668549 0 0 1 -0.05581,0.024288 5.4474763,1.2668549 0 0 1 -0.05788,0.02377 5.4474763,1.2668549 0 0 1 -0.06046,0.02377 5.4474763,1.2668549 0 0 1 -0.06201,0.02377 5.4474763,1.2668549 0 0 1 -0.0646,0.022738 5.4474763,1.2668549 0 0 1 -0.06666,0.023254 5.4474763,1.2668549 0 0 1 -0.06925,0.022219 5.4474763,1.2668549 0 0 1 -0.07079,0.022219 5.4474763,1.2668549 0 0 1 -0.07286,0.021703 5.4474763,1.2668549 0 0 1 -0.07493,0.021187 5.4474763,1.2668549 0 0 1 -0.077,0.020672 5.4474763,1.2668549 0 0 1 -0.07906,0.020671 5.4474763,1.2668549 0 0 1 -0.08061,0.020153 5.4474763,1.2668549 0 0 1 -0.08268,0.019637 5.4474763,1.2668549 0 0 1 -0.08475,0.019637 5.4474763,1.2668549 0 0 1 -0.08578,0.018602 5.4474763,1.2668549 0 0 1 -0.08836,0.018603 5.4474763,1.2668549 0 0 1 -0.0894,0.018087 5.4474763,1.2668549 0 0 1 -0.09147,0.017571 5.4474763,1.2668549 0 0 1 -0.09302,0.017052 5.4474763,1.2668549 0 0 1 -0.09457,0.016536 5.4474763,1.2668549 0 0 1 -0.09612,0.01602 5.4474763,1.2668549 0 0 1 -0.09767,0.015502 5.4474763,1.2668549 0 0 1 -0.09922,0.015502 5.4474763,1.2668549 0 0 1 -0.100251,0.01447 5.4474763,1.2668549 0 0 1 -0.101801,0.013951 5.4474763,1.2668549 0 0 1 -0.102833,0.013951 5.4474763,1.2668549 0 0 1 -0.104386,0.012919 5.4474763,1.2668549 0 0 1 -0.105416,0.012401 5.4474763,1.2668549 0 0 1 -0.106969,0.011885 5.4474763,1.2668549 0 0 1 -0.107484,0.011885 5.4474763,1.2668549 0 0 1 -0.109035,0.010853 5.4474763,1.2668549 0 0 1 -0.109552,0.010334 5.4474763,1.2668549 0 0 1 -0.111103,0.00982 5.4474763,1.2668549 0 0 1 -0.111619,0.0093 5.4474763,1.2668549 0 0 1 -0.112135,0.00827 5.4474763,1.2668549 0 0 1 -0.11317,0.00827 5.4474763,1.2668549 0 0 1 -0.1142026,0.00775 5.4474763,1.2668549 0 0 1 -0.1147195,0.00672 5.4474763,1.2668549 0 0 1 -0.1152362,0.0062 5.4474763,1.2668549 0 0 1 -0.1157529,0.0062 5.4474763,1.2668549 0 0 1 -0.1162697,0.00517 5.4474763,1.2668549 0 0 1 -0.1167863,0.00414 5.4474763,1.2668549 0 0 1 -0.1173031,0.00414 5.4474763,1.2668549 0 0 1 -0.1178201,0.00362 5.4474763,1.2668549 0 0 1 -0.1178198,0.00259 5.4474763,1.2668549 0 0 1 -0.1178201,0.00259 5.9063524,1.3735702 0 0 0 5.5251533,-1.3704595 5.9063524,1.3735702 0 0 0 -0.923439,-0.7374082 z" />
  <path
     id="path3038"
     style="fill:#afb4b9;fill-opacity:1;stroke-width:0.806969"
     d="m 3.457607,2.2411216 a 5.9063524,1.3735702 0 0 0 -0.897602,0.7281066 5.9063524,1.3735702 0 0 0 5.4331528,1.3683647 5.4474763,1.2668549 0 0 1 -0.1178201,-0.00259 5.4474763,1.2668549 0 0 1 -0.1178201,-0.0031 5.4474763,1.2668549 0 0 1 -0.117303,-0.00414 5.4474763,1.2668549 0 0 1 -0.1167864,-0.00414 5.4474763,1.2668549 0 0 1 -0.1162697,-0.00517 5.4474763,1.2668549 0 0 1 -0.1162696,-0.00569 5.4474763,1.2668549 0 0 1 -0.1152362,-0.0062 5.4474763,1.2668549 0 0 1 -0.1147195,-0.00672 5.4474763,1.2668549 0 0 1 -0.1142028,-0.00775 5.4474763,1.2668549 0 0 1 -0.1136858,-0.00775 5.4474763,1.2668549 0 0 1 -0.1126523,-0.00878 5.4474763,1.2668549 0 0 1 -0.1116189,-0.00878 5.4474763,1.2668549 0 0 1 -0.1111022,-0.00982 5.4474763,1.2668549 0 0 1 -0.109552,-0.010334 5.4474763,1.2668549 0 0 1 -0.109035,-0.01085 A 5.4474763,1.2668549 0 0 1 6.171083,4.2244099 5.4474763,1.2668549 0 0 1 6.064115,4.2125249 5.4474763,1.2668549 0 0 1 5.95818,4.2001239 5.4474763,1.2668549 0 0 1 5.853796,4.1872049 5.4474763,1.2668549 0 0 1 5.750445,4.1737699 5.4474763,1.2668549 0 0 1 5.648127,4.1598159 5.4474763,1.2668549 0 0 1 5.54736,4.1453459 5.4474763,1.2668549 0 0 1 5.44814,4.1303599 5.4474763,1.2668549 0 0 1 5.35047,4.1148579 5.4474763,1.2668549 0 0 1 5.25384,4.0988379 5.4474763,1.2668549 0 0 1 5.15876,4.0823019 5.4474763,1.2668549 0 0 1 5.06574,4.0652499 5.4474763,1.2668549 0 0 1 4.97376,4.0476789 5.4474763,1.2668549 0 0 1 4.88385,4.0301079 5.4474763,1.2668549 0 0 1 4.79549,4.0115049 5.4474763,1.2668549 0 0 1 4.70867,3.9929019 5.4474763,1.2668549 0 0 1 4.62392,3.9737809 5.4474763,1.2668549 0 0 1 4.54072,3.9541439 5.4474763,1.2668549 0 0 1 4.45959,3.9339909 5.4474763,1.2668549 0 0 1 4.38001,3.9133199 5.4474763,1.2668549 0 0 1 4.30301,3.8926479 5.4474763,1.2668549 0 0 1 4.22756,3.8714609 5.4474763,1.2668549 0 0 1 4.15418,3.8497579 5.4474763,1.2668549 0 0 1 4.08287,3.8275389 5.4474763,1.2668549 0 0 1 4.01311,3.8053199 5.4474763,1.2668549 0 0 1 3.94593,3.7825819 5.4474763,1.2668549 0 0 1 3.88134,3.7598439 5.4474763,1.2668549 0 0 1 3.8183,3.7360739 5.4474763,1.2668549 0 0 1 3.75732,3.7128199 5.4474763,1.2668549 0 0 1 3.69893,3.6885319 5.4474763,1.2668549 0 0 1 3.64312,3.6642439 5.4474763,1.2668549 0 0 1 3.58886,3.6399559 5.4474763,1.2668549 0 0 1 3.53719,3.6151519 5.4474763,1.2668549 0 0 1 3.4881,3.5898319 5.4474763,1.2668549 0 0 1 3.44108,3.5645119 5.4474763,1.2668549 0 0 1 3.39664,3.5391919 5.4474763,1.2668549 0 0 1 3.35478,3.5133529 5.4474763,1.2668549 0 0 1 3.31499,3.4875139 5.4474763,1.2668549 0 0 1 3.27727,3.4611589 5.4474763,1.2668549 0 0 1 3.24265,3.4348039 5.4474763,1.2668549 0 0 1 3.21009,3.4084489 5.4474763,1.2668549 0 0 1 3.18063,3.3815779 5.4474763,1.2668549 0 0 1 3.15324,3.3552229 5.4474763,1.2668549 0 0 1 3.12844,3.3278349 5.4474763,1.2668549 0 0 1 3.1057,3.3009639 5.4474763,1.2668549 0 0 1 3.08606,3.2740929 5.4474763,1.2668549 0 0 1 3.06901,3.2467049 5.4474763,1.2668549 0 0 1 3.05402,3.2193169 5.4474763,1.2668549 0 0 1 3.04214,3.1919289 a 5.4474763,1.2668549 0 0 1 -0.0098,-0.027388 5.4474763,1.2668549 0 0 1 -0.0067,-0.027905 5.4474763,1.2668549 0 0 1 -0.0046,-0.027388 5.4474763,1.2668549 0 0 1 -0.0021,-0.027388 5.4474763,1.2668549 0 0 1 0,-0.0062 5.4474763,1.2668549 0 0 1 0.0016,-0.027388 5.4474763,1.2668549 0 0 1 0.0036,-0.027905 5.4474763,1.2668549 0 0 1 0.0067,-0.027388 5.4474763,1.2668549 0 0 1 0.0088,-0.027388 5.4474763,1.2668549 0 0 1 0.01188,-0.027388 5.4474763,1.2668549 0 0 1 0.01395,-0.027388 5.4474763,1.2668549 0 0 1 0.01654,-0.027388 5.4474763,1.2668549 0 0 1 0.01912,-0.026871 5.4474763,1.2668549 0 0 1 0.02222,-0.027388 5.4474763,1.2668549 0 0 1 0.02429,-0.026871 5.4474763,1.2668549 0 0 1 0.02687,-0.026871 5.4474763,1.2668549 0 0 1 0.02894,-0.026871 5.4474763,1.2668549 0 0 1 0.03204,-0.026354 5.4474763,1.2668549 0 0 1 0.03411,-0.026354 5.4474763,1.2668549 0 0 1 0.03669,-0.026354 5.4474763,1.2668549 0 0 1 0.03927,-0.025838 5.4474763,1.2668549 0 0 1 0.04186,-0.025838 5.4474763,1.2668549 0 0 1 0.04392,-0.025321 5.4474763,1.2668549 0 0 1 0.02636,-0.014469 z" />
  <path
     id="path3019"
     style="fill:#e4e5e7;fill-opacity:0.99932;stroke:none;stroke-width:0.274714px;stroke-linecap:butt;stroke-linejoin:miter;stroke-opacity:1"
     d="m 14.292391,2.7434066 a 5.9063524,1.3735703 0 0 1 0.01395,0.019637 5.9063524,1.3735703 0 0 1 0.01705,0.028421 5.9063524,1.3735703 0 0 1 0.01447,0.028421 5.9063524,1.3735703 0 0 1 0.0124,0.028938 5.9063524,1.3735703 0 0 1 0.0093,0.028421 5.9063524,1.3735703 0 0 1 0.0072,0.028421 5.9063524,1.3735703 0 0 1 0.0041,0.028938 5.9063524,1.3735703 0 0 1 0.0021,0.028421 5.9063524,1.3735703 0 0 1 0,0.0062 5.9063524,1.3735703 0 0 1 -0.0016,0.028421 5.9063524,1.3735703 0 0 1 -0.0036,0.028938 5.9063524,1.3735703 0 0 1 -0.0067,0.028421 5.9063524,1.3735703 0 0 1 -0.0088,0.028421 5.9063524,1.3735703 0 0 1 -0.01188,0.028938 5.9063524,1.3735703 0 0 1 -0.01395,0.028422 5.9063524,1.3735703 0 0 1 -0.01654,0.028422 5.9063524,1.3735703 0 0 1 -0.01912,0.028421 5.9063524,1.3735703 0 0 1 -0.02222,0.027905 5.9063524,1.3735703 0 0 1 -0.02429,0.028421 5.9063524,1.3735703 0 0 1 -0.02687,0.027905 5.9063524,1.3735703 0 0 1 -0.02894,0.027905 5.9063524,1.3735703 0 0 1 -0.03204,0.027905 5.9063524,1.3735703 0 0 1 -0.03462,0.027388 5.9063524,1.3735703 0 0 1 -0.03669,0.027388 5.9063524,1.3735703 0 0 1 -0.03927,0.026871 5.9063524,1.3735703 0 0 1 -0.04134,0.027388 5.9063524,1.3735703 0 0 1 -0.04444,0.026871 5.9063524,1.3735703 0 0 1 -0.04651,0.026355 5.9063524,1.3735703 0 0 1 -0.04857,0.026355 5.9063524,1.3735703 0 0 1 -0.05116,0.026355 5.9063524,1.3735703 0 0 1 -0.05374,0.025839 5.9063524,1.3735703 0 0 1 -0.05581,0.02532 5.9063524,1.3735703 0 0 1 -0.05839,0.02532 5.9063524,1.3735703 0 0 1 -0.06046,0.024804 5.9063524,1.3735703 0 0 1 -0.06253,0.024804 5.9063524,1.3735703 0 0 1 -0.06459,0.024288 5.9063524,1.3735703 0 0 1 -0.06718,0.024288 5.9063524,1.3735703 0 0 1 -0.06925,0.02377 5.9063524,1.3735703 0 0 1 -0.07131,0.023254 5.9063524,1.3735703 0 0 1 -0.07338,0.023254 5.9063524,1.3735703 0 0 1 -0.07545,0.022738 5.9063524,1.3735703 0 0 1 -0.07751,0.022222 5.9063524,1.3735703 0 0 1 -0.07958,0.022219 5.9063524,1.3735703 0 0 1 -0.08113,0.021187 5.9063524,1.3735703 0 0 1 -0.0832,0.021187 5.9063524,1.3735703 0 0 1 -0.08526,0.020671 5.9063524,1.3735703 0 0 1 -0.08733,0.020672 5.9063524,1.3735703 0 0 1 -0.08888,0.019637 5.9063524,1.3735703 0 0 1 -0.09043,0.019637 5.9063524,1.3735703 0 0 1 -0.0925,0.019118 5.9063524,1.3735703 0 0 1 -0.09405,0.018603 5.9063524,1.3735703 0 0 1 -0.0956,0.018086 5.9063524,1.3735703 0 0 1 -0.09715,0.017571 5.9063524,1.3735703 0 0 1 -0.09922,0.017052 5.9063524,1.3735703 0 0 1 -0.100251,0.016536 5.9063524,1.3735703 0 0 1 -0.101801,0.016536 5.9063524,1.3735703 0 0 1 -0.10335,0.015502 5.9063524,1.3735703 0 0 1 -0.104384,0.014986 5.9063524,1.3735703 0 0 1 -0.106452,0.014986 5.9063524,1.3735703 0 0 1 -0.106968,0.013951 5.9063524,1.3735703 0 0 1 -0.108518,0.013951 5.9063524,1.3735703 0 0 1 -0.110069,0.012919 5.9063524,1.3735703 0 0 1 -0.110586,0.012401 5.9063524,1.3735703 0 0 1 -0.112135,0.012403 5.9063524,1.3735703 0 0 1 -0.113169,0.011369 5.9063524,1.3735703 0 0 1 -0.114203,0.010853 5.9063524,1.3735703 0 0 1 -0.114719,0.010334 5.9063524,1.3735703 0 0 1 -0.11627,0.00982 5.9063524,1.3735703 0 0 1 -0.116786,0.0093 5.9063524,1.3735703 0 0 1 -0.117304,0.00878 5.9063524,1.3735703 0 0 1 -0.118337,0.00775 5.9063524,1.3735703 0 0 1 -0.1193694,0.00775 5.9063524,1.3735703 0 0 1 -0.1193703,0.00672 5.9063524,1.3735703 0 0 1 -0.1204036,0.00672 5.9063524,1.3735703 0 0 1 -0.1209204,0.00568 5.9063524,1.3735703 0 0 1 -0.1214372,0.00517 5.9063524,1.3735703 0 0 1 -0.1214374,0.00465 5.9063524,1.3735703 0 0 1 -0.1224708,0.00362 5.9063524,1.3735703 0 0 1 -0.1224706,0.00362 5.9063524,1.3735703 0 0 1 -0.1224708,0.00259 5.9063524,1.3735703 0 0 1 -0.1229873,0.00259 5.9063524,1.3735703 0 0 1 -0.1235043,0.00156 5.9063524,1.3735703 0 0 1 -0.1229875,0.00103 5.9063524,1.3735703 0 0 1 -0.1235043,5.292e-4 5.9063524,1.3735703 0 0 1 -0.024804,0 5.9063524,1.3735703 0 0 1 -0.1234512,-5.201e-4 5.9063524,1.3735703 0 0 1 -0.1229876,-0.00103 5.9063524,1.3735703 0 0 1 -0.1235042,-0.00156 5.9063524,1.3735703 0 0 1 -0.1229873,-0.00206 5.9063524,1.3735703 0 0 1 -0.1229876,-0.00259 5.9063524,1.3735703 0 0 1 -0.1224708,-0.0031 5.9063524,1.3735703 0 0 1 -0.1219539,-0.00414 5.9063524,1.3735703 0 0 1 -0.1219541,-0.00414 5.9063524,1.3735703 0 0 1 -0.1214371,-0.00517 5.9063524,1.3735703 0 0 1 -0.1209204,-0.00569 5.9063524,1.3735703 0 0 1 -0.1204037,-0.0062 5.9063524,1.3735703 0 0 1 -0.119887,-0.00672 A 5.9063524,1.3735703 0 0 1 6.882126,4.2921177 5.9063524,1.3735703 0 0 1 6.7637892,4.2843677 5.9063524,1.3735703 0 0 1 6.6459694,4.2755877 5.9063524,1.3735703 0 0 1 6.5291827,4.2668077 5.9063524,1.3735703 0 0 1 6.4129131,4.2569877 5.9063524,1.3735703 0 0 1 6.2976769,4.2466537 5.9063524,1.3735703 0 0 1 6.183474,4.2358037 5.9063524,1.3735703 0 0 1 6.070305,4.2244347 5.9063524,1.3735703 0 0 1 5.958169,4.2125497 5.9063524,1.3735703 0 0 1 5.847067,4.2001487 5.9063524,1.3735703 0 0 1 5.736999,4.1872297 5.9063524,1.3735703 0 0 1 5.627964,4.1737947 5.9063524,1.3735703 0 0 1 5.520479,4.1593247 5.9063524,1.3735703 0 0 1 5.414028,4.1448547 5.9063524,1.3735703 0 0 1 5.309126,4.1298687 5.9063524,1.3735703 0 0 1 5.205775,4.1143667 5.9063524,1.3735703 0 0 1 5.103458,4.0983467 5.9063524,1.3735703 0 0 1 5.002691,4.0818107 a 5.9063524,1.3735703 0 0 1 -0.09922,-0.017052 5.9063524,1.3735703 0 0 1 -0.09767,-0.017571 5.9063524,1.3735703 0 0 1 -0.0956,-0.018087 5.9063524,1.3735703 0 0 1 -0.09457,-0.018603 5.9063524,1.3735703 0 0 1 -0.0925,-0.019118 5.9063524,1.3735703 0 0 1 -0.09095,-0.019121 5.9063524,1.3735703 0 0 1 -0.0894,-0.019637 5.9063524,1.3735703 0 0 1 -0.08733,-0.020672 5.9063524,1.3735703 0 0 1 -0.08578,-0.020672 5.9063524,1.3735703 0 0 1 -0.08371,-0.020671 5.9063524,1.3735703 0 0 1 -0.08165,-0.021703 5.9063524,1.3735703 0 0 1 -0.0801,-0.021703 5.9063524,1.3735703 0 0 1 -0.07751,-0.022222 5.9063524,1.3735703 0 0 1 -0.07596,-0.022738 5.9063524,1.3735703 0 0 1 -0.0739,-0.023254 5.9063524,1.3735703 0 0 1 -0.07183,-0.023254 5.9063524,1.3735703 0 0 1 -0.06925,-0.02377 5.9063524,1.3735703 0 0 1 -0.06769,-0.02377 5.9063524,1.3735703 0 0 1 -0.06511,-0.024288 5.9063524,1.3735703 0 0 1 -0.06304,-0.024804 5.9063524,1.3735703 0 0 1 -0.06098,-0.024804 5.9063524,1.3735703 0 0 1 -0.05891,-0.02532 5.9063524,1.3735703 0 0 1 -0.05633,-0.02532 5.9063524,1.3735703 0 0 1 -0.05374,-0.025839 5.9063524,1.3735703 0 0 1 -0.05167,-0.026355 5.9063524,1.3735703 0 0 1 -0.04961,-0.026355 5.9063524,1.3735703 0 0 1 -0.04702,-0.026355 5.9063524,1.3735703 0 0 1 -0.04444,-0.026867 5.9063524,1.3735703 0 0 1 -0.04237,-0.026871 5.9063524,1.3735703 0 0 1 -0.03927,-0.027388 5.9063524,1.3735703 0 0 1 -0.03772,-0.026871 5.9063524,1.3735703 0 0 1 -0.03462,-0.027905 5.9063524,1.3735703 0 0 1 -0.03256,-0.027388 5.9063524,1.3735703 0 0 1 -0.02945,-0.027905 5.9063524,1.3735703 0 0 1 -0.02739,-0.027905 5.9063524,1.3735703 0 0 1 -0.0248,-0.028421 5.9063524,1.3735703 0 0 1 -0.02222,-0.027905 5.9063524,1.3735703 0 0 1 -0.02015,-0.028421 5.9063524,1.3735703 0 0 1 -0.01705,-0.028422 5.9063524,1.3735703 0 0 1 -0.01447,-0.028421 5.9063524,1.3735703 0 0 1 -0.0124,-0.028421 5.9063524,1.3735703 0 0 1 -0.0093,-0.028938 5.9063524,1.3735703 0 0 1 -0.0072,-0.028421 5.9063524,1.3735703 0 0 1 -0.0041,-0.028938 5.9063524,1.3735703 0 0 1 -0.0021,-0.028421 5.9063524,1.3735703 0 0 1 0,-0.00568 5.9063524,1.3735703 0 0 1 0.0015,-0.028938 5.9063524,1.3735703 0 0 1 0.0036,-0.028421 5.9063524,1.3735703 0 0 1 0.0067,-0.028938 5.9063524,1.3735703 0 0 1 0.0088,-0.028421 5.9063524,1.3735703 0 0 1 0.01189,-0.028938 5.9063524,1.3735703 0 0 1 0.01395,-0.028422 5.9063524,1.3735703 0 0 1 0.01654,-0.028421 5.9063524,1.3735703 0 0 1 0.01654,-0.024804 C 2.531138,2.8759223 2.511942,2.9687129 2.511942,2.9687129 L 3.986758,13.848973 c 0.515344,2.043288 2.6148525,2.250533 4.4311665,2.298004 h 0.00156 c 0.017227,-6.5e-5 0.029884,-0.001 0.047025,-0.001 0.017147,9.1e-5 0.029791,0.001 0.047025,0.001 h 0.00156 C 10.33141,16.099507 12.430918,15.892261 12.946262,13.848973 L 14.421058,2.9687129 c 0,0 -0.01978,-0.093005 -0.128672,-0.2253048 z" />
  <path
     id="path2227"
     style="fill:#969696;fill-opacity:1;stroke:none;stroke-width:0.274714px;stroke-linecap:butt;stroke-linejoin:miter;stroke-opacity:1"
     d="m 4.046931,14.057887 c 0.586982,1.884495 2.6062654,2.095794 4.3707432,2.141911 h 0.00161 c 0.017227,-6.5e-5 0.030074,-0.001 0.047216,-0.001 0.017147,9.1e-5 0.029983,0.001 0.047216,0.001 h 0.00161 c 1.7644788,-0.04612 3.7837618,-0.257416 4.3707428,-2.141911 -0.06594,0.08692 -0.1206,0.187895 -0.194767,0.264519 -0.164374,0.169821 -0.34784,0.315443 -0.546745,0.439972 -0.198906,0.12453 -0.413112,0.227948 -0.638496,0.314419 -0.450768,0.172943 -0.946229,0.277148 -1.454589,0.341246 -0.5083598,0.0641 -1.0297951,0.0883 -1.5313167,0.101412 h -0.00161 c -0.019034,-1.04e-4 -0.033107,-9.79e-4 -0.052045,-0.001 -0.018933,1.05e-4 -0.03302,0.001 -0.052045,0.001 h -0.00214 C 7.9107873,15.506345 7.3898882,15.482145 6.8815289,15.418043 6.3731698,15.353943 5.877707,15.24974 5.426939,15.076797 5.201556,14.990327 4.987349,14.886909 4.788444,14.762378 4.589538,14.637849 4.406072,14.492227 4.241698,14.322406 4.167528,14.245786 4.112877,14.1448 4.046931,14.057887 Z" />
  <path
     id="rect3316"
     style="fill:#0078d7;fill-opacity:1;stroke:none;stroke-width:0.454463"
     d="m 8.0213618,7.5433542 c 0.1353796,0.05635 0.2481037,0.158068 0.3324147,0.304455 l 0.6026957,1.047395 -0.3772395,0.21436 1.2218131,0.01686 0.5969262,-1.070029 -0.37147,0.219686 -0.3435104,-0.585831 C 9.6264176,7.5942802 9.5308737,7.5433492 9.4069408,7.5433492 Z m -0.3213193,0.05104 c -0.2137465,0 -0.3883107,0.10158 -0.4952934,0.28759 L 6.692147,8.7660552 7.7679457,9.5231982 8.4327747,8.2419142 8.2410485,7.9210392 C 8.1118319,7.7015692 7.9311799,7.5943932 7.7000425,7.5943942 Z M 10.516469,9.2697822 9.4411142,9.8835732 10.1055,11.033044 h 0.371914 a 0.62891242,0.62891242 0 0 0 0.320876,-0.07367 c 0.179846,-0.10126 0.30978,-0.315409 0.30978,-0.517929 0,-0.101479 -0.02837,-0.196891 -0.079,-0.287145 z M 7.0529657,9.5289672 5.82494,9.5515972 6.202179,9.7650702 5.864439,10.35667 c -0.02267,0.03918 -0.0395,0.101376 -0.0395,0.152228 a 0.31412601,0.31412601 0 0 0 0.0395,0.146458 l 0.7038846,1.210717 c -0.0055,-0.0394 -0.00532,-0.06741 -0.00532,-0.08965 0,-0.09576 0.04484,-0.248463 0.1011887,-0.349723 l 0.6026904,-1.041625 0.3830091,0.219242 z m 2.2301518,1.1996208 -0.6306561,1.053165 0.6306561,1.053164 v -0.433603 h 0.6590596 a 0.30422016,0.30422016 0 0 0 0.2760509,-0.152228 l 0.698116,-1.216042 c -0.11821,0.09003 -0.258995,0.134918 -0.427834,0.134918 H 9.2831175 Z m -2.3091501,0.427835 -0.1801875,0.320876 c -0.056353,0.09576 -0.095863,0.24793 -0.095863,0.338184 a 0.58884873,0.58884873 0 0 0 0.585831,0.585831 h 1.0247603 v -1.244891 z" />
</svg>
