<?xml version="1.0" encoding="UTF-8" standalone="no"?>
<svg
   version="1.1"
   viewBox="0 0 22 22"
   id="svg42"
   sodipodi:docname="document-encrypted.svg"
   inkscape:version="1.1 (c4e8f9ed74, 2021-05-24)"
   xmlns:inkscape="http://www.inkscape.org/namespaces/inkscape"
   xmlns:sodipodi="http://sodipodi.sourceforge.net/DTD/sodipodi-0.dtd"
   xmlns:xlink="http://www.w3.org/1999/xlink"
   xmlns="http://www.w3.org/2000/svg"
   xmlns:svg="http://www.w3.org/2000/svg">
  <sodipodi:namedview
     id="namedview44"
     pagecolor="#ffffff"
     bordercolor="#999999"
     borderopacity="1"
     inkscape:pageshadow="0"
     inkscape:pageopacity="0"
     inkscape:pagecheckerboard="0"
     showgrid="false"
     inkscape:zoom="19.068182"
     inkscape:cx="13.556615"
     inkscape:cy="12.009535"
     inkscape:window-width="1920"
     inkscape:window-height="997"
     inkscape:window-x="0"
     inkscape:window-y="0"
     inkscape:window-maximized="1"
     inkscape:current-layer="svg42" />
  <defs
     id="defs20">
    <style
       id="current-color-scheme"
       type="text/css">.ColorScheme-Text { color:#363636; }</style>
    <linearGradient
       id="linearGradient1399"
       x1="2"
       x2="62"
       y1="32"
       y2="32"
       gradientTransform="translate(-55.39,-31.79)"
       gradientUnits="userSpaceOnUse"
       xlink:href="#linearGradient4857" />
    <linearGradient
       id="linearGradient4857"
       x1="17.561"
       x2="47.561"
       y1="31.439"
       y2="31.439"
       gradientTransform="matrix(.66667 0 0 .66667 10.293 11.041)"
       gradientUnits="userSpaceOnUse">
      <stop
         stop-color="#143764"
         offset="0"
         id="stop4" />
      <stop
         stop-color="#1e509b"
         offset="1"
         id="stop6" />
    </linearGradient>
    <linearGradient
       id="linearGradient4837"
       x1="7"
       x2="57"
       y1="32"
       y2="32"
       gradientTransform="matrix(3.7796,0,0,3.7796,-77.061,-56.79)"
       gradientUnits="userSpaceOnUse">
      <stop
         stop-color="#1e509b"
         offset="0"
         id="stop9" />
      <stop
         stop-color="#3278d7"
         offset="1"
         id="stop11" />
    </linearGradient>
    <linearGradient
       id="linearGradient4853"
       x1="12"
       x2="52"
       y1="32"
       y2="32"
       gradientTransform="matrix(3.7796,0,0,3.7796,-77.061,-56.79)"
       gradientUnits="userSpaceOnUse">
      <stop
         stop-color="#1e64b4"
         offset="0"
         id="stop14" />
      <stop
         stop-color="#3296e6"
         offset="1"
         id="stop16" />
    </linearGradient>
    <linearGradient
       id="linearGradient1429"
       x1="17.561"
       x2="47.561"
       y1="31.439"
       y2="31.439"
       gradientTransform="matrix(0.66667,0,0,0.66667,-45.097,-20.749)"
       gradientUnits="userSpaceOnUse"
       xlink:href="#linearGradient4857" />
  </defs>
  <path
     class="ColorScheme-Text"
     d="m39.108 9c-1.662 0-3 1.338-3 3v4c0 1.662 1.338 3 3 3h8c1.662 0 3-1.338 3-3v-4c0-1.662-1.338-3-3-3zm0 1h8c1.108 0 2 0.892 2 2v4c0 1.108-0.892 2-2 2h-8c-1.108 0-2-0.892-2-2v-4c0-1.108 0.892-2 2-2z"
     fill="currentColor"
     id="path22" />
  <path
     class="ColorScheme-Text"
     d="m43.108 2c-2.77 0-5 2.23-5 5v3h1v-3c0-2.216 1.784-4 4-4s4 1.784 4 4v3h1v-3c0-2.77-2.23-5-5-5z"
     fill="currentColor"
     id="path24" />
  <g
     transform="matrix(0.36666667,0,0,0.36666667,19.576333,10.923084)"
     id="g40">
    <circle
       cx="-23.389999"
       cy="0.20976999"
       r="30"
       fill="url(#linearGradient1399)"
       id="circle26"
       style="fill:url(#linearGradient1399)" />
    <circle
       cx="-23.389999"
       cy="0.20976999"
       r="25"
       fill="url(#linearGradient4837)"
       id="circle28"
       style="fill:url(#linearGradient4837)" />
    <circle
       cx="-23.389999"
       cy="0.20976999"
       r="20"
       fill="url(#linearGradient4853)"
       id="circle30"
       style="fill:url(#linearGradient4853)" />
    <circle
       cx="-23.389999"
       cy="0.20976999"
       r="10"
       fill="url(#linearGradient1429)"
       id="circle32"
       style="fill:url(#linearGradient1429)" />
    <g
       transform="translate(-38.827,-31.79)"
       fill="#ffffff"
       stroke-width="0.75993"
       id="g38">
      <path
         d="M 15.437,18.094 3.023,22.1552 c 0,8.5483 -0.03814,13.235 1.4649,16.626 1.5039,3.3945 4.5899,5.6282 10.95,9.3126 6.3599,-3.6845 9.4456,-5.9181 10.95,-9.3126 1.503,-3.3909 1.4649,-8.0781 1.4649,-16.626 z m 0.25894,9.311 a 2.8447,2.8447 0 0 1 2.8447,2.8447 2.8296,2.8296 0 0 1 -1.7274,2.6159 l 1.7274,5.9192 h -5.6902 l 1.7283,-5.9181 a 2.8287,2.8287 0 0 1 -1.7283,-2.6168 2.8447,2.8447 0 0 1 2.8456,-2.8456 z"
         color="#000000"
         image-rendering="optimizeSpeed"
         opacity="0.5"
         overflow="visible"
         solid-color="#000000"
         style="isolation:auto;mix-blend-mode:normal"
         id="path34" />
      <path
         d="M 15.438,20.68 5.095,24.3006 c 0,13.934 -0.4017,15.004 10.343,21.208 10.656,-6.1592 10.343,-7.2686 10.343,-21.208 z m 0.25894,6.7243 a 2.8447,2.8447 0 0 1 2.8447,2.8456 2.8296,2.8296 0 0 1 -1.7274,2.6159 l 1.7274,5.9192 h -5.6902 l 1.7283,-5.9181 a 2.8287,2.8287 0 0 1 -1.7283,-2.6168 2.8447,2.8447 0 0 1 2.8456,-2.8456 z"
         color="#000000"
         image-rendering="optimizeSpeed"
         overflow="visible"
         solid-color="#000000"
         style="isolation:auto;mix-blend-mode:normal"
         id="path36" />
    </g>
  </g>
</svg>
