<?xml version="1.0" encoding="UTF-8"?>
<svg width="64" height="64" version="1.1" viewBox="0 0 16.933 16.933" xmlns="http://www.w3.org/2000/svg" xmlns:cc="http://creativecommons.org/ns#" xmlns:dc="http://purl.org/dc/elements/1.1/" xmlns:rdf="http://www.w3.org/1999/02/22-rdf-syntax-ns#" xmlns:xlink="http://www.w3.org/1999/xlink">
 <defs>
  <linearGradient id="linearGradient1777" x1=".52969" x2="16.774" y1="15.081" y2="2.5022" gradientUnits="userSpaceOnUse">
   <stop stop-color="#0078e1" offset="0"/>
   <stop stop-color="#05b9ff" offset="1"/>
  </linearGradient>
  <style type="text/css"/>
 </defs>
 <metadata>
  <rdf:RDF>
   <cc:Work rdf:about="">
    <dc:format>image/svg+xml</dc:format>
    <dc:type rdf:resource="http://purl.org/dc/dcmitype/StillImage"/>
    <dc:title/>
   </cc:Work>
  </rdf:RDF>
 </metadata>
 <g fill="#5e4aa6" stroke-width=".26458">
  <circle cx="-330.35" cy="-328.38" r="0"/>
  <circle cx="-312.11" cy="-326.25" r="0"/>
  <circle cx="-306.02" cy="-333.07" r="0"/>
  <circle cx="-308.84" cy="-326.01" r="0"/>
  <circle cx="-328.8" cy="-330.45" r="0"/>
 </g>
 <path d="m1.3234 4.2332c-0.21986 0-0.41825 0.088556-0.56171 0.23202-0.14347 0.14347-0.23202 0.34185-0.23202 0.56171v9.2608c0 0.21986 0.088556 0.41824 0.23202 0.56171s0.34185 0.23202 0.56171 0.23202h14.287c0.21986 0 0.41824-0.08856 0.56171-0.23202 0.14347-0.14347 0.23202-0.34185 0.23202-0.56171v-9.2608c0-0.21986-0.08855-0.41825-0.23202-0.56171-0.14347-0.14347-0.34185-0.23202-0.56171-0.23202z" fill="#0079e1"/>
 <path d="m1.1906 2.7781c-0.18265 0-0.34796 0.081238-0.46766 0.2129s-0.19378 0.31377-0.19378 0.51469v4.0017h7.9373v-3.2742l-1.6536-1.4552z" fill="#0078e1"/>
 <rect x=".97341" y="4.6963" width="14.987" height="9.9217" ry=".29919" fill="#fffffc"/>
 <path d="m8.4662 4.2332-1.6536 1.4552h-5.6223c-0.18265 0-0.34797 0.081235-0.46766 0.2129-0.1197 0.13167-0.19378 0.31377-0.19378 0.51469v7.9373c0 0.20092 0.074084 0.3825 0.19378 0.51417 0.1197 0.13167 0.28501 0.21342 0.46766 0.21342h14.552c0.18266 0 0.34796-0.08175 0.46766-0.21342 0.1197-0.13167 0.19378-0.31325 0.19378-0.51417v-9.3925c0-0.20092-0.07409-0.38302-0.19378-0.51469-0.1197-0.13167-0.28501-0.2129-0.46766-0.2129h-5.16e-4z" fill="url(#linearGradient1777)"/>
 <path d="m6.879 7.9373c-0.36415 0-0.66196 0.29625-0.66196 0.66041v4.2343c0 0.36415 0.2978 0.65989 0.66196 0.6599h2.4355l1.4004-1.3999v-3.4943c0-0.36415-0.29574-0.66041-0.6599-0.66041zm0 0.26406h3.176c0.22216 0 0.39635 0.1742 0.39635 0.39635v3.3077h-0.7064c-0.29315 0-0.52967 0.236-0.52967 0.52916v0.78392l-0.00982 0.0098h-2.3264c-0.22216 0-0.39635-0.1742-0.39635-0.39635v-4.2343c0-0.22216 0.1742-0.39635 0.39635-0.39635zm0.2651 0.52916v0.26458h2.6458v-0.26458zm0 0.79373v0.26458h2.6458v-0.26458zm0 0.79373v0.26458h2.6458v-0.26458zm0 0.79373v0.26458h1.5875v-0.26458z" color="#000000" color-rendering="auto" dominant-baseline="auto" fill="#0050b4" image-rendering="auto" shape-rendering="auto" solid-color="#000000" stop-color="#000000" style="font-feature-settings:normal;font-variant-alternates:normal;font-variant-caps:normal;font-variant-east-asian:normal;font-variant-ligatures:normal;font-variant-numeric:normal;font-variant-position:normal;font-variation-settings:normal;inline-size:0;isolation:auto;mix-blend-mode:normal;shape-margin:0;shape-padding:0;text-decoration-color:#000000;text-decoration-line:none;text-decoration-style:solid;text-indent:0;text-orientation:mixed;text-transform:none;white-space:normal"/>
</svg>
