<?xml version="1.0" encoding="UTF-8"?>
<svg width="64" height="64" version="1.1" viewBox="0 0 64 64" xmlns="http://www.w3.org/2000/svg" xmlns:cc="http://creativecommons.org/ns#" xmlns:dc="http://purl.org/dc/elements/1.1/" xmlns:rdf="http://www.w3.org/1999/02/22-rdf-syntax-ns#" xmlns:xlink="http://www.w3.org/1999/xlink">
 <metadata>
  <rdf:RDF>
   <cc:Work rdf:about="">
    <dc:format>image/svg+xml</dc:format>
    <dc:type rdf:resource="http://purl.org/dc/dcmitype/StillImage"/>
    <dc:title/>
   </cc:Work>
  </rdf:RDF>
 </metadata>
 <defs>
  <style id="current-color-scheme" type="text/css">.ColorScheme-Text { color:#565656; } .ColorScheme-Highlight { color:#5294e2; }</style>
  <style type="text/css"/>
  <style type="text/css">.ColorScheme-Text {
        color:#4d4d4d;
      }</style>
  <style type="text/css">.ColorScheme-Text {
        color:#4d4d4d;
      }</style>
  <style type="text/css"/>
  <style type="text/css">.ColorScheme-Text {
        color:#4d4d4d;
      }</style>
  <style type="text/css">.ColorScheme-Text {
        color:#4d4d4d;
      }</style>
  <style type="text/css">.ColorScheme-Text { color:#565656; } .ColorScheme-Highlight { color:#5294e2; }</style>
  <linearGradient id="linearGradient1777" x1=".52969" x2="16.774" y1="15.081" y2="2.5022" gradientTransform="translate(-19.155 -.46327)" gradientUnits="userSpaceOnUse">
   <stop stop-color="#0078e1" offset="0"/>
   <stop stop-color="#05b9ff" offset="1"/>
  </linearGradient>
 </defs>
 <g transform="matrix(3.7796 0 0 3.7796 72.398 1.251)">
  <path d="m-17.832 3.77c-0.21986 0-0.41824 0.088556-0.56171 0.23202-0.14347 0.14347-0.23202 0.34185-0.23202 0.56171v9.2608c0 0.21986 0.08856 0.41824 0.23202 0.56171 0.14347 0.14347 0.34185 0.23202 0.56171 0.23202h14.287c0.21986 0 0.41824-0.08856 0.56171-0.23202 0.14347-0.14347 0.23202-0.34185 0.23202-0.56171v-9.2608c0-0.21986-0.08856-0.41825-0.23202-0.56171-0.14347-0.14347-0.34185-0.23202-0.56171-0.23202z" fill="#0079e1"/>
  <path d="m-17.964 2.3148c-0.18265 0-0.34796 0.081238-0.46766 0.2129-0.1197 0.13166-0.19378 0.31377-0.19378 0.51469v4.0017h7.9373v-3.2742l-1.6536-1.4552z" fill="#0078e1"/>
  <rect x="-18.182" y="4.233" width="14.987" height="9.9217" ry=".29919" fill="#fffffc"/>
  <path d="m-10.689 3.77-1.6536 1.4552h-5.6223c-0.18265 0-0.34796 0.081235-0.46766 0.2129-0.1197 0.13167-0.19378 0.31377-0.19378 0.51469v7.9373c0 0.20092 0.07408 0.3825 0.19378 0.51417 0.1197 0.13167 0.28501 0.21342 0.46766 0.21342h14.552c0.18266 0 0.34796-0.08175 0.46766-0.21342 0.1197-0.13167 0.19378-0.31325 0.19378-0.51417v-9.3925c0-0.20092-0.07409-0.38302-0.19378-0.51469-0.1197-0.13167-0.28501-0.2129-0.46766-0.2129h-5.29e-4z" fill="url(#linearGradient1777)"/>
 </g>
 <path d="m32.017 31.476c-3.7316 0-4.5966 2.3257-4.4066 5.3683 6e-3 0.10056 0.025 0.20857 0.0335 0.31064-2e-3 -0.0013-9e-3 -0.01436-0.0112-0.01488 0 0-1.332-0.05154-0.97656 1.2723 0.3554 1.3239 1.0301 2.7355 1.7764 2.8943 0.0252 0.0054 0.0427-0.0068 0.0633-0.01116 0.18256 0.4947 0.3871 0.93855 0.62128 1.3151v0.59896s0.23078 1.828-1.0751 2.5037c-1.306 0.67564-5.6291 2.7013-5.8612 3.0766-0.23216 0.37536-0.57934 1.4584 0.40737 1.7336h18.824c0.98673-0.27526 0.63955-1.3583 0.40737-1.7336-0.23218-0.37536-4.5554-2.4009-5.8612-3.0766-1.306-0.67564-1.0751-2.5037-1.0751-2.5037v-0.54129c0.14843-0.23256 0.29062-0.47779 0.41853-0.75707 0.0687-0.14998 0.12496-0.32963 0.18787-0.49293 0.0241 0.0081 0.0471 0.01963 0.0781 0.01302 0.74634-0.15884 1.421-1.5705 1.7764-2.8943 0.35133-1.3087-0.93752-1.2715-0.96726-1.2705 0.29357-3.2432-0.46089-5.7906-4.3601-5.7906z" fill="none" stroke="#0050b4" stroke-width=".95238"/>
</svg>
