<svg width="24" height="24" version="1.1" xmlns="http://www.w3.org/2000/svg">
 <defs>
  <style id="current-color-scheme" type="text/css">.ColorScheme-Text { color:#fbfbfb; } .ColorScheme-Highlight { color:#4285f4; }</style>
 </defs>
 <path class="ColorScheme-Text" d="M 22 2 L 2 4.125 L 2 4.5664062 L 2 19.875 L 14.513672 21.205078 A 5.0000005 5 0 0 0 19 24 A 5.0000005 5 0 0 0 24 19 A 5.0000005 5 0 0 0 22 15.001953 L 22 15 L 22 2 z M 21 3.1328125 L 21 14.417969 A 5.0000005 5 0 0 0 19 14 A 5.0000005 5 0 0 0 14 19 A 5.0000005 5 0 0 0 14.134766 20.152344 L 3 18.992188 L 3 5.0078125 L 21 3.1328125 z M 15.375 7 C 15.028756 7 14.75 7.2787561 14.75 7.625 L 14.75 8.9511719 C 13.733322 7.608562 12.087536 6.8618558 10.382812 7.0214844 C 8.4734079 7.200279 6.8409084 8.4771385 6.2070312 10.287109 A 0.625 0.62500004 0 0 0 6.5878906 11.083984 A 0.625 0.62500004 0 0 0 7.3867188 10.699219 C 7.8601279 9.347449 9.0720146 8.40111 10.498047 8.2675781 C 11.680744 8.1568313 12.819262 8.6297158 13.583984 9.5 L 12.875 9.5 C 12.52875 9.5 12.25 9.7787501 12.25 10.125 C 12.25 10.47125 12.52875 10.75 12.875 10.75 L 15.375 10.75 C 15.72125 10.75 16 10.47125 16 10.125 L 16 7.625 C 16 7.2787561 15.721244 7 15.375 7 z M 15.259766 12.900391 A 0.625 0.62500004 0 0 0 14.697266 13.314453 C 14.218538 14.661016 13.003293 15.606446 11.580078 15.736328 C 10.400193 15.844005 9.2660717 15.368585 8.5039062 14.5 L 9.125 14.5 C 9.4712498 14.5 9.75 14.22125 9.75 13.875 C 9.75 13.52875 9.4712498 13.25 9.125 13.25 L 6.625 13.25 C 6.2787502 13.25 6 13.52875 6 13.875 L 6 16.375 C 6 16.721244 6.2787559 17 6.625 17 C 6.9712441 17 7.25 16.721244 7.25 16.375 L 7.25 14.919922 C 8.2548076 16.339183 9.9415496 17.140518 11.695312 16.980469 C 13.600979 16.806557 15.233992 15.539354 15.875 13.736328 A 0.625 0.62500004 0 0 0 15.494141 12.935547 A 0.625 0.62500004 0 0 0 15.259766 12.900391 z M 21.474609 14.65625 A 5.0000005 5 0 0 1 21.589844 14.724609 A 5.0000005 5 0 0 0 21.474609 14.65625 z M 21.427734 16.808594 C 21.573982 16.808594 21.719969 16.8645 21.832031 16.976562 C 22.056156 17.200689 22.056156 17.562984 21.832031 17.787109 L 18.595703 21.023438 C 18.539672 21.079469 18.475101 21.120421 18.40625 21.148438 C 18.199698 21.232484 17.955203 21.191531 17.787109 21.023438 L 16.167969 19.404297 C 15.943844 19.180172 15.943844 18.819828 16.167969 18.595703 C 16.392094 18.371578 16.752437 18.371578 16.976562 18.595703 L 18.191406 19.808594 L 21.023438 16.976562 C 21.1355 16.8645 21.281487 16.808594 21.427734 16.808594 z " fill="currentColor" stroke-width="1.5"/>
</svg>
