<?xml version="1.0" encoding="UTF-8" standalone="no"?>
<svg
   xmlns:dc="http://purl.org/dc/elements/1.1/"
   xmlns:cc="http://creativecommons.org/ns#"
   xmlns:rdf="http://www.w3.org/1999/02/22-rdf-syntax-ns#"
   xmlns:svg="http://www.w3.org/2000/svg"
   xmlns="http://www.w3.org/2000/svg"
   xmlns:sodipodi="http://sodipodi.sourceforge.net/DTD/sodipodi-0.dtd"
   xmlns:inkscape="http://www.inkscape.org/namespaces/inkscape"
   width="24"
   height="24"
   version="1.1"
   id="svg9"
   sodipodi:docname="weather-severe-alert.svg"
   inkscape:version="0.92.5 (2060ec1f9f, 2020-04-08)">
  <metadata
     id="metadata13">
    <rdf:RDF>
      <cc:Work
         rdf:about="">
        <dc:format>image/svg+xml</dc:format>
        <dc:type
           rdf:resource="http://purl.org/dc/dcmitype/StillImage" />
      </cc:Work>
    </rdf:RDF>
  </metadata>
  <sodipodi:namedview
     pagecolor="#ffffff"
     bordercolor="#666666"
     borderopacity="1"
     objecttolerance="10"
     gridtolerance="10"
     guidetolerance="10"
     inkscape:pageopacity="0"
     inkscape:pageshadow="2"
     inkscape:window-width="1920"
     inkscape:window-height="971"
     id="namedview11"
     showgrid="false"
     inkscape:zoom="9.8333333"
     inkscape:cx="12"
     inkscape:cy="12"
     inkscape:window-x="0"
     inkscape:window-y="38"
     inkscape:window-maximized="1"
     inkscape:current-layer="svg9" />
  <defs
     id="defs3">
    <style
       id="current-color-scheme"
       type="text/css">
   .ColorScheme-Text { color:#dfdfdf; } .ColorScheme-Highlight { color:#4285f4; }
  </style>
    <filter
       style="color-interpolation-filters:sRGB"
       id="filter1012"
       x="-0.048060998"
       y="-0.076366"
       width="1.0961"
       height="1.1526999">
      <feGaussianBlur
         stdDeviation="0.18772996"
         id="feGaussianBlur823" />
    </filter>
    <linearGradient
       id="linearGradient992"
       x1="13.152"
       x2="20.621"
       y1="9.1260004"
       y2="9.1260004"
       gradientTransform="matrix(1.5222658,0,0,1.5222658,-15.780222,-7.3330885)"
       gradientUnits="userSpaceOnUse">
      <stop
         stop-color="#fafafa"
         offset="0"
         id="stop818" />
      <stop
         stop-color="#d4d4d4"
         offset="1"
         id="stop820" />
    </linearGradient>
  </defs>
  <g
     id="g911"
     transform="translate(3.9999478,3.5860743)">
    <path
       id="path853"
       d="m 6.0429688,2.375 a 2.9055999,3.4710314 0 0 0 -2.90625,3.46875 2.9055999,3.4710314 0 0 1 0,0.00195 2.1779344,2.6018767 0 0 0 -2.17773442,2.6015625 2.1779344,2.6018767 0 0 0 2.17773442,2.6015625 h 3.6347656 v -0.933594 -3.9999997 -0.5 h 3 v 4.4999997 0.933594 h 0.1445312 a 2.9055999,3.4710314 0 0 1 0.00195,0 2.9055999,3.4710314 0 0 0 2.9062534,-3.4707 A 2.9055999,3.4710314 0 0 0 9.9179688,4.1074219 2.9055999,3.4710314 0 0 0 8.6953125,4.4355469 2.9055999,3.4710314 0 0 0 6.0429688,2.375 Z m 1.7285156,4.2402344 v 3.4999996 0.933594 h 1 V 10.115234 6.6152344 Z"
       style="opacity:0.3;fill-rule:evenodd;stroke-width:1.36411202;filter:url(#filter1012)"
       inkscape:connector-curvature="0" />
    <path
       id="path855"
       d="m 7.453125,2.0683594 a 3.4951222,3.5934605 0 0 0 -3.4941406,3.5917968 3.4951222,3.5934605 0 0 1 0,0.00195 2.6198194,2.6936492 0 0 0 -2.6191406,2.6933594 2.6198194,2.6936492 0 0 0 2.6191406,2.6933594 h 2.8125 v -0.933594 -3.9999998 -0.5 h 3 v 4.4999998 0.933594 h 2.3417966 a 3.4951222,3.5934605 0 0 1 0.002,0 3.4951222,3.5934605 0 0 0 3.496094,-3.591797 3.4951222,3.5934605 0 0 0 -3.496094,-3.59375 3.4951222,3.5934605 0 0 0 -1.470703,0.3378907 3.4951222,3.5934605 0 0 0 -3.191406,-2.1328125 z m 0.3183594,4.546875 v 3.4999996 0.933594 h 1 V 10.115234 6.6152344 Z"
       style="fill:url(#linearGradient992);fill-rule:evenodd;stroke-width:1.52226579"
       inkscape:connector-curvature="0" />
    <path
       style="color:#4285f4;fill:currentColor"
       class="ColorScheme-Highlight"
       d="m 7.2711861,6.1152371 v 3.9999999 2 h 2 v -2 -3.9999999 z m 0,6.9999999 v 2 h 2 v -2 z"
       id="path894"
       inkscape:connector-curvature="0" />
  </g>
</svg>
