<?xml version="1.0" encoding="UTF-8" standalone="no"?>
<svg
   xmlns:dc="http://purl.org/dc/elements/1.1/"
   xmlns:cc="http://creativecommons.org/ns#"
   xmlns:rdf="http://www.w3.org/1999/02/22-rdf-syntax-ns#"
   xmlns:svg="http://www.w3.org/2000/svg"
   xmlns="http://www.w3.org/2000/svg"
   xmlns:sodipodi="http://sodipodi.sourceforge.net/DTD/sodipodi-0.dtd"
   xmlns:inkscape="http://www.inkscape.org/namespaces/inkscape"
   width="24"
   height="24"
   version="1.1"
   id="svg9"
   sodipodi:docname="weather-few-clouds.svg"
   inkscape:version="0.92.5 (2060ec1f9f, 2020-04-08)">
  <metadata
     id="metadata13">
    <rdf:RDF>
      <cc:Work
         rdf:about="">
        <dc:format>image/svg+xml</dc:format>
        <dc:type
           rdf:resource="http://purl.org/dc/dcmitype/StillImage" />
      </cc:Work>
    </rdf:RDF>
  </metadata>
  <sodipodi:namedview
     pagecolor="#ffffff"
     bordercolor="#666666"
     borderopacity="1"
     objecttolerance="10"
     gridtolerance="10"
     guidetolerance="10"
     inkscape:pageopacity="0"
     inkscape:pageshadow="2"
     inkscape:window-width="1920"
     inkscape:window-height="971"
     id="namedview11"
     showgrid="false"
     inkscape:zoom="9.8333333"
     inkscape:cx="12"
     inkscape:cy="12"
     inkscape:window-x="0"
     inkscape:window-y="38"
     inkscape:window-maximized="1"
     inkscape:current-layer="svg9" />
  <defs
     id="defs3">
    <style
       id="current-color-scheme"
       type="text/css">
   .ColorScheme-Text { color:#dfdfdf; } .ColorScheme-Highlight { color:#4285f4; }
  </style>
    <linearGradient
       gradientTransform="matrix(0.85494046,0,0,0.85494046,-2.151029,2.2750079)"
       id="linearGradient885"
       x1="5.9587002"
       x2="16.556"
       y1="1.0462"
       y2="11.644"
       gradientUnits="userSpaceOnUse">
      <stop
         stop-color="#ffcd00"
         offset="0"
         id="stop826" />
      <stop
         stop-color="#e16405"
         offset="1"
         id="stop828" />
    </linearGradient>
    <filter
       style="color-interpolation-filters:sRGB"
       id="filter1012"
       x="-0.048060998"
       y="-0.076366"
       width="1.0961"
       height="1.1526999">
      <feGaussianBlur
         stdDeviation="0.18772996"
         id="feGaussianBlur823" />
    </filter>
    <linearGradient
       id="linearGradient992"
       x1="13.152"
       x2="20.621"
       y1="9.1260004"
       y2="9.1260004"
       gradientTransform="matrix(0.85495515,0,0,0.85495515,-2.1299959,2.6174204)"
       gradientUnits="userSpaceOnUse">
      <stop
         stop-color="#fafafa"
         offset="0"
         id="stop818" />
      <stop
         stop-color="#d4d4d4"
         offset="1"
         id="stop820" />
    </linearGradient>
  </defs>
  <g
     id="g889"
     transform="translate(3.873117,4)">
    <path
       style="fill:url(#linearGradient885);stroke-width:0.02650829"
       inkscape:connector-curvature="0"
       d="m 14.354452,7.6573715 c 0,0.8135012 -0.143195,1.5934379 -0.405788,2.3163758 -0.18253,0.5024317 -0.422667,0.9774537 -0.712953,1.4168057 -0.121589,0.184735 -0.252327,0.363136 -0.391093,0.534578 -0.444269,0.548692 -0.972238,1.026527 -1.564883,1.414328 -0.218266,0.14292 -0.445116,0.273666 -0.679976,0.39081 -0.912052,0.456436 -1.9416555,0.713192 -3.0312772,0.713192 -1.0896216,0 -2.1192265,-0.256756 -3.031277,-0.713209 C 4.3023186,13.613082 4.075195,13.482353 3.8569372,13.339442 3.2567177,12.946408 2.7224311,12.461076 2.2746134,11.903313 2.1355829,11.730478 2.0051104,11.550436 1.8835207,11.364042 1.6009971,10.931965 1.3669657,10.465757 1.1880438,9.9730543 0.92549151,9.2503995 0.78254551,8.4707532 0.78254551,7.6575339 c 0,-3.7478026 3.03820209,-6.78600474 6.78600459,-6.78600474 1.8812963,0 3.5835689,0.76557364 4.8128029,2.00192864 0.354244,0.3561768 0.669187,0.7517321 0.937271,1.1793905 0.253439,0.4027367 0.465318,0.8342509 0.630116,1.2882242 0.26262,0.7229207 0.405805,1.5029 0.405805,2.3163759 z"
       id="path851" />
    <g
       transform="matrix(1.1698009,0,0,1.1698009,-2.6606935,-0.44590704)"
       id="g850">
      <path
         id="path853"
         d="m 15.187,6.176 a 2.296,2.3606 0 0 1 2.0957,1.4016 2.296,2.3606 0 0 1 0.9664,-0.22286 2.296,2.3606 0 0 1 2.296,2.3606 2.296,2.3606 0 0 1 -2.296,2.3606 2.296,2.3606 0 0 1 -7.47e-4,0 h -5.3574 a 1.721,1.7695 0 0 1 -1.7205,-1.7697 1.721,1.7695 0 0 1 1.7205,-1.7689 2.296,2.3606 0 0 0 0,-7.6e-4 2.296,2.3606 0 0 1 0,-0.001 2.296,2.3606 0 0 1 2.296,-2.3591 z"
         transform="matrix(0.71074986,0,0,0.82582683,-0.66762934,2.9691404)"
         inkscape:connector-curvature="0"
         style="opacity:0.3;fill-rule:evenodd;filter:url(#filter1012)" />
      <path
         id="path855"
         d="M 10.919065,7.8976234 A 1.962977,2.0182071 0 0 1 12.710794,9.0959285 1.962977,2.0182071 0 0 1 13.537023,8.9053932 1.962977,2.0182071 0 0 1 15.5,10.9236 a 1.962977,2.0182071 0 0 1 -1.962977,2.018207 1.962977,2.0182071 0 0 1 -6.39e-4,0 H 8.9560476 a 1.4713778,1.5128431 0 0 1 -1.4709503,-1.513014 1.4713778,1.5128431 0 0 1 1.4709503,-1.5123298 1.962977,2.0182071 0 0 0 0,-6.498e-4 1.962977,2.0182071 0 0 1 0,-8.549e-4 1.962977,2.0182071 0 0 1 1.9629774,-2.0169247 z"
         inkscape:connector-curvature="0"
         style="fill:url(#linearGradient992);fill-rule:evenodd;stroke-width:0.85495514" />
    </g>
  </g>
</svg>
