<?xml version="1.0" encoding="UTF-8" standalone="no"?>
<svg
   xmlns:dc="http://purl.org/dc/elements/1.1/"
   xmlns:cc="http://creativecommons.org/ns#"
   xmlns:rdf="http://www.w3.org/1999/02/22-rdf-syntax-ns#"
   xmlns:svg="http://www.w3.org/2000/svg"
   xmlns="http://www.w3.org/2000/svg"
   xmlns:xlink="http://www.w3.org/1999/xlink"
   xmlns:sodipodi="http://sodipodi.sourceforge.net/DTD/sodipodi-0.dtd"
   xmlns:inkscape="http://www.inkscape.org/namespaces/inkscape"
   width="24"
   height="24"
   version="1.1"
   id="svg9"
   sodipodi:docname="weather-clouds-night.svg"
   inkscape:version="0.92.5 (2060ec1f9f, 2020-04-08)">
  <metadata
     id="metadata13">
    <rdf:RDF>
      <cc:Work
         rdf:about="">
        <dc:format>image/svg+xml</dc:format>
        <dc:type
           rdf:resource="http://purl.org/dc/dcmitype/StillImage" />
      </cc:Work>
    </rdf:RDF>
  </metadata>
  <sodipodi:namedview
     pagecolor="#ffffff"
     bordercolor="#666666"
     borderopacity="1"
     objecttolerance="10"
     gridtolerance="10"
     guidetolerance="10"
     inkscape:pageopacity="0"
     inkscape:pageshadow="2"
     inkscape:window-width="1920"
     inkscape:window-height="971"
     id="namedview11"
     showgrid="false"
     inkscape:zoom="9.8333333"
     inkscape:cx="12"
     inkscape:cy="12"
     inkscape:window-x="0"
     inkscape:window-y="38"
     inkscape:window-maximized="1"
     inkscape:current-layer="svg9" />
  <defs
     id="defs3">
    <style
       id="current-color-scheme"
       type="text/css">
   .ColorScheme-Text { color:#dfdfdf; } .ColorScheme-Highlight { color:#4285f4; }
  </style>
    <linearGradient
       gradientUnits="userSpaceOnUse"
       y2="7.9986448"
       x2="14"
       y1="7.9986448"
       x1="1.9998363"
       id="linearGradient874"
       xlink:href="#linearGradient885"
       inkscape:collect="always"
       gradientTransform="translate(8.168431e-5,-0.26983108)" />
    <linearGradient
       gradientUnits="userSpaceOnUse"
       y2="11.644"
       y1="1.0462"
       x2="16.556"
       x1="5.9587002"
       id="linearGradient885"
       gradientTransform="matrix(0.85494046,0,0,0.85494046,-1.7195744,2.6175126)">
      <stop
         id="stop826"
         offset="0"
         stop-color="#ffcd00" />
      <stop
         id="stop828"
         offset="1"
         stop-color="#e16405" />
    </linearGradient>
    <filter
       style="color-interpolation-filters:sRGB"
       id="filter1012-3"
       x="-0.048060998"
       y="-0.076366"
       width="1.0961"
       height="1.1526999">
      <feGaussianBlur
         stdDeviation="0.18772996"
         id="feGaussianBlur823-6" />
    </filter>
    <linearGradient
       gradientUnits="userSpaceOnUse"
       gradientTransform="matrix(0.85495515,0,0,0.85495515,-2.1299959,2.6174204)"
       y2="9.1260004"
       y1="9.1260004"
       x2="20.621"
       x1="13.152"
       id="linearGradient992">
      <stop
         id="stop818"
         offset="0"
         stop-color="#fafafa" />
      <stop
         id="stop820"
         offset="1"
         stop-color="#d4d4d4" />
    </linearGradient>
  </defs>
  <g
     transform="translate(4.0000004,3.6979369)"
     id="g844">
    <path
       inkscape:connector-curvature="0"
       style="color:#dfdfdf;fill:url(#linearGradient874);fill-opacity:1"
       class="ColorScheme-Text"
       d="m 8.6420817,0.73016896 c -2.723,0.1 -5.232,1.81000004 -6.221,4.57000004 -1.303,3.64 0.516,7.69 4.096,9.01 2.718,1 5.6560003,0.14 7.4830003,-1.91 -1.308,0.43 -2.765,0.45 -4.1570003,-0.06 -3.324,-1.23 -5.029,-4.98 -3.819,-8.36 0.507,-1.41 1.453,-2.51 2.618,-3.25000004 z"
       id="path5-6" />
    <g
       transform="matrix(1.7805212,0,0,1.7805212,-11.987719,-7.8313675)"
       id="g850">
      <path
         id="path853"
         d="m 15.187,6.176 a 2.296,2.3606 0 0 1 2.0957,1.4016 2.296,2.3606 0 0 1 0.9664,-0.22286 2.296,2.3606 0 0 1 2.296,2.3606 2.296,2.3606 0 0 1 -2.296,2.3606 2.296,2.3606 0 0 1 -7.47e-4,0 h -5.3574 a 1.721,1.7695 0 0 1 -1.7205,-1.7697 1.721,1.7695 0 0 1 1.7205,-1.7689 2.296,2.3606 0 0 0 0,-7.6e-4 2.296,2.3606 0 0 1 0,-0.001 2.296,2.3606 0 0 1 2.296,-2.3591 z"
         transform="matrix(0.71074986,0,0,0.82582683,-0.66762934,2.9691404)"
         inkscape:connector-curvature="0"
         style="opacity:0.3;fill-rule:evenodd;filter:url(#filter1012-3)" />
      <path
         id="path855"
         d="M 10.919065,7.8976234 A 1.962977,2.0182071 0 0 1 12.710794,9.0959285 1.962977,2.0182071 0 0 1 13.537023,8.9053932 1.962977,2.0182071 0 0 1 15.5,10.9236 a 1.962977,2.0182071 0 0 1 -1.962977,2.018207 1.962977,2.0182071 0 0 1 -6.39e-4,0 H 8.9560476 a 1.4713778,1.5128431 0 0 1 -1.4709503,-1.513014 1.4713778,1.5128431 0 0 1 1.4709503,-1.5123298 1.962977,2.0182071 0 0 0 0,-6.498e-4 1.962977,2.0182071 0 0 1 0,-8.549e-4 1.962977,2.0182071 0 0 1 1.9629774,-2.0169247 z"
         inkscape:connector-curvature="0"
         style="fill:url(#linearGradient992);fill-rule:evenodd;stroke-width:0.85495514" />
    </g>
  </g>
</svg>
