<?xml version="1.0" encoding="UTF-8" standalone="no"?>
<svg
   xmlns:dc="http://purl.org/dc/elements/1.1/"
   xmlns:cc="http://creativecommons.org/ns#"
   xmlns:rdf="http://www.w3.org/1999/02/22-rdf-syntax-ns#"
   xmlns:svg="http://www.w3.org/2000/svg"
   xmlns="http://www.w3.org/2000/svg"
   xmlns:xlink="http://www.w3.org/1999/xlink"
   xmlns:sodipodi="http://sodipodi.sourceforge.net/DTD/sodipodi-0.dtd"
   xmlns:inkscape="http://www.inkscape.org/namespaces/inkscape"
   width="24"
   height="24"
   version="1.1"
   id="svg9"
   sodipodi:docname="weather-storm.svg"
   inkscape:version="0.92.5 (2060ec1f9f, 2020-04-08)">
  <metadata
     id="metadata13">
    <rdf:RDF>
      <cc:Work
         rdf:about="">
        <dc:format>image/svg+xml</dc:format>
        <dc:type
           rdf:resource="http://purl.org/dc/dcmitype/StillImage" />
      </cc:Work>
    </rdf:RDF>
  </metadata>
  <sodipodi:namedview
     pagecolor="#ffffff"
     bordercolor="#666666"
     borderopacity="1"
     objecttolerance="10"
     gridtolerance="10"
     guidetolerance="10"
     inkscape:pageopacity="0"
     inkscape:pageshadow="2"
     inkscape:window-width="1920"
     inkscape:window-height="971"
     id="namedview11"
     showgrid="false"
     inkscape:zoom="9.8333333"
     inkscape:cx="12"
     inkscape:cy="12"
     inkscape:window-x="0"
     inkscape:window-y="38"
     inkscape:window-maximized="1"
     inkscape:current-layer="svg9" />
  <defs
     id="defs3">
    <style
       id="current-color-scheme"
       type="text/css">
   .ColorScheme-Text { color:#dfdfdf; } .ColorScheme-Highlight { color:#4285f4; }
  </style>
    <linearGradient
       inkscape:collect="always"
       xlink:href="#linearGradient3490"
       id="linearGradient971"
       x1="8.2146673"
       y1="15.55782"
       x2="8.2146673"
       y2="7.5978322"
       gradientUnits="userSpaceOnUse" />
    <linearGradient
       id="linearGradient3490"
       x1="19.843"
       x2="33.837002"
       y1="-82.283997"
       y2="-72.245003"
       gradientUnits="userSpaceOnUse">
      <stop
         stop-color="#0c35f9"
         offset="0"
         id="stop933" />
      <stop
         stop-color="#2acbd7"
         offset="1"
         id="stop935" />
    </linearGradient>
    <filter
       style="color-interpolation-filters:sRGB"
       height="1.1526999"
       width="1.0961"
       y="-0.076366"
       x="-0.048060998"
       id="filter1012-7">
      <feGaussianBlur
         id="feGaussianBlur823-0"
         stdDeviation="0.18772996" />
    </filter>
    <linearGradient
       y2="9.1260004"
       x2="20.621"
       y1="9.1260004"
       x1="13.152"
       gradientTransform="matrix(1.5222658,0,0,1.5222658,-15.780222,-8.2986915)"
       gradientUnits="userSpaceOnUse"
       id="linearGradient900"
       xlink:href="#linearGradient992"
       inkscape:collect="always" />
    <linearGradient
       id="linearGradient992"
       x1="13.152"
       x2="20.621"
       y1="9.1260004"
       y2="9.1260004"
       gradientTransform="matrix(0.85495515,0,0,0.85495515,-2.1299959,2.6174204)"
       gradientUnits="userSpaceOnUse">
      <stop
         stop-color="#fafafa"
         offset="0"
         id="stop818" />
      <stop
         stop-color="#d4d4d4"
         offset="1"
         id="stop820" />
    </linearGradient>
  </defs>
  <g
     id="g976"
     transform="translate(3.9999478,3.8428933)">
    <path
       inkscape:connector-curvature="0"
       id="path7"
       d="m 8.1446675,7.597832 c -0.2,0.07 -0.35,0.28 -0.34,0.5 v 3.78 l -0.03,0.09 -0.63,0.63 h -0.03 -1.81 -0.22 l -0.12,0.16 -0.9999999,1 c -0.26,0.15 -0.31,0.56 -0.1,0.78 0.22,0.21 0.6299999,0.16 0.7799999,-0.1 l 0.85,-0.84 h 1.31 v 1.4 c 0,0.26 0.24,0.51 0.5,0.51 0.26,0 0.5,-0.25 0.5,-0.51 v -1.71 l 0.69,-0.69 h 2.1200005 l 0.75,0.75 -1.4000005,1.31 c -0.26,0.15 -0.31,0.56 -0.1,0.78 0.2200005,0.21 0.6300005,0.16 0.7800005,-0.1 l 1.41,-1.3 1.41,1.3 c 0.15,0.26 0.56,0.31 0.78,0.1 0.21,-0.22 0.16,-0.63 -0.1,-0.78 l -3,-2.9 -0.12,-0.16 h -0.22 -2.0000005 v -3.5 c 0,-0.3 -0.3,-0.56 -0.59,-0.5 z"
       class="ColorScheme-Highlight"
       style="color:#4285f4;fill:url(#linearGradient971);fill-opacity:1" />
    <path
       id="path894"
       d="m 6.0429688,1.4082031 v 0.00195 a 2.9055999,3.4710314 0 0 0 -2.90625,3.46875 2.9055999,3.4710314 0 0 0 0,0.00195 A 2.1779344,2.6018767 0 0 0 0.95898438,7.4824219 2.1779344,2.6018767 0 0 0 3.1367188,10.083984 H 7.3046875 V 8.1210938 C 7.2837335,7.6601054 7.5597446,7.2722534 7.9804688,7.125 l 0.080078,-0.027344 h 0.1542969 c 0.5931813,-0.062469 1.0898437,0.4009863 1.0898437,1 v 1.986328 h 0.6113281 a 2.9055999,3.4710314 0 0 1 0.00195,0 A 2.9055999,3.4710314 0 0 0 12.824219,6.6132812 2.9055999,3.4710314 0 0 0 9.9179688,3.1425781 2.9055999,3.4710314 0 0 0 8.6953125,3.46875 2.9055999,3.4710314 0 0 0 6.0429688,1.4082031 Z m 2.2734374,6.6796875 -0.011719,0.00195 v 0.00781 c 0,0.033329 -0.045916,0.00216 0.011719,-0.00977 z"
       style="opacity:0.3;fill-rule:evenodd;stroke-width:1.36411202;filter:url(#filter1012-7)"
       inkscape:connector-curvature="0" />
    <path
       id="path896"
       d="m 7.453125,1.1035156 a 3.4951222,3.5934605 0 0 0 -3.4941406,3.5917969 3.4951222,3.5934605 0 0 0 0,0.00195 2.6198194,2.6936492 0 0 0 -2.6191406,2.6933594 2.6198194,2.6936492 0 0 0 2.6191406,2.6933591 H 7.3046875 V 8.1210938 C 7.2837335,7.6601054 7.5597446,7.2722534 7.9804688,7.125 l 0.080078,-0.027344 h 0.1542969 c 0.5931813,-0.062469 1.0898437,0.4009863 1.0898437,1 v 1.986328 h 2.8085936 a 3.4951222,3.5934605 0 0 1 0.002,0 3.4951222,3.5934605 0 0 0 3.496094,-3.5937498 3.4951222,3.5934605 0 0 0 -3.496094,-3.59375 3.4951222,3.5934605 0 0 0 -1.470703,0.3398437 3.4951222,3.5934605 0 0 0 -3.1914061,-2.1328125 z m 0.8632812,6.984375 -0.011719,0.00195 v 0.00781 c 0,0.033329 -0.045916,0.00216 0.011719,-0.00977 z"
       style="fill:url(#linearGradient900);fill-rule:evenodd;stroke-width:1.52226579"
       inkscape:connector-curvature="0" />
  </g>
</svg>
