<?xml version="1.0" encoding="UTF-8" standalone="no"?>
<svg
   xmlns:dc="http://purl.org/dc/elements/1.1/"
   xmlns:cc="http://creativecommons.org/ns#"
   xmlns:rdf="http://www.w3.org/1999/02/22-rdf-syntax-ns#"
   xmlns:svg="http://www.w3.org/2000/svg"
   xmlns="http://www.w3.org/2000/svg"
   xmlns:xlink="http://www.w3.org/1999/xlink"
   xmlns:sodipodi="http://sodipodi.sourceforge.net/DTD/sodipodi-0.dtd"
   xmlns:inkscape="http://www.inkscape.org/namespaces/inkscape"
   width="24"
   height="24"
   version="1.1"
   id="svg9"
   sodipodi:docname="weather-overcast.svg"
   inkscape:version="0.92.5 (2060ec1f9f, 2020-04-08)">
  <metadata
     id="metadata13">
    <rdf:RDF>
      <cc:Work
         rdf:about="">
        <dc:format>image/svg+xml</dc:format>
        <dc:type
           rdf:resource="http://purl.org/dc/dcmitype/StillImage" />
      </cc:Work>
    </rdf:RDF>
  </metadata>
  <sodipodi:namedview
     pagecolor="#ffffff"
     bordercolor="#666666"
     borderopacity="1"
     objecttolerance="10"
     gridtolerance="10"
     guidetolerance="10"
     inkscape:pageopacity="0"
     inkscape:pageshadow="2"
     inkscape:window-width="1920"
     inkscape:window-height="971"
     id="namedview11"
     showgrid="false"
     inkscape:zoom="9.8333333"
     inkscape:cx="12"
     inkscape:cy="12"
     inkscape:window-x="0"
     inkscape:window-y="38"
     inkscape:window-maximized="1"
     inkscape:current-layer="svg9" />
  <defs
     id="defs3">
    <style
       id="current-color-scheme"
       type="text/css">
   .ColorScheme-Text { color:#dfdfdf; } .ColorScheme-Highlight { color:#4285f4; }
  </style>
    <filter
       style="color-interpolation-filters:sRGB"
       id="filter1012"
       x="-0.048060998"
       y="-0.076366"
       width="1.0961"
       height="1.1526999">
      <feGaussianBlur
         stdDeviation="0.18772996"
         id="feGaussianBlur823" />
    </filter>
    <linearGradient
       inkscape:collect="always"
       xlink:href="#linearGradient992"
       id="linearGradient900"
       gradientUnits="userSpaceOnUse"
       gradientTransform="matrix(0.85495515,0,0,0.85495515,-2.1299959,2.6174204)"
       x1="13.152"
       y1="9.1260004"
       x2="20.621"
       y2="9.1260004" />
    <linearGradient
       id="linearGradient992"
       x1="13.152"
       x2="20.621"
       y1="9.1260004"
       y2="9.1260004"
       gradientTransform="matrix(0.85495515,0,0,0.85495515,-2.1299959,2.6174204)"
       gradientUnits="userSpaceOnUse">
      <stop
         stop-color="#fafafa"
         offset="0"
         id="stop818" />
      <stop
         stop-color="#d4d4d4"
         offset="1"
         id="stop820" />
    </linearGradient>
    <filter
       inkscape:collect="always"
       style="color-interpolation-filters:sRGB"
       id="filter1022"
       x="-0.048880517"
       width="1.097761"
       y="-0.077668183"
       height="1.1553364">
      <feGaussianBlur
         inkscape:collect="always"
         stdDeviation="0.21005229"
         id="feGaussianBlur1024" />
    </filter>
    <linearGradient
       inkscape:collect="always"
       xlink:href="#linearGradient992"
       id="linearGradient896"
       gradientUnits="userSpaceOnUse"
       gradientTransform="matrix(1.10014,0,0,1.10014,-7.6266213,0.93467994)"
       x1="13.152"
       y1="9.1260004"
       x2="20.621"
       y2="9.1260004" />
  </defs>
  <g
     transform="translate(4.0000004,4.0000002)"
     id="g1031">
    <g
       transform="matrix(1.7805212,0,0,1.7805212,-11.987719,-12.429355)"
       id="g850">
      <path
         id="path853"
         d="m 15.187,6.176 a 2.296,2.3606 0 0 1 2.0957,1.4016 2.296,2.3606 0 0 1 0.9664,-0.22286 2.296,2.3606 0 0 1 2.296,2.3606 2.296,2.3606 0 0 1 -2.296,2.3606 2.296,2.3606 0 0 1 -7.47e-4,0 h -5.3574 a 1.721,1.7695 0 0 1 -1.7205,-1.7697 1.721,1.7695 0 0 1 1.7205,-1.7689 2.296,2.3606 0 0 0 0,-7.6e-4 2.296,2.3606 0 0 1 0,-0.001 2.296,2.3606 0 0 1 2.296,-2.3591 z"
         transform="matrix(0.71074986,0,0,0.82582683,-0.66762934,2.9691404)"
         inkscape:connector-curvature="0"
         style="opacity:0.3;fill-rule:evenodd;filter:url(#filter1012)" />
      <path
         id="path855"
         d="M 10.919065,7.8976234 A 1.962977,2.0182071 0 0 1 12.710794,9.0959285 1.962977,2.0182071 0 0 1 13.537023,8.9053932 1.962977,2.0182071 0 0 1 15.5,10.9236 a 1.962977,2.0182071 0 0 1 -1.962977,2.018207 1.962977,2.0182071 0 0 1 -6.39e-4,0 H 8.9560476 a 1.4713778,1.5128431 0 0 1 -1.4709503,-1.513014 1.4713778,1.5128431 0 0 1 1.4709503,-1.5123298 1.962977,2.0182071 0 0 0 0,-6.498e-4 1.962977,2.0182071 0 0 1 0,-8.549e-4 1.962977,2.0182071 0 0 1 1.9629774,-2.0169247 z"
         inkscape:connector-curvature="0"
         style="fill:url(#linearGradient900);fill-rule:evenodd;stroke-width:0.85495514" />
    </g>
    <path
       transform="matrix(1.0343111,0,0,1.0343111,-0.53399839,-0.50519707)"
       style="opacity:0.3;fill:#000000;fill-opacity:1;fill-rule:evenodd;stroke-width:1.10013998;filter:url(#filter1022)"
       inkscape:connector-curvature="0"
       d="m 9.1646624,7.7291448 a 2.5259215,2.5969906 0 0 1 2.3055626,1.5419563 2.5259215,2.5969906 0 0 1 1.063176,-0.2451772 2.5259215,2.5969906 0 0 1 2.525921,2.5969901 2.5259215,2.5969906 0 0 1 -2.525921,2.59699 2.5259215,2.5969906 0 0 1 -8.23e-4,0 H 6.6386889 a 1.893341,1.9466978 0 0 1 -1.8927909,-1.946918 1.893341,1.9466978 0 0 1 1.8927909,-1.946037 2.5259215,2.5969906 0 0 0 0,-8.36e-4 2.5259215,2.5969906 0 0 1 0,-0.0011 2.5259215,2.5969906 0 0 1 2.525922,-2.5953401 z"
       id="path934" />
    <path
       id="path855-0"
       d="m 9.1646624,7.7291448 a 2.5259215,2.5969906 0 0 1 2.3055626,1.5419563 2.5259215,2.5969906 0 0 1 1.063176,-0.2451772 2.5259215,2.5969906 0 0 1 2.525921,2.5969901 2.5259215,2.5969906 0 0 1 -2.525921,2.59699 2.5259215,2.5969906 0 0 1 -8.23e-4,0 H 6.6386889 a 1.893341,1.9466978 0 0 1 -1.8927909,-1.946918 1.893341,1.9466978 0 0 1 1.8927909,-1.946037 2.5259215,2.5969906 0 0 0 0,-8.36e-4 2.5259215,2.5969906 0 0 1 0,-0.0011 2.5259215,2.5969906 0 0 1 2.525922,-2.5953401 z"
       inkscape:connector-curvature="0"
       style="fill:url(#linearGradient896);fill-rule:evenodd;stroke-width:1.10013998" />
  </g>
</svg>
