<?xml version="1.0" encoding="UTF-8" standalone="no"?>
<svg
   xmlns:dc="http://purl.org/dc/elements/1.1/"
   xmlns:cc="http://creativecommons.org/ns#"
   xmlns:rdf="http://www.w3.org/1999/02/22-rdf-syntax-ns#"
   xmlns:svg="http://www.w3.org/2000/svg"
   xmlns="http://www.w3.org/2000/svg"
   xmlns:sodipodi="http://sodipodi.sourceforge.net/DTD/sodipodi-0.dtd"
   xmlns:inkscape="http://www.inkscape.org/namespaces/inkscape"
   width="24"
   height="24"
   version="1.1"
   id="svg9"
   sodipodi:docname="weather-clear.svg"
   inkscape:version="0.92.5 (2060ec1f9f, 2020-04-08)">
  <metadata
     id="metadata13">
    <rdf:RDF>
      <cc:Work
         rdf:about="">
        <dc:format>image/svg+xml</dc:format>
        <dc:type
           rdf:resource="http://purl.org/dc/dcmitype/StillImage" />
      </cc:Work>
    </rdf:RDF>
  </metadata>
  <sodipodi:namedview
     pagecolor="#ffffff"
     bordercolor="#666666"
     borderopacity="1"
     objecttolerance="10"
     gridtolerance="10"
     guidetolerance="10"
     inkscape:pageopacity="0"
     inkscape:pageshadow="2"
     inkscape:window-width="1920"
     inkscape:window-height="971"
     id="namedview11"
     showgrid="false"
     inkscape:zoom="9.8333333"
     inkscape:cx="12"
     inkscape:cy="12"
     inkscape:window-x="0"
     inkscape:window-y="38"
     inkscape:window-maximized="1"
     inkscape:current-layer="svg9" />
  <defs
     id="defs3">
    <style
       id="current-color-scheme"
       type="text/css">
   .ColorScheme-Text { color:#dfdfdf; } .ColorScheme-Highlight { color:#4285f4; }
  </style>
    <linearGradient
       gradientTransform="matrix(0.85494046,0,0,0.85494046,2.280425,6.6175126)"
       id="linearGradient885"
       x1="5.9587002"
       x2="16.556"
       y1="1.0462"
       y2="11.644"
       gradientUnits="userSpaceOnUse">
      <stop
         stop-color="#ffcd00"
         offset="0"
         id="stop826" />
      <stop
         stop-color="#e16405"
         offset="1"
         id="stop828" />
    </linearGradient>
  </defs>
  <path
     id="path851"
     d="m 18.785907,11.999876 c 0,0.813501 -0.143195,1.593438 -0.405788,2.316376 -0.18253,0.502432 -0.422667,0.977454 -0.712953,1.416806 -0.121589,0.184735 -0.252327,0.363136 -0.391093,0.534578 -0.444269,0.548692 -0.972238,1.026527 -1.564883,1.414328 -0.218266,0.14292 -0.445116,0.273666 -0.679977,0.39081 -0.912052,0.456436 -1.941655,0.713192 -3.031277,0.713192 -1.089622,0 -2.119226,-0.256756 -3.031277,-0.713209 C 8.733773,17.955587 8.506649,17.824858 8.288391,17.681947 7.688172,17.288913 7.153885,16.803581 6.706068,16.245818 6.567037,16.072983 6.436565,15.892941 6.314975,15.706547 6.032451,15.27447 5.79842,14.808262 5.619498,14.315559 5.356946,13.592904 5.214,12.813258 5.214,12.000038 c 0,-3.7478021 3.038202,-6.7860042 6.786004,-6.7860042 1.881297,0 3.58357,0.7655736 4.812804,2.0019286 0.354244,0.3561768 0.669187,0.7517321 0.937271,1.1793906 0.253439,0.4027372 0.465318,0.8342512 0.630116,1.2882242 0.26262,0.7229208 0.405805,1.5028998 0.405805,2.3163758 z"
     inkscape:connector-curvature="0"
     style="fill:url(#linearGradient885);stroke-width:0.02650829" />
</svg>
