<?xml version="1.0" encoding="UTF-8" standalone="no"?>
<svg
   width="22"
   height="22"
   version="1.1"
   id="svg5"
   sodipodi:docname="audio-volume-medium-panel.svg"
   inkscape:version="1.4 (e7c3feb100, 2024-10-09)"
   xmlns:inkscape="http://www.inkscape.org/namespaces/inkscape"
   xmlns:sodipodi="http://sodipodi.sourceforge.net/DTD/sodipodi-0.dtd"
   xmlns="http://www.w3.org/2000/svg"
   xmlns:svg="http://www.w3.org/2000/svg">
  <sodipodi:namedview
     id="namedview5"
     pagecolor="#c8c8c8"
     bordercolor="#000000"
     borderopacity="0.25"
     inkscape:showpageshadow="2"
     inkscape:pageopacity="0.0"
     inkscape:pagecheckerboard="0"
     inkscape:deskcolor="#d1d1d1"
     showgrid="true"
     inkscape:zoom="12.020815"
     inkscape:cx="1.2478355"
     inkscape:cy="8.6100651"
     inkscape:window-width="1920"
     inkscape:window-height="955"
     inkscape:window-x="0"
     inkscape:window-y="34"
     inkscape:window-maximized="1"
     inkscape:current-layer="svg5">
    <inkscape:grid
       id="grid5"
       units="px"
       originx="0"
       originy="0"
       spacingx="1"
       spacingy="1"
       empcolor="#0099e5"
       empopacity="0.30196078"
       color="#0099e5"
       opacity="0.14902"
       empspacing="5"
       dotted="false"
       gridanglex="30"
       gridanglez="30"
       visible="true" />
  </sodipodi:namedview>
  <defs
     id="defs1">
    <style
       id="current-color-scheme"
       type="text/css">
   .ColorScheme-Text { color:#ffffff; } .ColorScheme-Highlight { color:#4285f4; }
  </style>
  </defs>
  <g
     id="g20027"
     transform="translate(-183.05223,-364.5064)">
    <path
       id="path20019"
       class="ColorScheme-Text"
       fill="currentColor"
       d="m 191.43895,370.00519 c -0.18714,-0.0115 -0.55991,0.13962 -0.69141,0.25781 l -2.60351,3.24219 h -2.45508 c -0.90654,0 -1.63672,0.75528 -1.63672,1.75 v 2.49985 c 0,0.99472 0.73018,1.75 1.63672,1.75 h 2.45508 l 2.78515,3.33398 c 0.13148,0.11821 0.32268,0.17756 0.50977,0.16602 0.3118,-0.0193 0.61328,-0.2375 0.61328,-0.71485 v -11.57016 c 0,-0.47735 -0.30137,-0.69552 -0.61328,-0.71484 z m -0.38672,1.45238 v 0.22461 9.58018 0.27344 l -2.48663,-3.03076 h -2.67939 c -0.0571,0 -0.11419,-0.007 -0.16796,-0.0176 -6.3e-4,-1.3e-4 -0.001,1.3e-4 -0.002,0 -0.0537,-0.0109 -0.10491,-0.0262 -0.15429,-0.0469 -5.3e-4,-2.3e-4 -0.001,2.2e-4 -0.002,0 -0.0499,-0.021 -0.0963,-0.0482 -0.14062,-0.0781 -0.0443,-0.0299 -0.0854,-0.0639 -0.12305,-0.10156 -0.0377,-0.0377 -0.0717,-0.0787 -0.10156,-0.12305 -0.0299,-0.0443 -0.0571,-0.0907 -0.0781,-0.14062 -2.3e-4,-5.6e-4 2.4e-4,-10e-4 0,-0.002 -0.0207,-0.0494 -0.0359,-0.10055 -0.0469,-0.15429 -1.3e-4,-6.2e-4 1.2e-4,-10e-4 0,-0.002 -0.006,-0.0272 -0.0108,-0.0539 -0.0137,-0.082 -0.003,-0.0281 -0.004,-0.0571 -0.004,-0.0859 v -2.33188 c 0,-0.057 0.007,-0.11419 0.0176,-0.16797 1.2e-4,-6.2e-4 -1.3e-4,-0.001 0,-0.002 0.0109,-0.0537 0.0262,-0.10491 0.0469,-0.1543 2.2e-4,-5.2e-4 -2.2e-4,-10e-4 0,-0.002 0.021,-0.0499 0.0482,-0.0963 0.0781,-0.14062 0.0299,-0.0443 0.0639,-0.0854 0.10156,-0.12305 0.0377,-0.0377 0.0787,-0.0717 0.12305,-0.10156 0.0443,-0.0299 0.0907,-0.0571 0.14062,-0.0781 5.6e-4,-2.3e-4 0.001,2.3e-4 0.002,0 0.0494,-0.0207 0.10055,-0.0359 0.15429,-0.0469 0.0543,-0.0111 0.11222,-0.0176 0.16992,-0.0176 h 2.67939 z"
       sodipodi:nodetypes="cccsssscccssccccccscccccccccsccssscscccccccscc" />
    <path
       class="ColorScheme-Text"
       fill="currentColor"
       d="m 195.10937,373.44531 a 0.52210999,0.52210999 0 0 0 -0.36914,0.15235 0.52210999,0.52210999 0 0 0 0,0.73828 c 0.57488,0.57487 0.89844,1.35497 0.89844,2.16797 0,0.81299 -0.32356,1.59114 -0.89844,2.16601 a 0.52210999,0.52210999 0 0 0 0,0.73828 0.52210999,0.52210999 0 0 0 0.73829,0 c 0.77042,-0.77042 1.20312,-1.81475 1.20312,-2.90429 0,-1.08954 -0.4327,-2.13583 -1.20312,-2.90625 a 0.52210999,0.52210999 0 0 0 -0.36915,-0.15235 z"
       id="path20021" />
    <path
       class="ColorScheme-Text"
       fill="currentColor"
       d="m 196.99414,371.34375 a 0.52210999,0.52210999 0 0 0 0,0.73828 c 1.17279,1.17279 1.83203,2.76331 1.83203,4.42188 0,1.65856 -0.65924,3.24713 -1.83203,4.41992 a 0.52210999,0.52210999 0 0 0 0,0.73828 0.52210999,0.52210999 0 0 0 0.73828,0 c 1.36833,-1.36833 2.13867,-3.22309 2.13867,-5.1582 0,-1.93511 -0.77034,-3.79183 -2.13867,-5.16016 a 0.52210999,0.52210999 0 0 0 -0.73828,0 z"
       id="path20023"
       style="opacity:1" />
    <path
       class="ColorScheme-Text"
       fill="currentColor"
       d="m 199.48437,369.65234 a 0.52210999,0.52210999 0 0 0 0,0.73828 c 1.62122,1.62122 2.53321,3.82054 2.53321,6.11329 0,2.29274 -0.91199,4.49011 -2.53321,6.11132 a 0.52210999,0.52210999 0 0 0 0,0.73829 0.52210999,0.52210999 0 0 0 0.73829,0 c 1.81676,-1.81677 2.83789,-4.28032 2.83789,-6.84961 0,-2.56929 -1.02113,-5.0348 -2.83789,-6.85157 a 0.52210999,0.52210999 0 0 0 -0.73829,0 z"
       opacity=".30" />
  </g>
</svg>
