<?xml version="1.0" encoding="UTF-8" standalone="no"?>
<svg
   width="22"
   height="22"
   version="1.1"
   id="svg1"
   sodipodi:docname="audio-volume-muted-blocking-panel.svg"
   inkscape:version="1.4 (e7c3feb100, 2024-10-09)"
   xmlns:inkscape="http://www.inkscape.org/namespaces/inkscape"
   xmlns:sodipodi="http://sodipodi.sourceforge.net/DTD/sodipodi-0.dtd"
   xmlns="http://www.w3.org/2000/svg"
   xmlns:svg="http://www.w3.org/2000/svg">
  <sodipodi:namedview
     id="namedview1"
     pagecolor="#c8c8c8"
     bordercolor="#000000"
     borderopacity="0.25"
     inkscape:showpageshadow="2"
     inkscape:pageopacity="0.0"
     inkscape:pagecheckerboard="0"
     inkscape:deskcolor="#d1d1d1"
     showgrid="true"
     inkscape:zoom="12.020815"
     inkscape:cx="-5.4904762"
     inkscape:cy="16.596212"
     inkscape:window-width="1920"
     inkscape:window-height="1017"
     inkscape:window-x="0"
     inkscape:window-y="34"
     inkscape:window-maximized="1"
     inkscape:current-layer="svg1">
    <inkscape:grid
       id="grid1"
       units="px"
       originx="0"
       originy="0"
       spacingx="1"
       spacingy="1"
       empcolor="#0099e5"
       empopacity="0.30196078"
       color="#0099e5"
       opacity="0.14902"
       empspacing="5"
       dotted="false"
       gridanglex="30"
       gridanglez="30"
       visible="true" />
  </sodipodi:namedview>
  <defs
     id="defs1">
    <style
       id="current-color-scheme"
       type="text/css">
   .ColorScheme-Text { color:#ffffff; } .ColorScheme-Highlight { color:#4285f4; }
  </style>
  </defs>
  <path
     id="path20025"
     class="ColorScheme-Text"
     fill="currentColor"
     d="m 16.802734,4.9632834 a 0.52210999,0.52210999 0 0 0 -0.36914,0.1523437 0.52210999,0.52210999 0 0 0 0,0.7402344 c 1.621216,1.6212165 2.53125,3.8185816 2.53125,6.1113285 0,2.292746 -0.910034,4.490112 -2.53125,6.111328 a 0.52210999,0.52210999 0 0 0 0,0.740234 0.52210999,0.52210999 0 0 0 0.738281,0 c 1.816762,-1.816762 2.835938,-4.282272 2.835937,-6.851562 0,-2.5692901 -1.019175,-5.0348008 -2.835937,-6.8515629 A 0.52210999,0.52210999 0 0 0 16.802734,4.9632834 Z M 14.3125,6.6546896 a 0.52210999,0.52210999 0 0 0 -0.371094,0.1523437 0.52210999,0.52210999 0 0 0 0,0.7382813 c 1.172785,1.1727846 1.832032,2.7633074 1.832032,4.4218754 0,1.658568 -0.659247,3.24909 -1.832032,4.421875 a 0.52210999,0.52210999 0 0 0 0,0.738281 0.52210999,0.52210999 0 0 0 0.740235,0 c 1.36833,-1.36833 2.136718,-3.225045 2.136718,-5.160156 0,-1.935112 -0.768388,-3.7918265 -2.136718,-5.1601567 A 0.52210999,0.52210999 0 0 0 14.3125,6.6546896 Z m -2.255859,2.2539062 a 0.52210999,0.52210999 0 0 0 -0.369141,0.1523438 0.52210999,0.52210999 0 0 0 0,0.7382813 c 0.574875,0.5748761 0.898438,1.3549731 0.898438,2.1679691 0,0.812996 -0.323563,1.593093 -0.898438,2.167969 a 0.52210999,0.52210999 0 0 0 0,0.738281 0.52210999,0.52210999 0 0 0 0.738281,0 c 0.770421,-0.770421 1.203125,-1.81671 1.203125,-2.90625 0,-1.08954 -0.432704,-2.1358296 -1.203125,-2.9062504 A 0.52210999,0.52210999 0 0 0 12.056641,8.9085958 Z M 8.38672,5.4693896 c -0.18714,-0.0115 -0.55991,0.13962 -0.69141,0.25781 L 5.0918,8.9693896 H 2.63672 C 1.73018,8.9693896 1,9.7246696 1,10.71939 v 2.49985 c 0,0.99472 0.73018,1.75 1.63672,1.75 H 5.0918 l 2.78515,3.33398 c 0.13148,0.11821 0.32268,0.17756 0.50977,0.16602 C 8.69852,18.44994 9,18.23174 9,17.75439 V 6.1842296 c 0,-0.47735 -0.30137,-0.69552 -0.61328,-0.71484 z M 8,6.9217696 V 7.1463796 16.72656 17 L 5.51337,13.96924 H 2.83398 c -0.0571,0 -0.11419,-0.007 -0.16796,-0.0176 -6.3e-4,-1.3e-4 -10e-4,1.3e-4 -0.002,0 -0.0537,-0.0109 -0.10491,-0.0262 -0.15429,-0.0469 -5.3e-4,-2.3e-4 -10e-4,2.2e-4 -0.002,0 -0.0499,-0.021 -0.0963,-0.0482 -0.14062,-0.0781 -0.0443,-0.0299 -0.0854,-0.0639 -0.12305,-0.10156 -0.0377,-0.0377 -0.0717,-0.0787 -0.10156,-0.12305 -0.0299,-0.0443 -0.0571,-0.0907 -0.0781,-0.14062 -2.3e-4,-5.6e-4 2.4e-4,-0.001 0,-0.002 -0.0207,-0.0494 -0.0359,-0.10055 -0.0469,-0.15429 -1.3e-4,-6.2e-4 1.2e-4,-0.001 0,-0.002 -0.006,-0.0272 -0.0108,-0.0539 -0.0137,-0.082 -0.003,-0.0281 -0.004,-0.0571 -0.004,-0.0859 v -2.33188 c 0,-0.057 0.007,-0.11419 0.0176,-0.16797 1.2e-4,-6.2e-4 -1.3e-4,-10e-4 0,-0.002 0.0109,-0.0537 0.0262,-0.10491 0.0469,-0.1543 2.2e-4,-5.2e-4 -2.2e-4,-10e-4 0,-0.002 0.021,-0.0499 0.0482,-0.0963 0.0781,-0.14062 0.0299,-0.0443 0.0639,-0.0854 0.10156,-0.12305 0.0377,-0.0377 0.0787,-0.0717 0.12305,-0.10156 0.0443,-0.0299 0.0907,-0.0571 0.14062,-0.0781 5.6e-4,-2.3e-4 0.001,2.3e-4 0.002,0 0.0494,-0.0207 0.10055,-0.0359 0.15429,-0.0469 0.0543,-0.0111 0.11222,-0.0176 0.16992,-0.0176 h 2.67939 z"
     opacity=".30" />
</svg>
