<?xml version="1.0" encoding="UTF-8" standalone="no"?>
<svg
   width="22"
   height="22"
   version="1.1"
   id="svg5"
   sodipodi:docname="audio-volume-high-panel.svg"
   inkscape:version="1.4 (e7c3feb100, 2024-10-09)"
   xmlns:inkscape="http://www.inkscape.org/namespaces/inkscape"
   xmlns:sodipodi="http://sodipodi.sourceforge.net/DTD/sodipodi-0.dtd"
   xmlns="http://www.w3.org/2000/svg"
   xmlns:svg="http://www.w3.org/2000/svg">
  <sodipodi:namedview
     id="namedview5"
     pagecolor="#c8c8c8"
     bordercolor="#000000"
     borderopacity="0.25"
     inkscape:showpageshadow="2"
     inkscape:pageopacity="0.0"
     inkscape:pagecheckerboard="0"
     inkscape:deskcolor="#d1d1d1"
     inkscape:zoom="18.022727"
     inkscape:cx="-0.44388399"
     inkscape:cy="12.012611"
     inkscape:window-width="1920"
     inkscape:window-height="955"
     inkscape:window-x="0"
     inkscape:window-y="34"
     inkscape:window-maximized="1"
     inkscape:current-layer="svg5"
     showgrid="true">
    <inkscape:grid
       id="grid1"
       units="px"
       originx="0"
       originy="0"
       spacingx="1"
       spacingy="1"
       empcolor="#0099e5"
       empopacity="0.30196078"
       color="#0099e5"
       opacity="0.14902"
       empspacing="5"
       dotted="false"
       gridanglex="30"
       gridanglez="30"
       visible="true" />
  </sodipodi:namedview>
  <defs
     id="defs1">
    <style
       id="current-color-scheme"
       type="text/css">
   .ColorScheme-Text { color:#ffffff; } .ColorScheme-Highlight { color:#4285f4; }
  </style>
  </defs>
  <path
     id="path20025"
     class="ColorScheme-Text" fill="currentColor"
     d="m 16.43214,5.1473 a 0.52210999,0.52210999 0 0 0 0,0.73828 c 1.62122,1.62122 2.53321,3.82054 2.53321,6.11329 0,2.29274 -0.91199,4.49011 -2.53321,6.11132 a 0.52210999,0.52210999 0 0 0 0,0.73829 0.52210999,0.52210999 0 0 0 0.73829,0 c 1.81676,-1.81677 2.83789,-4.28032 2.83789,-6.84961 0,-2.56929 -1.02113,-5.0348 -2.83789,-6.85157 a 0.52210999,0.52210999 0 0 0 -0.73829,0 z m -2.49023,1.69141 a 0.52210999,0.52210999 0 0 0 0,0.73828 c 1.17279,1.17279 1.83203,2.76331 1.83203,4.42188 0,1.65856 -0.65924,3.24713 -1.83203,4.41992 a 0.52210999,0.52210999 0 0 0 0,0.73828 0.52210999,0.52210999 0 0 0 0.73828,0 c 1.36833,-1.36833 2.13867,-3.22309 2.13867,-5.1582 0,-1.93511 -0.77034,-3.79183 -2.13867,-5.16016 a 0.52210999,0.52210999 0 0 0 -0.73828,0 z m -1.88477,2.10156 a 0.52210999,0.52210999 0 0 0 -0.36914,0.15235 0.52210999,0.52210999 0 0 0 0,0.73828 c 0.57488,0.57487 0.89844,1.35497 0.89844,2.16797 0,0.81299 -0.32356,1.59114 -0.89844,2.16601 a 0.52210999,0.52210999 0 0 0 0,0.73828 0.52210999,0.52210999 0 0 0 0.73829,0 c 0.77042,-0.77042 1.20312,-1.81475 1.20312,-2.90429 0,-1.08954 -0.4327,-2.13583 -1.20312,-2.90625 A 0.52210999,0.52210999 0 0 0 12.05714,8.94027 Z M 8.38672,5.50015 C 8.19958,5.48865 7.82681,5.63977 7.69531,5.75796 L 5.0918,9.00015 H 2.63672 C 1.73018,9.00015 1,9.75543 1,10.75015 V 13.25 C 1,14.24472 1.73018,15 2.63672,15 H 5.0918 l 2.78515,3.33398 C 8.00843,18.45219 8.19963,18.51154 8.38672,18.5 8.69852,18.4807 9,18.2625 9,17.78515 V 6.21499 C 9,5.73764 8.69863,5.51947 8.38672,5.50015 Z M 8,6.95253 v 0.22461 9.58018 0.27344 L 5.51337,14 H 2.83398 c -0.0571,0 -0.11419,-0.007 -0.16796,-0.0176 -6.3e-4,-1.3e-4 -10e-4,1.3e-4 -0.002,0 -0.0537,-0.0109 -0.10491,-0.0262 -0.15429,-0.0469 -5.3e-4,-2.3e-4 -10e-4,2.2e-4 -0.002,0 -0.0499,-0.021 -0.0963,-0.0482 -0.14062,-0.0781 -0.0443,-0.0299 -0.0854,-0.0639 -0.12305,-0.10156 -0.0377,-0.0377 -0.0717,-0.0787 -0.10156,-0.12305 -0.0299,-0.0443 -0.0571,-0.0907 -0.0781,-0.14062 -2.3e-4,-5.6e-4 2.4e-4,-10e-4 0,-0.002 -0.0207,-0.0494 -0.0359,-0.10055 -0.0469,-0.15429 -1.3e-4,-6.2e-4 1.2e-4,-10e-4 0,-0.002 -0.006,-0.0272 -0.0108,-0.0539 -0.0137,-0.082 -0.003,-0.0281 -0.004,-0.0571 -0.004,-0.0859 V 10.8341 c 0,-0.057 0.007,-0.11419 0.0176,-0.16797 1.2e-4,-6.2e-4 -1.3e-4,-0.001 0,-0.002 0.0109,-0.0537 0.0262,-0.10491 0.0469,-0.1543 2.2e-4,-5.2e-4 -2.2e-4,-10e-4 0,-0.002 0.021,-0.0499 0.0482,-0.0963 0.0781,-0.14062 0.0299,-0.0443 0.0639,-0.0854 0.10156,-0.12305 0.0377,-0.0377 0.0787,-0.0717 0.12305,-0.10156 0.0443,-0.0299 0.0907,-0.0571 0.14062,-0.0781 5.6e-4,-2.3e-4 0.001,2.3e-4 0.002,0 0.0494,-0.0207 0.10055,-0.0359 0.15429,-0.0469 C 2.71822,10.0065 2.77614,10 2.83384,10 h 2.67939 z" />
</svg>
