<svg version="1.1" viewBox="0 0 22 22" xmlns="http://www.w3.org/2000/svg">
 <defs>
  <style id="current-color-scheme" type="text/css">.ColorScheme-Text {
                color:#f2f2f2;
            }</style>
  </defs>
  <path class="ColorScheme-Text"
     d="M 5 3 C 3.8920011 3 3 3.8920011 3 5 L 3 14 C 3 15.107999 3.8920011 16 5 16 L 8 16 L 8 18 L 6.5 18 C 6.2230003 18 6 18.223 6 18.5 C 6 18.777 6.2230003 19 6.5 19 L 15.5 19 C 15.777 19 16 18.777 16 18.5 C 16 18.223 15.777 18 15.5 18 L 14 18 L 14 16 L 17 16 C 18.107999 16 19 15.107999 19 14 L 19 5 C 19 3.8920011 18.107999 3 17 3 L 5 3 z M 5 4 L 17 4 C 17.553999 4 18 4.4460006 18 5 L 18 14 C 18 14.553999 17.553999 15 17 15 L 5 15 C 4.4460006 15 4 14.553999 4 14 L 4 5 C 4 4.4460006 4.4460006 4 5 4 z M 10.974609 5 C 10.709695 5.0133421 10.5 5.2316565 10.5 5.5 L 10.5 6.5 C 10.5 6.7769997 10.723 7 11 7 C 11.277 7 11.5 6.7769997 11.5 6.5 L 11.5 5.5 C 11.5 5.2230003 11.277 5 11 5 C 10.991344 5 10.983155 4.9995696 10.974609 5 z M 8.171875 6.171875 C 8.0440656 6.171875 7.9162936 6.2204252 7.8183594 6.3183594 C 7.622491 6.5142278 7.622491 6.8295222 7.8183594 7.0253906 L 8.5253906 7.7324219 C 8.721259 7.9282903 9.0365535 7.9282903 9.2324219 7.7324219 C 9.4282903 7.5365535 9.4282903 7.221259 9.2324219 7.0253906 L 8.5253906 6.3183594 C 8.4274564 6.2204252 8.2996844 6.171875 8.171875 6.171875 z M 13.828125 6.171875 C 13.700316 6.171875 13.572544 6.2204252 13.474609 6.3183594 L 12.767578 7.0253906 C 12.57171 7.221259 12.57171 7.5365535 12.767578 7.7324219 C 12.963447 7.9282903 13.278741 7.9282903 13.474609 7.7324219 L 14.181641 7.0253906 C 14.377509 6.8295222 14.377509 6.5142278 14.181641 6.3183594 C 14.083706 6.2204252 13.955934 6.171875 13.828125 6.171875 z M 11 8 A 1.5 1.5 0 0 0 9.5 9.5 A 1.5 1.5 0 0 0 11 11 A 1.5 1.5 0 0 0 12.5 9.5 A 1.5 1.5 0 0 0 11 8 z M 6.9746094 9 C 6.7096953 9.0133421 6.5 9.2316565 6.5 9.5 C 6.5 9.7769997 6.7230003 10 7 10 L 8 10 C 8.2769997 10 8.5 9.7769997 8.5 9.5 C 8.5 9.2230003 8.2769997 9 8 9 L 7 9 C 6.9913438 9 6.983155 8.9995696 6.9746094 9 z M 13.974609 9 C 13.709695 9.0133421 13.5 9.2316565 13.5 9.5 C 13.5 9.7769997 13.723 10 14 10 L 15 10 C 15.277 10 15.5 9.7769997 15.5 9.5 C 15.5 9.2230003 15.277 9 15 9 L 14 9 C 13.991344 9 13.983155 8.9995696 13.974609 9 z M 8.8789062 11.121094 C 8.7510968 11.121094 8.6233248 11.169644 8.5253906 11.267578 L 7.8183594 11.974609 C 7.622491 12.170478 7.622491 12.485772 7.8183594 12.681641 C 8.0142278 12.877509 8.3295222 12.877509 8.5253906 12.681641 L 9.2324219 11.974609 C 9.4282903 11.778741 9.4282903 11.463447 9.2324219 11.267578 C 9.1344877 11.169644 9.0067157 11.121094 8.8789062 11.121094 z M 13.121094 11.121094 C 12.993284 11.121094 12.865512 11.169644 12.767578 11.267578 C 12.57171 11.463447 12.57171 11.778741 12.767578 11.974609 L 13.474609 12.681641 C 13.670478 12.877509 13.985772 12.877509 14.181641 12.681641 C 14.377509 12.485772 14.377509 12.170478 14.181641 11.974609 L 13.474609 11.267578 C 13.376675 11.169644 13.248903 11.121094 13.121094 11.121094 z M 10.974609 12 C 10.709695 12.013342 10.5 12.231657 10.5 12.5 L 10.5 13.5 C 10.5 13.777 10.723 14 11 14 C 11.277 14 11.5 13.777 11.5 13.5 L 11.5 12.5 C 11.5 12.223 11.277 12 11 12 C 10.991344 12 10.983155 11.99957 10.974609 12 z M 9 16 L 13 16 L 13 18 L 9 18 L 9 16 z " fill="currentColor"/> />
</svg>
