<?xml version="1.0" encoding="UTF-8" standalone="no"?>
<svg
   width="22"
   height="22"
   version="1.1"
   id="svg2"
   sodipodi:docname="klipper.svg"
   inkscape:version="1.4 (e7c3feb100, 2024-10-09)"
   xmlns:inkscape="http://www.inkscape.org/namespaces/inkscape"
   xmlns:sodipodi="http://sodipodi.sourceforge.net/DTD/sodipodi-0.dtd"
   xmlns="http://www.w3.org/2000/svg"
   xmlns:svg="http://www.w3.org/2000/svg">
  <sodipodi:namedview
     id="namedview2"
     pagecolor="#c8c8c8"
     bordercolor="#000000"
     borderopacity="0.25"
     inkscape:showpageshadow="2"
     inkscape:pageopacity="0.0"
     inkscape:pagecheckerboard="0"
     inkscape:deskcolor="#d1d1d1"
     inkscape:zoom="17"
     inkscape:cx="3.9411766"
     inkscape:cy="15.735294"
     inkscape:window-width="1920"
     inkscape:window-height="1017"
     inkscape:window-x="0"
     inkscape:window-y="34"
     inkscape:window-maximized="1"
     inkscape:current-layer="svg2" />
  <defs
     id="defs1">
    <style
       id="current-color-scheme"
       type="text/css">.ColorScheme-Text { color:#ffffff; } .ColorScheme-Highlight { color:#4285f4; }</style>
  </defs>
  <g
     id="22-22-klipper"
     transform="translate(-49,-4.999999)">
    <rect
       style="fill:none;fill-opacity:1;stroke:none;stroke-width:0.1;stroke-linecap:square;stroke-linejoin:miter;stroke-miterlimit:4;stroke-dasharray:none;stroke-dashoffset:0;stroke-opacity:1"
       id="rect4148"
       width="22"
       height="22"
       x="49"
       y="4.999999" />
    <g
       id="g5549"
       transform="translate(-21)">
      <g
         id="g5234"
         transform="translate(21)">
        <path
           class="ColorScheme-Text" fill="currentColor"
           d="M 58 6.999999 C 56.892 6.999999 56 7.891999 56 8.999999 L 55 8.999999 L 54 8.999999 C 52.892 8.999999 52 9.891999 52 10.999999 L 52 21.999999 C 52 23.107999 52.892 23.999999 54 23.999999 L 58.267578 23.999999 C 58.612554 24.598076 59.257224 24.999999 60 24.999999 L 66 24.999999 C 67.108 24.999999 68 24.107999 68 22.999999 L 68 14.999999 C 68 13.891999 67.108 12.999999 66 12.999999 L 66 10.999999 C 66 9.891999 65.108 8.999999 64 8.999999 L 63 8.999999 L 62 8.999999 C 62 7.891999 61.108 6.999999 60 6.999999 L 58 6.999999 z M 58 7.999999 L 60 7.999999 C 60.554 7.999999 61 8.445999 61 8.999999 L 57 8.999999 C 57 8.445999 57.446 7.999999 58 7.999999 z M 54 9.999999 L 55 9.999999 C 55 11.107999 55.892 11.999999 57 11.999999 L 61 11.999999 C 62.108 11.999999 63 11.107999 63 9.999999 L 64 9.999999 C 64.554 9.999999 65 10.445999 65 10.999999 L 65 12.999999 L 60 12.999999 C 58.892 12.999999 58 13.891999 58 14.999999 L 58 22.999999 L 54 22.999999 C 53.446 22.999999 53 22.553999 53 21.999999 L 53 10.999999 C 53 10.445999 53.446 9.999999 54 9.999999 z M 56 9.999999 L 62 9.999999 C 62 10.553999 61.554 10.999999 61 10.999999 L 57 10.999999 C 56.446 10.999999 56 10.553999 56 9.999999 z M 60 13.999999 L 66 13.999999 C 66.554 13.999999 67 14.445999 67 14.999999 L 67 22.999999 C 67 23.553999 66.554 23.999999 66 23.999999 L 60 23.999999 C 59.446 23.999999 59 23.553999 59 22.999999 L 59 14.999999 C 59 14.445999 59.446 13.999999 60 13.999999 z " />
      </g>
    </g>
  </g>
</svg>
