<?xml version="1.0" encoding="UTF-8" standalone="no"?>
<svg
   xmlns:dc="http://purl.org/dc/elements/1.1/"
   xmlns:cc="http://creativecommons.org/ns#"
   xmlns:rdf="http://www.w3.org/1999/02/22-rdf-syntax-ns#"
   xmlns:svg="http://www.w3.org/2000/svg"
   xmlns="http://www.w3.org/2000/svg"
   xmlns:xlink="http://www.w3.org/1999/xlink"
   xmlns:sodipodi="http://sodipodi.sourceforge.net/DTD/sodipodi-0.dtd"
   xmlns:inkscape="http://www.inkscape.org/namespaces/inkscape"
   width="64"
   height="64"
   version="1.1"
   viewBox="0 0 16.933 16.933"
   id="svg49"
   sodipodi:docname="default-user-desktop.svg"
   inkscape:version="1.0.2 (e86c870879, 2021-01-15)">
  <sodipodi:namedview
     pagecolor="#ffffff"
     bordercolor="#666666"
     borderopacity="1"
     objecttolerance="10"
     gridtolerance="10"
     guidetolerance="10"
     inkscape:pageopacity="0"
     inkscape:pageshadow="2"
     inkscape:window-width="1920"
     inkscape:window-height="936"
     id="namedview51"
     showgrid="true"
     inkscape:zoom="3.0273438"
     inkscape:cx="62.804888"
     inkscape:cy="47.359223"
     inkscape:window-x="0"
     inkscape:window-y="38"
     inkscape:window-maximized="1"
     inkscape:current-layer="svg49">
    <inkscape:grid
       type="xygrid"
       id="grid876" />
  </sodipodi:namedview>
  <defs
     id="defs19">
    <linearGradient
       inkscape:collect="always"
       id="linearGradient1007">
      <stop
         style="stop-color:#085170;stop-opacity:1"
         offset="0"
         id="stop1003" />
      <stop
         style="stop-color:#09355f;stop-opacity:1"
         offset="1"
         id="stop1005" />
    </linearGradient>
    <linearGradient
       id="linearGradient894"
       x1=".52916"
       x2="16.404"
       y1="14.42"
       y2="2.5135"
       gradientTransform="matrix(1,0,0,1.1111,-23.493,-0.94071)"
       gradientUnits="userSpaceOnUse">
      <stop
         stop-color="#323232"
         offset="0"
         id="stop2" />
      <stop
         stop-color="#646464"
         offset="1"
         id="stop4" />
    </linearGradient>
    <linearGradient
       id="linearGradient3135"
       x1="10.798"
       x2="10.798"
       y1="282.88"
       y2="283.29"
       gradientTransform="matrix(1.5182,0,0,0.48946,11.411,-125.77)"
       gradientUnits="userSpaceOnUse"
       xlink:href="#linearGradient1498" />
    <linearGradient
       id="linearGradient1498">
      <stop
         stop-color="#a0a0a0"
         offset="0"
         id="stop8" />
      <stop
         stop-color="#f0f0f0"
         offset="1"
         id="stop10" />
    </linearGradient>
    <linearGradient
       id="linearGradient3133"
       x1="10.798"
       x2="10.798"
       y1="282.88"
       y2="283.29"
       gradientTransform="matrix(1.5182,0,0,0.78314,11.411,-208.22)"
       gradientUnits="userSpaceOnUse"
       xlink:href="#linearGradient1498" />
    <linearGradient
       id="linearGradient930"
       x1=".52916"
       x2="16.404"
       y1="14.42"
       y2="2.5135"
       gradientTransform="matrix(1,0,0,1.1111,-23.493,-0.94071)"
       gradientUnits="userSpaceOnUse">
      <stop
         stop-color="#238cd2"
         offset="0"
         id="stop14" />
      <stop
         stop-color="#3cd2ff"
         offset="1"
         id="stop16" />
    </linearGradient>
    <linearGradient
       inkscape:collect="always"
       xlink:href="#linearGradient1508"
       id="linearGradient1510"
       x1="25.084736"
       y1="23.620443"
       x2="25.084736"
       y2="26.147213"
       gradientUnits="userSpaceOnUse"
       gradientTransform="translate(-17.89659,-21.384806)" />
    <linearGradient
       inkscape:collect="always"
       id="linearGradient1508">
      <stop
         style="stop-color:#0471c9;stop-opacity:1"
         offset="0"
         id="stop1504" />
      <stop
         style="stop-color:#2076a2;stop-opacity:1"
         offset="1"
         id="stop1506" />
    </linearGradient>
    <linearGradient
       inkscape:collect="always"
       xlink:href="#linearGradient2273"
       id="linearGradient2267"
       x1="19"
       y1="16"
       x2="62"
       y2="55"
       gradientUnits="userSpaceOnUse"
       gradientTransform="matrix(0.26457812,0,0,0.26457812,-0.04755955,0)" />
    <linearGradient
       inkscape:collect="always"
       id="linearGradient2273">
      <stop
         style="stop-color:#40d7e2;stop-opacity:1"
         offset="0"
         id="stop2269" />
      <stop
         style="stop-color:#0c72bb;stop-opacity:1"
         offset="1"
         id="stop2271" />
    </linearGradient>
    <linearGradient
       inkscape:collect="always"
       xlink:href="#linearGradient1007"
       id="linearGradient1009"
       x1="2"
       y1="52.75"
       x2="62"
       y2="52.75"
       gradientUnits="userSpaceOnUse" />
  </defs>
  <metadata
     id="metadata21">
    <rdf:RDF>
      <cc:Work
         rdf:about="">
        <dc:format>image/svg+xml</dc:format>
        <dc:type
           rdf:resource="http://purl.org/dc/dcmitype/StillImage" />
        <dc:title></dc:title>
      </cc:Work>
    </rdf:RDF>
  </metadata>
  <circle
     cx="-330.35"
     cy="-328.38"
     r="0"
     fill="#5e4aa6"
     stroke-width=".26458"
     id="circle23" />
  <circle
     cx="-312.93"
     cy="-341.25"
     r="0"
     fill="#5e4aa6"
     stroke-width=".26458"
     id="circle25" />
  <path
     style="color:#000000;font-style:normal;font-variant:normal;font-weight:normal;font-stretch:normal;font-size:medium;line-height:normal;font-family:sans-serif;font-variant-ligatures:normal;font-variant-position:normal;font-variant-caps:normal;font-variant-numeric:normal;font-variant-alternates:normal;font-variant-east-asian:normal;font-feature-settings:normal;font-variation-settings:normal;text-indent:0;text-align:start;text-decoration:none;text-decoration-line:none;text-decoration-style:solid;text-decoration-color:#000000;letter-spacing:normal;word-spacing:normal;text-transform:none;writing-mode:lr-tb;direction:ltr;text-orientation:mixed;dominant-baseline:auto;baseline-shift:baseline;text-anchor:start;white-space:normal;shape-padding:0;shape-margin:0;inline-size:0;clip-rule:nonzero;display:inline;overflow:visible;visibility:visible;isolation:auto;mix-blend-mode:normal;color-interpolation:sRGB;color-interpolation-filters:linearRGB;solid-color:#000000;solid-opacity:1;vector-effect:none;fill:url(#linearGradient1510);fill-opacity:1;fill-rule:nonzero;stroke:none;stroke-width:0.26458;stroke-linecap:butt;stroke-linejoin:miter;stroke-miterlimit:4;stroke-dasharray:none;stroke-dashoffset:0;stroke-opacity:1;color-rendering:auto;image-rendering:auto;shape-rendering:auto;text-rendering:auto;enable-background:accumulate;stop-color:#000000"
     d="m 1.1976999,2.248885 c -0.3653,0 -0.66144,0.32575 -0.66144,0.72759 v 2.9636 c -0.0026,0.02629 -0.0072,0.052 -0.0072,0.07906 v 7.9373 c 0,0.40184 0.29614,0.72759 0.66144,0.72759 H 15.7425 c 0.36531,0 0.66144,-0.32575 0.66144,-0.72759 v -9.393 c 0,-0.40184 -0.29614,-0.72759 -0.66144,-0.72759 v 5.17e-4 H 8.2109759 c -0.19843,0 -0.39687,-0.06614 -0.58703,-0.1695 -0.1902,-0.10335 -0.3721,-0.24391 -0.53746,-0.39273 -0.33072,-0.29765 -0.5953,-0.62837 -0.72759,-0.76066 -0.11517,-0.11517 -0.29264,-0.18102 -0.46973,-0.21859 -0.16944,-0.03594 -0.33336,-0.04414 -0.44648,-0.04599 h -0.14211 z"
     id="path1358" />
  <path
     id="rect2254"
     style="fill:url(#linearGradient2267);fill-opacity:1;stroke:none;stroke-width:0.264578;stroke-linecap:round;stroke-linejoin:round;paint-order:stroke fill markers"
     d="m 8.3605472,4.1138797 c -0.1131208,0.0018 -0.3084798,-0.015417 -0.5198548,0.095083 -0.736471,0.379462 -0.77226,0.5936554 -1.55698,0.7141543 h -4.96084 c -0.21986,0 -0.41824195,0.088549 -0.56171195,0.2320226 -0.139369,0.1393581 -0.220413,0.3333343 -0.225304,0.5456924 v 0.2392572 0.2774969 c -0.0026,0.02629 -0.0067,0.052013 -0.0067,0.079063 v 7.0299239 0.03462 0.595301 c 0,0.200921 0.07357,0.382503 0.193266,0.51417 0.119697,0.131668 0.28552895,0.21342 0.46817895,0.21342 h 0.661445 0.505903 12.7230036 0.661445 c 0.182654,0 0.347965,-0.08175 0.467663,-0.21342 0.119695,-0.131667 0.193782,-0.313249 0.193783,-0.51417 V 13.326573 5.1938958 4.8409528 c 0,-0.2009201 -0.07408,-0.3830192 -0.193783,-0.5146873 C 16.090628,4.1948946 15.925594,4.1142448 15.743432,4.1138797 h -10e-4 -0.661446 -0.502801 z" />
  <path
     id="path1459"
     style="fill:#2076a2;fill-opacity:1;stroke-width:0.264578"
     d="m 8.3605726,3.836413 c -0.1131202,0.0018 -0.3084802,-0.01542 -0.5198552,0.09508 -0.736471,0.379462 -0.77226,0.593655 -1.55698,0.714154 h -4.96084 c -0.21986,0 -0.418242,0.08855 -0.561712,0.232023 -0.139369,0.139359 -0.220414,0.333334 -0.225304,0.545693 V 5.70086 c 0.0049,-0.212358 0.08593,-0.406334 0.225304,-0.545692 0.14347,-0.143474 0.341852,-0.232024 0.561712,-0.232024 h 4.96084 c 0.78472,-0.120499 0.820509,-0.334692 1.55698,-0.714154 0.211375,-0.1105 0.406734,-0.09328 0.5198552,-0.09508 h 6.2175864 0.502802 0.661445 10e-4 c 0.182162,3.65e-4 0.347198,0.08101 0.466631,0.212386 0.119701,0.131668 0.193782,0.313767 0.193782,0.514687 V 4.563486 c 0,-0.20092 -0.07408,-0.383019 -0.193782,-0.514687 -0.11943,-0.131371 -0.284469,-0.212021 -0.466631,-0.212386 h -10e-4 -0.661445 -0.502802 z M 0.5358814,5.940118 c -0.0026,0.02629 -0.0067,0.05201 -0.0067,0.07906 v 0.277498 c 0,-0.02705 0.0041,-0.05277 0.0067,-0.07906 z" />
  <path
     id="path1481"
     style="fill:#5a6473;fill-opacity:1;stroke-width:0.264578"
     d="m 0.5291564,13.67438 v 0.282146 c 0,0.200921 0.07357,0.382503 0.193266,0.51417 0.119697,0.131668 0.285529,0.21342 0.468179,0.21342 h 0.661445 0.505903 12.7230046 0.661445 c 0.182654,0 0.347965,-0.08175 0.467663,-0.21342 0.119695,-0.131667 0.193782,-0.313249 0.193782,-0.51417 V 13.67438 c 0,0.200918 -0.07409,0.382503 -0.193782,0.514168 -0.119698,0.13167 -0.285009,0.213422 -0.467663,0.213422 H 15.080954 2.3579494 1.8520464 1.1906014 c -0.18265,0 -0.348481,-0.08176 -0.468179,-0.213422 -0.119696,-0.131665 -0.193266,-0.31325 -0.193266,-0.514168 z" />
  <path
     id="path3585"
     style="opacity:0.2;fill:#ffffff;fill-opacity:1;stroke:none;stroke-width:0.264578;stroke-linecap:round;stroke-linejoin:round;paint-order:stroke fill markers"
     d="M 8.3605651,4.1138797 C 8.2474445,4.1156788 8.0520856,4.0984627 7.8407107,4.2089624 7.1042395,4.5884244 7.0684503,4.8026178 6.2837304,4.9231167 H 1.3228906 c -0.21986,0 -0.41824176,0.088549 -0.56171176,0.2320226 C 0.62180986,5.2944974 0.54076505,5.4884736 0.53587404,5.7008317 V 5.9400889 6.08478 C 0.54076503,5.872422 0.62180986,5.6784457 0.76117884,5.5390877 0.90464884,5.3956141 1.1030306,5.3070651 1.3228906,5.3070651 H 6.2837304 C 7.0684503,5.1865662 7.1042395,4.9723727 7.8407107,4.5929108 8.0520856,4.4824108 8.2474445,4.499628 8.3605651,4.497828 h 6.2175859 0.502802 0.661445 10e-4 c 0.182162,3.704e-4 0.347196,0.081015 0.466629,0.2123859 0.119705,0.1316681 0.193784,0.3137672 0.193784,0.5146872 v -0.031005 -0.352943 c 0,-0.2009201 -0.07408,-0.3830189 -0.193782,-0.5146873 -0.119401,-0.131371 -0.284435,-0.212021 -0.466597,-0.2123861 h -10e-4 -0.661445 -0.502802 z M 0.53587404,6.2175858 c -0.0026,0.02629 -0.006718,0.052013 -0.006718,0.079063 v 0.3839483 c 0,-0.02705 0.004118,-0.052773 0.006718,-0.079063 v -0.277497 z" />
  <path
     id="rect981"
     style="opacity:1;fill:url(#linearGradient1009);fill-opacity:1;stroke-width:1;stroke-linecap:round;stroke-linejoin:round;paint-order:stroke fill markers"
     d="M 2,49.000001 V 49.369142 49.500001 52.75 c 0,0.759401 0.2780655,1.445711 0.7304688,1.943359 C 3.1828758,55.191012 3.8096557,55.5 4.5,55.5 H 7 8.9121094 57 59.5 c 0.690359,0 1.315167,-0.30898 1.767578,-0.806641 C 61.719978,54.195711 61.999996,53.509401 62,52.75 v -3.380858 -0.369141 z"
     transform="scale(0.26457812)"
     sodipodi:nodetypes="cccssscccsssccc" />
  <rect
     style="opacity:1;fill:#e9fefe;fill-opacity:1;stroke-width:0.264578;stroke-linecap:round;stroke-linejoin:round;paint-order:stroke fill markers"
     id="rect1011"
     width="1.3228906"
     height="1.3228906"
     x="1.3228906"
     y="6.6144528"
     rx="0"
     ry="0.26457787" />
  <rect
     style="opacity:1;fill:#e9fefe;fill-opacity:1;stroke-width:0.264578;stroke-linecap:round;stroke-linejoin:round;paint-order:stroke fill markers"
     id="rect1013"
     width="1.3228906"
     height="1.3228906"
     x="1.3228906"
     y="8.7310781"
     rx="0"
     ry="0.26457787" />
  <rect
     style="opacity:1;fill:#e9fefe;fill-opacity:1;stroke-width:0.105831;stroke-linecap:round;stroke-linejoin:round;paint-order:stroke fill markers"
     id="rect1015"
     width="0.52915663"
     height="0.52915663"
     x="13.493484"
     y="13.493484"
     rx="0"
     ry="0.10583122" />
  <rect
     style="opacity:1;fill:#e9fefe;fill-opacity:1;stroke-width:0.105831;stroke-linecap:round;stroke-linejoin:round;paint-order:stroke fill markers"
     id="rect1017"
     width="0.52915663"
     height="0.52915663"
     x="14.551797"
     y="13.493484"
     rx="0"
     ry="0.10583122" />
</svg>
