<?xml version="1.0" encoding="UTF-8" standalone="no"?>
<svg
   xmlns:dc="http://purl.org/dc/elements/1.1/"
   xmlns:cc="http://creativecommons.org/ns#"
   xmlns:rdf="http://www.w3.org/1999/02/22-rdf-syntax-ns#"
   xmlns:svg="http://www.w3.org/2000/svg"
   xmlns="http://www.w3.org/2000/svg"
   xmlns:xlink="http://www.w3.org/1999/xlink"
   xmlns:sodipodi="http://sodipodi.sourceforge.net/DTD/sodipodi-0.dtd"
   xmlns:inkscape="http://www.inkscape.org/namespaces/inkscape"
   width="64"
   height="64"
   version="1.1"
   viewBox="0 0 16.933 16.933"
   id="svg65"
   sodipodi:docname="folder-favorites.svg"
   inkscape:version="1.0.2 (e86c870879, 2021-01-15)">
  <sodipodi:namedview
     pagecolor="#ffffff"
     bordercolor="#666666"
     borderopacity="1"
     objecttolerance="10"
     gridtolerance="10"
     guidetolerance="10"
     inkscape:pageopacity="0"
     inkscape:pageshadow="2"
     inkscape:window-width="1920"
     inkscape:window-height="936"
     id="namedview67"
     showgrid="true"
     inkscape:snap-smooth-nodes="true"
     inkscape:snap-bbox="true"
     inkscape:bbox-nodes="true"
     inkscape:snap-bbox-edge-midpoints="true"
     inkscape:zoom="12.109375"
     inkscape:cx="38.412351"
     inkscape:cy="42.241894"
     inkscape:window-x="0"
     inkscape:window-y="38"
     inkscape:window-maximized="1"
     inkscape:current-layer="svg65">
    <inkscape:grid
       type="xygrid"
       id="grid1110" />
  </sodipodi:namedview>
  <defs
     id="defs13">
    <linearGradient
       inkscape:collect="always"
       id="linearGradient1116">
      <stop
         style="stop-color:#be900d;stop-opacity:1"
         offset="0"
         id="stop1112" />
      <stop
         style="stop-color:#a87704;stop-opacity:1"
         offset="1"
         id="stop1114" />
    </linearGradient>
    <style
       type="text/css"
       id="style2" />
    <style
       type="text/css"
       id="style4" />
    <linearGradient
       id="linearGradient3135"
       x1="10.798"
       x2="10.798"
       y1="282.88"
       y2="283.29"
       gradientTransform="matrix(1.5182,0,0,0.48946,11.411,-125.77)"
       gradientUnits="userSpaceOnUse"
       xlink:href="#linearGradient1492" />
    <linearGradient
       id="linearGradient1492">
      <stop
         stop-color="#a0a0a0"
         offset="0"
         id="stop7" />
      <stop
         stop-color="#f0f0f0"
         offset="1"
         id="stop9" />
    </linearGradient>
    <linearGradient
       id="linearGradient3133"
       x1="10.798"
       x2="10.798"
       y1="282.88"
       y2="283.29"
       gradientTransform="matrix(1.5182,0,0,0.78314,11.411,-208.22)"
       gradientUnits="userSpaceOnUse"
       xlink:href="#linearGradient1492" />
    <filter
       id="g"
       x="-.038771"
       y="-.033599"
       width="1.0775"
       height="1.0672"
       color-interpolation-filters="sRGB">
      <feGaussianBlur
         stdDeviation="0.42001774"
         id="feGaussianBlur9" />
    </filter>
    <style
       type="text/css"
       id="style1073" />
    <filter
       id="g-6"
       x="-.038771"
       y="-.033599"
       width="1.0775"
       height="1.0672"
       color-interpolation-filters="sRGB">
      <feGaussianBlur
         stdDeviation="0.42001774"
         id="feGaussianBlur9-2" />
    </filter>
    <linearGradient
       inkscape:collect="always"
       xlink:href="#linearGradient1508"
       id="linearGradient1510"
       x1="25.084736"
       y1="23.620443"
       x2="25.084736"
       y2="26.411791"
       gradientUnits="userSpaceOnUse"
       gradientTransform="translate(-17.89659,-21.384806)" />
    <linearGradient
       inkscape:collect="always"
       id="linearGradient1508">
      <stop
         style="stop-color:#fbbc1e;stop-opacity:1"
         offset="0"
         id="stop1504" />
      <stop
         style="stop-color:#e2b24b;stop-opacity:1"
         offset="1"
         id="stop1506" />
    </linearGradient>
    <linearGradient
       inkscape:collect="always"
       xlink:href="#linearGradient2273"
       id="linearGradient2267"
       x1="19"
       y1="16"
       x2="62"
       y2="55"
       gradientUnits="userSpaceOnUse"
       gradientTransform="matrix(0.26457812,0,0,0.26457812,-0.04755955,0)" />
    <linearGradient
       inkscape:collect="always"
       id="linearGradient2273">
      <stop
         style="stop-color:#fce798;stop-opacity:1"
         offset="0"
         id="stop2269" />
      <stop
         style="stop-color:#f8c941;stop-opacity:1"
         offset="1"
         id="stop2271" />
    </linearGradient>
    <style
       type="text/css"
       id="style1073-9" />
    <style
       type="text/css"
       id="style1096" />
    <linearGradient
       inkscape:collect="always"
       xlink:href="#linearGradient1116"
       id="linearGradient1118"
       x1="20.107937"
       y1="6.349875"
       x2="20.107937"
       y2="13.493484"
       gradientUnits="userSpaceOnUse"
       gradientTransform="translate(-11.906016,-0.26457816)" />
  </defs>
  <metadata
     id="metadata15">
    <rdf:RDF>
      <cc:Work
         rdf:about="">
        <dc:format>image/svg+xml</dc:format>
        <dc:type
           rdf:resource="http://purl.org/dc/dcmitype/StillImage" />
        <dc:title></dc:title>
      </cc:Work>
    </rdf:RDF>
  </metadata>
  <g
     fill="#5e4aa6"
     stroke-width=".26458"
     id="g27">
    <circle
       cx="-330.35"
       cy="-328.38"
       r="0"
       id="circle17" />
    <circle
       cx="-312.11"
       cy="-326.25"
       r="0"
       id="circle19" />
    <circle
       cx="-306.02"
       cy="-333.07"
       r="0"
       id="circle21" />
    <circle
       cx="-308.84"
       cy="-326.01"
       r="0"
       id="circle23" />
    <circle
       cx="-328.8"
       cy="-330.45"
       r="0"
       id="circle25" />
  </g>
  <g
     transform="translate(.000295 -.00032978)"
     fill="#5e4aa6"
     stroke-width=".26458"
     id="g39">
    <circle
       cx="-330.35"
       cy="-328.38"
       r="0"
       id="circle29" />
    <circle
       cx="-312.11"
       cy="-326.25"
       r="0"
       id="circle31" />
    <circle
       cx="-306.02"
       cy="-333.07"
       r="0"
       id="circle33" />
    <circle
       cx="-308.84"
       cy="-326.01"
       r="0"
       id="circle35" />
    <circle
       cx="-328.8"
       cy="-330.45"
       r="0"
       id="circle37" />
  </g>
  <g
     fill="#5e4aa6"
     stroke-width="0.26458"
     id="g26">
    <circle
       cx="-330.35001"
       cy="-328.38"
       r="0"
       id="circle16" />
    <circle
       cx="-312.10999"
       cy="-326.25"
       r="0"
       id="circle18" />
    <circle
       cx="-306.01999"
       cy="-333.07001"
       r="0"
       id="circle20" />
    <circle
       cx="-308.84"
       cy="-326.01001"
       r="0"
       id="circle22" />
    <circle
       cx="-328.79999"
       cy="-330.45001"
       r="0"
       id="circle24" />
  </g>
  <g
     transform="translate(2.95e-4,-3.2978e-4)"
     fill="#5e4aa6"
     stroke-width="0.26458"
     id="g38">
    <circle
       cx="-330.35001"
       cy="-328.38"
       r="0"
       id="circle28" />
    <circle
       cx="-312.10999"
       cy="-326.25"
       r="0"
       id="circle30" />
    <circle
       cx="-306.01999"
       cy="-333.07001"
       r="0"
       id="circle32" />
    <circle
       cx="-308.84"
       cy="-326.01001"
       r="0"
       id="circle34" />
    <circle
       cx="-328.79999"
       cy="-330.45001"
       r="0"
       id="circle36" />
  </g>
  <g
     id="g3138">
    <path
       style="color:#000000;font-style:normal;font-variant:normal;font-weight:normal;font-stretch:normal;font-size:medium;line-height:normal;font-family:sans-serif;font-variant-ligatures:normal;font-variant-position:normal;font-variant-caps:normal;font-variant-numeric:normal;font-variant-alternates:normal;font-variant-east-asian:normal;font-feature-settings:normal;font-variation-settings:normal;text-indent:0;text-align:start;text-decoration:none;text-decoration-line:none;text-decoration-style:solid;text-decoration-color:#000000;letter-spacing:normal;word-spacing:normal;text-transform:none;writing-mode:lr-tb;direction:ltr;text-orientation:mixed;dominant-baseline:auto;baseline-shift:baseline;text-anchor:start;white-space:normal;shape-padding:0;shape-margin:0;inline-size:0;clip-rule:nonzero;display:inline;overflow:visible;visibility:visible;opacity:1;isolation:auto;mix-blend-mode:normal;color-interpolation:sRGB;color-interpolation-filters:linearRGB;solid-color:#000000;solid-opacity:1;vector-effect:none;fill:url(#linearGradient1510);fill-opacity:1;fill-rule:nonzero;stroke:none;stroke-width:0.26458;stroke-linecap:butt;stroke-linejoin:miter;stroke-miterlimit:4;stroke-dasharray:none;stroke-dashoffset:0;stroke-opacity:1;color-rendering:auto;image-rendering:auto;shape-rendering:auto;text-rendering:auto;enable-background:accumulate;stop-color:#000000;stop-opacity:1"
       d="m 1.1976999,2.248885 c -0.3653,0 -0.66144,0.32575 -0.66144,0.72759 v 2.9636 c -0.0026,0.02629 -0.0072,0.052 -0.0072,0.07906 v 7.9373 c 0,0.40184 0.29614,0.72759 0.66144,0.72759 H 15.7425 c 0.36531,0 0.66144,-0.32575 0.66144,-0.72759 v -9.393 c 0,-0.40184 -0.29614,-0.72759 -0.66144,-0.72759 v 5.17e-4 H 8.2109759 c -0.19843,0 -0.39687,-0.06614 -0.58703,-0.1695 -0.1902,-0.10335 -0.3721,-0.24391 -0.53746,-0.39273 -0.33072,-0.29765 -0.5953,-0.62837 -0.72759,-0.76066 -0.11517,-0.11517 -0.29264,-0.18102 -0.46973,-0.21859 -0.16944,-0.03594 -0.33336,-0.04414 -0.44648,-0.04599 h -0.14211 z"
       id="path1358" />
    <path
       id="rect2254"
       style="opacity:1;fill:url(#linearGradient2267);fill-opacity:1;stroke:none;stroke-width:0.264578;stroke-linecap:round;stroke-linejoin:round;paint-order:stroke fill markers"
       d="m 8.3605472,4.1138797 c -0.1131208,0.0018 -0.3084798,-0.015417 -0.5198548,0.095083 -0.736471,0.379462 -0.77226,0.5936554 -1.55698,0.7141543 h -4.96084 c -0.21986,0 -0.41824195,0.088549 -0.56171195,0.2320226 -0.139369,0.1393581 -0.220413,0.3333343 -0.225304,0.5456924 v 0.2392572 0.2774969 c -0.0026,0.02629 -0.0067,0.052013 -0.0067,0.079063 v 7.0299239 0.03462 0.595301 c 0,0.200921 0.07357,0.382503 0.193266,0.51417 0.119697,0.131668 0.28552895,0.21342 0.46817895,0.21342 h 0.661445 0.505903 12.7230036 0.661445 c 0.182654,0 0.347965,-0.08175 0.467663,-0.21342 0.119695,-0.131667 0.193782,-0.313249 0.193783,-0.51417 V 13.326573 5.1938958 4.8409528 c 0,-0.2009201 -0.07408,-0.3830192 -0.193783,-0.5146873 C 16.090628,4.1948946 15.925594,4.1142448 15.743432,4.1138797 h -10e-4 -0.661446 -0.502801 z" />
    <path
       id="path1459"
       style="fill:#e2b24b;fill-opacity:1;stroke-width:0.264578"
       d="m 8.3605726,3.836413 c -0.1131202,0.0018 -0.3084802,-0.01542 -0.5198552,0.09508 -0.736471,0.379462 -0.77226,0.593655 -1.55698,0.714154 h -4.96084 c -0.21986,0 -0.418242,0.08855 -0.561712,0.232023 -0.139369,0.139359 -0.220414,0.333334 -0.225304,0.545693 V 5.70086 c 0.0049,-0.212358 0.08593,-0.406334 0.225304,-0.545692 0.14347,-0.143474 0.341852,-0.232024 0.561712,-0.232024 h 4.96084 c 0.78472,-0.120499 0.820509,-0.334692 1.55698,-0.714154 0.211375,-0.1105 0.406734,-0.09328 0.5198552,-0.09508 h 6.2175864 0.502802 0.661445 10e-4 c 0.182162,3.65e-4 0.347198,0.08101 0.466631,0.212386 0.119701,0.131668 0.193782,0.313767 0.193782,0.514687 V 4.563486 c 0,-0.20092 -0.07408,-0.383019 -0.193782,-0.514687 -0.11943,-0.131371 -0.284469,-0.212021 -0.466631,-0.212386 h -10e-4 -0.661445 -0.502802 z M 0.5358814,5.940118 c -0.0026,0.02629 -0.0067,0.05201 -0.0067,0.07906 v 0.277498 c 0,-0.02705 0.0041,-0.05277 0.0067,-0.07906 z" />
    <path
       id="path1481"
       style="fill:#e2b24b;fill-opacity:1;stroke-width:0.264578"
       d="m 0.5291564,13.67438 v 0.282146 c 0,0.200921 0.07357,0.382503 0.193266,0.51417 0.119697,0.131668 0.285529,0.21342 0.468179,0.21342 h 0.661445 0.505903 12.7230046 0.661445 c 0.182654,0 0.347965,-0.08175 0.467663,-0.21342 0.119695,-0.131667 0.193782,-0.313249 0.193782,-0.51417 V 13.67438 c 0,0.200918 -0.07409,0.382503 -0.193782,0.514168 -0.119698,0.13167 -0.285009,0.213422 -0.467663,0.213422 H 15.080954 2.3579494 1.8520464 1.1906014 c -0.18265,0 -0.348481,-0.08176 -0.468179,-0.213422 -0.119696,-0.131665 -0.193266,-0.31325 -0.193266,-0.514168 z" />
    <path
       id="path3585"
       style="opacity:0.2;fill:#ffffff;fill-opacity:1;stroke:none;stroke-width:1;stroke-linecap:round;stroke-linejoin:round;paint-order:stroke fill markers"
       d="m 31.599609,15.548828 c -0.427551,0.0068 -1.16593,-0.05827 -1.964843,0.359375 -2.783568,1.434215 -2.918837,2.243781 -5.884766,2.699219 H 5 c -0.8309833,0 -1.5807874,0.33468 -2.1230469,0.876953 -0.5267593,0.526718 -0.8330764,1.259871 -0.8515625,2.0625 v 0.904297 0.546875 c 0.018486,-0.802629 0.3248032,-1.535782 0.8515625,-2.0625 C 3.4192126,20.393274 4.1690167,20.058594 5,20.058594 H 23.75 C 26.715929,19.603156 26.851198,18.79359 29.634766,17.359375 30.433679,16.941729 31.172058,17.006803 31.599609,17 h 23.5 H 57 h 2.5 0.0039 c 0.6885,0.0014 1.312263,0.306205 1.763672,0.802734 C 61.720008,18.300387 62,18.988649 62,19.748047 v -0.117188 -1.333984 c 0,-0.759398 -0.279992,-1.447659 -0.732422,-1.945313 -0.451409,-0.496529 -1.075172,-0.801354 -1.763672,-0.802734 H 59.5 57 55.099609 Z M 2.0253906,23.5 C 2.0155637,23.599366 2,23.69659 2,23.798828 V 25.25 c 0,-0.102238 0.015564,-0.199462 0.025391,-0.298828 v -1.048828 z"
       transform="scale(0.26457812)" />
  </g>
  <path
     d="m 11.952913,9.251542 c -0.506221,0.6166908 -1.369788,1.596161 -1.369788,1.596161 0,0 0.11446,1.156619 0.196494,1.920464 0.03562,0.388936 -0.244658,0.556962 -0.562356,0.405489 C 9.6131597,12.869988 8.673382,12.276373 8.4665,12.170594 c -0.210484,0.105062 -1.1193213,0.690759 -1.7295343,0.993711 -0.321298,0.151113 -0.604814,-0.01691 -0.568839,-0.405132 0.08311,-0.762402 0.1817483,-1.91147 0.1817483,-1.91147 0,0 -0.8563663,-0.9841532 -1.3687183,-1.6001194 C 4.8001847,9.0237816 4.9164067,8.7057322 5.2733207,8.6474392 6.0015427,8.509636 7.1295017,8.4665 7.1295017,8.4665 c 0,0 0.617042,-1.3136527 1.007427,-2.0105758 0.214794,-0.4238421 0.36339,-0.3749075 0.38893,-0.3623139 0.06621,0.02267 0.170909,0.105055 0.307269,0.3626727 0.386061,0.6976405 0.9562629,2.010217 0.9562629,2.010217 0,0 1.1550194,0.046012 1.8746124,0.1838147 0.352596,0.059005 0.467729,0.3774262 0.28891,0.6012206 z"
     p-id="13941"
     id="path1100"
     style="fill:url(#linearGradient1118);fill-opacity:1;stroke-width:0.00703181"
     sodipodi:nodetypes="cccccccccccccccccc" />
</svg>
