<svg width="22" height="22" version="1.1" viewBox="0 0 22 22" xmlns="http://www.w3.org/2000/svg">
 <defs>
  <style id="current-color-scheme" type="text/css">.ColorScheme-Text { color:#727272; } .ColorScheme-Highlight { color:#5294e2; }</style>
 </defs>
  <path class="ColorScheme-Text" d="M 11.75 3 C 11.738947 3 11.729621 3.0051599 11.71875 3.0058594 C 11.687325 3.0077729 11.658032 3.0173684 11.626953 3.0253906 C 11.590664 3.0347732 11.555997 3.0437414 11.523438 3.0605469 C 11.515846 3.0644358 11.507473 3.0640451 11.5 3.0683594 C 11.484465 3.0773285 11.475128 3.0912627 11.460938 3.1015625 C 11.428914 3.1248014 11.400626 3.1496403 11.375 3.1796875 C 11.355872 3.2019903 11.340883 3.2250614 11.326172 3.25 C 11.309322 3.2785148 11.294187 3.3060634 11.283203 3.3378906 C 11.271102 3.3724621 11.266002 3.4069239 11.261719 3.4433594 C 11.259433 3.4628347 11.25 3.4798909 11.25 3.5 L 11.25 14.503906 A 2.5 2.5 0 0 0 9.75 14 A 2.5 2.5 0 0 0 7.25 16.5 A 2.5 2.5 0 0 0 9.75 19 A 2.5 2.5 0 0 0 12.25 16.5 A 2.5 2.5 0 0 0 12.222656 16.164062 C 12.235073 16.12034 12.25 16.077106 12.25 16.029297 L 12.25 5.3671875 L 13.816406 8.0800781 C 13.954906 8.3199672 14.260111 8.4021719 14.5 8.2636719 C 14.739889 8.1251719 14.822094 7.8199672 14.683594 7.5800781 L 12.183594 3.25 C 12.17302 3.2316854 12.154986 3.2215202 12.142578 3.2050781 C 12.120792 3.1760678 12.099753 3.1485973 12.072266 3.125 C 12.050337 3.1061109 12.02645 3.0927339 12.001953 3.078125 C 11.971589 3.0599571 11.942344 3.0427142 11.908203 3.03125 C 11.877596 3.020884 11.846525 3.0179545 11.814453 3.0136719 C 11.792381 3.0107177 11.772906 3 11.75 3 z M 9.7441406 15 A 1.5056245 1.5 0 0 1 11.25 16.5 A 1.5056245 1.5 0 0 1 9.7441406 18 A 1.5056245 1.5 0 0 1 8.2382812 16.5 A 1.5056245 1.5 0 0 1 9.7441406 15 z "
     fill="currentColor"/>
</svg>
