<?xml version="1.0" encoding="UTF-8"?>
<svg width="64" height="64" version="1.1" viewBox="0 0 16.933 16.933" xmlns="http://www.w3.org/2000/svg" xmlns:cc="http://creativecommons.org/ns#" xmlns:dc="http://purl.org/dc/elements/1.1/" xmlns:rdf="http://www.w3.org/1999/02/22-rdf-syntax-ns#" xmlns:xlink="http://www.w3.org/1999/xlink">
 <defs>
  <filter id="filter2000" x="-.0388" y="-.062919" width="1.0776" height="1.1258" color-interpolation-filters="sRGB">
   <feGaussianBlur stdDeviation="0.25664078"/>
  </filter>
  <linearGradient id="linearGradient3135" x1="10.798" x2="10.798" y1="282.88" y2="283.29" gradientTransform="matrix(1.5182 0 0 .48947 -8.5513 -126.3)" gradientUnits="userSpaceOnUse" xlink:href="#linearGradient1498"/>
  <linearGradient id="linearGradient1498">
   <stop stop-color="#a0a0a0" offset="0"/>
   <stop stop-color="#f0f0f0" offset="1"/>
  </linearGradient>
  <linearGradient id="linearGradient3133" x1="10.798" x2="10.798" y1="282.88" y2="283.29" gradientTransform="matrix(1.5182 0 0 .78316 -8.5513 -208.75)" gradientUnits="userSpaceOnUse" xlink:href="#linearGradient1498"/>
  <linearGradient id="linearGradient924" x1="162.61" x2="162.61" y1="15.335" y2="27.41" gradientTransform="matrix(.54607 0 0 .54607 -73.417 -7.3813)" gradientUnits="userSpaceOnUse" xlink:href="#linearGradient922"/>
  <linearGradient id="linearGradient922">
   <stop stop-color="#91aab4" offset="0"/>
   <stop stop-color="#648291" offset="1"/>
  </linearGradient>
  <linearGradient id="linearGradient951" x1="156.58" x2="168.85" y1="15.3" y2="27.534" gradientTransform="matrix(.54607 0 0 .54607 -73.417 -7.3566)" gradientUnits="userSpaceOnUse" xlink:href="#linearGradient922"/>
  <linearGradient id="linearGradient965-7" x1="162.73" x2="163.37" y1="20.333" y2="19.09" gradientTransform="matrix(.63006 0 0 .63006 -85.64 -9.1715)" gradientUnits="userSpaceOnUse">
   <stop stop-color="#fafafa" offset="0"/>
   <stop stop-color="#c8e6f0" offset="1"/>
  </linearGradient>
  <filter id="filter1547" x="-.04687" y="-.049186" width="1.0937" height="1.0984" color-interpolation-filters="sRGB">
   <feGaussianBlur stdDeviation="0.16280359"/>
  </filter>
 </defs>
 <metadata>
  <rdf:RDF>
   <cc:Work rdf:about="">
    <dc:format>image/svg+xml</dc:format>
    <dc:type rdf:resource="http://purl.org/dc/dcmitype/StillImage"/>
    <dc:title/>
   </cc:Work>
  </rdf:RDF>
 </metadata>
 <rect transform="matrix(.97792 0 0 1 .18696 -.52924)" x=".52916" y="5.7222" width="15.875" height="9.7894" ry=".71244" filter="url(#filter2000)" opacity=".2"/>
 <path d="m1.1979 2.249c-0.36531 0-0.66145 0.32576-0.66145 0.7276v2.9637c-0.0026 0.02629-0.0072 0.052-0.0072 0.07906v7.9375c0 0.40185 0.29615 0.7276 0.66145 0.7276h14.552c0.36532 0 0.66145-0.32576 0.66145-0.7276v-9.3932c0-0.40185-0.29615-0.7276-0.66145-0.7276v5.17e-4h-8.3277c-0.19843 0-0.39688-0.06615-0.58704-0.1695-0.1902-0.10335-0.37211-0.24391-0.53747-0.39273-0.33073-0.29766-0.59531-0.62838-0.7276-0.76068-0.11517-0.11517-0.29265-0.18102-0.46974-0.21859-0.16944-0.035941-0.33337-0.044142-0.44649-0.045992h-0.14211z" fill="#ffe696" stroke-width=".26458"/>
 <rect x=".52887" y="4.8948" width="15.875" height="9.7896" ry=".71245" fill="#ffc832"/>
 <path d="m0.52887 12.194v0.13126l15.875 1e-3v-0.13229z" fill="url(#linearGradient3135)" opacity=".8" stroke-width="1.1269" style="paint-order:normal"/>
 <path d="m0.52887 12.832v0.21032l15.875 0.0015v-0.21187z" fill="url(#linearGradient3133)" opacity=".8" stroke-width="1.4255" style="paint-order:normal"/>
 <g transform="translate(0 .34893)" filter="url(#filter1547)" opacity=".2">
  <path d="m12.757 7.5046 1.1399 0.65813c0.11095 0.064057 0.13348 0.19745 0.08464 0.3159l-0.41841 1.015c-0.04884 0.11845-0.20495 0.1487-0.3159 0.084644l-1.4122-0.81534c-0.11095-0.064057-0.165-0.21612-0.084645-0.3159l0.69074-0.85776c0.08036-0.099771 0.20495-0.1487 0.3159-0.084644z"/>
  <path d="m8.5881 14.726 1.1399 0.65813c0.11095 0.06406 0.23774 0.01688 0.3159-0.08465l0.66979-0.86985c0.07816-0.10152 0.0263-0.25184-0.08465-0.3159l-1.4122-0.81533c-0.11095-0.06406-0.26967-0.03483-0.3159 0.08464l-0.39747 1.0271c-0.046223 0.11948-0.026302 0.25184 0.084644 0.3159z"/>
  <path d="m15.399 10.791-1.8e-5 1.3163c1e-6 0.12812-0.10421 0.21435-0.23125 0.23125l-1.0882 0.14515c-0.12699 0.01693-0.23125-0.10313-0.23125-0.23125l2.7e-5 -1.6307c7e-6 -0.12811 0.10466-0.25096 0.23126-0.23125l1.0882 0.1693c0.1266 0.01971 0.23125 0.10313 0.23124 0.23126z"/>
  <path d="m7.0631 10.792-1.77e-5 1.3163c2e-7 0.12812 0.10426 0.21431 0.23125 0.23125l1.0882 0.14513c0.12699 0.01692 0.23125-0.10313 0.23125-0.23125l1.8e-5 -1.6307c-6e-7 -0.12812-0.10467-0.25096-0.23125-0.23125l-1.0882 0.16931c-0.12659 0.01972-0.23125 0.10315-0.23125 0.23127z"/>
  <path d="m13.887 14.732-1.1399 0.65815c-0.11095 0.06406-0.23774 0.01687-0.31589-0.08465l-0.66979-0.86985c-0.07816-0.1015-0.02631-0.25183 0.08465-0.31589l1.4122-0.81537c0.11095-0.06406 0.26965-0.03484 0.31589 0.08465l0.39748 1.0271c0.04622 0.11949 0.0263 0.25185-0.08466 0.31591z"/>
  <path d="m9.7198 7.5123-1.1399 0.65815c-0.11095 0.064061-0.13348 0.19745-0.084647 0.31589l0.41839 1.015c0.04883 0.11844 0.20495 0.14869 0.31589 0.084647l1.4122-0.81537c0.11095-0.064061 0.165-0.21612 0.08465-0.31591l-0.69071-0.85775c-0.080363-0.099778-0.20495-0.14869-0.3159-0.08463z"/>
  <circle transform="rotate(30)" cx="15.445" cy="4.2896" r="3.3385" stroke="url(#linearGradient951)" stroke-width=".043344"/>
  <circle transform="rotate(120)" cx="4.2896" cy="-15.445" r="1.8783" stroke="#4f6c7a" stroke-width=".96202"/>
  <path d="m10.292 13.064a1.8783 1.8783 0 0 1-0.79639-2.3452 1.8783 1.8783 0 0 1 2.221-1.0962 1.8783 1.8783 0 0 1 1.3771 2.0586" stroke="#00a2f3" stroke-width=".96202"/>
  <circle transform="rotate(30)" cx="17.039" cy="3.2721" r=".73464" stroke-width=".54607"/>
 </g>
 <g fill="#5a7882" stroke-width=".54607">
  <path d="m12.757 7.5046 1.1399 0.65813c0.11095 0.064057 0.13348 0.19745 0.08464 0.3159l-0.41841 1.015c-0.04884 0.11845-0.20495 0.1487-0.3159 0.084644l-1.4122-0.81534c-0.11095-0.064057-0.165-0.21612-0.084645-0.3159l0.69074-0.85776c0.08036-0.099771 0.20495-0.1487 0.3159-0.084644z"/>
  <path d="m8.5881 14.726 1.1399 0.65813c0.11095 0.06406 0.23774 0.01688 0.3159-0.08465l0.66979-0.86985c0.07816-0.10152 0.0263-0.25184-0.08465-0.3159l-1.4122-0.81533c-0.11095-0.06406-0.26967-0.03483-0.3159 0.08464l-0.39747 1.0271c-0.046223 0.11948-0.026302 0.25184 0.084644 0.3159z"/>
  <path d="m15.399 10.791-1.8e-5 1.3163c1e-6 0.12812-0.10421 0.21435-0.23125 0.23125l-1.0882 0.14515c-0.12699 0.01693-0.23125-0.10313-0.23125-0.23125l2.7e-5 -1.6307c7e-6 -0.12811 0.10466-0.25096 0.23126-0.23125l1.0882 0.1693c0.1266 0.01971 0.23125 0.10313 0.23124 0.23126z"/>
  <path d="m7.0631 10.792-1.77e-5 1.3163c2e-7 0.12812 0.10426 0.21431 0.23125 0.23125l1.0882 0.14513c0.12699 0.01692 0.23125-0.10313 0.23125-0.23125l1.8e-5 -1.6307c-6e-7 -0.12812-0.10467-0.25096-0.23125-0.23125l-1.0882 0.16931c-0.12659 0.01972-0.23125 0.10315-0.23125 0.23127z"/>
  <path d="m13.887 14.732-1.1399 0.65815c-0.11095 0.06406-0.23774 0.01687-0.31589-0.08465l-0.66979-0.86985c-0.07816-0.1015-0.02631-0.25183 0.08465-0.31589l1.4122-0.81537c0.11095-0.06406 0.26965-0.03484 0.31589 0.08465l0.39748 1.0271c0.04622 0.11949 0.0263 0.25185-0.08466 0.31591z"/>
  <path d="m9.7198 7.5123-1.1399 0.65815c-0.11095 0.064061-0.13348 0.19745-0.084647 0.31589l0.41839 1.015c0.04883 0.11844 0.20495 0.14869 0.31589 0.084647l1.4122-0.81537c0.11095-0.064061 0.165-0.21612 0.08465-0.31591l-0.69071-0.85775c-0.080363-0.099778-0.20495-0.14869-0.3159-0.08463z"/>
 </g>
 <g stroke-dashoffset=".42096">
  <circle transform="rotate(30)" cx="15.445" cy="4.2896" r="3.3385" fill="url(#linearGradient924)" stroke="url(#linearGradient951)" stroke-width=".043344"/>
  <circle transform="rotate(120)" cx="4.2896" cy="-15.445" r="1.8783" fill="#2a495d" stroke="#4f6c7a" stroke-width=".96202"/>
  <path d="m10.292 13.064a1.8783 1.8783 0 0 1-0.79639-2.3452 1.8783 1.8783 0 0 1 2.221-1.0962 1.8783 1.8783 0 0 1 1.3771 2.0586" fill="none" stroke="#00a2f3" stroke-width=".96202"/>
 </g>
 <circle transform="rotate(30)" cx="17.039" cy="3.2721" r=".73464" fill="url(#linearGradient965-7)" stroke-width=".54607"/>
</svg>
