<?xml version="1.0" encoding="UTF-8"?>
<svg width="64" height="64" version="1.1" viewBox="0 0 16.933 16.933" xmlns="http://www.w3.org/2000/svg" xmlns:cc="http://creativecommons.org/ns#" xmlns:dc="http://purl.org/dc/elements/1.1/" xmlns:rdf="http://www.w3.org/1999/02/22-rdf-syntax-ns#" xmlns:xlink="http://www.w3.org/1999/xlink">
 <defs>
  <linearGradient id="linearGradient894" x1=".52916" x2="16.404" y1="14.42" y2="2.5135" gradientTransform="matrix(1 0 0 1.1111 -23.493 -.94071)" gradientUnits="userSpaceOnUse">
   <stop stop-color="#323232" offset="0"/>
   <stop stop-color="#646464" offset="1"/>
  </linearGradient>
  <linearGradient id="linearGradient3135" x1="10.798" x2="10.798" y1="282.88" y2="283.29" gradientTransform="matrix(1.5182 0 0 .48946 11.411 -125.77)" gradientUnits="userSpaceOnUse" xlink:href="#linearGradient1498"/>
  <linearGradient id="linearGradient1498">
   <stop stop-color="#a0a0a0" offset="0"/>
   <stop stop-color="#f0f0f0" offset="1"/>
  </linearGradient>
  <linearGradient id="linearGradient3133" x1="10.798" x2="10.798" y1="282.88" y2="283.29" gradientTransform="matrix(1.5182 0 0 .78314 11.411 -208.22)" gradientUnits="userSpaceOnUse" xlink:href="#linearGradient1498"/>
  <linearGradient id="linearGradient930" x1=".52916" x2="16.404" y1="14.42" y2="2.5135" gradientTransform="matrix(1 0 0 1.1111 -23.493 -.94071)" gradientUnits="userSpaceOnUse">
   <stop stop-color="#238cd2" offset="0"/>
   <stop stop-color="#3cd2ff" offset="1"/>
  </linearGradient>
 </defs>
 <metadata>
  <rdf:RDF>
   <cc:Work rdf:about="">
    <dc:format>image/svg+xml</dc:format>
    <dc:type rdf:resource="http://purl.org/dc/dcmitype/StillImage"/>
    <dc:title/>
   </cc:Work>
  </rdf:RDF>
 </metadata>
 <circle cx="-330.35" cy="-328.38" r="0" fill="#5e4aa6" stroke-width=".26458"/>
 <circle cx="-312.93" cy="-341.25" r="0" fill="#5e4aa6" stroke-width=".26458"/>
 <g transform="translate(-19.962 -.5292)">
  <path d="m21.16 2.7781c-0.3653 0-0.66144 0.32575-0.66144 0.72759v2.9636c-0.0026 0.026294-0.0072 0.052003-0.0072 0.079063v7.9373c0 0.40184 0.29614 0.72759 0.66144 0.72759h14.552c0.36531 0 0.66144-0.32575 0.66144-0.72759v-9.393c0-0.40184-0.29614-0.72759-0.66144-0.72759v5.167e-4h-8.3275c-0.19843 0-0.39687-0.066145-0.58703-0.1695-0.1902-0.10335-0.3721-0.24391-0.53746-0.39273-0.33072-0.29765-0.5953-0.62837-0.72759-0.76066-0.11517-0.11517-0.29264-0.18102-0.46973-0.21859-0.16944-0.03594-0.33336-0.044141-0.44648-0.045991h-0.14211z" fill="#ffe696" stroke-width=".26458"/>
  <rect x="20.491" y="5.4239" width="15.875" height="9.7894" ry=".71244" fill="#ffc832"/>
  <path d="m20.491 12.723v0.13126l15.875 1e-3v-0.13229z" fill="url(#linearGradient3135)" opacity=".8" stroke-width="1.1269" style="paint-order:normal"/>
  <path d="m20.491 13.361v0.21032l15.875 0.0015v-0.21187z" fill="url(#linearGradient3133)" opacity=".8" stroke-width="1.4255" style="paint-order:normal"/>
 </g>
 <g transform="matrix(.51293 0 0 .51293 18.066 6.756)" fill-rule="evenodd" stroke-width="1.0541">
  <rect x="-22.964" y="1.8521" width="15.875" height="13.229" ry="1.1911" fill="url(#linearGradient894)" style="paint-order:stroke fill markers"/>
  <path d="m-21.891 15.081c-0.14543 0-0.28356-0.03292-0.40979-0.09072-0.0139-0.0065-0.02671-0.01481-0.04031-0.02182-0.36707-0.18867-0.62217-0.5984-0.62217-1.0789v-0.1424h15.875v0.1424c0 0.65989-0.47785 1.1914-1.0717 1.1914z" fill="#fff" opacity=".35" style="paint-order:stroke fill markers"/>
 </g>
 <g transform="matrix(.4374 0 0 .4374 18.55 8.7494)" fill-rule="evenodd" stroke-width="1.0541">
  <rect x="-22.964" y="1.8521" width="15.875" height="13.229" ry="1.1911" fill="url(#linearGradient930)" style="paint-order:stroke fill markers"/>
  <path d="m-21.891 15.081c-0.14543 0-0.28356-0.03292-0.40979-0.09072-0.0139-0.0065-0.02671-0.01481-0.04031-0.02182-0.36707-0.18867-0.62217-0.5984-0.62217-1.0789v-0.1424h15.875v0.1424c0 0.65989-0.47785 1.1914-1.0717 1.1914z" fill="#fff" opacity=".35" style="paint-order:stroke fill markers"/>
 </g>
</svg>
