<?xml version="1.0" encoding="UTF-8"?>
<svg width="16" height="16" version="1.1" viewBox="0 0 16 16" xmlns="http://www.w3.org/2000/svg" xmlns:cc="http://creativecommons.org/ns#" xmlns:dc="http://purl.org/dc/elements/1.1/" xmlns:rdf="http://www.w3.org/1999/02/22-rdf-syntax-ns#">
 <metadata>
  <rdf:RDF>
   <cc:Work rdf:about="">
    <dc:format>image/svg+xml</dc:format>
    <dc:type rdf:resource="http://purl.org/dc/dcmitype/StillImage"/>
    <dc:title/>
   </cc:Work>
  </rdf:RDF>
 </metadata>
 <defs>
  <style id="current-color-scheme" type="text/css">.ColorScheme-Text { color:#363636; }</style>
  <linearGradient id="linearGradient1005-3" x1="15.087" x2="3.1808" y1="15.187" y2="3.2805" gradientTransform="matrix(.7559 0 0 .75591 16.596 14.52)" gradientUnits="userSpaceOnUse">
   <stop stop-color="#26576d" offset="0"/>
   <stop stop-color="#58b1dd" offset=".67617"/>
   <stop stop-color="#58b1de" offset="1"/>
  </linearGradient>
  <linearGradient id="linearGradient1134" x1="300.65" x2="327.81" y1="70.232" y2="36.997" gradientTransform="matrix(.22945 0 0 .23179 -47.997 8.2396)" gradientUnits="userSpaceOnUse">
   <stop stop-color="#d2edf3" offset="0"/>
   <stop stop-color="#add4dd" offset="1"/>
  </linearGradient>
 </defs>
 <path class="ColorScheme-Text" d="m25.572 0a8 8 0 0 0-0.15234 0.0058594l-2e-3 0.0019531a8 8 0 0 0-0.03516 0.0019531 8.1695 8.1695 0 0 0-0.0293-0.0019531 8 8 0 0 0-0.09766 0.0078125 8 8 0 0 0-0.67383 0.052734 8 8 0 0 0-0.10156 0.015625 8 8 0 0 0-0.66406 0.11914 8 8 0 0 0-0.1582 0.039062 8 8 0 0 0-0.63477 0.18359 8 8 0 0 0-0.07617 0.027344 8 8 0 0 0-0.68555 0.27148 8 8 0 0 0-0.01563 0.007813 8 8 0 0 0-0.68945 0.35547 8 8 0 0 0-0.0332 0.021484 8 8 0 0 0-0.64258 0.41992 8 8 0 0 0-0.01367 0.00977 8 8 0 0 0-0.5918 0.47656 8 8 0 0 0-0.07227 0.066406 8 8 0 0 0-0.5 0.49219 8 8 0 0 0-0.0625 0.070312 8 8 0 0 0-0.45898 0.55469 8 8 0 0 0-0.02539 0.037109 8 8 0 0 0-0.41211 0.60938 8 8 0 0 0-0.06055 0.10352 8 8 0 0 0-0.31445 0.58594 8 8 0 0 0-0.0625 0.13867 8 8 0 0 0-0.25586 0.62305 8 8 0 0 0-0.02344 0.068359 8 8 0 0 0-0.20312 0.66992 8 8 0 0 0-0.06445 0.26758c0.0013 5.628e-4 0.0026 0.00139 0.0039 0.00195a8 8 0 0 0-0.01758 0.083984 8 8 0 0 0-0.09375 0.55273 8 8 0 0 0-0.0332 0.27148 8 8 0 0 0-0.04102 0.61719 8 8 0 0 0-0.0059 0.16992 8 8 0 0 0 4.5859 7.2246 8 8 0 0 0 0.01172 0.0059 8 8 0 0 0 0.38867 0.17383v2e-3a8 8 0 0 0 0.0098 0.0039 8 8 0 0 0 0.61719 0.2168 8 8 0 0 0 0.1543 0.05078 8 8 0 0 0 0.53906 0.13086 8 8 0 0 0 0.25781 0.05664 8 8 0 0 0 0.51367 0.07227 8 8 0 0 0 0.27734 0.0332 8 8 0 0 0 0.64453 0.0293 8 8 0 0 0 0.66211-0.03125v-2e-3a8 8 0 0 0 0.01367 0 8 8 0 0 0 0.73633-0.09961 8 8 0 0 0 0.05664-0.0078 8 8 0 0 0 0.01172-2e-3 8 8 0 0 0 0.76563-0.18555 8 8 0 0 0 3.6543-2.2832 8 8 0 0 0 0.01953-0.02148 8 8 0 0 0 0.19922-0.21289 8 8 0 0 0 2e-3 -0.0039c-0.0052 0.0019-0.01045 0.0039-0.01563 0.0059a8 8 0 0 0 1.8945-5.1562 8 8 0 0 0-0.26172-1.9902c0.0013-4.06e-5 0.0026 4e-5 0.0039 0a8 8 0 0 0-0.02148-0.064453 8 8 0 0 0-0.0039-0.013672 8 8 0 0 0-0.19336-0.62109 8 8 0 0 0-0.04297-0.11914 8 8 0 0 0-1.1016-2.0059 8 8 0 0 0-0.0293-0.037109 8 8 0 0 0-0.02344-0.029297 8 8 0 0 0-1.0352-1.1074 8 8 0 0 0-0.04687-0.039063 8 8 0 0 0-0.0098-0.00977 8 8 0 0 0-0.56445-0.44727 8 8 0 0 0-0.07031-0.050781 8 8 0 0 0-0.57617-0.36719 8 8 0 0 0-0.08984-0.052734 8 8 0 0 0-3.9336-1.0449zm0 1a7 7 0 0 1 0.02344 0.00195c-0.0049 0.12253-0.02344 0.24142-0.02344 0.36523 0 0.9854 0.12584 1.9405 0.33984 2.8613-1.1091 0.93745-2.4934 1.5589-4.0176 1.7246 0.4294-1.8215 1.2905-3.4696 2.4629-4.8457a7 7 0 0 1 0.49414-0.0625 7 7 0 0 1 0.21289-0.025391 7 7 0 0 1 0.50781-0.019531zm1.0176 0.082031a7 7 0 0 1 0.01563 0.00391 7 7 0 0 1 0.66797 0.13281 7 7 0 0 1 2e-3 0 7 7 0 0 1 2e-3 0 7 7 0 0 1 0.66797 0.20508 7 7 0 0 1 0.02344 0.00781c-0.30467 0.7143-0.71025 1.3749-1.209 1.9551-0.11504-0.6572-0.1875-1.3291-0.1875-2.0195 0-0.09654 0.01488-0.18928 0.01758-0.28516zm-3.8613 0.53125c-0.88323 1.306-1.5326 2.7808-1.873 4.375-0.6532-0.01864-1.2809-0.12781-1.8809-0.30273a7 7 0 0 1 0.25781-0.63281 7 7 0 0 1 0.01953-0.041016 7 7 0 0 1 0.31055-0.58594 7 7 0 0 1 0.0098-0.015625 7 7 0 0 1 0.38281-0.57227 7 7 0 0 1 0.44141-0.53711 7 7 0 0 1 0.0078-0.00977 7 7 0 0 1 0.48242-0.48047 7 7 0 0 1 0.02344-0.019531 7 7 0 0 1 0.51562-0.41992 7 7 0 0 1 0.03125-0.021484 7 7 0 0 1 0.55859-0.36914 7 7 0 0 1 0.01563-0.00781 7 7 0 0 1 0.61133-0.32031 7 7 0 0 1 0.08594-0.039063zm6.1484 0.21875a7 7 0 0 1 0.0059 0.00391 7 7 0 0 1 0.59375 0.35742 7 7 0 0 1 0.5 0.37305 7 7 0 0 1 0.06055 0.044922 7 7 0 0 1 0.0059 0.00586 7 7 0 0 1 0.45117 0.41211 7 7 0 0 1 0.05859 0.054688 7 7 0 0 1 0.0039 0.00586 7 7 0 0 1 0.33594 0.37305 7 7 0 0 1 0.13867 0.16016 7 7 0 0 1 0.25977 0.35352 7 7 0 0 1 0.15039 0.21289 7 7 0 0 1 0.29297 0.50195 7 7 0 0 1 0.04883 0.083984 7 7 0 0 1 2e-3 0.00586 7 7 0 0 1 0.23828 0.51758 7 7 0 0 1 0.05078 0.11328 7 7 0 0 1 0.0039 0.011719 7 7 0 0 1 0.15625 0.45703 7 7 0 0 1 0.07617 0.22656c-1.4278 0.2149-2.7415 0.77943-3.8457 1.6133-0.63033-0.9649-1.1166-2.0286-1.4395-3.1641 0.7851-0.7717 1.4127-1.6983 1.8516-2.7246zm-2.6816 3.4355c0.3607 1.109 0.86629 2.1525 1.502 3.1035-1.2292 1.1787-2.1088 2.7182-2.457 4.4512-1.1424-0.19436-2.2259-0.5536-3.2285-1.0547-0.27868-0.9986-0.43945-2.0466-0.43945-3.1348 0-0.5675 0.0545-1.1203 0.13281-1.666 1.6799-0.1247 3.2223-0.73726 4.4902-1.6992zm-7.4883 1.3672c0.6353 0.1889 1.2968 0.31508 1.9863 0.3457-0.07114 0.542-0.12109 1.0911-0.12109 1.6523 0 0.8395 0.08752 1.6592 0.24414 2.4531-0.7856-0.5172-1.4925-1.1383-2.127-1.8262a7 7 0 0 1 0-0.00195 7 7 0 0 1-0.06836-0.50195 7 7 0 0 1-0.02734-0.22266 7 7 0 0 1-0.02148-0.5332 7 7 0 0 1 0.03516-0.69922 7 7 0 0 1 0.09961-0.66602zm13.797 0.45117a7 7 0 0 1 0.05859 0.66406 7 7 0 0 1 0.0098 0.25 7 7 0 0 1-0.70703 3.043 7 7 0 0 1-0.02344 0.05273c-1.0662-0.7006-2.0125-1.566-2.7969-2.5684 0.9896-0.7507 2.1713-1.2568 3.459-1.4414zm-4.2129 2.0898c0.8577 1.087 1.8961 2.0176 3.0605 2.7734a7 7 0 0 1-2e-3 0.0039 7 7 0 0 1-0.2832 0.37109c-1.2096 0.42703-2.5046 0.67578-3.8613 0.67578-0.32798 0-0.64964-0.02229-0.9707-0.04883 0.3059-1.4617 1.0363-2.7633 2.0566-3.7754zm-8.8984 2.1016c0.5552 0.44425 1.1479 0.84413 1.7773 1.1875 0.1492 0.46809 0.32934 0.92167 0.53125 1.3633a7 7 0 0 1-0.0059-0.0039 7 7 0 0 1-0.5293-0.39258 7 7 0 0 1-0.03125-0.02344 7 7 0 0 1-0.51367-0.4668 7 7 0 0 1-0.46875-0.51953 7 7 0 0 1-0.41406-0.5625 7 7 0 0 1-0.3457-0.58203zm3.0566 1.7871c0.8443 0.34419 1.7346 0.59108 2.6582 0.74609-0.01846 0.22827-0.03516 0.45649-0.03516 0.68945 0 0.16094 0.01218 0.3181 0.02148 0.47656a7 7 0 0 1-0.0098-2e-3 7 7 0 0 1-1.8516-0.38672 7 7 0 0 1-0.0078-2e-3c-0.29525-0.484-0.55676-0.99058-0.77539-1.5215zm7.0605 0.71484a7 7 0 0 1-0.0039 0.0039 7 7 0 0 1-0.58203 0.35352 7 7 0 0 1-0.01172 0.0078 7 7 0 0 1-0.0059 2e-3 7 7 0 0 1-0.5332 0.25977 7 7 0 0 1-0.13086 0.05664 7 7 0 0 1-0.51367 0.1875 7 7 0 0 1-0.14453 0.04687 7 7 0 0 1-0.48242 0.125 7 7 0 0 1-0.2168 0.04883 7 7 0 0 1-0.44922 0.06641 7 7 0 0 1-0.33398 0.04102c-0.01257-0.15893-0.0293-0.3161-0.0293-0.47852 0-0.18734 0.01391-0.37084 0.02734-0.55469 0.36492 0.03177 0.73241 0.05469 1.1055 0.05469 0.7889 0 1.5586-0.07698 2.3047-0.2207z" fill="currentColor"/>
 <g transform="matrix(1.0666 0 0 1.0666 4.2053 -1.3143)">
  <g transform="translate(-17.965 -13.683)">
   <path d="m29.022 20.915c0 0.71928-0.12661 1.4089-0.35878 2.0481-0.16139 0.44424-0.37371 0.86422-0.63036 1.2527-0.10751 0.16334-0.2231 0.32107-0.34579 0.47266-0.3928 0.48514-0.8596 0.9076-1.3836 1.2505-0.19298 0.12637-0.39356 0.24197-0.60121 0.34554-0.80639 0.40357-1.7167 0.63059-2.6801 0.63059s-1.8737-0.22702-2.6801-0.6306c-0.20768-0.1036-0.40849-0.21919-0.60147-0.34554-0.53069-0.34751-1.0031-0.77662-1.3991-1.2698-0.12293-0.15281-0.23828-0.312-0.34579-0.47681-0.2498-0.38203-0.45672-0.79423-0.61492-1.2299-0.23214-0.63896-0.35852-1.3283-0.35852-2.0473 0-3.3137 2.6862-6 5.9999-6 1.6634 0 3.1685 0.6769 4.2553 1.7701 0.31321 0.31492 0.59167 0.66466 0.82867 1.0428 0.22408 0.35609 0.41142 0.73763 0.55713 1.139 0.2322 0.63919 0.3588 1.3288 0.3588 2.0481z" fill="url(#linearGradient1005-3)" stroke-width=".023438"/>
   <path d="m23.029 15.282-0.70491 0.40608c-0.08813 0.06249-0.11771 0.18741-0.02958 0.2499l0.20569 0.15619c0.02938 0.03124 0.08803 0.03124 0.11741 0.03124l0.61707-0.15619h0.02958l0.44051-0.2499c0.14689-0.06249 0.14689-0.24989 0-0.28114l-0.55837-0.15619zm2.8206 0.3436-1.1167 0.21866c-0.02938 0-0.02932-7e-6 -0.0587 0.03124l-1.3511 0.84386c-0.02938 0-0.05892 0.03124-0.08828 0.03124h-0.96927c-0.02938 0-0.05891-1e-5 -0.08828 0.03124l-1.6159 1.1557c-0.08813 0.0625-0.08813 0.18741 0 0.2499l0.29397 0.2499c0.02938 0.03125 0.11761 0.03124 0.14699 0.03124l1.0867-0.56227c0.05876-0.03125 0.11761-0.03125 0.14699 0l0.41138 0.31237c0.05876 0.03125 0.14693 0.03127 0.20569-0.03124l0.14698-0.18743c0.02938-0.0625 0.11735-0.06249 0.17612-0.03124l0.61707 0.31237s0.02913-1.5e-5 0.02913 0.03124l0.3818 0.34406c0.02938 0.03125 0.08847 0.03124 0.11786 0.03124l0.3818-0.06247c0.11751-0.03125 0.20549 0.09368 0.17612 0.18742l-0.11741 0.37485c-0.02938 0.0625 2e-4 0.12494 0.02957 0.15619l0.93975 0.90587c0.02938 0.03125 0.02931 0.06248 0.0587 0.09371l0.08828 0.62519c0 0.09373 0.11756 0.1562 0.2057 0.12495l0.76361-0.31237c0.02938 0 0.05915-0.03122 0.05915-0.06248l0.44051-0.62519c0.05876-0.0625 0.0587-0.0937 0.0587-0.15619l-0.0587-0.40608c-0.02938-0.12498 0.08798-0.21867 0.17612-0.18742l0.55837 0.18742c0.05876 0.03124 0.08783 0.06247 0.08783 0.12495l0.23527 1.1562c0.02938 0.12498 0.17626 0.1562 0.26439 0.06247l0.35268-0.46855c-0.23501-2.0934-1.4688-3.8745-3.1728-4.7806zm-0.32355 1.8747 0.73448 0.31237c0.04407 0.03124 0.07368 0.07022 0.0847 0.11317 0.01102 0.04296 0.0034 0.08985-0.02599 0.13672l-0.20524 0.31238c-0.02938 0.0625-0.08823 0.06247-0.14698 0.06247l-0.6462-0.09371c-0.08813 0-0.14724-0.0937-0.11786-0.18742l0.14699-0.49979c0.02938-0.09373 0.11735-0.12493 0.17612-0.15619zm-3.6428 1.4061-1.1454 0.09371c-0.14688 0-0.29387 0.09368-0.41138 0.21866l-0.73448 0.81216c-0.05876 0.0625-0.08828 0.12492-0.08828 0.21866v0.93754c0 0.09373 0.05911 0.18741 0.11786 0.2499l0.55792 0.40608c0.05876 0.03125 0.11756 0.06247 0.20569 0.06247l1.1459-0.12495c0.11751 0 0.23477 0.06247 0.29353 0.15619l0.76406 1.4374c0.02938 0.06249 0.05851 0.15617 0.02913 0.21866l-0.14654 0.56272c-0.02938 0.09373-2.53e-4 0.18741 0.02913 0.2499l0.67578 1.0933c0.05875 0.09373 0.17602 0.1562 0.29352 0.12495l0.91105-0.15619c0.08813 0 0.17632-0.06246 0.20569-0.15619l0.85193-1.531c0.02938-0.0625 0.02913-0.0937 0.02913-0.15619v-0.84336c0-0.09373 0.02953-0.18741 0.08828-0.2499l0.73448-0.68767c0.14689-0.12497 0.14689-0.34358 0-0.46855l-0.38181-0.31237-0.99888-0.78138c-0.05876-0.0625-0.11786-0.15616-0.11786-0.2499l-0.02913-0.56226c0.02938-0.09373-0.11751-0.21866-0.2644-0.21866h-1.7038c-0.02938 0-0.05911 1.2e-5 -0.11786-0.03124l-0.67533-0.28114c-0.02938-0.03124-0.08847-0.03124-0.11786-0.03124zm4.5539 4.5303c-0.02938 0-0.08829 0.03122-0.08829 0.06248l-0.49922 0.75014c-0.02938 0.03125-0.02958 0.0937-0.02958 0.12495l0.08828 0.46855c0.02938 0.09373 0.14693 0.1562 0.20569 0.09371l0.41094-0.2499c0.02938-0.03124 0.05871-0.06248 0.05871-0.09371l0.23527-0.96879c0.02938-0.09373-0.05886-0.18742-0.14699-0.18742z" fill="url(#linearGradient1134)" stroke-width=".82464"/>
  </g>
  <g transform="translate(-4.9426 1.2324)">
   <rect x="1" y="5" width="11" height="8" ry="0" fill="#0a6da8" stroke-width=".92787"/>
   <rect x="2.1" y="6" width="8.9" height="6" ry="0" fill="#25adff" stroke-width=".7228"/>
   <rect x="5.5" y="13" width="2" height="1" ry="0" fill="#c3ced5" stroke-width=".70711"/>
   <rect x="3.5" y="14" width="6" height="1" ry="0" fill="#a4bac1" stroke-width="1.2247"/>
  </g>
 </g>
</svg>
