<?xml version="1.0" encoding="UTF-8" standalone="no"?>
<svg
   width="16"
   height="16"
   version="1.1"
   id="svg345"
   sodipodi:docname="folder-templates.svg"
   inkscape:version="1.2.1 (9c6d41e410, 2022-07-14, custom)"
   xmlns:inkscape="http://www.inkscape.org/namespaces/inkscape"
   xmlns:sodipodi="http://sodipodi.sourceforge.net/DTD/sodipodi-0.dtd"
   xmlns="http://www.w3.org/2000/svg"
   xmlns:svg="http://www.w3.org/2000/svg">
  <sodipodi:namedview
     id="namedview347"
     pagecolor="#ffffff"
     bordercolor="#999999"
     borderopacity="1"
     inkscape:showpageshadow="0"
     inkscape:pageopacity="0"
     inkscape:pagecheckerboard="0"
     inkscape:deskcolor="#d1d1d1"
     showgrid="false"
     inkscape:zoom="13.03125"
     inkscape:cx="-7.2901679"
     inkscape:cy="2.1103117"
     inkscape:window-width="1920"
     inkscape:window-height="989"
     inkscape:window-x="0"
     inkscape:window-y="0"
     inkscape:window-maximized="1"
     inkscape:current-layer="svg345" />
  <defs
     id="defs341">
    <style
       id="current-color-scheme"
       type="text/css">.ColorScheme-Text { color:#363636; }</style>
  </defs>
  <path
     d="m 27.322284,2.0078 c -0.02062,0.00258 -0.04,0.015631 -0.06055,0.019531 -0.07284,0.013668 -0.13888,0.040876 -0.20703,0.070312 -0.03602,0.015516 -0.07455,0.017001 -0.10938,0.037109 -0.01754,0.010127 -0.02628,0.02807 -0.04297,0.039062 -0.05963,0.039037 -0.10921,0.088489 -0.16016,0.14062 -0.04279,0.043832 -0.08567,0.084809 -0.11914,0.13477 -0.013,0.019317 -0.0331,0.0303 -0.04492,0.050781 l -3.1758,5.5 h -2.957 c -0.554,0 -1,0.446 -1,1 0,0.554 0.446,1 1,1 h 1.8027 2.3105 4.6211 l -1.1543,-2 h -1.1582 -1.1543 l 1.7324,-3.002 1.1543,-2 -0.28711,-0.49805 c -0.01182,-0.020481 -0.03192,-0.031464 -0.04492,-0.050781 -0.03347,-0.049957 -0.07635,-0.090934 -0.11914,-0.13477 -0.05094,-0.052136 -0.10053,-0.10159 -0.16016,-0.14062 -0.01669,-0.010993 -0.02543,-0.028935 -0.04297,-0.039062 -0.03483,-0.020108 -0.07336,-0.021593 -0.10938,-0.037109 -0.06815,-0.029436 -0.13419,-0.056644 -0.20703,-0.070312 -0.06182,-0.011736 -0.12163,-0.011763 -0.18359,-0.011719 -0.04137,-2.92e-5 -0.08162,-0.013003 -0.12305,-0.00781 z m 1.8555,1.9902 -1.1543,2 1.1543,2.002 1.1543,2 2.248,3.8926 c 0.277,0.47978 0.88546,0.64419 1.3652,0.36719 0.47974,-0.277 0.64419,-0.88741 0.36719,-1.3672 l -1.6699,-2.8926 h 1.8027 c 0.554,0 1,-0.446 1,-1 0,-0.554 -0.446,-1 -1,-1 h -2.957 l -2.3105,-4.002 z m -7.5078,7.002 -1.0918,1.8926 c -0.277,0.47978 -0.11259,1.0902 0.36719,1.3672 0.47978,0.277 1.0882,0.11259 1.3652,-0.36719 l 1.6699,-2.8926 h -2.3105 z"
     style="fill:currentColor"
     class="ColorScheme-Text"
     id="path343" />
  <g
     transform="translate(23.228001,1.0360003)"
     id="g19">
    <rect
       x="-22.228001"
       y="0.96398997"
       width="14"
       height="10"
       ry="0"
       fill="#0a6da8"
       stroke-width="1.1703"
       id="rect9" />
    <rect
       x="-21.228001"
       y="1.964"
       width="12"
       height="8"
       ry="0"
       fill="#25adff"
       stroke-width="0.96913"
       id="rect11" />
    <rect
       x="-16.228001"
       y="10.964"
       width="2"
       height="1"
       ry="0"
       fill="#c3ced5"
       stroke-width="0.70711"
       id="rect13" />
    <rect
       x="-19.228001"
       y="11.964"
       width="8"
       height="1"
       ry="0"
       fill="#a4bac1"
       stroke-width="1.4142"
       id="rect15" />
    <rect
       x="-22.228001"
       y="13.964"
       width="14"
       height="1"
       ry="0"
       fill="#a4bac1"
       stroke-width="1.8708"
       id="rect17" />
  </g>
</svg>
