<?xml version="1.0" encoding="UTF-8"?>
<svg width="16" height="16" version="1.1" viewBox="0 0 16 16" xmlns="http://www.w3.org/2000/svg" xmlns:cc="http://creativecommons.org/ns#" xmlns:dc="http://purl.org/dc/elements/1.1/" xmlns:rdf="http://www.w3.org/1999/02/22-rdf-syntax-ns#" xmlns:xlink="http://www.w3.org/1999/xlink">
 <metadata>
  <rdf:RDF>
   <cc:Work rdf:about="">
    <dc:format>image/svg+xml</dc:format>
    <dc:type rdf:resource="http://purl.org/dc/dcmitype/StillImage"/>
    <dc:title/>
   </cc:Work>
  </rdf:RDF>
 </metadata>
 <defs>
  <style id="current-color-scheme" type="text/css">.ColorScheme-Text { color:#363636; }</style>
  <linearGradient id="linearGradient2193" x1="8.4665" x2="8.4665" y1="4.3382" y2="15.463" gradientTransform="matrix(3.9244 0 0 3.9244 -44.829 -20.745)" gradientUnits="userSpaceOnUse">
   <stop stop-color="#f0f5fa" offset="0"/>
   <stop stop-color="#e6ebf0" offset="1"/>
  </linearGradient>
 </defs>
 <path class="ColorScheme-Text" d="m24.644 0c-0.554 0-1 0.446-1 1v1h-4.5c-0.277 0-0.5 0.223-0.5 0.5s0.223 0.5 0.5 0.5h0.49805l0.54688 11.061c0.0612 1.0155 0.90615 1.9395 1.998 1.9395h7.9141c1.0919 0 1.9368-0.92391 1.998-1.9395l0.54688-11.061h0.49805c0.277 0 0.5-0.223 0.5-0.5s-0.223-0.5-0.5-0.5h-4.5v-1c0-0.554-0.446-1-1-1h-3zm0 1h3v1h-3zm-4 2h11l-0.54297 11c-0.03333 0.553-0.446 1-1 1h-7.9141c-0.554 0-0.96667-0.447-1-1l-0.54297-11zm2.5 2c-0.277 0-0.5 0.223-0.5 0.5v7c0 0.277 0.223 0.5 0.5 0.5s0.5-0.223 0.5-0.5v-7c0-0.277-0.223-0.5-0.5-0.5zm3 0c-0.277 0-0.5 0.223-0.5 0.5v7c0 0.277 0.223 0.5 0.5 0.5s0.5-0.223 0.5-0.5v-7c0-0.277-0.223-0.5-0.5-0.5zm3 0c-0.277 0-0.5 0.223-0.5 0.5v7c0 0.277 0.223 0.5 0.5 0.5s0.5-0.223 0.5-0.5v-7c0-0.277-0.223-0.5-0.5-0.5z" fill="currentColor"/>
 <g transform="matrix(.28987 0 0 .28987 11.416 4.3657)">
  <path d="m-30.716-12.621v1.2734a20.589 4.7882 0 0 1 0.07616-0.04102 20.589 4.7882 0 0 1 0.18358-0.0957 20.589 4.7882 0 0 1 0.19336-0.09375 20.589 4.7882 0 0 1 0.20119-0.09375 20.589 4.7882 0 0 1 0.21094-0.0918 20.589 4.7882 0 0 1 0.21876-0.08984 20.589 4.7882 0 0 1 0.22852-0.08985 20.589 4.7882 0 0 1 0.23437-0.08985 20.589 4.7882 0 0 1 0.24412-0.08594 20.589 4.7882 0 0 1 0.25195-0.08594 20.589 4.7882 0 0 1 0.2617-0.08594 20.589 4.7882 0 0 1 0.2676-0.08203 20.589 4.7882 0 0 1 0.27538-0.08203 20.589 4.7882 0 0 1 0.28321-0.08203 20.589 4.7882 0 0 1 0.29103-0.07813 20.589 4.7882 0 0 1 0.29882-0.07812 20.589 4.7882 0 0 1 0.30467-0.07617 20.589 4.7882 0 0 1 0.3125-0.07422 20.589 4.7882 0 0 1 0.32032-0.07422 20.589 4.7882 0 0 1 0.32421-0.07031 20.589 4.7882 0 0 1 0.33397-0.07031 20.589 4.7882 0 0 1 0.3379-0.06836 20.589 4.7882 0 0 1 0.34568-0.06641 20.589 4.7882 0 0 1 0.35158-0.06445 20.589 4.7882 0 0 1 0.35744-0.0625 20.589 4.7882 0 0 1 0.3633-0.06055 20.589 4.7882 0 0 1 0.36915-0.0586 20.589 4.7882 0 0 1 0.37501-0.05664 20.589 4.7882 0 0 1 0.37891-0.05664 20.589 4.7882 0 0 1 0.38476-0.05273 20.589 4.7882 0 0 1 0.38867-0.05078 20.589 4.7882 0 0 1 0.39453-0.05078 20.589 4.7882 0 0 1 0.39843-0.04687 20.589 4.7882 0 0 1 0.4043-0.04492 20.589 4.7882 0 0 1 0.40625-0.04297 20.589 4.7882 0 0 1 0.41211-0.04102 20.589 4.7882 0 0 1 0.41406-0.04102 20.589 4.7882 0 0 1 0.41992-0.03515 20.589 4.7882 0 0 1 0.42188-0.03515 20.589 4.7882 0 0 1 0.42383-0.03318 20.589 4.7882 0 0 1 0.42773-0.03126 20.589 4.7882 0 0 1 0.43164-0.02733 20.589 4.7882 0 0 1 0.43359-0.02733 20.589 4.7882 0 0 1 0.43555-0.02343 20.589 4.7882 0 0 1 0.4375-0.02147 20.589 4.7882 0 0 1 0.43945-0.01954 20.589 4.7882 0 0 1 0.44141-0.01757 20.589 4.7882 0 0 1 0.44336-0.01561 20.589 4.7882 0 0 1 0.44531-0.01368 20.589 4.7882 0 0 1 0.44531-0.0098 20.589 4.7882 0 0 1 0.44531-0.0078 20.589 4.7882 0 0 1 0.44726-0.0078 20.589 4.7882 0 0 1 0.44727-0.0039 20.589 4.7882 0 0 1 0.44726 0 20.589 4.7882 0 0 1 0.09961 0 20.589 4.7882 0 0 1 0.44727 0 20.589 4.7882 0 0 1 0.44726 0.0039 20.589 4.7882 0 0 1 0.44727 0.0059 20.589 4.7882 0 0 1 0.44726 0.0078 20.589 4.7882 0 0 1 0.44531 0.0098 20.589 4.7882 0 0 1 0.44531 0.01172 20.589 4.7882 0 0 1 0.44336 0.01561 20.589 4.7882 0 0 1 0.44141 0.01757 20.589 4.7882 0 0 1 0.43945 0.01758 20.589 4.7882 0 0 1 0.43945 0.02147 20.589 4.7882 0 0 1 0.43555 0.02343 20.589 4.7882 0 0 1 0.43359 0.02733 20.589 4.7882 0 0 1 0.43164 0.02733 20.589 4.7882 0 0 1 0.42969 0.02929 20.589 4.7882 0 0 1 0.42578 0.03318 20.589 4.7882 0 0 1 0.42188 0.03319 20.589 4.7882 0 0 1 0.41992 0.03712 20.589 4.7882 0 0 1 0.41406 0.03906 20.589 4.7882 0 0 1 0.41211 0.04102 20.589 4.7882 0 0 1 0.4082 0.04297 20.589 4.7882 0 0 1 0.4043 0.04492 20.589 4.7882 0 0 1 0.40039 0.04687 20.589 4.7882 0 0 1 0.39453 0.04883 20.589 4.7882 0 0 1 0.39062 0.05078 20.589 4.7882 0 0 1 0.38672 0.05273 20.589 4.7882 0 0 1 0.38086 0.05469 20.589 4.7882 0 0 1 0.37501 0.05664 20.589 4.7882 0 0 1 0.36915 0.0586 20.589 4.7882 0 0 1 0.36522 0.06055 20.589 4.7882 0 0 1 0.35936 0.0625 20.589 4.7882 0 0 1 0.35158 0.06445 20.589 4.7882 0 0 1 0.34765 0.06641 20.589 4.7882 0 0 1 0.33982 0.06641 20.589 4.7882 0 0 1 0.33397 0.07031 20.589 4.7882 0 0 1 0.32811 0.07031 20.589 4.7882 0 0 1 0.32032 0.07227 20.589 4.7882 0 0 1 0.31446 0.07422 20.589 4.7882 0 0 1 0.30664 0.07617 20.589 4.7882 0 0 1 0.30078 0.07812 20.589 4.7882 0 0 1 0.29103 0.07813 20.589 4.7882 0 0 1 0.28517 0.08008 20.589 4.7882 0 0 1 0.27735 0.08203 20.589 4.7882 0 0 1 0.26952 0.08398 20.589 4.7882 0 0 1 0.26367 0.08398 20.589 4.7882 0 0 1 0.25391 0.08594 20.589 4.7882 0 0 1 0.24412 0.08789 20.589 4.7882 0 0 1 0.23827 0.08789 20.589 4.7882 0 0 1 0.23048 0.08985 20.589 4.7882 0 0 1 0.22069 0.08984 20.589 4.7882 0 0 1 0.21094 0.0918 20.589 4.7882 0 0 1 0.20508 0.0918 20.589 4.7882 0 0 1 0.19529 0.09375 20.589 4.7882 0 0 1 0.18554 0.0957 20.589 4.7882 0 0 1 0.017764 0.0098v-1.2558a22.324 5.1915 0 0 0-18.834-2.4043 22.324 5.1915 0 0 0-0.56055 0 22.324 5.1915 0 0 0-18.371 2.4395z" fill="#afb4b9" stroke-width="3.05"/>
  <ellipse cx="-11.785" cy="-9.4668" rx="20.589" ry="4.7882" fill="#e0e3e7" fill-opacity=".61569" stroke-width="2.8131"/>
  <g>
   <path d="m-24.978-14.059a22.324 5.1915 0 0 1 0.02721-0.0039 22.324 5.1915 0 0 1 0.19726-0.03318c-0.07933 0.01262-0.14657 0.0243-0.22462 0.03712z" fill="url(#linearGradient2193)"/>
   <path d="m7.0494-11.401a20.589 4.7882 0 0 1 0.16014 0.08594 20.589 4.7882 0 0 1 0.16797 0.0957 20.589 4.7882 0 0 1 0.15821 0.09766 20.589 4.7882 0 0 1 0.15039 0.09766 20.589 4.7882 0 0 1 0.14257 0.09961 20.589 4.7882 0 0 1 0.13085 0.09961 20.589 4.7882 0 0 1 0.12306 0.09961 20.589 4.7882 0 0 1 0.11135 0.10156 20.589 4.7882 0 0 1 0.10352 0.10156 20.589 4.7882 0 0 1 0.093734 0.10156 20.589 4.7882 0 0 1 0.085948 0.10156 20.589 4.7882 0 0 1 0.074231 0.10352 20.589 4.7882 0 0 1 0.064442 0.10156 20.589 4.7882 0 0 1 0.056656 0.10352 20.589 4.7882 0 0 1 0.044902 0.10352 20.589 4.7882 0 0 1 0.03704 0.10547 20.589 4.7882 0 0 1 0.025323 0.10352 20.589 4.7882 0 0 1 0.017764 0.10352 20.589 4.7882 0 0 1 0.00794 0.10352 20.589 4.7882 0 0 1 0 0.023434 20.589 4.7882 0 0 1-0.00605 0.10352 20.589 4.7882 0 0 1-0.013607 0.10547 20.589 4.7882 0 0 1-0.025323 0.10352 20.589 4.7882 0 0 1-0.033261 0.10352 20.589 4.7882 0 0 1-0.044939 0.10352 20.589 4.7882 0 0 1-0.052725 0.10352 20.589 4.7882 0 0 1-0.062515 0.10352 20.589 4.7882 0 0 1-0.072266 0.10352 20.589 4.7882 0 0 1-0.083983 0.10156 20.589 4.7882 0 0 1-0.091807 0.10156 20.589 4.7882 0 0 1-0.10156 0.10156 20.589 4.7882 0 0 1-0.10938 0.10156 20.589 4.7882 0 0 1-0.1211 0.099611 20.589 4.7882 0 0 1-0.12892 0.099611 20.589 4.7882 0 0 1-0.13867 0.099611 20.589 4.7882 0 0 1-0.14842 0.097661 20.589 4.7882 0 0 1-0.15821 0.097661 20.589 4.7882 0 0 1-0.166 0.097661 20.589 4.7882 0 0 1-0.17579 0.0957 20.589 4.7882 0 0 1-0.18358 0.093749 20.589 4.7882 0 0 1-0.19336 0.093749 20.589 4.7882 0 0 1-0.20119 0.093749 20.589 4.7882 0 0 1-0.21094 0.091799 20.589 4.7882 0 0 1-0.21876 0.089841 20.589 4.7882 0 0 1-0.22851 0.089841 20.589 4.7882 0 0 1-0.23437 0.089841 20.589 4.7882 0 0 1-0.24416 0.085941 20.589 4.7882 0 0 1-0.25195 0.087891 20.589 4.7882 0 0 1-0.26174 0.083979 20.589 4.7882 0 0 1-0.26756 0.083979 20.589 4.7882 0 0 1-0.27538 0.082029 20.589 4.7882 0 0 1-0.28321 0.080078 20.589 4.7882 0 0 1-0.29103 0.078132 20.589 4.7882 0 0 1-0.29882 0.078128 20.589 4.7882 0 0 1-0.30467 0.07617 20.589 4.7882 0 0 1-0.3125 0.07422 20.589 4.7882 0 0 1-0.32032 0.07422 20.589 4.7882 0 0 1-0.32421 0.070308 20.589 4.7882 0 0 1-0.33397 0.070312 20.589 4.7882 0 0 1-0.3379 0.068362 20.589 4.7882 0 0 1-0.34572 0.066411 20.589 4.7882 0 0 1-0.35158 0.06445 20.589 4.7882 0 0 1-0.35744 0.0625 20.589 4.7882 0 0 1-0.3633 0.060549 20.589 4.7882 0 0 1-0.36915 0.058591 20.589 4.7882 0 0 1-0.37501 0.058591 20.589 4.7882 0 0 1-0.37891 0.054691 20.589 4.7882 0 0 1-0.38477 0.052729 20.589 4.7882 0 0 1-0.38867 0.052729 20.589 4.7882 0 0 1-0.39454 0.048829 20.589 4.7882 0 0 1-0.39843 0.046871 20.589 4.7882 0 0 1-0.4043 0.044921 20.589 4.7882 0 0 1-0.40625 0.044921 20.589 4.7882 0 0 1-0.41211 0.04102 20.589 4.7882 0 0 1-0.41406 0.039058 20.589 4.7882 0 0 1-0.41993 0.037116 20.589 4.7882 0 0 1-0.42188 0.03515 20.589 4.7882 0 0 1-0.42383 0.031257 20.589 4.7882 0 0 1-0.42774 0.031257 20.589 4.7882 0 0 1-0.43164 0.029292 20.589 4.7882 0 0 1-0.43359 0.025399 20.589 4.7882 0 0 1-0.43555 0.023433 20.589 4.7882 0 0 1-0.4375 0.023434 20.589 4.7882 0 0 1-0.43945 0.019541 20.589 4.7882 0 0 1-0.44141 0.015648 20.589 4.7882 0 0 1-0.44336 0.015648 20.589 4.7882 0 0 1-0.44531 0.013682 20.589 4.7882 0 0 1-0.44531 0.00979 20.589 4.7882 0 0 1-0.44531 0.00979 22.324 5.1915 0 0 0 20.883-5.1798 22.324 5.1915 0 0 0-3.4902-2.7871z" fill="#afb4b9" stroke-width="3.05"/>
   <path d="m-30.716-12.621a22.324 5.1915 0 0 0-3.3926 2.752 22.324 5.1915 0 0 0 20.535 5.1719 20.589 4.7882 0 0 1-0.44531-0.00979 20.589 4.7882 0 0 1-0.44531-0.011717 20.589 4.7882 0 0 1-0.44336-0.015648 20.589 4.7882 0 0 1-0.44141-0.015648 20.589 4.7882 0 0 1-0.43945-0.019541 20.589 4.7882 0 0 1-0.43945-0.021506 20.589 4.7882 0 0 1-0.43555-0.023434 20.589 4.7882 0 0 1-0.43359-0.025399 20.589 4.7882 0 0 1-0.43164-0.029292 20.589 4.7882 0 0 1-0.42969-0.029292 20.589 4.7882 0 0 1-0.42578-0.033185 20.589 4.7882 0 0 1-0.42188-0.033185 20.589 4.7882 0 0 1-0.41992-0.037116 20.589 4.7882 0 0 1-0.41406-0.039058 20.589 4.7882 0 0 1-0.41211-0.041009 20.589 4.7882 0 0 1-0.4082-0.04297 20.589 4.7882 0 0 1-0.4043-0.044921 20.589 4.7882 0 0 1-0.40039-0.046871 20.589 4.7882 0 0 1-0.39453-0.048829 20.589 4.7882 0 0 1-0.39063-0.050779 20.589 4.7882 0 0 1-0.38672-0.052741 20.589 4.7882 0 0 1-0.38086-0.054691 20.589 4.7882 0 0 1-0.37501-0.056641 20.589 4.7882 0 0 1-0.36915-0.058591 20.589 4.7882 0 0 1-0.36522-0.060549 20.589 4.7882 0 0 1-0.35936-0.062499 20.589 4.7882 0 0 1-0.35158-0.06445 20.589 4.7882 0 0 1-0.34765-0.066411 20.589 4.7882 0 0 1-0.33982-0.066411 20.589 4.7882 0 0 1-0.33396-0.070312 20.589 4.7882 0 0 1-0.32814-0.070312 20.589 4.7882 0 0 1-0.32032-0.07227 20.589 4.7882 0 0 1-0.31446-0.07422 20.589 4.7882 0 0 1-0.30664-0.07617 20.589 4.7882 0 0 1-0.30078-0.078128 20.589 4.7882 0 0 1-0.29103-0.078132 20.589 4.7882 0 0 1-0.28517-0.080078 20.589 4.7882 0 0 1-0.27735-0.082029 20.589 4.7882 0 0 1-0.26952-0.083979 20.589 4.7882 0 0 1-0.26366-0.083979 20.589 4.7882 0 0 1-0.25391-0.085941 20.589 4.7882 0 0 1-0.24412-0.085941 20.589 4.7882 0 0 1-0.23827-0.089841 20.589 4.7882 0 0 1-0.23048-0.087891 20.589 4.7882 0 0 1-0.22069-0.091799 20.589 4.7882 0 0 1-0.21094-0.091799 20.589 4.7882 0 0 1-0.20508-0.091799 20.589 4.7882 0 0 1-0.19529-0.093749 20.589 4.7882 0 0 1-0.18554-0.0957 20.589 4.7882 0 0 1-0.17772-0.0957 20.589 4.7882 0 0 1-0.16797-0.0957 20.589 4.7882 0 0 1-0.15821-0.097661 20.589 4.7882 0 0 1-0.15039-0.097661 20.589 4.7882 0 0 1-0.14257-0.099611 20.589 4.7882 0 0 1-0.13085-0.099611 20.589 4.7882 0 0 1-0.12306-0.099611 20.589 4.7882 0 0 1-0.11135-0.10156 20.589 4.7882 0 0 1-0.10352-0.099611 20.589 4.7882 0 0 1-0.09373-0.10352 20.589 4.7882 0 0 1-0.08595-0.10156 20.589 4.7882 0 0 1-0.07423-0.10156 20.589 4.7882 0 0 1-0.06444-0.10352 20.589 4.7882 0 0 1-0.05666-0.10352 20.589 4.7882 0 0 1-0.0449-0.10352 20.589 4.7882 0 0 1-0.03704-0.10352 20.589 4.7882 0 0 1-0.02532-0.10547 20.589 4.7882 0 0 1-0.01739-0.10352 20.589 4.7882 0 0 1-0.0079-0.10352 20.589 4.7882 0 0 1 0-0.023433 20.589 4.7882 0 0 1 6e-3 -0.10352 20.589 4.7882 0 0 1 0.01361-0.10547 20.589 4.7882 0 0 1 0.02532-0.10352 20.589 4.7882 0 0 1 0.03326-0.10352 20.589 4.7882 0 0 1 0.0449-0.10352 20.589 4.7882 0 0 1 0.05273-0.10352 20.589 4.7882 0 0 1 0.06251-0.10352 20.589 4.7882 0 0 1 0.07227-0.10156 20.589 4.7882 0 0 1 0.08398-0.10352 20.589 4.7882 0 0 1 0.09181-0.10156 20.589 4.7882 0 0 1 0.10156-0.10156 20.589 4.7882 0 0 1 0.10938-0.10156 20.589 4.7882 0 0 1 0.1211-0.09961 20.589 4.7882 0 0 1 0.12892-0.09961 20.589 4.7882 0 0 1 0.13867-0.09961 20.589 4.7882 0 0 1 0.14842-0.09766 20.589 4.7882 0 0 1 0.15821-0.09766 20.589 4.7882 0 0 1 0.166-0.0957 20.589 4.7882 0 0 1 0.09963-0.05469z" fill="#afb4b9" stroke-width="3.05"/>
  </g>
  <path d="m10.235-10.723a22.324 5.1915 0 0 1 0.05273 0.07422 22.324 5.1915 0 0 1 0.06444 0.10742 22.324 5.1915 0 0 1 0.05469 0.10742 22.324 5.1915 0 0 1 0.04687 0.10937 22.324 5.1915 0 0 1 0.03515 0.10742 22.324 5.1915 0 0 1 0.02721 0.10742 22.324 5.1915 0 0 1 0.0155 0.10937 22.324 5.1915 0 0 1 0.0079 0.10742 22.324 5.1915 0 0 1 0 0.023434 22.324 5.1915 0 0 1-6e-3 0.10742 22.324 5.1915 0 0 1-0.01361 0.10937 22.324 5.1915 0 0 1-0.02532 0.10742 22.324 5.1915 0 0 1-0.03326 0.10742 22.324 5.1915 0 0 1-0.0449 0.10937 22.324 5.1915 0 0 1-0.05273 0.10742 22.324 5.1915 0 0 1-0.06251 0.10742 22.324 5.1915 0 0 1-0.07227 0.10742 22.324 5.1915 0 0 1-0.08398 0.10547 22.324 5.1915 0 0 1-0.09181 0.10742 22.324 5.1915 0 0 1-0.10156 0.10547 22.324 5.1915 0 0 1-0.10938 0.10547 22.324 5.1915 0 0 1-0.1211 0.10547 22.324 5.1915 0 0 1-0.13085 0.10352 22.324 5.1915 0 0 1-0.13867 0.10352 22.324 5.1915 0 0 1-0.14842 0.10156 22.324 5.1915 0 0 1-0.15625 0.10352 22.324 5.1915 0 0 1-0.16797 0.10156 22.324 5.1915 0 0 1-0.17579 0.099611 22.324 5.1915 0 0 1-0.18358 0.099611 22.324 5.1915 0 0 1-0.19336 0.099611 22.324 5.1915 0 0 1-0.20312 0.097661 22.324 5.1915 0 0 1-0.21094 0.095699 22.324 5.1915 0 0 1-0.22069 0.0957 22.324 5.1915 0 0 1-0.22851 0.093749 22.324 5.1915 0 0 1-0.23634 0.093749 22.324 5.1915 0 0 1-0.24412 0.091799 22.324 5.1915 0 0 1-0.25391 0.091799 22.324 5.1915 0 0 1-0.26174 0.089841 22.324 5.1915 0 0 1-0.26952 0.087891 22.324 5.1915 0 0 1-0.27735 0.087891 22.324 5.1915 0 0 1-0.28517 0.085941 22.324 5.1915 0 0 1-0.29296 0.08399 22.324 5.1915 0 0 1-0.30078 0.083979 22.324 5.1915 0 0 1-0.30664 0.080078 22.324 5.1915 0 0 1-0.31446 0.080078 22.324 5.1915 0 0 1-0.32225 0.078128 22.324 5.1915 0 0 1-0.33007 0.078132 22.324 5.1915 0 0 1-0.33593 0.07422 22.324 5.1915 0 0 1-0.34179 0.07422 22.324 5.1915 0 0 1-0.34961 0.072259 22.324 5.1915 0 0 1-0.35547 0.070312 22.324 5.1915 0 0 1-0.36133 0.068358 22.324 5.1915 0 0 1-0.36719 0.066411 22.324 5.1915 0 0 1-0.37501 0.06445 22.324 5.1915 0 0 1-0.37891 0.062499 22.324 5.1915 0 0 1-0.38477 0.0625 22.324 5.1915 0 0 1-0.39062 0.058591 22.324 5.1915 0 0 1-0.39453 0.056641 22.324 5.1915 0 0 1-0.40235 0.056641 22.324 5.1915 0 0 1-0.4043 0.052729 22.324 5.1915 0 0 1-0.41015 0.052729 22.324 5.1915 0 0 1-0.41602 0.048829 22.324 5.1915 0 0 1-0.41797 0.046871 22.324 5.1915 0 0 1-0.42383 0.046878 22.324 5.1915 0 0 1-0.42773 0.04297 22.324 5.1915 0 0 1-0.43164 0.04102 22.324 5.1915 0 0 1-0.43359 0.039059 22.324 5.1915 0 0 1-0.43945 0.037116 22.324 5.1915 0 0 1-0.4414 0.03515 22.324 5.1915 0 0 1-0.44336 0.033185 22.324 5.1915 0 0 1-0.44727 0.029292 22.324 5.1915 0 0 1-0.45117 0.029292 22.324 5.1915 0 0 1-0.45117 0.025399 22.324 5.1915 0 0 1-0.45508 0.025399 22.324 5.1915 0 0 1-0.45703 0.021468 22.324 5.1915 0 0 1-0.45898 0.01954 22.324 5.1915 0 0 1-0.45898 0.017575 22.324 5.1915 0 0 1-0.46289 0.013682 22.324 5.1915 0 0 1-0.46289 0.013682 22.324 5.1915 0 0 1-0.46289 0.00979 22.324 5.1915 0 0 1-0.46484 0.00979 22.324 5.1915 0 0 1-0.4668 0.0059 22.324 5.1915 0 0 1-0.46484 0.00389 22.324 5.1915 0 0 1-0.4668 2e-3 22.324 5.1915 0 0 1-0.09375 0 22.324 5.1915 0 0 1-0.4666-0.00197 22.324 5.1915 0 0 1-0.46484-0.00389 22.324 5.1915 0 0 1-0.4668-0.0059 22.324 5.1915 0 0 1-0.46484-0.00779 22.324 5.1915 0 0 1-0.46484-0.00979 22.324 5.1915 0 0 1-0.46289-0.011717 22.324 5.1915 0 0 1-0.46094-0.015648 22.324 5.1915 0 0 1-0.46094-0.015648 22.324 5.1915 0 0 1-0.45898-0.01954 22.324 5.1915 0 0 1-0.45703-0.021506 22.324 5.1915 0 0 1-0.45508-0.023434 22.324 5.1915 0 0 1-0.45312-0.025399 22.324 5.1915 0 0 1-0.45117-0.029292 22.324 5.1915 0 0 1-0.44727-0.029292 22.324 5.1915 0 0 1-0.44531-0.033185 22.324 5.1915 0 0 1-0.44141-0.033185 22.324 5.1915 0 0 1-0.43945-0.037116 22.324 5.1915 0 0 1-0.43555-0.039058 22.324 5.1915 0 0 1-0.43164-0.041009 22.324 5.1915 0 0 1-0.42773-0.04297 22.324 5.1915 0 0 1-0.42383-0.04492 22.324 5.1915 0 0 1-0.41992-0.046871 22.324 5.1915 0 0 1-0.41601-0.048829 22.324 5.1915 0 0 1-0.41211-0.050779 22.324 5.1915 0 0 1-0.40625-0.054691 22.324 5.1915 0 0 1-0.40234-0.054691 22.324 5.1915 0 0 1-0.39649-0.056641 22.324 5.1915 0 0 1-0.39062-0.058591 22.324 5.1915 0 0 1-0.38672-0.060549 22.324 5.1915 0 0 1-0.38086-0.0625 22.324 5.1915 0 0 1-0.37501-0.06445 22.324 5.1915 0 0 1-0.36915-0.066411 22.324 5.1915 0 0 1-0.36133-0.068362 22.324 5.1915 0 0 1-0.35744-0.070312 22.324 5.1915 0 0 1-0.34961-0.072258 22.324 5.1915 0 0 1-0.34376-0.07227 22.324 5.1915 0 0 1-0.3379-0.07422 22.324 5.1915 0 0 1-0.33007-0.078132 22.324 5.1915 0 0 1-0.32421-0.078132 22.324 5.1915 0 0 1-0.31639-0.078128 22.324 5.1915 0 0 1-0.3086-0.082029 22.324 5.1915 0 0 1-0.30275-0.082029 22.324 5.1915 0 0 1-0.29296-0.08399 22.324 5.1915 0 0 1-0.2871-0.08594 22.324 5.1915 0 0 1-0.27931-0.087891 22.324 5.1915 0 0 1-0.27149-0.087891 22.324 5.1915 0 0 1-0.26174-0.089841 22.324 5.1915 0 0 1-0.25584-0.089841 22.324 5.1915 0 0 1-0.24609-0.091799 22.324 5.1915 0 0 1-0.23827-0.093749 22.324 5.1915 0 0 1-0.23048-0.093749 22.324 5.1915 0 0 1-0.22266-0.095699 22.324 5.1915 0 0 1-0.2129-0.0957 22.324 5.1915 0 0 1-0.20312-0.097661 22.324 5.1915 0 0 1-0.19529-0.099611 22.324 5.1915 0 0 1-0.18751-0.099611 22.324 5.1915 0 0 1-0.17772-0.099611 22.324 5.1915 0 0 1-0.16797-0.10155 22.324 5.1915 0 0 1-0.16014-0.10156 22.324 5.1915 0 0 1-0.14842-0.10352 22.324 5.1915 0 0 1-0.14257-0.10156 22.324 5.1915 0 0 1-0.13085-0.10547 22.324 5.1915 0 0 1-0.12306-0.10352 22.324 5.1915 0 0 1-0.11131-0.10547 22.324 5.1915 0 0 1-0.10352-0.10547 22.324 5.1915 0 0 1-0.09373-0.10742 22.324 5.1915 0 0 1-0.08398-0.10547 22.324 5.1915 0 0 1-0.07616-0.10742 22.324 5.1915 0 0 1-0.06444-0.10742 22.324 5.1915 0 0 1-0.05469-0.10742 22.324 5.1915 0 0 1-0.04687-0.10742 22.324 5.1915 0 0 1-0.03515-0.10937 22.324 5.1915 0 0 1-0.02721-0.10742 22.324 5.1915 0 0 1-0.0155-0.10937 22.324 5.1915 0 0 1-0.0079-0.10742 22.324 5.1915 0 0 1 0-0.021468 22.324 5.1915 0 0 1 0.0057-0.10937 22.324 5.1915 0 0 1 0.01361-0.10742 22.324 5.1915 0 0 1 0.02532-0.10937 22.324 5.1915 0 0 1 0.03326-0.10742 22.324 5.1915 0 0 1 0.04494-0.10937 22.324 5.1915 0 0 1 0.05273-0.10742 22.324 5.1915 0 0 1 0.06251-0.10742 22.324 5.1915 0 0 1 0.06251-0.09375c-0.40983 0.49884-0.48239 0.84955-0.48239 0.84955l5.5742 41.123c1.9478 7.7228 9.8831 8.5061 16.748 8.6855h0.0059c0.06511-2.46e-4 0.11295-0.0038 0.17774-0.0038 0.06481 3.44e-4 0.1126 0.0038 0.17774 0.0038h0.0059c6.8649-0.17941 14.8-0.96272 16.748-8.6855l5.5741-41.123s-0.07476-0.35152-0.48633-0.85156z" fill="#e4e5e7" fill-opacity=".99932"/>
  <path d="m-28.489 32.041c2.2186 7.1226 9.8506 7.9213 16.52 8.0956h0.0061c0.06511-2.46e-4 0.11367-0.0038 0.17846-0.0038 0.06481 3.44e-4 0.11332 0.0038 0.17846 0.0038h0.0061c6.669-0.17432 14.301-0.97293 16.52-8.0956-0.24923 0.32852-0.45582 0.71017-0.73614 0.99978-0.62127 0.64186-1.3147 1.1922-2.0665 1.6629-0.75179 0.47067-1.5614 0.86155-2.4133 1.1884-1.7037 0.65366-3.5764 1.0475-5.4978 1.2898-1.9214 0.24227-3.8922 0.33374-5.7878 0.3833h-0.0061c-0.07194-3.93e-4 -0.12513-0.0037-0.19671-0.0038-0.07156 3.96e-4 -0.1248 0.0038-0.19671 0.0038h-0.0081c-1.8956-0.04955-3.8644-0.14102-5.7858-0.3833-1.9214-0.24227-3.794-0.63612-5.4978-1.2898-0.85186-0.32682-1.6615-0.7177-2.4133-1.1884-0.75179-0.47067-1.4452-1.0211-2.0665-1.6629-0.28033-0.28959-0.48689-0.67128-0.73614-0.99978z" fill="#969696"/>
  <path d="m-13.467 7.419c0.51168 0.21298 0.93773 0.59743 1.2564 1.1507l2.278 3.9587-1.4258 0.8102 4.618 0.06372 2.2561-4.0443-1.404 0.83033-1.2983-2.2142c-0.21383-0.36273-0.57495-0.55523-1.0434-0.55523zm-1.2145 0.19291c-0.80788 0-1.4677 0.38393-1.872 1.087l-1.9374 3.3414 4.0661 2.8617 2.5128-4.8427-0.72465-1.2128c-0.48839-0.82951-1.1712-1.2346-2.0448-1.2346zm10.645 6.3323-4.0644 2.3199 2.5111 4.3445h1.4057a2.377 2.377 0 0 0 1.2128-0.27844c0.67975-0.38272 1.1708-1.1921 1.1708-1.9576 0-0.38355-0.10723-0.74417-0.29859-1.0853zm-13.091 0.97962-4.6414 0.08553 1.4258 0.80684-1.2765 2.236c-0.08568 0.14808-0.14929 0.38316-0.14929 0.57536a1.1873 1.1873 0 0 0 0.14929 0.55355l2.6604 4.576c-0.02079-0.14892-0.02011-0.25478-0.02011-0.33884 0-0.36194 0.16948-0.93909 0.38245-1.3218l2.2779-3.9369 1.4476 0.82865zm8.4291 4.5341-2.3836 3.9805 2.3836 3.9805v-1.6388h2.491a1.1498 1.1498 0 0 0 1.0434-0.57536l2.6386-4.5962c-0.44679 0.34028-0.9789 0.50994-1.617 0.50994h-4.5559zm-8.7277 1.617-0.68104 1.2128c-0.21299 0.36194-0.36232 0.93708-0.36232 1.2782a2.2256 2.2256 0 0 0 2.2142 2.2142h3.8732v-4.7052z" fill="#0078d7"/>
 </g>
</svg>
