<?xml version="1.0" encoding="UTF-8" standalone="no"?>
<svg
   xmlns:dc="http://purl.org/dc/elements/1.1/"
   xmlns:cc="http://creativecommons.org/ns#"
   xmlns:rdf="http://www.w3.org/1999/02/22-rdf-syntax-ns#"
   xmlns:svg="http://www.w3.org/2000/svg"
   xmlns="http://www.w3.org/2000/svg"
   xmlns:sodipodi="http://sodipodi.sourceforge.net/DTD/sodipodi-0.dtd"
   xmlns:inkscape="http://www.inkscape.org/namespaces/inkscape"
   height="16"
   width="16"
   version="1.1"
   id="svg10"
   sodipodi:docname="image-x-generic-symbolic.svg"
   inkscape:version="0.92.5 (2060ec1f9f, 2020-04-08)">
  <metadata
     id="metadata16">
    <rdf:RDF>
      <cc:Work
         rdf:about="">
        <dc:format>image/svg+xml</dc:format>
        <dc:type
           rdf:resource="http://purl.org/dc/dcmitype/StillImage" />
      </cc:Work>
    </rdf:RDF>
  </metadata>
  <defs
     id="defs14">
    <style
       type="text/css"
       id="current-color-scheme">.ColorScheme-Text { color:#727272; } .ColorScheme-Highlight { color:#5294e2; }</style>
  </defs>
  <sodipodi:namedview
     pagecolor="#ffffff"
     bordercolor="#666666"
     borderopacity="1"
     objecttolerance="10"
     gridtolerance="10"
     guidetolerance="10"
     inkscape:pageopacity="0"
     inkscape:pageshadow="2"
     inkscape:window-width="1920"
     inkscape:window-height="971"
     id="namedview12"
     showgrid="false"
     inkscape:zoom="14.75"
     inkscape:cx="-1.8644068"
     inkscape:cy="8"
     inkscape:window-x="0"
     inkscape:window-y="38"
     inkscape:window-maximized="1"
     inkscape:current-layer="svg10" />
  <path
     id="path826"
     d="m 1.5,3.125 v 9.75 h 13 v -9.75 z m 0.8125,0.8125 h 11.375 V 9.955078 L 11.256348,7.4191892 8.6887205,9.9868159 5.5878909,6.6162109 2.3125,9.5885008 Z M 10.4375,4.75 A 0.81249999,0.81249999 0 0 0 9.625,5.5625 0.81249999,0.81249999 0 0 0 10.4375,6.375 0.81249999,0.81249999 0 0 0 11.25,5.5625 0.81249999,0.81249999 0 0 0 10.4375,4.75 Z M 5.5371091,7.758789 9.4948728,12.0625 H 2.3125 V 10.686646 Z M 11.243653,8.5808108 13.6875,11.129394 V 12.0625 H 10.597779 L 9.2393801,10.585083 Z"
     class="ColorScheme-Text"
     inkscape:connector-curvature="0"
     style="color:#727272;fill:#ebebeb;fill-opacity:1;stroke-width:0.8125" />
</svg>
