<?xml version="1.0" encoding="UTF-8" standalone="no"?>
<svg
   xmlns:dc="http://purl.org/dc/elements/1.1/"
   xmlns:cc="http://creativecommons.org/ns#"
   xmlns:rdf="http://www.w3.org/1999/02/22-rdf-syntax-ns#"
   xmlns:svg="http://www.w3.org/2000/svg"
   xmlns="http://www.w3.org/2000/svg"
   xmlns:sodipodi="http://sodipodi.sourceforge.net/DTD/sodipodi-0.dtd"
   xmlns:inkscape="http://www.inkscape.org/namespaces/inkscape"
   width="32"
   height="32"
   version="1.1"
   id="svg23"
   sodipodi:docname="system-suspend-hibernate.svg"
   inkscape:version="0.92.4 5da689c313, 2019-01-14">
  <defs
     id="defs27" />
  <sodipodi:namedview
     pagecolor="#c8c8c8"
     bordercolor="#666666"
     borderopacity="1"
     objecttolerance="10"
     gridtolerance="10"
     guidetolerance="10"
     inkscape:pageopacity="0"
     inkscape:pageshadow="2"
     inkscape:window-width="1920"
     inkscape:window-height="981"
     id="namedview25"
     showgrid="false"
     inkscape:zoom="14.75"
     inkscape:cx="8.8751092"
     inkscape:cy="17.151858"
     inkscape:window-x="0"
     inkscape:window-y="28"
     inkscape:window-maximized="1"
     inkscape:current-layer="svg23" />
  <metadata
     id="metadata2">
    <rdf:RDF>
      <cc:Work
         rdf:about="">
        <dc:format>image/svg+xml</dc:format>
        <dc:type
           rdf:resource="http://purl.org/dc/dcmitype/StillImage" />
        <dc:title />
      </cc:Work>
    </rdf:RDF>
  </metadata>
  <g
     transform="translate(40.623047)"
     id="system-suspend-hibernate">
    <rect
       style="opacity:0;fill:#000000;fill-opacity:1;fill-rule:evenodd;stroke:none;stroke-width:2;stroke-linecap:round;stroke-linejoin:round;stroke-miterlimit:4;stroke-dasharray:none;stroke-opacity:1;paint-order:fill markers stroke"
       id="rect1133"
       width="32"
       height="32"
       x="-40.623047"
       y="0"
       rx="0"
       ry="0" />
    <g
       transform="translate(14.376953,49)"
       id="g1193">
      <path
         sodipodi:open="true"
         style="opacity:1;fill:none;fill-opacity:1;fill-rule:evenodd;stroke:#323232;stroke-width:2;stroke-linecap:round;stroke-linejoin:miter;stroke-miterlimit:4;stroke-dasharray:none;stroke-dashoffset:3;stroke-opacity:1;paint-order:stroke fill markers"
         id="path1155"
         sodipodi:type="arc"
         sodipodi:cx="-39"
         sodipodi:cy="-33.99855"
         sodipodi:rx="10.000031"
         sodipodi:ry="10.000031"
         sodipodi:start="6.0213859"
         sodipodi:end="3.403392"
         d="m -29.340711,-36.586749 a 10.000031,10.000031 0 0 1 -3.923506,10.779745 10.000031,10.000031 0 0 1 -11.471565,0 10.000031,10.000031 0 0 1 -3.923507,-10.779745" />
      <path
         sodipodi:nodetypes="cscccssssccsccsccc"
         style="fill:#323232;fill-opacity:1;stroke:#323232;stroke-width:0.69999999;stroke-miterlimit:4;stroke-dasharray:none;stroke-opacity:1"
         inkscape:connector-curvature="0"
         d="m -38.645414,-34.965942 c -0.817196,0 -1.77211,-0.377655 -1.77211,-1.441104 0,-0.874037 0.908157,-1.120045 2.056674,-1.430629 0.409629,-0.111974 1.039822,-0.282991 1.346864,-0.457026 -0.416173,-0.204835 -1.367963,-0.388721 -2.036276,-0.517867 -1.881263,-0.364151 -2.784701,-0.577543 -2.784701,-1.436231 0,-1.698774 4.96758,-2.401201 5.315684,-2.401201 0.195346,0 0.354242,0.215264 0.354242,0.480376 0,0.265117 -0.158858,0.47977 -0.354242,0.47977 -1.045031,0 -3.866255,0.787249 -4.509825,1.385768 0.388951,0.214048 1.386076,0.405318 2.079366,0.540633 1.881067,0.363517 2.784701,0.576913 2.784701,1.435576 0,0.873965 -0.908182,1.119973 -2.05667,1.430629 -0.482709,0.131029 -1.271538,0.345042 -1.47712,0.55169 0.08213,0.254617 0.660374,0.418878 1.053428,0.418878 0.195422,0 0.35428,0.215264 0.35428,0.480377 -3.3e-5,0.264435 -0.158895,0.480349 -0.35428,0.480349 z"
         p-id="8143"
         id="path1175" />
    </g>
  </g>
</svg>
