<?xml version="1.0" encoding="UTF-8" standalone="no"?>
<svg
   xmlns:dc="http://purl.org/dc/elements/1.1/"
   xmlns:cc="http://creativecommons.org/ns#"
   xmlns:rdf="http://www.w3.org/1999/02/22-rdf-syntax-ns#"
   xmlns:svg="http://www.w3.org/2000/svg"
   xmlns="http://www.w3.org/2000/svg"
   xmlns:xlink="http://www.w3.org/1999/xlink"
   xmlns:sodipodi="http://sodipodi.sourceforge.net/DTD/sodipodi-0.dtd"
   xmlns:inkscape="http://www.inkscape.org/namespaces/inkscape"
   width="32"
   height="32"
   version="1.1"
   id="svg17"
   sodipodi:docname="system-suspend.svg"
   inkscape:version="0.92.4 5da689c313, 2019-01-14">
  <defs
     id="defs21">
    <linearGradient
       gradientUnits="userSpaceOnUse"
       gradientTransform="translate(-21.671,-25)"
       y2="-117.64"
       y1="-117.64"
       x2="115"
       x1="70.011002"
       id="linearGradient4922">
      <stop
         id="stop1550"
         offset="0"
         stop-color="#236eb9" />
      <stop
         id="stop1552"
         offset="1"
         stop-color="#32a5f0" />
    </linearGradient>
    <linearGradient
       gradientUnits="userSpaceOnUse"
       gradientTransform="matrix(3.7796,0,0,3.7796,-21.671,-25)"
       y2="-27.715"
       y1="-27.715"
       x2="30.427"
       x1="18.523001"
       id="linearGradient4924">
      <stop
         id="stop1555"
         offset="0"
         stop-color="#2369b4" />
      <stop
         id="stop1557"
         offset="1"
         stop-color="#3296e6" />
    </linearGradient>
    <linearGradient
       gradientUnits="userSpaceOnUse"
       gradientTransform="matrix(3.7796,0,0,3.7796,-21.671,-25)"
       y2="-23.993999"
       y1="-23.993999"
       x2="30.427"
       x1="18.523001"
       id="linearGradient4926">
      <stop
         id="stop1560"
         offset="0"
         stop-color="#1e4b96" />
      <stop
         id="stop1562"
         offset="1"
         stop-color="#3278d7" />
    </linearGradient>
    <linearGradient
       gradientUnits="userSpaceOnUse"
       gradientTransform="translate(-21.671,-25)"
       y2="-77.893997"
       y1="-77.893997"
       x2="115"
       x1="70.108002"
       id="linearGradient4928">
      <stop
         id="stop1565"
         offset="0"
         stop-color="#19326e" />
      <stop
         id="stop1567"
         offset="1"
         stop-color="#285abe" />
    </linearGradient>
    <linearGradient
       inkscape:collect="always"
       xlink:href="#linearGradient4922"
       id="linearGradient3129"
       gradientUnits="userSpaceOnUse"
       gradientTransform="translate(-46,-106)"
       x1="-85"
       y1="103"
       x2="-71.197594"
       y2="89.462753" />
    <linearGradient
       inkscape:collect="always"
       xlink:href="#linearGradient4928"
       id="linearGradient3187"
       gradientUnits="userSpaceOnUse"
       gradientTransform="translate(-46,-106)"
       x1="-66.65625"
       y1="90"
       x2="-55.75"
       y2="90" />
    <filter
       inkscape:collect="always"
       style="color-interpolation-filters:sRGB"
       id="filter3203"
       x="-0.035999998"
       width="1.072"
       y="-0.035999998"
       height="1.072">
      <feGaussianBlur
         inkscape:collect="always"
         stdDeviation="0.24"
         id="feGaussianBlur3205" />
    </filter>
    <linearGradient
       inkscape:collect="always"
       xlink:href="#linearGradient4926"
       id="linearGradient3180"
       gradientUnits="userSpaceOnUse"
       gradientTransform="translate(-46,-106)"
       x1="-67.40625"
       y1="90"
       x2="-56.03125"
       y2="90" />
    <filter
       inkscape:collect="always"
       style="color-interpolation-filters:sRGB"
       id="filter3197"
       x="-0.036018521"
       width="1.072037"
       y="-0.035981499"
       height="1.071963">
      <feGaussianBlur
         inkscape:collect="always"
         stdDeviation="0.28485352"
         id="feGaussianBlur3199" />
    </filter>
    <linearGradient
       inkscape:collect="always"
       xlink:href="#linearGradient4924"
       id="linearGradient3169"
       gradientUnits="userSpaceOnUse"
       gradientTransform="translate(-46,-106)"
       x1="-69.53125"
       y1="90"
       x2="-54.5"
       y2="90" />
    <filter
       inkscape:collect="always"
       style="color-interpolation-filters:sRGB"
       id="filter3191"
       x="-0.036017597"
       width="1.0720352"
       y="-0.035982423"
       height="1.0719647">
      <feGaussianBlur
         inkscape:collect="always"
         stdDeviation="0.38980958"
         id="feGaussianBlur3193" />
    </filter>
    <linearGradient
       inkscape:collect="always"
       xlink:href="#linearGradient4922"
       id="linearGradient3156"
       gradientUnits="userSpaceOnUse"
       gradientTransform="translate(-46.000005,-106)"
       x1="-85"
       y1="103"
       x2="-71.197594"
       y2="89.462753" />
  </defs>
  <sodipodi:namedview
     pagecolor="#c8c8c8"
     bordercolor="#666666"
     borderopacity="1"
     objecttolerance="10"
     gridtolerance="10"
     guidetolerance="10"
     inkscape:pageopacity="0"
     inkscape:pageshadow="2"
     inkscape:window-width="1920"
     inkscape:window-height="1007"
     id="namedview19"
     showgrid="true"
     inkscape:zoom="2.6074563"
     inkscape:cx="6.3932055"
     inkscape:cy="13.475642"
     inkscape:window-x="0"
     inkscape:window-y="0"
     inkscape:window-maximized="1"
     inkscape:current-layer="svg17">
    <inkscape:grid
       type="xygrid"
       id="grid859" />
  </sodipodi:namedview>
  <metadata
     id="metadata2">
    <rdf:RDF>
      <cc:Work
         rdf:about="">
        <dc:format>image/svg+xml</dc:format>
        <dc:type
           rdf:resource="http://purl.org/dc/dcmitype/StillImage" />
        <dc:title />
      </cc:Work>
    </rdf:RDF>
  </metadata>
  <g
     transform="translate(35.607452)"
     id="system-suspend-3">
    <rect
       ry="0"
       rx="0"
       y="1.1181641e-07"
       x="-80"
       height="32"
       width="32"
       id="rect964"
       style="opacity:0;fill:#000000;fill-opacity:1;fill-rule:evenodd;stroke:none;stroke-width:2;stroke-linecap:round;stroke-linejoin:round;stroke-miterlimit:4;stroke-dasharray:none;stroke-opacity:1;paint-order:fill markers stroke" />
    <g
       transform="translate(-27.688682,-79.760071)"
       id="g1432">
      <path
         d="M -37.228467,105.17175 A 12.423848,12.423848 0 0 1 -51.014754,100.707 12.423848,12.423848 0 0 1 -51.192566,86.216862 12.423848,12.423848 0 0 1 -37.51999,81.415155"
         sodipodi:open="true"
         sodipodi:end="4.9973172"
         sodipodi:start="1.2613268"
         sodipodi:ry="12.423848"
         sodipodi:rx="12.423848"
         sodipodi:cy="93.338097"
         sodipodi:cx="-41.012192"
         sodipodi:type="arc"
         id="path1428"
         style="opacity:1;fill:none;fill-opacity:1;fill-rule:evenodd;stroke:#eaeaea;stroke-width:1.15959466;stroke-linecap:round;stroke-linejoin:miter;stroke-miterlimit:4;stroke-dasharray:none;stroke-dashoffset:3;stroke-opacity:1;paint-order:stroke fill markers"
         transform="matrix(-0.70710678,-0.70710678,-0.70710678,0.70710678,0,0)" />
      <path
         transform="matrix(-0.70710678,-0.70710678,-0.70710678,0.70710678,0,0)"
         style="opacity:1;fill:none;fill-opacity:1;fill-rule:evenodd;stroke:#eaeaea;stroke-width:1.26629484;stroke-linecap:round;stroke-linejoin:miter;stroke-miterlimit:4;stroke-dasharray:none;stroke-dashoffset:3;stroke-opacity:1;paint-order:stroke fill markers"
         id="path1430"
         sodipodi:type="arc"
         sodipodi:cx="-30.954447"
         sodipodi:cy="93.213097"
         sodipodi:rx="13.567029"
         sodipodi:ry="13.567029"
         sodipodi:start="2.0627022"
         sodipodi:end="4.1887902"
         sodipodi:open="true"
         d="m -37.362245,105.17154 a 13.567029,13.567029 0 0 1 -7.157527,-11.743463 13.567029,13.567029 0 0 1 6.781811,-11.964372" />
    </g>
  </g>
  <g
     transform="translate(80)"
     id="system-suspend">
    <rect
       ry="0"
       rx="0"
       y="1.1181641e-07"
       x="-80"
       height="32"
       width="32"
       id="rect964-2"
       style="opacity:0;fill:#000000;fill-opacity:1;fill-rule:evenodd;stroke:none;stroke-width:2;stroke-linecap:round;stroke-linejoin:round;stroke-miterlimit:4;stroke-dasharray:none;stroke-opacity:1;paint-order:fill markers stroke" />
    <g
       transform="translate(54.012695,32.000001)"
       id="g3215">
      <circle
         style="opacity:1;fill:url(#linearGradient3129);fill-opacity:1;stroke:none;stroke-width:0.45835447;stroke-linecap:round;stroke-linejoin:round;stroke-miterlimit:4;stroke-dasharray:none;stroke-opacity:1"
         id="circle3127"
         cx="-118"
         cy="-16"
         r="13" />
      <circle
         r="6.5"
         cy="-16"
         cx="-111.5"
         id="circle3185"
         style="opacity:1;fill:url(#linearGradient3187);fill-opacity:1;stroke:none;stroke-width:0.22917727;stroke-linecap:round;stroke-linejoin:round;stroke-miterlimit:4;stroke-dasharray:none;stroke-opacity:1" />
      <path
         inkscape:connector-curvature="0"
         id="path3201"
         d="m -113,-24 a 8,8 0 0 0 -8,8 8,8 0 0 0 8,8 8,8 0 0 0 8,-8 6.5,6.5 0 0 1 -6.5,6.5 6.5,6.5 0 0 1 -6.5,-6.5 6.5,6.5 0 0 1 6.5,-6.5 6.5,6.5 0 0 1 6.48437,6.039063 A 8,8 0 0 0 -113,-24 Z"
         style="opacity:0.3;fill:#000000;fill-opacity:1;stroke:none;stroke-width:0.28206432;stroke-linecap:round;stroke-linejoin:round;stroke-miterlimit:4;stroke-dasharray:none;stroke-opacity:1;filter:url(#filter3203)" />
      <path
         style="opacity:1;fill:url(#linearGradient3180);fill-opacity:1;stroke:none;stroke-width:0.28206432;stroke-linecap:round;stroke-linejoin:round;stroke-miterlimit:4;stroke-dasharray:none;stroke-opacity:1"
         d="m -113,-24 a 8,8 0 0 0 -8,8 8,8 0 0 0 8,8 8,8 0 0 0 8,-8 6.5,6.5 0 0 1 -6.5,6.5 6.5,6.5 0 0 1 -6.5,-6.5 6.5,6.5 0 0 1 6.5,-6.5 6.5,6.5 0 0 1 6.48437,6.039063 A 8,8 0 0 0 -113,-24 Z"
         id="circle3176"
         inkscape:connector-curvature="0" />
      <path
         inkscape:connector-curvature="0"
         id="path3195"
         d="m -114.5,-25.5 a 9.5,9.5 0 0 0 -9.5,9.5 9.5,9.5 0 0 0 9.5,9.5 9.5,9.5 0 0 0 9.46094,-8.697266 A 8,8 0 0 1 -113,-8 a 8,8 0 0 1 -8,-8 8,8 0 0 1 8,-8 8,8 0 0 1 7.98047,7.431641 A 9.5,9.5 0 0 0 -114.5,-25.5 Z"
         style="opacity:0.3;fill:#000000;fill-opacity:1;stroke:none;stroke-width:0.33495137;stroke-linecap:round;stroke-linejoin:round;stroke-miterlimit:4;stroke-dasharray:none;stroke-opacity:1;filter:url(#filter3197)" />
      <path
         style="opacity:1;fill:url(#linearGradient3169);fill-opacity:1;stroke:none;stroke-width:0.33495137;stroke-linecap:round;stroke-linejoin:round;stroke-miterlimit:4;stroke-dasharray:none;stroke-opacity:1"
         d="m -114.5,-25.5 a 9.5,9.5 0 0 0 -9.5,9.5 9.5,9.5 0 0 0 9.5,9.5 9.5,9.5 0 0 0 9.46094,-8.697266 A 8,8 0 0 1 -113,-8 a 8,8 0 0 1 -8,-8 8,8 0 0 1 8,-8 8,8 0 0 1 7.98047,7.431641 A 9.5,9.5 0 0 0 -114.5,-25.5 Z"
         id="circle3163"
         inkscape:connector-curvature="0" />
      <path
         inkscape:connector-curvature="0"
         id="path3189"
         d="m -118,-29 a 13,13 0 0 0 -13,13 13,13 0 0 0 13,13 13,13 0 0 0 12.95312,-12.046875 A 9.5,9.5 0 0 1 -114.5,-6.5 9.5,9.5 0 0 1 -124,-16 a 9.5,9.5 0 0 1 9.5,-9.5 9.5,9.5 0 0 1 9.47461,8.818359 A 13,13 0 0 0 -118,-29 Z"
         style="opacity:0.3;fill:#000000;fill-opacity:1;stroke:none;stroke-width:0.45835447;stroke-linecap:round;stroke-linejoin:round;stroke-miterlimit:4;stroke-dasharray:none;stroke-opacity:1;filter:url(#filter3191)" />
      <path
         style="opacity:1;fill:url(#linearGradient3156);fill-opacity:1;stroke:none;stroke-width:0.45835447;stroke-linecap:round;stroke-linejoin:round;stroke-miterlimit:4;stroke-dasharray:none;stroke-opacity:1"
         d="m -118,-29 a 13,13 0 0 0 -13,13 13,13 0 0 0 13,13 13,13 0 0 0 12.95312,-12.046875 A 9.5,9.5 0 0 1 -114.5,-6.5 9.5,9.5 0 0 1 -124,-16 a 9.5,9.5 0 0 1 9.5,-9.5 9.5,9.5 0 0 1 9.47461,8.818359 A 13,13 0 0 0 -118,-29 Z"
         id="circle3097"
         inkscape:connector-curvature="0" />
    </g>
  </g>
</svg>
