<?xml version="1.0" encoding="UTF-8" standalone="no"?>
<svg
   xmlns:dc="http://purl.org/dc/elements/1.1/"
   xmlns:cc="http://creativecommons.org/ns#"
   xmlns:rdf="http://www.w3.org/1999/02/22-rdf-syntax-ns#"
   xmlns:svg="http://www.w3.org/2000/svg"
   xmlns="http://www.w3.org/2000/svg"
   xmlns:xlink="http://www.w3.org/1999/xlink"
   xmlns:sodipodi="http://sodipodi.sourceforge.net/DTD/sodipodi-0.dtd"
   xmlns:inkscape="http://www.inkscape.org/namespaces/inkscape"
   width="32"
   height="32"
   version="1.1"
   id="svg23"
   sodipodi:docname="system-suspend-hibernate.svg"
   inkscape:version="0.92.4 5da689c313, 2019-01-14">
  <defs
     id="defs27">
    <linearGradient
       gradientUnits="userSpaceOnUse"
       gradientTransform="translate(-21.671,-25)"
       y2="-117.64"
       y1="-117.64"
       x2="115"
       x1="70.011002"
       id="linearGradient4922">
      <stop
         id="stop1550"
         offset="0"
         stop-color="#236eb9" />
      <stop
         id="stop1552"
         offset="1"
         stop-color="#32a5f0" />
    </linearGradient>
    <linearGradient
       gradientUnits="userSpaceOnUse"
       gradientTransform="translate(-21.671,-25)"
       y2="-77.893997"
       y1="-77.893997"
       x2="115"
       x1="70.108002"
       id="linearGradient4928">
      <stop
         id="stop1565"
         offset="0"
         stop-color="#19326e" />
      <stop
         id="stop1567"
         offset="1"
         stop-color="#285abe" />
    </linearGradient>
    <linearGradient
       gradientUnits="userSpaceOnUse"
       gradientTransform="matrix(3.7796,0,0,3.7796,-21.671,-25)"
       y2="-23.993999"
       y1="-23.993999"
       x2="30.427"
       x1="18.523001"
       id="linearGradient4926">
      <stop
         id="stop1560"
         offset="0"
         stop-color="#1e4b96" />
      <stop
         id="stop1562"
         offset="1"
         stop-color="#3278d7" />
    </linearGradient>
    <linearGradient
       inkscape:collect="always"
       xlink:href="#linearGradient4922"
       id="linearGradient3584"
       gradientUnits="userSpaceOnUse"
       gradientTransform="matrix(-1,0,0,1,-120.93554,8.06446)"
       x1="-85"
       y1="103"
       x2="-71.197594"
       y2="89.462753" />
    <filter
       inkscape:collect="always"
       style="color-interpolation-filters:sRGB"
       id="filter3203"
       x="-0.035999998"
       width="1.072"
       y="-0.035999998"
       height="1.072">
      <feGaussianBlur
         inkscape:collect="always"
         stdDeviation="0.24"
         id="feGaussianBlur3205" />
    </filter>
    <linearGradient
       inkscape:collect="always"
       xlink:href="#linearGradient4926"
       id="linearGradient3588"
       gradientUnits="userSpaceOnUse"
       gradientTransform="matrix(-1,0,0,1,-120.93554,8.06446)"
       x1="-67.40625"
       y1="90"
       x2="-56.03125"
       y2="90" />
    <filter
       inkscape:collect="always"
       style="color-interpolation-filters:sRGB"
       id="filter3197"
       x="-0.036018521"
       width="1.072037"
       y="-0.035981499"
       height="1.071963">
      <feGaussianBlur
         inkscape:collect="always"
         stdDeviation="0.28485352"
         id="feGaussianBlur3199" />
    </filter>
    <linearGradient
       inkscape:collect="always"
       xlink:href="#linearGradient4924"
       id="linearGradient3590"
       gradientUnits="userSpaceOnUse"
       gradientTransform="matrix(-1,0,0,1,-120.93554,8.06446)"
       x1="-69.53125"
       y1="90"
       x2="-54.5"
       y2="90" />
    <linearGradient
       id="linearGradient4924"
       x1="18.523001"
       x2="30.427"
       y1="-27.715"
       y2="-27.715"
       gradientTransform="matrix(3.7796,0,0,3.7796,-21.671,-25)"
       gradientUnits="userSpaceOnUse">
      <stop
         stop-color="#2369b4"
         offset="0"
         id="stop1555" />
      <stop
         stop-color="#3296e6"
         offset="1"
         id="stop1557" />
    </linearGradient>
    <filter
       inkscape:collect="always"
       style="color-interpolation-filters:sRGB"
       id="filter3191"
       x="-0.036017597"
       width="1.0720352"
       y="-0.035982423"
       height="1.0719647">
      <feGaussianBlur
         inkscape:collect="always"
         stdDeviation="0.38980958"
         id="feGaussianBlur3193" />
    </filter>
    <linearGradient
       inkscape:collect="always"
       xlink:href="#linearGradient4922"
       id="linearGradient901"
       gradientUnits="userSpaceOnUse"
       gradientTransform="matrix(-1,0,0,1,-120.93554,8.06446)"
       x1="-85"
       y1="103"
       x2="-71.197594"
       y2="89.462753" />
  </defs>
  <sodipodi:namedview
     pagecolor="#c8c8c8"
     bordercolor="#666666"
     borderopacity="1"
     objecttolerance="10"
     gridtolerance="10"
     guidetolerance="10"
     inkscape:pageopacity="0"
     inkscape:pageshadow="2"
     inkscape:window-width="1920"
     inkscape:window-height="1007"
     id="namedview25"
     showgrid="false"
     inkscape:zoom="5.2149125"
     inkscape:cx="7.310128"
     inkscape:cy="3.9765113"
     inkscape:window-x="0"
     inkscape:window-y="0"
     inkscape:window-maximized="1"
     inkscape:current-layer="svg23" />
  <metadata
     id="metadata2">
    <rdf:RDF>
      <cc:Work
         rdf:about="">
        <dc:format>image/svg+xml</dc:format>
        <dc:type
           rdf:resource="http://purl.org/dc/dcmitype/StillImage" />
        <dc:title />
      </cc:Work>
    </rdf:RDF>
  </metadata>
  <g
     transform="translate(-81.118585)"
     id="system-suspend-hibernate-3">
    <rect
       style="opacity:0;fill:#000000;fill-opacity:1;fill-rule:evenodd;stroke:none;stroke-width:2;stroke-linecap:round;stroke-linejoin:round;stroke-miterlimit:4;stroke-dasharray:none;stroke-opacity:1;paint-order:fill markers stroke"
       id="rect887"
       width="32"
       height="32"
       x="42"
       y="0"
       rx="0"
       ry="0" />
    <g
       transform="translate(-0.99999962,38.999999)"
       id="g1496">
      <g
         transform="translate(95.311318,-118.76007)"
         id="g1465">
        <path
           d="M -37.228467,105.17175 A 12.423848,12.423848 0 0 1 -51.014754,100.707 12.423848,12.423848 0 0 1 -51.192566,86.216862 12.423848,12.423848 0 0 1 -37.51999,81.415155"
           sodipodi:open="true"
           sodipodi:end="4.9973172"
           sodipodi:start="1.2613268"
           sodipodi:ry="12.423848"
           sodipodi:rx="12.423848"
           sodipodi:cy="93.338097"
           sodipodi:cx="-41.012192"
           sodipodi:type="arc"
           id="path1461"
           style="opacity:1;fill:none;fill-opacity:1;fill-rule:evenodd;stroke:#eaeaea;stroke-width:1.15959466;stroke-linecap:round;stroke-linejoin:miter;stroke-miterlimit:4;stroke-dasharray:none;stroke-dashoffset:3;stroke-opacity:1;paint-order:stroke fill markers"
           transform="matrix(-0.70710678,-0.70710678,-0.70710678,0.70710678,0,0)" />
        <path
           transform="matrix(-0.70710678,-0.70710678,-0.70710678,0.70710678,0,0)"
           style="opacity:1;fill:none;fill-opacity:1;fill-rule:evenodd;stroke:#eaeaea;stroke-width:1.26629484;stroke-linecap:round;stroke-linejoin:miter;stroke-miterlimit:4;stroke-dasharray:none;stroke-dashoffset:3;stroke-opacity:1;paint-order:stroke fill markers"
           id="path1463"
           sodipodi:type="arc"
           sodipodi:cx="-30.954447"
           sodipodi:cy="93.213097"
           sodipodi:rx="13.567029"
           sodipodi:ry="13.567029"
           sodipodi:start="2.0627022"
           sodipodi:end="4.1887902"
           sodipodi:open="true"
           d="m -37.362245,105.17154 a 13.567029,13.567029 0 0 1 -7.157527,-11.743463 13.567029,13.567029 0 0 1 6.781811,-11.964372" />
      </g>
      <g
         id="g1483"
         transform="translate(0,1.0000002)">
        <rect
           transform="rotate(-45)"
           ry="0.52083254"
           y="17.156837"
           x="53.249416"
           height="1.0416651"
           width="10.880896"
           id="rect1469"
           style="opacity:1;fill:#eaeaea;fill-opacity:1;fill-rule:evenodd;stroke:none;stroke-width:1.68331885;stroke-linecap:round;stroke-linejoin:miter;stroke-miterlimit:4;stroke-dasharray:none;stroke-dashoffset:3;stroke-opacity:1;paint-order:stroke fill markers" />
        <rect
           style="opacity:1;fill:#eaeaea;fill-opacity:1;fill-rule:evenodd;stroke:none;stroke-width:1.4142189;stroke-linecap:round;stroke-linejoin:miter;stroke-miterlimit:4;stroke-dasharray:none;stroke-dashoffset:3;stroke-opacity:1;paint-order:stroke fill markers"
           id="rect1471"
           width="8"
           height="1.0000076"
           x="50"
           y="-26"
           ry="0.50000381" />
        <rect
           transform="scale(1,-1)"
           y="32"
           x="50"
           height="0.99998474"
           width="8"
           id="rect1473"
           style="opacity:1;fill:#eaeaea;fill-opacity:1;fill-rule:evenodd;stroke:none;stroke-width:1.41420281;stroke-linecap:round;stroke-linejoin:miter;stroke-miterlimit:4;stroke-dasharray:none;stroke-dashoffset:3;stroke-opacity:1;paint-order:stroke fill markers"
           ry="0.49999237" />
      </g>
    </g>
  </g>
  <g
     transform="translate(-42)"
     id="system-suspend-hibernate">
    <rect
       style="opacity:0;fill:#000000;fill-opacity:1;fill-rule:evenodd;stroke:none;stroke-width:2;stroke-linecap:round;stroke-linejoin:round;stroke-miterlimit:4;stroke-dasharray:none;stroke-opacity:1;paint-order:fill markers stroke"
       id="rect887-5"
       width="32"
       height="32"
       x="42"
       y="1.3689279e-07"
       rx="0"
       ry="0" />
    <g
       transform="translate(106.92285,-82.064459)"
       id="g3636">
      <path
         inkscape:connector-curvature="0"
         style="opacity:1;fill:url(#linearGradient901);fill-opacity:1;stroke:none;stroke-width:0.45835447;stroke-linecap:round;stroke-linejoin:round;stroke-miterlimit:4;stroke-dasharray:none;stroke-opacity:1"
         d="m -48.93554,85.064453 a 13,13 0 0 1 13,13 13,13 0 0 1 -13,12.999997 13,13 0 0 1 -12.966797,-12.351559 6.5,6.5 0 0 0 6.466797,5.851559 6.5,6.5 0 0 0 6.5,-6.499997 6.5,6.5 0 0 0 -6.5,-6.5 6.5,6.5 0 0 0 -6.482422,6.029297 13,13 0 0 1 12.982422,-12.529297 z"
         id="circle3564" />
      <path
         style="opacity:0.3;fill:#000000;fill-opacity:1;stroke:none;stroke-width:0.28206432;stroke-linecap:round;stroke-linejoin:round;stroke-miterlimit:4;stroke-dasharray:none;stroke-opacity:1;filter:url(#filter3203)"
         d="m -43.910153,90.06446 a 8,8 0 0 0 -8,8 8,8 0 0 0 8,8 8,8 0 0 0 8,-8 6.5,6.5 0 0 1 -6.5,6.5 6.5,6.5 0 0 1 -6.5,-6.5 6.5,6.5 0 0 1 6.5,-6.5 6.5,6.5 0 0 1 6.48437,6.039063 8,8 0 0 0 -7.98437,-7.539063 z"
         id="path3568"
         inkscape:connector-curvature="0"
         transform="matrix(-1,0,0,1,-97.845696,0)" />
      <path
         inkscape:connector-curvature="0"
         id="path3570"
         d="m -53.935543,90.06446 a 8,8 0 0 1 8,8 8,8 0 0 1 -8,8 8,8 0 0 1 -8,-8 6.5,6.5 0 0 0 6.5,6.5 6.5,6.5 0 0 0 6.5,-6.5 6.5,6.5 0 0 0 -6.5,-6.5 6.5,6.5 0 0 0 -6.48437,6.039063 8,8 0 0 1 7.98437,-7.539063 z"
         style="opacity:1;fill:url(#linearGradient3588);fill-opacity:1;stroke:none;stroke-width:0.28206432;stroke-linecap:round;stroke-linejoin:round;stroke-miterlimit:4;stroke-dasharray:none;stroke-opacity:1" />
      <path
         style="opacity:0.3;fill:#000000;fill-opacity:1;stroke:none;stroke-width:0.33495137;stroke-linecap:round;stroke-linejoin:round;stroke-miterlimit:4;stroke-dasharray:none;stroke-opacity:1;filter:url(#filter3197)"
         d="m -45.410153,88.56446 a 9.5,9.5 0 0 0 -9.5,9.5 9.5,9.5 0 0 0 9.5,9.5 9.5,9.5 0 0 0 9.46094,-8.697266 8,8 0 0 1 -7.96094,7.197266 8,8 0 0 1 -8,-8 8,8 0 0 1 8,-8 8,8 0 0 1 7.98047,7.431641 9.5,9.5 0 0 0 -9.48047,-8.931641 z"
         id="path3572"
         inkscape:connector-curvature="0"
         transform="matrix(-1,0,0,1,-97.845696,0)" />
      <path
         inkscape:connector-curvature="0"
         id="path3574"
         d="m -52.435543,88.56446 a 9.5,9.5 0 0 1 9.5,9.5 9.5,9.5 0 0 1 -9.5,9.5 9.5,9.5 0 0 1 -9.46094,-8.697266 8,8 0 0 0 7.96094,7.197266 8,8 0 0 0 8,-8 8,8 0 0 0 -8,-8 8,8 0 0 0 -7.98047,7.431641 9.5,9.5 0 0 1 9.48047,-8.931641 z"
         style="opacity:1;fill:url(#linearGradient3590);fill-opacity:1;stroke:none;stroke-width:0.33495137;stroke-linecap:round;stroke-linejoin:round;stroke-miterlimit:4;stroke-dasharray:none;stroke-opacity:1" />
      <path
         style="opacity:0.3;fill:#000000;fill-opacity:1;stroke:none;stroke-width:0.45835447;stroke-linecap:round;stroke-linejoin:round;stroke-miterlimit:4;stroke-dasharray:none;stroke-opacity:1;filter:url(#filter3191)"
         d="m -48.910153,85.06446 a 13,13 0 0 0 -13,13 13,13 0 0 0 13,13 13,13 0 0 0 12.95312,-12.046875 9.5,9.5 0 0 1 -9.45312,8.546875 9.5,9.5 0 0 1 -9.5,-9.5 9.5,9.5 0 0 1 9.5,-9.5 9.5,9.5 0 0 1 9.47461,8.818359 13,13 0 0 0 -12.97461,-12.318359 z"
         id="path3576"
         inkscape:connector-curvature="0"
         transform="matrix(-1,0,0,1,-97.845696,0)" />
      <path
         inkscape:connector-curvature="0"
         id="path3578"
         d="m -48.935543,85.06446 a 13,13 0 0 1 13,13 13,13 0 0 1 -13,13 13,13 0 0 1 -12.95312,-12.046875 9.5,9.5 0 0 0 9.45312,8.546875 9.5,9.5 0 0 0 9.5,-9.5 9.5,9.5 0 0 0 -9.5,-9.5 9.5,9.5 0 0 0 -9.47461,8.818359 13,13 0 0 1 12.97461,-12.318359 z"
         style="opacity:1;fill:url(#linearGradient3584);fill-opacity:1;stroke:none;stroke-width:0.45835447;stroke-linecap:round;stroke-linejoin:round;stroke-miterlimit:4;stroke-dasharray:none;stroke-opacity:1" />
    </g>
  </g>
</svg>
