<?xml version="1.0" encoding="UTF-8"?>
<svg width="64" height="64" version="1.1" viewBox="0 0 16.933 16.933" xmlns="http://www.w3.org/2000/svg" xmlns:cc="http://creativecommons.org/ns#" xmlns:dc="http://purl.org/dc/elements/1.1/" xmlns:rdf="http://www.w3.org/1999/02/22-rdf-syntax-ns#" xmlns:xlink="http://www.w3.org/1999/xlink">
 <metadata>
  <rdf:RDF>
   <cc:Work rdf:about="">
    <dc:format>image/svg+xml</dc:format>
    <dc:type rdf:resource="http://purl.org/dc/dcmitype/StillImage"/>
    <dc:title/>
   </cc:Work>
  </rdf:RDF>
 </metadata>
 <defs>
  <linearGradient id="linearGradient1064-3" x1="-15.961" x2="-.30109" y1="-43.254" y2="-54.196" gradientTransform="matrix(1 0 0 1.1 16.669 62.435)" gradientUnits="userSpaceOnUse">
   <stop stop-color="#3c3c3c" offset="0"/>
   <stop stop-color="#646464" offset="1"/>
  </linearGradient>
 </defs>
 <path d="m8.4664 7.5074h-7.9373v-4.0017c0-0.40184 0.29614-0.72758 0.66144-0.72758h5.6223l1.6536 1.4552z" fill="#3c3c3c" stroke-width=".69373"/>
 <rect x=".52969" y="4.2334" width="15.874" height="10.848" ry=".79373" fill="#3c3c3c"/>
 <rect x=".9734" y="4.6964" width="14.987" height="9.9217" ry=".29919" fill="#fffffc"/>
 <path d="m15.742 4.2333h-7.2759l-1.6536 1.4552h-5.6223c-0.36531 0-0.66144 0.32575-0.66144 0.72759v7.9373c0 0.40184 0.29614 0.72759 0.66144 0.72759h14.552c0.36531 0 0.66145-0.32575 0.66145-0.72759v-9.3926c0-0.40184-0.29614-0.72759-0.66145-0.72759z" fill="url(#linearGradient1064-3)" stroke-width=".69373"/>
 <g class="ColorScheme-Text" transform="matrix(.39687 0 0 .39687 5.2915 7.2759)" fill="#323232" stroke-width=".66667">
  <path d="m9.3333 2.3333h-1.3333l-6 12h1.3334z"/>
  <rect x="8" y="13.667" width="6" height=".66666" stroke-width=".47141"/>
 </g>
</svg>
