<?xml version="1.0" encoding="UTF-8" standalone="no"?>
<svg
   xmlns:dc="http://purl.org/dc/elements/1.1/"
   xmlns:cc="http://creativecommons.org/ns#"
   xmlns:rdf="http://www.w3.org/1999/02/22-rdf-syntax-ns#"
   xmlns:svg="http://www.w3.org/2000/svg"
   xmlns="http://www.w3.org/2000/svg"
   xmlns:xlink="http://www.w3.org/1999/xlink"
   xmlns:sodipodi="http://sodipodi.sourceforge.net/DTD/sodipodi-0.dtd"
   xmlns:inkscape="http://www.inkscape.org/namespaces/inkscape"
   width="64"
   height="64"
   version="1.1"
   id="svg102"
   sodipodi:docname="printer.svg"
   inkscape:version="1.0.1 (3bc2e813f5, 2020-09-07)">
  <sodipodi:namedview
     pagecolor="#ffffff"
     bordercolor="#666666"
     borderopacity="1"
     objecttolerance="10"
     gridtolerance="10"
     guidetolerance="10"
     inkscape:pageopacity="0"
     inkscape:pageshadow="2"
     inkscape:window-width="1920"
     inkscape:window-height="932"
     id="namedview104"
     showgrid="false"
     inkscape:zoom="5.9765625"
     inkscape:cx="43.41557"
     inkscape:cy="31.150206"
     inkscape:window-x="0"
     inkscape:window-y="36"
     inkscape:window-maximized="1"
     inkscape:current-layer="svg102" />
  <defs
     id="defs60">
    <linearGradient
       id="SVGID_9_"
       x1="254.81"
       x2="254.81"
       y1="52.854"
       y2="8.8735"
       gradientTransform="matrix(0.39215,0,0,-0.39215,205.97,57.307)"
       gradientUnits="userSpaceOnUse">
      <stop
         stop-color="#4D4D4D"
         offset="0"
         id="stop2" />
      <stop
         stop-color="#333"
         offset="1"
         id="stop4" />
    </linearGradient>
    <linearGradient
       id="SVGID_8_"
       x1="254.81"
       x2="254.81"
       y1="93.864"
       y2="48.214"
       gradientTransform="matrix(0.39215,0,0,-0.39215,205.97,57.307)"
       gradientUnits="userSpaceOnUse">
      <stop
         stop-color="#4d4d4d"
         stop-opacity="0"
         offset="0"
         id="stop7" />
      <stop
         stop-color="#4d4d4d"
         stop-opacity=".14118"
         offset=".143"
         id="stop9" />
      <stop
         stop-color="#4d4d4d"
         stop-opacity=".38431"
         offset=".384"
         id="stop11" />
      <stop
         stop-color="#4d4d4d"
         stop-opacity=".6902"
         offset=".692"
         id="stop13" />
      <stop
         stop-color="#4d4d4d"
         offset="1"
         id="stop15" />
    </linearGradient>
    <linearGradient
       id="SVGID_4_"
       x1="443.48"
       x2="308.63"
       y1="338.41"
       y2="473.27"
       gradientTransform="matrix(0.39215,0,0,-0.39215,205.97,57.307)"
       gradientUnits="userSpaceOnUse">
      <stop
         stop-color="#d2d2d2"
         stop-opacity="0"
         offset="0"
         id="stop18" />
      <stop
         stop-color="#d2d2d2"
         offset="1"
         id="stop20" />
    </linearGradient>
    <linearGradient
       id="SVGID_2_"
       x1="447.25"
       x2="331.04"
       y1="263.28"
       y2="379.48"
       gradientTransform="matrix(1.0039,0,0,-1.0039,0.1922,516.56)"
       gradientUnits="userSpaceOnUse">
      <stop
         stop-color="#4D4D4D"
         stop-opacity="0"
         offset="0"
         id="stop23" />
      <stop
         offset="1"
         id="stop25" />
    </linearGradient>
    <linearGradient
       id="linearGradient856"
       x1="-73.361"
       x2="-58.736"
       y1="6.9799"
       y2="17.198"
       gradientTransform="translate(75.14 -.97417)"
       gradientUnits="userSpaceOnUse">
      <stop
         stop-color="#3c3c3c"
         offset="0"
         id="stop28" />
      <stop
         stop-color="#1e1e1e"
         offset="1"
         id="stop30" />
    </linearGradient>
    <linearGradient
       id="linearGradient2161"
       x1="205.9"
       x2="405.9"
       y1="-1.4279"
       y2="-1.4279"
       gradientUnits="userSpaceOnUse"
       xlink:href="#linearGradient856" />
    <linearGradient
       id="linearGradient856-2"
       x1="-73.361"
       x2="-58.736"
       y1="6.9799"
       y2="17.198"
       gradientTransform="translate(75.14 -.97417)"
       gradientUnits="userSpaceOnUse">
      <stop
         stop-color="#fafafa"
         offset="0"
         id="stop34" />
      <stop
         stop-color="#e6e6e6"
         offset="1"
         id="stop36" />
    </linearGradient>
    <linearGradient
       id="linearGradient2263"
       x1="239.23"
       x2="372.57"
       y1="30.136"
       y2="30.136"
       gradientTransform="matrix(0.72563,-0.19443,0.19443,0.72563,134.78,-21.005)"
       gradientUnits="userSpaceOnUse">
      <stop
         stop-color="#00bffb"
         offset="0"
         id="stop39" />
      <stop
         stop-color="#01a1f3"
         offset="1"
         id="stop41" />
    </linearGradient>
    <linearGradient
       id="linearGradient2271"
       x1="530.64"
       x2="530.64"
       y1="-34.737"
       y2="-.83852"
       gradientTransform="translate(-221.47)"
       gradientUnits="userSpaceOnUse">
      <stop
         stop-color="#4D4D4D"
         stop-opacity="0"
         offset="0"
         id="stop44" />
      <stop
         stop-color="#4d4d4d"
         offset=".55323"
         id="stop46" />
      <stop
         stop-color="#4d4d4d"
         stop-opacity="0"
         offset="1"
         id="stop48" />
    </linearGradient>
    <linearGradient
       id="linearGradient2287"
       x1="241.31"
       x2="370.49"
       y1="-50.779"
       y2="-50.779"
       gradientUnits="userSpaceOnUse"
       xlink:href="#linearGradient856-2" />
    <linearGradient
       id="linearGradient2295"
       x1="241.31"
       x2="370.48"
       y1="-58.493"
       y2="-58.493"
       gradientUnits="userSpaceOnUse"
       xlink:href="#linearGradient856-2" />
    <linearGradient
       id="linearGradient2303"
       x1="327.34"
       x2="370.05"
       y1="-120.37"
       y2="-120.37"
       gradientUnits="userSpaceOnUse"
       xlink:href="#linearGradient856-2" />
    <linearGradient
       id="linearGradient2402"
       x1="232.92"
       x2="378.87"
       y1="-60.145"
       y2="-60.145"
       gradientUnits="userSpaceOnUse"
       xlink:href="#linearGradient856" />
    <linearGradient
       id="linearGradient2404"
       x1="446.99"
       x2="-.5907"
       y1="21.334"
       y2="49.483"
       gradientTransform="matrix(0.39215,0,0,-0.39215,205.97,57.307)"
       gradientUnits="userSpaceOnUse">
      <stop
         stop-color="#4D4D4D"
         stop-opacity="0"
         offset="0"
         id="stop55" />
      <stop
         offset="1"
         id="stop57" />
    </linearGradient>
    <linearGradient
       id="linearGradient1448"
       x1="3.9686999"
       x2="3.9686999"
       y1="8.9776001"
       y2="0.54084998"
       gradientTransform="matrix(3.4646098,0,0,3.46461,2.666209,2.6662073)"
       gradientUnits="userSpaceOnUse">
      <stop
         stop-color="#dcdcdc"
         offset="0"
         id="stop26"
         style="stop-color:#f0f0f0;stop-opacity:1" />
      <stop
         stop-color="#f0f0f0"
         offset="1"
         id="stop28-3"
         style="stop-color:#dcdcdc;stop-opacity:1" />
    </linearGradient>
  </defs>
  <metadata
     id="metadata62">
    <rdf:RDF>
      <cc:Work
         rdf:about="">
        <dc:format>image/svg+xml</dc:format>
        <dc:type
           rdf:resource="http://purl.org/dc/dcmitype/StillImage" />
        <dc:title></dc:title>
      </cc:Work>
    </rdf:RDF>
  </metadata>
  <rect
     x="4.4996166"
     y="4.4996166"
     width="55.000767"
     height="55.000767"
     ry="12.999942"
     fill="url(#linearGradient1448)"
     stroke-opacity="0.95294"
     stroke-width="0.31428"
     id="rect35"
     style="fill:url(#linearGradient1448)" />
  <g
     transform="matrix(0.1999955,0,0,0.1999955,-29.178693,40.89475)"
     id="g100">
    <path
       d="M 378.87,-27.474 H 232.92 v -58.172 c 0,-3.9594 3.2094,-7.1688 7.1688,-7.1688 h 131.61 c 3.9594,0 7.1688,3.2094 7.1688,7.1688 z"
       fill="url(#linearGradient2402)"
       stroke-width="0.39062"
       id="path64"
       style="fill:url(#linearGradient2402)" />
    <polygon
       transform="matrix(0.39062,0,0,0.39062,205.9,-144.47)"
       points="404.17,299.52 442.82,299.52 442.82,153.57 421.49,132.25 404.17,132.25 "
       fill="url(#SVGID_2_)"
       id="polygon66"
       style="fill:url(#SVGID_2_)" />
    <path
       d="m 327.62,-139.67 h -77.79 c -4.7027,0 -8.5152,3.8125 -8.5152,8.5152 v 145.33 c 0,4.7027 3.8125,8.5152 8.5152,8.5152 h 112.14 c 4.7027,0 8.5152,-3.8125 8.5152,-8.5152 v -113.21 c 0,-1.3031 -0.5125,-2.5539 -1.427,-3.482 l -33.218,-33.713 c -2.1692,-2.202 -5.1309,-3.4414 -8.2215,-3.4414 z"
       fill="url(#linearGradient2295)"
       stroke-width="0.39062"
       id="path68"
       style="fill:url(#linearGradient2295)" />
    <path
       d="m 336.27,-135.79 c -0.11602,-0.11719 -0.18789,-0.19023 -0.21719,-0.22031 l -0.0254,-0.0258 c -2.225,-2.2566 -5.2351,-3.5547 -8.3988,-3.6312 -0.075,-0.004 -0.15234,-0.004 -0.22812,-0.004 h -0.0402 c 0.13985,3.9e-4 0.27657,0.005 0.4125,0.018 0.13399,0.009 0.26875,0.0285 0.39805,0.0477 l 0.091,0.0191 c 0.25937,0.0477 0.51328,0.11523 0.7582,0.20156 0.1293,0.043 0.25898,0.0961 0.38359,0.15351 0.58047,0.24922 1.1031,0.61407 1.5441,1.0555 0.36485,0.36485 0.67149,0.78203 0.91133,1.2422 0.0531,0.091 0.10078,0.18711 0.13906,0.28789 0.077,0.16328 0.14375,0.33086 0.19649,0.50352 0.0144,0.043 0.0285,0.0816 0.0383,0.12461 0.10547,0.34531 0.17266,0.70976 0.19648,1.0793 0.009,0.12461 0.0145,0.24922 0.0145,0.37422 v 24.98 c 0,0.16328 0.005,0.32109 0.0144,0.47969 0.01,0.15351 0.0191,0.30703 0.0383,0.46054 0,0.009 0,0.0238 0.005,0.0336 0.0144,0.14844 0.0336,0.29727 0.0625,0.44102 0.0191,0.13906 0.0477,0.27344 0.0769,0.40781 0.009,0.043 0.0191,0.0863 0.0285,0.1293 0.0285,0.11523 0.0578,0.23008 0.091,0.34023 0,0.0191 0.005,0.0383 0.0145,0.0578 0.0285,0.10078 0.0625,0.20156 0.0961,0.30235 0.0191,0.0719 0.043,0.14375 0.0723,0.21562 0.0145,0.043 0.0285,0.0863 0.0477,0.12461 0.0285,0.0961 0.0672,0.1918 0.11016,0.2832 0.0383,0.10547 0.0863,0.21094 0.13906,0.31641 0.0625,0.13906 0.1293,0.27344 0.20156,0.40273 0.14375,0.26407 0.29727,0.51797 0.45586,0.76289 0.005,0.005 0.005,0.009 0.009,0.009 0.25429,0.36954 0.53711,0.71954 0.83906,1.0453 0.10078,0.10547 0.20625,0.21562 0.31172,0.3164 0.11016,0.10547 0.2207,0.20625 0.33086,0.30235 l 35.092,35.092 v -30.975 c 0,-1.3031 -0.5125,-2.5539 -1.427,-3.482 z"
       fill="url(#SVGID_4_)"
       stroke-width="0.39062"
       id="path70"
       style="fill:url(#SVGID_4_)" />
    <g
       stroke-width="0.39062"
       id="g78">
      <path
         d="m 370.05,-101.07 c 0,0 -0.25195,-0.7125 -1.2418,-1.7031 -0.36797,-0.36797 -32.771,-33.261 -32.771,-33.261 -2.2941,-2.3281 -5.4262,-3.6394 -8.6953,-3.6394 2.8215,0 5.109,2.2875 5.109,5.109 v 24.979 c 0,4.7027 3.8125,8.5152 8.5152,8.5152 z"
         fill="url(#linearGradient2303)"
         id="path72"
         style="fill:url(#linearGradient2303)" />
      <rect
         x="241.31"
         y="-74.083"
         width="129.17"
         height="46.608002"
         fill="url(#linearGradient2287)"
         id="rect74"
         style="fill:url(#linearGradient2287)" />
      <path
         d="m 405.9,-16.165 v 45.128 c 0,5.2398 -4.2477,9.4875 -9.4875,9.4875 h -181.03 c -5.2371,0 -9.4828,-4.2453 -9.4828,-9.4828 v -45.133 c 0,-2.2836 0.90703,-4.4734 2.5219,-6.0883 l 16.531,-16.531 c 1.6144,-1.6144 3.8047,-2.5219 6.0883,-2.5219 h 149.71 c 2.2836,0 4.4734,0.90703 6.0883,2.5219 l 16.531,16.531 c 1.6145,1.6148 2.5215,3.8047 2.5215,6.0883 z"
         fill="url(#linearGradient2161)"
         id="path76"
         style="fill:url(#linearGradient2161)" />
    </g>
    <g
       stroke-width="0.39062"
       id="g86">
      <path
         d="m 205.9,19.396 v 9.5684 c 0,5.2391 4.2469,9.4863 9.4863,9.4863 h 181.03 c 5.2387,0 9.4863,-4.2469 9.4863,-9.4863 V 19.396 Z"
         fill="url(#SVGID_8_)"
         id="path80"
         style="fill:url(#SVGID_8_)" />
      <path
         d="M 381.72,50.724 H 230.07 c -6.7785,0 -12.274,-5.4949 -12.274,-12.274 h 176.19 c 0,6.7785 -5.4949,12.274 -12.273,12.274 z"
         fill="url(#SVGID_9_)"
         id="path82"
         style="fill:url(#SVGID_9_)" />
      <path
         d="M 393.99,38.45 H 217.8 l 12.274,12.274 h 151.65 c 6.7777,0 12.273,-5.4953 12.273,-12.274 z"
         fill="url(#linearGradient2404)"
         id="path84"
         style="fill:url(#linearGradient2404)" />
    </g>
    <g
       stroke-width="0.39062"
       id="g98">
      <path
         d="M 372.57,38.45 H 239.23 v -9.4594 c 0,-3.9594 3.2094,-7.1688 7.1688,-7.1688 h 119.01 c 3.9594,0 7.1688,3.2094 7.1688,7.1688 V 38.45 Z"
         fill="url(#linearGradient2263)"
         id="path88"
         style="fill:url(#linearGradient2263)" />
      <path
         d="m 208.42,-22.253 c -1.6144,1.6144 -2.5219,3.8047 -2.5219,6.0883 v 15.871 h 200 v -15.871 c 0,-2.2836 -0.90703,-4.4734 -2.5219,-6.0883 l -12.576,-12.576 h -169.8 z"
         fill="url(#linearGradient2271)"
         id="path90"
         style="fill:url(#linearGradient2271)" />
      <circle
         cx="222.05"
         cy="-11.165"
         r="4.1570001"
         fill="#f44e24"
         id="circle92" />
      <circle
         cx="222.05"
         cy="0.34516001"
         r="4.1570001"
         fill="#ffb800"
         id="circle94" />
      <circle
         cx="222.05"
         cy="11.859"
         r="4.1570001"
         fill="#00a2ef"
         id="circle96" />
    </g>
  </g>
</svg>
