<?xml version="1.0" encoding="UTF-8"?>
<svg version="1.1" viewBox="0 0 16 16" xmlns="http://www.w3.org/2000/svg" xmlns:cc="http://creativecommons.org/ns#" xmlns:dc="http://purl.org/dc/elements/1.1/" xmlns:rdf="http://www.w3.org/1999/02/22-rdf-syntax-ns#">
 <metadata>
  <rdf:RDF>
   <cc:Work rdf:about="">
    <dc:format>image/svg+xml</dc:format>
    <dc:type rdf:resource="http://purl.org/dc/dcmitype/StillImage"/>
    <dc:title/>
   </cc:Work>
  </rdf:RDF>
 </metadata>
 <defs>
  <style id="current-color-scheme" type="text/css">.ColorScheme-Text { color:#363636; }</style>
  <linearGradient id="linearGradient887" x1="10" x2="10" y1="23" y2="28" gradientTransform="matrix(1 0 0 .8 -2 -9.4)" gradientUnits="userSpaceOnUse">
   <stop stop-color="#313131" offset="0"/>
   <stop stop-color="#636363" offset="1"/>
  </linearGradient>
 </defs>
 <path class="ColorScheme-Text" d="m25 2c-1.4995 0-2.5425 1.0366-2.9316 2.0332l-2.8691 7.4844c-0.0032 0.0076-0.0047 0.01581-0.0078 0.02344l-0.05859 0.15039h0.01172c-0.08705 0.25475-0.14453 0.52362-0.14453 0.80859 0 1.385 1.115 2.5 2.5 2.5h11c1.385 0 2.5-1.115 2.5-2.5 0-0.28498-0.05748-0.55384-0.14453-0.80859h0.01172l-0.05859-0.15039-0.0039-0.01563c-0.0011-0.0027-0.0028-0.0051-0.0039-0.0078l-2.8692-7.4844c-0.38916-0.99659-1.4322-2.0332-2.9316-2.0332h-2zm0 1h4c1.108 0 1.7085 0.6499 2 1.3965l2.1875 5.7109c-0.21961-0.0627-0.44722-0.10742-0.6875-0.10742h-11c-0.24028 0-0.46789 0.04472-0.6875 0.10742l2.1875-5.7109c0.29153-0.74658 0.892-1.3965 2-1.3965zm-3.5 8h11c0.831 0 1.5 0.669 1.5 1.5s-0.669 1.5-1.5 1.5h-11c-0.831 0-1.5-0.669-1.5-1.5s0.669-1.5 1.5-1.5z" fill="currentColor"/>
 <circle class="ColorScheme-Text" cx="31.5" cy="12.5" r=".5" fill="currentColor"/>
 <g transform="translate(32.276 -4.5458)">
  <path d="m-29.396 8.5458h10.24c0.35103 0 0.434 0.42347 0.6336 0.77797l2.0993 4.5036c0.19961 0.35452-0.18194 0.71844-0.53295 0.71848l-14.654 0.0018c-0.35103 4.4e-5 -0.73214-0.36395-0.53254-0.71848l2.1131-4.5054c0.19959-0.35454 0.28259-0.77797 0.6336-0.77797z" fill="#dbdcde" stroke-width=".3242"/>
  <path d="m-28.781 9.5458h9.01c0.27427 0 0.33272 0.35068 0.49505 0.6336l1.2867 3.1215c0.16233 0.28293-0.22079 0.6336-0.49505 0.6336h-11.582c-0.27427 0-0.65738-0.35068-0.49505-0.6336l1.2859-3.1215c0.16233-0.28293 0.22079-0.6336 0.49505-0.6336z" fill="#e2e3e7" stroke-width=".26426"/>
  <g transform="translate(-32.276 4.5458)">
   <rect x="1.1073e-6" y="8" width="16" height="6" ry="2" fill="#b0b0b0"/>
   <rect x="1" y="9" width="14" height="4" ry="1" fill="url(#linearGradient887)"/>
   <circle cx="12" cy="11" r="1" fill="#72d406"/>
  </g>
 </g>
</svg>
