<?xml version="1.0" encoding="UTF-8" standalone="no"?>
<svg
   xmlns:dc="http://purl.org/dc/elements/1.1/"
   xmlns:cc="http://creativecommons.org/ns#"
   xmlns:rdf="http://www.w3.org/1999/02/22-rdf-syntax-ns#"
   xmlns:svg="http://www.w3.org/2000/svg"
   xmlns="http://www.w3.org/2000/svg"
   xmlns:xlink="http://www.w3.org/1999/xlink"
   xmlns:sodipodi="http://sodipodi.sourceforge.net/DTD/sodipodi-0.dtd"
   xmlns:inkscape="http://www.inkscape.org/namespaces/inkscape"
   width="16"
   height="16"
   version="1.1"
   id="svg7"
   sodipodi:docname="weather-snow.svg"
   inkscape:version="0.92.5 (2060ec1f9f, 2020-04-08)">
  <metadata
     id="metadata11">
    <rdf:RDF>
      <cc:Work
         rdf:about="">
        <dc:format>image/svg+xml</dc:format>
        <dc:type
           rdf:resource="http://purl.org/dc/dcmitype/StillImage" />
      </cc:Work>
    </rdf:RDF>
  </metadata>
  <sodipodi:namedview
     pagecolor="#ffffff"
     bordercolor="#666666"
     borderopacity="1"
     objecttolerance="10"
     gridtolerance="10"
     guidetolerance="10"
     inkscape:pageopacity="0"
     inkscape:pageshadow="2"
     inkscape:window-width="1920"
     inkscape:window-height="971"
     id="namedview9"
     showgrid="false"
     inkscape:zoom="20.85965"
     inkscape:cx="-1.7148261"
     inkscape:cy="10.256561"
     inkscape:window-x="0"
     inkscape:window-y="38"
     inkscape:window-maximized="1"
     inkscape:current-layer="svg7" />
  <defs
     id="defs3">
    <style
       id="current-color-scheme"
       type="text/css">
   .ColorScheme-Text { color:#dfdfdf; } .ColorScheme-Highlight { color:#4285f4; }
  </style>
    <style
       type="text/css"
       id="current-color-scheme-3">
   .ColorScheme-Text { color:#dfdfdf; } .ColorScheme-Highlight { color:#4285f4; }
  </style>
    <linearGradient
       gradientUnits="userSpaceOnUse"
       gradientTransform="matrix(0.85495515,0,0,0.85495515,-2.1299959,2.6174204)"
       y2="9.1260004"
       y1="9.1260004"
       x2="20.621"
       x1="13.152"
       id="linearGradient992">
      <stop
         id="stop818"
         offset="0"
         stop-color="#fafafa" />
      <stop
         id="stop820"
         offset="1"
         stop-color="#d4d4d4" />
    </linearGradient>
    <filter
       height="1.1526999"
       width="1.0961"
       y="-0.076366"
       x="-0.048060998"
       id="filter1012"
       style="color-interpolation-filters:sRGB">
      <feGaussianBlur
         id="feGaussianBlur823"
         stdDeviation="0.18772996" />
    </filter>
    <linearGradient
       y2="9.1260004"
       x2="20.621"
       y1="9.1260004"
       x1="13.152"
       gradientTransform="matrix(0.85495515,0,0,0.85495515,-2.1299959,2.6174204)"
       gradientUnits="userSpaceOnUse"
       id="linearGradient906"
       xlink:href="#linearGradient992"
       inkscape:collect="always" />
    <linearGradient
       inkscape:collect="always"
       xlink:href="#linearGradient992"
       id="linearGradient862"
       x1="7.928091"
       y1="15.646643"
       x2="7.928091"
       y2="10.914095"
       gradientUnits="userSpaceOnUse" />
  </defs>
  <g
     id="g868">
    <path
       sodipodi:nodetypes="sssssssssssssssssssssssssssssssssss"
       inkscape:connector-curvature="0"
       id="path5"
       d="m 4,11.29761 c -0.552285,0 -1,0.447715 -1,1 0,0.552285 0.447715,1 1,1 0.552285,0 1,-0.447715 1,-1 0,-0.552285 -0.447715,-1 -1,-1 z m 4,0 c -0.552285,0 -1,0.447715 -1,1 0,0.552285 0.447715,1 1,1 0.552285,0 1,-0.447715 1,-1 0,-0.552285 -0.447715,-1 -1,-1 z m 4,0 c -0.552285,0 -1,0.447715 -1,1 0,0.552285 0.447715,1 1,1 0.552285,0 1,-0.447715 1,-1 0,-0.552285 -0.447715,-1 -1,-1 z m -10,2 c -0.552285,0 -1,0.447715 -1,1 0,0.552285 0.447715,1 1,1 0.552285,0 1,-0.447715 1,-1 0,-0.552285 -0.447715,-1 -1,-1 z m 4,0 c -0.552285,0 -1,0.447715 -1,1 0,0.552285 0.447715,1 1,1 0.552285,0 1,-0.447715 1,-1 0,-0.552285 -0.447715,-1 -1,-1 z m 4,0 c -0.552285,0 -1,0.447715 -1,1 0,0.552285 0.447715,1 1,1 0.552285,0 1,-0.447715 1,-1 0,-0.552285 -0.447715,-1 -1,-1 z m 4,0 c -0.552285,0 -1,0.447715 -1,1 0,0.552285 0.447715,1 1,1 0.552285,0 1,-0.447715 1,-1 0,-0.552285 -0.447715,-1 -1,-1 z"
       class="ColorScheme-Text"
       style="color:#dfdfdf;fill:url(#linearGradient862);fill-opacity:1" />
    <g
       id="g850"
       transform="matrix(1.7805212,0,0,1.7805212,-11.987719,-13.002935)">
      <path
         style="opacity:0.3;fill-rule:evenodd;filter:url(#filter1012)"
         inkscape:connector-curvature="0"
         transform="matrix(0.71074986,0,0,0.82582683,-0.66762934,2.9691404)"
         d="m 15.187,6.176 a 2.296,2.3606 0 0 1 2.0957,1.4016 2.296,2.3606 0 0 1 0.9664,-0.22286 2.296,2.3606 0 0 1 2.296,2.3606 2.296,2.3606 0 0 1 -2.296,2.3606 2.296,2.3606 0 0 1 -7.47e-4,0 h -5.3574 a 1.721,1.7695 0 0 1 -1.7205,-1.7697 1.721,1.7695 0 0 1 1.7205,-1.7689 2.296,2.3606 0 0 0 0,-7.6e-4 2.296,2.3606 0 0 1 0,-0.001 2.296,2.3606 0 0 1 2.296,-2.3591 z"
         id="path853" />
      <path
         style="fill:url(#linearGradient906);fill-rule:evenodd;stroke-width:0.85495514"
         inkscape:connector-curvature="0"
         d="M 10.919065,7.8976234 A 1.962977,2.0182071 0 0 1 12.710794,9.0959285 1.962977,2.0182071 0 0 1 13.537023,8.9053932 1.962977,2.0182071 0 0 1 15.5,10.9236 a 1.962977,2.0182071 0 0 1 -1.962977,2.018207 1.962977,2.0182071 0 0 1 -6.39e-4,0 H 8.9560476 a 1.4713778,1.5128431 0 0 1 -1.4709503,-1.513014 1.4713778,1.5128431 0 0 1 1.4709503,-1.5123298 1.962977,2.0182071 0 0 0 0,-6.498e-4 1.962977,2.0182071 0 0 1 0,-8.549e-4 1.962977,2.0182071 0 0 1 1.9629774,-2.0169247 z"
         id="path855" />
    </g>
  </g>
</svg>
