<?xml version="1.0" encoding="UTF-8" standalone="no"?>
<svg
   xmlns:dc="http://purl.org/dc/elements/1.1/"
   xmlns:cc="http://creativecommons.org/ns#"
   xmlns:rdf="http://www.w3.org/1999/02/22-rdf-syntax-ns#"
   xmlns:svg="http://www.w3.org/2000/svg"
   xmlns="http://www.w3.org/2000/svg"
   xmlns:xlink="http://www.w3.org/1999/xlink"
   xmlns:sodipodi="http://sodipodi.sourceforge.net/DTD/sodipodi-0.dtd"
   xmlns:inkscape="http://www.inkscape.org/namespaces/inkscape"
   width="16"
   height="16"
   version="1.1"
   id="svg7"
   sodipodi:docname="weather-windy.svg"
   inkscape:version="0.92.5 (2060ec1f9f, 2020-04-08)">
  <metadata
     id="metadata11">
    <rdf:RDF>
      <cc:Work
         rdf:about="">
        <dc:format>image/svg+xml</dc:format>
        <dc:type
           rdf:resource="http://purl.org/dc/dcmitype/StillImage" />
      </cc:Work>
    </rdf:RDF>
  </metadata>
  <sodipodi:namedview
     pagecolor="#ffffff"
     bordercolor="#666666"
     borderopacity="1"
     objecttolerance="10"
     gridtolerance="10"
     guidetolerance="10"
     inkscape:pageopacity="0"
     inkscape:pageshadow="2"
     inkscape:window-width="1920"
     inkscape:window-height="971"
     id="namedview9"
     showgrid="false"
     inkscape:zoom="14.75"
     inkscape:cx="8"
     inkscape:cy="8"
     inkscape:window-x="0"
     inkscape:window-y="38"
     inkscape:window-maximized="1"
     inkscape:current-layer="svg7" />
  <defs
     id="defs3">
    <style
       id="current-color-scheme"
       type="text/css">
   .ColorScheme-Text { color:#dfdfdf; } .ColorScheme-Highlight { color:#4285f4; }
  </style>
    <style
       type="text/css"
       id="current-color-scheme-35">
   .ColorScheme-Text { color:#dfdfdf; } .ColorScheme-Highlight { color:#4285f4; }
  </style>
    <style
       id="current-color-scheme-3"
       type="text/css">
   .ColorScheme-Text { color:#dfdfdf; } .ColorScheme-Highlight { color:#4285f4; }
  </style>
    <linearGradient
       gradientUnits="userSpaceOnUse"
       gradientTransform="matrix(0.85495515,0,0,0.85495515,-2.1299959,2.6174204)"
       y2="9.126"
       y1="9.126"
       x2="20.621"
       x1="13.152"
       id="linearGradient992">
      <stop
         id="stop818"
         offset="0"
         stop-color="#fafafa" />
      <stop
         id="stop820"
         offset="1"
         stop-color="#d4d4d4" />
    </linearGradient>
    <filter
       color-interpolation-filters="sRGB"
       height="1.1527"
       width="1.0961"
       y="-.076366"
       x="-.048061"
       id="filter1012">
      <feGaussianBlur
         id="feGaussianBlur823"
         stdDeviation="0.18772996" />
    </filter>
    <linearGradient
       gradientUnits="userSpaceOnUse"
       y2="11.644"
       y1="1.0462"
       x2="16.556"
       x1="5.9587"
       id="linearGradient885"
       gradientTransform="matrix(0.85494046,0,0,0.85494046,-1.7195744,2.6175126)">
      <stop
         id="stop826"
         offset="0"
         stop-color="#ffcd00" />
      <stop
         id="stop828"
         offset="1"
         stop-color="#e16405" />
    </linearGradient>
    <style
       id="current-color-scheme-1"
       type="text/css">
   .ColorScheme-Text { color:#dfdfdf; } .ColorScheme-Highlight { color:#4285f4; }
  </style>
    <filter
       style="color-interpolation-filters:sRGB"
       id="filter1012-3"
       x="-0.048060998"
       y="-0.076366"
       width="1.0961"
       height="1.1526999">
      <feGaussianBlur
         stdDeviation="0.18772996"
         id="feGaussianBlur823-6" />
    </filter>
    <linearGradient
       inkscape:collect="always"
       xlink:href="#linearGradient992"
       id="linearGradient890"
       x1="-3.9903614e-05"
       y1="8"
       x2="16"
       y2="8"
       gradientUnits="userSpaceOnUse" />
  </defs>
  <path
     style="fill:url(#linearGradient890);fill-opacity:1.0"
     class="ColorScheme-Text"
     d="M 8.0208,0 A 0.99921,1.0001 0 1 0 8.0208,2 C 8.0208,2 8.3062,2.013 8.5633,2.1426 8.8204,2.2721 9.0062,2.331 9.0062,3 9.0062,3.669 8.8204,3.7279 8.5633,3.8574 8.3062,3.987 8.0208,4 8.0208,4 H 1.0133 A 0.99921,1.0001 0 1 0 1.0133,6 H 8.0208 C 8.0208,6 8.7278,6.013 9.4629,5.6426 10.198,5.2721 11.004,4.331 11.004,3 11.004,1.669 10.198,0.72785 9.4629,0.35742 8.7278,-0.01301 8.0208,0 8.0208,0 Z M 13.016,3 A 0.99921,1.0001 0 1 0 13.016,5 C 13.016,5 13.302,5.013 13.559,5.1426 13.816,5.2721 14.002,5.331 14.002,6 14.002,6.669 13.816,6.7279 13.559,6.8574 13.302,6.987 13.016,7 13.016,7 H 5.0234 A 0.99921,1.0001 0 1 0 5.0234,9 H 13.016 C 13.016,9 13.723,9.013 14.458,8.6426 15.193,8.2721 16,7.331 16,6 16,4.669 15.193,3.7279 14.458,3.3574 13.723,2.987 13.016,3 13.016,3 Z M 1.0133,10 A 0.99921,1.0001 0 1 0 1.0133,12 H 8.0208 C 8.0208,12 8.3062,12.013 8.5633,12.143 8.8204,12.272 9.0062,12.331 9.0062,13 9.0062,13.669 8.8204,13.728 8.5633,13.857 8.3062,13.987 8.0208,14 8.0208,14 A 0.99921,1.0001 0 1 0 8.0208,16 C 8.0208,16 8.7278,16.013 9.4629,15.643 10.198,15.272 11.004,14.331 11.004,13 11.004,11.669 10.198,10.728 9.4629,10.357 8.7278,9.987 8.0208,10 8.0208,10 Z"
     id="path5" />
</svg>
