<?xml version="1.0" encoding="UTF-8" standalone="no"?>
<svg
   xmlns:dc="http://purl.org/dc/elements/1.1/"
   xmlns:cc="http://creativecommons.org/ns#"
   xmlns:rdf="http://www.w3.org/1999/02/22-rdf-syntax-ns#"
   xmlns:svg="http://www.w3.org/2000/svg"
   xmlns="http://www.w3.org/2000/svg"
   xmlns:sodipodi="http://sodipodi.sourceforge.net/DTD/sodipodi-0.dtd"
   xmlns:inkscape="http://www.inkscape.org/namespaces/inkscape"
   width="16"
   height="16"
   version="1.1"
   id="svg7"
   sodipodi:docname="weather-clouds.svg"
   inkscape:version="0.92.5 (2060ec1f9f, 2020-04-08)">
  <metadata
     id="metadata11">
    <rdf:RDF>
      <cc:Work
         rdf:about="">
        <dc:format>image/svg+xml</dc:format>
        <dc:type
           rdf:resource="http://purl.org/dc/dcmitype/StillImage" />
      </cc:Work>
    </rdf:RDF>
  </metadata>
  <sodipodi:namedview
     pagecolor="#ffffff"
     bordercolor="#666666"
     borderopacity="1"
     objecttolerance="10"
     gridtolerance="10"
     guidetolerance="10"
     inkscape:pageopacity="0"
     inkscape:pageshadow="2"
     inkscape:window-width="1920"
     inkscape:window-height="971"
     id="namedview9"
     showgrid="false"
     inkscape:zoom="10.429825"
     inkscape:cx="7.8021311"
     inkscape:cy="12.922851"
     inkscape:window-x="0"
     inkscape:window-y="38"
     inkscape:window-maximized="1"
     inkscape:current-layer="svg7" />
  <defs
     id="defs3">
    <style
       id="current-color-scheme"
       type="text/css">
   .ColorScheme-Text { color:#dfdfdf; } .ColorScheme-Highlight { color:#4285f4; }
  </style>
    <linearGradient
       gradientUnits="userSpaceOnUse"
       gradientTransform="matrix(0.85495515,0,0,0.85495515,-2.1299959,2.6174204)"
       y2="9.126"
       y1="9.126"
       x2="20.621"
       x1="13.152"
       id="linearGradient992">
      <stop
         id="stop818"
         offset="0"
         stop-color="#fafafa" />
      <stop
         id="stop820"
         offset="1"
         stop-color="#d4d4d4" />
    </linearGradient>
    <filter
       color-interpolation-filters="sRGB"
       height="1.1527"
       width="1.0961"
       y="-.076366"
       x="-.048061"
       id="filter1012">
      <feGaussianBlur
         id="feGaussianBlur823"
         stdDeviation="0.18772996" />
    </filter>
    <linearGradient
       gradientUnits="userSpaceOnUse"
       y2="11.644"
       y1="1.0462"
       x2="16.556"
       x1="5.9587"
       id="linearGradient885"
       gradientTransform="matrix(0.85494046,0,0,0.85494046,-1.7195744,2.6175126)">
      <stop
         id="stop826"
         offset="0"
         stop-color="#ffcd00" />
      <stop
         id="stop828"
         offset="1"
         stop-color="#e16405" />
    </linearGradient>
  </defs>
  <g
     style="fill:#5e4aa6;stroke-width:0.26458001"
     id="g849"
     transform="matrix(0.94487931,0,0,0.94487931,1.9546109e-4,1.9921315e-4)">
    <g
       transform="translate(-21.834,0.89695)"
       id="g843">
      <circle
         cx="-330.35001"
         cy="-328.38"
         r="0"
         id="circle835" />
      <circle
         cx="-312.10999"
         cy="-326.25"
         r="0"
         id="circle837" />
      <circle
         cx="-306.01999"
         cy="-333.07001"
         r="0"
         id="circle839" />
      <circle
         cx="-308.84"
         cy="-326.01001"
         r="0"
         id="circle841" />
    </g>
    <circle
       cx="-354.32001"
       cy="-329.38"
       r="0"
       id="circle845" />
    <circle
       style="fill-rule:evenodd"
       cx="-63.402"
       cy="5.4428"
       r="0"
       id="circle847" />
  </g>
  <g
     id="g852">
    <path
       style="fill:url(#linearGradient885);stroke-width:0.02650829"
       inkscape:connector-curvature="0"
       d="m 14.785907,7.9998762 c 0,0.8135012 -0.143195,1.5934379 -0.405788,2.3163758 -0.18253,0.502432 -0.422667,0.977454 -0.712953,1.416806 -0.121589,0.184735 -0.252327,0.363136 -0.391093,0.534578 -0.444269,0.548692 -0.972238,1.026527 -1.564883,1.414328 -0.218266,0.14292 -0.445116,0.273666 -0.679976,0.39081 -0.912052,0.456436 -1.9416559,0.713192 -3.0312776,0.713192 -1.0896216,0 -2.1192265,-0.256756 -3.031277,-0.713209 C 4.7337732,13.955587 4.5066496,13.824858 4.2883918,13.681947 3.6881723,13.288913 3.1538857,12.803581 2.706068,12.245818 2.5670375,12.072983 2.436565,11.892941 2.3149753,11.706547 2.0324517,11.27447 1.7984203,10.808262 1.6194984,10.315559 1.3569461,9.5929042 1.2140001,8.8132579 1.2140001,8.0000386 c 0,-3.7478026 3.0382021,-6.7860047 6.7860046,-6.7860047 1.8812963,0 3.5835693,0.7655736 4.8128033,2.0019286 0.354244,0.3561768 0.669187,0.7517321 0.937271,1.1793905 0.253439,0.4027367 0.465318,0.8342509 0.630116,1.2882242 0.26262,0.7229207 0.405805,1.5029 0.405805,2.3163759 z"
       id="path851" />
    <g
       transform="matrix(1.7805212,0,0,1.7805212,-11.987719,-8.2343491)"
       id="g850">
      <path
         id="path853"
         d="m 15.187,6.176 a 2.296,2.3606 0 0 1 2.0957,1.4016 2.296,2.3606 0 0 1 0.9664,-0.22286 2.296,2.3606 0 0 1 2.296,2.3606 2.296,2.3606 0 0 1 -2.296,2.3606 2.296,2.3606 0 0 1 -7.47e-4,0 h -5.3574 a 1.721,1.7695 0 0 1 -1.7205,-1.7697 1.721,1.7695 0 0 1 1.7205,-1.7689 2.296,2.3606 0 0 0 0,-7.6e-4 2.296,2.3606 0 0 1 0,-0.001 2.296,2.3606 0 0 1 2.296,-2.3591 z"
         transform="matrix(0.71074986,0,0,0.82582683,-0.66762934,2.9691404)"
         inkscape:connector-curvature="0"
         style="opacity:0.3;fill-rule:evenodd;filter:url(#filter1012)" />
      <path
         id="path855"
         d="M 10.919065,7.8976234 A 1.962977,2.0182071 0 0 1 12.710794,9.0959285 1.962977,2.0182071 0 0 1 13.537023,8.9053932 1.962977,2.0182071 0 0 1 15.5,10.9236 a 1.962977,2.0182071 0 0 1 -1.962977,2.018207 1.962977,2.0182071 0 0 1 -6.39e-4,0 H 8.9560476 a 1.4713778,1.5128431 0 0 1 -1.4709503,-1.513014 1.4713778,1.5128431 0 0 1 1.4709503,-1.5123298 1.962977,2.0182071 0 0 0 0,-6.498e-4 1.962977,2.0182071 0 0 1 0,-8.549e-4 1.962977,2.0182071 0 0 1 1.9629774,-2.0169247 z"
         inkscape:connector-curvature="0"
         style="fill:url(#linearGradient992);fill-rule:evenodd;stroke-width:0.85495514" />
    </g>
  </g>
</svg>
