<?xml version="1.0" encoding="UTF-8" standalone="no"?>
<svg
   width="64"
   height="64"
   version="1"
   id="svg8"
   sodipodi:docname="4kstogram.svg"
   inkscape:version="1.4.2 (ebf0e940d0, 2025-05-08)"
   xmlns:inkscape="http://www.inkscape.org/namespaces/inkscape"
   xmlns:sodipodi="http://sodipodi.sourceforge.net/DTD/sodipodi-0.dtd"
   xmlns:xlink="http://www.w3.org/1999/xlink"
   xmlns="http://www.w3.org/2000/svg"
   xmlns:svg="http://www.w3.org/2000/svg">
  <defs
     id="defs8">
    <linearGradient
       id="linearGradient8"
       inkscape:collect="always">
      <stop
         style="stop-color:#ff863d;stop-opacity:1"
         offset="0"
         id="stop8" />
      <stop
         style="stop-color:#fe5c1e;stop-opacity:1"
         offset="1"
         id="stop9" />
    </linearGradient>
    <linearGradient
       inkscape:collect="always"
       xlink:href="#linearGradient8"
       id="linearGradient9"
       x1="32"
       y1="3.5"
       x2="32"
       y2="60.5"
       gradientUnits="userSpaceOnUse" />
  </defs>
  <sodipodi:namedview
     id="namedview8"
     pagecolor="#505050"
     bordercolor="#eeeeee"
     borderopacity="1"
     inkscape:showpageshadow="0"
     inkscape:pageopacity="0"
     inkscape:pagecheckerboard="0"
     inkscape:deskcolor="#505050"
     inkscape:zoom="6.0390625"
     inkscape:cx="72.362225"
     inkscape:cy="30.385511"
     inkscape:window-width="1920"
     inkscape:window-height="996"
     inkscape:window-x="0"
     inkscape:window-y="0"
     inkscape:window-maximized="1"
     inkscape:current-layer="svg8" />
  <rect
     style="fill:url(#linearGradient9);stroke-width:1.01786;fill-opacity:1"
     width="57"
     height="57"
     x="3.5"
     y="3.5"
     rx="17.099998"
     ry="17.099998"
     id="rect2" />
  <path
     style="fill:#ffffff"
     d="M 49,11.000001 A 4,4 0 0 1 53,15 a 4,4 0 0 1 -4,4 4,4 0 0 1 -4,-4 4,4 0 0 1 4,-3.999999 z"
     id="path4" />
  <path
     id="path5"
     style="fill:#ffffff"
     d="M 32 15 A 17.000001 17.000001 0 0 0 15 32 A 17.000001 17.000001 0 0 0 32 49 A 17.000001 17.000001 0 0 0 49 32 A 17.000001 17.000001 0 0 0 32 15 z M 32 21 A 11 11 0 0 1 43 32 A 11 11 0 0 1 32 43 A 11 11 0 0 1 21 32 A 11 11 0 0 1 32 21 z " />
  <path
     style="fill:#ffffff;stroke-width:0.454545;fill-opacity:1"
     d="m 32,27 a 5.0000003,5.0000003 0 0 0 -5,5 5.0000003,5.0000003 0 0 0 5,5 5.0000003,5.0000003 0 0 0 5,-5 5.0000003,5.0000003 0 0 0 -5,-5 z"
     id="path8" />
</svg>
