<?xml version="1.0" encoding="UTF-8" standalone="no"?>
<svg
   width="64"
   height="64"
   version="1.1"
   id="svg4"
   sodipodi:docname="aaaaxy.svg"
   xml:space="preserve"
   inkscape:version="1.4 (e7c3feb100, 2024-10-09)"
   xmlns:inkscape="http://www.inkscape.org/namespaces/inkscape"
   xmlns:sodipodi="http://sodipodi.sourceforge.net/DTD/sodipodi-0.dtd"
   xmlns="http://www.w3.org/2000/svg"
   xmlns:svg="http://www.w3.org/2000/svg"><defs
     id="defs4" /><sodipodi:namedview
     id="namedview4"
     pagecolor="#505050"
     bordercolor="#eeeeee"
     borderopacity="1"
     inkscape:showpageshadow="0"
     inkscape:pageopacity="0"
     inkscape:pagecheckerboard="0"
     inkscape:deskcolor="#505050"
     inkscape:zoom="3.2427475"
     inkscape:cx="-75.244835"
     inkscape:cy="43.481646"
     inkscape:window-width="2560"
     inkscape:window-height="1411"
     inkscape:window-x="0"
     inkscape:window-y="0"
     inkscape:window-maximized="1"
     inkscape:current-layer="svg4" /><g
     id="g12"
     transform="translate(90.771484,3.9628908)"><path
       id="rect8"
       style="fill:#000000;fill-opacity:1;stroke-width:0.962691"
       d="M -87.271484,-0.46289062 V 52.037109 h 4.5 v 4.5 h 48 v -4.5 h 4.5 V -0.46289062 Z" /><path
       fill="#aaaaaa"
       d="m -69.057389,48.608857 v -3.428571 h -3.428572 v -3.428571 h -3.428571 v -3.428572 h -3.428571 V 17.751715 h 3.428571 v -3.428571 h 3.428571 v -3.428571 h 3.428572 V 7.4660015 h 20.571428 v 3.4285715 h 3.428571 v 3.428571 h 3.428571 v 3.428571 h 3.428571 v 20.571428 h -3.428571 v 3.428572 h -3.428571 v 3.428571 h -3.428571 v 3.428571 z m 17.142856,-3.428571 v -3.428571 h 3.428572 v -3.428572 h 3.428571 v -3.428571 h 3.428571 V 21.180287 h -3.428571 v -3.428572 h -3.428571 v -3.428571 h -3.428572 v -3.428571 h -13.714285 v 3.428571 h -3.428571 v 3.428571 h -3.428572 v 3.428572 h -3.428571 v 13.714285 h 3.428571 v 3.428571 h 3.428572 v 3.428572 h 3.428571 v 3.428571 z"
       id="path5"
       style="stroke-width:1.14286" /><path
       fill="#55ff55"
       d="M -62.200247,41.751715 V 24.608858 h -3.428571 v 3.428571 h -6.857143 v -3.428571 h 3.428572 v -3.428571 h 3.428571 v -3.428572 h 3.428571 v -3.428571 h 6.857143 v 3.428571 h 3.428571 v 3.428572 h 3.428572 v 3.428571 h 3.428571 v 3.428571 h -6.857143 v -3.428571 h -3.428571 v 17.142857 z"
       id="path6"
       style="stroke-width:1.14286" /><path
       fill="#aa5500"
       d="m -75.914532,4.0374302 v 3.4285713 h -3.428571 v 3.4285715 h -3.428571 v 34.285713 h 3.428571 v 3.428571 h 3.428571 v 3.428571 h 34.285713 v -3.428571 h 3.428571 v -3.428571 h 3.428572 V 10.894573 h -3.428572 V 7.4660015 h -3.428571 V 4.0374302 Z m 6.857143,3.4285713 h 20.571428 v 3.4285715 h 3.428571 v 3.428571 h 3.428571 v 3.428571 h 3.428571 v 20.571428 h -3.428571 v 3.428572 h -3.428571 v 3.428571 h -3.428571 v 3.428571 h -20.571428 v -3.428571 h -3.428572 v -3.428571 h -3.428571 v -3.428572 h -3.428571 V 17.751715 h 3.428571 v -3.428571 h 3.428571 v -3.428571 h 3.428572 z"
       id="path7"
       style="stroke-width:1.14286" /><path
       fill="#0000aa"
       d="m -65.628818,45.180286 v -3.428571 h -3.428571 v -3.428572 h -3.428572 v -3.428571 h -3.428571 V 21.180287 h 3.428571 v -3.428572 h 3.428572 v -3.428571 h 3.428571 v -3.428571 h 13.714285 v 3.428571 h 3.428572 v 3.428571 h 3.428571 v 3.428572 h 3.428571 v 13.714285 h -3.428571 v 3.428571 h -3.428571 v 3.428572 h -3.428572 v 3.428571 z m 10.285714,-3.428571 V 24.608858 h 3.428571 v 3.428571 h 6.857143 v -3.428571 h -3.428571 v -3.428571 h -3.428572 v -3.428572 h -3.428571 v -3.428571 h -6.857143 v 3.428571 h -3.428571 v 3.428572 h -3.428571 v 3.428571 h -3.428572 v 3.428571 h 6.857143 v -3.428571 h 3.428571 v 17.142857 z"
       id="path8"
       style="stroke-width:1.14286" /><rect
       style="fill:#aa5500;fill-opacity:1;stroke-width:1.5"
       id="rect9"
       width="10.285713"
       height="10.285713"
       x="-82.771675"
       y="4.0374303"
       rx="0"
       ry="0" /><rect
       style="fill:#aa5500;fill-opacity:1;stroke-width:1.5"
       id="rect10"
       width="10.285713"
       height="10.285713"
       x="-45.057388"
       y="4.0374303"
       rx="0"
       ry="0" /></g></svg>
