<?xml version="1.0" encoding="UTF-8" standalone="no"?>
<svg
   xmlns:dc="http://purl.org/dc/elements/1.1/"
   xmlns:cc="http://creativecommons.org/ns#"
   xmlns:rdf="http://www.w3.org/1999/02/22-rdf-syntax-ns#"
   xmlns:svg="http://www.w3.org/2000/svg"
   xmlns="http://www.w3.org/2000/svg"
   xmlns:sodipodi="http://sodipodi.sourceforge.net/DTD/sodipodi-0.dtd"
   xmlns:inkscape="http://www.inkscape.org/namespaces/inkscape"
   width="64"
   height="64"
   version="1"
   id="svg30"
   sodipodi:docname="aafm.svg"
   inkscape:version="1.0.1 (3bc2e813f5, 2020-09-07)">
  <metadata
     id="metadata36">
    <rdf:RDF>
      <cc:Work
         rdf:about="">
        <dc:format>image/svg+xml</dc:format>
        <dc:type
           rdf:resource="http://purl.org/dc/dcmitype/StillImage" />
        <dc:title></dc:title>
      </cc:Work>
    </rdf:RDF>
  </metadata>
  <defs
     id="defs34">
    <linearGradient
       id="linearGradient1064"
       x1="-15.961"
       x2="-.30109"
       y1="-43.254"
       y2="-54.196"
       gradientTransform="matrix(3.779602,0,0,4.1575622,17.104331,279.05278)"
       gradientUnits="userSpaceOnUse">
      <stop
         stop-color="#ffc832"
         offset="0"
         id="stop841" />
      <stop
         stop-color="#ffdc6e"
         offset="1"
         id="stop843" />
    </linearGradient>
    <linearGradient
       id="linearGradient1142"
       x1="-59.707"
       x2="-24.213"
       y1="-182.27"
       y2="-182.27"
       gradientTransform="matrix(1.0000071,0,0,1.0000071,28.061398,263.97217)"
       gradientUnits="userSpaceOnUse">
      <stop
         stop-color="#1496ff"
         offset="0"
         id="stop846" />
      <stop
         stop-color="#0a78ff"
         offset="1"
         id="stop848" />
    </linearGradient>
    <linearGradient
       id="linearGradient1150"
       x1="-56.875"
       x2="-56.875"
       y1="-185.88"
       y2="-160.88"
       gradientUnits="userSpaceOnUse">
      <stop
         stop-color="#0a82ff"
         offset="0"
         id="stop851" />
      <stop
         stop-color="#0564c8"
         offset="1"
         id="stop853" />
    </linearGradient>
    <linearGradient
       id="linearGradient1164"
       x1="-27.625"
       x2="-27.625"
       y1="-188"
       y2="-160.75"
       gradientUnits="userSpaceOnUse">
      <stop
         stop-color="#004bb9"
         offset="0"
         id="stop856" />
      <stop
         stop-color="#0546b4"
         offset="1"
         id="stop858" />
    </linearGradient>
  </defs>
  <sodipodi:namedview
     pagecolor="#ffffff"
     bordercolor="#666666"
     borderopacity="1"
     objecttolerance="10"
     gridtolerance="10"
     guidetolerance="10"
     inkscape:pageopacity="0"
     inkscape:pageshadow="2"
     inkscape:window-width="1920"
     inkscape:window-height="946"
     id="namedview32"
     showgrid="false"
     inkscape:zoom="6.0859375"
     inkscape:cx="7.1199465"
     inkscape:cy="42.397423"
     inkscape:window-x="0"
     inkscape:window-y="38"
     inkscape:window-maximized="1"
     inkscape:current-layer="svg30"
     inkscape:document-rotation="0" />
  <path
     style="fill:none;stroke:#1ebb68;stroke-width:4.16667;stroke-linecap:round"
     d="M 49.899695,6.1273335 43.980499,14.683228"
     id="path6" />
  <path
     style="fill:none;stroke:#1ebb68;stroke-width:4.16667;stroke-linecap:round"
     d="m 14.100305,6.1273335 5.919196,8.5558945"
     id="path8" />
  <path
     style="fill:#1ebb68"
     d="M 57,32 V 55.8 C 57,58.1268 55.141667,60 52.833333,60 H 11.166667 C 8.8583331,60 6.9999998,58.1268 6.9999998,55.8 V 32 Z"
     id="path10" />
  <path
     style="fill:#30dd81"
     d="M 32,6.9999998 A 25,25 0 0 0 6.9999998,32 H 57 A 25,25 0 0 0 32,6.9999998 Z"
     id="path12" />
  <path
     style="opacity:0.2"
     d="M 21.5,21 A 3.5,3.5 0 0 0 18,24.5 3.5,3.5 0 0 0 21.5,28 3.5,3.5 0 0 0 25,24.5 3.5,3.5 0 0 0 21.5,21 Z m 21,0 A 3.5,3.5 0 0 0 39,24.5 3.5,3.5 0 0 0 42.5,28 3.5,3.5 0 0 0 46,24.5 3.5,3.5 0 0 0 42.5,21 Z"
     id="path14" />
  <circle
     style="fill:#ffffff"
     cx="21.5"
     cy="23.5"
     r="3.5"
     id="circle16" />
  <circle
     style="fill:#ffffff"
     cx="-42.5"
     cy="23.5"
     r="3.5"
     transform="scale(-1,1)"
     id="circle22" />
  <rect
     style="opacity:0.2"
     width="50"
     height="1"
     x="7"
     y="32"
     id="rect24" />
  <path
     style="opacity:0.2;fill:#ffffff"
     d="M 32,7 A 25,25 0 0 0 7,32 H 7.035156 A 25,25 0 0 1 32,8 25,25 0 0 1 56.949219,32 H 57 A 25,25 0 0 0 32,7 Z"
     id="path26" />
  <g
     id="g958"
     transform="matrix(0.33332488,0,0,0.33332488,36.632998,21.358749)">
    <path
       d="M -13.895964,65.698026 H -43.895799 V 50.573193 c 0,-1.518796 1.119291,-2.750001 2.49998,-2.750001 h 21.250056 l 6.24995,5.500077 z"
       fill="#ffe55e"
       stroke-width="2.62202"
       id="path865" />
    <g
       transform="matrix(3.779602,0,0,4.1575622,17.104331,279.05278)"
       stroke-width="0.66145"
       id="g871">
      <path
         d="m -8.2026,-51.317 h -7.9373 v -3.6379 c 0,-0.36531 0.29614,-0.66144 0.66144,-0.66144 h 5.6223 l 1.6536,1.3229 z"
         fill="#e19600"
         id="path867" />
      <path
         d="m -9.8562,-55.617 h -5.6223 c -0.36532,0 -0.66144,0.29612 -0.66144,0.66144 v 0.16536 c 0,-0.36532 0.29612,-0.66144 0.66144,-0.66144 h 5.6223 l 1.6536,1.3229 v -0.16536 z"
         fill="#ffffff"
         opacity="0.2"
         id="path869" />
    </g>
    <path
       d="m 13.60064,53.322097 h -27.500006 l -6.24995,5.500077 h -21.250056 c -1.380726,0 -2.49998,1.231205 -2.49998,2.750001 v 35.750121 c 0,1.518795 1.119291,2.750004 2.49998,2.750004 h 55.000768 c 1.380727,0 2.500018,-1.231209 2.500018,-2.750004 V 56.07172 c 0,-1.518795 -1.119291,-2.750001 -2.500018,-2.750001 z"
       fill="url(#linearGradient1064)"
       stroke-width="2.62202"
       id="path873"
       style="fill:url(#linearGradient1064)" />
    <path
       d="m 13.60064,99.385619 h -55.000768 c -1.380764,0 -2.49998,-1.231319 -2.49998,-2.750001 v 0.68751 c 0,1.518681 1.119216,2.750002 2.49998,2.750002 H 13.60064 c 1.380765,0 2.500018,-1.231321 2.500018,-2.750002 v -0.68751 c 0,1.518682 -1.119216,2.750001 -2.500018,2.750001 z"
       opacity="0.1"
       stroke-width="2.62202"
       id="path875" />
    <path
       d="m 13.60064,53.322097 h -27.500006 l -6.24995,5.500077 h -21.250056 c -1.380764,0 -2.49998,1.231168 -2.49998,2.750001 v 0.687509 c 0,-1.518833 1.119216,-2.75 2.49998,-2.75 h 21.250056 l 6.24995,-5.500077 H 13.60064 c 1.380765,0 2.500018,1.231167 2.500018,2.75 v -0.687509 c 0,-1.518833 -1.119216,-2.750001 -2.500018,-2.750001 z"
       fill="#ffffff"
       opacity="0.2"
       stroke-width="2.62202"
       id="path879" />
  </g>
</svg>
