<?xml version="1.0" encoding="UTF-8" standalone="no"?>
<svg
   width="64"
   height="64"
   version="1.1"
   viewBox="0 0 64 64"
   id="svg2"
   sodipodi:docname="abgx360gui.svg"
   inkscape:version="1.3.2 (091e20ef0f, 2023-11-25, custom)"
   xmlns:inkscape="http://www.inkscape.org/namespaces/inkscape"
   xmlns:sodipodi="http://sodipodi.sourceforge.net/DTD/sodipodi-0.dtd"
   xmlns="http://www.w3.org/2000/svg"
   xmlns:svg="http://www.w3.org/2000/svg"
   xmlns:rdf="http://www.w3.org/1999/02/22-rdf-syntax-ns#"
   xmlns:cc="http://creativecommons.org/ns#"
   xmlns:dc="http://purl.org/dc/elements/1.1/">
  <sodipodi:namedview
     id="namedview2"
     pagecolor="#ffffff"
     bordercolor="#000000"
     borderopacity="0.25"
     inkscape:showpageshadow="2"
     inkscape:pageopacity="0.0"
     inkscape:pagecheckerboard="0"
     inkscape:deskcolor="#d1d1d1"
     inkscape:zoom="5.84375"
     inkscape:cx="34.823529"
     inkscape:cy="29.433155"
     inkscape:window-width="1920"
     inkscape:window-height="955"
     inkscape:window-x="0"
     inkscape:window-y="34"
     inkscape:window-maximized="1"
     inkscape:current-layer="svg2" />
  <metadata
     id="metadata1">
    <rdf:RDF>
      <cc:Work
         rdf:about="">
        <dc:format>image/svg+xml</dc:format>
        <dc:type
           rdf:resource="http://purl.org/dc/dcmitype/StillImage" />
      </cc:Work>
    </rdf:RDF>
  </metadata>
  <defs
     id="defs2">
    <linearGradient
       id="linearGradient1448"
       x1="3.9687"
       x2="3.9687"
       y1="16.404"
       y2="2.6458"
       gradientTransform="matrix(3.4646,0,0,3.4646,11.92735,-19.53915)"
       gradientUnits="userSpaceOnUse">
      <stop
         stop-color="#144bb4"
         offset="0"
         id="stop1" />
      <stop
         stop-color="#00c8ff"
         offset="1"
         id="stop2" />
    </linearGradient>
    <linearGradient
       id="linearGradient1005"
       x1="0.73910999"
       x2="16.388"
       y1="16.296"
       y2="0.64687002"
       gradientTransform="matrix(3.7794886,0,0,3.7794886,-0.134234,0.0252392)"
       gradientUnits="userSpaceOnUse">
      <stop
         stop-color="#00a0ff"
         offset="0"
         id="stop1-6" />
      <stop
         stop-color="#37beff"
         offset="1"
         id="stop2-7" />
    </linearGradient>
    <filter
       id="filter917"
       x="-0.083994189"
       y="-0.08400579"
       width="1.1679884"
       height="1.1680116"
       color-interpolation-filters="sRGB">
      <feGaussianBlur
         stdDeviation="0.22223482"
         id="feGaussianBlur1" />
    </filter>
  </defs>
  <path
     d="m 61.99917,31.999697 c 0,3.596367 -0.63304,7.044423 -1.79391,10.240454 -0.80695,2.221159 -1.86852,4.321219 -3.15181,6.263556 -0.53754,0.816697 -1.11547,1.605349 -1.72898,2.363272 -1.96403,2.425673 -4.29816,4.53779 -6.91818,6.252218 -0.9649,0.631836 -1.96778,1.209813 -3.00607,1.727694 -4.03208,2.017854 -8.58348,3.152906 -13.40058,3.152906 -4.817103,0 -9.3685,-1.135052 -13.400579,-3.152982 -1.03837,-0.517994 -2.042459,-1.095933 -3.007354,-1.727694 C 12.938237,55.381563 10.576175,53.235958 8.59642,50.770146 7.981781,50.006061 7.404976,49.210153 6.867441,48.386124 5.618433,46.475989 4.583805,44.414896 3.792848,42.236712 2.632132,39.041965 2.00022,35.595195 2.00022,32.000038 c 0,-16.568642 13.431194,-29.9998352 29.99984,-29.9998352 8.31701,0 15.84258,3.3844446 21.27689,8.8503162 1.56604,1.574582 2.95837,3.323291 4.1432,5.213583 1.12042,1.780419 2.05708,3.688098 2.78564,5.695104 1.16102,3.195918 1.79399,6.644162 1.79399,10.240454 z"
     fill="url(#linearGradient1005)"
     stroke-width="0.11719"
     id="path2-5"
     style="fill:url(#linearGradient1005)" />
  <path
     d="m32 14.5c-9.6716 0-17.497 7.8197-17.497 17.474 0 9.6541 7.8256 17.526 17.497 17.526 9.6716 0 17.497-7.8665 17.497-17.526 0-9.6541-7.8256-17.474-17.497-17.474zm9.5403 7.2512c4.1977 1.2698 5.2971 7.2787 2.0442 9.6204l2.6376 9.9735-3.6567 0.89945-2.6085-9.8988c-4.6426-1.1447-5.7071-5.1952-2.9307-9.3406l2.9789 5.5305 1.7322-0.51316m-9.74 0.74658c1.7935 0 3.212 1.4288 3.212 3.2064 0 1.7773-1.4244 3.2514-3.212 3.2514-1.7835 0-3.2007-1.4754-3.2007-3.2514a3.1938 3.1938 0 0 1 3.2007-3.2064z"
     fill="#fff"
     stroke-width=".25735"
     style="isolation:isolate"
     id="path2" />
</svg>
