<?xml version="1.0" encoding="UTF-8" standalone="no"?>
<svg
   width="64"
   height="64"
   viewBox="0 0 16.933333 16.933334"
   version="1.1"
   id="svg8"
   inkscape:version="1.3.2 (091e20ef0f, 2023-11-25, custom)"
   sodipodi:docname="about.svg"
   xmlns:inkscape="http://www.inkscape.org/namespaces/inkscape"
   xmlns:sodipodi="http://sodipodi.sourceforge.net/DTD/sodipodi-0.dtd"
   xmlns="http://www.w3.org/2000/svg"
   xmlns:svg="http://www.w3.org/2000/svg"
   xmlns:rdf="http://www.w3.org/1999/02/22-rdf-syntax-ns#"
   xmlns:cc="http://creativecommons.org/ns#"
   xmlns:dc="http://purl.org/dc/elements/1.1/">
  <defs
     id="defs2">
    <linearGradient
       id="linearGradient862-3"
       x1="7.9373002"
       x2="7.9373002"
       y1="15.081"
       y2="1.852"
       gradientTransform="matrix(3.7796,0,0,3.7796,-6.9952011e-4,-0.82721169)"
       gradientUnits="userSpaceOnUse">
      <stop
         stop-color="#8811a2"
         offset="0"
         id="stop833" />
      <stop
         stop-color="#da50d5"
         offset="1"
         id="stop835" />
    </linearGradient>
    <linearGradient
       id="linearGradient1005-3"
       x1="0.92150003"
       x2="16.136999"
       y1="16.113001"
       y2="0.89806998"
       gradientTransform="matrix(0.9999927,0,0,0.9999927,-0.03505133,263.14003)"
       gradientUnits="userSpaceOnUse">
      <stop
         stop-color="#a53cff"
         offset="0"
         id="stop4" />
      <stop
         stop-color="#b496ff"
         offset="1"
         id="stop6" />
    </linearGradient>
  </defs>
  <sodipodi:namedview
     id="base"
     pagecolor="#ffffff"
     bordercolor="#666666"
     borderopacity="1.0"
     inkscape:pageopacity="0.0"
     inkscape:pageshadow="2"
     inkscape:zoom="5.6"
     inkscape:cx="17.053571"
     inkscape:cy="17.857143"
     inkscape:document-units="mm"
     inkscape:current-layer="layer1"
     showgrid="false"
     inkscape:window-width="1920"
     inkscape:window-height="955"
     inkscape:window-x="0"
     inkscape:window-y="34"
     inkscape:window-maximized="1"
     units="px"
     inkscape:document-rotation="0"
     inkscape:showpageshadow="2"
     inkscape:pagecheckerboard="0"
     inkscape:deskcolor="#d1d1d1" />
  <metadata
     id="metadata5">
    <rdf:RDF>
      <cc:Work
         rdf:about="">
        <dc:format>image/svg+xml</dc:format>
        <dc:type
           rdf:resource="http://purl.org/dc/dcmitype/StillImage" />
        <dc:title />
      </cc:Work>
    </rdf:RDF>
  </metadata>
  <g
     inkscape:label="Layer 1"
     inkscape:groupmode="layer"
     id="layer1"
     transform="translate(0,-263.13332)">
    <path
       d="m 16.40418,271.60003 c 0,0.95154 -0.167489,1.86383 -0.474636,2.70933 -0.213502,0.58769 -0.494374,1.14329 -0.833913,1.65722 -0.142224,0.21608 -0.295143,0.42476 -0.457465,0.62529 -0.519642,0.6418 -1.137179,1.20068 -1.830467,1.65428 -0.255296,0.16717 -0.520647,0.32009 -0.795364,0.45712 -1.0668,0.53387 -2.2710773,0.8342 -3.5456813,0.8342 -1.274524,0 -2.478802,-0.30033 -3.545681,-0.83423 -0.274743,-0.13705 -0.540412,-0.28996 -0.795708,-0.45712 -0.702072,-0.45971 -1.326991,-1.02738 -1.850866,-1.67981 -0.162624,-0.20216 -0.315225,-0.41275 -0.457465,-0.63077 -0.330464,-0.50538 -0.604202,-1.05069 -0.813488,-1.627 -0.30710203,-0.84529 -0.47429203,-1.75726 -0.47429203,-2.70854 0,-4.38388 3.55361903,-7.9375 7.93750003,-7.9375 2.2004873,0 4.1915293,0.89548 5.6295403,2.34167 0.414364,0.41661 0.782743,0.87929 1.096274,1.37946 0.296439,0.47106 0.544275,0.97581 0.73705,1.50677 0.307181,0.84558 0.474662,1.75792 0.474662,2.70934 z"
       fill="url(#linearGradient1005)"
       stroke-width="0.0310065"
       id="path550"
       style="fill:url(#linearGradient1005-3)" />
    <path
       id="path875"
       style="fill:#ffffff;fill-opacity:1;stroke:none;stroke-width:0.441723;stroke-opacity:1"
       d="m 9.3067364,266.96962 c -0.1567475,0 -0.2047969,0.007 -0.3156171,0.0434 -0.3185307,0.10563 -0.571302,0.3619 -0.6757897,0.68515 -0.035992,0.11134 -0.042534,0.16037 -0.042534,0.31887 0,0.15878 0.00652,0.20741 0.042816,0.31967 0.1211031,0.37474 0.4370889,0.65122 0.8264621,0.72313 0.1237072,0.0228 0.3401032,0.005 0.4816444,-0.0408 0.3125324,-0.10001 0.5702469,-0.36089 0.6741419,-0.68238 0.03628,-0.11226 0.04281,-0.16089 0.04281,-0.31968 0,-0.15878 -0.0065,-0.20746 -0.04281,-0.31972 -0.104278,-0.32267 -0.3572554,-0.57873 -0.676355,-0.68458 -0.1099125,-0.0364 -0.1583045,-0.0431 -0.3147693,-0.0431 z m -0.3516957,2.59672 c -0.02524,4.1e-4 -0.05177,10e-4 -0.079834,0.003 -0.6740988,0.0353 -1.2852308,0.35487 -1.7170752,0.89766 -0.2402119,0.30193 -0.4390953,0.64016 -0.51923,0.88307 -0.074911,0.22708 -0.058141,0.38493 0.045498,0.42841 0.083894,0.0352 0.1438169,-0.0122 0.3001209,-0.23747 0.2793043,-0.40249 0.366973,-0.51857 0.4880969,-0.64612 0.1555023,-0.16375 0.3276924,-0.28761 0.4165524,-0.29968 0.083903,-0.0114 0.1062657,0.0194 0.094906,0.13092 -0.0097,0.0952 -0.016322,0.11629 -0.6860111,2.185 -0.2580716,0.7972 -0.4871092,1.51906 -0.5090089,1.60415 -0.102993,0.40019 -0.1362322,0.86249 -0.080777,1.12373 0.1029642,0.48504 0.4500561,0.67323 1.0309704,0.55896 0.5219302,-0.10268 1.0588162,-0.46682 1.5075284,-1.02244 0.3474334,-0.43022 0.5746162,-0.85238 0.6226615,-1.15703 0.029958,-0.18996 -0.01986,-0.2838 -0.1386152,-0.26123 -0.091791,0.0174 -0.1837664,0.12908 -0.5373163,0.65214 -0.3055467,0.45204 -0.4021921,0.55393 -0.5147086,0.54268 -0.089807,-0.009 -0.120153,-0.0709 -0.116996,-0.23861 0.00216,-0.11421 0.016684,-0.18997 0.075925,-0.3962 0.1391947,-0.4846 0.3353258,-1.09946 0.5836624,-1.8296 0.3710103,-1.09081 0.4014759,-1.18705 0.4457538,-1.40871 0.1488848,-0.74537 0.042366,-1.24108 -0.3071386,-1.42895 -0.1158506,-0.0623 -0.2282776,-0.0863 -0.4049657,-0.0835 z"
       inkscape:connector-curvature="0" />
  </g>
</svg>
