<?xml version="1.0" encoding="UTF-8" standalone="no"?>
<svg
   xmlns:dc="http://purl.org/dc/elements/1.1/"
   xmlns:cc="http://creativecommons.org/ns#"
   xmlns:rdf="http://www.w3.org/1999/02/22-rdf-syntax-ns#"
   xmlns:svg="http://www.w3.org/2000/svg"
   xmlns="http://www.w3.org/2000/svg"
   xmlns:sodipodi="http://sodipodi.sourceforge.net/DTD/sodipodi-0.dtd"
   xmlns:inkscape="http://www.inkscape.org/namespaces/inkscape"
   width="64"
   height="64"
   version="1.1"
   id="svg22"
   sodipodi:docname="acreloaded.svg"
   inkscape:version="1.0.1 (3bc2e813f5, 2020-09-07)">
  <metadata
     id="metadata28">
    <rdf:RDF>
      <cc:Work
         rdf:about="">
        <dc:format>image/svg+xml</dc:format>
        <dc:type
           rdf:resource="http://purl.org/dc/dcmitype/StillImage" />
        <dc:title></dc:title>
      </cc:Work>
    </rdf:RDF>
  </metadata>
  <defs
     id="defs26" />
  <sodipodi:namedview
     pagecolor="#ffffff"
     bordercolor="#666666"
     borderopacity="1"
     objecttolerance="10"
     gridtolerance="10"
     guidetolerance="10"
     inkscape:pageopacity="0"
     inkscape:pageshadow="2"
     inkscape:window-width="1920"
     inkscape:window-height="935"
     id="namedview24"
     showgrid="false"
     inkscape:zoom="6.0546875"
     inkscape:cx="43.288776"
     inkscape:cy="35.55966"
     inkscape:window-x="0"
     inkscape:window-y="38"
     inkscape:window-maximized="1"
     inkscape:current-layer="svg22" />
  <g
     id="g858"
     transform="matrix(0.91666662,0,0,0.91666662,2.6666682,3.5833359)">
    <path
       style="fill:#d2323a"
       d="M 32.135324,1.0016025 A 5.8229297,5.7698843 0 0 0 29.087689,1.7723461 L 7.9111743,13.887891 a 5.8229297,5.7698843 0 0 0 -2.9111736,4.996311 v 24.23109 a 5.8229297,5.7698843 0 0 0 2.9111736,4.99631 L 29.087689,60.227149 a 5.8229297,5.7698843 0 0 0 5.822347,0 L 56.088823,48.111602 a 5.8229297,5.7698843 0 0 0 2.911176,-4.99631 V 18.884202 A 5.8229297,5.7698843 0 0 0 56.088823,13.887891 L 34.910036,1.7723461 A 5.8229297,5.7698843 0 0 0 32.135324,1.0016025 Z"
       id="path4" />
    <path
       style="opacity:0.3;fill:#ffffff"
       d="M 32.135999,1.0027875 A 5.8229297,5.7698843 0 0 0 29.088508,1.7728768 L 7.9114935,13.887832 A 5.8229297,5.7698843 0 0 0 5.44408,16.694753 L 32,29.571427 58.558695,16.691963 A 5.8229297,5.7698843 0 0 0 56.088507,13.887832 L 34.908717,1.7728768 A 5.8229297,5.7698843 0 0 0 32.135999,1.0027875 Z"
       id="path6" />
    <path
       style="opacity:0.15;fill:#ffffff"
       d="m 56.088507,13.887832 a 5.8229297,5.7698843 0 0 1 0.271997,0.167411 5.8229297,5.7698843 0 0 0 -0.271997,-0.167411 z m 0.349712,0.223215 a 5.8229297,5.7698843 0 0 1 0.385793,0.279018 5.8229297,5.7698843 0 0 0 -0.385793,-0.279018 z m 0.541221,0.412947 a 5.8229297,5.7698843 0 0 1 0.280325,0.251116 5.8229297,5.7698843 0 0 0 -0.280325,-0.251116 z m 0.369141,0.343191 a 5.8229297,5.7698843 0 0 1 0.316405,0.345983 5.8229297,5.7698843 0 0 0 -0.316405,-0.345983 z m 0.316405,0.345983 a 5.8229297,5.7698843 0 0 1 0.643916,0.95145 5.8229297,5.7698843 0 0 0 -0.643916,-0.95145 z m 0.666119,0.998885 a 5.8229297,5.7698843 0 0 1 0.22759,0.47991 5.8229297,5.7698843 0 0 0 -0.22759,-0.47991 z m 0.22759,0.47991 L 32,29.571427 V 60.99442 a 5.8229297,5.7698843 0 0 0 2.908717,-0.767299 l 21.17979,-12.114955 a 5.8229297,5.7698843 0 0 0 2.911492,-4.997211 V 18.885043 a 5.8229297,5.7698843 0 0 0 -0.441304,-2.19308 z"
       id="path8" />
    <path
       style="opacity:0.2;fill:#ffffff"
       d="M 32.134766,1.0019531 A 5.8229297,5.7698843 0 0 0 29.087891,1.7714844 L 7.9121094,13.888672 A 5.8229297,5.7698843 0 0 0 5,18.884766 v 1 A 5.8229297,5.7698843 0 0 1 7.9121094,14.888672 L 29.087891,2.7714844 a 5.8229297,5.7698843 0 0 1 3.046875,-0.7695313 5.8229297,5.7698843 0 0 1 2.77539,0.7695313 L 56.087891,14.888672 A 5.8229297,5.7698843 0 0 1 59,19.884766 v -1 A 5.8229297,5.7698843 0 0 0 56.087891,13.888672 L 34.910156,1.7714844 a 5.8229297,5.7698843 0 0 0 -2.77539,-0.7695313 z"
       id="path18" />
    <path
       style="opacity:0.1"
       d="M 5.8535156,16.892578 A 5.8229297,5.7698843 0 0 0 5.4433594,17.693359 L 32,30.570312 58.558594,17.691406 A 5.8229297,5.7698843 0 0 0 58.142578,16.892578 L 32,29.570312 Z"
       id="path20" />
  </g>
  <g
     id="g863"
     transform="matrix(0.89285714,0,0,0.89285714,3.75,4.4480756)">
    <rect
       style="fill:#89b736"
       width="28"
       height="28"
       x="35"
       y="35"
       rx="2.8"
       ry="2.8"
       id="rect12" />
    <rect
       style="fill:#ffffff"
       width="6"
       height="20"
       x="46"
       y="39"
       id="rect14" />
    <rect
       style="fill:#ffffff"
       width="6"
       height="20"
       x="46"
       y="-59"
       transform="rotate(90)"
       id="rect16" />
  </g>
</svg>
