<?xml version="1.0" encoding="UTF-8" standalone="no"?>
<svg
   xmlns:dc="http://purl.org/dc/elements/1.1/"
   xmlns:cc="http://creativecommons.org/ns#"
   xmlns:rdf="http://www.w3.org/1999/02/22-rdf-syntax-ns#"
   xmlns:svg="http://www.w3.org/2000/svg"
   xmlns="http://www.w3.org/2000/svg"
   xmlns:xlink="http://www.w3.org/1999/xlink"
   xmlns:sodipodi="http://sodipodi.sourceforge.net/DTD/sodipodi-0.dtd"
   xmlns:inkscape="http://www.inkscape.org/namespaces/inkscape"
   width="64"
   height="64"
   version="1.1"
   viewBox="0 0 16.933 16.933"
   id="svg57"
   sodipodi:docname="addressbook.svg"
   inkscape:version="1.0.1 (3bc2e813f5, 2020-09-07)">
  <sodipodi:namedview
     pagecolor="#ffffff"
     bordercolor="#666666"
     borderopacity="1"
     objecttolerance="10"
     gridtolerance="10"
     guidetolerance="10"
     inkscape:pageopacity="0"
     inkscape:pageshadow="2"
     inkscape:window-width="1920"
     inkscape:window-height="935"
     id="namedview59"
     showgrid="false"
     inkscape:zoom="6.0546875"
     inkscape:cx="16.109124"
     inkscape:cy="39.328943"
     inkscape:window-x="0"
     inkscape:window-y="38"
     inkscape:window-maximized="1"
     inkscape:current-layer="svg57" />
  <defs
     id="defs23">
    <linearGradient
       id="linearGradient1124">
      <stop
         stop-color="#2864b4"
         offset="0"
         id="stop2" />
      <stop
         stop-color="#0a4682"
         offset="1"
         id="stop4" />
    </linearGradient>
    <linearGradient
       id="linearGradient1116">
      <stop
         stop-color="#28a0f5"
         offset="0"
         id="stop7" />
      <stop
         stop-color="#057ddc"
         offset="1"
         id="stop9" />
    </linearGradient>
    <linearGradient
       id="linearGradient1108">
      <stop
         stop-color="#50d2ff"
         offset="0"
         id="stop12" />
      <stop
         stop-color="#19a0e6"
         offset="1"
         id="stop14" />
    </linearGradient>
    <linearGradient
       id="linearGradient1110"
       x1="-86.517"
       x2="-86.517"
       y1="3.4395"
       y2="17.991"
       gradientUnits="userSpaceOnUse"
       xlink:href="#linearGradient1108" />
    <linearGradient
       id="linearGradient1118"
       x1="-86.411"
       x2="-86.411"
       y1="3.4395"
       y2="17.991"
       gradientUnits="userSpaceOnUse"
       xlink:href="#linearGradient1116" />
    <linearGradient
       id="linearGradient1126"
       x1="-86.411"
       x2="-86.411"
       y1="3.4395"
       y2="17.991"
       gradientUnits="userSpaceOnUse"
       xlink:href="#linearGradient1124" />
    <filter
       id="filter1170"
       x="-.092129"
       y="-.077189"
       width="1.1843"
       height="1.1544"
       color-interpolation-filters="sRGB">
      <feGaussianBlur
         stdDeviation="0.31484797"
         id="feGaussianBlur20" />
    </filter>
    <linearGradient
       inkscape:collect="always"
       xlink:href="#linearGradient1116"
       id="linearGradient897"
       gradientUnits="userSpaceOnUse"
       x1="-86.411"
       y1="3.4395"
       x2="-86.411"
       y2="17.991" />
    <linearGradient
       inkscape:collect="always"
       xlink:href="#linearGradient1116"
       id="linearGradient899"
       gradientUnits="userSpaceOnUse"
       x1="-86.411"
       y1="3.4395"
       x2="-86.411"
       y2="17.991" />
    <linearGradient
       inkscape:collect="always"
       xlink:href="#linearGradient1124"
       id="linearGradient901"
       gradientUnits="userSpaceOnUse"
       x1="-86.411"
       y1="3.4395"
       x2="-86.411"
       y2="17.991" />
    <linearGradient
       inkscape:collect="always"
       xlink:href="#linearGradient1124"
       id="linearGradient903"
       gradientUnits="userSpaceOnUse"
       x1="-86.411"
       y1="3.4395"
       x2="-86.411"
       y2="17.991" />
    <linearGradient
       inkscape:collect="always"
       xlink:href="#linearGradient1108"
       id="linearGradient905"
       gradientUnits="userSpaceOnUse"
       x1="-86.517"
       y1="3.4395"
       x2="-86.517"
       y2="17.991" />
  </defs>
  <metadata
     id="metadata25">
    <rdf:RDF>
      <cc:Work
         rdf:about="">
        <dc:format>image/svg+xml</dc:format>
        <dc:type
           rdf:resource="http://purl.org/dc/dcmitype/StillImage" />
        <dc:title></dc:title>
      </cc:Work>
    </rdf:RDF>
  </metadata>
  <g
     transform="translate(-14.709)"
     fill="#5e4aa6"
     stroke-width=".26458"
     id="g33">
    <circle
       cx="-322.63"
       cy="-345.67"
       r="0"
       id="circle27" />
    <circle
       cx="-31.726"
       cy="-10.849"
       r="0"
       fill-rule="evenodd"
       id="circle29" />
    <circle
       cx="-306.92"
       cy="-328.72"
       r="0"
       id="circle31" />
  </g>
  <g
     id="g895"
     transform="matrix(0.91665351,0,0,0.91665351,0.70620877,0.70550444)">
    <g
       transform="matrix(0.86728,0,0,0.86728,80.901,-0.98578)"
       id="g55">
      <g
         transform="matrix(0.90909,0,0,0.90909,-10.412,1.6356)"
         fill="url(#linearGradient1118)"
         id="g39"
         style="fill:url(#linearGradient1118)">
        <path
           d="m -90.486,12.303 v 5.1593 c 0,0.14658 0.05886,0.279 0.15451,0.37465 0.09565,0.09565 0.22807,0.15451 0.37465,0.15451 h 7.1436 c 0.14658,0 0.279,-0.05886 0.37465,-0.15451 0.09565,-0.09565 0.15451,-0.22807 0.15451,-0.37465 V 12.303 c 0,-2.2719 -1.829,-4.101 -4.101,-4.101 -2.272,0 -4.101,1.829 -4.101,4.101 z"
           id="path35"
           style="fill:url(#linearGradient897)" />
        <circle
           cx="-86.385002"
           cy="5.5560999"
           r="2.1166"
           id="circle37"
           style="fill:url(#linearGradient899)" />
      </g>
      <g
         transform="matrix(0.90909,0,0,0.90909,0.4359,1.6356)"
         fill="url(#linearGradient1126)"
         id="g45"
         style="fill:url(#linearGradient1126)">
        <path
           d="m -90.486,12.303 v 5.1593 c 0,0.14658 0.05886,0.279 0.15451,0.37465 0.09565,0.09565 0.22807,0.15451 0.37465,0.15451 h 7.1436 c 0.14658,0 0.279,-0.05886 0.37465,-0.15451 0.09565,-0.09565 0.15451,-0.22807 0.15451,-0.37465 V 12.303 c 0,-2.2719 -1.829,-4.101 -4.101,-4.101 -2.272,0 -4.101,1.829 -4.101,4.101 z"
           id="path41"
           style="fill:url(#linearGradient901)" />
        <circle
           cx="-86.385002"
           cy="5.5560999"
           r="2.1166"
           id="circle43"
           style="fill:url(#linearGradient903)" />
      </g>
      <g
         transform="translate(2.8652)"
         id="g53">
        <path
           transform="matrix(1.0027,0,0,0.89743,0.23423,1.534)"
           d="m -90.486,12.303 v 5.1593 c 0,0.14658 0.05886,0.279 0.15451,0.37465 0.09565,0.09565 0.22807,0.15451 0.37465,0.15451 h 7.1436 c 0.14658,0 0.279,-0.05886 0.37465,-0.15451 0.09565,-0.09565 0.15451,-0.22807 0.15451,-0.37465 V 12.303 c 0,-2.2719 -1.829,-4.101 -4.101,-4.101 -2.272,0 -4.101,1.829 -4.101,4.101 z"
           filter="url(#filter1170)"
           opacity="0.6"
           id="path47" />
        <path
           d="m -90.486,12.303 v 5.1593 c 0,0.14658 0.05886,0.279 0.15451,0.37465 0.09565,0.09565 0.22807,0.15451 0.37465,0.15451 h 7.1436 c 0.14658,0 0.279,-0.05886 0.37465,-0.15451 0.09565,-0.09565 0.15451,-0.22807 0.15451,-0.37465 V 12.303 c 0,-2.2719 -1.829,-4.101 -4.101,-4.101 -2.272,0 -4.101,1.829 -4.101,4.101 z"
           fill="url(#linearGradient1110)"
           id="path49"
           style="fill:url(#linearGradient905)" />
        <circle
           cx="-86.385002"
           cy="5.5560999"
           r="2.1166"
           fill="url(#linearGradient1110)"
           id="circle51"
           style="fill:url(#linearGradient1110)" />
      </g>
    </g>
  </g>
</svg>
