<?xml version="1.0" encoding="UTF-8" standalone="no"?>
<svg
   xmlns:dc="http://purl.org/dc/elements/1.1/"
   xmlns:cc="http://creativecommons.org/ns#"
   xmlns:rdf="http://www.w3.org/1999/02/22-rdf-syntax-ns#"
   xmlns:svg="http://www.w3.org/2000/svg"
   xmlns="http://www.w3.org/2000/svg"
   xmlns:sodipodi="http://sodipodi.sourceforge.net/DTD/sodipodi-0.dtd"
   xmlns:inkscape="http://www.inkscape.org/namespaces/inkscape"
   width="64"
   height="64"
   version="1.1"
   id="svg16"
   sodipodi:docname="adventure-capitalist.svg"
   inkscape:version="1.0.1 (3bc2e813f5, 2020-09-07)">
  <metadata
     id="metadata22">
    <rdf:RDF>
      <cc:Work
         rdf:about="">
        <dc:format>image/svg+xml</dc:format>
        <dc:type
           rdf:resource="http://purl.org/dc/dcmitype/StillImage" />
        <dc:title></dc:title>
      </cc:Work>
    </rdf:RDF>
  </metadata>
  <defs
     id="defs20" />
  <sodipodi:namedview
     pagecolor="#ffffff"
     bordercolor="#666666"
     borderopacity="1"
     objecttolerance="10"
     gridtolerance="10"
     guidetolerance="10"
     inkscape:pageopacity="0"
     inkscape:pageshadow="2"
     inkscape:window-width="1920"
     inkscape:window-height="935"
     id="namedview18"
     showgrid="false"
     inkscape:zoom="4.2813106"
     inkscape:cx="-6.192844"
     inkscape:cy="60.275183"
     inkscape:window-x="0"
     inkscape:window-y="38"
     inkscape:window-maximized="1"
     inkscape:current-layer="svg16" />
  <g
     id="g852"
     transform="matrix(0.94886043,0,0,0.94886043,1.6364662,1.6536836)">
    <path
       style="fill:none;stroke:#ff990f;stroke-width:11;stroke-linecap:round;stroke-linejoin:round"
       d="m 32.039336,31.5 6.904762,-0.04119 c 0,0 12.555902,-1.00643 12.555902,10.041189 0,9.007688 -12.555902,8 -12.555902,8 H 18.15114 m 13.809524,-18 -6.904762,0.04119 c 0,0 -12.555902,0.625479 -12.555902,-9.041188 0,-9.666667 12.555902,-9 12.555902,-9 L 45.5,13.5"
       id="path6" />
    <path
       style="opacity:0.1;fill:#ffffff"
       d="M 24.662109,7.984375 C 23.345492,7.968826 20.304207,8.072705 17.044922,9.1542969 14.872065,9.8753578 12.422794,11.077287 10.388672,13.318359 8.3545499,15.559435 7,18.892687 7,22.5 c 0,0.160605 0.016173,0.317123 0.021484,0.476562 0.1144056,-3.421081 1.4239994,-6.562234 3.367188,-8.703124 2.034122,-2.241073 4.483393,-3.443002 6.65625,-4.164063 3.983571,-1.3219448 7.492389,-1.1865196 8.074219,-1.1542969 H 45.5 A 5.50055,5.50055 0 0 1 51.052734,14.005859 5.50055,5.50055 0 0 0 45.5,8 H 25.119141 C 25.013353,7.99414 24.954691,7.98783 24.662109,7.984375 Z M 18.025391,22.978516 C 18.01487,23.127133 18,23.25929 18,23.455078 c 0,1.226021 0.214766,1.442428 0.539062,1.800781 0.324297,0.358354 1.018426,0.804541 1.986329,1.128907 1.935796,0.64874 4.257812,0.61914 4.257812,0.61914 a 5.50055,5.50055 0 0 1 0.240235,-0.0078 l 6.904296,-0.04102 a 5.50055,5.50055 0 0 1 0.05664,0 5.50055,5.50055 0 0 1 0.02148,0 l 6.791016,-0.04102 c 0.721979,-0.05549 4.266133,-0.243547 8.287109,1.203126 2.241437,0.806426 4.758757,2.205209 6.734375,4.654296 1.882455,2.333596 3.0527,5.562801 3.160157,9.152344 C 56.983242,41.782124 57,41.642474 57,41.5 c 0,-3.80372 -1.206022,-7.234506 -3.181641,-9.683594 -1.975618,-2.449087 -4.492938,-3.84787 -6.734375,-4.654297 -4.020976,-1.446672 -7.56513,-1.25861 -8.287109,-1.203125 L 32.005859,26 a 5.50055,5.50055 0 0 0 -0.02148,0 5.50055,5.50055 0 0 0 -0.05664,0 l -6.904296,0.04102 a 5.50055,5.50055 0 0 0 -0.240235,0.0078 c 0,0 -2.322016,0.0296 -4.257812,-0.61914 -0.967903,-0.324364 -1.662032,-0.770553 -1.986329,-1.128907 -0.272431,-0.301042 -0.458224,-0.538863 -0.513671,-1.322265 z m 27.953125,19.089843 c -0.04123,0.389332 -0.14367,0.406129 -0.322266,0.583985 -0.241295,0.240294 -0.928606,0.654424 -1.910156,0.927734 -1.963101,0.54662 -4.361328,0.4375 -4.361328,0.4375 A 5.50055,5.50055 0 0 0 38.943359,44 H 18.150391 a 5.50055,5.50055 0 0 0 -5.552735,5.949219 5.50055,5.50055 0 0 1 5.552735,-4.994141 h 20.792968 a 5.50055,5.50055 0 0 1 0.441407,0.01758 c 0,0 2.398227,0.10912 4.361328,-0.4375 0.98155,-0.27331 1.668861,-0.68744 1.910156,-0.927734 C 45.897545,43.367127 46,43.42925 46,42.455078 46,42.303048 45.98396,42.2034 45.97852,42.068359 Z"
       id="path8" />
    <path
       style="fill:#ffd56a;fill-rule:evenodd"
       d="M 31.462891,3 A 2.5,2.4971915 0 0 0 29,5.5332031 V 26 h 5 V 5.5332031 A 2.5,2.4971915 0 0 0 31.462891,3 Z M 29,37 v 21.466797 a 2.5,2.4971915 0 1 0 5,0 V 37 Z"
       id="path10" />
    <path
       style="opacity:0.2;fill:#ffffff;fill-rule:evenodd"
       d="M 31.462891,3 A 2.5,2.4971915 0 0 0 29,5.5332031 v 1 A 2.5,2.4971915 0 0 1 31.462891,4 2.5,2.4971915 0 0 1 34,6.5332031 v -1 A 2.5,2.4971915 0 0 0 31.462891,3 Z"
       id="path12" />
    <rect
       style="opacity:0.2"
       width="5"
       height="1"
       x="29"
       y="37"
       id="rect14" />
  </g>
</svg>
