<?xml version="1.0" encoding="UTF-8"?>
<svg width="64" height="64" version="1.1" xmlns="http://www.w3.org/2000/svg" xmlns:cc="http://creativecommons.org/ns#" xmlns:dc="http://purl.org/dc/elements/1.1/" xmlns:rdf="http://www.w3.org/1999/02/22-rdf-syntax-ns#">
 <metadata>
  <rdf:RDF>
   <cc:Work rdf:about="">
    <dc:format>image/svg+xml</dc:format>
    <dc:type rdf:resource="http://purl.org/dc/dcmitype/StillImage"/>
    <dc:title/>
   </cc:Work>
  </rdf:RDF>
 </metadata>
 <g stroke-width="1.0714">
  <circle cx="32" cy="32" r="30" fill="#1940ae"/>
  <path d="m30.584 52.073c-1.6668-3.0893-1.7323-4.8038-0.27668-7.2477l0.82603-1.3868-1.7955-1.4571c-2.7588-2.2388-3.6746-2.8216-3.6746-4.9194 0-1.7252 0.9685-3.9439 1.7216-3.9439 0.1806 0 0.32835-0.19624 0.32835-0.4361 0-0.23986-0.88403-0.595-1.9645-0.78921-2.4748-0.44482-3.8168-1.4259-3.8384-2.8059-0.01457-0.92077 1.3398-1.9927 3.9914-3.1595 2.0435-0.89923 2.7889-1.4222 2.4577-1.7243-0.26145-0.23852-0.97503-0.30175-1.5857-0.14051-0.63905 0.16873-1.1104 0.08696-1.1104-0.1926 0-0.26716-0.73029-0.49304-1.6229-0.50196-3.0196-0.03015-3.5436-0.08672-3.9211-0.42328-0.20715-0.18469-0.82893-0.38713-1.3817-0.44987-0.55282-0.06274-1.2328-0.44261-1.5112-0.84415-0.44699-0.64485-0.31311-0.7709 1.1467-1.0797 2.23-0.47172 4.3782-2.7491 5.9399-4.7845 2.7837-3.6281 3.6385-3.8765 4.324-1.2563 0.33405 1.2768 1.7197 2.6818 2.1205 2.1503 0.07719-0.10232-0.14218-0.9428-0.48744-1.8677-0.59366-1.5903-0.59622-1.7511-0.04701-2.9603 0.69818-1.5373 2.229-1.7251 3.0745-0.37727 0.72221 1.1513 0.71955 2.472-0.0073 3.6307-0.87729 1.3985-0.08494 2.2876 1.0677 1.1981 0.47943-0.45319 0.87169-1.0407 0.87169-1.3055 0-0.26484 0.31101-0.93022 0.69114-1.4786 0.83027-1.1978 1.3996-0.87484 3.7504 2.1273 1.8166 2.3201 3.6463 4.4187 5.939 4.8874 1.4978 0.30624 1.6149 0.41822 1.1454 1.0956-0.28762 0.41494-0.9615 0.8049-1.4975 0.86656-0.536 0.06165-1.2439 0.28257-1.5732 0.49091-0.32926 0.20833-0.97326 0.24317-1.4311 0.07738-0.45784-0.16579-0.93451-0.06315-1.0593 0.22807-0.13813 0.32244-0.73381 0.40592-1.5233 0.21347-0.80437-0.19605-1.3848-0.10997-1.529 0.22679-0.13963 0.32588-0.68412 0.42058-1.3626 0.23696-0.6487-0.17556-1.2235-0.08766-1.3495 0.2064-0.13194 0.30798 0.77199 0.9324 2.2671 1.566 2.9913 1.2678 4.0239 2.1485 4.0239 3.4321 0 1.3407-1.2191 2.3453-3.3312 2.745-0.98653 0.18666-1.7937 0.44791-1.7937 0.58052 0 0.13262 0.46123 0.99896 1.025 1.9252 1.1163 1.8342 1.2331 2.6272 0.6291 4.2699-0.45886 1.2479-1.1152 1.1276-3.6194 3.2054l-1.8163 1.507 0.70434 1.1716c0.38738 0.64438 0.78985 1.7406 0.89439 2.4362 0.10453 0.69551 0.25058 1.5468 0.32456 1.8917 0.18176 0.84751-2.1794 4.5552-2.8792 4.521-0.30698-0.015-0.88062-0.62496-1.2748-1.3555zm3.6207-3.508c0-1.1-1.2828-3.9814-1.7725-3.9814-0.15257 0-0.27741 1.893-0.27741 4.2068v4.2068l1.025-1.6841c0.56373-0.92627 1.025-2.1629 1.025-2.748zm-2.4156 0.54884c-0.01329-1.5428-0.14481-3.2487-0.2925-3.7909-0.24548-0.90129-0.33192-0.83791-1.0084 0.73935-0.78774 1.8366-0.7421 3.2864 0.16727 5.3143 0.75502 1.6837 1.1605 0.87434 1.1336-2.2628zm-0.31764-10.82c0-4.6559-0.0049-4.6825-0.84723-4.6825-1.5022 0-3.5844 1.4967-3.7991 2.7307-0.34776 1.9989 0.19146 2.259 2.3605 4.0328 1.1632 0.95122 2.1534 1.7329 2.2004 1.7371 0.04697 0.0041 0.08544-1.2426 0.08544-3.818zm3.2803 2.053c2.2624-1.7298 2.5279-1.24 2.5279-2.6387 0-1.9368-0.60249-3.0323-1.9685-3.5796-2.7805-1.114-2.8146-1.0665-2.8146 3.9189 0 2.4398 0.13082 3.5792 0.29077 3.5792 0.15992 0 1.044-0.57586 1.9645-1.2797zm-3.4084-10.247c-0.11745-0.84717-0.21354-2.6216-0.21354-3.9432s-0.15193-2.4029-0.33764-2.4029c-0.1857 0-0.301 0.47841-0.25624 1.0631 0.07299 0.95343-0.27114 1.1959-3.3352 2.3503-4.5811 1.7259-4.5811 2.4714 0 3.5587 4.7004 1.1156 4.3905 1.1624 4.1426-0.62604zm6.5916 0.38918c1.206-0.31571 2.2535-0.83773 2.3277-1.16 0.1332-0.57841-3.0977-2.1868-5.8017-2.8881-1.3377-0.34698-1.6648-1.027-0.74009-1.5389 0.43569-0.2412 0.45234-0.38078 0.08541-0.71633-0.86562-0.79161-0.9682-0.41638-0.9682 3.5415v3.9734l1.452-0.31875c0.79862-0.17531 2.4388-0.57706 3.6448-0.89277z" fill="#fff"/>
  <path d="M 32,2 A 30,30 0 0 0 2,32 30,30 0 0 0 2.0188337,32.527344 30,30 0 0 1 32,3.0714286 30,30 0 0 1 61.972795,32.527344 30,30 0 0 0 62,32 30,30 0 0 0 32,2 Z" fill="#fff" opacity=".1"/>
 </g>
</svg>
