<?xml version="1.0" encoding="UTF-8"?>
<svg width="64" height="64" version="1.1" xmlns="http://www.w3.org/2000/svg" xmlns:cc="http://creativecommons.org/ns#" xmlns:dc="http://purl.org/dc/elements/1.1/" xmlns:rdf="http://www.w3.org/1999/02/22-rdf-syntax-ns#">
 <metadata>
  <rdf:RDF>
   <cc:Work rdf:about="">
    <dc:format>image/svg+xml</dc:format>
    <dc:type rdf:resource="http://purl.org/dc/dcmitype/StillImage"/>
    <dc:title/>
   </cc:Work>
  </rdf:RDF>
 </metadata>
 <g transform="matrix(.98176 0 0 .98176 .10262 .59417)">
  <path d="m46 24c5 11 10 36-6 36-14 0-26.724-14.079-30-25-6-20-3-31 8-31s22.823 8.6107 28 20z" fill="#4c4c4c"/>
  <path d="m18 4c-7.3906 0-11.165 4.9723-11.029 14.297 0.14327-8.6799 3.9071-13.297 11.029-13.297 11 0 22.823 8.6107 28 20 2.4022 5.2849 4.7978 13.798 4.8711 21.221 0.14791-7.6455-2.3605-16.697-4.8711-22.221-5.1769-11.389-17-20-28-20z" fill="#fff" opacity=".1"/>
  <path d="m48.977 3.9789c-0.4037 0.00458-0.79657 0.13123-1.127 0.36328l-37 26c-1.1988 0.84283-1.1142 2.6461 0.1582 3.373l11.59 6.623-16.932 15.15c-1.7952 1.6116 0.26973 4.4352 2.3496 3.2129l39-23c1.4592-0.86208 1.2521-3.0347-0.34375-3.6055l-10.209-3.6465 22.631-14.797c1.2007-0.78508 1.2089-2.5416 0.01563-3.3379l-9-6c-0.33516-0.2235-0.73-0.34059-1.1328-0.33594z" fill="#059dd2"/>
  <path d="m48.977 3.9785c-0.4037 0.00458-0.79657 0.13123-1.127 0.36328l-37 26c-0.72843 0.51212-0.97712 1.3782-0.7793 2.1426 0.1108-0.43898 0.36304-0.84993 0.7793-1.1426l37-26c0.33038-0.23205 0.72325-0.3587 1.127-0.36328 0.40282-0.00465 0.79765 0.11244 1.1328 0.33594l9 6c0.43713 0.2917 0.70911 0.71352 0.82422 1.168 0.20142-0.78173-0.07133-1.6656-0.82422-2.168l-9-6c-0.33516-0.2235-0.72999-0.34059-1.1328-0.33594zm-11.525 24.824-0.98828 0.64648 10.209 3.6465c0.68383 0.2446 1.096 0.78694 1.248 1.3906 0.2409-0.93675-0.19186-2.0128-1.248-2.3906zm-15.535 12.145-16.25 14.541c-0.64435 0.57844-0.78573 1.3114-0.61328 1.959 0.09534-0.33823 0.2899-0.66868 0.61328-0.95898l16.932-15.15z" fill="#fff" opacity=".2"/>
  <path d="m26 18c-7 0-14 6-14 6l1.709 1.709c2.4851-1.7603 7.362-4.709 12.291-4.709 5.5494 0 10.082 2.8601 12.371 4.6289l1.6289-1.6289s-6-6-14-6zm0 6c-3.9282 0-7.8028 1.868-10.48 3.5195l1.9082 1.9082c2.4714-1.286 5.5213-2.4277 8.5723-2.4277 3.3584 0 6.3553 1.0601 8.7129 2.2871l1.8945-1.8945c-2.5101-1.619-6.2329-3.3926-10.607-3.3926zm0 6c-2.2641 0-4.5061 0.63515-6.5215 1.4785l6.5215 6.5215 6.6484-6.6484c-1.9518-0.77831-4.1916-1.3516-6.6484-1.3516z" fill="#fff"/>
 </g>
</svg>
