<?xml version="1.0" encoding="UTF-8" standalone="no"?>
<svg
   width="64"
   height="64"
   version="1.1"
   viewBox="0 0 64 64"
   id="svg19"
   sodipodi:docname="airwave-manager.svg"
   inkscape:version="1.3.2 (091e20ef0f, 2023-11-25, custom)"
   xmlns:inkscape="http://www.inkscape.org/namespaces/inkscape"
   xmlns:sodipodi="http://sodipodi.sourceforge.net/DTD/sodipodi-0.dtd"
   xmlns="http://www.w3.org/2000/svg"
   xmlns:svg="http://www.w3.org/2000/svg"
   xmlns:rdf="http://www.w3.org/1999/02/22-rdf-syntax-ns#"
   xmlns:cc="http://creativecommons.org/ns#"
   xmlns:dc="http://purl.org/dc/elements/1.1/">
  <sodipodi:namedview
     id="namedview21"
     pagecolor="#ffffff"
     bordercolor="#999999"
     borderopacity="1"
     inkscape:showpageshadow="0"
     inkscape:pageopacity="0"
     inkscape:pagecheckerboard="0"
     inkscape:deskcolor="#d1d1d1"
     showgrid="false"
     inkscape:zoom="4.839262"
     inkscape:cx="17.874626"
     inkscape:cy="44.634905"
     inkscape:window-width="1920"
     inkscape:window-height="955"
     inkscape:window-x="0"
     inkscape:window-y="34"
     inkscape:window-maximized="1"
     inkscape:current-layer="svg19" />
  <metadata
     id="metadata2">
    <rdf:RDF>
      <cc:Work
         rdf:about="">
        <dc:format>image/svg+xml</dc:format>
        <dc:type
           rdf:resource="http://purl.org/dc/dcmitype/StillImage" />
        <dc:title />
      </cc:Work>
    </rdf:RDF>
  </metadata>
  <defs
     id="defs9">
    <linearGradient
       id="linearGradient862"
       x1="7.9373"
       x2="7.9373"
       y1="15.081"
       y2="1.852"
       gradientTransform="matrix(3.7796,0,0,3.7796,121.27777,-1.0005)"
       gradientUnits="userSpaceOnUse">
      <stop
         stop-color="#ff540d"
         offset="0"
         id="stop4" />
      <stop
         stop-color="#ff9f00"
         offset="1"
         id="stop6" />
    </linearGradient>
    <filter
       id="filter1057"
       x="-0.026999999"
       y="-0.026999999"
       width="1.054"
       height="1.054"
       color-interpolation-filters="sRGB">
      <feGaussianBlur
         stdDeviation="0.61875"
         id="feGaussianBlur851" />
    </filter>
    <linearGradient
       id="linearGradient1053"
       x1="-127"
       x2="-80.658997"
       y1="60"
       y2="13.659"
       gradientTransform="matrix(1.0000071,0,0,1.0000071,130.624,-18.010535)"
       gradientUnits="userSpaceOnUse">
      <stop
         stop-color="#ff7d1e"
         offset="0"
         id="stop854" />
      <stop
         stop-color="#ffa53c"
         offset="1"
         id="stop856" />
    </linearGradient>
  </defs>
  <rect
     x="4.4995003"
     y="4.4995003"
     width="55.000999"
     height="55.000999"
     ry="2.75"
     fill="#f36303"
     stroke-width="3.4646"
     id="rect1" />
  <g
     stroke-width="1.3333"
     id="g11" />
  <g
     id="g1"
     transform="matrix(2.445915,0,0,2.445915,-293.30727,-112.26796)">
    <circle
       cx="133.00023"
       cy="59.000217"
       r="6.002008"
       opacity="0.15"
       id="circle3"
       style="stroke-width:3.7796;paint-order:stroke markers fill" />
    <g
       fill="#ffffff"
       id="g4"
       transform="matrix(3.779602,0,0,3.779602,88.710858,-1044.1522)"
       style="paint-order:stroke markers fill">
      <path
         d="m 11.718,290.522 a 1.343,1.343 0 0 0 -1.343,1.344 1.343,1.343 0 0 0 1.343,1.343 1.343,1.343 0 0 0 1.343,-1.343 1.343,1.343 0 0 0 -1.343,-1.344 z m 0,0.61 a 0.733,0.733 0 0 1 0.733,0.734 0.733,0.733 0 0 1 -0.733,0.732 0.733,0.733 0 0 1 -0.733,-0.732 0.733,0.733 0 0 1 0.733,-0.733 z"
         id="path3" />
      <path
         d="m 11.474,289.973 h 0.488 v 0.854 h -0.488 z m 0,2.93 h 0.488 v 0.855 h -0.488 z m 2.137,-1.282 v 0.489 h -0.855 v -0.489 z m -2.931,0 v 0.489 H 9.825 v -0.489 z m 2.55,1.41 -0.346,0.346 -0.604,-0.605 0.345,-0.345 z m -2.073,-2.072 -0.345,0.345 -0.605,-0.604 0.345,-0.345 z m -0.605,2.418 -0.345,-0.346 0.605,-0.604 0.345,0.345 z m 2.073,-2.073 -0.345,-0.345 0.604,-0.604 0.345,0.345 z"
         id="path4" />
    </g>
  </g>
</svg>
