<?xml version="1.0" encoding="UTF-8" standalone="no"?>
<svg
   xmlns:dc="http://purl.org/dc/elements/1.1/"
   xmlns:cc="http://creativecommons.org/ns#"
   xmlns:rdf="http://www.w3.org/1999/02/22-rdf-syntax-ns#"
   xmlns:svg="http://www.w3.org/2000/svg"
   xmlns="http://www.w3.org/2000/svg"
   xmlns:sodipodi="http://sodipodi.sourceforge.net/DTD/sodipodi-0.dtd"
   xmlns:inkscape="http://www.inkscape.org/namespaces/inkscape"
   width="64"
   height="64"
   version="1"
   id="svg12"
   sodipodi:docname="aks.svg"
   inkscape:version="1.0.1 (3bc2e813f5, 2020-09-07, custom)">
  <metadata
     id="metadata18">
    <rdf:RDF>
      <cc:Work
         rdf:about="">
        <dc:format>image/svg+xml</dc:format>
        <dc:type
           rdf:resource="http://purl.org/dc/dcmitype/StillImage" />
        <dc:title></dc:title>
      </cc:Work>
    </rdf:RDF>
  </metadata>
  <defs
     id="defs16" />
  <sodipodi:namedview
     pagecolor="#c8c8c8"
     bordercolor="#666666"
     borderopacity="1"
     objecttolerance="10"
     gridtolerance="10"
     guidetolerance="10"
     inkscape:pageopacity="0"
     inkscape:pageshadow="2"
     inkscape:window-width="1920"
     inkscape:window-height="935"
     id="namedview14"
     showgrid="false"
     inkscape:zoom="6.0546875"
     inkscape:cx="45.177557"
     inkscape:cy="29.691587"
     inkscape:window-x="0"
     inkscape:window-y="38"
     inkscape:window-maximized="1"
     inkscape:current-layer="svg12" />
  <path
     d="m 31.975105,2.0001191 a 6.8486174,6.8220666 0 0 0 -3.398676,0.910486 L 8.4233774,14.500815 a 6.8486174,6.8220666 0 0 0 -3.422863,5.909627 v 23.18042 a 6.8486174,6.8220666 0 0 0 3.422863,5.90536 L 28.576429,61.086431 a 6.8486174,6.8220666 0 0 0 6.847144,0 l 20.15163,-11.590209 a 6.8486174,6.8220666 0 0 0 3.424283,-5.90536 V 20.410442 A 6.8486174,6.8220666 0 0 0 55.575203,14.500815 L 35.423573,2.9106051 a 6.8486174,6.8220666 0 0 0 -3.26068,-0.909064 6.8486174,6.8220666 0 0 0 -0.187788,-0.0014 z"
     style="fill:#413e4d;fill-opacity:1;stroke-width:1.50004"
     id="path827" />
  <path
     style="fill:#b648b6"
     d="m 36.46273,49.070114 c 0,-0.04469 0.30586,-0.187352 0.67969,-0.3171 0.44006,-0.152723 0.71917,-0.326522 0.79167,-0.492984 0.0616,-0.14137 0.46054,-0.459969 0.88655,-0.707939 0.426,-0.247971 1.16478,-0.713423 1.64172,-1.03435 0.7478,-0.503152 0.85776,-0.621318 0.79874,-0.858378 -0.0455,-0.182398 -0.008,-0.297865 0.1081,-0.343147 0.2138,-0.08268 0.23501,-0.314243 0.0288,-0.313529 -0.0813,2.29e-4 -0.38712,0.164006 -0.67969,0.363852 -0.73593,0.502695 -1.57042,0.922067 -1.72434,0.866561 -0.0707,-0.02556 -0.41646,0.08868 -0.76833,0.25381 -0.35188,0.165105 -0.77936,0.300721 -0.94998,0.301364 -0.17061,5.99e-4 -0.53635,0.08154 -0.81276,0.179883 -0.27639,0.09825 -0.55832,0.178728 -0.62649,0.178728 -0.21438,0 0.40437,-0.578822 1.18007,-1.103878 0.77738,-0.526216 0.96212,-0.760049 0.44348,-0.561287 -0.40071,0.153581 -0.99706,0.148497 -0.99706,-0.0086 0,-0.06855 0.16446,-0.216026 0.36546,-0.327665 0.82695,-0.459271 1.43076,-0.874715 1.36609,-0.939889 -0.0378,-0.03813 -0.43896,0.152237 -0.89131,0.423126 -0.45236,0.27089 -0.87965,0.492514 -0.94955,0.492514 -0.31141,0 -0.0652,-0.277943 0.70176,-0.791948 0.85955,-0.576137 1.05662,-0.868831 0.26999,-0.400993 -0.63197,0.375861 -1.57166,0.734343 -1.57166,0.59957 0,-0.06226 0.45685,-0.416559 1.01521,-0.787208 0.55837,-0.370663 1.11014,-0.831247 1.22615,-1.023539 0.11602,-0.192295 0.56121,-0.640868 0.98932,-0.996822 0.42812,-0.355942 0.82878,-0.741684 0.89034,-0.857194 0.0616,-0.115525 0.43745,-0.612151 0.83528,-1.103649 0.87164,-1.076862 1.93958,-3.174292 2.24467,-4.408588 0.13118,-0.530841 0.25548,-1.619197 0.3061,-2.680893 0.0756,-1.587352 0.056,-1.932797 -0.17623,-3.088369 -0.68245,-3.396272 -1.87687,-5.644997 -3.78467,-7.125379 -1.9332,-1.500103 -3.53329,-2.042124 -6.0285,-2.042124 -1.86996,0 -3.01425,0.270447 -4.97935,1.176791 -1.8793,0.866776 -2.42605,1.246221 -3.73595,2.592757 -1.11123,1.142319 -1.12413,1.163169 -2.15535,3.481979 l -0.370926,0.834061 0.07605,-0.595757 c 0.09664,-0.756935 0.705336,-2.092618 1.364486,-2.994121 1.01521,-1.38852 2.87279,-2.921581 3.94985,-3.259813 0.26005,-0.08168 0.97318,-0.423729 1.58472,-0.76012 l 1.11191,-0.611608 -0.52088,-0.0327 c -0.28648,-0.01799 -0.64048,-0.09396 -0.78667,-0.168973 -0.19385,-0.09938 -0.37782,-0.10167 -0.67968,-0.0086 -0.63761,0.197262 -0.49494,-0.05041 0.23765,-0.412646 0.65686,-0.324725 0.73112,-0.453001 0.3884,-0.670911 -0.23532,-0.149625 -1.33197,0.310773 -2.53583,1.064594 -1.34183,0.840199 -2.71665,2.190892 -1.68006,1.650569 l 0.37021,-0.192979 -0.0816,0.327553 c -0.0526,0.211456 -0.0295,0.359968 0.0652,0.419001 0.10545,0.06569 0.0158,0.246856 -0.3182,0.643179 -0.68307,0.810456 -1.48365,1.875022 -1.85327,2.464396 -0.17843,0.284498 -0.52635,0.771428 -0.773152,1.082058 -0.462179,0.581735 -1.089247,2.237245 -1.089247,2.875728 0,0.180625 -0.05222,0.426753 -0.116037,0.546962 -0.08429,0.158764 -0.0722,0.235504 0.04417,0.280528 0.238925,0.09239 0.334998,0.788335 0.364837,2.642751 0.03181,1.976623 0.196504,2.52677 1.197529,4.000126 0.35046,0.515818 0.6372,0.967205 0.6372,1.00309 0,0.03584 -0.14628,0.03213 -0.32506,-0.0086 -0.27646,-0.06255 -0.19528,0.05683 0.5428,0.798347 0.47733,0.479547 0.81808,0.888652 0.75722,0.909086 -0.0608,0.02042 -0.35171,-0.06697 -0.64636,-0.194292 -0.48403,-0.209143 -0.7719,-0.488287 -1.612101,-1.563262 -0.285036,-0.36468 -0.462382,-0.236533 -0.267948,0.193621 0.240408,0.531868 0.06468,0.443018 -0.408266,-0.206416 -0.248233,-0.340861 -0.470819,-0.560829 -0.494634,-0.488815 -0.05717,0.172901 0.08865,0.435252 0.830261,1.493733 0.340637,0.486174 0.710495,1.052586 0.821908,1.258687 0.13349,0.246956 0.32238,0.398895 0.55392,0.445575 0.19324,0.03899 0.38037,0.14704 0.41582,0.240189 0.0821,0.21554 1.59521,0.905744 1.80652,0.824006 0.0873,-0.0337 0.42551,0.04455 0.75158,0.174158 0.32607,0.129518 0.87015,0.235589 1.20906,0.235647 1.67841,2.42e-4 3.74448,1.842404 3.74754,3.341407 0.001,0.734416 -0.58188,1.71553 -1.31361,2.209157 -0.92365,0.623088 -2.93631,0.845955 -4.20635,0.465781 -1.5695,-0.469807 -6.005578,-4.409944 -7.779864,-6.910067 -1.052696,-1.483351 -1.617115,-2.717976 -2.124362,-4.64689 -0.688157,-3.082486 0.20634,-7.338778 1.015825,-9.754564 0.671552,-1.989132 0.873368,-2.41463 1.184097,-2.496539 0.289709,-0.0764 0.344251,0.01428 0.2152,0.356011 -0.209771,0.556145 -0.150615,0.673041 0.303061,0.598827 0.524073,-0.08568 0.523968,-0.06097 -0.0064,1.537373 -0.417614,1.258188 -0.502898,1.896099 -0.106958,0.800018 0.638314,-1.767037 1.118694,-2.500966 0.9529,-1.45585 -0.108404,0.683351 0.139228,0.564013 0.536432,-0.258537 0.171594,-0.355342 0.482484,-0.806942 0.690862,-1.003534 l 0.378874,-0.357453 -0.329699,0.681778 c -0.181335,0.37499 -0.291863,0.719935 -0.245621,0.766545 0.130799,0.131803 0.272412,-0.07169 0.664635,-0.955025 0.272119,-0.612878 0.316717,-0.799488 0.178261,-0.745939 -0.110585,0.04284 -0.02797,-0.149025 0.205978,-0.478176 0.214845,-0.302277 0.454258,-0.574437 0.532025,-0.604797 0.07776,-0.03041 0.382942,-0.385685 0.678167,-0.789605 0.957087,-1.309467 2.189957,-2.124277 4.983857,-3.293814 0.6439,-0.269547 1.52424,-0.704827 1.95631,-0.967291 1.09883,-0.6675 1.48289,-0.756477 3.1972,-0.740741 1.84336,0.01699 2.86433,0.180669 4.45986,0.715251 2.23617,0.749209 4.20104,1.899097 5.97531,3.496902 0.51838,0.466809 0.96222,0.78915 0.9863,0.716294 0.13785,-0.416902 -1.94804,-2.564668 -3.19485,-3.289573 -0.87756,-0.510221 -1.12759,-0.767244 -0.74636,-0.767244 0.0959,0 0.67216,0.268091 1.28054,0.595758 1.19775,0.645092 1.34485,0.688746 1.40288,0.416329 0.0673,-0.316086 1.02441,0.272246 1.93329,1.188401 2.38743,2.406518 4.08318,6.320294 4.54469,10.489093 0.26508,2.394409 0.15199,3.606116 -0.66167,7.089494 -0.36184,1.549068 -1.51183,3.968653 -2.46343,5.183058 -0.35946,0.458741 -0.8716,1.12 -1.1381,1.4695 -0.54627,0.716394 -3.0268,2.632798 -4.24517,3.27972 -1.20919,0.642052 -3.90079,1.528534 -3.90079,1.284718 z m 3.07807,-1.329886 c 0.25746,-0.132375 0.4681,-0.26512 0.4681,-0.294937 0,-0.08268 -0.58241,0.158607 -0.86552,0.358498 -0.35674,0.251867 -0.15243,0.219195 0.39742,-0.06355 z m 0.94679,-27.097319 c -0.28164,-0.342075 -1.47682,-1.065594 -2.30357,-1.394517 -1.30061,-0.517432 -1.30371,-0.392725 -0.007,0.292296 0.65013,0.343517 1.44678,0.794261 1.77031,1.001647 0.59758,0.383016 0.80487,0.421586 0.54056,0.100527 z m -4.1808,-2.04558 c -0.43425,-0.237274 -1.94549,-0.553703 -2.12131,-0.444176 -0.14796,0.09211 0.11971,0.187495 1.27252,0.453329 0.99357,0.229093 1.27918,0.226008 0.84879,-0.0086 z m 3.46572,21.695823 c 0,-0.05883 1.10088,-1.530891 1.3347,-1.784716 0.14981,-0.16262 -0.35819,0.848482 -0.7034,1.400029 -0.1538,0.245742 -0.35878,0.446818 -0.45548,0.446818 -0.0968,0 -0.17582,-0.02799 -0.17582,-0.06212 z m 1.96099,-3.244305 c 0.33434,-0.889653 0.6069,-1.906395 0.83423,-3.111989 0.0293,-0.155179 0.0762,-0.258923 0.10441,-0.230549 0.0857,0.08639 -0.26334,2.022875 -0.47903,2.657417 -0.20255,0.595885 -0.73354,1.72768 -0.81057,1.72768 -0.0225,0 0.13543,-0.469151 0.35096,-1.042559 z m 0.90575,-4.497952 c 0.001,-0.262136 0.0255,-0.355341 0.0538,-0.20713 0.0283,0.148211 0.0272,0.362681 -0.003,0.476605 -0.0296,0.113955 -0.0527,-0.0071 -0.0514,-0.269475 z m -0.13756,-1.996371 c -0.0918,-0.573738 -0.13515,-1.07512 -0.0965,-1.114175 0.13132,-0.132374 0.33458,0.913427 0.29884,1.537173 -0.0349,0.60888 -0.0385,0.601197 -0.20243,-0.422998 z M 20.835234,21.09084 c 0.572401,-0.817881 2.981806,-2.876198 2.796256,-2.388797 -0.0528,0.138658 -1.4801,1.441298 -2.706393,2.469936 l -0.355119,0.297864 z m 6.643896,-0.157163 c 0,-0.06555 0.0829,-0.119095 0.18428,-0.119095 0.10138,0 0.15141,0.05354 0.11124,0.119095 -0.0402,0.06555 -0.12311,0.119094 -0.18429,0.119094 -0.0612,0 -0.11122,-0.05369 -0.11122,-0.119094 z m -7.210552,-0.587119 c 0,-0.126377 0.146279,-0.345887 0.325066,-0.487972 0.270074,-0.214612 0.331303,-0.22735 0.361935,-0.07525 0.04865,0.24153 -0.315239,0.79292 -0.523287,0.79292 -0.09004,0 -0.163714,-0.103386 -0.163714,-0.229664 z M 31.73453,16.035716 c 0,-0.114953 0.46661,-0.222051 0.9752,-0.223908 0.24381,-9.57e-4 0.44327,0.05198 0.44327,0.117523 0,0.128091 -0.0127,0.130376 -0.85699,0.163205 -0.3088,0.01143 -0.56148,-0.01428 -0.56148,-0.05683 z m -0.2364,-0.57158 c 0,-0.351099 1.76882,-0.745396 2.22933,-0.496955 0.37142,0.200375 0.32221,0.485544 -0.0839,0.485544 -0.18523,0 -0.74375,0.0347 -1.24116,0.07711 -0.66622,0.05683 -0.90437,0.03941 -0.90437,-0.06569 z"
     id="path851" />
</svg>
