<?xml version="1.0" encoding="UTF-8"?>
<svg width="64" height="64" version="1.1" viewBox="0 0 64 64" xmlns="http://www.w3.org/2000/svg">
 <defs>
  <linearGradient id="linear0" x1="4" x2="24" y1="19.5" y2="19.5" gradientTransform="matrix(2,0,0,-2,0,68)" gradientUnits="userSpaceOnUse">
   <stop stop-color="#42a3f2" offset="0"/>
   <stop stop-color="#42a3eb" offset="1"/>
  </linearGradient>
  <linearGradient id="linear1" x1="16" x2="24" y1="20" y2="20" gradientTransform="matrix(2,0,0,-2,0,68)" gradientUnits="userSpaceOnUse">
   <stop stop-color="#1951a8" offset="0"/>
   <stop stop-color="#1954b0" offset=".175"/>
   <stop stop-color="#195ab9" offset=".505"/>
   <stop stop-color="#195bbb" offset="1"/>
  </linearGradient>
 </defs>
 <g transform="matrix(1.1667 0 0 1.1667 -5.3333 -5.3333)">
  <path d="m45.008 8h-34.34c-1.4727 0-2.668 1.1953-2.668 2.668v39.332h40v-39.008c0-1.6523-1.3398-2.9922-2.9922-2.9922z" fill="url(#linear0)"/>
  <path d="m32 8h13.332c1.4727 0 2.668 1.1953 2.668 2.668v37.332h-16z" fill="url(#linear1)"/>
  <path d="m8 48h45.332c1.4727 0 2.668 1.1953 2.668 2.668v2.6641c0 1.4727-1.1953 2.668-2.668 2.668h-42.664c-1.4727 0-2.668-1.1953-2.668-2.668z" fill="#174c85"/>
  <g fill="#fff">
   <path d="m15 54h-2c-0.55078 0-1-0.44922-1-1v-2c0-0.55078 0.44922-1 1-1h2c0.55078 0 1 0.44922 1 1v2c0 0.55078-0.44922 1-1 1z"/>
   <path d="m13 12h14c0.55078 0 1 0.44922 1 1s-0.44922 1-1 1h-14c-0.55078 0-1-0.44922-1-1s0.44922-1 1-1z"/>
   <path d="m13 18h14c0.55078 0 1 0.44922 1 1s-0.44922 1-1 1h-14c-0.55078 0-1-0.44922-1-1s0.44922-1 1-1z"/>
   <path d="m35 42h10c0.55078 0 1 0.44922 1 1s-0.44922 1-1 1h-10c-0.55078 0-1-0.44922-1-1s0.44922-1 1-1z"/>
  </g>
 </g>
</svg>
