<?xml version="1.0" encoding="UTF-8"?>
<svg width="64" height="64" version="1.1" xmlns="http://www.w3.org/2000/svg" xmlns:cc="http://creativecommons.org/ns#" xmlns:dc="http://purl.org/dc/elements/1.1/" xmlns:rdf="http://www.w3.org/1999/02/22-rdf-syntax-ns#" xmlns:xlink="http://www.w3.org/1999/xlink">
 <metadata>
  <rdf:RDF>
   <cc:Work rdf:about="">
    <dc:format>image/svg+xml</dc:format>
    <dc:type rdf:resource="http://purl.org/dc/dcmitype/StillImage"/>
   </cc:Work>
  </rdf:RDF>
 </metadata>
 <defs>
  <style type="text/css"/>
  <style type="text/css"/>
  <linearGradient id="linearGradient2927" x1="152.31" x2="152.31" y1="6.7962" y2="58.044" gradientTransform="matrix(1.0424 0 0 1.0424 -125.83 -1.9667)" gradientUnits="userSpaceOnUse">
   <stop stop-color="#1668ff" offset="0"/>
   <stop stop-color="#0044ed" offset="1"/>
  </linearGradient>
  <linearGradient id="linearGradient7148" x1="162.55" x2="162.55" y1="26.733" y2="51.285" gradientTransform="matrix(1.0424 0 0 1.0424 -125.83 -1.9667)" gradientUnits="userSpaceOnUse">
   <stop stop-color="#fe5622" offset="0"/>
   <stop stop-color="#f8003f" offset="1"/>
  </linearGradient>
  <linearGradient id="linearGradient12556" x1="175.88" x2="175.88" y1="28.965" y2="48.461" gradientTransform="matrix(1.0424 0 0 1.0424 -125.83 -1.9667)" gradientUnits="userSpaceOnUse">
   <stop stop-color="#fcdf43" offset="0"/>
   <stop stop-color="#f6ae01" offset="1"/>
  </linearGradient>
  <linearGradient id="linearGradient17810" x1="132.23" x2="132.23" y1="28.992" y2="49.082" gradientTransform="matrix(1.0424 0 0 1.0424 -125.83 -1.9667)" gradientUnits="userSpaceOnUse">
   <stop stop-color="#0fafe9" offset="0"/>
   <stop stop-color="#0780eb" offset="1"/>
  </linearGradient>
  <linearGradient id="linearGradient23168" x1="125.19" x2="125.19" y1="29.389" y2="48.664" gradientTransform="matrix(1.0424 0 0 1.0424 -125.83 -1.9667)" gradientUnits="userSpaceOnUse">
   <stop stop-color="#f45b8e" offset="0"/>
   <stop stop-color="#fd2d81" offset="1"/>
  </linearGradient>
 </defs>
 <g>
  <path d="m41.309 3.4223c-0.83064 0.026049-1.6331 0.45224-2.1112 1.2114l-7.7079 12.24c-0.11371-0.0034-0.21484-0.01111-0.32981-0.01425l-5.8451-8.5915c-0.99997-1.4701-2.9885-1.8489-4.4586-0.84897l-1.1869 0.80825c-1.4701 0.99998-1.849 2.9885-0.84898 4.4586l3.5425 5.2078c-4.7415 0.84424-10.075 2.3338-12.301 4.9146-4.4129 5.116-1.6065 29.844-0.93651 30.907 0.67001 1.0627 3.6612 6.0103 16.584 6.7225 12.923 0.71226 27.903-1.1062 28.619-9.0984 0.71533-7.9922 1.3551-24.8-1.1259-27.778-1.8663-2.2398-4.7336-4.7221-12.891-5.957l5.5336-8.7849c0.76494-1.2146 0.40226-2.8081-0.81232-3.573l-2.2619-1.4251c-0.45548-0.28685-0.96339-0.41467-1.4618-0.39904z" fill="url(#linearGradient2927)"/>
  <path d="m8.3542 27.108c-0.00521 0.0011-0.00938 9.36e-4 -0.014281 0.0021 0 0-4.936 1.9202-5.1101 4.5482-0.17412 2.628-0.64755 14.54 0.64131 16.122 0.84173 1.0335 2.6394 2.1131 4.6541 2.6528-0.052536-0.4069-0.10424-0.81218-0.15676-1.2765-0.072132-0.63691-0.1435-1.3234-0.21173-2.0501-0.068276-0.72671-0.13362-1.493-0.19341-2.2883-0.059832-0.79537-0.11405-1.6205-0.16084-2.4634-0.023349-0.42145-0.04378-0.84714-0.063064-1.2765s-0.036275-0.86222-0.050868-1.2969c-0.014593-0.43465-0.02731-0.87179-0.036692-1.3091-0.00938-0.43729-0.016782-0.87383-0.020326-1.3111-0.00313-0.43728-0.00313-0.87444 0-1.3091s0.00834-0.86751 0.018346-1.2969c0.00938-0.42935 0.023349-0.85508 0.040757-1.2765 0.017304-0.42142 0.039715-0.83919 0.065149-1.25 0.025434-0.41085 0.05337-0.81575 0.08756-1.2134 0.034086-0.39764 0.072654-0.78682 0.11604-1.1686 0.043363-0.38179 0.091312-0.75645 0.14456-1.1197 0.053161-0.36329 0.1115-0.7165 0.17508-1.0587 0.023141-0.12435 0.050764-0.23904 0.075364-0.36035z" fill="url(#linearGradient23168)"/>
  <path d="m8.3542 27.108c-0.024496 0.12132-0.052223 0.23601-0.075364 0.36035-0.063585 0.34216-0.1219 0.69537-0.17508 1.0587-0.053161 0.3633-0.10121 0.73795-0.14456 1.1197-0.043363 0.38179-0.081931 0.77096-0.11604 1.1686-0.034086 0.39764-0.062126 0.80254-0.08756 1.2134-0.025434 0.41085-0.047845 0.82862-0.065149 1.25-0.017303 0.42142-0.030854 0.84716-0.040757 1.2765-0.00938 0.42935-0.015427 0.86223-0.018346 1.2969-0.00313 0.43464-0.00313 0.8718 0 1.3091 0.00313 0.43728 0.010945 0.87383 0.020326 1.3111 0.00938 0.43729 0.021994 0.87443 0.036692 1.3091 0.014593 0.43465 0.031584 0.8675 0.050868 1.2969s0.039715 0.85506 0.063064 1.2765c0.046803 0.8429 0.10101 1.6681 0.16084 2.4634 0.059832 0.79537 0.12518 1.5616 0.19341 2.2883 0.068171 0.72671 0.13964 1.4132 0.21173 2.0501 0.052536 0.46433 0.10425 0.86961 0.15676 1.2765 1.0702 0.28666 2.2001 0.42801 3.2839 0.31149 3.1242-0.33586 4.5699-2.2972 4.4871-5.163-0.08276-2.8659-0.24642-8.4626-0.11605-13.463 0.13021-4.9952-3.5994-5.99-7.826-5.0103z" fill="url(#linearGradient17810)"/>
  <path d="m54.41 50.291c3.3934-1.0648 5.5438-2.7455 5.9591-5.615 0.8763-6.0548 2.0892-15.646-6.0262-17.794 0.06515 0.36943 0.12946 0.74205 0.18323 1.1523 0.06942 0.52984 0.12945 1.0915 0.1812 1.6796 0.0517 0.58813 0.09475 1.2031 0.1303 1.8384 0.03554 0.63536 0.06265 1.2911 0.08349 1.9626 0.02085 0.67154 0.03513 1.3576 0.04274 2.0542 0.0073 0.69665 0.01042 1.4046 0.0063 2.1153-0.0042 0.71071-0.01407 1.424-0.02846 2.1377-0.01439 0.71372-0.03388 1.428-0.05702 2.1336-0.02314 0.70566-0.05097 1.4043-0.08141 2.0909-0.06087 1.3731-0.1347 2.697-0.21581 3.9272-0.05587 0.84696-0.11646 1.573-0.17712 2.3168z" fill="url(#linearGradient12556)"/>
  <path d="m54.41 50.291c0.06067-0.74389 0.12129-1.4699 0.17712-2.3168 0.0811-1.2303 0.15491-2.5542 0.21581-3.9272 0.03044-0.68655 0.05827-1.3852 0.08141-2.0909 0.02314-0.70566 0.04263-1.4199 0.05702-2.1336 0.01438-0.71372 0.02439-1.427 0.02846-2.1377 0.0042-0.71071 1e-3 -1.4186-0.0063-2.1153-0.0073-0.69666-0.02189-1.3827-0.04274-2.0542-0.02085-0.67154-0.04795-1.3272-0.08349-1.9626s-0.07859-1.2503-0.1303-1.8384c-0.0517-0.58813-0.11176-1.1498-0.1812-1.6796-0.05379-0.41026-0.11807-0.78288-0.18323-1.1523-0.22554-0.05969-0.45408-0.11696-0.69424-0.16491-8.8818-1.7733-19.307-1.773-22.299-1.4618 0 0-7.5465 0.054-7.5654 6.0425-0.01887 5.9885-0.27271 16.096 0.25245 17.372 0.52517 1.2766 1.6835 4.487 14.066 3.6931 6.673-0.42781 12.341-0.82803 16.308-2.0725z" fill="url(#linearGradient7148)"/>
  <path d="m42.956 36.649s-8.1292-7.9526-13.352-9.2769c-5.2225-1.3242-5.8204 2.0144-5.8204 4.3001 0 2.2857-0.19252 16.502 0.60162 17.455 0.79412 0.9526 2.5244 2.9453 6.1441 1.1011 3.6197-1.8442 12.708-7.5795 13.325-10.117 0.6168-2.5371-0.37849-2.8879-0.8986-3.4622z" fill="#fff"/>
 </g>
 <g>
  <path d="m147.64 18.059s-15.956 0.8007-20.189 5.7087c-4.2335 4.908-1.5408 28.63-0.89801 29.65 0.64277 1.0195 3.5122 5.7674 15.91 6.4507 12.398 0.6833 26.768-1.0617 27.455-8.729 0.68625-7.6672 1.2996-23.793-1.0805-26.649-2.3443-2.8134-6.3035-6.0325-21.197-6.4311z"/>
  <rect transform="rotate(32.203)" x="134.87" y="-79.942" width="7.5354" height="19.663" ry="2.4856" fill-rule="evenodd" style="paint-order:stroke fill markers"/>
  <rect transform="matrix(-.82685 .56243 .56243 .82685 0 0)" x="-111.96" y="84.949" width="7.5354" height="19.663" ry="3.0789" fill-rule="evenodd" style="paint-order:stroke fill markers"/>
  <path d="m125.8 27.895s-4.7351 1.8411-4.9021 4.3622c-0.16704 2.5211-0.62275 13.948 0.61371 15.466 1.2365 1.5182 4.6181 3.1676 7.6153 2.8454 2.9972-0.3222 4.3857-2.2043 4.3062-4.9537-0.0794-2.7493-0.2367-8.1187-0.11163-12.916 0.12506-4.7975-3.4611-5.7491-7.5215-4.804z"/>
  <path d="m147.87 26.115s-7.2382 0.05226-7.2562 5.7973c-0.0181 5.7451-0.26203 15.442 0.24178 16.667 0.50382 1.2247 1.6141 4.3036 13.493 3.542 11.879-0.76158 20.499-1.405 21.363-7.375 0.86403-5.9701 2.0723-15.527-6.4484-17.228-8.5207-1.7012-18.522-1.7019-21.393-1.4034z"/>
  <path d="m159 37.046s-7.7987-7.6293-12.809-8.8997-5.5837 1.9325-5.5837 4.1253c0 2.1928-0.18469 15.831 0.57716 16.745 0.76184 0.91387 2.4217 2.8256 5.8943 1.0563 3.4726-1.7693 12.192-7.2714 12.783-9.7053 0.59172-2.434-0.3631-2.7705-0.86207-3.3215z"/>
 </g>
 <g>
  <path d="m54.41 50.291c3.3934-1.0648 5.5438-2.7455 5.9591-5.615 0.8763-6.0548 2.0892-15.646-6.0262-17.794 0.06515 0.36943 0.12946 0.74205 0.18323 1.1523 0.06942 0.52984 0.12945 1.0915 0.1812 1.6796 0.0517 0.58813 0.09475 1.2031 0.1303 1.8384 0.03554 0.63536 0.06265 1.2911 0.08349 1.9626 0.02085 0.67154 0.03513 1.3576 0.04274 2.0542 0.0073 0.69665 0.01042 1.4046 0.0063 2.1153-0.0042 0.71071-0.01407 1.424-0.02846 2.1377-0.01439 0.71372-0.03388 1.428-0.05702 2.1336-0.02314 0.70566-0.05097 1.4043-0.08141 2.0909-0.06087 1.3731-0.1347 2.697-0.21581 3.9272-0.05587 0.84696-0.11646 1.573-0.17712 2.3168z" fill="url(#linearGradient12556)"/>
  <path d="m54.41 50.291c0.06067-0.74389 0.12129-1.4699 0.17712-2.3168 0.0811-1.2303 0.15491-2.5542 0.21581-3.9272 0.03044-0.68655 0.05827-1.3852 0.08141-2.0909 0.02314-0.70566 0.04263-1.4199 0.05702-2.1336 0.01438-0.71372 0.02439-1.427 0.02846-2.1377 0.0042-0.71071 1e-3 -1.4186-0.0063-2.1153-0.0073-0.69666-0.02189-1.3827-0.04274-2.0542-0.02085-0.67154-0.04795-1.3272-0.08349-1.9626s-0.07859-1.2503-0.1303-1.8384c-0.0517-0.58813-0.11176-1.1498-0.1812-1.6796-0.05379-0.41026-0.11807-0.78288-0.18323-1.1523-0.22554-0.05969-0.45408-0.11696-0.69424-0.16491-8.8818-1.7733-19.307-1.773-22.299-1.4618 0 0-7.5465 0.054-7.5654 6.0425-0.01887 5.9885-0.27271 16.096 0.25245 17.372 0.52517 1.2766 1.6835 4.487 14.066 3.6931 6.673-0.42781 12.341-0.82803 16.308-2.0725z" fill="url(#linearGradient7148)"/>
  <path d="m42.956 36.649s-8.1292-7.9526-13.352-9.2769c-5.2225-1.3242-5.8204 2.0144-5.8204 4.3001 0 2.2857-0.19252 16.502 0.60162 17.455 0.79412 0.9526 2.5244 2.9453 6.1441 1.1011 3.6197-1.8442 12.708-7.5795 13.325-10.117 0.6168-2.5371-0.37849-2.8879-0.8986-3.4622z" fill="#fff"/>
  <path d="m8.3542 27.108c-0.00521 0.0011-0.00938 9.36e-4 -0.014281 0.0021 0 0-4.936 1.9202-5.1101 4.5482-0.17412 2.628-0.64755 14.54 0.64131 16.122 0.84173 1.0335 2.6394 2.1131 4.6541 2.6528-0.052536-0.4069-0.10424-0.81218-0.15676-1.2765-0.072132-0.63691-0.1435-1.3234-0.21173-2.0501-0.068276-0.72671-0.13362-1.493-0.19341-2.2883-0.059832-0.79537-0.11405-1.6205-0.16084-2.4634-0.023349-0.42145-0.04378-0.84714-0.063064-1.2765s-0.036275-0.86222-0.050868-1.2969c-0.014593-0.43465-0.02731-0.87179-0.036692-1.3091-0.00938-0.43729-0.016782-0.87383-0.020326-1.3111-0.00313-0.43728-0.00313-0.87444 0-1.3091s0.00834-0.86751 0.018346-1.2969c0.00938-0.42935 0.023349-0.85508 0.040757-1.2765 0.017304-0.42142 0.039715-0.83919 0.065149-1.25 0.025434-0.41085 0.05337-0.81575 0.08756-1.2134 0.034086-0.39764 0.072654-0.78682 0.11604-1.1686 0.043363-0.38179 0.091312-0.75645 0.14456-1.1197 0.053161-0.36329 0.1115-0.7165 0.17508-1.0587 0.023141-0.12435 0.050764-0.23904 0.075364-0.36035z" fill="url(#linearGradient23168)"/>
  <path d="m8.3542 27.108c-0.024496 0.12132-0.052223 0.23601-0.075364 0.36035-0.063585 0.34216-0.1219 0.69537-0.17508 1.0587-0.053161 0.3633-0.10121 0.73795-0.14456 1.1197-0.043363 0.38179-0.081931 0.77096-0.11604 1.1686-0.034086 0.39764-0.062126 0.80254-0.08756 1.2134-0.025434 0.41085-0.047845 0.82862-0.065149 1.25-0.017303 0.42142-0.030854 0.84716-0.040757 1.2765-0.00938 0.42935-0.015427 0.86223-0.018346 1.2969-0.00313 0.43464-0.00313 0.8718 0 1.3091 0.00313 0.43728 0.010945 0.87383 0.020326 1.3111 0.00938 0.43729 0.021994 0.87443 0.036692 1.3091 0.014593 0.43465 0.031584 0.8675 0.050868 1.2969s0.039715 0.85506 0.063064 1.2765c0.046803 0.8429 0.10101 1.6681 0.16084 2.4634 0.059832 0.79537 0.12518 1.5616 0.19341 2.2883 0.068171 0.72671 0.13964 1.4132 0.21173 2.0501 0.052536 0.46433 0.10425 0.86961 0.15676 1.2765 1.0702 0.28666 2.2001 0.42801 3.2839 0.31149 3.1242-0.33586 4.5699-2.2972 4.4871-5.163-0.08276-2.8659-0.24642-8.4626-0.11605-13.463 0.13021-4.9952-3.5994-5.99-7.826-5.0103z" fill="url(#linearGradient17810)"/>
 </g>
</svg>
