<?xml version="1.0" encoding="UTF-8" standalone="no"?>
<svg
   xmlns:dc="http://purl.org/dc/elements/1.1/"
   xmlns:cc="http://creativecommons.org/ns#"
   xmlns:rdf="http://www.w3.org/1999/02/22-rdf-syntax-ns#"
   xmlns:svg="http://www.w3.org/2000/svg"
   xmlns="http://www.w3.org/2000/svg"
   xmlns:sodipodi="http://sodipodi.sourceforge.net/DTD/sodipodi-0.dtd"
   xmlns:inkscape="http://www.inkscape.org/namespaces/inkscape"
   width="64"
   height="64"
   version="1.1"
   id="svg12"
   sodipodi:docname="alexandra.svg"
   inkscape:version="1.0.1 (3bc2e813f5, 2020-09-07, custom)">
  <metadata
     id="metadata18">
    <rdf:RDF>
      <cc:Work
         rdf:about="">
        <dc:format>image/svg+xml</dc:format>
        <dc:type
           rdf:resource="http://purl.org/dc/dcmitype/StillImage" />
        <dc:title></dc:title>
      </cc:Work>
    </rdf:RDF>
  </metadata>
  <defs
     id="defs16" />
  <sodipodi:namedview
     pagecolor="#ffffff"
     bordercolor="#666666"
     borderopacity="1"
     objecttolerance="10"
     gridtolerance="10"
     guidetolerance="10"
     inkscape:pageopacity="0"
     inkscape:pageshadow="2"
     inkscape:window-width="1920"
     inkscape:window-height="935"
     id="namedview14"
     showgrid="false"
     inkscape:zoom="8.5626212"
     inkscape:cx="32.630143"
     inkscape:cy="35.291448"
     inkscape:window-x="0"
     inkscape:window-y="38"
     inkscape:window-maximized="1"
     inkscape:current-layer="svg12" />
  <g
     id="g847"
     transform="matrix(0.98214286,0,0,0.98214286,0.57142848,0.5702499)">
    <path
       style="fill:#11ab66"
       d="M 18,4.0011996 A 14,14 0 0 0 4,18.0012 14,14 0 0 0 8.289,28.0632 C 8.1098,28.4792 8,28.9392 8,29.4392 v 8.562 a 2,2 0 0 0 -2,2 2,2 0 0 0 2,2 v 9.36 c 0,1.682 1.15,3.038 2.5782,3.038 h 9.0546 l -3.3204,3.48 a 2.3388,1.41476 0 0 0 2.0274,2.122 h 21.324 a 2.3388,1.41476 0 0 0 2.336,-1.458 2.3388,1.41476 0 0 0 -0.312,-0.664 l -3.32,-3.48 h 9.054 c 1.428,0 2.578,-1.356 2.578,-3.038 v -6.786 l 2.292,1.516 5.586,3.696 a 1.41476,1.61912 0 0 0 2.122,-1.408 v -14.76 a 1.41476,1.61912 0 0 0 -1.458,-1.618 1.41476,1.61912 0 0 0 -0.664,0.218 l -5.586,3.688 -2.292,1.516 v -7.984 c 0,-0.494 -0.108,-0.952 -0.286,-1.364 a 14,14 0 0 0 4.286,-10.074 14,14 0 0 0 -14,-14.0000004 14,14 0 0 0 -10.992,5.3554 14,14 0 0 0 -11.008,-5.3554 z"
       id="path4" />
    <path
       style="opacity:0.2"
       d="m 17,11 c -3.8542,0 -7,3.1458 -7,7 0,3.854 3.1458,7 7,7 3.854,0 7,-3.146 7,-7 0,-3.8542 -3.146,-7 -7,-7 z m 24,0 c -3.854,0 -7,3.1458 -7,7 0,3.854 3.146,7 7,7 3.854,0 7,-3.146 7,-7 0,-3.8542 -3.146,-7 -7,-7 z m -24,2 c 2.774,0 5,2.2268 5,5 0,2.774 -2.226,5 -5,5 -2.7732,0 -5,-2.226 -5,-5 0,-2.7732 2.2268,-5 5,-5 z m 24,0 c 2.774,0 5,2.2268 5,5 0,2.774 -2.226,5 -5,5 -2.774,0 -5,-2.226 -5,-5 0,-2.7732 2.226,-5 5,-5 z"
       id="path6" />
    <path
       style="fill:#ffffff"
       d="m 17,10.0012 c -3.8542,0 -7,3.1458 -7,7 0,3.854 3.1458,7 7,7 3.854,0 7,-3.146 7,-7 0,-3.8542 -3.146,-7 -7,-7 z m 24,0 c -3.854,0 -7,3.1458 -7,7 0,3.854 3.146,7 7,7 3.854,0 7,-3.146 7,-7 0,-3.8542 -3.146,-7 -7,-7 z m -24,2 c 2.774,0 5,2.2268 5,5 0,2.774 -2.226,5 -5,5 -2.7732,0 -5,-2.226 -5,-5 0,-2.7732 2.2268,-5 5,-5 z m 24,0 c 2.774,0 5,2.2268 5,5 0,2.774 -2.226,5 -5,5 -2.774,0 -5,-2.226 -5,-5 0,-2.7732 2.226,-5 5,-5 z"
       id="path8" />
    <path
       style="opacity:0.2;fill:#ffffff"
       d="M 18,4.0019531 A 14,14 0 0 0 4,18.001953 14,14 0 0 0 4.0214844,18.408203 14,14 0 0 1 18,5 14,14 0 0 1 29.007812,10.355469 14,14 0 0 1 40,5 14,14 0 0 1 53.974609,18.505859 14,14 0 0 0 54,18.001953 14,14 0 0 0 40,4.0019531 14,14 0 0 0 29.007812,9.3574219 14,14 0 0 0 18,4.0019531 Z M 8.0664062,28.828125 C 8.0299856,29.025494 8,29.227388 8,29.439453 V 30.4375 c 0,-0.5 0.1098625,-0.959 0.2890625,-1.375 A 14,14 0 0 1 8.0664062,28.828125 Z m 41.8691408,0.0098 a 14,14 0 0 1 -0.222656,0.236328 C 49.890891,29.486219 50,29.9435 50,30.4375 v -0.998047 c 0,-0.208434 -0.02885,-0.406698 -0.06445,-0.601562 z m 8.605469,3.164062 A 1.41476,1.61912 0 0 0 57.876953,32.21875 L 52.291016,35.90625 50,37.423828 v 0.998047 l 2.291016,-1.515625 5.585937,-3.6875 A 1.41476,1.61912 0 0 1 58.541016,33 1.41476,1.61912 0 0 1 60,34.617188 V 33.619141 A 1.41476,1.61912 0 0 0 58.541016,32.001953 Z M 8,38.001953 a 2,2 0 0 0 -2,2 2,2 0 0 0 0.064453,0.496094 A 2,2 0 0 1 8,39 Z M 18.679688,55.398438 16.3125,57.878906 a 2.3388,1.41476 0 0 0 -0.162109,1.208985 2.3388,1.41476 0 0 1 0.162109,-0.208985 l 3.320312,-3.480468 z m 19.6875,0 3.320312,3.480468 A 2.3388,1.41476 0 0 1 41.847656,59.085938 2.3388,1.41476 0 0 0 42,58.542969 2.3388,1.41476 0 0 0 41.6875,57.878906 l -2.367188,-2.480468 z"
       id="path10" />
  </g>
</svg>
