<?xml version="1.0" encoding="UTF-8" standalone="no"?>
<svg
   xmlns:dc="http://purl.org/dc/elements/1.1/"
   xmlns:cc="http://creativecommons.org/ns#"
   xmlns:rdf="http://www.w3.org/1999/02/22-rdf-syntax-ns#"
   xmlns:svg="http://www.w3.org/2000/svg"
   xmlns="http://www.w3.org/2000/svg"
   xmlns:sodipodi="http://sodipodi.sourceforge.net/DTD/sodipodi-0.dtd"
   xmlns:inkscape="http://www.inkscape.org/namespaces/inkscape"
   width="64"
   height="64"
   version="1.1"
   id="svg30"
   sodipodi:docname="allegorithmic-Substance_Painter.svg"
   inkscape:version="1.0.1 (3bc2e813f5, 2020-09-07, custom)">
  <metadata
     id="metadata36">
    <rdf:RDF>
      <cc:Work
         rdf:about="">
        <dc:format>image/svg+xml</dc:format>
        <dc:type
           rdf:resource="http://purl.org/dc/dcmitype/StillImage" />
        <dc:title></dc:title>
      </cc:Work>
    </rdf:RDF>
  </metadata>
  <defs
     id="defs34" />
  <sodipodi:namedview
     pagecolor="#ffffff"
     bordercolor="#666666"
     borderopacity="1"
     objecttolerance="10"
     gridtolerance="10"
     guidetolerance="10"
     inkscape:pageopacity="0"
     inkscape:pageshadow="2"
     inkscape:window-width="1920"
     inkscape:window-height="935"
     id="namedview32"
     showgrid="false"
     inkscape:zoom="6.0546875"
     inkscape:cx="20.433195"
     inkscape:cy="52.99101"
     inkscape:window-x="0"
     inkscape:window-y="38"
     inkscape:window-maximized="1"
     inkscape:current-layer="svg30" />
  <g
     id="g871"
     transform="matrix(0.94827586,0,0,0.94827586,0.23275869,2.6034483)">
    <circle
       style="fill:#e2222f"
       cx="32.5"
       cy="5.5"
       r="3.5"
       id="circle10" />
    <circle
       style="fill:#e2222f"
       cx="32"
       cy="35"
       r="24"
       id="circle12" />
    <circle
       style="fill:#e2222f"
       cx="56.5"
       cy="54.5"
       r="5.5"
       id="circle14" />
    <circle
       style="fill:#e2222f"
       cx="7.5"
       cy="52.5"
       r="2.5"
       id="circle16" />
    <path
       style="opacity:0.2;fill:#ffffff"
       d="M 32.5,2 A 3.5,3.5 0 0 0 29,5.5 3.5,3.5 0 0 0 29.039,6.0059 3.5,3.5 0 0 1 32.5,3 3.5,3.5 0 0 1 35.961,5.9941 3.5,3.5 0 0 0 36,5.5 3.5,3.5 0 0 0 32.5,2 Z"
       id="path18" />
    <path
       style="opacity:0.2;fill:#ffffff"
       d="M 32,11 A 24,24 0 0 0 8,35 24,24 0 0 0 8.0215,35.582 24,24 0 0 1 32,12 24,24 0 0 1 55.979,35.418 24,24 0 0 0 56,35 24,24 0 0 0 32,11 Z"
       id="path20" />
    <path
       style="opacity:0.2;fill:#ffffff"
       d="M 56.5,49 A 5.5,5.5 0 0 0 51,54.5 5.5,5.5 0 0 0 51.025,54.986 5.5,5.5 0 0 1 56.5,50 5.5,5.5 0 0 1 61.975,55.014 5.5,5.5 0 0 0 62,54.5 5.5,5.5 0 0 0 56.5,49 Z"
       id="path22" />
    <path
       style="opacity:0.2;fill:#ffffff"
       d="M 7.5,50 A 2.5,2.5 0 0 0 5,52.5 2.5,2.5 0 0 0 5.0527,52.996 2.5,2.5 0 0 1 7.5,51 2.5,2.5 0 0 1 9.9473,53.004 2.5,2.5 0 0 0 10,52.5 2.5,2.5 0 0 0 7.5,50 Z"
       id="path24" />
    <path
       style="opacity:0.2"
       d="m 32,17 -16,9 v 8 l 23,8 -7,4 -9,-5 V 39 L 16,36.551 V 45 l 16,9 16,-9 v -8 l -23,-8 7,-4 9,5 v 2 l 7,2.502 V 26 Z"
       id="path26" />
    <path
       style="fill:#ffffff"
       d="m 32,16 -16,9 v 8 l 23,8 -7,4 -9,-5 V 38 L 16,35.551 V 44 l 16,9 16,-9 v -8 l -23,-8 7,-4 9,5 v 2 l 7,2.502 V 25 Z"
       id="path28" />
  </g>
</svg>
