<?xml version="1.0" encoding="UTF-8" standalone="no"?>
<svg
   xmlns:dc="http://purl.org/dc/elements/1.1/"
   xmlns:cc="http://creativecommons.org/ns#"
   xmlns:rdf="http://www.w3.org/1999/02/22-rdf-syntax-ns#"
   xmlns:svg="http://www.w3.org/2000/svg"
   xmlns="http://www.w3.org/2000/svg"
   xmlns:sodipodi="http://sodipodi.sourceforge.net/DTD/sodipodi-0.dtd"
   xmlns:inkscape="http://www.inkscape.org/namespaces/inkscape"
   width="64"
   height="64"
   version="1.1"
   id="svg12"
   sodipodi:docname="allegorithmic-Substance_Alchemist.svg"
   inkscape:version="1.0.1 (3bc2e813f5, 2020-09-07, custom)">
  <metadata
     id="metadata18">
    <rdf:RDF>
      <cc:Work
         rdf:about="">
        <dc:format>image/svg+xml</dc:format>
        <dc:type
           rdf:resource="http://purl.org/dc/dcmitype/StillImage" />
        <dc:title></dc:title>
      </cc:Work>
    </rdf:RDF>
  </metadata>
  <defs
     id="defs16" />
  <sodipodi:namedview
     pagecolor="#ffffff"
     bordercolor="#666666"
     borderopacity="1"
     objecttolerance="10"
     gridtolerance="10"
     guidetolerance="10"
     inkscape:pageopacity="0"
     inkscape:pageshadow="2"
     inkscape:window-width="1920"
     inkscape:window-height="935"
     id="namedview14"
     showgrid="false"
     inkscape:zoom="6.0546875"
     inkscape:cx="36.960684"
     inkscape:cy="39.161719"
     inkscape:window-x="0"
     inkscape:window-y="38"
     inkscape:window-maximized="1"
     inkscape:current-layer="svg12" />
  <g
     id="g846"
     transform="matrix(0.98827377,0,0,0.98827377,0.37518995,0.37523946)">
    <path
       style="fill:#ff8a18"
       d="M 32,7 A 3,3 0 0 0 29.402,8.498 L 4.5741,51.502 A 3,3 0 0 0 4.5761,54.5 H 4.578 A 3,3 0 0 0 7.1738,56 H 56.826 a 3,3 0 0 0 2.596,-1.5 h 0.002 a 3,3 0 0 0 0.002,-2.998 L 34.598,8.5 A 3,3 0 0 0 32,7.0019 Z"
       id="path4" />
    <path
       style="opacity:0.2;fill:#ffffff"
       d="M 32,7 A 3,3 0 0 0 29.402,8.498 L 4.5742,51.502 A 3,3 0 0 0 4.2188,53.506 3,3 0 0 1 4.5742,52.502 L 29.402,9.498 A 3,3 0 0 1 32,8 V 8.002 A 3,3 0 0 1 34.598,9.5 l 24.828,43.002 a 3,3 0 0 1 0.355,0.99 3,3 0 0 0 -0.355,-1.99 L 34.598,8.5 A 3,3 0 0 0 32,7.002 Z"
       id="path6" />
    <path
       style="fill:#ffffff"
       d="m 32,20 -16,9 v 8 l 23,8 -7,4 -9,-5 V 42 L 16,39.5 V 48 l 16,9 16,-9 v -8 l -23,-8 7,-4 9,5 v 2 l 7,2.5 V 29 Z"
       id="path10" />
  </g>
</svg>
