<?xml version="1.0" encoding="UTF-8" standalone="no"?>
<svg
   width="64"
   height="64"
   version="1.1"
   id="svg3"
   sodipodi:docname="allusion.svg"
   xml:space="preserve"
   inkscape:version="1.4.2 (ebf0e940d0, 2025-05-08)"
   xmlns:inkscape="http://www.inkscape.org/namespaces/inkscape"
   xmlns:sodipodi="http://sodipodi.sourceforge.net/DTD/sodipodi-0.dtd"
   xmlns:xlink="http://www.w3.org/1999/xlink"
   xmlns="http://www.w3.org/2000/svg"
   xmlns:svg="http://www.w3.org/2000/svg"><defs
     id="defs3"><linearGradient
       id="linearGradient3"
       inkscape:collect="always"><stop
         style="stop-color:#1574e5;stop-opacity:1"
         offset="0"
         id="stop3" /><stop
         style="stop-color:#78efa8;stop-opacity:1"
         offset="1"
         id="stop4" /></linearGradient><linearGradient
       inkscape:collect="always"
       xlink:href="#linearGradient3"
       id="linearGradient4"
       x1="3.6643994"
       y1="47.110691"
       x2="60.5"
       y2="44.581192"
       gradientUnits="userSpaceOnUse" /></defs><sodipodi:namedview
     id="namedview3"
     pagecolor="#505050"
     bordercolor="#eeeeee"
     borderopacity="1"
     inkscape:showpageshadow="0"
     inkscape:pageopacity="0"
     inkscape:pagecheckerboard="0"
     inkscape:deskcolor="#505050"
     inkscape:zoom="3.0195313"
     inkscape:cx="65.407503"
     inkscape:cy="-40.238034"
     inkscape:window-width="1920"
     inkscape:window-height="996"
     inkscape:window-x="0"
     inkscape:window-y="0"
     inkscape:window-maximized="1"
     inkscape:current-layer="svg3" /><path
     style="fill:url(#linearGradient4);stroke-width:1.01786;fill-opacity:1"
     d="m 3.6643993,47.110692 c 0.6858803,3.756011 1.42089,8.809089 7.1044507,8.809089 7.104449,0 9.94623,-5.059027 18.47157,-5.059027 8.525341,0 9.94623,5.058751 18.47157,5.058751 4.262671,0 12.78801,-5.44523 12.78801,-11.338313 0,-8.809089 -9.736145,-8.435572 -11.751161,-14.681819 -1.42089,-4.404546 1.804932,-21.8191545 -8.141298,-21.8191545 -8.525341,0 -11.367121,11.5418825 -14.208901,17.4146085 -3.525284,7.285235 -12.78801,8.809094 -19.8924607,13.213639 -2.5686194,1.592467 -3.3971896,5.360695 -2.84178,8.402226 z"
     id="path2" /><path
     style="opacity:0.2;fill:#ffffff;stroke-width:1.01786"
     d="m 40.608049,8.0802185 c -8.52534,0 -11.368458,11.5421725 -14.210239,17.4148995 C 22.872527,32.780352 13.610311,34.304823 6.5058594,38.709369 4.3267783,40.060333 3.4117567,42.974638 3.51988,45.685268 3.6540893,43.291711 4.5984733,40.907759 6.5058594,39.725239 13.610311,35.320692 22.872527,33.798208 26.39781,26.512975 29.239591,20.640249 32.082709,9.0980756 40.608049,9.0980756 c 9.946231,0 6.71998,17.4137794 8.14087,21.8183254 1.957528,6.068041 11.19935,5.890543 11.725237,13.951799 C 60.478634,44.772365 60.5,44.678024 60.5,44.581927 60.5,35.772837 50.763935,36.14479 48.748919,29.898544 47.328029,25.493998 50.55428,8.0802185 40.608049,8.0802185 Z"
     id="path3" /></svg>
