<?xml version="1.0" encoding="UTF-8" standalone="no"?>
<svg
   width="64"
   height="64"
   version="1.1"
   id="svg8"
   sodipodi:docname="among-us.svg"
   inkscape:version="1.4 (e7c3feb100, 2024-10-09)"
   xmlns:inkscape="http://www.inkscape.org/namespaces/inkscape"
   xmlns:sodipodi="http://sodipodi.sourceforge.net/DTD/sodipodi-0.dtd"
   xmlns="http://www.w3.org/2000/svg"
   xmlns:svg="http://www.w3.org/2000/svg">
  <defs
     id="defs8" />
  <sodipodi:namedview
     id="namedview8"
     pagecolor="#505050"
     bordercolor="#eeeeee"
     borderopacity="1"
     inkscape:showpageshadow="0"
     inkscape:pageopacity="0"
     inkscape:pagecheckerboard="0"
     inkscape:deskcolor="#505050"
     inkscape:zoom="4.5625"
     inkscape:cx="12.054795"
     inkscape:cy="48.876712"
     inkscape:window-width="2560"
     inkscape:window-height="1411"
     inkscape:window-x="0"
     inkscape:window-y="0"
     inkscape:window-maximized="1"
     inkscape:current-layer="svg8" />
  <rect
     width="57"
     height="57"
     x="3.5"
     y="3.5"
     fill="#ffcc00"
     fill-rule="evenodd"
     rx="8.7708244"
     ry="8.7708244"
     id="rect1-3"
     style="stroke-width:4.14304" />
  <path
     fill="#f2fbfc"
     d="m 13.777,29.761 c -1.627,-2.84 3.236,-3.531 5.16,-3.928 1.956,-0.228 5.49,-0.868 5.764,1.93 -0.806,3.914 -5.438,2.372 -9.215,2.444 -0.4,-0.07 -1.472,0.004 -1.709,-0.446"
     id="path1" />
  <path
     fill="#72d7f0"
     d="m 19.493,33.666 c -3.565,-0.244 -7.912,1.16 -9.115,-2.81 0.75,-4.202 4.849,-5.978 8.492,-5.783 3.226,-0.107 6.798,-0.447 9.924,0.568 2.416,1.629 1.496,5.595 -0.642,6.877 -2.035,1.506 -3.634,1.27 -6.255,1.195 L 20.455,33.627 Z M 17.64,29.848 c 2.243,-0.594 6.169,0.683 7.063,-2.085 -0.276,-2.798 -3.81,-2.157 -5.765,-1.93 -2.04,0.31 -6.991,1.429 -4.682,4.164 q 1.693,-0.058 3.384,-0.149"
     id="path2" />
  <path
     id="path3"
     d="M 28.382812 15.501953 C 25.532812 15.889953 22.886734 17.218391 20.427734 18.650391 C 20.034734 19.326391 16.487578 21.718797 18.517578 21.341797 C 20.177848 21.321806 21.708479 21.380107 23.126953 21.5 C 21.877964 21.338384 20.621739 21.232372 19.363281 21.183594 C 16.391281 21.871594 19.858141 19.568969 20.619141 18.667969 C 22.701141 17.396969 24.998328 16.374625 27.361328 15.765625 C 29.615328 15.492625 31.931219 15.633281 34.199219 15.738281 C 36.663219 16.168281 39.163453 17.507563 40.439453 19.726562 L 34.708984 25.449219 C 41.925984 31.920219 32.698625 43.559047 18.515625 41.623047 L 13.388672 46.744141 C 12.737672 44.679141 13.042078 42.500344 13.330078 40.402344 C 13.458078 40.429344 13.585891 40.450563 13.712891 40.476562 C 13.554891 40.422562 13.397281 40.375359 13.238281 40.318359 C 12.805281 43.551359 12.701109 46.838516 12.662109 50.103516 C 12.562939 52.869722 12.716209 57.064003 13.341797 60.5 L 44.146484 60.5 C 44.498811 57.714857 44.843812 54.109146 44.945312 52.183594 C 45.065312 45.242594 44.409109 38.234875 44.412109 31.296875 C 43.837109 28.863875 43.230547 26.553266 42.810547 24.072266 C 41.977547 21.129266 40.337781 18.043516 37.300781 16.728516 C 34.620781 15.054516 31.382813 15.655953 28.382812 15.501953 z M 13.712891 40.476562 C 15.273876 41.01041 16.881861 41.393959 18.515625 41.623047 L 19.228516 40.912109 C 17.379003 40.989279 15.527313 40.843343 13.712891 40.476562 z M 19.228516 40.912109 C 30.064516 40.436109 37.471844 32.138359 33.714844 26.443359 L 19.228516 40.912109 z M 33.714844 26.443359 L 34.708984 25.449219 C 32.499248 23.469455 28.74879 21.974187 23.128906 21.5 C 28.835714 22.256171 32.192018 24.134624 33.714844 26.443359 z M 48.074219 32.484375 C 47.534219 32.507375 47.091609 32.610922 46.849609 32.794922 C 46.880609 33.098922 46.901688 33.410797 46.929688 33.716797 C 47.031687 32.271797 50.017141 33.209984 51.119141 33.083984 C 50.185141 32.641984 48.994172 32.444375 48.076172 32.484375 L 48.074219 32.484375 z M 51.119141 33.083984 L 51.242188 33.144531 C 51.218187 33.125531 51.196828 33.099984 51.173828 33.083984 C 51.158828 33.084984 51.133141 33.080984 51.119141 33.083984 z M 51.242188 33.144531 C 51.762188 33.554531 52.279359 34.341359 52.693359 35.193359 C 52.653359 34.973359 52.614313 34.75625 52.570312 34.53125 C 52.407313 33.93725 51.896188 33.478531 51.242188 33.144531 z M 46.966797 34.115234 C 47.526797 40.565234 47.439859 47.553406 47.130859 53.941406 C 47.28687 55.161743 46.638929 58.273982 46.529297 60.5 L 51.728516 60.5 C 52.427465 60.5 53.104933 60.41087 53.755859 60.257812 C 54.279377 56.642544 54.023137 50.562643 54.019531 47.521484 C 53.886531 44.346484 53.664047 41.503641 53.248047 38.556641 C 53.146302 38.587969 53.017604 38.575509 52.853516 38.503906 L 51.666016 37.986328 C 50.800016 37.609328 50.649547 37.465734 49.560547 37.427734 C 47.238547 38.026734 47.011703 36.442016 47.095703 34.541016 C 47.042213 34.402406 46.999187 34.260232 46.966797 34.115234 z M 53.248047 38.556641 L 53.25 38.556641 C 53.818371 38.371982 53.420159 36.691417 52.693359 35.197266 C 52.911037 36.345908 53.092221 37.460862 53.248047 38.556641 z "
     style="fill:#880832;fill-opacity:1" />
  <path
     fill="#ef1615"
     d="m 22.734,56.484 c -3.345,-0.293 -6.77,-2.068 -8.007,-5.338 -1.145,-3.02 -2.638,-6.703 -2.05,-9.958 -0.114,-2.501 3.628,-0.253 5.229,-0.508 2.89,0.659 5.618,0.761 8.507,0.232 2.677,-0.877 5.497,-1.169 7.016,-3.828 1.451,-2.039 2.385,-4.536 2.07,-7.081 0.427,-2.933 -1.352,-4.6 -3.527,-6.338 -2.54,-1.61 -5.3,-1.682 -8.212,-1.86 -1.852,-0.117 -5.635,0.41 -6.974,0.28 1.583,-1.708 4.264,-5.011 6.506,-5.775 1.926,-0.894 4.586,-1.683 6.745,-1.484 2.668,-0.018 5.782,0.138 8.1,1.708 2.295,1.073 4.084,3.573 4.225,6.03 0.58,3.23 0.09,6.696 0.335,9.963 -0.04,5.667 -1.81,11.44 -3.75,16.743 -1.07,2.151 -1.823,4.782 -4.146,5.953 -2.402,0.814 -4.897,1.224 -7.434,1.29 -1.542,0.035 -3.096,0.138 -4.633,-0.029 M 52.303,38.531 c -1.67,-1.692 -5.52,0.902 -5.237,-3.127 -0.397,-1.66 0.094,-3.524 2.117,-2.72 2.695,-0.624 4.188,3.293 3.568,5.69 0.19,0.247 -0.2,0.85 -0.448,0.157"
     id="path4" />
  <path
     fill="#225584"
     d="m 21.09,39.095 c -2.823,-0.012 -5.6,-1.01 -8.179,-2.169 -2.177,-1.324 -3.532,-4.254 -2.537,-6.833 1.5,-3.591 5.62,-5.491 9.361,-5.353 3.412,-0.122 6.984,-0.382 10.29,0.625 2.863,0.55 3.305,4.188 2.829,6.52 -0.223,2.853 -2.449,5.425 -4.98,6.497 -1.917,0.742 -3.514,0.727 -5.545,0.718 z m 2.42,-5.574 c 2.51,0.044 5.113,-0.877 6.093,-3.399 1.298,-2.504 -1.283,-5.28 -4.105,-4.969 -3.321,-0.204 -6.042,-0.264 -9.316,0.367 -2.435,0.756 -4.67,2.422 -5.6,4.854 0.188,3.103 3.913,2.6 6.11,2.914 2.268,0.15 4.545,0.364 6.819,0.233"
     id="path5" />
  <path
     id="path6"
     style="fill:#333333"
     d="M 27.398438 11.667969 C 23.203287 11.678746 19.625835 14.178285 16.570312 16.796875 C 14.481312 18.458875 12.953656 20.690156 12.347656 23.285156 C 8.8746563 25.595156 6.5709844 29.922094 7.2089844 34.121094 C 7.3189844 36.083094 8.8125781 37.748125 9.7675781 39.078125 C 9.6486422 44.730619 9.2793964 53.701177 9.9433594 60.181641 C 10.684858 60.384058 11.464075 60.5 12.271484 60.5 L 13.570312 60.5 C 13.270839 58.262216 12.878991 55.793356 12.943359 55.017578 C 12.373359 50.213578 12.778828 45.331391 13.173828 40.525391 C 14.638828 40.425391 16.851125 41.725344 18.703125 41.777344 C 22.537125 42.282344 26.542281 41.849594 30.113281 40.308594 C 33.069281 39.578594 34.604609 36.713625 35.724609 34.140625 C 36.232609 31.933625 36.411828 29.407187 35.673828 27.242188 C 34.540828 25.065188 32.979125 23.055469 30.578125 22.230469 C 26.646125 21.250469 22.538578 21.315797 18.517578 21.341797 C 16.485578 21.718797 20.033734 19.326391 20.427734 18.650391 C 22.887734 17.218391 25.531813 15.889953 28.382812 15.501953 C 31.208813 15.657953 34.213453 15.099891 36.814453 16.462891 C 39.937453 17.639891 41.362328 20.889141 42.236328 23.869141 C 42.756328 26.509141 43.252391 29.144188 43.900391 31.742188 C 43.888391 38.451188 44.14725 45.163953 44.03125 51.876953 C 43.940832 53.726934 44.036898 57.369781 44 60.5 L 47.310547 60.5 C 47.614662 53.851665 47.803948 45.371397 47.630859 39.726562 C 47.724859 37.569563 46.909375 35.019516 47.359375 33.103516 C 50.099375 32.598516 52.953109 33.890047 52.662109 36.998047 C 53.202109 42.468047 53.626203 47.986422 53.283203 53.482422 C 53.034621 54.68306 53.124753 57.849022 52.904297 60.414062 C 54.248521 60.235214 55.494375 59.760009 56.572266 59.046875 C 57.016788 55.064752 56.974308 48.811954 56.722656 45.732422 C 56.335656 41.263422 56.335141 36.641625 54.744141 32.390625 C 53.720141 30.046625 50.667297 30.286359 48.529297 29.818359 C 46.559297 29.372359 46.370625 28.062109 46.140625 26.412109 C 45.805625 23.484109 44.649406 20.775953 43.441406 18.126953 C 42.236406 15.150953 39.509687 13.157094 36.554688 12.121094 C 33.570323 11.471232 30.444777 11.754792 27.400391 11.667969 L 27.398438 11.667969 z M 24.675781 24.869141 C 27.073781 25.062141 29.925062 25.119953 31.789062 26.751953 C 33.289062 28.754953 32.890875 31.638984 32.171875 33.833984 C 30.898875 36.763984 27.806844 38.554344 24.714844 38.902344 C 22.321844 39.113344 19.848937 39.022578 17.585938 38.142578 C 15.055938 37.697578 12.532141 36.68525 10.994141 34.53125 C 9.2711406 32.09625 10.567172 28.742531 12.826172 27.144531 C 16.112172 24.311531 20.677781 24.990141 24.675781 24.869141 z " />
</svg>
