<?xml version="1.0" encoding="UTF-8"?>
<svg width="64" height="64" version="1.1" viewBox="0 0 16.933 16.933" xmlns="http://www.w3.org/2000/svg" xmlns:cc="http://creativecommons.org/ns#" xmlns:dc="http://purl.org/dc/elements/1.1/" xmlns:rdf="http://www.w3.org/1999/02/22-rdf-syntax-ns#">
 <defs>
  <linearGradient id="linearGradient1005-3" x1="3.7292" x2="12.359" y1="13.306" y2="4.676" gradientTransform="matrix(.99999 0 0 .99999 1.6091 2.0289)" gradientUnits="userSpaceOnUse">
   <stop stop-color="#232223" offset="0"/>
   <stop stop-color="#49484d" offset="1"/>
  </linearGradient>
  <linearGradient id="linearGradient1047" x1="149.02" x2="149.02" y1="59.192" y2="25.95" gradientTransform="matrix(.26458 0 0 .26458 -29.264 2.6988)" gradientUnits="userSpaceOnUse">
   <stop stop-color="#16a085" offset="0"/>
   <stop stop-color="#2ecc85" offset="1"/>
  </linearGradient>
 </defs>
 <metadata>
  <rdf:RDF>
   <cc:Work rdf:about="">
    <dc:format>image/svg+xml</dc:format>
    <dc:type rdf:resource="http://purl.org/dc/dcmitype/StillImage"/>
    <dc:title/>
   </cc:Work>
  </rdf:RDF>
 </metadata>
 <g transform="translate(-1.6442 -2.0222)">
  <path d="m18.048 10.489c0 0.95155-0.16749 1.8638-0.47464 2.7093-0.2135 0.58769-0.49437 1.1433-0.83391 1.6572-0.14222 0.21608-0.29514 0.42476-0.45746 0.62529-0.51964 0.6418-1.1372 1.2007-1.8305 1.6543-0.2553 0.16717-0.52065 0.32009-0.79536 0.45712-1.0668 0.53388-2.2711 0.8342-3.5457 0.8342-1.2745 0-2.4788-0.30033-3.5457-0.83423-0.27474-0.13705-0.54041-0.28996-0.79571-0.45712-0.70207-0.45971-1.327-1.0274-1.8509-1.6798-0.16262-0.20216-0.31522-0.41275-0.45746-0.63077-0.33046-0.50538-0.6042-1.0507-0.81349-1.627-0.3071-0.84529-0.47429-1.7573-0.47429-2.7085 0-4.3839 3.5536-7.9375 7.9375-7.9375 2.2005 0 4.1915 0.89548 5.6295 2.3417 0.41436 0.41661 0.78274 0.87929 1.0963 1.3795 0.29644 0.47106 0.54427 0.97581 0.73705 1.5068 0.30718 0.84558 0.47466 1.7579 0.47466 2.7093z" fill="url(#linearGradient1005-3)" stroke-width=".031006"/>
  <g stroke-width=".26458">
   <path d="m13.418 9.5406c-0.11843 0.0082-0.23042 0.073406-0.29456 0.18448l-1.295 2.2428c-0.50969-0.13179-1.0775-0.20929-1.7182-0.20929-0.64077 0-1.2085 0.0775-1.7182 0.20929l-1.294-2.2428c-0.076954-0.13331-0.22365-0.20038-0.3669-0.18242-0.047749 0.0059267-0.095096 0.021503-0.13953 0.047024-0.17772 0.10261-0.238 0.32819-0.13539 0.50591l1.2175 2.1089c-1.9321 0.7982-2.7451 2.4906-3.1279 3.9166 0.080288 0.07935 0.14843 0.17061 0.23203 0.2465 0.30948 0.28094 0.64114 0.53753 0.99219 0.7674 0.2553 0.16716 0.52107 0.32028 0.79581 0.45733 0.53345 0.26696 1.1012 0.47519 1.695 0.61701 0.59375 0.14182 1.2133 0.21704 1.8505 0.21704 0.6373 0 1.2568-0.07522 1.8505-0.21704 0.59375-0.14182 1.1616-0.35007 1.695-0.61701 0.27472-0.13703 0.54002-0.29017 0.79531-0.45733 0.34666-0.2268 0.67482-0.4799 0.98081-0.75655 0.08722-0.07885 0.15873-0.17319 0.24236-0.2558-0.38277-1.4265-1.1949-3.1192-3.1274-3.9182l1.2175-2.1089c0.1026-0.17773 0.041809-0.4033-0.13591-0.50591-0.066643-0.038476-0.1403-0.054015-0.21136-0.049094zm-5.5422 5.1816a0.74083 0.74083 0 0 1 0.00982 0 0.74083 0.74083 0 0 1 0.74104 0.74052 0.74083 0.74083 0 0 1-0.74104 0.74104 0.74083 0.74083 0 0 1-0.74104-0.74104 0.74083 0.74083 0 0 1 0.73123-0.74052zm4.4453 0a0.74083 0.74083 0 0 1 0.0098 0 0.74083 0.74083 0 0 1 0.74052 0.74052 0.74083 0.74083 0 0 1-0.74052 0.74104 0.74083 0.74083 0 0 1-0.74104-0.74104 0.74083 0.74083 0 0 1 0.73123-0.74052zm-2.2128 2.5926c0.84087 0 1.5177 0.16531 1.5177 0.37052 0 0.20521-0.67688 0.37052-1.5177 0.37052-0.84085 0-1.5177-0.16531-1.5177-0.37052 0-0.20521 0.67688-0.37052 1.5177-0.37052z" fill="url(#linearGradient1047)"/>
   <rect x="7.6712" y="6.0713" width=".96864" height="2.6548" ry=".48432" fill="#2ecc85" fill-rule="evenodd" style="paint-order:stroke fill markers"/>
   <rect x="11.582" y="6.0713" width=".96864" height="2.6548" ry=".48432" fill="#2ecc85" fill-rule="evenodd" style="paint-order:stroke fill markers"/>
  </g>
 </g>
</svg>
