<?xml version="1.0" encoding="UTF-8"?>
<svg width="64" height="64" version="1.1" viewBox="0 0 16.933 16.933" xmlns="http://www.w3.org/2000/svg" xmlns:cc="http://creativecommons.org/ns#" xmlns:dc="http://purl.org/dc/elements/1.1/" xmlns:rdf="http://www.w3.org/1999/02/22-rdf-syntax-ns#">
 <defs>
  <linearGradient id="linearGradient1005-7" x1="12.27" x2="4.5684" y1="12.966" y2="5.7063" gradientTransform="matrix(.91665 0 0 .91665 2.1757 .23362)" gradientUnits="userSpaceOnUse">
   <stop stop-color="#1cd664" offset="0"/>
   <stop stop-color="#18d862" offset="1"/>
  </linearGradient>
 </defs>
 <metadata>
  <rdf:RDF>
   <cc:Work rdf:about="">
    <dc:format>image/svg+xml</dc:format>
    <dc:type rdf:resource="http://purl.org/dc/dcmitype/StillImage"/>
    <dc:title/>
   </cc:Work>
  </rdf:RDF>
 </metadata>
 <g transform="translate(-1.5025 -.22679)">
  <path d="m17.245 7.9885c0 0.87225-0.15353 1.7085-0.43508 2.4836-0.19571 0.53872-0.45318 1.048-0.76441 1.5191-0.13037 0.19807-0.27054 0.38936-0.41934 0.57319-0.47633 0.58833-1.0424 1.1006-1.6779 1.5164-0.23402 0.15324-0.47726 0.29342-0.72909 0.41902-0.9779 0.48937-2.0818 0.7647-3.2501 0.7647-1.1683 0-2.2722-0.2753-3.2501-0.7647-0.25185-0.12563-0.49538-0.2658-0.7294-0.41902-0.64357-0.4214-1.2164-0.94176-1.6966-1.5398-0.14907-0.18531-0.28895-0.37835-0.41934-0.57819-0.30292-0.46326-0.55385-0.96314-0.7457-1.4914-0.28152-0.77486-0.43476-1.6108-0.43476-2.4828 0-4.0185 3.2575-7.276 7.276-7.276 2.0171 0 3.8423 0.82087 5.1604 2.1465 0.37984 0.3819 0.71752 0.80603 1.0049 1.2645 0.27173 0.4318 0.49892 0.8945 0.67564 1.3812 0.28157 0.77512 0.43511 1.6114 0.43511 2.4836z" fill="url(#linearGradient1005-7)" stroke-width=".028422"/>
  <g stroke-width=".28466">
   <path d="m9.4693 5.6835-1.0683 0.61676 5.5507 9.6143 1.1509 0.75986-0.082607-1.3766z" fill="#fff"/>
   <path d="m14.281 7.6571c0 1.6481-0.48974 2.039-1.0858 2.7355-0.30804 0.35492-0.66968 0.65627-1.0848 0.88394-0.56253 0.31475-1.4177 0.48888-2.1075 0.48888-0.68974 0-1.3393-0.18083-1.8951-0.48888-0.40551-0.32662-1.2278 0.90689-0.68303 1.0686 0.76342 0.42859 1.6474 0.66062 2.5849 0.66062 0.93752 0 2.0271-0.23202 2.7905-0.66062 0.4085-0.22766 0.78348-0.5089 1.1116-0.83037 0.99109-0.96433 1.6139-2.3575 1.6139-3.851-0.42284-0.00411-0.86965 0-1.2446-0.00411z" fill="#f0f0f0"/>
   <path d="m10.046 5.6835 1.0683 0.61676-5.5507 9.6143-1.1509 0.75986 0.08261-1.3766z" fill="#f0f0f0"/>
   <path d="m11.038 5.6012h-0.45797v-1.2336h-1.6447v1.2336h-0.46466c-0.42119 0-0.76885 0.34806-0.76885 0.76444v2.0129h0.00669c-0.00669 0.066116 0.033417 0.13885 0.12034 0.22475l1.5444 1.3622c0.10697 0.10575 0.24737 0.15863 0.38108 0.15863v-0.0066l0.00669 0.0066c0.1404 0 0.2808-0.05288 0.38108-0.15863l1.5444-1.3622c0.08691-0.085895 0.12034-0.16525 0.12034-0.22475h0.0067v-2.0063c-0.006703-0.42298-0.34768-0.77107-0.77556-0.77107z" fill="#323232"/>
   <path d="m9.7608 8.0684h-0.00536c-0.45003 0-0.81967-0.36602-0.81967-0.81688 0-0.45088 0.36964-0.8169 0.81967-0.8169v-0.010689l0.00536 0.010689c0.45003 0.00535 0.81967 0.36602 0.81967 0.8169 0 0.45085-0.36964 0.81158-0.81967 0.81688z" fill="#1bd763"/>
  </g>
 </g>
</svg>
