<?xml version="1.0" encoding="UTF-8"?>
<svg width="64" height="64" version="1" xmlns="http://www.w3.org/2000/svg" xmlns:cc="http://creativecommons.org/ns#" xmlns:dc="http://purl.org/dc/elements/1.1/" xmlns:rdf="http://www.w3.org/1999/02/22-rdf-syntax-ns#" xmlns:xlink="http://www.w3.org/1999/xlink">
 <metadata>
  <rdf:RDF>
   <cc:Work rdf:about="">
    <dc:format>image/svg+xml</dc:format>
    <dc:type rdf:resource="http://purl.org/dc/dcmitype/StillImage"/>
    <dc:title/>
   </cc:Work>
  </rdf:RDF>
 </metadata>
 <g transform="matrix(1.0714 0 0 1.0714 -1.75 -2.2857)">
  <path d="m31.653 4.0019c-1.1869-0.028265-2.3588 0.26559-3.3873 0.84938l-19.032 10.816c-2.0015 1.1374-3.2345 3.2396-3.2343 5.5146v21.634c-1e-6 2.2747 1.2328 4.3767 3.234 5.514l19.572 5.9084c2.0012 1.1374 4.4668 1.1374 6.468 0l12.445-7.2956c2.0015-1.1374 3.2345-3.2396 3.2343-5.5146l6.0467-20.247c1.45e-4 -2.275-1.2328-4.3772-3.2343-5.5146l-19.032-10.816c-0.93862-0.5327-1.9981-0.82476-3.0813-0.84938z" fill="#17c7e1"/>
  <path d="m56.447 18.615-49.132 28.033a6.468 6.367 0 0 0 1.9202 1.6816l19.031 10.817a6.468 6.367 0 0 0 6.4691 0l19.031-10.817a6.468 6.367 0 0 0 3.2345-5.5125v-21.634a6.468 6.367 0 0 0-0.55338-2.5676z" fill="#546bdc"/>
  <path d="m56.447 18.615-49.133 28.033a6.468 6.367 0 0 0 0.59375 0.66211l48.539-27.695a6.468 6.367 0 0 1 0.55273 2.5684v-1a6.468 6.367 0 0 0-0.55273-2.5684z" opacity=".1"/>
  <path d="m31.652 4.002c-1.1862-0.027895-2.3588 0.26615-3.3867 0.84961l-19.031 10.816c-2.0015 1.1374-3.2345 3.2387-3.2344 5.5137v1c-1.459e-4 -2.275 1.2329-4.3763 3.2344-5.5137l19.031-10.816c1.0279-0.58346 2.2005-0.8775 3.3867-0.84961h2e-3c1.0825 0.024922 2.142 0.31723 3.0801 0.84961l19.031 10.816c1.2105 0.68787 2.1323 1.7307 2.6777 2.9492l0.0039-2e-3a6.468 6.367 0 0 1 0.0332 0.07227 6.468 6.367 0 0 1 0.0059 0.01563c0.03295 0.07672 0.05798 0.15634 0.08789 0.23438a6.468 6.367 0 0 1 0.16211 0.4707c0.02819 0.09557 0.05251 0.19201 0.07617 0.28906a6.468 6.367 0 0 1 0.09375 0.46094c0.01552 0.09369 0.03364 0.18656 0.04492 0.28125a6.468 6.367 0 0 1 0.048755 0.73636v-0.99219a6.468 6.367 0 0 0 0-2e-3c0-2e-3 2e-6 -0.0039 0-0.0059a6.468 6.367 0 0 0-0.04883-0.73633c-0.01128-0.09469-0.0294-0.18756-0.04492-0.28125a6.468 6.367 0 0 0-0.09375-0.46085c-0.02366-0.09705-0.04798-0.1935-0.07617-0.28906a6.468 6.367 0 0 0-0.16211-0.4707c-0.02991-0.07803-0.05494-0.15766-0.08789-0.23438a6.468 6.367 0 0 0-0.0059-0.01563 6.468 6.367 0 0 0-0.0332-0.07227l-0.0039 2e-3c-0.54547-1.2185-1.4672-2.2614-2.6777-2.9493l-19.031-10.816c-0.93806-0.53238-1.9976-0.82469-3.0801-0.84961z" fill="#fff" opacity=".2"/>
 </g>
</svg>
