<?xml version="1.0" encoding="UTF-8"?>
<svg width="64" height="64" version="1" xmlns="http://www.w3.org/2000/svg" xmlns:cc="http://creativecommons.org/ns#" xmlns:dc="http://purl.org/dc/elements/1.1/" xmlns:rdf="http://www.w3.org/1999/02/22-rdf-syntax-ns#">
 <metadata>
  <rdf:RDF>
   <cc:Work rdf:about="">
    <dc:format>image/svg+xml</dc:format>
    <dc:type rdf:resource="http://purl.org/dc/dcmitype/StillImage"/>
    <dc:title/>
   </cc:Work>
  </rdf:RDF>
 </metadata>
 <defs>
  <linearGradient id="linearGradient873" x1="-48.646" x2="-32.772" y1="-6.3007" y2="9.574" gradientTransform="matrix(3.4646 0 0 3.4646 173.04 26.329)" gradientUnits="userSpaceOnUse">
   <stop stop-color="#28afea" offset="0"/>
   <stop stop-color="#838be4" offset="1"/>
  </linearGradient>
 </defs>
 <rect x="4.5" y="4.5" width="55" height="55" ry="2.7499" fill="url(#linearGradient873)" stroke-width="3.4646"/>
 <path d="m29.819 53.842c-1.681-0.43907 0.73929-2.7304 0.14696-4.0557-0.19684-1.8524 0.68675-4.9005-1.5814-5.7252-1.9666 0.22554-2.6975 2.323-3.9201 3.6809-0.86751 0.99765 1.0401-1.8685-0.54171-0.91088-1.307 0.4673-1.8429 0.18946-0.23293-0.19862 1.2044 0.0142 1.9274-1.2951 0.80486-1.4732 1.0928-1.0147 5.2893-1.3389 3.1401-3.4041-0.52335-1.1195-2.0837-2.672-2.7786-0.96583-1.3122 0.15178-1.5204 3.7817-2.3073 2.5315-0.77691 1.5021-0.94457 3.3061-2.6697 4.0791 0.17965-0.22888 2.1334-2.6584 1.4685-3.333-0.90369 1.0474-1.5203 0.23656-2.4758 0.86282 1.226-0.96481 3.8373-1.3979 3.6943-3.1947-1.2733-0.52679-2.8155 2.6289-3.2526 1.5556 0.11575-1.1061-3.0822 2.5153-1.9926 0.72367-2.0709 0.12818 2.0172-1.1132 1.8093-1.7589 1.3363-1.0488 4.1852-0.39941 4.6998-2.105-1.8745-0.99572-4.1819-0.8525-5.753 0.6318-0.48629 0.29965-2.0998 1.3885-1.0064 0.2304-3.1266 0.20591 3.4779-1.0351 0.24943-1.2128-0.10433 0.08235 3.6024-0.73186 1.417-1.4083-1.6456-1.0552-4.646-0.33645-5.6947-0.98132 0.92908-0.32789 3.7637 0.24458 1.6505-0.89933-1.5485-0.96266 1.5502 0.51369 2.0173 0.65328 0.80674 0.46108 2.4365 0.70462 1.048-0.41741-1.0014-1.4024 1.6558 1.6547 2.488 1.6525 1.2362-0.0924 3.9295 0.09248 4.4059-0.78089-1.5182-1.6162-3.7596-2.2876-5.6774-3.3127-2.1205-0.0993-4.2908 0.3851-6.4426 0.65378-0.22193-0.7495 2.8903-0.6402 3.8669-0.90808 0.63174-0.95785-2.8022-1.4313-3.8861-1.5446-0.9324 0.23011-0.97314-0.80551-0.9629-0.77082 1.1416 0.31845 5.0906 1.5045 2.5367-0.46935 0.28977-1.4497-4.4638-3.0897-1.2632-2.1098-0.45192-0.63971-1.2811-2.1755 0.02812-0.83881 1.2445 1.5905 2.272 3.5912 4.0732 4.6005 0.68907 0.52682 3.1925 1.0344 1.4224-0.18682-1.4583-0.72109-1.4125-1.6425-2.5737-2.7482 1.8956 0.61906 2.637 2.7547 4.2146 3.8608 1.5565 0.39604 2.943 2.0448 4.3306 2.1981-0.60619-2.1191-3.072-2.4095-4.5101-3.7878-0.96-0.49606-1.6135-0.85134-0.1747-0.53975 1.3196 0.44797 2.0899 1.6231 3.6713 2.0984-1.4253-1.5141-3.0933-3.3293-5.1061-3.9319-1.3726-0.09104-4.3899-1.3531-4.5145-1.8002 1.2207 0.36036 4.4054 2.1943 4.6891 0.84112-0.50696-1.1655-2.9651-1.5914-2.9828-2.1983 0.90214 0.58329 2.2312 0.54486 0.70773-0.40711-0.83289-0.47452-2.8551-2.1728-0.83524-1.0012 2.0461 1.3205-2.1891-3.0213-0.12172-1.061 0.88037 0.75194 2.5117 3.2581 2.8556 2.8952-0.44235-0.91917-1.1732-3.2295-0.16299-1.1043 0.84154 2.2459 2.1703 4.365 4.2575 5.6393-0.05004-1.4887-1.6353-3.2257-2.6698-4.5681-0.74824-0.87073-1.4964-2.532-0.16119-0.81679 0.31513 1.0887 1.8675 2.091 0.82563 0.3955-0.62712-1.5104-3.0592-2.7891-3.2417-3.8991 1.1678 1.3034 0.3313-0.65019 0.73349-0.21409 0.0943 1.129 2.0532 2.9416 1.7534 1.7831 0.42894 0.76612 1.3599 1.7169 0.64584 0.14616-0.57236-1.1109-0.59737-2.0465 0.11246-0.43505 0.31463 2.4916 2.7853 3.6743 4.2979 5.4175 0.62581 0.77474 2.1795 1.753 1.0148 0.15004-0.57943-1.5843-3.3002-3.1979-3.5551-3.9819 0.66417 0.73068 2.6819 1.8503 1.1729 0.11988-1.6024-1.675-3.148-3.4676-5.2117-4.5822-1.0116-0.55376-1.5102-1.5634-0.12785-0.41276 1.9071 1.3169-2.6966-3.1773-0.75773-1.7237 1.7377 1.5214 3.0346 3.5061 4.9588 4.8277 1.6708 0.88138-0.40865-2.136-0.9925-2.5926-0.80293-1.1691-3.4016-2.6736-3.0232-3.5257 1.0801 0.62538-1.7431-2.6878-0.11655-1.298 0.79609 1.0044 0.67877 0.364 0.32033-0.42383 1.2166 1.2851 1.9503 3.7657 3.3009 4.4527-0.34464-0.98265-0.39525-2.1981-1.057-3.0189-0.66224-0.59349-2.1221-2.2548-0.41353-0.92312 1.4723 1.1548 1.6376 3.2863 2.3432 4.9445 0.48805 1.3149 1.1902 3.9801 1.8526 4.4424 0.34102-1.5939-0.72625-3.0746-0.52131-4.6248 0.34286 1.4146 1.2545 2.5222 2.2662 3.5325 0.59959 0.99054 1.881 1.6811 0.71699 0.1228-1.8835-2.8664-4.1235-5.5656-5.1853-8.8824-0.56803-0.6769-2.3722-1.4756-0.42508-0.81788-0.27281-2.4099 1.8659 3.5548 1.136 0.43665-0.33634-0.95351-0.43136-1.9887 5.8e-5 -0.50167 0.70188 2.4406 1.4606 5.0574 3.1977 6.9756-0.0739-1.7555-1.5379-2.8421-1.2826-4.0398-0.37699-1.2198-1.1948-2.6826-1.373-3.7103 0.70989 1.1903 0.56849 0.22248 0.22687-0.46438 1.2245-0.18727 1.3513 2.7476 2.1321 2.8259-0.05564-0.76643-1.4936-3.2183-0.86828-3.1416 1.0944 1.974 1.4262 4.4214 3.0676 6.0662 0.59379 0.85893 1.8509 2.5673 1.03 0.56-0.86353-2.2556-1.8602-4.5199-3.6252-6.2258-1.2346-1.8953 2.1614 2.2113 0.92779-0.26254-1.1045-1.41 0.45583-0.92336 0.41253 0.35711 0.1897 1.0055 0.99385 1.8496 0.5686 0.17239 0.0994-0.24583 1.1242 4.778 0.9962 1.9065 0.23688-2.0284-1.5764-3.1829-1.7737-5.0273 0.6557 2.0308 0.96496-2.0676 1.0026 0.19753 0.0339 0.93262 0.29327 2.0448 0.73598 1.556 0.3126 2.022 0.20646 4.1317 0.99913 6.0561-0.04402-1.0258-0.56174-4.0791 0.39535-1.8544 0.71367 2.4214 0.45159-2.1003-0.22583-2.8363 0.24298-1.3773-1.7996-2.7793-1.1828-3.4039 0.93827 0.54633 1.1707 2.3783 1.5546 2.7228 0.28983-0.92568-0.68091-4.1446 0.21811-1.7278 0.87406 2.2616 0.40196-0.29364 0.22053-1.2601 0.57204 0.55724 1.0478 4.0161 1.4006 3.439 0.02654-1.0143-1.3149-4.1947 0.0537-2.0981 0.41434 2.0321 0.53575 4.1189 0.7606 6.1654 0.60351-1.9856 0.42828-4.1343 0.1017-6.0584 0.29095 1.5264 0.44593 0.54197 0.65392-0.25314 0.0044 1.8163 0.3805 1.1416 0.73736 0.67582 0.16722 0.93118-1.807 4.1838 0.20612 2.4578 0.95233-0.72912 0.06032-3.1003 0.68961-3.4166 0.40469 1.8514 0.01 3.4267-0.26539 5.3209 0.30255 1.2016-0.85513 3.6841-0.07268 3.3204-0.14322 1.8772-1.1552 3.5712-0.91646 5.5082 0.02196 2.8558-0.03344 5.7291 0.2252 8.5715 1.0361-2.1213 0.8773-4.7202 1.4882-7.0202 1.1678-5.1146 0.24617-10.375 0.55384-15.55 0.36154 0.66572 0.31452 3.767 0.74516 1.2953 0.48928 1.544-0.57703 4.1643-0.17212 6.1204 0.90522-1.1627 1.1467-2.9881 1.2709-4.5086-0.14788-0.84918 0.99819-3.1528 0.56679-1.0181-0.3601 2.1091-0.60093 4.2758-1.3937 6.2712 0.61547-0.39583 1.7916-3.4852 1.1143-0.99806-0.45106 1.1837-1.4504 3.1312-0.06774 1.731 1.1004-1.524 2.0479-3.4576 1.3777-5.3622 0.29017-2.7173 0.35533 2.9402 0.84318 0.39192 0.57904-1.6407 0.57991 0.97221-0.04884 1.4413-0.74578 1.8512-1.8275 3.5948-2.48 5.4682 0.0054 0.96972-0.28783 3.2343 0.91957 1.3723-0.12482 2.0787-2.444 3.2549-2.6816 5.2176 0.58254-0.82051 1.5169-2.2977 0.82777-0.38245 1.1883-1.1866 1.85-3.0311 2.6134-4.5872 1.5743-2.9209 1.14-6.4147 2.4566-9.4026-0.16066 0.95475-0.67776 3.3981 0.31637 1.2664 0.27476 1.1261-1.6056 3.839-1.0066 5.0431 0.65212-0.8278 2.613-2.9867 1.0953-0.90786-1.0288 1.6846-2.3125 3.1981-2.9515 5.0946-0.47327 1.5704-2.4721 3.8222-1.936 5.0061 2.0351-1.3112 2.0821-4.0837 2.9774-6.1484 0.82764-1.2581-1.3076 4.1623 0.16336 1.2796 1.4645-2.741 3.4554-5.5286 3.1347-8.7971-0.03102-1.3022 0.39161 0.61834 0.72969-0.88194 0.02444 0.99622-0.55599 3.5397 0.37116 1.3802 0.20701-1.22 1.4207-1.9913 0.56425-0.31027-0.57196 0.7202-0.74645 2.1476 0.19226 0.67646 1.5542-2.2719 0.0046 0.76798-0.6872 1.4917-1.2524 1.3475-1.99 3.1752-3.0571 4.7275-0.86504 1.6885-2.0332 3.82-2.4384 5.352 1.6704-1.2214 2.4622-3.2718 3.844-4.782 0.92425-1.0095 1.112-2.7226 1.962-2.6984 0.84828-0.79135 1.6283-3.5802 2.0091-1.724-1.3065 1.1577-2.7797 2.7998-3.2389 4.3105 1.4577-0.46344 2.2801-2.4719 2.9981-1.9952 1.0058-1.2646 2.1797-1.2504 3.2992-2.1803-0.72839 1.8824-2.6422 2.7618-3.3506 4.7679-0.72755 1.2289 1.2839-0.11288 0.0434 1.1489-0.4491 0.92366-0.92936 2.2171 0.44341 0.9331 0.93771-1.0985 3.1335-0.74246 3.8248-2.256 0.22595-1.0249 1.3024-2.7585 0.62614-0.66447-0.3613 1.1364 0.32127 1.0726-0.66625 2.1416-1.562 2.5494 2.9104-2.674 0.99585-0.03312-1.6213 1.6938 1.6516-0.84345 0.97155 0.5178-1.9873 0.43414-2.9748 2.3949-4.5449 3.5821-2.0029 1.6249 1.5213 0.55303 1.8931 0.50162 1.1027 0.17802 3.19-1.3175 3.0883-0.285-0.66586 0.33993-4.199 0.66722-1.678 0.86566 1.3253 0.0122 0.56939 1.1417-0.44847 0.33517-1.8506-0.59698-3.5785 0.28082-5.351 0.49315-1.2473 0.45023-2.2203 2.4795 0.0084 1.9925 1.2573 0.31208 3.3391 0.15058 4.0521-0.38692-1.4921 1.2328 2.2476 0.26713 2.9298 0.60382 2.1097 0.31132-1.0913 0.17822-1.8266 0.299-0.82915 0.85459-4.5852 1.7877-1.7869 0.52178 1.866-0.7434-1.7843-0.36069-2.4187-0.54445-1.0019-0.73464-4.191 0.42719-2.4064 1.3679 0.79034 0.63672 3.3045 0.15932 3.2831 0.21573-0.04332 1.6529 3.0916-0.74667 3.5035-0.27136-1.3859 0.48467-1.2951 1.1713 0.18492 1.1163 1.616-0.45216 1.9002 1.5081 0.28435 0.44996-2.3507-0.32037-4.7541-0.34163-7.0841-0.88829-1.5392-0.32174-4.1571 3.3611-1.1004 2.8009 1.4716 0.43731 3.8418-0.19864 4.8116 0.26158-1.0668-0.0403-3.4781 0.25424-1.0287 0.62624 0.66258 0.24301 3.2578 0.30209 1.2684 0.69303 0.47191 0.74834 4.0261 1.6129 1.5955 1.2164-1.7232-0.90326-3.1279-1.1751-4.6777-1.8936-1.3141-0.42427-4.5266-1.0451-4.8088 0.52941 0.86202 2.0596 2.5633 3.4562 4.8726 2.5899 1.1188-0.09368 0.06002 0.27459 0.51264 1.0342-0.9633-0.84036-3.8576-0.42999-1.643 0.73965 0.92157 0.2739 2.9346 2.2075 1.0178 0.83079-1.6132-1.2025-0.8903 0.31174-0.48341 1.1977-1.2278-0.71334-2.0932-3.0903-3.2204-3.4709-0.30395 1.2976 1.7436 3.4972 1.3883 3.7228-2.1778-1.1528-1.6185-3.4627-2.3367-5.4194-1.0908-2.0143-4.6781 1.689-2.6198 2.7031 0.28101 0.83633 3.681 2.9598 1.3309 1.8498-0.93528-0.91332-1.9888-0.79718-1.0433 0.59921 0.53983 0.81299 1.0443 2.6512 0.04398 0.81966-0.59528-1.0189-1.5807-5.0451-2.5794-2.1966-0.74194 2.439-1.7422 5.4131-0.20145 7.7455-1.2571 1.0213-3.4933 0.43543-5.1375 0.36636zm4.2184-9.721c1.261-1.1253-0.88835-2.1886-0.55712-0.34997-0.0106 0.48505 0.04518 1.3749 0.55712 0.34997zm-4.6365-2.7581c0.52767-1.477-2.5019-1.9163-0.91529-0.31862 0.26099 0.30927 1.1984 1.5912 0.91529 0.31862zm5.5122 0.29992c-0.25956-0.77936-0.29705 0.78801-2.44e-4 -1.4e-5zm2.3621-1.0872c0.99691-0.92297 3.516-2.5798 3.3138-3.4089-1.8719 0.3182-3.5733 1.738-3.8355 3.6579 0.16704 0.1996 0.38331-0.35135 0.52162-0.24895zm-3.0373-0.31914c1.7536-0.76624 2.2806-2.6124 2.108-4.3767-0.89067 0.34964-2.3496 2.7783-2.5823 4.2905-0.16848 0.45431 0.33094 0.25335 0.47423 0.08622zm-8.9805-0.74551c1.4144-0.32387-0.95229-1.1845-1.5501-0.75235-2.6513 0.07314 1.0024 1.0174 1.5501 0.75235zm3.4368-0.20639c0.3573-1.3831-1.9403-3.0755-3.2303-3.7504-0.74924 0.80624 1.1174 2.9793 1.9072 3.7426 0.43836 0.0448 0.88525 0.07172 1.3232 0.0078zm1.5496-0.96972c-0.41711-3.1113-2.5756-5.7009-5.1075-7.4223-1.3966-0.95794-2.627-2.8122-4.074-3.3005 0.86037 2.2704 1.7901 4.6601 3.469 6.4576 1.4246 0.33097-1.0395-1.8878-1.2752-2.7017-0.60515-1.6249 1.5847 1.3838 1.886 1.9344 1.4096 1.9712 3.3429 3.5085 4.7574 5.4849 0.3416 0.55048 0.42847-0.34352 0.3443-0.4523zm7.3962-0.5425c1.4235-1.343 4.0432-1.5296 4.8582-3.1992-0.54664-1.0018-2.8428 0.06388-3.5608 0.7858-0.15782 0.44935-3.2225 3.2524-1.2973 2.4134zm-2.6715-2.6769c0.93974-1.1733 2.3891-2.7647 2.015-4.2725-1.2658 1.144-2.2775 2.8224-2.3124 4.5193l0.2974-0.24675zm-4.579-0.71508c0.0575-2.1649-0.84126-4.6572-3.2873-5.0167-1.8834-0.54971 0.75508 2.0789 1.03 2.8 0.68809 0.79121 1.7685 2.9039 2.3079 2.8066l-0.0192-0.26917-0.03138-0.32075zm12.313-0.72657c0.20694-1.0462 1.7241-3.724 0.71323-4.0069-1.0022 0.9932-2.2651 2.6297-2.3652 3.8469 0.49978 0.08528 1.1792 0.51961 1.652 0.15994zm-3.1588-0.52742c1.4212 0.28727 2.6921-2.9152 1.7488-3.2703-1.1034 0.73874-2.4913 2.3588-2.6183 3.3194 0.2878-0.04388 0.57928-0.0459 0.8695-0.04908zm-1.2874-1.4447c1.7348-1.2758 3.4696-2.6949 4.3645-4.7098 0.59105-0.82302 2.3626-4.1413 0.2476-2.206-1.814 1.1478-2.4495 3.4442-3.9753 4.8907-0.15848 0.22424-1.9162 2.6983-0.63682 2.0251zm7.0666-0.95397c0.51887-0.77363 1.0253-0.87463 0.47099 0.19722 1.66-0.808 3.9473-3.46 3.4489-4.9352-1.9263 0.64076-4.0777 1.494-4.7713 3.5849-0.55428 0.98922-0.65898 3.0941 0.63736 1.3885l0.214-0.2354zm-14.556-1.1301c0.58486-2.2765-1.2793-4.1991-2.0567-6.1972-0.34773-1.54-4.3552-3.4252-2.5151-0.67385 1.441 2.5908 2.8815 5.1819 4.203 7.8366 0.30659 0.1798 0.25559-0.81699 0.36882-0.96558zm-2.3816-0.83896c-1.1007-1.4198-2.517-3.4451-3.8817-4.1722-0.48677 2.338 1.0441 4.6412 3.6013 4.2226l0.22099-0.0026 0.05942-0.04794zm3.7712-0.33981c0.32631-3.0787-0.4252-6.1564-1.9276-8.8438-0.30863-0.83225-0.78455-2.1716-0.91337-0.49245-0.20684 1.2503-0.32542 2.5537 0.30178 3.7005 0.3301 0.87368 1.1141 3.4727 1.1046 1.0437 1.1457 0.12302 0.63192 4.4336 1.4346 4.592zm11.823-2.3383c0.59035-0.66372 1.0379-2.3768 0.09452-0.70825-0.42905 0.60279-1.2694 2.645-0.25789 0.97123l0.16342-0.26297zm3.1466-4.1647c-0.23717-0.60785-2.4552 2.1355-0.54064 0.47643l0.23801-0.19338 0.30263-0.28306zm-14.632-0.34256c0.11884-1.396 0.38745-4.1424-0.13194-4.7601-0.01 1.8027-0.78891 4.1678-0.0728 5.6357 0.0985-0.28419 0.14884-0.58133 0.20475-0.87561zm-5.3032-0.59974c-1.1242-1.4805-2.1077-3.0684-3.2595-4.5249-0.0078 2.0201 1.5733 2.2646 2.2595 3.9736 0.19144 0.2476 0.68779 0.70336 0.99998 0.55135zm3.6767-2.8334c0.21498-1.2884-0.48868-4.7507-1.4609-4.5084 0.0843 1.8794 0.68394 3.5511 1.3712 5.404 0.0854-0.29091 0.0704-0.59681 0.08974-0.89552zm2.4914-1.8356c0.16172-2.2783-0.79086 1.2658-0.11288 0.49124l0.05362-0.21653 0.05924-0.27472zm-12.616 31.082c0.63414-0.93814 0.33168 0.27262 0 0zm19.914-1.1792c0.34251-0.47879 0.21649 0.4409 0 0zm6.131-4.3824c-1.0118-0.81245 0.74858-0.05714 0 0zm4.3229-0.70008c-2.8906-1.0364 3.3161 0.75916 0.47302 0.13424l-0.23075-0.06484-0.24229-0.06942zm1.5905-3.9422c0.12056-0.62349 0.58888 0.27912 0 0zm-40.421-0.6056c0.01338-0.55444 0.61304 0.37744 0 0zm39.169-0.76955c-1.4108-0.25953 2.9969-0.83545 0.72358-0.05452-0.16732 0.33184-0.49352-0.0096-0.72358 0.05452zm-39.304-1.9016c-1.3786-0.69765 1.7452 0.24237 0 0zm38.495-0.05236c0.74155-0.70434 2.3463 0.35037 0.50879 0.05906l-0.24825-0.014-0.26054-0.04492zm1.8237-1.7629c0.28793-0.08476 0.08944-0.04794 0 0zm-36.498-0.79604c-0.58366-0.76668 1.148 0.72325 0 0zm-2.9275-0.31609c-1.9743-0.78383 0.19097-0.45168 0.7371 0.14596-0.25384 0.03162-0.49959-0.07964-0.7371-0.14596zm-1.6529-0.96284c-0.07907-0.4335 0.56135 0.37816 0 0zm3.0083-3.8223c-0.70828-0.59602 0.77862 0.12738 0 0zm33.012-1.0878c0.45366-0.98287 0.29548-1.6071 0.88899-0.98017 0.71401-0.20182-1.8977 3.0006-0.88873 0.98014zm-3.4183-4.4577c0.16734-1.2663 0.86075-1.6024 0.18108-0.15096 0.15068-0.11304-0.21428 0.36157-0.18108 0.15096zm-23.474-4.0151c-0.53975-1.6675 0.57952 0.64328 0 0zm24.509-0.92022c0.14606-0.59594 0.33427 0.16467-4e-6 -2e-5zm-20.294-3.0157c-0.61278-1.0241 0.68292 0.7242 0 0z" fill="#fff"/>
</svg>
