<?xml version="1.0" encoding="UTF-8" standalone="no"?>
<svg
   width="64"
   height="64"
   version="1.1"
   id="svg10"
   sodipodi:docname="aperture-desk-job.svg"
   xml:space="preserve"
   inkscape:version="1.4 (e7c3feb100, 2024-10-09)"
   xmlns:inkscape="http://www.inkscape.org/namespaces/inkscape"
   xmlns:sodipodi="http://sodipodi.sourceforge.net/DTD/sodipodi-0.dtd"
   xmlns:xlink="http://www.w3.org/1999/xlink"
   xmlns="http://www.w3.org/2000/svg"
   xmlns:svg="http://www.w3.org/2000/svg"><sodipodi:namedview
     id="namedview10"
     pagecolor="#505050"
     bordercolor="#eeeeee"
     borderopacity="1"
     inkscape:showpageshadow="0"
     inkscape:pageopacity="0"
     inkscape:pagecheckerboard="0"
     inkscape:deskcolor="#505050"
     inkscape:zoom="4.2536892"
     inkscape:cx="56.891791"
     inkscape:cy="15.045763"
     inkscape:window-width="1920"
     inkscape:window-height="1007"
     inkscape:window-x="0"
     inkscape:window-y="0"
     inkscape:window-maximized="1"
     inkscape:current-layer="svg10" /><defs
     id="defs7"><linearGradient
       id="b"><stop
         offset="0"
         style="stop-color:#0d0d0d;stop-opacity:1"
         id="stop1" /><stop
         offset="1"
         style="stop-color:#262626;stop-opacity:1"
         id="stop2" /></linearGradient><linearGradient
       id="a"><stop
         offset="0"
         style="stop-color:#d9d9d9;stop-opacity:1"
         id="stop3" /><stop
         offset="1"
         style="stop-color:#fff;stop-opacity:1"
         id="stop4" /></linearGradient><linearGradient
       id="c"
       x1="7.937"
       x2="7.937"
       y1="15.081"
       y2="1.852"
       gradientTransform="scale(3.7796)"
       gradientUnits="userSpaceOnUse"><stop
         offset=".01"
         stop-color="#f54800"
         style="stop-color:#ec2f16;stop-opacity:1"
         id="stop5" /><stop
         offset="1"
         stop-color="#ffb200"
         style="stop-color:#e88732;stop-opacity:1"
         id="stop6" /></linearGradient><linearGradient
       xlink:href="#a"
       id="g"
       x1="15.44"
       x2="15.622"
       y1="48.721"
       y2="15.287"
       gradientUnits="userSpaceOnUse"
       gradientTransform="matrix(1.1947431,0,0,1.1947431,-6.2317802,-6.2317801)" /><linearGradient
       xlink:href="#b"
       id="e"
       x1="9.458"
       x2="9.136"
       y1="54.415"
       y2="9.556"
       gradientUnits="userSpaceOnUse" /><filter
       id="f"
       width="1.2164875"
       height="1.2156116"
       x="-0.10824373"
       y="-0.10780581"
       style="color-interpolation-filters:sRGB"><feGaussianBlur
         stdDeviation="1.51"
         id="feGaussianBlur6" /></filter><filter
       id="d"
       width="1.0959966"
       height="1.0959966"
       x="-0.047998287"
       y="-0.047998287"
       style="color-interpolation-filters:sRGB"><feGaussianBlur
         stdDeviation="1.12"
         id="feGaussianBlur7" /></filter></defs><rect
     x="4.4995003"
     y="4.4995003"
     width="55.000999"
     height="55.000999"
     ry="2.75"
     fill="#f36303"
     stroke-width="3.4646"
     id="rect1" /><path
     fill="#fff"
     fill-opacity=".9"
     d="M 31.9773,11.918758 A 20.071685,20.071685 0 0 0 19.632019,16.222223 H 44.387097 A 20.071685,20.071685 0 0 0 31.9773,11.918758 m -13.982079,5.737157 a 20.071685,20.071685 0 0 0 -3.357228,4.303464 h 11.842294 a 11.469534,11.469534 0 0 1 5.497013,-1.433691 11.469534,11.469534 0 0 1 5.547192,1.433691 h 11.83632 a 20.071685,20.071685 0 0 0 -3.333333,-4.303464 z m -4.451613,6.455197 A 20.071685,20.071685 0 0 0 12,30.566309 h 8.605735 a 11.469534,11.469534 0 0 1 3.072879,-6.455197 z m 26.762246,0 a 11.469534,11.469534 0 0 1 3.053764,6.455197 H 52 A 20.071685,20.071685 0 0 0 50.439665,24.111112 Z M 12,33.433692 a 20.071685,20.071685 0 0 0 1.273596,5.738351 h 9.775388 a 11.469534,11.469534 0 0 1 -2.443249,-5.738351 z m 31.348865,0 a 11.469534,11.469534 0 0 1 -2.442055,5.738351 h 9.774194 A 20.071685,20.071685 0 0 0 51.9546,33.433692 Z M 15.547192,43.474314 A 20.095579,20.095579 0 0 0 31.9773,52.081243 20.095579,20.095579 0 0 0 48.407407,43.474314 Z"
     style="fill:url(#g);fill-opacity:1;stroke-width:1.32395"
     id="path10" /></svg>
