<?xml version="1.0" encoding="UTF-8" standalone="no"?>
<svg
   width="64"
   height="64"
   version="1.1"
   viewBox="0 0 16.933 16.933"
   id="svg23"
   sodipodi:docname="apk-editor-estudio.svg"
   inkscape:version="1.3.2 (091e20ef0f, 2023-11-25, custom)"
   xml:space="preserve"
   xmlns:inkscape="http://www.inkscape.org/namespaces/inkscape"
   xmlns:sodipodi="http://sodipodi.sourceforge.net/DTD/sodipodi-0.dtd"
   xmlns="http://www.w3.org/2000/svg"
   xmlns:svg="http://www.w3.org/2000/svg"
   xmlns:rdf="http://www.w3.org/1999/02/22-rdf-syntax-ns#"
   xmlns:cc="http://creativecommons.org/ns#"
   xmlns:dc="http://purl.org/dc/elements/1.1/"><sodipodi:namedview
     id="namedview23"
     pagecolor="#ffffff"
     bordercolor="#000000"
     borderopacity="0.25"
     inkscape:showpageshadow="2"
     inkscape:pageopacity="0.0"
     inkscape:pagecheckerboard="0"
     inkscape:deskcolor="#d1d1d1"
     inkscape:zoom="4.1321553"
     inkscape:cx="22.869421"
     inkscape:cy="22.022406"
     inkscape:window-width="1920"
     inkscape:window-height="955"
     inkscape:window-x="0"
     inkscape:window-y="34"
     inkscape:window-maximized="1"
     inkscape:current-layer="svg23" /><defs
     id="defs16"><radialGradient
       id="radialGradient3160"
       cx="24.249"
       cy="24.25"
       r="9.6332"
       gradientTransform="matrix(0.68663764,0,0,0.68663764,-8.1837018,-8.1846081)"
       gradientUnits="userSpaceOnUse"><stop
         offset="0"
         id="stop1" /><stop
         stop-opacity=".78764"
         offset=".71616"
         id="stop2" /><stop
         stop-opacity=".67451"
         offset=".74621"
         id="stop3" /><stop
         stop-opacity=".61961"
         offset=".76305"
         id="stop4" /><stop
         stop-opacity=".5451"
         offset=".78595"
         id="stop5" /><stop
         stop-opacity=".48627"
         offset=".80683"
         id="stop6" /><stop
         stop-opacity=".29804"
         offset=".86207"
         id="stop7" /><stop
         stop-opacity=".18824"
         offset=".89036"
         id="stop8" /><stop
         stop-opacity=".082353"
         offset=".92404"
         id="stop9" /><stop
         stop-opacity=".043137"
         offset=".9429"
         id="stop10" /><stop
         stop-opacity=".031373"
         offset=".95596"
         id="stop11" /><stop
         stop-opacity=".027451"
         offset=".96081"
         id="stop12" /><stop
         stop-opacity="0"
         offset=".99197"
         id="stop13" /><stop
         stop-opacity="0"
         offset="1"
         id="stop14" /></radialGradient><linearGradient
       id="linearGradient4763"
       x1="-42.682"
       x2="-42.682"
       y1="11.292"
       y2="52.863"
       gradientTransform="matrix(0.26458,0,0,0.26458,19.3505,0.00852)"
       gradientUnits="userSpaceOnUse"><stop
         stop-color="#89d754"
         offset="0"
         id="stop15" /><stop
         stop-color="#4ab203"
         offset="1"
         id="stop16" /></linearGradient></defs><metadata
     id="metadata16"><rdf:RDF><cc:Work
         rdf:about=""><dc:format>image/svg+xml</dc:format><dc:type
           rdf:resource="http://purl.org/dc/dcmitype/StillImage" /><dc:title /></cc:Work></rdf:RDF></metadata><g
     transform="matrix(0.26457812,0,0,0.26457812,-0.1322889,0.39686734)"
     id="g4"><path
       d="M 16,3 C 9.906,3 5,7.906 5,14 V 55.25 C 5,56.7735 6.2265,58 7.75,58 H 49 c 6.094,0 11,-4.906 11,-11 V 5.75 C 60,4.2265 58.7735,3 57.25,3 H 32.5 Z"
       fill="#80b436"
       id="path1" /><path
       d="M 16,3 C 9.906,3 5,7.906 5,14 v 1 C 5,8.906 9.906,4 16,4 H 57.25 C 58.7735,4 60,5.2265 60,6.75 v -1 C 60,4.2265 58.7735,3 57.25,3 H 32.5 Z"
       fill="#ffffff"
       opacity="0.2"
       id="path2" /><path
       d="M 59.197,3.803 5.803,57.197 c 0.49706,0.49706 1.1853,0.80298 1.947,0.80298 H 49 c 6.094,0 11,-4.906 11,-11 v -41.25 c 0,-0.76175 -0.30592,-1.45 -0.80298,-1.947 z"
       fill="#b2cf42"
       id="path3" /><path
       d="m 18,9 c -7.0258,0 -7,7 -7,7 h 7 z m 2,0 v 7 h 7 V 9 Z m 9,0 v 7 h 7 V 9 Z m 9,0 v 7 h 7 V 9 Z m 9,0 v 7 h 7 V 9 Z m -36,9 v 7 h 7 v -7 z m 9,0 v 7 h 7 v -7 z m 9,0 v 7 h 7 v -7 z m 9,0 v 7 h 7 v -7 z m 9,0 v 7 h 7 v -7 z m -36,9 v 7 h 7 v -7 z m 9,0 v 7 h 7 v -7 z m 9,0 v 7 h 7 v -7 z m 9,0 v 7 h 7 v -7 z m 9,0 v 7 h 7 v -7 z m -36,9 v 7 h 7 v -7 z m 9,0 v 7 h 7 v -7 z m 9,0 v 7 h 7 v -7 z m 9,0 v 7 h 7 v -7 z m 9,0 v 7 h 7 v -7 z m -36,9 v 7 h 7 v -7 z m 9,0 v 7 h 7 v -7 z m 9,0 v 7 h 7 v -7 z m 9,0 v 7 h 7 v -7 z m 9,0 v 7 c 7.0258,0 7,-7 7,-7 z"
       fill="#f4f7e2"
       id="path4" /></g></svg>
