<?xml version="1.0" encoding="UTF-8" standalone="no"?>
<svg
   width="64"
   height="64"
   viewBox="0 0 16.933 16.933"
   version="1.1"
   id="svg81"
   sodipodi:docname="app-icon-preview.svg"
   xml:space="preserve"
   inkscape:version="1.4 (e7c3feb100, 2024-10-09)"
   xmlns:inkscape="http://www.inkscape.org/namespaces/inkscape"
   xmlns:sodipodi="http://sodipodi.sourceforge.net/DTD/sodipodi-0.dtd"
   xmlns:xlink="http://www.w3.org/1999/xlink"
   xmlns="http://www.w3.org/2000/svg"
   xmlns:svg="http://www.w3.org/2000/svg"><sodipodi:namedview
     id="namedview81"
     pagecolor="#505050"
     bordercolor="#eeeeee"
     borderopacity="1"
     inkscape:showpageshadow="0"
     inkscape:pageopacity="0"
     inkscape:pagecheckerboard="0"
     inkscape:deskcolor="#505050"
     inkscape:zoom="6.046875"
     inkscape:cx="65.157623"
     inkscape:cy="20.671835"
     inkscape:window-width="1920"
     inkscape:window-height="1004"
     inkscape:window-x="0"
     inkscape:window-y="0"
     inkscape:window-maximized="1"
     inkscape:current-layer="svg81" /><defs
     id="defs50"><linearGradient
       id="linearGradient101"
       inkscape:collect="always"><stop
         style="stop-color:#124785;stop-opacity:1"
         offset="0"
         id="stop98" /><stop
         style="stop-color:#124785;stop-opacity:1"
         offset="0.82254982"
         id="stop99" /><stop
         style="stop-color:#1f6dd0;stop-opacity:0.99607843"
         offset="0.90060979"
         id="stop100" /><stop
         style="stop-color:#124785;stop-opacity:1"
         offset="1"
         id="stop101" /></linearGradient><linearGradient
       id="linearGradient94"
       inkscape:collect="always"><stop
         style="stop-color:#639fea;stop-opacity:1"
         offset="0"
         id="stop94" /><stop
         style="stop-color:#95bff3;stop-opacity:1"
         offset="0.10971163"
         id="stop96" /><stop
         style="stop-color:#62a1eb;stop-opacity:1"
         offset="0.17939897"
         id="stop97" /><stop
         style="stop-color:#62a0ea;stop-opacity:1"
         offset="1"
         id="stop95" /></linearGradient><clipPath
       id="b"><path
         d="M0 0h192v152H0z"
         id="path1" /></clipPath><clipPath
       id="c"><path
         d="M0 0h192v152H0z"
         id="path2" /></clipPath><clipPath
       id="d"><path
         d="M0 0h192v152H0z"
         id="path3" /></clipPath><clipPath
       id="e"><path
         d="M0 0h192v152H0z"
         id="path4" /></clipPath><clipPath
       id="f"><path
         d="M0 0h192v152H0z"
         id="path5" /></clipPath><clipPath
       id="g"><path
         d="M0 0h192v152H0z"
         id="path6" /></clipPath><clipPath
       id="h"><path
         d="M0 0h192v152H0z"
         id="path7" /></clipPath><clipPath
       id="i"><path
         d="M0 0h192v152H0z"
         id="path8" /></clipPath><clipPath
       id="j"><path
         d="M0 0h192v152H0z"
         id="path9" /></clipPath><clipPath
       id="k"><path
         d="M0 0h192v152H0z"
         id="path10" /></clipPath><clipPath
       id="l"><path
         d="M0 0h192v152H0z"
         id="path11" /></clipPath><clipPath
       id="m"><path
         d="M0 0h192v152H0z"
         id="path12" /></clipPath><clipPath
       id="n"><path
         d="M0 0h192v152H0z"
         id="path13" /></clipPath><mask
       id="s"><g
         filter="url(#a)"
         id="g14"><path
           fill-opacity=".1"
           d="M0 0h128v128H0z"
           id="path14" /></g></mask><mask
       id="v"><g
         filter="url(#a)"
         id="g15"><path
           fill-opacity=".2"
           d="M0 0h128v128H0z"
           id="path15" /></g></mask><mask
       id="x"><g
         filter="url(#a)"
         id="g16"><path
           fill-opacity=".2"
           d="M0 0h128v128H0z"
           id="path16" /></g></mask><mask
       id="z"><g
         filter="url(#a)"
         id="g17"><path
           fill-opacity=".1"
           d="M0 0h128v128H0z"
           id="path17" /></g></mask><mask
       id="E"><g
         filter="url(#a)"
         id="g18"><path
           fill-opacity=".33"
           d="M0 0h128v128H0z"
           id="path18" /></g></mask><mask
       id="H"><g
         filter="url(#a)"
         id="g19"><path
           fill-opacity=".25"
           d="M0 0h128v128H0z"
           id="path19" /></g></mask><mask
       id="K"><g
         filter="url(#a)"
         id="g20"><path
           fill-opacity=".8"
           d="M0 0h128v128H0z"
           id="path20" /></g></mask><mask
       id="M"><g
         filter="url(#a)"
         id="g21"><path
           fill-opacity=".05"
           d="M0 0h128v128H0z"
           id="path21" /></g></mask><mask
       id="O"><g
         filter="url(#a)"
         id="g22"><path
           fill-opacity=".05"
           d="M0 0h128v128H0z"
           id="path22" /></g></mask><mask
       id="Q"><g
         filter="url(#a)"
         id="g23"><path
           fill-opacity=".05"
           d="M0 0h128v128H0z"
           id="path23" /></g></mask><mask
       id="S"><g
         filter="url(#a)"
         id="g24"><path
           fill-opacity=".05"
           d="M0 0h128v128H0z"
           id="path24" /></g></mask><mask
       id="V"><g
         filter="url(#a)"
         id="g25"><path
           fill-opacity=".2"
           d="M0 0h128v128H0z"
           id="path25" /></g></mask><mask
       id="X"><g
         filter="url(#a)"
         id="g26"><path
           fill-opacity=".1"
           d="M0 0h128v128H0z"
           id="path26" /></g></mask><g
       id="q"
       clip-path="url(#b)"><path
         d="M44 84h28v2H44z"
         id="path27" /></g><g
       id="t"
       clip-path="url(#c)"><path
         d="M72 84h28v2H72z"
         id="path28" /></g><g
       id="w"
       clip-path="url(#d)"><path
         d="M72 82h28v2H72z"
         id="path29" /></g><g
       id="y"
       clip-path="url(#e)"><path
         d="M44 82h28v2H44z"
         id="path30" /></g><g
       id="B"
       clip-path="url(#f)"><path
         d="m63.359 55.387-1.184 3.824L44 114.001v8l8-4 17.82-56.427 1.184-3.824z"
         id="path31" /></g><g
       id="F"
       clip-path="url(#g)"><path
         d="m80.641 55.387 1.184 3.824L100 114.001v8l-8-4-17.824-56.427-1.18-3.824z"
         id="path32" /></g><g
       id="J"
       clip-path="url(#h)"><path
         fill="#DEDDDA"
         d="m80.641 52.387 1.184 3.824L100 112.001v8l-4-7-19.18-59.43z"
         id="path33" /></g><g
       id="L"
       clip-path="url(#i)"><path
         fill-rule="evenodd"
         d="m44 120.16 4-7.16 4 3z"
         id="path34" /></g><g
       id="N"
       clip-path="url(#j)"><path
         fill-rule="evenodd"
         d="M100 120.16 96 113l-4 3z"
         id="path35" /></g><g
       id="P"
       clip-path="url(#k)"><path
         fill-rule="evenodd"
         d="m44 120.16 4-7.16-4-1z"
         id="path36" /></g><g
       id="R"
       clip-path="url(#l)"><path
         fill-rule="evenodd"
         d="m100 120.08-4-7.156 4-1z"
         id="path37" /></g><g
       id="U"
       clip-path="url(#m)"><path
         d="M68 84v6c0 1.11.89 2 2 2h4c1.11 0 2-.89 2-2v-6z"
         id="path38" /></g><g
       id="W"
       clip-path="url(#n)"><path
         fill="#FFF"
         d="M68 82v-6c0-1.11.89-2 2-2h4c1.11 0 2 .89 2 2v6z"
         id="path39" /></g><filter
       id="a"
       width="1"
       height="1"
       x="0"
       y="0"><feColorMatrix
         in="SourceGraphic"
         values="0 0 0 0 1 0 0 0 0 1 0 0 0 0 1 0 0 0 1 0"
         id="feColorMatrix39" /></filter><filter
       id="C"
       width="1.2140127"
       height="1.0867565"
       x="-0.10700637"
       y="-0.043378269"
       color-interpolation-filters="sRGB"><feGaussianBlur
         stdDeviation="1.204"
         id="feGaussianBlur39" /></filter><filter
       id="G"
       width="1.2140127"
       height="1.0867565"
       x="-0.10700637"
       y="-0.043378269"
       color-interpolation-filters="sRGB"><feGaussianBlur
         stdDeviation="1.204"
         id="feGaussianBlur40" /></filter><filter
       id="r"
       width="1.0966857"
       height="2.3536"
       x="-0.048342858"
       y="-0.67680001"
       color-interpolation-filters="sRGB"><feGaussianBlur
         stdDeviation=".564"
         id="feGaussianBlur41" /></filter><filter
       id="u"
       width="1.0966857"
       height="2.3536"
       x="-0.048342858"
       y="-0.67680001"
       color-interpolation-filters="sRGB"><feGaussianBlur
         stdDeviation=".564"
         id="feGaussianBlur42" /></filter><linearGradient
       id="o"
       x1="15.875"
       x2="1.058"
       y1="4.49"
       y2="4.49"
       gradientUnits="userSpaceOnUse"
       gradientTransform="translate(-25.552641)"><stop
         offset="0"
         stop-color="#bbb"
         id="stop42" /><stop
         offset="1"
         stop-color="#4c4c4c"
         id="stop43" /></linearGradient><linearGradient
       id="I"
       x1="59.087"
       x2="67.926"
       y1="186"
       y2="186"
       gradientTransform="translate(94.042,-116.06)"
       gradientUnits="userSpaceOnUse"><stop
         offset="0"
         stop-color="#ACABAE"
         id="stop44" /><stop
         offset=".38"
         stop-color="#77767B"
         id="stop45" /><stop
         offset="1"
         stop-color="#5D5C60"
         id="stop46" /></linearGradient><linearGradient
       id="T"
       x1="88"
       x2="96"
       y1="200"
       y2="200"
       gradientTransform="rotate(90,183.05,174.99)"
       gradientUnits="userSpaceOnUse"><stop
         offset="0"
         stop-color="#9A9996"
         id="stop47" /><stop
         offset="1"
         stop-color="#9A9996"
         stop-opacity="0"
         id="stop48" /></linearGradient><linearGradient
       id="p"
       x1="1.058"
       x2="15.875"
       y1="12.249"
       y2="12.249"
       gradientUnits="userSpaceOnUse"
       gradientTransform="translate(-25.552641)"><stop
         offset="0"
         stop-color="#6daae8"
         id="stop49" /><stop
         offset="1"
         stop-color="#225384"
         id="stop50" /></linearGradient><linearGradient
       inkscape:collect="always"
       xlink:href="#linearGradient94"
       id="linearGradient95"
       x1="58.248013"
       y1="4.6409688"
       x2="73.309326"
       y2="4.6994605"
       gradientUnits="userSpaceOnUse" /><linearGradient
       inkscape:collect="always"
       xlink:href="#linearGradient101"
       id="linearGradient97"
       x1="73.309326"
       y1="4.6409688"
       x2="88.370644"
       y2="4.6409688"
       gradientUnits="userSpaceOnUse" /></defs><g
     id="g101"
     transform="matrix(0.49241449,0,0,0.49241449,-27.632094,12.47581)"
     style="opacity:1"><path
       id="rect81"
       style="opacity:1;fill:#77767b;fill-opacity:1;stroke-width:0.263403"
       d="m 73.309328,-17.792362 v 11.2166654 h 15.061316 v -8.5429794 c 0,-1.48122 -1.192466,-2.673686 -2.673686,-2.673686 z" /><path
       id="path91"
       style="opacity:1;fill:#1a5eb5;fill-opacity:1;stroke-width:0.263403"
       d="M 73.309328,-6.5756966 V 4.640969 h 12.38763 c 1.48122,0 2.673686,-1.1924663 2.673686,-2.6736859 v -8.5429797 z" /><path
       id="path93"
       style="opacity:1;fill:#88b8ee;fill-opacity:1;stroke-width:0.263403"
       d="m 58.248011,-6.5756966 v 8.5429797 c 0,1.4812196 1.19195,2.6736859 2.673169,2.6736859 H 73.309328 V -6.5756966 Z" /><path
       id="path92"
       style="opacity:1;fill:#f6f6f6;fill-opacity:1;stroke-width:0.263403"
       d="m 58.248011,-15.118676 v 8.5429794 H 73.309328 V -17.792362 H 60.92118 c -1.481219,0 -2.673169,1.192466 -2.673169,2.673686 z" /><path
       id="rect83"
       style="opacity:1;fill:url(#linearGradient97);fill-opacity:1;stroke-width:0.263403"
       d="m 73.309328,4.640969 v 1.2252241 h 12.38763 c 1.48122,0 2.673686,-1.1924663 2.673686,-2.673686 v -1.225224 c 0,1.4812196 -1.192466,2.6736859 -2.673686,2.6736859 z" /><path
       id="path94"
       style="opacity:1;fill:url(#linearGradient95);fill-opacity:1;stroke-width:0.263403"
       d="m 58.248011,1.9672831 v 1.225224 c 0,1.4812197 1.192466,2.673686 2.673686,2.673686 H 73.309328 V 4.640969 H 60.921697 c -1.48122,0 -2.673686,-1.1924663 -2.673686,-2.6736859 z" /></g><g
     transform="matrix(0.13390578,0,0,0.13390578,-12.696237,-7.0839331)"
     id="g81"><path
       fill="#f5f5f3"
       d="m 158.04,115.94 h 28 v 4 h -28 z"
       id="path52" /><use
       xlink:href="#q"
       filter="url(#r)"
       mask="url(#s)"
       transform="translate(86.042,35.939)"
       id="use52" /><use
       xlink:href="#t"
       filter="url(#u)"
       mask="url(#v)"
       transform="translate(86.042,35.939)"
       id="use53" /><path
       fill="#dedcd9"
       d="m 130.04,115.94 h 28 v 4 h -28 z"
       id="path53" /><use
       xlink:href="#w"
       mask="url(#x)"
       transform="translate(86.042,35.939)"
       id="use54" /><path
       fill="#97948f"
       d="m 184.04,115.94 -2,4 h 2 l 2,-4 z m -4,0 -2,4 h 2 l 2,-4 z"
       id="path54" /><path
       fill="#6e6e68"
       d="m 168.04,115.94 -2,4 h 2 l 2,-4 z"
       id="path55" /><path
       fill="#bfbdba"
       d="m 172.04,115.94 -2,4 h 2 l 2,-4 z"
       id="path56" /><path
       fill="#97948f"
       d="m 176.04,115.94 -2,4 h 2 l 2,-4 z"
       id="path57" /><path
       fill="#bfbdba"
       d="m 140.04,115.94 -2,4 h 2 l 2,-4 z m -4,0 -2,4 h 2 l 2,-4 z m -4,0 -2,4 h 2 l 2,-4 z"
       id="path58" /><use
       xlink:href="#y"
       mask="url(#z)"
       transform="translate(86.042,35.939)"
       id="use58" /><use
       xlink:href="#B"
       filter="url(#C)"
       mask="url(#E)"
       transform="translate(86.042,35.939)"
       id="use59" /><use
       xlink:href="#F"
       filter="url(#G)"
       mask="url(#H)"
       transform="translate(86.042,35.939)"
       id="use60" /><path
       fill="url(#I)"
       d="m 154.04,67.939 2,4 v 2 h 4 v -2 l 2,-4 z"
       id="path60"
       style="fill:url(#I)" /><path
       d="m 152.04,96.592 -17.004,51"
       id="path61" /><path
       fill="#dedcd9"
       d="m 152.04,93.33 -17.004,53"
       id="path62" /><path
       fill="#b3b3b0"
       d="m 149.4,88.326 -1.184,3.824 -18.176,55.79 v 8 l 8,-4 17.82,-57.427 1.184,-3.824 z"
       id="path63" /><path
       fill="#75757a"
       d="m 154.04,55.939 h 8 v 12 h -8 z"
       id="path64" /><path
       fill="#5c5c63"
       d="m 154.04,55.939 h 2 v 12 h -2 z m 4,0 h 2 v 12 h -2 z"
       id="path65" /><path
       fill="#dedcd9"
       d="m 164.04,93.33 17.004,53"
       id="path66" /><path
       fill="#bfbdba"
       d="m 166.68,88.326 1.184,3.824 18.176,55.79 v 8 l -8,-4 -17.824,-57.427 -1.18,-3.824 z"
       id="path67" /><use
       xlink:href="#J"
       mask="url(#K)"
       transform="translate(86.042,35.939)"
       id="use67" /><path
       fill="#dedcd9"
       d="m 164.04,93.33 17.004,51"
       id="path68" /><path
       fill="#ccccca"
       d="m 149.4,88.326 -1.184,3.824 -18.176,55.79 v 8 l 4,-7 19.18,-59.43 z"
       id="path69" /><path
       fill="#5c5c63"
       d="m 170.04,83.939 c 0,6.629 -5.371,12 -12,12 -6.629,0 -12,-5.371 -12,-12 0,-6.629 5.371,-12 12,-12 6.629,0 12,5.371 12,12"
       id="path70" /><path
       fill="#bfbdba"
       d="m 166.04,83.939 a 8,8 0 1 1 -16,0 8,8 0 0 1 16,0"
       id="path71" /><use
       xlink:href="#L"
       mask="url(#M)"
       transform="translate(86.042,35.939)"
       id="use71" /><use
       xlink:href="#N"
       mask="url(#O)"
       transform="translate(86.042,35.939)"
       id="use72" /><use
       xlink:href="#P"
       mask="url(#Q)"
       transform="translate(86.042,35.939)"
       id="use73" /><use
       xlink:href="#R"
       mask="url(#S)"
       transform="translate(86.042,35.939)"
       id="use74" /><path
       fill="url(#T)"
       d="m 158.04,87.939 c -2.21,0 -4,-1.79 -4,-4 0,-2.21 1.79,-4 4,-4 2.21,0 4,1.79 4,4 0,2.21 -1.79,4 -4,4"
       id="path74"
       style="fill:url(#T)" /><path
       fill="#706e68"
       d="m 164.04,115.94 -2,4 h 2 l 2,-4 z m -4,0 -2,4 h 2 l 2,-4 z m -4,0 -2,4 h 2 l 2,-4 z"
       id="path75" /><path
       fill="#827f7a"
       d="m 152.04,115.94 -2,4 h 2 l 2,-4 z"
       id="path76" /><use
       xlink:href="#U"
       mask="url(#V)"
       transform="translate(86.042,35.939)"
       id="use76" /><path
       fill="#999994"
       d="m 156.04,109.94 h 4 a 2,2 0 0 1 2,2 v 12 a 2,2 0 0 1 -2,2 h -4 a 2,2 0 0 1 -2,-2 v -12 a 2,2 0 0 1 2,-2"
       id="path77" /><path
       fill="#5c5c63"
       d="m 154.04,114.94 v 2 h 8 v -2 z"
       id="path78" /><path
       fill="#75757a"
       d="m 162.04,111.94 v 1 h -8 v -1 z"
       id="path79" /><path
       fill="#5c5c63"
       d="m 154.04,118.94 v 2 h 8 v -2 z"
       id="path80" /><path
       fill="#75757a"
       d="m 162.04,122.94 v 1 h -8 v -1 z"
       id="path81" /><use
       xlink:href="#W"
       mask="url(#X)"
       transform="translate(86.042,35.939)"
       id="use81" /></g></svg>
