<?xml version="1.0" encoding="UTF-8" standalone="no"?>
<svg
   width="64"
   height="64"
   version="1.1"
   id="svg10"
   sodipodi:docname="appflowy.svg"
   xml:space="preserve"
   inkscape:version="1.4 (e7c3feb100, 2024-10-09)"
   xmlns:inkscape="http://www.inkscape.org/namespaces/inkscape"
   xmlns:sodipodi="http://sodipodi.sourceforge.net/DTD/sodipodi-0.dtd"
   xmlns="http://www.w3.org/2000/svg"
   xmlns:svg="http://www.w3.org/2000/svg"><sodipodi:namedview
     id="namedview10"
     pagecolor="#505050"
     bordercolor="#eeeeee"
     borderopacity="1"
     inkscape:showpageshadow="0"
     inkscape:pageopacity="0"
     inkscape:pagecheckerboard="0"
     inkscape:deskcolor="#505050"
     inkscape:zoom="3.0234375"
     inkscape:cx="90.294574"
     inkscape:cy="28.444444"
     inkscape:window-width="1920"
     inkscape:window-height="1004"
     inkscape:window-x="0"
     inkscape:window-y="0"
     inkscape:window-maximized="1"
     inkscape:current-layer="svg10" /><defs
     id="defs2"><linearGradient
       id="a"
       x1="7.937"
       x2="7.937"
       y1="15.081"
       y2="1.852"
       gradientTransform="matrix(3.7796,0,0,3.7796,-99.224806,0)"
       gradientUnits="userSpaceOnUse"><stop
         offset="0"
         stop-color="#f1efeb"
         id="stop1" /><stop
         offset="1"
         stop-color="#fdfcfc"
         id="stop2" /></linearGradient></defs><g
     id="g10"
     transform="matrix(1.4499596,0,0,1.4499596,-14.400865,-14.353349)"><path
       fill="#f7931e"
       d="m 51.955,36.152 c -1.146,6.242 -6.173,11.688 -11.95,14.743 a 5.5,5.5 0 0 1 -2.336,0.664 h 12.258 c 1.19,0 2.029,-0.886 2.029,-1.992 z"
       id="path2" /><path
       fill="#8427e0"
       d="m 27.438,24.11 -0.529,0.398 c -2.998,2.125 -12.082,8.943 -14.154,5.977 -2.029,-2.878 0.132,-11.023 5.335,-14.964 0.088,-0.089 0.22,-0.133 0.309,-0.222 5.688,-4.028 9.921,-3.453 11.993,-0.53 1.94,2.744 -0.22,7.082 -2.954,9.34 z"
       id="path3" /><path
       fill="#ffbd00"
       d="m 45.872,48.414 c -0.089,0.088 -0.177,0.132 -0.309,0.221 -5.688,4.029 -9.921,3.453 -11.994,0.531 -1.94,-2.745 0.22,-7.083 2.955,-9.34 l 0.529,-0.4 c 2.998,-2.08 12.083,-8.942 14.11,-5.976 2.073,2.878 -0.044,11.023 -5.291,14.964"
       id="path4" /><path
       fill="#e3006d"
       d="m 29.995,51.203 c -2.91,2.081 -11.288,-0.177 -15.124,-5.666 a 1.4,1.4 0 0 1 -0.22,-0.31 c -3.749,-5.534 -3.131,-9.695 -0.265,-11.688 2.822,-1.992 7.231,0.31 9.436,3.187 0.088,0.133 0.177,0.222 0.265,0.355 2.072,2.966 8.863,12.086 5.909,14.122 z"
       id="path5" /><path
       fill="#9327ff"
       d="m 27.438,24.11 c -4.056,1.815 -12.7,5.534 -13.978,2.523 -1.102,-2.523 0.926,-7.659 4.63,-11.112 0.088,-0.089 0.22,-0.133 0.309,-0.222 5.688,-4.028 9.921,-3.453 11.993,-0.53 1.94,2.744 -0.22,7.083 -2.954,9.34 z"
       id="path6" /><path
       fill="#00b5ff"
       d="m 49.661,30.443 c -2.822,1.992 -7.231,-0.31 -9.436,-3.188 -0.088,-0.133 -0.176,-0.221 -0.264,-0.354 -2.117,-3.01 -8.908,-12.13 -5.997,-14.167 2.91,-2.08 11.332,0.177 15.168,5.667 0.088,0.132 0.176,0.221 0.265,0.354 3.704,5.534 3.13,9.65 0.264,11.688"
       id="path7" /><path
       fill="#00c8ff"
       d="m 49.662,30.44 c -2.822,1.992 -7.231,-0.31 -9.436,-3.188 -1.808,-4.206 -5.291,-12.485 -2.381,-13.724 2.646,-1.151 8.114,1.15 11.598,5.224 3.66,5.533 3.086,9.65 0.22,11.688 z"
       id="path8" /><path
       fill="#ffce00"
       d="m 45.872,48.415 c -0.089,0.088 -0.177,0.132 -0.309,0.221 -5.688,4.029 -9.921,3.453 -11.994,0.531 -1.94,-2.745 0.22,-7.083 2.955,-9.34 4.057,-1.816 12.7,-5.535 13.978,-2.524 1.147,2.523 -0.882,7.659 -4.63,11.112"
       id="path9" /><path
       fill="#fb006d"
       d="m 26.203,50.407 c -2.645,1.15 -8.113,-1.107 -11.552,-5.18 -3.748,-5.534 -3.13,-9.696 -0.265,-11.688 2.822,-1.992 7.232,0.31 9.437,3.187 1.808,4.162 5.291,12.44 2.38,13.68 z"
       id="path10" /></g></svg>
