<?xml version="1.0" encoding="UTF-8" standalone="no"?>
<svg
   xml:space="preserve"
   width="64"
   height="64"
   version="1.1"
   id="svg7"
   sodipodi:docname="application-x-vrmonitor.svg"
   inkscape:version="1.4 (e7c3feb100, 2024-10-09)"
   xmlns:inkscape="http://www.inkscape.org/namespaces/inkscape"
   xmlns:sodipodi="http://sodipodi.sourceforge.net/DTD/sodipodi-0.dtd"
   xmlns:xlink="http://www.w3.org/1999/xlink"
   xmlns="http://www.w3.org/2000/svg"
   xmlns:svg="http://www.w3.org/2000/svg"><sodipodi:namedview
     id="namedview7"
     pagecolor="#505050"
     bordercolor="#eeeeee"
     borderopacity="1"
     inkscape:showpageshadow="0"
     inkscape:pageopacity="0"
     inkscape:pagecheckerboard="0"
     inkscape:deskcolor="#505050"
     inkscape:zoom="3.0234375"
     inkscape:cx="10.583979"
     inkscape:cy="-8.9302325"
     inkscape:window-width="1920"
     inkscape:window-height="1004"
     inkscape:window-x="0"
     inkscape:window-y="0"
     inkscape:window-maximized="1"
     inkscape:current-layer="svg7" /><defs
     id="defs6"><linearGradient
       id="b"><stop
         offset="0"
         style="stop-color:#fff;stop-opacity:1"
         id="stop1" /><stop
         offset="1"
         style="stop-color:#b3b3b3;stop-opacity:1"
         id="stop2" /></linearGradient><linearGradient
       id="a"><stop
         offset="0"
         style="stop-color:#fff;stop-opacity:1"
         id="stop3" /><stop
         offset="1"
         style="stop-color:#b3b3b3;stop-opacity:1"
         id="stop4" /></linearGradient><linearGradient
       id="c"
       x1="7.937"
       x2="7.937"
       y1="15.081"
       y2="1.852"
       gradientTransform="matrix(3.7796,0,0,3.7796,-80.702842,0)"
       gradientUnits="userSpaceOnUse"><stop
         offset="0"
         stop-color="#f1efeb"
         style="stop-color:#176fa0;stop-opacity:1"
         id="stop5" /><stop
         offset="1"
         stop-color="#fdfcfc"
         style="stop-color:#0e1c35;stop-opacity:1"
         id="stop6" /></linearGradient><linearGradient
       xlink:href="#a"
       id="e"
       x1="32.032"
       x2="32.001"
       y1="7.975"
       y2="56.025"
       gradientTransform="matrix(0.7727,0,0,0.7727,-73.428842,7.273)"
       gradientUnits="userSpaceOnUse" /><linearGradient
       xlink:href="#b"
       id="f"
       x1="32.001"
       x2="32.025"
       y1="50.564"
       y2="13.436"
       gradientUnits="userSpaceOnUse"
       gradientTransform="translate(-80.702842)" /><filter
       id="d"
       width="1.2927574"
       height="1.2951932"
       x="-0.14637868"
       y="-0.14759661"
       style="color-interpolation-filters:sRGB"><feGaussianBlur
         stdDeviation="2.955"
         id="feGaussianBlur6" /></filter><linearGradient
       id="linearGradient1154"
       x1="32.161999"
       x2="32.161999"
       y1="6.8164001"
       y2="58.631001"
       gradientUnits="userSpaceOnUse"
       gradientTransform="translate(5.859375e-7,0.004999)"><stop
         stop-color="#101a49"
         offset="0"
         id="stop19" /><stop
         stop-color="#0b3573"
         offset=".47622"
         id="stop20" /><stop
         stop-color="#0092fb"
         offset="1"
         id="stop21" /></linearGradient><linearGradient
       id="linearGradient98030"
       x1="-43.530998"
       x2="-36.629002"
       y1="27.66"
       y2="39.115002"
       gradientTransform="translate(181.0834,-49.816801)"
       gradientUnits="userSpaceOnUse"><stop
         stop-color="#b0caea"
         offset="0"
         id="stop1-3" /><stop
         stop-color="#82a8d9"
         offset=".52613"
         id="stop2-6" /><stop
         stop-color="#3775b8"
         offset=".84419"
         id="stop3-7" /><stop
         stop-color="#3a7cbe"
         offset="1"
         id="stop4-5" /></linearGradient><linearGradient
       id="linearGradient25815"
       x1="11.94"
       x2="11.94"
       y1="5.7374001"
       y2="27.461"
       gradientTransform="matrix(0.72727,0,0,0.72727,144.0204,-35.667001)"
       gradientUnits="userSpaceOnUse"
       xlink:href="#linearGradient28085" /><linearGradient
       id="linearGradient28085"><stop
         stop-color="#4f8bd0"
         offset="0"
         id="stop5-3" /><stop
         stop-color="#2760aa"
         offset=".6096"
         id="stop6-5" /><stop
         stop-color="#0f428e"
         offset="1"
         id="stop7" /></linearGradient><linearGradient
       id="linearGradient66586"
       x1="11.94"
       x2="11.94"
       y1="8.3165998"
       y2="27.66"
       gradientTransform="matrix(0.45455,0,0,0.45455,36.778,18.695)"
       gradientUnits="userSpaceOnUse"
       xlink:href="#linearGradient67764" /><linearGradient
       id="linearGradient67764"><stop
         stop-color="#e0e5ef"
         offset="0"
         id="stop8" /><stop
         stop-color="#8bbff0"
         offset=".6096"
         id="stop9" /><stop
         stop-color="#518bd0"
         offset="1"
         id="stop10" /></linearGradient><linearGradient
       id="linearGradient10019"
       x1="11.94"
       x2="11.94"
       y1="6.3492999"
       y2="27.66"
       gradientTransform="translate(30.263,9.6059)"
       gradientUnits="userSpaceOnUse"
       xlink:href="#linearGradient10017" /><linearGradient
       id="linearGradient10017"><stop
         stop-color="#ebeef5"
         offset="0"
         id="stop11" /><stop
         stop-color="#8fb9ee"
         offset=".6096"
         id="stop12" /><stop
         stop-color="#598ed7"
         offset="1"
         id="stop13" /></linearGradient><linearGradient
       id="linearGradient97865"
       x1="11.94"
       x2="11.94"
       y1="5.7374001"
       y2="27.461"
       gradientTransform="matrix(0.63616,0,0,0.63616,13.241,28.693)"
       gradientUnits="userSpaceOnUse"
       xlink:href="#linearGradient28085" /><filter
       id="filter94351"
       x="-0.108"
       y="-0.108"
       width="1.216"
       height="1.216"
       color-interpolation-filters="sRGB"><feGaussianBlur
         stdDeviation="0.45"
         id="feGaussianBlur13" /></filter><linearGradient
       id="linearGradient97867"
       x1="11.94"
       x2="11.94"
       y1="8.3165998"
       y2="27.66"
       gradientTransform="matrix(0.3976,0,0,0.3976,16.091,32.668)"
       gradientUnits="userSpaceOnUse"
       xlink:href="#linearGradient67764" /><linearGradient
       id="linearGradient97869"
       x1="11.94"
       x2="11.94"
       y1="6.3492999"
       y2="27.66"
       gradientTransform="matrix(0.87472,0,0,0.87472,120.8914,-25.099001)"
       gradientUnits="userSpaceOnUse"
       xlink:href="#linearGradient10017" /><linearGradient
       id="linearGradient1016"
       x1="-65.651001"
       x2="-68.064003"
       y1="24.808001"
       y2="40.375"
       gradientTransform="translate(68.074,1.1782)"
       gradientUnits="userSpaceOnUse"
       xlink:href="#linearGradient124531" /><linearGradient
       id="linearGradient124531"><stop
         stop-color="#e6ecf6"
         offset="0"
         id="stop26" /><stop
         stop-color="#cddae9"
         offset=".39055"
         id="stop27" /><stop
         stop-color="#81afdb"
         offset=".65818"
         id="stop28" /><stop
         stop-color="#4986c6"
         offset=".85968"
         id="stop29" /><stop
         stop-color="#3060a3"
         offset="1"
         id="stop30" /></linearGradient><linearGradient
       id="linearGradient169621"
       x1="-65.651001"
       x2="-68.064003"
       y1="24.808001"
       y2="40.375"
       gradientTransform="translate(70.584)"
       gradientUnits="userSpaceOnUse"
       xlink:href="#linearGradient124531" /><linearGradient
       inkscape:collect="always"
       xlink:href="#a"
       id="linearGradient8"
       gradientUnits="userSpaceOnUse"
       gradientTransform="matrix(0.7727,0,0,0.7727,-73.428842,7.273)"
       x1="32.032"
       y1="7.975"
       x2="32.001"
       y2="56.025" /><linearGradient
       inkscape:collect="always"
       xlink:href="#b"
       id="linearGradient9"
       gradientUnits="userSpaceOnUse"
       gradientTransform="translate(-80.702842)"
       x1="32.001"
       y1="50.564"
       x2="32.025"
       y2="13.436" /></defs><circle
     cx="32"
     cy="32"
     r="30"
     color="#000000"
     fill="url(#linearGradient1154)"
     id="circle21"
     style="fill:url(#linearGradient1154)" /><g
     id="g8"
     transform="translate(80.701843)"><path
       d="m -48.677842,13.436 c -3.46,0 -3.678,0.028 -5.8,0.76 -3.098,1.07 -5.116,2.333 -7.442,4.66 -2.096,2.095 -3.209,3.764 -4.255,6.379 -1.856,4.64 -1.623,10.395 0.597,14.826 2.68,5.346 7.4,9.017 13.189,10.257 1.923,0.412 6.558,0.288 8.467,-0.228 6.411,-1.732 11.54,-6.823 13.385,-13.284 0.743,-2.6 0.737,-7.068 -0.012,-9.695 -0.908,-3.182 -2.407,-5.733 -4.79,-8.141 -2.423,-2.451 -4.357,-3.674 -7.54,-4.773 -2.121,-0.733 -2.338,-0.761 -5.799,-0.761 m 2.088,11.87 3.713,0.118 c 3.35,0.107 3.822,0.173 4.814,0.684 1.447,0.744 2.137,1.932 2.136,3.672 -0.002,1.979 -0.723,3.26 -2.41,4.29 -0.33,0.202 -0.17,0.57 1.25,2.863 0.898,1.446 1.632,2.674 1.632,2.726 0,0.052 -0.601,0.09 -1.335,0.087 l -1.333,-0.006 -1.507,-2.538 -1.51,-2.54 -1.449,-0.006 -1.449,-0.006 v 5.102 h -2.552 V 32.53 Z m -14.422,0.066 h 1.4 l 0.447,1.217 c 0.246,0.67 1.167,3.276 2.044,5.79 0.878,2.515 1.662,4.5 1.744,4.408 0.082,-0.09 0.279,-0.582 0.44,-1.092 0.161,-0.51 1.021,-3.044 1.911,-5.627 l 1.617,-4.696 h 1.392 c 1.225,0 1.372,0.048 1.242,0.406 -0.082,0.224 -1.32,3.457 -2.752,7.188 l -2.602,6.784 -1.345,0.002 c -1.586,0.002 -1.02,1.003 -4.394,-7.77 l -2.432,-6.32 c -0.083,-0.212 0.262,-0.29 1.288,-0.29 m 16.974,2.32 v 4.87 h 1.681 c 2.168,0 3.197,-0.478 3.583,-1.66 0.389,-1.191 0.025,-2.406 -0.856,-2.862 -0.436,-0.225 -1.333,-0.348 -2.54,-0.348 z"
       style="fill:url(#linearGradient8);stroke-width:1.06154"
       id="path8" /><ellipse
       cx="-48.701843"
       cy="32"
       rx="18.719"
       ry="18.563999"
       style="opacity:1;fill:none;fill-opacity:1;stroke:url(#linearGradient9);stroke-width:1.51181;stroke-linecap:round;stroke-opacity:1;paint-order:stroke fill markers"
       id="ellipse8" /></g></svg>
