<?xml version="1.0" encoding="UTF-8"?>
<svg width="64" height="64" version="1.1" viewBox="0 0 16.933 16.933" xmlns="http://www.w3.org/2000/svg" xmlns:cc="http://creativecommons.org/ns#" xmlns:dc="http://purl.org/dc/elements/1.1/" xmlns:rdf="http://www.w3.org/1999/02/22-rdf-syntax-ns#" xmlns:xlink="http://www.w3.org/1999/xlink">
 <defs>
  <linearGradient id="linearGradient1053-2" x1="68" x2="128" y1="62" y2="2" gradientTransform="matrix(.24253 0 0 .24253 -14.649 -.67405)" gradientUnits="userSpaceOnUse">
   <stop stop-color="#e0e4e9" offset="0"/>
   <stop stop-color="#fefeff" offset="1"/>
  </linearGradient>
 </defs>
 <metadata>
  <rdf:RDF>
   <cc:Work rdf:about="">
    <dc:format>image/svg+xml</dc:format>
    <dc:type rdf:resource="http://purl.org/dc/dcmitype/StillImage"/>
    <dc:title/>
   </cc:Work>
  </rdf:RDF>
 </metadata>
 <g transform="translate(-.65201 1.3796)">
  <rect x="1.8426" y="-.18899" width="14.552" height="14.552" ry=".72759" fill="url(#linearGradient1053-2)" stroke-width=".91667"/>
  <path d="m12.137 9.1276c-0.34283 0.053231-0.6724 0.10441-1.0182 0.15811 0.06103-1.6046 0.12182-3.2026 0.18272-4.8034 0.02854-0.00733 0.05171-0.015449 0.07556-0.019153 0.65649-0.10194 1.3122-0.209 1.9699-0.3019 0.18594-0.026337 0.37951-0.029068 0.56666-0.011443 0.60865 0.057327 1.0231 0.43763 1.1224 1.0395 0.11695 0.70773-0.05026 1.3407-0.5426 1.8774-0.31901 0.3476-0.72994 0.51583-1.1797 0.60104-0.34036 0.064432-0.68395 0.11272-1.0267 0.16413-0.07304 0.01098-0.10336 0.032518-0.10541 0.11482-0.01013 0.39066-0.02872 0.78121-0.04465 1.1809zm0.07807-2.0241c0.3527-0.068883 0.68353-0.11663 1.0049-0.20092 0.41981-0.10989 0.68726-0.38741 0.7479-0.82446 0.02902-0.20937 0.03388-0.42747 0.01092-0.63745-0.03636-0.33205-0.20411-0.49748-0.53836-0.49155-0.38044 0.00678-0.75994 0.066243-1.1474 0.1036-0.02632 0.69179-0.05143 1.3564-0.07789 2.0508zm-8.0317 3.2573c-0.34248 0.053181-0.67558 0.10491-1.0178 0.15805 0.060773-1.6028 0.12137-3.1986 0.18216-4.8012 0.033346-0.0078901 0.063854-0.017696 0.095303-0.022581 0.6441-0.10019 1.2877-0.20484 1.9331-0.29655 0.18184-0.025882 0.37086-0.031166 0.5541-0.015458 0.60213 0.051463 0.99389 0.36688 1.1302 0.95285 0.26573 1.1437-0.38171 2.0802-1.1184 2.3862-0.19655 0.081552-0.40517 0.14237-0.61401 0.18438-0.33131 0.066831-0.66715 0.11137-1.0018 0.16153-0.068968 0.01035-0.095717 0.032771-0.097913 0.10841-0.010778 0.39095-0.028818 0.78176-0.044871 1.1842zm0.077956-2.0223c0.35025-0.06832 0.68129-0.11592 1.0026-0.20003 0.43057-0.11283 0.69754-0.39932 0.75391-0.84748 0.025462-0.20194 0.030209-0.41153 0.0077761-0.61344-0.037071-0.33195-0.20471-0.49901-0.53769-0.49309-0.38065 0.0066242-0.76032 0.066122-1.1487 0.10327-0.026322 0.69179-0.05158 1.3566-0.077889 2.0508zm3.1353-4.5264c0.34336-0.053315 0.6724-0.10441 1.0099-0.15682-0.015561 0.42662-0.030877 0.84542-0.046535 1.276 0.27461-0.042642 0.53808-0.092963 0.80393-0.12211 0.26941-0.029527 0.54274-0.065273 0.81163-0.050381 0.56827 0.031565 0.85525 0.35293 0.8439 0.93017-0.01296 0.6546-0.04399 1.3087-0.06707 1.9631-0.0043 0.11538-0.0044 0.23087-0.01548 0.34554-0.0028 0.030313-0.03674 0.078095-0.06227 0.082604-0.31628 0.054001-0.63373 0.10167-0.96437 0.153 0.011457-0.31794 0.022573-0.62154 0.033346-0.92504 0.015405-0.44035 0.036088-0.88062 0.043531-1.321 0.0054902-0.32227-0.13985-0.45896-0.4617-0.42327-0.32737 0.036175-0.65187 0.097958-0.99578 0.15136-0.034793 0.90884-0.06987 1.8204-0.1053 2.7402-0.33311 0.051733-0.66497 0.10326-1.0103 0.15687 0.060949-1.6017 0.12147-3.1968 0.18248-4.8003z" fill="#4d4d4d" fill-rule="evenodd" stroke-width=".90002" vector-effect="non-scaling-stroke" style="isolation:isolate"/>
 </g>
</svg>
