<?xml version="1.0" encoding="UTF-8" standalone="no"?>
<svg
   xmlns:dc="http://purl.org/dc/elements/1.1/"
   xmlns:cc="http://creativecommons.org/ns#"
   xmlns:rdf="http://www.w3.org/1999/02/22-rdf-syntax-ns#"
   xmlns:svg="http://www.w3.org/2000/svg"
   xmlns="http://www.w3.org/2000/svg"
   xmlns:xlink="http://www.w3.org/1999/xlink"
   xmlns:sodipodi="http://sodipodi.sourceforge.net/DTD/sodipodi-0.dtd"
   xmlns:inkscape="http://www.inkscape.org/namespaces/inkscape"
   width="64"
   height="64"
   version="1.1"
   id="svg34"
   sodipodi:docname="applications-engineering.svg"
   inkscape:version="1.0.2 (e86c870879, 2021-01-15)">
  <metadata
     id="metadata40">
    <rdf:RDF>
      <cc:Work
         rdf:about="">
        <dc:format>image/svg+xml</dc:format>
        <dc:type
           rdf:resource="http://purl.org/dc/dcmitype/StillImage" />
        <dc:title></dc:title>
      </cc:Work>
    </rdf:RDF>
  </metadata>
  <defs
     id="defs38">
    <linearGradient
       id="a"
       gradientUnits="userSpaceOnUse"
       x1="399.57144"
       x2="399.57144"
       y1="545.79797"
       y2="517.79797">
      <stop
         offset="0"
         stop-color="#3889e9"
         id="stop2" />
      <stop
         offset="1"
         stop-color="#5ea5fb"
         id="stop4" />
    </linearGradient>
    <linearGradient
       id="b"
       gradientUnits="userSpaceOnUse"
       x1="400.5119"
       x2="400.69922"
       y1="546.07446"
       y2="517.77289">
      <stop
         offset="0"
         stop-color="#1d2125"
         id="stop7" />
      <stop
         offset="1"
         stop-color="#67747f"
         id="stop9" />
    </linearGradient>
    <linearGradient
       id="c"
       gradientUnits="userSpaceOnUse"
       x1="282.37482"
       x2="281.83868"
       y1="644.84979"
       y2="10.592493">
      <stop
         offset="0"
         stop-color="#e3e3e3"
         id="stop12" />
      <stop
         offset="1"
         stop-color="#fffcff"
         id="stop14" />
    </linearGradient>
    <linearGradient
       inkscape:collect="always"
       xlink:href="#c"
       id="linearGradient903"
       gradientUnits="userSpaceOnUse"
       x1="282.37482"
       y1="644.84979"
       x2="281.83868"
       y2="10.592493" />
    <linearGradient
       inkscape:collect="always"
       xlink:href="#c"
       id="linearGradient962"
       gradientUnits="userSpaceOnUse"
       x1="282.37482"
       y1="644.84979"
       x2="281.83868"
       y2="10.592493" />
    <linearGradient
       inkscape:collect="always"
       xlink:href="#c"
       id="linearGradient964"
       gradientUnits="userSpaceOnUse"
       x1="282.37482"
       y1="644.84979"
       x2="281.83868"
       y2="10.592493" />
  </defs>
  <sodipodi:namedview
     pagecolor="#ffffff"
     bordercolor="#666666"
     borderopacity="1"
     objecttolerance="10"
     gridtolerance="10"
     guidetolerance="10"
     inkscape:pageopacity="0"
     inkscape:pageshadow="2"
     inkscape:window-width="1920"
     inkscape:window-height="936"
     id="namedview36"
     showgrid="false"
     inkscape:zoom="6.0546875"
     inkscape:cx="45.812801"
     inkscape:cy="22.630782"
     inkscape:window-x="0"
     inkscape:window-y="38"
     inkscape:window-maximized="1"
     inkscape:current-layer="svg34" />
  <g
     transform="matrix(1.9174843,0,0,1.9174843,-736.21692,-987.80154)"
     id="g31">
    <circle
       cx="400.57138"
       cy="531.79791"
       fill="url(#a)"
       id="ellipse17"
       r="0"
       style="fill:url(#a)" />
    <g
       transform="matrix(1.1175366,0,0,1.1175366,-47.015292,-62.460178)"
       id="g29">
      <circle
         cx="400.57138"
         cy="531.79791"
         fill="url(#b)"
         r="13.999958"
         id="circle19"
         style="fill:url(#b)" />
      <circle
         cx="400.57144"
         cy="531.79797"
         fill="none"
         r="13.999958"
         id="circle21" />
      <g
         fill="url(#c)"
         transform="matrix(0.01679572,-0.01733723,0.01733723,0.01679572,390.31811,532.21167)"
         id="g27"
         style="fill:url(#linearGradient903)">
        <path
           d="M 562.041,0 C 391.347,0 220.653,0 49.959,0 22.368,0 0,22.368 0,49.959 V 562.041 C 0,589.632 22.368,612 49.959,612 H 562.041 C 589.632,612 612,589.632 612,562.041 612,391.347 612,220.654 612,49.959 612,22.368 589.632,0 562.041,0 Z M 49.959,37.469 c 6.898,0 12.49,5.592 12.49,12.49 0,6.898 -5.592,12.49 -12.49,12.49 -6.898,0 -12.49,-5.592 -12.49,-12.49 0,-6.898 5.592,-12.49 12.49,-12.49 z m 0,537.062 c -6.898,0 -12.49,-5.592 -12.49,-12.49 0,-6.898 5.592,-12.49 12.49,-12.49 6.898,0 12.49,5.592 12.49,12.49 0,6.898 -5.592,12.49 -12.49,12.49 z M 306,554.547 C 168.731,554.547 57.453,443.269 57.453,306 57.453,168.731 168.731,57.453 306,57.453 443.269,57.453 554.547,168.731 554.547,306 554.547,443.269 443.269,554.547 306,554.547 Z m 256.041,19.984 c -6.898,0 -12.49,-5.592 -12.49,-12.49 0,-6.898 5.592,-12.49 12.49,-12.49 6.898,0 12.49,5.592 12.49,12.49 0,6.898 -5.592,12.49 -12.49,12.49 z m 0,-512.082 c -6.898,0 -12.49,-5.592 -12.49,-12.49 0,-6.898 5.592,-12.49 12.49,-12.49 6.898,0 12.49,5.592 12.49,12.49 0,6.898 -5.592,12.49 -12.49,12.49 z"
           fill="url(#c)"
           id="path23"
           style="fill:url(#linearGradient962)" />
        <path
           d="m 524.976,260.924 c -1.238,-6.015 -3.819,-10.307 -8.554,-14.218 -37.84,-31.272 -90.317,-29.17 -157.433,6.305 -4.38,-4.38 -9.121,-8.082 -14.434,-11.27 46.257,-41.499 88.423,-58.921 126.495,-52.269 11.225,1.961 18.998,-10.901 12.043,-19.926 -15.437,-20.035 -33.006,-36.347 -54.128,-50.259 -5.13,-3.378 -9.989,-4.586 -16.103,-4.005 -48.869,4.645 -84.49,43.238 -106.863,115.78 -6.195,0 -12.165,0.734 -18.175,2.237 3.365,-62.052 20.86,-104.187 52.486,-126.405 9.324,-6.55 5.725,-21.141 -5.574,-22.607 -25.083,-3.251 -49.04,-2.363 -73.813,2.737 -6.015,1.238 -10.307,3.819 -14.218,8.554 -31.272,37.84 -29.17,90.317 6.305,157.433 -4.38,4.38 -8.082,9.121 -11.27,14.434 -41.499,-46.257 -58.921,-88.423 -52.269,-126.495 1.961,-11.225 -10.901,-18.998 -19.926,-12.044 -20.035,15.437 -36.347,33.006 -50.259,54.128 -3.378,5.13 -4.586,9.989 -4.005,16.103 4.645,48.869 43.238,84.49 115.78,106.863 0,6.195 0.734,12.165 2.237,18.175 -62.052,-3.365 -104.187,-20.86 -126.405,-52.486 -6.55,-9.324 -21.141,-5.725 -22.607,5.574 -3.251,25.083 -2.363,49.04 2.737,73.813 1.238,6.015 3.819,10.307 8.554,14.218 37.84,31.272 90.317,29.17 157.433,-6.305 4.38,4.38 9.121,8.082 14.434,11.27 -46.257,41.499 -88.423,58.921 -126.495,52.269 -11.225,-1.961 -18.998,10.901 -12.043,19.926 15.437,20.035 33.006,36.347 54.128,50.259 5.13,3.378 9.989,4.586 16.103,4.005 48.869,-4.645 84.49,-43.238 106.863,-115.78 6.195,0 12.165,-0.734 18.175,-2.238 -3.365,62.052 -20.86,104.187 -52.486,126.405 -9.324,6.55 -5.725,21.141 5.574,22.607 25.083,3.251 49.04,2.363 73.813,-2.737 6.015,-1.238 10.307,-3.819 14.218,-8.554 31.272,-37.84 29.17,-90.317 -6.305,-157.433 4.38,-4.38 8.082,-9.121 11.27,-14.434 41.499,46.257 58.921,88.423 52.269,126.495 -1.961,11.225 10.901,18.998 19.926,12.043 20.035,-15.437 36.347,-33.006 50.259,-54.128 3.378,-5.13 4.586,-9.989 4.005,-16.103 -4.645,-48.869 -43.238,-84.49 -115.78,-106.863 0,-6.195 -0.734,-12.165 -2.237,-18.175 62.052,3.365 104.187,20.86 126.405,52.486 6.55,9.324 21.141,5.725 22.607,-5.574 3.251,-25.082 2.363,-49.037 -2.737,-73.811 z M 306,368.449 c -34.489,0 -62.449,-27.96 -62.449,-62.449 0,-34.489 27.96,-62.449 62.449,-62.449 34.489,0 62.449,27.96 62.449,62.449 0,34.489 -27.96,62.449 -62.449,62.449 z"
           fill="url(#c)"
           id="path25"
           style="fill:url(#linearGradient964)" />
      </g>
    </g>
  </g>
</svg>
