<?xml version="1.0" encoding="UTF-8" standalone="no"?>
<svg
   xmlns:dc="http://purl.org/dc/elements/1.1/"
   xmlns:cc="http://creativecommons.org/ns#"
   xmlns:rdf="http://www.w3.org/1999/02/22-rdf-syntax-ns#"
   xmlns:svg="http://www.w3.org/2000/svg"
   xmlns="http://www.w3.org/2000/svg"
   xmlns:xlink="http://www.w3.org/1999/xlink"
   xmlns:sodipodi="http://sodipodi.sourceforge.net/DTD/sodipodi-0.dtd"
   xmlns:inkscape="http://www.inkscape.org/namespaces/inkscape"
   width="64"
   height="64"
   version="1.1"
   viewBox="0 0 16.933 16.933"
   id="svg81"
   sodipodi:docname="applications-games.svg"
   inkscape:version="1.0.1 (3bc2e813f5, 2020-09-07)">
  <sodipodi:namedview
     pagecolor="#ffffff"
     bordercolor="#666666"
     borderopacity="1"
     objecttolerance="10"
     gridtolerance="10"
     guidetolerance="10"
     inkscape:pageopacity="0"
     inkscape:pageshadow="2"
     inkscape:window-width="1920"
     inkscape:window-height="935"
     id="namedview83"
     showgrid="false"
     inkscape:zoom="6.0546875"
     inkscape:cx="20.946586"
     inkscape:cy="44.940399"
     inkscape:window-x="0"
     inkscape:window-y="38"
     inkscape:window-maximized="1"
     inkscape:current-layer="svg81" />
  <defs
     id="defs33">
    <linearGradient
       id="linearGradient1107">
      <stop
         stop-color="#505050"
         offset="0"
         id="stop2" />
      <stop
         stop-color="#0a0a0a"
         offset="1"
         id="stop4" />
    </linearGradient>
    <style
       type="text/css"
       id="style7" />
    <linearGradient
       id="linearGradient1034"
       x1="-71.993"
       x2="-73.616"
       y1="2.5497"
       y2="13.762"
       gradientTransform="translate(78.585,0.33847)"
       gradientUnits="userSpaceOnUse">
      <stop
         stop-color="#32d2ff"
         offset="0"
         id="stop9" />
      <stop
         stop-color="#32b4ff"
         offset="1"
         id="stop11" />
    </linearGradient>
    <linearGradient
       id="linearGradient1042"
       x1="-74.394"
       x2="-75.461"
       y1="-16.69"
       y2="-4.4751"
       gradientTransform="translate(75.82,20.666)"
       gradientUnits="userSpaceOnUse">
      <stop
         stop-color="#0073d2"
         offset="0"
         id="stop14" />
      <stop
         stop-color="#143c73"
         offset="1"
         id="stop16" />
    </linearGradient>
    <linearGradient
       id="linearGradient1050"
       x1="-66.237"
       x2="-59.585"
       y1="21.255"
       y2="31.868"
       gradientTransform="translate(75.995,-20.012)"
       gradientUnits="userSpaceOnUse">
      <stop
         stop-color="#fff"
         offset="0"
         id="stop19" />
      <stop
         stop-color="#d2d2d2"
         offset="1"
         id="stop21" />
    </linearGradient>
    <filter
       id="filter1058"
       x="-.092516"
       y="-.076919"
       width="1.185"
       height="1.1538"
       color-interpolation-filters="sRGB">
      <feGaussianBlur
         stdDeviation="0.46236326"
         id="feGaussianBlur24" />
    </filter>
    <filter
       id="filter1072"
       x="-.0996"
       y="-.072625"
       width="1.1992"
       height="1.1452"
       color-interpolation-filters="sRGB">
      <feGaussianBlur
         stdDeviation="0.38429972"
         id="feGaussianBlur27" />
    </filter>
    <style
       type="text/css"
       id="style30" />
    <linearGradient
       id="linearGradient1109"
       x1="720.94"
       x2="626.77"
       y1="456.88"
       y2="819.08"
       gradientUnits="userSpaceOnUse"
       xlink:href="#linearGradient1107" />
    <linearGradient
       inkscape:collect="always"
       xlink:href="#linearGradient1107"
       id="linearGradient908"
       gradientUnits="userSpaceOnUse"
       x1="720.94"
       y1="456.88"
       x2="626.77"
       y2="819.08" />
    <linearGradient
       inkscape:collect="always"
       xlink:href="#linearGradient1107"
       id="linearGradient910"
       gradientUnits="userSpaceOnUse"
       x1="720.94"
       y1="456.88"
       x2="626.77"
       y2="819.08" />
    <linearGradient
       inkscape:collect="always"
       xlink:href="#linearGradient1107"
       id="linearGradient912"
       gradientUnits="userSpaceOnUse"
       x1="720.94"
       y1="456.88"
       x2="626.77"
       y2="819.08" />
    <linearGradient
       inkscape:collect="always"
       xlink:href="#linearGradient1107"
       id="linearGradient914"
       gradientUnits="userSpaceOnUse"
       x1="720.94"
       y1="456.88"
       x2="626.77"
       y2="819.08" />
    <linearGradient
       inkscape:collect="always"
       xlink:href="#linearGradient1107"
       id="linearGradient916"
       gradientUnits="userSpaceOnUse"
       x1="720.94"
       y1="456.88"
       x2="626.77"
       y2="819.08" />
    <linearGradient
       inkscape:collect="always"
       xlink:href="#linearGradient1107"
       id="linearGradient918"
       gradientUnits="userSpaceOnUse"
       x1="720.94"
       y1="456.88"
       x2="626.77"
       y2="819.08" />
  </defs>
  <metadata
     id="metadata35">
    <rdf:RDF>
      <cc:Work
         rdf:about="">
        <dc:format>image/svg+xml</dc:format>
        <dc:type
           rdf:resource="http://purl.org/dc/dcmitype/StillImage" />
        <dc:title></dc:title>
      </cc:Work>
    </rdf:RDF>
  </metadata>
  <g
     transform="translate(-21.834 .89695)"
     fill="#5e4aa6"
     stroke-width=".26458"
     id="g45">
    <circle
       cx="-330.35"
       cy="-328.38"
       r="0"
       id="circle37" />
    <circle
       cx="-312.11"
       cy="-326.25"
       r="0"
       id="circle39" />
    <circle
       cx="-306.02"
       cy="-333.07"
       r="0"
       id="circle41" />
    <circle
       cx="-308.84"
       cy="-326.01"
       r="0"
       id="circle43" />
  </g>
  <g
     transform="translate(21.668 -4.305)"
     fill="#5e4aa6"
     stroke-width=".26458"
     id="g53">
    <circle
       cx="-322.63"
       cy="-345.67"
       r="0"
       id="circle47" />
    <circle
       cx="-31.726"
       cy="-10.849"
       r="0"
       fill-rule="evenodd"
       id="circle49" />
    <circle
       cx="-306.92"
       cy="-328.72"
       r="0"
       id="circle51" />
  </g>
  <g
     transform="matrix(0.91734869,0,0,0.91734869,0.6998943,0.69978184)"
     id="g79">
    <rect
       transform="rotate(-15)"
       x="-0.54904997"
       y="3.6573999"
       width="9.2601995"
       height="12.7"
       ry="0.52916002"
       fill="url(#linearGradient1042)"
       id="rect55"
       style="fill:url(#linearGradient1042)" />
    <rect
       transform="matrix(0.9251,0,0,0.93596,72.911,0.87055)"
       x="-74.875999"
       y="1.0583"
       width="9.2601995"
       height="12.7"
       ry="0.52916002"
       filter="url(#filter1072)"
       opacity="0.35"
       id="rect57" />
    <rect
       x="3.7098999"
       y="1.3968"
       width="9.2601995"
       height="12.7"
       ry="0.52916002"
       fill="url(#linearGradient1034)"
       id="rect59"
       style="fill:url(#linearGradient1034)" />
    <rect
       transform="matrix(0.89273,0.23918,-0.23921,0.89264,72.864,0.82253)"
       x="-68.454002"
       y="19.315001"
       width="9.2601995"
       height="12.7"
       ry="0.52916002"
       filter="url(#filter1058)"
       opacity="0.35"
       id="rect61" />
    <rect
       transform="rotate(15)"
       x="7.5412998"
       y="-0.69748002"
       width="9.2601995"
       height="12.7"
       ry="0.52916002"
       fill="url(#linearGradient1050)"
       id="rect63"
       style="fill:url(#linearGradient1050)" />
    <g
       fill="url(#linearGradient1109)"
       id="g77"
       style="fill:url(#linearGradient1109)">
      <g
         transform="matrix(0.014007,0,0,0.014007,0.73052,0.065283)"
         id="g67"
         style="fill:url(#linearGradient910)">
        <path
           d="m 661.97,695.62 c -10.095,69.016 40.25,98.339 85.808,136.07 -78.332,-20.68 -151.26,-39.869 -224.19,-59.058 26.69,-6.6408 53.886,-9.4823 78.868,-20.82 25.083,-11.438 47.761,-25.273 53.214,-56.081 -10.405,-3.1841 -13.793,4.5211 -18.888,8.0288 -41.955,29.464 -96.161,25.347 -128.32,-10.104 -31.954,-35.251 -31.133,-87.053 2.1071,-126.3 19.365,-22.93 43.439,-40.166 69.216,-54.906 40.265,-22.962 82.737,-41.026 126.61,-56.093 11.594,-4.0177 19.795,-3.5302 28.209,5.8569 41.771,46.436 80.245,95.178 105.13,153.04 10.838,25.083 16.878,50.974 14.721,79.178 -3.1368,41.405 -42.09,71.864 -75.481,77.815 -39.589,6.9605 -82.926,-17.173 -101.18,-54.546 -3.511,-7.1946 -4.3249,-16.293 -15.834,-22.076 z"
           fill="url(#linearGradient1109)"
           p-id="5540"
           id="path65"
           style="fill:url(#linearGradient908)" />
      </g>
      <g
         transform="matrix(0.003992,0,0,0.003992,5.7977,0.37829)"
         id="g71"
         style="fill:url(#linearGradient914)">
        <path
           d="m 661.97,695.62 c -10.095,69.016 40.25,98.339 85.808,136.07 -78.332,-20.68 -151.26,-39.869 -224.19,-59.058 26.69,-6.6408 53.886,-9.4823 78.868,-20.82 25.083,-11.438 47.761,-25.273 53.214,-56.081 -10.405,-3.1841 -13.793,4.5211 -18.888,8.0288 -41.955,29.464 -96.161,25.347 -128.32,-10.104 -31.954,-35.251 -31.133,-87.053 2.1071,-126.3 19.365,-22.93 43.439,-40.166 69.216,-54.906 40.265,-22.962 82.737,-41.026 126.61,-56.093 11.594,-4.0177 19.795,-3.5302 28.209,5.8569 41.771,46.436 80.245,95.178 105.13,153.04 10.838,25.083 16.878,50.974 14.721,79.178 -3.1368,41.405 -42.09,71.864 -75.481,77.815 -39.589,6.9605 -82.926,-17.173 -101.18,-54.546 -3.511,-7.1946 -4.3249,-16.293 -15.834,-22.076 z"
           fill="url(#linearGradient1109)"
           p-id="5540"
           id="path69"
           style="fill:url(#linearGradient912)" />
      </g>
      <g
         transform="matrix(0.003992,0,0,0.003992,9.5018,11.835)"
         id="g75"
         style="fill:url(#linearGradient918)">
        <path
           d="m 661.97,695.62 c -10.095,69.016 40.25,98.339 85.808,136.07 -78.332,-20.68 -151.26,-39.869 -224.19,-59.058 26.69,-6.6408 53.886,-9.4823 78.868,-20.82 25.083,-11.438 47.761,-25.273 53.214,-56.081 -10.405,-3.1841 -13.793,4.5211 -18.888,8.0288 -41.955,29.464 -96.161,25.347 -128.32,-10.104 -31.954,-35.251 -31.133,-87.053 2.1071,-126.3 19.365,-22.93 43.439,-40.166 69.216,-54.906 40.265,-22.962 82.737,-41.026 126.61,-56.093 11.594,-4.0177 19.795,-3.5302 28.209,5.8569 41.771,46.436 80.245,95.178 105.13,153.04 10.838,25.083 16.878,50.974 14.721,79.178 -3.1368,41.405 -42.09,71.864 -75.481,77.815 -39.589,6.9605 -82.926,-17.173 -101.18,-54.546 -3.511,-7.1946 -4.3249,-16.293 -15.834,-22.076 z"
           fill="url(#linearGradient1109)"
           p-id="5540"
           id="path73"
           style="fill:url(#linearGradient916)" />
      </g>
    </g>
  </g>
</svg>
