<?xml version="1.0" encoding="UTF-8"?>
<svg width="64" height="64" version="1.1" viewBox="0 0 16.933 16.933" xmlns="http://www.w3.org/2000/svg" xmlns:cc="http://creativecommons.org/ns#" xmlns:dc="http://purl.org/dc/elements/1.1/" xmlns:rdf="http://www.w3.org/1999/02/22-rdf-syntax-ns#" xmlns:xlink="http://www.w3.org/1999/xlink">
 <defs>
  <linearGradient id="linearGradient984" x1="19.843" x2="33.837" y1="-82.284" y2="-72.245" gradientTransform="matrix(.83334 0 0 .83334 -9.4847 70.954)" gradientUnits="userSpaceOnUse" xlink:href="#linearGradient3490"/>
  <linearGradient id="linearGradient3490" x1="19.843" x2="33.837" y1="-82.284" y2="-72.245" gradientTransform="matrix(.83332 0 0 .83332 -14.904 74.081)" gradientUnits="userSpaceOnUse">
   <stop stop-color="#0c35f9" offset="0"/>
   <stop stop-color="#2acbd7" offset="1"/>
  </linearGradient>
  <filter id="filter994" x="-.0318" y="-.041478" width="1.0636" height="1.083" color-interpolation-filters="sRGB">
   <feGaussianBlur stdDeviation="0.17528405"/>
  </filter>
  <linearGradient id="linearGradient986" x1="19.843" x2="33.837" y1="-82.284" y2="-72.245" gradientTransform="matrix(.83334 0 0 .83334 -11.557 73.989)" gradientUnits="userSpaceOnUse" xlink:href="#linearGradient3490"/>
  <filter id="filter5373" x="-.036" y="-.036" width="1.072" height="1.072" color-interpolation-filters="sRGB">
   <feGaussianBlur stdDeviation="11.232675"/>
  </filter>
  <linearGradient id="linearGradient1456" x1="134.9" x2="875.38" y1="874.55" y2="133.73" gradientTransform="matrix(.0085716 0 0 .0085716 6.0459 5.1196)" gradientUnits="userSpaceOnUse">
   <stop stop-color="#b2b5b0" offset="0"/>
   <stop stop-color="#9d9a9c" offset="1"/>
  </linearGradient>
  <filter id="filter5452" x="-.059686" y="-.060317" width="1.1194" height="1.1206" color-interpolation-filters="sRGB">
   <feGaussianBlur stdDeviation="0.15866259"/>
  </filter>
  <linearGradient id="linearGradient5309" x1="332.87" x2="1204.8" y1="498.29" y2="498.29" gradientTransform="matrix(.0073166 0 0 .0073166 5.3536 5.9376)" gradientUnits="userSpaceOnUse">
   <stop stop-color="#232220" offset="0"/>
   <stop stop-color="#4c4b4b" offset="1"/>
  </linearGradient>
 </defs>
 <metadata>
  <rdf:RDF>
   <cc:Work rdf:about="">
    <dc:format>image/svg+xml</dc:format>
    <dc:type rdf:resource="http://purl.org/dc/dcmitype/StillImage"/>
    <dc:title/>
   </cc:Work>
  </rdf:RDF>
 </metadata>
 <g transform="translate(-2.0237 -.92118)">
  <rect transform="rotate(15)" x="5.948" y="1.2818" width="13.229" height="10.142" ry=".66144" fill="url(#linearGradient984)" stroke-width=".83334"/>
  <rect transform="matrix(1 0 0 1 1.9519 1.3876)" x="1.9237" y="2.9292" width="13.229" height="10.142" ry=".66143" filter="url(#filter994)" opacity=".3" stroke-width=".83332"/>
  <rect x="3.8757" y="4.3168" width="13.229" height="10.142" ry=".66144" fill="url(#linearGradient986)" stroke-width=".83334"/>
  <g fill="#eaeaea">
   <rect x="3.8757" y="5.5803" width="13.229" height=".13184" ry="0"/>
   <rect x="3.8757" y="13.064" width="13.229" height=".13184" ry="0"/>
   <rect transform="rotate(-90)" x="-14.459" y="5.262" width="10.143" height=".13184" ry="0" stroke-width=".87562"/>
   <rect transform="rotate(-90)" x="-14.459" y="15.587" width="10.143" height=".13184" ry="0" stroke-width=".87562"/>
  </g>
  <path transform="matrix(.0087893 0 0 .0087893 5.9787 5.0103)" d="M 130.72,736.4 739.5,127.63 879.57,267.7 270.8,876.47 Z" filter="url(#filter5373)" opacity=".3" stroke-width="1.0181" p-id="24015"/>
  <path transform="matrix(.0087893 0 0 .0087893 5.9787 5.0103)" d="m144.14 724.34 583.31-583.31 119.48 119.47-583.32 583.32z" filter="url(#filter5373)" opacity=".3" p-id="24017"/>
  <path transform="matrix(.0087893 0 0 .0087893 5.9787 5.0103)" d="m645.15 221.59 94.413 94.413a10.24 10.24 0 0 1 0 14.029 10.24 10.24 0 0 1-14.131 0l-94.31-94.515zm-118.58 118.68 94.31 94.31a10.24 10.24 0 0 1-14.131 14.131l-94.31-94.31zm-120.73 120.52 65.434 65.331a10.24 10.24 0 0 1 0 14.029 10.24 10.24 0 0 1-14.131 0l-65.331-65.331zm90.931 90.931a10.24 10.24 0 0 1-14.029 14.029 10.24 10.24 0 0 1 14.029-14.029zm-207.56 25.907 94.31 94.31a10.24 10.24 0 1 1-13.517 14.131l-94.31-94.31zm296.96-296.96 43.622 43.622a10.24 10.24 0 0 1-14.029 14.336l-43.622-43.622zm-118.99 118.68 43.725 43.622a10.24 10.24 0 0 1-14.131 14.029l-43.622-43.315zm-118.68 118.89 43.725 43.725a10.24 10.24 0 0 1 0 14.029 10.24 10.24 0 0 1-14.131 0l-43.622-43.52zm-118.58 118.68 43.622 43.622a10.24 10.24 0 1 1-14.131 14.131l-43.622-43.622z" filter="url(#filter5373)" opacity=".3" p-id="24019"/>
  <path d="m7.2092 11.432 5.2182-5.2181 1.2006 1.2006-5.2181 5.2181z" fill="url(#linearGradient1456)" stroke-width=".0087267" p-id="24015"/>
  <path d="m7.3242 11.328 4.9999-4.9999 1.0241 1.024-5 5z" fill="#f0f0f0" stroke-width=".0085716" p-id="24017"/>
  <path d="m11.619 7.019 0.80927 0.80927a0.087773 0.087773 0 0 1 0 0.12025 0.087773 0.087773 0 0 1-0.12112 0l-0.80838-0.81014zm-1.0164 1.0173 0.80838 0.80838a0.087773 0.087773 0 0 1-0.12112 0.12112l-0.80838-0.80838zm-1.0348 1.033 0.56087 0.55999a0.087773 0.087773 0 0 1 0 0.12025 0.087773 0.087773 0 0 1-0.12112 0l-0.55999-0.55999zm0.77942 0.77942a0.087773 0.087773 0 0 1-0.12025 0.12025 0.087773 0.087773 0 0 1 0.12025-0.12025zm-1.7791 0.22206 0.80838 0.80838a0.087773 0.087773 0 1 1-0.11586 0.12112l-0.80838-0.80838zm2.5454-2.5454 0.37391 0.37391a0.087773 0.087773 0 0 1-0.12025 0.12288l-0.37391-0.37391zm-1.0199 1.0173 0.37479 0.37391a0.087773 0.087773 0 0 1-0.12112 0.12025l-0.37391-0.37128zm-1.0173 1.0191 0.37479 0.37479a0.087773 0.087773 0 0 1 0 0.12025 0.087773 0.087773 0 0 1-0.12112 0l-0.37391-0.37303zm-1.0164 1.0173 0.37391 0.37391a0.087773 0.087773 0 1 1-0.12112 0.12112l-0.37391-0.37391z" fill="#323232" stroke-width=".0085716" p-id="24019"/>
  <path transform="matrix(.0073166 0 0 .0073166 5.9288 5.9376)" d="m1061.3 548.01-4.9916-14.955c-10.16-40.668-37.49-56.924-37.49-56.924l-99.517-47.571-152.45-72.864-40.189-19.218-57.41-27.441-57.298-27.388c5.5696-10.896-3.9539-22.193-3.9539-22.193l-145.24-145.26-46.481 46.481-80.608-80.608c-10.496-10.495-19.677-13.215-26.35-13.215-7.1853 0-11.487 3.1395-11.487 3.1395l-15.185 15.152-11.619 11.632-11.632 11.619s-15.244 19.618 6.5482 41.391l80.608 80.608-46.481 46.494 145.25 145.25s7.0736 4.1903 15.152 4.1903c2.8965 0 5.9374-0.54514 8.8141-2.0164l27.52 57.187 40.767 84.739 22.85 47.479 56.431 117.26 47.795 99.293s16.696 26.869 57.377 37.043l17.569 5.7929 36.242 38.494c11.251 11.934 19.007 18.114 22.081 18.114 2.3973 0 1.9375-3.7634-1.9704-11.474l-16.131-31.854 11.56 3.8028-103.33-230.4-93.973-209.54-20.032-44.668-0.4138-0.93264-1.9375-4.3217 18.062-18.062 4.3217 1.931 14.272 6.4168 44.721 20.078 196.01 88.029 230.3 103.44-5.6615-16.958 38.284 18.469s20.702-9.8059 11.986-24.334z" filter="url(#filter5452)" opacity=".5" p-id="2429"/>
  <path transform="matrix(1 0 0 1 1.9519 1.3876)" d="m6.1726 6.5759 1.0627 1.0627s0.12579 0.071498 0.17535 0.015906c0.049563-0.055591 1.0438-1.0438 1.0438-1.0438s0.043323-0.090122-0.028929-0.16237c-0.072252-0.072252-1.0627-1.0628-1.0627-1.0628z" filter="url(#filter5452)" opacity=".5"/>
  <path transform="matrix(1 0 0 1 1.9519 1.3876)" d="m9.3884 10.938s0.38153 0.44043 0.43016 0.41181c0.04346-0.02242-0.13588-0.31464-0.13588-0.31464z" filter="url(#filter5452)" opacity=".5"/>
  <path transform="matrix(1 0 0 1 1.9519 1.3876)" d="m11.833 8.8318 0.2801 0.13513s0.15285-0.06853 0.0877-0.17804l-0.45872-0.22931z" filter="url(#filter5452)" opacity=".5"/>
  <path d="m13.694 9.9472-0.03652-0.10942c-0.07434-0.29755-0.2743-0.41649-0.2743-0.41649l-0.72813-0.34806-1.1154-0.53312-0.29405-0.14061-0.42005-0.20078-0.41923-0.20039c0.04075-0.079722-0.02893-0.16238-0.02893-0.16238l-1.0627-1.0628-0.34008 0.34008-0.58978-0.58978c-0.076796-0.076788-0.14397-0.096689-0.19279-0.096689-0.052572 0-0.084047 0.02297-0.084047 0.02297l-0.1111 0.11086-0.085012 0.085108-0.085108 0.085012s-0.11153 0.14354 0.047911 0.30284l0.58978 0.58978-0.34008 0.34018 1.0627 1.0627s0.051755 0.030659 0.11086 0.030659c0.021192 0 0.043442-0.00399 0.064489-0.014753l0.20135 0.41842 0.29828 0.62001 0.16719 0.34739 0.41289 0.85795 0.3497 0.72649s0.12216 0.19659 0.41981 0.27103l0.12855 0.04238 0.26517 0.28165c0.08232 0.08732 0.13907 0.13253 0.16156 0.13253 0.01754 0 0.01418-0.02754-0.01442-0.08395l-0.11802-0.23306 0.08458 0.02782-0.75603-1.6858-0.68757-1.5331-0.14657-0.32682-3e-3 -0.00682-0.01418-0.031621 0.13215-0.13215 0.03162 0.014128 0.10442 0.04695 0.32721 0.1469 1.4341 0.64408 1.685 0.75683-0.04142-0.12407 0.28011 0.13513s0.15147-0.07175 0.0877-0.17804z" fill="url(#linearGradient5309)" stroke-width=".0073166" p-id="2429"/>
  <g fill="#f0f0f0">
   <path d="m8.1246 7.9636 1.0627 1.0627s0.12579 0.071499 0.17535 0.015906c0.049564-0.055592 1.0438-1.0438 1.0438-1.0438s0.04332-0.090124-0.02893-0.16237c-0.072253-0.072253-1.0627-1.0628-1.0627-1.0628z"/>
   <path d="m11.34 12.326s0.38154 0.44044 0.43017 0.41182c0.04346-0.02242-0.13588-0.31465-0.13588-0.31465z"/>
   <path d="m13.785 10.22 0.28011 0.13513s0.15285-0.06853 0.0877-0.17804l-0.45873-0.22931z"/>
  </g>
 </g>
</svg>
