<?xml version="1.0" encoding="UTF-8"?>
<svg width="64" height="64" version="1.1" viewBox="0 0 16.933 16.933" xmlns="http://www.w3.org/2000/svg" xmlns:cc="http://creativecommons.org/ns#" xmlns:dc="http://purl.org/dc/elements/1.1/" xmlns:rdf="http://www.w3.org/1999/02/22-rdf-syntax-ns#">
 <defs>
  <linearGradient id="linearGradient1005-3-3" x1="5.2535" x2="9.3824" y1="15.383" y2="2.9421" gradientTransform="matrix(.99999 0 0 .99999 -6.5646 -2.4465)" gradientUnits="userSpaceOnUse">
   <stop stop-color="#fa8200" offset="0"/>
   <stop stop-color="#ff9600" offset=".36953"/>
   <stop stop-color="#ffb400" offset="1"/>
  </linearGradient>
  <filter id="filter4736" x="-.06" y="-.06" width="1.12" height="1.12" color-interpolation-filters="sRGB">
   <feGaussianBlur stdDeviation="0.8750013"/>
  </filter>
 </defs>
 <metadata>
  <rdf:RDF>
   <cc:Work rdf:about="">
    <dc:format>image/svg+xml</dc:format>
    <dc:type rdf:resource="http://purl.org/dc/dcmitype/StillImage"/>
    <dc:title/>
   </cc:Work>
  </rdf:RDF>
 </metadata>
 <g transform="translate(6.529 2.4531)">
  <path d="m9.8752 6.0136c0 0.95155-0.16749 1.8639-0.47464 2.7093-0.21351 0.58769-0.4944 1.1433-0.83394 1.6572-0.14222 0.21608-0.29514 0.42476-0.45746 0.62529-0.51964 0.6418-1.1372 1.2007-1.8305 1.6543-0.2553 0.16717-0.52065 0.32009-0.79536 0.45712-1.0668 0.5339-2.2711 0.8342-3.5457 0.8342-1.2746 0-2.4788-0.30033-3.5457-0.83423-0.27474-0.13705-0.54041-0.28996-0.79571-0.45712-0.70207-0.45974-1.327-1.0274-1.8509-1.6798-0.16262-0.20216-0.31522-0.41275-0.45746-0.63077-0.33046-0.50541-0.6042-1.0507-0.81349-1.627-0.3071-0.84529-0.47429-1.7573-0.47429-2.7085 0-4.3839 3.5536-7.9375 7.9375-7.9375 2.2005 0 4.1918 0.89548 5.6295 2.3417 0.41436 0.41661 0.78274 0.87929 1.0963 1.3795 0.29644 0.47106 0.54427 0.97581 0.73705 1.5068 0.30718 0.84558 0.47466 1.7579 0.47466 2.7093z" fill="url(#linearGradient1005-3-3)" stroke-width=".031006"/>
  <path transform="matrix(.26458 0 0 .26458 -6.5289 -2.4531)" d="m49.39 30.057c-0.05539-0.49199-0.629-0.86169-1.1251-0.86169-1.6037 0-3.0269-0.94169-3.6238-2.3979-0.60972-1.4916-0.21656-3.2312 0.97872-4.3274 0.37624-0.34392 0.42195-0.91966 0.10642-1.3196-0.82082-1.0424-1.7537-1.9838-2.7725-2.7998-0.39889-0.32009-0.98415-0.27556-1.33 0.10748-1.0431 1.1552-2.9168 1.5846-4.3648 0.98046-1.5067-0.63381-2.4569-2.1606-2.3639-3.7994 0.03059-0.51478-0.34562-0.9624-0.85885-1.0222-1.3072-0.15119-2.6259-0.15588-3.937-0.01062-0.50737 0.05599-0.88361 0.49303-0.86655 1.0013 0.05705 1.6227-0.90456 3.1228-2.3963 3.7339-1.4305 0.58433-3.291 0.15861-4.3322-0.98636-0.34407-0.37713-0.9198-0.4235-1.3206-0.11103-1.0489 0.82289-2.0028 1.7652-2.8311 2.7988-0.32309 0.40188-0.27556 0.98432 0.10442 1.3301 1.218 1.103 1.6113 2.8577 0.97853 4.3664-0.60412 1.4385-2.0979 2.3656-3.8079 2.3656-0.5549-0.01784-0.95015 0.35461-1.0109 0.8591-0.15392 1.3147-0.15575 2.6544-0.0071 3.9798 0.05493 0.49407 0.64607 0.86052 1.1475 0.86052 1.524-0.03898 2.987 0.90455 3.6009 2.3982 0.61181 1.4916 0.21852 3.2301-0.97853 4.3274-0.3744 0.34392-0.42195 0.91873-0.10642 1.3187 0.81315 1.0357 1.7463 1.9781 2.7685 2.801 0.40097 0.32308 0.98442 0.27751 1.3319-0.10548 1.047-1.1581 2.9206-1.5867 4.3627-0.98138 1.5105 0.63185 2.4607 2.1585 2.3677 3.7984-0.03036 0.51504 0.34771 0.96342 0.85885 1.0223 0.66872 0.07796 1.3415 0.11694 2.0161 0.11694 0.64033 0 1.2808-0.0352 1.9211-0.10642 0.5075-0.05599 0.88348-0.49303 0.86641-1.0022-0.05871-1.6218 0.90456-3.1219 2.3944-3.7319 1.4401-0.58822 3.2929-0.1577 4.334 0.98607 0.34602 0.37635 0.91772 0.4218 1.3208 0.11044 1.0469-0.82094 1.9988-1.7625 2.8311-2.7991 0.32296-0.40096 0.27738-0.98433-0.10453-1.33-1.218-1.103-1.6133-2.8579-0.98046-4.3657 0.59487-1.4193 2.0331-2.3723 3.5801-2.3723l0.21644 0.0059c0.50177 0.04075 0.96342-0.34575 1.0242-0.85793 0.15419-1.3159 0.15601-2.6544 0.0071-3.9798zm-17.362 7.8174c-3.219 0-5.8374-2.6182-5.8374-5.8372 0-3.2188 2.6184-5.8372 5.8374-5.8372 3.2189 0 5.8372 2.6185 5.8372 5.8372 0 3.2189-2.6184 5.8372-5.8372 5.8372z" clip-rule="evenodd" fill="#f04b00" fill-rule="evenodd" filter="url(#filter4736)" image-rendering="optimizeSpeed" stroke-width=".14447"/>
  <path d="m6.5388 5.4995c-0.014655-0.13017-0.16642-0.22799-0.29768-0.22799-0.42431 0-0.80087-0.24916-0.9588-0.63444-0.16132-0.39465-0.057298-0.85492 0.25895-1.145 0.099547-0.090996 0.11164-0.24333 0.028157-0.34914-0.21718-0.2758-0.464-0.52488-0.73356-0.74078-0.10554-0.08469-0.26039-0.072909-0.3519 0.028437-0.27599 0.30565-0.77174 0.41926-1.1549 0.25941-0.39865-0.1677-0.65005-0.57166-0.62545-1.0053 0.0080936-0.1362-0.091445-0.25464-0.22724-0.27046-0.34586-0.040002-0.69477-0.041243-1.0417-0.0028099-0.13424 0.014814-0.23379 0.13045-0.22927 0.26493 0.015094 0.42934-0.23933 0.82624-0.63402 0.98793-0.37849 0.1546-0.87074 0.041966-1.1462-0.26097-0.091035-0.099782-0.24336-0.11205-0.34941-0.029377-0.27752 0.21772-0.52991 0.46704-0.74906 0.74052-0.085484 0.10633-0.072909 0.26043 0.027628 0.35192 0.32226 0.29184 0.42632 0.7561 0.2589 1.1553-0.15984 0.3806-0.55507 0.6259-1.0075 0.6259-0.14682-0.00472-0.25139 0.093824-0.26747 0.2273-0.040725 0.34785-0.041209 0.70231-0.00188 1.053 0.014534 0.13072 0.17094 0.22768 0.30361 0.22768 0.40322-0.010313 0.79031 0.23933 0.95274 0.63452 0.16187 0.39465 0.057817 0.85463-0.2589 1.145-0.09906 0.090996-0.11164 0.24308-0.028157 0.34891 0.21515 0.27403 0.46204 0.52337 0.7325 0.7411 0.10609 0.085482 0.26046 0.073424 0.3524-0.027908 0.27702-0.30641 0.77274-0.41981 1.1543-0.25966 0.39965 0.16718 0.65106 0.5711 0.62645 1.005-0.00803 0.13627 0.091998 0.2549 0.22724 0.27048 0.17693 0.02063 0.35494 0.03094 0.53343 0.03094 0.16942 0 0.33888-0.0093 0.50829-0.02816 0.13428-0.01481 0.23376-0.13044 0.22924-0.26516-0.015534-0.4291 0.23933-0.826 0.63352-0.9874 0.38103-0.15563 0.87125-0.041725 1.1467 0.2609 0.091551 0.099576 0.24281 0.1116 0.34946 0.029221 0.27699-0.21721 0.52885-0.46633 0.74906-0.7406 0.08545-0.10609 0.07339-0.26044-0.027657-0.3519-0.32226-0.29184-0.42685-0.75615-0.25941-1.1551 0.15739-0.37552 0.53792-0.62767 0.94723-0.62767l0.057266 0.00156c0.13276 0.010782 0.2549-0.09148 0.27099-0.22699 0.040796-0.34817 0.041278-0.70231 0.00188-1.053zm-4.5937 2.0684c-0.85169 0-1.5445-0.69273-1.5445-1.5444 0-0.85164 0.69279-1.5444 1.5445-1.5444 0.85167 0 1.5444 0.69281 1.5444 1.5444 0 0.85167-0.69278 1.5444-1.5444 1.5444z" clip-rule="evenodd" fill="#fff" fill-rule="evenodd" image-rendering="optimizeSpeed" stroke-width=".038224"/>
 </g>
</svg>
