<?xml version="1.0" encoding="UTF-8" standalone="no"?>
<svg
   xmlns:dc="http://purl.org/dc/elements/1.1/"
   xmlns:cc="http://creativecommons.org/ns#"
   xmlns:rdf="http://www.w3.org/1999/02/22-rdf-syntax-ns#"
   xmlns:svg="http://www.w3.org/2000/svg"
   xmlns="http://www.w3.org/2000/svg"
   xmlns:sodipodi="http://sodipodi.sourceforge.net/DTD/sodipodi-0.dtd"
   xmlns:inkscape="http://www.inkscape.org/namespaces/inkscape"
   width="64"
   height="64"
   version="1.1"
   id="svg12"
   sodipodi:docname="arcolinux-hello.svg"
   inkscape:version="1.0.2 (e86c870879, 2021-01-15)">
  <metadata
     id="metadata18">
    <rdf:RDF>
      <cc:Work
         rdf:about="">
        <dc:format>image/svg+xml</dc:format>
        <dc:type
           rdf:resource="http://purl.org/dc/dcmitype/StillImage" />
        <dc:title></dc:title>
      </cc:Work>
    </rdf:RDF>
  </metadata>
  <defs
     id="defs16">
    <linearGradient
       id="lgrad"
       x1="32"
       y1="32"
       x2="32"
       y2="992"
       gradientUnits="userSpaceOnUse"
       gradientTransform="translate(0,-896)">
      <stop
         offset="0%"
         stop-color="#f8f8f8"
         id="stop2" />
      <stop
         offset="100%"
         stop-color="#ccc"
         id="stop4" />
    </linearGradient>
    <radialGradient
       id="rgrad"
       x1="0%"
       y1="0%"
       x2="0%"
       y2="100%"
       fx="512"
       fy="494.39999"
       cx="512"
       cy="512"
       r="440"
       gradientUnits="userSpaceOnUse"
       gradientTransform="translate(0,-896)">
      <stop
         offset="0%"
         stop-color="#00f0ff"
         id="stop7" />
      <stop
         offset="100%"
         stop-color="#0070e0"
         id="stop9" />
    </radialGradient>
    <radialGradient
       gradientTransform="matrix(0.03024122,0,0,0.02958968,1.132043,2.8247994)"
       gradientUnits="userSpaceOnUse"
       r="440"
       cy="306.1813"
       cx="523.57568"
       fy="306.1813"
       fx="523.57568"
       y2="100%"
       x2="0%"
       y1="0%"
       x1="0%"
       id="rgrad-3">
      <stop
         style="stop-color:#03d7e4;stop-opacity:1"
         id="stop7-6"
         stop-color="#00f0ff"
         offset="0%" />
      <stop
         id="stop9-7"
         stop-color="#0070e0"
         offset="100%" />
    </radialGradient>
    <clipPath
       clipPathUnits="userSpaceOnUse"
       id="clipPath971">
      <path
         style="opacity:1;fill:#917c6f;fill-opacity:1;stroke:none;stroke-width:0.30000001;stroke-linecap:round;stroke-linejoin:round;stroke-miterlimit:4;stroke-dasharray:none;stroke-opacity:1"
         d="m -0.55397135,-0.27595216 c -0.027071,2e-8 -0.0485759,0.0220216 -0.0485759,0.0490926 V 33.951415 c 2e-8,0.02707 0.0215048,0.04909 0.0485759,0.04909 H 33.76073 c 0.02707,0 0.04909,-0.02201 0.04909,-0.04909 V -0.22685954 c 0,-0.027071 -0.02201,-0.0490926 -0.04909,-0.0490926 z M 8.8459717,2.5187093 H 25.034131 c 3.572997,0 6.449735,2.8762216 6.449735,6.4492187 v 16.188676 c 0,3.572997 -2.876738,6.449219 -6.449735,6.449219 H 8.8459717 c -3.5729971,0 -6.4497356,-2.876222 -6.4497356,-6.449219 V 8.967928 c 0,-3.5729971 2.8767385,-6.4492187 6.4497356,-6.4492187 z"
         id="path973"
         inkscape:connector-curvature="0" />
    </clipPath>
    <filter
       id="g"
       x="-.036"
       y="-.036"
       width="1.072"
       height="1.072"
       color-interpolation-filters="sRGB">
      <feGaussianBlur
         stdDeviation="14.16"
         id="feGaussianBlur895" />
    </filter>
    <linearGradient
       id="b"
       x1="520"
       x2="520.03"
       y1="44"
       y2="985.85"
       gradientTransform="matrix(0.06356,0,0,0.06356,-0.54217,-0.542455)"
       gradientUnits="userSpaceOnUse">
      <stop
         stop-color="#15c4fc"
         offset="0"
         id="stop898" />
      <stop
         stop-color="#1863ee"
         offset="1"
         id="stop900" />
    </linearGradient>
    <linearGradient
       id="a"
       x1="29.565"
       x2="29.728"
       y1="11.048"
       y2="53.559"
       gradientUnits="userSpaceOnUse"
       gradientTransform="translate(-97.613176,-3.5089408e-4)">
      <stop
         stop-color="#fff"
         offset="0"
         id="stop903" />
      <stop
         stop-color="#dbf6f8"
         offset="1"
         id="stop905" />
    </linearGradient>
    <filter
       id="c"
       x="-.07966"
       y="-.048123"
       width="1.1593"
       height="1.0962"
       color-interpolation-filters="sRGB">
      <feGaussianBlur
         stdDeviation="0.79660366"
         id="feGaussianBlur908" />
    </filter>
  </defs>
  <sodipodi:namedview
     pagecolor="#ffffff"
     bordercolor="#666666"
     borderopacity="1"
     objecttolerance="10"
     gridtolerance="10"
     guidetolerance="10"
     inkscape:pageopacity="0"
     inkscape:pageshadow="2"
     inkscape:window-width="1920"
     inkscape:window-height="942"
     id="namedview14"
     showgrid="false"
     inkscape:zoom="4.2813106"
     inkscape:cx="0.6622133"
     inkscape:cy="30.496034"
     inkscape:window-x="0"
     inkscape:window-y="38"
     inkscape:window-maximized="1"
     inkscape:current-layer="svg12" />
  <path
     d="m 61.0912,24.372915 c -0.06992,-0.27648 -0.14936,-0.57204 -0.23199,-0.86441 -0.1589,-0.55615 -0.34004,-1.1186 -0.53708,-1.6748 -0.40996,-1.16 -0.89937,-2.2913 -1.4714,-3.41 -0.24153,-0.47034 -0.5053,-0.95022 -0.78178,-1.4237 h -0.0016 q -1.945,-3.3057 -4.8512,-6.2129 c -5.857,-5.857 -12.931,-8.7871 -21.216,-8.7871 -8.285,0 -15.356,2.9301 -21.213,8.7871 -5.857,5.857 -8.7871,12.928 -8.7871,21.213 0,8.285 2.9301,15.359 8.7871,21.216 4.3252,4.3252 9.3115,7.0519 14.93,8.1769 2.0307,0.40678 4.1155,0.60699 6.2829,0.60699 8.285,0 15.359,-2.9269 21.216,-8.7839 3.089,-3.089 5.3644,-6.5148 6.8231,-10.284 1.0805,-2.7934 1.7161,-5.7712 1.9036,-8.946 0.03814,-0.64831 0.0572,-1.3125 0.0572,-1.9862 0,-2.6536 -0.29873,-5.1865 -0.9089,-7.6271 z"
     fill="url(#b)"
     stroke-width="0.9961"
     id="path915"
     style="fill:url(#b);image-rendering:optimizeSpeed" />
  <path
     style="fill:#ffffff;stroke-width:0.93551"
     d="m 14.5,47.634342 c 0,-0.11561 16.77274,-32.02134 17.335019,-32.975298 L 32.223461,14 l 0.42426,0.744426 c 0.233344,0.409425 1.943393,3.664531 3.800096,7.233551 1.85671,3.56903 5.600739,10.744761 8.320055,15.946065 3.815816,7.298606 4.891604,9.49027 4.713693,9.603016 -0.126799,0.08032 -1.654796,0.147249 -3.395552,0.148727 l -3.165019,0.0026 -0.933383,-0.946446 C 39.64591,44.357457 35.55302,42.318948 30.978984,41.055963 l -2.049191,-0.565822 2.561493,-0.128483 c 2.406315,-0.120681 5.177618,-0.03933 6.661756,0.197998 0.496056,0.07933 0.6526,0.04681 0.6526,-0.13548 0,-0.450418 -6.335883,-12.042454 -6.582302,-12.042454 -0.179581,0 -1.447184,2.209544 -6.367921,11.099834 -2.417308,4.367357 -4.408442,7.95684 -4.424753,7.976633 C 21.357806,47.546599 14.5,47.720884 14.5,47.634327 Z"
     id="path8" />
</svg>
