<?xml version="1.0" encoding="UTF-8"?>
<svg width="64" height="64" version="1.1" viewBox="0 0 16.933 16.933" xmlns="http://www.w3.org/2000/svg" xmlns:cc="http://creativecommons.org/ns#" xmlns:dc="http://purl.org/dc/elements/1.1/" xmlns:rdf="http://www.w3.org/1999/02/22-rdf-syntax-ns#">
 <defs>
  <linearGradient id="linearGradient2047" x1="19.198" x2="43.223" y1="16.363" y2="40.388" gradientTransform="matrix(.38586 0 0 .38586 -.93947 -.28604)" gradientUnits="userSpaceOnUse">
   <stop stop-color="#f33d3c" offset="0"/>
   <stop stop-color="#b11525" offset="1"/>
  </linearGradient>
 </defs>
 <metadata>
  <rdf:RDF>
   <cc:Work rdf:about="">
    <dc:format>image/svg+xml</dc:format>
    <dc:type rdf:resource="http://purl.org/dc/dcmitype/StillImage"/>
    <dc:title/>
   </cc:Work>
  </rdf:RDF>
 </metadata>
 <path d="m1.3873 14.261 6.9251-12.71 7.4263 13.746s0.04283 0.10611-0.15049 0.05132c-0.18174-0.05171-0.33724-0.20412-0.52554-0.18792-0.15859 0.0135-0.25313 0.24309-0.41017 0.21801-0.22457-0.03589-0.33956-0.46381-0.56683-0.45725-0.20026 0.0058-0.15087 0.38972-0.44992 0.41364-0.26509 0.02238-0.22187-0.70497-0.48889-0.72735-0.18097-0.01505-0.22149 0.74934-0.44606 0.74896-0.23769 0 0.0096-1.0997-0.333-1.1178-0.26818-0.01428-0.12078 0.96504-0.36155 0.9662-0.33223 0.0015-0.05016-1.604-0.45995-1.5971-0.29133 0.0046 0.02199 1.486-0.35731 1.4813-0.3492-0.0042-0.01273-2.2924-0.40477-2.2646-0.32335 0.02276 0.03974 2.0466-0.31602 2.0551-0.43101 0.01003-0.0019-2.8191-0.42985-2.8226-0.37853-0.0035-0.03936 2.5027-0.38586 2.5027-0.42213 0 0.0012-3.2335-0.40014-3.2548-0.4368-0.02315 0.10688 3.2482-0.36927 3.2447-0.45956-0.0035 0.13119-4.1052-0.4013-4.1446-0.43602-0.03203 0.11923 3.8397-0.32837 3.8567-0.46998 0.01775 0.142-4.51-0.41403-4.5111-0.40708-0.00116 0.02855 4.3379-0.39319 4.3988-0.38972-0.08605 0.07794-4.7897-0.37737-4.7913-0.46998-0.00153 0.07949 4.6767-0.40708 4.6875-0.40786 0.0054 0.17325-4.6944-0.36232-4.6767-0.49236 0.014663 0.01891 4.6574-0.38586 4.6496-0.4368-5e-3 0.1119-4.2947-0.37776-4.2676-0.37313 0.19293-0.01428 3.318-0.37236 4.3105-0.39242-0.38972 0.02817-3.0722-0.40824-3.5445-0.35808 0.51551-0.07794 3.6097-0.36927 3.6213-0.35769 0.01736-0.01736-2.4275-0.40091-2.4506-0.22959-0.01389-0.35152 2.7693-0.63282 2.7801-0.32682 0.0328-0.29094-1.5654-0.51706-1.5604-0.262 0.03357-0.19332 1.7487-0.53712 1.753-0.19756 0.04707-0.24541-0.67603-0.42213-0.65905-0.15859 0.01505-0.1883 0.76054-0.4503 0.89482-0.23962 0.03241-0.12309-0.22843 0.06328-0.63552" color="#000000" fill="url(#linearGradient2047)" stroke-width=".30263"/>
</svg>
