<?xml version="1.0" encoding="UTF-8"?>
<svg width="64" height="64" version="1.1" viewBox="0 0 16.933 16.933" xmlns="http://www.w3.org/2000/svg" xmlns:cc="http://creativecommons.org/ns#" xmlns:dc="http://purl.org/dc/elements/1.1/" xmlns:rdf="http://www.w3.org/1999/02/22-rdf-syntax-ns#">
 <defs>
  <linearGradient id="c" x1="24.535" x2="24.535" y1="7.0931" y2="44.483" gradientTransform="matrix(.38005 0 0 .38005 19.445 -2.0299)" gradientUnits="userSpaceOnUse">
   <stop stop-color="#76dd38" offset="0"/>
   <stop stop-color="#42c440" offset=".48433"/>
   <stop stop-color="#14ab4b" offset="1"/>
  </linearGradient>
  <linearGradient id="linearGradient1433" x1="8.3685" x2="8.3685" y1="5.9541" y2="11.175" gradientTransform="matrix(1 0 0 1 20.131 -.78267)" gradientUnits="userSpaceOnUse">
   <stop stop-color="#fff" offset="0"/>
   <stop stop-color="#aaf8ad" offset="1"/>
  </linearGradient>
 </defs>
 <metadata>
  <rdf:RDF>
   <cc:Work rdf:about="">
    <dc:format>image/svg+xml</dc:format>
    <dc:type rdf:resource="http://purl.org/dc/dcmitype/StillImage"/>
    <dc:title/>
   </cc:Work>
  </rdf:RDF>
 </metadata>
 <g transform="translate(-20.131 .78267)">
  <circle cx="28.598" cy="7.684" r="7.9375" color="#000000" fill="url(#c)" overflow="visible" stroke-width=".26458" style="isolation:auto;mix-blend-mode:normal"/>
  <path d="m25.898 5.0537a2.508 2.508 0 0 0-1.8046 0.76311 2.6411 2.6411 0 0 0-0.7569 1.8667c0 0.348 0.06711 0.69226 0.19761 1.0117 0.12925 0.31942 0.32066 0.61024 0.55928 0.85384a2.5142 2.5142 0 0 0 1.7835 0.76311h0.02237a2.4943 2.4943 0 0 0 1.899-0.73328c0.31942-0.3132 0.57171-0.68108 0.8004-1.0564 0.22868 0.37534 0.47974 0.74322 0.79916 1.0564 0.46855 0.45613 1.1061 0.77056 1.9003 0.73328h0.02237c0.32687-0.0025 0.65001-0.0696 0.95202-0.19761 0.31071-0.1305 0.59284-0.32315 0.83147-0.5655l0.0012-0.0025a2.6386 2.6386 0 0 0 0.75441-1.863c0-0.348-0.06712-0.69226-0.19637-1.0117l-0.0025-0.00621a2.6473 2.6473 0 0 0-0.55798-0.8501 2.513 2.513 0 0 0-1.8058-0.7631c-0.83396 0-1.4939 0.34427-1.9811 0.82153-0.28213 0.27592-0.51081 0.59159-0.71836 0.91474a5.1578 5.1578 0 0 0-0.71712-0.91474 2.7728 2.7728 0 0 0-1.9823-0.82153zm-0.0087 0.75192c0.66741 0 1.0937 0.23862 1.4827 0.63385 0.31072 0.3132 0.58165 0.73949 0.85011 1.2055-0.30699 0.54188-0.60402 1.0378-0.93711 1.3746-0.36789 0.37037-0.7482 0.57544-1.3708 0.5394h-0.02486c-0.23614 0-0.47601-0.049721-0.69475-0.14541a1.812 1.812 0 0 1-0.57792-0.40393l-0.0075-0.00621a1.8966 1.8966 0 0 1-0.52075-1.3211 1.8966 1.8966 0 0 1 0.522-1.3199l0.0062-0.00746a1.7474 1.7474 0 0 1 1.2739-0.54934zm5.4176 0c0.23614 0 0.47601 0.049714 0.69599 0.14541 0.21501 0.094456 0.41387 0.23365 0.57792 0.40393l0.0062 0.0087a1.8953 1.8953 0 0 1 0.522 1.3199c0 0.24235-0.04723 0.4872-0.13547 0.71215-0.08824 0.22371-0.22122 0.435-0.38653 0.60899l-0.0075 0.00497a1.7499 1.7499 0 0 1-1.2739 0.54934h-0.02361c-0.62137 0.037291-1.0029-0.16778-1.3708-0.53815-0.33309-0.33557-0.63012-0.83271-0.93711-1.3758 0.2697-0.46483 0.54064-0.89113 0.85011-1.2055 0.39026-0.39399 0.81656-0.63385 1.4827-0.63385zm-0.45365 0.75192v0.75068h-0.75192v0.75192h0.75192v0.75192h0.75192v-0.75192h0.75068v-0.75192h-0.75069v-0.75068zm-6.0129 0.75068v0.75192h2.2545v-0.75192z" fill="url(#linearGradient1433)" stroke-width="1.2428"/>
 </g>
</svg>
