<?xml version="1.0" encoding="UTF-8" standalone="no"?>
<svg
   xmlns:dc="http://purl.org/dc/elements/1.1/"
   xmlns:cc="http://creativecommons.org/ns#"
   xmlns:rdf="http://www.w3.org/1999/02/22-rdf-syntax-ns#"
   xmlns:svg="http://www.w3.org/2000/svg"
   xmlns="http://www.w3.org/2000/svg"
   xmlns:sodipodi="http://sodipodi.sourceforge.net/DTD/sodipodi-0.dtd"
   xmlns:inkscape="http://www.inkscape.org/namespaces/inkscape"
   width="64"
   height="64"
   version="1"
   id="svg31"
   sodipodi:docname="ark-game.svg"
   inkscape:version="1.0.2 (e86c870879, 2021-01-15)">
  <metadata
     id="metadata35">
    <rdf:RDF>
      <cc:Work
         rdf:about="">
        <dc:format>image/svg+xml</dc:format>
        <dc:type
           rdf:resource="http://purl.org/dc/dcmitype/StillImage" />
        <dc:title></dc:title>
      </cc:Work>
    </rdf:RDF>
  </metadata>
  <sodipodi:namedview
     pagecolor="#ffffff"
     bordercolor="#666666"
     borderopacity="1"
     objecttolerance="10"
     gridtolerance="10"
     guidetolerance="10"
     inkscape:pageopacity="0"
     inkscape:pageshadow="2"
     inkscape:window-width="1920"
     inkscape:window-height="942"
     id="namedview33"
     showgrid="false"
     inkscape:zoom="6.0546875"
     inkscape:cx="33.376725"
     inkscape:cy="23.649901"
     inkscape:window-x="0"
     inkscape:window-y="38"
     inkscape:window-maximized="1"
     inkscape:current-layer="svg31" />
  <defs
     id="defs7">
    <linearGradient
       id="linearGradient4924"
       x1="12.897"
       x2="16.213"
       y1="18.858"
       y2="20.316"
       gradientTransform="matrix(2,0,0,2,0,-1)"
       gradientUnits="userSpaceOnUse">
      <stop
         offset="0"
         id="stop2" />
      <stop
         offset="1"
         stop-opacity="0"
         id="stop4" />
    </linearGradient>
  </defs>
  <path
     style="fill:#4f4f4f"
     d="M 4,51 18,51 32,25 46,51 60,51 39,13 25,13 Z"
     id="path13" />
  <path
     style="opacity:0.2;fill:#ffffff"
     d="M 25 13 L 4 51 L 4.5527344 51 L 25 14 L 39 14 L 59.447266 51 L 60 51 L 39 13 L 25 13 z"
     id="path15" />
  <path
     style="fill:#e33e31"
     d="M 10.6,39 18,51 4,51 Z"
     id="path17" />
  <path
     style="fill:#e4be21"
     d="M 53.4,39 60,51 46,51 Z"
     id="path19" />
  <path
     style="fill:#3c8cf8"
     d="M 32,25 39,13 25,13 Z"
     id="path21" />
  <path
     style="fill:#4f4f4f"
     d="M 28.77,31 22.308,43 32,43 32,31 28.77,31 Z"
     id="path23" />
  <path
     style="opacity:0.15;fill:url(#linearGradient4924)"
     d="M 28.77,31 22.308,43 32,43 32,31 28.77,31 Z"
     id="path25" />
  <path
     style="opacity:0.2;fill:#ffffff"
     d="M 28.769531 31 L 22.308594 43 L 22.847656 43 L 28.769531 32 L 32 32 L 32 31 L 28.769531 31 z"
     id="path27" />
  <path
     style="opacity:0.2;fill:#ffffff"
     d="M 25 13 L 25.583984 14 L 38.416016 14 L 39 13 L 25 13 z M 10.601562 39 L 4 51 L 4.5507812 51 L 10.601562 40 L 10.617188 40.025391 L 10.908203 39.498047 L 10.601562 39 z M 53.398438 39 L 53.091797 39.498047 L 53.382812 40.025391 L 53.398438 40 L 59.449219 51 L 60 51 L 53.398438 39 z M 11.492188 40.443359 L 11.201172 40.970703 L 17.382812 51 L 18 51 L 11.492188 40.443359 z M 52.507812 40.443359 L 46 51 L 46.617188 51 L 52.798828 40.970703 L 52.507812 40.443359 z"
     id="path29" />
</svg>
