<?xml version="1.0" encoding="UTF-8"?>
<svg width="64" height="64" version="1.1" viewBox="0 0 16.933 16.933" xmlns="http://www.w3.org/2000/svg" xmlns:cc="http://creativecommons.org/ns#" xmlns:dc="http://purl.org/dc/elements/1.1/" xmlns:rdf="http://www.w3.org/1999/02/22-rdf-syntax-ns#">
 <defs>
  <linearGradient id="linearGradient1064" x1="-15.961" x2="-.30109" y1="-43.254" y2="-54.196" gradientTransform="matrix(.91666 0 0 1.0083 43.467 54.287)" gradientUnits="userSpaceOnUse">
   <stop stop-color="#ffc832" offset="0"/>
   <stop stop-color="#ffdc6e" offset="1"/>
  </linearGradient>
 </defs>
 <metadata>
  <rdf:RDF>
   <cc:Work rdf:about="">
    <dc:format>image/svg+xml</dc:format>
    <dc:type rdf:resource="http://purl.org/dc/dcmitype/StillImage"/>
    <dc:title/>
   </cc:Work>
  </rdf:RDF>
 </metadata>
 <g transform="translate(-27.481 3.9231)">
  <path d="m35.949 2.543h-7.2758v-3.6682c0-0.36835 0.27146-0.66695 0.60632-0.66695h5.1537l1.5158 1.3339z" fill="#ffe55e" stroke-width=".63592"/>
  <path d="m35.948 2.5432h-7.2758v-3.6682c0-0.36835 0.27146-0.66695 0.60632-0.66695h5.1537l1.5158 1.3339z" fill="#e19600" stroke-width=".63592"/>
  <path d="m34.432-1.7927h-5.1537c-0.33488 0-0.60632 0.29859-0.60632 0.66695v0.16674c0-0.36836 0.27144-0.66695 0.60632-0.66695h5.1537l1.5158 1.3339v-0.16674z" fill="#fff" opacity=".2" stroke-width=".63592"/>
  <g stroke-width=".63592">
   <path d="m42.617-0.45855h-6.6695l-1.5158 1.3339h-5.1537c-0.33487 0-0.60632 0.2986-0.60632 0.66695v8.6704c0 0.36835 0.27146 0.66695 0.60632 0.66695h13.339c0.33487 0 0.60633-0.2986 0.60633-0.66695v-10.004c0-0.36835-0.27146-0.66695-0.60633-0.66695z" fill="url(#linearGradient1064)"/>
   <path d="m42.617 10.713h-13.339c-0.33488 0-0.60632-0.29863-0.60632-0.66695v0.16674c0 0.36832 0.27144 0.66695 0.60632 0.66695h13.339c0.33488 0 0.60633-0.29863 0.60633-0.66695v-0.16674c0 0.36832-0.27144 0.66695-0.60633 0.66695z" opacity=".1"/>
   <path d="m42.617-0.45855h-6.6695l-1.5158 1.3339h-5.1537c-0.33488 0-0.60632 0.29859-0.60632 0.66695v0.16674c0-0.36836 0.27144-0.66695 0.60632-0.66695h5.1537l1.5158-1.3339h6.6695c0.33488 0 0.60633 0.29859 0.60633 0.66695v-0.16674c0-0.36836-0.27144-0.66695-0.60633-0.66695z" fill="#fff" opacity=".2"/>
  </g>
  <path d="m35.396 8.1974v1.7954c0 0.076514 0.0616 0.13811 0.13811 0.13811h0.82865c0.07651 0 0.13811-0.0616 0.13811-0.13811v-1.7954zm0.27622 1.1049h0.55244v0.55244h-0.55244z" color="#000000" fill="#f5faff" stroke-width="1.044"/>
  <path d="m35.948 0.7395v0.55244h0.55244v-0.55244zm0 0.55244h-0.55244v0.55244h0.55244zm0 0.55244v0.55244h0.55244v-0.55244zm0 0.55244h-0.55244v0.55244h0.55244zm0 0.55244v0.55244h0.55244v-0.55244zm0 0.55244h-0.55244v0.55244h0.55244zm0 0.55244v0.55244h0.55244v-0.55244zm0 0.55244h-0.55244v0.55244h0.55244zm0 0.55244v0.55244h0.55244v-0.55244zm0 0.55244h-0.55244v0.55244h0.55244zm0 0.55244v0.55244h0.55244v-0.55244zm0 0.55244h-0.55244v0.55244h0.55244zm0 0.55244v0.55244h0.55244v-0.55244z" color="#000000" fill="#f5faff" stroke-width="1.044"/>
 </g>
</svg>
