<?xml version="1.0" encoding="UTF-8" standalone="no"?>
<svg
   width="64"
   height="64"
   version="1"
   id="svg6"
   sodipodi:docname="around.svg"
   inkscape:version="1.3 (0e150ed6c4, 2023-07-21)"
   xmlns:inkscape="http://www.inkscape.org/namespaces/inkscape"
   xmlns:sodipodi="http://sodipodi.sourceforge.net/DTD/sodipodi-0.dtd"
   xmlns:xlink="http://www.w3.org/1999/xlink"
   xmlns="http://www.w3.org/2000/svg"
   xmlns:svg="http://www.w3.org/2000/svg">
  <defs
     id="defs6">
    <linearGradient
       gradientUnits="userSpaceOnUse"
       y2="43.96891"
       x2="44.996239"
       y1="6.0181603"
       x1="7.0454888"
       id="linearGradient1590"
       xlink:href="#linearGradient1588"
       inkscape:collect="always"
       gradientTransform="matrix(1.0026348,0,0,1.0026348,0.088015,0.4894615)" />
    <linearGradient
       id="linearGradient1588"
       inkscape:collect="always">
      <stop
         id="stop1584"
         offset="0"
         style="stop-color:#141414;stop-opacity:1" />
      <stop
         id="stop1586"
         offset="1"
         style="stop-color:#323232;stop-opacity:1" />
    </linearGradient>
  </defs>
  <sodipodi:namedview
     id="namedview6"
     pagecolor="#ffffff"
     bordercolor="#999999"
     borderopacity="1"
     inkscape:showpageshadow="0"
     inkscape:pageopacity="0"
     inkscape:pagecheckerboard="0"
     inkscape:deskcolor="#d1d1d1"
     inkscape:zoom="6.109375"
     inkscape:cx="22.670077"
     inkscape:cy="30.117647"
     inkscape:window-width="1920"
     inkscape:window-height="989"
     inkscape:window-x="1920"
     inkscape:window-y="0"
     inkscape:window-maximized="1"
     inkscape:current-layer="svg6" />
  <path
     d="M 7.500071,4.5000005 C 5.838085,4.5000005 4.5,5.8380865 4.5,7.5000725 V 56.499928 C 4.5,58.161912 5.838085,59.5 7.500071,59.5 H 56.49992 C 58.16191,59.5 59.5,58.161912 59.5,56.499928 V 7.5000725 c 0,-1.661986 -1.33809,-3.000072 -3.00008,-3.000072 z"
     style="fill:url(#linearGradient1590);fill-opacity:1;stroke:none;stroke-width:0.210553;stroke-linecap:round"
     id="rect1572" />
  <path
     fill="#248afd"
     d="M35.375 32A10.125 10.125 0 0 1 25.25 42.125 10.125 10.125 0 0 1 15.125 32 10.125 10.125 0 0 1 25.25 21.875 10.125 10.125 0 0 1 35.375 32Z"
     id="path1" />
  <path
     fill="#e97e10"
     d="M28.625 32A10.125 10.125 0 0 0 38.75 42.125 10.125 10.125 0 0 0 48.875 32 10.125 10.125 0 0 0 38.75 21.875 10.125 10.125 0 0 0 28.625 32Z"
     id="path2" />
  <path
     fill="#e3424a"
     d="M42.125 32A10.125 10.125 0 0 1 32 42.125 10.125 10.125 0 0 1 21.875 32 10.125 10.125 0 0 1 32 21.875 10.125 10.125 0 0 1 42.125 32Z"
     id="path3" />
  <path
     fill="#50beee"
     d="M28.625 22.481a10.125 10.125 0 0 0-6.75 9.518 10.125 10.125 0 0 0 6.783 9.532A10.125 10.125 0 0 0 35.375 32a10.125 10.125 0 0 0-6.75-9.518z"
     id="path4" />
  <path
     fill="#fecd38"
     d="M35.375 22.481a10.125 10.125 0 0 0-6.75 9.518 10.125 10.125 0 0 0 6.75 9.519A10.125 10.125 0 0 0 42.125 32a10.125 10.125 0 0 0-6.75-9.519z"
     id="path5" />
  <path
     fill="#ff90b8"
     d="M32 24.466A10.125 10.125 0 0 0 28.625 32a10.125 10.125 0 0 0 3.382 7.541 10.125 10.125 0 0 0 3.368-7.54A10.125 10.125 0 0 0 32 24.465z"
     id="path6" />
</svg>
