<?xml version="1.0" encoding="UTF-8" standalone="no"?>
<svg
   width="64"
   height="64"
   version="1.1"
   id="svg4"
   sodipodi:docname="artifact.svg"
   xml:space="preserve"
   inkscape:version="1.4 (e7c3feb100, 2024-10-09)"
   xmlns:inkscape="http://www.inkscape.org/namespaces/inkscape"
   xmlns:sodipodi="http://sodipodi.sourceforge.net/DTD/sodipodi-0.dtd"
   xmlns="http://www.w3.org/2000/svg"
   xmlns:svg="http://www.w3.org/2000/svg"><sodipodi:namedview
     id="namedview4"
     pagecolor="#505050"
     bordercolor="#eeeeee"
     borderopacity="1"
     inkscape:showpageshadow="0"
     inkscape:pageopacity="0"
     inkscape:pagecheckerboard="0"
     inkscape:deskcolor="#505050"
     inkscape:zoom="4.2757863"
     inkscape:cx="103.3728"
     inkscape:cy="41.395895"
     inkscape:window-width="1920"
     inkscape:window-height="1004"
     inkscape:window-x="0"
     inkscape:window-y="0"
     inkscape:window-maximized="1"
     inkscape:current-layer="svg4" /><defs
     id="defs4"><linearGradient
       id="a"
       x1="7.937"
       x2="7.937"
       y1="15.081"
       y2="1.852"
       gradientTransform="matrix(3.7796,0,0,3.7796,9.3010005,-19.679001)"
       gradientUnits="userSpaceOnUse"><stop
         offset="0"
         stop-color="#263a40"
         id="stop1" /><stop
         offset="1"
         stop-color="#131d21"
         id="stop2" /></linearGradient><linearGradient
       id="c"
       x1="8.193"
       x2="55.809"
       y1="35.268"
       y2="35.268"
       gradientUnits="userSpaceOnUse"
       gradientTransform="matrix(1.1760923,0,0,1.1760923,-5.6353307,-5.4776447)"><stop
         offset="0"
         stop-color="#d6bd7b"
         id="stop3" /><stop
         offset="1"
         stop-color="#9d8255"
         id="stop4" /></linearGradient></defs><path
     fill="url(#c)"
     d="m 31.954933,60.089502 c -0.09056,-0.1082 -0.203464,-0.397519 -0.25286,-0.644498 -0.0494,-0.24698 -0.145836,-0.413985 -0.215225,-0.370469 -0.07057,0.04234 -0.190527,-0.07057 -0.268149,-0.25286 -0.07762,-0.181118 -0.503368,-0.90912 -0.944402,-1.617127 a 117.60923,117.60923 0 0 1 -1.056131,-1.714743 c -0.141131,-0.235218 -0.722121,-1.20079 -1.293702,-2.145192 -0.571581,-0.943226 -1.127872,-1.907622 -1.234897,-2.144017 A 8.2326463,8.2326463 0 0 0 26.24618,50.385564 c -0.611568,-0.963219 -1.592429,-2.665025 -1.822943,-3.163688 -0.141131,-0.303432 -0.341066,-0.583342 -0.446915,-0.623329 -0.105848,-0.03999 -0.191703,-0.18347 -0.191703,-0.316369 0,-0.132898 4.415051,-4.671438 9.810962,-10.086168 l 9.809787,-9.843892 2.662673,0.675077 c 3.556503,0.903239 4.591464,1.214903 4.591464,1.38426 0,0.159949 -0.498663,1.106703 -1.198438,2.275739 -0.25874,0.432802 -0.953811,1.623007 -1.546561,2.645032 l -2.074627,3.574144 c -0.549235,0.944402 -1.854698,3.194267 -2.900244,5.003097 -4.863142,8.406708 -8.639574,14.895209 -9.671007,16.614656 -0.341067,0.569229 -0.620977,1.090238 -0.620977,1.157275 0,0.06821 -0.118785,0.23169 -0.265797,0.364589 -0.222281,0.199936 -0.290495,0.208168 -0.426921,0.04351 M 22.119272,43.518361 c -0.06116,-0.09879 -0.423393,-0.790334 -0.806799,-1.537152 -0.383406,-0.746819 -0.840906,-1.552442 -1.016144,-1.787661 -0.310488,-0.41516 -1.969954,-3.195443 -2.689723,-4.503257 -0.194055,-0.352828 -1.136105,-1.961722 -2.093444,-3.572969 A 883.24534,883.24534 0 0 1 13.607892,28.90071 1138.4574,1138.4574 0 0 0 11.644994,25.572368 291.6709,291.6709 0 0 1 9.1505018,21.284336 195.23133,195.23133 0 0 0 6.4819488,16.678758 C 6.2678998,16.324754 5.9338898,15.746117 5.7398343,15.392113 5.5457791,15.038109 5.0482921,14.185442 4.6343076,13.496253 4.015683,12.46482 3.913363,12.20608 4.0580223,12.030841 4.2109143,11.847372 5.3305542,11.81797 12.267147,11.81797 c 6.203887,0 8.085635,0.04116 8.269105,0.178766 0.12937,0.09879 0.341067,0.564524 0.468085,1.036137 l 0.350475,1.286644 c 0.446916,1.62536 0.591575,2.152249 0.916176,3.35892 0.199936,0.747994 0.560996,2.066394 0.799743,2.930822 0.238747,0.864428 0.564524,2.054633 0.720945,2.645031 0.456324,1.722976 1.801773,6.496734 2.960224,10.506033 0.591575,2.045225 1.101999,3.877577 1.136105,4.07516 0.05175,0.302256 -0.345771,0.776221 -2.610925,3.108412 -1.470115,1.513631 -2.757936,2.752056 -2.860256,2.752056 a 0.39987139,0.39987139 0 0 1 -0.297552,-0.178766 m 7.832775,-8.077402 c -0.172885,-0.322249 -1.65829,-5.655828 -2.677962,-9.60985 -0.435154,-1.687693 -0.852667,-3.143695 -0.927937,-3.234254 -0.148187,-0.178766 -0.03175,-0.62921 0.163477,-0.62921 0.297551,0 1.705334,0.330482 2.421574,0.568053 0.775045,0.25874 2.596812,0.746819 8.21971,2.207525 2.346304,0.609216 2.857904,0.787982 2.857904,0.993798 0,0.241099 -9.569863,9.95327 -9.807434,9.95327 -0.06351,0 -0.176414,-0.111729 -0.250508,-0.249332 M 47.799249,24.816141 C 45.794011,24.276315 43.886389,23.832928 43.55826,23.8294 43.231306,23.827 42.941987,23.76236 42.914937,23.685916 c -0.05292,-0.15642 -3.148399,-1.00203 -3.669408,-1.004383 -0.184647,0 -0.891478,-0.190526 -1.572435,-0.422217 -1.70651,-0.580989 -10.960005,-3.00962 -11.466901,-3.00962 -0.679781,0 -0.932641,-0.531594 -1.829999,-3.850526 -0.643323,-2.376883 -0.827969,-3.2566 -0.712712,-3.395379 0.235218,-0.283437 35.823772,-0.276381 36.213059,0.0082 0.25286,0.184647 0.199935,0.310488 -0.957339,2.322782 -0.672725,1.170212 -1.350154,2.393348 -1.505399,2.719126 -0.154068,0.324601 -0.362236,0.678605 -0.462204,0.785629 -0.09997,0.107025 -1.186677,1.93232 -2.415694,4.055167 -2.111085,3.647062 -2.258097,3.861111 -2.662673,3.881104 -0.235218,0.01176 -2.069922,-0.419865 -4.073983,-0.959691"
     id="path4"
     style="fill:url(#c);stroke-width:1.17609" /></svg>
