<?xml version="1.0" encoding="UTF-8" standalone="no"?>
<svg
   width="64"
   height="64"
   version="1.1"
   id="svg10"
   sodipodi:docname="aseprite.svg"
   xml:space="preserve"
   inkscape:version="1.4 (e7c3feb100, 2024-10-09)"
   xmlns:inkscape="http://www.inkscape.org/namespaces/inkscape"
   xmlns:sodipodi="http://sodipodi.sourceforge.net/DTD/sodipodi-0.dtd"
   xmlns="http://www.w3.org/2000/svg"
   xmlns:svg="http://www.w3.org/2000/svg"><sodipodi:namedview
     id="namedview10"
     pagecolor="#505050"
     bordercolor="#eeeeee"
     borderopacity="1"
     inkscape:showpageshadow="0"
     inkscape:pageopacity="0"
     inkscape:pagecheckerboard="0"
     inkscape:deskcolor="#505050"
     inkscape:zoom="4"
     inkscape:cx="-0.75"
     inkscape:cy="13"
     inkscape:window-width="2560"
     inkscape:window-height="1408"
     inkscape:window-x="0"
     inkscape:window-y="0"
     inkscape:window-maximized="1"
     inkscape:current-layer="svg10" /><defs
     id="defs6"><linearGradient
       id="a"
       x1="7.937"
       x2="7.937"
       y1="15.081"
       y2="1.852"
       gradientTransform="matrix(3.7796,0,0,3.7796,98.994949,0)"
       gradientUnits="userSpaceOnUse"><stop
         offset="0"
         stop-color="#363636"
         id="stop1" /><stop
         offset="1"
         stop-color="#5f4f5b"
         id="stop2" /></linearGradient><linearGradient
       id="b"
       x1="7.937"
       x2="7.937"
       y1="15.081"
       y2="1.852"
       gradientTransform="matrix(3.37814,0,0,3.37814,102.39495,3.396)"
       gradientUnits="userSpaceOnUse"><stop
         offset="0"
         stop-color="#8499aa"
         id="stop3" /><stop
         offset=".196"
         stop-color="#627d94"
         id="stop4" /></linearGradient><linearGradient
       id="c"
       x1="32.933"
       x2="32.933"
       y1="9.367"
       y2="42.868"
       gradientUnits="userSpaceOnUse"
       gradientTransform="translate(98.994949)"><stop
         offset="0"
         stop-color="#f8fafc"
         id="stop5" /><stop
         offset="1"
         stop-color="#d2d2d2"
         id="stop6" /></linearGradient></defs><g
     id="g58"><rect
       style="fill:#ffffff;fill-opacity:1;stroke-width:1.07578"
       id="rect35"
       width="45.535084"
       height="49.469528"
       x="9.2324591"
       y="7.2652349" /><rect
       style="fill:#665561;fill-opacity:1;stroke-width:1.09996"
       id="rect11"
       width="37.930748"
       height="3.7652342"
       x="13.034627"
       y="3.5000005"
       rx="0"
       ry="0" /><rect
       style="fill:#bec8cf;fill-opacity:1;stroke-width:0.348256"
       id="rect12"
       width="3.8021681"
       height="3.7652342"
       x="50.965374"
       y="3.5000005"
       rx="0"
       ry="0" /><rect
       style="fill:#bec8cf;fill-opacity:1;stroke-width:0.348256"
       id="rect13"
       width="3.8021681"
       height="3.7652342"
       x="9.2324591"
       y="3.5000005"
       rx="0"
       ry="0" /><rect
       style="fill:#665561;fill-opacity:1;stroke-width:0.348256"
       id="rect14"
       width="3.8021681"
       height="3.7652342"
       x="50.965374"
       y="7.2652349"
       rx="0"
       ry="0" /><rect
       style="fill:#665561;fill-opacity:1;stroke-width:0.348256"
       id="rect15"
       width="3.8021681"
       height="3.7652342"
       x="9.2324591"
       y="7.2652349"
       rx="0"
       ry="0" /><rect
       style="fill:#bec8cf;fill-opacity:1;stroke-width:0.348256"
       id="rect16"
       width="3.8021681"
       height="3.7652342"
       x="54.76754"
       y="7.2652349"
       rx="0"
       ry="0" /><rect
       style="fill:#665561;fill-opacity:1;stroke-width:1.09996"
       id="rect18"
       width="37.930748"
       height="3.7652342"
       x="13.034627"
       y="-60.5"
       rx="0"
       ry="0"
       transform="scale(1,-1)" /><rect
       style="fill:#bec8cf;fill-opacity:1;stroke-width:0.348256"
       id="rect19"
       width="3.8021681"
       height="3.7652342"
       x="50.965374"
       y="-60.5"
       rx="0"
       ry="0"
       transform="scale(1,-1)" /><rect
       style="fill:#bec8cf;fill-opacity:1;stroke-width:0.348256"
       id="rect20"
       width="3.8021681"
       height="3.7652342"
       x="9.2324591"
       y="-60.5"
       rx="0"
       ry="0"
       transform="scale(1,-1)" /><rect
       style="fill:#665561;fill-opacity:1;stroke-width:0.348256"
       id="rect21"
       width="3.8021681"
       height="3.7652342"
       x="50.965374"
       y="-56.734764"
       rx="0"
       ry="0"
       transform="scale(1,-1)" /><rect
       style="fill:#665561;fill-opacity:1;stroke-width:0.348256"
       id="rect22"
       width="3.8021681"
       height="3.7652342"
       x="9.2324591"
       y="-56.734764"
       rx="0"
       ry="0"
       transform="scale(1,-1)" /><rect
       style="fill:#bec8cf;fill-opacity:1;stroke-width:0.348256"
       id="rect23"
       width="3.8021681"
       height="3.7652342"
       x="54.76754"
       y="-56.734764"
       rx="0"
       ry="0"
       transform="scale(1,-1)" /><rect
       style="fill:#bec8cf;fill-opacity:1;stroke-width:0.348256"
       id="rect24"
       width="3.8021681"
       height="3.7652342"
       x="5.4302902"
       y="-56.734764"
       rx="0"
       ry="0"
       transform="scale(1,-1)" /><rect
       style="fill:#665561;fill-opacity:1;stroke-width:1.16228"
       id="rect26"
       width="41.939064"
       height="3.8021681"
       x="-52.969532"
       y="5.4302902"
       rx="0"
       ry="0"
       transform="rotate(-90)" /><rect
       style="fill:#bec8cf;fill-opacity:1;stroke-width:0.348256"
       id="rect28"
       width="3.8021681"
       height="3.7652342"
       x="5.4302902"
       y="7.2652349"
       rx="0"
       ry="0" /><rect
       style="fill:#665561;fill-opacity:1;stroke-width:1.16228"
       id="rect29"
       width="41.939064"
       height="3.8021681"
       x="-52.969532"
       y="54.76754"
       rx="0"
       ry="0"
       transform="rotate(-90)" /><rect
       style="fill:#7e919f;fill-opacity:1;stroke-width:1.56198"
       id="rect30"
       width="37.930748"
       height="7.5924668"
       x="13.034627"
       y="-56.734764"
       rx="0"
       ry="0"
       transform="scale(1,-1)" /><rect
       style="fill:#7e919f;fill-opacity:1;stroke-width:0.498004"
       id="rect31"
       width="3.8021681"
       height="7.699439"
       x="9.2324591"
       y="-52.969532"
       rx="0"
       ry="0"
       transform="scale(1,-1)" /><rect
       style="fill:#7e919f;fill-opacity:1;stroke-width:0.498004"
       id="rect32"
       width="3.8021681"
       height="7.699439"
       x="50.965374"
       y="-52.969532"
       rx="0"
       ry="0"
       transform="scale(1,-1)" /><g
       id="g57"
       transform="translate(0.07700527)"><rect
         style="fill:#665561;fill-opacity:1;stroke-width:0.701074"
         id="rect33"
         width="3.8021681"
         height="15.258818"
         x="20.592016"
         y="-33.789585"
         rx="0"
         ry="0"
         transform="scale(1,-1)" /><rect
         style="fill:#665561;fill-opacity:1;stroke-width:0.701074"
         id="rect34"
         width="3.8021681"
         height="15.258818"
         x="39.451805"
         y="-33.789585"
         rx="0"
         ry="0"
         transform="scale(1,-1)" /></g><rect
       style="fill:#665561;fill-opacity:1;stroke-width:1.09996"
       id="rect36"
       width="37.930748"
       height="3.7652342"
       x="13.034627"
       y="3.5000005"
       rx="0"
       ry="0" /><rect
       style="fill:#bec8cf;fill-opacity:1;stroke-width:0.348256"
       id="rect37"
       width="3.8021681"
       height="3.7652342"
       x="50.965374"
       y="3.5000005"
       rx="0"
       ry="0" /><rect
       style="fill:#bec8cf;fill-opacity:1;stroke-width:0.348256"
       id="rect38"
       width="3.8021681"
       height="3.7652342"
       x="9.2324591"
       y="3.5000005"
       rx="0"
       ry="0" /><rect
       style="fill:#665561;fill-opacity:1;stroke-width:0.348256"
       id="rect39"
       width="3.8021681"
       height="3.7652342"
       x="50.965374"
       y="7.2652349"
       rx="0"
       ry="0" /><rect
       style="fill:#665561;fill-opacity:1;stroke-width:0.348256"
       id="rect40"
       width="3.8021681"
       height="3.7652342"
       x="9.2324591"
       y="7.2652349"
       rx="0"
       ry="0" /><rect
       style="fill:#bec8cf;fill-opacity:1;stroke-width:0.348256"
       id="rect41"
       width="3.8021681"
       height="3.7652342"
       x="54.76754"
       y="7.2652349"
       rx="0"
       ry="0" /><rect
       style="fill:#665561;fill-opacity:1;stroke-width:1.09996"
       id="rect42"
       width="37.930748"
       height="3.7652342"
       x="13.034627"
       y="-60.5"
       rx="0"
       ry="0"
       transform="scale(1,-1)" /><rect
       style="fill:#bec8cf;fill-opacity:1;stroke-width:0.348256"
       id="rect43"
       width="3.8021681"
       height="3.7652342"
       x="50.965374"
       y="-60.5"
       rx="0"
       ry="0"
       transform="scale(1,-1)" /><rect
       style="fill:#bec8cf;fill-opacity:1;stroke-width:0.348256"
       id="rect44"
       width="3.8021681"
       height="3.7652342"
       x="9.2324591"
       y="-60.5"
       rx="0"
       ry="0"
       transform="scale(1,-1)" /><rect
       style="fill:#665561;fill-opacity:1;stroke-width:0.348256"
       id="rect45"
       width="3.8021681"
       height="3.7652342"
       x="50.965374"
       y="-56.734764"
       rx="0"
       ry="0"
       transform="scale(1,-1)" /><rect
       style="fill:#665561;fill-opacity:1;stroke-width:0.348256"
       id="rect46"
       width="3.8021681"
       height="3.7652342"
       x="9.2324591"
       y="-56.734764"
       rx="0"
       ry="0"
       transform="scale(1,-1)" /><rect
       style="fill:#bec8cf;fill-opacity:1;stroke-width:0.348256"
       id="rect47"
       width="3.8021681"
       height="3.7652342"
       x="54.76754"
       y="-56.734764"
       rx="0"
       ry="0"
       transform="scale(1,-1)" /><rect
       style="fill:#bec8cf;fill-opacity:1;stroke-width:0.348256"
       id="rect48"
       width="3.8021681"
       height="3.7652342"
       x="5.4302902"
       y="-56.734764"
       rx="0"
       ry="0"
       transform="scale(1,-1)" /><rect
       style="fill:#665561;fill-opacity:1;stroke-width:1.16228"
       id="rect49"
       width="41.939064"
       height="3.8021681"
       x="-52.969532"
       y="5.4302902"
       rx="0"
       ry="0"
       transform="rotate(-90)" /><rect
       style="fill:#bec8cf;fill-opacity:1;stroke-width:0.348256"
       id="rect50"
       width="3.8021681"
       height="3.7652342"
       x="5.4302902"
       y="7.2652349"
       rx="0"
       ry="0" /><rect
       style="fill:#665561;fill-opacity:1;stroke-width:1.16228"
       id="rect51"
       width="41.939064"
       height="3.8021681"
       x="-52.969532"
       y="54.76754"
       rx="0"
       ry="0"
       transform="rotate(-90)" /><rect
       style="fill:#7e919f;fill-opacity:1;stroke-width:1.56198"
       id="rect52"
       width="37.930748"
       height="7.5924668"
       x="13.034627"
       y="-56.734764"
       rx="0"
       ry="0"
       transform="scale(1,-1)" /><rect
       style="fill:#7e919f;fill-opacity:1;stroke-width:0.498004"
       id="rect53"
       width="3.8021681"
       height="7.699439"
       x="9.2324591"
       y="-52.969532"
       rx="0"
       ry="0"
       transform="scale(1,-1)" /><rect
       style="fill:#7e919f;fill-opacity:1;stroke-width:0.498004"
       id="rect54"
       width="3.8021681"
       height="7.699439"
       x="50.965374"
       y="-52.969532"
       rx="0"
       ry="0"
       transform="scale(1,-1)" /></g></svg>
