<?xml version="1.0" encoding="UTF-8"?>
<svg width="64" height="64" version="1.1" viewBox="0 0 16.933 16.933" xmlns="http://www.w3.org/2000/svg" xmlns:cc="http://creativecommons.org/ns#" xmlns:dc="http://purl.org/dc/elements/1.1/" xmlns:rdf="http://www.w3.org/1999/02/22-rdf-syntax-ns#">
 <metadata>
  <rdf:RDF>
   <cc:Work rdf:about="">
    <dc:format>image/svg+xml</dc:format>
    <dc:type rdf:resource="http://purl.org/dc/dcmitype/StillImage"/>
    <dc:title/>
   </cc:Work>
  </rdf:RDF>
 </metadata>
 <g transform="translate(-28.751 1.9186)">
  <path d="m34.677-0.7258c-0.48313 0-0.89048 0.92322 0.05698 0.72015 0.36917-0.12063 0.32431-0.72015-0.05698-0.72015m5.5696 0.60618c-0.28188 0-0.5492 0.32673-0.41705 0.51162 0.03576 0.049707 0.22247 0.10184 0.39766 0.11396 0.24126 0.016367 0.30309-0.056981 0.30309-0.30309 0-0.22732-0.0782-0.32188-0.2843-0.32188m-4.1487 0.18974c-0.56375-0.042433-1.2002 0.45221-1.3069 1.0251-0.068499 0.36007-0.013941 0.57527-0.32188 0.49283-0.18974-0.052132-0.62498-0.45706-0.89048-0.49283-0.41706 0.061831-0.90685 0.54253-0.60618 1.2124 0.29824 0.34795 0.40008 0.60133 0 0.60618-0.89958 0.23702-1.2312 0.43827-0.92807 1.4561 0.05941 0.17276 0.03819 0.39281-0.20853 0.64619-0.36492 0.38129-0.39099 0.40008-0.94746 0.22732-0.7838-0.24126-1.6385 0.71772-0.05698 0.70075 0.99899-0.11821 1.1081 0.11578 0.24611 0.5686-0.58497 0.30552-0.77167 0.42857-0.77652 0.77652-0.0049 0.34128 0.15397 0.44979 0.58739 0.62498 0.95656 0.33886 1.3615 0.46676 1.4779 1.667 0 0.3625-0.05698 0.98505 0.2843 1.1936 0.33158 0.20368 0.41463 0.34795 0.36007 0.58739-0.09214 0.4213 0.19398 0.54254 0.75773 0.3431 0.63225-0.22489 0.72015-0.06365 0.22732 0.37886-0.26975 0.23944-0.39766 0.51647-0.39766 0.79592 0.0073 0.62255 1.9016 1.0584 1.5912-0.26551-0.14185-0.60133-0.44494-1.0487 0.21095-1.2124 0.43342-0.16124 0.83835 0.4904 1.2124 0.60618 0.87169 0.26733 1.5203-0.1182 2.0459-0.57042 0.31703-0.2746 0.65104-0.23459 0.84987-0.18974 0.73409 0.15155 3.5825 0.40008 2.5005-1.3827-0.44494-0.64862-0.35522-0.77652 0.5492-0.75773 0.74379 0.013941 0.80501-0.013941 0.85229-0.30309 0.02849-0.17276-0.04243-0.44736-0.15155-0.62498-0.16367-0.26551-0.1564-0.34128 0.01879-0.43585 0.16549-0.089715 0.04243-0.5686-0.15155-1.0251-0.40008-1.2906 0.87351-3.545-0.39765-3.9566-0.76743-0.27703 0.25338-1.7828-0.90928-1.4233-0.33643 0.096989-0.57284-0.075773-0.96626-0.34128-0.56375-0.2843-0.73651-0.29582-1.4397-0.26551-0.59891 0.023641-0.88078-0.76743-1.5912-0.24611-0.59648 0.62498-0.45221 0.31703-1.2124-0.17034-0.15155-0.15155-0.32188-0.23217-0.51162-0.24611m7.9349 4.8137c-0.09457 0.021217-0.18004 0.087897-0.2843 0.16791-0.28672 0.22247-0.30309 0.24126-0.05698 0.47343 0.35522 0.33886 0.73651 0.25096 0.79592-0.18974 0.04728-0.34552-0.17034-0.52556-0.45464-0.45464m-6.9335 7.5961c-0.10184 0.02122-0.12548 0.13518-0.09457 0.32188 0.02849 0.16367 0.1564 0.30309 0.2843 0.30309 0.1376 0 0.23702 0.14427 0.26551 0.36007 0.02849 0.20125 0.12063 0.36007 0.18974 0.36007 0.07092 0 0.16124-0.15882 0.21095-0.36007 0.06607-0.28672 0.02364-0.52314-0.30309-0.75773-0.26308-0.18731-0.44736-0.24854-0.5492-0.22732m1.4373 0.18974c-0.09456-0.01212-0.18974 0.03576-0.18974 0.15155 0 0.11578 0.11154 0.20853 0.24611 0.20853 0.13275 0 0.22247-0.06183 0.18974-0.15155-0.04728-0.12063-0.15155-0.1964-0.24611-0.20853m-2.3302 0.22732c-0.08547 0-0.21338 0.12306-0.20853 0.32188 0.0097 0.32188 0.09214 0.38614 0.20853 0.15155 0.18004-0.36007 0.18004-0.47343 0-0.47343" fill="#fa1e2f"/>
  <path d="m37.221 11.398v-4.8495l-4.2075-2.4247v4.8495" fill="#e5e5e5"/>
  <path d="m41.411 4.1237-4.1912 2.4247v4.8495l4.1912-2.4247" fill="#c1c1c1"/>
  <path d="m37.221 1.6989-4.2075 2.4247 4.2075 2.4247 4.1936-2.4247" fill="#f9f9f9"/>
 </g>
</svg>
