<?xml version="1.0" encoding="UTF-8" standalone="no"?>
<svg
   xmlns:dc="http://purl.org/dc/elements/1.1/"
   xmlns:cc="http://creativecommons.org/ns#"
   xmlns:rdf="http://www.w3.org/1999/02/22-rdf-syntax-ns#"
   xmlns:svg="http://www.w3.org/2000/svg"
   xmlns="http://www.w3.org/2000/svg"
   xmlns:sodipodi="http://sodipodi.sourceforge.net/DTD/sodipodi-0.dtd"
   xmlns:inkscape="http://www.inkscape.org/namespaces/inkscape"
   viewBox="0 0 64 64"
   version="1.1"
   id="svg33"
   sodipodi:docname="astahc.svg"
   width="64"
   height="64"
   inkscape:version="1.0.1 (3bc2e813f5, 2020-09-07)">
  <metadata
     id="metadata39">
    <rdf:RDF>
      <cc:Work
         rdf:about="">
        <dc:format>image/svg+xml</dc:format>
        <dc:type
           rdf:resource="http://purl.org/dc/dcmitype/StillImage" />
        <dc:title></dc:title>
      </cc:Work>
    </rdf:RDF>
  </metadata>
  <defs
     id="defs37">
    <linearGradient
       id="linearGradient862"
       x1="7.9373002"
       x2="7.9373002"
       y1="15.081"
       y2="1.852"
       gradientTransform="matrix(3.7796,0,0,3.7796,5.0973892e-4,87.742257)"
       gradientUnits="userSpaceOnUse">
      <stop
         stop-color="#767574"
         offset="0"
         id="stop864" />
      <stop
         stop-color="#d1e7ee"
         offset="1"
         id="stop866" />
    </linearGradient>
    <linearGradient
       id="linearGradient873"
       x1="-48.646"
       x2="-32.772"
       y1="-6.3007"
       y2="9.574"
       gradientTransform="matrix(3.779602,0,0,3.779602,185.86344,25.81351)"
       gradientUnits="userSpaceOnUse">
      <stop
         stop-color="#28afea"
         offset="0"
         id="stop929" />
      <stop
         stop-color="#838be4"
         offset="1"
         id="stop931" />
    </linearGradient>
  </defs>
  <sodipodi:namedview
     pagecolor="#ffffff"
     bordercolor="#666666"
     borderopacity="1"
     objecttolerance="10"
     gridtolerance="10"
     guidetolerance="10"
     inkscape:pageopacity="0"
     inkscape:pageshadow="2"
     inkscape:window-width="1920"
     inkscape:window-height="1002"
     id="namedview35"
     showgrid="false"
     inkscape:zoom="6.1208931"
     inkscape:cx="18.412398"
     inkscape:cy="33.070378"
     inkscape:window-x="0"
     inkscape:window-y="0"
     inkscape:window-maximized="1"
     inkscape:current-layer="svg33"
     inkscape:document-rotation="0" />
  <linearGradient
     id="a"
     gradientTransform="matrix(1.8137796,0,0,1.7592729,63.680724,-1778.9048)"
     gradientUnits="userSpaceOnUse"
     x1="17"
     x2="17"
     y1="1036.3622"
     y2="1012.3622">
    <stop
       offset="0"
       stop-color="#ff9300"
       id="stop2" />
    <stop
       offset="1"
       stop-color="#ffd702"
       id="stop4" />
  </linearGradient>
  <linearGradient
     id="b"
     gradientTransform="matrix(1.2132726,0,0,1.7592729,83.630471,-1778.9048)"
     gradientUnits="userSpaceOnUse"
     x1="33.461716"
     x2="34.116894"
     y1="1013.622"
     y2="1037.2084">
    <stop
       offset="0"
       stop-color="#f6fbff"
       id="stop7" />
    <stop
       offset="1"
       stop-color="#eaeff2"
       id="stop9" />
  </linearGradient>
  <linearGradient
     id="c"
     gradientUnits="userSpaceOnUse"
     x1="27.800341"
     x2="27.800341"
     y1="1037.3622"
     y2="1011.3622"
     gradientTransform="matrix(1.7592729,0,0,1.7592729,64.582524,-1778.9048)">
    <stop
       offset="0"
       stop-color="#ff9300"
       id="stop12" />
    <stop
       offset="1"
       stop-color="#ecc702"
       id="stop14" />
  </linearGradient>
  <linearGradient
     gradientUnits="userSpaceOnUse"
     x1="25.177879"
     x2="26.183626"
     y1="58.290043"
     y2="-1.7141989"
     id="linearGradient21">
    <stop
       offset="0"
       stop-color="#e5e5e6"
       id="stop17" />
    <stop
       offset="1"
       stop-color="#f6f6f7"
       id="stop19" />
  </linearGradient>
  <path
     id="rect935"
     style="fill:#e96020;fill-opacity:1;stroke-width:0.5"
     d="M 7.25 4.5 C 5.7265385 4.5 4.5 5.7265385 4.5 7.25 L 4.5 56.75 C 4.5 58.273462 5.7265385 59.5 7.25 59.5 L 56.75 59.5 C 58.273462 59.5 59.5 58.273462 59.5 56.75 L 59.5 7.25 C 59.5 5.7265385 58.273462 4.5 56.75 4.5 L 7.25 4.5 z " />
  <g
     aria-label="a"
     id="text966"
     style="font-style:normal;font-variant:normal;font-weight:800;font-stretch:normal;font-size:56.4727px;line-height:1.25;font-family:Inconsolata;-inkscape-font-specification:'Inconsolata, Ultra-Bold';font-variant-ligatures:normal;font-variant-caps:normal;font-variant-numeric:normal;font-variant-east-asian:normal;letter-spacing:0px;word-spacing:0px;fill:#ff0000;fill-opacity:1;stroke:none;stroke-width:1.41182"
     transform="translate(1.1785645,-1.6704141)">
    <path
       d="m 14.213991,59.486114 q -4.2919246,0 -6.7202506,-2.033018 -2.4283261,-2.089489 -2.4283261,-5.421379 0,-4.235452 3.7271981,-7.059087 3.7836706,-2.880108 11.5204306,-2.880108 0.225891,0 0.564727,0 0.338836,0 0.734145,0.05647 -0.395309,-2.880107 -1.694181,-3.840143 -1.242399,-1.016509 -3.331889,-1.016509 -1.807127,0 -3.331889,0.564727 -1.524763,0.508254 -3.105999,2.145963 L 6.1383956,35.76758 q 2.3718533,-2.202435 5.1390154,-3.105998 2.823635,-0.903563 5.590797,-0.903563 3.275417,0 5.986106,1.016508 2.767162,1.016509 4.404871,3.501308 1.637708,2.484798 1.637708,6.946141 v 15.586465 h -7.341451 v -2.484799 q -1.46829,1.694181 -3.162471,2.428326 -1.694181,0.734146 -4.17898,0.734146 z M 12.29392,51.071682 q 0,1.581235 0.960036,2.258907 1.016508,0.6212 2.484798,0.6212 2.654217,0 4.122507,-1.637708 1.524763,-1.637708 1.863599,-5.308434 -0.508254,0 -0.960036,0 -0.395308,0 -0.677672,0 -3.105998,0 -4.800179,0.564727 -1.694181,0.564727 -2.371854,1.46829 -0.621199,0.903564 -0.621199,2.033018 z"
       style="fill:#ffffff;fill-opacity:1;stroke-width:1.41182"
       id="path992" />
  </g>
  <g
     id="g1021"
     transform="translate(2.1872855)">
    <g
       id="g899"
       transform="matrix(0.05895653,0,0,0.05895653,4.8805875,-25.499672)">
      <path
         d="m 594.47,3.09 a 101.57,101.57 0 0 0 -9.21,11.64 89.1,89.1 0 0 0 -7.26,12.87 81.86,81.86 0 0 0 -7.35,29.85 90.89,90.89 0 0 0 0.05,10.3 97.31,97.31 0 0 0 1.3,10.88 113.06,113.06 0 0 0 2.71,11.48 126.94,126.94 0 0 0 4.29,12.09 l 28.73,-4.79 q -2.58,-5.46 -4.46,-10.73 a 101.42,101.42 0 0 1 -3.07,-10.22 88.75,88.75 0 0 1 -1.81,-9.75 79.41,79.41 0 0 1 -0.62,-9.26 72.52,72.52 0 0 1 4.91,-27.1 76,76 0 0 1 5.86,-11.82 86.19,86.19 0 0 1 7.77,-10.72 z"
         fill="#209ed5"
         id="path858" />
      <path
         d="m 384.66,72.86 -25.21,12.36 a 184,184 0 0 0 31.08,18.4 275.6,275.6 0 0 0 40.58,15.27 376.51,376.51 0 0 0 49.12,10.81 466.34,466.34 0 0 0 55.82,5.1 l 3.86,-20.23 a 415.56,415.56 0 0 1 -48.47,-4.25 344.13,344.13 0 0 1 -42.89,-9 259.83,259.83 0 0 1 -35.86,-12.84 175.33,175.33 0 0 1 -28.03,-15.62 z"
         fill="#12519b"
         id="path860" />
      <path
         d="m 820.54,345.58 a 523.23,523.23 0 0 0 -40.65,-63.48 454.5,454.5 0 0 0 -43.73,-50.34 415.27,415.27 0 0 0 -46.37,-39.7 399.43,399.43 0 0 0 -49.06,-30.82 l -20.16,18.88 a 353.24,353.24 0 0 1 44.61,29.77 364.91,364.91 0 0 1 41.28,37.94 396.79,396.79 0 0 1 37.91,47.55 456.75,456.75 0 0 1 33.94,59.19"
         fill="#209ed5"
         fill-rule="evenodd"
         id="path862" />
      <g
         fill="#12519b"
         id="g878">
        <path
           d="m 797.37,85.6 c -13.81,0 -27.45,0.57 -40.83,1.75 -13.38,1.18 -26.73,3 -39.77,5.4 a 374.46,374.46 0 0 0 -38.95,9.41 346.79,346.79 0 0 0 -38.39,14 l 19.06,16.94 a 305.27,305.27 0 0 1 35.43,-13.57 330.14,330.14 0 0 1 36.18,-9.13 368.42,368.42 0 0 1 37.12,-5.26 c 12.51,-1.15 25.28,-1.7 38.24,-1.7 h 7.29 c 0,0 4.9,0.1 7.37,0.18 2.47,0.08 4.94,0.18 7.41,0.29 2.47,0.11 5,0.26 7.47,0.41 l -6.14,-17.79 c -2.67,-0.16 -5.31,-0.31 -8,-0.43 -2.69,-0.12 -5.26,-0.22 -7.89,-0.3 -2.63,-0.08 -5.24,-0.14 -7.85,-0.19 -2.61,-0.05 -5.12,-0.01 -7.75,-0.01 z"
           id="path864" />
        <g
           fill-rule="evenodd"
           id="g876">
          <path
             d="m 96,256.36 h -6.6 c -17.29,0 -47.18,1.31 -47.18,19.4 0,11.53 11.79,16.51 22,16.51 C 85.73,292.27 96,281 96,263.45 Z m 1.82,39.05 H 97 c -8.91,14.16 -23.59,20.45 -40.36,20.45 -23.32,0 -45.86,-12.84 -45.86,-37.75 0,-40.87 47.7,-43.77 79.15,-43.77 h 7.85 v -3.4 c 0,-15.46 -12,-23.59 -28.82,-23.59 A 49.43,49.43 0 0 0 35.42,220.47 L 18.89,203.94 c 13.91,-14.14 33.56,-20.17 53.48,-20.17 53.72,0 53.72,38.79 53.72,56.6 v 72.34 H 97.78 Z"
             id="path866" />
          <path
             d="m 225.68,221.78 c -6,-8.39 -13.89,-12.86 -24.63,-12.86 -8.4,0 -18.35,3.93 -18.35,13.37 0,22.54 67.87,4.2 67.87,53.21 0,29.87 -28.56,40.36 -54.24,40.36 -19.4,0 -36.17,-5 -49,-19.39 l 21,-19.66 c 8.12,8.91 16.51,15.46 29.87,15.46 9.18,0 21,-4.46 21,-14.41 0,-26 -67.88,-5.51 -67.88,-53.48 0,-28 25.16,-40.61 50.58,-40.61 16.78,0 34.6,5.24 44.82,19.12 z"
             id="path868" />
          <path
             d="m 260.27,213.64 v -26.73 h 26 v -36.44 h 31.45 v 36.44 h 34.59 v 26.73 h -34.64 v 55 c 0,12.59 3.67,20.46 17.56,20.46 5.51,0 13.11,-1.06 17,-3.94 v 26.47 c -6.54,3.15 -17.56,4.2 -24.9,4.2 -33.29,0 -41.14,-14.93 -41.14,-44.55 v -57.64 z"
             id="path870" />
          <path
             d="m 451.07,256.36 h -6.56 c -17.3,0 -47.17,1.31 -47.17,19.4 0,11.53 11.79,16.51 22,16.51 21.51,0 31.73,-11.27 31.73,-28.82 z m 1.83,39.05 h -0.8 c -8.89,14.16 -23.58,20.45 -40.35,20.45 -23.33,0 -45.86,-12.84 -45.86,-37.75 0,-40.87 47.69,-43.77 79.15,-43.77 h 7.86 v -3.4 c 0,-15.46 -12,-23.59 -28.83,-23.59 a 49.41,49.41 0 0 0 -33.54,13.12 L 374,203.94 c 13.88,-14.14 33.54,-20.17 53.46,-20.17 53.73,0 53.73,38.79 53.73,56.6 v 72.34 H 452.9 Z"
             id="path872" />
          <path
             d="m 539.91,204.48 h 0.52 c 5,-10.5 17.56,-20.71 37,-20.71 33.81,0 45.87,23.84 45.87,49.54 v 79.4 H 591.8 V 249 c 0,-13.91 -1,-37 -23.07,-37 -20.7,0 -28.82,15.21 -28.82,32 v 68.66 H 508.46 V 114.57 h 31.45 z"
             id="path874" />
        </g>
      </g>
    </g>
    <g
       id="g980">
      <path
         style="fill:#000000;fill-opacity:1;stroke:none;stroke-width:1px;stroke-linecap:butt;stroke-linejoin:miter;stroke-opacity:1"
         d="m 26.072512,-20.475397 1.486294,-0.728702 c 0,0 3.285648,2.365336 9.153002,2.459077 l -1.872278,1.108934 c 0,0 -5.255884,-0.359274 -8.767018,-2.839309 z"
         id="path968" />
      <path
         style="fill:#000000;fill-opacity:1;stroke:none;stroke-width:1px;stroke-linecap:butt;stroke-linejoin:miter;stroke-opacity:1"
         d="m 39.928476,-25.317496 c 0,0 -2.425256,2.299787 -0.912058,5.843181 l 1.693821,-0.282401 c 0,0 -1.656209,-2.815636 0.505848,-5.282506 z"
         id="path970" />
      <path
         style="fill:#000000;fill-opacity:1;stroke:none;stroke-width:1px;stroke-linecap:butt;stroke-linejoin:miter;stroke-opacity:1"
         d="m 42.579161,-18.651281 c 0,0 4.510643,-2.129113 11.168136,-1.746882 l 0.361993,1.048836 c 0,0 -5.433288,-0.54408 -10.406417,1.696769 z"
         id="path972" />
      <path
         style="fill:#000000;fill-opacity:1;stroke:none;stroke-width:1px;stroke-linecap:butt;stroke-linejoin:miter;stroke-opacity:1"
         d="m 41.467241,-14.880422 1.188564,-1.113099 c 0,0 5.978642,2.63637 10.600974,10.8680466 l -2.489735,0.5300192 c 0,0 -2.956365,-6.9694018 -9.299803,-10.2849668 z"
         id="path974" />
    </g>
  </g>
  <path
     id="path982"
     style="fill:#ffffff;fill-opacity:1;stroke:none;stroke-width:3.25128px;stroke-linecap:butt;stroke-linejoin:miter;stroke-opacity:1"
     d="M 22.960938 4.5 C 21.718568 7.7797625 21.137944 12.352399 23.492188 17.865234 L 28.998047 16.947266 C 28.998047 16.947266 25.51981 11.003088 27.835938 4.5 L 22.960938 4.5 z M 59.5 14.978516 C 44.557879 16.09065 35.076172 20.541016 35.076172 20.541016 L 38.728516 23.789062 C 45.93508 20.541847 53.401389 19.111755 59.5 18.505859 L 59.5 14.978516 z M 4.5 19.072266 L 4.5 23.320312 C 9.6613495 24.382436 13.478516 24.8125 13.478516 24.8125 L 15.998047 20.236328 C 11.72229 20.168015 7.9042636 19.713574 4.5 19.072266 z M 35.324219 29.181641 L 31.460938 32.800781 C 44.806547 39.776215 53.472441 51.64485 57.970703 59.205078 C 58.875236 58.755755 59.5 57.832154 59.5 56.75 L 59.5 49.449219 C 47.160354 34.440855 35.324219 29.181641 35.324219 29.181641 z " />
</svg>
