<?xml version="1.0" encoding="UTF-8" standalone="no"?>
<svg
   width="64"
   height="64"
   version="1.1"
   id="svg5"
   sodipodi:docname="atom-nightly.svg"
   inkscape:version="1.4 (e7c3feb100, 2024-10-09)"
   xmlns:inkscape="http://www.inkscape.org/namespaces/inkscape"
   xmlns:sodipodi="http://sodipodi.sourceforge.net/DTD/sodipodi-0.dtd"
   xmlns="http://www.w3.org/2000/svg"
   xmlns:svg="http://www.w3.org/2000/svg">
  <sodipodi:namedview
     id="namedview5"
     pagecolor="#505050"
     bordercolor="#eeeeee"
     borderopacity="1"
     inkscape:showpageshadow="0"
     inkscape:pageopacity="0"
     inkscape:pagecheckerboard="0"
     inkscape:deskcolor="#505050"
     inkscape:zoom="6.5075921"
     inkscape:cx="19.362"
     inkscape:cy="24.894"
     inkscape:window-width="2560"
     inkscape:window-height="1408"
     inkscape:window-x="0"
     inkscape:window-y="0"
     inkscape:window-maximized="1"
     inkscape:current-layer="svg5" />
  <defs
     id="defs4">
    <linearGradient
       id="b"
       x1="24.586"
       x2="24.586"
       y1="12.173"
       y2="35.946"
       gradientTransform="matrix(1.462,0,0,1.462,79.758334,-3.302)"
       gradientUnits="userSpaceOnUse">
      <stop
         offset="0"
         stop-color="#fff"
         id="stop1" />
      <stop
         offset="1"
         stop-color="#e8e8e8"
         id="stop2" />
    </linearGradient>
    <linearGradient
       id="a"
       x1="30.79"
       x2="30.79"
       y1="-6.397"
       y2="211.48"
       gradientTransform="matrix(0.24,0,0,0.24,90.826334,7.968)"
       gradientUnits="userSpaceOnUse">
      <stop
         offset="0"
         stop-color="#ae69db"
         id="stop3" />
      <stop
         offset="1"
         stop-color="#7c30b0"
         id="stop4" />
    </linearGradient>
    <linearGradient
       id="linearGradient1005-3-3"
       x1="5.2535"
       x2="9.3823996"
       y1="15.383"
       y2="2.9421"
       gradientTransform="matrix(3.7795,0,0,3.7795,3.6595,-21.734183)"
       gradientUnits="userSpaceOnUse">
      <stop
         stop-color="#fa8200"
         offset="0"
         id="stop96" />
      <stop
         stop-color="#ff9600"
         offset=".36953"
         id="stop97" />
      <stop
         stop-color="#ffb400"
         offset="1"
         id="stop98" />
    </linearGradient>
    <linearGradient
       id="linearGradient1005-3"
       x1="0.92150003"
       x2="16.136999"
       y1="16.113001"
       y2="0.89806998"
       gradientTransform="matrix(3.7795,0,0,3.7795,-0.13247805,0.02536645)"
       gradientUnits="userSpaceOnUse">
      <stop
         stop-color="#a53cff"
         offset="0"
         id="stop4-3" />
      <stop
         stop-color="#b496ff"
         offset="1"
         id="stop6" />
    </linearGradient>
  </defs>
  <path
     d="m 62.00005,32.00017 c 0,3.596371 -0.633029,7.044396 -1.7939,10.239987 -0.806937,2.221191 -1.8685,4.321097 -3.151797,6.263509 -0.53754,0.816681 -1.115501,1.605392 -1.729002,2.363301 -1.964001,2.425701 -4.297999,4.538003 -6.9183,6.252397 -0.964898,0.631824 -1.9678,1.209789 -3.0061,1.727698 -4.032,2.017776 -8.5836,3.152882 -13.401001,3.152882 -4.817098,0 -9.3687,-1.135106 -13.400999,-3.152996 -1.038399,-0.517984 -2.042502,-1.095912 -3.0074,-1.727697 C 12.93805,55.381764 10.576152,53.23624 8.596152,50.770362 7.98151,50.006293 7.40475,49.210362 6.86715,48.38635 5.618152,46.476252 4.583552,44.415237 3.79255,42.237058 2.6318489,39.042261 1.99995,35.595445 1.99995,32.000056 c 0,-16.568995 13.431001,-29.9999995 30,-29.9999995 8.316803,0 15.842001,3.3844909 21.277003,8.8504055 1.5661,1.574589 2.958399,3.323301 4.143398,5.213707 1.120399,1.780385 2.057102,3.688101 2.785701,5.694879 1.160999,3.195893 1.793998,6.644107 1.793998,10.240025 z"
     fill="url(#linearGradient1005)"
     stroke-width="0.11719"
     id="path550"
     style="fill:url(#linearGradient1005-3)" />
  <g
     stroke-width="0.26458"
     id="g4"
     transform="matrix(3.779602,0,0,3.779602,-1.7e-6,-1.7e-6)">
    <circle
       cx="-306.20001"
       cy="-337.67999"
       r="0"
       fill="#5e4aa6"
       id="circle3" />
    <circle
       cx="-15.283"
       cy="-2.8608999"
       r="0"
       fill="#5e4aa6"
       fill-rule="evenodd"
       id="circle4" />
    <path
       d="M 10.437,13.732 C 9.55781,13.58595 8.4162,12.5795 7.374,11.032 6.93665,10.38246 6.48925,9.5808 6.1972,8.923 6.138728,8.79071 6.117297,8.75896 6.099306,8.77801 6.064117,8.815845 5.809596,9.36934 5.675456,9.6998 c -0.22542,0.55641 -0.38443,1.0866 -0.47545,1.5867 -0.058207,0.3204 -0.063499,0.94137 -0.00926,1.1337 0.12594,0.44687 0.39925,0.63234 0.82548,0.56091 0.30691,-0.05133 0.67891,-0.2196 1.0734,-0.4855 0.17515,-0.11827 0.22145,-0.14076 0.28918,-0.14102 0.10345,-7.94e-4 0.18097,0.05556 0.21695,0.15822 0.024077,0.068 0.024077,0.08784 -5.291e-4,0.15266 -0.023812,0.06244 -0.064557,0.09922 -0.2495,0.22489 -0.25558,0.17304 -0.6924,0.39634 -0.91597,0.46778 -0.58578,0.18732 -1.0416,0.1188 -1.3626,-0.20531 -0.295,-0.29739 -0.422,-0.77812 -0.38284,-1.4491 0.051064,-0.87311 0.4347,-2.0648 1.0411,-3.2331 l 0.15213,-0.29262 -0.11483,-0.31088 c -0.11006,-0.29739 -0.32728,-0.98688 -0.32728,-1.0382 0,-0.03757 -0.066674,-0.029897 -0.35824,0.041803 -0.66806,0.1643 -1.1647,0.37358 -1.5205,0.64081 -0.69981,0.52519 -0.5146,1.1176 0.53445,1.7076 0.16668,0.093925 0.20531,0.14446 0.20531,0.26961 0,0.065351 -0.012171,0.092073 -0.065615,0.14552 -0.11456,0.11483 -0.22145,0.090751 -0.57546,-0.12858 -0.51222,-0.31749 -0.83607,-0.67917 -0.94984,-1.0604 -0.041803,-0.13917 -0.041803,-0.41962 0,-0.55985 0.060324,-0.20399 0.16219,-0.36618 0.3458,-0.55112 0.41195,-0.41433 1.0954,-0.73235 2.032,-0.94613 0.19076,-0.043655 0.23495,-0.060059 0.22754,-0.0844 -0.00476,-0.016404 -0.026458,-0.12567 -0.048153,-0.24235 -0.12753,-0.68341 -0.13123,-1.4668 -0.00952,-1.9013 0.14023,-0.50111 0.39475,-0.79929 0.80008,-0.93846 0.16536,-0.056884 0.49661,-0.047624 0.72389,0.019579 0.22833,0.067997 0.51169,0.20769 0.76225,0.3757 0.29897,0.20002 0.38681,0.28389 0.39951,0.38073 0.029104,0.22225 -0.20055,0.3421 -0.38814,0.2024 -0.58736,-0.43761 -1.007,-0.60403 -1.3433,-0.53312 -0.24421,0.051593 -0.43073,0.30268 -0.52519,0.70642 -0.037306,0.1606 -0.042332,0.2368 -0.042597,0.63605 -2.646e-4,0.45296 0.00635,0.52598 0.088898,1.0012 l 0.041539,0.23865 0.097894,-0.011906 c 0.45005,-0.054238 0.83792,-0.092073 1.0768,-0.10504 l 0.28389,-0.015081 0.044185,-0.056884 c 0.47942,-0.61647 1.1766,-1.3361 1.7047,-1.7597 1.0115,-0.81173 1.8790001,-1.0935 2.4757001,-0.80432 0.33707,0.16324 0.55032,0.49688 0.63287,0.99085 0.05397,0.32279 0.01138,1.0864 -0.07249,1.3015 -0.0291,0.074082 -0.12224,0.12779 -0.22225,0.12779 -0.06323,0 -0.09631,-0.0127 -0.14499,-0.056091 -0.05768,-0.051593 -0.06297,-0.066145 -0.06244,-0.16907 0,-0.061911 0.0164,-0.23838 0.03598,-0.39237 0.05715,-0.44767 0.01799,-0.8612 -0.10424,-1.1006 -0.05927,-0.11641 -0.18044,-0.24024 -0.28548,-0.29183 -0.07858,-0.038893 -0.11906,-0.044978 -0.30294,-0.044185 -0.19341,7.938e-4 -0.23124,0.00714 -0.422,0.07223 -0.5900101,0.20108 -1.2665001,0.68526 -1.9923001,1.4255 a 14.06,14.06 0 0 0 -0.46301,0.49873 l -0.21008,0.2413 0.18256,0.00423 c 2.5585001,0.060853 4.7148001,0.64822 5.7313001,1.5615 0.2286,0.20558 0.42597,0.51169 0.48312,0.75061 0.0291,0.12091 0.02963,0.35612 0.0011,0.4818 -0.10504,0.4646 -0.61567,0.921 -1.3599,1.216 -0.11774,0.04683 -0.14261,0.05027 -0.20611,0.03148 a 0.23204,0.23204 0 0 1 -0.17175,-0.22383 c 0,-0.12276 0.05926,-0.1815 0.27172,-0.27066 0.46248,-0.19394 0.82098,-0.46566 0.95698,-0.72547 0.04736,-0.090486 0.0545,-0.12541 0.0545,-0.26802 0,-0.14816 -0.0063,-0.17621 -0.06482,-0.28971 -0.08255,-0.15981 -0.35506,-0.43311 -0.58128,-0.58287 -1.1112,-0.735 -3.2051001,-1.212 -5.3193001,-1.2123 h -0.34871 l -0.1315,0.17859 c -0.19658,0.26722 -0.62308,0.9165 -0.79294,1.2067 l -0.14975,0.25638 0.10319,0.236 c 1.0319,2.3682 2.6339,4.3682 3.8152001,4.7624 0.25717,0.08599 0.45137,0.08996 0.60853,0.01323 0.29421,-0.14393 0.4482,-0.51725 0.47174,-1.1438 0.03969,-1.0456 -0.33707,-2.4907 -1.0393,-3.9883 -0.07276,-0.15531 -0.11641,-0.27384 -0.11641,-0.31591 0,-0.12647 0.10398,-0.22621 0.23442,-0.22436 0.11562,0.00132 0.16668,0.047889 0.25479,0.23283 0.56937,1.1909 0.94904,2.3841 1.0909,3.4287 0.04763,0.3511 0.04763,1.066 5.3e-4,1.3213 -0.07567,0.40877 -0.2106,0.70298 -0.41724,0.91015 -0.25135,0.25267 -0.5781,0.34924 -0.96412,0.28495 z M 6.3519,7.3739 C 6.423865,7.25722 6.56409,7.04265 6.66357,6.89713 6.763051,6.75161 6.84428,6.62673 6.84428,6.61932 c 0,-0.024606 -0.912,0.067732 -0.93952,0.095248 -0.016668,0.016668 0.038099,0.21986 0.15954,0.59345 0.088369,0.27146 0.11218,0.32675 0.13229,0.30479 0.013229,-0.014552 0.083078,-0.12224 0.15531,-0.23891 z m 1.946,1.7314 C 8.00792,9.00185 7.83859,8.75976 7.8423,8.45497 7.8444166,8.29516 7.880664,8.18563 7.97406,8.05863 8.21059,7.73637 8.69371,7.6996 8.98476,7.981902 c 0.3339,0.32411 0.23521,0.90274 -0.18759,1.0961 -0.14552,0.066409 -0.35692,0.07805 -0.49926,0.027252 z"
       fill="#ffffff"
       id="path4-5" />
  </g>
</svg>
