<?xml version="1.0" encoding="UTF-8" standalone="no"?>
<svg
   xmlns:dc="http://purl.org/dc/elements/1.1/"
   xmlns:cc="http://creativecommons.org/ns#"
   xmlns:rdf="http://www.w3.org/1999/02/22-rdf-syntax-ns#"
   xmlns:svg="http://www.w3.org/2000/svg"
   xmlns="http://www.w3.org/2000/svg"
   xmlns:xlink="http://www.w3.org/1999/xlink"
   xmlns:sodipodi="http://sodipodi.sourceforge.net/DTD/sodipodi-0.dtd"
   xmlns:inkscape="http://www.inkscape.org/namespaces/inkscape"
   width="64"
   height="64"
   version="1.1"
   id="svg12"
   sodipodi:docname="auryo.svg"
   inkscape:version="1.0.2 (e86c870879, 2021-01-15)">
  <metadata
     id="metadata18">
    <rdf:RDF>
      <cc:Work
         rdf:about="">
        <dc:format>image/svg+xml</dc:format>
        <dc:type
           rdf:resource="http://purl.org/dc/dcmitype/StillImage" />
        <dc:title></dc:title>
      </cc:Work>
    </rdf:RDF>
  </metadata>
  <defs
     id="defs16">
    <linearGradient
       id="linearGradient909"
       inkscape:collect="always">
      <stop
         id="stop905"
         offset="0"
         style="stop-color:#141414;stop-opacity:1" />
      <stop
         id="stop907"
         offset="1"
         style="stop-color:#3c3c3c;stop-opacity:1" />
    </linearGradient>
    <filter
       color-interpolation-filters="sRGB"
       height="1.1169"
       width="1.1232"
       y="-.058467"
       x="-.061616"
       id="filter904">
      <feGaussianBlur
         id="feGaussianBlur2"
         stdDeviation="0.97558723" />
    </filter>
    <linearGradient
       gradientUnits="userSpaceOnUse"
       gradientTransform="matrix(3.7795,0,0,3.7795,20.05446,-53.226022)"
       y2="1.852"
       y1="15.081"
       x2="7.9373"
       x1="7.9373"
       id="linearGradient862-3">
      <stop
         id="stop5"
         offset="0"
         stop-color="#1a1a1a" />
      <stop
         id="stop7"
         offset="1"
         stop-color="#4d4d4d" />
    </linearGradient>
    <linearGradient
       id="b"
       x1="520"
       x2="520.03"
       y1="44"
       y2="985.85"
       gradientTransform="matrix(0.06356,0,0,0.06356,-27.651928,-17.986299)"
       gradientUnits="userSpaceOnUse">
      <stop
         stop-color="#212427"
         offset="0"
         id="stop861" />
      <stop
         stop-color="#333132"
         offset="1"
         id="stop863" />
    </linearGradient>
    <linearGradient
       gradientTransform="translate(-75.845993,-43.099337)"
       id="a"
       x1="29.565"
       x2="29.728"
       y1="11.048"
       y2="53.559"
       gradientUnits="userSpaceOnUse">
      <stop
         stop-color="#e7e7e7"
         offset="0"
         id="stop866" />
      <stop
         stop-color="#fff"
         offset="1"
         id="stop868" />
    </linearGradient>
    <filter
       id="c"
       x="-.07966"
       y="-.048123"
       width="1.1593"
       height="1.0962"
       color-interpolation-filters="sRGB">
      <feGaussianBlur
         stdDeviation="0.79660366"
         id="feGaussianBlur871" />
    </filter>
    <radialGradient
       gradientUnits="userSpaceOnUse"
       r="27.5"
       fy="32"
       fx="32"
       cy="32"
       cx="32"
       id="radialGradient917"
       xlink:href="#linearGradient909"
       inkscape:collect="always"
       gradientTransform="translate(1.041748e-6)" />
  </defs>
  <sodipodi:namedview
     pagecolor="#ffffff"
     bordercolor="#666666"
     borderopacity="1"
     objecttolerance="10"
     gridtolerance="10"
     guidetolerance="10"
     inkscape:pageopacity="0"
     inkscape:pageshadow="2"
     inkscape:window-width="1920"
     inkscape:window-height="938"
     id="namedview14"
     showgrid="false"
     inkscape:zoom="8.5626212"
     inkscape:cx="39.99627"
     inkscape:cy="35.890269"
     inkscape:window-x="0"
     inkscape:window-y="38"
     inkscape:window-maximized="1"
     inkscape:current-layer="svg12" />
  <circle
     style="fill:#ffffff;fill-opacity:1;stroke-width:1.60483;stroke-linecap:round"
     id="circle913"
     cx="32"
     cy="32"
     r="30" />
  <circle
     r="27.5"
     cy="32"
     cx="32"
     id="path903"
     style="fill:url(#radialGradient917);fill-opacity:1;stroke-width:1.47109;stroke-linecap:round" />
  <path
     style="fill:#ffffff;fill-opacity:1"
     d="M 32,18 A 13,13 0 0 0 19,31 v 4.214844 A 5.5,5.5 0 0 0 15,40.5 5.5,5.5 0 0 0 20.5,46 5.5,5.5 0 0 0 23,45.392578 V 46 h 3 V 40.5 35 h -3 v 0.601562 A 5.5,5.5 0 0 0 22,35.210938 V 31 A 10,10 0 0 1 32,21 10,10 0 0 1 42,31 v 4.214844 A 5.5,5.5 0 0 0 38,40.5 5.5,5.5 0 0 0 43.5,46 5.5,5.5 0 0 0 49,40.5 5.5,5.5 0 0 0 45,35.210938 V 31 A 13,13 0 0 0 32,18 Z M 20.5,38 A 2.5,2.5 0 0 1 23,40.5 2.5,2.5 0 0 1 20.5,43 2.5,2.5 0 0 1 18,40.5 2.5,2.5 0 0 1 20.5,38 Z m 23,0 A 2.5,2.5 0 0 1 46,40.5 2.5,2.5 0 0 1 43.5,43 2.5,2.5 0 0 1 41,40.5 2.5,2.5 0 0 1 43.5,38 Z"
     id="path8" />
</svg>
