<?xml version="1.0" encoding="UTF-8" standalone="no"?>
<svg
   xmlns:dc="http://purl.org/dc/elements/1.1/"
   xmlns:cc="http://creativecommons.org/ns#"
   xmlns:rdf="http://www.w3.org/1999/02/22-rdf-syntax-ns#"
   xmlns:svg="http://www.w3.org/2000/svg"
   xmlns="http://www.w3.org/2000/svg"
   xmlns:xlink="http://www.w3.org/1999/xlink"
   xmlns:sodipodi="http://sodipodi.sourceforge.net/DTD/sodipodi-0.dtd"
   xmlns:inkscape="http://www.inkscape.org/namespaces/inkscape"
   width="64"
   height="64"
   version="1"
   id="svg20"
   sodipodi:docname="awgg.svg"
   inkscape:version="1.0.2 (e86c870879, 2021-01-15)">
  <metadata
     id="metadata26">
    <rdf:RDF>
      <cc:Work
         rdf:about="">
        <dc:format>image/svg+xml</dc:format>
        <dc:type
           rdf:resource="http://purl.org/dc/dcmitype/StillImage" />
        <dc:title></dc:title>
      </cc:Work>
    </rdf:RDF>
  </metadata>
  <defs
     id="defs24">
    <linearGradient
       inkscape:collect="always"
       id="linearGradient891">
      <stop
         style="stop-color:#f3747f;stop-opacity:0.99607843"
         offset="0"
         id="stop887" />
      <stop
         style="stop-color:#921652;stop-opacity:0.99607843"
         offset="1"
         id="stop889" />
    </linearGradient>
    <linearGradient
       inkscape:collect="always"
       id="linearGradient881">
      <stop
         style="stop-color:#268663;stop-opacity:0.98431373"
         offset="0"
         id="stop877" />
      <stop
         style="stop-color:#72de76;stop-opacity:0.99215686"
         offset="0.1786124"
         id="stop885" />
      <stop
         style="stop-color:#107440;stop-opacity:0.99607843"
         offset="1"
         id="stop879" />
    </linearGradient>
    <linearGradient
       inkscape:collect="always"
       id="linearGradient869">
      <stop
         style="stop-color:#8cb8fc;stop-opacity:0.99215686"
         offset="0"
         id="stop865" />
      <stop
         style="stop-color:#5178ec;stop-opacity:0.99607843"
         offset="0.4590126"
         id="stop873" />
      <stop
         style="stop-color:#2647c5;stop-opacity:0.99215686"
         offset="1"
         id="stop867" />
    </linearGradient>
    <radialGradient
       inkscape:collect="always"
       xlink:href="#linearGradient869"
       id="radialGradient875"
       cx="19.664129"
       cy="20.923248"
       fx="19.664129"
       fy="20.923248"
       r="28"
       gradientUnits="userSpaceOnUse" />
    <linearGradient
       inkscape:collect="always"
       xlink:href="#linearGradient881"
       id="linearGradient883"
       x1="4.0000005"
       y1="31.360156"
       x2="59.860812"
       y2="31.360156"
       gradientUnits="userSpaceOnUse" />
    <linearGradient
       inkscape:collect="always"
       xlink:href="#linearGradient891"
       id="linearGradient895"
       x1="31.6022"
       y1="26.61994"
       x2="31.6022"
       y2="60.038849"
       gradientUnits="userSpaceOnUse" />
  </defs>
  <sodipodi:namedview
     pagecolor="#ffffff"
     bordercolor="#666666"
     borderopacity="1"
     objecttolerance="10"
     gridtolerance="10"
     guidetolerance="10"
     inkscape:pageopacity="0"
     inkscape:pageshadow="2"
     inkscape:window-width="1920"
     inkscape:window-height="938"
     id="namedview22"
     showgrid="false"
     inkscape:zoom="4.2813106"
     inkscape:cx="-6.5645567"
     inkscape:cy="26.502724"
     inkscape:window-x="0"
     inkscape:window-y="38"
     inkscape:window-maximized="1"
     inkscape:current-layer="svg20" />
  <g
     id="g907"
     transform="matrix(1.0714286,0,0,1.0714286,-2.2857152,-2.2857152)">
    <rect
       style="fill:url(#radialGradient875);fill-opacity:1"
       width="56"
       height="56"
       x="4"
       y="4"
       rx="28"
       ry="28"
       id="rect4" />
    <path
       style="fill:url(#linearGradient883);fill-opacity:1"
       d="m 32.144962,5.4000378 c -2.159468,0.1531274 -4.271975,0.5495666 -6.332105,1.2173872 -0.734986,0.028682 -2.332319,0.9752922 -1.043541,1.4195936 0.599757,0.6407432 2.031555,0.8446245 1.857684,1.8915601 0.231296,0.9202653 -2.138987,0.8785093 -1.35008,1.7120083 0.559401,0.736219 1.118803,1.472437 1.678204,2.208657 1.032964,-0.331769 1.373794,-1.389662 1.946872,-2.203903 1.595161,-0.703577 3.852845,-0.916145 4.907026,-2.2701265 C 34.13936,8.4174728 34.469696,7.4597311 34.800034,6.5019894 33.91501,6.1346722 33.029986,5.767355 32.144962,5.4000378 Z m -7.678114,0.2460933 c -0.989382,-0.106747 -1.622318,0.5013271 -2.36087,0.8999628 -0.909085,0.1113391 -1.936211,0.4496731 -2.509046,1.1808937 1.019761,0.4627842 1.661957,-0.030439 2.542209,-0.3798938 0.817271,-0.4187039 3.596981,-0.5933933 2.327707,-1.7009627 z m -6.384757,2.9367147 c -0.508688,0.7764566 0.357296,1.9002532 -0.80633,2.3077422 -0.574387,0.727111 -1.076344,1.920605 0.359312,1.487565 0.351203,-1.077425 1.442222,-2.5888243 2.683792,-1.957789 1.2506,0.336002 2.407978,2.437487 3.429039,0.772977 C 23.747492,10.760463 22.15963,10.507174 22.195109,9.448075 21.488539,9.1449511 19.97815,9.6958139 20.03094,8.5942006 19.010143,8.1409442 18.716195,10.399426 18.354424,9.13714 18.263648,8.9523752 18.172868,8.7676105 18.082091,8.5828458 Z m 27.710115,0.9789047 c -1.208191,0.2415974 -2.401514,0.5175745 -3.355072,1.3480455 0.276772,1.106514 -1.150813,1.292733 -1.785715,1.906973 -0.460686,0.259959 0.0084,2.268062 0.411999,1.9564 0.858246,-1.13228 1.302155,-0.155557 2.100033,0.403585 0.71808,0.666961 1.174072,-1.238532 0.792625,-1.775649 -0.223797,-0.865693 0.864948,-1.506122 1.25675,-2.215108 1.197802,-0.768355 0.185681,0.980262 0.147351,1.590795 -0.604644,1.804104 2.681947,0.05436 0.515525,1.402618 -0.581105,0.58032 -0.793885,1.439997 -1.686791,1.86888 -0.482133,0.588485 -2.322254,0.312618 -2.074431,-0.60533 -0.671966,-1.053174 -0.5061,1.267597 -0.734388,1.256462 -1.113613,-0.331863 -1.445052,0.911205 -2.143471,1.505947 -0.53448,0.614056 -2.421323,0.233024 -1.01262,1.184201 1.02742,1.185538 -0.204758,0.966271 -1.054687,1.282066 -1.201092,0.206841 -1.0003,1.252945 -0.969282,2.19741 0.01851,0.520532 1.171283,1.292805 1.755025,0.929719 1.166082,-0.124908 0.871875,-1.555946 1.733407,-1.992373 0.715825,-0.61275 1.218206,-1.177893 2.293024,-1.192563 0.496233,0.473571 1.499238,1.185559 1.905955,1.572708 -1.122477,1.223022 0.515572,1.123394 0.672267,0.0092 0.553702,-0.613591 -1.823786,-2.057413 -0.255973,-1.423032 1.037813,0.342352 0.799122,1.402543 1.260845,2.118245 0.820734,1.387416 0.908624,0.352102 0.985049,-0.721122 1.363626,-0.428356 1.733159,2.37449 3.571088,1.717184 1.377419,0.361925 0.724679,1.252588 -0.145019,1.827706 -0.794286,0.579297 -1.978642,0.182226 -2.850399,-0.132244 -0.8624,-0.442775 -1.901755,-0.188912 -2.355745,0.691652 -1.007846,-0.869764 -1.72121,-2.251458 -3.185344,-2.328002 -1.386291,-0.07181 -2.785774,0.296791 -4.12363,0.673709 -1.482336,1.73962 -3.086033,3.433922 -3.77671,5.657446 -0.716934,0.881041 0.818709,1.408829 -0.348568,2.210681 -0.812664,0.758775 0.276767,1.695999 0.444974,2.546796 0.874558,1.037141 2.215384,4.448574 3.565962,3.128968 0.760085,-1.200938 1.264083,0.786646 2.157894,-0.460625 0.752273,-0.686638 1.361569,0.689953 2.416473,0.200308 0.938129,0.467612 1.019692,1.384258 0.523976,2.261358 -0.318334,0.890572 1.379113,1.256728 0.896137,2.296403 -0.227673,1.016685 0.218333,1.879742 0.723371,2.729338 -1.12258,1.171818 -0.987294,2.907573 -0.707044,4.375915 0.549263,2.013008 1.335853,4.031829 1.257295,6.151413 0.983599,0.258009 1.70921,-0.393472 2.522589,-0.735545 1.552531,0.219622 2.397054,-1.436997 3.361121,-2.387106 -0.724219,-0.973522 0.594952,-1.393693 1.140233,-2.023435 -0.815663,-0.705543 -1.356117,-1.390507 -0.09334,-1.940638 0.582511,-0.591628 1.673769,-0.926118 1.865111,-1.751428 -0.501627,-1.494871 -0.215956,-3.083048 -0.289734,-4.628625 0.618464,-1.246489 1.275104,-2.466452 2.302333,-3.428901 0.409667,-1.3517 1.394311,-2.590599 1.298826,-4.041401 -2.394396,0.716356 -1.671401,-0.30429 -0.344515,-1.27455 0.920834,-0.675334 2.23008,-1.305264 2.510137,-2.456711 0.200957,-1.136406 -0.687157,-2.900917 -1.459809,-1.231236 -0.375338,-0.532092 -1.697545,-1.025517 -1.679249,-1.860759 -0.283155,-1.684395 0.455483,-0.672683 1.112154,0.122752 1.527361,-1.132232 3.52076,3.124902 2.876074,0.08722 -0.87329,-6.574062 -4.206728,-12.785073 -9.199934,-17.148341 -0.456597,0.486228 -1.218601,2.298974 -1.77151,1.252665 -0.782762,-0.830377 -1.397086,-1.580075 0.197357,-1.271805 1.562621,-0.424041 0.0062,-0.670635 -0.813124,-0.767346 -0.821453,-0.09591 -1.583245,-0.396767 -2.356858,-0.6709335 z m -30.58394,0.041016 c -1.033745,0.3981715 0.514796,1.9162735 -1.338618,1.4301455 -2.031999,0.920747 -3.385576,3.15527 -4.7978691,4.895199 -3.2943659,4.655698 -5.0854748,10.345204 -5.0716995,16.04728 0.5405521,1.115718 1.8719121,1.493795 2.8679564,2.109742 1.012282,0.346315 2.2871126,0.293991 2.790926,1.412333 0.5634792,0.590059 1.3195242,1.381378 2.1245532,1.445346 1.237034,-0.396401 1.411467,0.725207 0.78739,1.554968 -0.06756,0.908827 -1.07914,1.641804 -0.9664,2.441089 0.225376,0.89561 -1.126734,1.882044 -0.215884,2.701442 0.958267,1.713125 1.983802,3.376758 3.279729,4.856448 0.806056,0.706194 0.710468,1.678481 0.61846,2.649711 -0.319876,1.026436 0.650316,1.620274 1.171068,2.364824 -1.268975,2.326571 2.168114,2.791628 3.606634,3.80898 0.723228,-0.661374 0.780716,-1.731842 1.980549,-1.761636 0.727572,-0.50976 0.882909,-1.660427 1.382602,-2.425412 -0.01599,-0.812623 -0.536407,-1.572059 0.308444,-2.457074 0.636584,-0.537299 1.9502,-0.179019 2.187182,-1.300704 0.86473,-0.890725 0.165039,-2.125206 0.165043,-3.20594 0.671714,-0.920118 1.830503,-1.626405 1.701968,-2.897837 0.145512,-1.896299 -3.268505,-1.811045 -4.471529,-2.960765 -1.47871,-0.04249 -1.179639,-2.057349 -2.330724,-2.325069 -1.14281,0.05744 -1.558296,-0.837892 -1.96336,-1.746877 -0.629421,-0.429265 -1.814053,0.443123 -2.472668,-0.09488 -0.746011,-0.393017 -1.415252,-1.859021 -2.254932,-0.942868 -1.105202,0.801314 -2.192033,1.615359 -3.240469,0.27376 -0.679922,-0.612701 0.174359,-2.351899 -0.78832,-2.242361 C 8.213169,33.975953 10.91963,30.24751 8.9957754,30.742188 8.5401315,31.456382 7.6661543,32.5584 6.816333,31.713242 5.9629325,31.311708 6.3839117,30.006043 6.4219644,29.224155 c 0.03688,-0.914609 1.1943815,-1.370641 1.8595621,-1.787821 1.2901277,0.577003 1.0253482,-1.142464 2.1035975,-0.567699 1.04597,-0.222753 1.518247,1.4552 1.942934,1.51771 0.249574,-0.826626 -0.200985,-2.034766 0.56616,-2.57936 0.896353,-0.754484 2.079343,-1.291114 2.300612,-2.55869 0.01833,-1.354209 1.661645,-0.21297 2.069577,-1.135087 0.376106,-1.056662 1.473107,-0.990637 2.399722,-1.18996 0.506841,-0.470267 1.780736,-1.918724 0.206973,-1.494049 -0.573194,-0.0775 -2.880741,0.229697 -1.313824,-0.322493 0.771833,-0.58428 1.707323,-0.503258 2.573783,-0.618053 0.682354,-0.577697 1.875206,-0.771202 1.927585,-1.823006 -0.566325,-0.770232 -1.766004,-0.623618 -1.25672,-1.728319 -0.04922,-1.445071 -1.321983,-0.517347 -1.740091,-0.627282 0.679079,-0.944976 -0.883012,-1.539982 -1.407271,-1.553288 -0.356326,0.89056 -1.358132,1.658881 -1.004507,2.68389 -1.044488,0.169635 -1.533811,0.925636 -1.847759,1.866868 -0.313152,0.10913 -0.211334,-1.845936 -1.409879,-1.665815 -0.846597,-0.02006 -1.893209,-1.283742 -1.001847,-1.781201 1.222003,-0.773171 2.741357,-1.378343 3.514118,-2.613322 0.444356,-1.106066 -0.375124,-1.7850099 -1.466395,-1.6279024 l -0.152154,-0.01092 z m 20.560016,1.2735605 c -0.67444,0.524672 -2.035951,0.162279 -2.323432,0.66818 -0.120932,1.020287 1.463355,1.004335 2.096125,0.441069 1.034097,-0.382344 0.988036,-0.312556 0.227307,-1.109249 z m -14.981899,0.522921 c -1.433305,0.421709 -0.262012,1.360548 0.673655,1.348045 1.116331,-0.09002 0.0777,-1.339971 -0.673655,-1.348045 z m 17.092555,2.816402 c -0.102494,0.913034 0.77453,1.483131 0.412286,2.477831 -0.570376,1.252972 0.237566,1.629241 1.212331,0.859069 1.301798,-0.796503 -0.975531,-2.541378 -1.278931,-3.3369 -0.115234,0 -0.230458,0 -0.345686,0 z m -0.429297,1.468357 c -1.169836,-0.28758 -0.799745,2.160767 0.0041,1.317907 0.865619,-0.151088 0.03444,-0.818116 -0.0041,-1.317907 z m -14.929666,2.206638 c 0.171753,0.928481 0.233496,2.40042 0.913253,0.819347 -9.54e-4,-0.307312 -0.671591,-0.547633 -0.913253,-0.819347 z m 28.248788,9.545689 c 1.374952,1.198909 1.931962,2.935135 2.707027,4.528118 1.153243,0.60546 0.470556,1.531483 0.631196,2.30959 1.60569,1.40577 -1.626061,0.657047 -1.2339,-0.876671 -0.262034,-1.781371 -1.406172,-2.970426 -2.340587,-4.258677 -0.07347,-0.681928 -0.804989,-1.459749 0.236264,-1.70236 z"
       id="path8" />
    <path
       id="rect12"
       style="fill:url(#linearGradient895);fill-opacity:1"
       d="m 29,26 c -1.662,0 -3,1.304486 -3,2.923828 V 42 h -4.978516 a 2.0255359,1.5811186 0 0 0 -1.751953,2.369141 l 10.97461,14.841797 a 2.0255359,1.5811186 0 0 0 3.505859,0 L 44.730469,44.369141 A 2.0255359,1.5811186 0 0 0 42.974609,42 H 38 V 28.923828 C 38,27.304486 36.662,26 35,26 Z" />
  </g>
</svg>
