<?xml version="1.0" encoding="UTF-8" standalone="no"?>
<svg
   width="64"
   height="64"
   viewBox="0 0 16.933 16.933"
   version="1.1"
   id="svg15"
   sodipodi:docname="bcloud.svg"
   inkscape:version="1.3 (0e150ed6c4, 2023-07-21)"
   xmlns:inkscape="http://www.inkscape.org/namespaces/inkscape"
   xmlns:sodipodi="http://sodipodi.sourceforge.net/DTD/sodipodi-0.dtd"
   xmlns="http://www.w3.org/2000/svg"
   xmlns:svg="http://www.w3.org/2000/svg">
  <sodipodi:namedview
     id="namedview15"
     pagecolor="#ffffff"
     bordercolor="#000000"
     borderopacity="0.25"
     inkscape:showpageshadow="2"
     inkscape:pageopacity="0.0"
     inkscape:pagecheckerboard="0"
     inkscape:deskcolor="#d1d1d1"
     inkscape:zoom="12.3125"
     inkscape:cx="28.304569"
     inkscape:cy="39.472081"
     inkscape:window-width="1920"
     inkscape:window-height="995"
     inkscape:window-x="0"
     inkscape:window-y="0"
     inkscape:window-maximized="1"
     inkscape:current-layer="svg15" />
  <defs
     id="defs2">
    <filter
       id="a"
       color-interpolation-filters="sRGB"
       x="-1.4942099"
       y="-1.222743"
       width="3.9884199"
       height="3.445486">
      <feColorMatrix
         result="result7"
         values="1 0 0 0 0 0 1 0 0 0 0 0 1 0 0 0 0 0 1 0"
         id="feColorMatrix1" />
      <feGaussianBlur
         result="result6"
         stdDeviation="5"
         id="feGaussianBlur1" />
      <feComposite
         in="result6"
         in2="result7"
         operator="atop"
         result="result91"
         id="feComposite1" />
      <feComposite
         in2="result91"
         operator="in"
         id="feComposite2" />
    </filter>
    <linearGradient
       id="linearGradient1005"
       x1="0.73910999"
       x2="16.388"
       y1="16.296"
       y2="0.64687002"
       gradientTransform="matrix(0.99997,0,0,0.99997,-0.035515,0.00667786)"
       gradientUnits="userSpaceOnUse">
      <stop
         stop-color="#00a0ff"
         offset="0"
         id="stop1" />
      <stop
         stop-color="#37beff"
         offset="1"
         id="stop2" />
    </linearGradient>
  </defs>
  <path
     d="m 16.403625,8.46642 c 0,0.95152 -0.16749,1.8638 -0.47463,2.7094 -0.2135,0.58767 -0.49437,1.1433 -0.8339,1.6572 -0.14222,0.21608 -0.29513,0.42474 -0.45745,0.62527 -0.51964,0.64178 -1.1372,1.2006 -1.8304,1.6542 -0.25529,0.16717 -0.52063,0.32009 -0.79534,0.45711 -1.0668,0.53388 -2.271,0.83419 -3.5455,0.83419 -1.2745,0 -2.4787,-0.30031 -3.5455,-0.83421 -0.27473,-0.13705 -0.54039,-0.28996 -0.79568,-0.45711 -0.70205,-0.45972 -1.327,-1.0274 -1.8508,-1.6798 -0.16262,-0.20216 -0.31523,-0.41274 -0.45745,-0.63076 -0.33046,-0.50538 -0.6042,-1.0507 -0.81347,-1.627 -0.3071,-0.84526 -0.47429,-1.7572 -0.47429,-2.7084 0,-4.3837 3.5536,-7.93729995 7.9373,-7.93729995 2.2005,0 4.1916,0.89544995 5.6294,2.34159995 0.41434,0.4166 0.78272,0.87927 1.0962,1.3794 0.29644,0.47106 0.54426,0.97579 0.73702,1.5068 0.30718,0.84557 0.47465,1.7579 0.47465,2.7094 z"
     fill="url(#linearGradient1005)"
     stroke-width="0.031006"
     id="path2"
     style="fill:url(#linearGradient1005);stroke-width:0.0309556;stroke-dasharray:none" />
  <g
     id="g15"
     transform="translate(-23.809042,0.57193349)">
    <g
       fill="#ffffff"
       paint-order="stroke markers fill"
       id="g11"
       transform="translate(23.764542,-280.07)">
      <circle
         cx="11.906"
         cy="287.57999"
         r="1.3890001"
         opacity="0.25"
         id="circle3" />
      <circle
         cx="11.906"
         cy="287.57999"
         r="1.3890001"
         opacity="0.25"
         id="circle4" />
      <circle
         cx="8.8190002"
         cy="287.73999"
         r="3.0869999"
         id="circle5" />
      <circle
         cx="8.7309999"
         cy="288.26999"
         r="2.6459999"
         id="circle6" />
      <circle
         cx="5.4239998"
         cy="288.97"
         r="2.4690001"
         id="circle7" />
      <circle
         cx="5.8210001"
         cy="289.32999"
         r="2.1170001"
         id="circle8" />
      <circle
         cx="12.215"
         cy="289.59"
         r="1.852"
         id="circle9" />
      <circle
         cx="11.642"
         cy="289.85999"
         r="1.587"
         id="circle10" />
      <path
         d="m 5.424,288.05 h 6.791 v 3.395 H 5.424 Z"
         id="path10" />
      <path
         d="m 5.821,288.53 h 5.821 v 2.91 H 5.821 Z"
         id="path11" />
    </g>
    <path
       id="path12"
       d="M 32.239369 6.4042475 A 1.426 1.426 0 0 0 30.819846 7.9508927 A 1.426 1.426 0 0 0 30.597641 7.9302225 A 1.426 1.426 0 0 0 30.597641 10.782189 A 1.426 1.426 0 0 0 31.480257 10.468519 L 31.489559 10.469036 L 31.532966 10.428729 A 1.426 1.426 0 0 0 31.584642 10.380671 L 33.183996 8.8955193 A 1.426 1.426 0 0 0 33.23102 8.8515952 L 33.269777 8.8159392 L 33.267193 8.8128386 A 1.426 1.426 0 0 0 33.294581 8.7833836 L 33.298715 8.7880344 A 0.851 0.851 0 0 1 33.406717 8.6981192 A 0.716 0.716 0 0 1 33.76276 8.5709977 C 33.80676 8.5669977 33.852284 8.5689977 33.902284 8.5709977 A 0.751 0.751 0 0 1 34.565796 9.0040377 A 0.829 0.829 0 0 1 34.650544 9.4060724 L 34.650544 9.4081394 A 0.313 0.313 0 0 0 35.2753 9.4081394 L 35.2753 9.3569808 A 0.893 0.893 0 0 0 35.271683 9.2841184 L 35.270649 9.2737833 L 35.269616 9.2489791 L 35.268582 9.2489791 A 1.421 1.421 0 0 0 33.852676 7.9338398 L 33.851642 7.9338398 C 33.786106 7.9338878 33.72227 7.9405394 33.65941 7.9493424 A 1.426 1.426 0 0 0 32.239369 6.4042475 z M 32.24557 7.0300368 A 0.805 0.805 0 0 1 33.050673 7.8351398 A 0.805 0.805 0 0 1 32.83622 8.3772149 L 32.75509 8.4531777 A 0.805 0.805 0 0 1 32.24557 8.6402427 A 0.805 0.805 0 0 1 31.440467 7.8351398 A 0.805 0.805 0 0 1 32.24557 7.0300368 z M 30.603326 8.5560118 A 0.805 0.805 0 0 1 31.407395 9.3611148 A 0.805 0.805 0 0 1 31.214129 9.8830365 L 31.077706 10.010158 A 0.805 0.805 0 0 1 30.603326 10.166218 A 0.805 0.805 0 0 1 29.798739 9.3611148 A 0.805 0.805 0 0 1 30.603326 8.5560118 z M 34.977649 9.9341951 A 0.30599999 0.30599999 0 0 0 34.671731 10.240114 A 0.30599999 0.30599999 0 0 0 34.977649 10.546032 A 0.30599999 0.30599999 0 0 0 35.283568 10.240114 A 0.30599999 0.30599999 0 0 0 34.977649 9.9341951 z "
       style="fill:#25b4ff;fill-opacity:1" />
    <path
       fill="#ff4444"
       d="m 6.973,7.471 c -0.365,0 -0.744,0.04 -1.094,0.094 a 2.842,2.842 0 0 1 1.719,2.594 c 0,0.16 -0.036,0.316 -0.063,0.469 a 3.839,3.839 0 0 1 2.938,2.063 c 0.791,1.577 0.522,3.357 -0.719,4.594 0.962,-0.959 2.934,-2.702 4.156,-3.844 C 13.398,10.066 10.501,7.472 6.972,7.472 Z"
       filter="url(#a)"
       transform="matrix(0.20374,0,0,0.20374,29.171542,6.4)"
       id="path14" />
  </g>
</svg>
