<?xml version="1.0" encoding="UTF-8" standalone="no"?>
<svg
   xml:space="preserve"
   width="64"
   height="64"
   version="1.1"
   id="svg4"
   sodipodi:docname="beamng-drive.svg"
   inkscape:version="1.4 (e7c3feb100, 2024-10-09)"
   xmlns:inkscape="http://www.inkscape.org/namespaces/inkscape"
   xmlns:sodipodi="http://sodipodi.sourceforge.net/DTD/sodipodi-0.dtd"
   xmlns="http://www.w3.org/2000/svg"
   xmlns:svg="http://www.w3.org/2000/svg"><sodipodi:namedview
     id="namedview4"
     pagecolor="#505050"
     bordercolor="#eeeeee"
     borderopacity="1"
     inkscape:showpageshadow="0"
     inkscape:pageopacity="0"
     inkscape:pagecheckerboard="0"
     inkscape:deskcolor="#505050"
     inkscape:zoom="6.046875"
     inkscape:cx="37.209302"
     inkscape:cy="43.328165"
     inkscape:window-width="2560"
     inkscape:window-height="1408"
     inkscape:window-x="0"
     inkscape:window-y="0"
     inkscape:window-maximized="1"
     inkscape:current-layer="svg4" /><defs
     id="defs2"><linearGradient
       id="a"
       x1="7.937"
       x2="7.937"
       y1="15.081"
       y2="1.852"
       gradientTransform="scale(3.7796)"
       gradientUnits="userSpaceOnUse"><stop
         offset="0"
         stop-color="#363636"
         id="stop1" /><stop
         offset="1"
         stop-color="#6c6c6c"
         id="stop2" /></linearGradient><filter
       id="b"
       width="1.2824188"
       height="1.3065223"
       x="-0.14120942"
       y="-0.15326116"
       style="color-interpolation-filters:sRGB"><feGaussianBlur
         stdDeviation="2.657"
         id="feGaussianBlur2" /></filter></defs><g
     id="g4"
     transform="matrix(1.2400776,0,0,1.2400776,-7.6926908,-7.4960368)"><path
       d="m 44.362,52.49 c -2.46,-0.62 -4.59,-2.398 -5.62,-4.69 -0.515,-1.15 -0.676,-1.964 -0.674,-3.4 0.002,-1.054 0.041,-1.432 0.208,-2.026 0.66,-2.343 2.082,-4.136 4.177,-5.267 3.047,-1.645 6.966,-1.12 9.516,1.275 2.3,2.16 3.163,5.357 2.276,8.422 -0.296,1.021 -0.747,1.875 -1.483,2.806 a 8.3,8.3 0 0 1 -3.92,2.715 c -0.815,0.27 -0.999,0.295 -2.319,0.321 -1.19,0.023 -1.558,-0.003 -2.16,-0.155 M 19.235,42.212 C 15.463,41.954 12.121,39.654 10.451,36.167 9.755,34.716 9.429,33.248 9.429,31.57 c 0,-5.042 3.488,-9.3 8.557,-10.445 0.87,-0.196 3.429,-0.17 4.347,0.045 3.98,0.93 7.021,3.838 8.073,7.717 0.224,0.826 0.244,1.042 0.244,2.701 0,1.671 -0.019,1.872 -0.25,2.73 -0.496,1.83 -1.763,3.936 -3.086,5.127 -2.233,2.01 -5.05,2.975 -8.08,2.767 m 26.253,-7.634 c 0.067,-0.027 0.147,-0.024 0.177,0.007 0.031,0.03 -0.023,0.053 -0.121,0.049 -0.108,-0.005 -0.13,-0.027 -0.056,-0.056 m -2.658,-0.73 c 0.005,-0.109 0.027,-0.13 0.056,-0.057 0.027,0.067 0.024,0.147 -0.007,0.177 -0.031,0.031 -0.053,-0.023 -0.049,-0.12 m 5.18,-0.463 c 0.005,-0.108 0.027,-0.13 0.056,-0.056 0.027,0.066 0.024,0.146 -0.007,0.177 -0.03,0.03 -0.053,-0.024 -0.049,-0.121 m -0.185,-1.48 c 0.005,-0.108 0.027,-0.13 0.056,-0.056 0.027,0.066 0.024,0.146 -0.007,0.177 -0.03,0.03 -0.053,-0.024 -0.049,-0.122 m -5.365,-0.926 c 0.005,-0.107 0.027,-0.13 0.056,-0.055 0.027,0.066 0.023,0.146 -0.007,0.177 -0.031,0.03 -0.053,-0.024 -0.049,-0.122 m 5.18,-0.555 c 0.005,-0.107 0.027,-0.13 0.056,-0.055 0.027,0.066 0.024,0.146 -0.007,0.177 -0.03,0.03 -0.053,-0.024 -0.049,-0.122 m -0.185,-1.387 c 0.005,-0.108 0.027,-0.13 0.056,-0.056 0.027,0.067 0.024,0.147 -0.007,0.177 -0.03,0.031 -0.053,-0.024 -0.049,-0.121 m -0.37,-2.96 c 0.005,-0.108 0.027,-0.13 0.056,-0.056 0.027,0.067 0.024,0.146 -0.007,0.177 -0.03,0.03 -0.053,-0.024 -0.049,-0.121 m -4.933,-2.135 a 0.36,0.36 0 0 1 0.231,0 c 0.064,0.026 0.012,0.047 -0.115,0.047 -0.127,0 -0.18,-0.021 -0.116,-0.047 m -0.578,-1.572 c -2.258,-0.356 -4.015,-1.78 -4.738,-3.842 -0.31,-0.884 -0.351,-2.491 -0.087,-3.359 0.506,-1.656 1.513,-2.86 2.975,-3.558 0.96,-0.457 1.432,-0.563 2.525,-0.564 1.645,-0.002 2.787,0.466 3.96,1.624 1.164,1.15 1.698,2.391 1.7,3.95 0.002,1.063 -0.123,1.624 -0.574,2.572 -0.303,0.64 -0.514,0.925 -1.125,1.526 -0.808,0.796 -1.533,1.225 -2.492,1.473 -0.593,0.154 -1.71,0.246 -2.144,0.178"
       style="fill:#fd6500"
       id="path3" /><path
       d="m 33.153,41.247 c -1.83,-0.894 -3.363,-1.661 -3.408,-1.705 -0.046,-0.044 0.06,-0.252 0.244,-0.478 0.54,-0.663 1.182,-1.799 1.608,-2.84 0.22,-0.54 0.402,-1.035 0.402,-1.098 0,-0.063 0.04,-0.116 0.086,-0.116 0.047,0 1.452,0.67 3.122,1.488 a 192,192 0 0 0 3.25,1.572 c 0.213,0.084 0.212,0.086 -0.197,0.663 -0.741,1.044 -1.468,2.736 -1.605,3.736 -0.03,0.222 -0.082,0.404 -0.115,0.404 -0.033,0 -1.557,-0.732 -3.387,-1.626 m 9.852,-6.3 c -0.002,-0.093 -0.043,-0.46 -0.09,-0.816 A 480,480 0 0 1 42.551,31.31 c -0.151,-1.196 -0.422,-3.319 -0.602,-4.718 -0.18,-1.399 -0.327,-2.58 -0.328,-2.623 0,-0.044 0.135,-0.06 0.3,-0.033 0.455,0.071 1.8,-0.098 2.465,-0.311 a 8.8,8.8 0 0 0 1.925,-0.921 l 0.298,-0.196 0.046,0.215 c 0.07,0.319 0.203,1.313 0.558,4.147 0.175,1.399 0.468,3.724 0.652,5.167 0.184,1.443 0.321,2.634 0.306,2.648 -0.015,0.014 -0.3,-0.014 -0.63,-0.063 -1.142,-0.17 -3.018,0.02 -4.371,0.443 -0.113,0.035 -0.163,-10e-4 -0.165,-0.118 M 30.933,25.55 c -0.616,-1.062 -1.068,-1.658 -1.927,-2.544 -0.637,-0.656 -0.723,-0.782 -0.609,-0.888 0.074,-0.068 1.3,-0.908 2.724,-1.867 a 587,587 0 0 0 3.23,-2.184 l 0.641,-0.442 0.205,0.812 a 8.6,8.6 0 0 0 0.534,1.465 c 0.342,0.679 1.317,1.981 1.606,2.145 0.148,0.084 0.151,0.11 0.028,0.227 -0.116,0.11 -5.567,3.794 -5.885,3.978 -0.063,0.036 -0.279,-0.24 -0.547,-0.702"
       style="fill:#020202"
       id="path4" /></g></svg>
