<?xml version="1.0" encoding="UTF-8" standalone="no"?>
<svg
   width="64"
   height="64"
   version="1.1"
   id="svg8"
   sodipodi:docname="beaver-notes.svg"
   xml:space="preserve"
   inkscape:version="1.4 (e7c3feb100, 2024-10-09)"
   xmlns:inkscape="http://www.inkscape.org/namespaces/inkscape"
   xmlns:sodipodi="http://sodipodi.sourceforge.net/DTD/sodipodi-0.dtd"
   xmlns:xlink="http://www.w3.org/1999/xlink"
   xmlns="http://www.w3.org/2000/svg"
   xmlns:svg="http://www.w3.org/2000/svg"><sodipodi:namedview
     id="namedview8"
     pagecolor="#505050"
     bordercolor="#eeeeee"
     borderopacity="1"
     inkscape:showpageshadow="0"
     inkscape:pageopacity="0"
     inkscape:pagecheckerboard="0"
     inkscape:deskcolor="#505050"
     inkscape:zoom="5.6568543"
     inkscape:cx="-12.904699"
     inkscape:cy="23.334524"
     inkscape:window-width="2560"
     inkscape:window-height="1408"
     inkscape:window-x="0"
     inkscape:window-y="0"
     inkscape:window-maximized="1"
     inkscape:current-layer="svg8" /><defs
     id="defs4"><linearGradient
       id="linearGradient25"
       inkscape:collect="always"><stop
         style="stop-color:#fae5ba;stop-opacity:1"
         offset="0"
         id="stop26" /><stop
         style="stop-color:#f6ebcf;stop-opacity:1"
         offset="1"
         id="stop27" /></linearGradient><linearGradient
       id="a"><stop
         offset="0"
         style="stop-color:#d98b00;stop-opacity:1"
         id="stop1" /><stop
         offset="1"
         style="stop-color:#ffa510;stop-opacity:1"
         id="stop2" /></linearGradient><linearGradient
       id="b"
       x1="7.937"
       x2="7.937"
       y1="15.081"
       y2="1.852"
       gradientTransform="matrix(3.7796,0,0,3.7796,17.601828,-71.842655)"
       gradientUnits="userSpaceOnUse"><stop
         offset="0"
         stop-color="#f1efeb"
         style="stop-color:#f7c56f;stop-opacity:1"
         id="stop3" /><stop
         offset="1"
         stop-color="#fdfcfc"
         style="stop-color:#fff4e4;stop-opacity:1"
         id="stop4" /></linearGradient><linearGradient
       xlink:href="#a"
       id="c"
       x1="7"
       x2="504"
       y1="316.116"
       y2="316.116"
       gradientUnits="userSpaceOnUse"
       gradientTransform="matrix(0.10484895,0,0,0.10484895,5.1561273,4.3283467)" /><linearGradient
       inkscape:collect="always"
       xlink:href="#linearGradient25"
       id="linearGradient23"
       x1="31.892611"
       y1="58"
       x2="31.892611"
       y2="6"
       gradientUnits="userSpaceOnUse" /></defs><rect
     width="56.001999"
     height="56.001999"
     x="3.9990005"
     y="3.9990005"
     fill="url(#b)"
     rx="7.0009995"
     ry="7.0009995"
     style="fill:#ffffff;fill-opacity:1"
     id="rect8" /><rect
     width="52"
     height="52"
     x="6"
     y="6"
     fill="url(#b)"
     rx="5.0010023"
     ry="5.0010023"
     style="fill:url(#linearGradient23);fill-opacity:1;stroke-width:1.08066"
     id="rect9" /><rect
     width="35.078999"
     height="15.861"
     x="18.179981"
     y="39.243839"
     rx="0"
     ry="15.861"
     style="fill:#f9e5b7;fill-opacity:1;stroke-width:3.3455;stroke-linecap:round;stroke-linejoin:round"
     id="rect5" /><rect
     width="22.174988"
     height="4.4990363"
     x="24.631987"
     y="50.605804"
     rx="0"
     ry="4.4990363"
     style="fill:#ffffff;fill-opacity:1;stroke-width:1.41657;stroke-linecap:round;stroke-linejoin:round"
     id="rect6" /><path
     d="m 35.719596,47.746507 c -1.212054,-0.310144 -1.932995,-1.238371 -1.937399,-2.494881 -0.0035,-0.968175 0.01594,-0.975829 2.477371,-0.975829 h 2.013624 l 0.228466,0.288334 c 0.414888,0.523616 0.161048,1.74626 -0.51355,2.473597 -0.538609,0.580653 -1.542957,0.894361 -2.268512,0.708779 M 25.365762,43.472444 c 0.07214,-0.02915 0.190092,-0.02915 0.262123,0 0.07214,0.02904 0.01311,0.05284 -0.131061,0.05284 -0.144168,0 -0.203093,-0.0238 -0.131062,-0.05284 m 17.726078,-0.0022 c 0.0756,-0.0303 0.166081,-0.02653 0.200891,0.0083 0.03481,0.03481 -0.02705,0.05955 -0.137562,0.05505 -0.122149,-0.005 -0.146998,-0.02988 -0.06333,-0.06333 m -18.966021,-0.636118 -0.254154,-0.288335 0.288334,0.254154 c 0.269462,0.237588 0.336461,0.322515 0.254154,0.322515 -0.01877,0 -0.148466,-0.129698 -0.288334,-0.288334 m 2.576768,0.07864 c 0.104324,-0.115334 0.213367,-0.209698 0.242201,-0.209698 0.02883,0 -0.03303,0.09436 -0.137353,0.209698 -0.104324,0.115334 -0.213367,0.209698 -0.242201,0.209698 -0.02883,0 0.03303,-0.09436 0.137353,-0.209698 m 0.530955,-0.764663 c 0.03942,-0.103381 0.09803,-0.161572 0.130327,-0.129279 0.03229,0.03229 0,0.116802 -0.07161,0.187994 -0.103591,0.102752 -0.115544,0.0907 -0.05871,-0.05871 M 23.329386,40.44881 c 4.2e-4,-0.403668 0.0194,-0.555909 0.04215,-0.338452 0.02265,0.217561 0.02233,0.547835 -8.38e-4,0.733942 -0.02317,0.186107 -0.04173,0.0082 -0.04131,-0.39549 m 4.297968,0.05242 c 0,-0.374835 0.01908,-0.528124 0.04225,-0.340759 0.02328,0.18747 0.02328,0.494153 0,0.681519 -0.02317,0.187469 -0.04225,0.03408 -0.04225,-0.34076 m 13.312252,-0.05242 c 8.39e-4,-0.288335 0.02118,-0.393813 0.0453,-0.234442 0.02412,0.15937 0.02338,0.39528 -0.0015,0.524244 -0.02485,0.128965 -0.04456,-0.0015 -0.04383,-0.289802 m 4.402188,0.05242 c 0,-0.259501 0.02045,-0.365608 0.0455,-0.23591 0.02495,0.129803 0.02495,0.342122 0,0.471821 -0.02506,0.129803 -0.0455,0.02359 -0.0455,-0.235911 M 24.028938,38.154925 c 0,-0.0217 0.08262,-0.104325 0.183486,-0.183486 0.16629,-0.130327 0.16996,-0.126658 0.03963,0.03963 -0.137038,0.174678 -0.223119,0.230143 -0.223119,0.143853 m -0.08493,-2.374619 c -0.732056,-0.446238 -0.816983,-1.42301 -0.179397,-2.060597 l 0.348203,-0.348203 h 1.260599 c 1.20136,0 1.275698,0.01269 1.581332,0.269881 0.678268,0.570693 0.636119,1.626836 -0.08419,2.111658 -0.315596,0.212319 -0.483249,0.239685 -1.467886,0.239265 -0.93001,-3.14e-4 -1.168332,-0.03491 -1.458658,-0.212004 m 17.674702,0.04823 c -0.809749,-0.439317 -0.796328,-1.875118 0.02139,-2.297974 0.219868,-0.113657 0.634126,-0.159056 1.451948,-0.159056 1.25976,0 1.530375,0.107575 1.856351,0.738032 0.294521,0.569434 0.123407,1.226103 -0.433551,1.664267 -0.245241,0.192922 -0.416879,0.2184 -1.44377,0.214731 -0.825371,-0.0029 -1.24917,-0.04959 -1.452367,-0.159895 m -31.8216566,-4.623 C 8.9558532,30.90787 7.6382165,29.173983 7.1403937,27.709767 6.822282,26.774095 6.7498313,25.095044 6.9844833,24.095414 c 0.8533656,-3.635532 4.4829217,-5.915158 8.1847187,-5.140639 0.901177,0.188623 2.228774,0.834598 2.953071,1.436955 0.712973,0.593026 1.662799,1.763874 1.821855,2.245865 0.168597,0.510719 0.06616,1.420913 -0.210012,1.867884 -0.326815,0.528753 -7.945664,6.617856 -8.458689,6.760345 -0.532948,0.148047 -0.936721,0.131586 -1.4783706,-0.06018 M 54.071832,29.206906 c -1.948408,-3.163293 -5.112435,-6.34137 -8.227497,-8.264195 -0.349776,-0.215884 -0.635909,-0.42642 -0.635909,-0.467836 0,-0.137981 1.195278,-0.7114 1.99213,-0.955593 0.928857,-0.284665 2.536087,-0.332476 3.460016,-0.102962 1.392603,0.345897 2.896347,1.269511 3.734405,2.293676 1.158895,1.416195 1.758002,3.417656 1.531004,5.114532 -0.0626,0.467836 -0.209383,1.122513 -0.32608,1.454779 -0.241048,0.685502 -0.764349,1.656089 -0.921098,1.708304 -0.05756,0.01919 -0.330694,-0.332162 -0.607076,-0.780705"
     style="fill:#be580e;stroke-width:0.104849"
     id="path7" /><path
     d="m 24.808595,43.288853 c -0.17667,-0.07685 -0.48912,-0.33604 -0.694415,-0.57583 -1.052159,-1.229249 -0.929171,-3.789765 0.228886,-4.764127 0.993968,-0.83638 2.166074,-0.516905 2.888588,0.787416 0.290432,0.524245 0.309724,0.631191 0.309724,1.712498 0,1.046917 -0.02569,1.201674 -0.278584,1.677583 -0.605083,1.138869 -1.516744,1.570742 -2.454199,1.16246 z m 17.54081,-0.06962 c -1.803087,-0.951819 -1.75989,-4.65802 0.06459,-5.541267 0.568176,-0.274914 0.932946,-0.274285 1.505212,0.0027 0.814466,0.394232 1.394071,1.538763 1.394071,2.752704 0,2.139233 -1.506365,3.555114 -2.96387,2.785837 z"
     style="fill:#5c1a00;stroke:#340f00;stroke-width:0.296229;stroke-dasharray:none;stroke-opacity:1"
     id="path8" /><path
     id="path17"
     style="fill:#fba20e;fill-opacity:1;stroke-width:1.08066"
     d="m 58.001169,50.033203 -0.52344,1.027344 c -1.57661,3.091681 -4.48713,5.532756 -7.6543,6.421875 -1.90164,0.533891 -1.68334,0.528063 -17.92969,0.517578 h 21.10743 c 2.77055,0 5,-2.231398 5,-5.001953 z M 31.893739,58 C 20.279627,57.9926 16.546548,57.960451 15.903509,57.859375 11.670233,57.193899 8.0219551,54.55613 6.2000991,50.668541 l -0.3100292,-0.919105 -5.178e-4,3.272621 c -4.384e-4,2.770555 2.2313998,5.005121 5.0019539,5.001953 z M 15.903145,57.858454 C 11.669868,57.192978 8.0197087,54.556131 6.1978533,50.668542 L 5.8900699,49.749436 v -4.356579 c 0,-4.582108 0.070039,-5.605225 0.5389237,-7.871849 0.3826986,-1.850584 1.3605199,-4.61608 2.258656,-6.388761 l 0.2579285,-0.509356 0.2315064,0.217456 c 0.2698812,0.253525 1.0224865,0.539238 1.4181865,0.5384 0.74988,-0.0016 1.101019,-0.238217 5.001715,-3.370999 2.250268,-1.807281 4.010472,-3.297395 4.13713,-3.502374 0.275962,-0.446552 0.378504,-1.357165 0.210327,-1.866836 -0.06951,-0.210641 -0.405661,-0.724611 -0.746839,-1.142119 -0.341179,-0.417509 -0.620706,-0.792134 -0.620706,-0.832396 -2.1e-4,-0.107995 1.666574,-0.997219 2.821066,-1.505107 7.196202,-3.165075 15.417828,-2.929899 22.411987,0.641256 7.011878,3.580277 12.095584,10.246574 13.667794,17.922565 0.436487,2.130845 0.522253,3.44324 0.522253,7.989071 v 4.320615 l -0.52393,1.02731 C 55.899454,54.151414 52.988952,56.593766 49.82178,57.482885 47.920135,58.016776 48.138954,58.010485 31.89261,58 20.278491,57.992556 16.546183,57.959528 15.903145,57.858454 M 35.825599,52.55771 c 0.201205,-0.195019 0.365817,-0.41604 0.365817,-0.491217 0,-0.238112 0.153499,-0.148047 0.295884,0.173525 0.313603,0.708569 1.423639,0.969748 2.126337,0.500234 0.485031,-0.323983 0.722933,-0.837743 0.723038,-1.56162 l 2.1e-4,-0.593864 1.703795,-0.0367 c 1.612263,-0.0346 1.732839,-0.0518 2.243768,-0.319895 1.234701,-0.647966 1.791344,-2.032811 1.344478,-3.344576 -0.219134,-0.642724 -0.654991,-1.140442 -1.322879,-1.510454 -0.558426,-0.309305 -0.572475,-0.311192 -2.553701,-0.348308 l -1.99213,-0.03743 -0.211795,-0.32954 -0.21169,-0.329645 -2.031134,-0.02852 c -2.203506,-0.03093 -2.525811,0.03659 -2.525497,0.528963 v 0.233499 l -1.791344,-0.03104 c -2.096035,-0.03638 -2.63108,0.07214 -3.337342,0.676591 -1.269721,1.086864 -1.27056,3.073437 -0.0018,4.159462 0.660338,0.565136 1.233652,0.699553 2.985573,0.699553 h 1.486863 l 0.05305,0.660024 c 0.09982,1.244033 0.630457,1.788094 1.680729,1.722983 0.518478,-0.03219 0.655725,-0.08765 0.969852,-0.392031 z M 26.41572,43.209063 c 0.808176,-0.496774 1.352551,-1.820282 1.250324,-3.03978 -0.177824,-2.121619 -1.716797,-3.302008 -3.133516,-2.403558 -0.374101,0.237274 -0.556748,0.458715 -0.820863,0.995122 -1.255671,2.550555 0.661178,5.703783 2.704055,4.448216 m 17.542382,0.0648 c 0.148467,-0.07581 0.43743,-0.323144 0.6422,-0.549723 1.01001,-1.118004 1.018608,-3.347827 0.01741,-4.517627 -0.474756,-0.554651 -0.847599,-0.745895 -1.453835,-0.745895 -0.606237,0 -0.97908,0.191244 -1.453836,0.745895 -0.845502,0.987782 -1.012002,2.737397 -0.378085,3.972308 0.567862,1.106156 1.688802,1.573678 2.626151,1.095042 M 26.870555,35.753045 c 0.720312,-0.484822 0.762461,-1.540965 0.08419,-2.111658 -0.305634,-0.257194 -0.379972,-0.269881 -1.581332,-0.269881 h -1.260599 l -0.348203,0.348203 c -0.637586,0.637587 -0.552554,1.614359 0.179292,2.060597 0.290431,0.17709 0.528858,0.211795 1.458763,0.212004 0.984637,3.15e-4 1.15229,-0.02695 1.467886,-0.23937 M 44.51485,35.7737 c 0.341074,-0.268308 0.588727,-0.727652 0.588727,-1.091687 0,-0.364036 -0.247653,-0.823379 -0.588727,-1.091687 -0.243669,-0.191664 -0.420968,-0.218925 -1.4228,-0.218925 -0.817822,0 -1.23208,0.0454 -1.451948,0.159056 -0.817822,0.422856 -0.831138,1.858657 -0.02139,2.298079 0.203197,0.110301 0.626996,0.156959 1.452367,0.159895 1.026891,0.0037 1.198529,-0.02181 1.44377,-0.214731"
     sodipodi:nodetypes="ccccsscccccssccccscccccccssccccsccccccsccccccccccccscccccscccccccccccccssccccscsscccscscccc" /></svg>
