<?xml version="1.0" encoding="UTF-8" standalone="no"?>
<svg
   width="64"
   height="64"
   version="1.1"
   id="svg3"
   sodipodi:docname="beeper.svg"
   xml:space="preserve"
   inkscape:version="1.4.2 (ebf0e940d0, 2025-05-08)"
   xmlns:inkscape="http://www.inkscape.org/namespaces/inkscape"
   xmlns:sodipodi="http://sodipodi.sourceforge.net/DTD/sodipodi-0.dtd"
   xmlns:xlink="http://www.w3.org/1999/xlink"
   xmlns="http://www.w3.org/2000/svg"
   xmlns:svg="http://www.w3.org/2000/svg"><sodipodi:namedview
     id="namedview3"
     pagecolor="#505050"
     bordercolor="#eeeeee"
     borderopacity="1"
     inkscape:showpageshadow="0"
     inkscape:pageopacity="0"
     inkscape:pagecheckerboard="0"
     inkscape:deskcolor="#505050"
     inkscape:zoom="3.0273438"
     inkscape:cx="46.740645"
     inkscape:cy="40.794839"
     inkscape:window-width="1920"
     inkscape:window-height="1012"
     inkscape:window-x="0"
     inkscape:window-y="0"
     inkscape:window-maximized="1"
     inkscape:current-layer="svg3" /><defs
     id="defs2"><linearGradient
       id="linearGradient3"
       inkscape:collect="always"><stop
         style="stop-color:#5953f3;stop-opacity:1"
         offset="0"
         id="stop3" /><stop
         style="stop-color:#1f52f7;stop-opacity:1"
         offset="1"
         id="stop4" /></linearGradient><linearGradient
       id="b"
       x1="7.937"
       x2="7.937"
       y1="15.081"
       y2="1.852"
       gradientTransform="matrix(3.7796,0,0,3.7796,0,-87.205161)"
       gradientUnits="userSpaceOnUse"><stop
         offset="0"
         stop-color="#0e71de"
         style="stop-color:#0e30f4;stop-opacity:1"
         id="stop1" /><stop
         offset="1"
         stop-color="#25c9ff"
         style="stop-color:#5971f8;stop-opacity:1"
         id="stop2" /></linearGradient><filter
       id="c"
       width="1.331438"
       height="1.2641129"
       x="-0.16571899"
       y="-0.13205647"
       style="color-interpolation-filters:sRGB"><feGaussianBlur
         stdDeviation="2.011"
         id="feGaussianBlur2" /></filter><linearGradient
       inkscape:collect="always"
       xlink:href="#linearGradient3"
       id="linearGradient4"
       x1="32"
       y1="3.5"
       x2="32"
       y2="60.5"
       gradientUnits="userSpaceOnUse" /></defs><rect
     width="57"
     height="57"
     x="3.5"
     y="3.5"
     fill="#ffcc00"
     fill-rule="evenodd"
     rx="8.7708244"
     ry="8.7708244"
     id="rect1-3"
     style="stroke-width:4.14304;fill-opacity:1;fill:url(#linearGradient4)" /><path
     fill="currentColor"
     fill-rule="evenodd"
     d="M17.438 25.28c0-5.64 4.55-10.28 10.302-10.28h8.52c5.69 0 10.302 4.59 10.302 10.28a10.3 10.3 0 0 1-3.208 7.459l-1.952 1.945c2.843 1.658 5.136 4.26 5.136 7.788 0 5.283-4.283 9.076-9.566 9.076H22.578V34.184c-3.043-1.775-5.14-5.096-5.14-8.904m10.302-7.424a7.417 7.417 0 0 0-7.446 7.424 7.417 7.417 0 0 0 7.446 7.423h3.547l-1.973 9.976L41.35 30.707a7.46 7.46 0 0 0 2.357-5.427c0-4.14-3.39-7.469-7.446-7.424z"
     clip-rule="evenodd"
     style="fill:#000;fill-opacity:1;stroke-width:1.14209;filter:url(#c);opacity:.15"
     id="path2" /><path
     fill="currentColor"
     fill-rule="evenodd"
     d="M17.438 24.006c0-5.64 4.55-10.28 10.302-10.28h8.52c5.69 0 10.302 4.59 10.302 10.28a10.3 10.3 0 0 1-3.208 7.459l-1.952 1.945c2.843 1.658 5.136 4.26 5.136 7.788 0 5.283-4.283 9.076-9.566 9.076H22.578V32.91c-3.043-1.775-5.14-5.096-5.14-8.904m10.302-7.424a7.417 7.417 0 0 0-7.446 7.424 7.417 7.417 0 0 0 7.446 7.423h3.547l-1.973 9.976L41.35 29.433a7.46 7.46 0 0 0 2.357-5.427c0-4.14-3.39-7.469-7.446-7.424z"
     clip-rule="evenodd"
     style="fill:#fff;fill-opacity:1;stroke-width:1.14209"
     id="path3" /></svg>
