<?xml version="1.0" encoding="UTF-8" standalone="no"?>
<svg
   width="64"
   height="64"
   version="1.1"
   id="svg1"
   sodipodi:docname="Binance.svg"
   inkscape:version="1.3 (0e150ed6c4, 2023-07-21)"
   xmlns:inkscape="http://www.inkscape.org/namespaces/inkscape"
   xmlns:sodipodi="http://sodipodi.sourceforge.net/DTD/sodipodi-0.dtd"
   xmlns="http://www.w3.org/2000/svg"
   xmlns:svg="http://www.w3.org/2000/svg">
  <defs
     id="defs1" />
  <sodipodi:namedview
     id="namedview1"
     pagecolor="#ffffff"
     bordercolor="#000000"
     borderopacity="0.25"
     inkscape:showpageshadow="2"
     inkscape:pageopacity="0.0"
     inkscape:pagecheckerboard="0"
     inkscape:deskcolor="#d1d1d1"
     inkscape:zoom="6.15625"
     inkscape:cx="15.918782"
     inkscape:cy="32.812183"
     inkscape:window-width="1920"
     inkscape:window-height="995"
     inkscape:window-x="0"
     inkscape:window-y="0"
     inkscape:window-maximized="1"
     inkscape:current-layer="svg1" />
  <rect
     x="4.5015068"
     y="4.5015068"
     width="54.996986"
     height="54.996986"
     ry="5.0000358"
     fill="#ecc230"
     stroke-width="3.46438"
     id="rect1-5" />
  <path
     d="m23.795 32-3.366 3.39-3.39-3.39 3.39-3.39ZM32 23.795l5.797 5.797 3.39-3.39-5.798-5.773L32 17.039l-3.39 3.39-5.773 5.774 3.39 3.39zm11.571 4.816L40.205 32l3.39 3.39L46.96 32ZM32 40.205l-5.797-5.797-3.366 3.39 5.797 5.796L32 46.96l3.39-3.389 5.797-5.797-3.39-3.366Zm0-4.816L35.39 32 32 28.61 28.61 32Z"
     style="fill:#814b13;fill-opacity:1;stroke-width:.45834726"
     id="path1" />
</svg>
