<?xml version="1.0" encoding="UTF-8"?>
<svg width="64" height="64" version="1" xmlns="http://www.w3.org/2000/svg">
 <rect x="4.4996" y="4.4996" width="55.001" height="55.001" ry="2.75" fill="#175ddc" stroke-width="3.4646"/>
 <path d="m16.761 13.294c-0.76175 0-0.76141-0.11482-0.76141 11.091 0 11.372-0.01412 11.145 0.86023 13.35 1.0061 2.5365 2.6268 4.6804 5.2866 7.0108 2.2325 1.9548 4.879 3.7252 7.8315 5.2282 0.99859 0.50823 1.5144 0.73976 2.0217 0.73129 0.50729 0.0085 1.0231-0.22305 2.0217-0.73129 2.9525-1.5031 5.599-3.2734 7.8315-5.2282 2.6598-2.3304 4.2805-4.4743 5.2866-7.0108 0.87435-2.2052 0.86023-1.9774 0.86023-13.35 0-11.207 3.4e-4 -11.091-0.76141-11.091zm15.239 5.3334h10.353v15.137s-0.0057 0.73505-0.46306 1.8898c-0.64282 1.6198-1.5341 2.8988-3.7572 4.8452-1.6875 1.4777-3.8146 2.8461-6.1327 4.0809z" fill="#fff" stroke-width=".94117"/>
</svg>
