<?xml version="1.0" encoding="UTF-8" standalone="no"?>
<svg
   width="64"
   height="64"
   version="1.1"
   id="svg4"
   sodipodi:docname="blackmagicraw-speedtest.svg"
   xml:space="preserve"
   inkscape:version="1.3 (0e150ed6c4, 2023-07-21)"
   xmlns:inkscape="http://www.inkscape.org/namespaces/inkscape"
   xmlns:sodipodi="http://sodipodi.sourceforge.net/DTD/sodipodi-0.dtd"
   xmlns:xlink="http://www.w3.org/1999/xlink"
   xmlns="http://www.w3.org/2000/svg"
   xmlns:svg="http://www.w3.org/2000/svg"><defs
     id="defs4"><linearGradient
       id="linearGradient9"
       inkscape:collect="always"><stop
         style="stop-color:#1c2a20;stop-opacity:1"
         offset="0"
         id="stop8" /><stop
         style="stop-color:#8e382d;stop-opacity:1"
         offset="1"
         id="stop9" /></linearGradient><linearGradient
       id="linearGradient6"
       inkscape:collect="always"><stop
         style="stop-color:#1c2a20;stop-opacity:1"
         offset="0"
         id="stop6" /><stop
         style="stop-color:#0e0201;stop-opacity:1"
         offset="1"
         id="stop7" /></linearGradient><linearGradient
       id="linearGradient4"
       inkscape:collect="always"><stop
         style="stop-color:#403535;stop-opacity:1"
         offset="0"
         id="stop4" /><stop
         style="stop-color:#d1c4ca;stop-opacity:1"
         offset="1"
         id="stop5" /></linearGradient><linearGradient
       inkscape:collect="always"
       xlink:href="#linearGradient4"
       id="linearGradient5"
       x1="32"
       y1="2"
       x2="32"
       y2="62"
       gradientUnits="userSpaceOnUse"
       gradientTransform="matrix(0.93333333,0,0,0.93333333,2.1333333,2.1333333)" /><linearGradient
       inkscape:collect="always"
       xlink:href="#linearGradient6"
       id="linearGradient7"
       x1="32"
       y1="6"
       x2="32"
       y2="58"
       gradientUnits="userSpaceOnUse" /><radialGradient
       inkscape:collect="always"
       xlink:href="#linearGradient9"
       id="radialGradient7"
       cx="32"
       cy="32"
       fx="32"
       fy="32"
       r="26"
       gradientUnits="userSpaceOnUse" /></defs><sodipodi:namedview
     id="namedview4"
     pagecolor="#ffffff"
     bordercolor="#000000"
     borderopacity="0.25"
     inkscape:showpageshadow="2"
     inkscape:pageopacity="0.0"
     inkscape:pagecheckerboard="0"
     inkscape:deskcolor="#d1d1d1"
     inkscape:zoom="5.734375"
     inkscape:cx="-9.9400545"
     inkscape:cy="38.888283"
     inkscape:window-width="1920"
     inkscape:window-height="941"
     inkscape:window-x="0"
     inkscape:window-y="34"
     inkscape:window-maximized="1"
     inkscape:current-layer="svg4" /><circle
     cx="32"
     cy="32"
     r="30"
     id="circle5"
     style="fill:#141414;fill-opacity:1;stroke-width:1.11111" /><circle
     cx="32"
     cy="32"
     r="28"
     id="circle4"
     style="fill:url(#linearGradient5);fill-opacity:1;stroke-width:1.03704" /><circle
     cx="32"
     cy="32"
     r="26"
     id="circle1"
     style="stroke-width:0.962963;fill:url(#linearGradient7);fill-opacity:1" /><path
     fill="#9def75"
     d="m32 10.4 13.5 4.05 6.75 10.8L32 32Z"
     opacity=".2"
     id="path1" /><path
     fill="#9def75"
     d="M32.033 8.79c-12.837 0-23.244 10.407-23.244 23.244a23.242 23.242 0 0 0 6.819 16.425c.93.811 1.69.17 2.668-.726l3.332-3.33c.911-.885.278-2.435-.995-2.437a1.41 1.41 0 0 0-1.016.425l-3.053 3.055c-2.901-3.362-4.57-7.584-4.861-12.025h4.198a1.417 1.417 0 0 0 1.434-1.443 1.417 1.417 0 0 0-1.434-1.399h-4.194a20.288 20.288 0 0 1 4.94-11.942l2.97 2.972a1.417 1.417 0 0 0 2.035-.008 1.417 1.417 0 0 0-.024-2.004l-2.971-2.97a20.288 20.288 0 0 1 11.942-4.94v4.195c-.028 1.911 2.869 1.911 2.842 0v-4.199a20.315 20.315 0 0 1 11.986 4.9l-3.016 3.014c-.56.544-.57 1.441-.024 2.004.558.577 1.48.58 2.035.008l3.027-3.03c2.816 3.228 4.63 7.37 4.939 12h2.842c-.723-12.275-10.881-21.775-23.177-21.79z"
     id="path2" /><path
     fill="none"
     stroke="#9def75"
     stroke-linecap="round"
     stroke-linejoin="round"
     stroke-width="2.842"
     d="m51.895 25.368-19.876 6.625"
     id="path3" /><path
     fill="#f14133"
     d="M48.152 30.579a1.417 1.417 0 0 0-1.434 1.399 1.417 1.417 0 0 0 1.434 1.443h4.198a21.15 21.15 0 0 1-.453 3.173l-3.242-.867-.366 1.373 3.247.87c-.37 1.26-.859 2.479-1.463 3.642l-2.95-1.702-.71 1.232 2.966 1.712a19.848 19.848 0 0 1-1.89 2.592l-3.052-3.055a1.41 1.41 0 0 0-1.016-.425c-1.274.002-1.907 1.552-.996 2.437l3.333 3.33c.977.896 1.737 1.538 2.668.726a23.243 23.243 0 0 0 6.818-16.425c0-.49-.003-.973-.033-1.455h-2.864z"
     id="path4" /><path
     id="circle7"
     style="stroke-width:0.962963;fill:url(#radialGradient7);fill-opacity:1"
     d="M 32 6 A 26 26 0 0 0 6 32 A 26 26 0 0 0 32 58 A 26 26 0 0 0 58 32 A 26 26 0 0 0 32 6 z M 32 8 A 24 24 0 0 1 56 32 A 24 24 0 0 1 32 56 A 24 24 0 0 1 8 32 A 24 24 0 0 1 32 8 z " /></svg>
