<?xml version="1.0" encoding="UTF-8" standalone="no"?>
<svg
   width="64"
   height="64"
   version="1.1"
   id="svg2"
   sodipodi:docname="blackmagic-Fusion8.svg"
   xml:space="preserve"
   inkscape:version="1.3 (0e150ed6c4, 2023-07-21)"
   xmlns:inkscape="http://www.inkscape.org/namespaces/inkscape"
   xmlns:sodipodi="http://sodipodi.sourceforge.net/DTD/sodipodi-0.dtd"
   xmlns:xlink="http://www.w3.org/1999/xlink"
   xmlns="http://www.w3.org/2000/svg"
   xmlns:svg="http://www.w3.org/2000/svg"><defs
     id="defs2"><linearGradient
       id="linearGradient2"
       inkscape:collect="always"><stop
         style="stop-color:#3954f3;stop-opacity:1"
         offset="0"
         id="stop2" /><stop
         style="stop-color:#0b166f;stop-opacity:1"
         offset="1"
         id="stop3" /></linearGradient><linearGradient
       inkscape:collect="always"
       xlink:href="#linearGradient2"
       id="linearGradient3"
       x1="33.146709"
       y1="2.0220594"
       x2="33.146709"
       y2="61.977959"
       gradientUnits="userSpaceOnUse" /></defs><sodipodi:namedview
     id="namedview2"
     pagecolor="#ffffff"
     bordercolor="#000000"
     borderopacity="0.25"
     inkscape:showpageshadow="2"
     inkscape:pageopacity="0.0"
     inkscape:pagecheckerboard="0"
     inkscape:deskcolor="#d1d1d1"
     inkscape:zoom="6.15625"
     inkscape:cx="20.304569"
     inkscape:cy="28.588833"
     inkscape:window-width="1920"
     inkscape:window-height="995"
     inkscape:window-x="0"
     inkscape:window-y="0"
     inkscape:window-maximized="1"
     inkscape:current-layer="svg2" /><path
     d="M 33.146708,2.0220596 A 29.998991,29.998991 0 0 0 24.235567,3.022063 29.998991,29.998991 0 0 0 3.0221606,39.763299 29.998991,29.998991 0 0 0 39.763397,60.977815 29.998991,29.998991 0 0 0 60.977914,24.236579 29.998991,29.998991 0 0 0 33.146708,2.0220596 Z"
     id="path1"
     style="fill:url(#linearGradient3);fill-opacity:1;stroke-width:1.11111" /><path
     fill="#ffffff"
     d="m 40.722289,13.788766 a 7.2700247,7.2700247 0 0 0 -4.06668,1.366671 c -1.361116,0.994448 -2.326675,2.425564 -3.388901,3.73668 -0.531112,0.655557 -1.095559,1.288893 -1.747783,1.825561 -0.651114,0.534447 -1.380005,1.081115 -2.210008,1.190004 -1.672228,0.222223 -3.414456,-0.630002 -4.927794,-1.158892 -1.573339,-0.603336 -3.123344,-1.358894 -4.797794,-1.536672 -2.311119,-0.244446 -4.716683,0.718891 -6.225577,2.49223 -1.510005,1.774451 -2.081118,4.844461 -1.480005,7.098913 0.602224,2.253341 2.358897,4.162237 4.550015,4.940017 2.188897,0.777781 4.751128,0.403335 6.631134,-0.968892 1.362227,-0.994448 2.326675,-2.425564 3.3889,-3.736679 1.136671,-1.41445 2.330008,-2.806677 3.957792,-3.444457 0.77778,-0.305556 1.675561,-0.216667 2.506675,-0.08 0.831114,0.136667 1.63445,0.404446 2.42223,0.705558 1.572228,0.602224 3.122233,1.35556 4.797794,1.533339 2.311119,0.244445 4.715572,-0.715558 6.225577,-2.488898 1.508894,-1.77445 2.080007,-3.883346 1.478894,-6.136687 -0.601113,-2.253341 -2.358897,-4.162237 -4.548904,-4.940017 a 7.088913,7.088913 0 0 0 -2.566676,-0.397779 z m 0.872226,16.071166 a 5.3333515,5.3333515 0 0 0 -2.9889,1.00667 c -1.000003,0.733336 -1.711116,1.786672 -2.493341,2.753342 -0.391113,0.483335 -0.805559,0.951115 -1.284449,1.345561 -0.480002,0.394445 -1.02667,0.715557 -1.62445,0.87778 -0.59778,0.160001 -1.230004,0.155556 -1.841117,0.05556 -0.611114,-0.1 -1.204449,-0.294445 -1.78334,-0.516668 -1.15667,-0.444446 -2.294452,-1.001115 -3.525567,-1.132226 a 5.3666849,5.3666849 0 0 0 -4.576683,1.835561 5.4444629,5.4444629 0 0 0 -1.088892,4.835572 c 0.443335,1.661117 1.733339,3.066677 3.344456,3.641124 a 5.3555738,5.3555738 0 0 0 4.875572,-0.713336 c 1.002225,-0.733336 1.713339,-1.787784 2.494453,-2.753343 0.391112,-0.483335 0.805558,-0.951114 1.28556,-1.34556 0.477779,-0.394446 1.025559,-0.715558 1.623338,-0.877781 0.59778,-0.161111 1.230005,-0.155556 1.841118,-0.05555 0.611113,0.1 1.204448,0.294445 1.783339,0.516668 1.156671,0.444446 2.294452,1.001115 3.525568,1.132226 a 5.3666849,5.3666849 0 0 0 4.577793,-1.835562 5.4444629,5.4444629 0 0 0 1.08667,-4.835572 C 46.38342,32.133273 45.092304,30.726601 43.481188,30.153266 a 5.2077955,5.2077955 0 0 0 -1.886673,-0.293334 z m -11.446706,16.07561 c -0.244445,0.01555 -0.488891,0.05556 -0.725558,0.118889 a 3.7966796,3.7966796 0 0 0 -2.278897,1.747784 3.7989018,3.7989018 0 0 0 -0.374445,2.847787 3.7966796,3.7966796 0 0 0 1.746672,2.278897 c 0.851114,0.491113 1.900007,0.628891 2.848899,0.374446 a 3.7966796,3.7966796 0 0 0 2.277785,-1.746673 c 0.492224,-0.851114 0.628891,-1.900006 0.375557,-2.848899 a 3.7966796,3.7966796 0 0 0 -1.747784,-2.277785 3.8022351,3.8022351 0 0 0 -2.122229,-0.494446 z"
     id="path2"
     style="stroke-width:1.11111" /></svg>
