<?xml version="1.0" encoding="UTF-8" standalone="no"?>
<svg
   xml:space="preserve"
   width="64"
   height="64"
   viewBox="0 0 16.933 16.933"
   version="1.1"
   id="svg2"
   sodipodi:docname="black-mesa.svg"
   inkscape:version="1.4.2 (ebf0e940d0, 2025-05-08)"
   xmlns:inkscape="http://www.inkscape.org/namespaces/inkscape"
   xmlns:sodipodi="http://sodipodi.sourceforge.net/DTD/sodipodi-0.dtd"
   xmlns="http://www.w3.org/2000/svg"
   xmlns:svg="http://www.w3.org/2000/svg"><sodipodi:namedview
     id="namedview2"
     pagecolor="#505050"
     bordercolor="#eeeeee"
     borderopacity="1"
     inkscape:showpageshadow="0"
     inkscape:pageopacity="0"
     inkscape:pagecheckerboard="0"
     inkscape:deskcolor="#505050"
     inkscape:zoom="6.0546875"
     inkscape:cx="11.809032"
     inkscape:cy="16.433548"
     inkscape:window-width="1920"
     inkscape:window-height="1012"
     inkscape:window-x="0"
     inkscape:window-y="0"
     inkscape:window-maximized="1"
     inkscape:current-layer="svg2" /><defs
     id="defs2"><linearGradient
       id="a"
       x1="7.937"
       x2="7.937"
       y1="15.081"
       y2="1.852"
       gradientUnits="userSpaceOnUse"><stop
         offset="0"
         stop-color="#2858e4"
         id="stop1" /><stop
         offset="1"
         stop-color="#5ab9f4"
         id="stop2" /></linearGradient></defs><rect
     x="1.1904695"
     y="1.1904695"
     width="14.552061"
     height="14.552061"
     ry="0.72758985"
     fill="#f36303"
     stroke-width="0.916657"
     id="rect1" /><path
     d="m2.047 2.072.002-.001zm6.276.465a6.1 6.1 0 0 0-2.822.81c-.598.34-1.507 1.17-1.93 1.765a6.8 6.8 0 0 0-.959 2.1c-.185.775-.186 2.077-.001 2.848.556 2.319 2.527 4.143 4.91 4.543.537.09 1.505.076 2.12-.032 1.167-.203 2.134-.692 3.017-1.525 1.186-1.119 1.81-2.498 1.866-4.113v-.527c-.04-1.009-.2-1.664-.61-2.5-.613-1.247-1.485-2.119-2.743-2.74a6 6 0 0 0-2.848-.629M8.51 3.74c.777 0 1.47.15 2.121.46 1.62.774 2.78 2.591 2.778 4.354 0 .492-.104 1.183-.218 1.463l-.081.197-.73-.937-.727-.937h-4.71v3.134H5.75c-1.359 0-1.202.068-1.59-.7a4.78 4.78 0 0 1-.255-3.781c.246-.707.547-1.161 1.205-1.821.99-.993 2.03-1.432 3.4-1.432"
     style="fill:#ffffff;stroke-width:1.05947;fill-opacity:1"
     id="path2" /></svg>
