<?xml version="1.0" encoding="UTF-8" standalone="no"?>
<svg
   width="64"
   height="64"
   version="1.1"
   id="svg6"
   sodipodi:docname="blackmagicraw-player.svg"
   xml:space="preserve"
   inkscape:version="1.3 (0e150ed6c4, 2023-07-21)"
   xmlns:inkscape="http://www.inkscape.org/namespaces/inkscape"
   xmlns:sodipodi="http://sodipodi.sourceforge.net/DTD/sodipodi-0.dtd"
   xmlns:xlink="http://www.w3.org/1999/xlink"
   xmlns="http://www.w3.org/2000/svg"
   xmlns:svg="http://www.w3.org/2000/svg"><defs
     id="defs6"><linearGradient
       id="linearGradient14"
       inkscape:collect="always"><stop
         style="stop-color:#000000;stop-opacity:1;"
         offset="0"
         id="stop14" /><stop
         style="stop-color:#505050;stop-opacity:1;"
         offset="1"
         id="stop15" /></linearGradient><linearGradient
       id="linearGradient12"
       inkscape:collect="always"><stop
         style="stop-color:#ed7418;stop-opacity:1"
         offset="0"
         id="stop12" /><stop
         style="stop-color:#fdb855;stop-opacity:1"
         offset="1"
         id="stop13" /></linearGradient><linearGradient
       id="linearGradient11"
       inkscape:collect="always"><stop
         style="stop-color:#c8c8c8;stop-opacity:1;"
         offset="0"
         id="stop10" /><stop
         style="stop-color:#323232;stop-opacity:1;"
         offset="1"
         id="stop11" /></linearGradient><linearGradient
       id="linearGradient8"
       inkscape:collect="always"><stop
         style="stop-color:#646464;stop-opacity:1;"
         offset="0"
         id="stop8" /><stop
         style="stop-color:#000000;stop-opacity:1;"
         offset="1"
         id="stop9" /></linearGradient><linearGradient
       id="linearGradient6"
       inkscape:collect="always"><stop
         style="stop-color:#fafafa;stop-opacity:1;"
         offset="0"
         id="stop6" /><stop
         style="stop-color:#acacac;stop-opacity:1"
         offset="1"
         id="stop7" /></linearGradient><linearGradient
       inkscape:collect="always"
       xlink:href="#linearGradient6"
       id="linearGradient7"
       x1="32"
       y1="2"
       x2="32"
       y2="62"
       gradientUnits="userSpaceOnUse" /><linearGradient
       inkscape:collect="always"
       xlink:href="#linearGradient8"
       id="linearGradient9"
       x1="20"
       y1="56.132999"
       x2="47.214844"
       y2="33.369141"
       gradientUnits="userSpaceOnUse" /><linearGradient
       inkscape:collect="always"
       xlink:href="#linearGradient11"
       id="linearGradient10"
       gradientUnits="userSpaceOnUse"
       x1="20"
       y1="56.132999"
       x2="47.214844"
       y2="33.369141"
       gradientTransform="matrix(1,0,0,-1,0,64)" /><linearGradient
       inkscape:collect="always"
       xlink:href="#linearGradient12"
       id="linearGradient13"
       x1="21.608442"
       y1="47.999874"
       x2="21.608442"
       y2="26.587891"
       gradientUnits="userSpaceOnUse" /><radialGradient
       inkscape:collect="always"
       xlink:href="#linearGradient14"
       id="radialGradient15"
       cx="39.5"
       cy="32"
       fx="39.5"
       fy="32"
       r="19.5"
       gradientTransform="matrix(1,0,0,1.3846154,0,-12.307692)"
       gradientUnits="userSpaceOnUse" /></defs><sodipodi:namedview
     id="namedview6"
     pagecolor="#ffffff"
     bordercolor="#000000"
     borderopacity="0.25"
     inkscape:showpageshadow="2"
     inkscape:pageopacity="0.0"
     inkscape:pagecheckerboard="0"
     inkscape:deskcolor="#d1d1d1"
     inkscape:zoom="2.8671875"
     inkscape:cx="123.46594"
     inkscape:cy="42.201635"
     inkscape:window-width="1920"
     inkscape:window-height="941"
     inkscape:window-x="0"
     inkscape:window-y="34"
     inkscape:window-maximized="1"
     inkscape:current-layer="svg6" /><circle
     cx="32"
     cy="32"
     r="30"
     id="circle6"
     style="stroke-width:1.11111;fill:url(#linearGradient7);fill-opacity:1" /><circle
     cx="32"
     cy="32"
     r="27"
     fill="#3f3f3f"
     id="circle1"
     style="fill:#232323;fill-opacity:1" /><path
     d="M32 5a27 27 0 0 0-12 2.867v48.266A27 27 0 0 0 32 59a27 27 0 0 0 27-27A27 27 0 0 0 32 5z"
     opacity=".1"
     id="path1"
     style="opacity:1;fill:url(#radialGradient15)" /><path
     d="M 21.608442,16.000604 A 1.5721462,1.5794054 0 0 0 20,17.578972 v 28.843075 a 1.5721462,1.5794054 0 0 0 2.356145,1.36785 l 12.427837,-7.209472 12.42991,-7.211547 a 1.5721462,1.5794054 0 0 0 0,-2.736737 L 34.783982,23.423705 22.356145,16.213196 a 1.5721462,1.5794054 0 0 0 -0.747703,-0.211555 z"
     id="path2"
     style="stroke-width:1.03704;fill:url(#linearGradient13);fill-opacity:1" /><rect
     width="5.786"
     height="5.786"
     x="24.286"
     y="29.107"
     fill="#313131"
     rx="1.446"
     ry="1.446"
     id="rect3" /><rect
     width="5.786"
     height="5.786"
     x="24.286"
     y="37.786"
     fill="#313131"
     rx="1.446"
     ry="1.446"
     id="rect4" /><rect
     width="5.786"
     height="5.786"
     x="24.286"
     y="20.429"
     fill="#313131"
     rx="1.446"
     ry="1.446"
     id="rect6" /><path
     id="circle7"
     d="M 58.447266 26.587891 L 47.214844 33.369141 L 14.347656 52.425781 A 27 27 0 0 0 32 59 A 27 27 0 0 0 59 32 A 27 27 0 0 0 58.447266 26.587891 z "
     style="fill:url(#linearGradient9);fill-opacity:1;opacity:0.3" /><path
     id="path9"
     d="M 58.447266,37.412109 47.214844,30.630859 14.347656,11.574219 A 27,27 0 0 1 32,5 27,27 0 0 1 59,32 27,27 0 0 1 58.447266,37.412109 Z"
     style="opacity:0.3;fill:url(#linearGradient10);fill-opacity:1" /><rect
     width="5.786"
     height="5.786"
     x="24.286"
     y="11.75"
     fill="#313131"
     rx="1.446"
     ry="1.446"
     id="rect2" /><rect
     width="5.786"
     height="5.786"
     x="24.286"
     y="46.464"
     fill="#313131"
     rx="1.446"
     ry="1.446"
     id="rect5" /></svg>
