<?xml version="1.0" encoding="UTF-8" standalone="no"?>
<svg
   width="64"
   height="64"
   version="1.1"
   id="svg3"
   sodipodi:docname="bleachbit.svg"
   xml:space="preserve"
   inkscape:version="1.3 (0e150ed6c4, 2023-07-21)"
   xmlns:inkscape="http://www.inkscape.org/namespaces/inkscape"
   xmlns:sodipodi="http://sodipodi.sourceforge.net/DTD/sodipodi-0.dtd"
   xmlns:xlink="http://www.w3.org/1999/xlink"
   xmlns="http://www.w3.org/2000/svg"
   xmlns:svg="http://www.w3.org/2000/svg"><defs
     id="defs3"><linearGradient
       id="linearGradient17"
       inkscape:collect="always"><stop
         style="stop-color:#be0000;stop-opacity:1"
         offset="0"
         id="stop17" /><stop
         style="stop-color:#e43031;stop-opacity:1"
         offset="0.49408948"
         id="stop21" /><stop
         style="stop-color:#f35c56;stop-opacity:1"
         offset="0.62517768"
         id="stop19" /><stop
         style="stop-color:#e23a3d;stop-opacity:1"
         offset="0.75433564"
         id="stop20" /><stop
         style="stop-color:#c31919;stop-opacity:1"
         offset="1"
         id="stop18" /></linearGradient><linearGradient
       id="linearGradient15"
       inkscape:collect="always"><stop
         style="stop-color:#d7b471;stop-opacity:1"
         offset="0"
         id="stop15" /><stop
         style="stop-color:#a46b0d;stop-opacity:1"
         offset="1"
         id="stop16" /></linearGradient><linearGradient
       id="linearGradient5"
       inkscape:collect="always"><stop
         style="stop-color:#87580b;stop-opacity:1"
         offset="0"
         id="stop5" /><stop
         style="stop-color:#a2690a;stop-opacity:1"
         offset="1"
         id="stop14" /></linearGradient><filter
       id="e"
       x="-0.059472452"
       y="-0.060536761"
       width="1.1189449"
       height="1.1210735"
       color-interpolation-filters="sRGB"><feGaussianBlur
         stdDeviation="1.3378352"
         id="feGaussianBlur8" /></filter><linearGradient
       id="linearGradient2168"
       x1="1.2395999"
       x2="15.693"
       y1="13.917"
       y2="13.917"
       gradientUnits="userSpaceOnUse"
       xlink:href="#linearGradient856"
       gradientTransform="matrix(3.779602,0,0,3.779602,2.2045745,9.2108259)" /><linearGradient
       id="linearGradient856"
       x1="-73.361"
       x2="-58.736"
       y1="6.9798999"
       y2="17.198"
       gradientTransform="translate(75.14,-0.97417)"
       gradientUnits="userSpaceOnUse"><stop
         stop-color="#3c3c3c"
         offset="0"
         id="stop8" /><stop
         stop-color="#1e1e1e"
         offset="1"
         id="stop9" /></linearGradient><filter
       id="m"
       x="-0.020047907"
       y="-0.17621261"
       width="1.0400958"
       height="1.3524252"
       color-interpolation-filters="sRGB"><feGaussianBlur
         stdDeviation="0.43981933"
         id="feGaussianBlur6" /></filter><linearGradient
       id="linearGradient2176"
       x1="20.388"
       x2="43.331001"
       y1="49"
       y2="49"
       gradientUnits="userSpaceOnUse"><stop
         offset="0"
         id="stop12" /><stop
         stop-opacity="0"
         offset="1"
         id="stop13" /></linearGradient><filter
       id="j"
       x="-0.086730791"
       y="-0.42391409"
       width="1.1734616"
       height="1.8478282"
       color-interpolation-filters="sRGB"><feGaussianBlur
         stdDeviation="0.70652346"
         id="feGaussianBlur3" /></filter><filter
       id="filter1"
       x="-0.086730793"
       y="-0.4239141"
       width="1.1734616"
       height="1.8478281"
       color-interpolation-filters="sRGB"><feGaussianBlur
         stdDeviation="0.70652346"
         id="feGaussianBlur1" /></filter><radialGradient
       id="g"
       cx="32"
       cy="53.195999"
       r="9.9091997"
       gradientTransform="matrix(1.4128152,5.3424674e-7,-1.680789e-7,0.49210418,-11.00589,30.848291)"
       gradientUnits="userSpaceOnUse"><stop
         stop-color="#636363"
         offset="0"
         id="stop1" /><stop
         stop-color="#424242"
         offset=".47277"
         id="stop2" /><stop
         stop-color="#373737"
         offset="1"
         id="stop3" /></radialGradient><linearGradient
       id="linearGradient952"
       x1="8.3205004"
       x2="8.3205004"
       y1="1.2559"
       y2="13.432"
       gradientUnits="userSpaceOnUse"
       xlink:href="#linearGradient856"
       gradientTransform="matrix(3.779602,0,0,3.779602,2.2045745,9.2108259)" /><filter
       id="k"
       x="-0.041258478"
       y="-0.1099396"
       width="1.082517"
       height="1.2198792"
       color-interpolation-filters="sRGB"><feGaussianBlur
         stdDeviation="0.34069824"
         id="feGaussianBlur7" /></filter><linearGradient
       id="linearGradient2136"
       x1="1.8645999"
       x2="15.069"
       y1="14.552"
       y2="14.552"
       gradientUnits="userSpaceOnUse"><stop
         offset="0"
         id="stop10" /><stop
         stop-opacity="0"
         offset="1"
         id="stop11" /></linearGradient><filter
       id="n"
       x="-0.019840479"
       y="-0.23809324"
       width="1.039681"
       height="1.4761865"
       color-interpolation-filters="sRGB"><feGaussianBlur
         stdDeviation="0.1049892"
         id="feGaussianBlur5" /></filter><radialGradient
       id="d"
       cx="7.9373002"
       cy="13.903"
       r="7.1420002"
       gradientTransform="matrix(4.2006497,1.7952354e-7,-2.0944287e-7,4.900632,-1.1348173,-10.533059)"
       gradientUnits="userSpaceOnUse"><stop
         stop-color="#4d4d4d"
         offset="0"
         id="stop6" /><stop
         stop-color="#4d4d4d"
         stop-opacity="0"
         offset="1"
         id="stop7" /></radialGradient><linearGradient
       inkscape:collect="always"
       xlink:href="#linearGradient861"
       id="linearGradient855"
       gradientUnits="userSpaceOnUse"
       gradientTransform="matrix(0.47236555,0,0,2.261286,-35.523259,-25.144032)"
       x1="80.591316"
       y1="28.206112"
       x2="80.591316"
       y2="37.08527" /><linearGradient
       inkscape:collect="always"
       id="linearGradient861"><stop
         style="stop-color:#ffb900;stop-opacity:1"
         offset="0"
         id="stop857" /><stop
         style="stop-color:#fbe700;stop-opacity:1"
         offset="1"
         id="stop859" /></linearGradient><linearGradient
       inkscape:collect="always"
       xlink:href="#linearGradient5"
       id="linearGradient14"
       x1="53.107285"
       y1="-32.808208"
       x2="53.107285"
       y2="-10.545006"
       gradientUnits="userSpaceOnUse"
       gradientTransform="matrix(0.80688349,0,0,1.0510733,-40.963804,50.70147)" /><linearGradient
       inkscape:collect="always"
       xlink:href="#linearGradient15"
       id="linearGradient16"
       x1="53.107285"
       y1="-31.071411"
       x2="53.107285"
       y2="-10.545006"
       gradientUnits="userSpaceOnUse"
       gradientTransform="matrix(0.57724103,0,0,0.98602648,-28.768116,48.615029)" /><linearGradient
       inkscape:collect="always"
       xlink:href="#linearGradient17"
       id="linearGradient18"
       x1="-13.183092"
       y1="38.333555"
       x2="11.852282"
       y2="38.333555"
       gradientUnits="userSpaceOnUse"
       gradientTransform="translate(2.5529942,-0.52113048)" /></defs><sodipodi:namedview
     id="namedview3"
     pagecolor="#ffffff"
     bordercolor="#000000"
     borderopacity="0.25"
     inkscape:showpageshadow="2"
     inkscape:pageopacity="0.0"
     inkscape:pagecheckerboard="0"
     inkscape:deskcolor="#d1d1d1"
     inkscape:zoom="5.734375"
     inkscape:cx="13.253406"
     inkscape:cy="21.449591"
     inkscape:window-width="1920"
     inkscape:window-height="941"
     inkscape:window-x="0"
     inkscape:window-y="34"
     inkscape:window-maximized="1"
     inkscape:current-layer="svg3" /><g
     id="g4"
     transform="translate(-2.2050667,-8.7304791)"><path
       transform="matrix(1.0000071,0,0,1.0000071,2.2045745,9.2108259)"
       d="M 14,5 C 13.45725,4.9990434 12.9869,5.089051 12.6055,5.2793 11.98493,5.51031 11.72196,5.94313 11.543,6.6484 l -6.5273,41.746 c -0.021015,0.22364 -0.00643,0.43929 0.037109,0.64648 0.00264,0.01257 0.0069,0.0246 0.00977,0.03711 -0.00671,0.41826 0.00691,0.85899 0.037109,1.3125 0.036851,1.9891 0.14217,2.4666 0.31836,4.5371 0.096546,1.7208 1.1493,3.1125 2.5762,3.1113 l 48.012,-0.03906 c 1.427,-0.0012 2.4796,-1.3515 2.5762,-3.0723 0.17617,-2.0706 0.28151,-2.55 0.31836,-4.5391 0.03005,-0.45129 0.04154,-0.88816 0.03516,-1.3047 0.0033,-0.01454 0.0087,-0.02836 0.01172,-0.04297 0.04354,-0.2072 0.0582,-0.4248 0.03711,-0.64844 l -7.5273,-41.742 c -0.179,-0.70535 -0.44193,-1.1382 -1.0625,-1.3691 -0.38144,-0.19021 -0.85178,-0.28025 -1.3945,-0.2793 h -17 l -18,-0.00195 z m 18,38.982 a 13.526,21.831 0 0 1 6.9766,3.1758 H 25.0176 A 13.526,21.831 0 0 1 32,43.982 Z"
       filter="url(#e)"
       opacity="0.35"
       stroke-width="3.7796"
       id="path13" /><path
       d="m 8.2526936,56.36892 c -0.9369633,0.163695 -0.9152306,1.698402 -0.8136349,3.23156 0.036662,1.989091 0.1416935,2.46687 0.3169914,4.537412 0.096059,1.720777 1.1429895,3.114014 2.5627209,3.112842 l 47.77039,-0.03908 c 1.41977,-0.0012 2.466682,-1.353022 2.562721,-3.073799 0.175298,-2.070579 0.280334,-2.548359 0.316958,-4.537412 0.101558,-1.533158 0.123291,-3.067676 -0.813635,-3.23156 h -48.14457 z"
       fill="url(#linearGradient2168)"
       stroke="#000000"
       stroke-opacity="0.19608"
       stroke-width="1.00001"
       id="path14"
       style="fill:url(#linearGradient2168)" /><g
       fill-rule="evenodd"
       id="g17"
       transform="matrix(3.779602,0,0,3.779602,2.2045745,9.2108259)"><path
         transform="scale(0.26458)"
         d="m 6.7715,45.307 c -0.6077,0 -1.0977,0.74583 -1.0977,1.6719 v 2.6465 c 0,0.92605 0.48996,1.6719 1.0977,1.6719 h 15.867 a 9.8639,5.1132 0 0 1 9.3613,-3.5117 9.8639,5.1132 0 0 1 9.3535,3.5117 h 15.875 c 0.6077,0 1.0977,-0.74583 1.0977,-1.6719 v -2.6465 c 0,-0.92605 -0.48996,-1.6719 -1.0977,-1.6719 H 6.7713 Z"
         filter="url(#m)"
         opacity="0.35"
         style="paint-order:stroke fill markers"
         id="path15" /><path
         transform="matrix(0.26458,0,0,0.26458,0,-0.26458)"
         d="m 31.855,47 a 10.294,5.7981 0 0 0 -9.7715,4 h 2.502 A 10.294,5.7981 0 0 1 31.855,49.3008 10.294,5.7981 0 0 1 39.1128,51 h 2.5215 A 10.294,5.7981 0 0 0 31.855,47 Z"
         fill="url(#linearGradient2176)"
         filter="url(#j)"
         opacity="0.35"
         style="fill:url(#linearGradient2176);paint-order:stroke fill markers"
         id="path16" /><path
         transform="matrix(0.26458,0,0,0.26458,0,-0.0071905)"
         d="m 31.855,47 a 10.294,5.7981 0 0 0 -9.7715,4 h 2.502 A 10.294,5.7981 0 0 1 31.855,49.3008 10.294,5.7981 0 0 1 39.1128,51 h 2.5215 A 10.294,5.7981 0 0 0 31.855,47 Z"
         fill="#00a2ef"
         filter="url(#j)"
         style="paint-order:stroke fill markers"
         id="path17" /></g><path
       d="m 34.204575,52.7594 a 13.525684,23.175008 0 0 0 -9.906337,7.437501 h 0.876943 a 10.294502,6.1550819 0 0 1 9.029469,-3.201323 10.294502,6.1550819 0 0 1 9.017753,3.201323 h 0.894518 A 13.525684,23.175008 0 0 0 34.204915,52.7594 Z"
       fill="url(#g)"
       id="path18"
       style="fill:url(#g);stroke-width:3.7796" /><path
       d="m 16.204598,14.210861 c -0.542751,-9.56e-4 -1.013122,0.08905 -1.394522,0.279302 -0.62061,0.231013 -0.883519,0.663811 -1.062521,1.369123 L 7.2201819,57.60499 c -0.021014,0.223639 -0.00643,0.439303 0.037116,0.646501 0.017424,0.08289 0.039758,0.164488 0.066408,0.244124 0.013304,0.03984 0.02744,0.07839 0.04297,0.117206 0.046553,0.116374 0.1030811,0.228855 0.1679693,0.335931 0.1081496,0.178435 0.2393622,0.343376 0.3906219,0.490214 0.030275,0.0291 0.062001,0.05817 0.093749,0.08595 0.1587509,0.13977 0.3352016,0.261322 0.5254025,0.36133 0.038034,0.01965 0.076178,0.0384 0.1152325,0.05666 0.3515106,0.164224 0.7436367,0.255879 1.1465045,0.255879 H 24.298283 a 13.526062,21.830981 0 0 1 9.906337,-7.00587 13.526062,21.830981 0 0 1 9.912006,7.00587 h 14.486081 c 0.939836,0 1.817233,-0.500797 2.271503,-1.24999 0.0649,-0.107 0.121401,-0.219519 0.167966,-0.335931 0.0155,-0.03878 0.03137,-0.07748 0.04494,-0.117205 0.02646,-0.07952 0.04706,-0.161313 0.06444,-0.244125 0.04354,-0.207197 0.05813,-0.424789 0.03704,-0.648428 L 53.661142,15.861175 C 53.48214,15.155826 53.219193,14.723062 52.59862,14.492052 52.217183,14.30184 51.746849,14.211799 51.204098,14.212751 H 16.20385 Z"
       fill="url(#linearGradient952)"
       id="path19"
       style="fill:url(#linearGradient952);stroke-width:3.7796" /><path
       transform="matrix(1.0000071,0,0,1.0000071,2.2045745,9.2108259)"
       d="m 32,43.549 a 13.526,23.175 0 0 0 -9.9062,7.4375 h 0.29688 a 13.526,23.175 0 0 1 9.6094,-6.9199 13.526,23.175 0 0 1 9.6035,6.9199 h 0.30859 a 13.526,23.175 0 0 0 -9.9121,-7.4375 z"
       filter="url(#k)"
       opacity="0.15"
       stroke-width="3.7796"
       id="path20" /><g
       fill-rule="evenodd"
       id="g22"
       transform="matrix(3.779602,0,0,3.779602,2.2045745,9.2108259)"><rect
         transform="matrix(1.0417,0,0,0.96682,-0.35277,0.50035)"
         x="2.1166"
         y="14.023"
         width="12.7"
         height="1.0583"
         rx="0.26458001"
         ry="0.29539001"
         fill="url(#linearGradient2136)"
         filter="url(#n)"
         opacity="0.1"
         style="fill:url(#linearGradient2136);paint-order:stroke fill markers"
         id="rect20" /><circle
         cx="14.155"
         cy="14.42"
         r="0.39686999"
         fill="#f44e24"
         style="paint-order:stroke fill markers"
         id="circle20" /><circle
         cx="12.871"
         cy="14.414"
         r="0.31443"
         fill="#ffb800"
         stroke-width="0.79226"
         style="paint-order:stroke fill markers"
         id="circle21" /><circle
         cx="11.669"
         cy="14.414"
         r="0.31443"
         fill="#00a2ef"
         stroke-width="0.79226"
         style="paint-order:stroke fill markers"
         id="circle22" /></g><path
       d="m 16.20611,14.210861 c -0.542751,-9.56e-4 -1.013084,0.08905 -1.394522,0.279313 -0.620573,0.231009 -0.88352,0.663811 -1.062484,1.369123 L 7.2217316,57.605001 c -0.021166,0.223639 -0.00643,0.439303 0.03704,0.646501 0.017386,0.08289 0.039761,0.164488 0.066408,0.244125 0.013229,0.03984 0.027591,0.07839 0.042974,0.117205 0.046565,0.116374 0.1030697,0.228855 0.1679655,0.335931 0.1081344,0.178435 0.2393622,0.343339 0.3906218,0.490214 0.030237,0.0291 0.061986,0.05817 0.093734,0.08595 0.1587433,0.139769 0.3352129,0.261321 0.5254024,0.361329 0.038023,0.01965 0.076159,0.03844 0.1152401,0.05666 0.351503,0.164223 0.7436367,0.255841 1.1464667,0.255841 H 24.299712 a 13.525684,21.830603 0 0 1 9.906337,-7.00587 13.525684,21.830603 0 0 1 9.912006,7.00587 h 14.486459 c 0.939798,0 1.817195,-0.500797 2.271465,-1.24999 0.0649,-0.107001 0.121401,-0.219519 0.167965,-0.335931 0.0155,-0.03878 0.03137,-0.07748 0.0449,-0.117205 0.02646,-0.07952 0.04706,-0.161314 0.06444,-0.244125 0.04354,-0.207198 0.05813,-0.424789 0.03704,-0.648429 L 53.662873,15.861149 C 53.483871,15.1558 53.220924,14.722997 52.600351,14.492026 52.218914,14.301799 51.74858,14.211768 51.205829,14.212713 H 34.205935 Z"
       fill="url(#d)"
       id="path22"
       style="fill:url(#d);stroke-width:3.7796" /></g><g
     id="g24"
     transform="matrix(1.1470787,0,0,1.1470787,-4.8025401,-4.0994624)"><rect
       id="rect835"
       width="9.6826019"
       height="25.22576"
       x="-2.9537134"
       y="16.21764"
       ry="4.841301"
       style="fill:url(#linearGradient14);fill-opacity:1;stroke-width:0.920921"
       transform="rotate(-30)" /><rect
       style="fill:url(#linearGradient855);fill-opacity:1;stroke-width:2.10491;stroke-linecap:round;stroke-linejoin:round;paint-order:stroke fill markers"
       id="rect853"
       width="25.035374"
       height="20.351572"
       x="-10.630098"
       y="38.217377"
       ry="0"
       transform="rotate(-30)" /><rect
       id="rect14"
       width="5.9243417"
       height="20.239578"
       x="-1.0745831"
       y="17.977798"
       ry="2.9621708"
       style="fill:url(#linearGradient16);fill-opacity:1;stroke-width:0.645244"
       transform="rotate(-30)" /><rect
       id="rect833"
       width="25.035374"
       height="7.2619514"
       x="-10.630098"
       y="34.18145"
       ry="0.58440888"
       style="fill:url(#linearGradient18)"
       transform="rotate(-30)" /><g
       id="g980"
       transform="matrix(0.40908056,-0.23618277,0.40344174,0.6987816,-5.6696261,16.636139)"><path
         style="fill:#ffb700;fill-opacity:1;stroke:none;stroke-width:1px;stroke-linecap:butt;stroke-linejoin:miter;stroke-opacity:1"
         d="M 5.812235,58.322895 H 6.2941816 L 6.0590129,50.003915 Z"
         id="path863" /><path
         style="fill:#ffb700;fill-opacity:1;stroke:none;stroke-width:0.69354px;stroke-linecap:butt;stroke-linejoin:miter;stroke-opacity:1"
         d="M 6.6719667,58.322895 H 7.1539133 L 6.9187446,54.321483 Z"
         id="path865" /><path
         style="fill:#ffb700;fill-opacity:1;stroke:none;stroke-width:0.729134px;stroke-linecap:butt;stroke-linejoin:miter;stroke-opacity:1"
         d="M 7.7266932,58.322895 H 8.2086398 L 7.9734711,53.900225 Z"
         id="path867" /><path
         style="fill:#ffb700;fill-opacity:1;stroke:none;stroke-width:0.66603px;stroke-linecap:butt;stroke-linejoin:miter;stroke-opacity:1"
         d="M 8.9074074,58.322895 H 9.389354 L 9.1541853,54.632636 Z"
         id="path869" /><path
         style="fill:#ffb700;fill-opacity:1;stroke:none;stroke-width:0.743844px;stroke-linecap:butt;stroke-linejoin:miter;stroke-opacity:1"
         d="M 9.7998217,58.322895 H 10.281768 L 10.0466,53.719979 Z"
         id="path871" /><path
         style="fill:#ffb700;fill-opacity:1;stroke:none;stroke-width:0.743844px;stroke-linecap:butt;stroke-linejoin:miter;stroke-opacity:1"
         d="m 10.912947,58.322895 h 0.481946 l -0.235168,-4.602916 z"
         id="path873" /><path
         style="fill:#ffb700;fill-opacity:1;stroke:none;stroke-width:1.00535px;stroke-linecap:butt;stroke-linejoin:miter;stroke-opacity:1"
         d="m 11.920331,58.322895 h 0.651376 l -0.317842,-6.221091 z"
         id="path875" /><path
         style="fill:#ffb700;fill-opacity:1;stroke:none;stroke-width:0.719706px;stroke-linecap:butt;stroke-linejoin:miter;stroke-opacity:1"
         d="m 12.979595,58.322895 h 0.651376 l -0.317842,-3.188174 z"
         id="path877" /><path
         style="fill:#ffb700;fill-opacity:1;stroke:none;stroke-width:0.65725px;stroke-linecap:butt;stroke-linejoin:miter;stroke-opacity:1"
         d="m 14.159497,58.322895 h 0.481946 l -0.235168,-3.593604 z"
         id="path879" /><path
         style="fill:#ffb700;fill-opacity:1;stroke:none;stroke-width:0.838379px;stroke-linecap:butt;stroke-linejoin:miter;stroke-opacity:1"
         d="m 15.127434,58.322895 h 0.614764 l -0.299977,-4.583952 z"
         id="path881" /><path
         style="fill:#ffb700;fill-opacity:1;stroke:none;stroke-width:0.635701px;stroke-linecap:butt;stroke-linejoin:miter;stroke-opacity:1"
         d="m 17.260429,58.322895 h 0.466144 l -0.227457,-3.475783 z"
         id="path883" /><path
         style="fill:#ffb700;fill-opacity:1;stroke:none;stroke-width:1.04423px;stroke-linecap:butt;stroke-linejoin:miter;stroke-opacity:1"
         d="m 19.426722,58.322895 h 0.765712 l -0.373633,-5.709493 z"
         id="path885" /><path
         style="fill:#ffffff;fill-opacity:1;stroke:none;stroke-width:1.7875px;stroke-linecap:butt;stroke-linejoin:miter;stroke-opacity:1"
         d="m 20.667897,58.322895 h 1.310736 l -0.63958,-9.773433 z"
         id="path887" /><path
         style="fill:#ffffff;fill-opacity:1;stroke:none;stroke-width:0.703294px;stroke-linecap:butt;stroke-linejoin:miter;stroke-opacity:1"
         d="m 22.980011,58.322895 h 0.51571 l -0.251643,-3.845368 z"
         id="path889" /><path
         style="fill:#ffb700;fill-opacity:1;stroke:none;stroke-width:0.436683px;stroke-linecap:butt;stroke-linejoin:miter;stroke-opacity:1"
         d="m 24.025819,58.322895 h 0.32021 l -0.156248,-2.387626 z"
         id="path891" /><path
         style="fill:#ffb700;fill-opacity:1;stroke:none;stroke-width:0.648977px;stroke-linecap:butt;stroke-linejoin:miter;stroke-opacity:1"
         d="m 25.032127,58.322895 h 0.47588 l -0.232208,-3.548372 z"
         id="path893" /><path
         style="fill:#ffb700;fill-opacity:1;stroke:none;stroke-width:0.648977px;stroke-linecap:butt;stroke-linejoin:miter;stroke-opacity:1"
         d="m 25.839846,58.322895 h 0.47588 l -0.232208,-3.548372 z"
         id="path895" /><path
         style="fill:#ffb700;fill-opacity:1;stroke:none;stroke-width:1.48985px;stroke-linecap:butt;stroke-linejoin:miter;stroke-opacity:1"
         d="m 27.362916,58.322895 h 1.092472 L 27.922311,50.17694 Z"
         id="path897" /><path
         style="fill:#ffb700;fill-opacity:1;stroke:none;stroke-width:1.7559px;stroke-linecap:butt;stroke-linejoin:miter;stroke-opacity:1"
         d="m 29.098815,58.322895 h 1.287562 l -0.628272,-9.600633 z"
         id="path899" /><path
         style="fill:#ffb700;fill-opacity:1;stroke:none;stroke-width:0.563184px;stroke-linecap:butt;stroke-linejoin:miter;stroke-opacity:1"
         d="m 32.19482,58.322895 h 0.41297 L 32.406279,55.24361 Z"
         id="path901" /><path
         style="fill:#ffb700;fill-opacity:1;stroke:none;stroke-width:0.563184px;stroke-linecap:butt;stroke-linejoin:miter;stroke-opacity:1"
         d="m 33.023949,58.322895 h 0.41297 L 33.235408,55.24361 Z"
         id="path903" /><path
         style="fill:#ffb700;fill-opacity:1;stroke:none;stroke-width:0.983388px;stroke-linecap:butt;stroke-linejoin:miter;stroke-opacity:1"
         d="m 33.908658,58.322895 h 0.721096 l -0.351863,-5.376808 z"
         id="path905" /><path
         style="fill:#ffb700;fill-opacity:1;stroke:none;stroke-width:0.684067px;stroke-linecap:butt;stroke-linejoin:miter;stroke-opacity:1"
         d="m 35.511906,58.322895 h 0.50161 l -0.244763,-3.740228 z"
         id="path907" /><path
         style="fill:#ffb700;fill-opacity:1;stroke:none;stroke-width:0.684067px;stroke-linecap:butt;stroke-linejoin:miter;stroke-opacity:1"
         d="m 36.519001,58.322895 h 0.50161 l -0.244764,-3.740228 z"
         id="path909" /><path
         style="fill:#ffb700;fill-opacity:1;stroke:none;stroke-width:0.563184px;stroke-linecap:butt;stroke-linejoin:miter;stroke-opacity:1"
         d="m 37.315977,58.322895 h 0.41297 L 37.527436,55.24361 Z"
         id="path911" /><path
         style="fill:#ffb700;fill-opacity:1;stroke:none;stroke-width:0.701221px;stroke-linecap:butt;stroke-linejoin:miter;stroke-opacity:1"
         d="m 39.556733,58.322895 h 0.51419 l -0.250902,-3.834019 z"
         id="path913" /><path
         style="fill:#ffb700;fill-opacity:1;stroke:none;stroke-width:1.00138px;stroke-linecap:butt;stroke-linejoin:miter;stroke-opacity:1"
         d="m 41.14179,58.322895 h 0.73429 l -0.358301,-5.475177 z"
         id="path915" /><path
         style="fill:#ffb700;fill-opacity:1;stroke:none;stroke-width:0.435762px;stroke-linecap:butt;stroke-linejoin:miter;stroke-opacity:1"
         d="m 43.984109,58.322895 h 0.319534 l -0.155918,-2.382589 z"
         id="path917" /><path
         style="fill:#ffb700;fill-opacity:1;stroke:none;stroke-width:0.523415px;stroke-linecap:butt;stroke-linejoin:miter;stroke-opacity:1"
         d="m 44.543273,58.322895 h 0.383808 L 44.7398,55.461051 Z"
         id="path919" /><path
         style="fill:#ffb700;fill-opacity:1;stroke:none;stroke-width:0.658278px;stroke-linecap:butt;stroke-linejoin:miter;stroke-opacity:1"
         d="m 45.341966,58.322895 h 0.4827 L 45.58913,54.723668 Z"
         id="path921" /><path
         style="fill:#ffb700;fill-opacity:1;stroke:none;stroke-width:0.625905px;stroke-linecap:butt;stroke-linejoin:miter;stroke-opacity:1"
         d="m 46.206109,58.322895 h 0.458962 l -0.223953,-3.422221 z"
         id="path923" /><path
         style="fill:#ffb700;fill-opacity:1;stroke:none;stroke-width:0.407054px;stroke-linecap:butt;stroke-linejoin:miter;stroke-opacity:1"
         d="m 47.72566,58.322895 h 0.298484 l -0.145647,-2.225622 z"
         id="path925" /><path
         style="fill:#ffb700;fill-opacity:1;stroke:none;stroke-width:0.914315px;stroke-linecap:butt;stroke-linejoin:miter;stroke-opacity:1"
         d="m 48.410948,58.322895 h 0.670448 l -0.327149,-4.99914 z"
         id="path927" /><path
         style="fill:#ffb700;fill-opacity:1;stroke:none;stroke-width:0.60507px;stroke-linecap:butt;stroke-linejoin:miter;stroke-opacity:1"
         d="m 49.619091,58.322895 h 0.443684 l -0.216498,-3.3083 z"
         id="path929" /><path
         style="fill:#ffb700;fill-opacity:1;stroke:none;stroke-width:0.717225px;stroke-linecap:butt;stroke-linejoin:miter;stroke-opacity:1"
         d="m 50.467437,58.322895 h 0.525924 l -0.256627,-3.921521 z"
         id="path931" /><path
         style="fill:#ffb700;fill-opacity:1;stroke:none;stroke-width:1.68809px;stroke-linecap:butt;stroke-linejoin:miter;stroke-opacity:1"
         d="m 51.83271,58.322895 h 1.237832 l -0.604006,-9.229826 z"
         id="path933" /><path
         style="fill:#ffb700;fill-opacity:1;stroke:none;stroke-width:2.01093px;stroke-linecap:butt;stroke-linejoin:miter;stroke-opacity:1"
         d="m 54.986564,58.322895 h 1.474562 l -0.71952,-10.994988 z"
         id="path935" /><path
         style="fill:#ffb700;fill-opacity:1;stroke:none;stroke-width:2.01093px;stroke-linecap:butt;stroke-linejoin:miter;stroke-opacity:1"
         d="m 56.983654,58.322895 h 1.474562 l -0.71952,-10.994988 z"
         id="path937" /><path
         style="fill:#ffb700;fill-opacity:1;stroke:none;stroke-width:0.61971px;stroke-linecap:butt;stroke-linejoin:miter;stroke-opacity:1"
         d="m 53.853087,58.322895 h 0.454418 L 54.08577,54.934551 Z"
         id="path939" /></g></g></svg>
