<?xml version="1.0" encoding="UTF-8" standalone="no"?>
<svg
   width="64"
   height="64"
   version="1.1"
   id="svg1"
   sodipodi:docname="blockbench.svg"
   inkscape:version="1.3 (0e150ed6c4, 2023-07-21)"
   xmlns:inkscape="http://www.inkscape.org/namespaces/inkscape"
   xmlns:sodipodi="http://sodipodi.sourceforge.net/DTD/sodipodi-0.dtd"
   xmlns="http://www.w3.org/2000/svg"
   xmlns:svg="http://www.w3.org/2000/svg">
  <defs
     id="defs1" />
  <sodipodi:namedview
     id="namedview1"
     pagecolor="#ffffff"
     bordercolor="#000000"
     borderopacity="0.25"
     inkscape:showpageshadow="2"
     inkscape:pageopacity="0.0"
     inkscape:pagecheckerboard="0"
     inkscape:deskcolor="#d1d1d1"
     inkscape:zoom="5.734375"
     inkscape:cx="21.798365"
     inkscape:cy="46.212534"
     inkscape:window-width="1920"
     inkscape:window-height="941"
     inkscape:window-x="0"
     inkscape:window-y="34"
     inkscape:window-maximized="1"
     inkscape:current-layer="svg1" />
  <g
     id="g1"
     transform="matrix(1.0769231,0,0,1.0769231,-2.4615392,-2.4615392)">
    <rect
       width="52"
       height="52"
       x="6"
       y="6"
       fill="#212e3c"
       rx="8"
       ry="8"
       id="rect1" />
    <path
       fill="#ffffff"
       d="m 32.88,45.954 c -0.2,-0.163 -0.208,-0.206 -0.1,-0.612 0.124,-0.463 1.374,-4.028 1.44,-4.105 0.02,-0.025 0.333,0.03 0.695,0.123 0.36,0.093 0.761,0.168 0.889,0.168 0.253,-10e-4 1.08,-0.432 2.878,-1.5 0.634,-0.375 1.182,-0.654 1.218,-0.618 0.036,0.035 -0.105,0.837 -0.312,1.78 -0.287,1.31 -0.426,1.765 -0.588,1.92 -0.506,0.488 -5.314,3.013 -5.744,3.017 -0.088,10e-4 -0.257,-0.077 -0.376,-0.173 z M 17.276,40.662 c -0.09,-0.098 -0.162,-0.241 -0.161,-0.318 0,-0.13 1.386,-3.162 1.624,-3.555 0.1,-0.166 0.22,-0.147 2.056,0.337 1.072,0.282 1.984,0.544 2.027,0.581 0.118,0.104 -0.31,1.16 -0.603,1.486 -0.217,0.242 -0.605,0.398 -2.412,0.966 -1.185,0.373 -2.203,0.679 -2.262,0.68 -0.059,0.001 -0.18,-0.078 -0.27,-0.177 z m 17.659,-0.366 c -0.56,-0.178 -7.49,-2.174 -15.793,-4.547 -3.543,-1.013 -6.55,-1.913 -6.683,-2 -0.308,-0.202 -0.318,-0.588 -0.02,-0.78 0.318,-0.204 8.455,-1.358 9.221,-1.307 0.683,0.045 23.459,3.392 23.576,3.464 0.121,0.075 0.09,0.491 -0.045,0.603 -0.333,0.276 -9.354,4.72 -9.569,4.714 -0.136,-0.003 -0.445,-0.07 -0.688,-0.147 z m 4.21,-7.34 a 6953.76,6953.76 0 0 0 -11.064,-1.46 c -5.644,-0.736 -5.58,-0.723 -5.58,-1.173 0,-0.118 0.216,-1.16 0.48,-2.314 0.264,-1.154 0.688,-3.069 0.942,-4.254 0.473,-2.207 0.607,-2.62 0.904,-2.777 0.28,-0.149 23.802,-1.735 23.988,-1.618 a 0.967,0.967 0 0 1 0.254,0.252 c 0.096,0.153 0.067,0.314 -1.86,10.258 -0.4,2.07 -0.776,3.822 -0.834,3.892 -0.058,0.07 -0.155,0.123 -0.216,0.118 -0.06,-0.005 -3.217,-0.421 -7.013,-0.925 z"
       id="path1" />
  </g>
</svg>
