<?xml version="1.0" encoding="UTF-8"?>
<svg width="64" height="64" version="1.1" xmlns="http://www.w3.org/2000/svg" xmlns:cc="http://creativecommons.org/ns#" xmlns:dc="http://purl.org/dc/elements/1.1/" xmlns:rdf="http://www.w3.org/1999/02/22-rdf-syntax-ns#" xmlns:xlink="http://www.w3.org/1999/xlink">
 <metadata>
  <rdf:RDF>
   <cc:Work rdf:about="">
    <dc:format>image/svg+xml</dc:format>
    <dc:type rdf:resource="http://purl.org/dc/dcmitype/StillImage"/>
   </cc:Work>
  </rdf:RDF>
 </metadata>
 <defs>
  <linearGradient id="linearGradient116796">
   <stop stop-color="#346a8a" offset="0"/>
   <stop stop-color="#0e3f5d" stop-opacity="0" offset="1"/>
  </linearGradient>
  <linearGradient id="linearGradient3534" x1="-92.268" x2="-92.268" y1="2.6475" y2="55.732" gradientUnits="userSpaceOnUse">
   <stop stop-color="#2beeff" offset="0"/>
   <stop stop-color="#07366a" offset="1"/>
  </linearGradient>
  <linearGradient id="linearGradient10872" x1="-84.433" x2="-64.25" y1="20.404" y2="21.573" gradientUnits="userSpaceOnUse">
   <stop stop-color="#ccba21" offset="0"/>
   <stop stop-color="#fff968" offset="1"/>
  </linearGradient>
  <linearGradient id="linearGradient19781" x1="-83.324" x2="-74.805" y1="25.132" y2="28.084" gradientUnits="userSpaceOnUse">
   <stop stop-color="#ccba21" offset="0"/>
   <stop stop-color="#e7af00" offset="1"/>
  </linearGradient>
  <linearGradient id="linearGradient26999" x1="-63.982" x2="-64.277" y1="24.94" y2="39.01" gradientUnits="userSpaceOnUse">
   <stop stop-color="#f1641f" offset="0"/>
   <stop stop-color="#bb2605" offset="1"/>
  </linearGradient>
  <linearGradient id="linearGradient37009" x1="-73.357" x2="-64.275" y1="29.32" y2="39.395" gradientUnits="userSpaceOnUse">
   <stop stop-color="#d54918" offset="0"/>
   <stop stop-color="#591302" offset="1"/>
  </linearGradient>
  <linearGradient id="linearGradient47085" x1="-94.707" x2="-94.707" y1="10.594" y2="22.16" gradientUnits="userSpaceOnUse">
   <stop stop-color="#fffeff" offset="0"/>
   <stop stop-color="#a0d1dd" offset="1"/>
  </linearGradient>
  <linearGradient id="linearGradient53566" x1="-94.675" x2="-94.675" y1="14.336" y2="18.29" gradientUnits="userSpaceOnUse">
   <stop stop-color="#0e1515" offset="0"/>
   <stop stop-color="#222829" offset="1"/>
  </linearGradient>
  <linearGradient id="linearGradient60076" x1="-92.559" x2="-93.895" y1="13.512" y2="15.203" gradientUnits="userSpaceOnUse">
   <stop stop-color="#fff" offset="0"/>
   <stop stop-color="#fff" stop-opacity=".2" offset="1"/>
  </linearGradient>
  <linearGradient id="linearGradient60382" x1="-124.94" x2="-88.101" y1="35.33" y2="47.799" gradientUnits="userSpaceOnUse">
   <stop stop-color="#052d49" offset="0"/>
   <stop stop-color="#0e3f5d" offset="1"/>
  </linearGradient>
  <linearGradient id="linearGradient111453" x1="-122.06" x2="-102.12" y1="27.999" y2="28.763" gradientUnits="userSpaceOnUse">
   <stop stop-color="#174666" offset="0"/>
   <stop stop-color="#0f2e46" offset="1"/>
  </linearGradient>
  <linearGradient id="linearGradient115726" x1="-105.59" x2="-111.12" y1="29.862" y2="43.347" gradientUnits="userSpaceOnUse" xlink:href="#linearGradient116796"/>
  <linearGradient id="linearGradient122496" x1="-88.588" x2="-107.33" y1="50.081" y2="54.468" gradientUnits="userSpaceOnUse" xlink:href="#linearGradient116796"/>
 </defs>
 <g transform="matrix(.97648 0 0 .97648 123.78 3.7475)">
  <path d="m-123.87 27.581s9.5896-7.073 16.554-6.5934c6.9643 0.47963 10.174 12.611 1.8101 15.801-8.364 3.1899-17.001-6.1763-18.364-9.2072z" fill="url(#linearGradient111453)"/>
  <path d="m-70.428 32.362s0.01391 13.907-9.5744 19.916c-9.5883 6.0089-12.941 6.003-22.039 4.2821-9.0975-1.7209-4.6439-11.553-5.5029-15.828-0.859-4.2749-5.8658-17.325-3.1122-24.213 0 0-4.0958-2.0245-4.1884-2.4845-0.0925-0.46002 0.91735-0.2481 3.9402-3.1689 3.0228-2.9208 11.391-10.663 18.979-10.551s16.298 3.9027 19.407 11.283c3.1088 7.3804 2.0907 20.765 2.0907 20.765z" fill="url(#linearGradient3534)"/>
  <path d="m-126.76 34.481s9.7178-5.3985 19.818-4.2755c10.1 1.123 17.648 3.8085 19.463 11.011 1.8156 7.2029-4.0552 17.44-14.559 15.343-10.504-2.0968-22.737-14.688-24.722-22.079z" fill="url(#linearGradient60382)"/>
  <g fill-rule="evenodd">
   <circle cx="-94.707" cy="16.377" r="6.4135" fill="#3dc9e1" style="paint-order:stroke fill markers"/>
   <circle cx="-94.707" cy="16.377" r="5.7832" fill="url(#linearGradient47085)" style="paint-order:stroke fill markers"/>
   <circle cx="-94.707" cy="16.321" r="3.7344" fill="#344b51" style="paint-order:stroke fill markers"/>
  </g>
  <path d="m-72.849 27.139c-0.06757-0.03899-0.13055-0.07847-0.19922-0.11719-0.29994-0.16914-0.59675-0.32896-0.89062-0.48047-0.29387-0.15151-0.58545-0.29502-0.87305-0.42969-0.2876-0.13467-0.57241-0.26028-0.85352-0.37891-0.28111-0.11863-0.55763-0.2306-0.83203-0.33398-0.2744-0.10338-0.54501-0.19817-0.8125-0.28711-0.26749-0.08894-0.53261-0.17081-0.79297-0.24609-0.26036-0.07529-0.51652-0.1446-0.76953-0.20703-0.25301-0.06243-0.50259-0.11759-0.74805-0.16797-0.24545-0.05037-0.48692-0.09565-0.72461-0.13476-0.23768-0.03911-0.47147-0.07291-0.70117-0.10156-0.2297-0.02865-0.45623-0.05133-0.67773-0.07031-0.2215-0.01898-0.4373-0.03481-0.65039-0.04492-0.21309-0.01011-0.42249-0.01554-0.62695-0.01758-0.20446-2e-3 -0.40398 6.2e-4 -0.59961 0.0059-0.39125 0.01048-0.76453 0.03355-1.1191 0.06836-0.08181 8e-3 -0.15262 0.02213-0.23242 0.03125 0.96703 1.9384 2.6464 3.5729 4.9668 4.5488 1.2815 0.539 2.9192 0.94796 4.7715 1.6816 0.07688-0.15179 0.15157-0.30027 0.24805-0.47266 0.06774-0.12104 0.14091-0.2476 0.21875-0.37695 0.07784-0.12936 0.15974-0.26228 0.24805-0.39844 0.08831-0.13616 0.18211-0.27456 0.28125-0.41602 0.09914-0.14145 0.20412-0.28641 0.31445-0.43164 0.11034-0.14523 0.22576-0.29196 0.34766-0.43945s0.25094-0.29511 0.38476-0.44336c0.10264-0.1137 0.21243-0.22649 0.32227-0.33984z" fill="url(#linearGradient19781)"/>
  <path d="m-72.849 27.139c-0.10984 0.11336-0.21963 0.22614-0.32227 0.33984-0.13382 0.14825-0.26287 0.29586-0.38476 0.44336s-0.23732 0.29422-0.34766 0.43945c-0.11034 0.14523-0.21531 0.29019-0.31445 0.43164-0.09914 0.14145-0.19294 0.27986-0.28125 0.41602-0.08831 0.13616-0.1702 0.26908-0.24805 0.39844-0.07784 0.12936-0.15101 0.25592-0.21875 0.37695-0.09648 0.17239-0.17117 0.32086-0.24805 0.47266 3.2263 1.2779 7.1078 3.5486 10.922 9.2617 0 0 0.01332-0.11447 0.01758-0.32422 0.0021-0.10487 0.0031-0.23416-2e-3 -0.38476s-0.01543-0.32181-0.0332-0.51367-0.0441-0.40416-0.08008-0.63281c-0.03598-0.22865-0.08287-0.4734-0.14258-0.73438-0.0597-0.26097-0.13177-0.53735-0.2207-0.82617-0.08893-0.28882-0.19469-0.59015-0.31836-0.90234-0.06183-0.1561-0.12766-0.31546-0.19922-0.47656-0.07155-0.1611-0.14851-0.32468-0.23047-0.49023-0.08196-0.16555-0.16867-0.33251-0.26172-0.50195-0.09305-0.16944-0.19204-0.3409-0.29688-0.51367s-0.21668-0.3479-0.33398-0.52344-0.24063-0.35154-0.37109-0.5293-0.26779-0.3577-0.41211-0.53711c-0.14432-0.17941-0.29427-0.35856-0.45312-0.53906-0.15885-0.1805-0.32592-0.36193-0.5-0.54297-0.17408-0.18104-0.35688-0.36196-0.54688-0.54297s-0.38716-0.36254-0.59375-0.54297c-0.2066-0.18043-0.4226-0.35977-0.64648-0.53906-0.22389-0.17929-0.4554-0.35756-0.69727-0.53516-0.24186-0.17759-0.49337-0.35396-0.75391-0.5293-0.26053-0.17533-0.53066-0.34897-0.81055-0.52148-0.21581-0.13302-0.44235-0.26515-0.66992-0.39648z" fill="url(#linearGradient37009)"/>
  <path d="m-61.986 23.406c-0.15436-0.01352-0.31366-0.0336-0.46484-0.04297-0.35632-0.02209-0.70403-0.03306-1.043-0.0332-0.33894-1.41e-4 -0.66831 9e-3 -0.99023 0.0293s-0.63614 0.05063-0.94141 0.08984c-0.30527 0.03922-0.60164 0.0879-0.89062 0.14453-0.28898 0.05663-0.57069 0.12279-0.84375 0.19531-0.27306 0.07253-0.53742 0.15137-0.79492 0.23828-0.2575 0.08691-0.5077 0.18147-0.75 0.28125-0.2423 0.09978-0.47761 0.20527-0.70508 0.31641s-0.44716 0.22668-0.66016 0.34766c-0.213 0.12098-0.4183 0.24765-0.61719 0.37695-0.19889 0.1293-0.39102 0.26232-0.57617 0.39844-0.18515 0.13612-0.36338 0.27459-0.53516 0.41602-0.17177 0.14142-0.33734 0.28643-0.49609 0.43164-0.15876 0.14521-0.31092 0.29197-0.45703 0.43945-0.03405 0.03437-0.06428 0.06907-0.09766 0.10352 0.22757 0.13134 0.45411 0.26346 0.66992 0.39648 0.27989 0.17252 0.55001 0.34615 0.81055 0.52148 0.26053 0.17533 0.51204 0.3517 0.75391 0.5293 0.24186 0.17759 0.47338 0.35586 0.69727 0.53516 0.22388 0.17929 0.43989 0.35863 0.64648 0.53906 0.20659 0.18043 0.40376 0.36196 0.59375 0.54297s0.3728 0.36193 0.54688 0.54297c0.17408 0.18104 0.34115 0.36247 0.5 0.54297 0.15885 0.1805 0.30881 0.35966 0.45312 0.53906 0.14432 0.17941 0.28164 0.35936 0.41211 0.53711s0.25379 0.35376 0.37109 0.5293 0.22915 0.35067 0.33398 0.52344 0.20382 0.34423 0.29688 0.51367c0.09305 0.16944 0.17976 0.3364 0.26172 0.50195 0.08196 0.16555 0.15892 0.32913 0.23047 0.49023 0.07155 0.1611 0.13738 0.32046 0.19922 0.47656 0.12367 0.3122 0.22943 0.61352 0.31836 0.90234 0.08893 0.28882 0.161 0.5652 0.2207 0.82617 0.0597 0.26097 0.1066 0.50572 0.14258 0.73438 0.03598 0.22865 0.06231 0.44095 0.08008 0.63281s0.02814 0.36307 0.0332 0.51367c0.0051 0.1506 0.0041 0.27989 2e-3 0.38476-0.0043 0.20974-0.01758 0.32422-0.01758 0.32422s4.9189-6.4036 2.3066-16.312z" fill="url(#linearGradient26999)"/>
  <path d="m-76.74 10.24c-1.9514 0.09733-3.8162 0.65571-5.3047 1.8652-4.0991 3.3309-4.7819 8.3653-2.9082 12.121 0.0798-0.0091 0.15061-0.02322 0.23242-0.03125 0.35461-0.03481 0.72789-0.05788 1.1191-0.06836 0.19562-0.0052 0.39515-0.0079 0.59961-0.0059s0.41386 0.0075 0.62695 0.01758c0.21309 0.01011 0.42889 0.02594 0.65039 0.04492 0.2215 0.01898 0.44804 0.04166 0.67773 0.07031 0.2297 0.02865 0.46349 0.06245 0.70117 0.10156 0.23768 0.03911 0.47916 0.08439 0.72461 0.13476 0.24546 0.05037 0.49504 0.10554 0.74805 0.16797 0.25301 0.06243 0.50918 0.13174 0.76953 0.20703 0.26036 0.07529 0.52548 0.15716 0.79297 0.24609 0.26749 0.08894 0.5381 0.18372 0.8125 0.28711 0.2744 0.10338 0.55092 0.21536 0.83203 0.33398 0.28111 0.11863 0.56592 0.24424 0.85352 0.37891 0.2876 0.13467 0.57918 0.27818 0.87305 0.42969 0.29387 0.15151 0.59069 0.31133 0.89062 0.48047 0.06867 0.03872 0.13165 0.07819 0.19922 0.11719 0.03337-0.03444 0.06361-0.06914 0.09766-0.10352 0.14611-0.14749 0.29827-0.29424 0.45703-0.43945 0.15876-0.14521 0.32432-0.29022 0.49609-0.43164 0.17177-0.14142 0.35001-0.2799 0.53516-0.41602 0.18515-0.13612 0.37728-0.26913 0.57617-0.39844 0.19889-0.1293 0.40419-0.25598 0.61719-0.37695 0.213-0.12098 0.43269-0.23652 0.66016-0.34766s0.46278-0.21663 0.70508-0.31641c0.2423-0.09978 0.4925-0.19434 0.75-0.28125 0.2575-0.08691 0.52186-0.16576 0.79492-0.23828 0.27306-0.07253 0.55477-0.13868 0.84375-0.19531 0.28898-0.05663 0.58536-0.10531 0.89062-0.14453 0.30527-0.03922 0.61948-0.06955 0.94141-0.08984 0.32192-0.0203 0.6513-0.02944 0.99023-0.0293 0.33894 1.41e-4 0.68665 0.01111 1.043 0.0332 0.15119 0.0094 0.31048 0.02945 0.46484 0.04297-0.0075-0.02829-0.0139-0.05564-0.02148-0.08398-1.974-7.2515-9.4252-13.347-14.732-13.082z" fill="url(#linearGradient10872)"/>
  <g fill-rule="evenodd">
   <circle cx="-76.863" cy="14.699" r="1.168" fill="#463907" style="paint-order:stroke fill markers"/>
   <circle cx="-94.707" cy="16.321" r="2.681" fill="url(#linearGradient53566)" style="paint-order:stroke fill markers"/>
   <circle cx="-93.321" cy="14.337" r="1.2537" fill="url(#linearGradient60076)" style="paint-order:stroke fill markers"/>
  </g>
  <path d="m-126.76 34.481s9.7178-5.3985 19.818-4.2755c10.1 1.123 17.648 3.8085 19.463 11.011 1.8156 7.2029-4.0552 17.44-14.559 15.343-10.504-2.0968-22.737-14.688-24.722-22.079z" fill="url(#linearGradient115726)"/>
  <path d="m-126.76 34.481s9.7178-5.3985 19.818-4.2755c10.1 1.123 17.648 3.8085 19.463 11.011 1.8156 7.2029-4.0552 17.44-14.559 15.343-10.504-2.0968-22.737-14.688-24.722-22.079z" fill="url(#linearGradient122496)"/>
  <path d="m-123.87 27.581s9.5896-7.073 16.554-6.5934c6.9643 0.47963 10.174 12.611 1.8101 15.801-8.364 3.1899-17.001-6.1763-18.364-9.2072z" fill="url(#linearGradient111453)"/>
  <path d="m-70.428 32.362s0.01391 13.907-9.5744 19.916c-9.5883 6.0089-12.941 6.003-22.039 4.2821-9.0975-1.7209-4.6439-11.553-5.5029-15.828-0.859-4.2749-5.8658-17.325-3.1122-24.213 0 0-4.0958-2.0245-4.1884-2.4845-0.0925-0.46002 0.91735-0.2481 3.9402-3.1689 3.0228-2.9208 11.391-10.663 18.979-10.551s16.298 3.9027 19.407 11.283c3.1088 7.3804 2.0907 20.765 2.0907 20.765z" fill="url(#linearGradient3534)"/>
  <path d="m-126.76 34.481s9.7178-5.3985 19.818-4.2755c10.1 1.123 17.648 3.8085 19.463 11.011 1.8156 7.2029-4.0552 17.44-14.559 15.343-10.504-2.0968-22.737-14.688-24.722-22.079z" fill="url(#linearGradient60382)"/>
  <g fill-rule="evenodd">
   <circle cx="-94.707" cy="16.377" r="6.4135" fill="#3dc9e1" style="paint-order:stroke fill markers"/>
   <circle cx="-94.707" cy="16.377" r="5.7832" fill="url(#linearGradient47085)" style="paint-order:stroke fill markers"/>
   <circle cx="-94.707" cy="16.321" r="3.7344" fill="#344b51" style="paint-order:stroke fill markers"/>
  </g>
  <path d="m-72.849 27.139c-0.06757-0.03899-0.13055-0.07847-0.19922-0.11719-0.29994-0.16914-0.59675-0.32896-0.89062-0.48047-0.29387-0.15151-0.58545-0.29502-0.87305-0.42969-0.2876-0.13467-0.57241-0.26028-0.85352-0.37891-0.28111-0.11863-0.55763-0.2306-0.83203-0.33398-0.2744-0.10338-0.54501-0.19817-0.8125-0.28711-0.26749-0.08894-0.53261-0.17081-0.79297-0.24609-0.26036-0.07529-0.51652-0.1446-0.76953-0.20703-0.25301-0.06243-0.50259-0.11759-0.74805-0.16797-0.24545-0.05037-0.48692-0.09565-0.72461-0.13476-0.23768-0.03911-0.47147-0.07291-0.70117-0.10156-0.2297-0.02865-0.45623-0.05133-0.67773-0.07031-0.2215-0.01898-0.4373-0.03481-0.65039-0.04492-0.21309-0.01011-0.42249-0.01554-0.62695-0.01758-0.20446-2e-3 -0.40398 6.2e-4 -0.59961 0.0059-0.39125 0.01048-0.76453 0.03355-1.1191 0.06836-0.08181 8e-3 -0.15262 0.02213-0.23242 0.03125 0.96703 1.9384 2.6464 3.5729 4.9668 4.5488 1.2815 0.539 2.9192 0.94796 4.7715 1.6816 0.07688-0.15179 0.15157-0.30027 0.24805-0.47266 0.06774-0.12104 0.14091-0.2476 0.21875-0.37695 0.07784-0.12936 0.15974-0.26228 0.24805-0.39844 0.08831-0.13616 0.18211-0.27456 0.28125-0.41602 0.09914-0.14145 0.20412-0.28641 0.31445-0.43164 0.11034-0.14523 0.22576-0.29196 0.34766-0.43945s0.25094-0.29511 0.38476-0.44336c0.10264-0.1137 0.21243-0.22649 0.32227-0.33984z" fill="url(#linearGradient19781)"/>
  <path d="m-72.849 27.139c-0.10984 0.11336-0.21963 0.22614-0.32227 0.33984-0.13382 0.14825-0.26287 0.29586-0.38476 0.44336s-0.23732 0.29422-0.34766 0.43945c-0.11034 0.14523-0.21531 0.29019-0.31445 0.43164-0.09914 0.14145-0.19294 0.27986-0.28125 0.41602-0.08831 0.13616-0.1702 0.26908-0.24805 0.39844-0.07784 0.12936-0.15101 0.25592-0.21875 0.37695-0.09648 0.17239-0.17117 0.32086-0.24805 0.47266 3.2263 1.2779 7.1078 3.5486 10.922 9.2617 0 0 0.01332-0.11447 0.01758-0.32422 0.0021-0.10487 0.0031-0.23416-2e-3 -0.38476s-0.01543-0.32181-0.0332-0.51367-0.0441-0.40416-0.08008-0.63281c-0.03598-0.22865-0.08287-0.4734-0.14258-0.73438-0.0597-0.26097-0.13177-0.53735-0.2207-0.82617-0.08893-0.28882-0.19469-0.59015-0.31836-0.90234-0.06183-0.1561-0.12766-0.31546-0.19922-0.47656-0.07155-0.1611-0.14851-0.32468-0.23047-0.49023-0.08196-0.16555-0.16867-0.33251-0.26172-0.50195-0.09305-0.16944-0.19204-0.3409-0.29688-0.51367s-0.21668-0.3479-0.33398-0.52344-0.24063-0.35154-0.37109-0.5293-0.26779-0.3577-0.41211-0.53711c-0.14432-0.17941-0.29427-0.35856-0.45312-0.53906-0.15885-0.1805-0.32592-0.36193-0.5-0.54297-0.17408-0.18104-0.35688-0.36196-0.54688-0.54297s-0.38716-0.36254-0.59375-0.54297c-0.2066-0.18043-0.4226-0.35977-0.64648-0.53906-0.22389-0.17929-0.4554-0.35756-0.69727-0.53516-0.24186-0.17759-0.49337-0.35396-0.75391-0.5293-0.26053-0.17533-0.53066-0.34897-0.81055-0.52148-0.21581-0.13302-0.44235-0.26515-0.66992-0.39648z" fill="url(#linearGradient37009)"/>
  <path d="m-61.986 23.406c-0.15436-0.01352-0.31366-0.0336-0.46484-0.04297-0.35632-0.02209-0.70403-0.03306-1.043-0.0332-0.33894-1.41e-4 -0.66831 9e-3 -0.99023 0.0293s-0.63614 0.05063-0.94141 0.08984c-0.30527 0.03922-0.60164 0.0879-0.89062 0.14453-0.28898 0.05663-0.57069 0.12279-0.84375 0.19531-0.27306 0.07253-0.53742 0.15137-0.79492 0.23828-0.2575 0.08691-0.5077 0.18147-0.75 0.28125-0.2423 0.09978-0.47761 0.20527-0.70508 0.31641s-0.44716 0.22668-0.66016 0.34766c-0.213 0.12098-0.4183 0.24765-0.61719 0.37695-0.19889 0.1293-0.39102 0.26232-0.57617 0.39844-0.18515 0.13612-0.36338 0.27459-0.53516 0.41602-0.17177 0.14142-0.33734 0.28643-0.49609 0.43164-0.15876 0.14521-0.31092 0.29197-0.45703 0.43945-0.03405 0.03437-0.06428 0.06907-0.09766 0.10352 0.22757 0.13134 0.45411 0.26346 0.66992 0.39648 0.27989 0.17252 0.55001 0.34615 0.81055 0.52148 0.26053 0.17533 0.51204 0.3517 0.75391 0.5293 0.24186 0.17759 0.47338 0.35586 0.69727 0.53516 0.22388 0.17929 0.43989 0.35863 0.64648 0.53906 0.20659 0.18043 0.40376 0.36196 0.59375 0.54297s0.3728 0.36193 0.54688 0.54297c0.17408 0.18104 0.34115 0.36247 0.5 0.54297 0.15885 0.1805 0.30881 0.35966 0.45312 0.53906 0.14432 0.17941 0.28164 0.35936 0.41211 0.53711s0.25379 0.35376 0.37109 0.5293 0.22915 0.35067 0.33398 0.52344 0.20382 0.34423 0.29688 0.51367c0.09305 0.16944 0.17976 0.3364 0.26172 0.50195 0.08196 0.16555 0.15892 0.32913 0.23047 0.49023 0.07155 0.1611 0.13738 0.32046 0.19922 0.47656 0.12367 0.3122 0.22943 0.61352 0.31836 0.90234 0.08893 0.28882 0.161 0.5652 0.2207 0.82617 0.0597 0.26097 0.1066 0.50572 0.14258 0.73438 0.03598 0.22865 0.06231 0.44095 0.08008 0.63281s0.02814 0.36307 0.0332 0.51367c0.0051 0.1506 0.0041 0.27989 2e-3 0.38476-0.0043 0.20974-0.01758 0.32422-0.01758 0.32422s4.9189-6.4036 2.3066-16.312z" fill="url(#linearGradient26999)"/>
  <path d="m-76.74 10.24c-1.9514 0.09733-3.8162 0.65571-5.3047 1.8652-4.0991 3.3309-4.7819 8.3653-2.9082 12.121 0.0798-0.0091 0.15061-0.02322 0.23242-0.03125 0.35461-0.03481 0.72789-0.05788 1.1191-0.06836 0.19562-0.0052 0.39515-0.0079 0.59961-0.0059s0.41386 0.0075 0.62695 0.01758c0.21309 0.01011 0.42889 0.02594 0.65039 0.04492 0.2215 0.01898 0.44804 0.04166 0.67773 0.07031 0.2297 0.02865 0.46349 0.06245 0.70117 0.10156 0.23768 0.03911 0.47916 0.08439 0.72461 0.13476 0.24546 0.05037 0.49504 0.10554 0.74805 0.16797 0.25301 0.06243 0.50918 0.13174 0.76953 0.20703 0.26036 0.07529 0.52548 0.15716 0.79297 0.24609 0.26749 0.08894 0.5381 0.18372 0.8125 0.28711 0.2744 0.10338 0.55092 0.21536 0.83203 0.33398 0.28111 0.11863 0.56592 0.24424 0.85352 0.37891 0.2876 0.13467 0.57918 0.27818 0.87305 0.42969 0.29387 0.15151 0.59069 0.31133 0.89062 0.48047 0.06867 0.03872 0.13165 0.07819 0.19922 0.11719 0.03337-0.03444 0.06361-0.06914 0.09766-0.10352 0.14611-0.14749 0.29827-0.29424 0.45703-0.43945 0.15876-0.14521 0.32432-0.29022 0.49609-0.43164 0.17177-0.14142 0.35001-0.2799 0.53516-0.41602 0.18515-0.13612 0.37728-0.26913 0.57617-0.39844 0.19889-0.1293 0.40419-0.25598 0.61719-0.37695 0.213-0.12098 0.43269-0.23652 0.66016-0.34766s0.46278-0.21663 0.70508-0.31641c0.2423-0.09978 0.4925-0.19434 0.75-0.28125 0.2575-0.08691 0.52186-0.16576 0.79492-0.23828 0.27306-0.07253 0.55477-0.13868 0.84375-0.19531 0.28898-0.05663 0.58536-0.10531 0.89062-0.14453 0.30527-0.03922 0.61948-0.06955 0.94141-0.08984 0.32192-0.0203 0.6513-0.02944 0.99023-0.0293 0.33894 1.41e-4 0.68665 0.01111 1.043 0.0332 0.15119 0.0094 0.31048 0.02945 0.46484 0.04297-0.0075-0.02829-0.0139-0.05564-0.02148-0.08398-1.974-7.2515-9.4252-13.347-14.732-13.082z" fill="url(#linearGradient10872)"/>
  <g fill-rule="evenodd">
   <circle cx="-76.863" cy="14.699" r="1.168" fill="#463907" style="paint-order:stroke fill markers"/>
   <circle cx="-94.707" cy="16.321" r="2.681" fill="url(#linearGradient53566)" style="paint-order:stroke fill markers"/>
   <circle cx="-93.321" cy="14.337" r="1.2537" fill="url(#linearGradient60076)" style="paint-order:stroke fill markers"/>
  </g>
  <path d="m-126.76 34.481s9.7178-5.3985 19.818-4.2755c10.1 1.123 17.648 3.8085 19.463 11.011 1.8156 7.2029-4.0552 17.44-14.559 15.343-10.504-2.0968-22.737-14.688-24.722-22.079z" fill="url(#linearGradient115726)"/>
  <path d="m-126.76 34.481s9.7178-5.3985 19.818-4.2755c10.1 1.123 17.648 3.8085 19.463 11.011 1.8156 7.2029-4.0552 17.44-14.559 15.343-10.504-2.0968-22.737-14.688-24.722-22.079z" fill="url(#linearGradient122496)"/>
 </g>
</svg>
