<?xml version="1.0" encoding="UTF-8" standalone="no"?>
<svg
   xml:space="preserve"
   width="64"
   height="64"
   image-rendering="optimizeSpeed"
   version="1.1"
   id="svg48"
   sodipodi:docname="bluefish-icon.svg"
   inkscape:version="1.4.2 (ebf0e940d0, 2025-05-08)"
   xmlns:inkscape="http://www.inkscape.org/namespaces/inkscape"
   xmlns:sodipodi="http://sodipodi.sourceforge.net/DTD/sodipodi-0.dtd"
   xmlns:xlink="http://www.w3.org/1999/xlink"
   xmlns="http://www.w3.org/2000/svg"
   xmlns:svg="http://www.w3.org/2000/svg"><sodipodi:namedview
     id="namedview48"
     pagecolor="#505050"
     bordercolor="#eeeeee"
     borderopacity="1"
     inkscape:showpageshadow="0"
     inkscape:pageopacity="0"
     inkscape:pagecheckerboard="0"
     inkscape:deskcolor="#505050"
     inkscape:zoom="6.0546875"
     inkscape:cx="22.379355"
     inkscape:cy="39.060645"
     inkscape:window-width="1920"
     inkscape:window-height="1012"
     inkscape:window-x="0"
     inkscape:window-y="0"
     inkscape:window-maximized="1"
     inkscape:current-layer="svg48" /><defs
     id="defs16"><linearGradient
       id="g"
       x1="7.937"
       x2="7.937"
       y1="6.879"
       y2="1.058"
       gradientTransform="scale(3.7796)"
       gradientUnits="userSpaceOnUse"><stop
         offset="0"
         stop-color="#ffe680"
         id="stop1" /><stop
         offset="1"
         stop-color="#f95"
         id="stop2" /></linearGradient><linearGradient
       id="h"
       x1="7.937"
       x2="7.937"
       y1="15.081"
       y2="1.852"
       gradientTransform="translate(0 .03)scale(3.7796)"
       gradientUnits="userSpaceOnUse"><stop
         offset="0"
         stop-color="#363636"
         style="stop-color:#72a6db;stop-opacity:1"
         id="stop3" /><stop
         offset="1"
         stop-color="#6c6c6c"
         style="stop-color:#071c35;stop-opacity:1"
         id="stop4" /></linearGradient><linearGradient
       id="c"><stop
         offset="0"
         style="stop-color:#000;stop-opacity:.239216"
         id="stop5" /><stop
         offset="1"
         style="stop-color:#000;stop-opacity:0"
         id="stop6" /></linearGradient><linearGradient
       id="e"><stop
         offset="0"
         style="stop-color:#000;stop-opacity:.41568601"
         id="stop7" /><stop
         offset="1"
         style="stop-color:#000;stop-opacity:0"
         id="stop8" /></linearGradient><linearGradient
       id="b"><stop
         offset="0"
         style="stop-color:#fff;stop-opacity:1"
         id="stop9" /><stop
         offset="1"
         style="stop-color:#fff;stop-opacity:.17647099"
         id="stop10" /></linearGradient><linearGradient
       id="f"><stop
         offset="0"
         style="stop-color:#3278c6;stop-opacity:1"
         id="stop11" /><stop
         offset="1"
         style="stop-color:#264980;stop-opacity:1"
         id="stop12" /></linearGradient><linearGradient
       id="a"><stop
         offset="0"
         style="stop-color:#72a6db;stop-opacity:1"
         id="stop13" /><stop
         offset="1"
         style="stop-color:#4974aa;stop-opacity:1"
         id="stop14" /></linearGradient><linearGradient
       id="d"><stop
         offset="0"
         style="stop-color:#fff;stop-opacity:1"
         id="stop15" /><stop
         offset="1"
         style="stop-color:#8f8f8f;stop-opacity:1"
         id="stop16" /></linearGradient><linearGradient
       xlink:href="#a"
       id="l"
       x1="66.897"
       x2="68.417"
       y1="9.709"
       y2="18.199"
       gradientTransform="scale(0.57791,1.73037)"
       gradientUnits="userSpaceOnUse"
       spreadMethod="pad" /><linearGradient
       xlink:href="#b"
       id="n"
       x1="42.008"
       x2="56.889"
       y1="5.456"
       y2="14.642"
       gradientTransform="scale(0.65313,1.5311)"
       gradientUnits="userSpaceOnUse"
       spreadMethod="pad" /><linearGradient
       xlink:href="#c"
       id="p"
       x1="40.971"
       x2="23.981"
       y1="41.885"
       y2="21.709"
       gradientTransform="scale(0.99284,1.00722)"
       gradientUnits="userSpaceOnUse"
       spreadMethod="pad" /><linearGradient
       xlink:href="#b"
       id="r"
       x1="25.033"
       x2="25.338"
       y1="15.336"
       y2="24.687"
       gradientTransform="scale(0.95998,1.04168)"
       gradientUnits="userSpaceOnUse"
       spreadMethod="pad" /><linearGradient
       xlink:href="#d"
       id="s"
       x1="27.607"
       x2="28.115"
       y1="16.387"
       y2="24.093"
       gradientTransform="scale(0.88763,1.1266)"
       gradientUnits="userSpaceOnUse"
       spreadMethod="pad" /><linearGradient
       xlink:href="#a"
       id="v"
       x1="36.83"
       x2="37.26"
       y1="47.909"
       y2="54.864"
       gradientTransform="scale(1.51747,0.65899)"
       gradientUnits="userSpaceOnUse"
       spreadMethod="pad" /><linearGradient
       xlink:href="#e"
       id="w"
       x1="29.954"
       x2="30.472"
       y1="68.697"
       y2="63.224"
       gradientTransform="scale(1.84716,0.54137)"
       gradientUnits="userSpaceOnUse"
       spreadMethod="pad" /><linearGradient
       xlink:href="#a"
       id="x"
       x1="29.049"
       x2="29.396"
       y1="63.282"
       y2="68.898"
       gradientTransform="scale(1.92567,0.5193)"
       gradientUnits="userSpaceOnUse"
       spreadMethod="pad" /><radialGradient
       xlink:href="#d"
       id="i"
       cx="24.218"
       cy="13.492"
       r="10.214"
       fx="24.218"
       fy="13.492"
       gradientTransform="scale(0.88763,1.1266)"
       gradientUnits="userSpaceOnUse"
       spreadMethod="pad" /><radialGradient
       xlink:href="#a"
       id="k"
       cx="31.638"
       cy="4.291"
       r="6.114"
       fx="31.638"
       fy="4.291"
       gradientTransform="scale(1.06132,0.94223)"
       gradientUnits="userSpaceOnUse"
       spreadMethod="pad" /><radialGradient
       xlink:href="#f"
       id="o"
       cx="15.486"
       cy="16.135"
       r="27.532"
       fx="15.486"
       fy="16.135"
       gradientTransform="scale(0.99284,1.00722)"
       gradientUnits="userSpaceOnUse"
       spreadMethod="pad" /><radialGradient
       xlink:href="#a"
       id="q"
       cx="56.925"
       cy="25.591"
       r="5.343"
       fx="56.925"
       fy="25.591"
       gradientTransform="scale(1.12198,0.89128)"
       gradientUnits="userSpaceOnUse"
       spreadMethod="pad" /><radialGradient
       xlink:href="#a"
       id="t"
       cx="32.369"
       cy="3.356"
       r="6.057"
       fx="32.369"
       fy="3.356"
       gradientTransform="scale(1.0404,0.96117)"
       gradientUnits="userSpaceOnUse"
       spreadMethod="pad" /></defs><g
     id="g49"
     transform="matrix(1.2661022,0,0,1.2661022,-8.5151203,-8.5152235)"><path
       d="M 81,26.469 C 76.805,31.133 72.585,37.227 66.187,39 c -2.748,0.327 -7.079,0.673 -8.156,3.563 3.524,2.557 8.835,0.575 12.25,-1.626 C 75.134,37.529 80.108,32.335 81,26.47 Z"
       style="opacity:0.090909"
       transform="translate(-33.835,7.597)"
       id="path16" /><path
       d="m 81.156,26.156 c -4.283,4.67 -8.393,10.614 -14.675,12.695 -3.034,0.35 -7.336,0.635 -8.606,3.68 1.968,2.115 5.782,1.336 8.344,0.563 6.996,-2.822 13.197,-9.08 14.937,-16.407 -0.366,0.583 0.268,-0.784 0,-0.53 z"
       style="opacity:0.090909"
       transform="translate(-33.835,7.597)"
       id="path17" /><path
       d="M 81.281,25.844 C 77.041,30.476 73.03,36.084 67,38.656 c -3.19,0.262 -7.32,0.677 -9.188,3.438 -0.294,1.778 2.612,1.759 3.828,1.892 7.337,-0.056 13.31,-5.679 17.167,-11.344 1.223,-1.971 2.67,-4.58 2.474,-6.798"
       style="opacity:0.090909"
       transform="translate(-33.835,7.597)"
       id="path18" /><path
       d="m 81.344,25.688 c -3.016,2.816 -5.452,6.716 -8.888,9.29 -1.792,1.417 -3.703,3.147 -5.975,3.592 -3.058,0.262 -6.701,0.763 -8.668,3.242 -0.88,1.583 1.651,2.144 2.75,2.22 5.823,0.649 11.022,-2.988 14.867,-6.9 2.767,-3.13 5.772,-6.84 6.039,-11.257 -0.007,-0.027 0,-0.344 -0.125,-0.188 z"
       style="opacity:0.090909"
       transform="translate(-33.835,7.597)"
       id="path19" /><path
       d="m 81.281,25.563 c -1.076,0.814 -2,2.18 -2.966,3.245 -3.186,3.799 -6.774,7.455 -11.284,9.598 -2.72,0.092 -5.588,0.651 -7.906,1.969 -0.832,0.606 -1.974,1.424 -1.531,2.563 1.008,1.238 2.955,1.222 4.505,1.312 3.479,-0.062 6.77,-1.595 9.483,-3.595 3.076,-2.22 5.677,-5.095 7.73,-8.28 1.068,-1.936 2.311,-4.18 2.282,-6.531 -0.012,-0.203 -0.055,-0.485 -0.313,-0.282 z"
       style="opacity:0.090909"
       transform="translate(-33.835,7.597)"
       id="path20" /><path
       d="M 81.739,26.156 C 81.48,32.451 71.288,44.5 61.975,44.37 c -8.538,-0.13 -4.31,-5.82 5.002,-6.079 9.26,-4.302 14.89,-16.104 14.762,-12.135"
       style="opacity:0.090909"
       transform="translate(-33.835,7.597)"
       id="path21" /><path
       d="m 93.844,-11.469 c -6.154,3.093 -7.084,11.116 -7.406,17.282 1.419,3.998 1.215,9.5 5.906,10.968 3.08,1.24 1.534,-0.35 0.156,-1.812 C 89.527,10.478 90.904,4.875 92.719,0.281 92.901,-3.7 92.436,-7.893 94.188,-11.594 Z"
       style="opacity:0.090909"
       transform="translate(-43.166,25.79)"
       id="path22" /><path
       d="m 94.344,-11.813 c -6.401,2.546 -7.52,10.555 -8.022,16.708 0.301,3.27 1.643,6.425 2.397,9.636 1.806,1.272 3.72,3.04 6.156,2.781 C 89.973,13.577 89.986,6.236 92.75,1.156 c 0.311,-4.312 -0.147,-9.275 1.594,-12.969"
       style="opacity:0.090909"
       transform="translate(-43.166,25.79)"
       id="path23" /><path
       d="m 94.344,-11.938 c -5.441,1.839 -6.965,8.343 -7.89,13.513 -1.061,4.487 1.183,8.718 2.14,13.019 1.92,1.424 4.057,3.26 6.625,2.844 -4.954,-3.568 -5.205,-10.915 -2.443,-15.98 0.733,-4.45 -0.387,-9.412 1.943,-13.52 l -0.37,0.123 z"
       style="opacity:0.090909"
       transform="translate(-43.166,25.79)"
       id="path24" /><path
       d="m 94.281,-12.063 c -4.946,1.646 -6.6,7.145 -7.643,11.85 -0.526,2.878 -1.073,5.932 0.15,8.714 0.678,2.062 0.935,4.386 1.886,6.283 1.962,1.521 4.142,3.268 6.795,2.747 -2.763,-2.121 -4.398,-5.365 -4.328,-8.884 -0.223,-2.817 1.143,-5.42 1.95,-8.007 0.228,-4.314 -0.266,-8.984 1.784,-12.89 z"
       style="opacity:0.090909"
       transform="translate(-43.166,25.79)"
       id="path25" /><path
       d="m 94.844,-12.375 c -2.574,0.652 -4.67,2.613 -5.914,4.828 -1.264,2.665 -2.185,5.714 -2.68,8.703 -0.157,1.734 -0.57,3.531 -0.2,5.25 0.834,2.775 1.506,5.598 2.325,8.375 1.966,1.422 3.947,3.142 6.535,2.955 1,0.056 0.76,-0.375 0.059,-0.83 -1.668,-1.474 -3.004,-3.325 -3.373,-5.565 -0.466,-2.016 -0.478,-4.129 0.075,-6.13 0.306,-1.494 1.073,-2.847 1.514,-4.282 0.362,-3.945 -0.313,-8.083 1.284,-11.835 -0.041,-0.34 1.18,-1.903 0.375,-1.469"
       style="opacity:0.090909"
       transform="translate(-43.166,25.79)"
       id="path26" /><path
       d="m 85.796,5.904 c -0.087,-4.134 0.86,-8.655 2.841,-13.176 1.378,-2.455 3.144,-4.521 6.847,-5.426 -2.842,4.952 -1.68,9.129 -2.196,13.951 -0.862,2.024 -1.593,3.402 -1.938,6.588 0.13,5.985 2.067,7.45 4.65,9.818 -3.401,0.947 -5.77,-1.464 -7.75,-2.842 -1.034,-3.574 -1.421,-5.34 -2.454,-8.913"
       style="opacity:0.090909"
       transform="translate(-43.166,25.79)"
       id="path27" /><path
       d="m 95.438,-12.813 c -2.642,0.574 -4.97,2.232 -6.344,4.563 -1.18,1.72 -1.75,4.044 -2.408,6.126 -0.68,2.665 -1.11,5.438 -0.994,8.186 0.9,2.921 1.545,5.98 2.496,8.844 1.927,1.402 3.87,3.173 6.41,3.094 0.435,-0.05 1.695,-0.033 1.496,-0.438 -1.923,-1.622 -3.783,-3.581 -4.218,-6.157 -0.5,-2.012 -0.507,-4.13 0.045,-6.132 0.293,-1.453 1.063,-2.762 1.499,-4.152 0.4,-4.067 -0.348,-8.365 1.408,-12.2 0.083,-0.524 1.131,-1.77 0.673,-1.753 l -0.063,0.02 z"
       style="opacity:0.090909"
       transform="translate(-43.166,25.79)"
       id="path28" /><path
       d="m 95.406,-12.938 c -4.624,0.885 -7.446,5.164 -8.46,9.5 -0.929,3.182 -1.677,6.599 -1.272,9.907 0.874,2.831 1.475,5.77 2.42,8.562 2.331,1.888 5.3,3.96 8.437,2.75 -2.438,-1.93 -4.517,-4.382 -4.76,-7.577 -0.642,-3.194 0.695,-6.282 1.787,-9.181 0.35,-4.405 -0.394,-9.138 1.91,-13.148 0.121,-0.398 0.985,-1.375 -0.062,-0.813"
       style="opacity:0.090909"
       transform="translate(-43.166,25.79)"
       id="path29" /><path
       d="m 95.375,-13.063 c -5.628,1.044 -8.201,6.845 -9.21,11.975 -0.837,3.643 -1.196,7.48 0.34,11 0.826,2.39 0.654,5.518 3.406,6.596 1.881,1.51 4.51,2.274 6.87,1.336 -3.135,-2.267 -5.242,-5.736 -5.05,-9.747 0.015,-3.674 2.684,-6.605 2.082,-10.347 -0.114,-3.815 0.276,-7.829 2.468,-11.063 z"
       style="opacity:0.090909"
       transform="translate(-43.166,25.79)"
       id="path30" /><path
       d="m 95.313,-13.188 c -7.114,1.49 -9.128,9.623 -9.907,15.876 -0.674,4.317 1.488,8.482 2.531,12.53 2.455,2.11 5.823,4.206 9.094,2.657 -4.457,-2.906 -6.376,-8.618 -4.406,-13.594 2.777,-5.22 -0.082,-11.64 3.281,-16.718 0.753,-1.317 1.064,-1.224 -0.594,-0.75 z"
       style="opacity:0.090909"
       transform="translate(-43.166,25.79)"
       id="path31" /><path
       d="m 95.281,-13.313 c -8.02,1.894 -9.699,11.322 -10.156,18.438 0.525,3.432 1.638,6.968 2.75,10.219 2.542,2.208 6.026,4.229 9.406,2.594 -5.276,-3.246 -6.647,-10.345 -3.772,-15.597 1.367,-5.162 -0.428,-11.24 3.164,-15.846 0.647,-0.703 -1.23,0.292 -1.392,0.193 z"
       style="opacity:0.090909"
       transform="translate(-43.166,25.79)"
       id="path32" /><g
       transform="matrix(1.05682,0,0,1.05682,-37.279,-62.258)"
       id="g48"><path
         d="m 30.267,20.252 a 5.6615,7.1866347 0 1 1 -11.323,0 5.6615,7.1866347 0 1 1 11.323,0"
         style="fill:url(#i)"
         transform="translate(25.684,64.782)"
         id="path33" /><path
         d="m 40.968,10.542 c 0,3.34 -6.81,-5.872 -12.1,-2.766 0,-3.34 3.02,-7.268 7.343,-7.268 5.533,0.172 4.757,6.694 4.757,10.034"
         style="fill:url(#k)"
         transform="translate(15.858,74.436)"
         id="path34" /><path
         d="m 34.713,23.554 c -0.081,-3.911 0.815,-8.19 2.69,-12.467 1.303,-2.323 2.974,-4.279 6.477,-5.134 -2.689,4.685 -1.589,8.637 -2.077,13.2 -0.815,1.915 -1.508,3.22 -1.834,6.234 0.122,5.664 1.956,7.05 4.4,9.29 -3.218,0.896 -5.46,-1.385 -7.333,-2.69 -0.978,-3.38 -1.345,-5.051 -2.323,-8.433"
         style="fill:url(#l)"
         transform="translate(40,65)"
         id="path35" /><g
         id="u"><path
           d="m 48.5,85.073 a 1.491,1.5540423 0 1 1 -2.982,0 1.4905,1.5535211 0 1 1 2.981,0 z"
           id="path36" /><path
           d="m 63.958,20.395 a 0.778,1.037 0 1 1 -1.556,0 0.778,1.037 0 1 1 1.556,0"
           style="fill:#808080"
           transform="matrix(0.71859,0,0,0.71858,2.167,69.947)"
           id="path37" /></g><path
         d="m 35.691,19.887 c 1.263,-5.949 1.548,-6.763 2.322,-8.678 0.856,-1.59 1.345,-2.934 5.134,-4.767 -2.037,1.711 -3.096,3.667 -3.911,6.234 -0.408,2.118 -1.182,4.237 -0.734,11.245 -0.652,-1.06 -2.159,-2.975 -2.81,-4.034 z"
         style="fill:url(#n);fill-opacity:0.471831"
         transform="translate(40,65)"
         id="path38" /><path
         d="M 39.358,25.754 C 39.114,31.71 29.469,43.111 20.657,42.989 12.577,42.866 5.623,35.011 5.623,25.632 c 0,-9.379 6.1,-16.623 14.912,-16.868 9.423,0.122 18.945,13.234 18.823,16.99"
         style="fill:url(#o)"
         transform="translate(40,65)"
         id="path39" /><path
         d="M 39.358,25.754 C 39.114,31.71 29.469,43.111 20.657,42.989 12.577,42.866 5.623,35.011 5.623,25.632 c 0,-9.379 6.1,-16.623 14.912,-16.868 9.423,0.122 18.945,13.234 18.823,16.99"
         style="fill:url(#p)"
         transform="translate(40,65)"
         id="path40" /><path
         d="m 30.557,20.498 c 2.078,3.133 1.38,5.761 0.252,7.575 -1.128,1.814 -4.28,2.8 -5.996,2.693 -6.008,-0.367 -5.134,-3.024 -5.134,-8.557 0,-5.532 3.648,-10.878 7.09,-10.878 2.585,0.611 3.788,3.635 3.788,9.167"
         style="fill-opacity:0.197183"
         transform="translate(40,65)"
         id="path41" /><path
         d="m 72.36,25.082 a 6.54,5.195 0 1 1 -13.079,0 6.54,5.195 0 1 1 13.079,0"
         style="fill:url(#q)"
         transform="matrix(0.9525,0,0,1.14657,1.88,60.007)"
         id="path42" /><path
         d="m 30.069,22.21 a 5.745,6.234 0 1 1 -11.49,0 5.745,6.234 0 1 1 11.49,0"
         style="fill:url(#r)"
         transform="matrix(1,0,0,0.93264,39.878,66.198)"
         id="path43" /><path
         d="m 30.267,20.252 a 5.6615,7.1866347 0 1 1 -11.323,0 5.6615,7.1866347 0 1 1 11.323,0"
         style="fill:url(#s)"
         transform="matrix(1.03239,0,0,1.05954,38.516,63.149)"
         id="path44" /><path
         d="M 40.89,10.542 C 39.913,9.662 36.936,4.787 29.102,7.745 c 0,-3.34 1.32,-8.093 5.643,-8.093 5.532,0.173 6.145,7.55 6.145,10.89"
         style="fill:url(#t)"
         transform="translate(28.937,74.68)"
         id="path45" /><use
         xlink:href="#u"
         transform="translate(19.311,0.44)"
         id="use45" /><path
         d="m 47.792,31.621 c 0.204,0.856 6.274,3.423 15.89,-0.244 0.387,-0.041 2.298,-2.11 2.29,-1.703 -0.018,1.11 -0.884,2.588 -2.012,3.82 -2.404,2.933 -6.553,4.728 -11.279,4.239 -2.282,-0.204 -4.042,-1.385 -5.102,-3.178 -0.905,-1.691 -0.317,-1.997 0.213,-2.934"
         style="fill:url(#v)"
         transform="translate(-1.191,67.2)"
         id="path46" /><path
         d="m 48.158,31.621 c 0.204,0.856 5.908,3.79 15.524,0.122 1.289,-0.662 2.173,-0.087 0.855,1.956 -2.404,2.445 -9.697,3.422 -11.978,3.056 -2.282,-0.204 -5.052,-1.019 -5.5,-2.445 -0.34,-1.227 0.081,-1.996 1.1,-2.689 z"
         style="fill:url(#w)"
         transform="translate(-1.654,65.384)"
         id="path47" /><path
         d="m 48.158,31.621 c 0.204,0.856 5.596,4.961 15.836,0.982 0.684,-0.292 1.93,-0.86 2.187,-0.818 0.377,0.074 -0.477,0.97 -1.487,1.992 -2.404,2.445 -9.854,3.344 -12.135,2.978 -2.282,-0.204 -5.052,-1.019 -5.5,-2.445 -0.34,-1.227 0.081,-1.996 1.1,-2.689 z"
         style="fill:url(#x)"
         transform="translate(-1.558,65)"
         id="path48" /></g></g></svg>
