<?xml version="1.0" encoding="UTF-8" standalone="no"?>
<svg
   width="64"
   height="64"
   version="1.1"
   id="svg3"
   sodipodi:docname="boinc.svg"
   inkscape:version="1.3 (0e150ed6c4, 2023-07-21)"
   xmlns:inkscape="http://www.inkscape.org/namespaces/inkscape"
   xmlns:sodipodi="http://sodipodi.sourceforge.net/DTD/sodipodi-0.dtd"
   xmlns="http://www.w3.org/2000/svg"
   xmlns:svg="http://www.w3.org/2000/svg">
  <defs
     id="defs3">
    <linearGradient
       id="linearGradient1005-5"
       x1="3.7291999"
       x2="12.359"
       y1="13.306"
       y2="4.6760001"
       gradientTransform="matrix(3.7795642,0,0,3.7795642,-0.132835,0.0249262)"
       gradientUnits="userSpaceOnUse">
      <stop
         stop-color="#232223"
         offset="0"
         id="stop1" />
      <stop
         stop-color="#49484d"
         offset="1"
         id="stop2" />
    </linearGradient>
  </defs>
  <sodipodi:namedview
     id="namedview3"
     pagecolor="#ffffff"
     bordercolor="#000000"
     borderopacity="0.25"
     inkscape:showpageshadow="2"
     inkscape:pageopacity="0.0"
     inkscape:pagecheckerboard="0"
     inkscape:deskcolor="#d1d1d1"
     inkscape:zoom="5.734375"
     inkscape:cx="11.509537"
     inkscape:cy="33.656676"
     inkscape:window-width="1920"
     inkscape:window-height="941"
     inkscape:window-x="0"
     inkscape:window-y="34"
     inkscape:window-maximized="1"
     inkscape:current-layer="svg3" />
  <path
     d="m 62.000421,32.00036 c 0,3.59648 -0.633046,7.044421 -1.793951,10.240453 -0.806945,2.221235 -1.868521,4.321219 -3.151885,6.263557 -0.537535,0.816696 -1.11555,1.605424 -1.729055,2.363346 -1.964032,2.42575 -4.298163,4.538168 -6.918183,6.252218 -0.964933,0.631836 -1.96785,1.209851 -3.006182,1.727731 -4.03208,2.017854 -8.583477,3.152982 -13.401335,3.152982 -4.817103,0 -9.368878,-1.135128 -13.401335,-3.153095 C 17.560049,58.329558 16.55596,57.75162 15.591028,57.119821 12.937483,55.3823 10.575496,53.236657 8.59574,50.770845 7.981102,50.006799 7.404297,49.210814 6.866686,48.386786 5.617641,46.47665 4.58305,44.415559 3.792018,42.237374 2.631264,39.042513 1.99939,35.595857 1.99939,31.999943 c 0,-16.569396 13.431194,-30.0005905 30.000591,-30.0005905 8.316636,0 15.842202,3.384558 21.277269,8.8503165 1.566154,1.574619 2.958484,3.323366 4.143578,5.213582 1.120425,1.780419 2.057124,3.688174 2.785756,5.694726 1.161056,3.195994 1.794026,6.644163 1.794026,10.240454 z"
     fill="url(#linearGradient1005-5)"
     stroke-width="0.117194"
     id="path2-3"
     style="fill:url(#linearGradient1005-5)" />
  <g
     id="g3"
     transform="matrix(1.2450036,0,0,1.2450036,-7.8401152,-7.8401152)">
    <path
       fill="#ffcc33"
       d="m 37.87,32 c 0,3.24 -2.63,5.87 -5.87,5.87 -3.24,0 -5.87,-2.63 -5.87,-5.87 0,-3.24 2.63,-5.87 5.87,-5.87 3.24,0 5.87,2.63 5.87,5.87"
       id="path2" />
    <path
       fill="#157cc1"
       d="m 18.637,16.739 -1.898,1.898 8.694,8.721 C 26.89,25.3 29.284,23.947 32,23.947 c 1.05,0 2.045,0.224 2.961,0.587 l 2.014,-2.009 A 10.524,10.524 0 0 0 32,21.265 c -2.476,0 -4.751,0.856 -6.567,2.265 m 19.93,-6.791 -8.722,8.662 A 8.058,8.058 0 0 1 40.048,32 8.016,8.016 0 0 1 39.461,34.99 l 2.013,2.013 A 10.578,10.578 0 0 0 42.735,32 c 0,-2.476 -0.857,-4.751 -2.266,-6.567 L 47.26,18.642 45.358,16.739 M 22.526,26.997 A 10.51,10.51 0 0 0 21.266,32 c 0,2.475 0.857,4.75 2.265,6.566 l -6.79,6.792 1.897,1.902 8.667,-8.72 a 8.048,8.048 0 0 1 -3.356,-6.544 c 0,-1.054 0.22,-2.064 0.587,-2.99 m 14.032,7.635 A 8.03,8.03 0 0 1 32,40.048 8.006,8.006 0 0 1 28.955,39.434 l -2.013,2.013 A 10.583,10.583 0 0 0 32,42.731 c 2.476,0 4.75,-0.853 6.567,-2.26 l 6.79,6.79 1.904,-1.902 -8.694,-8.721"
       id="path3" />
  </g>
</svg>
