<?xml version="1.0" encoding="UTF-8"?>
<svg width="64" height="64" version="1.1" viewBox="0 0 16.933 16.933" xmlns="http://www.w3.org/2000/svg" xmlns:cc="http://creativecommons.org/ns#" xmlns:dc="http://purl.org/dc/elements/1.1/" xmlns:rdf="http://www.w3.org/1999/02/22-rdf-syntax-ns#">
 <defs>
  <radialGradient id="radialGradient2747" cx="-12.56" cy="-2.1153" r="7.9373" gradientTransform="matrix(.91669 0 0 .91669 43.451 7.3841)" gradientUnits="userSpaceOnUse">
   <stop stop-color="#32e6e6" offset="0"/>
   <stop stop-color="#0078d4" offset="1"/>
  </radialGradient>
  <filter id="filter2765" x="-.045892" y="-.029616" width="1.0918" height="1.0592" color-interpolation-filters="sRGB">
   <feGaussianBlur stdDeviation="0.16637114"/>
  </filter>
  <linearGradient id="linearGradient2733" x1="-20.825" x2="-20.825" y1="5.166" y2="15.875" gradientTransform="matrix(1 0 0 1 52.744 -4.7612)" gradientUnits="userSpaceOnUse">
   <stop stop-color="#fafafa" offset="0"/>
   <stop stop-color="#f0f0f0" offset="1"/>
  </linearGradient>
  <linearGradient id="linearGradient2719" x1="-26.707" x2="-26.707" y1="18.671" y2="15.934" gradientTransform="matrix(1 0 0 1 58.736 -4.7612)" gradientUnits="userSpaceOnUse">
   <stop stop-color="#232220" offset="0"/>
   <stop stop-color="#656b70" offset="1"/>
  </linearGradient>
  <filter id="filter5528" x="-.10312" y="-.058929" width="1.2062" height="1.1179" color-interpolation-filters="sRGB">
   <feGaussianBlur stdDeviation="0.515625"/>
  </filter>
 </defs>
 <metadata>
  <rdf:RDF>
   <cc:Work rdf:about="">
    <dc:format>image/svg+xml</dc:format>
    <dc:type rdf:resource="http://purl.org/dc/dcmitype/StillImage"/>
    <dc:title/>
   </cc:Work>
  </rdf:RDF>
 </metadata>
 <g transform="translate(-23.472 2.3863)">
  <circle cx="31.939" cy="5.445" r="7.276" fill="url(#radialGradient2747)"/>
  <path transform="matrix(1 0 0 1 52.673 -4.7612)" d="m-16.383 9.5579c0-2.4018-1.9472-4.3693-4.3504-4.3693s-4.3504 1.9675-4.3504 4.3693c0 0.95126 0.50472 2.1786 1.3153 3.0838 0.80377 0.89714 1.0507 1.5701 1.0507 2.7744v0.47225h4.1392v-0.46819c0-1.2043 0.07655-1.8746 0.87626-2.7744 0.81324-0.91473 1.3193-2.2516 1.3193-3.0879z" filter="url(#filter2765)" opacity=".3" stroke-width=".013531" p-id="26402"/>
  <path transform="matrix(1 0 0 1 52.673 -4.7612)" d="m-22.717 15.888v0.99389s0.23385 1.6108 2.073 1.7884c1.8396-0.1522 2.0662-1.7884 2.0662-1.7884v-0.99389z" filter="url(#filter2765)" opacity=".3"/>
  <path d="m36.289 4.7969c0-2.4018-1.9472-4.3694-4.3505-4.3694s-4.3505 1.9675-4.3505 4.3694c0 0.95128 0.50473 2.1786 1.3153 3.0839 0.80378 0.89716 1.0507 1.5701 1.0507 2.7745v0.47226h4.1393v-0.4682c0-1.2043 0.07655-1.8746 0.87628-2.7745 0.81326-0.91475 1.3193-2.2516 1.3193-3.088z" fill="url(#linearGradient2733)" stroke-width=".013531" p-id="26402"/>
  <path d="m29.955 11.127v0.99391s0.23386 1.6108 2.073 1.7884c1.8396-0.1522 2.0662-1.7884 2.0662-1.7884v-0.99391z" fill="url(#linearGradient2719)"/>
  <path transform="matrix(.26458 0 0 .26458 23.472 -2.228)" d="m33.5 17.282-7.5 12h4.5v9l7.5-12h-4.5z" fill="#323232" fill-rule="evenodd" filter="url(#filter5528)" opacity=".6" stroke-width="1.5"/>
  <path d="m32.336 2.3446-1.9844 3.175h1.1906v2.3812l1.9844-3.175h-1.1906z" fill="#0079d4" fill-rule="evenodd" stroke-width=".39688"/>
 </g>
</svg>
