<?xml version="1.0" encoding="UTF-8" standalone="no"?>
<svg
   width="64"
   height="64"
   version="1.1"
   id="svg4"
   sodipodi:docname="bruno.svg"
   inkscape:version="1.4.2 (ebf0e940d0, 2025-05-08)"
   xml:space="preserve"
   xmlns:inkscape="http://www.inkscape.org/namespaces/inkscape"
   xmlns:sodipodi="http://sodipodi.sourceforge.net/DTD/sodipodi-0.dtd"
   xmlns="http://www.w3.org/2000/svg"
   xmlns:svg="http://www.w3.org/2000/svg"><defs
     id="defs4" /><sodipodi:namedview
     id="namedview4"
     pagecolor="#505050"
     bordercolor="#eeeeee"
     borderopacity="1"
     inkscape:showpageshadow="0"
     inkscape:pageopacity="0"
     inkscape:pagecheckerboard="0"
     inkscape:deskcolor="#505050"
     inkscape:zoom="4.2094951"
     inkscape:cx="43.354368"
     inkscape:cy="-16.866631"
     inkscape:window-width="1920"
     inkscape:window-height="1003"
     inkscape:window-x="0"
     inkscape:window-y="0"
     inkscape:window-maximized="1"
     inkscape:current-layer="svg4" /><g
     id="g1"
     transform="matrix(1.3141726,0,0,1.3141726,-10.063051,-10.05945)"><path
       fill="#f4aa43"
       d="m 31.326,11.984 c -2.874,0.094 -5.725,0.96 -8.121,2.576 l -0.094,0.063 -0.11,0.017 c -3.338,0.516 -5.896,3.254 -7.75,6.076 l -10e-4,0.004 -0.002,0.002 c -1.932,3.033 -3.486,6.355 -4.422,9.81 -0.454,4.025 1.797,7.818 4.049,11.202 l 0.033,0.053 0.021,0.058 c 0.325,0.925 1.25,1.73 2.106,1.945 0.428,0.108 0.817,0.078 1.142,-0.095 0.325,-0.174 0.62,-0.5 0.819,-1.127 l 0.06,-0.19 0.174,-0.095 a 0.95,0.95 0 0 1 0.73,-0.067 c 0.221,0.075 0.383,0.206 0.526,0.35 0.285,0.287 0.513,0.655 0.75,1.039 0.237,0.384 0.474,0.781 0.705,1.096 0.231,0.315 0.466,0.527 0.596,0.584 l 0.14,0.06 0.082,0.131 c 0.523,0.82 1.453,1.207 2.495,1.59 1.041,0.383 2.201,0.743 2.878,1.762 l 0.057,0.082 0.018,0.097 c 0.32,1.618 1.665,2.904 3.322,2.96 h 0.014 l 0.015,0.001 c 1.13,0.106 2.318,0.105 3.153,-0.449 h 0.002 l 0.002,-0.002 c 0.585,-0.378 0.807,-1.158 1.138,-2.016 0.166,-0.428 0.363,-0.872 0.72,-1.238 0.338,-0.347 0.836,-0.583 1.444,-0.627 2.246,-0.503 3.963,-2.353 5.243,-4.328 0.107,-0.3 0.21,-0.555 0.334,-0.748 0.14,-0.218 0.329,-0.416 0.61,-0.48 0.283,-0.065 0.544,0.051 0.708,0.171 0.164,0.12 0.282,0.257 0.402,0.399 0.24,0.283 0.475,0.59 0.711,0.783 0.236,0.192 0.414,0.272 0.69,0.215 l 0.017,-0.006 0.02,-0.002 c 0.86,-0.108 1.433,-0.655 1.984,-1.44 0.537,-0.764 0.998,-1.718 1.611,-2.503 1.954,-3.404 3.845,-7.43 2.44,-11.168 L 52.783,28.513 C 51.17,23.789 49.117,18.783 44.849,16.14 44.083,15.72 43.199,15.544 42.269,15.308 41.357,15.076 40.393,14.768 39.56,14.025 37.076,12.563 34.19,11.89 31.326,11.984 Z"
       color="#000000"
       style="-inkscape-stroke:none"
       id="path1" /><path
       fill="#3f3f3f"
       fill-opacity="0.996"
       d="m 30.387,37.288 3.512,0.026 1.836,-1.556 -0.518,-2.52 -1.64,-0.304 -3.967,0.068 -1.118,1.802 0.25,1.514 z"
       style="paint-order:fill markers stroke"
       id="path2" /><path
       fill="#ea5a47"
       fill-opacity="0.996"
       d="m 32.04,41.432 -3.833,2.823 0.372,4.875 1.094,1.77 2.543,0.593 2.475,0.028 c 0,0 0.894,-1.573 0.978,-1.708 0.085,-0.136 0.497,-3.61 0.51,-3.762 0.012,-0.15 -0.233,-2.25 -0.233,-2.25 z"
       style="paint-order:fill markers stroke"
       id="path3" /><path
       d="m 31.586,52.421 c -1.723,-0.06 -3.29,-1.228 -3.67,-2.931 -0.766,-1.837 -0.538,-3.884 -0.788,-5.804 -2.283,-1.26 -3.968,-3.882 -3.334,-6.538 2.211,-1.038 0.691,3.035 2.418,3.862 1.251,1.892 3.687,1.958 4.98,0.11 0.91,-0.625 -0.002,-2.008 0.54,-2.864 1.56,-1.019 1.306,1.483 1.291,2.476 1.16,1.52 3.36,2.707 4.85,0.795 1.95,-0.965 1,-3.761 2.338,-4.712 1.66,1.066 0.339,4.065 -0.783,5.289 -1.296,1.324 -3.25,1.84 -2.442,4.104 -0.172,1.981 -0.524,4.21 -1.994,5.663 -0.973,0.707 -2.268,0.613 -3.406,0.55 z m 1.73,-1.49 c 2.094,-0.516 2.051,-3.364 2.213,-5.147 0.572,-2.106 -2.25,-2.29 -3.35,-3.473 -0.84,1.281 -2.91,1.446 -3.509,2.387 0.175,1.96 -0.071,4.475 1.617,5.837 a 6,6 0 0 0 3.029,0.396 z m 5.022,-3.16 c -0.856,-1.911 2.81,-2.114 3.355,-3.921 1.152,-1.543 2.684,-3.265 1.462,-5.194 0.199,-2.298 0.927,-4.55 0.919,-6.884 0.226,-2.2 -0.36,-4.368 -0.772,-6.469 1.739,-1.539 1.972,2.53 2.165,3.67 0.233,3.146 -0.235,6.286 -0.887,9.353 0.668,1.21 0.886,4.544 2.695,4.087 2.351,-3.099 4.624,-6.579 5.081,-10.526 0.154,-2.425 -1.09,-4.645 -1.893,-6.865 -1.522,-3.361 -3.548,-7.078 -7.22,-8.402 -2.04,0.08 -3.448,-1.466 -5.234,-2.222 -4.654,-2.156 -10.398,-1.685 -14.59,1.283 -3.585,0.431 -6.02,3.526 -7.858,6.362 -1.58,2.82 -3.056,5.774 -3.832,8.922 -0.209,4.378 2.494,8.187 4.96,11.56 1.832,1.083 2.07,-2.625 2.868,-3.72 -0.809,-4.249 -1.602,-8.803 -0.146,-13.009 1.122,-1.902 1.964,0.743 0.981,1.705 -0.782,3.72 -0.076,7.53 0.632,11.196 -1.13,1.978 0.355,3.717 1.64,5.218 0.592,1.735 4.463,1.91 3.228,3.861 -2.21,-0.397 -3.849,-2.286 -5.154,-4.004 -0.541,-0.674 -1.182,-2.349 -1.564,-0.57 -1.066,2.19 -3.728,0.9 -4.42,-0.892 -2.292,-3.32 -4.57,-7.06 -4.427,-11.243 0.407,-2.658 1.66,-5.108 2.797,-7.51 1.842,-3.577 4.291,-7.285 8.153,-8.898 1.357,-0.28 2.506,-0.875 3.706,-1.556 4.679,-2.32 10.49,-2.006 14.959,0.658 0.97,0.407 1.674,1.423 2.83,1.21 3.644,0.663 6.092,3.938 7.772,7.008 1.328,2.683 2.601,5.492 3.13,8.464 0.246,4.051 -1.83,7.789 -3.954,11.077 -0.782,1.792 -3.288,3.861 -4.747,1.496 -0.817,-1.782 -1.689,1.818 -2.73,2.389 -1.05,1.017 -2.326,2.578 -3.904,2.365 z M 33.9,37.313 c -2.235,-0.378 -0.85,-3.432 0.491,-1.76 1.695,-0.76 -0.424,-2.562 -1.703,-1.828 -1.285,-0.278 -3.783,-0.04 -2.885,1.636 0.739,0.455 2.262,-1.208 2.186,0.773 -0.52,2.276 -5.236,0.661 -3.932,-1.43 0.183,-2.251 2.115,-3.106 4.168,-2.642 2.102,-0.425 4.107,0.312 4.372,2.65 0.985,1.577 -1.62,2.447 -2.697,2.601 z m -8.427,-9.447 c -2.89,-1.437 1.657,-4.954 1.796,-1.497 0.35,1.193 -0.831,1.441 -1.796,1.497 m 14.2,-0.012 c -2.924,-0.135 -0.424,-4.887 1.192,-2.21 0.501,0.844 -0.034,2.43 -1.192,2.21"
       id="path4" /></g></svg>
