<?xml version="1.0" encoding="UTF-8" standalone="no"?>
<svg
   xml:space="preserve"
   width="64"
   height="64"
   version="1.1"
   id="svg8"
   sodipodi:docname="btrfs-assistant.svg"
   inkscape:version="1.4.2 (ebf0e940d0, 2025-05-08)"
   xmlns:inkscape="http://www.inkscape.org/namespaces/inkscape"
   xmlns:sodipodi="http://sodipodi.sourceforge.net/DTD/sodipodi-0.dtd"
   xmlns:xlink="http://www.w3.org/1999/xlink"
   xmlns="http://www.w3.org/2000/svg"
   xmlns:svg="http://www.w3.org/2000/svg"><sodipodi:namedview
     id="namedview8"
     pagecolor="#505050"
     bordercolor="#eeeeee"
     borderopacity="1"
     inkscape:showpageshadow="0"
     inkscape:pageopacity="0"
     inkscape:pagecheckerboard="0"
     inkscape:deskcolor="#505050"
     inkscape:zoom="4.2094951"
     inkscape:cx="-3.91971"
     inkscape:cy="21.855353"
     inkscape:window-width="1920"
     inkscape:window-height="1003"
     inkscape:window-x="0"
     inkscape:window-y="0"
     inkscape:window-maximized="1"
     inkscape:current-layer="svg8" /><defs
     id="defs5"><linearGradient
       id="linearGradient10"
       inkscape:collect="always"><stop
         style="stop-color:#fd7e14;stop-opacity:1"
         offset="0"
         id="stop10" /><stop
         style="stop-color:#de3a42;stop-opacity:1"
         offset="1"
         id="stop11" /></linearGradient><linearGradient
       id="b"
       x1="7.937"
       x2="7.937"
       y1="15.081"
       y2="1.852"
       gradientTransform="matrix(3.7796,0,0,3.7796,-70.317222,-6.8891873)"
       gradientUnits="userSpaceOnUse"><stop
         offset="0"
         stop-color="#f1efeb"
         style="stop-color:#fafafa"
         id="stop1" /><stop
         offset="1"
         stop-color="#fdfcfc"
         id="stop2" /></linearGradient><linearGradient
       xlink:href="#a"
       id="f"
       x1="135.03"
       x2="626.78"
       y1="925.37"
       y2="925.37"
       gradientTransform="translate(158.7 -200.52)scale(.36906)"
       gradientUnits="userSpaceOnUse" /><linearGradient
       id="a"><stop
         offset="0"
         style="stop-color:#fca326"
         id="stop3" /><stop
         offset="1"
         style="stop-color:#e24329"
         id="stop4" /></linearGradient><linearGradient
       xlink:href="#a"
       id="d"
       x1="101.77"
       x2="199.3"
       y1="58.614"
       y2="102.65"
       gradientTransform="rotate(20.567 232.002 -332.831)scale(1.14872)"
       gradientUnits="userSpaceOnUse" /><filter
       id="e"
       width="1.0789112"
       height="1.041151"
       x="-0.039455602"
       y="-0.020575476"
       style="color-interpolation-filters:sRGB"><feGaussianBlur
         stdDeviation="1.249"
         id="feGaussianBlur4" /></filter><filter
       id="c"
       width="1.0252316"
       height="1.0252314"
       x="-0.012615806"
       y="-0.012615708"
       style="color-interpolation-filters:sRGB"><feGaussianBlur
         stdDeviation="2.029"
         id="feGaussianBlur5" /></filter><filter
       id="filter1057"
       x="-0.026999999"
       y="-0.026999999"
       width="1.054"
       height="1.054"
       color-interpolation-filters="sRGB"><feGaussianBlur
         stdDeviation="0.61875"
         id="feGaussianBlur866" /></filter><filter
       id="filter1152"
       x="-0.055255152"
       y="-0.065640703"
       width="1.1105103"
       height="1.1312814"
       color-interpolation-filters="sRGB"><feGaussianBlur
         stdDeviation="2.9934784"
         id="feGaussianBlur922" /></filter><linearGradient
       xlink:href="#a-3"
       id="g"
       x1="15.44"
       x2="15.622"
       y1="48.721001"
       y2="15.287"
       gradientUnits="userSpaceOnUse"
       gradientTransform="matrix(1.1947431,0,0,1.1947431,102.26872,-8.7312804)" /><linearGradient
       id="a-3"><stop
         offset="0"
         style="stop-color:#d9d9d9;stop-opacity:1"
         id="stop3-6" /><stop
         offset="1"
         style="stop-color:#fff;stop-opacity:1"
         id="stop4-7" /></linearGradient><linearGradient
       inkscape:collect="always"
       xlink:href="#linearGradient10"
       id="linearGradient11"
       x1="4.5055418"
       y1="5.6460624"
       x2="49.494995"
       y2="84.353836"
       gradientUnits="userSpaceOnUse" /><linearGradient
       id="linearGradient1053"
       x1="68"
       x2="128"
       y1="62"
       y2="2"
       gradientTransform="matrix(0.91666687,0,0,0.91666687,-57.832824,2.6662446)"
       gradientUnits="userSpaceOnUse"><stop
         stop-color="#e0e4e9"
         offset="0"
         id="stop1-5" /><stop
         stop-color="#fefeff"
         offset="1"
         id="stop2-3" /></linearGradient><linearGradient
       id="linearGradient1058"
       x1="-183.25999"
       x2="-133.33"
       y1="-122.79"
       y2="-134.57001"
       gradientTransform="matrix(0.71249277,0,0,0.71249277,126.12787,198.73761)"
       gradientUnits="userSpaceOnUse"><stop
         stop-color="#3c8cff"
         offset="0"
         id="stop3-5" /><stop
         stop-color="#55b4ff"
         offset="1"
         id="stop4-6" /></linearGradient></defs><rect
     x="4.4996166"
     y="4.4996166"
     width="55.000767"
     height="55.000767"
     ry="2.7500007"
     fill="url(#linearGradient1053)"
     stroke-width="3.46465"
     id="rect4"
     style="fill:url(#linearGradient1053)" /><path
     d="m -40.201397,12.110836 a 21.26475,21.26475 0 0 0 -2.461041,-0.805225 l -3.104653,3.478441 a 17.38984,17.38984 0 0 0 -5.252394,0.0293 l -3.158996,-3.459066 a 21.45377,21.45377 0 0 0 -4.745347,2.019206 l 0.264628,4.661233 a 17.38984,17.38984 0 0 0 -3.688726,3.730782 l -4.671156,-0.21123 a 21.26475,21.26475 0 0 0 -1.13412,2.323056 21.26475,21.26475 0 0 0 -0.805226,2.461041 l 3.478913,3.104653 a 17.38984,17.38984 0 0 0 0.02883,5.252393 l -3.458593,3.158525 a 21.45377,21.45377 0 0 0 2.018733,4.745347 l 4.661706,-0.264628 a 17.38984,17.38984 0 0 0 3.730782,3.688725 l -0.211702,4.671157 a 21.26475,21.26475 0 0 0 2.323056,1.13412 21.26475,21.26475 0 0 0 2.46104,0.805225 l 3.104653,-3.478913 a 17.38984,17.38984 0 0 0 5.252394,-0.02883 l 3.158996,3.459066 a 21.45377,21.45377 0 0 0 4.745348,-2.019206 L -37.9289,45.904775 a 17.38984,17.38984 0 0 0 3.688252,-3.731255 l 4.671157,0.211703 a 21.26475,21.26475 0 0 0 1.13412,-2.323056 21.26475,21.26475 0 0 0 0.805225,-2.461513 l -3.47844,-3.104181 a 17.38984,17.38984 0 0 0 -0.0293,-5.252393 l 3.459066,-3.158997 a 21.45377,21.45377 0 0 0 -2.019207,-4.745347 l -4.661233,0.264628 a 17.38984,17.38984 0 0 0 -3.730782,-3.688253 l 0.211702,-4.671629 a 21.26475,21.26475 0 0 0 -2.323528,-1.13412 z m -2.563584,6.291531 a 14.650468,14.650468 0 0 1 8.038548,19.095745 14.650468,14.650468 0 0 1 -19.095746,8.039021 14.650468,14.650468 0 0 1 -8.038548,-19.096218 14.650468,14.650468 0 0 1 19.095746,-8.038548"
     style="fill:#ffffff;fill-opacity:1;stroke-width:0.47255"
     id="path9" /><path
     id="path6"
     style="fill:url(#linearGradient11);fill-opacity:1"
     d="M 38.918236 1.2690456 L 32.346511 8.6302045 A 36.8 36.8 0 0 0 21.232442 8.6922019 L 14.544989 1.3723746 A 45.4 45.4 0 0 0 4.5055417 5.6460626 L 5.0635184 15.511917 A 36.8 36.8 0 0 0 -2.7398886 23.406253 L -12.626409 22.959872 A 45 45 0 0 0 -15.027775 27.8742 A 45 45 0 0 0 -16.730637 33.081982 L -9.3694781 39.653707 A 36.8 36.8 0 0 0 -9.3074807 50.767776 L -16.627308 57.451096 A 45.4 45.4 0 0 0 -12.35362 67.494676 L -2.4877658 66.932567 A 36.8 36.8 0 0 0 5.4065707 74.740107 L 4.9560562 84.626627 A 45 45 0 0 0 9.8745172 87.02386 A 45 45 0 0 0 15.082299 88.730855 L 21.654025 81.365563 A 36.8 36.8 0 0 0 32.768093 81.307699 L 39.451414 88.627526 A 45.4 45.4 0 0 0 49.494994 84.353838 L 48.932884 74.487984 A 36.8 36.8 0 0 0 56.740424 66.593647 L 66.622811 67.040029 A 45 45 0 0 0 69.024177 62.125701 A 45 45 0 0 0 70.727039 56.917919 L 63.365881 50.346194 A 36.8 36.8 0 0 0 63.303883 39.232125 L 70.62371 32.548804 A 45.4 45.4 0 0 0 66.350022 22.505224 L 56.488302 23.063201 A 36.8 36.8 0 0 0 48.593965 15.259794 L 49.040346 5.373274 A 45 45 0 0 0 44.126018 2.9760409 A 45 45 0 0 0 38.918236 1.2690456 z M 26.820475 13.99918 A 31.003 31.003 0 0 1 38.699179 16.288951 A 31.003 31.003 0 0 1 55.711267 56.698861 A 31.003 31.003 0 0 1 15.301357 73.71095 A 31.003 31.003 0 0 1 -1.7107317 33.30104 A 31.003 31.003 0 0 1 26.820475 13.99918 z M 32.84249 20.413845 C 31.407081 20.413845 30.230333 21.590594 30.230333 23.026003 L 30.230333 28.961221 C 30.230333 29.642382 30.497534 30.263642 30.928837 30.730214 A 2.5920643 2.5920643 0 0 0 30.230333 32.499206 L 30.230333 38.430292 A 2.5920643 2.5920643 0 0 0 30.44939 39.480115 L 16.967021 39.480115 C 15.531612 39.480115 14.354863 40.660996 14.354863 42.096405 L 14.354863 48.023357 C 14.354863 48.705368 14.624073 49.328637 15.057501 49.796483 A 2.5920643 2.5920643 0 0 0 14.354863 51.569609 L 14.354863 57.496561 C 14.354863 58.932395 15.530762 60.116985 16.967021 60.116985 L 30.399792 60.116985 A 2.5495715 2.5495715 0 0 0 30.230333 61.034547 L 30.230333 66.969765 C 30.230333 68.405599 31.407081 69.581923 32.84249 69.581923 L 37.3807 69.581923 C 38.816109 69.581923 39.996991 68.405599 39.996991 66.969765 L 39.996991 61.034547 C 39.996991 60.354661 39.726931 59.740392 39.294354 59.27382 A 2.6090615 2.6090615 0 0 0 39.996991 57.496561 L 39.996991 51.569609 C 39.996991 50.1342 38.812401 48.949185 37.376567 48.949185 L 32.84249 48.949185 C 31.407081 48.949185 30.230333 50.1342 30.230333 51.569609 L 30.230333 57.496561 A 2.5920643 2.5920643 0 0 0 30.44939 58.546384 L 23.894198 58.546384 A 2.5920643 2.5920643 0 0 0 24.117388 57.496561 L 24.117388 51.569609 C 24.117388 50.887599 23.848178 50.26433 23.414751 49.796483 A 2.6090615 2.6090615 0 0 0 24.117388 48.023357 L 24.117388 42.096405 A 2.5920643 2.5920643 0 0 0 23.890065 41.046582 L 37.376567 41.046582 C 38.811976 41.046582 39.992858 39.865701 39.992858 38.430292 L 39.992858 32.499206 A 2.5920643 2.5920643 0 0 0 39.294354 30.730214 A 2.6005629 2.6005629 0 0 0 39.992858 28.961221 L 39.992858 23.026003 C 39.992858 21.590594 38.811976 20.413845 37.376567 20.413845 L 32.84249 20.413845 z M 32.84249 21.980313 L 37.3807 21.980313 C 37.974751 21.980313 38.42639 22.432377 38.42639 23.026003 L 38.42639 28.961221 C 38.42639 29.406971 38.172203 29.769998 37.794017 29.924247 L 32.429174 29.924247 C 32.051838 29.769998 31.796801 29.406546 31.796801 28.961221 L 31.796801 23.026003 C 31.796801 22.432377 32.24844 21.980313 32.84249 21.980313 z M 32.425041 31.540313 L 37.79815 31.540313 C 38.174636 31.695837 38.42639 32.055581 38.42639 32.499206 L 38.42639 38.430292 C 38.42639 39.024342 37.974751 39.480115 37.3807 39.480115 L 32.84249 39.480115 C 32.248865 39.480115 31.796801 39.024342 31.796801 38.430292 L 31.796801 32.499206 C 31.796801 32.055581 32.050254 31.695837 32.425041 31.540313 z M 16.967021 41.046582 L 21.505231 41.046582 C 22.098856 41.046582 22.550921 41.502355 22.550921 42.096405 L 22.550921 48.023357 C 22.550921 48.464858 22.298626 48.832868 21.926813 48.990517 L 16.545438 48.990517 C 16.173626 48.832443 15.921331 48.468566 15.921331 48.02749 L 15.921331 42.096405 C 15.921331 41.50278 16.373395 41.046582 16.967021 41.046582 z M 32.84249 50.519786 L 37.3807 50.519786 C 37.974326 50.519786 38.42639 50.975559 38.42639 51.569609 L 38.42639 57.496561 C 38.42639 57.938062 38.179503 58.305647 37.806416 58.463721 L 32.420908 58.463721 C 32.04952 58.305647 31.796801 57.937637 31.796801 57.496561 L 31.796801 51.565476 C 31.796801 50.971851 32.24844 50.519786 32.84249 50.519786 z M 16.549571 50.606583 L 21.92268 50.606583 C 22.296617 50.763806 22.550921 51.125984 22.550921 51.569609 L 22.550921 57.496561 C 22.550921 58.090611 22.098856 58.546384 21.505231 58.546384 L 16.967021 58.546384 C 16.373395 58.546384 15.925464 58.090611 15.925464 57.496561 L 15.925464 51.569609 C 15.925464 51.126409 16.175634 50.763806 16.549571 50.606583 z M 37.79815 60.079787 C 38.172937 60.23531 38.42639 60.591771 38.42639 61.034547 L 38.42639 66.969765 C 38.42639 67.563815 37.974751 68.015455 37.3807 68.015455 L 32.84249 68.015455 C 32.248865 68.015455 31.796801 67.563815 31.796801 66.969765 L 31.796801 61.034547 C 31.796801 60.626615 32.008191 60.289931 32.334111 60.116985 C 33.083685 60.116985 36.032996 60.079787 37.79815 60.079787 z "
     transform="translate(19.242 10.705)scale(.47255)" /><path
     d="m -45.53369,20.351709 c -0.678303,0 -1.234117,0.555814 -1.234117,1.234117 v 2.804573 c 0,0.321883 0.127106,0.615251 0.330918,0.83573 a 1.22488,1.22488 0 0 0 -0.330918,0.836131 v 2.802365 a 1.22488,1.22488 0 0 0 0.104215,0.495775 h -6.370982 c -0.678303,0 -1.234719,0.558224 -1.234719,1.236526 v 2.802365 c 0,0.322284 0.126504,0.616858 0.33132,0.837939 a 1.22488,1.22488 0 0 0 -0.33132,0.836131 v 2.802365 c 0,0.678503 0.556216,1.236727 1.23492,1.236727 h 6.347087 a 1.2048,1.2048 0 0 0 -0.08072,0.435133 v 2.804574 c 0,0.678503 0.555815,1.234318 1.234117,1.234318 h 2.144544 c 0.678302,0 1.236526,-0.555815 1.236526,-1.234318 v -2.804574 c 0,-0.32128 -0.126905,-0.612841 -0.33132,-0.83332 a 1.232912,1.232912 0 0 0 0.33132,-0.83854 v -2.802365 c 0,-0.678303 -0.558224,-1.236527 -1.236727,-1.236527 h -2.144142 c -0.678303,0 -1.234117,0.558224 -1.234117,1.236527 v 2.802365 a 1.22488,1.22488 0 0 0 0.104416,0.495775 h -3.097139 a 1.22488,1.22488 0 0 0 0.104416,-0.495775 v -2.802365 c 0,-0.322284 -0.126504,-0.615051 -0.33132,-0.836131 a 1.232912,1.232912 0 0 0 0.33132,-0.837939 v -2.802365 a 1.22488,1.22488 0 0 0 -0.106826,-0.495775 h 6.373392 c 0.678303,0 1.236326,-0.558224 1.236326,-1.236526 V 26.06226 a 1.22488,1.22488 0 0 0 -0.330919,-0.836131 1.228896,1.228896 0 0 0 0.330919,-0.83573 v -2.804573 c 0,-0.678303 -0.558224,-1.234117 -1.236527,-1.234117 z m 0,0.740952 h 2.144343 c 0.280718,0 0.495574,0.212647 0.495574,0.493165 v 2.804573 c 0,0.210639 -0.119676,0.383127 -0.298388,0.456017 h -2.536305 c -0.178311,-0.07289 -0.29859,-0.245378 -0.29859,-0.455816 v -2.804975 c 0,-0.280518 0.212647,-0.493165 0.493366,-0.493165 z m -0.196784,4.515992 h 2.54012 c 0.177909,0.07349 0.296782,0.244173 0.296782,0.453808 v 2.802365 c 0,0.280718 -0.214856,0.495775 -0.495574,0.495775 h -2.144544 c -0.280518,0 -0.493165,-0.215057 -0.493165,-0.495775 v -2.802365 c 0,-0.209635 0.119476,-0.380315 0.296582,-0.453808 z m -7.3041,4.492699 h 2.144343 c 0.280518,0 0.493165,0.214856 0.493165,0.495574 v 2.802365 c 0,0.208631 -0.118472,0.38152 -0.294172,0.456017 h -2.543132 c -0.1757,-0.0747 -0.293771,-0.247386 -0.293771,-0.455816 v -2.802566 c 0,-0.280517 0.212648,-0.495574 0.493165,-0.495574 z m 7.500884,4.476434 h 2.144343 c 0.280518,0 0.495574,0.214856 0.495574,0.495575 v 2.802365 c 0,0.208631 -0.11807,0.381319 -0.294372,0.456016 h -2.544739 c -0.175499,-0.0747 -0.294172,-0.247385 -0.294172,-0.455816 V 35.07316 c 0,-0.280518 0.212647,-0.495574 0.493366,-0.495574 z m -7.69807,0.04197 h 2.538112 c 0.176704,0.0743 0.296582,0.244172 0.296582,0.453808 v 2.802164 c 0,0.280718 -0.212848,0.495775 -0.493366,0.495775 h -2.144343 c -0.280518,0 -0.493165,-0.215057 -0.493165,-0.495775 v -2.802365 c 0,-0.209435 0.119476,-0.379512 0.29618,-0.453808 m 10.041406,4.476434 c 0.177105,0.07349 0.296581,0.241964 0.296581,0.451198 v 2.804975 c 0,0.280718 -0.214856,0.493366 -0.495574,0.493366 h -2.144544 c -0.280518,0 -0.493165,-0.212648 -0.493165,-0.493366 v -2.804574 c 0,-0.192768 0.100601,-0.353408 0.254615,-0.435133 0.354211,0 1.747964,-0.01606 2.582087,-0.01606 z"
     style="color:#000000;text-indent:0;text-decoration-line:none;text-transform:none;fill:#ffffff;fill-opacity:1;stroke-width:0.2008"
     id="path10" /></svg>
