<?xml version="1.0" encoding="UTF-8"?>
<svg width="64" height="64" version="1.1" viewBox="0 0 16.933 16.933" xmlns="http://www.w3.org/2000/svg" xmlns:cc="http://creativecommons.org/ns#" xmlns:dc="http://purl.org/dc/elements/1.1/" xmlns:rdf="http://www.w3.org/1999/02/22-rdf-syntax-ns#">
 <defs>
  <linearGradient id="linearGradient1005-5" x1=".73911" x2="16.388" y1="16.296" y2=".64687" gradientTransform="matrix(.99999 0 0 .99999 20.697 1.6295)" gradientUnits="userSpaceOnUse">
   <stop stop-color="#00a0ff" offset="0"/>
   <stop stop-color="#37beff" offset="1"/>
  </linearGradient>
  <filter id="filter3938" x="-.046612" y="-.049473" width="1.0932" height="1.0989" color-interpolation-filters="sRGB">
   <feGaussianBlur stdDeviation="0.17448562"/>
  </filter>
 </defs>
 <metadata>
  <rdf:RDF>
   <cc:Work rdf:about="">
    <dc:format>image/svg+xml</dc:format>
    <dc:type rdf:resource="http://purl.org/dc/dcmitype/StillImage"/>
    <dc:title/>
   </cc:Work>
  </rdf:RDF>
 </metadata>
 <g transform="translate(-20.733 -1.6228)">
  <path d="m37.136 10.089c0 0.95154-0.16749 1.8638-0.47464 2.7095-0.2135 0.58768-0.49438 1.1433-0.83392 1.6572-0.14222 0.21608-0.29514 0.42475-0.45746 0.62528-0.51965 0.64179-1.1372 1.2006-1.8304 1.6542-0.2553 0.16717-0.52064 0.3201-0.79536 0.45712-1.0668 0.53389-2.271 0.83421-3.5456 0.83421s-2.4787-0.30032-3.5456-0.83423c-0.27474-0.13705-0.5404-0.28997-0.7957-0.45712-0.70206-0.45973-1.327-1.0274-1.8508-1.6798-0.16262-0.20216-0.31524-0.41275-0.45746-0.63077-0.33047-0.50539-0.60421-1.0507-0.81349-1.627-0.30711-0.84528-0.4743-1.7572-0.4743-2.7085 0-4.3838 3.5537-7.9375 7.9375-7.9375 2.2005 0 4.1917 0.89547 5.6295 2.3416 0.41435 0.41661 0.78274 0.87929 1.0962 1.3794 0.29645 0.47107 0.54427 0.97581 0.73704 1.5068 0.30719 0.84559 0.47466 1.7579 0.47466 2.7095z" fill="url(#linearGradient1005-5)" stroke-width=".031007"/>
  <g fill="#157ce0">
   <rect transform="matrix(.16297 5.4274e-7 -5.4274e-7 .16297 24.939 5.5931)" x=".52434" y="14.445" width="16.695" height="12.328" ry="2.6356" filter="url(#filter3938)"/>
   <rect transform="matrix(.16297 5.4274e-7 -5.4274e-7 .16297 24.939 5.5931)" x="19.651" y="14.445" width="16.695" height="12.328" ry="2.6356" filter="url(#filter3938)"/>
   <rect transform="matrix(.16297 5.4274e-7 -5.4274e-7 .16297 24.939 5.5931)" x=".30503" y="29.384" width="16.695" height="12.328" ry="2.6356" filter="url(#filter3938)"/>
   <rect transform="matrix(.16297 5.4274e-7 -5.4274e-7 .16297 24.939 5.5931)" x="19.432" y="29.384" width="16.695" height="12.328" ry="2.6356" filter="url(#filter3938)"/>
   <path transform="matrix(.96594 .25882 -.25882 .96594 23.21 -.26849)" d="m7.6261 4.3797a4.2333 4.2333 0 0 0-2.4486 1.7944l1.3233-0.35458a3.4646 3.4646 0 0 1 1.3249-0.69757 3.4646 3.4646 0 0 1 4.2453 2.4453l1e-3 0.00383a3.4646 3.4646 0 0 1-2.449 4.243 3.4646 3.4646 0 0 1-1.5041 0.06029l-1.3244 0.35488a4.2333 4.2333 0 0 0 3.0276 0.3271 4.2333 4.2333 0 0 0 2.9924-5.1842l-0.0012-0.00464a4.2333 4.2333 0 0 0-5.187-2.9879z" filter="url(#filter3938)" stroke-width=".22689"/>
  </g>
  <g fill="#fff">
   <g stroke-width=".16297">
    <rect x="25.024" y="7.9469" width="2.7208" height="2.0091" ry=".42953"/>
    <rect x="28.141" y="7.9469" width="2.7208" height="2.0091" ry=".42953"/>
    <rect x="24.988" y="10.382" width="2.7208" height="2.0091" ry=".42953"/>
    <rect x="28.106" y="10.382" width="2.7208" height="2.0091" ry=".42953"/>
   </g>
   <path d="m29.443 5.9357a4.2334 4.2334 0 0 0-2.8297 1.0995l1.37-2.7e-6a3.4647 3.4647 0 0 1 1.4603-0.3309 3.4647 3.4647 0 0 1 3.4679 3.4608l-2.5e-5 4e-3a3.4647 3.4647 0 0 1-3.4638 3.4647 3.4647 3.4647 0 0 1-1.4685-0.33106l-1.3711 8e-6a4.2334 4.2334 0 0 0 2.8399 1.0996 4.2334 4.2334 0 0 0 4.2323-4.2332l4.2e-5 -0.0048a4.2334 4.2334 0 0 0-4.237-4.2287z" stroke-width=".22689"/>
  </g>
 </g>
</svg>
