<?xml version="1.0" encoding="UTF-8"?>
<svg width="64" height="64" version="1.1" viewBox="0 0 16.933 16.933" xmlns="http://www.w3.org/2000/svg" xmlns:cc="http://creativecommons.org/ns#" xmlns:dc="http://purl.org/dc/elements/1.1/" xmlns:rdf="http://www.w3.org/1999/02/22-rdf-syntax-ns#" xmlns:xlink="http://www.w3.org/1999/xlink">
 <defs>
  <filter id="e" x="-.059473" y="-.060537" width="1.1189" height="1.1211" color-interpolation-filters="sRGB">
   <feGaussianBlur stdDeviation="1.3378352"/>
  </filter>
  <linearGradient id="linearGradient2168" x1="1.2396" x2="15.693" y1="13.917" y2="13.917" gradientTransform="matrix(1 0 0 1 .000199 .12691)" gradientUnits="userSpaceOnUse" xlink:href="#linearGradient856"/>
  <linearGradient id="linearGradient856" x1="-73.361" x2="-58.736" y1="6.9799" y2="17.198" gradientTransform="translate(75.14 -.97417)" gradientUnits="userSpaceOnUse">
   <stop stop-color="#3c3c3c" offset="0"/>
   <stop stop-color="#1e1e1e" offset="1"/>
  </linearGradient>
  <filter id="m" x="-.020048" y="-.17621" width="1.0401" height="1.3524" color-interpolation-filters="sRGB">
   <feGaussianBlur stdDeviation="0.43981933"/>
  </filter>
  <linearGradient id="linearGradient2176" x1="20.388" x2="43.331" y1="49" y2="49" gradientUnits="userSpaceOnUse">
   <stop offset="0"/>
   <stop stop-opacity="0" offset="1"/>
  </linearGradient>
  <filter id="j" x="-.086731" y="-.42391" width="1.1735" height="1.8478" color-interpolation-filters="sRGB">
   <feGaussianBlur stdDeviation="0.70652346"/>
  </filter>
  <radialGradient id="g" cx="32" cy="53.196" r="9.9092" gradientTransform="matrix(.37381 1.4135e-7 -4.4471e-8 .1302 -3.4951 5.8518)" gradientUnits="userSpaceOnUse">
   <stop stop-color="#636363" offset="0"/>
   <stop stop-color="#424242" offset=".47277"/>
   <stop stop-color="#373737" offset="1"/>
  </radialGradient>
  <linearGradient id="linearGradient952" x1="8.3205" x2="8.3205" y1="1.2559" y2="13.432" gradientTransform="matrix(1 0 0 1 .000199 .12691)" gradientUnits="userSpaceOnUse" xlink:href="#linearGradient856"/>
  <filter id="k" x="-.041258" y="-.10994" width="1.0825" height="1.2199" color-interpolation-filters="sRGB">
   <feGaussianBlur stdDeviation="0.34069824"/>
  </filter>
  <linearGradient id="linearGradient2136" x1="1.8646" x2="15.069" y1="14.552" y2="14.552" gradientUnits="userSpaceOnUse">
   <stop offset="0"/>
   <stop stop-opacity="0" offset="1"/>
  </linearGradient>
  <filter id="n" x="-.019841" y="-.23809" width="1.0397" height="1.4762" color-interpolation-filters="sRGB">
   <feGaussianBlur stdDeviation="0.1049892"/>
  </filter>
  <radialGradient id="d" cx="7.9373" cy="13.903" r="7.142" gradientTransform="matrix(1.1114 4.7499e-8 -5.5415e-8 1.2966 -.88335 -5.097)" gradientUnits="userSpaceOnUse">
   <stop stop-color="#4d4d4d" offset="0"/>
   <stop stop-color="#4d4d4d" stop-opacity="0" offset="1"/>
  </radialGradient>
 </defs>
 <metadata>
  <rdf:RDF>
   <cc:Work rdf:about="">
    <dc:format>image/svg+xml</dc:format>
    <dc:type rdf:resource="http://purl.org/dc/dcmitype/StillImage"/>
    <dc:title/>
   </cc:Work>
  </rdf:RDF>
 </metadata>
 <path transform="matrix(.26459 0 0 .26459 .000199 .12691)" d="m14 5c-0.54275-9.566e-4 -1.0131 0.089051-1.3945 0.2793-0.62057 0.23101-0.88354 0.66383-1.0625 1.3691l-6.5273 41.746c-0.021015 0.22364-0.00643 0.43929 0.037109 0.64648 0.00264 0.01257 0.0069 0.0246 0.00977 0.03711-0.00671 0.41826 0.00691 0.85899 0.037109 1.3125 0.036851 1.9891 0.14217 2.4666 0.31836 4.5371 0.096546 1.7208 1.1493 3.1125 2.5762 3.1113l48.012-0.03906c1.427-0.0012 2.4796-1.3515 2.5762-3.0723 0.17617-2.0706 0.28151-2.55 0.31836-4.5391 0.03005-0.45129 0.04154-0.88816 0.03516-1.3047 0.0033-0.01454 0.0087-0.02836 0.01172-0.04297 0.04354-0.2072 0.0582-0.4248 0.03711-0.64844l-7.5273-41.742c-0.179-0.70535-0.44193-1.1382-1.0625-1.3691-0.38144-0.19021-0.85178-0.28025-1.3945-0.2793h-17l-18-0.00195zm18 38.982a13.526 21.831 0 0 1 6.9766 3.1758h-13.959a13.526 21.831 0 0 1 6.9824-3.1758z" filter="url(#e)" opacity=".35" stroke-width="3.7796"/>
 <path d="m1.6004 12.604c-0.2479 0.04331-0.24216 0.44937-0.21527 0.85502 0.0097 0.52628 0.03749 0.65269 0.08387 1.2005 0.02541 0.45529 0.30242 0.82392 0.67805 0.82361l12.639-0.01034c0.37565-3.18e-4 0.65264-0.35799 0.67805-0.81328 0.04638-0.54784 0.07417-0.67425 0.08386-1.2005 0.02687-0.40565 0.03262-0.81166-0.21527-0.85502h-12.738z" fill="url(#linearGradient2168)" stroke="#000" stroke-opacity=".19608" stroke-width=".26459"/>
 <g fill-rule="evenodd">
  <path transform="matrix(.26459 0 0 .26459 .000199 .12691)" d="m6.7715 45.307c-0.6077 0-1.0977 0.74583-1.0977 1.6719v2.6465c0 0.92605 0.48996 1.6719 1.0977 1.6719h15.867a9.8639 5.1132 0 0 1 9.3613-3.5117 9.8639 5.1132 0 0 1 9.3535 3.5117h15.875c0.6077 0 1.0977-0.74583 1.0977-1.6719v-2.6465c0-0.92605-0.48996-1.6719-1.0977-1.6719h-50.457z" filter="url(#m)" opacity=".35" style="paint-order:stroke fill markers"/>
  <path transform="matrix(.26459 0 0 .26459 .000199 -.13768)" d="m31.855 47a10.294 5.7981 0 0 0-9.7715 4h2.502a10.294 5.7981 0 0 1 7.2695-1.6992 10.294 5.7981 0 0 1 7.2578 1.6992h2.5215a10.294 5.7981 0 0 0-9.7793-4z" fill="url(#linearGradient2176)" filter="url(#j)" opacity=".35" style="paint-order:stroke fill markers"/>
  <path transform="matrix(.26459 0 0 .26459 .000199 .11972)" d="m31.855 47a10.294 5.7981 0 0 0-9.7715 4h2.502a10.294 5.7981 0 0 1 7.2695-1.6992 10.294 5.7981 0 0 1 7.2578 1.6992h2.5215a10.294 5.7981 0 0 0-9.7793-4z" fill="#00a2ef" filter="url(#j)" style="paint-order:stroke fill markers"/>
 </g>
 <path d="m8.4669 11.649a3.5787 6.1317 0 0 0-2.6211 1.9678h0.23202a2.7238 1.6285 0 0 1 2.389-0.84702 2.7238 1.6285 0 0 1 2.3859 0.84702h0.23668a3.5787 6.1317 0 0 0-2.6226-1.9678z" fill="url(#g)"/>
 <path d="m3.7044 1.4498c-0.1436-2.53e-4 -0.26806 0.02356-0.36897 0.0739-0.1642 0.06112-0.23376 0.17563-0.28112 0.36225l-1.727 11.045c-0.0056 0.05917-0.0017 0.11623 0.0098 0.17105 0.0046 0.02193 0.01052 0.04352 0.01757 0.06459 0.0035 0.01054 0.0073 0.02074 0.01137 0.03101 0.01232 0.03079 0.02727 0.06055 0.04444 0.08888 0.02862 0.04721 0.06333 0.09085 0.10335 0.1297 8e-3 0.0077 0.0164 0.01539 0.0248 0.02274 0.042 0.03698 0.08869 0.06914 0.13901 0.0956 0.01006 0.0052 0.02015 0.01016 0.03049 0.01499 0.093 0.04345 0.19675 0.0677 0.30335 0.0677h3.8344a3.5788 5.7761 0 0 1 2.6211-1.8536 3.5788 5.7761 0 0 1 2.6226 1.8536h3.8328c0.24866 0 0.48081-0.1325 0.601-0.33073 0.01717-0.02831 0.03212-0.05808 0.04444-0.08888 0.0041-0.01026 0.0083-0.0205 0.01189-0.03101 7e-3 -0.02104 0.01245-0.04268 0.01705-0.06459 0.01152-0.05482 0.01538-0.11239 0.0098-0.17156l-1.9916-11.044c-0.047361-0.18662-0.11693-0.30113-0.28113-0.36225-0.10092-0.05033-0.22536-0.07415-0.36897-0.0739h-9.2605z" fill="url(#linearGradient952)"/>
 <path transform="matrix(.26459 0 0 .26459 .000199 .12691)" d="m32 43.549a13.526 23.175 0 0 0-9.9062 7.4375h0.29688a13.526 23.175 0 0 1 9.6094-6.9199 13.526 23.175 0 0 1 9.6035 6.9199h0.30859a13.526 23.175 0 0 0-9.9121-7.4375z" filter="url(#k)" opacity=".15" stroke-width="3.7796"/>
 <g fill-rule="evenodd">
  <rect transform="matrix(1.0417 0 0 .96684 -.35258 .62727)" x="2.1166" y="14.023" width="12.7" height="1.0583" rx=".26458" ry=".29539" fill="url(#linearGradient2136)" filter="url(#n)" opacity=".1" style="paint-order:stroke fill markers"/>
  <circle cx="14.155" cy="14.547" r=".39688" fill="#f44e24" style="paint-order:stroke fill markers"/>
  <circle cx="12.871" cy="14.541" r=".31444" fill="#ffb800" stroke-width=".79228" style="paint-order:stroke fill markers"/>
  <circle cx="11.669" cy="14.541" r=".31444" fill="#00a2ef" stroke-width=".79228" style="paint-order:stroke fill markers"/>
 </g>
 <path d="m3.7048 1.4498c-0.1436-2.53e-4 -0.26804 0.02356-0.36897 0.0739-0.16419 0.06112-0.23376 0.17563-0.28112 0.36225l-1.727 11.045c-0.0056 0.05917-0.0017 0.11623 0.0098 0.17105 0.0046 0.02193 0.01052 0.04352 0.01757 0.06459 0.0035 0.01054 0.0073 0.02074 0.01137 0.03101 0.01232 0.03079 0.02727 0.06055 0.04444 0.08888 0.02861 0.04721 0.06333 0.09084 0.10335 0.1297 8e-3 0.0077 0.0164 0.01539 0.0248 0.02274 0.042 0.03698 0.08869 0.06914 0.13901 0.0956 0.01006 0.0052 0.02015 0.01017 0.03049 0.01499 0.093 0.04345 0.19675 0.06769 0.30334 0.06769h3.8344a3.5787 5.776 0 0 1 2.6211-1.8536 3.5787 5.776 0 0 1 2.6226 1.8536h3.8329c0.24866 0 0.4808-0.1325 0.60099-0.33073 0.01717-0.02831 0.03212-0.05808 0.04444-0.08888 0.0041-0.01026 0.0083-0.0205 0.01188-0.03101 7e-3 -0.02104 0.01245-0.04268 0.01705-0.06459 0.01152-0.05482 0.01538-0.11239 0.0098-0.17156l-1.9916-11.044c-0.047361-0.18662-0.11693-0.30114-0.28113-0.36225-0.10092-0.05033-0.22536-0.07415-0.36897-0.0739h-4.4979z" fill="url(#d)"/>
</svg>
