<?xml version="1.0" encoding="UTF-8"?>
<svg width="64" height="64" version="1.1" viewBox="0 0 16.933 16.933" xmlns="http://www.w3.org/2000/svg" xmlns:cc="http://creativecommons.org/ns#" xmlns:dc="http://purl.org/dc/elements/1.1/" xmlns:rdf="http://www.w3.org/1999/02/22-rdf-syntax-ns#" xmlns:xlink="http://www.w3.org/1999/xlink">
 <defs>
  <linearGradient id="linearGradient4804" x1="-63.263" x2="-63.263" y1="4.2135" y2="59.402" gradientTransform="matrix(.26458 0 0 .26458 41.282 12.24)" gradientUnits="userSpaceOnUse">
   <stop stop-color="#75dc38" offset="0"/>
   <stop stop-color="#40c340" offset="1"/>
  </linearGradient>
  <linearGradient id="linearGradient4786" x1="33.462" x2="34.117" y1="1013.6" y2="1037.2" gradientTransform="matrix(.41151 0 0 .5967 22.58 -590.79)" gradientUnits="userSpaceOnUse">
   <stop stop-color="#f6fbff" offset="0"/>
   <stop stop-color="#eaeff2" offset="1"/>
  </linearGradient>
  <linearGradient id="linearGradient4812" x1="-44.671" x2="-44.671" y1="1.8298" y2="61.861" gradientTransform="matrix(.26458 0 0 .26458 41.282 12.24)" gradientUnits="userSpaceOnUse">
   <stop stop-color="#40c240" offset="0"/>
   <stop stop-color="#14ab4b" offset="1"/>
  </linearGradient>
  <linearGradient id="linearGradient3529" x1="11.993" x2="11.993" y1="15.289" y2="8.3841" gradientTransform="matrix(.93752 0 0 .93752 14.02 13.677)" gradientUnits="userSpaceOnUse">
   <stop stop-color="#2e2e2e" offset="0"/>
   <stop stop-color="#5c5c5c" offset="1"/>
  </linearGradient>
 </defs>
 <metadata>
  <rdf:RDF>
   <cc:Work rdf:about="">
    <dc:format>image/svg+xml</dc:format>
    <dc:type rdf:resource="http://purl.org/dc/dcmitype/StillImage"/>
    <dc:title/>
   </cc:Work>
  </rdf:RDF>
 </metadata>
 <g transform="matrix(.98978 0 0 .98978 -20.434 -12.11)">
  <path d="m22.818 13.321c-0.56571-0.01484-0.80098 0.1137-0.80098 0.71365v13.182c-0.04753 0.75243 0.26664 0.73639 1.0025 0.73639h6.9432v-14.618h-6.8818c-0.0946-7e-3 -0.18222-0.01183-0.26303-0.01395z" fill="url(#linearGradient4804)" stroke-linecap="round" stroke-width=".52917"/>
  <path d="m36.383 27.948h-4.7681v-14.618h4.7681c0.50622-0.05609 0.54695 0.01372 0.54695 0.69939v13.182c0.03179 0.75243-0.0547 0.7365-0.54695 0.7365z" fill="url(#linearGradient4786)" fill-rule="evenodd" image-rendering="optimizeSpeed" stroke-width=".5967"/>
  <path d="m35.382 12.77c-0.07133-0.0015-0.15216 0.0013-0.24391 0.0083l-9.3508 0.55656v14.61l9.4005 0.69918c0.71377 0 0.71996-0.33794 0.67386-1.0904l0.05013-13.944c0-0.59996-0.03037-0.82927-0.52968-0.83974z" fill="url(#linearGradient4812)" stroke-linecap="round" stroke-width=".52917"/>
  <path d="m34.076 12.84-3.174 0.1881-1e-3 9.6015 1.5875-1.5172 1.5875 1.3229z" fill="#fff" stroke-linecap="round" stroke-width=".52917"/>
  <circle cx="25.43" cy="24.839" r="3.9688" fill="url(#linearGradient3529)" stroke-width=".93752"/>
  <path d="m26.218 22.049a0.18821 0.18348 0 0 0-0.0186 2e-3 0.18821 0.18348 0 0 0-0.0186 0.0033 0.18821 0.18348 0 0 0-0.01796 5e-3 0.18821 0.18348 0 0 0-0.01726 7e-3 0.18821 0.18348 0 0 0-0.01662 0.0086 0.18821 0.18348 0 0 0-6e-3 0.0033 0.18821 0.18348 0 0 0-0.01563 0.01063 0.18821 0.18348 0 0 0-0.01396 0.01163 0.18821 0.18348 0 0 0-0.01327 0.01329 0.18821 0.18348 0 0 0-0.01129 0.01462 0.18821 0.18348 0 0 0-0.01029 0.01528 0.18821 0.18348 0 0 0-0.0083 0.01661 0.18821 0.18348 0 0 0-0.0066 0.01694 0.18821 0.18348 0 0 0-5e-3 0.01794 0.6324 0.61653 0 0 1-0.0086 0.03455 0.6324 0.61653 0 0 1-0.01994 0.05847 0.6324 0.61653 0 0 1-0.02557 0.05648 0.6324 0.61653 0 0 1-0.03123 0.05349 0.6324 0.61653 0 0 1-0.03655 0.05016 0.6324 0.61653 0 0 1-0.04153 0.04651 0.6324 0.61653 0 0 1-0.04617 0.04186 0.6324 0.61653 0 0 1-0.05017 0.03754 0.6324 0.61653 0 0 1-0.05382 0.03256 0.6324 0.61653 0 0 1-0.05681 0.02691 0.6324 0.61653 0 0 1-0.05913 0.02126 0.6324 0.61653 0 0 1-0.06113 0.01562 0.6324 0.61653 0 0 1-0.06279 0.0093 0.6324 0.61653 0 0 1-0.06312 0.0033 0.6324 0.61653 0 0 1-0.03389-1e-3 0.6324 0.61653 0 0 1-0.06279-0.0066 0.6324 0.61653 0 0 1-0.06179-0.01262 0.6324 0.61653 0 0 1-0.06013-0.01894 0.6324 0.61653 0 0 1-0.05814-0.02425 0.6324 0.61653 0 0 1-0.05548-0.03023 0.6324 0.61653 0 0 1-0.05149-0.03521 0.6324 0.61653 0 0 1-0.04817-0.03987 0.6324 0.61653 0 0 1-0.04385-0.04452 0.6324 0.61653 0 0 1-0.03887-0.04851 0.6324 0.61653 0 0 1-0.03355-0.05216 0.6324 0.61653 0 0 1-0.02825-0.05515 0.6324 0.61653 0 0 1-0.02259-0.05781 0.6324 0.61653 0 0 1-0.01628-0.05947 0.18821 0.18348 0 0 0-6.09e-4 -0.0037 0.18821 0.18348 0 0 0-0.0053-0.0176 0.18821 0.18348 0 0 0-0.0066-0.01694 0.18821 0.18348 0 0 0-0.0083-0.01661 0.18821 0.18348 0 0 0-0.0103-0.01528 0.18821 0.18348 0 0 0-0.01164-0.01462 0.18821 0.18348 0 0 0-0.01295-0.01329 0.18821 0.18348 0 0 0-0.01462-0.01163 0.18821 0.18348 0 0 0-0.01527-0.01063 0.18163 0.17707 0 0 0-0.0086-0.0046 0.18163 0.17707 0 0 0-0.01661-0.0076 0.18163 0.17707 0 0 0-0.01694-6e-3 0.18163 0.17707 0 0 0-0.01762-0.0043 0.18163 0.17707 0 0 0-0.01795-0.0023 0.18163 0.17707 0 0 0-0.01827-6.35e-4 0.18163 0.17707 0 0 0-0.01827 1e-3 0.18163 0.17707 0 0 0-0.01795 3e-3 0.18163 0.17707 0 0 0-0.01726 0.0043 2.9738 2.8991 0 0 0-0.17176 0.05614 2.9738 2.8991 0 0 0-0.27341 0.11395 2.9738 2.8991 0 0 0-0.26013 0.1402 2.9738 2.8991 0 0 0-0.24451 0.16478 2.9738 2.8991 0 0 0-0.22657 0.18738 0.18821 0.18348 0 0 0-3e-3 0.0023 0.18821 0.18348 0 0 0-0.01262 0.01395 0.18821 0.18348 0 0 0-0.01128 0.01462 0.18821 0.18348 0 0 0-0.0093 0.01595 0.18821 0.18348 0 0 0-0.0083 0.01628 0.18821 0.18348 0 0 0-0.0063 0.01727 0.18821 0.18348 0 0 0-0.0043 0.01794 0.18821 0.18348 0 0 0-0.0027 0.01827 0.18821 0.18348 0 0 0-5.96e-4 0.01827 0.18821 0.18348 0 0 0 0 3e-3 0.18821 0.18348 0 0 0 8.95e-4 0.01827 0.18821 0.18348 0 0 0 0.0033 0.01794 0.18821 0.18348 0 0 0 0.0046 0.01794 0.18821 0.18348 0 0 0 0.0066 0.01728 0.18821 0.18348 0 0 0 0.0083 0.01628 0.18821 0.18348 0 0 0 0.01 0.01562 0.18821 0.18348 0 0 0 0.01164 0.01428 0.18821 0.18348 0 0 0 0.01295 0.01329 0.62864 0.61285 0 0 1 0.0063 6e-3 0.62864 0.61285 0 0 1 0.04385 0.04418 0.62864 0.61285 0 0 1 0.03887 0.04784 0.62864 0.61285 0 0 1 0.03388 0.05183 0.62864 0.61285 0 0 1 0.02825 0.05481 0.62864 0.61285 0 0 1 0.02259 0.05714 0.62864 0.61285 0 0 1 0.01661 0.0588 0.62864 0.61285 0 0 1 0.01063 0.06046 0.62864 0.61285 0 0 1 0.0043 0.06113 0.62864 0.61285 0 0 1-0.0021 0.06113 0.62864 0.61285 0 0 1-0.0083 0.0608 0.62864 0.61285 0 0 1-0.01462 0.0598 0.62864 0.61285 0 0 1-0.02027 0.0578 0.62864 0.61285 0 0 1-0.02625 0.05581 0.62864 0.61285 0 0 1-0.03189 0.05282 0.62864 0.61285 0 0 1-0.03721 0.04917 0.62864 0.61285 0 0 1-0.04186 0.04552 0.62864 0.61285 0 0 1-0.04651 0.04153 0.62864 0.61285 0 0 1-0.0505 0.03621 0.62864 0.61285 0 0 1-0.05382 0.03156 0.62864 0.61285 0 0 1-0.05714 0.02625 0.62864 0.61285 0 0 1-0.05914 0.02026 0.62864 0.61285 0 0 1-0.06113 0.01462 0.62864 0.61285 0 0 1-0.06212 0.0083 0.62864 0.61285 0 0 1-0.06279 0.0023 0.62864 0.61285 0 0 1-0.06246-0.0037 0.62864 0.61285 0 0 1-0.06212-0.0096 0.62864 0.61285 0 0 1-0.0608-0.01595 0.18821 0.18348 0 0 0-9e-3 -0.0026 0.18821 0.18348 0 0 0-0.01828-0.0037 0.18821 0.18348 0 0 0-0.01893-0.0023 0.18821 0.18348 0 0 0-0.0186 0 0.18821 0.18348 0 0 0-0.01893 0.0017 0.18821 0.18348 0 0 0-0.01828 0.0033 0.18821 0.18348 0 0 0-0.01795 5e-3 0.18821 0.18348 0 0 0-0.01759 7e-3 0.18821 0.18348 0 0 0-0.01661 0.0086 0.18821 0.18348 0 0 0-0.01563 0.0103 0.18821 0.18348 0 0 0-0.01461 0.01163 0.18821 0.18348 0 0 0-0.01328 0.01296 0.18821 0.18348 0 0 0-0.01197 0.01395 0.18821 0.18348 0 0 0-0.0103 0.01528 0.18821 0.18348 0 0 0-0.0086 0.01628 0.18821 0.18348 0 0 0-0.0073 0.01727 0.18821 0.18348 0 0 0-5e-3 0.01728 2.8947 2.8221 0 0 0-0.04286 0.19966 2.8947 2.8221 0 0 0-0.03488 0.28006 2.8947 2.8221 0 0 0-0.0057 0.28205 2.8947 2.8221 0 0 0 0.02325 0.28105 2.8947 2.8221 0 0 0 0.0515 0.27773 0.18821 0.18348 0 0 0 0.0024 0.0083 0.18821 0.18348 0 0 0 6e-3 0.01728 0.18821 0.18348 0 0 0 0.0076 0.01694 0.18821 0.18348 0 0 0 0.0093 0.01595 0.18821 0.18348 0 0 0 0.01098 0.01462 0.18821 0.18348 0 0 0 0.01229 0.01395 0.18821 0.18348 0 0 0 0.01396 0.01262 0.18821 0.18348 0 0 0 0.01494 0.01096 0.18821 0.18348 0 0 0 0.01563 0.0096 0.18821 0.18348 0 0 0 0.01726 8e-3 0.18821 0.18348 0 0 0 0.01762 0.0063 0.18821 0.18348 0 0 0 0.01828 0.0046 0.18821 0.18348 0 0 0 0.0186 0.0026 0.18821 0.18348 0 0 0 0.0186 1e-3 0.18821 0.18348 0 0 0 0.01893-1e-3 0.18821 0.18348 0 0 0 0.0186-0.0026 0.18821 0.18348 0 0 0 0.01828-0.0043 0.62864 0.61285 0 0 1 0.0093-3e-3 0.62864 0.61285 0 0 1 0.06113-0.01429 0.62864 0.61285 0 0 1 0.06246-0.0086 0.62864 0.61285 0 0 1 0.06246-2e-3 0.62864 0.61285 0 0 1 0.06279 0.0037 0.62864 0.61285 0 0 1 0.06212 0.0103 0.62864 0.61285 0 0 1 0.0608 0.01562 0.62864 0.61285 0 0 1 0.05847 0.02193 0.62864 0.61285 0 0 1 0.05648 0.02724 0.62864 0.61285 0 0 1 0.05315 0.03256 0.62864 0.61285 0 0 1 0.0495 0.03787 0.62864 0.61285 0 0 1 0.04551 0.04252 0.62864 0.61285 0 0 1 0.04086 0.04618 0.62864 0.61285 0 0 1 0.03588 0.0505 0.62864 0.61285 0 0 1 0.03023 0.05349 0.62864 0.61285 0 0 1 0.02524 0.05614 0.62864 0.61285 0 0 1 0.01893 0.05847 0.62864 0.61285 0 0 1 0.01295 0.06013 0.62864 0.61285 0 0 1 0.0066 0.0608 0.62864 0.61285 0 0 1 6.09e-4 0.06113 0.62864 0.61285 0 0 1-6e-3 0.06113 0.62864 0.61285 0 0 1-0.01197 0.06013 0.62864 0.61285 0 0 1-0.01795 0.0588 0.62864 0.61285 0 0 1-0.02426 0.05648 0.62864 0.61285 0 0 1-0.02956 0.05382 0.62864 0.61285 0 0 1-0.03522 0.05083 0.62864 0.61285 0 0 1-0.03987 0.04717 0.62864 0.61285 0 0 1-0.04485 0.04319 0.18821 0.18348 0 0 0-0.0037 0.0033 0.18821 0.18348 0 0 0-0.01295 0.01329 0.18821 0.18348 0 0 0-0.01197 0.01429 0.18821 0.18348 0 0 0-0.01 0.01528 0.18821 0.18348 0 0 0-0.0083 0.01628 0.18821 0.18348 0 0 0-0.0066 0.01727 0.18821 0.18348 0 0 0-0.0053 0.01794 0.18821 0.18348 0 0 0-3e-3 0.01794 0.18821 0.18348 0 0 0-0.0015 0.01827 0.18821 0.18348 0 0 0 0 0.0046 0.18821 0.18348 0 0 0 0.0015 0.01827 0.18821 0.18348 0 0 0 3e-3 0.01827 0.18821 0.18348 0 0 0 0.0046 0.0176 0.18821 0.18348 0 0 0 0.0066 0.01728 0.18821 0.18348 0 0 0 0.0083 0.01628 0.18821 0.18348 0 0 0 0.01 0.01562 0.18821 0.18348 0 0 0 0.01164 0.01462 0.18821 0.18348 0 0 0 0.01295 0.01329 2.9898 2.9148 0 0 0 0.12525 0.11096 2.9898 2.9148 0 0 0 0.23621 0.1784 2.9898 2.9148 0 0 0 0.25315 0.15481 2.9898 2.9148 0 0 0 0.2681 0.12923 2.9898 2.9148 0 0 0 0.2794 0.10266 0.18821 0.18348 0 0 0 0.0053 0.0017 0.18821 0.18348 0 0 0 0.01828 4e-3 0.18821 0.18348 0 0 0 0.0186 2e-3 0.18821 0.18348 0 0 0 0.01893 6.35e-4 0.18821 0.18348 0 0 0 0.01893-0.0013 0.18821 0.18348 0 0 0 0.01827-0.0033 0.18821 0.18348 0 0 0 0.01828-5e-3 0.18821 0.18348 0 0 0 0.01726-0.0066 0.18821 0.18348 0 0 0 0.01694-0.0086 0.18821 0.18348 0 0 0 0.0066-0.0037 0.18821 0.18348 0 0 0 0.01563-0.01 0.18821 0.18348 0 0 0 0.01462-0.01163 0.18821 0.18348 0 0 0 0.01327-0.01296 0.18821 0.18348 0 0 0 0.01197-0.01429 0.18821 0.18348 0 0 0 0.0103-0.01495 0.18821 0.18348 0 0 0 9e-3 -0.01628 0.18821 0.18348 0 0 0 0.0073-0.01694 0.18821 0.18348 0 0 0 0.0053-0.01761 0.63146 0.61559 0 0 1 0.0066-0.02691 0.63146 0.61559 0 0 1 0.01994-0.05847 0.63146 0.61559 0 0 1 0.02557-0.05615 0.63146 0.61559 0 0 1 0.03123-0.05349 0.63146 0.61559 0 0 1 0.03654-0.05016 0.63146 0.61559 0 0 1 0.0412-0.04618 0.63146 0.61559 0 0 1 0.04617-0.04219 0.63146 0.61559 0 0 1 0.05017-0.03754 0.63146 0.61559 0 0 1 0.05348-0.03222 0.63146 0.61559 0 0 1 0.05681-0.02724 0.63146 0.61559 0 0 1 0.05947-0.02126 0.63146 0.61559 0 0 1 0.06113-0.01528 0.63146 0.61559 0 0 1 0.06212-0.0093 0.63146 0.61559 0 0 1 0.06312-0.0033h0.0073a0.63146 0.61559 0 0 1 0.03588 0.0013 0.63146 0.61559 0 0 1 0.06279 0.0076 0.63146 0.61559 0 0 1 0.06146 0.01362 0.63146 0.61559 0 0 1 0.06013 0.01927 0.63146 0.61559 0 0 1 0.05747 0.02525 0.63146 0.61559 0 0 1 0.05482 0.03056 0.63146 0.61559 0 0 1 0.05116 0.03588 0.63146 0.61559 0 0 1 0.04751 0.04053 0.63146 0.61559 0 0 1 0.04319 0.04518 0.63146 0.61559 0 0 1 0.03787 0.04884 0.63146 0.61559 0 0 1 0.03322 0.05249 0.63146 0.61559 0 0 1 0.02724 0.05548 0.63146 0.61559 0 0 1 0.02158 0.05781 0.63146 0.61559 0 0 1 0.01563 0.05947 0.18821 0.18348 0 0 0 1e-3 0.0053 0.18821 0.18348 0 0 0 5e-3 0.0176 0.18821 0.18348 0 0 0 7e-3 0.01694 0.18821 0.18348 0 0 0 0.0086 0.01628 0.18821 0.18348 0 0 0 0.01 0.01562 0.18821 0.18348 0 0 0 0.01196 0.01429 0.18821 0.18348 0 0 0 0.01327 0.01296 0.18821 0.18348 0 0 0 0.01429 0.01196 0.18821 0.18348 0 0 0 0.01563 0.0103 0.18821 0.18348 0 0 0 0.0086 5e-3 0.18821 0.18348 0 0 0 0.01694 8e-3 0.18821 0.18348 0 0 0 0.01761 0.0063 0.18821 0.18348 0 0 0 0.01828 0.0047 0.18821 0.18348 0 0 0 0.01828 0.0026 0.18821 0.18348 0 0 0 0.01892 1e-3 0.18821 0.18348 0 0 0 0.01726-0.0017 0.18821 0.18348 0 0 0 0.0186-4e-3 0.18821 0.18348 0 0 0 0.01796-0.0053 2.9785 2.9037 0 0 0 0.16843-0.05216 2.9785 2.9037 0 0 0 0.27574-0.10963 2.9785 2.9037 0 0 0 0.26344-0.13588 2.9785 2.9037 0 0 0 0.24783-0.16079 2.9785 2.9037 0 0 0 0.23022-0.18372 0.18821 0.18348 0 0 0 4e-3 -0.0037 0.18821 0.18348 0 0 0 0.01295-0.01329 0.18821 0.18348 0 0 0 0.01129-0.01462 0.18821 0.18348 0 0 0 0.01-0.01562 0.18821 0.18348 0 0 0 0.0083-0.01661 0.18821 0.18348 0 0 0 0.0067-0.01694 0.18821 0.18348 0 0 0 5e-3 -0.01794 0.18821 0.18348 0 0 0 3e-3 -0.01794 0.18821 0.18348 0 0 0 1e-3 -0.01827 0.18821 0.18348 0 0 0 0-6e-3 0.18821 0.18348 0 0 0-0.0017-0.01827 0.18821 0.18348 0 0 0-0.0033-0.01794 0.18821 0.18348 0 0 0-0.0053-0.01794 0.18821 0.18348 0 0 0-0.0066-0.01694 0.18821 0.18348 0 0 0-9e-3 -0.01628 0.18821 0.18348 0 0 0-0.01029-0.01528 0.18821 0.18348 0 0 0-0.01163-0.01429 0.18821 0.18348 0 0 0-0.01327-0.01296 0.62957 0.61376 0 0 1-0.01364-0.01263 0.62957 0.61376 0 0 1-0.04252-0.04518 0.62957 0.61376 0 0 1-0.03787-0.04884 0.62957 0.61376 0 0 1-0.03256-0.05249 0.62957 0.61376 0 0 1-0.02724-0.05548 0.62957 0.61376 0 0 1-0.02126-0.05747 0.62957 0.61376 0 0 1-0.01528-0.0598 0.62957 0.61376 0 0 1-9e-3 -0.0608 0.62957 0.61376 0 0 1-3e-3 -0.06113 0.62957 0.61376 0 0 1 0.0037-0.06146 0.62957 0.61376 0 0 1 0.0096-0.06046 0.62957 0.61376 0 0 1 0.01595-0.05947 0.62957 0.61376 0 0 1 0.02195-0.05747 0.62957 0.61376 0 0 1 0.02789-0.05515 0.62957 0.61376 0 0 1 0.03289-0.05216 0.62957 0.61376 0 0 1 0.03854-0.04851 0.62957 0.61376 0 0 1 0.04319-0.04452 0.62957 0.61376 0 0 1 0.0475-0.04053 0.62957 0.61376 0 0 1 0.05117-0.03521 0.62957 0.61376 0 0 1 0.05481-0.03023 0.62957 0.61376 0 0 1 0.05747-0.02458 0.62957 0.61376 0 0 1 0.0598-0.01927 0.62957 0.61376 0 0 1 0.06179-0.01329 0.62957 0.61376 0 0 1 0.06246-7e-3 0.62957 0.61376 0 0 1 0.06279-1e-3 0.62957 0.61376 0 0 1 0.06279 0.0053 0.62957 0.61376 0 0 1 0.06179 0.0113 0.62957 0.61376 0 0 1 0.06046 0.01728 0.18821 0.18348 0 0 0 0.0057 0.0017 0.18821 0.18348 0 0 0 0.01796 5e-3 0.18821 0.18348 0 0 0 0.0186 0.0026 0.18821 0.18348 0 0 0 0.01893 0.0013 0.18821 0.18348 0 0 0 0.0186-1e-3 0.18821 0.18348 0 0 0 0.0186-0.0023 0.18821 0.18348 0 0 0 0.01828-0.0043 0.18821 0.18348 0 0 0 0.01796-6e-3 0.18821 0.18348 0 0 0 0.01694-8e-3 0.18821 0.18348 0 0 0 0.0053-3e-3 0.18821 0.18348 0 0 0 0.01592-0.0096 0.18821 0.18348 0 0 0 0.01461-0.01162 0.18821 0.18348 0 0 0 0.01327-0.01262 0.18821 0.18348 0 0 0 0.0123-0.01429 0.18821 0.18348 0 0 0 0.01061-0.01495 0.18821 0.18348 0 0 0 0.0093-0.01595 0.18821 0.18348 0 0 0 0.0073-0.01694 0.18821 0.18348 0 0 0 0.0053-0.0176 2.9277 2.8542 0 0 0 0.04352-0.19069 2.9277 2.8542 0 0 0 0.03953-0.28272 2.9277 2.8542 0 0 0 0.01-0.28537 2.9277 2.8542 0 0 0-0.01925-0.28471 2.9277 2.8542 0 0 0-0.04817-0.28139 0.18821 0.18348 0 0 0-0.0015-0.0053 0.18821 0.18348 0 0 0-0.0053-0.0176 0.18821 0.18348 0 0 0-7e-3 -0.01694 0.18821 0.18348 0 0 0-9e-3 -0.01628 0.18821 0.18348 0 0 0-0.01029-0.01528 0.18821 0.18348 0 0 0-0.01196-0.01395 0.18821 0.18348 0 0 0-0.01364-0.01296 0.18821 0.18348 0 0 0-0.01429-0.01163 0.18821 0.18348 0 0 0-0.01595-0.0103 0.18821 0.18348 0 0 0-0.0046-0.0023 0.18821 0.18348 0 0 0-0.01694-8e-3 0.18821 0.18348 0 0 0-0.01761-0.0063 0.18821 0.18348 0 0 0-0.01828-0.0043 0.18821 0.18348 0 0 0-0.01828-0.0026 0.18821 0.18348 0 0 0-0.01893-1e-3 0.18821 0.18348 0 0 0-0.01893 1e-3 0.18821 0.18348 0 0 0-0.0186 0.0026 0.18821 0.18348 0 0 0-0.01828 0.0047 0.62957 0.61376 0 0 1-0.03056 9e-3 0.62957 0.61376 0 0 1-0.06146 0.01262 0.62957 0.61376 0 0 1-0.06245 7e-3 0.62957 0.61376 0 0 1-0.06279 6.35e-4 0.62957 0.61376 0 0 1-0.06279-0.0053 0.62957 0.61376 0 0 1-0.06179-0.01163 0.62957 0.61376 0 0 1-0.06048-0.0176 0.62957 0.61376 0 0 1-0.05814-0.02292 0.62957 0.61376 0 0 1-0.05548-0.0289 0.62957 0.61376 0 0 1-0.05249-0.03389 0.62957 0.61376 0 0 1-0.04851-0.0392 0.62957 0.61376 0 0 1-0.04452-0.04352 0.62957 0.61376 0 0 1-0.03987-0.04751 0.62957 0.61376 0 0 1-0.03455-0.05116 0.62957 0.61376 0 0 1-0.0289-0.05448 0.62957 0.61376 0 0 1-0.02356-0.05681 0.62957 0.61376 0 0 1-0.01761-0.05914 0.62957 0.61376 0 0 1-0.01131-0.06046 0.62957 0.61376 0 0 1-5e-3 -0.06113 0.62957 0.61376 0 0 1 5.02e-4 -0.06113 0.62957 0.61376 0 0 1 0.0076-0.06113 0.62957 0.61376 0 0 1 0.01364-0.0598 0.62957 0.61376 0 0 1 0.01959-0.05814 0.62957 0.61376 0 0 1 0.02557-0.05615 0.62957 0.61376 0 0 1 0.0309-0.05316 0.62957 0.61376 0 0 1 0.03655-0.05016 0.62957 0.61376 0 0 1 0.04153-0.04618 0.62957 0.61376 0 0 1 0.04585-0.04186 0.19386 0.18899 0 0 0 0.0015-0.0013 0.19386 0.18899 0 0 0 0.01364-0.01296 0.19386 0.18899 0 0 0 0.0123-0.01462 0.19386 0.18899 0 0 0 0.01099-0.01562 0.19386 0.18899 0 0 0 9e-3 -0.01661 0.19386 0.18899 0 0 0 0.0076-0.01761 0.19386 0.18899 0 0 0 0.0057-0.01827 0.19386 0.18899 0 0 0 0.0037-0.01827 0.19386 0.18899 0 0 0 0.0017-0.01894 0.18821 0.18348 0 0 0 2.47e-4 -0.0047 0.18821 0.18348 0 0 0-1e-3 -0.0186 0.18821 0.18348 0 0 0-3e-3 -0.01794 0.18821 0.18348 0 0 0-0.0043-0.01794 0.18821 0.18348 0 0 0-0.0063-0.01727 0.18821 0.18348 0 0 0-0.0083-0.01628 0.18821 0.18348 0 0 0-0.0096-0.01595 0.18821 0.18348 0 0 0-0.01129-0.01462 0.18821 0.18348 0 0 0-0.01295-0.01329 2.9908 2.9156 0 0 0-0.18239-0.16046 2.9908 2.9156 0 0 0-0.23953-0.17442 2.9908 2.9156 0 0 0-0.25615-0.15016 2.9908 2.9156 0 0 0-0.2701-0.12458 2.9908 2.9156 0 0 0-0.28171-0.09767 0.18821 0.18348 0 0 0-0.0057-0.0017 0.18821 0.18348 0 0 0-0.01828-0.0037 0.18821 0.18348 0 0 0-0.0186-2e-3 0.18821 0.18348 0 0 0-0.01892-3.18e-4zm-0.78736 1.8551a0.93553 0.93553 0 0 1 0.93552 0.93552 0.93553 0.93553 0 0 1-0.93552 0.93553 0.93553 0.93553 0 0 1-0.93552-0.93553 0.93553 0.93553 0 0 1 0.93552-0.93552zm0.39268 2.8142a1.0107 0.98533 0 0 1 0.02093 0.0103 1.0107 0.98533 0 0 0-0.02093-0.0103zm-1.8 0.24984a2.5851 2.5203 0 0 0 0.03854 0.02359 2.5851 2.5203 0 0 1-0.03854-0.02359z" fill="#fff" stroke-width=".37503"/>
 </g>
</svg>
