<?xml version="1.0" encoding="UTF-8"?>
<svg id="Apps-Visual-Studio-Code" width="64" height="64" enable-background="new 0 0 1024 1024" image-rendering="optimizeSpeed" version="1.1" viewBox="0 0 64 64" xmlns="http://www.w3.org/2000/svg" xmlns:cc="http://creativecommons.org/ns#" xmlns:dc="http://purl.org/dc/elements/1.1/" xmlns:rdf="http://www.w3.org/1999/02/22-rdf-syntax-ns#">
 <metadata>
  <rdf:RDF>
   <cc:Work rdf:about="">
    <dc:format>image/svg+xml</dc:format>
    <dc:type rdf:resource="http://purl.org/dc/dcmitype/StillImage"/>
   </cc:Work>
  </rdf:RDF>
 </metadata>
 <defs>
  <style type="text/css"/>
  <style type="text/css"/>
  <linearGradient id="a-5" x1="15.791" x2="15.409" y1="1012.1" y2="1044" gradientTransform="matrix(2.3251 0 0 2.2552 -105.94 -2298.3)" gradientUnits="userSpaceOnUse">
   <stop stop-color="#fc8f2f" offset="0"/>
   <stop stop-color="#ed1515" offset="1"/>
  </linearGradient>
  <linearGradient id="b-9" x1="33.462" x2="34.117" y1="1013.6" y2="1037.2" gradientTransform="matrix(1.5553 0 0 2.2552 -80.369 -2298.3)" gradientUnits="userSpaceOnUse">
   <stop stop-color="#f6fbff" offset="0"/>
   <stop stop-color="#eaeff2" offset="1"/>
  </linearGradient>
  <linearGradient id="c-1" x1="27.8" x2="27.8" y1="1037.4" y2="1011.4" gradientTransform="matrix(2.2552 0 0 2.2552 -104.79 -2298.3)" gradientUnits="userSpaceOnUse">
   <stop stop-color="#ef2f0f" offset="0"/>
   <stop stop-color="#f56603" offset="1"/>
  </linearGradient>
 </defs>
 <g transform="translate(86.312 19.185)">
  <g fill-rule="evenodd" stroke-width="2.2552">
   <path d="m-78.709 40.201h26.243l-7.24e-4 -55.249-26.01 6.77e-4c-2.8602-0.21199-4.0201 0.05187-4.0201 2.6434v49.822c-0.17965 2.8438 1.0063 2.7836 3.7876 2.7836z" fill="url(#a-5)"/>
   <path d="m-28.2 40.183h-18.021v-55.249h18.021c1.9133-0.21199 2.0672 0.05187 2.0672 2.6434v49.822c0.12016 2.8438-0.20676 2.7836-2.0672 2.7836z" fill="url(#b-9)"/>
   <path d="m-32.715 42.815-22.619-2.642-4.5e-5 -55.222 22.43-2.1028c2.7743-0.21199 2.9239 0.55163 2.9239 3.1431l-0.18872 52.702c0.17424 2.8438 0.15126 4.1214-2.5464 4.1214z" fill="url(#c-1)"/>
  </g>
  <path d="m-55.312 17.702c-0.04195 0.0028-0.06672 0.04492-0.10938 0.04492-1.0417 0-1.8867-0.84498-1.8867-1.8867 0.0012-0.6727 0.36078-1.2926 0.94336-1.6289v-17.232a1.8862 1.8862 0 0 0-1.8867 1.8848 1.8862 1.8862 0 0 0 0.80664 1.5449c-1.3827 4.1749-3.909 10.991-6.4648 13.547 0 0 3.7734 5.6572 3.7734 9.4297-0.78373 0-1.416 0.63228-1.416 1.416s0.63228 1.4141 1.416 1.4141v4.7148h4.8242z" fill="#fff" fill-opacity=".9" stroke-width=".94312"/>
  <path d="m-55.312 17.702v13.248h4.6055v-4.7148c0.78373 0 1.416-0.63033 1.416-1.4141s-0.63228-1.416-1.416-1.416c0-3.7725 3.7734-9.4297 3.7734-9.4297-2.5554-2.5554-5.082-9.3698-6.4648-13.545a1.8862 1.8862 0 0 0 0.80664-1.5469 1.8862 1.8862 0 0 0-1.8867-1.8848v17.23c0.58314 0.33668 0.94283 0.9575 0.94336 1.6309 0 0.99909-0.79475 1.7765-1.7773 1.8418z" fill="#fff" fill-opacity=".6" stroke-width=".94312"/>
 </g>
</svg>
