<?xml version="1.0" encoding="UTF-8" standalone="no"?>
<svg
   width="64"
   height="64"
   image-rendering="optimizeSpeed"
   version="1.1"
   id="svg4"
   sodipodi:docname="cawbird.svg"
   xml:space="preserve"
   inkscape:version="1.3 (0e150ed6c4, 2023-07-21)"
   xmlns:inkscape="http://www.inkscape.org/namespaces/inkscape"
   xmlns:sodipodi="http://sodipodi.sourceforge.net/DTD/sodipodi-0.dtd"
   xmlns:xlink="http://www.w3.org/1999/xlink"
   xmlns="http://www.w3.org/2000/svg"
   xmlns:svg="http://www.w3.org/2000/svg"><sodipodi:namedview
     id="namedview4"
     pagecolor="#ffffff"
     bordercolor="#000000"
     borderopacity="0.25"
     inkscape:showpageshadow="2"
     inkscape:pageopacity="0.0"
     inkscape:pagecheckerboard="0"
     inkscape:deskcolor="#d1d1d1"
     inkscape:zoom="2.8671875"
     inkscape:cx="-52.66485"
     inkscape:cy="16.392371"
     inkscape:window-width="1920"
     inkscape:window-height="941"
     inkscape:window-x="0"
     inkscape:window-y="34"
     inkscape:window-maximized="1"
     inkscape:current-layer="svg4" /><defs
     id="defs2"><linearGradient
       id="linearGradient8"
       inkscape:collect="always"><stop
         style="stop-color:#000000;stop-opacity:1;"
         offset="0"
         id="stop8" /><stop
         style="stop-color:#000000;stop-opacity:0;"
         offset="1"
         id="stop9" /></linearGradient><linearGradient
       id="linearGradient5"
       inkscape:collect="always"><stop
         style="stop-color:#555557;stop-opacity:1"
         offset="0"
         id="stop6" /><stop
         style="stop-color:#81828a;stop-opacity:1"
         offset="1"
         id="stop7" /></linearGradient><linearGradient
       id="linearGradient4"
       inkscape:collect="always"><stop
         style="stop-color:#714980;stop-opacity:1;"
         offset="0"
         id="stop4" /><stop
         style="stop-color:#130817;stop-opacity:1"
         offset="1"
         id="stop5" /></linearGradient><linearGradient
       id="a"
       x1="399.57"
       x2="399.57"
       y1="545.8"
       y2="517.8"
       gradientTransform="translate(-826.36 -1107.5) scale(2.1429)"
       gradientUnits="userSpaceOnUse"><stop
         offset="0"
         stop-color="#3889e9"
         id="stop1" /><stop
         offset="1"
         stop-color="#5ea5fb"
         id="stop2" /></linearGradient><radialGradient
       inkscape:collect="always"
       xlink:href="#linearGradient4"
       id="radialGradient5"
       cx="32"
       cy="32"
       fx="32"
       fy="32"
       r="28.5"
       gradientTransform="matrix(1,0,0,0.92854115,0,2.2866832)"
       gradientUnits="userSpaceOnUse" /><linearGradient
       inkscape:collect="always"
       xlink:href="#linearGradient5"
       id="linearGradient7"
       x1="32.001225"
       y1="30.321527"
       x2="32.001225"
       y2="62.044991"
       gradientUnits="userSpaceOnUse" /><linearGradient
       inkscape:collect="always"
       xlink:href="#linearGradient8"
       id="linearGradient9"
       x1="28.697565"
       y1="30.321527"
       x2="28.697565"
       y2="61.860458"
       gradientUnits="userSpaceOnUse" /></defs><circle
     cx="32.02"
     cy="32.044"
     r="30.001"
     fill="none"
     id="circle2" /><ellipse
     cx="32"
     cy="32"
     rx="28.5"
     ry="26.463423"
     style="stroke-width:1.46586;paint-order:normal;fill:url(#radialGradient5);fill-opacity:1"
     id="ellipse2" /><path
     fill="#ffffff"
     d="M 23.45,15.199151 C 17.678384,15.19621 13,19.853773 13,25.594866 c 0,5.741092 4.678384,10.397185 10.45,10.397185 h 17.1 C 46.321616,35.992051 51,31.337428 51,25.594866 51,19.852303 46.321616,15.199151 40.55,15.199151 A 10.480693,10.542734 0 0 0 31.995615,19.633244 10.476308,10.538323 0 0 0 23.45,15.199151 Z"
     style="stroke-width:1.46586;paint-order:normal"
     id="path2" /><path
     fill="#2f5b93"
     d="m 24.4,22.760339 c -2.098769,0 -3.8,1.692189 -3.8,3.779859 0,2.08767 1.701231,3.781329 3.8,3.781329 2.098769,0 3.8,-1.692189 3.8,-3.781329 0,-2.08767 -1.701231,-3.779859 -3.8,-3.779859 z m 15.2,0 c -2.098769,0 -3.8,1.692189 -3.8,3.779859 0,2.08767 1.701231,3.781329 3.8,3.781329 2.098769,0 3.8,-1.692189 3.8,-3.781329 0,-2.08767 -1.701231,-3.779859 -3.8,-3.779859 z m -16.15,1.890664 c 0.524692,0 0.95,0.423415 0.95,0.945333 0,0.521917 -0.425308,0.943862 -0.95,0.943862 -0.524693,0 -0.95,-0.421945 -0.95,-0.943862 0,-0.521918 0.425307,-0.945333 0.95,-0.945333 z m 15.2,0 c 0.524692,0 0.95,0.423415 0.95,0.945333 0,0.521917 -0.425308,0.943862 -0.95,0.943862 -0.524692,0 -0.95,-0.421945 -0.95,-0.943862 0,-0.521918 0.425308,-0.945333 0.95,-0.945333 z"
     style="stroke-width:1.46586;paint-order:normal"
     id="path4" /><path
     d="m 32.001225,30.321527 c -3.181694,0 -6.36706,4.759631 -6.36706,9.516795 0,4.759629 5.134292,22.206676 6.36706,22.206676 1.232768,0 6.36461,-17.447047 6.36461,-22.206676 0,-4.759632 -3.182917,-9.516795 -6.36461,-9.516795 z"
     id="path5"
     style="opacity:1;stroke-width:0.99999999;fill:url(#linearGradient7);fill-opacity:1;stroke:url(#linearGradient9);stroke-opacity:1;stroke-dasharray:none" /></svg>
