<?xml version="1.0" encoding="UTF-8"?>
<svg width="64" height="64" version="1.1" viewBox="0 0 16.933 16.933" xmlns="http://www.w3.org/2000/svg">
 <defs>
  <filter id="filter1114" x="-.15774" y="-.15774" width="1.3155" height="1.3155" color-interpolation-filters="sRGB">
   <feGaussianBlur stdDeviation="0.69558817"/>
  </filter>
  <linearGradient id="b" x1="520" x2="520.03" y1="44" y2="985.85" gradientTransform="matrix(.016817 0 0 .016817 -.14344 -.14352)" gradientUnits="userSpaceOnUse">
   <stop stop-color="#15c4fc" offset="0"/>
   <stop stop-color="#1863ee" offset="1"/>
  </linearGradient>
 </defs>
 <path d="m16.163 6.4485c-0.018499-0.073151-0.039517-0.15135-0.061379-0.2287-0.042042-0.14715-0.089968-0.29596-0.1421-0.44312-0.10847-0.30691-0.23795-0.60623-0.3893-0.90221-0.063904-0.12444-0.13369-0.25141-0.20684-0.37668h-4.24e-4q-0.5146-0.87462-1.2835-1.6438c-1.5496-1.5496-3.4213-2.3249-5.6133-2.3249-2.192 0-4.0629 0.77524-5.6125 2.3249-1.5496 1.5496-2.3249 3.4205-2.3249 5.6125 0 2.192 0.77524 4.0637 2.3249 5.6133 1.1444 1.1444 2.4636 1.8658 3.9502 2.1634 0.53728 0.10762 1.0889 0.1606 1.6623 0.1606 2.192 0 4.0637-0.77439 5.6133-2.324 0.81728-0.81728 1.4193-1.7237 1.8052-2.7209 0.28588-0.73907 0.45404-1.5269 0.50365-2.3669 0.01009-0.17153 0.01513-0.34726 0.01513-0.52551 0-0.70208-0.07904-1.3722-0.24048-2.018z" fill="url(#b)" image-rendering="optimizeSpeed" stroke-width=".26355"/>
 <path d="m8.402 3.142a0.52916 0.52916 0 0 0-0.05064 0.0031c-2.8927 0.027659-5.2409 2.3894-5.2409 5.2885 0 2.9162 2.3754 5.2916 5.2916 5.2916 2.8984 0 5.2597-2.3471 5.2885-5.2389a0.52916 0.52916 0 0 0 0.0031-0.05271 0.52916 0.52916 0 0 0-0.52916-0.52916 0.52916 0.52916 0 0 0-0.52916 0.52916c0 2.3442-1.889 4.2333-4.2333 4.2333-2.3442 0-4.2332-1.889-4.2332-4.2333 0-2.3442 1.889-4.2332 4.2332-4.2332a0.52916 0.52916 0 0 0 0.52916-0.52915 0.52916 0.52916 0 0 0-0.52916-0.52916zm0 2.1166a0.52916 0.52916 0 0 0-0.05064 0.00206c-1.7238 0.027549-3.1243 1.4428-3.1243 3.1729 0 1.7472 1.4277 3.1749 3.1749 3.1749 1.7294 0 3.1432-1.3994 3.1718-3.1222a0.52916 0.52916 0 0 0 0.0031-0.05271 0.52916 0.52916 0 0 0-0.52916-0.52916 0.52916 0.52916 0 0 0-0.52916 0.52916c0 1.1752-0.94138 2.1166-2.1166 2.1166-1.1752 0-2.1166-0.94138-2.1166-2.1166 0-1.1752 0.94138-2.1166 2.1166-2.1166a0.52916 0.52916 0 0 0 0.52916-0.52915 0.52916 0.52916 0 0 0-0.52916-0.52916zm0 2.1166a1.0583 1.0583 0 0 0-1.0583 1.0583 1.0583 1.0583 0 0 0 1.0583 1.0583 1.0583 1.0583 0 0 0 1.0583-1.0583 1.0583 1.0583 0 0 0-1.0583-1.0583z" filter="url(#filter1114)" opacity=".34974" stroke-width=".26458"/>
 <path d="m8.402 3.142a0.52916 0.52916 0 0 0-0.05064 0.0031c-2.8927 0.027659-5.2409 2.3894-5.2409 5.2885 0 2.9162 2.3754 5.2916 5.2916 5.2916 2.8984 0 5.2597-2.3471 5.2885-5.2389a0.52916 0.52916 0 0 0 0.0031-0.05271 0.52916 0.52916 0 0 0-0.52916-0.52916 0.52916 0.52916 0 0 0-0.52916 0.52916c0 2.3442-1.889 4.2333-4.2333 4.2333-2.3442 0-4.2332-1.889-4.2332-4.2333 0-2.3442 1.889-4.2332 4.2332-4.2332a0.52916 0.52916 0 0 0 0.52916-0.52915 0.52916 0.52916 0 0 0-0.52916-0.52916zm0 2.1166a0.52916 0.52916 0 0 0-0.05064 0.00206c-1.7238 0.027549-3.1243 1.4428-3.1243 3.1729 0 1.7472 1.4277 3.1749 3.1749 3.1749 1.7294 0 3.1432-1.3994 3.1718-3.1222a0.52916 0.52916 0 0 0 0.0031-0.05271 0.52916 0.52916 0 0 0-0.52916-0.52916 0.52916 0.52916 0 0 0-0.52916 0.52916c0 1.1752-0.94138 2.1166-2.1166 2.1166-1.1752 0-2.1166-0.94138-2.1166-2.1166 0-1.1752 0.94138-2.1166 2.1166-2.1166a0.52916 0.52916 0 0 0 0.52916-0.52915 0.52916 0.52916 0 0 0-0.52916-0.52916zm0 2.1166a1.0583 1.0583 0 0 0-1.0583 1.0583 1.0583 1.0583 0 0 0 1.0583 1.0583 1.0583 1.0583 0 0 0 1.0583-1.0583 1.0583 1.0583 0 0 0-1.0583-1.0583z" fill="#fff" stroke-width=".26458"/>
</svg>
