<?xml version="1.0" encoding="UTF-8" standalone="no"?>
<svg
   xml:space="preserve"
   width="64"
   height="64"
   version="1.1"
   id="svg2"
   sodipodi:docname="cinny.svg"
   inkscape:version="1.4.2 (ebf0e940d0, 2025-05-08)"
   xmlns:inkscape="http://www.inkscape.org/namespaces/inkscape"
   xmlns:sodipodi="http://sodipodi.sourceforge.net/DTD/sodipodi-0.dtd"
   xmlns="http://www.w3.org/2000/svg"
   xmlns:svg="http://www.w3.org/2000/svg"><sodipodi:namedview
     id="namedview2"
     pagecolor="#505050"
     bordercolor="#eeeeee"
     borderopacity="1"
     inkscape:showpageshadow="0"
     inkscape:pageopacity="0"
     inkscape:pagecheckerboard="0"
     inkscape:deskcolor="#505050"
     inkscape:zoom="4.2094951"
     inkscape:cx="0.83145364"
     inkscape:cy="12.828142"
     inkscape:window-width="1920"
     inkscape:window-height="1003"
     inkscape:window-x="0"
     inkscape:window-y="0"
     inkscape:window-maximized="1"
     inkscape:current-layer="svg2" /><defs
     id="defs2"><linearGradient
       id="a"
       x1="7.937"
       x2="7.937"
       y1="15.081"
       y2="1.852"
       gradientTransform="scale(3.7796)"
       gradientUnits="userSpaceOnUse"><stop
         offset="0"
         stop-color="#363636"
         style="stop-color:#000;stop-opacity:1"
         id="stop1" /><stop
         offset="1"
         stop-color="#6c6c6c"
         id="stop2" /></linearGradient></defs><circle
     style="opacity:1;fill:#000000;stroke:none;stroke-width:0.284353;fill-opacity:1"
     id="path3"
     cx="32"
     cy="-32"
     r="28.5"
     transform="scale(1,-1)" /><path
     id="path6"
     style="display:inline;fill:#ffffff;fill-opacity:1;stroke-width:3.29409"
     d="M 5.8515625 38.730469 A 27 27 0 0 0 25.587891 58.228516 C 26.688468 56.874406 28.161941 54.989458 28.853516 54.066406 C 31.818516 49.783406 33.134766 45.171469 33.134766 40.230469 C 33.134766 36.277469 34.453766 32.654453 36.759766 29.689453 C 39.064766 26.395453 42.357547 25.078125 46.310547 25.078125 C 48.616547 25.078125 50.594314 25.407406 52.570312 26.066406 C 50.594313 24.748406 48.288422 23.760562 45.982422 23.101562 C 44.665422 22.771563 43.347297 22.773437 42.029297 22.773438 C 41.041297 22.773438 40.054406 22.773516 39.066406 23.103516 C 37.089406 19.808516 33.464719 17.830078 29.511719 17.830078 L 28.195312 17.830078 C 22.266312 18.490078 17.982422 23.10125 17.982422 29.03125 L 17.982422 30.019531 L 5.8515625 38.730469 z M 33.794922 21.453125 C 34.704535 21.453677 35.441958 22.19195 35.441406 23.101562 C 35.440854 24.010395 34.703754 24.747495 33.794922 24.748047 C 32.885309 24.748599 32.147036 24.011177 32.146484 23.101562 C 32.145931 22.191168 32.884528 21.452572 33.794922 21.453125 z " /></svg>
