<?xml version="1.0" encoding="UTF-8" standalone="no"?>
<svg
   width="64"
   height="64"
   version="1"
   id="svg5"
   sodipodi:docname="cisco-anyconnect.svg"
   xml:space="preserve"
   inkscape:version="1.4.2 (ebf0e940d0, 2025-05-08)"
   xmlns:inkscape="http://www.inkscape.org/namespaces/inkscape"
   xmlns:sodipodi="http://sodipodi.sourceforge.net/DTD/sodipodi-0.dtd"
   xmlns:xlink="http://www.w3.org/1999/xlink"
   xmlns="http://www.w3.org/2000/svg"
   xmlns:svg="http://www.w3.org/2000/svg"><sodipodi:namedview
     id="namedview5"
     pagecolor="#505050"
     bordercolor="#eeeeee"
     borderopacity="1"
     inkscape:showpageshadow="0"
     inkscape:pageopacity="0"
     inkscape:pagecheckerboard="0"
     inkscape:deskcolor="#505050"
     inkscape:zoom="2.9765625"
     inkscape:cx="10.582677"
     inkscape:cy="11.086614"
     inkscape:window-width="1920"
     inkscape:window-height="1003"
     inkscape:window-x="0"
     inkscape:window-y="0"
     inkscape:window-maximized="1"
     inkscape:current-layer="svg5" /><defs
     id="defs2"><linearGradient
       id="linearGradient14076"
       inkscape:collect="always"><stop
         style="stop-color:#61bd3d;stop-opacity:1"
         offset="0"
         id="stop14074" /><stop
         style="stop-color:#2d8ccd;stop-opacity:1"
         offset="0.69991142"
         id="stop14075" /><stop
         style="stop-color:#65c3ff;stop-opacity:1"
         offset="1"
         id="stop14076" /></linearGradient><linearGradient
       id="linearGradient14072"
       inkscape:collect="always"><stop
         style="stop-color:#c8cfd5;stop-opacity:1"
         offset="0"
         id="stop14072" /><stop
         style="stop-color:#ffffff;stop-opacity:1"
         offset="1"
         id="stop14073" /></linearGradient><linearGradient
       id="linearGradient14063"
       inkscape:collect="always"><stop
         style="stop-color:#d6d9df;stop-opacity:1"
         offset="0"
         id="stop14063" /><stop
         style="stop-color:#f3f6fc;stop-opacity:1"
         offset="0.69999999"
         id="stop14065" /><stop
         style="stop-color:#ffffff;stop-opacity:1"
         offset="1"
         id="stop14064" /></linearGradient><linearGradient
       id="a"
       x1="7.937"
       x2="7.937"
       y1="15.081"
       y2="1.852"
       gradientTransform="matrix(3.7796,0,0,3.7796,-5.9809989,-10.838999)"
       gradientUnits="userSpaceOnUse"><stop
         offset="0"
         stop-color="#f1efeb"
         id="stop1" /><stop
         offset="1"
         stop-color="#fdfcfc"
         id="stop2" /></linearGradient><filter
       id="b"
       width="1.15"
       height="1.15"
       x="-0.075"
       y="-0.075"
       color-interpolation-filters="sRGB"><feGaussianBlur
         stdDeviation="1.75"
         id="feGaussianBlur2" /></filter><linearGradient
       id="linearGradient1053"
       x1="68"
       x2="128"
       y1="62"
       y2="2"
       gradientTransform="matrix(0.91666687,0,0,0.91666687,-57.833051,2.6661324)"
       gradientUnits="userSpaceOnUse"><stop
         stop-color="#e0e4e9"
         offset="0"
         id="stop1-3" /><stop
         stop-color="#fefeff"
         offset="1"
         id="stop2-6" /></linearGradient><radialGradient
       inkscape:collect="always"
       xlink:href="#linearGradient14063"
       id="radialGradient14064"
       cx="31.349941"
       cy="31.204437"
       fx="31.349941"
       fy="31.204437"
       r="24"
       gradientUnits="userSpaceOnUse"
       gradientTransform="matrix(0,1.0688721,-1.1283449,0,68.053117,-2.0891546)" /><linearGradient
       inkscape:collect="always"
       xlink:href="#linearGradient14072"
       id="linearGradient14071"
       x1="32"
       y1="32"
       x2="32"
       y2="59.500381"
       gradientUnits="userSpaceOnUse" /><linearGradient
       inkscape:collect="always"
       xlink:href="#linearGradient14076"
       id="linearGradient14074"
       x1="19.564215"
       y1="15.521222"
       x2="46.871094"
       y2="49.027344"
       gradientUnits="userSpaceOnUse" /></defs><rect
     x="4.4996166"
     y="4.4996166"
     width="55.000767"
     height="55.000767"
     ry="2.7500007"
     fill="url(#linearGradient1053)"
     stroke-width="3.46465"
     id="rect2-7"
     style="fill:url(#linearGradient1053)" /><path
     d="M32 5.167c-15.512 0-28 12.488-28 28s12.488 28 28 28 28-12.488 28-28-12.488-28-28-28"
     filter="url(#b)"
     opacity=".15"
     transform="translate(4.571 4.571)scale(.85714)"
     id="path2" /><path
     fill="#fff"
     d="M32 8C18.704 8 8 18.704 8 32s10.704 24 24 24 24-10.704 24-24S45.296 8 32 8"
     id="path3"
     style="fill:url(#radialGradient14064)" /><path
     id="path14066"
     style="fill:url(#linearGradient14071);fill-opacity:1;stroke-width:0.3;opacity:0.8"
     d="M 8.4492188 27.332031 C 8.1539696 28.841305 8 30.401729 8 32 C 8 36.107581 9.0221719 39.968156 10.826172 43.341797 C 15.290647 46.460556 19.818591 48.484913 24.246094 49.707031 C 25.908831 52.126156 27.994235 54.292115 29.710938 55.892578 C 30.464021 55.96319 31.227844 56 32 56 C 33.234498 56 34.447544 55.908526 35.630859 55.730469 C 33.236236 53.980155 31.317812 52.355184 29.804688 50.849609 C 36.558016 51.780412 42.892652 51.04566 48.173828 49.761719 C 50.206539 47.910859 51.917592 45.713428 53.216797 43.261719 C 51.532089 43.739873 49.718846 44.211305 47.767578 44.673828 C 38.243252 46.931446 30.908564 46.31903 25.302734 44.341797 C 23.145519 37.79398 30.513195 34.766766 33.652344 33.794922 C 33.262841 33.065598 32.985428 32.266165 32.84375 31.419922 C 23.716116 34.163682 21.009435 38.329308 21.341797 42.585938 C 11.302511 37.146208 8.4511719 27.333984 8.4511719 27.333984 L 8.4492188 27.332031 z " /><path
     id="path4"
     d="M 32.357422 8.015625 L 32.357422 8.0175781 A 24 24 0 0 0 27.421875 14.964844 A 24 24 0 0 0 25.142578 14.857422 A 24 24 0 0 0 11.912109 18.851562 A 23.9 23.9 0 0 0 8 32 C 8 33.254 8.1245938 34.474781 8.3085938 35.675781 A 17.14 17.14 0 0 1 25.142578 21.714844 A 17.143 17.143 0 0 1 25.392578 21.716797 A 24 24 0 0 0 25.142578 25.142578 A 24 24 0 0 0 40.035156 47.339844 A 17.14 17.14 0 0 1 28.324219 55.691406 C 29.524219 55.875406 30.746 56 32 56 C 36.868 56 41.379297 54.553031 45.154297 52.082031 A 24 24 0 0 0 46.871094 49.027344 A 24 24 0 0 0 48.824219 49.132812 A 23.9 23.9 0 0 0 54.021484 41.5625 A 17.1 17.1 0 0 1 49.142578 42.285156 A 17.143 17.143 0 0 1 48.894531 42.283203 A 24 24 0 0 0 49.142578 38.857422 A 24 24 0 0 0 34.251953 16.652344 A 17.14 17.14 0 0 1 41.347656 9.8769531 A 24 24 0 0 0 32.357422 8.015625 z M 32.111328 23.193359 A 17.143 17.143 0 0 1 42.285156 38.857422 A 17.14 17.14 0 0 1 42.173828 40.804688 A 17.143 17.143 0 0 1 32 25.142578 A 17.14 17.14 0 0 1 32.111328 23.193359 z "
     style="fill-opacity:1;fill:url(#linearGradient14074)" /><path
     fill="#318bcf"
     d="m -44.064349,14.857 a 24,24 0 0 0 -13.23,3.995 23.9,23.9 0 0 0 -3.913,13.148 c 0,1.254 0.124,2.475 0.308,3.676 a 17.14,17.14 0 0 1 16.835,-13.962 17.143,17.143 0 0 1 17.143,17.143 17.14,17.14 0 0 1 -13.962,16.835 c 1.2,0.184 2.422,0.308 3.676,0.308 4.868,0 9.38,-1.446 13.155,-3.917 a 24,24 0 0 0 3.988,-13.226 24,24 0 0 0 -24,-24"
     id="path14073" /><path
     fill="#7bc450"
     d="m -36.849349,8.017 a 24,24 0 0 0 -7.215,17.125 24,24 0 0 0 23.682,23.99 23.9,23.9 0 0 0 5.196,-7.57 17.1,17.1 0 0 1 -4.878,0.723 17.143,17.143 0 0 1 -17.143,-17.143 17.14,17.14 0 0 1 9.348,-15.265 24,24 0 0 0 -8.99,-1.861 z"
     id="path14074" /></svg>
