<?xml version="1.0" encoding="UTF-8" standalone="no"?>
<svg
   width="64"
   height="64"
   version="1.1"
   id="svg3"
   sodipodi:docname="clash-verge.svg"
   inkscape:version="1.4.2 (ebf0e940d0, 2025-05-08)"
   xmlns:inkscape="http://www.inkscape.org/namespaces/inkscape"
   xmlns:sodipodi="http://sodipodi.sourceforge.net/DTD/sodipodi-0.dtd"
   xmlns:xlink="http://www.w3.org/1999/xlink"
   xmlns="http://www.w3.org/2000/svg"
   xmlns:svg="http://www.w3.org/2000/svg">
  <sodipodi:namedview
     id="namedview3"
     pagecolor="#505050"
     bordercolor="#eeeeee"
     borderopacity="1"
     inkscape:showpageshadow="0"
     inkscape:pageopacity="0"
     inkscape:pagecheckerboard="0"
     inkscape:deskcolor="#505050"
     inkscape:zoom="4.2094951"
     inkscape:cx="-0.59389546"
     inkscape:cy="31.832797"
     inkscape:window-width="1920"
     inkscape:window-height="1003"
     inkscape:window-x="0"
     inkscape:window-y="0"
     inkscape:window-maximized="1"
     inkscape:current-layer="svg3" />
  <defs
     id="defs2">
    <linearGradient
       id="linearGradient4"
       inkscape:collect="always">
      <stop
         style="stop-color:#fd80b6;stop-opacity:1"
         offset="0"
         id="stop4" />
      <stop
         style="stop-color:#9082ff;stop-opacity:1"
         offset="1"
         id="stop5" />
    </linearGradient>
    <linearGradient
       id="a"
       x1="7.937"
       x2="7.937"
       y1="15.081"
       y2="1.852"
       gradientTransform="matrix(3.7796,0,0,3.7796,-70.554781,0)"
       gradientUnits="userSpaceOnUse">
      <stop
         offset="0"
         stop-color="#9082ff"
         id="stop1" />
      <stop
         offset="1"
         stop-color="#fd80b6"
         id="stop2" />
    </linearGradient>
    <filter
       id="b"
       width="1.3020835"
       height="1.3204539"
       x="-0.15104175"
       y="-0.16022693"
       color-interpolation-filters="sRGB">
      <feGaussianBlur
         stdDeviation="2.09"
         id="feGaussianBlur2" />
    </filter>
    <linearGradient
       inkscape:collect="always"
       xlink:href="#linearGradient4"
       id="linearGradient5"
       x1="32"
       y1="2"
       x2="32"
       y2="62"
       gradientUnits="userSpaceOnUse" />
  </defs>
  <circle
     style="fill:url(#linearGradient5);stroke-width:1.21428;fill-opacity:1"
     id="path4"
     cx="32"
     cy="32"
     r="30" />
  <path
     fill="purple"
     d="M18.572 17.836c.912-.314 1.882.49 2.554.997 1.86 1.405 3.225 3.418 5.157 4.722 1.427.964 3.117.12 4.69.011 1.79-.123 3.938.829 5.626.444 1.567-.356 2.9-2.205 3.986-3.277.943-.932 3.55-3.913 5.06-2.672 2.152 1.77 1.27 7.94 1.27 10.408 0 1.281-.25 2.84.056 4.085.433 1.76 1.683 3.397 1.533 5.293-.372 4.682-6.54 8.71-10.498 10.153-6.46 2.353-13.436.714-18.522-3.863-1.71-1.538-3.588-3.486-4.095-5.82-.492-2.264 1.385-4.186 1.56-6.331.284-3.503-.218-7.037.178-10.55.122-1.085.19-3.168 1.444-3.6m4.209 17.606c-1.312.542-.992 2.17-.33 3.105.938 1.324 2.948 2.113 4.526 1.47 3.386-1.38-1.74-5.59-4.196-4.575m16.398-.063c-3.384.596-5.384 5.47-.704 4.763 2.985-.452 4.741-5.475.704-4.763m-4.924 7.157c-.626-.264-1.19-.427-1.875-.46-5.792-.276.29 5.025 1.875.46"
     filter="url(#b)"
     opacity=".15"
     id="path2" />
  <path
     fill="#fff"
     d="M18.572 16.432c.912-.314 1.882.49 2.554.997 1.86 1.405 3.225 3.418 5.157 4.722 1.427.964 3.117.12 4.69.011 1.79-.123 3.938.829 5.626.444 1.567-.356 2.9-2.205 3.986-3.277.943-.932 3.55-3.913 5.06-2.672 2.152 1.77 1.27 7.94 1.27 10.408 0 1.281-.25 2.84.056 4.085.433 1.76 1.683 3.397 1.533 5.293-.372 4.682-6.54 8.71-10.498 10.153-6.46 2.353-13.436.714-18.522-3.863-1.71-1.538-3.588-3.486-4.095-5.82-.492-2.264 1.385-4.186 1.56-6.331.284-3.503-.218-7.037.178-10.55.122-1.085.19-3.168 1.444-3.6m4.209 17.606c-1.312.542-.992 2.17-.33 3.105.938 1.324 2.948 2.113 4.526 1.47 3.386-1.38-1.74-5.59-4.196-4.575m16.398-.063c-3.384.596-5.384 5.47-.704 4.763 2.985-.452 4.741-5.475.704-4.763m-4.924 7.157c-.626-.264-1.19-.427-1.875-.46-5.792-.276.29 5.025 1.875.46"
     id="path3" />
</svg>
