<?xml version="1.0" encoding="UTF-8"?>
<!-- Created with Inkscape (http://www.inkscape.org/) -->
<svg width="64" height="64" version="1.1" viewBox="0 0 16.933 16.933" xmlns="http://www.w3.org/2000/svg">
 <defs>
  <linearGradient id="linearGradient3150" x1="-109.09" x2="-101.26" y1="11.122" y2="18.44" gradientTransform="matrix(.88891 0 0 .88891 118.17 5.1966)" gradientUnits="userSpaceOnUse">
   <stop stop-color="#64d2eb" offset="0"/>
   <stop stop-color="#0082dc" offset="1"/>
  </linearGradient>
  <linearGradient id="linearGradient1431" x1="-107.04" x2="-99.66" y1="6.9531" y2="17.895" gradientTransform="matrix(.88891 0 0 .88891 118.17 5.1965)" gradientUnits="userSpaceOnUse">
   <stop stop-color="#a578e1" offset="0"/>
   <stop stop-color="#5046a0" offset="1"/>
  </linearGradient>
  <linearGradient id="linearGradient1439" x1="-105" x2="-97.017" y1="4.2921" y2="13.799" gradientTransform="matrix(.88891 0 0 .88891 118.17 5.1968)" gradientUnits="userSpaceOnUse">
   <stop stop-color="#eb82aa" offset="0"/>
   <stop stop-color="#dc2850" offset="1"/>
  </linearGradient>
  <linearGradient id="linearGradient1447" x1="-102.1" x2="-98.566" y1="1.4752" y2="7.861" gradientTransform="matrix(.88891 0 0 .88891 118.16 5.1967)" gradientUnits="userSpaceOnUse">
   <stop stop-color="#ffdc23" offset="0"/>
   <stop stop-color="#f0a019" offset="1"/>
  </linearGradient>
  <linearGradient id="linearGradient1991" x1="4.157" x2="12.85" y1="4.154" y2="12.83" gradientTransform="matrix(.74995 0 0 .74995 23.884 12.591)" gradientUnits="userSpaceOnUse">
   <stop stop-color="#f5faff" offset="0"/>
   <stop stop-color="#cfdef0" offset="1"/>
  </linearGradient>
  <linearGradient id="linearGradient2162" x1="10.647" x2="6.1985" y1="10.727" y2="6.3145" gradientTransform="matrix(.81325 0 0 .81325 23.348 12.055)" gradientUnits="userSpaceOnUse">
   <stop stop-color="#4b8cf5" offset="0"/>
   <stop stop-color="#5faaff" offset="1"/>
  </linearGradient>
 </defs>
 <g transform="translate(-18.728 -5.8435)">
  <g stroke-width=".88891">
   <path d="m21.267 14.36c-0.43666 1.3196-0.41709 2.1313-0.41709 2.1313-9e-6 3.179 2.5772 5.7561 5.756 5.756 0.50491 0 0.98722-0.08301 1.452-0.20624 0.07671-0.05243 0.15351-0.09062 0.22828-0.14652 0.28664-0.21432 0.55341-0.45357 0.7547-0.70969 0.10065-0.12805 0.18476-0.26022 0.24712-0.39596 0.06236-0.13572 0.10299-0.27462 0.11575-0.41617 0.01276-0.14154-0.0024-0.28582-0.05053-0.43133-0.04813-0.1455-0.12955-0.29244-0.24988-0.44005-0.12033-0.1476-0.2794-0.29586-0.48324-0.44373-0.20383-0.14787-0.45237-0.29516-0.75102-0.44143-0.29866-0.14628-0.64759-0.29172-1.0524-0.43454-0.40477-0.14283-0.8655-0.28325-1.3876-0.42077-0.52219-0.13752-0.98651-0.29843-1.3987-0.47956-0.41225-0.18113-0.77238-0.38259-1.085-0.60037-0.31261-0.21777-0.57783-0.45213-0.8011-0.69958-0.22326-0.24746-0.40467-0.50794-0.54892-0.77814s-0.25152-0.55006-0.32705-0.83601c-6.4e-4 -0.0024-7.46e-4 -0.0049-0.0018-0.0074z" fill="url(#linearGradient3150)"/>
   <path d="m21.266 14.36c6.31e-4 0.0024 7.38e-4 0.0049 0.0018 0.0074 0.07556 0.28596 0.18279 0.56582 0.32705 0.83601s0.32565 0.53067 0.54892 0.77814c0.22327 0.24746 0.4885 0.48181 0.8011 0.69958 0.31261 0.21777 0.67272 0.41924 1.085 0.60037 0.41224 0.18113 0.87652 0.34204 1.3987 0.47956 0.5222 0.13752 0.98295 0.27794 1.3876 0.42077 0.40477 0.14283 0.7537 0.28826 1.0524 0.43454 0.29866 0.14628 0.54719 0.29357 0.75102 0.44143 0.20384 0.14787 0.36291 0.29612 0.48324 0.44373 0.12033 0.14761 0.20175 0.29454 0.24988 0.44005 0.04813 0.1455 0.0633 0.28979 0.05052 0.43133-0.01276 0.14154-0.05339 0.28044-0.11575 0.41617-0.06236 0.13572-0.14647 0.2679-0.24712 0.39596-0.2013 0.25612-0.46807 0.49537-0.7547 0.70969-0.07476 0.05591-0.15158 0.0941-0.2283 0.14652 1.572-0.41677 2.8789-1.4739 3.6224-2.887 0.0028-0.02376 0.01269-0.0489 0.01516-0.07258 0.03707-0.35632 0.03277-0.70333-0.02113-1.0363s-0.15727-0.65192-0.31787-0.9522c-0.1606-0.3003-0.37845-0.5818-0.66146-0.84014-0.28302-0.25836-0.63121-0.4934-1.0524-0.7005-0.42115-0.2071-0.91513-0.38628-1.49-0.53285-0.57501-0.14657-1.0881-0.30774-1.5443-0.48093-0.45619-0.17319-0.85553-0.35846-1.2039-0.55351-0.34842-0.19505-0.64586-0.39971-0.89753-0.61185-0.2517-0.21213-0.45776-0.43149-0.62379-0.65594-0.16603-0.22444-0.29214-0.45427-0.38356-0.68626-0.09141-0.232-0.14808-0.4662-0.17593-0.70096-0.02782-0.23476-0.02649-0.47004-0.0018-0.70279 0.0036-0.03118 0.01422-0.06124 0.0184-0.09233-1.1828 1.5734-1.7436 2.8296-2.073 3.825z" fill="url(#linearGradient1431)"/>
   <path d="m23.339 10.535c-0.0044 0.03109-0.01511 0.06115-0.0184 0.09233-0.02462 0.23276-0.02605 0.46804 0.0018 0.70279 0.02782 0.23476 0.08453 0.46897 0.17593 0.70096 0.09141 0.23199 0.21752 0.46182 0.38356 0.68626s0.3721 0.44381 0.62379 0.65594c0.2517 0.21213 0.54915 0.41679 0.89753 0.61185 0.34842 0.19505 0.74776 0.38031 1.2039 0.55351 0.45619 0.17319 0.96935 0.33437 1.5443 0.48093 0.57501 0.14657 1.069 0.32574 1.4901 0.53285 0.42117 0.2071 0.76935 0.44215 1.0524 0.7005 0.28301 0.25836 0.50086 0.53985 0.66146 0.84015s0.26396 0.61927 0.31787 0.9522c0.0539 0.33296 0.05819 0.67997 0.02113 1.0363-0.0025 0.02367-0.01233 0.04882-0.01516 0.07258 0.4208-0.79965 0.68166-1.6964 0.68166-2.6629h0.01195s0.13304-1.4224-0.94073-3.2926c-0.16155-0.2092-0.44469-0.60823-0.65365-0.8792-0.50568-0.1073-0.99255-0.21752-1.4166-0.33579-0.50421-0.1406-0.95318-0.28805-1.3518-0.44097-0.39868-0.15292-0.74716-0.31132-1.0509-0.47313-0.30383-0.16181-0.56306-0.32746-0.78273-0.49471-0.21967-0.16725-0.39996-0.33603-0.54616-0.50528-0.14623-0.16925-0.25832-0.33884-0.34178-0.50666-0.083469-0.16781-0.13811-0.33408-0.16949-0.49702-0.03138-0.16293-0.03938-0.32265-0.02942-0.47726 0.0036-0.052746 0.01929-0.101 0.02667-0.1525-0.71627 0.74653-1.2798 1.437-1.7772 2.0987z" fill="url(#linearGradient1439)"/>
   <path d="m25.116 8.4365c-0.0071 0.051509-0.02329 0.099753-0.02667 0.1525-0.01 0.15461-0.0018 0.31433 0.02942 0.47726 0.03138 0.16293 0.08605 0.3292 0.16949 0.49701 0.08347 0.16781 0.19554 0.33741 0.34176 0.50666 0.1462 0.16925 0.32649 0.33803 0.54616 0.50528 0.21966 0.16725 0.4789 0.33291 0.78273 0.49471 0.30382 0.16181 0.6523 0.3202 1.0509 0.47313 0.39865 0.15293 0.84764 0.30037 1.3518 0.44097 0.42406 0.11825 0.91095 0.22848 1.4166 0.33579-1.3346-1.2052-2.7884-1.9275-3.113-5.2324-0.054579-0.39903 0.064891-0.71474-0.21542-0.71474-0.17753-0.001404-0.32568 0.13964-0.32568 0.13964-0.76876 0.6698-1.4153 1.3061-2.0082 1.9242z" fill="url(#linearGradient1447)"/>
  </g>
  <path d="m30.233 15.634a3.3073 3.3073 0 0 0-0.10799 0.0038c-6e-3 -7.5e-4 -0.01125-0.0038-0.018-0.0038h-3.0463a0.13199 0.13199 0 0 0-0.13199 0.13124v3.0973a3.3073 3.3073 0 0 0-0.0038 0.07799 3.3073 3.3073 0 0 0 3.3073 3.3073 3.3073 3.3073 0 0 0 3.3073-3.3073 3.3073 3.3073 0 0 0-3.3073-3.3073z" color="#000000" fill="url(#linearGradient1991)" overflow="visible" stroke-width=".74996" style="isolation:auto;mix-blend-mode:normal;paint-order:fill markers stroke"/>
  <path d="m32.077 18.94a1.8436 1.8436 0 0 1-1.8444 1.8444 1.8436 1.8436 0 0 1-1.8436-1.8444 1.8436 1.8436 0 0 1 1.8444-1.8436 1.8436 1.8436 0 0 1 1.8436 1.8436z" color="#000000" fill="url(#linearGradient2162)" overflow="visible" stroke-width=".81325" style="isolation:auto;mix-blend-mode:normal;paint-order:fill markers stroke"/>
  <path d="m30.105 17.873v0.94352h-0.94352v0.31489h0.94352l0.0202 0.94232h0.2947v-0.94232h0.94232l0.0202-0.31489h-0.96249v-0.94352z" color="#000000" fill="#fff" overflow="visible" stroke-width="1.1883" style="isolation:auto;mix-blend-mode:normal;paint-order:fill markers stroke"/>
 </g>
</svg>
