<?xml version="1.0" encoding="UTF-8" standalone="no"?>
<svg
   width="64"
   height="64"
   viewBox="0 0 16.934827 16.931967"
   version="1.1"
   id="svg2"
   sodipodi:docname="colorgrab-dynamic.svg"
   xml:space="preserve"
   inkscape:version="1.3 (0e150ed6c4, 2023-07-21)"
   xmlns:inkscape="http://www.inkscape.org/namespaces/inkscape"
   xmlns:sodipodi="http://sodipodi.sourceforge.net/DTD/sodipodi-0.dtd"
   xmlns:xlink="http://www.w3.org/1999/xlink"
   xmlns="http://www.w3.org/2000/svg"
   xmlns:svg="http://www.w3.org/2000/svg"><sodipodi:namedview
     id="namedview2"
     pagecolor="#ffffff"
     bordercolor="#000000"
     borderopacity="0.25"
     inkscape:showpageshadow="2"
     inkscape:pageopacity="0.0"
     inkscape:pagecheckerboard="0"
     inkscape:deskcolor="#d1d1d1"
     inkscape:zoom="2"
     inkscape:cx="35"
     inkscape:cy="77.5"
     inkscape:window-width="1920"
     inkscape:window-height="995"
     inkscape:window-x="0"
     inkscape:window-y="0"
     inkscape:window-maximized="1"
     inkscape:current-layer="svg2" /><defs
     id="defs1"><linearGradient
       id="linearGradient38"
       inkscape:collect="always"><stop
         style="stop-color:#686f6a;stop-opacity:1"
         offset="0"
         id="stop38" /><stop
         style="stop-color:#151314;stop-opacity:1"
         offset="1"
         id="stop39" /></linearGradient><linearGradient
       id="linearGradient36"
       inkscape:collect="always"><stop
         style="stop-color:#f4d92b;stop-opacity:1"
         offset="0"
         id="stop36" /><stop
         style="stop-color:#f1812e;stop-opacity:1"
         offset="1"
         id="stop37" /></linearGradient><linearGradient
       id="linearGradient34"
       inkscape:collect="always"><stop
         style="stop-color:#ed822e;stop-opacity:1"
         offset="0"
         id="stop34" /><stop
         style="stop-color:#d8232a;stop-opacity:1"
         offset="1"
         id="stop35" /></linearGradient><linearGradient
       id="linearGradient32"
       inkscape:collect="always"><stop
         style="stop-color:#5e79b2;stop-opacity:1"
         offset="0"
         id="stop32" /><stop
         style="stop-color:#5b94bd;stop-opacity:1"
         offset="1"
         id="stop33" /></linearGradient><linearGradient
       id="linearGradient30"
       inkscape:collect="always"><stop
         style="stop-color:#244b4f;stop-opacity:1"
         offset="0"
         id="stop30" /><stop
         style="stop-color:#25863e;stop-opacity:1"
         offset="1"
         id="stop31" /></linearGradient><linearGradient
       id="linearGradient27"
       inkscape:collect="always"><stop
         style="stop-color:#6fba4e;stop-opacity:1"
         offset="0"
         id="stop28" /><stop
         style="stop-color:#bbd148;stop-opacity:1"
         offset="1"
         id="stop29" /></linearGradient><linearGradient
       id="linearGradient26"
       inkscape:collect="always"><stop
         style="stop-color:#f2da18;stop-opacity:1"
         offset="0"
         id="stop26" /><stop
         style="stop-color:#f3f5ab;stop-opacity:1"
         offset="1"
         id="stop27" /></linearGradient><filter
       id="a"
       width="1.2318595"
       height="1.2318595"
       x="-0.11592973"
       y="-0.11592973"
       style="color-interpolation-filters:sRGB"><feGaussianBlur
         stdDeviation=".611"
         id="feGaussianBlur1" /></filter><linearGradient
       inkscape:collect="always"
       xlink:href="#linearGradient26"
       id="linearGradient25"
       x1="42.913826"
       y1="0.89575201"
       x2="44.314381"
       y2="6.2555876"
       gradientUnits="userSpaceOnUse"
       gradientTransform="translate(-19.490244,11.345012)" /><linearGradient
       inkscape:collect="always"
       xlink:href="#linearGradient27"
       id="linearGradient29"
       x1="47.187176"
       y1="7.6856346"
       x2="44.314445"
       y2="6.2558541"
       gradientUnits="userSpaceOnUse"
       gradientTransform="translate(-19.490244,11.345012)" /><linearGradient
       inkscape:collect="always"
       xlink:href="#linearGradient30"
       id="linearGradient31"
       x1="43.316811"
       y1="10.188762"
       x2="43.043343"
       y2="6.9897246"
       gradientUnits="userSpaceOnUse"
       gradientTransform="translate(-19.490244,11.345012)" /><linearGradient
       inkscape:collect="always"
       xlink:href="#linearGradient32"
       id="linearGradient33"
       x1="41.77166"
       y1="6.2555771"
       x2="39.101177"
       y2="8.0328884"
       gradientUnits="userSpaceOnUse"
       gradientTransform="translate(-19.490244,11.345012)" /><linearGradient
       inkscape:collect="always"
       xlink:href="#linearGradient34"
       id="linearGradient35"
       x1="41.77166"
       y1="4.7878413"
       x2="38.900665"
       y2="3.3484609"
       gradientUnits="userSpaceOnUse"
       gradientTransform="translate(-19.490244,11.345012)" /><linearGradient
       inkscape:collect="always"
       xlink:href="#linearGradient36"
       id="linearGradient37"
       x1="43.043472"
       y1="4.0438876"
       x2="42.913826"
       y2="0.89575201"
       gradientUnits="userSpaceOnUse"
       gradientTransform="translate(-19.490244,11.345012)" /><linearGradient
       inkscape:collect="always"
       xlink:href="#linearGradient38"
       id="linearGradient39"
       x1="8.4674129"
       y1="0.52778292"
       x2="8.4674129"
       y2="16.404184"
       gradientUnits="userSpaceOnUse" /></defs><circle
     style="fill:url(#linearGradient39);fill-opacity:1;stroke:none;stroke-width:0.0307416;stroke-linecap:square;stroke-opacity:1"
     id="path37"
     cx="8.4674129"
     cy="8.4659834"
     r="7.9382005" /><path
     sodipodi:type="star"
     style="fill:#010a0e;fill-opacity:1;stroke:none;stroke-width:0.0264607;stroke-linecap:round"
     id="path4"
     inkscape:flatsided="false"
     sodipodi:sides="6"
     sodipodi:cx="131.37486"
     sodipodi:cy="7.6664371"
     sodipodi:r1="9.172493"
     sodipodi:r2="7.9228344"
     sodipodi:arg1="0.52359878"
     sodipodi:arg2="1.0471976"
     inkscape:rounded="0"
     inkscape:randomized="0"
     d="m 139.31847,12.252684 -3.98219,2.275129 -3.96142,2.311117 -3.96141,-2.311117 -3.9822,-2.275129 0.0208,-4.5862472 -0.0208,-4.5862462 3.9822,-2.2751295 3.96141,-2.3111169 3.96142,2.31111729 3.98219,2.27512921 -0.0208,4.5862468 z"
     transform="matrix(0.22860205,0,0,0.22860205,-21.56515,6.7134205)" /><g
     id="g37"
     transform="matrix(1.4285714,0,0,1.4285714,-25.178629,-15.624541)"><path
       id="path16"
       style="opacity:1;fill:url(#linearGradient25);fill-opacity:1;stroke:none;stroke-width:0.0330433;stroke-linecap:round"
       d="m 23.375214,12.18485 c 0.01264,0.01257 0.02581,0.02425 0.03824,0.03721 0.03841,0.04005 0.07568,0.08198 0.112148,0.125584 0.03647,0.0436 0.0719,0.0886 0.106463,0.135405 0.03457,0.04681 0.06807,0.09505 0.100778,0.144706 0.03271,0.04966 0.06471,0.10082 0.09561,0.152976 0.0309,0.05216 0.06079,0.105393 0.08993,0.159694 0.02913,0.0543 0.05735,0.109802 0.08476,0.165896 0.02741,0.0561 0.05438,0.113013 0.08011,0.170548 0.02573,0.05753 0.05033,0.115542 0.07442,0.174165 0.02409,0.05862 0.04727,0.117907 0.06977,0.177265 0.045,0.118716 0.08719,0.238093 0.126102,0.357633 0.03891,0.11954 0.07485,0.239056 0.108013,0.356599 0.03317,0.117543 0.06318,0.233538 0.09096,0.346262 0.02778,0.112725 0.05323,0.222056 0.07597,0.327141 0.02275,0.105085 0.04292,0.205642 0.06098,0.300267 0.01807,0.09462 0.0338,0.183264 0.04755,0.264606 0.02749,0.162684 0.04711,0.296014 0.05943,0.388641 0.01233,0.09263 0.01757,0.144707 0.01757,0.144707 l -0.0036,0.73387 0.01373,0.752573 c 0.08401,-0.0485 0.18419,-0.06885 0.263733,-0.120043 0.07954,-0.05119 0.156855,-0.104019 0.232048,-0.157627 0.07519,-0.05361 0.148165,-0.108076 0.219127,-0.163829 0.07096,-0.05575 0.139874,-0.11292 0.206724,-0.170547 0.06685,-0.05763 0.131463,-0.115969 0.19432,-0.175199 0.06286,-0.05923 0.123968,-0.119288 0.182951,-0.17985 0.05898,-0.06056 0.115836,-0.121329 0.171064,-0.18295 0.05523,-0.06162 0.10862,-0.124158 0.160211,-0.186569 0.05159,-0.06241 0.101284,-0.124673 0.149358,-0.187602 0.04807,-0.06293 0.09486,-0.126493 0.139539,-0.189669 0.04468,-0.06318 0.08729,-0.126001 0.128686,-0.189152 0.0414,-0.06315 0.08115,-0.126296 0.119383,-0.189153 0.03824,-0.06286 0.07489,-0.125829 0.11008,-0.188119 0.0352,-0.06229 0.06902,-0.124082 0.101295,-0.185534 0.03227,-0.06145 0.06304,-0.122608 0.09251,-0.182951 0.02947,-0.06034 0.05797,-0.119854 0.08476,-0.178816 0.02678,-0.05896 0.05175,-0.117371 0.07597,-0.174682 0.02422,-0.05731 0.04748,-0.113608 0.06925,-0.168997 0.0022,-0.0055 0.0035,-0.0105 0.0057,-0.01602 -0.85462,-1.363608 -2.378884,-2.239813 -3.98817,-2.240325 -0.05588,0.003 -0.111707,0.0069 -0.167447,0.01189 z"
       sodipodi:nodetypes="cssssssssssssssssscccsssssssssssssssssscccc" /><path
       id="path17"
       style="opacity:1;fill:url(#linearGradient29);fill-opacity:1;stroke:none;stroke-width:0.0330433;stroke-linecap:round"
       d="m 27.512591,14.38397 c -0.0046,0.01723 -0.0081,0.03448 -0.0131,0.05172 -0.01548,0.05329 -0.03316,0.106532 -0.05269,0.159916 -0.01953,0.05339 -0.04078,0.106566 -0.06403,0.159901 -0.02325,0.05334 -0.04828,0.106475 -0.07493,0.15963 -0.02665,0.05316 -0.05496,0.10645 -0.08468,0.159289 -0.02972,0.05284 -0.06088,0.105342 -0.09333,0.157728 -0.03246,0.05238 -0.06642,0.104568 -0.10129,0.156353 -0.03487,0.05179 -0.07068,0.1036 -0.107643,0.154651 -0.03696,0.05105 -0.0749,0.101358 -0.113622,0.151532 -0.03872,0.05017 -0.07848,0.09989 -0.118631,0.149055 -0.08031,0.09833 -0.162599,0.194555 -0.246668,0.288024 -0.08407,0.09347 -0.169603,0.18435 -0.254817,0.271841 -0.08521,0.0875 -0.17066,0.171485 -0.254392,0.251905 -0.08373,0.08042 -0.165696,0.157118 -0.245327,0.229363 -0.07963,0.07224 -0.156632,0.139991 -0.229549,0.202943 -0.07291,0.06296 -0.141812,0.120904 -0.205381,0.173483 -0.127143,0.105149 -0.232801,0.188805 -0.306858,0.245788 -0.07405,0.05699 -0.116535,0.08757 -0.116535,0.08757 l -0.642268,0.37002 -0.648461,0.399979 c 0.08401,0.0485 0.167985,0.09463 0.25209,0.137917 0.0841,0.04329 0.168511,0.08383 0.252533,0.122146 0.08402,0.03831 0.167679,0.07428 0.251444,0.107855 0.08376,0.03358 0.167729,0.06467 0.25106,0.09375 0.08333,0.02908 0.166163,0.05587 0.248886,0.08069 0.08272,0.02482 0.165291,0.04772 0.24723,0.06852 0.08194,0.0208 0.162992,0.03965 0.243972,0.05667 0.08098,0.01702 0.161834,0.03199 0.241679,0.04546 0.07984,0.01347 0.158612,0.02538 0.237147,0.03555 0.07854,0.01017 0.156976,0.0189 0.234028,0.02601 0.07705,0.0071 0.152765,0.01259 0.228154,0.01687 0.07539,0.0043 0.14995,0.0071 0.223502,0.0088 0.07355,0.0017 0.146416,0.0019 0.217955,0.0013 0.07155,-6.61e-4 0.141969,-0.0023 0.211326,-0.005 0.06935,-0.0028 0.137701,-0.0067 0.204695,-0.01136 0.06699,-0.0047 0.132781,-0.0097 0.197239,-0.016 0.06445,-0.0063 0.127521,-0.01387 0.189264,-0.02155 0.06174,-0.0077 0.122127,-0.01569 0.180981,-0.02453 0.0059,-8.7e-4 0.01084,-0.0022 0.01672,-0.0031 0.753612,-1.421934 0.74252,-3.167644 -0.06169,-4.561585 -0.0305,-0.04692 -0.06185,-0.09328 -0.09402,-0.13907 z"
       sodipodi:nodetypes="ccsssscssssssssccccccssssssssssscscsssccccc" /><path
       id="path18"
       style="opacity:1;fill:url(#linearGradient31);fill-opacity:1;stroke:none;stroke-width:0.0330433;stroke-linecap:round"
       d="m 27.682988,19.054712 c -0.01592,0.0081 -0.0339,0.01022 -0.05135,0.01451 -0.05389,0.01324 -0.108842,0.02455 -0.164835,0.03433 -0.056,0.0098 -0.112679,0.01797 -0.170494,0.0245 -0.05782,0.0065 -0.11635,0.01143 -0.175709,0.01492 -0.05936,0.0035 -0.119668,0.0056 -0.180288,0.0063 -0.06062,6.8e-4 -0.121668,-5.3e-5 -0.183262,-0.002 -0.06159,-0.0019 -0.123767,-0.0052 -0.18605,-0.0095 -0.06228,-0.0043 -0.125059,-0.0094 -0.187752,-0.0159 -0.06269,-0.0065 -0.12523,-0.01419 -0.188043,-0.02263 -0.06281,-0.0084 -0.125747,-0.01802 -0.188401,-0.02821 -0.125306,-0.02039 -0.249785,-0.04354 -0.372767,-0.06961 -0.122978,-0.02608 -0.244453,-0.0547 -0.362829,-0.08476 -0.118381,-0.03004 -0.23384,-0.06205 -0.345352,-0.09436 -0.111512,-0.0323 -0.218915,-0.06494 -0.321297,-0.09778 -0.102381,-0.03284 -0.199552,-0.06565 -0.290529,-0.09732 -0.09098,-0.03166 -0.175612,-0.06236 -0.252931,-0.09112 -0.154633,-0.05754 -0.279911,-0.10721 -0.366288,-0.142853 -0.08638,-0.03563 -0.134104,-0.05714 -0.134104,-0.05714 l -0.650468,-0.36698 -0.667324,-0.36391 c 3e-6,0.09701 0.002,0.192792 0.0066,0.287274 0.0046,0.09448 0.01166,0.187851 0.02049,0.279774 0.0088,0.09192 0.01952,0.182354 0.03232,0.271684 0.01281,0.08933 0.02786,0.177594 0.04434,0.264302 0.01648,0.08671 0.0347,0.171834 0.05457,0.255885 0.01986,0.08405 0.04132,0.167004 0.06428,0.248365 0.02295,0.08136 0.04715,0.16098 0.07291,0.239622 0.02575,0.07864 0.05321,0.156145 0.08147,0.232031 0.02825,0.07588 0.05733,0.150051 0.08779,0.223149 0.03046,0.0731 0.06211,0.145397 0.09449,0.215679 0.03237,0.07028 0.06547,0.138595 0.09947,0.206022 0.03399,0.06743 0.0688,0.133425 0.104121,0.197963 0.03531,0.06454 0.07153,0.12777 0.107878,0.18939 0.03635,0.06163 0.07295,0.121813 0.110028,0.180493 0.03708,0.05867 0.07466,0.115898 0.112185,0.171592 0.03752,0.05569 0.07481,0.110131 0.112479,0.162812 0.03767,0.05267 0.07577,0.103503 0.113294,0.153133 0.03752,0.04963 0.07465,0.09792 0.11173,0.144471 0.0037,0.0047 0.0073,0.0083 0.01102,0.01294 1.608237,-0.05832 3.120113,-0.942693 3.925195,-2.336131 0.02538,-0.04988 0.04986,-0.100202 0.07343,-0.150957 z"
       sodipodi:nodetypes="scsssscssscscssccccccsccscccsscccsssssccccs" /><path
       id="path19"
       style="opacity:1;fill:url(#linearGradient33);fill-opacity:1;stroke:none;stroke-width:0.0330433;stroke-linecap:round"
       d="m 23.714332,21.541875 c -0.01636,-0.0071 -0.0258,-0.02425 -0.03824,-0.03721 -0.03841,-0.04005 -0.07568,-0.08199 -0.112146,-0.125588 -0.03647,-0.04361 -0.0719,-0.0886 -0.106464,-0.135403 -0.03457,-0.0468 -0.06807,-0.09505 -0.100779,-0.144706 -0.03271,-0.04966 -0.06471,-0.100821 -0.09561,-0.152979 -0.0309,-0.05216 -0.06079,-0.105394 -0.08993,-0.15969 -0.02913,-0.0543 -0.05735,-0.109805 -0.08476,-0.165894 -0.02742,-0.05609 -0.05438,-0.113009 -0.08011,-0.170546 -0.02572,-0.05754 -0.05033,-0.115545 -0.07442,-0.174167 -0.02409,-0.05862 -0.04727,-0.11791 -0.06977,-0.177265 -0.04499,-0.118714 -0.08718,-0.238092 -0.126095,-0.357633 -0.0389,-0.119541 -0.07485,-0.239055 -0.108012,-0.356598 -0.03317,-0.117542 -0.06318,-0.233538 -0.09096,-0.346263 -0.02778,-0.112723 -0.05322,-0.222057 -0.07597,-0.32714 -0.02275,-0.105083 -0.04292,-0.205643 -0.06098,-0.300268 -0.01808,-0.09462 -0.0338,-0.183265 -0.04755,-0.264606 -0.02749,-0.162683 -0.04711,-0.296015 -0.05943,-0.388641 -0.01233,-0.09262 -0.01757,-0.144706 -0.01757,-0.144706 l 0.0036,-0.733867 -0.01614,-0.772982 c -0.08401,0.04851 -0.165963,0.09813 -0.245487,0.149353 -0.07952,0.05122 -0.156854,0.104023 -0.232046,0.157632 -0.07521,0.05358 -0.148164,0.108081 -0.219126,0.163832 -0.07095,0.05576 -0.139871,0.112924 -0.206722,0.17055 -0.06685,0.05763 -0.131463,0.115968 -0.194318,0.175202 -0.06286,0.05922 -0.12397,0.119286 -0.18295,0.17985 -0.05898,0.06056 -0.115838,0.121323 -0.171064,0.182953 -0.05523,0.06162 -0.108621,0.124154 -0.16021,0.186571 -0.05159,0.0624 -0.101283,0.124675 -0.149358,0.187603 -0.04808,0.06293 -0.09486,0.126487 -0.139538,0.18967 -0.04468,0.06318 -0.08729,0.125996 -0.128685,0.189154 -0.0414,0.06315 -0.08115,0.126296 -0.119381,0.189153 -0.03824,0.06285 -0.07489,0.125832 -0.110077,0.18812 -0.0352,0.0623 -0.06902,0.124084 -0.101298,0.185534 -0.03227,0.06145 -0.06304,0.122607 -0.09251,0.182951 -0.02947,0.06034 -0.05797,0.119853 -0.08476,0.178816 -0.02678,0.05896 -0.05175,0.11737 -0.07597,0.174682 -0.02422,0.05731 -0.04748,0.113609 -0.06925,0.168996 -0.0022,0.0055 -0.0035,0.01047 -0.0057,0.01601 0.854625,1.363614 2.363087,2.230914 3.972381,2.231416 0.05588,-0.003 0.111708,-0.0069 0.167448,-0.01189 z"
       sodipodi:nodetypes="scsssscccsccsssccccccsccscsccssccsssssccccs" /><path
       id="path20"
       style="opacity:1;fill:url(#linearGradient35);fill-opacity:1;stroke:none;stroke-width:0.0330433;stroke-linecap:round"
       d="m 19.592977,19.349466 c 0.0046,-0.01723 0.0081,-0.03447 0.0131,-0.05172 0.01548,-0.05329 0.03317,-0.106535 0.05269,-0.159915 0.01954,-0.05339 0.04078,-0.106566 0.06403,-0.159902 0.02325,-0.05334 0.04828,-0.106474 0.07493,-0.15963 0.02665,-0.05316 0.05496,-0.106451 0.08468,-0.15929 0.02972,-0.05284 0.06088,-0.105344 0.09333,-0.157727 0.03246,-0.05238 0.06642,-0.104569 0.101289,-0.156351 0.03486,-0.05179 0.07068,-0.103598 0.107642,-0.15465 0.03697,-0.05104 0.0749,-0.101359 0.113623,-0.151533 0.03872,-0.05017 0.07848,-0.09989 0.118631,-0.149056 0.08032,-0.09832 0.162604,-0.194546 0.246672,-0.288018 0.08407,-0.09346 0.169602,-0.184349 0.254817,-0.27184 0.08521,-0.0875 0.170659,-0.171484 0.254392,-0.251905 0.08373,-0.08042 0.165697,-0.157118 0.245327,-0.229362 0.07963,-0.07224 0.156632,-0.139991 0.229549,-0.202944 0.07291,-0.06297 0.141813,-0.120904 0.205381,-0.173482 0.127143,-0.10515 0.232802,-0.188806 0.306858,-0.245789 0.07405,-0.05699 0.116535,-0.08757 0.116535,-0.08757 l 0.637349,-0.363815 0.638968,-0.375979 c -0.08401,-0.0485 -0.167962,-0.09466 -0.252086,-0.137922 -0.08412,-0.04325 -0.168514,-0.08383 -0.252536,-0.122142 -0.08401,-0.03834 -0.167684,-0.07427 -0.251446,-0.107852 -0.08376,-0.03357 -0.167731,-0.06467 -0.251062,-0.09375 -0.08333,-0.02908 -0.166163,-0.05587 -0.248888,-0.08068 -0.08272,-0.02482 -0.16529,-0.04772 -0.24723,-0.06851 -0.08194,-0.0208 -0.162988,-0.03966 -0.243974,-0.05667 -0.08098,-0.01702 -0.161831,-0.03199 -0.24168,-0.04546 -0.07984,-0.01348 -0.158613,-0.02538 -0.237148,-0.03555 -0.07854,-0.01017 -0.156971,-0.01891 -0.234028,-0.02601 -0.07706,-0.0071 -0.152761,-0.0126 -0.228155,-0.01687 -0.0754,-0.0043 -0.14995,-0.0071 -0.223502,-0.0088 -0.07355,-0.0017 -0.146418,-0.0019 -0.217955,-0.0013 -0.07155,6.63e-4 -0.141969,0.0023 -0.211326,0.005 -0.06934,0.0028 -0.137701,0.0067 -0.204695,0.01136 -0.06699,0.0046 -0.132781,0.0097 -0.197239,0.016 -0.06445,0.0063 -0.127521,0.01387 -0.189265,0.02155 -0.06174,0.0077 -0.122127,0.01569 -0.18098,0.02453 -0.0059,8.62e-4 -0.01082,0.0022 -0.01671,0.0031 -0.753611,1.421933 -0.714562,3.108498 0.08965,4.502438 0.0305,0.04692 0.0483,0.122225 0.08047,0.168015 z"
       sodipodi:nodetypes="cccssscccsccsssccccccsccsssssscccscsssccccc" /><path
       id="path21"
       style="opacity:1;fill:url(#linearGradient37);fill-opacity:1;stroke:none;stroke-width:0.0330433;stroke-linecap:round"
       d="m 19.423325,14.668949 c 0.01722,-0.0046 0.0339,-0.01022 0.05134,-0.01452 0.05389,-0.01324 0.108846,-0.02454 0.164835,-0.03433 0.05601,-0.0098 0.112679,-0.01797 0.170494,-0.0245 0.05782,-0.0065 0.116349,-0.01142 0.175709,-0.01492 0.05936,-0.0035 0.119669,-0.0056 0.180289,-0.0063 0.06062,-6.81e-4 0.12167,5.2e-5 0.18326,0.002 0.06159,0.0019 0.12377,0.0052 0.186049,0.0095 0.06228,0.0043 0.125058,0.0094 0.187752,0.0159 0.06269,0.0065 0.125229,0.01419 0.188043,0.02263 0.06281,0.0084 0.125749,0.01802 0.188401,0.02821 0.125307,0.0204 0.249784,0.04355 0.372767,0.06962 0.122973,0.02608 0.244452,0.05471 0.362829,0.08476 0.118379,0.03004 0.233839,0.06205 0.345352,0.09436 0.11151,0.0323 0.218917,0.06494 0.321297,0.09778 0.102378,0.03284 0.199552,0.06565 0.290529,0.09732 0.09099,0.03166 0.175613,0.06236 0.252931,0.09112 0.154633,0.05753 0.279912,0.107209 0.366288,0.142852 0.08638,0.03563 0.106886,0.07151 0.106886,0.07151 l 0.660966,0.355681 0.64478,0.375234 c -10e-7,-0.09701 -0.002,-0.192792 -0.0066,-0.287274 -0.0046,-0.09448 -0.01166,-0.187851 -0.02049,-0.279774 -0.0088,-0.09193 -0.01952,-0.182355 -0.03232,-0.271685 -0.01281,-0.08932 -0.02786,-0.177594 -0.04434,-0.264301 -0.01648,-0.08671 -0.0347,-0.171835 -0.05457,-0.255885 -0.01986,-0.08405 -0.04132,-0.167005 -0.06428,-0.248365 -0.02296,-0.08136 -0.04715,-0.16098 -0.07291,-0.239623 -0.02575,-0.07864 -0.05321,-0.156145 -0.08147,-0.232031 -0.02825,-0.07588 -0.05733,-0.150051 -0.08779,-0.22315 -0.03046,-0.0731 -0.06211,-0.145394 -0.09449,-0.215678 -0.03237,-0.07029 -0.06547,-0.138593 -0.09947,-0.206022 -0.03399,-0.06744 -0.0688,-0.133425 -0.104122,-0.197963 -0.03531,-0.06454 -0.07153,-0.127772 -0.107877,-0.18939 -0.03635,-0.06163 -0.07295,-0.121813 -0.110028,-0.180493 -0.03708,-0.05866 -0.07466,-0.115898 -0.112185,-0.171592 -0.03752,-0.05569 -0.07481,-0.110132 -0.112478,-0.162812 -0.03767,-0.05267 -0.07577,-0.103503 -0.113296,-0.153134 -0.03752,-0.04963 -0.07465,-0.09792 -0.11173,-0.14447 -0.0037,-0.0047 -0.0073,-0.0083 -0.01101,-0.01294 -1.608237,0.05832 -3.08085,0.928299 -3.885932,2.321737 -0.02538,0.04988 -0.04986,0.100204 -0.07343,0.150959 z"
       sodipodi:nodetypes="sccssscccsccsssccccccsccscsssscccscsssccccs" /></g></svg>
