<?xml version="1.0" encoding="UTF-8"?>
<!-- Created with Inkscape (http://www.inkscape.org/) -->
<svg width="64" height="64" version="1.1" viewBox="0 0 16.933 16.933" xmlns="http://www.w3.org/2000/svg" xmlns:xlink="http://www.w3.org/1999/xlink">
 <defs>
  <linearGradient id="linearGradient7983" x1=".52911" x2="16.404" y1="8.4665" y2="8.4665" gradientTransform="matrix(1 0 0 1 16.527 -.35876)" gradientUnits="userSpaceOnUse">
   <stop stop-color="#0a3e82" offset="0"/>
   <stop stop-color="#054b9e" offset="1"/>
  </linearGradient>
  <linearGradient id="linearGradient7975" x1="3.1749" x2="13.758" y1="8.4665" y2="8.4665" gradientTransform="matrix(1 0 0 1 16.527 -.35886)" gradientUnits="userSpaceOnUse">
   <stop stop-color="#0364c8" offset="0"/>
   <stop stop-color="#0979ea" offset="1"/>
  </linearGradient>
  <radialGradient id="radialGradient1042" cx="12.171" cy="12.171" r="4.7624" gradientTransform="matrix(.80557 0 0 .80557 8.0686 9.6581)" gradientUnits="userSpaceOnUse">
   <stop offset="0"/>
   <stop offset=".47287"/>
   <stop stop-opacity="0" offset="1"/>
  </radialGradient>
  <linearGradient id="linearGradient1749" x1="-40.267" x2="-14.489" y1="61.401" y2="61.401" gradientTransform="matrix(.26458 0 0 .26458 25.117 3.0036)" gradientUnits="userSpaceOnUse">
   <stop stop-color="#34b9f2" offset="0"/>
   <stop stop-color="#1ba2e7" offset="1"/>
  </linearGradient>
  <filter id="filter1021" x="-.0675" y="-.27" width="1.135" height="1.54" color-interpolation-filters="sRGB">
   <feGaussianBlur stdDeviation="0.67500242"/>
  </filter>
 </defs>
 <g transform="translate(-13.571 -6.9096)">
  <path d="m30.039 15.376c0 0.95155-0.16749 1.8638-0.47465 2.7095-0.2135 0.58769-0.49439 1.1433-0.83394 1.6572-0.14222 0.21608-0.29515 0.42476-0.45746 0.62529-0.51966 0.64179-1.1372 1.2007-1.8304 1.6543-0.2553 0.16717-0.52065 0.32011-0.79537 0.45713-1.0668 0.53389-2.2711 0.83422-3.5457 0.83422s-2.4788-0.30033-3.5457-0.83424c-0.27475-0.13705-0.54041-0.28997-0.79571-0.45713-0.70207-0.45973-1.327-1.0274-1.8508-1.6798-0.16262-0.20216-0.31524-0.41276-0.45746-0.63078-0.33047-0.5054-0.60421-1.0507-0.8135-1.627-0.30711-0.84529-0.47431-1.7572-0.47431-2.7085 0-4.3838 3.5538-7.9376 7.9376-7.9376 2.2005 0 4.1917 0.89549 5.6295 2.3416 0.41436 0.41662 0.78275 0.8793 1.0963 1.3795 0.29646 0.47108 0.54428 0.97582 0.73704 1.5068 0.30719 0.8456 0.47467 1.7579 0.47467 2.7095z" fill="url(#linearGradient7983)" image-rendering="optimizeSpeed" stroke-width=".031006"/>
  <path d="m27.393 15.376c0 0.63436-0.11166 1.2425-0.31643 1.8063-0.14233 0.39179-0.32959 0.76222-0.55595 1.1048-0.09481 0.14405-0.19676 0.28317-0.30497 0.41686-0.34644 0.42786-0.75814 0.80048-1.2203 1.1029-0.1702 0.11145-0.3471 0.2134-0.53024 0.30475-0.71121 0.35593-1.5141 0.55614-2.3637 0.55614-0.84962 0-1.6525-0.20021-2.3637-0.55615-0.18316-0.09137-0.36027-0.1933-0.53047-0.30475-0.46805-0.30649-0.88468-0.68494-1.2339-1.1199-0.10841-0.13477-0.21015-0.27516-0.30497-0.42052-0.22031-0.33693-0.40281-0.70047-0.54233-1.0847-0.20474-0.56352-0.31621-1.1715-0.31621-1.8056 0-2.9225 2.3691-5.2917 5.2917-5.2917 1.467 0 2.7945 0.59699 3.753 1.5611 0.27624 0.27775 0.52183 0.58619 0.73087 0.91968 0.19763 0.31405 0.36285 0.65054 0.49136 1.0045 0.20478 0.56373 0.31645 1.1719 0.31645 1.8063z" fill="url(#linearGradient7975)" image-rendering="optimizeSpeed" stroke-width=".020671"/>
  <path d="m22.102 11.697-3.2846 1.0745c0 2.2617-0.01009 3.5016 0.38758 4.399 0.39791 0.89811 1.2144 1.4891 2.897 2.4639 1.6827-0.97483 2.4991-1.5658 2.897-2.4639 0.39767-0.89717 0.38758-2.1373 0.38758-4.399zm0.06851 2.4635a0.75265 0.75265 0 0 1 0.75265 0.75265 0.74866 0.74866 0 0 1-0.45703 0.69212l0.45703 1.5661h-1.5055l0.45726-1.5658a0.74842 0.74842 0 0 1-0.45726-0.69235 0.75265 0.75265 0 0 1 0.75288-0.75288z" color="#000000" fill="#fff" image-rendering="optimizeSpeed" opacity=".5" overflow="visible" solid-color="#000000" stroke-width=".20106" style="isolation:auto;mix-blend-mode:normal"/>
  <path d="m22.102 12.381-2.7366 0.95793c0 3.6867-0.10628 3.9697 2.7366 5.6113 2.8194-1.6296 2.7366-1.9231 2.7366-5.6113zm0.06851 1.7791a0.75265 0.75265 0 0 1 0.75265 0.75288 0.74866 0.74866 0 0 1-0.45703 0.69212l0.45703 1.5661h-1.5055l0.45726-1.5658a0.74842 0.74842 0 0 1-0.45726-0.69235 0.75265 0.75265 0 0 1 0.75288-0.75288z" color="#000000" fill="#fff" image-rendering="optimizeSpeed" overflow="visible" solid-color="#000000" stroke-width=".20106" style="isolation:auto;mix-blend-mode:normal"/>
  <circle cx="17.873" cy="19.463" r="3.8365" fill="url(#radialGradient1042)" opacity=".65" stroke-width=".90626"/>
  <circle cx="17.873" cy="19.249" r="3.4102" fill="url(#linearGradient1749)" stroke-linecap="round" stroke-width="1.5767"/>
  <path transform="matrix(.21314 0 0 .21314 8.0686 9.6581)" d="m36.949 43a3 3 0 0 0-2.9492 3 3 3 0 0 0 3 3 3 3 0 0 0 3-3 3 3 0 0 0-3-3 3 3 0 0 0-0.05078 0zm9 0a3 3 0 0 0-2.9492 3 3 3 0 0 0 3 3 3 3 0 0 0 3-3 3 3 0 0 0-3-3 3 3 0 0 0-0.05078 0zm9 0a3 3 0 0 0-2.9492 3 3 3 0 0 0 3 3 3 3 0 0 0 3-3 3 3 0 0 0-3-3 3 3 0 0 0-0.05078 0z" filter="url(#filter1021)" opacity=".35"/>
  <g fill="#ececec" stroke-width=".21314">
   <circle cx="15.955" cy="19.249" r=".63941"/>
   <circle cx="17.873" cy="19.249" r=".63941"/>
   <circle cx="19.791" cy="19.249" r=".63941"/>
  </g>
 </g>
</svg>
