<?xml version="1.0" encoding="UTF-8" standalone="no"?>
<svg
   xml:space="preserve"
   width="64"
   height="64"
   version="1.1"
   id="svg58"
   sodipodi:docname="com.belmoussaoui.ReadItLater.svg"
   inkscape:version="1.4.2 (ebf0e940d0, 2025-05-08)"
   xmlns:inkscape="http://www.inkscape.org/namespaces/inkscape"
   xmlns:sodipodi="http://sodipodi.sourceforge.net/DTD/sodipodi-0.dtd"
   xmlns:xlink="http://www.w3.org/1999/xlink"
   xmlns="http://www.w3.org/2000/svg"
   xmlns:svg="http://www.w3.org/2000/svg"><sodipodi:namedview
     id="namedview58"
     pagecolor="#505050"
     bordercolor="#eeeeee"
     borderopacity="1"
     inkscape:showpageshadow="0"
     inkscape:pageopacity="0"
     inkscape:pagecheckerboard="0"
     inkscape:deskcolor="#505050"
     inkscape:zoom="4.369699"
     inkscape:cx="43.366832"
     inkscape:cy="56.640058"
     inkscape:window-width="1920"
     inkscape:window-height="1018"
     inkscape:window-x="0"
     inkscape:window-y="0"
     inkscape:window-maximized="1"
     inkscape:current-layer="svg58" /><defs
     id="defs16"><linearGradient
       id="linearGradient23"
       x1="7.937"
       x2="7.937"
       y1="15.081"
       y2="1.852"
       gradientTransform="scale(3.7796)"
       gradientUnits="userSpaceOnUse"
       spreadMethod="pad"><stop
         offset="0"
         stop-color="#ffc30d"
         style="stop-color:#b5825a;stop-opacity:1"
         id="stop20" /><stop
         offset="0.07374175"
         stop-color="#ffc30d"
         style="stop-color:#c8a284;stop-opacity:1"
         id="stop21" /><stop
         offset="0.17244402"
         stop-color="#ffc30d"
         style="stop-color:#b5825a;stop-opacity:1"
         id="stop25" /><stop
         offset="0.82155246"
         stop-color="#ffc30d"
         style="stop-color:#b5825a;stop-opacity:1"
         id="stop24" /><stop
         offset="0.94225329"
         stop-color="#ffc30d"
         style="stop-color:#c8a284;stop-opacity:1"
         id="stop22" /><stop
         offset="1"
         stop-color="#fff63f"
         style="stop-color:#b5825a;stop-opacity:1"
         id="stop23" /></linearGradient><linearGradient
       id="h"><stop
         offset="0"
         style="stop-color:#000;stop-opacity:1"
         id="stop1" /><stop
         offset="1"
         style="stop-color:#000;stop-opacity:0"
         id="stop2" /></linearGradient><linearGradient
       id="g"><stop
         offset="0"
         style="stop-color:#b38259;stop-opacity:1"
         id="stop3" /><stop
         offset="1"
         style="stop-color:#604521;stop-opacity:1"
         id="stop4" /></linearGradient><linearGradient
       id="c"
       x1="7.937"
       x2="7.937"
       y1="15.081"
       y2="1.852"
       gradientTransform="scale(3.7796)"
       gradientUnits="userSpaceOnUse"
       spreadMethod="pad"><stop
         offset="0"
         stop-color="#ffc30d"
         style="stop-color:#805533;stop-opacity:1"
         id="stop5" /><stop
         offset=".204"
         stop-color="#ffc30d"
         style="stop-color:#b38259;stop-opacity:1"
         id="stop6" /><stop
         offset=".804"
         stop-color="#ffc30d"
         style="stop-color:#b38259;stop-opacity:1"
         id="stop7" /><stop
         offset="1"
         stop-color="#fff63f"
         style="stop-color:#7f5432;stop-opacity:1"
         id="stop8" /></linearGradient><linearGradient
       id="f"><stop
         offset="0"
         style="stop-color:#ccab8f;stop-opacity:1"
         id="stop9" /><stop
         offset="1"
         style="stop-color:#bb906b;stop-opacity:1"
         id="stop10" /></linearGradient><linearGradient
       id="e"><stop
         offset="0"
         style="stop-color:#68462b;stop-opacity:1"
         id="stop11" /><stop
         offset="1"
         style="stop-color:#49331f;stop-opacity:1"
         id="stop12" /></linearGradient><linearGradient
       xlink:href="#a"
       id="i"
       x1="7.937"
       x2="7.937"
       y1="15.081"
       y2="1.852"
       gradientTransform="matrix(3.7078421,0,0,3.7078421,-63.394432,-63.332031)"
       gradientUnits="userSpaceOnUse" /><linearGradient
       xlink:href="#b"
       id="a"
       x1="7.937"
       x2="7.937"
       y1="15.081"
       y2="1.852"
       gradientTransform="scale(3.7796)"
       gradientUnits="userSpaceOnUse"><stop
         offset="0"
         stop-color="#ffc30d"
         id="stop13" /><stop
         offset="1"
         stop-color="#fff63f"
         id="stop14" /></linearGradient><linearGradient
       id="b"
       x1="7.937"
       x2="7.937"
       y1="15.081"
       y2="1.852"
       gradientTransform="scale(3.7796)"
       gradientUnits="userSpaceOnUse"
       spreadMethod="pad"><stop
         offset="0"
         stop-color="#ffc30d"
         style="stop-color:#d9a300;stop-opacity:1"
         id="stop15" /><stop
         offset="1"
         stop-color="#fff63f"
         id="stop16" /></linearGradient><linearGradient
       xlink:href="#c"
       id="s"
       x1="1.058"
       x2="15.875"
       y1="12.427"
       y2="12.427"
       gradientTransform="matrix(-3.711848,0,0,-3.711848,63.428353,33.41497)"
       gradientUnits="userSpaceOnUse" /><linearGradient
       xlink:href="#linearGradient23"
       id="j"
       x1="156.441"
       x2="212.443"
       y1="18.47"
       y2="18.47"
       gradientUnits="userSpaceOnUse"
       gradientTransform="matrix(0.79008065,0,0,0.64544599,-113.72405,33.926592)" /><linearGradient
       xlink:href="#e"
       id="k"
       x1="184.441"
       x2="184.441"
       y1="12.173"
       y2="48.547"
       gradientUnits="userSpaceOnUse"
       gradientTransform="matrix(0.98101442,0,0,0.98101442,-139.17347,-52.126093)" /><linearGradient
       xlink:href="#f"
       id="r"
       x1="-184.442"
       x2="-184.442"
       y1="-39.97"
       y2="3.03"
       gradientUnits="userSpaceOnUse"
       gradientTransform="matrix(0.98208615,0,0,0.98208615,152.61389,95.500527)" /><linearGradient
       xlink:href="#g"
       id="l"
       x1="-159.753"
       x2="-159.753"
       y1="-19.117"
       y2="-22.725"
       gradientUnits="userSpaceOnUse"
       gradientTransform="matrix(0.98101442,0,0,0.98101442,216.01766,150.15275)" /><linearGradient
       xlink:href="#g"
       id="m"
       x1="-159.753"
       x2="-159.753"
       y1="-19.117"
       y2="-22.725"
       gradientTransform="matrix(0.8626717,0,0,0.98101442,242.49735,123.56117)"
       gradientUnits="userSpaceOnUse" /><linearGradient
       xlink:href="#h"
       id="n"
       x1="-185.128"
       x2="-185.318"
       y1="-36.461"
       y2="-25.66"
       gradientUnits="userSpaceOnUse"
       gradientTransform="matrix(0.98101442,0,0,0.98101442,213.10531,38.375493)" /><linearGradient
       xlink:href="#h"
       id="q"
       x1="-185.128"
       x2="-185.318"
       y1="-36.461"
       y2="-25.66"
       gradientTransform="matrix(0.98101442,0,0,0.98101442,196.4876,38.041709)"
       gradientUnits="userSpaceOnUse" /><filter
       id="filter1057"
       x="-0.026999999"
       y="-0.026999999"
       width="1.054"
       height="1.054"
       color-interpolation-filters="sRGB"><feGaussianBlur
         stdDeviation="0.61875"
         id="feGaussianBlur1" /></filter><filter
       id="filter1057-3"
       x="-0.026999999"
       y="-0.026999999"
       width="1.054"
       height="1.054"
       color-interpolation-filters="sRGB"><feGaussianBlur
         stdDeviation="0.61875"
         id="feGaussianBlur1-6" /></filter><linearGradient
       id="linearGradient1053"
       x1="-127"
       x2="-72"
       y1="60"
       y2="5"
       gradientTransform="matrix(1.0000071,0,0,1.0000071,131.53356,-0.51043605)"
       gradientUnits="userSpaceOnUse"><stop
         stop-color="#dee0e2"
         offset="0"
         id="stop1-7" /><stop
         stop-color="#f1f3f5"
         stop-opacity=".99608"
         offset="1"
         id="stop2-5" /></linearGradient></defs><g
     id="g25"
     transform="matrix(1.0224598,0,0,1.0224598,-0.7187136,-0.56648931)"><rect
       width="44.246094"
       height="27.754179"
       x="9.8769531"
       y="31.970896"
       fill="url(#a)"
       rx="4.3872352"
       ry="4.3872352"
       style="display:inline;fill:url(#j);fill-opacity:1;stroke-width:0.71411"
       id="rect17" /><g
       id="g5"
       transform="translate(0,-3.9476404)"><path
         d="M 51.567982,11.681494 H 12.343918 v 8.76556 h 39.224064 z m 0,19.284232 H 12.343918 v 8.76556 h 39.224064 z m 0,0"
         style="fill:#ad7b4f;fill-opacity:1;fill-rule:nonzero;stroke:none;stroke-width:0.488636"
         id="path20" /><g
         id="g3"
         transform="matrix(-0.7980854,0,0,1.0969715,60.194615,-5.2633929)"><path
           d="m 16.356463,17.379108 h 5.35006 V 32.28056 h -5.35006 z m 0,0"
           style="fill:#3382e3;fill-opacity:1;fill-rule:nonzero;stroke:none;stroke-width:0.541389"
           id="path21" /><path
           d="m 23.085502,18.693942 c 0.724264,0.007 1.296052,0.201608 1.296052,0.438278 V 32.28056 H 21.706523 V 19.13222 c 0,-0.241053 0.598538,-0.438278 1.337516,-0.438278 z m 0,0"
           style="fill:#ff7800;fill-opacity:1;fill-rule:nonzero;stroke:none;stroke-width:0.541389"
           id="path22" /><path
           d="m 25.760532,18.693942 c 0.724264,0.007 1.296052,0.201608 1.296052,0.438278 v 13.14834 h -2.67503 V 19.13222 c 0,-0.241053 0.598538,-0.438278 1.337515,-0.438278 z m 0,0"
           style="fill:#f8f068;fill-opacity:1;fill-rule:nonzero;stroke:none;stroke-width:0.541389"
           id="path23" /><path
           d="m 27.056584,17.379108 h 2.67503 V 32.28056 h -2.67503 z m 0,0"
           style="fill:#195eb3;fill-opacity:1;fill-rule:nonzero;stroke:none;stroke-width:0.541389"
           id="path24" /><path
           d="m 11.006403,19.13222 h 5.35006 v 13.14834 h -5.35006 z m 0,0"
           style="fill:#ffffff;fill-opacity:1;fill-rule:nonzero;stroke:none;stroke-width:0.541389"
           id="path25" /><path
           d="m 11.006403,27.459502 h 5.35006 v 4.821058 h -5.35006 z m 0,0"
           style="fill:#ff7800;fill-opacity:1;fill-rule:nonzero;stroke:none;stroke-width:0.541389"
           id="path26" /><path
           d="m 21.706523,19.13222 h -5.35006 v 2.629668 h 5.35006 z m 0,10.95695 h -5.35006 v 1.307822 h 5.35006 z m 0,-1.314834 h -5.35006 v 0.438278 h 5.35006 z m 0,0"
           style="fill:#195eb3;fill-opacity:1;fill-rule:nonzero;stroke:none;stroke-width:0.541389"
           id="path27" /><path
           d="m 11.006403,25.70639 h 5.35006 v 0.876556 h -5.35006 z m 0,0"
           style="fill:#ff7800;fill-opacity:1;fill-rule:nonzero;stroke:none;stroke-width:0.541389"
           id="path28" /><path
           d="m 34.412917,17.817386 a 30.094089,19.72251 0 0 1 2.340651,0.05829 c 1.447191,0.07889 2.337976,0.224399 2.340651,0.379987 V 32.28056 H 29.731614 V 18.255664 c 0,-0.155588 0.89346,-0.301097 2.340651,-0.379987 a 30.094089,19.72251 0 0 1 2.340652,-0.05829 m 0,0"
           style="fill:#eb333a;fill-opacity:1;fill-rule:nonzero;stroke:none;stroke-width:0.541389"
           id="path29" /><path
           d="m 36.08481,27.240363 a 1.6718938,1.095695 0 1 1 -3.343787,0 1.6718938,1.095695 0 0 1 3.343787,0 m -1.671893,-6.793309 a 30.094089,19.72251 0 0 1 2.340651,0.05829 c 1.447191,0.07889 2.337976,0.224399 2.340651,0.379987 v 3.506224 c -0.0027,-0.155588 -0.89346,-0.301097 -2.340651,-0.379987 a 30.094089,19.72251 0 0 0 -2.340651,-0.05829 c -0.809197,0 -1.617056,0.0206 -2.340652,0.05829 -1.447191,0.07889 -2.340651,0.224399 -2.340651,0.379987 v -3.506224 c 0,-0.155588 0.89346,-0.301097 2.340651,-0.379987 a 30.094089,19.72251 0 0 1 2.340652,-0.05829 m 0,9.642116 a 30.094089,19.72251 0 0 1 2.340651,0.05829 c 1.447191,0.07889 2.337976,0.224399 2.340651,0.379987 v 0.876556 c -0.0027,-0.155588 -0.89346,-0.301097 -2.340651,-0.379987 a 30.094089,19.72251 0 0 0 -2.340651,-0.05829 c -0.809197,0 -1.617056,0.0206 -2.340652,0.05829 -1.447191,0.07889 -2.340651,0.224399 -2.340651,0.379987 v -0.876556 c 0,-0.155588 0.89346,-0.301097 2.340651,-0.379987 a 30.094089,19.72251 0 0 1 2.340652,-0.05829 m 0,0"
           style="fill:#bf1926;fill-opacity:1;fill-rule:nonzero;stroke:none;stroke-width:0.541389"
           id="path30" /><path
           d="M 56.481915,18.255664 H 52.46937 V 32.28056 h 4.012545 z m 0,0"
           style="fill:#ff7800;fill-opacity:1;fill-rule:nonzero;stroke:none;stroke-width:0.541389"
           id="path31" /><path
           d="m 48.456825,20.008776 h -2.67503 V 32.28056 h 2.67503 z m 0,0"
           style="fill:#de1923;fill-opacity:1;fill-rule:nonzero;stroke:none;stroke-width:0.541389"
           id="path32" /><path
           d="m 59.156945,19.13222 h -2.67503 v 13.14834 h 2.67503 z m 0,0"
           style="fill:#195eb3;fill-opacity:1;fill-rule:nonzero;stroke:none;stroke-width:0.541389"
           id="path33" /><path
           d="m 53.138127,30.527448 a 1.3375155,0.87655626 0 1 0 2.675031,0 1.3375155,0.87655626 0 1 0 -2.675031,0 m 0,0"
           style="fill:#c54500;fill-opacity:1;fill-rule:nonzero;stroke:none;stroke-width:0.541389"
           id="path34" /><path
           d="m 50.463097,16.94083 c -0.347754,0 -0.692164,0.01885 -1.003136,0.05829 -0.621945,0.07889 -1.003136,0.224399 -1.003136,0.379987 V 32.28056 H 52.46937 V 17.379108 c 0,-0.155588 -0.383867,-0.301097 -1.003136,-0.379987 a 5.6175633,3.6815352 0 0 0 -1.003137,-0.05829 m 0,0"
           style="fill:#2ec27d;fill-opacity:1;fill-rule:nonzero;stroke:none;stroke-width:0.541389"
           id="path35" /><path
           d="m 42.438007,18.693942 c 1.847108,0 3.343788,0.197225 3.343788,0.438278 V 32.28056 H 39.094219 V 19.13222 c 0,-0.241053 1.49668,-0.438278 3.343788,-0.438278 m 0,0"
           style="fill:#dedcd9;fill-opacity:1;fill-rule:nonzero;stroke:none;stroke-width:0.541389"
           id="path36" /><path
           d="m 42.438007,20.008776 c 1.847108,0 3.343788,0.197225 3.343788,0.438278 v 0.876556 c 0,-0.241053 -1.49668,-0.438278 -3.343788,-0.438278 -1.847108,0 -3.343788,0.197225 -3.343788,0.438278 v -0.876556 c 0,-0.241053 1.49668,-0.438278 3.343788,-0.438278 m 0,8.76556 c 1.847108,0 3.343788,0.197225 3.343788,0.438278 v 1.753112 c 0,-0.241053 -1.49668,-0.438278 -3.343788,-0.438278 -1.847108,0 -3.343788,0.197225 -3.343788,0.438278 v -1.753112 c 0,-0.241053 1.49668,-0.438278 3.343788,-0.438278 m 0,0"
           style="fill:#5c5c63;fill-opacity:1;fill-rule:nonzero;stroke:none;stroke-width:0.541389"
           id="path37" /><path
           d="m 50.463097,20.447054 c 0.345079,0 0.692164,0.01885 1.003137,0.05829 0.619269,0.07889 1.003136,0.224399 1.003136,0.379987 v 7.012448 c 0,-0.155588 -0.383867,-0.301097 -1.003136,-0.379987 a 5.6175633,3.6815352 0 0 0 -1.003137,-0.05829 c -0.347754,0 -0.692164,0.01885 -1.003136,0.05829 -0.621945,0.07889 -1.003136,0.224399 -1.003136,0.379987 v -7.012448 c 0,-0.155588 0.381191,-0.301097 1.003136,-0.379987 a 5.6175633,3.6815352 0 0 1 1.003136,-0.05829 m 0,0"
           style="fill:#23a168;fill-opacity:1;fill-rule:nonzero;stroke:none;stroke-width:0.541389"
           id="path38" /><path
           d="m 43.106764,22.638444 h -1.337515 v 4.38278 h 1.337515 z m 0,0"
           style="fill:#5c5c63;fill-opacity:1;fill-rule:nonzero;stroke:none;stroke-width:0.541389"
           id="path39" /><path
           d="m 43.106764,22.638444 h -1.337515 v 4.38278 h 1.337515 z m 0,0"
           style="fill:#999994;fill-opacity:1;fill-rule:nonzero;stroke:none;stroke-width:0.541389"
           id="path40" /></g><g
         id="g4"
         transform="matrix(-0.7980854,0,0,1.1382173,60.352031,-5.8123123)"><path
           d="m 38.425462,37.101618 c 0.345079,0 0.692164,0.01885 1.003136,0.05829 0.619269,0.07889 1.003136,0.224399 1.003136,0.379987 V 51.564792 H 36.419189 V 37.539896 c 0,-0.155588 0.381192,-0.301097 1.003136,-0.379987 a 5.6175633,3.6815352 0 0 1 1.003137,-0.05829 m 0,0"
           style="fill:#3a3545;fill-opacity:1;fill-rule:nonzero;stroke:none;stroke-width:0.541389"
           id="path41" /><path
           d="m 29.731614,38.416452 h 6.687575 v 13.14834 h -6.687575 z m 0,0"
           style="fill:#f5d12b;fill-opacity:1;fill-rule:nonzero;stroke:none;stroke-width:0.541389"
           id="path42" /><path
           d="m 40.431734,36.66334 h 8.025091 v 14.901452 h -8.025091 z m 0,0"
           style="fill:#3382e3;fill-opacity:1;fill-rule:nonzero;stroke:none;stroke-width:0.541389"
           id="path43" /><path
           d="m 29.731614,48.935124 h 6.687575 v 0.876556 h -6.687575 z m 0,1.314834 h 6.687575 v 0.438278 h -6.687575 z m 0,0"
           style="fill:#75757a;fill-opacity:1;fill-rule:nonzero;stroke:none;stroke-width:0.541389"
           id="path44" /><path
           d="m 41.769249,38.416452 h 5.350061 v 1.753112 h -5.350061 z m 0,0"
           style="fill:#195eb3;fill-opacity:1;fill-rule:nonzero;stroke:none;stroke-width:0.541389"
           id="path45" /><path
           d="m 59.156945,36.66334 h -5.35006 v 14.901452 h 5.35006 z m -29.425331,1.753112 h -5.35006 v 13.14834 h 5.35006 z m 0,0"
           style="fill:#eb333a;fill-opacity:1;fill-rule:nonzero;stroke:none;stroke-width:0.541389"
           id="path46" /><path
           d="m 53.806885,38.416452 h -5.35006 v 13.14834 h 5.35006 z m 0,0"
           style="fill:#ffffff;fill-opacity:1;fill-rule:nonzero;stroke:none;stroke-width:0.541389"
           id="path47" /><path
           d="m 53.806885,46.743734 h -5.35006 v 4.821058 h 5.35006 z m 0,0"
           style="fill:#bf61ca;fill-opacity:1;fill-rule:nonzero;stroke:none;stroke-width:0.541389"
           id="path48" /><path
           d="m 53.806885,38.416452 h 5.35006 v 2.629668 h -5.35006 z m 0,10.95695 h 5.35006 v 1.307822 h -5.35006 z m 0,-1.314834 h 5.35006 v 0.438278 h -5.35006 z m 0,0"
           style="fill:#5c5c63;fill-opacity:1;fill-rule:nonzero;stroke:none;stroke-width:0.541389"
           id="path49" /><path
           d="m 53.806885,44.990622 h -5.35006 v 0.876556 h 5.35006 z m 0,0"
           style="fill:#bf61ca;fill-opacity:1;fill-rule:nonzero;stroke:none;stroke-width:0.541389"
           id="path50" /><path
           d="m 24.381554,36.66334 h -2.675031 v 14.901452 h 2.675031 z m 0,0"
           style="fill:#3382e3;fill-opacity:1;fill-rule:nonzero;stroke:none;stroke-width:0.541389"
           id="path51" /><path
           d="m 24.381554,37.539896 h -2.675031 v 2.629668 h 2.675031 z m 0,3.506224 h -2.675031 v 0.876556 h 2.675031 z m 0,0"
           style="fill:#195eb3;fill-opacity:1;fill-rule:nonzero;stroke:none;stroke-width:0.541389"
           id="path52" /><path
           d="m 13.012676,37.101618 c 0.345078,0 0.692164,0.01885 1.003136,0.05829 0.619269,0.07889 1.003136,0.224399 1.003136,0.379987 V 51.564792 H 11.006403 V 37.539896 c 0,-0.155588 0.381192,-0.301097 1.003136,-0.379987 a 5.6175633,3.6815352 0 0 1 1.003137,-0.05829 m 0,0"
           style="fill:#8f3fab;fill-opacity:1;fill-rule:nonzero;stroke:none;stroke-width:0.541389"
           id="path53" /><path
           d="m 18.362736,38.416452 c 0.577138,0 1.154944,0.01885 1.671894,0.05829 1.034568,0.07889 1.669218,0.224399 1.671893,0.379987 V 51.564792 H 15.018948 V 38.85473 c 0,-0.155588 0.637326,-0.301097 1.671894,-0.379987 a 15.381423,10.080394 0 0 1 1.671894,-0.05829 m 0,0"
           style="fill:#57e387;fill-opacity:1;fill-rule:nonzero;stroke:none;stroke-width:0.541389"
           id="path54" /><path
           d="M 13.681433,39.293008 H 12.343918 V 49.81168 h 1.337515 z m 0,0"
           style="fill:#613382;fill-opacity:1;fill-rule:nonzero;stroke:none;stroke-width:0.541389"
           id="path55" /><path
           d="m 27.725341,43.675788 h -1.337515 v 4.38278 h 1.337515 z m 2.006273,-3.506224 h -5.35006 v 1.314834 h 5.35006 z m 0,0"
           style="fill:#a31c2b;fill-opacity:1;fill-rule:nonzero;stroke:none;stroke-width:0.541389"
           id="path56" /></g><path
         id="rect1"
         style="opacity:1;fill:#cdab90;fill-opacity:1;stroke-width:0.487546"
         d="m 14.166015,7.9248047 c -2.375686,0 -4.289062,1.913376 -4.289062,4.2890623 v 39.574219 c 0,2.375686 1.913376,4.287109 4.289062,4.287109 h 35.669922 c 2.37569,0 4.28711,-1.911423 4.28711,-4.287109 V 12.213867 c 0,-2.3756863 -1.91142,-4.2890623 -4.28711,-4.2890623 z M 13.914062,11.922852 H 50.230467 V 30.147461 H 13.914062 Z m 0,22.08789 H 50.230467 V 52.235351 H 13.914062 Z" /></g></g></svg>
