<?xml version="1.0" encoding="UTF-8" standalone="no"?>
<svg
   width="64"
   height="64"
   fill="none"
   version="1.1"
   id="svg6"
   sodipodi:docname="com.orama_interactive.Pixelorama.svg"
   xml:space="preserve"
   inkscape:version="1.4.2 (ebf0e940d0, 2025-05-08)"
   xmlns:inkscape="http://www.inkscape.org/namespaces/inkscape"
   xmlns:sodipodi="http://sodipodi.sourceforge.net/DTD/sodipodi-0.dtd"
   xmlns="http://www.w3.org/2000/svg"
   xmlns:svg="http://www.w3.org/2000/svg"><sodipodi:namedview
     id="namedview6"
     pagecolor="#505050"
     bordercolor="#eeeeee"
     borderopacity="1"
     inkscape:showpageshadow="0"
     inkscape:pageopacity="0"
     inkscape:pagecheckerboard="0"
     inkscape:deskcolor="#505050"
     inkscape:zoom="2"
     inkscape:cx="59.75"
     inkscape:cy="-25"
     inkscape:window-width="1920"
     inkscape:window-height="1003"
     inkscape:window-x="0"
     inkscape:window-y="0"
     inkscape:window-maximized="1"
     inkscape:current-layer="svg6" /><defs
     id="defs2"><linearGradient
       id="a"
       x1="7.937"
       x2="7.937"
       y1="15.081"
       y2="1.852"
       gradientTransform="matrix(3.7796,0,0,3.7796,6.9990005,-17.971001)"
       gradientUnits="userSpaceOnUse"><stop
         offset="0"
         stop-color="#23192d"
         id="stop1" /><stop
         offset="1"
         stop-color="#3b274f"
         id="stop2" /></linearGradient></defs><g
     id="g30"
     transform="matrix(0.96491228,0,0,1.0223573,1.122807,-1.829947)"><rect
       style="fill:#47091a;fill-opacity:1;stroke-width:5.74842;stroke-linecap:round;stroke-linejoin:round"
       id="rect26"
       width="26.346952"
       height="26.264702"
       x="18.826521"
       y="15.739788"
       rx="0"
       ry="0" /><path
       d="M 9.2313906,5.2134007 A 4.0084232,4.0084232 0 0 0 5.2134007,9.2313906 V 54.768609 a 4.0084232,4.0084232 0 0 0 4.0179899,4.01799 H 54.768609 a 4.0084232,4.0084232 0 0 0 4.01799,-4.01799 V 9.2313906 A 4.0084232,4.0084232 0 0 0 54.768609,5.2134007 H 32 Z"
       opacity="0.2"
       id="path2"
       style="stroke-width:0.956664" /><path
       id="path3"
       style="fill:#5491df;fill-opacity:1;stroke-width:1.25277"
       d="M 7.8853342,9.1204026 V 13.503869 H 3.5000001 v 8.768798 21.924802 4.385334 h 4.3853341 v 4.383466 H 12.2688 25.422933 v -17.5376 H 21.0376 V 22.272667 h 4.385333 V 9.1204026 H 12.2688 Z" /><path
       id="path25"
       style="fill:#af294e;fill-opacity:1;stroke-width:1.25277"
       d="M 56.114667,9.1210232 V 13.504489 H 60.5 v 8.768798 21.924802 4.385334 h -4.385333 v 4.383466 H 51.7312 38.577067 v -17.5376 h 4.385334 V 22.273287 H 38.577067 V 9.1210232 H 51.7312 Z" /><g
       id="g25"
       transform="matrix(0.95666426,0,0,0.95666426,1.3867437,0.43007942)"><rect
         style="opacity:1;fill:#dfe1c3;fill-opacity:1;stroke-width:3.67406;stroke-linecap:round;stroke-linejoin:round"
         id="rect18"
         width="13.750001"
         height="13.748697"
         x="25.124998"
         y="9.083333"
         rx="4.8455809e-07"
         ry="7.2676835e-07" /><rect
         style="opacity:1;fill:#3bb167;fill-opacity:1;stroke-width:2.59795;stroke-linecap:round;stroke-linejoin:round"
         id="rect21"
         width="13.750001"
         height="6.8743486"
         x="25.124998"
         y="9.083333"
         rx="4.8455809e-07"
         ry="3.6338417e-07" /><rect
         style="opacity:1;fill:#dfe1c3;fill-opacity:1;stroke-width:3.96843;stroke-linecap:round;stroke-linejoin:round"
         id="rect22"
         width="32.083332"
         height="6.8743486"
         x="15.958333"
         y="36.583332"
         rx="1.1306354e-06"
         ry="3.6338417e-07" /><rect
         style="opacity:1;fill:#dfe1c3;fill-opacity:1;stroke-width:3.67028;stroke-linecap:round;stroke-linejoin:round"
         id="rect23"
         width="9.1666622"
         height="20.580776"
         x="15.958333"
         y="22.876907"
         rx="3.2303853e-07"
         ry="1.087918e-06" /><rect
         style="opacity:1;fill:#dfe1c3;fill-opacity:1;stroke-width:3.67028;stroke-linecap:round;stroke-linejoin:round"
         id="rect24"
         width="9.1666622"
         height="20.580776"
         x="38.875004"
         y="22.876907"
         rx="3.2303853e-07"
         ry="1.087918e-06" /><rect
         style="opacity:1;fill:#3bb167;fill-opacity:1;stroke-width:3.35419;stroke-linecap:round;stroke-linejoin:round"
         id="rect25"
         width="13.750001"
         height="11.458986"
         x="25.124998"
         y="43.45768"
         rx="4.8455809e-07"
         ry="6.0573217e-07" /></g><rect
       style="fill:#47091a;fill-opacity:1;stroke-width:5.23673;stroke-linecap:round;stroke-linejoin:round"
       id="rect27"
       width="8"
       height="8"
       x="3.5"
       y="44.96627"
       rx="0"
       ry="0" /><rect
       style="fill:#47091a;fill-opacity:1;stroke-width:12.8581;stroke-linecap:round;stroke-linejoin:round"
       id="rect29"
       width="48.230267"
       height="8"
       x="7.8843999"
       y="52.966892"
       rx="0"
       ry="0" /><rect
       style="fill:#47091a;fill-opacity:1;stroke-width:5.23673;stroke-linecap:round;stroke-linejoin:round"
       id="rect30"
       width="8"
       height="8"
       x="52.5"
       y="44.96627"
       rx="0"
       ry="0" /></g></svg>
