<?xml version="1.0" encoding="UTF-8" standalone="no"?>
<svg
   width="64"
   height="64"
   fill="none"
   version="1.1"
   id="svg9"
   sodipodi:docname="com.rawtherapee.RawTherapee.svg"
   xml:space="preserve"
   inkscape:version="1.4.2 (ebf0e940d0, 2025-05-08)"
   xmlns:inkscape="http://www.inkscape.org/namespaces/inkscape"
   xmlns:sodipodi="http://sodipodi.sourceforge.net/DTD/sodipodi-0.dtd"
   xmlns="http://www.w3.org/2000/svg"
   xmlns:svg="http://www.w3.org/2000/svg"><sodipodi:namedview
     id="namedview9"
     pagecolor="#505050"
     bordercolor="#eeeeee"
     borderopacity="1"
     inkscape:showpageshadow="0"
     inkscape:pageopacity="0"
     inkscape:pagecheckerboard="0"
     inkscape:deskcolor="#505050"
     showguides="true"
     inkscape:zoom="4.1929222"
     inkscape:cx="84.189493"
     inkscape:cy="9.8976317"
     inkscape:window-width="1920"
     inkscape:window-height="996"
     inkscape:window-x="0"
     inkscape:window-y="0"
     inkscape:window-maximized="1"
     inkscape:current-layer="svg9" /><defs
     id="defs2"><linearGradient
       id="a"
       x1="7.937"
       x2="7.937"
       y1="15.081"
       y2="1.852"
       gradientTransform="matrix(3.7796,0,0,3.7796,-115.35178,0)"
       gradientUnits="userSpaceOnUse"><stop
         offset="0"
         stop-color="#f1efeb"
         id="stop1" /><stop
         offset="1"
         stop-color="#fdfcfc"
         id="stop2" /></linearGradient></defs><g
     id="g48"
     transform="matrix(1.0333333,0,0,1.0333333,-1.0666656,-1.0666656)"
     style="fill:#000000;fill-opacity:1"><path
       id="path41"
       style="fill:#000000;fill-opacity:1;stroke-width:2.85707"
       d="M 31.986328,2 A 29.942144,29.942144 0 0 0 10.78125,10.810547 l 1.757813,1.757812 A 27.5,27.5 0 0 1 31.986328,4.5 Z" /><path
       id="path42"
       style="fill:#000000;fill-opacity:1;stroke-width:2.85707"
       d="m 31.986328,2 v 2.5 a 27.5,27.5 0 0 1 0.01367,0 27.5,27.5 0 0 1 19.445313,8.054688 l 1.742187,-1.744141 A 29.927859,29.927859 0 0 0 31.986328,2 Z" /><path
       id="path43"
       style="fill:#000000;fill-opacity:1;stroke-width:2.85707"
       d="M 10.8125,10.802734 A 29.942144,29.942144 0 0 0 2,32.005859 h 2.5 a 27.5,27.5 0 0 1 0,-0.0059 27.5,27.5 0 0 1 8.058594,-19.449219 z" /><path
       id="path44"
       style="fill:#000000;fill-opacity:1;stroke-width:2.85707"
       d="m 2,32.005859 a 29.942144,29.942144 0 0 0 8.8125,21.205079 l 1.753907,-1.753907 A 27.5,27.5 0 0 1 4.5,32.005859 Z" /><path
       id="path45"
       style="fill:#000000;fill-opacity:1;stroke-width:2.85707"
       d="m 53.1875,10.802734 -1.746093,1.748047 A 27.5,27.5 0 0 1 59.5,32 a 27.5,27.5 0 0 1 0,0.0059 h 2.498047 A 29.927859,29.927859 0 0 0 53.189454,10.802775 Z" /><path
       id="path46"
       style="fill:#000000;fill-opacity:1;stroke-width:2.85707"
       d="M 59.5,32.005859 A 27.5,27.5 0 0 1 51.433594,51.457031 L 53.1875,53.210938 A 29.927859,29.927859 0 0 0 62,32.005859 Z" /><path
       id="path47"
       style="fill:#000000;fill-opacity:1;stroke-width:2.85707"
       d="m 12.541016,51.431641 -1.757812,1.757812 A 29.927859,29.927859 0 0 0 31.986328,62 V 59.5 A 27.5,27.5 0 0 1 12.541016,51.431641 Z" /><path
       id="path48"
       style="fill:#000000;fill-opacity:1;stroke-width:2.85707"
       d="M 51.445313,51.445312 A 27.5,27.5 0 0 1 32,59.5 a 27.5,27.5 0 0 1 -0.01367,0 v 2.498047 A 29.927859,29.927859 0 0 0 53.189454,53.1875 Z" /></g><g
     id="g18"
     transform="translate(-0.00103145,4.405e-4)"><path
       fill="#e647ff"
       d="m 31.986745,1.99956 a 29.942144,29.942144 0 0 0 -21.20378,8.811219 l 10.604033,10.605462 a 14.999643,14.999643 0 0 1 10.599748,-4.417038 z"
       id="path2"
       style="stroke-width:2.85707" /><path
       fill="#ff3636"
       d="m 31.986745,1.99956 1e-6,14.999643 0.01429,-3e-6 a 14.999643,14.999643 0 0 1 10.598319,4.402752 L 53.189098,10.810779 A 29.927859,29.927859 0 0 0 31.986745,1.99956"
       id="path3"
       style="stroke-width:2.85707" /><path
       fill="#5964ff"
       d="m 10.812965,10.802207 a 29.942144,29.942144 0 0 0 -8.8112191,21.20378 l 14.9996421,1e-6 4.8e-5,-0.0071 a 14.999643,14.999643 0 0 1 4.401276,-10.605431 z"
       id="path4"
       style="stroke-width:2.85707" /><path
       fill="#53bdff"
       d="M 2.0017459,32.005987 A 29.942144,29.942144 0 0 0 10.812965,53.211198 L 21.411283,42.61145 A 14.999643,14.999643 0 0 1 17.001389,32.007416 Z"
       id="path5"
       style="stroke-width:2.85707" /><path
       fill="#ff7221"
       d="M 53.190526,10.802208 42.599351,21.393384 a 14.999643,14.999643 0 0 1 4.402751,10.605461 l -4.7e-5,0.0071 h 14.998214 a 29.927859,29.927859 0 0 0 -8.81117,-21.20381 z"
       id="path6"
       style="stroke-width:2.85707" /><path
       fill="#ffac29"
       d="m 47.000673,32.005988 a 14.999643,14.999643 0 0 1 -4.408465,10.605461 l 10.59689,10.598319 a 29.927859,29.927859 0 0 0 8.811219,-21.20378 z"
       id="path7"
       style="stroke-width:2.85707" /><path
       fill="#80ffe5"
       d="M 21.388426,42.584308 10.784393,53.188341 a 29.927859,29.927859 0 0 0 21.203781,8.811218 l 10e-7,-15.001071 A 14.999643,14.999643 0 0 1 21.389856,42.581451 Z"
       id="path8"
       style="stroke-width:2.85707" /><path
       fill="#73ff44"
       d="m 42.597922,42.595736 a 14.999643,14.999643 0 0 1 -10.596891,4.402753 l -0.01429,2e-6 -10e-7,14.999642 a 29.927859,29.927859 0 0 0 21.203779,-8.81122 z"
       id="path9"
       style="stroke-width:2.85707" /></g><g
     id="g41"><path
       id="path33"
       style="fill:#ab51f3;fill-opacity:1;stroke-width:2.85707"
       d="M 31.986328,2 A 29.942144,29.942144 0 0 0 10.78125,10.810547 l 1.757813,1.757812 A 27.5,27.5 0 0 1 31.986328,4.5 Z" /><path
       id="path34"
       style="fill:#ff0b0d;fill-opacity:1;stroke-width:2.85707"
       d="m 31.986328,2 v 2.5 a 27.5,27.5 0 0 1 0.01367,0 27.5,27.5 0 0 1 19.445313,8.054688 l 1.742187,-1.744141 A 29.927859,29.927859 0 0 0 31.986328,2 Z" /><path
       id="path35"
       style="fill:#4c58f9;fill-opacity:1;stroke-width:2.85707"
       d="M 10.8125,10.802734 A 29.942144,29.942144 0 0 0 2,32.005859 h 2.5 a 27.5,27.5 0 0 1 0,-0.0059 27.5,27.5 0 0 1 8.058594,-19.449219 z" /><path
       id="path36"
       style="fill:#3889e0;fill-opacity:1;stroke-width:2.85707"
       d="m 2,32.005859 a 29.942144,29.942144 0 0 0 8.8125,21.205079 l 1.753907,-1.753907 A 27.5,27.5 0 0 1 4.5,32.005859 Z" /><path
       id="path37"
       style="fill:#fe5a10;fill-opacity:0.98823529;stroke-width:2.85707"
       d="m 53.1875,10.802734 -1.746093,1.748047 A 27.5,27.5 0 0 1 59.5,32 a 27.5,27.5 0 0 1 0,0.0059 h 2.498047 A 29.927859,29.927859 0 0 0 53.189454,10.802775 Z" /><path
       id="path38"
       style="fill:#f49c0d;fill-opacity:0.96862745;stroke-width:2.85707"
       d="M 59.5,32.005859 A 27.5,27.5 0 0 1 51.433594,51.457031 L 53.1875,53.210938 A 29.927859,29.927859 0 0 0 62,32.005859 Z" /><path
       id="path39"
       style="fill:#01c4e1;fill-opacity:1;stroke-width:2.85707"
       d="m 12.541016,51.431641 -1.757812,1.757812 A 29.927859,29.927859 0 0 0 31.986328,62 V 59.5 A 27.5,27.5 0 0 1 12.541016,51.431641 Z" /><path
       id="path40"
       style="fill:#4dc802;fill-opacity:1;stroke-width:2.85707"
       d="M 51.445313,51.445312 A 27.5,27.5 0 0 1 32,59.5 a 27.5,27.5 0 0 1 -0.01367,0 v 2.498047 A 29.927859,29.927859 0 0 0 53.189454,53.1875 Z" /></g></svg>
