<?xml version="1.0" encoding="UTF-8" standalone="no"?>
<svg
   width="64"
   height="64"
   version="1.1"
   id="svg9"
   sodipodi:docname="com.belmoussaoui.Decoder.svg"
   xml:space="preserve"
   inkscape:version="1.4.2 (ebf0e940d0, 2025-05-08)"
   xmlns:inkscape="http://www.inkscape.org/namespaces/inkscape"
   xmlns:sodipodi="http://sodipodi.sourceforge.net/DTD/sodipodi-0.dtd"
   xmlns:xlink="http://www.w3.org/1999/xlink"
   xmlns="http://www.w3.org/2000/svg"
   xmlns:svg="http://www.w3.org/2000/svg"><sodipodi:namedview
     id="namedview9"
     pagecolor="#505050"
     bordercolor="#eeeeee"
     borderopacity="1"
     inkscape:showpageshadow="0"
     inkscape:pageopacity="0"
     inkscape:pagecheckerboard="0"
     inkscape:deskcolor="#505050"
     inkscape:zoom="4.2094951"
     inkscape:cx="7.4830828"
     inkscape:cy="2.1380237"
     inkscape:window-width="1920"
     inkscape:window-height="1003"
     inkscape:window-x="0"
     inkscape:window-y="0"
     inkscape:window-maximized="1"
     inkscape:current-layer="svg9" /><defs
     id="defs6"><linearGradient
       id="a"><stop
         offset=".151"
         stop-color="#ff1c01"
         id="stop1" /><stop
         offset="1"
         stop-color="#f2270e"
         stop-opacity="0"
         id="stop2" /></linearGradient><linearGradient
       id="b"
       x1="7.937"
       x2="7.937"
       y1="15.081"
       y2="1.852"
       gradientTransform="matrix(3.7796,0,0,3.7796,-12.924499,-18.044)"
       gradientUnits="userSpaceOnUse"><stop
         offset="0"
         stop-color="#f1efeb"
         id="stop3" /><stop
         offset="1"
         stop-color="#fdfcfc"
         id="stop4" /></linearGradient><linearGradient
       id="c"
       x1="-65.3"
       x2="-21.8"
       y1="-242"
       y2="-242"
       gradientTransform="matrix(0 -.68966 1.5294 0 442.12 48.965)"
       gradientUnits="userSpaceOnUse"><stop
         offset="0"
         stop-color="#ed333b"
         stop-opacity=".9"
         id="stop5" /><stop
         offset="1"
         stop-color="#ed333b"
         stop-opacity="0"
         id="stop6" /></linearGradient><linearGradient
       xlink:href="#a"
       id="d"
       x1="28.778"
       x2="28.778"
       y1="44.082"
       y2="47.313"
       gradientUnits="userSpaceOnUse" /><linearGradient
       xlink:href="#a"
       id="e"
       x1="28.778"
       x2="28.778"
       y1="44.082"
       y2="47.313"
       gradientTransform="translate(-64.001 -86.01)"
       gradientUnits="userSpaceOnUse" /></defs><g
     id="g11"
     transform="matrix(0.982499,0,0,1,0.56003199,-0.5)"><rect
       style="fill:#c1bfbb;fill-opacity:1;stroke-width:1.05002"
       id="rect11"
       width="57"
       height="58"
       x="3.5"
       y="3.5"
       rx="6.28018"
       ry="6.3903584" /><rect
       style="fill:#f7f5f4;fill-opacity:1;stroke-width:1.03176"
       id="rect10"
       width="57"
       height="56"
       x="3.5"
       y="3.5"
       rx="6.28018"
       ry="6.1700015" /></g><path
     fill="#3d3846"
     d="M8.307 9.62v17.23h17.232V9.62zM32 9.62v2.151h-4.31v2.155H32v2.154h4.308V9.62zm0 6.46h-2.155v2.154H32zm0 2.154v2.155h2.154v-2.155zm6.463-8.615v17.23h17.23V9.62zm-25.848 4.307h8.615v8.617h-8.615zm30.154 0h8.617v8.617h-8.618zM14.767 16.08v4.309h4.308V16.08zm30.156 0v4.309h4.308V16.08zM27.69 20.389v6.46h2.154v2.155h2.154v-2.155h4.309v-4.306h-6.463v-2.154zm4.308 8.615v2.154h-2.154v-2.154H27.69v2.154h-8.616v2.154h2.155v2.155h4.308v-2.155h2.152v4.307h2.155v-2.152h8.617v-4.309h-2.154v-2.154zm6.463 2.154h2.152v-2.154h-2.152zm2.152 0v4.309h2.155v-2.155h4.308v-2.154h-2.154v-2.154h-2.154v2.154zm0 4.309h-2.152v2.152h2.152zm0 2.152v2.154h-4.306v2.155h8.615v-2.155h-2.154V37.62zm4.309 2.154h6.463V37.62h-6.463zm6.463 0v6.463h2.154v-4.308h2.152v-2.155zm0 6.463H49.23v2.154h2.155zM49.23 48.39h-2.154v-2.154h2.154v-4.308h-2.154v2.154h-6.463v6.46h4.309v2.155h2.154v-2.154h2.154zm0 2.153v2.154h-2.154v2.154h8.615V48.39H53.54v2.153zm-4.308 2.154h-4.309v2.154h4.309zm-8.615-12.924V37.62h-6.463v2.154H27.69v6.463h6.463v-2.154H32v-4.309zm-2.155 6.463v2.154h2.155v-2.154zM19.075 33.312h-2.154v2.154h2.154zm0-2.154v-2.155h-4.308v2.155zm-4.308 0H10.46v4.308h4.307zm-4.307 0v-2.155H8.306v2.155zm38.771-2.155v4.309h4.309v-4.309zm4.309 6.463v2.153h2.152v-2.153zM8.306 37.62v17.23h17.232V37.619zm4.308 4.308h8.616v8.615h-8.616zm2.153 2.154v4.31h4.308v-4.31zm12.924 4.31v2.151h2.154V48.39zm3.232 2.151v2.155h-3.232v2.154h8.617v-2.154h-3.23v-2.155zm5.385 2.155h2.154v-2.155h-2.154z"
     id="path6" /><path
     fill="url(#c)"
     d="M19.999 60.002v39.999h104V60.002z"
     opacity=".5"
     transform="translate(-6.771 -9.768)scale(.53849)"
     id="path7" /><path
     fill="#fccbc5"
     d="M3.999 44.082h56.003v-2.154H3.999z"
     id="path8" /><rect
     width="56.003"
     height="3.231"
     x="3.999"
     y="44.082"
     fill="url(#d)"
     ry="0"
     style="paint-order:stroke fill markers"
     id="rect8" /><rect
     width="56.003"
     height="3.231"
     x="-60.002"
     y="-41.928"
     fill="url(#e)"
     ry="0"
     style="paint-order:stroke fill markers"
     transform="scale(-1)"
     id="rect9" /></svg>
