<?xml version="1.0" encoding="UTF-8"?>
<!-- Created with Inkscape (http://www.inkscape.org/) -->
<svg width="64" height="64" version="1.1" viewBox="0 0 16.933 16.933" xmlns="http://www.w3.org/2000/svg" xmlns:xlink="http://www.w3.org/1999/xlink">
 <g transform="translate(-18.505 -3.6327)">
  <rect x="22.352" y="5.3796" width="11.377" height="13.229" ry="1.0397" fill="#ffc107" stroke-linecap="round" stroke-width=".90809"/>
  <rect x="20.214" y="4.1619" width="11.377" height="15.875" ry="1.2476" fill="#e4e4e4" stroke-linecap="round" stroke-width=".99476"/>
  <g fill="#c2c2c2">
   <rect x="22.331" y="6.5607" width="7.1438" height=".52917" ry=".26458"/>
   <rect x="22.331" y="8.2826" width="7.1438" height=".52917" ry=".26458"/>
   <rect x="22.331" y="10.005" width="4.4979" height=".52917" ry=".26458"/>
  </g>
  <path d="m22.623 10.627 0.3854-0.35174-0.27908-0.09305c-0.11782-0.0401-0.23072 0.07249-0.1912 0.19049z" fill="#191919" stroke-width=".011746"/>
  <path d="m25.329 11.047-2.3208-0.77421-0.3854 0.35174 0.78214 2.3472z" fill="#cdcdcd" stroke-width=".011746"/>
  <path d="m31.084 17.976c0.19943-0.49137 0.09972-1.0763-0.29883-1.4749l-5.4534-5.4527-1.9238 1.9241 5.4524 5.4538c0.53146 0.53157 1.393 0.53139 1.9244-3.17e-4 0.13291-0.13281 0.23284-0.28617 0.29931-0.44996z" fill="#323232" stroke-width=".011745"/>
 </g>
</svg>
