<?xml version="1.0" encoding="UTF-8" standalone="no"?>
<svg
   width="64"
   height="64"
   version="1.1"
   id="svg25"
   sodipodi:docname="com.rafaelmardojai.SharePreview.svg"
   xml:space="preserve"
   inkscape:version="1.4.2 (ebf0e940d0, 2025-05-08)"
   xmlns:inkscape="http://www.inkscape.org/namespaces/inkscape"
   xmlns:sodipodi="http://sodipodi.sourceforge.net/DTD/sodipodi-0.dtd"
   xmlns:xlink="http://www.w3.org/1999/xlink"
   xmlns="http://www.w3.org/2000/svg"
   xmlns:svg="http://www.w3.org/2000/svg"><sodipodi:namedview
     id="namedview25"
     pagecolor="#505050"
     bordercolor="#eeeeee"
     borderopacity="1"
     inkscape:showpageshadow="0"
     inkscape:pageopacity="0"
     inkscape:pagecheckerboard="0"
     inkscape:deskcolor="#505050"
     inkscape:zoom="5.6568542"
     inkscape:cx="59.043416"
     inkscape:cy="13.700194"
     inkscape:window-width="1920"
     inkscape:window-height="996"
     inkscape:window-x="0"
     inkscape:window-y="0"
     inkscape:window-maximized="1"
     inkscape:current-layer="svg25" /><defs
     id="defs12"><linearGradient
       id="linearGradient29"
       x1="19.843"
       x2="33.837002"
       y1="-82.283997"
       y2="-72.245003"
       gradientTransform="matrix(3.6536165,0,0,3.6536165,-64.664973,315.23464)"
       gradientUnits="userSpaceOnUse"><stop
         stop-color="#0c35f9"
         offset="0"
         id="stop28"
         style="stop-color:#e6565b;stop-opacity:1" /><stop
         stop-color="#0c35f9"
         offset="0.41052651"
         id="stop30"
         style="stop-color:#ad418c;stop-opacity:1" /><stop
         stop-color="#2acbd7"
         offset="1"
         id="stop29"
         style="stop-color:#1b80e8;stop-opacity:1" /></linearGradient><linearGradient
       id="a"
       x1="7.937"
       x2="7.937"
       y1="15.081"
       y2="1.852"
       gradientTransform="scale(3.7796)"
       gradientUnits="userSpaceOnUse"><stop
         offset="0"
         stop-color="#f1efeb"
         style="stop-color:#f55c4e;stop-opacity:.88235295"
         id="stop1" /><stop
         offset=".328"
         stop-color="#f1efeb"
         style="stop-color:#b965b5;stop-opacity:.94117647"
         id="stop2" /><stop
         offset="1"
         stop-color="#fdfcfc"
         style="stop-color:#628be6;stop-opacity:1"
         id="stop3" /></linearGradient><linearGradient
       id="d"
       x1="7.937"
       x2="7.937"
       y1="15.081"
       y2="1.852"
       gradientTransform="matrix(3.7796,0,0,3.7796,-77.034579,0)"
       gradientUnits="userSpaceOnUse"><stop
         offset="0"
         stop-color="#f1efeb"
         id="stop4" /><stop
         offset="1"
         stop-color="#fdfcfc"
         id="stop5" /></linearGradient><linearGradient
       id="b"
       gradientUnits="userSpaceOnUse"><stop
         offset="0"
         stop-color="#4bbfe5"
         id="stop6" /><stop
         offset="1"
         stop-color="#9141ac"
         id="stop7" /></linearGradient><linearGradient
       xlink:href="#a"
       id="e"
       x1="15.379"
       x2="1.712"
       y1="2.704"
       y2="10.922"
       gradientTransform="matrix(3.7796,0,0,3.7796,-77.034579,0)"
       gradientUnits="userSpaceOnUse" /><radialGradient
       xlink:href="#b"
       id="j"
       cx="31.132"
       cy="86"
       r="76.065" /><radialGradient
       id="k"
       cx="109.988"
       cy="3.57"
       r="66.012"
       gradientUnits="userSpaceOnUse"><stop
         offset="0"
         stop-color="#f66151"
         id="stop8" /><stop
         offset="1"
         stop-color="#ed333b"
         stop-opacity=".001"
         id="stop9" /></radialGradient><clipPath
       id="f"><path
         d="M0 0h192v152H0z"
         id="path9" /></clipPath><clipPath
       id="l"><path
         d="M0 0h192v152H0z"
         id="path10" /></clipPath><filter
       id="c"
       width="1"
       height="1"
       x="0"
       y="0"><feColorMatrix
         in="SourceGraphic"
         values="0 0 0 0 1 0 0 0 0 1 0 0 0 0 1 0 0 0 1 0"
         id="feColorMatrix10" /></filter><filter
       id="i"
       width="1.156543"
       height="1.156543"
       x="-0.050494488"
       y="-0.050494488"
       style="color-interpolation-filters:sRGB"><feGaussianBlur
         stdDeviation=".775"
         id="feGaussianBlur10" /></filter><mask
       id="g"><g
         filter="url(#c)"
         id="g11"><path
           fill-opacity=".1"
           d="M0 0h128v128H0z"
           id="path11" /></g></mask><mask
       id="m"><g
         filter="url(#c)"
         id="g12"><path
           fill-opacity=".154"
           d="M0 0h128v128H0z"
           id="path12" /></g></mask><linearGradient
       id="linearGradient1229"
       x1="17"
       x2="17"
       y1="7"
       y2="51"
       gradientTransform="matrix(1.1364,0,0,1.1364,11.5456,-0.8924)"
       gradientUnits="userSpaceOnUse"><stop
         stop-color="#6c7378"
         offset="0"
         id="stop1-3" /><stop
         stop-color="#42464a"
         offset="1"
         id="stop2-6" /></linearGradient><linearGradient
       id="linearGradient1242"
       x1="-9"
       x2="45"
       y1="50"
       y2="50"
       gradientTransform="matrix(1.1364,0,0,1.1364,11.5456,-0.8924)"
       gradientUnits="userSpaceOnUse"><stop
         stop-color="#a1aab3"
         offset="0"
         id="stop3-7" /><stop
         stop-color="#818990"
         offset="1"
         id="stop4-5" /></linearGradient><linearGradient
       id="linearGradient3490-3"
       x1="19.843"
       x2="33.837002"
       y1="-82.283997"
       y2="-72.245003"
       gradientTransform="matrix(3.6536165,0,0,3.6536165,-64.664973,315.23464)"
       gradientUnits="userSpaceOnUse"><stop
         stop-color="#0c35f9"
         offset="0"
         id="stop1-35" /><stop
         stop-color="#2acbd7"
         offset="1"
         id="stop2-62" /></linearGradient><linearGradient
       inkscape:collect="always"
       xlink:href="#linearGradient29"
       id="linearGradient28"
       gradientUnits="userSpaceOnUse"
       gradientTransform="matrix(3.6536165,0,0,3.6536165,-64.664973,315.23464)"
       x1="32.335632"
       y1="-81.957611"
       x2="20.974085"
       y2="-72.153008" /><radialGradient
       inkscape:collect="always"
       xlink:href="#b"
       id="radialGradient42"
       cx="31.132"
       cy="86"
       r="76.065" /><radialGradient
       inkscape:collect="always"
       xlink:href="#k"
       id="radialGradient43"
       gradientUnits="userSpaceOnUse"
       cx="109.988"
       cy="3.57"
       r="66.012" /></defs><g
     id="g44"
     transform="translate(0,3.3501191)"><rect
       x="3"
       y="9.7665367"
       width="58"
       height="44.466927"
       ry="2.8999999"
       fill="url(#linearGradient3490-3)"
       stroke-width="3.65361"
       id="rect7-9"
       style="fill:url(#linearGradient28)" /><path
       id="rect25"
       style="fill:#f6f5f4;fill-opacity:1"
       d="M 61,35.751953 H 3 v 15.582031 c 0,1.6066 1.293791,2.900391 2.900391,2.900391 H 58.09961 c 1.6066,0 2.90039,-1.293791 2.90039,-2.900391 z" /><path
       id="path27"
       style="fill:#deddda;fill-opacity:1"
       d="m 61,48.714844 c 0,1.6066 -1.293791,2.90039 -2.900391,2.90039 H 5.9003906 C 4.2937906,51.615234 3,50.321444 3,48.714844 v 2.679687 c 0,1.6066 1.2937906,2.900391 2.9003906,2.900391 H 58.099609 C 59.706209,54.294922 61,53.001131 61,51.394531 Z" /><g
       style="display:inline"
       id="g42"
       transform="translate(0.46144,-6.5371601)"><g
         fill="none"
         style="display:inline"
         id="g33"><path
           stroke="#949390"
           stroke-width="2.62"
           d="m 49.623,33.994 3.493,3.493"
           id="path30" /><path
           stroke="#d5d3cf"
           stroke-width="2.62"
           d="m 49.623,33.12 3.493,3.493"
           id="path31" /><path
           stroke="#241f31"
           stroke-linecap="round"
           stroke-width="5.24"
           d="M 53.116,37.487 59.229,43.6"
           id="path32" /><path
           stroke="#424048"
           stroke-linecap="round"
           stroke-width="5.24"
           d="m 53.116,36.613 6.113,6.113"
           id="path33" /></g><g
         fill="none"
         stroke="#00000f"
         clip-path="url(#f)"
         mask="url(#g)"
         style="display:inline;fill:#000000;fill-opacity:1;filter:url(#i)"
         transform="matrix(0.43664,0,0,0.43664,4.212,-3.507)"
         id="g36"><path
           stroke-width="6"
           d="m 36,250 -8,8"
           style="fill:none;fill-opacity:1;stroke:#000000;stroke-opacity:1"
           transform="matrix(-1,0,0,1,140,-162.118)"
           id="path34" /><path
           stroke-linecap="round"
           stroke-width="12"
           d="M 28,258 14,272"
           style="fill:none;fill-opacity:1;stroke:#000000;stroke-opacity:1"
           transform="matrix(-1,0,0,1,140,-162.118)"
           id="path35" /><path
           stroke-linejoin="round"
           stroke-width="3.765"
           d="m 88.117,228 c 0,16.633 -13.484,30.118 -30.117,30.118 -16.633,0 -30.117,-13.485 -30.117,-30.118 0,-16.633 13.484,-30.117 30.117,-30.117 16.633,0 30.117,13.485 30.117,30.117 z m 0,0"
           style="fill:none;fill-opacity:1;stroke:#000000;stroke-opacity:1"
           transform="matrix(-1,0,0,1,140,-162.118)"
           id="path36" /></g><path
         fill="url(#j)"
         d="M 103.938,45.945 C 103.938,62.48 90.535,75.883 74,75.883 57.465,75.883 44.063,62.48 44.063,45.945 44.063,29.41 57.465,16.008 74,16.008 c 16.535,0 29.938,13.402 29.938,29.937 m 0,0"
         style="fill:url(#radialGradient42)"
         transform="matrix(0.43664,0,0,0.43664,7.705,3.48)"
         id="path37" /><path
         fill="url(#k)"
         d="M 103.938,45.945 C 103.938,62.48 90.535,75.883 74,75.883 57.465,75.883 44.063,62.48 44.063,45.945 44.063,29.41 57.465,16.008 74,16.008 c 16.535,0 29.938,13.402 29.938,29.937 m 0,0"
         style="fill:url(#radialGradient43)"
         transform="matrix(0.43664,0,0,0.43664,7.705,3.48)"
         id="path38" /><path
         fill="none"
         stroke="#9a9996"
         stroke-linejoin="round"
         stroke-width="1.644"
         d="m 26.866,24.387 c 0,7.263 5.888,13.15 13.15,13.15 7.262,0 13.151,-5.887 13.151,-13.15 0,-7.262 -5.888,-13.15 -13.15,-13.15 -7.262,0 -13.15,5.888 -13.15,13.15 z m 0,0"
         id="path39" /><path
         fill="none"
         stroke="#deddda"
         stroke-linejoin="round"
         stroke-width="1.644"
         d="m 26.866,23.514 c 0,7.263 5.888,13.15 13.15,13.15 7.262,0 13.151,-5.887 13.151,-13.15 0,-7.263 -5.888,-13.15 -13.15,-13.15 -7.262,0 -13.15,5.887 -13.15,13.15 z m 0,0"
         id="path40" /><g
         clip-path="url(#l)"
         mask="url(#m)"
         transform="matrix(0.43664,0,0,0.43664,4.212,-3.507)"
         id="g41"><path
           fill="none"
           stroke="#ffffff"
           stroke-linecap="round"
           stroke-width="2"
           d="m 129,104.883 -16,-16"
           id="path41" /></g></g><rect
       style="fill:#c0bfbc;fill-opacity:1;stroke-width:2.11375;stroke-linecap:round;stroke-linejoin:round"
       id="rect43"
       width="45"
       height="2.5"
       x="5.9572802"
       y="40.199703"
       ry="0"
       rx="0" /><rect
       style="fill:#c0bfbc;fill-opacity:1;stroke-width:1.49629;stroke-linecap:round;stroke-linejoin:round"
       id="rect44"
       width="22.54936"
       height="2.5"
       x="5.9572802"
       y="45.490906"
       ry="0"
       rx="0" /></g></svg>
