<?xml version="1.0" encoding="UTF-8"?>
<svg width="64" height="64" version="1.1" viewBox="0 0 16.933 16.933" xmlns="http://www.w3.org/2000/svg" xmlns:cc="http://creativecommons.org/ns#" xmlns:dc="http://purl.org/dc/elements/1.1/" xmlns:rdf="http://www.w3.org/1999/02/22-rdf-syntax-ns#" xmlns:xlink="http://www.w3.org/1999/xlink">
 <metadata>
  <rdf:RDF>
   <cc:Work rdf:about="">
    <dc:format>image/svg+xml</dc:format>
    <dc:type rdf:resource="http://purl.org/dc/dcmitype/StillImage"/>
   </cc:Work>
  </rdf:RDF>
 </metadata>
 <g transform="translate(-16.114 -9.3163)">
  <path d="m18.099 10.507c-0.43972 0-0.79373 0.35402-0.79373 0.79373v12.964c0 0.43972 0.35402 0.79373 0.79373 0.79373h12.964c0.43972 0 0.79373-0.35402 0.79373-0.79373v-12.964c0-0.43972-0.35402-0.79373-0.79373-0.79373z" fill="#f08705" stroke-width=".79373"/>
  <path d="m22.993 12.756c-0.29315 0-0.52916 0.236-0.52916 0.52916v2.6458c0 0.29315 0.236 0.52916 0.52916 0.52916h0.09457l-1.5513 2.6458h-1.7182c-0.29315 0-0.52916 0.236-0.52916 0.52916v2.6458c0 0.29315 0.236 0.52916 0.52916 0.52916h3.1749c0.29315 0 0.52916-0.236 0.52916-0.52916v-2.6458c0-0.29315-0.236-0.52916-0.52916-0.52916h-0.56378l1.5415-2.6329h1.2288l1.5503 2.6329h-0.58186c-0.29315 0-0.52916 0.236-0.52916 0.52916v2.6458c0 0.29315 0.236 0.52916 0.52916 0.52916h3.1749c0.29315 0 0.52916-0.236 0.52916-0.52916v-2.6458c0-0.29315-0.236-0.52916-0.52916-0.52916h-1.7037l-1.5565-2.6458h0.08526c0.29315 0 0.52916-0.236 0.52916-0.52916v-2.6458c0-0.29315-0.236-0.52916-0.52916-0.52916z" fill="#fff" stroke-width=".088417"/>
 </g>
</svg>
