<?xml version="1.0" encoding="UTF-8" standalone="no"?>
<svg
   width="64"
   height="64"
   version="1.1"
   id="svg7"
   sodipodi:docname="com.github.iwalton3.jellyfin-media-player.svg"
   xml:space="preserve"
   inkscape:version="1.4.2 (ebf0e940d0, 2025-05-08)"
   xmlns:inkscape="http://www.inkscape.org/namespaces/inkscape"
   xmlns:sodipodi="http://sodipodi.sourceforge.net/DTD/sodipodi-0.dtd"
   xmlns:xlink="http://www.w3.org/1999/xlink"
   xmlns="http://www.w3.org/2000/svg"
   xmlns:svg="http://www.w3.org/2000/svg"><sodipodi:namedview
     id="namedview7"
     pagecolor="#505050"
     bordercolor="#eeeeee"
     borderopacity="1"
     inkscape:showpageshadow="0"
     inkscape:pageopacity="0"
     inkscape:pagecheckerboard="0"
     inkscape:deskcolor="#505050"
     inkscape:zoom="2.9921875"
     inkscape:cx="90.067885"
     inkscape:cy="37.096606"
     inkscape:window-width="1920"
     inkscape:window-height="1003"
     inkscape:window-x="0"
     inkscape:window-y="0"
     inkscape:window-maximized="1"
     inkscape:current-layer="svg7" /><defs
     id="defs4"><linearGradient
       id="b"
       x1="7.937"
       x2="7.937"
       y1="15.081"
       y2="1.852"
       gradientTransform="matrix(3.7796,0,0,3.7796,7.7448425,-19.331991)"
       gradientUnits="userSpaceOnUse"><stop
         offset="0"
         stop-color="#363636"
         style="stop-color:#1a1a1a;stop-opacity:1"
         id="stop1" /><stop
         offset="1"
         stop-color="#6c6c6c"
         style="stop-color:#363636;stop-opacity:1"
         id="stop2" /></linearGradient><linearGradient
       id="a"
       x1="110.25"
       x2="496.14"
       y1="213.3"
       y2="436.09"
       gradientUnits="userSpaceOnUse"><stop
         offset="0"
         style="stop-color:#aa5cc3"
         id="stop3" /><stop
         offset="1"
         style="stop-color:#00a4dc"
         id="stop4" /></linearGradient><linearGradient
       xlink:href="#a"
       id="e"
       x1="110.25"
       x2="496.14"
       y1="213.3"
       y2="436.09"
       gradientUnits="userSpaceOnUse" /><linearGradient
       xlink:href="#a"
       id="d"
       x1="110.25"
       x2="496.14"
       y1="213.3"
       y2="436.09"
       gradientUnits="userSpaceOnUse" /><filter
       id="c"
       width="1.294004"
       height="1.2940054"
       x="-0.147002"
       y="-0.1470027"
       style="color-interpolation-filters:sRGB"><feGaussianBlur
         stdDeviation="28.504"
         id="feGaussianBlur4" /></filter></defs><g
     style="display:inline;opacity:.25;fill:#000;fill-opacity:1;filter:url(#c)"
     transform="translate(5.991 5.99)scale(.10161)"
     id="g5"><path
       d="M256 201.6c-20.4 0-86.2 119.3-76.2 139.4s142.5 19.9 152.4 0-55.7-139.4-76.2-139.4"
       style="fill:#000;fill-opacity:1"
       id="path4" /><path
       d="M256 23.3c-61.6 0-259.8 359.4-229.6 420.1s429.3 60 459.2 0S317.6 23.3 256 23.3m150.5 367.5c-19.6 39.3-281.1 39.8-300.9 0S215.7 115.5 256 115.5s170.1 235.9 150.5 275.3"
       style="fill:#000;fill-opacity:1"
       id="path5" /></g><g
     id="g7"
     transform="matrix(1.2054372,0,0,1.2054372,-6.5744723,-6.5743209)"><path
       d="m 256,201.6 c -20.4,0 -86.2,119.3 -76.2,139.4 10,20.1 142.5,19.9 152.4,0 9.9,-19.9 -55.7,-139.4 -76.2,-139.4"
       style="fill:url(#d)"
       transform="matrix(0.10161,0,0,0.10161,5.991,5.99)"
       id="path6" /><path
       d="m 256,23.3 c -61.6,0 -259.8,359.4 -229.6,420.1 30.2,60.7 429.3,60 459.2,0 C 515.5,383.4 317.6,23.3 256,23.3 m 150.5,367.5 c -19.6,39.3 -281.1,39.8 -300.9,0 C 85.8,351 215.7,115.5 256,115.5 c 40.3,0 170.1,235.9 150.5,275.3"
       style="fill:url(#e)"
       id="path7"
       transform="matrix(0.10161,0,0,0.10161,5.991,5.99)" /></g></svg>
