<?xml version="1.0" encoding="UTF-8" standalone="no"?>
<svg
   width="64"
   height="64"
   version="1.1"
   id="svg10"
   sodipodi:docname="com.github.alexhuntley.Plots.svg"
   xml:space="preserve"
   inkscape:version="1.4.2 (ebf0e940d0, 2025-05-08)"
   xmlns:inkscape="http://www.inkscape.org/namespaces/inkscape"
   xmlns:sodipodi="http://sodipodi.sourceforge.net/DTD/sodipodi-0.dtd"
   xmlns:xlink="http://www.w3.org/1999/xlink"
   xmlns="http://www.w3.org/2000/svg"
   xmlns:svg="http://www.w3.org/2000/svg"><sodipodi:namedview
     id="namedview10"
     pagecolor="#505050"
     bordercolor="#eeeeee"
     borderopacity="1"
     inkscape:showpageshadow="0"
     inkscape:pageopacity="0"
     inkscape:pagecheckerboard="0"
     inkscape:deskcolor="#505050"
     inkscape:zoom="4.3696989"
     inkscape:cx="69.913283"
     inkscape:cy="27.347422"
     inkscape:window-width="1920"
     inkscape:window-height="1018"
     inkscape:window-x="0"
     inkscape:window-y="0"
     inkscape:window-maximized="1"
     inkscape:current-layer="svg10" /><defs
     id="defs2"><linearGradient
       id="linearGradient19"
       inkscape:collect="always"><stop
         style="stop-color:#eb8985;stop-opacity:1"
         offset="0"
         id="stop19" /><stop
         style="stop-color:#c03e42;stop-opacity:1"
         offset="1"
         id="stop20" /></linearGradient><linearGradient
       id="linearGradient13"
       inkscape:collect="always"><stop
         style="stop-color:#414141;stop-opacity:0;"
         offset="0"
         id="stop13" /><stop
         style="stop-color:#000000;stop-opacity:1;"
         offset="0.10405412"
         id="stop15" /><stop
         style="stop-color:#000000;stop-opacity:1;"
         offset="0.84248829"
         id="stop16" /><stop
         style="stop-color:#414141;stop-opacity:0;"
         offset="1"
         id="stop14" /></linearGradient><linearGradient
       id="a"
       x1="7.937"
       x2="7.937"
       y1="15.081"
       y2="1.852"
       gradientTransform="matrix(3.7796,0,0,3.7796,0,-71.858497)"
       gradientUnits="userSpaceOnUse"><stop
         offset="0"
         stop-color="#f1efeb"
         id="stop1" /><stop
         offset="1"
         stop-color="#fdfcfc"
         id="stop2" /></linearGradient><linearGradient
       id="linearGradient2556-0"
       x1="-305"
       x2="-240"
       y1="38"
       y2="38"
       gradientTransform="matrix(0.84614685,0,0,0.84614685,303.23684,1.2719604)"
       gradientUnits="userSpaceOnUse"><stop
         stop-color="#dcdcdc"
         offset="0"
         id="stop5164" /><stop
         stop-color="#b4b4b4"
         offset="1"
         id="stop5166" /></linearGradient><linearGradient
       id="linearGradient2652-3"
       x1="-261.67001"
       x2="-240"
       y1="13"
       y2="13"
       gradientUnits="userSpaceOnUse"
       gradientTransform="matrix(0.92308608,0,0,0.92308608,211.54727,5.8398487)"><stop
         stop-color="#787878"
         offset="0"
         id="stop5197" /><stop
         stop-color="#5a5a5a"
         offset="1"
         id="stop5199" /></linearGradient><linearGradient
       inkscape:collect="always"
       xlink:href="#linearGradient13"
       id="linearGradient14"
       x1="4"
       y1="33.684571"
       x2="45.734177"
       y2="33.68457"
       gradientUnits="userSpaceOnUse" /><linearGradient
       inkscape:collect="always"
       xlink:href="#linearGradient19"
       id="linearGradient18"
       x1="56.683998"
       y1="14.315"
       x2="61.595001"
       y2="17.072001"
       gradientUnits="userSpaceOnUse" /></defs><path
     id="path6431"
     style="fill:#ffffff;fill-opacity:1;stroke-width:0.876931;image-rendering:optimizeSpeed"
     d="m 6.1310553,10.075782 c -1.4574606,0 -2.6310554,1.173595 -2.6310554,2.631055 v 4.384473 34.201855 c 0,1.457459 1.1735948,2.631053 2.6310554,2.631053 H 57.868945 c 1.457463,0 2.631055,-1.173594 2.631055,-2.631053 V 17.09131 h -0.0037 v -4.384473 c -1.9e-5,-1.45746 -1.173602,-2.631055 -2.63106,-2.631055 H 41.503717 41.496317 22.503739 V 17.09131 H 22.5 v -7.015528 z" /><path
     id="path13"
     d="M 9.6071429,10.076172 H 7.5714286 V 37 H 3.5 v 2 H 7.5714286 V 53.923828 H 9.6071429 V 39 H 60.5 V 37 H 9.6071429 Z"
     style="stroke-width:1.00889;fill:#8bc0ff;fill-opacity:1" /><path
     fill="#414141"
     d="M4 16.49v5.47c.34 1.42.7 3.03 1.04 4.78.8 4.16 1.61 8.96 2.43 12.92.81 3.97 1.62 6.24 2.48 8.29.43 1.02.85 1.8 1.46 2.36.31.28.7.51 1.16.56.47.05.94-.11 1.3-.36.65-.47 1.07-1.14 1.51-1.96.43-.81.85-1.77 1.26-2.8.82-2.05 1.63-3.58 2.41-5.34.79-1.78 1.58-3.64 2.29-4.5.35-.43.68-.71.91-.83s.32-.13.47-.08c.36.1 1.15.77 1.92 1.72.78.95 1.59 2.3 2.47 3.23.83.87 1.68 1.67 2.61 2.26.92.59 1.96.98 3.07.86 2.14-.23 3.76-1.83 5.17-2.51 1.55-.75 3.02-1.04 4.37-.98.522-.007.818.128 2.19.428a1 1 0 0 0 1.19-.75.997.997 0 0 0-.75-1.19c-1.264-.347-1.835-.454-2.54-.478-1.87-.07-3.63.37-5.31 1.18-1.82.88-3.43 2.21-4.52 2.33-.51.06-1.08-.12-1.78-.56-.69-.44-1.46-1.14-2.24-1.96-.73-.76-1.53-2.08-2.37-3.11s-1.67-2.02-2.92-2.38c-.66-.19-1.38-.06-1.96.25s-1.06.77-1.51 1.34c-.91 1.13-1.73 3.09-2.56 4.95-.83 1.88-1.64 3.42-2.44 5.41-.4.99-.79 1.9-1.16 2.6-.36.67-.71 1.09-.87 1.22-.24-.19-.62-.77-1-1.67-.75-1.79-1.57-4.02-2.37-7.92-.8-3.91-1.61-8.71-2.42-12.9-.81-4.2-1.52-7.67-2.53-9.48a.95.95 0 0 0-.46-.4"
     id="path3"
     style="fill:url(#linearGradient14)" /><path
     fill="#ff881e"
     d="m44.492 34.626 3.921 2.208 12.321-19.5-3.921-2.208z"
     id="path4" /><path
     fill="#e66100"
     d="m47.427 36.298 1.479.825 12.321-19.5-1.479-.826z"
     id="path5" /><path
     fill="#ffb367"
     d="m45.477 35.204-1.478-.846 12.321-19.48 1.478.826z"
     id="path6" /><path
     fill="#dc5051"
     d="M59.116 13.001c-.964 0-1.903.474-2.432 1.314l-1.17 1.849 4.912 2.757 1.169-1.849c.808-1.279.363-2.93-.994-3.692a3.04 3.04 0 0 0-1.485-.379"
     id="path7"
     style="fill-opacity:1;fill:url(#linearGradient18)" /><path
     fill="#e8ddc7"
     d="m44.406 39.001 4.521-1.899-4.907-2.765z"
     id="path8" /><path
     fill="#3d3846"
     d="m44.406 39.001 1.971-.826-2.142-1.196z"
     id="path9" /><path
     fill="#b7b7b7"
     d="m54.927 17.086 4.907 2.765 1.179-1.857-4.907-2.765z"
     id="path10" /></svg>
