<?xml version="1.0" encoding="UTF-8"?>
<!-- Created with Inkscape (http://www.inkscape.org/) -->
<svg width="64" height="64" version="1.1" viewBox="0 0 16.933 16.933" xmlns="http://www.w3.org/2000/svg">
 <defs>
  <linearGradient id="linearGradient1053" x1="68" x2="128" y1="62" y2="2" gradientTransform="matrix(.24253 0 0 .24253 .93114 7.0583)" gradientUnits="userSpaceOnUse">
   <stop stop-color="#e0e4e9" offset="0"/>
   <stop stop-color="#fefeff" offset="1"/>
  </linearGradient>
 </defs>
 <g transform="translate(-16.232 -6.3528)">
  <rect x="17.423" y="7.5434" width="14.552" height="14.552" ry=".72759" fill="url(#linearGradient1053)" stroke-width=".91667"/>
  <path d="m28.521 10.705-6.6859-0.0022-0.07266 0.35059 0.19344 0.02424c0.4715 0.06061 0.68905 0.26622 0.68892 0.6531-3.6e-5 0.10881-0.02432 0.42315-0.04853 0.51986l-0.93266 5.138c-0.16954 0.83417-0.39934 1.088-1.0643 1.1724l-0.20554 0.02411-0.06057 0.35059 3.482 0.0012 0.06057-0.35059-0.25389-0.02426c-0.55613-0.04854-0.79787-0.25416-0.79773-0.66523 4.5e-5 -0.13299 0.02429-0.33852 0.04853-0.50777l0.46026-2.5025 0.90677 3.02e-4c0.44734 1.48e-4 0.79792 0.10908 0.95503 0.27839 0.15711 0.18141 0.27789 0.55624 0.27778 0.88268-1.7e-5 0.04836-0.01214 0.13299-0.02427 0.25389l-2.9e-5 0.09673 0.38689 1.32e-4 0.64195-3.506-0.39898-1.33e-4 -0.0242 0.06044-0.19364 0.58026c-0.03631 0.10876-0.13308 0.2659-0.26613 0.42303-0.29027 0.32634-0.60466 0.44714-1.1971 0.44694l-0.97931-3.27e-4 0.33915-1.886c0.0969-0.53194 0.21791-0.87042 0.32676-0.9792 0.25398-0.24172 0.56834-0.31416 1.3905-0.31388 1.5113 5.03e-4 2.4662 0.61742 3.1307 2.0201l0.45947-0.14494z" fill="#4d4d4d" stroke-width=".30227"/>
 </g>
</svg>
