<?xml version="1.0" encoding="UTF-8" standalone="no"?>
<svg
   xml:space="preserve"
   width="64"
   height="64"
   version="1.1"
   id="svg23"
   sodipodi:docname="com.oyajun.ColorCode.svg"
   inkscape:version="1.4.2 (ebf0e940d0, 2025-05-08)"
   xmlns:inkscape="http://www.inkscape.org/namespaces/inkscape"
   xmlns:sodipodi="http://sodipodi.sourceforge.net/DTD/sodipodi-0.dtd"
   xmlns:xlink="http://www.w3.org/1999/xlink"
   xmlns="http://www.w3.org/2000/svg"
   xmlns:svg="http://www.w3.org/2000/svg"><sodipodi:namedview
     id="namedview23"
     pagecolor="#505050"
     bordercolor="#eeeeee"
     borderopacity="1"
     inkscape:showpageshadow="0"
     inkscape:pageopacity="0"
     inkscape:pagecheckerboard="0"
     inkscape:deskcolor="#505050"
     inkscape:zoom="5.984375"
     inkscape:cx="58.736292"
     inkscape:cy="25.065274"
     inkscape:window-width="1920"
     inkscape:window-height="1003"
     inkscape:window-x="0"
     inkscape:window-y="0"
     inkscape:window-maximized="1"
     inkscape:current-layer="svg23" /><defs
     id="defs11"><linearGradient
       id="e"><stop
         offset="0"
         style="stop-color:#4d8a0a;stop-opacity:1"
         id="stop1" /><stop
         offset="1"
         style="stop-color:#3f6d0a;stop-opacity:1"
         id="stop2" /></linearGradient><linearGradient
       id="a"
       x1="7.937"
       x2="7.937"
       y1="15.081"
       y2="1.852"
       gradientTransform="scale(3.7796)"
       gradientUnits="userSpaceOnUse"
       spreadMethod="pad"><stop
         offset="0"
         stop-color="#f1efeb"
         style="stop-color:#eef1eb;stop-opacity:1"
         id="stop3" /><stop
         offset="1"
         stop-color="#fdfcfc"
         id="stop4" /></linearGradient><linearGradient
       xlink:href="#a"
       id="b"
       x1="7.937"
       x2="7.937"
       y1="15.081"
       y2="1.852"
       gradientTransform="scale(3.7796)"
       gradientUnits="userSpaceOnUse"><stop
         offset="0"
         stop-color="#f1efeb"
         id="stop5" /><stop
         offset="1"
         stop-color="#fdfcfc"
         id="stop6" /></linearGradient><linearGradient
       id="c"
       x1="64"
       x2="64"
       y1="64"
       y2="72"
       gradientTransform="matrix(.4 0 0 .4 6.401 12.77)"
       gradientUnits="userSpaceOnUse"><stop
         offset="0"
         stop-color="#ffbe6f"
         id="stop7" /><stop
         offset="1"
         stop-color="#cdab8f"
         id="stop8" /></linearGradient><linearGradient
       id="d"
       x1="91"
       x2="96"
       y1="49"
       y2="48"
       gradientTransform="matrix(.4 0 0 .4 6.401 12.77)"
       gradientUnits="userSpaceOnUse"
       spreadMethod="reflect"><stop
         offset="0"
         stop-color="#f6d32d"
         id="stop9" /><stop
         offset="1"
         stop-color="#f9f06b"
         id="stop10" /></linearGradient><linearGradient
       xlink:href="#b"
       id="g"
       x1="7.937"
       x2="7.937"
       y1="15.081"
       y2="1.852"
       gradientTransform="scale(3.7796)"
       gradientUnits="userSpaceOnUse" /><linearGradient
       xlink:href="#c"
       id="l"
       x1="64"
       x2="64"
       y1="64"
       y2="72"
       gradientTransform="matrix(0.4,0,0,0.4,6.401,12.77)"
       gradientUnits="userSpaceOnUse" /><linearGradient
       xlink:href="#d"
       id="m"
       x1="91"
       x2="96"
       y1="49"
       y2="48"
       gradientTransform="matrix(0.4,0,0,0.4,6.401,12.77)"
       gradientUnits="userSpaceOnUse"
       spreadMethod="reflect" /><linearGradient
       xlink:href="#e"
       id="h"
       x1="32.001"
       x2="32.001"
       y1="31.97"
       y2="59.971"
       gradientUnits="userSpaceOnUse"
       gradientTransform="translate(-66.641583)" /><clipPath
       id="i"
       clipPathUnits="userSpaceOnUse"><rect
         width="56.002"
         height="56.002"
         x="4"
         y="3.969"
         fill="url(#b)"
         stroke-width="3.78"
         rx="13.002"
         ry="13.002"
         style="fill:url(#g)"
         id="rect10" /></clipPath><clipPath
       id="k"
       clipPathUnits="userSpaceOnUse"><rect
         width="56.002"
         height="56.002"
         x="4"
         y="3.969"
         fill="url(#b)"
         stroke-width="3.78"
         rx="13.002"
         ry="13.002"
         style="fill:url(#g)"
         id="rect11" /></clipPath><filter
       id="j"
       width="1.2622"
       height="1.3347233"
       x="-0.1311"
       y="-0.16736165"
       style="color-interpolation-filters:sRGB"><feGaussianBlur
         stdDeviation="2.622"
         id="feGaussianBlur11" /></filter></defs><g
     id="g24"
     transform="matrix(1.1875,0,0,1.1875,-6.0011872,-16.889369)"><g
       clip-path="url(#k)"
       id="g23"><path
         fill="#c0bfbc"
         d="m 16,30.338 -4.799,0.038 V 30.37 c -1.2,0 -3.2,0.8 -3.2,3.2 v 26.4 l 3.2,-0.002 V 35.17 c 0,-1.6 0.8,-1.6 2.4,-1.6 l 2.4,-0.032 z m 32.003,0 4.798,0.038 V 30.37 c 1.2,0 3.2,0.8 3.2,3.2 v 26.4 l -3.2,-0.002 V 35.17 c 0,-1.6 -0.8,-1.6 -2.4,-1.6 l -2.4,-0.032 z m 0,0"
         style="stroke-width:0.4"
         id="path18" /><path
         fill="url(#c)"
         d="m 22.401,22.37 h 19.2 c 5.302,0 9.6,4.298 9.6,9.6 0,5.302 -4.298,9.6 -9.6,9.6 h -19.2 c -5.302,0 -9.6,-4.299 -9.6,-9.6 a 9.6,9.6 0 0 1 9.6,-9.6 m 0,0"
         style="fill:url(#l);stroke-width:0.4"
         id="path19" /><path
         fill="url(#d)"
         d="m 40.801,22.37 v 19.2 h 0.8 a 9.6,9.6 0 0 0 3.2,-0.546 v -18.11 a 9.6,9.6 0 0 0 -3.2,-0.544 z m 0,0"
         style="fill:url(#m);stroke-width:0.4"
         id="path20" /><path
         fill="#3d3846"
         d="m 25.601,22.37 h 3.2 v 19.2 h -3.2 z m 0,0"
         style="stroke-width:0.4"
         id="path21" /><path
         fill="#ed333b"
         d="m 32.001,22.37 h 3.2 v 19.2 h -3.2 z m 0,0"
         style="stroke-width:0.4"
         id="path22" /><path
         fill="#986a44"
         d="m 22.401,22.37 a 9.6,9.6 0 0 0 -3.2,0.545 v 18.11 a 9.6,9.6 0 0 0 3.2,0.545 z m 0,0"
         style="stroke-width:0.4"
         id="path23" /></g><rect
       style="fill:#c0bfbc;fill-opacity:1;stroke-width:3;stroke-linecap:round;stroke-linejoin:round"
       id="rect23"
       width="3.2"
       height="4.9079828"
       x="52.800999"
       y="55.062016" /><rect
       style="fill:#c0bfbc;fill-opacity:1;stroke-width:3;stroke-linecap:round;stroke-linejoin:round"
       id="rect24"
       width="3.2"
       height="4.9079828"
       x="8.0009995"
       y="55.062016" /></g></svg>
