<?xml version="1.0" encoding="UTF-8" standalone="no"?>
<svg
   xml:space="preserve"
   width="64"
   height="64"
   image-rendering="optimizeSpeed"
   version="1.1"
   id="svg11"
   sodipodi:docname="com.rafaelmardojai.Blanket.svg"
   inkscape:version="1.4.2 (ebf0e940d0, 2025-05-08)"
   xmlns:inkscape="http://www.inkscape.org/namespaces/inkscape"
   xmlns:sodipodi="http://sodipodi.sourceforge.net/DTD/sodipodi-0.dtd"
   xmlns="http://www.w3.org/2000/svg"
   xmlns:svg="http://www.w3.org/2000/svg"><sodipodi:namedview
     id="namedview11"
     pagecolor="#505050"
     bordercolor="#eeeeee"
     borderopacity="1"
     inkscape:showpageshadow="0"
     inkscape:pageopacity="0"
     inkscape:pagecheckerboard="0"
     inkscape:deskcolor="#505050"
     inkscape:zoom="2.9648438"
     inkscape:cx="43.172595"
     inkscape:cy="19.731225"
     inkscape:window-width="1920"
     inkscape:window-height="996"
     inkscape:window-x="0"
     inkscape:window-y="0"
     inkscape:window-maximized="1"
     inkscape:current-layer="svg11" /><defs
     id="defs8"><linearGradient
       id="a"
       x1="7.937"
       x2="7.937"
       y1="15.081"
       y2="1.852"
       gradientTransform="matrix(3.7796,0,0,3.7796,-9.0019989,-37.471001)"
       gradientUnits="userSpaceOnUse"><stop
         offset="0"
         stop-color="#f1efeb"
         id="stop1" /><stop
         offset="1"
         stop-color="#fdfcfc"
         id="stop2" /></linearGradient><linearGradient
       id="d"
       x1="13"
       x2="22.5"
       y1="30.417"
       y2="30.417"
       gradientUnits="userSpaceOnUse"><stop
         offset="0"
         stop-color="#2376c8"
         id="stop3" /><stop
         offset="1"
         stop-color="#19468a"
         id="stop4" /></linearGradient><linearGradient
       id="c"
       x1="35.167"
       x2="35.167"
       y1="13"
       y2="51"
       gradientUnits="userSpaceOnUse"><stop
         offset="0"
         stop-color="#428ce6"
         id="stop5" /><stop
         offset="1"
         stop-color="#1e75e0"
         id="stop6" /></linearGradient><linearGradient
       id="b"
       x1="36.75"
       x2="36.75"
       y1="51"
       y2="13"
       gradientUnits="userSpaceOnUse"><stop
         offset="0"
         stop-color="#8fc1ff"
         id="stop7" /><stop
         offset="1"
         stop-color="#c8def9"
         id="stop8" /></linearGradient></defs><g
     stroke-width="1.583"
     id="g11"
     transform="matrix(1.4473676,0,0,1.4473676,-14.315763,-14.315756)"><path
       fill="url(#b)"
       d="m 27.25,13 -7.917,7.917 3.167,28.5 V 51 h 3.167 v -4.75 h 3.166 V 51 H 32 v -4.75 l 4.75,-1.583 4.75,1.583 V 51 h 3.167 v -4.75 h 3.166 V 51 H 51 V 41.5 L 47.833,36.75 51,32 V 22.5 L 44.667,17.75 C 44.667,15.119 39.382,13 36.75,13 Z"
       id="path9"
       style="fill:url(#b)" /><path
       fill="url(#c)"
       d="m 17.75,13 v 9.5 H 32 V 17.75 A 4.74,4.74 0 0 0 27.25,13 Z M 32,22.5 V 32 h 9.5 v -9.5 z m 9.5,0 H 51 V 17.75 A 4.74,4.74 0 0 0 46.25,13 h -9.5 a 4.74,4.74 0 0 1 4.75,4.75 z m 0,9.5 v 9.5 H 51 V 32 Z m 0,9.5 H 32 v 4.75 h 3.167 V 51 h 3.166 V 46.25 H 41.5 Z m -9.5,0 V 32 H 17.75 v 9.5 z"
       id="path10"
       style="fill:url(#c)" /><path
       fill="url(#d)"
       d="M 17.75,13 A 4.74,4.74 0 0 0 13,17.75 v 30.083 h 3.167 v -4.75 h 3.166 v 4.75 H 22.5 V 17.75 A 4.74,4.74 0 0 0 17.75,13"
       id="path11"
       style="fill:url(#d)" /></g></svg>
