<?xml version="1.0" encoding="UTF-8" standalone="no"?>
<svg
   width="64"
   height="64"
   version="1.1"
   id="svg95"
   sodipodi:docname="com.mardojai.ForgeSparks.svg"
   inkscape:version="1.4.2 (ebf0e940d0, 2025-05-08)"
   xmlns:inkscape="http://www.inkscape.org/namespaces/inkscape"
   xmlns:sodipodi="http://sodipodi.sourceforge.net/DTD/sodipodi-0.dtd"
   xmlns:xlink="http://www.w3.org/1999/xlink"
   xmlns="http://www.w3.org/2000/svg"
   xmlns:svg="http://www.w3.org/2000/svg">
  <sodipodi:namedview
     id="namedview95"
     pagecolor="#505050"
     bordercolor="#eeeeee"
     borderopacity="1"
     inkscape:showpageshadow="0"
     inkscape:pageopacity="0"
     inkscape:pagecheckerboard="0"
     inkscape:deskcolor="#505050"
     inkscape:zoom="4.2315921"
     inkscape:cx="11.461407"
     inkscape:cy="41.828228"
     inkscape:window-width="1920"
     inkscape:window-height="1003"
     inkscape:window-x="0"
     inkscape:window-y="0"
     inkscape:window-maximized="1"
     inkscape:current-layer="svg95" />
  <defs
     id="defs63">
    <linearGradient
       id="z"
       x1="42.495"
       x2="42.495"
       y1="30.024"
       y2="46.024"
       gradientUnits="userSpaceOnUse">
      <stop
         offset="0"
         stop-color="#865e3c"
         id="stop1" />
      <stop
         offset=".286"
         stop-color="#b5835a"
         id="stop2" />
      <stop
         offset="1"
         stop-color="#66462e"
         id="stop3" />
    </linearGradient>
    <linearGradient
       id="A"
       x1="44.18"
       x2="73"
       y1="26.816"
       y2="26.816"
       gradientUnits="userSpaceOnUse">
      <stop
         offset="0"
         stop-color="#9a9996"
         id="stop4" />
      <stop
         offset=".287"
         stop-color="#b8b7b4"
         id="stop5" />
      <stop
         offset=".791"
         stop-color="#9a9996"
         id="stop6" />
      <stop
         offset=".901"
         stop-color="#d4d3cf"
         id="stop7" />
      <stop
         offset="1"
         stop-color="#585855"
         id="stop8" />
    </linearGradient>
    <linearGradient
       id="y"
       x1="96"
       x2="96"
       y1="40.024"
       y2="46.024"
       gradientUnits="userSpaceOnUse">
      <stop
         offset="0"
         stop-color="#865e3c"
         id="stop9" />
      <stop
         offset="1"
         stop-color="#66462e"
         id="stop10" />
    </linearGradient>
    <linearGradient
       id="r"
       x1="20"
       x2="27"
       y1="59"
       y2="61"
       gradientTransform="translate(-95,-23)"
       gradientUnits="userSpaceOnUse">
      <stop
         offset="0"
         stop-color="#fff"
         stop-opacity=".671"
         id="stop11" />
      <stop
         offset="1"
         stop-color="#fff"
         stop-opacity="0"
         id="stop12" />
    </linearGradient>
    <linearGradient
       id="p"
       x1="24"
       x2="108"
       y1="82"
       y2="82"
       gradientTransform="translate(-95,-23)"
       gradientUnits="userSpaceOnUse">
      <stop
         offset="0"
         stop-color="#b7b3c2"
         id="stop13" />
      <stop
         offset=".014"
         stop-color="#ddd8eb"
         id="stop14" />
      <stop
         offset=".049"
         stop-color="#b7b3c2"
         id="stop15" />
      <stop
         offset=".079"
         stop-color="#96939f"
         id="stop16" />
      <stop
         offset=".124"
         stop-color="#ece8fa"
         id="stop17" />
      <stop
         offset=".189"
         stop-color="#b7b3c2"
         id="stop18" />
      <stop
         offset=".876"
         stop-color="#b7b3c2"
         id="stop19" />
      <stop
         offset=".946"
         stop-color="#e1dcee"
         id="stop20" />
      <stop
         offset="1"
         stop-color="#b7b3c2"
         id="stop21" />
    </linearGradient>
    <linearGradient
       id="o"
       x1="18"
       x2="18"
       y1="224"
       y2="241.86"
       gradientTransform="matrix(1,0,0,0.65598,-95,-112.63)"
       gradientUnits="userSpaceOnUse">
      <stop
         offset="0"
         stop-color="#8b8893"
         id="stop22" />
      <stop
         offset=".431"
         stop-color="#bebacd"
         id="stop23" />
      <stop
         offset="1"
         stop-color="#8b8893"
         id="stop24" />
    </linearGradient>
    <linearGradient
       id="m"
       x1="24"
       x2="108"
       y1="89.382"
       y2="89.382"
       gradientTransform="translate(-95,-23)"
       gradientUnits="userSpaceOnUse">
      <stop
         offset="0"
         stop-color="#8b8893"
         id="stop25" />
      <stop
         offset=".014"
         stop-color="#bfbbce"
         id="stop26" />
      <stop
         offset=".037"
         stop-color="#888591"
         id="stop27" />
      <stop
         offset=".07"
         stop-color="#726f79"
         id="stop28" />
      <stop
         offset=".095"
         stop-color="#888591"
         id="stop29" />
      <stop
         offset=".143"
         stop-color="#b9b5c8"
         id="stop30" />
      <stop
         offset=".19"
         stop-color="#888591"
         id="stop31" />
      <stop
         offset=".849"
         stop-color="#898692"
         id="stop32" />
      <stop
         offset=".94"
         stop-color="#b9b5c5"
         id="stop33" />
      <stop
         offset="1"
         stop-color="#343338"
         id="stop34" />
    </linearGradient>
    <linearGradient
       id="l"
       x1="74"
       x2="74"
       y1="266"
       y2="279"
       gradientTransform="matrix(-0.70833,0,0,1,117.67,-174.66)"
       gradientUnits="userSpaceOnUse">
      <stop
         offset="0"
         stop-color="#3d3846"
         id="stop35" />
      <stop
         offset="1"
         stop-color="#77767b"
         id="stop36" />
    </linearGradient>
    <linearGradient
       id="i"
       x1="44"
       x2="48"
       y1="96"
       y2="88"
       gradientUnits="userSpaceOnUse">
      <stop
         offset="0"
         stop-color="#77767b"
         id="stop37" />
      <stop
         offset="1"
         stop-color="#241f31"
         id="stop38" />
    </linearGradient>
    <linearGradient
       id="f"
       x1="89"
       x2="87.649"
       y1="92"
       y2="103.49"
       gradientUnits="userSpaceOnUse">
      <stop
         offset="0"
         stop-color="#454545"
         id="stop39" />
      <stop
         offset=".404"
         stop-color="#38353f"
         id="stop40" />
      <stop
         offset="1"
         stop-color="#77767b"
         id="stop41" />
    </linearGradient>
    <linearGradient
       id="c"
       x1="36"
       x2="98"
       y1="112"
       y2="111.87"
       gradientTransform="translate(-95,-23)"
       gradientUnits="userSpaceOnUse">
      <stop
         offset="0"
         stop-color="#5e5c64"
         id="stop42" />
      <stop
         offset=".059"
         stop-color="#878491"
         id="stop43" />
      <stop
         offset=".144"
         stop-color="#5e5c64"
         id="stop44" />
      <stop
         offset=".849"
         stop-color="#5e5c64"
         id="stop45" />
      <stop
         offset=".94"
         stop-color="#6c6a73"
         id="stop46" />
      <stop
         offset="1"
         stop-color="#343338"
         id="stop47" />
    </linearGradient>
    <clipPath
       id="w">
      <path
         d="M54 34h66v13H54z"
         id="path47" />
    </clipPath>
    <clipPath
       id="x">
      <path
         d="M62 30.023h50a8 8 0 0 1 0 16H62a8 8 0 0 1 0-16"
         id="path48" />
    </clipPath>
    <clipPath
       id="t">
      <path
         d="M54 30h66v17H54z"
         id="path49" />
    </clipPath>
    <clipPath
       id="u">
      <path
         d="M62 30.023h50a8 8 0 0 1 0 16H62a8 8 0 0 1 0-16"
         id="path50" />
    </clipPath>
    <clipPath
       id="j">
      <path
         d="M44 77h46v33H44z"
         id="path51" />
    </clipPath>
    <clipPath
       id="k">
      <path
         d="M49.781 74.367h34.387c7.64 0 13.832 6.195 13.832 13.832v7.969C98 103.808 91.809 110 84.168 110H49.781c-7.64 0-13.832-6.192-13.832-13.832v-7.969c0-7.637 6.191-13.832 13.832-13.832"
         id="path52" />
    </clipPath>
    <clipPath
       id="g">
      <path
         d="M35 74h25v36H35z"
         id="path53" />
    </clipPath>
    <clipPath
       id="h">
      <path
         d="M49.781 74.367h34.387c7.64 0 13.832 6.195 13.832 13.832v7.969C98 103.808 91.809 110 84.168 110H49.781c-7.64 0-13.832-6.192-13.832-13.832v-7.969c0-7.637 6.191-13.832 13.832-13.832"
         id="path54" />
    </clipPath>
    <clipPath
       id="d">
      <path
         d="M35 74h63v36H35z"
         id="path55" />
    </clipPath>
    <clipPath
       id="e">
      <path
         d="M49.781 74.367h34.387c7.64 0 13.832 6.195 13.832 13.832v7.969C98 103.808 91.809 110 84.168 110H49.781c-7.64 0-13.832-6.192-13.832-13.832v-7.969c0-7.637 6.191-13.832 13.832-13.832"
         id="path56" />
    </clipPath>
    <radialGradient
       id="b"
       cx="-5.544"
       cy="24.796"
       r="28.001"
       gradientTransform="matrix(3.7796,0,0,3.7796,-18.412187,-22.23694)"
       gradientUnits="userSpaceOnUse">
      <stop
         offset="0"
         stop-color="#807845"
         id="stop56" />
      <stop
         offset="1"
         stop-color="#212121"
         id="stop57" />
    </radialGradient>
    <radialGradient
       id="a"
       cx="56"
       cy="243.89"
       r="40.132"
       gradientTransform="matrix(.9967 0 0 .73091 .185 -116.26)"
       gradientUnits="userSpaceOnUse">
      <stop
         offset="0"
         stop-color="#fff"
         stop-opacity=".467"
         id="stop58" />
      <stop
         offset="1"
         stop-color="#fff"
         stop-opacity=".106"
         id="stop59" />
    </radialGradient>
    <radialGradient
       id="v"
       cx="89"
       cy="182.9"
       r="33"
       gradientTransform="matrix(0.87879,0,0,0.24242,10.788,-14.34)"
       gradientUnits="userSpaceOnUse">
      <stop
         offset="0"
         stop-color="#ff9236"
         id="stop60" />
      <stop
         offset="1"
         stop-color="#b5835a"
         id="stop61" />
    </radialGradient>
    <radialGradient
       id="s"
       cx="57.5"
       cy="231"
       r="20.5"
       gradientTransform="matrix(1.2439,0,0,0.70732,-109.02,-125.89)"
       gradientUnits="userSpaceOnUse">
      <stop
         offset="0"
         stop-color="#f9f06b"
         id="stop62" />
      <stop
         offset="1"
         stop-color="#f9f06b"
         stop-opacity="0"
         id="stop63" />
    </radialGradient>
    <radialGradient
       xlink:href="#a"
       id="q"
       cx="56"
       cy="243.89"
       r="40.132"
       gradientTransform="matrix(0.9967,0,0,0.73091,-94.815,-139.26)"
       gradientUnits="userSpaceOnUse" />
    <radialGradient
       inkscape:collect="always"
       xlink:href="#a"
       id="radialGradient95"
       gradientUnits="userSpaceOnUse"
       gradientTransform="matrix(0.9967,0,0,0.73091,-94.815,-139.26)"
       cx="56"
       cy="243.89"
       r="40.132" />
  </defs>
  <g
     id="g95"
     transform="matrix(1.4004195,0,0,1.4004195,-12.8128,-12.814208)">
    <path
       fill="url(#c)"
       fill-rule="evenodd"
       d="m -43.758,59.367 h 31.469 C -3.848,59.367 3,66.215 3,74.66 v 5.05 C 3,88.153 -3.848,95 -12.289,95 h -31.469 c -8.445,0 -15.293,-6.848 -15.293,-15.29 v -5.05 c 0,-8.445 6.848,-15.293 15.293,-15.293"
       transform="matrix(0.35088,0,0,0.35088,43.579,18.667)"
       id="path63"
       style="fill:url(#c)" />
    <g
       clip-path="url(#d)"
       transform="matrix(0.35088,0,0,0.35088,10.245,10.597)"
       id="g65">
      <g
         clip-path="url(#e)"
         id="g64">
        <path
           fill="url(#f)"
           fill-rule="evenodd"
           d="M 47.949,74.367 H 86 c 6.629,0 12,5.375 12,12 V 98 c 0,6.629 -5.371,12 -12,12 H 47.949 c -6.625,0 -12,-5.371 -12,-12 V 86.367 c 0,-6.625 5.375,-12 12,-12"
           id="path64"
           style="fill:url(#f)" />
      </g>
    </g>
    <g
       clip-path="url(#g)"
       transform="matrix(0.35088,0,0,0.35088,10.245,10.597)"
       id="g67">
      <g
         clip-path="url(#h)"
         id="g66">
        <path
           fill="url(#i)"
           fill-rule="evenodd"
           d="m 26,72 h 22 c 6.629,0 12,5.371 12,12 v 16 c 0,6.629 -5.371,12 -12,12 H 26 c -6.629,0 -12,-5.371 -12,-12 V 84 c 0,-6.629 5.371,-12 12,-12"
           id="path65"
           style="fill:url(#i)" />
      </g>
    </g>
    <g
       clip-path="url(#j)"
       transform="matrix(0.35088,0,0,0.35088,10.245,10.597)"
       id="g69">
      <g
         clip-path="url(#k)"
         id="g68">
        <path
           fill="url(#l)"
           d="M 89.332,109.34 78,77.34 H 55.332 L 44,109.34 Z"
           id="path67"
           style="fill:url(#l)" />
      </g>
    </g>
    <path
       fill="#8b8893"
       fill-rule="evenodd"
       d="m 13.052,31.65 v -1.404 h 13.334 v 9.123 h -5.614 a 7.72,7.72 0 0 1 -7.72,-7.72"
       id="path69" />
    <path
       fill="url(#m)"
       fill-rule="evenodd"
       d="m -52.031,23.461 a 10.995,10.995 0 0 0 -11.02,11.02 v 14.52 h -7.95 v 11 a 3,3 0 0 0 3,3 c 9,0 2.579,10 15.97,10 H 1.985 A 10.994,10.994 0 0 0 13,61.981 v -27.5 C 13,28.375 8.086,23.461 1.984,23.461 Z"
       transform="matrix(0.35088,0,0,0.35088,43.579,18.667)"
       id="path70"
       style="fill:url(#m)" />
    <path
       fill="url(#o)"
       fill-rule="evenodd"
       d="m -87,33 h 38 V 48.742 H -65 C -75.422,50.472 -85.273,43.422 -87,33"
       transform="matrix(0.35088,0,0,0.35088,43.579,18.667)"
       id="path71"
       style="fill:url(#o)" />
    <path
       fill="url(#p)"
       fill-rule="evenodd"
       d="m -54.34,23 a 8.694,8.694 0 0 0 -8.71,8.71 v 0.368 A 2.92,2.92 0 0 1 -65.974,35 H -71 v 14 c 0,1.105 0.894,2 2,2 l 3.094,0.004 c 1.578,0 2.797,1.328 3.34,2.797 1.182,3.219 4.409,5.199 8.226,5.199 H 4.29 A 8.694,8.694 0 0 0 13,50.29 V 31.71 A 8.694,8.694 0 0 0 4.29,23 Z"
       transform="matrix(0.35088,0,0,0.35088,43.579,18.667)"
       id="path72"
       style="fill:url(#p)" />
    <path
       fill="#aeaab9"
       fill-rule="evenodd"
       d="m 24.512,26.035 a 3.05,3.05 0 0 0 -3.056,3.057 v 0.129 c 0,0.566 -0.46,1.025 -1.026,1.025 h -1.764 v 4.912 c 0,0.388 0.314,0.702 0.702,0.702 l 1.086,10e-4 c 0.554,0 0.981,0.466 1.172,0.982 0.415,1.13 1.547,1.824 2.886,1.824 h 20.572 a 3.05,3.05 0 0 0 3.056,-3.056 v -6.519 a 3.05,3.05 0 0 0 -3.056,-3.056 z"
       id="path73" />
    <path
       fill="#241f31"
       fill-opacity="0.086"
       fill-rule="evenodd"
       d="m 26.395,28.14 a 1.41,1.41 0 0 0 -1.413,1.412 v 2.791 c 0,0.781 0.63,1.412 1.413,1.412 h 7.7 a 1.41,1.41 0 0 0 1.414,-1.404 h 9.815 c 0.782,0 1.413,-0.626 1.413,-1.403 0,-0.777 -0.63,-1.404 -1.413,-1.404 h -9.815 a 1.41,1.41 0 0 0 -1.414,-1.403 z"
       id="path74" />
    <path
       fill="url(#q)"
       d="m -30.398,45 h -11.453 a 60.5,60.5 0 0 1 -21.566,-3.969 l -0.852,-0.324 A 43.34,43.34 0 0 0 -83.999,38 l 5.047,-9.953 19.652,9.805 a 1.593,1.593 0 0 0 2.301,-1.426 V 36 c 0,-1.281 -0.5,-2.516 -1.39,-3.438 l -4.582,-4.722 1.117,-3.114 6.71,5.313 A 1.324,1.324 0 0 0 -53,28.999 4.52,4.52 0 0 0 -54.48,25.656 L -65.045,16.051 A 33.2,33.2 0 0 0 -73.53,10.437 L -79.56,7.66 a 0.75,0.75 0 0 1 -0.441,-0.676 0.76,0.76 0 0 1 0.418,-0.691 l 11.258,-5.63 a 2.672,2.672 0 0 1 3.844,2.02 l 0.6,4.301 a 15.36,15.36 0 0 0 4.716,9.074 l 6.96,6.5 A 23.9,23.9 0 0 0 -35.88,29 h 0.3 a 9.54,9.54 0 0 0 7.45,-3.574 l 19.44,-24.23 3.465,2 -11.945,23.246 a 7.26,7.26 0 0 0 0.203,7.004 l 1.047,1.773 a 3.12,3.12 0 0 0 3.817,1.328 l 1.719,-0.668 a 43.1,43.1 0 0 0 13.344,-8.2 l 2.894,-2.6 2.176,11.646 -1.461,-0.054 a 37.9,37.9 0 0 0 -15.355,2.664 l -7.336,2.926 A 38.6,38.6 0 0 1 -30.396,45 Z"
       transform="matrix(0.35088,0,0,0.35088,43.579,18.667)"
       id="path75"
       style="fill:url(#radialGradient95)" />
    <path
       fill="url(#r)"
       d="M -63.418,41.031 -64.27,40.707 A 43.34,43.34 0 0 0 -84,38 l 5.047,-9.953 19.653,9.803 z"
       transform="matrix(0.35088,0,0,0.35088,43.579,18.667)"
       id="path76"
       style="fill:url(#r)" />
    <path
       fill="url(#s)"
       fill-rule="evenodd"
       d="M -12,37.5 C -12,45.508 -23.418,52 -37.5,52 -51.582,52 -63,45.508 -63,37.5 -63,29.492 -51.582,23 -37.5,23 -23.418,23 -12,29.492 -12,37.5"
       transform="matrix(0.35088,0,0,0.35088,43.579,18.667)"
       id="path77"
       style="fill:url(#s)" />
    <path
       fill="#ffffff"
       fill-opacity="0.482"
       d="m 40.512,19.086 -4.63,5.794 2.515,0.812 3.26,-5.748 z"
       id="path78" />
    <g
       clip-path="url(#t)"
       transform="matrix(0.35088,0,0,0.35088,10.245,10.597)"
       id="g80">
      <g
         clip-path="url(#u)"
         id="g79">
        <path
           fill="url(#v)"
           fill-rule="evenodd"
           d="m 54,30.023 h 66 v 16 H 54 Z"
           id="path79"
           style="fill:url(#v)" />
      </g>
    </g>
    <g
       clip-path="url(#w)"
       transform="matrix(0.35088,0,0,0.35088,10.245,10.597)"
       id="g82">
      <g
         clip-path="url(#x)"
         id="g81">
        <path
           fill="url(#y)"
           fill-rule="evenodd"
           d="m 62,34.023 h 50 a 8,8 0 0 1 0,16 H 62 a 8,8 0 0 1 0,-16"
           id="path80"
           style="fill:url(#y)" />
      </g>
    </g>
    <g
       fill-rule="evenodd"
       id="g94">
      <path
         fill="url(#z)"
         d="m 42.344,30.023 h 13.805 a 2.347,2.347 0 0 1 2.348,2.348 V 43.68 a 2.346,2.346 0 0 1 -2.348,2.343 H 42.344 A 2.346,2.346 0 0 1 40,43.68 V 32.37 a 2.346,2.346 0 0 1 2.344,-2.347"
         transform="matrix(0.35088,0,0,0.35088,10.245,10.597)"
         id="path82"
         style="fill:url(#z)" />
      <path
         fill="url(#A)"
         d="m 66.18,4 a 5.945,5.945 0 0 1 5.887,6 V 49.633 H 44.18 V 26 c 0,-12.148 9.851,-22 22,-22 z"
         transform="matrix(0.35088,0,0,0.35088,10.245,10.597)"
         id="path83"
         style="fill:url(#A)" />
      <path
         fill="#5e5c64"
         d="m 33.467,16.908 a 2.09,2.09 0 0 1 2.065,2.11 v 11.93 c 0,1.17 -0.95,2.12 -2.12,2.12 h -5.528 a 2.137,2.137 0 0 1 -2.137,-2.137 v -6.303 a 7.72,7.72 0 0 1 7.72,-7.72"
         id="path84" />
      <path
         fill="#f6d32d"
         d="m 21.497,17.654 a 4.21,4.21 0 1 1 -8.42,0.001 4.21,4.21 0 0 1 8.42,-0.001"
         id="path85" />
      <path
         fill="#ffffff"
         d="m 21.424,18.434 c -0.101,0.567 -1.731,0.498 -2.107,0.935 -0.382,0.445 -0.085,2.06 -0.637,2.259 -0.541,0.196 -1.297,-1.25 -1.863,-1.357 -0.575,-0.109 -1.827,0.956 -2.275,0.577 -0.44,-0.372 0.435,-1.748 0.244,-2.29 -0.194,-0.554 -1.74,-1.105 -1.638,-1.682 0.102,-0.568 1.731,-0.498 2.107,-0.935 0.382,-0.446 0.086,-2.06 0.637,-2.259 0.543,-0.196 1.297,1.25 1.863,1.357 0.577,0.108 1.827,-0.957 2.275,-0.578 0.441,0.371 -0.434,1.749 -0.244,2.291 0.195,0.554 1.742,1.105 1.638,1.682"
         id="path86" />
      <path
         fill="#f5c211"
         fill-opacity="0.776"
         d="m 17.3,29.58 a 2.826,2.826 0 1 1 -5.651,0.001 2.826,2.826 0 0 1 5.65,0"
         id="path87" />
      <path
         fill="#ffffff"
         d="m 17.25,30.106 c -0.11,0.59 -1.275,0.194 -1.711,0.605 -0.437,0.41 -0.113,1.597 -0.707,1.672 -0.595,0.075 -0.579,-1.154 -1.104,-1.442 -0.525,-0.288 -1.553,0.387 -1.809,-0.155 -0.255,-0.543 0.92,-0.907 1.03,-1.495 0.113,-0.59 -0.846,-1.358 -0.41,-1.77 0.435,-0.41 1.145,0.595 1.74,0.52 0.594,-0.077 1.03,-1.227 1.555,-0.939 0.526,0.29 -0.212,1.273 0.045,1.816 0.255,0.541 1.484,0.6 1.372,1.188"
         id="path88" />
      <path
         fill="#f5c211"
         fill-opacity="0.784"
         d="m 47.86,28.434 a 2.1092954,2.1092954 0 1 1 -3.653,2.11 2.1092954,2.1092954 0 0 1 3.653,-2.11"
         id="path89" />
      <path
         fill="#ffffff"
         d="m 48.025,28.793 c 0.145,0.34 -0.821,0.769 -0.982,1.102 -0.175,0.363 0.058,1.425 -0.314,1.584 -0.338,0.144 -0.769,-0.822 -1.102,-0.982 -0.363,-0.176 -1.425,0.059 -1.583,-0.313 -0.145,-0.34 0.821,-0.77 0.982,-1.103 0.175,-0.363 -0.058,-1.426 0.314,-1.583 0.338,-0.145 0.769,0.82 1.102,0.981 0.363,0.176 1.425,-0.057 1.583,0.314"
         id="path90" />
      <path
         fill="#f8e45c"
         d="m 43.942,17.335 a 2.109,2.109 0 1 1 -3.653,2.107 2.109,2.109 0 0 1 3.653,-2.107"
         id="path91" />
      <path
         fill="#ffffff"
         d="m 44.107,17.694 c 0.13,0.356 -0.8,0.83 -0.965,1.172 -0.169,0.348 0.034,1.38 -0.33,1.513 -0.357,0.132 -0.83,-0.8 -1.172,-0.965 -0.349,-0.168 -1.382,0.034 -1.515,-0.33 -0.13,-0.357 0.8,-0.83 0.966,-1.172 0.168,-0.348 -0.034,-1.38 0.33,-1.513 0.357,-0.13 0.83,0.8 1.171,0.965 0.35,0.168 1.382,-0.035 1.515,0.33"
         id="path92" />
      <path
         fill="#f5c211"
         fill-opacity="0.761"
         d="m 22.278,27.147 a 2.109,2.109 0 1 1 -4.218,0 2.109,2.109 0 0 1 4.218,0"
         id="path93" />
      <path
         fill="#ffffff"
         d="m 22.241,27.54 c -0.028,0.375 -1.16,0.1 -1.469,0.312 -0.35,0.238 -0.574,1.4 -0.995,1.367 -0.374,-0.03 -0.1,-1.16 -0.311,-1.469 -0.239,-0.35 -1.401,-0.574 -1.368,-0.996 0.03,-0.375 1.16,-0.1 1.47,-0.311 0.349,-0.238 0.574,-1.4 0.994,-1.367 0.376,0.029 0.1,1.158 0.313,1.47 0.237,0.349 1.4,0.574 1.366,0.994"
         id="path94" />
    </g>
    <path
       fill="url(#q)"
       d="M -58.504,21.992 C -66,15 -70.43,11.863 -73.531,10.437 L -79.562,7.66 a 0.758,0.758 0 0 1 -0.024,-1.367 l 11.258,-5.63 a 2.674,2.674 0 0 1 3.844,2.02 l 0.602,4.3 c 0.488,3.474 1.054,6.228 11.008,15.017 z"
       transform="matrix(0.35088,0,0,0.35088,43.579,18.667)"
       id="path95"
       style="fill:url(#q)" />
  </g>
</svg>
