<?xml version="1.0" encoding="UTF-8" standalone="no"?>
<svg
   width="64"
   height="64"
   version="1.1"
   id="svg64"
   sodipodi:docname="com.feaneron.Boatswain.svg"
   xml:space="preserve"
   inkscape:version="1.4.2 (ebf0e940d0, 2025-05-08)"
   xmlns:inkscape="http://www.inkscape.org/namespaces/inkscape"
   xmlns:sodipodi="http://sodipodi.sourceforge.net/DTD/sodipodi-0.dtd"
   xmlns:xlink="http://www.w3.org/1999/xlink"
   xmlns="http://www.w3.org/2000/svg"
   xmlns:svg="http://www.w3.org/2000/svg"><sodipodi:namedview
     id="namedview64"
     pagecolor="#505050"
     bordercolor="#eeeeee"
     borderopacity="1"
     inkscape:showpageshadow="0"
     inkscape:pageopacity="0"
     inkscape:pagecheckerboard="0"
     inkscape:deskcolor="#505050"
     inkscape:zoom="4.3696989"
     inkscape:cx="-10.412617"
     inkscape:cy="29.635909"
     inkscape:window-width="1920"
     inkscape:window-height="1018"
     inkscape:window-x="0"
     inkscape:window-y="0"
     inkscape:window-maximized="1"
     inkscape:current-layer="svg64" /><defs
     id="defs45"><linearGradient
       id="linearGradient61"
       inkscape:collect="always"><stop
         style="stop-color:#7b797b;stop-opacity:0.627451"
         offset="0"
         id="stop61" /><stop
         style="stop-color:#251f31;stop-opacity:1"
         offset="0.0912579"
         id="stop63" /><stop
         style="stop-color:#251f31;stop-opacity:1"
         offset="0.9091258"
         id="stop64" /><stop
         style="stop-color:#747476;stop-opacity:0.48235294"
         offset="1"
         id="stop62" /></linearGradient><linearGradient
       id="linearGradient59"
       inkscape:collect="always"><stop
         style="stop-color:#5c5b62;stop-opacity:1"
         offset="0"
         id="stop59" /><stop
         style="stop-color:#3f3b46;stop-opacity:1"
         offset="1"
         id="stop60" /></linearGradient><linearGradient
       id="linearGradient58"
       x1="17"
       x2="17"
       y1="7"
       y2="51"
       gradientTransform="matrix(1.1111763,0,0,1.02276,12.00049,6.53148)"
       gradientUnits="userSpaceOnUse"
       spreadMethod="pad"><stop
         stop-color="#6c7378"
         offset="0"
         id="stop57"
         style="stop-color:#5d5c63;stop-opacity:1" /><stop
         stop-color="#42464a"
         offset="1"
         id="stop58" /></linearGradient><linearGradient
       id="linearGradient56"
       x1="17"
       x2="17"
       y1="7"
       y2="51"
       gradientTransform="matrix(1.1111763,0,0,1.02276,12.00049,6.53148)"
       gradientUnits="userSpaceOnUse"
       spreadMethod="pad"><stop
         stop-color="#6c7378"
         offset="0"
         id="stop55"
         style="stop-color:#5d5c63;stop-opacity:1" /><stop
         stop-color="#42464a"
         offset="1"
         id="stop56" /></linearGradient><linearGradient
       id="linearGradient54"
       x1="17"
       x2="17"
       y1="7"
       y2="51"
       gradientTransform="matrix(1.1111763,0,0,1.02276,12.00049,6.53148)"
       gradientUnits="userSpaceOnUse"
       spreadMethod="pad"><stop
         stop-color="#6c7378"
         offset="0"
         id="stop53"
         style="stop-color:#423e48;stop-opacity:1" /><stop
         stop-color="#42464a"
         offset="1"
         id="stop54" /></linearGradient><linearGradient
       id="linearGradient52"
       x1="17"
       x2="17"
       y1="7"
       y2="51"
       gradientTransform="matrix(1.1111763,0,0,1.02276,12.00049,6.53148)"
       gradientUnits="userSpaceOnUse"
       spreadMethod="pad"><stop
         stop-color="#6c7378"
         offset="0"
         id="stop51"
         style="stop-color:#423e48;stop-opacity:1" /><stop
         stop-color="#42464a"
         offset="1"
         id="stop52" /></linearGradient><linearGradient
       id="linearGradient50"
       x1="17"
       x2="17"
       y1="7"
       y2="51"
       gradientTransform="matrix(1.1111763,0,0,1.02276,12.00049,6.53148)"
       gradientUnits="userSpaceOnUse"
       spreadMethod="pad"><stop
         stop-color="#6c7378"
         offset="0"
         id="stop49" /><stop
         stop-color="#42464a"
         offset="1"
         id="stop50"
         style="stop-color:#3f3b46;stop-opacity:1" /></linearGradient><linearGradient
       id="linearGradient48"
       x1="17"
       x2="17"
       y1="7"
       y2="51"
       gradientTransform="matrix(1.1111763,0,0,1.02276,12.00049,6.53148)"
       gradientUnits="userSpaceOnUse"
       spreadMethod="pad"><stop
         stop-color="#6c7378"
         offset="0"
         id="stop47"
         style="stop-color:#5c5b62;stop-opacity:1" /><stop
         stop-color="#42464a"
         offset="1"
         id="stop48" /></linearGradient><linearGradient
       id="linearGradient46"
       x1="17"
       x2="17"
       y1="7"
       y2="51"
       gradientTransform="matrix(1.1111763,0,0,1.02276,12.00049,6.53148)"
       gradientUnits="userSpaceOnUse"
       spreadMethod="pad"><stop
         stop-color="#6c7378"
         offset="0"
         id="stop45"
         style="stop-color:#5d5c63;stop-opacity:1" /><stop
         stop-color="#42464a"
         offset="1"
         id="stop46" /></linearGradient><linearGradient
       id="linearGradient44"
       x1="17"
       x2="17"
       y1="7"
       y2="51"
       gradientTransform="matrix(1.1111763,0,0,1.02276,12.00049,6.53148)"
       gradientUnits="userSpaceOnUse"><stop
         stop-color="#6c7378"
         offset="0"
         id="stop43"
         style="stop-color:#5c5b62;stop-opacity:1" /><stop
         stop-color="#42464a"
         offset="1"
         id="stop44" /></linearGradient><linearGradient
       id="linearGradient41"
       x1="17"
       x2="17"
       y1="7"
       y2="51"
       gradientTransform="matrix(1.1111763,0,0,1.02276,12.00049,6.53148)"
       gradientUnits="userSpaceOnUse"><stop
         stop-color="#6c7378"
         offset="0"
         id="stop40"
         style="stop-color:#177378;stop-opacity:1;" /><stop
         stop-color="#42464a"
         offset="1"
         id="stop41" /></linearGradient><linearGradient
       id="b"><stop
         offset="0"
         style="stop-color:#8f8f8f;stop-opacity:0.96470588"
         id="stop1" /><stop
         offset=".201"
         style="stop-color:#251f31;stop-opacity:1"
         id="stop2" /><stop
         offset=".801"
         style="stop-color:#251f31;stop-opacity:1"
         id="stop3" /><stop
         offset="1"
         style="stop-color:#929292;stop-opacity:0.52156866"
         id="stop4" /></linearGradient><linearGradient
       id="a"
       x1="7.937"
       x2="7.937"
       y1="15.081"
       y2="1.852"
       gradientTransform="scale(3.7796)"
       gradientUnits="userSpaceOnUse"><stop
         offset="0"
         stop-color="#363636"
         id="stop5" /><stop
         offset="1"
         stop-color="#6c6c6c"
         style="stop-color:#8d8d8d;stop-opacity:1"
         id="stop6" /></linearGradient><linearGradient
       xlink:href="#a"
       id="f"
       x1="7.937"
       x2="7.937"
       y1="15.081"
       y2="1.852"
       gradientTransform="matrix(3.7796,0,0,3.7796,-75.129574,-3.753)"
       gradientUnits="userSpaceOnUse" /><linearGradient
       xlink:href="#b"
       id="e"
       x1="4"
       x2="60.002"
       y1="51.593"
       y2="51.593"
       gradientUnits="userSpaceOnUse"
       gradientTransform="matrix(0.98207093,0,0,1,-72.428993,0)" /><linearGradient
       id="g"
       x1="16.397"
       x2="43.603"
       y1="61.613"
       y2="61.613"
       gradientTransform="matrix(0.48288,0,0,0.48288,-71.905742,-2.242)"
       gradientUnits="userSpaceOnUse"><stop
         offset="0"
         stop-color="#a51d2d"
         id="stop7" /><stop
         offset=".062"
         stop-color="#f66151"
         id="stop8" /><stop
         offset=".175"
         stop-color="#c01c28"
         id="stop9" /><stop
         offset=".831"
         stop-color="#c01c28"
         id="stop10" /><stop
         offset=".929"
         stop-color="#f66151"
         id="stop11" /><stop
         offset="1"
         stop-color="#a51d2d"
         id="stop12" /></linearGradient><linearGradient
       id="i"
       x1="50.447"
       x2="77.553"
       y1="61.715"
       y2="61.715"
       gradientTransform="matrix(0.48288,0,0,0.48288,-71.905742,-2.242)"
       gradientUnits="userSpaceOnUse"><stop
         offset="0"
         stop-color="#229660"
         id="stop13" /><stop
         offset=".075"
         stop-color="#8ff0a4"
         id="stop14" /><stop
         offset=".179"
         stop-color="#26a269"
         id="stop15" /><stop
         offset=".864"
         stop-color="#26a269"
         id="stop16" /><stop
         offset=".941"
         stop-color="#8ff0a4"
         id="stop17" /><stop
         offset="1"
         stop-color="#229660"
         id="stop18" /></linearGradient><linearGradient
       xlink:href="#c"
       id="k"
       x1="84.24"
       x2="111.76"
       y1="61.232"
       y2="61.232"
       gradientTransform="matrix(0.48288,0,0,0.48288,-71.905742,-2.242)" /><linearGradient
       id="c"
       gradientUnits="userSpaceOnUse"><stop
         offset="0"
         stop-color="#443a5c"
         id="stop19" /><stop
         offset=".062"
         stop-color="#7d6fa3"
         id="stop20" /><stop
         offset=".175"
         stop-color="#241f31"
         id="stop21" /><stop
         offset=".831"
         stop-color="#241f31"
         id="stop22" /><stop
         offset=".929"
         stop-color="#51476f"
         id="stop23" /><stop
         offset="1"
         stop-color="#241f31"
         id="stop24" /></linearGradient><linearGradient
       xlink:href="#c"
       id="n"
       x1="50.24"
       x2="77.76"
       y1="95.232"
       y2="95.232"
       gradientTransform="matrix(0.48288,0,0,0.48288,-71.905742,-2.242)" /><linearGradient
       id="p"
       x1="84.48"
       x2="111.561"
       y1="95.779"
       y2="95.779"
       gradientTransform="matrix(0.48288,0,0,0.48288,-71.905742,-2.242)"
       gradientUnits="userSpaceOnUse"><stop
         offset="0"
         stop-color="#1c71d8"
         id="stop25" /><stop
         offset=".075"
         stop-color="#6da7ec"
         id="stop26" /><stop
         offset=".179"
         stop-color="#1963be"
         id="stop27" /><stop
         offset=".864"
         stop-color="#1c71d8"
         id="stop28" /><stop
         offset=".941"
         stop-color="#71a9ed"
         id="stop29" /><stop
         offset="1"
         stop-color="#1b6acb"
         id="stop30" /></linearGradient><linearGradient
       xlink:href="#c"
       id="s"
       x1="16.24"
       x2="43.76"
       y1="95.232"
       y2="95.232"
       gradientTransform="matrix(0.48288,0,0,0.48288,-71.905742,-2.242)" /><linearGradient
       id="w"
       x1="38"
       x2="134"
       y1="55.986"
       y2="110"
       gradientUnits="userSpaceOnUse"><stop
         offset="0"
         stop-color="#fff"
         stop-opacity="0"
         id="stop31" /><stop
         offset=".161"
         stop-color="#fff"
         stop-opacity=".839"
         id="stop32" /><stop
         offset=".346"
         stop-color="#fff"
         stop-opacity=".11"
         id="stop33" /><stop
         offset=".518"
         stop-color="#fff"
         id="stop34" /><stop
         offset=".782"
         stop-color="#fff"
         stop-opacity="0"
         id="stop35" /><stop
         offset=".812"
         stop-color="#fff"
         stop-opacity=".184"
         id="stop36" /><stop
         offset=".879"
         stop-color="#fff"
         id="stop37" /><stop
         offset=".954"
         stop-color="#fff"
         stop-opacity=".043"
         id="stop38" /><stop
         offset="1"
         stop-color="#fff"
         stop-opacity="0"
         id="stop39" /></linearGradient><filter
       id="d"
       width="1"
       height="1"
       x="0"
       y="0"><feColorMatrix
         in="SourceGraphic"
         values="0 0 0 0 1 0 0 0 0 1 0 0 0 0 1 0 0 0 1 0"
         id="feColorMatrix39" /></filter><filter
       id="h"
       width="1.2708876"
       height="1.2708675"
       x="-0.13544379"
       y="-0.13543377"
       style="color-interpolation-filters:sRGB"><feGaussianBlur
         stdDeviation=".763"
         id="feGaussianBlur39" /></filter><filter
       id="j"
       width="1.2708876"
       height="1.2708675"
       x="-0.13544379"
       y="-0.13543377"
       style="color-interpolation-filters:sRGB"><feGaussianBlur
         stdDeviation=".763"
         id="feGaussianBlur40" /></filter><filter
       id="t"
       width="1.2708876"
       height="1.2708675"
       x="-0.13544379"
       y="-0.13543377"
       style="color-interpolation-filters:sRGB"><feGaussianBlur
         stdDeviation=".763"
         id="feGaussianBlur41" /></filter><filter
       id="r"
       width="1.2708876"
       height="1.2708675"
       x="-0.13544379"
       y="-0.13543377"
       style="color-interpolation-filters:sRGB"><feGaussianBlur
         stdDeviation=".763"
         id="feGaussianBlur42" /></filter><filter
       id="m"
       width="1.2708876"
       height="1.2708675"
       x="-0.13544379"
       y="-0.13543377"
       style="color-interpolation-filters:sRGB"><feGaussianBlur
         stdDeviation=".763"
         id="feGaussianBlur43" /></filter><filter
       id="o"
       width="1.2708876"
       height="1.2708675"
       x="-0.13544379"
       y="-0.13543377"
       style="color-interpolation-filters:sRGB"><feGaussianBlur
         stdDeviation=".763"
         id="feGaussianBlur44" /></filter><clipPath
       id="u"><path
         d="M0 0h192v152H0z"
         id="path44" /></clipPath><mask
       id="v"><g
         filter="url(#d)"
         id="g45"><path
           fill-opacity=".152"
           d="M0 0h128v128H0z"
           id="path45" /></g></mask><filter
       id="filter1057-2"
       x="-0.026999999"
       y="-0.026999999"
       width="1.054"
       height="1.054"
       color-interpolation-filters="sRGB"><feGaussianBlur
         stdDeviation="0.61875"
         id="feGaussianBlur1" /></filter><linearGradient
       id="linearGradient1053"
       x1="-127"
       x2="-127"
       y1="60"
       y2="5.0100012"
       gradientTransform="translate(58.497258,-1.040001)"
       gradientUnits="userSpaceOnUse"><stop
         stop-color="#1d2123"
         offset="0"
         id="stop1-3"
         style="stop-color:#3d3944;stop-opacity:1" /><stop
         stop-color="#33393e"
         stop-opacity=".99608"
         offset="1"
         id="stop2-6"
         style="stop-color:#5d5c63;stop-opacity:1" /></linearGradient><linearGradient
       id="linearGradient1229"
       x1="17"
       x2="17"
       y1="7"
       y2="51"
       gradientTransform="matrix(1.1111763,0,0,1.02276,12.00049,6.53148)"
       gradientUnits="userSpaceOnUse"
       xlink:href="#linearGradient58"><stop
         stop-color="#6c7378"
         offset="0"
         id="stop1-36" /><stop
         stop-color="#42464a"
         offset="1"
         id="stop2-7" /></linearGradient><linearGradient
       id="linearGradient1242"
       x1="-9"
       x2="45"
       y1="50"
       y2="50"
       gradientTransform="matrix(1.1364,0,0,1.1364,88.591598,37.629737)"
       gradientUnits="userSpaceOnUse"><stop
         stop-color="#a1aab3"
         offset="0"
         id="stop3-5" /><stop
         stop-color="#818990"
         offset="1"
         id="stop4-3" /></linearGradient><linearGradient
       inkscape:collect="always"
       xlink:href="#linearGradient59"
       id="linearGradient60"
       x1="32"
       y1="13.63464"
       x2="32"
       y2="55.087891"
       gradientUnits="userSpaceOnUse" /><linearGradient
       inkscape:collect="always"
       xlink:href="#linearGradient61"
       id="linearGradient62"
       x1="2"
       y1="55.810547"
       x2="62"
       y2="55.810547"
       gradientUnits="userSpaceOnUse"
       gradientTransform="translate(0,2.1014367)" /><linearGradient
       inkscape:collect="always"
       xlink:href="#g"
       id="linearGradient82"
       gradientUnits="userSpaceOnUse"
       gradientTransform="matrix(0.48288,0,0,0.48288,-71.905742,-2.242)"
       x1="16.397"
       y1="61.613"
       x2="43.603"
       y2="61.613" /><linearGradient
       inkscape:collect="always"
       xlink:href="#i"
       id="linearGradient83"
       gradientUnits="userSpaceOnUse"
       gradientTransform="matrix(0.48288,0,0,0.48288,-71.905742,-2.242)"
       x1="50.447"
       y1="61.715"
       x2="77.553"
       y2="61.715" /><linearGradient
       inkscape:collect="always"
       xlink:href="#c"
       id="linearGradient84"
       gradientTransform="matrix(0.48288,0,0,0.48288,-71.905742,-2.242)"
       x1="84.24"
       y1="61.232"
       x2="111.76"
       y2="61.232" /><linearGradient
       inkscape:collect="always"
       xlink:href="#c"
       id="linearGradient85"
       gradientTransform="matrix(0.48288,0,0,0.48288,-71.905742,-2.242)"
       x1="50.24"
       y1="95.232"
       x2="77.76"
       y2="95.232" /><linearGradient
       inkscape:collect="always"
       xlink:href="#p"
       id="linearGradient86"
       gradientUnits="userSpaceOnUse"
       gradientTransform="matrix(0.48288,0,0,0.48288,-71.905742,-2.242)"
       x1="84.48"
       y1="95.779"
       x2="111.561"
       y2="95.779" /><linearGradient
       inkscape:collect="always"
       xlink:href="#c"
       id="linearGradient87"
       gradientTransform="matrix(0.48288,0,0,0.48288,-71.905742,-2.242)"
       x1="16.24"
       y1="95.232"
       x2="43.76"
       y2="95.232" /><linearGradient
       inkscape:collect="always"
       xlink:href="#w"
       id="linearGradient88"
       gradientUnits="userSpaceOnUse"
       x1="38"
       y1="55.986"
       x2="134"
       y2="110" /></defs><circle
     cx="99.719162"
     cy="64.593239"
     r="30.000999"
     fill-opacity="0"
     stroke-width="1.5715"
     id="circle5" /><g
     id="g88"
     transform="translate(0,-5.1854214)"><rect
       x="2"
       y="13.63464"
       width="60"
       height="45"
       ry="2.1010501"
       fill="url(#linearGradient1229)"
       stroke-linecap="round"
       stroke-linejoin="round"
       stroke-width="2.15275"
       style="fill:url(#linearGradient60);fill-opacity:1;paint-order:stroke fill markers"
       id="rect4-5" /><path
       id="rect1"
       style="fill:url(#linearGradient62);fill-opacity:1;paint-order:stroke fill markers"
       d="m 62,55.087765 c 0,1.163982 -0.937581,2.101563 -2.101562,2.101563 H 4.1015625 C 2.9375807,57.189328 2,56.251747 2,55.087765 v 3.546875 c 0,1.163982 0.9375807,2.101563 2.1015625,2.101563 H 59.898438 C 61.062419,60.736203 62,59.798622 62,58.63464 Z" /></g><g
     id="g82"
     transform="translate(73.001742,0.44)"><path
       fill="url(#g)"
       d="m -62.165742,15.141 h 9.492 c 1.113,0 2.014,0.902 2.014,2.015 v 9.492 a 2.014,2.014 0 0 1 -2.014,2.014 h -9.492 a 2.014,2.014 0 0 1 -2.014,-2.014 v -9.492 c 0,-1.113 0.901,-2.015 2.014,-2.015 m 0,0"
       style="display:inline;opacity:0.2;fill:url(#linearGradient82);stroke-width:0.482882;filter:url(#h)"
       id="path65" /><path
       fill="url(#i)"
       d="m -45.747742,15.141 h 9.492 c 1.113,0 2.014,0.902 2.014,2.015 v 9.492 a 2.014,2.014 0 0 1 -2.014,2.014 h -9.492 a 2.014,2.014 0 0 1 -2.014,-2.014 v -9.492 c 0,-1.113 0.901,-2.015 2.014,-2.015 m 0,0"
       style="opacity:0.2;fill:url(#linearGradient83);stroke-width:0.482882;filter:url(#j)"
       id="path66" /><path
       fill="url(#k)"
       d="m -29.329742,15.141 h 9.492 c 1.113,0 2.014,0.902 2.014,2.015 v 9.492 a 2.014,2.014 0 0 1 -2.014,2.014 h -9.492 a 2.014,2.014 0 0 1 -2.014,-2.014 v -9.492 c 0,-1.113 0.901,-2.015 2.014,-2.015 m 0,0"
       style="opacity:0.2;fill:url(#linearGradient84);stroke-width:0.482882;filter:url(#m)"
       id="path67" /><path
       fill="url(#n)"
       d="m -45.747742,31.56 h 9.492 c 1.113,0 2.014,0.901 2.014,2.014 v 9.492 a 2.014,2.014 0 0 1 -2.014,2.014 h -9.492 a 2.014,2.014 0 0 1 -2.014,-2.014 v -9.492 c 0,-1.113 0.901,-2.015 2.014,-2.015 m 0,0"
       style="opacity:0.2;fill:url(#linearGradient85);stroke-width:0.482882;filter:url(#o)"
       id="path68" /><path
       fill="url(#p)"
       d="m -29.329742,31.56 h 9.492 c 1.113,0 2.014,0.901 2.014,2.014 v 9.492 a 2.014,2.014 0 0 1 -2.014,2.014 h -9.492 a 2.014,2.014 0 0 1 -2.014,-2.014 v -9.492 c 0,-1.113 0.901,-2.015 2.014,-2.015 m 0,0"
       style="opacity:0.2;fill:url(#linearGradient86);stroke-width:0.482882;filter:url(#r)"
       id="path69" /><path
       fill="url(#s)"
       d="m -62.165742,31.56 h 9.492 c 1.113,0 2.014,0.901 2.014,2.014 v 9.492 a 2.014,2.014 0 0 1 -2.014,2.014 h -9.492 a 2.014,2.014 0 0 1 -2.014,-2.014 v -9.492 c 0,-1.113 0.901,-2.015 2.014,-2.015 m 0,0"
       style="opacity:0.2;fill:url(#linearGradient87);stroke-width:0.482882;filter:url(#t)"
       id="path70" /><g
       style="display:inline"
       id="g75"
       transform="translate(-73.002742)"><path
         fill="#ed333b"
         d="m 10.837,15.141 h 9.492 c 1.113,0 2.014,0.902 2.014,2.015 v 7.56 a 2.014,2.014 0 0 1 -2.014,2.015 H 10.837 A 2.014,2.014 0 0 1 8.823,24.716 v -7.56 c 0,-1.113 0.901,-2.015 2.014,-2.015 m 0,0"
         style="stroke-width:0.482882"
         id="path71" /><path
         fill="#3d3846"
         d="m 43.673,15.141 h 9.492 c 1.113,0 2.014,0.902 2.014,2.015 v 7.56 a 2.014,2.014 0 0 1 -2.014,2.015 h -9.492 a 2.014,2.014 0 0 1 -2.014,-2.015 v -7.56 c 0,-1.113 0.901,-2.015 2.014,-2.015 m 0,0"
         style="stroke-width:0.482882"
         id="path72" /><path
         fill="#33d17a"
         d="m 27.255,15.141 h 9.492 c 1.113,0 2.014,0.902 2.014,2.015 v 7.56 a 2.014,2.014 0 0 1 -2.014,2.015 h -9.492 a 2.014,2.014 0 0 1 -2.014,-2.015 v -7.56 c 0,-1.113 0.901,-2.015 2.014,-2.015 m 0,0"
         style="stroke-width:0.482882"
         id="path73" /><path
         fill="#62a0ea"
         d="m 43.673,31.56 h 9.492 c 1.113,0 2.014,0.901 2.014,2.014 v 7.56 a 2.014,2.014 0 0 1 -2.014,2.015 h -9.492 a 2.014,2.014 0 0 1 -2.014,-2.015 v -7.56 c 0,-1.113 0.901,-2.015 2.014,-2.015 m 0,0"
         style="stroke-width:0.482882"
         id="path74" /><path
         fill="#3d3846"
         d="m 27.255,31.56 h 9.492 c 1.113,0 2.014,0.901 2.014,2.014 v 7.56 a 2.014,2.014 0 0 1 -2.014,2.015 h -9.492 a 2.014,2.014 0 0 1 -2.014,-2.015 v -7.56 c 0,-1.113 0.901,-2.015 2.014,-2.015 M 10.837,31.56 h 9.492 c 1.113,0 2.014,0.901 2.014,2.014 v 7.56 a 2.014,2.014 0 0 1 -2.014,2.015 H 10.837 A 2.014,2.014 0 0 1 8.823,41.134 v -7.56 c 0,-1.113 0.901,-2.015 2.014,-2.015 m 0,0"
         style="stroke-width:0.482882"
         id="path75" /></g><g
       style="display:inline"
       id="g81"
       transform="translate(-73.002742)"><g
         clip-path="url(#u)"
         mask="url(#v)"
         transform="matrix(0.48288,0,0,0.48288,-2.767,-9.968)"
         id="g76"><path
           fill="url(#w)"
           d="M 28.172,86 H 47.828 A 4.16,4.16 0 0 1 52,90.172 v 15.656 A 4.16,4.16 0 0 1 47.828,110 H 28.172 A 4.16,4.16 0 0 1 24,105.828 V 90.172 A 4.16,4.16 0 0 1 28.172,86 m 34,0 H 81.828 A 4.16,4.16 0 0 1 86,90.172 v 15.656 A 4.16,4.16 0 0 1 81.828,110 H 62.172 A 4.16,4.16 0 0 1 58,105.828 V 90.172 A 4.16,4.16 0 0 1 62.172,86 m 34,0 h 19.656 A 4.16,4.16 0 0 1 120,90.172 v 15.656 A 4.16,4.16 0 0 1 115.828,110 H 96.172 A 4.16,4.16 0 0 1 92,105.828 V 90.172 A 4.16,4.16 0 0 1 96.172,86 m 0,-34 h 19.656 A 4.16,4.16 0 0 1 120,56.172 V 71.828 A 4.16,4.16 0 0 1 115.828,76 H 96.172 A 4.16,4.16 0 0 1 92,71.828 V 56.172 A 4.16,4.16 0 0 1 96.172,52 m -34,0 H 81.828 A 4.16,4.16 0 0 1 86,56.172 V 71.828 A 4.16,4.16 0 0 1 81.828,76 H 62.172 A 4.16,4.16 0 0 1 58,71.828 V 56.172 A 4.16,4.16 0 0 1 62.172,52 m -34,0 H 47.828 A 4.16,4.16 0 0 1 52,56.172 V 71.828 A 4.16,4.16 0 0 1 47.828,76 H 28.172 A 4.16,4.16 0 0 1 24,71.828 V 56.172 A 4.16,4.16 0 0 1 28.172,52 m 0,0"
           style="fill:url(#linearGradient88)"
           id="path76" /></g><g
         stroke="#ffffff"
         stroke-linecap="round"
         style="display:inline"
         id="g80"><path
           fill="#ffffff"
           stroke-linejoin="round"
           stroke-width="1.932"
           d="m 17.997,20.936 a 2.414,2.414 0 1 1 -4.828,0 2.414,2.414 0 0 1 4.828,0 M 30.07,35.422 h 3.863 v 3.864 h -3.864 z m 4.345,-14.486 -4.346,-2.414 v 4.828 z m 0,0"
           id="path77" /><path
           fill="none"
           stroke-width="3.863"
           d="m 13.651,35.905 1.932,1.932 1.932,-1.932"
           id="path78" /><path
           fill="none"
           stroke-width="1.932"
           d="m 45.039,37.354 h 6.924"
           id="path79" /><path
           fill="none"
           stroke-linejoin="round"
           stroke-width="1.932"
           d="M 49.624,39.768 52.039,37.354 49.624,34.94"
           id="path80" /></g></g><path
       fill="#ffffff"
       d="m -25.066742,22.868 a 1.4490001,1.4490001 0 1 1 -2.898,-10e-4 1.449,1.449 0 0 1 2.898,0 m 3.864,10e-4 a 1.4495001,1.4495001 0 1 1 -2.899,-10e-4 1.449,1.449 0 0 1 2.898,0 m -3.863,-3.862 a 1.4490001,1.4490001 0 1 1 -2.898,-10e-4 1.449,1.449 0 0 1 2.898,0 m 3.864,10e-4 a 1.4495001,1.4495001 0 1 1 -2.899,-10e-4 1.449,1.449 0 0 1 2.898,0 m 0,0"
       style="stroke-width:0.482882"
       id="path81" /></g></svg>
