<?xml version="1.0" encoding="UTF-8" standalone="no"?>
<svg
   width="64"
   height="64"
   aria-label="Wikipedia"
   version="1.1"
   id="svg3"
   sodipodi:docname="com.github.hugolabe.Wike.svg"
   xml:space="preserve"
   inkscape:version="1.4.2 (ebf0e940d0, 2025-05-08)"
   xmlns:inkscape="http://www.inkscape.org/namespaces/inkscape"
   xmlns:sodipodi="http://sodipodi.sourceforge.net/DTD/sodipodi-0.dtd"
   xmlns="http://www.w3.org/2000/svg"
   xmlns:svg="http://www.w3.org/2000/svg"><sodipodi:namedview
     id="namedview3"
     pagecolor="#505050"
     bordercolor="#eeeeee"
     borderopacity="1"
     inkscape:showpageshadow="0"
     inkscape:pageopacity="0"
     inkscape:pagecheckerboard="0"
     inkscape:deskcolor="#505050"
     inkscape:zoom="5.984375"
     inkscape:cx="28.825065"
     inkscape:cy="36.762402"
     inkscape:window-width="1920"
     inkscape:window-height="1003"
     inkscape:window-x="0"
     inkscape:window-y="0"
     inkscape:window-maximized="1"
     inkscape:current-layer="svg3" /><defs
     id="defs2"><linearGradient
       id="a"
       x1="7.937"
       x2="7.937"
       y1="15.081"
       y2="1.852"
       gradientTransform="matrix(3.7796,0,0,3.7796,-86.728585,0)"
       gradientUnits="userSpaceOnUse"><stop
         offset="0"
         stop-color="#f1efeb"
         id="stop1" /><stop
         offset="1"
         stop-color="#fdfcfc"
         id="stop2" /></linearGradient></defs><g
     id="g3"
     transform="matrix(1.017855,0,0,1.017855,-78.688007,-20.963926)"><path
       style="fill:#f5f5f5;fill-opacity:1"
       d="m 133.9456,77.032886 c 1.5512,0 2.8008,-1.249583 2.8008,-2.80076 V 39.034629 H 80.746402 v 35.199497 c 0,1.551178 1.25,2.80076 2.8,2.80076 H 133.9464 Z"
       id="path1" /><path
       style="fill:#4d4d4d"
       d="m 114.97428,45.034919 c -1.42158,-0.0012 -3.1054,0.0044 -4.1406,0.0118 l -0.1022,0.0699 v 0.745461 c 0,0.09096 0.038,0.154511 0.1134,0.209669 0.077,0.05818 0.154,0.0932 0.23822,0.0932 l 0.32898,0.03498 c 0.84656,0.03578 1.24516,0.264546 1.36132,0.407678 0.20184,0.253467 0.2965,0.534872 -0.1928,1.630714 l -2.9268,5.987083 -2.6432,-5.556106 c -0.86834,-1.775706 -1.07998,-2.330077 0.22688,-2.434471 l 0.52184,-0.0699 c 0.25122,0 0.37436,-0.09048 0.37436,-0.267906 v -0.780399 l -0.1928,-0.0699 c 0,0 -4.924,0.0086 -7.1356,0.0118 l -0.102,0.0699 v 0.780419 c 0,0.174451 0.1792,0.221668 0.52182,0.267906 1.2241,0.165491 1.19398,0.296044 2.405,2.760654 0.1816,0.36976 0.7147,1.479301 0.7147,1.479301 l 2.7566,5.567706 c 0,0 0.59578,1.352248 0.80544,1.828723 l -4.0046,8.200166 -0.22688,-0.05824 c 0,0 -6.219798,-13.468687 -8.020398,-17.972849 -0.1874,-0.466655 -0.27226,-0.811817 -0.27226,-1.025025 0,-0.457716 0.39804,-0.699543 1.20248,-0.733822 l 0.94158,-0.04662 c 0.2483,0 0.37436,-0.09859 0.37436,-0.302864 v -0.733821 l -0.0908,-0.08152 c 0,0 -7.4456,-0.009 -8.9846,0 l -0.0794,0.084 v 0.767959 c 0,0.140153 0.1634,0.229128 0.5105,0.267906 0.94528,0.0522 1.57268,0.207989 1.8718,0.465915 0.29768,0.260926 0.61414,0.917952 1.03234,1.945217 2.2608,5.576105 7.0652,15.532178 9.404398,21.198878 0.67376,1.547598 1.51306,1.788745 2.5412,-0.04662 1.10838,-2.110888 3.047,-6.186672 4.6172,-9.516496 0.0226,-0.323023 0.0226,0.299244 0.3063,0.104855 1.4661,3.315624 3.2358,7.306813 4.22,9.388303 0.76234,1.614694 1.62568,1.770126 2.5072,0.04662 2.303,-5.257121 9.0414,-21.070884 9.0414,-21.070884 0.29186,-0.776779 0.69256,-1.371568 1.21384,-1.805425 0.51984,-0.430877 1.32174,-0.672964 2.405,-0.722162 0.22072,0 0.32898,-0.101574 0.32898,-0.302843 v -0.745461 l -0.0794,-0.08156 h -8.27 l -0.1022,0.08156 v 0.745461 c 0,0.08798 0.038,0.154491 0.1134,0.209668 0.077,0.05818 0.154,0.09319 0.23822,0.09319 l 0.69202,0.03498 c 0.848,0.03578 1.07852,0.208629 1.40668,0.500853 0.32672,0.299664 0.36756,0.807237 0.1134,1.525879 l -7.317,17.833056 -0.2836,-0.08155 -4.6512,-9.749284 c 0.004,-0.0088 0.1134,-0.232968 0.1134,-0.232968 l 3.8004,-7.303213 c 0.4429,-0.77082 0.8727,-1.461583 1.08906,-1.782146 0.39642,-0.585929 0.6184,-0.693283 1.70164,-0.745461 0.22072,0 0.329,-0.09859 0.329,-0.302863 v -0.733822 l -0.0794,-0.08153 c 0,0 -1.16492,-0.0098 -2.5864,-0.0118 z"
       id="path2" /><path
       style="fill:#3f3f3f"
       d="m 133.94628,27.034801 c 1.5512,0 2.8,1.247982 2.8,2.79996 v 9.199868 H 80.746282 v -9.199868 c 0,-1.551178 1.2488,-2.79996 2.8,-2.79996 z"
       id="path3-3" /><g
       id="g4"
       transform="matrix(0.73333263,0,0,0.73333263,35.932435,8.8093179)"><circle
         style="fill:#ed333b"
         cx="-131.74628"
         cy="-33.034855"
         r="3"
         transform="scale(-1)"
         id="circle6" /><circle
         style="fill:#ffffff"
         cx="-122.79321"
         cy="-33.034855"
         r="3"
         transform="scale(-1)"
         id="circle7" /><circle
         style="fill:#ffffff"
         cx="-113.84013"
         cy="-33.034855"
         r="3"
         transform="scale(-1)"
         id="circle8" /></g><path
       style="opacity:0.1;fill:#ffffff"
       d="m 83.547063,27.034857 c -1.551178,0 -2.800781,1.249347 -2.800781,2.800206 v 0.999794 c 0,-1.550859 1.249603,-2.800206 2.800781,-2.800206 H 133.9455 c 1.54998,0 2.80078,1.249347 2.80078,2.800206 v -0.999794 c 0,-1.550859 -1.2508,-2.800206 -2.80078,-2.800206 z"
       id="path8" /><path
       style="opacity:0.2"
       d="m 80.746382,73.232886 v 0.999795 c 0,1.549659 1.249603,2.800205 2.800781,2.800205 H 133.9456 c 1.54998,0 2.80078,-1.250546 2.80078,-2.800205 v -0.999795 c 0,1.54966 -1.2508,2.800205 -2.80078,2.800205 H 83.547163 c -1.551178,0 -2.800781,-1.250545 -2.800781,-2.800205 z"
       id="path9" /></g></svg>
