<?xml version="1.0" encoding="UTF-8" standalone="no"?>
<svg
   width="64"
   height="64"
   viewBox="0 0 16.933 16.933"
   version="1.1"
   id="svg1"
   sodipodi:docname="com.gitee.gmg137.NeteaseCloudMusicGtk4.svg"
   inkscape:version="1.3 (0e150ed6c4, 2023-07-21)"
   xmlns:inkscape="http://www.inkscape.org/namespaces/inkscape"
   xmlns:sodipodi="http://sodipodi.sourceforge.net/DTD/sodipodi-0.dtd"
   xmlns="http://www.w3.org/2000/svg"
   xmlns:svg="http://www.w3.org/2000/svg">
  <defs
     id="defs1" />
  <sodipodi:namedview
     id="namedview1"
     pagecolor="#ffffff"
     bordercolor="#000000"
     borderopacity="0.25"
     inkscape:showpageshadow="2"
     inkscape:pageopacity="0.0"
     inkscape:pagecheckerboard="0"
     inkscape:deskcolor="#d1d1d1"
     inkscape:zoom="6.15625"
     inkscape:cx="48.081218"
     inkscape:cy="32"
     inkscape:window-width="1920"
     inkscape:window-height="995"
     inkscape:window-x="0"
     inkscape:window-y="0"
     inkscape:window-maximized="1"
     inkscape:current-layer="svg1" />
  <g
     id="g1"
     transform="matrix(1.0961588,0,0,1.0961588,-0.81358062,-0.81358062)">
    <rect
       width="13.758"
       height="13.758"
       x="1.587"
       y="1.587"
       fill="#ffcc00"
       fill-rule="evenodd"
       rx="2.1170001"
       ry="2.1170001"
       id="rect1" />
    <path
       fill="#ffffff"
       d="M 9.257,8.725 A 0.682,0.682 0 0 1 8.563,9.394 C 8.138,9.394 7.904,9.021 7.866,8.676 7.794,8.016 8.152,7.657 8.464,7.473 A 1.84,1.84 0 0 1 8.876,7.297 c 0,0 0.338,1.034 0.364,1.194 0.029,0.177 0.016,0.234 0.016,0.234 M 10.914,6.652 A 2.713,2.713 0 0 0 9.613,6.267 L 9.507,5.896 9.511,5.9 9.499,5.867 9.469,5.757 C 9.397,5.439 9.527,5.288 9.594,5.234 L 9.63,5.209 c 0.308,-0.197 0.744,0.118 0.769,0.137 0.194,0.18 0.549,0.225 0.74,0.04 C 11.333,5.2 11.287,4.851 11.094,4.665 10.793,4.375 9.867,3.909 9.08,4.415 8.373,4.869 8.358,5.508 8.475,5.877 l 0.141,0.5 A 2.78,2.78 0 0 0 7.946,6.659 C 7.171,7.116 6.783,7.889 6.88,8.775 c 0.1,0.911 0.807,1.573 1.682,1.573 0.93,0 1.686,-0.728 1.686,-1.623 C 10.235,8.512 10.238,8.514 10.208,8.323 10.178,8.137 9.893,7.261 9.893,7.261 c 0.176,0.04 0.34,0.103 0.481,0.191 1.598,1 0.933,2.593 0.903,2.662 -0.44,1.017 -1.4,1.625 -2.633,1.666 A 3.016,3.016 0 0 1 6.476,10.966 3.074,3.074 0 0 1 5.49,8.726 C 5.49,7.459 6.316,6.309 7.547,5.865 7.804,5.772 8.01,5.508 7.869,5.202 7.757,4.962 7.455,4.878 7.199,4.972 5.583,5.555 4.498,7.064 4.498,8.725 c 0,1.099 0.47,2.166 1.29,2.928 a 4.02,4.02 0 0 0 2.892,1.081 c 1.614,-0.054 2.927,-0.896 3.512,-2.248 0.365,-0.821 0.569,-2.68 -1.277,-3.834"
       id="path1" />
  </g>
</svg>
