<?xml version="1.0" encoding="UTF-8" standalone="no"?>
<svg
   width="64"
   height="64"
   version="1.1"
   id="svg72"
   sodipodi:docname="com.github.huluti.Curtail.svg"
   xml:space="preserve"
   inkscape:version="1.4.2 (ebf0e940d0, 2025-05-08)"
   xmlns:inkscape="http://www.inkscape.org/namespaces/inkscape"
   xmlns:sodipodi="http://sodipodi.sourceforge.net/DTD/sodipodi-0.dtd"
   xmlns:xlink="http://www.w3.org/1999/xlink"
   xmlns="http://www.w3.org/2000/svg"
   xmlns:svg="http://www.w3.org/2000/svg"><sodipodi:namedview
     id="namedview72"
     pagecolor="#505050"
     bordercolor="#eeeeee"
     borderopacity="1"
     inkscape:showpageshadow="0"
     inkscape:pageopacity="0"
     inkscape:pagecheckerboard="0"
     inkscape:deskcolor="#505050"
     inkscape:zoom="4"
     inkscape:cx="112.875"
     inkscape:cy="6.25"
     inkscape:window-width="1920"
     inkscape:window-height="1003"
     inkscape:window-x="0"
     inkscape:window-y="0"
     inkscape:window-maximized="1"
     inkscape:current-layer="svg72" /><defs
     id="defs43"><linearGradient
       id="linearGradient115"
       x1="68"
       x2="128"
       y1="62"
       y2="2"
       gradientTransform="matrix(0.91666687,0,0,0.91666687,13.143183,29.20117)"
       gradientUnits="userSpaceOnUse"><stop
         stop-color="#e0e4e9"
         offset="0"
         id="stop109"
         style="stop-color:#726f75;stop-opacity:0.97647059" /><stop
         stop-color="#e0e4e9"
         offset="0.03202675"
         id="stop110"
         style="stop-color:#b6b5b6;stop-opacity:1" /><stop
         stop-color="#e0e4e9"
         offset="0.08358695"
         id="stop111"
         style="stop-color:#7c7b7f;stop-opacity:1" /><stop
         stop-color="#e0e4e9"
         offset="0.22967416"
         id="stop112"
         style="stop-color:#ebebeb;stop-opacity:1;" /><stop
         stop-color="#e0e4e9"
         offset="0.72571737"
         id="stop113"
         style="stop-color:#c8c8c8;stop-opacity:1;" /><stop
         stop-color="#e0e4e9"
         offset="0.95109504"
         id="stop114"
         style="stop-color:#929290;stop-opacity:1" /><stop
         stop-color="#fefeff"
         offset="1"
         id="stop115"
         style="stop-color:#434045;stop-opacity:0.89411765" /></linearGradient><linearGradient
       id="linearGradient108"
       x1="68"
       x2="128"
       y1="62"
       y2="2"
       gradientTransform="matrix(0.91666687,0,0,0.91666687,13.143183,29.20117)"
       gradientUnits="userSpaceOnUse"><stop
         stop-color="#e0e4e9"
         offset="0"
         id="stop102"
         style="stop-color:#726f75;stop-opacity:0.97647059" /><stop
         stop-color="#e0e4e9"
         offset="0.03202675"
         id="stop103"
         style="stop-color:#b6b5b6;stop-opacity:1" /><stop
         stop-color="#e0e4e9"
         offset="0.08358695"
         id="stop104"
         style="stop-color:#7c7b7f;stop-opacity:1" /><stop
         stop-color="#e0e4e9"
         offset="0.22967416"
         id="stop105"
         style="stop-color:#ebebeb;stop-opacity:1;" /><stop
         stop-color="#e0e4e9"
         offset="0.81043273"
         id="stop106"
         style="stop-color:#c8c8c8;stop-opacity:1;" /><stop
         stop-color="#e0e4e9"
         offset="0.95109504"
         id="stop107"
         style="stop-color:#929290;stop-opacity:1" /><stop
         stop-color="#fefeff"
         offset="1"
         id="stop108"
         style="stop-color:#434045;stop-opacity:0.89411765" /></linearGradient><linearGradient
       id="linearGradient99"
       x1="68"
       x2="128"
       y1="62"
       y2="2"
       gradientTransform="matrix(0.91666687,0,0,0.91666687,13.143183,29.20117)"
       gradientUnits="userSpaceOnUse"><stop
         stop-color="#e0e4e9"
         offset="0"
         id="stop93"
         style="stop-color:#356f75;stop-opacity:0.97647059;" /><stop
         stop-color="#e0e4e9"
         offset="0.03202675"
         id="stop94"
         style="stop-color:#b6b5b6;stop-opacity:1" /><stop
         stop-color="#e0e4e9"
         offset="0.08358695"
         id="stop95"
         style="stop-color:#7c7b7f;stop-opacity:1" /><stop
         stop-color="#e0e4e9"
         offset="0.22967416"
         id="stop96"
         style="stop-color:#c9c9cb;stop-opacity:1" /><stop
         stop-color="#e0e4e9"
         offset="0.89565998"
         id="stop97"
         style="stop-color:#616065;stop-opacity:1" /><stop
         stop-color="#e0e4e9"
         offset="0.95109504"
         id="stop98"
         style="stop-color:#929290;stop-opacity:1" /><stop
         stop-color="#fefeff"
         offset="1"
         id="stop99"
         style="stop-color:#434045;stop-opacity:0.89411765" /></linearGradient><linearGradient
       id="linearGradient80"
       x1="68"
       x2="128"
       y1="62"
       y2="2"
       gradientTransform="matrix(0.91666687,0,0,0.91666687,13.143183,29.20117)"
       gradientUnits="userSpaceOnUse"><stop
         stop-color="#e0e4e9"
         offset="0"
         id="stop79"
         style="stop-color:#726f75;stop-opacity:0.97647059" /><stop
         stop-color="#e0e4e9"
         offset="0.03202675"
         id="stop83"
         style="stop-color:#b6b5b6;stop-opacity:1" /><stop
         stop-color="#e0e4e9"
         offset="0.08358695"
         id="stop84"
         style="stop-color:#7c7b7f;stop-opacity:1" /><stop
         stop-color="#e0e4e9"
         offset="0.22967416"
         id="stop85"
         style="stop-color:#c9c9cb;stop-opacity:1" /><stop
         stop-color="#e0e4e9"
         offset="0.89565998"
         id="stop82"
         style="stop-color:#616065;stop-opacity:1" /><stop
         stop-color="#e0e4e9"
         offset="0.95109504"
         id="stop81"
         style="stop-color:#929290;stop-opacity:1" /><stop
         stop-color="#fefeff"
         offset="1"
         id="stop80"
         style="stop-color:#434045;stop-opacity:0.89411765" /></linearGradient><linearGradient
       id="linearGradient76"
       x1="68"
       x2="128"
       y1="62"
       y2="2"
       gradientTransform="matrix(0.91666687,0,0,0.91666687,13.143183,29.20117)"
       gradientUnits="userSpaceOnUse"><stop
         stop-color="#e0e4e9"
         offset="0"
         id="stop75"
         style="stop-color:#696969;stop-opacity:1" /><stop
         stop-color="#fefeff"
         offset="1"
         id="stop76"
         style="stop-color:#adadad;stop-opacity:1" /></linearGradient><linearGradient
       id="linearGradient74"
       x1="68"
       x2="128"
       y1="62"
       y2="2"
       gradientTransform="matrix(0.91666687,0,0,0.91666687,13.143183,29.20117)"
       gradientUnits="userSpaceOnUse"><stop
         stop-color="#e0e4e9"
         offset="0"
         id="stop73"
         style="stop-color:#e03ce9;stop-opacity:1;" /><stop
         stop-color="#fefeff"
         offset="1"
         id="stop74" /></linearGradient><linearGradient
       id="c"
       gradientUnits="userSpaceOnUse"><stop
         offset="0"
         stop-color="#b1b0b6"
         style="stop-color:#b3b3b3;stop-opacity:1"
         id="stop1" /><stop
         offset=".5"
         stop-color="#d8d7d6"
         style="stop-color:#d7d7d7;stop-opacity:1"
         id="stop2" /><stop
         offset="1"
         stop-color="#6f667f"
         style="stop-color:#737373;stop-opacity:1"
         id="stop3" /></linearGradient><linearGradient
       id="d"
       gradientUnits="userSpaceOnUse"><stop
         offset="0"
         stop-color="#b1b0b6"
         style="stop-color:#b3b3b3;stop-opacity:1"
         id="stop4" /><stop
         offset=".272"
         stop-color="#c0c0be"
         style="stop-color:#bfbfbf;stop-opacity:1"
         id="stop5" /><stop
         offset="1"
         stop-color="#6f667f"
         style="stop-color:#737373;stop-opacity:1"
         id="stop6" /></linearGradient><linearGradient
       id="j"><stop
         offset="0"
         style="stop-color:#747474;stop-opacity:1"
         id="stop7" /><stop
         offset="1"
         style="stop-color:#cecece;stop-opacity:1"
         id="stop8" /></linearGradient><linearGradient
       id="i"><stop
         offset="0"
         style="stop-color:#4d4d4d;stop-opacity:1"
         id="stop9" /><stop
         offset="1"
         style="stop-color:#bfbfbf;stop-opacity:1"
         id="stop10" /></linearGradient><linearGradient
       id="g"
       x1="7.937"
       x2="7.937"
       y1="15.081"
       y2="1.852"
       gradientTransform="scale(3.7796)"
       gradientUnits="userSpaceOnUse"
       spreadMethod="pad"><stop
         offset="0"
         stop-color="#ffc30d"
         style="stop-color:#666;stop-opacity:1"
         id="stop11" /><stop
         offset=".204"
         stop-color="#ffc30d"
         style="stop-color:#8c8c8c;stop-opacity:1"
         id="stop12" /><stop
         offset=".804"
         stop-color="#ffc30d"
         style="stop-color:#8c8c8c;stop-opacity:1"
         id="stop13" /><stop
         offset="1"
         stop-color="#fff63f"
         style="stop-color:#666;stop-opacity:1"
         id="stop14" /></linearGradient><linearGradient
       xlink:href="#a"
       id="k"
       x1="7.937"
       x2="7.937"
       y1="15.081"
       y2="10.116"
       gradientTransform="matrix(3.7796,0,0,3.7796,-69.681462,0)"
       gradientUnits="userSpaceOnUse" /><linearGradient
       xlink:href="#b"
       id="a"
       x1="7.937"
       x2="7.937"
       y1="15.081"
       y2="1.852"
       gradientTransform="scale(3.7796)"
       gradientUnits="userSpaceOnUse"><stop
         offset="0"
         stop-color="#ffc30d"
         style="stop-color:#bfbfbf;stop-opacity:1"
         id="stop15" /><stop
         offset="1"
         stop-color="#fff63f"
         style="stop-color:#696969;stop-opacity:1"
         id="stop16" /></linearGradient><linearGradient
       id="b"
       x1="7.937"
       x2="7.937"
       y1="15.081"
       y2="1.852"
       gradientTransform="scale(3.7796)"
       gradientUnits="userSpaceOnUse"
       spreadMethod="pad"><stop
         offset="0"
         stop-color="#ffc30d"
         style="stop-color:#d9a300;stop-opacity:1"
         id="stop17" /><stop
         offset="1"
         stop-color="#fff63f"
         id="stop18" /></linearGradient><linearGradient
       id="m"
       x1="30"
       x2="104"
       y1="94"
       y2="108"
       gradientTransform="translate(-131.871,-33.496)"
       gradientUnits="userSpaceOnUse"><stop
         offset="0"
         stop-color="#f6f5f4"
         id="stop19" /><stop
         offset="1"
         stop-color="#deddda"
         id="stop20" /></linearGradient><linearGradient
       xlink:href="#c"
       id="q"
       x1="49.325"
       x2="53.605"
       y1="222.747"
       y2="230.159"
       gradientTransform="scale(-1 1)rotate(67.81 9.946 118.092)" /><linearGradient
       id="f"
       gradientUnits="userSpaceOnUse"><stop
         offset="0"
         stop-color="#b1b0b6"
         style="stop-color:#b3b3b3;stop-opacity:1"
         id="stop21" /><stop
         offset=".5"
         stop-color="#d8d7d6"
         style="stop-color:#d7d7d7;stop-opacity:1"
         id="stop22" /><stop
         offset="1"
         stop-color="#6f667f"
         style="stop-color:#737373;stop-opacity:1"
         id="stop23" /></linearGradient><linearGradient
       id="r"
       x1="58"
       x2="70"
       y1="-211"
       y2="-211"
       gradientTransform="matrix(3.0015 0 0 -3.0015 -128.105 -573.326)"
       gradientUnits="userSpaceOnUse"><stop
         offset="0"
         stop-color="#77767b"
         style="stop-color:#797979;stop-opacity:1"
         id="stop24" /><stop
         offset=".5"
         stop-color="#9a9996"
         style="stop-color:#989898;stop-opacity:1"
         id="stop25" /><stop
         offset="1"
         stop-color="#77767b"
         style="stop-color:#797979;stop-opacity:1"
         id="stop26" /></linearGradient><linearGradient
       id="s"
       x1="56.855"
       x2="71.127"
       y1="46.093"
       y2="46.093"
       gradientUnits="userSpaceOnUse"><stop
         offset="0"
         stop-color="#5e5c64"
         style="stop-color:#606060;stop-opacity:1"
         id="stop27" /><stop
         offset=".5"
         stop-color="#c0bfbc"
         style="stop-color:#bebebe;stop-opacity:1"
         id="stop28" /><stop
         offset="1"
         stop-color="#3d3846"
         style="stop-color:#3f3f3f;stop-opacity:1"
         id="stop29" /></linearGradient><linearGradient
       xlink:href="#d"
       id="t"
       x1="61"
       x2="67"
       y1="220"
       y2="220"
       gradientTransform="scale(-1 1)rotate(51.875 13.743 81.732)" /><linearGradient
       id="e"
       gradientUnits="userSpaceOnUse"><stop
         offset="0"
         stop-color="#b1b0b6"
         style="stop-color:#b3b3b3;stop-opacity:1"
         id="stop30" /><stop
         offset=".272"
         stop-color="#c0c0be"
         style="stop-color:#bfbfbf;stop-opacity:1"
         id="stop31" /><stop
         offset="1"
         stop-color="#6f667f"
         style="stop-color:#737373;stop-opacity:1"
         id="stop32" /></linearGradient><linearGradient
       id="u"
       x1="58"
       x2="70"
       y1="-211"
       y2="-211"
       gradientTransform="matrix(2.37866 0 0 -2.37866 -88.244 -469.48)"
       gradientUnits="userSpaceOnUse"><stop
         offset="0"
         stop-color="#77767b"
         id="stop33" /><stop
         offset=".5"
         stop-color="#c0bfbc"
         id="stop34" /><stop
         offset="1"
         stop-color="#77767b"
         id="stop35" /></linearGradient><linearGradient
       xlink:href="#e"
       id="y"
       x1="61"
       x2="67"
       y1="220"
       y2="220"
       gradientTransform="scale(-1 1)rotate(51.875 15.076 81.083)" /><linearGradient
       xlink:href="#f"
       id="z"
       x1="49.325"
       x2="53.605"
       y1="222.747"
       y2="230.159"
       gradientTransform="scale(-1 1)rotate(67.81 10.503 117.717)" /><linearGradient
       xlink:href="#g"
       id="p"
       x1="1.058"
       x2="15.875"
       y1="12.427"
       y2="12.427"
       gradientTransform="matrix(3.7796,0,0,3.7796,-69.681465,-8.89)"
       gradientUnits="userSpaceOnUse" /><linearGradient
       xlink:href="#g"
       id="l"
       x1="1.058"
       x2="15.875"
       y1="12.427"
       y2="12.427"
       gradientTransform="matrix(3.7796,0,0,3.7796,-69.681462,0)"
       gradientUnits="userSpaceOnUse" /><linearGradient
       xlink:href="#i"
       id="o"
       x1="36.988"
       x2="36.988"
       y1="3.938"
       y2="46.927"
       gradientUnits="userSpaceOnUse"
       gradientTransform="translate(-69.681465)" /><linearGradient
       xlink:href="#j"
       id="x"
       x1="63.992"
       x2="63.992"
       y1="11.008"
       y2="36.352"
       gradientUnits="userSpaceOnUse" /><radialGradient
       id="n"
       cx="105.224"
       cy="148.63"
       r="160"
       gradientTransform="matrix(-0.34149,-0.18581,-0.02812,0.28036,-28.234,62.479)"
       gradientUnits="userSpaceOnUse"><stop
         offset="0"
         stop-color="#e0371b"
         id="stop36" /><stop
         offset="1"
         stop-color="#f6d32d"
         id="stop37" /></radialGradient><radialGradient
       id="w"
       cx="-203.367"
       cy="-63.488"
       r="12"
       gradientTransform="matrix(0 -1.18935 -1.18935 0 -12.128 -205.452)"
       gradientUnits="userSpaceOnUse"><stop
         offset="0"
         stop-color="#f0f0f0"
         style="stop-color:#f0f0f0;stop-opacity:1"
         id="stop38" /><stop
         offset="1"
         stop-color="#9a999a"
         id="stop39" /></radialGradient><radialGradient
       id="A"
       cx="96.054"
       cy="219.449"
       r="2.415"
       gradientTransform="matrix(-2.48287 0 0 2.7121 268.232 -538.415)"
       gradientUnits="userSpaceOnUse"><stop
         offset="0"
         stop-color="#cfcecd"
         style="stop-color:#cecece;stop-opacity:1"
         id="stop40" /><stop
         offset="1"
         stop-color="#827b8f"
         style="stop-color:#858585;stop-opacity:1"
         id="stop41" /></radialGradient><radialGradient
       id="B"
       cx="96.741"
       cy="219.745"
       r="2.415"
       gradientTransform="matrix(2.35544 0 0 2.5729 -127.997 -507.96)"
       gradientUnits="userSpaceOnUse"><stop
         offset="0"
         stop-color="#92918f"
         style="stop-color:#919191;stop-opacity:1"
         id="stop42" /><stop
         offset="1"
         stop-color="#524d5b"
         style="stop-color:#545454;stop-opacity:1"
         id="stop43" /></radialGradient><linearGradient
       id="linearGradient1053-2"
       x1="68"
       x2="128"
       y1="62"
       y2="2"
       gradientTransform="matrix(0.91666687,0,0,0.91666687,13.143183,29.20117)"
       gradientUnits="userSpaceOnUse"><stop
         stop-color="#e0e4e9"
         offset="0"
         id="stop1-6"
         style="stop-color:#a19f9b;stop-opacity:1" /><stop
         stop-color="#fefeff"
         offset="1"
         id="stop2-7"
         style="stop-color:#c1bfbb;stop-opacity:1" /></linearGradient><linearGradient
       inkscape:collect="always"
       xlink:href="#linearGradient1053-2"
       id="linearGradient77"
       gradientUnits="userSpaceOnUse"
       gradientTransform="matrix(0.91666687,0,0,0.91666687,-57.832664,-5.7520986)"
       x1="68"
       y1="62"
       x2="67.998192"
       y2="12.698311" /><linearGradient
       inkscape:collect="always"
       xlink:href="#linearGradient80"
       id="linearGradient78"
       gradientUnits="userSpaceOnUse"
       gradientTransform="matrix(0.91666687,0,0,0.91666687,-57.832401,4.039061)"
       x1="68"
       y1="62"
       x2="128.00002"
       y2="62" /><linearGradient
       inkscape:collect="always"
       xlink:href="#linearGradient80"
       id="linearGradient91"
       gradientUnits="userSpaceOnUse"
       gradientTransform="matrix(0.91666687,0,0,0.91666687,-57.832401,-5.7519535)"
       x1="68"
       y1="62"
       x2="128.00002"
       y2="62" /><linearGradient
       inkscape:collect="always"
       xlink:href="#linearGradient108"
       id="linearGradient92"
       gradientUnits="userSpaceOnUse"
       gradientTransform="matrix(0.91666687,0,0,0.91666687,-57.831429,1.3794245)"
       x1="68"
       y1="62"
       x2="128.00002"
       y2="62" /><linearGradient
       inkscape:collect="always"
       xlink:href="#linearGradient115"
       id="linearGradient109"
       gradientUnits="userSpaceOnUse"
       gradientTransform="matrix(0.91666687,0,0,0.91666687,-57.831429,-8.3538964)"
       x1="68"
       y1="62"
       x2="128.00002"
       y2="62" /></defs><path
     id="path74"
     style="fill:#5d5c63;fill-opacity:1"
     d="m 4.499028,8.623047 v 46.753906 c 0,1.523501 1.2265,2.75 2.75,2.75 h 49.501944 c 1.5235,0 2.75,-1.226499 2.75,-2.75 V 8.623047 c 0,-1.5235 -1.2265,-2.75 -2.75,-2.75 H 7.249028 c -1.5235,0 -2.75,1.2265 -2.75,2.75 z" /><path
     id="path92"
     style="fill:url(#linearGradient92)"
     d="m 59.500972,54.636718 c 0,1.523502 -1.2265,2.75 -2.75,2.75 h -49.5 c -1.5235,0 -2.75,-1.226498 -2.75,-2.75 v 0.826172 c 0,1.523502 1.2265,2.75 2.75,2.75 h 49.5 c 1.5235,0 2.75,-1.226498 2.75,-2.75 z" /><path
     fill="#f6f5f4"
     d="M 39.274709,53.347103 7.3596788,30.870362 C 5.8852206,29.833977 5.5610975,27.849062 6.6330295,26.424981 L 18.725348,10.31711 35.945647,7.691553 60.545982,25.016075 c 1.475051,1.038602 1.798158,3.022007 0.729678,4.447539 L 43.867115,52.648173 c -1.070938,1.423219 -3.117355,1.737532 -4.592406,0.69893 m 0,0"
     style="display:inline;stroke-width:0.582744"
     id="path89" /><g
     style="display:inline"
     id="g51"
     transform="translate(0,-0.63413838)"><path
       fill="url(#m)"
       d="m -111.871,30.504 h 88 v 46 h -88 z m 0,0"
       style="fill:url(#m)"
       transform="matrix(0.57373,0,0,0.5919,70.487,10.008)"
       id="path45" /><path
       fill-opacity="0.137"
       d="m -23.871,72.504 -0.137,4 h -87.742 l -0.121,-4 z m 0,0"
       style="display:inline"
       transform="matrix(0.57373,0,0,0.5919,70.487,10.008)"
       id="path46" /><path
       fill="#f6f5f4"
       fill-opacity="0.598"
       d="M -24.18,73.473 H -95.94 L -24.7,74.5 c 0,0 0.52,-0.773 0.52,-1.027 m 0,0"
       style="display:inline"
       transform="matrix(0.57373,0,0,0.5919,70.487,10.008)"
       id="path47" /><path
       fill-opacity="0.171"
       d="m -25.098,74.992 h -72.605 l 71.266,1.024 c 0.554,-0.29 1.132,-0.63 1.34,-1.024 m 0,0"
       style="display:inline"
       transform="matrix(0.57373,0,0,0.5919,70.487,10.008)"
       id="path48" /><path
       fill="#f6f5f4"
       d="m -102.094,33.973 52.239,-37.1642387 c 2.41,-1.953 5.898,-1.614 7.812,0.758 L -20.379,24.343761 -23.727,48.504 -63.992,81.074 c -2.414,1.953 -5.899,1.613 -7.817,-0.754 l -31.18,-38.547 c -1.913,-2.37 -1.519,-5.847 0.895,-7.8"
       style="display:inline"
       id="path49"
       transform="matrix(0.57373,0,0,0.5919,70.487,10.008)"
       sodipodi:nodetypes="ccccccccc" /><path
       fill="url(#n)"
       d="m -98.602,38.289 31.149,38.508 40.266,-32.57 -6,-7.422 c -1.918,-2.371 -1.52,-5.852 0.89,-7.801 l 7.617,-6.16 -21.683,-26.814 z m 0,0"
       style="display:inline;fill:url(#n)"
       transform="matrix(0.57373,0,0,0.5919,70.487,10.008)"
       id="path50" /><path
       fill-opacity="0.225"
       d="m -81.281,68.59 1.98,2.789 h 27.285 l 3.414,-2.887 z m 0,0"
       style="display:inline"
       transform="matrix(0.57373,0,0,0.5919,70.487,10.008)"
       id="path51" /></g><path
     id="rect2"
     style="fill:url(#linearGradient77);stroke-width:3.46465"
     d="M 7.249028,5.8880227 H 56.74979 c 1.5235,0 2.75,1.2265003 2.75,2.7500007 V 48.332 c 0,1.523501 -1.2265,2.750001 -2.75,2.750001 H 7.249028 c -1.5235,0 -2.75,-1.2265 -2.75,-2.750001 V 8.6380234 c 0,-1.5235004 1.2265,-2.7500007 2.75,-2.7500007 z"
     sodipodi:nodetypes="sssssssss" /><path
     id="rect72"
     style="fill:url(#linearGradient78)"
     d="m 59.500976,55.376953 c 0,1.523501 -1.2265,2.75 -2.75,2.75 H 7.2490244 c -1.5235,0 -2.75,-1.226499 -2.75,-2.75 v 2.746094 c 0,1.523501 1.2265,2.75 2.75,2.75 H 56.750976 c 1.5235,0 2.75,-1.226499 2.75,-2.75 z" /><path
     id="path108"
     style="fill:url(#linearGradient109)"
     d="m 59.500972,44.903397 c 0,1.523502 -1.2265,2.75 -2.75,2.75 h -49.5 c -1.5235,0 -2.75,-1.226498 -2.75,-2.75 v 0.826172 c 0,1.523502 1.2265,2.75 2.75,2.75 h 49.5 c 1.5235,0 2.75,-1.226498 2.75,-2.75 z" /><path
     id="path91"
     style="fill:url(#linearGradient91)"
     d="m 59.500976,45.585938 c 0,1.523501 -1.2265,2.75 -2.75,2.75 H 7.2490244 c -1.5235,0 -2.75,-1.226499 -2.75,-2.75 v 2.746094 c 0,1.523501 1.2265,2.75 2.75,2.75 H 56.750976 c 1.5235,0 2.75,-1.226499 2.75,-2.75 z" /><g
     style="display:inline"
     id="g72"><path
       fill="#77767b"
       stroke="url(#q)"
       stroke-linecap="round"
       stroke-width="6.726"
       d="m57.66 210.34 34.78-25.779"
       style="fill:#797979;fill-opacity:1;stroke:url(#q)"
       transform="translate(-2.55 -95.763)scale(.53278)"
       id="path53" /><path
       d="M69.938 43.121s-1.61 4.348-5.84 4.777c-4.235.426-6.055-2.398-6.055-2.398l-1.188 2.379s2.489 3.309 7.243 3.031c4.75-.277 6.882-5.363 7.027-5.41zm0 0"
       style="display:inline"
       transform="translate(2.882 .471)scale(.44796)"
       id="path54" /><path
       d="M69.938 47.879s-1.715 4.348-5.946 4.777c-4.234.426-5.949-2.398-5.949-2.398l-1.188 2.379s2.383 3.308 7.137 3.031c4.75-.277 6.988-5.367 7.133-5.41zm0-9.516s-1.61 4.348-5.84 4.778c-4.235.425-6.055-2.399-6.055-2.399l-1.188 2.38s2.489 3.308 7.243 3.03c4.75-.273 6.882-5.363 7.027-5.41zm0 0"
       style="display:inline"
       transform="translate(2.882 .471)scale(.44796)"
       id="path55" /><path
       fill="url(#r)"
       d="M63.992 36.352c-9.949 0-18.012 8.066-18.012 18.011v5.63C45.98 69.936 54.043 78 63.992 78 73.938 78 82 69.938 82 59.992v-5.629c0-9.945-8.062-18.011-18.008-18.011m0 0"
       style="fill:url(#r)"
       transform="translate(2.882 .471)scale(.44796)"
       id="path56" /><path
       fill="#deddda"
       d="M31.548 16.88a7.704 7.704 0 1 0 0 15.407 7.704 7.704 0 0 0 0-15.408m0 0"
       id="path57" /><path
       fill="url(#s)"
       d="m58.043 31.227-1.188 2.378 1.188 2.38-1.188 2.378 1.188 2.38-1.188 2.378 1.188 2.379-1.188 2.379 1.188 2.379-1.188 2.379v1.187a7.133 7.133 0 0 0 10.704 6.18 7.13 7.13 0 0 0 3.566-6.18v-3.566l-1.187-2.38 1.187-2.378-1.187-2.379 1.187-2.379-1.187-2.379 1.187-2.379-1.187-2.379 1.187-2.378-1.187-2.38Zm0 0"
       style="fill:url(#s)"
       transform="translate(2.882 .471)scale(.44796)"
       id="path58" /><path
       fill="#fff"
       fill-opacity=".382"
       d="M34.212 15.525s-.721 1.947-2.616 2.14c-1.897.192-2.713-1.075-2.713-1.075l-.532 1.066s1.115 1.482 3.245 1.36c2.127-.124 3.083-2.405 3.147-2.426zm0 0"
       id="path59" /><path
       fill="#241f31"
       fill-opacity=".339"
       d="M71.125 35.984c-.145.047-2.277 5.137-7.027 5.414-4.754.274-7.243-3.035-7.243-3.035l1.188 2.38s1.82 2.823 6.055 2.398c4.23-.43 5.84-4.778 5.84-4.778l.05.102zm0 0"
       style="display:inline"
       transform="translate(2.882 .471)scale(.44796)"
       id="path60" /><path
       fill="#241f31"
       fill-opacity=".339"
       d="M34.743 20.853c-.064.021-1.02 2.301-3.147 2.424-2.13.124-3.245-1.358-3.245-1.358l.532 1.065s.816 1.266 2.713 1.073c1.895-.19 2.616-2.138 2.616-2.138l.022.045zm0 0"
       id="path61" /><path
       fill="#241f31"
       fill-opacity=".339"
       d="M34.743 18.722c-.064.02-1.02 2.3-3.147 2.423-2.13.125-3.245-1.358-3.245-1.358l.532 1.066s.816 1.265 2.713 1.073c1.895-.191 2.616-2.139 2.616-2.139l.022.046zm0 0"
       id="path62" /><path
       fill="#77767b"
       stroke="url(#t)"
       stroke-linecap="round"
       stroke-width="6.726"
       d="M69.003 210.133 35.68 184.407"
       style="display:inline;fill:#797979;fill-opacity:1;stroke:url(#t)"
       transform="translate(-2.55 -95.763)scale(.53278)"
       id="path63" /><path
       fill="url(#u)"
       d="M78.262 32.418c0-7.883-6.39-14.273-14.27-14.273-7.883 0-14.273 6.39-14.273 14.273s6.39 14.27 14.273 14.27c7.88 0 14.27-6.387 14.27-14.27m0 0"
       style="fill:url(#u)"
       transform="translate(2.882 .471)scale(.44796)"
       id="path64" /><path
       fill="url(#w)"
       d="M63.992 11.008c-7.883 0-14.273 6.39-14.273 14.273s6.39 14.274 14.273 14.274c7.88 0 14.27-6.39 14.27-14.274s-6.39-14.273-14.27-14.273m0 0"
       style="fill:url(#w)"
       transform="translate(2.882 .471)scale(.44796)"
       id="path65" /><path
       fill="#77767b"
       d="M25.165 14.676q-.008.157-.01.317a6.393 6.393 0 0 0 6.393 6.392 6.39 6.39 0 0 0 6.392-6.392 4 4 0 0 0-.01-.217 6.39 6.39 0 0 1-6.382 6.077 6.396 6.396 0 0 1-6.383-6.177m0 0"
       id="path66" /><path
       fill="#c0bfbc"
       d="M63.992 11.008c-6.812 0-12.336 5.523-12.336 12.336 0 6.812 5.524 12.336 12.336 12.336s12.332-5.524 12.332-12.336-5.52-12.336-12.332-12.336m0 0"
       style="fill:url(#x)"
       transform="translate(2.882 .471)scale(.44796)"
       id="path67" /><path
       fill="#77767b"
       stroke="url(#y)"
       stroke-linecap="round"
       stroke-width="6.726"
       d="m92.32 227.56-17.792-13.962"
       style="fill:#797979;fill-opacity:1;stroke:url(#y)"
       transform="translate(-2.55 -95.763)scale(.53278)"
       id="path68" /><path
       fill="#77767b"
       stroke="url(#z)"
       stroke-linecap="round"
       stroke-width="6.726"
       d="m35.559 227.95 17.867-13.862"
       style="fill:#797979;fill-opacity:1;stroke:url(#z)"
       transform="translate(-2.55 -95.763)scale(.53278)"
       id="path69" /><path
       fill="url(#A)"
       d="M26.164 56.594a3.69 3.69 0 0 0 3.695 3.691c1.164 0 2.254-1.484 2.254-2.8a3.7 3.7 0 0 0-3.695-3.696c-1.125 0-2.254 1.172-2.254 2.805m0 0"
       style="fill:url(#A)"
       transform="translate(2.882 .471)scale(.44796)"
       id="path70" /><path
       fill="#9c98a2"
       d="M48.417 25.543c0 1-.812 1.81-1.811 1.81-.573 0-1.106-.725-1.106-1.373 0-1 .812-1.811 1.81-1.811.552 0 1.107.574 1.107 1.374m0 0"
       id="path71" /><path
       fill="url(#B)"
       d="M101.648 56.508a3.503 3.503 0 0 1-3.503 3.504c-1.106 0-2.141-1.407-2.141-2.657a3.504 3.504 0 0 1 3.508-3.503c1.066 0 2.136 1.109 2.136 2.656m0 0"
       style="fill:url(#B)"
       transform="translate(2.882 .471)scale(.44796)"
       id="path72" /></g></svg>
