<?xml version="1.0" encoding="UTF-8" standalone="no"?>
<svg
   width="64"
   height="64"
   version="1.1"
   id="svg45"
   sodipodi:docname="com.cassidyjames.butler.svg"
   inkscape:version="1.4.2 (ebf0e940d0, 2025-05-08)"
   xml:space="preserve"
   xmlns:inkscape="http://www.inkscape.org/namespaces/inkscape"
   xmlns:sodipodi="http://sodipodi.sourceforge.net/DTD/sodipodi-0.dtd"
   xmlns:xlink="http://www.w3.org/1999/xlink"
   xmlns="http://www.w3.org/2000/svg"
   xmlns:svg="http://www.w3.org/2000/svg"><sodipodi:namedview
     id="namedview45"
     pagecolor="#505050"
     bordercolor="#eeeeee"
     borderopacity="1"
     inkscape:showpageshadow="0"
     inkscape:pageopacity="0"
     inkscape:pagecheckerboard="0"
     inkscape:deskcolor="#505050"
     inkscape:zoom="3.0898438"
     inkscape:cx="80.101138"
     inkscape:cy="8.9001264"
     inkscape:window-width="1920"
     inkscape:window-height="1018"
     inkscape:window-x="0"
     inkscape:window-y="0"
     inkscape:window-maximized="1"
     inkscape:current-layer="svg45" /><defs
     id="defs23"><linearGradient
       xlink:href="#a"
       id="g"
       x1="48.242"
       x2="80.242"
       y1="24"
       y2="24"
       gradientTransform="matrix(0.54119,0,0,0.54119,-2.635,-2.807)" /><linearGradient
       id="a"
       gradientUnits="userSpaceOnUse"><stop
         offset="0"
         stop-color="#c9c9c9"
         id="stop1" /><stop
         offset=".052"
         stop-color="#f6f6f6"
         id="stop2" /><stop
         offset=".117"
         stop-color="#e0e0e0"
         id="stop3" /><stop
         offset=".887"
         stop-color="#dbdbdb"
         id="stop4" /><stop
         offset=".945"
         stop-color="#f6f6f6"
         id="stop5" /><stop
         offset="1"
         stop-color="#c4c4c4"
         id="stop6" /></linearGradient><linearGradient
       xlink:href="#a"
       id="h"
       x1="56.08"
       x2="72.709"
       y1="247.91"
       y2="247.91"
       gradientTransform="matrix(-0.54119,0,0,0.54119,68.868,-95.891)" /><linearGradient
       xlink:href="#a"
       id="i"
       x1="53.354"
       x2="69.983"
       y1="75.907"
       y2="75.907"
       gradientTransform="matrix(0.54119,0,0,0.54119,-2.635,-2.807)" /><linearGradient
       xlink:href="#a"
       id="k"
       x1="56.322"
       x2="72.951"
       y1="75.907"
       y2="75.907"
       gradientTransform="matrix(0.54119,0,0,0.54119,-2.635,-2.807)" /><linearGradient
       xlink:href="#b"
       id="m"
       x1="46.362"
       x2="32.483"
       y1="98.864"
       y2="51.725"
       gradientTransform="matrix(0.54119,0,0,0.54034,-2.635,-2.76)" /><linearGradient
       id="b"
       gradientUnits="userSpaceOnUse"><stop
         offset="0"
         stop-color="#5e5c64"
         id="stop7" /><stop
         offset="1"
         stop-color="#3d3846"
         id="stop8" /></linearGradient><linearGradient
       xlink:href="#b"
       id="o"
       x1="96.622"
       x2="103.48"
       y1="91.228"
       y2="53.788"
       gradientTransform="matrix(0.54119,0,0,0.54119,-2.635,-2.807)" /><linearGradient
       xlink:href="#c"
       id="r"
       x1="25.764"
       x2="30.945"
       y1="208.47"
       y2="237.74"
       gradientTransform="matrix(-0.54119,0,0,0.54119,66.768,-95.891)" /><linearGradient
       id="c"
       gradientUnits="userSpaceOnUse"><stop
         offset="0"
         stop-color="#54cef7"
         stop-opacity="0"
         id="stop9" /><stop
         offset="1"
         stop-color="#1e5ab1"
         id="stop10" /></linearGradient><linearGradient
       id="d"
       gradientUnits="userSpaceOnUse"><stop
         offset="0"
         stop-color="#ace7fb"
         id="stop11" /><stop
         offset="1"
         stop-color="#0dafe3"
         id="stop12" /></linearGradient><linearGradient
       xlink:href="#c"
       id="u"
       x1="26.512"
       x2="31.672"
       y1="39.72"
       y2="64.99"
       gradientTransform="matrix(0.54119,0,0,0.54119,-2.635,-2.807)" /><linearGradient
       id="e"
       gradientUnits="userSpaceOnUse"><stop
         offset="0"
         stop-color="#fff"
         stop-opacity=".184"
         id="stop13" /><stop
         offset="1"
         stop-color="#fff"
         stop-opacity="0"
         id="stop14" /></linearGradient><linearGradient
       id="C"
       x1="64.242"
       x2="64.242"
       y1="40"
       y2="56"
       gradientTransform="matrix(0.54119,0,0,0.54119,-2.635,-2.807)"
       gradientUnits="userSpaceOnUse"><stop
         offset="0"
         stop-color="#54cef7"
         stop-opacity="0"
         id="stop15" /><stop
         offset="1"
         stop-color="#1e5ab1"
         stop-opacity=".667"
         id="stop16" /></linearGradient><linearGradient
       id="f"
       x1="32.001"
       x2="32.401"
       y1="3.969"
       y2="59.971"
       gradientUnits="userSpaceOnUse"
       gradientTransform="translate(111.70832)"><stop
         offset="0"
         stop-color="#312e38"
         id="stop17" /><stop
         offset="1"
         stop-color="#4b4950"
         id="stop18" /></linearGradient><radialGradient
       id="q"
       cx="61.052"
       cy="203.55"
       r="16"
       gradientTransform="matrix(-0.03191,-0.54051,-2.8674,0.16929,619.5,15.76)"
       gradientUnits="userSpaceOnUse"><stop
         offset="0"
         stop-color="#95e1f9"
         id="stop19" /><stop
         offset="1"
         stop-color="#18bcf2"
         id="stop20" /></radialGradient><radialGradient
       xlink:href="#d"
       id="s"
       cx="65.765"
       cy="202.6"
       r="16"
       gradientTransform="matrix(0.03191,-0.54051,2.8674,0.16929,-555.24,15.76)" /><radialGradient
       xlink:href="#e"
       id="w"
       cx="78.551"
       cy="212.4"
       r="9.496"
       gradientTransform="matrix(0.80539,0.0175,-0.01108,0.51021,-20.903,-92.72)" /><radialGradient
       xlink:href="#e"
       id="x"
       cx="78.551"
       cy="212.4"
       r="9.496"
       gradientTransform="matrix(0.7826,0.19102,-0.12101,0.49577,4.442,-99.96)" /><radialGradient
       id="z"
       cx="78.551"
       cy="212.4"
       r="9.496"
       gradientTransform="matrix(-1.37,0.0117,0.01886,0.34107,126.96,-55.99)"
       gradientUnits="userSpaceOnUse"><stop
         offset="0"
         stop-color="#fff"
         stop-opacity=".306"
         id="stop21" /><stop
         offset="1"
         stop-color="#fff"
         stop-opacity="0"
         id="stop22" /></radialGradient><radialGradient
       xlink:href="#e"
       id="A"
       cx="78.551"
       cy="212.4"
       r="9.496"
       gradientTransform="matrix(-1.9527,0,0.16268,0.36131,142.56,-56.113)" /><radialGradient
       xlink:href="#d"
       id="B"
       cx="64"
       cy="204"
       r="16"
       gradientTransform="matrix(0,0.77314,-0.81178,0,197.74,-34.97)" /><filter
       id="l"
       width="1.2390627"
       height="1.2034378"
       x="-0.11953135"
       y="-0.1017189"
       color-interpolation-filters="sRGB"><feGaussianBlur
         stdDeviation="1.186"
         id="feGaussianBlur22" /></filter><filter
       id="n"
       width="1.2354927"
       height="1.211975"
       x="-0.11774634"
       y="-0.10598749"
       color-interpolation-filters="sRGB"><feGaussianBlur
         stdDeviation="1.186"
         id="feGaussianBlur23" /></filter><filter
       id="filter1057"
       x="-0.026999999"
       y="-0.026999999"
       width="1.054"
       height="1.054"
       color-interpolation-filters="sRGB"><feGaussianBlur
         stdDeviation="0.61875"
         id="feGaussianBlur1" /></filter><linearGradient
       id="linearGradient1053"
       x1="-127"
       x2="-127"
       y1="60"
       y2="5.010016"
       gradientTransform="matrix(1.0000071,0,0,1.0000071,221.5549,50.29398)"
       gradientUnits="userSpaceOnUse"><stop
         stop-color="#dee0e2"
         offset="0"
         id="stop1-5"
         style="stop-color:#4b4950;stop-opacity:1" /><stop
         stop-color="#f1f3f5"
         stop-opacity=".99608"
         offset="1"
         id="stop2-6"
         style="stop-color:#312e38;stop-opacity:1" /></linearGradient><linearGradient
       id="linearGradient1053-3"
       x1="68"
       x2="128.00024"
       y1="62"
       y2="62"
       gradientTransform="matrix(0.91666687,0,0,0.91666687,-57.833581,2.6649976)"
       gradientUnits="userSpaceOnUse"><stop
         stop-color="#e0e4e9"
         offset="0"
         id="stop1-6"
         style="stop-color:#3d3945;stop-opacity:1" /><stop
         stop-color="#e0e4e9"
         offset="0.05058443"
         id="stop25"
         style="stop-color:#595762;stop-opacity:1" /><stop
         stop-color="#e0e4e9"
         offset="0.1344365"
         id="stop24"
         style="stop-color:#3d3945;stop-opacity:1;" /><stop
         stop-color="#e0e4e9"
         offset="0.86262554"
         id="stop23"
         style="stop-color:#3d3945;stop-opacity:1;" /><stop
         stop-color="#e0e4e9"
         offset="0.95196033"
         id="stop26"
         style="stop-color:#5a5761;stop-opacity:0.98823529" /><stop
         stop-color="#fefeff"
         offset="1"
         id="stop2-7"
         style="stop-color:#3d3945;stop-opacity:1" /></linearGradient></defs><rect
     x="4.4996166"
     y="4.4996166"
     width="55.000767"
     height="55.000767"
     ry="2.7500007"
     fill="url(#linearGradient1053)"
     stroke-width="3.46465"
     id="rect2"
     style="fill:#5d5c63;fill-opacity:1" /><path
     id="rect2-5"
     style="fill:url(#linearGradient1053-3)"
     d="M 59.5 54.003906 C 59.5 55.527407 58.2735 56.753906 56.75 56.753906 L 7.25 56.753906 C 5.7264996 56.753906 4.5 55.527407 4.5 54.003906 L 4.5 56.75 C 4.5 58.2735 5.7264996 59.5 7.25 59.5 L 56.75 59.5 C 58.2735 59.5 59.5 58.2735 59.5 56.75 L 59.5 54.003906 z " /><g
     id="g1"
     transform="translate(-0.55300035,-2.2091941)"><path
       fill="#deddda"
       d="m 14.814,26.37 13.043,-5.682 9.08,0.012 8.456,4.695 -3.18,15.73 -5.815,13.532 -8.01,-0.51 -5.08,-10.23 -1.146,-7.366 z"
       id="path24" /><path
       fill="url(#h)"
       d="M 38.595,25.396 36.84,24.487 h -7.382 v 31.008 l 3.01,2.213 6.127,-3.452 z"
       id="path25"
       style="fill:url(#h)" /><path
       fill="url(#i)"
       d="m 26.141,25.244 1.75,-0.7 7.408,-0.057 V 55.495 L 32.43,57.71 26.162,54.257 Z"
       id="path26"
       style="fill:url(#i)" /><path
       fill="url(#k)"
       d="m 27.769,24.508 9.137,-0.021 v 31.008 l -4.486,2.342 -4.65,-3.58 z"
       id="path27"
       style="fill:url(#k)" /><path
       fill-opacity="0.424"
       d="M 20.423,29.873 C 22.556,39.579 25.368,49.07 32.401,57.856 25.399,55.44 19.125,52.712 14.692,47.427 l 7.545,-7.707 -10.58,1.797 C 9.529,39.323 8.901,36.933 8.588,34.504 Z"
       filter="url(#l)"
       id="path28" /><path
       fill-opacity="0.086"
       d="m 14.814,26.37 13.043,-5.682 9.08,0.012 8.456,4.695 -0.41,7.541 -8.059,-3.228 -9,0.738 -9.373,3.843 z"
       id="path29" /><path
       fill="url(#m)"
       d="m 20.423,27.709 c 2.133,10.423 4.945,20.615 11.978,30.05 C 25.399,55.165 19.125,52.235 14.692,46.56 l 7.545,-8.276 -10.58,1.93 C 9.529,37.858 8.901,35.291 8.588,32.682 Z"
       id="path30"
       style="fill:url(#m)" /><path
       fill-opacity="0.424"
       d="M 45.233,31.001 C 43.1,40.69 39.377,49.087 32.344,57.857 c 7.002,-2.41 13.635,-5 18.071,-10.277 l -7.608,-4.621 9.707,0.608 c 2.129,-2.192 3.691,-6.462 4.004,-8.888 z"
       filter="url(#n)"
       id="path31" /><path
       fill="#097ba0"
       d="m 34.297,32.363 a 2.16,2.16 0 0 1 -2.165,2.161 2.161,2.161 0 1 1 0,-4.322 c 1.197,0 2.165,0.966 2.165,2.161 m 0,8.645 a 2.16,2.16 0 0 1 -2.165,2.161 2.161,2.161 0 1 1 0,-4.322 c 1.197,0 2.165,0.966 2.165,2.161 m 0,8.646 a 2.16,2.16 0 0 1 -2.165,2.161 2.161,2.161 0 1 1 0,-4.322 c 1.197,0 2.165,0.966 2.165,2.161"
       id="path32" /><path
       fill="#0dafe3"
       d="m 34.297,31.829 a 2.163,2.163 0 0 1 -2.165,2.165 2.164,2.164 0 1 1 2.165,-2.165"
       id="path33" /><path
       fill="url(#o)"
       d="M 45.233,28.926 C 43.1,39.363 39.377,48.409 32.344,57.856 39.346,55.26 45.979,52.469 50.415,46.785 l -7.608,-4.978 9.707,0.655 C 54.643,40.1 56.205,35.5 56.518,32.887 Z"
       id="path34"
       style="fill:url(#o)" /><path
       fill="#0dafe3"
       d="m 34.297,40.488 a 2.164,2.164 0 0 1 -2.165,2.165 2.163,2.163 0 0 1 -2.165,-2.165 2.165,2.165 0 1 1 4.33,0 m 0,8.659 a 2.163,2.163 0 0 1 -2.165,2.165 2.163,2.163 0 0 1 -2.165,-2.165 2.165,2.165 0 1 1 4.33,0"
       id="path35" /></g><g
     id="g45"
     transform="translate(-0.132)"><path
       fill="url(#g)"
       d="m 27.803,10.181 h 8.659 a 4.33,4.33 0 0 1 4.33,4.33 v 8.659 a 4.33,4.33 0 0 1 -4.33,4.329 h -8.659 a 4.33,4.33 0 0 1 -4.33,-4.33 V 14.51 a 4.33,4.33 0 0 1 4.33,-4.329"
       id="path23"
       style="fill:url(#g)" /><path
       fill="url(#q)"
       d="m 40.791,14.511 v 8.659 a 6.4,6.4 0 0 0 4.02,5.938 l 9.588,3.835 a 5.862,5.862 0 0 0 8.04,-5.444 V 10.181 a 5.86,5.86 0 0 0 -8.04,-5.443 l -9.587,3.835 a 6.4,6.4 0 0 0 -4.021,5.938"
       id="path36"
       style="fill:url(#q)" /><path
       fill="url(#r)"
       d="m 40.791,14.511 v 8.659 a 6.4,6.4 0 0 0 4.02,5.938 l 9.588,3.835 a 5.862,5.862 0 0 0 8.04,-5.444 V 10.181 a 5.86,5.86 0 0 0 -8.04,-5.443 l -9.587,3.835 a 6.4,6.4 0 0 0 -4.021,5.938"
       id="path37"
       style="fill:url(#r)" /><path
       fill="url(#s)"
       d="m 23.473,14.511 v 8.659 a 6.4,6.4 0 0 1 -4.019,5.938 L 9.865,32.943 A 5.862,5.862 0 0 1 1.825,27.499 V 10.181 a 5.86,5.86 0 0 1 8.04,-5.443 l 9.59,3.835 a 6.4,6.4 0 0 1 4.018,5.938"
       id="path38"
       style="fill:url(#s)" /><path
       fill="url(#u)"
       d="m 23.473,14.511 v 8.659 a 6.4,6.4 0 0 1 -4.019,5.938 L 9.865,32.943 A 5.862,5.862 0 0 1 1.825,27.499 V 10.181 a 5.86,5.86 0 0 1 8.04,-5.443 l 9.59,3.835 a 6.4,6.4 0 0 1 4.018,5.938"
       id="path39"
       style="fill:url(#u)" /><path
       fill="url(#w)"
       d="m 48.414,15.12 -10.278,1.355 1.021,0.478 8.243,0.664 z"
       id="path40"
       style="fill:url(#w)" /><path
       fill="url(#x)"
       d="m 48.833,20.305 -10.327,-0.896 1.068,0.976 7.728,2.138 z"
       id="path41"
       style="fill:url(#x)" /><path
       fill="url(#z)"
       d="m 9.05,16.098 17.482,0.907 -1.737,0.32 -14.02,0.443 z"
       id="path42"
       style="fill:url(#z)" /><path
       fill="url(#A)"
       d="m 6.35,21.202 19.612,-1.2 -1.398,0.652 -16.21,2.032 z"
       id="path43"
       style="fill:url(#A)" /><path
       fill="url(#B)"
       d="m 27.803,10.181 h 8.659 a 4.33,4.33 0 0 1 4.33,4.33 v 8.659 a 4.33,4.33 0 0 1 -4.33,4.329 h -8.659 a 4.33,4.33 0 0 1 -4.33,-4.33 V 14.51 a 4.33,4.33 0 0 1 4.33,-4.329"
       id="path44"
       style="fill:url(#B)" /><path
       fill="url(#C)"
       d="m 27.803,10.181 h 8.659 a 4.33,4.33 0 0 1 4.33,4.33 v 8.659 a 4.33,4.33 0 0 1 -4.33,4.329 h -8.659 a 4.33,4.33 0 0 1 -4.33,-4.33 V 14.51 a 4.33,4.33 0 0 1 4.33,-4.329"
       id="path45"
       style="fill:url(#C)" /></g></svg>
