<?xml version="1.0" encoding="UTF-8" standalone="no"?>
<svg
   xml:space="preserve"
   width="64"
   height="64"
   version="1.1"
   id="svg3"
   sodipodi:docname="com.theappgineer.community_remote.svg"
   inkscape:version="1.4.2 (ebf0e940d0, 2025-05-08)"
   xmlns:inkscape="http://www.inkscape.org/namespaces/inkscape"
   xmlns:sodipodi="http://sodipodi.sourceforge.net/DTD/sodipodi-0.dtd"
   xmlns="http://www.w3.org/2000/svg"
   xmlns:svg="http://www.w3.org/2000/svg"><sodipodi:namedview
     id="namedview3"
     pagecolor="#505050"
     bordercolor="#eeeeee"
     borderopacity="1"
     inkscape:showpageshadow="0"
     inkscape:pageopacity="0"
     inkscape:pagecheckerboard="0"
     inkscape:deskcolor="#505050"
     inkscape:zoom="2.9648437"
     inkscape:cx="94.102768"
     inkscape:cy="9.6126483"
     inkscape:window-width="1920"
     inkscape:window-height="996"
     inkscape:window-x="0"
     inkscape:window-y="0"
     inkscape:window-maximized="1"
     inkscape:current-layer="svg3" /><defs
     id="defs2"><linearGradient
       id="a"
       x1="7.937"
       x2="7.937"
       y1="15.081"
       y2="1.852"
       gradientTransform="matrix(3.7796,0,0,3.7796,-11.467722,-74.877472)"
       gradientUnits="userSpaceOnUse"><stop
         offset="0"
         stop-color="#363636"
         style="stop-color:#ead438;stop-opacity:1"
         id="stop1" /><stop
         offset="1"
         stop-color="#6c6c6c"
         style="stop-color:#f5e997;stop-opacity:1"
         id="stop2" /></linearGradient><filter
       id="b"
       width="1.2942312"
       height="1.2937507"
       x="-0.14711562"
       y="-0.14687534"
       style="color-interpolation-filters:sRGB"><feGaussianBlur
         stdDeviation="3.498"
         id="feGaussianBlur2" /></filter></defs><circle
     style="opacity:1;fill:#f5e997;stroke-width:5.67736;stroke-linecap:round;stroke-linejoin:round;fill-opacity:1"
     id="path1"
     cx="32"
     cy="32"
     r="30" /><path
     d="M15.55 59.84c-4.368-.507-8.386-3.356-10.315-7.315-.784-1.61-1.134-2.846-1.325-4.68-.325-3.111.574-6.43 2.447-9.034.724-1.007 17.95-18.215 18.498-18.48a4.8 4.8 0 0 1 2.454-.46c1.595.145 1.624.17 9.025 7.57 7.401 7.402 7.426 7.43 7.57 9.026a4.8 4.8 0 0 1-.46 2.454c-.264.548-17.473 17.774-18.48 18.498a13.2 13.2 0 0 1-5.987 2.375c-1.529.208-1.975.214-3.426.046m4.018-3.089c1.18-.278 2.647-.957 3.68-1.703.448-.324 4.618-4.397 9.267-9.052l8.454-8.463v-1.32l-6.704-6.703-6.703-6.703h-1.32L17.78 31.26c-4.655 4.65-8.728 8.82-9.051 9.267-1.337 1.85-1.97 3.857-1.952 6.187.053 6.692 6.274 11.574 12.792 10.037m-6.28-6.263c-.754-.754-.425-2.048.607-2.389.387-.127.54-.113.955.09 1.45.708 1.016 2.685-.59 2.685-.472 0-.662-.075-.972-.386m8.624.18c-1.02-.715-.793-2.103.42-2.563 1.106-.42 2.207.927 1.649 2.018-.367.717-1.426.996-2.07.545m-4.398-4.407c-.316-.316-.386-.497-.386-1 0-.51.07-.684.402-1.017.367-.367.462-.397 1.068-.339.872.084 1.188.4 1.272 1.272.059.607.029.702-.338 1.068-.333.333-.508.402-1.017.402-.503 0-.685-.07-1-.386m8.59.217c-.782-.616-.866-1.495-.206-2.155.368-.368.55-.45 1.004-.45.455 0 .636.082 1.004.45.648.648.596 1.504-.128 2.09-.33.268-1.366.308-1.675.065m-12.5-4.176c-.533-.333-.703-.651-.703-1.315 0-1.114 1.313-1.74 2.249-1.073 1.429 1.017-.061 3.318-1.547 2.388m8.453.038c-.41-.202-.834-.864-.834-1.3 0-.334.361-.957.689-1.187.161-.113.524-.206.806-.206.406 0 .605.093.961.45.738.737.578 1.781-.345 2.259-.48.248-.748.245-1.277-.016m-4.271-4.24c-.524-.36-.648-.596-.65-1.228-.003-1.342 1.38-1.94 2.318-1.003.368.368.449.549.449 1.003 0 .455-.081.636-.45 1.004-.514.515-1.126.597-1.667.224m14.249-.234c-.035-.035-.758-.243-1.607-.463-5.947-1.536-5.631-1.422-5.636-2.05-.003-.362 5.515-5.878 5.876-5.875.575.004.58.013 1.26 2.607.215.817.577 2.184.805 3.037.55 2.065.582 2.32.314 2.588-.202.202-.864.304-1.012.156m7.647-13.905c-5.213-5.212-9.477-9.538-9.477-9.613s.358-.49.795-.922l.795-.787 9.572 9.574c5.265 5.266 9.573 9.636 9.574 9.71.001.21-1.368 1.515-1.589 1.515-.107 0-4.458-4.264-9.67-9.477m6.14-6.143L32.446 4.443l.83-.821.828-.822 13.402 13.402L60.91 29.605l-.787.795c-.432.436-.817.794-.856.794s-6.09-6.019-13.445-13.375m-9.18 9.179-1.948-1.951.86-.853.861-.853 1.914 1.91c1.053 1.051 1.914 1.973 1.914 2.049 0 .134-1.461 1.649-1.59 1.649-.035 0-.94-.878-2.012-1.951m6.143-6.008c-3.141-3.142-5.712-5.774-5.712-5.849 0-.074.358-.489.795-.921l.794-.786 5.808 5.807 5.808 5.807-.82.828c-.45.455-.852.827-.89.827-.04 0-2.641-2.57-5.783-5.713"
     style="fill:#000;stroke-width:.123826;filter:url(#b);opacity:.25"
     id="path2" /><path
     style="fill:#ead438;stroke-width:0.115814;fill-opacity:1"
     d="m 28.314929,21.734504 h 1.234882 l 6.269409,6.269407 6.271233,6.269408 v 1.234883 l -7.908003,7.91531 c -4.348192,4.353805 -8.248918,8.163953 -8.66793,8.466989 -0.966161,0.697731 -2.337949,1.332914 -3.441599,1.592927 -6.096261,1.43755 -11.913818,-3.128669 -11.963389,-9.387671 -0.01684,-2.17924 0.574433,-4.056847 1.824924,-5.787145 0.3021,-0.418078 4.111358,-4.318805 8.465162,-8.667932 z"
     id="path41" /><path
     id="path3"
     style="fill:#000000;stroke-width:0.115814"
     d="M 34.564242,4.1154942 34.116688,4.5593945 46.626276,17.068982 h 0.0019 c 6.879104,6.880039 12.538874,12.509587 12.57535,12.509587 0.03303,0 0.330794,-0.273769 0.686858,-0.628402 V 27.243984 L 48.202761,15.556433 36.759996,4.1154942 Z M 33.50838,12.22444 32.763066,12.96062 c -0.408724,0.404048 -0.743487,0.79208 -0.743487,0.862226 0,0.07015 3.989521,4.116503 8.86522,8.991267 4.874764,4.8757 8.944165,8.863394 9.044241,8.863394 0.206701,0 1.487019,-1.21932 1.485149,-1.415733 -9.36e-4,-0.06921 -4.030396,-4.157332 -8.954731,-9.082603 z m 6.421028,0.743487 -0.74166,0.736181 c -0.408725,0.404048 -0.743488,0.791187 -0.743488,0.860399 0,0.07015 2.403653,2.532417 5.341419,5.471117 2.9387,2.939637 5.371596,5.343247 5.409008,5.343247 0.03554,0 0.412114,-0.347156 0.832998,-0.772717 l 0.767236,-0.774541 -5.432757,-5.432757 z M 28.722293,18.98159 a 4.4894221,4.4894221 0 0 0 -1.704358,0.436593 c -0.512542,0.247854 -16.624,16.342871 -17.3011541,17.284714 -1.1479353,1.595955 -1.905092,3.479825 -2.2048879,5.407182 v 2.223156 c 0,1.8664 0.4166858,3.632483 1.1618133,5.209891 1.8066227,3.696125 5.5609627,6.35475 9.6415887,6.828394 1.357116,0.15713 1.774054,0.152526 3.204121,-0.04202 a 12.345911,12.345911 0 0 0 5.600817,-2.221328 C 28.062077,53.431021 44.156201,37.319563 44.40312,36.807021 a 4.4894221,4.4894221 0 0 0 0.431113,-2.296225 C 44.699551,33.018062 44.675876,32.992444 37.753748,26.069381 30.83162,19.148188 30.804132,19.124514 29.312334,18.988896 a 4.4894221,4.4894221 0 0 0 -0.590041,-0.0073 z m -0.407364,2.752914 h 1.234882 l 6.269409,6.269407 6.271233,6.269408 v 1.234883 l -7.908003,7.91531 c -4.348192,4.353805 -8.248918,8.163953 -8.66793,8.466989 -0.966161,0.697731 -2.337949,1.332914 -3.441599,1.592927 -6.096261,1.43755 -11.913818,-3.128669 -11.963389,-9.387671 -0.01684,-2.17924 0.574433,-4.056847 1.824924,-5.787145 0.3021,-0.418078 4.111358,-4.318805 8.465162,-8.667932 z m 9.513716,0.500529 -0.803769,0.796462 -0.805599,0.798291 1.821271,1.824924 h 0.0019 c 1.001981,1.002888 1.847008,1.824924 1.879728,1.824924 0.11971,0 1.465948,-1.39574 1.486975,-1.539952 v -0.0019 c 0,-0.07108 -0.805349,-0.933266 -1.790216,-1.916262 z m -5.383434,5.73965 c -0.409175,0.07664 -5.490342,5.158934 -5.487558,5.494866 0.0047,0.587366 -0.290205,0.479646 5.272001,1.916261 0.794067,0.205765 1.468854,0.400204 1.50159,0.43294 0.138423,0.138423 0.759153,0.04461 0.948083,-0.144313 0.250659,-0.250659 0.219414,-0.490885 -0.295933,-2.422271 -0.212313,-0.797808 -0.549706,-2.074634 -0.750796,-2.838771 -0.636,-2.426159 -0.640457,-2.434971 -1.178253,-2.438712 -0.0026,-2.2e-5 -0.0059,-6.04e-4 -0.0092,0 z m -11.371522,5.553322 c -0.667012,-0.03528 -1.278828,0.498001 -1.276899,1.360929 0.0019,0.591108 0.118213,0.812319 0.608309,1.149025 0.505994,0.348866 1.077475,0.273429 1.558218,-0.208249 0.345124,-0.344189 0.421979,-0.515216 0.421979,-0.940776 0,-0.424624 -0.07596,-0.592934 -0.420153,-0.937123 -0.274158,-0.273866 -0.588267,-0.407768 -0.891454,-0.423806 z m -4.009717,3.953088 c -0.647251,0.0402 -1.227576,0.540484 -1.227576,1.256804 0,0.621037 0.159117,0.919776 0.65763,1.23123 1.38985,0.869825 2.783325,-1.282919 1.446787,-2.234116 -0.273575,-0.19495 -0.582636,-0.272189 -0.876841,-0.253918 z m 7.953672,0.0036 c -0.263754,0 -0.603866,0.08795 -0.754449,0.193636 -0.306777,0.215118 -0.643016,0.796448 -0.643016,1.108837 0,0.407789 0.396552,1.027686 0.780023,1.216617 0.494772,0.244112 0.743926,0.246567 1.192868,0.01461 0.863278,-0.447072 1.013583,-1.42241 0.323335,-2.111723 -0.332966,-0.333902 -0.519031,-0.421981 -0.898761,-0.421981 z M 28.93237,41.4378 c -0.424624,0 -0.594761,0.07596 -0.93895,0.420154 -0.616982,0.616981 -0.538562,1.440632 0.19181,2.016732 h 0.0019 c 0.290422,0.226274 1.257287,0.188217 1.565525,-0.06211 0.677155,-0.548083 0.724811,-1.34855 0.118739,-1.954622 -0.344189,-0.34419 -0.51339,-0.420153 -0.93895,-0.420153 z m -8.114426,0.0092 c -0.280195,0.0011 -0.394709,0.08051 -0.652149,0.337949 -0.310519,0.311454 -0.374485,0.474736 -0.374485,0.951738 0,0.470454 0.06432,0.639743 0.35987,0.935296 h 0.0019 c 0.294618,0.295553 0.464842,0.359869 0.935296,0.359869 0.476066,0 0.638457,-0.06485 0.94991,-0.37631 0.343255,-0.342318 0.371211,-0.429682 0.316028,-0.997406 -0.07856,-0.815579 -0.373636,-1.112476 -1.189215,-1.191042 -0.141696,-0.01356 -0.253683,-0.02047 -0.347082,-0.02009 z m -3.71013,3.867231 c -0.09865,0.0051 -0.204042,0.03218 -0.339776,0.07673 -0.965226,0.318935 -1.273332,1.528902 -0.56812,2.234116 0.289943,0.290877 0.468263,0.35987 0.909722,0.35987 1.502087,0 1.907859,-1.847766 0.551679,-2.509956 -0.242592,-0.118666 -0.389098,-0.169229 -0.553505,-0.160753 z m 7.935404,0.0092 c -0.126138,0.0011 -0.25614,0.02397 -0.385445,0.07308 -1.134514,0.430236 -1.346753,1.72796 -0.392751,2.396697 0.60233,0.421819 1.593102,0.160944 1.936356,-0.509664 0.456659,-0.892857 -0.275199,-1.968172 -1.15816,-1.960103 z" /><g
     id="g18"
     transform="matrix(0.93529628,0,0,0.93529628,85.636534,0.40353707)"><path
       id="path12"
       style="fill:#4e4dca;fill-opacity:1"
       d="m -56.871094,29.478516 c -0.437482,0.08194 -5.870164,5.515828 -5.867187,5.875 0.005,0.628 -0.310281,0.512828 5.636719,2.048828 0.848999,0.22 1.570468,0.42789 1.605468,0.46289 0.148,0.148 0.811672,0.0477 1.013672,-0.154296 0.268,-0.268001 0.234594,-0.524844 -0.316406,-2.589844 -0.227,-0.853 -0.587734,-2.218156 -0.802734,-3.035156 -0.68,-2.594001 -0.684766,-2.603422 -1.259766,-2.607422 -0.0014,-1.2e-5 -0.0042,7.7e-5 -0.0059,0 -8.64e-4,3.2e-5 -0.003,-1.62e-4 -0.0039,0 z" /><path
       id="path11"
       style="fill:#4e4dca;fill-opacity:1"
       d="m -51.115234,23.341797 -0.859375,0.851562 -0.861329,0.853516 1.947266,1.951172 h 0.002 c 1.071297,1.072268 1.974783,1.951172 2.009766,1.951172 0.127992,0 1.567363,-1.492297 1.589844,-1.646485 v -0.002 c 0,-0.076 -0.861063,-0.997828 -1.914063,-2.048828 z" /><path
       id="path9"
       style="fill:#4e4dca;fill-opacity:1"
       d="m -48.869141,13.433594 -0.792968,0.787109 c -0.437001,0.432 -0.794922,0.845922 -0.794922,0.919922 0,0.075 2.569937,2.707609 5.710937,5.849609 3.142,3.143 5.743203,5.712891 5.783203,5.712891 0.038,0 0.440625,-0.371172 0.890625,-0.826172 l 0.820313,-0.828125 -5.808594,-5.808594 z" /><path
       id="path8"
       style="fill:#4e4dca;fill-opacity:1"
       d="m -55.734375,12.638672 -0.796875,0.787109 c -0.437,0.432 -0.794922,0.846875 -0.794922,0.921875 0,0.075 4.265516,4.401282 9.478516,9.613282 5.212,5.213 9.562923,9.476562 9.669922,9.476562 0.221001,0 1.58989,-1.303672 1.58789,-1.513672 -10e-4,-0.074 -4.309218,-4.444937 -9.574218,-9.710937 z" /><path
       id="path5"
       style="fill:#4e4dca;fill-opacity:1"
       d="m -54.605469,3.96875 -0.478515,0.4746094 13.375,13.3749996 h 0.002 c 7.355,7.356 13.406312,13.375 13.445312,13.375 0.03531,0 0.353678,-0.292709 0.734375,-0.671875 V 28.697266 L -40.023438,16.201172 -52.257812,3.96875 Z" /><path
       id="path4"
       style="fill:#4e4dca;fill-opacity:1;stroke-width:1.18568"
       d="m -53.363224,2.698916 -0.805618,0.7920423 c -0.441646,0.434858 -0.791777,0.8641984 -0.777336,0.9542866 0.01444,0.090085 5.971459,6.1083971 13.237194,13.3731141 7.264722,7.26573 13.312254,13.225139 13.440779,13.24575 0.265472,0.04256 1.658742,-1.259808 1.615898,-1.512449 -0.01545,-0.08907 -6.032358,-6.169255 -13.370954,-13.508855 z" /></g></svg>
