<?xml version="1.0" encoding="UTF-8" standalone="no"?>
<svg
   width="64"
   height="64"
   version="1.1"
   id="svg4"
   sodipodi:docname="com.github.maoschanz.DynamicWallpaperEditor.svg"
   inkscape:version="1.3.2 (091e20ef0f, 2023-11-25, custom)"
   xmlns:inkscape="http://www.inkscape.org/namespaces/inkscape"
   xmlns:sodipodi="http://sodipodi.sourceforge.net/DTD/sodipodi-0.dtd"
   xmlns="http://www.w3.org/2000/svg"
   xmlns:svg="http://www.w3.org/2000/svg">
  <defs
     id="defs4">
    <linearGradient
       id="linearGradient29240"
       x1="32"
       x2="32"
       y1="44"
       y2="52"
       gradientTransform="matrix(0.79998,0,0,1,6.4007,0)"
       gradientUnits="userSpaceOnUse">
      <stop
         stop-color="#818990"
         offset="0"
         id="stop265" />
      <stop
         stop-color="#9fa8b0"
         offset="1"
         id="stop267" />
    </linearGradient>
    <linearGradient
       id="linearGradient1455"
       x1="4"
       x2="60"
       y1="27"
       y2="27"
       gradientTransform="matrix(1,0,0,1.0556,1e-6,-0.5)"
       gradientUnits="userSpaceOnUse">
      <stop
         stop-color="#555a5f"
         offset="0"
         id="stop255" />
      <stop
         stop-color="#4b4f53"
         offset="1"
         id="stop257" />
    </linearGradient>
    <linearGradient
       id="linearGradient17498"
       x1="15.408"
       x2="60"
       y1="19"
       y2="45"
       gradientTransform="matrix(0.96428,0,0,1,1.1428,1)"
       gradientUnits="userSpaceOnUse">
      <stop
         stop-color="#0082e5"
         offset="0"
         id="stop260" />
      <stop
         stop-color="#42b7ff"
         offset="1"
         id="stop262" />
    </linearGradient>
  </defs>
  <sodipodi:namedview
     id="namedview4"
     pagecolor="#ffffff"
     bordercolor="#000000"
     borderopacity="0.25"
     inkscape:showpageshadow="2"
     inkscape:pageopacity="0.0"
     inkscape:pagecheckerboard="0"
     inkscape:deskcolor="#d1d1d1"
     inkscape:zoom="2.1765631"
     inkscape:cx="-57.429992"
     inkscape:cy="52.376153"
     inkscape:window-width="1920"
     inkscape:window-height="995"
     inkscape:window-x="0"
     inkscape:window-y="0"
     inkscape:window-maximized="1"
     inkscape:current-layer="svg4" />
  <g
     shape-rendering="auto"
     id="g278">
    <path
       d="m 20.667,51 h 22.667 l 2.6667,3 h -28 z"
       color="#000000"
       color-rendering="auto"
       dominant-baseline="auto"
       fill="#bcc5cf"
       image-rendering="optimizeSpeed"
       solid-color="#000000"
       stop-color="#000000"
       stroke-width="5.7734"
       style="font-variant-ligatures:normal;font-variant-position:normal;font-variant-caps:normal;font-variant-numeric:normal;font-variant-alternates:normal;font-variant-east-asian:normal;font-feature-settings:normal;font-variation-settings:normal;text-indent:0;text-decoration-line:none;text-decoration-style:solid;text-decoration-color:#000000;text-transform:none;text-orientation:mixed;white-space:normal;shape-padding:0;shape-margin:0;inline-size:0;isolation:auto;mix-blend-mode:normal"
       id="path272" />
    <path
       d="M 28.001,44.222 H 36 v 7.7779 h -7.999 z"
       color="#000000"
       color-rendering="auto"
       dominant-baseline="auto"
       fill="url(#linearGradient29240)"
       image-rendering="optimizeSpeed"
       solid-color="#000000"
       stop-color="#000000"
       stroke-width="5.4429"
       style="font-variant-ligatures:normal;font-variant-position:normal;font-variant-caps:normal;font-variant-numeric:normal;font-variant-alternates:normal;font-variant-east-asian:normal;font-feature-settings:normal;font-variation-settings:normal;text-indent:0;text-decoration-line:none;text-decoration-style:solid;text-decoration-color:#000000;text-transform:none;text-orientation:mixed;white-space:normal;shape-padding:0;shape-margin:0;inline-size:0;isolation:auto;mix-blend-mode:normal;fill:url(#linearGradient29240)"
       id="path274" />
    <path
       d="m 18,54 h 28 v 2 H 18 Z"
       color="#000000"
       color-rendering="auto"
       dominant-baseline="auto"
       fill="#44484c"
       fill-opacity="0.99608"
       image-rendering="optimizeSpeed"
       solid-color="#000000"
       stop-color="#000000"
       stroke-width="6.6666"
       style="font-variant-ligatures:normal;font-variant-position:normal;font-variant-caps:normal;font-variant-numeric:normal;font-variant-alternates:normal;font-variant-east-asian:normal;font-feature-settings:normal;font-variation-settings:normal;text-indent:0;text-decoration-line:none;text-decoration-style:solid;text-decoration-color:#000000;text-transform:none;text-orientation:mixed;white-space:normal;shape-padding:0;shape-margin:0;inline-size:0;isolation:auto;mix-blend-mode:normal"
       id="path276" />
  </g>
  <rect
     x="4"
     y="9"
     width="56"
     height="38"
     ry="0"
     fill="url(#linearGradient1455)"
     stroke-width="0.82192"
     id="rect280"
     style="fill:url(#linearGradient1455);stroke-linecap:round;stroke-linejoin:round" />
  <rect
     x="5"
     y="10"
     width="54"
     height="36"
     ry="0"
     fill="url(#linearGradient17498)"
     stroke-width="0.78558"
     id="rect282"
     style="fill:url(#linearGradient17498);stroke-linecap:round;stroke-linejoin:round" />
  <path
     d="m 5,8 h 54 l 1,1 H 4 Z"
     color="#000000"
     fill="#b8c2cc"
     stroke-width="0.26458"
     id="path284"
     style="stroke-linecap:round;stroke-linejoin:round" />
  <g
     id="g6"
     transform="translate(-96.08756)">
    <path
       fill="#ffffff"
       d="m 141.58756,18 a 0.25,0.25 0 0 0 -0.25,0.25 v 1.5 c 0,0.139 0.112,0.25 0.25,0.25 h 0.5 a 0.25,0.25 0 0 0 0.25,-0.25 v -1.5 a 0.25,0.25 0 0 0 -0.25,-0.25 z m -4.699,1.947 a 0.25,0.25 0 0 0 -0.178,0.073 l -0.353,0.353 a 0.25,0.25 0 0 0 0,0.354 l 1.06,1.06 a 0.25,0.25 0 0 0 0.354,0 l 0.353,-0.353 a 0.25,0.25 0 0 0 0,-0.354 l -1.06,-1.06 a 0.246,0.246 0 0 0 -0.176,-0.073 z m 9.898,0 a 0.246,0.246 0 0 0 -0.175,0.073 l -1.06,1.06 a 0.25,0.25 0 0 0 0,0.354 l 0.353,0.353 a 0.25,0.25 0 0 0 0.353,0 l 1.06,-1.06 a 0.25,0.25 0 0 0 0,-0.354 l -0.353,-0.353 a 0.25,0.25 0 0 0 -0.178,-0.073 z m -4.949,2.053 a 3.5,3.5 0 1 0 0,7 3.5,3.5 0 0 0 0,-7 z m -7.25,3 a 0.25,0.25 0 0 0 -0.25,0.25 v 0.5 c 0,0.139 0.112,0.25 0.25,0.25 h 1.5 a 0.25,0.25 0 0 0 0.25,-0.25 v -0.5 a 0.25,0.25 0 0 0 -0.25,-0.25 z m 13,0 a 0.25,0.25 0 0 0 -0.25,0.25 v 0.5 c 0,0.139 0.112,0.25 0.25,0.25 h 1.5 a 0.25,0.25 0 0 0 0.25,-0.25 v -0.5 a 0.25,0.25 0 0 0 -0.25,-0.25 z m -9.992,4.139 a 0.252,0.252 0 0 0 -0.178,0.074 l -1.06,1.06 a 0.25,0.25 0 0 0 0,0.354 l 0.353,0.353 a 0.25,0.25 0 0 0 0.354,0 l 1.06,-1.06 a 0.25,0.25 0 0 0 0,-0.354 l -0.353,-0.353 a 0.248,0.248 0 0 0 -0.176,-0.074 z m 8.484,0 a 0.248,0.248 0 0 0 -0.175,0.074 l -0.354,0.353 a 0.25,0.25 0 0 0 0,0.354 l 1.06,1.06 a 0.25,0.25 0 0 0 0.354,0 l 0.354,-0.353 a 0.25,0.25 0 0 0 0,-0.354 l -1.06,-1.06 a 0.252,0.252 0 0 0 -0.179,-0.074 z m -4.492,1.861 a 0.25,0.25 0 0 0 -0.25,0.25 v 1.5 c 0,0.139 0.112,0.25 0.25,0.25 h 0.5 a 0.25,0.25 0 0 0 0.25,-0.25 v -1.5 a 0.25,0.25 0 0 0 -0.25,-0.25 z"
       color="#000000"
       overflow="visible"
       style="isolation:auto;mix-blend-mode:normal"
       id="path5" />
    <path
       fill="#ffffff"
       d="m 114.30056,18 a 7.5,7.5 0 0 0 -7.463,7.5 7.5,7.5 0 0 0 7.5,7.5 7.5,7.5 0 0 0 3.834,-1.055 6.5,6.5 0 0 1 -0.834,0.055 6.5,6.5 0 0 1 -6.5,-6.5 6.5,6.5 0 0 1 6.5,-6.5 6.5,6.5 0 0 1 0.832,0.055 7.5,7.5 0 0 0 -3.832,-1.055 7.5,7.5 0 0 0 -0.037,0 z"
       id="path6" />
  </g>
  <path
     id="path7"
     style="stroke-width:1.33333;fill:#000000;fill-opacity:1;opacity:0.1"
     d="M 5 10 L 5 46 L 32 46 L 32 10 L 5 10 z " />
</svg>
