<?xml version="1.0" encoding="UTF-8"?>
<svg width="64" height="64" version="1.1" viewBox="0 0 16.933 16.933" xmlns="http://www.w3.org/2000/svg" xmlns:cc="http://creativecommons.org/ns#" xmlns:dc="http://purl.org/dc/elements/1.1/" xmlns:rdf="http://www.w3.org/1999/02/22-rdf-syntax-ns#" xmlns:xlink="http://www.w3.org/1999/xlink">
 <defs>
  <linearGradient id="linearGradient1760" x1="4.5" x2="59.5" y1="34.02" y2="34.02" gradientTransform="matrix(.26458 0 0 .26458 11.306 7.3496)" gradientUnits="userSpaceOnUse">
   <stop stop-color="#848486" stop-opacity=".82745" offset="0"/>
   <stop stop-color="#bab9b6" offset=".065949"/>
   <stop stop-color="#9a9996" offset=".11294"/>
   <stop stop-color="#9a9996" offset=".90219"/>
   <stop stop-color="#b7b6b4" offset=".94749"/>
   <stop stop-color="#88888a" stop-opacity=".83137" offset="1"/>
  </linearGradient>
  <linearGradient id="linearGradient1748" x1="31.721" x2="31.721" y1="4.4095" y2="59.343" gradientTransform="matrix(.26458 0 0 .26458 11.306 7.3496)" gradientUnits="userSpaceOnUse">
   <stop stop-color="#deddda" offset="0"/>
   <stop stop-color="#deddda" offset="1"/>
  </linearGradient>
  <linearGradient id="linearGradient1833" x1="31.36" x2="31.36" y1="25.07" y2="54.018" gradientTransform="matrix(.26458 0 0 .29035 11.306 5.9517)" gradientUnits="userSpaceOnUse">
   <stop stop-color="#ea8611" offset="0"/>
   <stop stop-color="#f7c14b" offset="1"/>
  </linearGradient>
 </defs>
 <metadata>
  <rdf:RDF>
   <cc:Work rdf:about="">
    <dc:format>image/svg+xml</dc:format>
    <dc:type rdf:resource="http://purl.org/dc/dcmitype/StillImage"/>
   </cc:Work>
  </rdf:RDF>
 </metadata>
 <g transform="translate(-11.306 -7.6167)">
  <g>
   <path d="m13.29 9.0745c-0.43972 0-0.79373 0.35402-0.79373 0.79373v12.964c0 0.43972 0.35402 0.79374 0.79373 0.79374h12.964c0.43972 0 0.79373-0.35402 0.79373-0.79374v-12.964c0-0.43972-0.35402-0.79373-0.79373-0.79373z" fill="url(#linearGradient1760)" stroke-width=".79373"/>
   <path d="m13.29 8.5402c-0.43972 0-0.79373 0.35402-0.79373 0.79373v12.964c0 0.43972 0.35402 0.79373 0.79373 0.79373h12.964c0.43972 0 0.79373-0.35402 0.79373-0.79373v-12.964c0-0.43972-0.35402-0.79373-0.79373-0.79373z" fill="url(#linearGradient1748)" stroke-width=".79373"/>
   <rect x="13.158" y="9.2016" width="13.229" height="13.229" ry=".49653" fill="#241f31" stroke-width="1.3424"/>
   <rect x="13.803" y="13.14" width="11.938" height="8.5585" ry="0" fill="url(#linearGradient1833)" stroke-width="1.0257"/>
  </g>
  <g fill="none" stroke="#fff" stroke-linecap="round" stroke-width=".52916">
   <path d="m15.804 16.361v-1.3229h1.5875" enable-background="new"/>
   <path d="m23.741 16.361v-1.3229h-1.5875" enable-background="new"/>
   <path d="m23.741 18.478v1.3229h-1.5875" enable-background="new"/>
   <path d="m15.804 18.478v1.3229h1.5875" enable-background="new"/>
  </g>
  <circle cx="23.963" cy="11.172" r=".79373" enable-background="new" fill="#ed333b" stroke-width=".26458"/>
  <rect x="18.142" y="10.908" width="2.6458" height=".52916" fill="#deddda" stroke-width=".26458"/>
 </g>
</svg>
