<?xml version="1.0" encoding="UTF-8" standalone="no"?>
<svg
   width="64"
   height="64"
   version="1.1"
   id="svg20"
   sodipodi:docname="com.jeffser.Alpaca.svg"
   xml:space="preserve"
   inkscape:version="1.4.2 (ebf0e940d0, 2025-05-08)"
   xmlns:inkscape="http://www.inkscape.org/namespaces/inkscape"
   xmlns:sodipodi="http://sodipodi.sourceforge.net/DTD/sodipodi-0.dtd"
   xmlns:xlink="http://www.w3.org/1999/xlink"
   xmlns="http://www.w3.org/2000/svg"
   xmlns:svg="http://www.w3.org/2000/svg"><sodipodi:namedview
     id="namedview20"
     pagecolor="#505050"
     bordercolor="#eeeeee"
     borderopacity="1"
     inkscape:showpageshadow="0"
     inkscape:pageopacity="0"
     inkscape:pagecheckerboard="0"
     inkscape:deskcolor="#505050"
     inkscape:zoom="2.1157961"
     inkscape:cx="121.23097"
     inkscape:cy="-10.397978"
     inkscape:window-width="1920"
     inkscape:window-height="1003"
     inkscape:window-x="0"
     inkscape:window-y="0"
     inkscape:window-maximized="1"
     inkscape:current-layer="svg20" /><defs
     id="defs12"><linearGradient
       id="linearGradient34"
       inkscape:collect="always"><stop
         style="stop-color:#e9eef4;stop-opacity:1"
         offset="0"
         id="stop34" /><stop
         style="stop-color:#b7d1f1;stop-opacity:1"
         offset="1"
         id="stop35" /></linearGradient><linearGradient
       id="f"
       x1="7.937"
       x2="7.937"
       y1="15.081"
       y2="1.852"
       gradientTransform="scale(3.7796)"
       gradientUnits="userSpaceOnUse"><stop
         offset="0"
         stop-color="#0e71de"
         id="stop1" /><stop
         offset="1"
         stop-color="#25c9ff"
         id="stop2" /></linearGradient><linearGradient
       xlink:href="#a"
       id="g"
       x1="63.553"
       x2="63.553"
       y1="214.195"
       y2="241.245"
       gradientUnits="userSpaceOnUse" /><linearGradient
       id="a"><stop
         offset="0"
         style="stop-color:#deddda;stop-opacity:1"
         id="stop3" /><stop
         offset="1"
         style="stop-color:#f6f5f4;stop-opacity:1"
         id="stop4" /></linearGradient><linearGradient
       xlink:href="#b"
       id="h"
       x1="40.888"
       x2="40.906"
       y1="205.036"
       y2="212.095"
       gradientUnits="userSpaceOnUse" /><linearGradient
       id="b"><stop
         offset="0"
         style="stop-color:#f6f5f4;stop-opacity:1"
         id="stop5" /><stop
         offset="1"
         style="stop-color:#deddda;stop-opacity:1"
         id="stop6" /></linearGradient><linearGradient
       xlink:href="#c"
       id="i"
       x1="40.888"
       x2="40.906"
       y1="205.036"
       y2="212.095"
       gradientUnits="userSpaceOnUse" /><linearGradient
       id="c"><stop
         offset="0"
         style="stop-color:#000;stop-opacity:0"
         id="stop7" /><stop
         offset="1"
         style="stop-color:#000;stop-opacity:0"
         id="stop8" /></linearGradient><linearGradient
       xlink:href="#b"
       id="j"
       x1="40.888"
       x2="40.906"
       y1="205.036"
       y2="212.095"
       gradientTransform="matrix(-1 0 0 1 127.148 0)"
       gradientUnits="userSpaceOnUse" /><linearGradient
       xlink:href="#c"
       id="k"
       x1="40.888"
       x2="40.906"
       y1="205.036"
       y2="212.095"
       gradientTransform="matrix(-1 0 0 1 127.148 0)"
       gradientUnits="userSpaceOnUse" /><linearGradient
       xlink:href="#d"
       id="l"
       x1="45.112"
       x2="45.112"
       y1="235.326"
       y2="229.176"
       gradientUnits="userSpaceOnUse" /><linearGradient
       id="d"><stop
         offset="0"
         style="stop-color:#3d3846;stop-opacity:1"
         id="stop9" /><stop
         offset="1"
         style="stop-color:#241f31;stop-opacity:1"
         id="stop10" /></linearGradient><linearGradient
       xlink:href="#d"
       id="m"
       x1="45.112"
       x2="45.112"
       y1="235.326"
       y2="229.176"
       gradientTransform="translate(36.957 .157)"
       gradientUnits="userSpaceOnUse" /><linearGradient
       xlink:href="#e"
       id="n"
       x1="64.683"
       x2="64.896"
       y1="267.046"
       y2="278.7"
       gradientTransform="matrix(.99245 0 0 1.1818 .484 -51.635)"
       gradientUnits="userSpaceOnUse" /><linearGradient
       id="e"><stop
         offset="0"
         style="stop-color:#99c1ff;stop-opacity:1"
         id="stop11" /><stop
         offset="1"
         style="stop-color:#62a0ea;stop-opacity:1"
         id="stop12" /></linearGradient><linearGradient
       inkscape:collect="always"
       xlink:href="#linearGradient34"
       id="linearGradient35"
       x1="166.76762"
       y1="-86.558746"
       x2="166.76762"
       y2="27.117453"
       gradientUnits="userSpaceOnUse" /></defs><g
     id="g36"
     transform="matrix(0.45841615,0,0,0.45841615,-37.593972,43.331537)"><path
       style="fill:#99c1f1;fill-opacity:1;stroke-width:3;stroke-linecap:round;stroke-linejoin:round"
       d="M 100.52194,-8.772846 H 89.817232 v -13.075718 c 0,0 0.214261,-9.305224 12.389118,-9.305224 z"
       id="path27" /><path
       style="fill:#5c5b64;fill-opacity:0.996078;stroke-width:3;stroke-linecap:round;stroke-linejoin:round"
       d="m 108.57845,31.187204 v 5.867626 h 7.5991 v -6.178129 z"
       id="path28" /><path
       style="fill:#5c5b64;fill-opacity:0.996078;stroke-width:3;stroke-linecap:round;stroke-linejoin:round"
       d="m 126.1093,30.951925 v 6.374446 h 8.533 v -6.444544 z"
       id="path29" /><path
       style="fill:#5c5b64;fill-opacity:0.996078;stroke-width:3;stroke-linecap:round;stroke-linejoin:round"
       d="m 170.48824,30.944368 v 6.402891 h 7.78852 v -6.529545 z"
       id="path30" /><path
       style="fill:#5c5b64;fill-opacity:0.996078;stroke-width:3;stroke-linecap:round;stroke-linejoin:round"
       d="m 188.41124,30.905968 v 6.545729 h 7.99607 v -6.311218 z"
       id="path31" /><path
       style="fill:#6c9acc;fill-opacity:1;stroke-width:3;stroke-linecap:round;stroke-linejoin:round"
       d="m 121.27192,27.825755 c 0,0 2.04923,3.714715 9.48526,3.714715 7.43603,0 11.78068,-6.727114 11.78068,-10.508197 H 121.1906 Z"
       id="path24" /><path
       style="fill:#6a9ace;fill-opacity:1;stroke-width:3;stroke-linecap:round;stroke-linejoin:round"
       d="m 183.37351,27.857554 c 0,0 2.90325,3.766467 10.08863,3.766467 9.60836,0 10.81984,-9.524804 10.81984,-9.524804 V 6.767624 h -19.75979 z"
       id="path26"
       sodipodi:nodetypes="cscccc" /><path
       style="fill:#82acde;fill-opacity:1;stroke-width:3;stroke-linecap:round;stroke-linejoin:round"
       d="m 185.17254,25.328288 c 0,0 0.89535,1.700433 8.41493,1.700433 7.51958,0 10.65274,-6.099217 10.65274,-6.099217 V 8.7442587 h -17.37859 z"
       id="path25"
       sodipodi:nodetypes="cscccc" /><path
       style="fill:#98bff2;fill-opacity:1;stroke-width:3;stroke-linecap:round;stroke-linejoin:round"
       d="m 100.52194,20.141084 c 0,0 -0.559565,11.348246 11.13816,11.348246 11.69772,0 12.99747,-10.457057 12.99747,-10.457057 h 37.47298 c 0,0 0.3342,10.29932 11.98955,10.29932 11.65536,0 12.36554,-10.276763 12.36554,-10.276763 0,0 18.19321,-0.04835 18.19321,-16.4595297 H 100.52194 Z"
       id="path22" /><path
       style="fill:url(#linearGradient35);fill-opacity:1;stroke-width:3;stroke-linecap:round;stroke-linejoin:round"
       d="m 206.27579,-76.182909 v 4.224178 c 0,0 0.42157,2.342155 -1.59694,2.883013 V 4.5953003 c 0,0 -2.98172,12.7149687 -17.92881,12.7149687 0,0 -2.95397,9.807184 -11.46141,9.807184 -8.50743,0 -11.83432,-4.643397 -13.23379,-9.866263 h -37.81082 c 0,0 -1.89055,9.866263 -11.63865,9.866263 -9.7481,0 -12.08343,-6.976369 -12.08343,-6.976369 v -43.654692 c 0,0 -0.736803,-14.947093 15.0374,-14.947093 15.77421,0 54.55032,0 54.55032,0 0,0 10.2598,0.177238 10.2598,-9.570866 0,-9.748104 0,-32.552759 0,-32.552759 0,0 -0.76803,-6.262418 7.8871,-6.262418 v 8.12342 h 15.31524 c 0,0 2.70399,-0.284792 2.70399,2.540415 z"
       id="path21" /><path
       style="fill:#82acde;fill-opacity:1;stroke-width:3;stroke-linecap:round;stroke-linejoin:round"
       d="m 123.03252,25.490078 c 0,0 15.69669,5.865035 18.46269,-4.457805 h -18.31462 z"
       id="path23" /><circle
       style="fill:#000000;fill-opacity:1;stroke-width:3;stroke-linecap:round;stroke-linejoin:round"
       id="path35"
       cx="195.21317"
       cy="-70.158279"
       r="2.1563988" /><circle
       style="fill:#000000;fill-opacity:1;stroke-width:3;stroke-linecap:round;stroke-linejoin:round"
       id="circle35"
       cx="200.5303"
       cy="-70.158279"
       r="2.1563988" /><path
       style="fill:#bad5f5;fill-opacity:1;stroke-width:3;stroke-linecap:round;stroke-linejoin:round"
       d="M 199.26893,-78.723324 V -86.8094 c 0,0 -5.58842,-1.459743 -8.14621,8.086076 z"
       id="path34" /><path
       style="fill:#5d5c63;fill-opacity:1;stroke-width:3;stroke-linecap:round;stroke-linejoin:round"
       d="m 192.42166,-70.224543 v 11.070496 h 6.55875 c 0,0 6.09921,-8.18799 14.83028,-8.18799 v -5.556135 h -7.5349 c 0,0 -0.6322,2.778067 -3.8698,2.778067 -3.2376,0 -9.98433,-0.104438 -9.98433,-0.104438 z"
       id="path36"
       sodipodi:nodetypes="ccccccsc" /></g></svg>
