<?xml version="1.0" encoding="UTF-8" standalone="no"?>
<svg
   xml:space="preserve"
   width="64"
   height="64"
   version="1.1"
   id="svg3"
   sodipodi:docname="com.github.gabutakut.gabutdm.svg"
   inkscape:version="1.4.2 (ebf0e940d0, 2025-05-08)"
   xmlns:inkscape="http://www.inkscape.org/namespaces/inkscape"
   xmlns:sodipodi="http://sodipodi.sourceforge.net/DTD/sodipodi-0.dtd"
   xmlns:xlink="http://www.w3.org/1999/xlink"
   xmlns="http://www.w3.org/2000/svg"
   xmlns:svg="http://www.w3.org/2000/svg"><sodipodi:namedview
     id="namedview3"
     pagecolor="#505050"
     bordercolor="#eeeeee"
     borderopacity="1"
     inkscape:showpageshadow="0"
     inkscape:pageopacity="0"
     inkscape:pagecheckerboard="0"
     inkscape:deskcolor="#505050"
     inkscape:zoom="3.0898438"
     inkscape:cx="13.754741"
     inkscape:cy="-19.580278"
     inkscape:window-width="1920"
     inkscape:window-height="1018"
     inkscape:window-x="0"
     inkscape:window-y="0"
     inkscape:window-maximized="1"
     inkscape:current-layer="svg3" /><defs
     id="defs2"><radialGradient
       xlink:href="#a"
       id="b"
       cx="32.001"
       cy="31.97"
       r="28.001"
       fx="32.001"
       fy="31.97"
       gradientUnits="userSpaceOnUse"
       gradientTransform="translate(-51.722975,-28.148392)" /><linearGradient
       id="a"
       x1="7.937"
       x2="7.937"
       y1="15.081"
       y2="1.852"
       gradientTransform="scale(3.7796)"
       gradientUnits="userSpaceOnUse"><stop
         offset="0"
         stop-color="#363636"
         style="stop-color:#6b6110;stop-opacity:1"
         id="stop1" /><stop
         offset="1"
         stop-color="#6c6c6c"
         style="stop-color:#360026;stop-opacity:1"
         id="stop2" /></linearGradient></defs><g
     transform="matrix(1.0051669,0,0,1.0051669,-0.35783026,1.5152088)"
     id="g3"><circle
       cx="32.778999"
       cy="30.011"
       r="11.238"
       fill="none"
       style="fill:#ffffff;fill-opacity:0;stroke:#e1c525;stroke-width:3.336;stroke-miterlimit:4;stroke-dasharray:none;stroke-opacity:1"
       id="circle2" /><path
       d="M 32.404,3.04 Q 31.691,3.054 30.955,3.123 C 18.273,4.315 13.464,10.328 12.326,12.057 L 6.82,8.08 5.33,22.637 3.838,37.193 17.191,31.205 30.543,25.219 22.01,19.053 C 22.168,16.966 23.54,7.99 35.53,8.307 47.526,8.623 54.79,18.99 54.79,18.99 c 0,0 -7.627,-16.276 -22.386,-15.95"
       style="fill:#a200e5;fill-opacity:1;stroke:none;stroke-width:0.96277px;stroke-linecap:butt;stroke-linejoin:miter;stroke-opacity:1"
       id="path2" /><path
       d="m 60.545,24.014 -13.211,6.29 -13.211,6.292 6.982,4.806 C 41.053,42.722 40.243,52.68 27.572,52.346 15.575,52.029 8.312,41.662 8.312,41.662 c 0,0 8.127,17.345 23.836,15.87 C 46.314,56.2 50.65,48.887 51.016,48.225 l 7.214,4.964 1.159,-14.587 z"
       style="fill:#ff2408;fill-opacity:1;stroke:none;stroke-width:0.96277px;stroke-linecap:butt;stroke-linejoin:miter;stroke-opacity:1"
       id="path3" /></g></svg>
