<?xml version="1.0" encoding="UTF-8"?>
<!-- Created with Inkscape (http://www.inkscape.org/) -->
<svg width="64" height="64" version="1.1" viewBox="0 0 16.933 16.933" xmlns="http://www.w3.org/2000/svg">
 <g transform="translate(-15.552 -8.5661)" stroke-width=".26458">
  <rect x="16.61" y="9.6244" width="14.817" height="14.817" rx="1.1112" ry="1.1112" fill="#047dff"/>
  <g fill-rule="evenodd">
   <path d="m17.933 10.947v1.5875h1.5875v-1.5875zm2.6458 0v1.5875h1.5875v-1.5875zm2.6458 0v1.5875h1.5875v-1.5875zm2.6458 0v1.5875h1.5875v-1.5875zm2.6458 0v1.5875h1.5875v-1.5875z" opacity=".3"/>
   <path d="m22.696 18.97v-3.8748c0-0.099 0.08355-0.17925 0.18661-0.17925 0.03408 0 0.06751 9e-3 0.09666 0.02592l3.3309 1.9374c0.08816 0.05128 0.11635 0.1615 0.06297 0.24618-0.0156 0.02475-0.03721 0.0455-0.06297 0.06049l-3.3309 1.9374c-0.08816 0.05128-0.2029 0.0242-0.25628-0.06049-0.01765-0.028-0.02698-0.06011-0.02698-0.09285z" fill="#fff"/>
   <path d="m17.933 21.531v1.5875h1.5875v-1.5875zm2.6458 0v1.5875h1.5875v-1.5875zm2.6458 0v1.5875h1.5875v-1.5875zm2.6458 0v1.5875h1.5875v-1.5875zm2.6458 0v1.5875h1.5875v-1.5875z" opacity=".3"/>
  </g>
 </g>
</svg>
