<?xml version="1.0" encoding="UTF-8" standalone="no"?>
<svg
   width="64"
   height="64"
   version="1.1"
   id="svg2"
   sodipodi:docname="com.github.aggalex.wineglass.svg"
   inkscape:version="1.4.2 (ebf0e940d0, 2025-05-08)"
   xmlns:inkscape="http://www.inkscape.org/namespaces/inkscape"
   xmlns:sodipodi="http://sodipodi.sourceforge.net/DTD/sodipodi-0.dtd"
   xmlns:xlink="http://www.w3.org/1999/xlink"
   xmlns="http://www.w3.org/2000/svg"
   xmlns:svg="http://www.w3.org/2000/svg">
  <sodipodi:namedview
     id="namedview2"
     pagecolor="#505050"
     bordercolor="#eeeeee"
     borderopacity="1"
     inkscape:showpageshadow="0"
     inkscape:pageopacity="0"
     inkscape:pagecheckerboard="0"
     inkscape:deskcolor="#505050"
     inkscape:zoom="4.3696989"
     inkscape:cx="-17.506927"
     inkscape:cy="26.889725"
     inkscape:window-width="1920"
     inkscape:window-height="1018"
     inkscape:window-x="0"
     inkscape:window-y="0"
     inkscape:window-maximized="1"
     inkscape:current-layer="svg2" />
  <defs
     id="defs2">
    <linearGradient
       id="linearGradient1114"
       x1="7.9373"
       x2="7.9373"
       y1="15.081"
       y2="1.852"
       gradientTransform="matrix(3.7796,0,0,3.7796,-78.952808,0)"
       gradientUnits="userSpaceOnUse">
      <stop
         stop-color="#b81e31"
         offset="0"
         id="stop1" />
      <stop
         stop-color="#ff5c5c"
         offset="1"
         id="stop2" />
    </linearGradient>
    <filter
       id="filter1057"
       x="-0.026999999"
       y="-0.026999999"
       width="1.054"
       height="1.054"
       color-interpolation-filters="sRGB">
      <feGaussianBlur
         stdDeviation="0.61875"
         id="feGaussianBlur2" />
    </filter>
    <linearGradient
       id="linearGradient1053"
       x1="-127"
       x2="-72"
       y1="60"
       y2="5"
       gradientTransform="translate(24.856496,-0.51050627)"
       gradientUnits="userSpaceOnUse">
      <stop
         stop-color="#ff7d50"
         offset="0"
         id="stop3" />
      <stop
         stop-color="#ff4b5a"
         offset=".50594"
         id="stop4" />
      <stop
         stop-color="#ff509b"
         offset="1"
         id="stop5" />
    </linearGradient>
    <linearGradient
       inkscape:collect="always"
       xlink:href="#linearGradient2"
       id="linearGradient3-6"
       x1="32"
       y1="2.000164"
       x2="32"
       y2="61.999836"
       gradientUnits="userSpaceOnUse"
       gradientTransform="translate(-3.7827148e-6)" />
    <linearGradient
       id="linearGradient2"
       inkscape:collect="always">
      <stop
         style="stop-color:#ff4b00;stop-opacity:1"
         offset="0"
         id="stop2-2" />
      <stop
         style="stop-color:#f5102d;stop-opacity:1"
         offset="1"
         id="stop3-9" />
    </linearGradient>
  </defs>
  <circle
     cx="32"
     cy="32"
     r="29.999836"
     color="#000000"
     stroke-width="1.00001"
     id="circle906"
     style="fill:url(#linearGradient3-6);fill-opacity:1" />
  <path
     id="path2"
     style="fill:#fafafa;fill-opacity:1;stroke-width:1.16364"
     d="M 36.488281 2.3378906 A 29.999836 29.999836 0 0 0 32 2 A 29.999836 29.999836 0 0 0 29.265625 2.125 L 21.708984 27.324219 C 17.280208 24.612874 10.759418 21.892069 4.3613281 20.333984 A 29.999836 29.999836 0 0 0 2.4179688 27.011719 C 8.6572314 28.477523 15.002278 31.291578 19.654297 34.251953 L 12.955078 55.177734 A 29.999836 29.999836 0 0 0 19.076172 59.072266 L 25.802734 38.072266 C 31.923461 42.104266 38.16927 45.962891 45.966797 45.962891 C 50.966807 45.962891 54.930553 45.660082 59.347656 44.332031 A 29.999836 29.999836 0 0 0 61.75 35.861328 C 60.430909 36.488141 59.208202 37.040359 58.154297 37.388672 C 54.124624 38.718708 51.062411 38.982422 45.962891 38.982422 C 40.0202 38.982422 34.374176 35.390891 27.863281 31.125 L 36.488281 2.3378906 z " />
</svg>
