<?xml version="1.0" encoding="UTF-8" standalone="no"?>
<svg
   xml:space="preserve"
   width="64"
   height="64"
   version="1.1"
   id="svg42"
   sodipodi:docname="com.clarahobbs.chessclock.svg"
   inkscape:version="1.4.2 (ebf0e940d0, 2025-05-08)"
   xmlns:inkscape="http://www.inkscape.org/namespaces/inkscape"
   xmlns:sodipodi="http://sodipodi.sourceforge.net/DTD/sodipodi-0.dtd"
   xmlns:xlink="http://www.w3.org/1999/xlink"
   xmlns="http://www.w3.org/2000/svg"
   xmlns:svg="http://www.w3.org/2000/svg"><sodipodi:namedview
     id="namedview42"
     pagecolor="#505050"
     bordercolor="#eeeeee"
     borderopacity="1"
     inkscape:showpageshadow="0"
     inkscape:pageopacity="0"
     inkscape:pagecheckerboard="0"
     inkscape:deskcolor="#505050"
     inkscape:zoom="4.3696989"
     inkscape:cx="45.197622"
     inkscape:cy="37.645614"
     inkscape:window-width="1920"
     inkscape:window-height="1018"
     inkscape:window-x="0"
     inkscape:window-y="0"
     inkscape:window-maximized="1"
     inkscape:current-layer="svg42" /><defs
     id="defs9"><linearGradient
       id="linearGradient48"
       inkscape:collect="always"><stop
         style="stop-color:#9b6d4a;stop-opacity:1"
         offset="0"
         id="stop49" /><stop
         style="stop-color:#b28058;stop-opacity:1"
         offset="0.09055854"
         id="stop55" /><stop
         style="stop-color:#885d3e;stop-opacity:1"
         offset="0.23549253"
         id="stop54" /><stop
         style="stop-color:#956946;stop-opacity:1"
         offset="1"
         id="stop50" /></linearGradient><linearGradient
       id="linearGradient44"
       inkscape:collect="always"><stop
         style="stop-color:#64452d;stop-opacity:1"
         offset="0"
         id="stop44" /><stop
         style="stop-color:#65452d;stop-opacity:1"
         offset="0.78406632"
         id="stop48" /><stop
         style="stop-color:#8a623f;stop-opacity:1"
         offset="0.86676913"
         id="stop46" /><stop
         style="stop-color:#65452d;stop-opacity:1"
         offset="1"
         id="stop45" /></linearGradient><linearGradient
       id="b"><stop
         offset="0"
         style="stop-color:#584513;stop-opacity:1"
         id="stop1" /><stop
         offset=".151"
         style="stop-color:#8e6a1f;stop-opacity:1"
         id="stop2" /><stop
         offset=".884"
         style="stop-color:#cd972a;stop-opacity:1"
         id="stop3" /><stop
         offset="1"
         style="stop-color:#e5c283;stop-opacity:1"
         id="stop4" /></linearGradient><linearGradient
       id="a"><stop
         offset="0"
         style="stop-color:#cdab8f;stop-opacity:1"
         id="stop5" /><stop
         offset="1"
         style="stop-color:#513924;stop-opacity:1"
         id="stop6" /></linearGradient><linearGradient
       id="e"
       x1="7.937"
       x2="7.937"
       y1="15.081"
       y2="1.852"
       gradientTransform="scale(3.7796)"
       gradientUnits="userSpaceOnUse"><stop
         offset="0"
         stop-color="#363636"
         id="stop7" /><stop
         offset="1"
         stop-color="#6c6c6c"
         id="stop8" /></linearGradient><linearGradient
       xlink:href="#a"
       id="f"
       x1="46.825"
       x2="46.825"
       y1="3.932"
       y2="59.364"
       gradientUnits="userSpaceOnUse"
       gradientTransform="translate(-47.000563,-80.783598)" /><linearGradient
       xlink:href="#b"
       id="c"
       x1="15.667"
       x2="21.796"
       y1="3.35"
       y2="3.35"
       gradientTransform="matrix(1,0,0,1.4376916,-1.198,8.4657105)"
       gradientUnits="userSpaceOnUse" /><linearGradient
       xlink:href="#b"
       id="d"
       x1="15.667"
       x2="21.796"
       y1="3.35"
       y2="3.35"
       gradientTransform="matrix(1,0,0,2.5492426,27.737,10.318317)"
       gradientUnits="userSpaceOnUse" /><linearGradient
       xlink:href="#b"
       id="l"
       x1="68"
       x2="120"
       y1="72"
       y2="72"
       gradientUnits="userSpaceOnUse" /><linearGradient
       xlink:href="#b"
       id="k"
       x1="8"
       x2="60"
       y1="72"
       y2="72"
       gradientUnits="userSpaceOnUse" /><filter
       id="j"
       width="1.4626339"
       height="1.462653"
       x="-0.23131696"
       y="-0.23132649"
       style="color-interpolation-filters:sRGB"><feGaussianBlur
         stdDeviation="2.339"
         id="feGaussianBlur8" /></filter><filter
       id="i"
       width="1.4626339"
       height="1.4626339"
       x="-0.23131696"
       y="-0.23131696"
       style="color-interpolation-filters:sRGB"><feGaussianBlur
         stdDeviation="2.339"
         id="feGaussianBlur9" /></filter><filter
       id="filter1057"
       x="-0.026999999"
       y="-0.026999999"
       width="1.054"
       height="1.054"
       color-interpolation-filters="sRGB"><feGaussianBlur
         stdDeviation="0.61875"
         id="feGaussianBlur1" /></filter><linearGradient
       id="linearGradient1053"
       x1="-127"
       x2="-72"
       y1="60"
       y2="5"
       gradientTransform="matrix(1.0000071,0,0,1.0000071,131.50257,-0.51043499)"
       gradientUnits="userSpaceOnUse"><stop
         stop-color="#dee0e2"
         offset="0"
         id="stop1-2" /><stop
         stop-color="#f1f3f5"
         stop-opacity=".99608"
         offset="1"
         id="stop2-9" /></linearGradient><linearGradient
       id="linearGradient1053-3"
       x1="68"
       x2="128"
       y1="62"
       y2="2"
       gradientTransform="matrix(0.24253,0,0,0.24253,-16.492,9.5786)"
       gradientUnits="userSpaceOnUse"><stop
         stop-color="#e0e4e9"
         offset="0"
         id="stop1-5" /><stop
         stop-color="#fefeff"
         offset="1"
         id="stop2-6" /></linearGradient><linearGradient
       id="linearGradient2556-0"
       x1="-305"
       x2="-240"
       y1="38"
       y2="38"
       gradientTransform="matrix(0.84614685,0,0,0.84614685,303.23684,1.2719604)"
       gradientUnits="userSpaceOnUse"><stop
         stop-color="#dcdcdc"
         offset="0"
         id="stop5164" /><stop
         stop-color="#b4b4b4"
         offset="1"
         id="stop5166" /></linearGradient><linearGradient
       id="linearGradient2652-3"
       x1="-261.67001"
       x2="-240"
       y1="13"
       y2="13"
       gradientUnits="userSpaceOnUse"
       gradientTransform="matrix(0.92308608,0,0,0.92308608,347.10985,59.771581)"><stop
         stop-color="#787878"
         offset="0"
         id="stop5197" /><stop
         stop-color="#5a5a5a"
         offset="1"
         id="stop5199" /></linearGradient><linearGradient
       inkscape:collect="always"
       xlink:href="#linearGradient44"
       id="linearGradient45"
       x1="190.33862"
       y1="53.917969"
       x2="220.33673"
       y2="53.917969"
       gradientUnits="userSpaceOnUse" /><linearGradient
       inkscape:collect="always"
       xlink:href="#linearGradient48"
       id="linearGradient50"
       x1="160.33789"
       y1="53.917969"
       x2="190.33862"
       y2="53.917969"
       gradientUnits="userSpaceOnUse" /></defs><g
     id="g58"><rect
       width="6.1290002"
       height="11.152936"
       x="43.403999"
       y="13.280542"
       ry="3.0645001"
       style="fill:url(#d);fill-opacity:1;stroke-width:3.19326;stroke-linecap:round;stroke-linejoin:bevel"
       id="rect10"
       rx="3.0645001" /><rect
       width="6.1290002"
       height="10.643231"
       x="14.469"
       y="10.13631"
       ry="3.0645001"
       style="opacity:1;fill:url(#c);stroke-width:2.39807;stroke-linecap:round;stroke-linejoin:bevel"
       id="rect9"
       rx="3.0645001" /><g
       id="g55"
       transform="translate(-158.33825)"><path
         id="rect6"
         style="fill:url(#linearGradient50);fill-opacity:1;stroke-width:0.499871"
         d="m 190.33789,21.820312 h -26 c -2.21592,10e-7 -4,1.784078 -4,4 v 28 c 0,2.215923 1.78408,4 4,4 h 26 z" /><path
         id="path44"
         style="fill:url(#linearGradient45);fill-opacity:1;stroke-width:0.499871"
         d="m 190.33789,21.820312 v 36 h 26 c 2.21592,0 4,-1.784077 4,-4 v -28 c 0,-2.215922 -1.78408,-4 -4,-4 z" /><path
         id="rect1"
         style="fill:#875e3a;fill-opacity:1;stroke-width:0.499871"
         d="m 190.33862,17.917969 v 36 h 26 c 2.21592,0 4,-1.784077 4,-4 v -28 c 0,-2.215923 -1.78408,-4 -4,-4 z" /><path
         id="path5"
         style="fill:#cdab90;fill-opacity:1;stroke-width:0.499871"
         d="m 164.33862,17.917969 c -2.21592,0 -4,1.784077 -4,4 v 28 c 0,2.215923 1.78408,4 4,4 h 26 v -36 z" /></g><g
       id="g57"
       transform="translate(0,-4.2073325)"><path
         fill="url(#h)"
         d="m 45.834,51.525563 c -6.701,0 -12.134,-5.433 -12.134,-12.135 0,-6.7 5.433,-12.133 12.134,-12.133 6.701,0 12.134,5.432 12.134,12.133 0,6.702 -5.433,12.134 -12.134,12.134 m 0,0"
         style="opacity:0.25;fill:#000000;fill-opacity:1;stroke-width:0.466683;filter:url(#i)"
         id="path11" /><path
         fill="url(#h)"
         d="m 18.168,51.708563 c -6.701,0 -12.134,-5.432 -12.134,-12.133 0,-6.702 5.433,-12.134 12.134,-12.134 6.701,0 12.134,5.432 12.134,12.134 0,6.7 -5.433,12.133 -12.134,12.133 m 0,0"
         style="opacity:0.25;fill:#000000;fill-opacity:1;stroke-width:0.466683;filter:url(#j)"
         id="path12" /><g
         id="g56"
         transform="translate(0,7.6055626)"><path
           fill="url(#g)"
           d="M 34,98 C 19.64,98 8,86.36 8,72 8,57.64 19.64,46 34,46 48.36,46 60,57.64 60,72 60,86.36 48.36,98 34,98 m 0,0"
           style="display:inline;fill:url(#k);fill-opacity:1"
           transform="matrix(0.46668,0,0,0.46668,2.133,-1.632)"
           id="path13" /><path
           fill="#f6f5f4"
           d="m 29.2,31.97 c 0,6.185 -5.014,11.2 -11.2,11.2 -6.186,0 -11.2,-5.015 -11.2,-11.2 0,-6.186 5.015,-11.2 11.2,-11.2 6.186,0 11.2,5.014 11.2,11.2 m 0,0"
           id="path14" /><path
           fill="#3d3846"
           d="M 28.268,32.436 H 26.4 v -0.933 h 1.867 z m 0,0"
           id="path15" /><path
           fill="#77767b"
           d="m 26.658,37.508 -1.615,-0.934 0.466,-0.809 1.616,0.933 z m -3.928,3.586 -0.934,-1.616 0.81,-0.466 0.933,1.615 z m 0,0"
           id="path16" /><path
           fill="#3d3846"
           d="M 17.534,42.237 V 40.37 h 0.933 v 1.867 z m 0,0"
           id="path17" /><path
           fill="#77767b"
           d="m 12.462,40.627 0.934,-1.615 0.81,0.466 -0.934,1.616 z m -3.586,-3.929 1.616,-0.933 0.466,0.81 -1.615,0.933 z m 0,0"
           id="path18" /><path
           fill="#3d3846"
           d="M 7.733,31.503 H 9.6 v 0.933 H 7.733 Z m 0,0"
           id="path19" /><path
           fill="#77767b"
           d="m 9.343,26.431 1.615,0.934 -0.466,0.81 -1.616,-0.934 z m 3.929,-3.585 0.933,1.615 -0.81,0.466 -0.933,-1.615 z m 0,0"
           id="path20" /><path
           fill="#3d3846"
           d="m 18.467,21.703 v 1.866 h -0.933 v -1.866 z m 0,0"
           id="path21" /><path
           fill="#77767b"
           d="m 23.539,23.312 -0.934,1.615 -0.81,-0.466 0.934,-1.615 z m 3.586,3.928 -1.616,0.934 -0.466,-0.81 1.615,-0.933 z m 0,0"
           id="path22" /><path
           fill="#e01b24"
           d="M 14.267,22.636 H 15.2 v 3.733 h -0.933 z m 0,0"
           id="path23" /><path
           fill="#e01b24"
           d="m 15.667,22.636 a 0.93300013,0.93300013 0 1 1 -1.866,0.001 0.93300013,0.93300013 0 0 1 1.866,-0.001 m 0,0"
           id="path24" /><g
           fill="#241f31"
           style="display:inline"
           id="g27"><path
             d="m 19.867,31.97 a 1.8665,1.8665 0 1 1 -3.733,0 1.8665,1.8665 0 1 1 3.733,0 m 0,0"
             id="path25" /><path
             d="m 18.01,36.73 -0.925,-4.576 1.83,-0.369 0.925,4.574 z m 0,0"
             id="path26" /><path
             d="m 10.75,28.717 7.416,2.817 -0.331,0.873 -7.416,-2.818 z m 0,0"
             id="path27" /></g><path
           fill="url(#h)"
           d="M 94,98 C 79.64,98 68,86.36 68,72 68,57.64 79.64,46 94,46 c 14.36,0 26,11.64 26,26 0,14.36 -11.64,26 -26,26 m 0,0"
           style="fill:url(#l);fill-opacity:1"
           transform="matrix(0.46668,0,0,0.46668,2.133,-1.632)"
           id="path28" /><path
           fill="#f6f5f4"
           d="m 57.202,31.97 c 0,6.185 -5.015,11.2 -11.2,11.2 -6.186,0 -11.2,-5.015 -11.2,-11.2 0,-6.186 5.014,-11.2 11.2,-11.2 6.186,0 11.2,5.014 11.2,11.2 m 0,0"
           id="path29" /><path
           fill="#3d3846"
           d="m 56.269,32.436 h -1.867 v -0.933 h 1.867 z m 0,0"
           id="path30" /><path
           fill="#77767b"
           d="m 54.659,37.508 -1.615,-0.934 0.466,-0.809 1.616,0.933 z m -3.929,3.586 -0.933,-1.616 0.81,-0.466 0.933,1.615 z m 0,0"
           id="path31" /><path
           fill="#3d3846"
           d="M 45.535,42.237 V 40.37 h 0.933 v 1.867 z m 0,0"
           id="path32" /><path
           fill="#77767b"
           d="m 40.463,40.627 0.934,-1.615 0.81,0.466 -0.934,1.616 z m -3.586,-3.929 1.616,-0.933 0.466,0.81 -1.615,0.933 z m 0,0"
           id="path33" /><path
           fill="#3d3846"
           d="m 35.734,31.503 h 1.867 v 0.933 h -1.867 z m 0,0"
           id="path34" /><path
           fill="#77767b"
           d="m 37.344,26.431 1.615,0.934 -0.466,0.81 -1.616,-0.934 z m 3.929,-3.585 0.933,1.615 -0.81,0.466 -0.933,-1.615 z m 0,0"
           id="path35" /><path
           fill="#3d3846"
           d="m 46.468,21.703 v 1.866 h -0.933 v -1.866 z m 0,0"
           id="path36" /><path
           fill="#77767b"
           d="m 51.54,23.312 -0.934,1.615 -0.81,-0.466 0.934,-1.615 z m 3.586,3.928 -1.616,0.934 -0.466,-0.81 1.615,-0.933 z m 0,0"
           id="path37" /><path
           fill="#e01b24"
           d="m 42.268,22.636 h 0.933 v 3.733 h -0.933 z m 0,0"
           id="path38" /><path
           fill="#e01b24"
           d="m 43.668,22.636 a 0.93300013,0.93300013 0 1 1 -1.866,0.001 0.93300013,0.93300013 0 0 1 1.866,-0.001 m 0,0"
           id="path39" /><path
           fill="#241f31"
           d="m 47.868,31.97 a 1.8665,1.8665 0 1 1 -3.733,0 1.8665,1.8665 0 1 1 3.733,0 m 0,0"
           id="path40" /><path
           fill="#241f31"
           d="m 46.01,36.73 -0.924,-4.576 1.83,-0.369 0.925,4.574 z m 0,0"
           id="path41" /><path
           fill="#241f31"
           d="m 38.752,28.717 7.415,2.817 -0.331,0.873 -7.416,-2.818 z m 0,0"
           id="path42" /></g></g></g></svg>
