<?xml version="1.0" encoding="UTF-8" standalone="no"?>
<svg
   xmlns:dc="http://purl.org/dc/elements/1.1/"
   xmlns:cc="http://creativecommons.org/ns#"
   xmlns:rdf="http://www.w3.org/1999/02/22-rdf-syntax-ns#"
   xmlns:svg="http://www.w3.org/2000/svg"
   xmlns="http://www.w3.org/2000/svg"
   xmlns:sodipodi="http://sodipodi.sourceforge.net/DTD/sodipodi-0.dtd"
   xmlns:inkscape="http://www.inkscape.org/namespaces/inkscape"
   width="64"
   height="64"
   version="1"
   id="svg12"
   sodipodi:docname="compton.svg"
   inkscape:version="1.0.2 (e86c870879, 2021-01-15)">
  <metadata
     id="metadata18">
    <rdf:RDF>
      <cc:Work
         rdf:about="">
        <dc:format>image/svg+xml</dc:format>
        <dc:type
           rdf:resource="http://purl.org/dc/dcmitype/StillImage" />
        <dc:title></dc:title>
      </cc:Work>
    </rdf:RDF>
  </metadata>
  <defs
     id="defs16">
    <clipPath
       id="clipPath13429">
      <path
         d="m481 318h22v22h-22z"
         id="path843" />
    </clipPath>
    <clipPath
       id="clipPath13465">
      <path
         d="m507 318h22v22h-22z"
         id="path846" />
    </clipPath>
    <clipPath
       id="clipPath13501">
      <path
         d="m530 318h22v22h-22z"
         id="path849" />
    </clipPath>
    <clipPath
       id="clipPath13753">
      <path
         d="m672 1064c0-1.105 4.925-2 11-2s11 0.895 11 2-4.925 2-11 2-11-0.895-11-2"
         id="path852" />
    </clipPath>
    <clipPath
       id="clipPath13771">
      <path
         d="m660 1057h51v65.001h-51z"
         id="path855" />
    </clipPath>
    <clipPath
       id="clipPath14035">
      <path
         d="m659 517h53v18h-53z"
         id="path858" />
    </clipPath>
    <clipPath
       id="clipPath14127">
      <path
         d="m659 500h53v18h-53z"
         id="path861" />
    </clipPath>
    <clipPath
       id="clipPath14445">
      <path
         d="m648 112h73v60h-73z"
         id="path864" />
    </clipPath>
    <clipPath
       id="clipPath14609">
      <path
         d="m826 1056h59v60h-59z"
         id="path867" />
    </clipPath>
    <clipPath
       id="clipPath15305">
      <path
         d="m805 276h100v100h-100z"
         id="path870" />
    </clipPath>
    <clipPath
       id="clipPath15341">
      <path
         d="m145 1063.8h74.152v45.21h-74.152z"
         id="path873" />
    </clipPath>
    <clipPath
       id="clipPath15715">
      <path
         d="m151 667h57v57h-57z"
         id="path876" />
    </clipPath>
    <clipPath
       id="clipPath15807">
      <path
         d="m154 697h51v51h-51z"
         id="path879" />
    </clipPath>
    <clipPath
       id="clipPath16001">
      <path
         d="m500.04 864.45h36.012v67.52h-36.012z"
         id="path882" />
    </clipPath>
    <clipPath
       id="clipPath16093">
      <path
         d="m836 870.54h47v55.539h-47z"
         id="path885" />
    </clipPath>
    <clipPath
       id="clipPath16477">
      <path
         d="m318.03 702.35h62.848v37.991h-62.848z"
         id="path888" />
    </clipPath>
    <clipPath
       id="clipPath16579">
      <path
         d="m485.03 133.35h62.847v37.991h-62.847z"
         id="path891" />
    </clipPath>
    <clipPath
       id="clipPath16709">
      <path
         d="m493.37 677.93h45.643v68.067h-45.643z"
         id="path894" />
    </clipPath>
    <clipPath
       id="clipPath24218">
      <path
         d="m144.34 1018.2h71.467v78h-71.467z"
         id="path897" />
    </clipPath>
    <clipPath
       id="clipPath24382">
      <path
         d="m293.21 1068.6 66.323-38.292 36.047 62.435-66.323 38.292z"
         id="path900" />
    </clipPath>
    <clipPath
       id="clipPath24650">
      <path
         d="m488.86 1054.5h10v10.706h-10z"
         id="path903" />
    </clipPath>
    <clipPath
       id="clipPath24700">
      <path
         d="m508 1066.8h10.001v10.705h-10.001z"
         id="path906" />
    </clipPath>
    <clipPath
       id="clipPath24750">
      <path
         d="m525 1045.8h10v10.706h-10z"
         id="path909" />
    </clipPath>
    <clipPath
       id="clipPath24864">
      <path
         d="m836 1043.7h25.5v31.5h-25.5z"
         id="path912" />
    </clipPath>
    <clipPath
       id="clipPath24896">
      <path
         d="m838 1062.2h24v24h-24z"
         id="path915" />
    </clipPath>
    <clipPath
       id="clipPath25070">
      <path
         d="m134 489.24h7v6h-7z"
         id="path918" />
    </clipPath>
    <clipPath
       id="clipPath25100">
      <path
         d="m216 489.24h7v6h-7z"
         id="path921" />
    </clipPath>
    <clipPath
       id="clipPath25502">
      <path
         d="m838 477.24h22v22h-22z"
         id="path924" />
    </clipPath>
    <clipPath
       id="clipPath25686">
      <path
         d="m704 1061.2h25v25h-25z"
         id="path927" />
    </clipPath>
    <clipPath
       id="clipPath25788">
      <path
         d="m663.04 1078.6-1.808-3.514-21.07-47.453c13.336-18.439 48.336-26.938 73.836-3.439 0.842 0 6.476 6.246 6 7l-18.386 25.895c-0.483 0.765-1.453 0.946-2.177 0.431l-15.505-11.011c-0.359-0.255-0.847-0.153-1.07 0.238l-18.272 31.869c-0.218 0.384-0.502 0.578-0.782 0.578-0.282 0-0.561-0.197-0.766-0.594"
         id="path930" />
    </clipPath>
    <clipPath
       id="clipPath26420">
      <path
         d="m127 820.24h100v100h-100z"
         id="path933" />
    </clipPath>
    <clipPath
       id="clipPath26860">
      <path
         d="m809 680.24c0-22.092 17.908-40 40-40s40 17.908 40 40c0 22.091-17.908 40-40 40s-40-17.909-40-40"
         id="path936" />
    </clipPath>
    <clipPath
       id="clipPath27506">
      <path
         d="m658 469.24h44v45h-44z"
         id="path939" />
    </clipPath>
    <clipPath
       id="clipPath27772">
      <path
         d="m651 271.24h58v58h-58z"
         id="path942" />
    </clipPath>
    <clipPath
       id="clipPath27864">
      <path
         d="m662 307.24h38v8h-38z"
         id="path945" />
    </clipPath>
    <clipPath
       id="clipPath28028">
      <path
         d="m858.98 137.24c0.013-0.101 0.021-0.203 0.021-0.307v-6.693h15.75c1.237 0 2.25-1.013 2.25-2.25v-11.25l-27-4.5-27 4.5v-2.25l27-4.5 27 4.5v-27c0-1.237-1.013-2.25-2.25-2.25h-49.5c-1.237 0-2.25 1.013-2.25 2.25v-4.25h54v54zm-35.979 0v-9.25c0 1.237 1.013 2.25 2.25 2.25h15.75v6.693c0 0.104 7e-3 0.207 0.02 0.307zm22.5-7h9v4.5h-9zm1.125-9c-0.62 0-1.125-0.506-1.125-1.125v-2.25c0-0.619 0.505-1.125 1.125-1.125h6.75c0.619 0 1.125 0.506 1.125 1.125v2.25c0 0.619-0.506 1.125-1.125 1.125z"
         id="path948" />
    </clipPath>
    <clipPath
       id="clipPath28200">
      <path
         d="m531.27 136.24c6.325-2.29 10.727-8.277 10.727-15.484 0-11.316-10.2-20.563-25.65-34.575l-4.35-3.941-4.35 3.941c-15.45 14.012-25.65 23.259-25.65 34.575v-39.516h60v55zm-26.983 0c2.995-1.052 5.686-2.883 7.71-5.25 2.024 2.367 4.715 4.198 7.71 5.25zm-22.29 0v-15.484c0 7.207 4.402 13.194 10.727 15.484z"
         id="path951" />
    </clipPath>
    <clipPath
       id="clipPath28364">
      <path
         d="m648 79.241h64v64h-64z"
         id="path954" />
    </clipPath>
    <clipPath
       id="clipPath28984">
      <path
         d="m500 691.74c0-3.037 2.463-5.5 5.5-5.5s5.5 2.463 5.5 5.5-2.463 5.5-5.5 5.5-5.5-2.463-5.5-5.5"
         id="path957" />
    </clipPath>
    <clipPath
       id="clipPath29012">
      <path
         d="m500 669.74c0-3.037 2.463-5.5 5.5-5.5s5.5 2.463 5.5 5.5c0 3.038-2.463 5.5-5.5 5.5s-5.5-2.462-5.5-5.5"
         id="path960" />
    </clipPath>
    <clipPath
       id="clipPath29040">
      <path
         d="m494 680.74c0-3.037 2.462-5.5 5.5-5.5s5.5 2.463 5.5 5.5c0 3.038-2.462 5.5-5.5 5.5s-5.5-2.462-5.5-5.5"
         id="path963" />
    </clipPath>
    <clipPath
       id="clipPath29068">
      <path
         d="m513 691.74c0-3.037 2.463-5.5 5.5-5.5s5.5 2.463 5.5 5.5-2.463 5.5-5.5 5.5-5.5-2.463-5.5-5.5"
         id="path966" />
    </clipPath>
    <clipPath
       id="clipPath29096">
      <path
         d="m513 669.74c0-3.037 2.463-5.5 5.5-5.5s5.5 2.463 5.5 5.5c0 3.038-2.463 5.5-5.5 5.5s-5.5-2.462-5.5-5.5"
         id="path969" />
    </clipPath>
    <clipPath
       id="clipPath29124">
      <path
         d="m507 680.74c0-3.037 2.463-5.5 5.5-5.5s5.5 2.463 5.5 5.5c0 3.038-2.463 5.5-5.5 5.5s-5.5-2.462-5.5-5.5"
         id="path972" />
    </clipPath>
    <clipPath
       id="clipPath29152">
      <path
         d="m520 680.74c0-3.037 2.463-5.5 5.5-5.5s5.5 2.463 5.5 5.5c0 3.038-2.463 5.5-5.5 5.5s-5.5-2.462-5.5-5.5"
         id="path975" />
    </clipPath>
    <clipPath
       id="clipPath29252">
      <path
         d="m321 322.24c-4.97 0-9-4.029-9-9 0-4.97 4.03-9 9-9h45c4.971 0 9 4.03 9 9 0 4.971-4.029 9-9 9z"
         id="path978" />
    </clipPath>
    <clipPath
       id="clipPath29280">
      <path
         d="m322 297.24c-4.971 0-9-4.029-9-9 0-4.97 4.029-9 9-9h45c4.971 0 9 4.03 9 9 0 4.971-4.029 9-9 9z"
         id="path981" />
    </clipPath>
    <clipPath
       id="clipPath29400">
      <path
         d="m155 83.24h44v53h-44z"
         id="path984" />
    </clipPath>
    <style
       type="text/css"
       id="style987" />
    <style
       type="text/css"
       id="style989" />
    <linearGradient
       id="linearGradient1465"
       x1="50.633"
       x2="64.116"
       y1="12.823"
       y2="25.536"
       gradientTransform="matrix(3.2732313,-1.889801,1.889801,3.2732313,-198.09764,76.23307)"
       gradientUnits="userSpaceOnUse">
      <stop
         stop-color="#869099"
         offset="0"
         id="stop991" />
      <stop
         stop-color="#4c6068"
         offset="1"
         id="stop993" />
    </linearGradient>
    <linearGradient
       id="linearGradient1481"
       x1="55.678"
       x2="61.884"
       y1="6.314"
       y2="12.52"
       gradientUnits="userSpaceOnUse"
       gradientTransform="matrix(3.779602,0,0,3.779602,-193.72591,-7.0470947)">
      <stop
         stop-color="#d2d7dc"
         offset="0"
         id="stop996" />
      <stop
         stop-color="#fff"
         offset="1"
         id="stop998" />
    </linearGradient>
    <linearGradient
       id="linearGradient1491"
       x1="55.678"
       x2="61.884"
       y1="6.314"
       y2="12.52"
       gradientTransform="matrix(2.675807,0,0,2.675807,-127.80587,4.3559645)"
       gradientUnits="userSpaceOnUse">
      <stop
         stop-color="#006ec8"
         offset="0"
         id="stop1001" />
      <stop
         stop-color="#0a327d"
         offset="1"
         id="stop1003" />
    </linearGradient>
  </defs>
  <sodipodi:namedview
     pagecolor="#ffffff"
     bordercolor="#666666"
     borderopacity="1"
     objecttolerance="10"
     gridtolerance="10"
     guidetolerance="10"
     inkscape:pageopacity="0"
     inkscape:pageshadow="2"
     inkscape:window-width="1920"
     inkscape:window-height="935"
     id="namedview14"
     showgrid="false"
     inkscape:zoom="6.0546875"
     inkscape:cx="50.210511"
     inkscape:cy="28.766942"
     inkscape:window-x="0"
     inkscape:window-y="38"
     inkscape:window-maximized="1"
     inkscape:current-layer="svg12" />
  <g
     transform="matrix(3.779602,0,0,3.779602,-154.78845,0.49003641)"
     id="g1018"
     style="fill:#5e4aa6;stroke-width:0.26458">
    <circle
       cx="-330.35001"
       cy="-328.38"
       r="0"
       id="circle1010" />
    <circle
       cx="-312.10999"
       cy="-326.25"
       r="0"
       id="circle1012" />
    <circle
       cx="-306.01999"
       cy="-333.07001"
       r="0"
       id="circle1014" />
    <circle
       cx="-308.84"
       cy="-326.01001"
       r="0"
       id="circle1016" />
  </g>
  <circle
     cx="-1146.5447"
     cy="-1251.7572"
     r="0"
     id="circle1020"
     style="fill:#5e4aa6;stroke-width:1.00001" />
  <circle
     cx="-47.025955"
     cy="13.728395"
     r="0"
     fill-rule="evenodd"
     id="circle1022"
     style="fill:#5e4aa6;stroke-width:1.00001" />
  <g
     clip-path="url(#clipPath13429)"
     id="g1030"
     transform="matrix(1.3333302,0,0,-1.3333302,678.89348,915.15501)">
    <g
       transform="translate(448,326)"
       id="g1028">
      <path
         d="M 0,0 C 3.866,0 7,3.134 7,7 7,10.866 3.866,14 0,14 -3.866,14 -7,10.866 -7,7 -7,3.134 -3.866,0 0,0"
         fill="#ffffff"
         fill-rule="evenodd"
         id="path1026" />
    </g>
  </g>
  <g
     clip-path="url(#clipPath13465)"
     id="g1038"
     transform="matrix(1.3333302,0,0,-1.3333302,678.89348,915.15501)">
    <g
       transform="translate(474,326)"
       id="g1036">
      <path
         d="M 0,0 C 3.866,0 7,3.134 7,7 7,10.866 3.866,14 0,14 -3.866,14 -7,10.866 -7,7 -7,3.134 -3.866,0 0,0"
         fill="#ffffff"
         fill-rule="evenodd"
         id="path1034" />
    </g>
  </g>
  <g
     clip-path="url(#clipPath13501)"
     id="g1046"
     transform="matrix(1.3333302,0,0,-1.3333302,678.89348,915.15501)">
    <g
       transform="translate(497,326)"
       id="g1044">
      <path
         d="M 0,0 C 3.866,0 7,3.134 7,7 7,10.866 3.866,14 0,14 -3.866,14 -7,10.866 -7,7 -7,3.134 -3.866,0 0,0"
         fill="#ffffff"
         fill-rule="evenodd"
         id="path1042" />
    </g>
  </g>
  <g
     clip-path="url(#clipPath13753)"
     id="g1052"
     transform="matrix(1.3333302,0,0,-1.3333302,678.89348,915.15501)">
    <path
       d="m 593,1073 h 36 v -18 h -36 z m 18,-11 c 6.075,0 11,0.895 11,2 0,1.105 -4.925,2 -11,2 -6.075,0 -11,-0.895 -11,-2 0,-1.105 4.925,-2 11,-2"
       fill="#ffffff"
       fill-rule="evenodd"
       id="path1050" />
  </g>
  <g
     clip-path="url(#clipPath13771)"
     id="g1060"
     transform="matrix(1.3333302,0,0,-1.3333302,678.89348,915.15501)">
    <g
       transform="translate(583.42,1063)"
       id="g1058">
      <path
         d="M 0,0 C 0,0 21.582,23.182 21.582,35.147 21.582,47.195 11.898,57 0,57 c -11.816,0 -21.418,-9.805 -21.418,-21.853 0,-8.06 9.766,-21.188 16.002,-28.832 z m 0,42.542 c 3.938,0 7.14,-3.323 7.14,-7.395 0,-3.822 -3.202,-7.146 -7.14,-7.146 -3.856,0 -7.222,3.324 -7.222,7.146 0,4.072 3.366,7.395 7.222,7.395"
         fill="#ffffff"
         id="path1056" />
    </g>
  </g>
  <g
     clip-path="url(#clipPath14035)"
     id="g1068"
     transform="matrix(1.3333302,0,0,-1.3333302,678.89348,915.15501)">
    <g
       transform="translate(562,535)"
       id="g1066">
      <path
         d="m 0,0 h 35 c 2.762,0 5,-2.238 5,-5 0,-2.762 -2.238,-5 -5,-5 H 0 c -2.762,0 -5,2.238 -5,5 0,2.762 2.238,5 5,5"
         fill="#ffffff"
         fill-rule="evenodd"
         id="path1064" />
    </g>
  </g>
  <g
     clip-path="url(#clipPath14127)"
     id="g1076"
     transform="matrix(1.3333302,0,0,-1.3333302,678.89348,915.15501)">
    <g
       transform="translate(562,518)"
       id="g1074">
      <path
         d="m 0,0 h 35 c 2.762,0 5,-2.238 5,-5 0,-2.762 -2.238,-5 -5,-5 H 0 c -2.762,0 -5,2.238 -5,5 0,2.762 2.238,5 5,5"
         fill="#ffffff"
         fill-rule="evenodd"
         id="path1072" />
    </g>
  </g>
  <g
     clip-path="url(#clipPath14445)"
     id="g1084"
     transform="matrix(1.3333302,0,0,-1.3333302,678.89348,915.15501)">
    <g
       transform="translate(536.43,133.83)"
       id="g1082">
      <path
         d="M 0,0 C -10.01,-12.916 -22.288,-9.047 -24.23,-8.072 -29.077,-6.779 -30.694,1.943 -24.556,4.846 -14.538,8.072 -5.496,4.521 0.968,1.293 0.324,0.326 0,0 0,0 m 10.667,3.553 c 4.521,8.072 6.139,15.826 6.139,15.826 H 1.617 v 5.812 h 17.767 v 2.26 H 1.617 v 8.723 h -8.074 v -8.723 h -16.156 v -2.584 h 16.156 v -5.812 h -13.57 V 16.47 H 7.756 c 0,-0.325 0,-0.325 -0.324,-0.968 0,-2.909 -1.936,-6.779 -3.554,-10.014 -20.677,8.079 -26.491,3.235 -28.108,2.584 -13.564,-9.689 -0.968,-21.963 1.293,-21.638 14.538,-3.227 23.905,2.91 30.369,10.657 0.324,-0.325 0.967,-0.325 1.292,-0.325 4.528,-2.578 25.848,-12.592 25.848,-12.592 V -3.552 C 30.694,-3.227 19.066,0.643 10.667,3.553"
         fill="#ffffff"
         id="path1080" />
    </g>
  </g>
  <g
     clip-path="url(#clipPath14609)"
     id="g1092"
     transform="matrix(1.3333302,0,0,-1.3333302,678.89348,915.15501)">
    <g
       transform="translate(720.03,1091.5)"
       id="g1090">
      <path
         d="m 0,0 c -0.149,0.354 -0.224,0.837 -0.224,1.451 0,0.372 0.103,0.828 0.306,1.368 0.205,0.539 0.428,0.958 0.671,1.256 -0.019,0.409 0.051,0.902 0.209,1.478 0.159,0.576 0.368,0.976 0.629,1.2 0,2.586 0.86,5.269 2.581,8.05 1.722,2.782 3.744,4.73 6.07,5.846 2.585,1.228 5.6,1.842 9.041,1.842 2.475,0 4.949,-0.511 7.423,-1.534 0.912,-0.391 1.749,-0.837 2.512,-1.34 0.762,-0.502 1.423,-1.022 1.981,-1.562 0.559,-0.54 1.07,-1.172 1.534,-1.897 0.465,-0.725 0.856,-1.413 1.172,-2.064 0.318,-0.651 0.619,-1.437 0.908,-2.358 0.287,-0.921 0.524,-1.753 0.71,-2.497 0.186,-0.744 0.391,-1.655 0.614,-2.734 l 0.028,-0.14 C 37.188,4.822 37.7,3.426 37.7,2.179 37.7,1.919 37.616,1.547 37.448,1.064 37.28,0.58 37.196,0.227 37.196,0.003 c 0,-0.019 0.015,-0.052 0.043,-0.099 0.028,-0.047 0.061,-0.093 0.098,-0.139 0.038,-0.046 0.057,-0.077 0.057,-0.098 1.432,-2.121 2.553,-4.116 3.363,-5.985 0.809,-1.869 1.214,-3.808 1.214,-5.817 0,-0.8 -0.182,-1.73 -0.544,-2.791 -0.363,-1.06 -0.879,-1.59 -1.549,-1.59 -0.167,0 -0.349,0.069 -0.544,0.209 -0.194,0.14 -0.371,0.303 -0.529,0.489 -0.159,0.186 -0.335,0.428 -0.53,0.725 -0.195,0.297 -0.344,0.543 -0.447,0.739 -0.103,0.196 -0.228,0.438 -0.377,0.725 -0.147,0.288 -0.231,0.451 -0.251,0.489 -0.019,0.019 -0.047,0.028 -0.085,0.028 l -0.138,-0.111 c -1.099,-2.864 -2.327,-4.938 -3.684,-6.222 0.372,-0.372 0.944,-0.73 1.716,-1.075 0.772,-0.345 1.414,-0.73 1.925,-1.158 0.511,-0.426 0.841,-1.031 0.991,-1.814 -0.037,-0.074 -0.074,-0.223 -0.112,-0.447 -0.036,-0.224 -0.101,-0.391 -0.195,-0.501 -1.19,-1.804 -4,-2.706 -8.427,-2.706 -0.986,0 -2.013,0.084 -3.084,0.251 -1.069,0.168 -1.981,0.354 -2.734,0.558 -0.753,0.204 -1.726,0.483 -2.916,0.837 -0.279,0.093 -0.493,0.158 -0.643,0.196 -0.259,0.075 -0.687,0.115 -1.282,0.125 -0.595,0.009 -0.967,0.023 -1.116,0.042 -0.763,-0.838 -1.949,-1.442 -3.559,-1.814 -1.609,-0.372 -3.176,-0.558 -4.702,-0.558 -0.65,0 -1.293,0.014 -1.925,0.042 -0.632,0.028 -1.498,0.113 -2.595,0.252 -1.098,0.139 -2.038,0.33 -2.82,0.572 -0.781,0.241 -1.473,0.613 -2.078,1.115 -0.604,0.502 -0.906,1.098 -0.906,1.786 0,0.744 0.093,1.298 0.279,1.661 0.187,0.364 0.569,0.815 1.144,1.353 0.205,0.038 0.581,0.159 1.131,0.363 0.549,0.204 1.009,0.316 1.381,0.334 0.074,0 0.204,0.019 0.39,0.057 0.038,0.037 0.057,0.074 0.057,0.111 l -0.057,0.084 c -0.892,0.204 -1.897,1.185 -3.014,2.944 -1.117,1.758 -1.796,3.214 -2.038,4.367 l -0.139,0.084 c -0.074,0 -0.186,-0.185 -0.334,-0.557 -0.335,-0.763 -0.842,-1.455 -1.521,-2.079 -0.679,-0.622 -1.4,-0.971 -2.163,-1.046 h -0.028 c -0.073,0 -0.129,0.041 -0.167,0.125 -0.037,0.083 -0.084,0.134 -0.139,0.153 -0.428,1.004 -0.642,1.934 -0.642,2.79 0,5.116 2.343,9.45 7.032,13.002 z"
         fill="#ffffff"
         id="path1088" />
    </g>
  </g>
  <g
     clip-path="url(#clipPath15305)"
     id="g1100"
     transform="matrix(1.3333302,0,0,-1.3333302,678.89348,915.15501)">
    <g
       transform="translate(655,300)"
       id="g1098">
      <path
         d="M 0,0 C 16.568,0 30,13.432 30,30 30,46.568 16.568,60 0,60 -16.568,60 -30,46.568 -30,30 -30,13.432 -16.568,0 0,0 Z"
         fill="none"
         stroke="#ffffff"
         stroke-miterlimit="10"
         stroke-width="8"
         id="path1096" />
    </g>
  </g>
  <g
     clip-path="url(#clipPath15341)"
     id="g1108"
     transform="matrix(1.3333302,0,0,-1.3333302,678.89348,915.15501)">
    <g
       transform="translate(66.849,1083.1)"
       id="g1106">
      <path
         d="m 0,0 c 0,5.302 -3.661,9.749 -8.591,10.948 -0.209,8.314 -7.006,14.991 -15.366,14.991 -4.897,0 -9.254,-2.293 -12.07,-5.861 -1.579,2.041 -4.05,3.358 -6.828,3.358 -4.769,0 -8.633,-3.868 -8.633,-8.639 0,-0.416 0.031,-0.825 0.089,-1.224 -0.726,0.13 -1.47,0.203 -2.232,0.203 -6.913,0 -12.515,-5.607 -12.515,-12.524 0,-6.916 5.602,-12.523 12.515,-12.523 h 42.394 c 6.21,0.013 11.241,5.053 11.241,11.269 z"
         fill="#ffffff"
         id="path1104" />
    </g>
  </g>
  <g
     clip-path="url(#clipPath15715)"
     id="g1116"
     transform="matrix(1.3333302,0,0,-1.3333302,678.89348,915.15501)">
    <g
       transform="translate(65.5,681)"
       id="g1114">
      <path
         d="M 0,0 C 9.113,0 16.5,7.387 16.5,16.5 16.5,25.613 9.113,33 0,33 -9.113,33 -16.5,25.613 -16.5,16.5 -16.5,7.387 -9.113,0 0,0 Z"
         fill="none"
         stroke="#ffffff"
         stroke-miterlimit="10"
         stroke-width="4"
         id="path1112" />
    </g>
  </g>
  <g
     clip-path="url(#clipPath15807)"
     id="g1124"
     transform="matrix(1.3333302,0,0,-1.3333302,678.89348,915.15501)">
    <g
       transform="translate(77.5,711)"
       id="g1122">
      <path
         d="M 0,0 C 7.456,0 13.5,6.044 13.5,13.5 13.5,20.956 7.456,27 0,27 -7.456,27 -13.5,20.956 -13.5,13.5 -13.5,6.044 -7.456,0 0,0 Z"
         fill="none"
         stroke="#ffffff"
         stroke-miterlimit="10"
         stroke-width="4"
         id="path1120" />
    </g>
  </g>
  <g
     clip-path="url(#clipPath16001)"
     id="g1132"
     transform="matrix(1.3333302,0,0,-1.3333302,678.89348,915.15501)">
    <g
       transform="translate(455.91,931.53)"
       id="g1130">
      <path
         d="m 0,0 c -0.742,-1.039 -4.75,-2.821 -8.165,-3.563 -4.305,-0.891 -6.531,-1.633 -8.758,-2.82 -2.969,-1.782 -4.601,-4.009 -4.305,-6.087 0.149,-0.445 3.711,-5.64 7.868,-11.578 4.304,-5.938 7.868,-10.985 8.016,-11.134 0.149,-0.297 -0.445,-0.297 -2.524,-0.148 -6.531,0.445 -12.469,-2.969 -15.142,-8.314 -0.742,-1.632 -0.89,-2.523 -0.89,-4.453 0,-4.453 2.376,-8.016 6.829,-10.094 1.781,-0.742 2.375,-0.891 6.086,-0.891 4.007,0 4.156,0 6.829,1.336 7.125,3.414 10.093,10.095 7.125,16.181 -0.594,1.336 -4.305,7.719 -8.313,14.251 l -7.274,12.024 h 1.187 c 4.75,0.297 8.017,1.781 10.244,4.305 1.929,2.227 2.523,4.453 2.374,8.016 C 1.039,0.297 0.742,1.039 0,0"
         fill="#ffffff"
         id="path1128" />
    </g>
  </g>
  <g
     clip-path="url(#clipPath16093)"
     id="g1140"
     transform="matrix(1.3333302,0,0,-1.3333302,678.89348,915.15501)">
    <g
       transform="translate(784,902.31)"
       id="g1138">
      <path
         d="m 0,0 c 0,-1.565 -0.904,-2.931 -2.251,-3.674 l -27.781,-18.472 c -0.012,-0.008 -0.026,-0.014 -0.037,-0.02 l -0.017,-0.011 c -0.684,-0.376 -1.48,-0.592 -2.331,-0.592 -2.53,0 -4.583,1.913 -4.583,4.269 v 37 c 0,2.356 2.053,4.27 4.583,4.27 0.851,0 1.647,-0.217 2.331,-0.596 l 0.017,-0.008 c 0.011,-0.009 0.022,-0.014 0.037,-0.02 L -2.251,3.675 C -0.904,2.932 0,1.565 0,0"
         fill="#ffffff"
         id="path1136" />
    </g>
  </g>
  <g
     clip-path="url(#clipPath16477)"
     id="g1148"
     transform="matrix(1.3333302,0,0,-1.3333302,678.89348,915.15501)">
    <g
       transform="translate(223.75,708.35)"
       id="g1146">
      <path
         d="m 0,0 c -15.123,0 -27.418,12.329 -27.418,27.486 0,1.382 1.111,2.505 2.487,2.505 1.379,0 2.499,-1.123 2.499,-2.505 0,-12.4 10.06,-22.487 22.432,-22.487 12.375,0 22.443,10.087 22.443,22.487 0,1.382 1.112,2.505 2.488,2.505 1.378,0 2.499,-1.123 2.499,-2.505 C 27.43,12.329 15.126,0 0,0"
         fill="#ffffff"
         fill-rule="evenodd"
         id="path1144" />
    </g>
  </g>
  <g
     clip-path="url(#clipPath16579)"
     id="g1156"
     transform="matrix(1.3333302,0,0,-1.3333302,678.89348,915.15501)">
    <g
       transform="translate(390.75,139.35)"
       id="g1154">
      <path
         d="m 0,0 c -15.123,0 -27.418,12.329 -27.418,27.485 0,1.383 1.111,2.506 2.487,2.506 1.379,0 2.499,-1.123 2.499,-2.506 0,-12.398 10.06,-22.486 22.432,-22.486 12.375,0 22.443,10.088 22.443,22.486 0,1.383 1.112,2.506 2.488,2.506 1.378,0 2.499,-1.123 2.499,-2.506 C 27.43,12.329 15.126,0 0,0"
         fill="#ffffff"
         fill-rule="evenodd"
         id="path1152" />
    </g>
  </g>
  <g
     clip-path="url(#clipPath16709)"
     id="g1164"
     transform="matrix(1.3333302,0,0,-1.3333302,678.89348,915.15501)">
    <g
       transform="translate(423.93,686.39)"
       id="g1162">
      <path
         d="m 0,0 c 0.245,-0.286 0.605,-0.456 0.986,-0.456 0.382,0 0.743,0.17 0.988,0.456 L 19.49,20.497 c 0.333,0.388 0.408,0.933 0.191,1.388 -0.211,0.463 -0.674,0.756 -1.184,0.756 h -9.93 c -2.118,4.172 -3.109,8.382 -2.973,12.63 0.135,4.248 1.954,12.361 5.455,24.34 C 0.093,53.021 -6.607,41.171 -6.607,28.386 v -5.745 h -9.93 c -0.51,0 -0.966,-0.293 -1.184,-0.756 -0.211,-0.462 -0.135,-1 0.191,-1.388 z"
         fill="#ffffff"
         id="path1160" />
    </g>
  </g>
  <g
     clip-path="url(#clipPath24218)"
     id="g1172"
     transform="matrix(1.3333302,0,0,-1.3333302,545.96488,1070.8746)">
    <g
       transform="translate(9.1685,1040.9)"
       id="g1170">
      <path
         d="M 0,0 25.314,21.067 -0.763,39.718 c 5.846,7.671 15.079,12.622 25.468,12.622 17.673,0 32,-14.327 32,-32 0,-17.673 -14.327,-32 -32,-32 C 14.757,-11.66 5.869,-7.121 0,0 m 27.349,31.812 c 2.835,0 5.132,2.297 5.132,5.132 0,2.834 -2.297,5.132 -5.132,5.132 -2.834,0 -5.132,-2.298 -5.132,-5.132 0,-2.835 2.298,-5.132 5.132,-5.132"
         fill="#ffffff"
         fill-rule="evenodd"
         id="path1168" />
    </g>
  </g>
  <g
     clip-path="url(#clipPath24382)"
     id="g1180"
     transform="matrix(1.3333302,0,0,-1.3333302,545.96488,1070.8746)">
    <g
       transform="translate(194.25,1130.3)"
       id="g1178">
      <path
         d="M 0,0 C 20.173,-11.579 43.841,2 51.309,14.862 58.776,27.723 56.341,46 40.841,52.5 25.341,59 -4.646,59.111 -13.659,43.5 -22.672,27.889 -20.174,11.578 0,0"
         fill="#ffffff"
         fill-rule="evenodd"
         id="path1176" />
    </g>
  </g>
  <g
     clip-path="url(#clipPath24650)"
     id="g1188"
     transform="matrix(1.3333302,0,0,-1.3333302,545.96488,1070.8746)">
    <g
       transform="translate(473.86,1057.5)"
       id="g1186">
      <path
         d="M 0,0 C 1.657,0 3,1.501 3,3.353 3,5.205 1.657,6.706 0,6.706 -1.656,6.706 -3,5.205 -3,3.353 -3,1.501 -1.656,0 0,0"
         fill="#ffffff"
         fill-rule="evenodd"
         id="path1184" />
    </g>
  </g>
  <g
     clip-path="url(#clipPath24700)"
     id="g1196"
     transform="matrix(1.3333302,0,0,-1.3333302,545.96488,1070.8746)">
    <g
       transform="translate(493,1069.8)"
       id="g1194">
      <path
         d="M 0,0 C 1.657,0 3,1.501 3,3.353 3,5.205 1.657,6.706 0,6.706 -1.657,6.706 -3,5.205 -3,3.353 -3,1.501 -1.657,0 0,0"
         fill="#ffffff"
         fill-rule="evenodd"
         id="path1192" />
    </g>
  </g>
  <g
     clip-path="url(#clipPath24750)"
     id="g1204"
     transform="matrix(1.3333302,0,0,-1.3333302,545.96488,1070.8746)">
    <g
       transform="translate(510,1048.8)"
       id="g1202">
      <path
         d="M 0,0 C 1.657,0 3,1.501 3,3.353 3,5.205 1.657,6.706 0,6.706 -1.657,6.706 -3,5.205 -3,3.353 -3,1.501 -1.657,0 0,0"
         fill="#ffffff"
         fill-rule="evenodd"
         id="path1200" />
    </g>
  </g>
  <g
     clip-path="url(#clipPath24864)"
     id="g1212"
     transform="matrix(1.3333302,0,0,-1.3333302,545.96488,1070.8746)">
    <g
       transform="translate(806.5,1072.2)"
       id="g1210">
      <path
         d="M 0,0 C -3.667,-14 -9.5,-21.833 -17.5,-23.5"
         fill="none"
         stroke="#ffffff"
         stroke-linecap="round"
         stroke-miterlimit="10"
         id="path1208" />
    </g>
  </g>
  <g
     clip-path="url(#clipPath24896)"
     id="g1220"
     transform="matrix(1.3333302,0,0,-1.3333302,545.96488,1070.8746)">
    <g
       transform="translate(802,1066.2)"
       id="g1218">
      <path
         d="m 0,0 c -4.971,0 -9,4.029 -9,9 0,4.971 4.029,9 9,9 C 4.971,18 9,13.971 9,9 9,4.029 4.971,0 0,0 m 0,6 c 1.657,0 3,1.343 3,3 0,1.657 -1.343,3 -3,3 -1.657,0 -3,-1.343 -3,-3 0,-1.657 1.343,-3 3,-3"
         fill="#ffffff"
         fill-rule="evenodd"
         id="path1216" />
    </g>
  </g>
  <g
     clip-path="url(#clipPath25070)"
     id="g1228"
     transform="matrix(1.3333302,0,0,-1.3333302,545.96488,1070.8746)">
    <g
       transform="translate(122,495.24)"
       id="g1226">
      <path
         d="M 0,0 H 3 C 3.553,0 4,-0.447 4,-1 V -3 C 4,-3.553 3.553,-4 3,-4 H 0 c -0.553,0 -1,0.447 -1,1 v 2 c 0,0.553 0.447,1 1,1"
         fill="#ffffff"
         fill-rule="evenodd"
         id="path1224" />
    </g>
  </g>
  <g
     clip-path="url(#clipPath25100)"
     id="g1236"
     transform="matrix(1.3333302,0,0,-1.3333302,545.96488,1070.8746)">
    <g
       transform="translate(204,495.24)"
       id="g1234">
      <path
         d="M 0,0 H 3 C 3.553,0 4,-0.447 4,-1 V -3 C 4,-3.553 3.553,-4 3,-4 H 0 c -0.553,0 -1,0.447 -1,1 v 2 c 0,0.553 0.447,1 1,1"
         fill="#ffffff"
         fill-rule="evenodd"
         id="path1232" />
    </g>
  </g>
  <g
     clip-path="url(#clipPath25502)"
     id="g1244"
     transform="matrix(1.3333302,0,0,-1.3333302,545.96488,1070.8746)">
    <g
       transform="translate(805,482.24)"
       id="g1242">
      <path
         d="M 0,0 C 4.418,0 8,3.582 8,8 8,12.418 4.418,16 0,16 -4.418,16 -8,12.418 -8,8 -8,3.582 -4.418,0 0,0"
         fill="#ffffff"
         fill-rule="evenodd"
         id="path1240" />
    </g>
  </g>
  <g
     clip-path="url(#clipPath25686)"
     id="g1252"
     transform="matrix(1.3333302,0,0,-1.3333302,545.96488,1070.8746)">
    <g
       transform="translate(658,1075.7)"
       id="g1250">
      <path
         d="M 0,0 C 0,-4.694 3.806,-8.5 8.5,-8.5 13.194,-8.5 17,-4.694 17,0 17,4.694 13.194,8.5 8.5,8.5 3.806,8.5 0,4.694 0,0"
         fill="#ffffff"
         id="path1248" />
    </g>
  </g>
  <g
     clip-path="url(#clipPath25788)"
     id="g1258"
     transform="matrix(1.3333302,0,0,-1.3333302,545.96488,1070.8746)">
    <path
       d="m 465.44,1082.2 h 85.864 v -75.319 H 465.44 Z m 64.45,-25.106 c -0.483,0.765 -1.453,0.947 -2.178,0.431 l -15.504,-11.01 c -0.359,-0.255 -0.847,-0.153 -1.071,0.238 l -18.271,31.869 c -0.438,0.771 -1.139,0.776 -1.549,-0.016 l -1.807,-3.514 -21.07,-47.452 c 13.336,-18.44 48.336,-26.94 73.836,-3.44 0.841,0 6.477,6.246 6,7 z"
       fill="#ffffff"
       fill-rule="evenodd"
       id="path1256" />
  </g>
  <g
     clip-path="url(#clipPath26420)"
     id="g1266"
     transform="matrix(1.3333302,0,0,-1.3333302,545.96488,1070.8746)">
    <g
       transform="translate(-23,837.24)"
       id="g1264">
      <path
         d="M 0,0 C 18.778,0 34,15.222 34,34 34,52.778 18.778,68 0,68 -18.778,68 -34,52.778 -34,34 -34,15.222 -18.778,0 0,0 Z"
         fill="none"
         stroke="#ffffff"
         stroke-miterlimit="10"
         stroke-width="8"
         id="path1262" />
    </g>
  </g>
  <g
     clip-path="url(#clipPath26860)"
     id="g1272"
     transform="matrix(1.3333302,0,0,-1.3333302,545.96488,1070.8746)">
    <path
       d="m 644,721.24 h 82 v -82 h -82 z m 41,-81 c 22.092,0 40,17.908 40,40 0,22.092 -17.908,40 -40,40 -22.092,0 -40,-17.908 -40,-40 0,-22.092 17.908,-40 40,-40"
       fill="#ffffff"
       fill-rule="evenodd"
       id="path1270" />
  </g>
  <g
     clip-path="url(#clipPath27506)"
     id="g1280"
     transform="matrix(1.3333302,0,0,-1.3333302,545.96488,1070.8746)">
    <g
       transform="translate(613.88,476.03)"
       id="g1278">
      <path
         d="m 0,0 c 0.187,-0.771 0.148,-1.502 -0.116,-2.193 -0.266,-0.692 -0.678,-1.303 -1.239,-1.833 -0.561,-0.531 -1.247,-0.949 -2.057,-1.255 -0.81,-0.305 -1.683,-0.457 -2.617,-0.457 -5.889,-0.033 -11.156,-0.049 -15.798,-0.049 h -15.891 c -1.122,0 -2.111,0.209 -2.968,0.627 -0.857,0.418 -1.543,0.932 -2.056,1.543 -0.515,0.611 -0.858,1.279 -1.029,2.002 -0.171,0.723 -0.148,1.375 0.071,1.953 0.186,0.451 0.373,0.917 0.56,1.398 0.157,0.418 0.343,0.893 0.561,1.424 0.219,0.53 0.452,1.069 0.701,1.615 l 1.776,4.438 h 5.329 l -2.01,-6.077 h 30.099 l -2.009,6.077 h 5.094 C -2.944,7.573 -2.353,6.094 -1.822,4.775 -1.604,4.197 -1.387,3.635 -1.168,3.088 -0.95,2.541 -0.756,2.051 -0.584,1.616 -0.413,1.183 -0.272,0.812 -0.163,0.507 -0.055,0.201 0,0.033 0,0 m -22.922,9.236 c -0.601,0.698 -1.289,1.571 -2.064,2.618 -0.776,1.046 -1.575,2.125 -2.398,3.235 -0.822,1.11 -1.637,2.204 -2.443,3.283 -0.808,1.079 -1.527,2.015 -2.16,2.808 -0.728,0.856 -1.013,1.562 -0.855,2.117 0.158,0.555 0.696,0.832 1.614,0.832 0.506,-0.031 1.187,-0.024 2.041,0.024 0.855,0.048 1.567,0.072 2.136,0.072 0.633,0 1.029,0.19 1.187,0.57 0.158,0.381 0.237,0.889 0.237,1.523 0,0.698 -0.008,1.467 -0.024,2.308 -0.016,0.841 -0.024,1.705 -0.024,2.593 0,0.888 -0.008,1.76 -0.023,2.617 -0.016,0.856 -0.024,1.65 -0.024,2.379 0,0.318 0.024,0.65 0.071,1 0.047,0.348 0.158,0.666 0.333,0.951 0.173,0.285 0.426,0.523 0.758,0.714 0.332,0.19 0.784,0.285 1.353,0.285 0.665,0 1.274,0.009 1.827,0.024 0.555,0.016 1.195,0.024 1.923,0.024 1.044,0 1.748,-0.246 2.112,-0.737 0.364,-0.492 0.562,-1.277 0.593,-2.356 v -1.855 c 0,-0.73 0.008,-1.507 0.023,-2.331 0.017,-0.826 0.025,-1.651 0.025,-2.475 v -2.236 c 0,-0.92 0.095,-1.659 0.284,-2.213 0.191,-0.555 0.617,-0.817 1.282,-0.785 0.475,0 1.052,-0.016 1.732,-0.047 0.68,-0.032 1.274,-0.049 1.78,-0.049 0.855,0 1.4,-0.23 1.638,-0.69 0.237,-0.46 0.071,-1.054 -0.498,-1.784 -0.602,-0.76 -1.298,-1.68 -2.089,-2.759 -0.791,-1.08 -1.606,-2.197 -2.445,-3.355 -0.838,-1.158 -1.661,-2.284 -2.467,-3.379 -0.807,-1.094 -1.528,-2.037 -2.16,-2.83 -0.57,-0.73 -1.116,-1.103 -1.637,-1.119 -0.523,-0.016 -1.069,0.326 -1.638,1.023"
         fill="#ffffff"
         id="path1276" />
    </g>
  </g>
  <g
     clip-path="url(#clipPath27772)"
     id="g1288"
     transform="matrix(1.3333302,0,0,-1.3333302,545.96488,1070.8746)">
    <g
       transform="translate(588.67,331.24)"
       id="g1286">
      <path
         d="m 0,0 h -49.301 c -2.41,0 -4.367,-1.941 -4.367,-4.299 v -49.402 c 0,-2.393 1.957,-4.299 4.367,-4.299 H 0 c 2.41,0 4.332,1.941 4.332,4.299 V -4.334 C 4.332,-1.941 2.375,0 0,0 m -33.403,-53.008 h -8.839 v 6.795 h 8.839 z m -8.91,24.58 h 8.84 v -6.795 h -8.84 z m 8.945,-15.566 h -8.84 v 6.795 h 8.84 z m 12.998,-9.014 h -8.84 v 6.795 h 8.84 z m -8.91,24.58 h 8.84 v -6.795 h -8.84 z m 8.944,-15.566 h -8.839 v 6.795 h 8.839 z m 13.277,-9.014 h -8.84 v 6.795 h 8.84 z m -8.909,24.58 h 8.84 v -6.795 h -8.84 z m 8.945,-15.566 h -8.84 v 6.795 h 8.84 z m 5.276,24.441 c 0,-2.392 -1.957,-4.299 -4.368,-4.299 h -37.77 c -2.411,-0.035 -4.367,1.907 -4.367,4.299 v 10.054 c 0,2.392 1.956,4.333 4.332,4.333 h 37.805 c 2.411,0 4.368,-1.941 4.368,-4.333 z"
         fill="#ffffff"
         id="path1284" />
    </g>
  </g>
  <g
     clip-path="url(#clipPath27864)"
     id="g1296"
     transform="matrix(1.3333302,0,0,-1.3333302,545.96488,1070.8746)">
    <g
       transform="translate(609.3,312.46)"
       id="g1294">
      <path
         d="m 0,0 h -0.72 c -0.206,0 -0.377,0 -0.514,-0.212 -0.103,-0.142 -0.103,-0.283 -0.103,-0.46 v -0.566 c 0,-0.178 0,-0.319 0.103,-0.461 0.137,-0.212 0.308,-0.212 0.514,-0.212 H 0 c 0.205,0 0.376,0 0.514,0.212 0.102,0.142 0.102,0.283 0.102,0.461 v 0.566 c 0,0.213 0,0.318 -0.102,0.46 C 0.376,0 0.239,0 0,0 M -5.003,4.779 H -7.95 c -0.548,0 -0.993,-0.46 -0.993,-1.026 V 1.346 h 0.993 v 2.407 h 2.947 V 1.346 h 0.993 v 2.407 c 0,0.566 -0.445,1.026 -0.993,1.026 m 0,-6.973 H -7.95 v 2.407 h -0.993 v -2.407 c 0,-0.567 0.411,-1.027 0.993,-1.027 h 2.947 c 0.582,0 0.993,0.46 0.993,1.027 v 2.407 h -0.993 z m -14.357,0 h -2.947 V 0.39 h -0.994 v -2.584 c 0,-0.567 0.411,-1.027 0.994,-1.027 h 2.947 c 0.583,0 0.994,0.46 0.994,1.027 V 0.39 h -0.994 z m 0,6.973 h -2.947 c -0.548,0 -0.994,-0.46 -0.994,-1.026 V 1.522 h 0.994 v 2.231 h 2.947 V 1.522 h 0.994 v 2.231 c 0,0.566 -0.446,1.026 -0.994,1.026 m 7.195,0 h -2.946 c -0.549,0 -0.994,-0.46 -0.994,-1.026 V 1.522 h 0.994 v 2.231 h 2.946 V 1.522 h 0.994 v 2.231 c 0,0.566 -0.445,1.026 -0.994,1.026 m 0,-6.973 h -2.946 V 0.39 h -0.994 v -2.584 c 0,-0.567 0.445,-1.027 0.994,-1.027 h 2.946 c 0.583,0 0.994,0.46 0.994,1.027 V 0.39 h -0.994 z M 6.51,4.779 H 3.563 C 3.015,4.779 2.569,4.319 2.569,3.753 V 1.169 H 3.563 V 3.753 H 6.51 V 1.169 h 0.994 v 2.584 c 0,0.566 -0.445,1.026 -0.994,1.026 m 0,-6.973 H 3.563 v 2.23 H 2.569 v -2.23 c 0,-0.567 0.446,-1.027 0.994,-1.027 H 6.51 c 0.583,0 0.994,0.46 0.994,1.027 v 2.23 H 6.51 Z m 7.195,0 h -2.946 v 2.053 H 9.765 v -2.053 c 0,-0.567 0.411,-1.027 0.994,-1.027 h 2.946 c 0.583,0 0.994,0.46 0.994,1.027 v 2.053 h -0.994 z m 0,6.973 h -2.946 c -0.548,0 -0.994,-0.46 -0.994,-1.026 V 0.992 h 0.994 v 2.761 h 2.946 V 0.992 h 0.994 v 2.761 c 0,0.566 -0.479,1.026 -0.994,1.026"
         fill="#ffffff"
         id="path1292" />
    </g>
  </g>
  <g
     clip-path="url(#clipPath28028)"
     id="g1304"
     transform="matrix(1.3333302,0,0,-1.3333302,545.96488,1070.8746)">
    <g
       transform="translate(766.75,130.24)"
       id="g1302">
      <path
         d="M 0,0 H -15.75 V 6.693 C -15.75,7.932 -16.763,9 -18.057,9 H -31.443 C -32.682,9 -33.75,7.987 -33.75,6.693 V 0 H -49.5 c -1.237,0 -2.25,-1.013 -2.25,-2.25 V -13.5 l 27,-4.5 27,4.5 V -2.25 C 2.25,-1.013 1.237,0 0,0 m -29.25,4.5 h 9 V 0 h -9 z m 9,-16.875 c 0,-0.619 -0.506,-1.125 -1.125,-1.125 h -6.75 c -0.619,0 -1.125,0.506 -1.125,1.125 v 2.25 c 0,0.619 0.506,1.125 1.125,1.125 h 6.75 c 0.619,0 1.125,-0.506 1.125,-1.125 z m -4.5,-7.875 27,4.5 v -27 C 2.25,-43.987 1.237,-45 0,-45 h -49.5 c -1.237,0 -2.25,1.013 -2.25,2.25 v 27 z"
         fill="#ffffff"
         id="path1300" />
    </g>
  </g>
  <g
     clip-path="url(#clipPath28200)"
     id="g1312"
     transform="matrix(1.3333302,0,0,-1.3333302,545.96488,1070.8746)">
    <g
       transform="translate(392,82.24)"
       id="g1310">
      <path
         d="M 0,0 -4.35,3.941 C -19.8,17.953 -30,27.2 -30,38.516 -30,47.762 -22.755,55 -13.5,55 -8.28,55 -3.27,52.572 0,48.75 3.27,52.572 8.28,55 13.5,55 22.755,55 30,47.762 30,38.516 30,27.2 19.8,17.953 4.35,3.941 Z"
         fill="#ffffff"
         id="path1308" />
    </g>
  </g>
  <g
     clip-path="url(#clipPath28364)"
     id="g1320"
     transform="matrix(1.3333302,0,0,-1.3333302,545.96488,1070.8746)">
    <g
       transform="translate(542.77,113.24)"
       id="g1318">
      <path
         d="m 0,0 c 0,2.621 0.885,4.8 2.689,6.604 1.804,1.804 3.983,2.689 6.604,2.689 2.622,0 4.801,-0.885 6.604,-2.689 1.805,-1.804 2.69,-3.983 2.69,-6.604 0,-2.621 -0.885,-4.834 -2.69,-6.639 -1.803,-1.803 -3.982,-2.689 -6.604,-2.689 -2.621,0 -4.809,0.877 -6.604,2.689 C 0.876,-4.809 0,-2.588 0,0 m -13.141,-6.06 c 0.545,-1.94 1.363,-3.846 2.35,-5.617 l -6.128,-7.523 6.944,-6.945 7.524,6.127 c 1.769,-0.986 3.71,-1.803 5.65,-2.382 L 4.221,-32 h 10.008 l 1.022,9.6 c 1.94,0.579 3.778,1.396 5.651,2.382 l 7.49,-6.127 7.012,6.945 -6.162,7.523 c 0.953,1.771 1.805,3.677 2.383,5.617 l 9.601,1.056 V 5.004 l -9.601,1.021 c -0.578,1.941 -1.43,3.745 -2.383,5.618 l 6.162,7.523 -7.012,7.013 -7.49,-6.161 c -1.907,0.953 -3.711,1.803 -5.651,2.382 L 14.229,32 H 4.221 L 3.199,22.4 c -2.008,-0.579 -3.88,-1.429 -5.65,-2.382 l -7.524,6.161 -6.944,-7.013 6.128,-7.523 C -11.744,9.77 -12.562,7.966 -13.141,6.025 L -22.774,5.004 V -5.004 Z"
         fill="#ffffff"
         id="path1316" />
    </g>
  </g>
  <g
     clip-path="url(#clipPath28984)"
     id="g1326"
     transform="matrix(1.3333302,0,0,-1.3333302,545.96488,1070.8746)">
    <path
       d="m 473,698.24 h 13 v -13 h -13 z m 6.5,-12 c 3.037,0 5.5,2.463 5.5,5.5 0,3.038 -2.463,5.5 -5.5,5.5 -3.037,0 -5.5,-2.462 -5.5,-5.5 0,-3.037 2.463,-5.5 5.5,-5.5"
       fill="#ffffff"
       fill-rule="evenodd"
       id="path1324" />
  </g>
  <g
     clip-path="url(#clipPath29012)"
     id="g1332"
     transform="matrix(1.3333302,0,0,-1.3333302,545.96488,1070.8746)">
    <path
       d="m 473,676.24 h 13 v -13 h -13 z m 6.5,-12 c 3.037,0 5.5,2.463 5.5,5.5 0,3.038 -2.463,5.5 -5.5,5.5 -3.037,0 -5.5,-2.462 -5.5,-5.5 0,-3.037 2.463,-5.5 5.5,-5.5"
       fill="#ffffff"
       fill-rule="evenodd"
       id="path1330" />
  </g>
  <g
     clip-path="url(#clipPath29040)"
     id="g1338"
     transform="matrix(1.3333302,0,0,-1.3333302,545.96488,1070.8746)">
    <path
       d="m 467,687.24 h 13 v -13 h -13 z m 6.5,-12 c 3.037,0 5.5,2.463 5.5,5.5 0,3.038 -2.463,5.5 -5.5,5.5 -3.037,0 -5.5,-2.462 -5.5,-5.5 0,-3.037 2.463,-5.5 5.5,-5.5"
       fill="#ffffff"
       fill-rule="evenodd"
       id="path1336" />
  </g>
  <g
     clip-path="url(#clipPath29068)"
     id="g1344"
     transform="matrix(1.3333302,0,0,-1.3333302,545.96488,1070.8746)">
    <path
       d="m 486,698.24 h 13 v -13 h -13 z m 6.5,-12 c 3.037,0 5.5,2.463 5.5,5.5 0,3.038 -2.463,5.5 -5.5,5.5 -3.037,0 -5.5,-2.462 -5.5,-5.5 0,-3.037 2.463,-5.5 5.5,-5.5"
       fill="#ffffff"
       fill-rule="evenodd"
       id="path1342" />
  </g>
  <g
     clip-path="url(#clipPath29096)"
     id="g1350"
     transform="matrix(1.3333302,0,0,-1.3333302,545.96488,1070.8746)">
    <path
       d="m 486,676.24 h 13 v -13 h -13 z m 6.5,-12 c 3.037,0 5.5,2.463 5.5,5.5 0,3.038 -2.463,5.5 -5.5,5.5 -3.037,0 -5.5,-2.462 -5.5,-5.5 0,-3.037 2.463,-5.5 5.5,-5.5"
       fill="#ffffff"
       fill-rule="evenodd"
       id="path1348" />
  </g>
  <g
     clip-path="url(#clipPath29124)"
     id="g1356"
     transform="matrix(1.3333302,0,0,-1.3333302,545.96488,1070.8746)">
    <path
       d="m 480,687.24 h 13 v -13 h -13 z m 6.5,-12 c 3.037,0 5.5,2.463 5.5,5.5 0,3.038 -2.463,5.5 -5.5,5.5 -3.037,0 -5.5,-2.462 -5.5,-5.5 0,-3.037 2.463,-5.5 5.5,-5.5"
       fill="#ffffff"
       fill-rule="evenodd"
       id="path1354" />
  </g>
  <g
     clip-path="url(#clipPath29152)"
     id="g1362"
     transform="matrix(1.3333302,0,0,-1.3333302,545.96488,1070.8746)">
    <path
       d="m 493,687.24 h 13 v -13 h -13 z m 6.5,-12 c 3.037,0 5.5,2.463 5.5,5.5 0,3.038 -2.463,5.5 -5.5,5.5 -3.037,0 -5.5,-2.462 -5.5,-5.5 0,-3.037 2.463,-5.5 5.5,-5.5"
       fill="#ffffff"
       fill-rule="evenodd"
       id="path1360" />
  </g>
  <g
     clip-path="url(#clipPath29252)"
     id="g1368"
     transform="matrix(1.3333302,0,0,-1.3333302,545.96488,1070.8746)">
    <path
       d="m 161,327.24 h 73 v -28 h -73 z m 14,-5 h 45 c 4.971,0 9,-4.029 9,-9 0,-4.97 -4.029,-9 -9,-9 h -45 c -4.971,0 -9,4.03 -9,9 0,4.971 4.029,9 9,9"
       fill="#ffffff"
       fill-rule="evenodd"
       id="path1366" />
  </g>
  <g
     clip-path="url(#clipPath29280)"
     id="g1374"
     transform="matrix(1.3333302,0,0,-1.3333302,545.96488,1070.8746)">
    <path
       d="m 162,302.24 h 73 v -28 h -73 z m 14,-5 h 45 c 4.971,0 9,-4.029 9,-9 0,-4.97 -4.029,-9 -9,-9 h -45 c -4.971,0 -9,4.03 -9,9 0,4.971 4.029,9 9,9"
       fill="#ffffff"
       fill-rule="evenodd"
       id="path1372" />
  </g>
  <g
     clip-path="url(#clipPath29400)"
     id="g1382"
     transform="matrix(1.3333302,0,0,-1.3333302,545.96488,1070.8746)">
    <g
       transform="translate(104.49,129.57)"
       id="g1380">
      <path
         d="m 0,0 c -4.298,-0.338 -8.165,-0.637 -11.604,-0.898 -1.458,-0.113 -2.906,-0.225 -4.344,-0.336 -1.44,-0.114 -2.747,-0.207 -3.924,-0.282 -1.178,-0.074 -2.168,-0.149 -2.972,-0.224 -0.803,-0.074 -1.28,-0.113 -1.428,-0.113 -0.188,-0.037 -0.403,-0.065 -0.645,-0.084 -0.244,-0.018 -0.459,-0.065 -0.645,-0.139 l -0.673,-0.225 -2.467,1.121 c 0.187,0.263 0.412,0.506 0.674,0.731 0.185,0.186 0.42,0.364 0.7,0.533 0.28,0.168 0.569,0.27 0.868,0.309 0.225,0.037 0.822,0.093 1.795,0.168 0.971,0.074 2.167,0.168 3.588,0.28 0,0.486 0.047,1.15 0.14,1.992 0.092,0.841 0.317,1.674 0.672,2.497 0.356,0.822 0.869,1.553 1.541,2.188 0.673,0.636 1.589,1.009 2.747,1.123 1.346,0.111 2.439,-0.094 3.281,-0.618 0.84,-0.523 1.494,-1.169 1.961,-1.935 0.467,-0.768 0.795,-1.553 0.981,-2.358 0.187,-0.804 0.299,-1.43 0.337,-1.878 1.606,0.111 2.942,0.205 4.008,0.279 1.064,0.076 1.653,0.131 1.765,0.169 0.412,0.038 0.87,-0.038 1.373,-0.225 0.505,-0.186 0.907,-0.43 1.206,-0.729 C -0.99,1.271 -0.888,1.158 -0.757,1.01 -0.626,0.859 -0.505,0.71 -0.392,0.561 -0.243,0.41 -0.112,0.224 0,0 m -15.528,6.676 c -0.709,-0.074 -1.28,-0.326 -1.709,-0.757 -0.43,-0.431 -0.758,-0.944 -0.982,-1.543 -0.223,-0.599 -0.374,-1.206 -0.448,-1.823 -0.075,-0.617 -0.112,-1.114 -0.112,-1.488 1.159,0.076 2.344,0.169 3.559,0.281 1.215,0.112 2.402,0.206 3.56,0.281 -0.037,0.336 -0.121,0.804 -0.252,1.402 -0.131,0.599 -0.346,1.178 -0.645,1.74 -0.299,0.561 -0.691,1.028 -1.176,1.403 -0.487,0.373 -1.084,0.542 -1.795,0.504 m 21.919,-41.24 c 0.186,-1.047 0.159,-1.917 -0.084,-2.61 -0.244,-0.691 -0.925,-1.168 -2.046,-1.43 -0.374,-0.113 -1.187,-0.299 -2.439,-0.562 -1.252,-0.262 -2.747,-0.579 -4.485,-0.953 -1.737,-0.374 -3.597,-0.777 -5.577,-1.207 -1.982,-0.43 -3.878,-0.832 -5.691,-1.205 -1.812,-0.375 -3.437,-0.711 -4.877,-1.011 -1.438,-0.3 -2.457,-0.505 -3.054,-0.617 -1.383,-0.3 -2.402,-0.206 -3.055,0.28 -0.654,0.486 -0.982,1.217 -0.982,2.189 v 34.452 c 0,0.934 0.197,1.691 0.589,2.271 0.393,0.58 0.962,0.889 1.709,0.926 0.299,0 0.664,0.02 1.094,0.057 0.43,0.037 0.85,0.074 1.261,0.112 0.485,0.037 0.991,0.075 1.514,0.112 l 0.504,-8.023 c -0.037,-0.038 -0.112,-0.057 -0.224,-0.057 -0.074,0 -0.187,-0.01 -0.336,-0.027 -0.15,-0.02 -0.318,-0.029 -0.505,-0.029 -0.784,-0.075 -1.159,-0.542 -1.121,-1.403 0.038,-0.336 0.075,-0.805 0.112,-1.402 0.037,-0.599 0.066,-1.225 0.084,-1.88 0.019,-0.655 0.047,-1.29 0.084,-1.907 0.037,-0.617 0.074,-1.114 0.113,-1.488 0.037,-0.711 0.149,-1.112 0.336,-1.206 0.186,-0.093 0.598,-0.14 1.233,-0.14 h 0.785 c 0.225,0 0.439,0.01 0.645,0.027 0.205,0.02 0.439,0.038 0.701,0.057 0.261,0.018 0.597,0.047 1.008,0.084 0.785,0.075 1.29,0.243 1.513,0.506 0.225,0.261 0.319,0.654 0.281,1.177 0,0.262 -0.028,0.721 -0.084,1.375 -0.056,0.655 -0.113,1.337 -0.168,2.048 -0.056,0.71 -0.103,1.384 -0.14,2.02 -0.037,0.635 -0.074,1.085 -0.112,1.346 -0.076,0.45 -0.168,0.768 -0.281,0.954 -0.112,0.187 -0.318,0.262 -0.617,0.224 -0.148,0 -0.299,-0.009 -0.447,-0.027 -0.151,-0.019 -0.3,-0.028 -0.449,-0.028 h -0.449 l -0.505,7.967 c 2.542,0.225 4.877,0.412 7.008,0.561 0.897,0.076 1.803,0.15 2.719,0.224 0.916,0.076 1.766,0.141 2.551,0.198 0.785,0.055 1.476,0.111 2.074,0.168 0.598,0.056 1.046,0.103 1.346,0.14 1.083,0.074 1.942,-0.113 2.578,-0.561 0.635,-0.449 1.027,-1.122 1.178,-2.021 0.037,-0.299 0.168,-1.196 0.391,-2.693 0.224,-1.496 0.505,-3.291 0.841,-5.386 0.336,-2.095 0.691,-4.349 1.065,-6.761 0.374,-2.413 0.729,-4.667 1.066,-6.761 0.336,-2.095 0.625,-3.891 0.869,-5.387 0.242,-1.496 0.4,-2.395 0.476,-2.693 m -35.261,-4.881 c 0,-0.525 0.028,-0.983 0.084,-1.375 0.057,-0.393 0.122,-0.701 0.197,-0.926 0.074,-0.299 0.168,-0.524 0.279,-0.674 -0.933,0.486 -1.831,0.973 -2.69,1.459 -0.747,0.412 -1.495,0.832 -2.242,1.263 -0.747,0.43 -1.383,0.795 -1.906,1.094 -0.972,0.561 -1.635,1.235 -1.99,2.02 -0.355,0.785 -0.439,1.608 -0.253,2.469 0.076,0.224 0.244,1.047 0.505,2.469 0.262,1.421 0.588,3.142 0.981,5.162 0.392,2.019 0.803,4.189 1.233,6.508 0.43,2.32 0.831,4.49 1.205,6.509 0.374,2.02 0.701,3.76 0.982,5.218 0.28,1.459 0.439,2.319 0.476,2.581 0.15,0.823 0.42,1.459 0.813,1.908 0.392,0.449 0.849,0.561 1.373,0.336 0.299,-0.149 0.543,-0.317 0.728,-0.504 0.114,-0.113 0.188,-0.207 0.225,-0.281 z"
         fill="#ffffff"
         id="path1378" />
    </g>
  </g>
  <path
     d="m 24.810916,3.6748567 a 1.8492837,1.8969444 60 0 0 -0.154002,0.1098614 1.8492837,1.8969444 60 0 0 -0.144994,0.1216825 1.8492837,1.8969444 60 0 0 -0.132494,0.1358503 1.8492837,1.8969444 60 0 0 -0.116763,0.147978 1.8492837,1.8969444 60 0 0 -0.101084,0.1600934 1.8492837,1.8969444 60 0 0 -0.0341,0.057657 1.8492837,1.8969444 60 0 0 -0.08213,0.1703172 1.8492837,1.8969444 60 0 0 -0.06426,0.1748839 1.8492837,1.8969444 60 0 0 -0.04715,0.1819336 1.8492837,1.8969444 60 0 0 -0.0286,0.1839699 1.8492837,1.8969444 60 0 0 -0.01007,0.1859735 1.8492837,1.8969444 60 0 0 0.0093,0.1854229 1.8492837,1.8969444 60 0 0 0.02753,0.1832953 1.8492837,1.8969444 60 0 0 0.04754,0.1802958 6.2136657,6.3735429 60 0 1 0.09848,0.3437449 6.2136657,6.3735429 60 0 1 0.12176,0.6100973 6.2136657,6.3735429 60 0 1 0.06111,0.621764 6.2136657,6.3735429 60 0 1 -0.0041,0.6255417 6.2136657,6.3735429 60 0 1 -0.06465,0.6223194 6.2136657,6.3735429 60 0 1 -0.12959,0.6152949 6.2136657,6.3735429 60 0 1 -0.190755,0.5997639 6.2136657,6.3735429 60 0 1 -0.247934,0.579794 6.2136657,6.3735429 60 0 1 -0.306256,0.554068 6.2136657,6.3735429 60 0 1 -0.359859,0.521471 6.2136657,6.3735429 60 0 1 -0.411168,0.485368 6.2136657,6.3735429 60 0 1 -0.455198,0.442967 6.2136657,6.3735429 60 0 1 -0.49946,0.396466 6.2136657,6.3735429 60 0 1 -0.533951,0.347987 6.2136657,6.3735429 60 0 1 -0.300628,0.160912 6.2136657,6.3735429 60 0 1 -0.583469,0.258439 6.2136657,6.3735429 60 0 1 -0.60308,0.201945 6.2136657,6.3735429 60 0 1 -0.619587,0.139416 6.2136657,6.3735429 60 0 1 -0.630109,0.07977 6.2136657,6.3735429 60 0 1 -0.63412,0.01635 6.2136657,6.3735429 60 0 1 -0.628818,-0.04597 6.2136657,6.3735429 60 0 1 -0.620997,-0.107793 6.2136657,6.3735429 60 0 1 -0.606428,-0.169188 6.2136657,6.3735429 60 0 1 -0.583315,-0.227048 6.2136657,6.3735429 60 0 1 -0.557641,-0.284248 6.2136657,6.3735429 60 0 1 -0.524297,-0.339505 6.2136657,6.3735429 60 0 1 -0.486608,-0.390942 6.2136657,6.3735429 60 0 1 -0.442711,-0.435402 1.8492837,1.8969444 60 0 0 -0.02507,-0.0283 1.8492837,1.8969444 60 0 0 -0.133072,-0.128816 1.8492837,1.8969444 60 0 0 -0.144908,-0.115525 1.8492837,1.8969444 60 0 0 -0.155955,-0.100723 1.8492837,1.8969444 60 0 0 -0.167697,-0.08334 1.8492837,1.8969444 60 0 0 -0.173622,-0.06722 1.8492837,1.8969444 60 0 0 -0.181132,-0.05014 1.8492837,1.8969444 60 0 0 -0.185222,-0.03084 1.8492837,1.8969444 60 0 0 -0.187658,-0.01246 1.7845769,1.8305368 60 0 0 -0.0998,4.03e-4 1.7845769,1.8305368 60 0 0 -0.181143,0.01764 1.7845769,1.8305368 60 0 0 -0.180273,0.03412 1.7845769,1.8305368 60 0 0 -0.174343,0.05195 1.7845769,1.8305368 60 0 0 -0.168431,0.06975 1.7845769,1.8305368 60 0 0 -0.164302,0.08439 1.7845769,1.8305368 60 0 0 -0.152681,0.100808 1.7845769,1.8305368 60 0 0 -0.141786,0.115902 1.7845769,1.8305368 60 0 0 -0.128688,0.127324 29.218591,29.971488 60 0 0 -1.2158742,1.354798 29.218591,29.971488 60 0 0 -1.8110595,2.372453 29.218591,29.971488 60 0 0 -1.5656742,2.533881 29.218591,29.971488 60 0 0 -1.3048094,2.669438 29.218591,29.971488 60 0 0 -1.0326126,2.779336 1.8492837,1.8969444 60 0 0 -0.012647,0.0348 1.8492837,1.8969444 60 0 0 -0.042033,0.183304 1.8492837,1.8969444 60 0 0 -0.022586,0.186825 1.8492837,1.8969444 60 0 0 -0.00425,0.184711 1.8492837,1.8969444 60 0 0 0.01249,0.183553 1.8492837,1.8969444 60 0 0 0.031725,0.183009 1.8492837,1.8969444 60 0 0 0.05081,0.178406 1.8492837,1.8969444 60 0 0 0.07017,0.171418 1.8492837,1.8969444 60 0 0 0.086113,0.164352 1.8492837,1.8969444 60 0 0 0.01474,0.02553 1.8492837,1.8969444 60 0 0 0.1025153,0.154882 1.8492837,1.8969444 60 0 0 0.1173895,0.142105 1.8492837,1.8969444 60 0 0 0.1298287,0.130689 1.8492837,1.8969444 60 0 0 0.1458324,0.117129 1.8492837,1.8969444 60 0 0 0.1543727,0.101682 1.8492837,1.8969444 60 0 0 0.1660935,0.08426 1.8492837,1.8969444 60 0 0 0.1745287,0.06879 1.8492837,1.8969444 60 0 0 0.1795275,0.05106 6.1766256,6.3357468 60 0 1 0.086484,0.01789 6.1766256,6.3357468 60 0 1 0.6036689,0.164409 6.1766256,6.3357468 60 0 1 0.5814638,0.223839 6.1766256,6.3357468 60 0 1 0.5558072,0.281074 6.1766256,6.3357468 60 0 1 0.5231606,0.333833 6.1766256,6.3357468 60 0 1 0.4855046,0.38525 6.1766256,6.3357468 60 0 1 0.4424959,0.43125 6.1766256,6.3357468 60 0 1 0.3960348,0.47505 6.1766256,6.3357468 60 0 1 0.344952,0.510915 6.1766256,6.3357468 60 0 1 0.2916806,0.543765 6.1766256,6.3357468 60 0 1 0.2347948,0.572377 6.1766256,6.3357468 60 0 1 0.1729215,0.593259 6.1766256,6.3357468 60 0 1 0.1141249,0.608134 6.1766256,6.3357468 60 0 1 0.05093,0.619174 6.1766256,6.3357468 60 0 1 -0.012686,0.621995 6.1766256,6.3357468 60 0 1 -0.074122,0.61718 6.1766256,6.3357468 60 0 1 -0.1374373,0.609264 6.1766256,6.3357468 60 0 1 -0.196075,0.594326 6.1766256,6.3357468 60 0 1 -0.256727,0.572126 6.1766256,6.3357468 60 0 1 -0.3124469,0.547124 6.1766256,6.3357468 60 0 1 -0.3660877,0.514463 6.1766256,6.3357468 60 0 1 -0.4141228,0.476468 6.1766256,6.3357468 60 0 1 -0.4597903,0.435014 6.1766256,6.3357468 60 0 1 -0.5007764,0.386626 6.1766256,6.3357468 60 0 1 -0.5360012,0.336954 6.1766256,6.3357468 60 0 1 -0.5649205,0.283387 6.1766256,6.3357468 60 0 1 -0.5909297,0.226696 6.1766256,6.3357468 60 0 1 -0.6098134,0.167683 1.8492837,1.8969444 60 0 0 -0.090923,0.02326 1.8492837,1.8969444 60 0 0 -0.1790215,0.05889 1.8492837,1.8969444 60 0 0 -0.1756689,0.07611 1.8492837,1.8969444 60 0 0 -0.1639397,0.09257 1.8492837,1.8969444 60 0 0 -0.156394,0.109496 1.8492837,1.8969444 60 0 0 -0.1442407,0.122988 1.8492837,1.8969444 60 0 0 -0.130841,0.134858 1.8492837,1.8969444 60 0 0 -0.1167838,0.147942 1.8492837,1.8969444 60 0 0 -0.1019701,0.158558 1.8492837,1.8969444 60 0 0 -0.085563,0.168153 1.8492837,1.8969444 60 0 0 -0.068444,0.175203 1.8492837,1.8969444 60 0 0 -0.050614,0.179703 1.8492837,1.8969444 60 0 0 -0.032732,0.184218 1.8492837,1.8969444 60 0 0 -0.012583,0.185328 1.8492837,1.8969444 60 0 0 0.00504,0.185761 1.8492837,1.8969444 60 0 0 0.024307,0.185197 1.8492837,1.8969444 60 0 0 0.04246,0.178994 28.441883,29.174748 60 0 0 0.6315858,1.956292 28.441883,29.174748 60 0 0 1.1082704,2.620017 28.441883,29.174748 60 0 0 1.3702139,2.489994 28.441883,29.174748 60 0 0 1.6192734,2.337732 28.441883,29.174748 60 0 0 1.8503907,2.161876 1.8492837,1.8969444 60 0 0 0.060223,0.06273 1.8492837,1.8969444 60 0 0 0.1403295,0.122488 1.8492837,1.8969444 60 0 0 0.151309,0.10764 1.8492837,1.8969444 60 0 0 0.161399,0.09125 1.8492837,1.8969444 60 0 0 0.171452,0.0748 1.8492837,1.8969444 60 0 0 0.177377,0.05868 1.8492837,1.8969444 60 0 0 0.183997,0.04006 1.8492837,1.8969444 60 0 0 0.186381,0.02166 1.8492837,1.8969444 60 0 0 0.187315,0.0042 1.8492837,1.8969444 60 0 0 0.187835,-0.01732 1.8492837,1.8969444 60 0 0 0.187067,-0.03377 1.8492837,1.8969444 60 0 0 0.181103,-0.05158 1.8492837,1.8969444 60 0 0 0.176867,-0.07026 1.8492837,1.8969444 60 0 0 0.16759,-0.08625 1.8492837,1.8969444 60 0 0 0.160159,-0.102976 1.8492837,1.8969444 60 0 0 0.149277,-0.118043 1.8492837,1.8969444 60 0 0 0.13618,-0.129465 6.1766256,6.3357468 60 0 1 0.06843,-0.07355 6.1766256,6.3357468 60 0 1 0.460698,-0.433443 6.1766256,6.3357468 60 0 1 0.500776,-0.386626 6.1766256,6.3357468 60 0 1 0.536946,-0.335317 6.1766256,6.3357468 60 0 1 0.567129,-0.282964 6.1766256,6.3357468 60 0 1 0.591837,-0.225126 6.1766256,6.3357468 60 0 1 0.60978,-0.167665 6.1766256,6.3357468 60 0 1 0.621262,-0.106429 6.1766256,6.3357468 60 0 1 0.6294,-0.04335 6.1766256,6.3357468 60 0 1 0.629014,0.01623 6.1766256,6.3357468 60 0 1 0.622081,0.07959 6.1766256,6.3357468 60 0 1 0.610108,0.141619 6.1766256,6.3357468 60 0 1 0.591142,0.19918 6.1766256,6.3357468 60 0 1 0.566393,0.257985 6.1766256,6.3357468 60 0 1 0.535612,0.313899 6.1766256,6.3357468 60 0 1 0.502091,0.36507 6.1766256,6.3357468 60 0 1 0.45837,0.413617 6.1766256,6.3357468 60 0 1 0.417017,0.458704 6.1766256,6.3357468 60 0 1 0.3652,0.497085 6.1766256,6.3357468 60 0 1 0.313314,0.531277 6.1766256,6.3357468 60 0 1 0.25693,0.561734 6.1766256,6.3357468 60 0 1 0.196891,0.585793 6.1766256,6.3357468 60 0 1 0.13996,0.603823 6.1766256,6.3357468 60 0 1 0.07414,0.614242 6.1766256,6.3357468 60 0 1 0.01331,0.621822 6.1766256,6.3357468 60 0 1 -0.0505,0.620522 6.1766256,6.3357468 60 0 1 -0.111241,0.613211 6.1766256,6.3357468 60 0 1 -0.174738,0.601123 1.8492837,1.8969444 60 0 0 -0.0163,0.04737 1.8492837,1.8969444 60 0 0 -0.04551,0.180989 1.8492837,1.8969444 60 0 0 -0.03024,0.184916 1.8492837,1.8969444 60 0 0 -0.01004,0.185954 1.8492837,1.8969444 60 0 0 0.0083,0.183872 1.8492837,1.8969444 60 0 0 0.02759,0.183255 1.8492837,1.8969444 60 0 0 0.04593,0.181226 1.8492837,1.8969444 60 0 0 0.06304,0.173441 1.8492837,1.8969444 60 0 0 0.08195,0.164619 1.8492837,1.8969444 60 0 0 0.02388,0.04137 1.8492837,1.8969444 60 0 0 0.102515,0.154882 1.8492837,1.8969444 60 0 0 0.117389,0.142104 1.8492837,1.8969444 60 0 0 0.129829,0.13069 1.8492837,1.8969444 60 0 0 0.145902,0.117089 1.8492837,1.8969444 60 0 0 0.154353,0.101649 1.8492837,1.8969444 60 0 0 0.166061,0.08428 1.8492837,1.8969444 60 0 0 0.174529,0.06879 1.8492837,1.8969444 60 0 0 0.179527,0.05106 29.375823,30.132877 60 0 0 1.653996,0.337992 29.375823,30.132877 60 0 0 2.960573,0.367905 29.375823,30.132877 60 0 0 2.989625,0.07557 29.375823,30.132877 60 0 0 2.989046,-0.222964 29.375823,30.132877 60 0 0 2.957754,-0.514371 1.8492837,1.8969444 60 0 0 0.05398,-0.01196 1.8492837,1.8969444 60 0 0 0.179999,-0.05727 1.8492837,1.8969444 60 0 0 0.174,-0.07515 1.8492837,1.8969444 60 0 0 0.165721,-0.08956 1.8492837,1.8969444 60 0 0 0.15753,-0.107531 1.8492837,1.8969444 60 0 0 0.144995,-0.12168 1.8492837,1.8969444 60 0 0 0.133401,-0.13428 1.8492837,1.8969444 60 0 0 0.117708,-0.146341 1.8492837,1.8969444 60 0 0 0.104537,-0.157891 1.8492837,1.8969444 60 0 0 0.04017,-0.06596 1.8492837,1.8969444 60 0 0 0.08556,-0.168153 1.8492837,1.8969444 60 0 0 0.06937,-0.173597 1.8492837,1.8969444 60 0 0 0.05063,-0.179671 1.8492837,1.8969444 60 0 0 0.0344,-0.185182 1.8492837,1.8969444 60 0 0 0.01351,-0.183725 1.8492837,1.8969444 60 0 0 -0.0034,-0.186687 1.8492837,1.8969444 60 0 0 -0.02429,-0.185165 1.8492837,1.8969444 60 0 0 -0.04079,-0.179955 6.2042167,6.3640938 60 0 1 -0.07626,-0.267542 6.2042167,6.3640938 60 0 1 -0.12176,-0.610097 6.2042167,6.3640938 60 0 1 -0.06024,-0.620174 6.2042167,6.3640938 60 0 1 0.0034,-0.623012 6.2042167,6.3640938 60 0 1 0.06465,-0.622319 6.2042167,6.3640938 60 0 1 0.128861,-0.612779 6.2042167,6.3640938 60 0 1 0.188211,-0.600391 6.2042167,6.3640938 60 0 1 0.250496,-0.579134 6.2042167,6.3640938 60 0 1 0.304653,-0.553143 6.2042167,6.3640938 60 0 1 0.35986,-0.52147 6.2042167,6.3640938 60 0 1 0.409529,-0.484422 6.2042167,6.3640938 60 0 1 0.455199,-0.442968 6.2042167,6.3640938 60 0 1 0.497843,-0.395487 6.2042167,6.3640938 60 0 1 0.532348,-0.347061 l 0.06524,-0.03767 a 6.2042167,6.3640938 60 0 1 0.321399,-0.166358 6.2042167,6.3640938 60 0 1 0.585552,-0.251131 6.2042167,6.3640938 60 0 1 0.604383,-0.192131 6.2042167,6.3640938 60 0 1 0.620709,-0.133692 6.2042167,6.3640938 60 0 1 0.629825,-0.069 6.2042167,6.3640938 60 0 1 0.63195,-0.0088 6.2042167,6.3640938 60 0 1 0.62923,0.05425 6.2042167,6.3640938 60 0 1 0.618827,0.115374 6.2042167,6.3640938 60 0 1 0.601748,0.176124 6.2042167,6.3640938 60 0 1 0.579542,0.235555 6.2042167,6.3640938 60 0 1 0.552928,0.291202 6.2042167,6.3640938 60 0 1 0.517998,0.347419 6.2042167,6.3640938 60 0 1 0.48008,0.394754 6.2042167,6.3640938 60 0 1 0.435468,0.441678 1.8492837,1.8969444 60 0 0 0.0355,0.03881 1.8492837,1.8969444 60 0 0 0.133068,0.128819 1.8492837,1.8969444 60 0 0 0.146543,0.114581 1.8492837,1.8969444 60 0 0 0.156719,0.09819 1.8492837,1.8969444 60 0 0 0.166061,0.08428 1.8492837,1.8969444 60 0 0 0.175259,0.06627 1.8492837,1.8969444 60 0 0 0.181861,0.04762 1.8492837,1.8969444 60 0 0 0.185221,0.03084 1.8492837,1.8969444 60 0 0 0.18677,0.01092 1.8492837,1.8969444 60 0 0 0.0998,-4.04e-4 1.8492837,1.8969444 60 0 0 0.188773,-0.01577 1.8492837,1.8969444 60 0 0 0.185398,-0.0328 1.8492837,1.8969444 60 0 0 0.182727,-0.05247 1.8492837,1.8969444 60 0 0 0.175231,-0.06931 1.8492837,1.8969444 60 0 0 0.170188,-0.0856 1.8492837,1.8969444 60 0 0 0.14072,-0.10263 1.8492837,1.8969444 60 0 0 0.142181,-0.126555 1.8492837,1.8969444 60 0 0 0.128991,-0.138062 29.26508,30.018733 60 0 0 1.209969,-1.304779 29.26508,30.018733 60 0 0 1.854286,-2.346565 29.26508,30.018733 60 0 0 1.613779,-2.510811 29.26508,30.018733 60 0 0 1.353413,-2.652982 29.26508,30.018733 60 0 0 1.081979,-2.765419 1.8492837,1.8969444 60 0 0 0.01572,-0.05185 1.8492837,1.8969444 60 0 0 0.04714,-0.181933 1.8492837,1.8969444 60 0 0 0.02605,-0.184596 1.8492837,1.8969444 60 0 0 0.0084,-0.185029 1.8492837,1.8969444 60 0 0 -0.01016,-0.187079 1.8492837,1.8969444 60 0 0 -0.02916,-0.182352 1.8492837,1.8969444 60 0 0 -0.04663,-0.178724 1.8492837,1.8969444 60 0 0 -0.06526,-0.174253 1.8492837,1.8969444 60 0 0 -0.08365,-0.163681 1.8492837,1.8969444 60 0 0 -0.03027,-0.05244 1.8492837,1.8969444 60 0 0 -0.104863,-0.151388 1.8492837,1.8969444 60 0 0 -0.120324,-0.140367 1.8492837,1.8969444 60 0 0 -0.134704,-0.127875 1.8492837,1.8969444 60 0 0 -0.146578,-0.11456 1.8492837,1.8969444 60 0 0 -0.158356,-0.09724 1.8492837,1.8969444 60 0 0 -0.166791,-0.08177 1.8492837,1.8969444 60 0 0 -0.174331,-0.06467 1.8492837,1.8969444 60 0 0 -0.181861,-0.04762 6.1856966,6.3451958 60 0 1 -0.182413,-0.04102 6.1856966,6.3451958 60 0 1 -0.599381,-0.179585 6.1856966,6.3451958 60 0 1 -0.575854,-0.236724 6.1856966,6.3451958 60 0 1 -0.549686,-0.293074 6.1856966,6.3451958 60 0 1 -0.515436,-0.346759 6.1856966,6.3451958 60 0 1 -0.476789,-0.396611 6.1856966,6.3451958 60 0 1 -0.432194,-0.443569 6.1856966,6.3451958 60 0 1 -0.386444,-0.484821 6.1856966,6.3451958 60 0 1 -0.33293,-0.51995 6.1856966,6.3451958 60 0 1 -0.278534,-0.553495 6.1856966,6.3451958 60 0 1 -0.219936,-0.576721 6.1856966,6.3451958 60 0 1 -0.160591,-0.598284 6.1856966,6.3451958 60 0 1 -0.09763,-0.613425 6.1856966,6.3451958 60 0 1 -0.03677,-0.621024 6.1856966,6.3451958 60 0 1 0.02611,-0.621276 6.1856966,6.3451958 60 0 1 0.09085,-0.618371 6.1856966,6.3451958 60 0 1 0.151834,-0.606927 6.1856966,6.3451958 60 0 1 0.211363,-0.590451 6.1856966,6.3451958 60 0 1 0.270376,-0.567307 6.1856966,6.3451958 60 0 1 0.325423,-0.53969 6.1856966,6.3451958 60 0 1 0.377423,-0.506169 6.1856966,6.3451958 60 0 1 0.425426,-0.468155 6.1856966,6.3451958 60 0 1 0.472032,-0.425148 6.1856966,6.3451958 60 0 1 0.508838,-0.376442 6.1856966,6.3451958 60 0 1 0.544961,-0.325141 6.1856966,6.3451958 60 0 1 0.57453,-0.270218 6.1856966,6.3451958 60 0 1 0.596659,-0.213071 6.1856966,6.3451958 60 0 1 0.612946,-0.154698 1.8492837,1.8969444 60 0 0 0.05813,-0.01218 1.8492837,1.8969444 60 0 0 0.18208,-0.04996 1.8492837,1.8969444 60 0 0 0.176176,-0.06768 1.8492837,1.8969444 60 0 0 0.170156,-0.08558 1.8492837,1.8969444 60 0 0 0.15924,-0.100713 1.8492837,1.8969444 60 0 0 0.150223,-0.116407 1.8492837,1.8969444 60 0 0 0.137784,-0.130391 1.8492837,1.8969444 60 0 0 0.124626,-0.141916 1.8492837,1.8969444 60 0 0 0.108916,-0.154012 1.8492837,1.8969444 60 0 0 0.03092,-0.05189 1.8492837,1.8969444 60 0 0 0.0891,-0.165875 1.8492837,1.8969444 60 0 0 0.07101,-0.174544 1.8492837,1.8969444 60 0 0 0.0532,-0.179012 1.8492837,1.8969444 60 0 0 0.03531,-0.18361 1.8492837,1.8969444 60 0 0 0.01682,-0.185633 1.8492837,1.8969444 60 0 0 -8.52e-4,-0.185996 1.8492837,1.8969444 60 0 0 -0.02171,-0.184559 1.8492837,1.8969444 60 0 0 -0.03925,-0.180845 28.765795,29.506597 60 0 0 -0.581895,-1.885345 28.765795,29.506597 60 0 0 -1.081974,-2.664877 28.765795,29.506597 60 0 0 -1.349186,-2.540277 28.765795,29.506597 60 0 0 -1.602479,-2.387711 28.765795,29.506597 60 0 0 -1.838702,-2.213141 1.8492837,1.8969444 60 0 0 -0.03808,-0.0395 1.8492837,1.8969444 60 0 0 -0.134694,-0.127837 1.8492837,1.8969444 60 0 0 -0.147273,-0.112064 1.8492837,1.8969444 60 0 0 -0.159958,-0.09632 1.8492837,1.8969444 60 0 0 -0.166791,-0.08177 1.8492837,1.8969444 60 0 0 -0.175904,-0.06376 1.8492837,1.8969444 60 0 0 -0.182551,-0.04504 1.8492837,1.8969444 60 0 0 -0.185027,-0.02672 1.8492837,1.8969444 60 0 0 -0.188406,-0.01 1.8492837,1.8969444 60 0 0 -0.05344,0.0016 1.8492837,1.8969444 60 0 0 -0.187868,0.01734 1.8492837,1.8969444 60 0 0 -0.185398,0.0328 1.8492837,1.8969444 60 0 0 -0.181782,0.05411 1.8492837,1.8969444 60 0 0 -0.175229,0.06931 1.8492837,1.8969444 60 0 0 -0.169227,0.08719 1.8492837,1.8969444 60 0 0 -0.160159,0.102976 1.8492837,1.8969444 60 0 0 -0.147641,0.117099 1.8492837,1.8969444 60 0 0 -0.135914,0.13363 6.1856966,6.3451958 60 0 1 -0.221737,0.229748 6.1856966,6.3451958 60 0 1 -0.472266,0.420963 6.1856966,6.3451958 60 0 1 -0.511385,0.375812 6.1856966,6.3451958 60 0 1 -0.54571,0.323841 6.1856966,6.3451958 60 0 1 -0.574263,0.267962 6.1856966,6.3451958 60 0 1 -0.597583,0.211468 6.1856966,6.3451958 60 0 1 -0.614818,0.151457 6.1856966,6.3451958 60 0 1 -0.625321,0.09184 6.1856966,6.3451958 60 0 1 -0.62933,0.02843 6.1856966,6.3451958 60 0 1 -0.629852,-0.03272 6.1856966,6.3451958 60 0 1 -0.620356,-0.09542 6.1856966,6.3451958 60 0 1 -0.605819,-0.156796 6.1856966,6.3451958 60 0 1 -0.587781,-0.215958 6.1856966,6.3451958 60 0 1 -0.559563,-0.272535 6.1856966,6.3451958 60 0 1 -0.528781,-0.328449 6.1856966,6.3451958 60 0 1 -0.49177,-0.377356 6.1856966,6.3451958 60 0 1 -0.450665,-0.426576 6.1856966,6.3451958 60 0 1 -0.403259,-0.468741 6.1856966,6.3451958 60 0 1 -0.352397,-0.50871 6.1856966,6.3451958 60 0 1 -0.300238,-0.538827 6.1856966,6.3451958 60 0 1 -0.242233,-0.570219 6.1856966,6.3451958 60 0 1 -0.182905,-0.5917293 6.1856966,6.3451958 60 0 1 -0.122471,-0.6075484 6.1856966,6.3451958 60 0 1 -0.05928,-0.6185891 6.1856966,6.3451958 60 0 1 0.0027,-0.6204821 6.1856966,6.3451958 60 0 1 0.06556,-0.6207486 6.1856966,6.3451958 60 0 1 0.128894,-0.6127981 6.1856966,6.3451958 60 0 1 0.190044,-0.5972144 1.9047682,1.9538275 60 0 0 0.0043,-0.015162 1.9047682,1.9538275 60 0 0 0.05457,-0.1841231 1.9047682,1.9538275 60 0 0 0.03419,-0.189334 1.9047682,1.9538275 60 0 0 0.01563,-0.1913194 1.9047682,1.9538275 60 0 0 -0.0036,-0.1907745 1.9047682,1.9538275 60 0 0 -0.02288,-0.190295 1.9047682,1.9538275 60 0 0 -0.04287,-0.1871836 1.9047682,1.9538275 60 0 0 -0.05996,-0.1794516 1.9047682,1.9538275 60 0 0 -0.0807,-0.1738032 1.8492837,1.8969444 60 0 0 -0.02224,-0.04232 A 1.8492837,1.8969444 60 0 0 40.742947,4.1189824 1.8492837,1.8969444 60 0 0 40.626608,3.9741768 1.8492837,1.8969444 60 0 0 40.498461,3.8425599 1.8492837,1.8969444 60 0 0 40.355833,3.7235808 1.8492837,1.8969444 60 0 0 40.200607,3.6203413 1.8492837,1.8969444 60 0 0 40.036895,3.5325634 1.8492837,1.8969444 60 0 0 39.864058,3.4627862 1.8492837,1.8969444 60 0 0 39.685262,3.4092051 29.385272,30.142326 60 0 0 37.284483,2.9300766 29.385272,30.142326 60 0 0 34.314753,2.614113 a 29.385272,30.142326 60 0 0 -2.992772,-0.02077 29.385272,30.142326 60 0 0 -2.985677,0.2740022 29.385272,30.142326 60 0 0 -2.951876,0.5660543 1.8492837,1.8969444 60 0 0 -0.0547,0.01456 1.8492837,1.8969444 60 0 0 -0.179056,0.058906 1.8492837,1.8969444 60 0 0 -0.173088,0.076802 1.8492837,1.8969444 60 0 0 -0.165591,0.093491 z M 14.212932,46.91554 a 9.8753441,10.129711 60 0 1 0.973463,-0.275904 9.8753441,10.129711 60 0 1 0.994185,-0.179766 9.8753441,10.129711 60 0 0 -0.994185,0.179766 9.8753441,10.129711 60 0 0 -0.973463,0.275904 z m 2.970922,-0.536768 a 9.8753441,10.129711 60 0 1 1.005648,0.01713 9.8753441,10.129711 60 0 1 0.996401,0.117823 9.8753441,10.129711 60 0 0 -0.996401,-0.117823 9.8753441,10.129711 60 0 0 -1.005648,-0.01713 z m 25.419035,0.498141 a 9.9305263,10.186405 60 0 1 0.982437,-0.264066 9.9305263,10.186405 60 0 0 -0.982437,0.264066 z m 1.983225,-0.428614 a 9.9305263,10.186405 60 0 1 1.011547,-0.06685 9.9305263,10.186405 60 0 0 -1.011547,0.06685 z m 3.021036,0.09981 a 9.9305263,10.186405 60 0 1 0.979416,0.2315 9.9305263,10.186405 60 0 0 -0.979416,-0.2315 z M 29.834921,57.637651 a 25.400059,26.054308 60 0 0 2.587506,0.03431 25.400059,26.054308 60 0 1 -2.587506,-0.03431 z"
     fill="url(#linearGradient1465)"
     opacity="0.8"
     id="path1386"
     style="fill:url(#linearGradient1465);stroke-width:3.7796" />
  <path
     style="fill:#ffffff"
     d="m 34.337887,16 a 16.000001,16.000001 0 0 0 -15.999994,16 16.000001,16.000001 0 0 0 15.999994,16 16.000001,16.000001 0 0 0 11.28516,-4.675782 l -4.23828,-4.23828 A 9.9999998,9.9999998 0 0 1 34.337887,42 9.9999998,9.9999998 0 0 1 24.337893,32 a 9.9999998,9.9999998 0 0 1 9.999994,-9.999999 9.9999998,9.9999998 0 0 1 7.08594,2.953124 l 4.23828,-4.23828 A 16.000001,16.000001 0 0 0 34.337887,16 Z"
     id="path2033" />
</svg>
