<?xml version="1.0" encoding="UTF-8"?>
<svg width="64" height="64" version="1.1" viewBox="0 0 16.933 16.933" xmlns="http://www.w3.org/2000/svg" xmlns:cc="http://creativecommons.org/ns#" xmlns:dc="http://purl.org/dc/elements/1.1/" xmlns:rdf="http://www.w3.org/1999/02/22-rdf-syntax-ns#" xmlns:xlink="http://www.w3.org/1999/xlink">
 <defs>
  <linearGradient id="linearGradient1465" x1="50.633" x2="64.116" y1="12.823" y2="25.536" gradientTransform="rotate(-30 43.576 90.92)" gradientUnits="userSpaceOnUse">
   <stop stop-color="#869099" offset="0"/>
   <stop stop-color="#4c6068" offset="1"/>
  </linearGradient>
 </defs>
 <metadata>
  <rdf:RDF>
   <cc:Work rdf:about="">
    <dc:format>image/svg+xml</dc:format>
    <dc:type rdf:resource="http://purl.org/dc/dcmitype/StillImage"/>
   </cc:Work>
  </rdf:RDF>
 </metadata>
 <g transform="translate(-12.798 -13.793)">
  <path d="m19.355 14.772a0.48928 0.50189 60 0 0-0.04075 0.02907 0.48928 0.50189 60 0 0-0.03836 0.03219 0.48928 0.50189 60 0 0-0.03505 0.03594 0.48928 0.50189 60 0 0-0.03089 0.03915 0.48928 0.50189 60 0 0-0.02674 0.04236 0.48928 0.50189 60 0 0-9e-3 0.01526 0.48928 0.50189 60 0 0-0.02173 0.04506 0.48928 0.50189 60 0 0-0.017 0.04627 0.48928 0.50189 60 0 0-0.01247 0.04814 0.48928 0.50189 60 0 0-0.0076 0.04867 0.48928 0.50189 60 0 0-0.0027 0.0492 0.48928 0.50189 60 0 0 0.0025 0.04906 0.48928 0.50189 60 0 0 0.0073 0.0485 0.48928 0.50189 60 0 0 0.01258 0.0477 1.644 1.6863 60 0 1 0.02605 0.09095 1.644 1.6863 60 0 1 0.03222 0.16142 1.644 1.6863 60 0 1 0.01617 0.1645 1.644 1.6863 60 0 1-0.0011 0.1655 1.644 1.6863 60 0 1-0.0171 0.16465 1.644 1.6863 60 0 1-0.03429 0.16279 1.644 1.6863 60 0 1-0.05047 0.15868 1.644 1.6863 60 0 1-0.0656 0.1534 1.644 1.6863 60 0 1-0.08103 0.14659 1.644 1.6863 60 0 1-0.09521 0.13797 1.644 1.6863 60 0 1-0.10879 0.12842 1.644 1.6863 60 0 1-0.12044 0.1172 1.644 1.6863 60 0 1-0.13215 0.1049 1.644 1.6863 60 0 1-0.14127 0.09207 1.644 1.6863 60 0 1-0.07954 0.04257 1.644 1.6863 60 0 1-0.15437 0.06838 1.644 1.6863 60 0 1-0.15956 0.05343 1.644 1.6863 60 0 1-0.16393 0.03689 1.644 1.6863 60 0 1-0.16671 0.02111 1.644 1.6863 60 0 1-0.16777 0.0043 1.644 1.6863 60 0 1-0.16637-0.01216 1.644 1.6863 60 0 1-0.1643-0.02852 1.644 1.6863 60 0 1-0.16045-0.04476 1.644 1.6863 60 0 1-0.15433-0.06007 1.644 1.6863 60 0 1-0.14754-0.07521 1.644 1.6863 60 0 1-0.13872-0.08983 1.644 1.6863 60 0 1-0.12875-0.10344 1.644 1.6863 60 0 1-0.11713-0.1152 0.48928 0.50189 60 0 0-0.0066-0.0075 0.48928 0.50189 60 0 0-0.03521-0.03408 0.48928 0.50189 60 0 0-0.03834-0.03057 0.48928 0.50189 60 0 0-0.04126-0.02665 0.48928 0.50189 60 0 0-0.04437-0.02205 0.48928 0.50189 60 0 0-0.04594-0.01778 0.48928 0.50189 60 0 0-0.04792-0.01327 0.48928 0.50189 60 0 0-0.04901-0.0082 0.48928 0.50189 60 0 0-0.04965-0.0033 0.47216 0.48432 60 0 0-0.0264 1.07e-4 0.47216 0.48432 60 0 0-0.04793 0.0047 0.47216 0.48432 60 0 0-0.0477 9e-3 0.47216 0.48432 60 0 0-0.04613 0.01375 0.47216 0.48432 60 0 0-0.04456 0.01845 0.47216 0.48432 60 0 0-0.04347 0.02233 0.47216 0.48432 60 0 0-0.0404 0.02667 0.47216 0.48432 60 0 0-0.03751 0.03066 0.47216 0.48432 60 0 0-0.03405 0.03369 7.7306 7.9298 60 0 0-0.32169 0.35845 7.7306 7.9298 60 0 0-0.47917 0.6277 7.7306 7.9298 60 0 0-0.41424 0.67041 7.7306 7.9298 60 0 0-0.34522 0.70627 7.7306 7.9298 60 0 0-0.27321 0.73535 0.48928 0.50189 60 0 0-0.0033 0.0092 0.48928 0.50189 60 0 0-0.01112 0.0485 0.48928 0.50189 60 0 0-6e-3 0.04943 0.48928 0.50189 60 0 0-0.0011 0.04887 0.48928 0.50189 60 0 0 0.0033 0.04856 0.48928 0.50189 60 0 0 0.0084 0.04842 0.48928 0.50189 60 0 0 0.01344 0.0472 0.48928 0.50189 60 0 0 0.01857 0.04535 0.48928 0.50189 60 0 0 0.02278 0.04348 0.48928 0.50189 60 0 0 0.0039 0.0068 0.48928 0.50189 60 0 0 0.02712 0.04098 0.48928 0.50189 60 0 0 0.03106 0.0376 0.48928 0.50189 60 0 0 0.03435 0.03458 0.48928 0.50189 60 0 0 0.03858 0.03099 0.48928 0.50189 60 0 0 0.04084 0.0269 0.48928 0.50189 60 0 0 0.04395 0.02229 0.48928 0.50189 60 0 0 0.04618 0.0182 0.48928 0.50189 60 0 0 0.0475 0.01351 1.6342 1.6763 60 0 1 0.02288 0.0047 1.6342 1.6763 60 0 1 0.15972 0.0435 1.6342 1.6763 60 0 1 0.15384 0.05922 1.6342 1.6763 60 0 1 0.14706 0.07437 1.6342 1.6763 60 0 1 0.13842 0.08832 1.6342 1.6763 60 0 1 0.12845 0.10193 1.6342 1.6763 60 0 1 0.11708 0.1141 1.6342 1.6763 60 0 1 0.10478 0.12569 1.6342 1.6763 60 0 1 0.09127 0.13518 1.6342 1.6763 60 0 1 0.07717 0.14387 1.6342 1.6763 60 0 1 0.06212 0.15144 1.6342 1.6763 60 0 1 0.04575 0.15696 1.6342 1.6763 60 0 1 0.0302 0.1609 1.6342 1.6763 60 0 1 0.01347 0.16382 1.6342 1.6763 60 0 1-0.0034 0.16457 1.6342 1.6763 60 0 1-0.01961 0.16329 1.6342 1.6763 60 0 1-0.03636 0.1612 1.6342 1.6763 60 0 1-0.05188 0.15725 1.6342 1.6763 60 0 1-0.06792 0.15137 1.6342 1.6763 60 0 1-0.08267 0.14476 1.6342 1.6763 60 0 1-0.09686 0.13612 1.6342 1.6763 60 0 1-0.10957 0.12606 1.6342 1.6763 60 0 1-0.12165 0.1151 1.6342 1.6763 60 0 1-0.13249 0.10229 1.6342 1.6763 60 0 1-0.14181 0.08915 1.6342 1.6763 60 0 1-0.14947 0.07498 1.6342 1.6763 60 0 1-0.15635 0.05998 1.6342 1.6763 60 0 1-0.16134 0.04436 0.48928 0.50189 60 0 0-0.02406 0.0062 0.48928 0.50189 60 0 0-0.04737 0.01558 0.48928 0.50189 60 0 0-0.04648 0.02014 0.48928 0.50189 60 0 0-0.04338 0.02449 0.48928 0.50189 60 0 0-0.04138 0.02897 0.48928 0.50189 60 0 0-0.03816 0.03254 0.48928 0.50189 60 0 0-0.03462 0.03568 0.48928 0.50189 60 0 0-0.0309 0.03914 0.48928 0.50189 60 0 0-0.02698 0.04195 0.48928 0.50189 60 0 0-0.02264 0.04449 0.48928 0.50189 60 0 0-0.01811 0.04636 0.48928 0.50189 60 0 0-0.01339 0.04754 0.48928 0.50189 60 0 0-0.0087 0.04874 0.48928 0.50189 60 0 0-0.0033 0.04903 0.48928 0.50189 60 0 0 0.0013 0.04915 0.48928 0.50189 60 0 0 0.0064 0.049 0.48928 0.50189 60 0 0 0.01123 0.04736 7.5251 7.719 60 0 0 0.1671 0.51759 7.5251 7.719 60 0 0 0.29322 0.6932 7.5251 7.719 60 0 0 0.36253 0.6588 7.5251 7.719 60 0 0 0.42842 0.61851 7.5251 7.719 60 0 0 0.48957 0.57198 0.48928 0.50189 60 0 0 0.01593 0.0166 0.48928 0.50189 60 0 0 0.03713 0.03241 0.48928 0.50189 60 0 0 0.04003 0.02848 0.48928 0.50189 60 0 0 0.0427 0.02414 0.48928 0.50189 60 0 0 0.04536 0.01979 0.48928 0.50189 60 0 0 0.04693 0.01553 0.48928 0.50189 60 0 0 0.04868 0.0106 0.48928 0.50189 60 0 0 0.04931 0.0057 0.48928 0.50189 60 0 0 0.04956 0.0011 0.48928 0.50189 60 0 0 0.0497-0.0046 0.48928 0.50189 60 0 0 0.04949-0.0089 0.48928 0.50189 60 0 0 0.04792-0.01365 0.48928 0.50189 60 0 0 0.04679-0.01859 0.48928 0.50189 60 0 0 0.04434-0.02282 0.48928 0.50189 60 0 0 0.04237-0.02725 0.48928 0.50189 60 0 0 0.0395-0.03123 0.48928 0.50189 60 0 0 0.03603-0.03425 1.6342 1.6763 60 0 1 0.0181-0.01946 1.6342 1.6763 60 0 1 0.12189-0.11468 1.6342 1.6763 60 0 1 0.13249-0.10229 1.6342 1.6763 60 0 1 0.14206-0.08872 1.6342 1.6763 60 0 1 0.15005-0.07487 1.6342 1.6763 60 0 1 0.15659-0.05956 1.6342 1.6763 60 0 1 0.16134-0.04436 1.6342 1.6763 60 0 1 0.16437-0.02816 1.6342 1.6763 60 0 1 0.16652-0.01147 1.6342 1.6763 60 0 1 0.16642 0.0043 1.6342 1.6763 60 0 1 0.16459 0.02106 1.6342 1.6763 60 0 1 0.16142 0.03747 1.6342 1.6763 60 0 1 0.1564 0.0527 1.6342 1.6763 60 0 1 0.14986 0.06826 1.6342 1.6763 60 0 1 0.14171 0.08305 1.6342 1.6763 60 0 1 0.13284 0.09659 1.6342 1.6763 60 0 1 0.12128 0.10943 1.6342 1.6763 60 0 1 0.11033 0.12136 1.6342 1.6763 60 0 1 0.09662 0.13152 1.6342 1.6763 60 0 1 0.0829 0.14056 1.6342 1.6763 60 0 1 0.06798 0.14862 1.6342 1.6763 60 0 1 0.05209 0.15499 1.6342 1.6763 60 0 1 0.03703 0.15976 1.6342 1.6763 60 0 1 0.01961 0.16252 1.6342 1.6763 60 0 1 0.0035 0.16452 1.6342 1.6763 60 0 1-0.01336 0.16418 1.6342 1.6763 60 0 1-0.02943 0.16224 1.6342 1.6763 60 0 1-0.04623 0.15904 0.48928 0.50189 60 0 0-0.0043 0.01253 0.48928 0.50189 60 0 0-0.01204 0.04789 0.48928 0.50189 60 0 0-8e-3 0.04892 0.48928 0.50189 60 0 0-0.0027 0.0492 0.48928 0.50189 60 0 0 0.0022 0.04865 0.48928 0.50189 60 0 0 0.0073 0.04849 0.48928 0.50189 60 0 0 0.01215 0.04795 0.48928 0.50189 60 0 0 0.01668 0.04589 0.48928 0.50189 60 0 0 0.02168 0.04355 0.48928 0.50189 60 0 0 0.0063 0.01095 0.48928 0.50189 60 0 0 0.02712 0.04098 0.48928 0.50189 60 0 0 0.03106 0.0376 0.48928 0.50189 60 0 0 0.03435 0.03458 0.48928 0.50189 60 0 0 0.0386 0.03098 0.48928 0.50189 60 0 0 0.04084 0.02689 0.48928 0.50189 60 0 0 0.04394 0.0223 0.48928 0.50189 60 0 0 0.04618 0.0182 0.48928 0.50189 60 0 0 0.0475 0.01351 7.7722 7.9725 60 0 0 0.43761 0.08943 7.7722 7.9725 60 0 0 0.7833 0.09734 7.7722 7.9725 60 0 0 0.79099 0.01999 7.7722 7.9725 60 0 0 0.79084-0.05899 7.7722 7.9725 60 0 0 0.78256-0.13609 0.48928 0.50189 60 0 0 0.01428-0.0032 0.48928 0.50189 60 0 0 0.04762-0.01515 0.48928 0.50189 60 0 0 0.04604-0.01988 0.48928 0.50189 60 0 0 0.04385-0.0237 0.48928 0.50189 60 0 0 0.04168-0.02845 0.48928 0.50189 60 0 0 0.03836-0.03219 0.48928 0.50189 60 0 0 0.0353-0.03553 0.48928 0.50189 60 0 0 0.03114-0.03872 0.48928 0.50189 60 0 0 0.02766-0.04178 0.48928 0.50189 60 0 0 0.01063-0.01745 0.48928 0.50189 60 0 0 0.02264-0.04449 0.48928 0.50189 60 0 0 0.01835-0.04593 0.48928 0.50189 60 0 0 0.0134-0.04754 0.48928 0.50189 60 0 0 0.0091-0.04899 0.48928 0.50189 60 0 0 0.0036-0.04861 0.48928 0.50189 60 0 0-9e-4 -0.04939 0.48928 0.50189 60 0 0-0.0064-0.04899 0.48928 0.50189 60 0 0-0.01079-0.04761 1.6415 1.6838 60 0 1-0.02018-0.07079 1.6415 1.6838 60 0 1-0.03222-0.16142 1.6415 1.6838 60 0 1-0.01594-0.16408 1.6415 1.6838 60 0 1 9e-4 -0.16484 1.6415 1.6838 60 0 1 0.01711-0.16465 1.6415 1.6838 60 0 1 0.03409-0.16213 1.6415 1.6838 60 0 1 0.0498-0.15885 1.6415 1.6838 60 0 1 0.06628-0.15323 1.6415 1.6838 60 0 1 0.0806-0.14635 1.6415 1.6838 60 0 1 0.09521-0.13797 1.6415 1.6838 60 0 1 0.10835-0.12817 1.6415 1.6838 60 0 1 0.12044-0.1172 1.6415 1.6838 60 0 1 0.13172-0.10464 1.6415 1.6838 60 0 1 0.14085-0.09183l0.01726-0.01a1.6415 1.6838 60 0 1 0.08504-0.04401 1.6415 1.6838 60 0 1 0.15492-0.06644 1.6415 1.6838 60 0 1 0.15991-0.05083 1.6415 1.6838 60 0 1 0.16423-0.03537 1.6415 1.6838 60 0 1 0.16664-0.01826 1.6415 1.6838 60 0 1 0.1672-0.0023 1.6415 1.6838 60 0 1 0.16648 0.01435 1.6415 1.6838 60 0 1 0.16373 0.03053 1.6415 1.6838 60 0 1 0.15921 0.0466 1.6415 1.6838 60 0 1 0.15333 0.06232 1.6415 1.6838 60 0 1 0.14629 0.07705 1.6415 1.6838 60 0 1 0.13705 0.09192 1.6415 1.6838 60 0 1 0.12702 0.10444 1.6415 1.6838 60 0 1 0.11522 0.11686 0.48928 0.50189 60 0 0 0.0094 0.01027 0.48928 0.50189 60 0 0 0.03521 0.03408 0.48928 0.50189 60 0 0 0.03877 0.03032 0.48928 0.50189 60 0 0 0.04146 0.02598 0.48928 0.50189 60 0 0 0.04394 0.0223 0.48928 0.50189 60 0 0 0.04637 0.01753 0.48928 0.50189 60 0 0 0.04812 0.0126 0.48928 0.50189 60 0 0 0.04901 0.0082 0.48928 0.50189 60 0 0 0.04941 0.0029 0.48928 0.50189 60 0 0 0.02641-1.07e-4 0.48928 0.50189 60 0 0 0.04995-0.0042 0.48928 0.50189 60 0 0 0.04905-0.0087 0.48928 0.50189 60 0 0 0.04834-0.01388 0.48928 0.50189 60 0 0 0.04636-0.01834 0.48928 0.50189 60 0 0 0.04503-0.02265 0.48928 0.50189 60 0 0 0.03723-0.02715 0.48928 0.50189 60 0 0 0.03762-0.03348 0.48928 0.50189 60 0 0 0.03413-0.03653 7.7429 7.9423 60 0 0 0.32013-0.34522 7.7429 7.9423 60 0 0 0.4906-0.62085 7.7429 7.9423 60 0 0 0.42697-0.66431 7.7429 7.9423 60 0 0 0.35808-0.70192 7.7429 7.9423 60 0 0 0.28627-0.73167 0.48928 0.50189 60 0 0 0.0042-0.01372 0.48928 0.50189 60 0 0 0.01247-0.04813 0.48928 0.50189 60 0 0 0.0069-0.04884 0.48928 0.50189 60 0 0 0.0022-0.04895 0.48928 0.50189 60 0 0-0.0027-0.0495 0.48928 0.50189 60 0 0-0.0077-0.04825 0.48928 0.50189 60 0 0-0.01234-0.04729 0.48928 0.50189 60 0 0-0.01727-0.0461 0.48928 0.50189 60 0 0-0.02213-0.04331 0.48928 0.50189 60 0 0-8e-3 -0.01387 0.48928 0.50189 60 0 0-0.02774-0.04005 0.48928 0.50189 60 0 0-0.03184-0.03714 0.48928 0.50189 60 0 0-0.03564-0.03383 0.48928 0.50189 60 0 0-0.03878-0.03031 0.48928 0.50189 60 0 0-0.0419-0.02573 0.48928 0.50189 60 0 0-0.04413-0.02163 0.48928 0.50189 60 0 0-0.04612-0.01711 0.48928 0.50189 60 0 0-0.04812-0.0126 1.6366 1.6788 60 0 1-0.04826-0.01085 1.6366 1.6788 60 0 1-0.15858-0.04751 1.6366 1.6788 60 0 1-0.15236-0.06263 1.6366 1.6788 60 0 1-0.14544-0.07754 1.6366 1.6788 60 0 1-0.13637-0.09174 1.6366 1.6788 60 0 1-0.12615-0.10493 1.6366 1.6788 60 0 1-0.11435-0.11736 1.6366 1.6788 60 0 1-0.10224-0.12827 1.6366 1.6788 60 0 1-0.08809-0.13757 1.6366 1.6788 60 0 1-0.07369-0.14644 1.6366 1.6788 60 0 1-0.05819-0.15259 1.6366 1.6788 60 0 1-0.04249-0.15829 1.6366 1.6788 60 0 1-0.02583-0.1623 1.6366 1.6788 60 0 1-0.0097-0.16431 1.6366 1.6788 60 0 1 0.0069-0.16438 1.6366 1.6788 60 0 1 0.02404-0.16361 1.6366 1.6788 60 0 1 0.04017-0.16058 1.6366 1.6788 60 0 1 0.05592-0.15622 1.6366 1.6788 60 0 1 0.07154-0.1501 1.6366 1.6788 60 0 1 0.0861-0.14279 1.6366 1.6788 60 0 1 0.09986-0.13392 1.6366 1.6788 60 0 1 0.11256-0.12386 1.6366 1.6788 60 0 1 0.12489-0.11248 1.6366 1.6788 60 0 1 0.13463-0.0996 1.6366 1.6788 60 0 1 0.14418-0.08602 1.6366 1.6788 60 0 1 0.15201-0.07149 1.6366 1.6788 60 0 1 0.15786-0.05637 1.6366 1.6788 60 0 1 0.16217-0.04093 0.48928 0.50189 60 0 0 0.01538-0.0032 0.48928 0.50189 60 0 0 0.04817-0.01322 0.48928 0.50189 60 0 0 0.04661-0.01791 0.48928 0.50189 60 0 0 0.04502-0.02264 0.48928 0.50189 60 0 0 0.04213-0.02665 0.48928 0.50189 60 0 0 0.03975-0.0308 0.48928 0.50189 60 0 0 0.03646-0.0345 0.48928 0.50189 60 0 0 0.03297-0.03755 0.48928 0.50189 60 0 0 0.02882-0.04075 0.48928 0.50189 60 0 0 0.0082-0.01373 0.48928 0.50189 60 0 0 0.02357-0.04389 0.48928 0.50189 60 0 0 0.01879-0.04618 0.48928 0.50189 60 0 0 0.01408-0.04736 0.48928 0.50189 60 0 0 0.0093-0.04858 0.48928 0.50189 60 0 0 0.0044-0.04912 0.48928 0.50189 60 0 0-2.25e-4 -0.04921 0.48928 0.50189 60 0 0-0.0057-0.04883 0.48928 0.50189 60 0 0-0.01039-0.04785 7.6108 7.8068 60 0 0-0.15396-0.49882 7.6108 7.8068 60 0 0-0.28627-0.70507 7.6108 7.8068 60 0 0-0.35696-0.6721 7.6108 7.8068 60 0 0-0.42398-0.63174 7.6108 7.8068 60 0 0-0.48648-0.58555 0.48928 0.50189 60 0 0-0.01008-0.01045 0.48928 0.50189 60 0 0-0.03564-0.03382 0.48928 0.50189 60 0 0-0.03897-0.02965 0.48928 0.50189 60 0 0-0.04232-0.02548 0.48928 0.50189 60 0 0-0.04413-0.02163 0.48928 0.50189 60 0 0-0.04654-0.01687 0.48928 0.50189 60 0 0-0.0483-0.01192 0.48928 0.50189 60 0 0-0.04895-0.0071 0.48928 0.50189 60 0 0-0.04985-0.0026 0.48928 0.50189 60 0 0-0.01414 4.23e-4 0.48928 0.50189 60 0 0-0.04971 0.0046 0.48928 0.50189 60 0 0-0.04905 0.0087 0.48928 0.50189 60 0 0-0.0481 0.01432 0.48928 0.50189 60 0 0-0.04636 0.01834 0.48928 0.50189 60 0 0-0.04477 0.02307 0.48928 0.50189 60 0 0-0.04237 0.02725 0.48928 0.50189 60 0 0-0.03906 0.03098 0.48928 0.50189 60 0 0-0.03596 0.03536 1.6366 1.6788 60 0 1-0.05867 0.06079 1.6366 1.6788 60 0 1-0.12495 0.11138 1.6366 1.6788 60 0 1-0.1353 0.09943 1.6366 1.6788 60 0 1-0.14438 0.08568 1.6366 1.6788 60 0 1-0.15194 0.0709 1.6366 1.6788 60 0 1-0.15811 0.05595 1.6366 1.6788 60 0 1-0.16267 0.04007 1.6366 1.6788 60 0 1-0.16545 0.0243 1.6366 1.6788 60 0 1-0.16651 0.0075 1.6366 1.6788 60 0 1-0.16664-0.0087 1.6366 1.6788 60 0 1-0.16413-0.02525 1.6366 1.6788 60 0 1-0.16029-0.04149 1.6366 1.6788 60 0 1-0.15551-0.05714 1.6366 1.6788 60 0 1-0.14805-0.07211 1.6366 1.6788 60 0 1-0.1399-0.0869 1.6366 1.6788 60 0 1-0.13011-0.09984 1.6366 1.6788 60 0 1-0.11924-0.11286 1.6366 1.6788 60 0 1-0.10669-0.12402 1.6366 1.6788 60 0 1-0.09324-0.13459 1.6366 1.6788 60 0 1-0.07944-0.14256 1.6366 1.6788 60 0 1-0.06409-0.15087 1.6366 1.6788 60 0 1-0.04839-0.15656 1.6366 1.6788 60 0 1-0.0324-0.16074 1.6366 1.6788 60 0 1-0.01568-0.16366 1.6366 1.6788 60 0 1 7.15e-4 -0.16417 1.6366 1.6788 60 0 1 0.01734-0.16424 1.6366 1.6788 60 0 1 0.0341-0.16213 1.6366 1.6788 60 0 1 0.05028-0.15801 0.50396 0.51694 60 0 0 0.0011-4e-3 0.50396 0.51694 60 0 0 0.01444-0.04871 0.50396 0.51694 60 0 0 9e-3 -0.05009 0.50396 0.51694 60 0 0 0.0041-0.05062 0.50396 0.51694 60 0 0-9.52e-4 -0.05047 0.50396 0.51694 60 0 0-0.0061-0.05035 0.50396 0.51694 60 0 0-0.01134-0.04953 0.50396 0.51694 60 0 0-0.01586-0.04748 0.50396 0.51694 60 0 0-0.02135-0.04598 0.48928 0.50189 60 0 0-0.0059-0.0112 0.48928 0.50189 60 0 0-0.02667-0.0412 0.48928 0.50189 60 0 0-0.03078-0.03831 0.48928 0.50189 60 0 0-0.0339-0.03482 0.48928 0.50189 60 0 0-0.03774-0.03148 0.48928 0.50189 60 0 0-0.04107-0.02732 0.48928 0.50189 60 0 0-0.04331-0.02322 0.48928 0.50189 60 0 0-0.04573-0.01846 0.48928 0.50189 60 0 0-0.04731-0.01418 7.7747 7.975 60 0 0-0.63519-0.12677 7.7747 7.975 60 0 0-0.78572-0.0836 7.7747 7.975 60 0 0-0.79182-0.0055 7.7747 7.975 60 0 0-0.78994 0.07249 7.7747 7.975 60 0 0-0.781 0.14976 0.48928 0.50189 60 0 0-0.01447 0.0039 0.48928 0.50189 60 0 0-0.04737 0.01558 0.48928 0.50189 60 0 0-0.0458 0.02032 0.48928 0.50189 60 0 0-0.04381 0.02474zm-2.804 11.441a2.6128 2.6801 60 0 1 0.25756-0.073 2.6128 2.6801 60 0 1 0.26304-0.04756 2.6128 2.6801 60 0 0-0.26304 0.04756 2.6128 2.6801 60 0 0-0.25756 0.073zm0.78604-0.14202a2.6128 2.6801 60 0 1 0.26607 0.0045 2.6128 2.6801 60 0 1 0.26363 0.03117 2.6128 2.6801 60 0 0-0.26363-0.03117 2.6128 2.6801 60 0 0-0.26607-0.0045zm6.7253 0.1318a2.6274 2.6951 60 0 1 0.25993-0.06987 2.6274 2.6951 60 0 0-0.25993 0.06987zm0.52472-0.1134a2.6274 2.6951 60 0 1 0.26763-0.01769 2.6274 2.6951 60 0 0-0.26763 0.01769zm0.7993 0.02641a2.6274 2.6951 60 0 1 0.25913 0.06125 2.6274 2.6951 60 0 0-0.25913-0.06125zm-4.7021 2.934a6.7203 6.8934 60 0 0 0.6846 0.0091 6.7203 6.8934 60 0 1-0.6846-0.0091z" fill="url(#linearGradient1465)" opacity=".8"/>
  <path d="m21.875 18.033a4.2333 4.2333 0 0 0-4.2332 4.2332 4.2333 4.2333 0 0 0 4.2332 4.2332 4.2333 4.2333 0 0 0 2.9858-1.2371l-1.1214-1.1214a2.6458 2.6458 0 0 1-1.8644 0.771 2.6458 2.6458 0 0 1-2.6458-2.6458 2.6458 2.6458 0 0 1 2.6458-2.6458 2.6458 2.6458 0 0 1 1.8748 0.78133l1.1214-1.1214a4.2333 4.2333 0 0 0-2.9961-1.2474z" fill="#fff" stroke-width=".26458"/>
 </g>
</svg>
