<?xml version="1.0" encoding="UTF-8" standalone="no"?>
<svg
   xmlns:dc="http://purl.org/dc/elements/1.1/"
   xmlns:cc="http://creativecommons.org/ns#"
   xmlns:rdf="http://www.w3.org/1999/02/22-rdf-syntax-ns#"
   xmlns:svg="http://www.w3.org/2000/svg"
   xmlns="http://www.w3.org/2000/svg"
   xmlns:sodipodi="http://sodipodi.sourceforge.net/DTD/sodipodi-0.dtd"
   xmlns:inkscape="http://www.inkscape.org/namespaces/inkscape"
   width="64"
   height="64"
   version="1"
   id="svg28"
   sodipodi:docname="conky-manager2.svg"
   inkscape:version="1.0.2 (e86c870879, 2021-01-15)">
  <metadata
     id="metadata34">
    <rdf:RDF>
      <cc:Work
         rdf:about="">
        <dc:format>image/svg+xml</dc:format>
        <dc:type
           rdf:resource="http://purl.org/dc/dcmitype/StillImage" />
        <dc:title></dc:title>
      </cc:Work>
    </rdf:RDF>
  </metadata>
  <defs
     id="defs32" />
  <sodipodi:namedview
     pagecolor="#ffffff"
     bordercolor="#666666"
     borderopacity="1"
     objecttolerance="10"
     gridtolerance="10"
     guidetolerance="10"
     inkscape:pageopacity="0"
     inkscape:pageshadow="2"
     inkscape:window-width="1920"
     inkscape:window-height="935"
     id="namedview30"
     showgrid="false"
     inkscape:zoom="6.0546875"
     inkscape:cx="32.169499"
     inkscape:cy="22.397825"
     inkscape:window-x="0"
     inkscape:window-y="38"
     inkscape:window-maximized="1"
     inkscape:current-layer="svg28" />
  <g
     id="g866"
     transform="matrix(1.0185185,0,0,1.0185185,-0.592592,-0.59259149)">
    <rect
       style="fill:#c2352a"
       width="8"
       height="40"
       x="51"
       y="12"
       rx="1.4"
       ry="1.4"
       id="rect6" />
    <rect
       style="fill:#c2352a"
       width="8"
       height="40"
       x="29"
       y="12"
       rx="1.4"
       ry="1.4"
       id="rect8" />
    <rect
       style="fill:#c2352a"
       width="8"
       height="40"
       x="5"
       y="12"
       rx="1.4"
       ry="1.4"
       id="rect10" />
    <rect
       style="fill:#d8564d"
       width="8"
       height="20"
       x="12"
       y="-25"
       rx="1.4"
       ry="1.4"
       transform="rotate(90)"
       id="rect14" />
    <rect
       style="fill:#d8564d"
       width="8"
       height="20"
       x="44"
       y="-25"
       rx="1.4"
       ry="1.4"
       transform="rotate(90)"
       id="rect16" />
    <path
       style="fill:#d8564d"
       d="m 30.952676,11.999999 a 1.9532883,1.6212212 0 0 0 -1.691154,2.43159 l 6.525568,9.378081 6.523024,9.37808 a 1.9532883,1.6212212 0 0 0 1.599608,0.81053 1.9532883,1.6212212 0 0 0 1.782702,-0.81053 l 6.523028,-9.37808 6.523024,-9.378081 a 1.9532883,1.6212212 0 0 0 -1.691152,-2.43159 H 44.00127 Z"
       id="path18" />
    <path
       style="opacity:0.2;fill:#ffffff"
       d="M 6.4296875,12 C 5.6382587,12 5,12.593365 5,13.332031 v 1 C 5,13.593365 5.6382587,13 6.4296875,13 H 23.570312 C 24.361742,13 25,13.593365 25,14.332031 v -1 C 25,12.593365 24.361742,12 23.570312,12 Z M 30.953125,12 A 1.9532883,1.6212212 0 0 0 29.099609,14.121094 1.9532883,1.6212212 0 0 1 30.953125,13 H 44 57.046875 A 1.9532883,1.6212212 0 0 1 58.902344,14.123047 1.9532883,1.6212212 0 0 0 57.046875,12 H 44 Z M 6.4296875,44 C 5.6382587,44 5,44.593363 5,45.332031 v 1 C 5,45.593363 5.6382587,45 6.4296875,45 H 23.570312 C 24.361742,45 25,45.593363 25,46.332031 v -1 C 25,44.593363 24.361742,44 23.570312,44 Z"
       id="path20" />
  </g>
  <circle
     style="fill:#f29312"
     cx="32"
     cy="47"
     r="15"
     id="circle24" />
  <path
     style="fill:#ffffff;fill-rule:evenodd"
     d="M 32,40 C 32,40 31.055,39.981 30.07,40.498 29.122,40.996 28.089,42.242 28.014,44 H 30.691 C 30.82,42.815 32,42.801 32,42.801 32,42.801 33.334,42.799 33.334,44.199 33.334,44.938 33.147,45.352 32.791,45.818 32.435,46.285 31.868,46.754 31.201,47.279 30.535,47.804 29.769,48.385 29.125,49.23 28.481,50.076 28,51.239 28,52.6 V 54 H 36 V 51 H 31.135 C 31.176,50.938 31.161,51.043 31.209,50.98 31.565,50.514 32.132,50.046 32.799,49.521 33.465,48.996 34.231,48.414 34.875,47.568 35.519,46.723 36,45.56 36,44.199 36,42.333 34.914,41.015 33.93,40.498 32.945,39.981 32,40 32,40 Z"
     id="path26" />
</svg>
