<?xml version="1.0" encoding="UTF-8" standalone="no"?>
<svg
   xmlns:dc="http://purl.org/dc/elements/1.1/"
   xmlns:cc="http://creativecommons.org/ns#"
   xmlns:rdf="http://www.w3.org/1999/02/22-rdf-syntax-ns#"
   xmlns:svg="http://www.w3.org/2000/svg"
   xmlns="http://www.w3.org/2000/svg"
   xmlns:xlink="http://www.w3.org/1999/xlink"
   xmlns:sodipodi="http://sodipodi.sourceforge.net/DTD/sodipodi-0.dtd"
   xmlns:inkscape="http://www.inkscape.org/namespaces/inkscape"
   id="Layer_1"
   width="64"
   height="64"
   x="0"
   y="0"
   version="1.1"
   xml:space="preserve"
   sodipodi:docname="conky.svg"
   inkscape:version="1.0.2 (e86c870879, 2021-01-15)"><metadata
   id="metadata23"><rdf:RDF><cc:Work
       rdf:about=""><dc:format>image/svg+xml</dc:format><dc:type
         rdf:resource="http://purl.org/dc/dcmitype/StillImage" /><dc:title></dc:title></cc:Work></rdf:RDF></metadata><defs
   id="defs21"><linearGradient
     id="linearGradient991"
     inkscape:collect="always"><stop
       id="stop987"
       offset="0"
       style="stop-color:#00488a;stop-opacity:1" /><stop
       id="stop989"
       offset="1"
       style="stop-color:#006fd6;stop-opacity:1" /></linearGradient><linearGradient
     gradientTransform="translate(0,-896)"
     gradientUnits="userSpaceOnUse"
     y2="992"
     x2="32"
     y1="32"
     x1="32"
     id="lgrad"><stop
       id="stop2"
       stop-color="#f8f8f8"
       offset="0%" /><stop
       id="stop4"
       stop-color="#ccc"
       offset="100%" /></linearGradient><radialGradient
     gradientTransform="translate(0,-896)"
     gradientUnits="userSpaceOnUse"
     r="440"
     cy="512"
     cx="512"
     fy="494.39999"
     fx="512"
     y2="100%"
     x2="0%"
     y1="0%"
     x1="0%"
     id="rgrad"><stop
       id="stop7"
       stop-color="#00f0ff"
       offset="0%" /><stop
       id="stop9"
       stop-color="#0070e0"
       offset="100%" /></radialGradient><radialGradient
     id="rgrad-3"
     x1="0%"
     y1="0%"
     x2="0%"
     y2="100%"
     fx="523.57568"
     fy="306.1813"
     cx="523.57568"
     cy="306.1813"
     r="440"
     gradientUnits="userSpaceOnUse"
     gradientTransform="matrix(0.03099337,0,0,0.03032562,85.198869,42.985295)"><stop
       offset="0%"
       stop-color="#00f0ff"
       id="stop7-6"
       style="stop-color:#03d7e4;stop-opacity:1" /><stop
       offset="100%"
       stop-color="#0070e0"
       id="stop9-7" /></radialGradient><linearGradient
     id="SVGID_1_"
     gradientUnits="userSpaceOnUse"
     x1="43.000301"
     y1="149.623"
     x2="43.000301"
     y2="84.503403"
     gradientTransform="matrix(1.5,0,0,-1.5,31.5,271.5)"><stop
       offset="0"
       style="stop-color:#FEFEFE"
       id="stop36" /><stop
       offset="1"
       style="stop-color:#CACACA"
       id="stop38" /></linearGradient><linearGradient
     id="SVGID_2_"
     gradientUnits="userSpaceOnUse"
     x1="39.955002"
     y1="149.623"
     x2="39.955002"
     y2="84.503403"
     gradientTransform="matrix(1.5,0,0,-1.5,31.5,271.5)"><stop
       offset="0"
       style="stop-color:#FEFEFE"
       id="stop43" /><stop
       offset="1"
       style="stop-color:#CACACA"
       id="stop45" /></linearGradient><linearGradient
     id="SVGID_5_"
     gradientUnits="userSpaceOnUse"
     x1="37.284698"
     y1="149.623"
     x2="37.284698"
     y2="84.503403"
     gradientTransform="matrix(1.5,0,0,-1.5,31.5,271.5)"><stop
       offset="0"
       style="stop-color:#FEFEFE"
       id="stop64" /><stop
       offset="1"
       style="stop-color:#CACACA"
       id="stop66" /></linearGradient><linearGradient
     id="SVGID_6_"
     gradientUnits="userSpaceOnUse"
     x1="33.977001"
     y1="149.623"
     x2="33.977001"
     y2="84.503403"
     gradientTransform="matrix(1.5,0,0,-1.5,31.5,271.5)"><stop
       offset="0"
       style="stop-color:#FEFEFE"
       id="stop71" /><stop
       offset="1"
       style="stop-color:#CACACA"
       id="stop73" /></linearGradient><linearGradient
     id="SVGID_9_"
     gradientUnits="userSpaceOnUse"
     x1="31.790001"
     y1="149.623"
     x2="31.790001"
     y2="84.503403"
     gradientTransform="matrix(1.5,0,0,-1.5,31.5,271.5)"><stop
       offset="0"
       style="stop-color:#FEFEFE"
       id="stop92" /><stop
       offset="1"
       style="stop-color:#CACACA"
       id="stop94" /></linearGradient><linearGradient
     id="SVGID_10_"
     gradientUnits="userSpaceOnUse"
     x1="28.344601"
     y1="149.623"
     x2="28.344601"
     y2="84.503403"
     gradientTransform="matrix(1.5,0,0,-1.5,31.5,271.5)"><stop
       offset="0"
       style="stop-color:#FEFEFE"
       id="stop99" /><stop
       offset="1"
       style="stop-color:#CACACA"
       id="stop101" /></linearGradient><linearGradient
     id="SVGID_13_"
     gradientUnits="userSpaceOnUse"
     x1="26.724701"
     y1="149.623"
     x2="26.724701"
     y2="84.503403"
     gradientTransform="matrix(1.5,0,0,-1.5,31.5,271.5)"><stop
       offset="0"
       style="stop-color:#FEFEFE"
       id="stop120" /><stop
       offset="1"
       style="stop-color:#CACACA"
       id="stop122" /></linearGradient><linearGradient
     id="SVGID_14_"
     gradientUnits="userSpaceOnUse"
     x1="23.2766"
     y1="149.623"
     x2="23.2766"
     y2="84.503403"
     gradientTransform="matrix(1.5,0,0,-1.5,31.5,271.5)"><stop
       offset="0"
       style="stop-color:#FEFEFE"
       id="stop127" /><stop
       offset="1"
       style="stop-color:#CACACA"
       id="stop129" /></linearGradient><linearGradient
     id="SVGID_17_"
     gradientUnits="userSpaceOnUse"
     x1="22.285299"
     y1="149.623"
     x2="22.285299"
     y2="84.503403"
     gradientTransform="matrix(1.5,0,0,-1.5,31.5,271.5)"><stop
       offset="0"
       style="stop-color:#FEFEFE"
       id="stop148" /><stop
       offset="1"
       style="stop-color:#CACACA"
       id="stop150" /></linearGradient><linearGradient
     id="SVGID_18_"
     gradientUnits="userSpaceOnUse"
     x1="18.965799"
     y1="149.623"
     x2="18.965799"
     y2="84.503403"
     gradientTransform="matrix(1.5,0,0,-1.5,31.5,271.5)"><stop
       offset="0"
       style="stop-color:#FEFEFE"
       id="stop155" /><stop
       offset="1"
       style="stop-color:#CACACA"
       id="stop157" /></linearGradient><linearGradient
     id="SVGID_21_"
     gradientUnits="userSpaceOnUse"
     x1="18.642401"
     y1="149.623"
     x2="18.642401"
     y2="84.503403"
     gradientTransform="matrix(1.5,0,0,-1.5,31.5,271.5)"><stop
       offset="0"
       style="stop-color:#FEFEFE"
       id="stop176" /><stop
       offset="1"
       style="stop-color:#CACACA"
       id="stop178" /></linearGradient><linearGradient
     id="SVGID_22_"
     gradientUnits="userSpaceOnUse"
     x1="15.5783"
     y1="149.623"
     x2="15.5783"
     y2="84.503403"
     gradientTransform="matrix(1.5,0,0,-1.5,31.5,271.5)"><stop
       offset="0"
       style="stop-color:#FEFEFE"
       id="stop183" /><stop
       offset="1"
       style="stop-color:#CACACA"
       id="stop185" /></linearGradient><linearGradient
     id="SVGID_25_"
     gradientUnits="userSpaceOnUse"
     x1="15.9353"
     y1="149.623"
     x2="15.9353"
     y2="84.503403"
     gradientTransform="matrix(1.5,0,0,-1.5,31.5,271.5)"><stop
       offset="0"
       style="stop-color:#FEFEFE"
       id="stop204" /><stop
       offset="1"
       style="stop-color:#CACACA"
       id="stop206" /></linearGradient><linearGradient
     id="SVGID_26_"
     gradientUnits="userSpaceOnUse"
     x1="13.2449"
     y1="149.623"
     x2="13.2449"
     y2="84.503403"
     gradientTransform="matrix(1.5,0,0,-1.5,31.5,271.5)"><stop
       offset="0"
       style="stop-color:#FEFEFE"
       id="stop211" /><stop
       offset="1"
       style="stop-color:#CACACA"
       id="stop213" /></linearGradient><linearGradient
     id="SVGID_29_"
     gradientUnits="userSpaceOnUse"
     x1="14.2678"
     y1="149.623"
     x2="14.2678"
     y2="84.503403"
     gradientTransform="matrix(1.5,0,0,-1.5,31.5,271.5)"><stop
       offset="0"
       style="stop-color:#FEFEFE"
       id="stop232" /><stop
       offset="1"
       style="stop-color:#CACACA"
       id="stop234" /></linearGradient><linearGradient
     id="SVGID_30_"
     gradientUnits="userSpaceOnUse"
     x1="12.0553"
     y1="149.623"
     x2="12.0553"
     y2="84.503403"
     gradientTransform="matrix(1.5,0,0,-1.5,31.5,271.5)"><stop
       offset="0"
       style="stop-color:#FEFEFE"
       id="stop239" /><stop
       offset="1"
       style="stop-color:#CACACA"
       id="stop241" /></linearGradient><linearGradient
     id="SVGID_33_"
     gradientUnits="userSpaceOnUse"
     x1="13.7049"
     y1="149.623"
     x2="13.7049"
     y2="84.503403"
     gradientTransform="matrix(1.5,0,0,-1.5,31.5,271.5)"><stop
       offset="0"
       style="stop-color:#FEFEFE"
       id="stop260" /><stop
       offset="1"
       style="stop-color:#CACACA"
       id="stop262" /></linearGradient><linearGradient
     id="SVGID_34_"
     gradientUnits="userSpaceOnUse"
     x1="12.0552"
     y1="149.623"
     x2="12.0552"
     y2="84.503403"
     gradientTransform="matrix(1.5,0,0,-1.5,31.5,271.5)"><stop
       offset="0"
       style="stop-color:#FEFEFE"
       id="stop267" /><stop
       offset="1"
       style="stop-color:#CACACA"
       id="stop269" /></linearGradient><linearGradient
     id="SVGID_37_"
     gradientUnits="userSpaceOnUse"
     x1="14.2679"
     y1="149.623"
     x2="14.2679"
     y2="84.503403"
     gradientTransform="matrix(1.5,0,0,-1.5,31.5,271.5)"><stop
       offset="0"
       style="stop-color:#FEFEFE"
       id="stop288" /><stop
       offset="1"
       style="stop-color:#CACACA"
       id="stop290" /></linearGradient><linearGradient
     id="SVGID_38_"
     gradientUnits="userSpaceOnUse"
     x1="13.2432"
     y1="149.623"
     x2="13.2432"
     y2="84.503403"
     gradientTransform="matrix(1.5,0,0,-1.5,31.5,271.5)"><stop
       offset="0"
       style="stop-color:#FEFEFE"
       id="stop295" /><stop
       offset="1"
       style="stop-color:#CACACA"
       id="stop297" /></linearGradient><linearGradient
     id="SVGID_42_"
     gradientUnits="userSpaceOnUse"
     x1="15.5753"
     y1="149.623"
     x2="15.5753"
     y2="84.503403"
     gradientTransform="matrix(1.5,0,0,-1.5,31.5,271.5)"><stop
       offset="0"
       style="stop-color:#FEFEFE"
       id="stop323" /><stop
       offset="1"
       style="stop-color:#CACACA"
       id="stop325" /></linearGradient><linearGradient
     id="SVGID_45_"
     gradientUnits="userSpaceOnUse"
     x1="18.6423"
     y1="149.623"
     x2="18.6423"
     y2="84.503403"
     gradientTransform="matrix(1.5,0,0,-1.5,31.5,271.5)"><stop
       offset="0"
       style="stop-color:#FEFEFE"
       id="stop344" /><stop
       offset="1"
       style="stop-color:#CACACA"
       id="stop346" /></linearGradient><linearGradient
     id="SVGID_46_"
     gradientUnits="userSpaceOnUse"
     x1="18.961901"
     y1="149.623"
     x2="18.961901"
     y2="84.503403"
     gradientTransform="matrix(1.5,0,0,-1.5,31.5,271.5)"><stop
       offset="0"
       style="stop-color:#FEFEFE"
       id="stop351" /><stop
       offset="1"
       style="stop-color:#CACACA"
       id="stop353" /></linearGradient><linearGradient
     id="SVGID_49_"
     gradientUnits="userSpaceOnUse"
     x1="22.2859"
     y1="149.623"
     x2="22.2859"
     y2="84.503403"
     gradientTransform="matrix(1.5,0,0,-1.5,31.5,271.5)"><stop
       offset="0"
       style="stop-color:#FEFEFE"
       id="stop372" /><stop
       offset="1"
       style="stop-color:#CACACA"
       id="stop374" /></linearGradient><linearGradient
     id="SVGID_50_"
     gradientUnits="userSpaceOnUse"
     x1="23.271601"
     y1="149.623"
     x2="23.271601"
     y2="84.503403"
     gradientTransform="matrix(1.5,0,0,-1.5,31.5,271.5)"><stop
       offset="0"
       style="stop-color:#FEFEFE"
       id="stop379" /><stop
       offset="1"
       style="stop-color:#CACACA"
       id="stop381" /></linearGradient><linearGradient
     id="SVGID_53_"
     gradientUnits="userSpaceOnUse"
     x1="26.7246"
     y1="149.623"
     x2="26.7246"
     y2="84.503403"
     gradientTransform="matrix(1.5,0,0,-1.5,31.5,271.5)"><stop
       offset="0"
       style="stop-color:#FEFEFE"
       id="stop400" /><stop
       offset="1"
       style="stop-color:#CACACA"
       id="stop402" /></linearGradient><linearGradient
     id="SVGID_54_"
     gradientUnits="userSpaceOnUse"
     x1="28.339001"
     y1="149.623"
     x2="28.339001"
     y2="84.503403"
     gradientTransform="matrix(1.5,0,0,-1.5,31.5,271.5)"><stop
       offset="0"
       style="stop-color:#FEFEFE"
       id="stop407" /><stop
       offset="1"
       style="stop-color:#CACACA"
       id="stop409" /></linearGradient><linearGradient
     id="SVGID_57_"
     gradientUnits="userSpaceOnUse"
     x1="31.789301"
     y1="149.623"
     x2="31.789301"
     y2="84.503403"
     gradientTransform="matrix(1.5,0,0,-1.5,31.5,271.5)"><stop
       offset="0"
       style="stop-color:#FEFEFE"
       id="stop428" /><stop
       offset="1"
       style="stop-color:#CACACA"
       id="stop430" /></linearGradient><linearGradient
     id="SVGID_58_"
     gradientUnits="userSpaceOnUse"
     x1="33.970299"
     y1="149.623"
     x2="33.970299"
     y2="84.503403"
     gradientTransform="matrix(1.5,0,0,-1.5,31.5,271.5)"><stop
       offset="0"
       style="stop-color:#FEFEFE"
       id="stop435" /><stop
       offset="1"
       style="stop-color:#CACACA"
       id="stop437" /></linearGradient><linearGradient
     id="SVGID_61_"
     gradientUnits="userSpaceOnUse"
     x1="37.284599"
     y1="149.623"
     x2="37.284599"
     y2="84.503403"
     gradientTransform="matrix(1.5,0,0,-1.5,31.5,271.5)"><stop
       offset="0"
       style="stop-color:#FEFEFE"
       id="stop456" /><stop
       offset="1"
       style="stop-color:#CACACA"
       id="stop458" /></linearGradient><linearGradient
     id="SVGID_62_"
     gradientUnits="userSpaceOnUse"
     x1="39.949001"
     y1="149.623"
     x2="39.949001"
     y2="84.503403"
     gradientTransform="matrix(1.5,0,0,-1.5,31.5,271.5)"><stop
       offset="0"
       style="stop-color:#FEFEFE"
       id="stop463" /><stop
       offset="1"
       style="stop-color:#CACACA"
       id="stop465" /></linearGradient><linearGradient
     id="SVGID_66_"
     gradientUnits="userSpaceOnUse"
     x1="46.044998"
     y1="149.623"
     x2="46.044998"
     y2="84.503403"
     gradientTransform="matrix(1.5,0,0,-1.5,31.5,271.5)"><stop
       offset="0"
       style="stop-color:#FEFEFE"
       id="stop491" /><stop
       offset="1"
       style="stop-color:#CACACA"
       id="stop493" /></linearGradient><linearGradient
     id="SVGID_69_"
     gradientUnits="userSpaceOnUse"
     x1="48.715302"
     y1="149.623"
     x2="48.715302"
     y2="84.503403"
     gradientTransform="matrix(1.5,0,0,-1.5,31.5,271.5)"><stop
       offset="0"
       style="stop-color:#FEFEFE"
       id="stop512" /><stop
       offset="1"
       style="stop-color:#CACACA"
       id="stop514" /></linearGradient><linearGradient
     id="SVGID_70_"
     gradientUnits="userSpaceOnUse"
     x1="52.022999"
     y1="149.623"
     x2="52.022999"
     y2="84.503403"
     gradientTransform="matrix(1.5,0,0,-1.5,31.5,271.5)"><stop
       offset="0"
       style="stop-color:#FEFEFE"
       id="stop519" /><stop
       offset="1"
       style="stop-color:#CACACA"
       id="stop521" /></linearGradient><linearGradient
     id="SVGID_73_"
     gradientUnits="userSpaceOnUse"
     x1="54.209999"
     y1="149.623"
     x2="54.209999"
     y2="84.503403"
     gradientTransform="matrix(1.5,0,0,-1.5,31.5,271.5)"><stop
       offset="0"
       style="stop-color:#FEFEFE"
       id="stop540" /><stop
       offset="1"
       style="stop-color:#CACACA"
       id="stop542" /></linearGradient><linearGradient
     id="SVGID_74_"
     gradientUnits="userSpaceOnUse"
     x1="57.655399"
     y1="149.623"
     x2="57.655399"
     y2="84.503403"
     gradientTransform="matrix(1.5,0,0,-1.5,31.5,271.5)"><stop
       offset="0"
       style="stop-color:#FEFEFE"
       id="stop547" /><stop
       offset="1"
       style="stop-color:#CACACA"
       id="stop549" /></linearGradient><linearGradient
     id="SVGID_77_"
     gradientUnits="userSpaceOnUse"
     x1="59.275299"
     y1="149.623"
     x2="59.275299"
     y2="84.503403"
     gradientTransform="matrix(1.5,0,0,-1.5,31.5,271.5)"><stop
       offset="0"
       style="stop-color:#FEFEFE"
       id="stop568" /><stop
       offset="1"
       style="stop-color:#CACACA"
       id="stop570" /></linearGradient><linearGradient
     id="SVGID_78_"
     gradientUnits="userSpaceOnUse"
     x1="62.7234"
     y1="149.623"
     x2="62.7234"
     y2="84.503403"
     gradientTransform="matrix(1.5,0,0,-1.5,31.5,271.5)"><stop
       offset="0"
       style="stop-color:#FEFEFE"
       id="stop575" /><stop
       offset="1"
       style="stop-color:#CACACA"
       id="stop577" /></linearGradient><linearGradient
     id="SVGID_81_"
     gradientUnits="userSpaceOnUse"
     x1="63.714699"
     y1="149.623"
     x2="63.714699"
     y2="84.503403"
     gradientTransform="matrix(1.5,0,0,-1.5,31.5,271.5)"><stop
       offset="0"
       style="stop-color:#FEFEFE"
       id="stop596" /><stop
       offset="1"
       style="stop-color:#CACACA"
       id="stop598" /></linearGradient><linearGradient
     id="SVGID_82_"
     gradientUnits="userSpaceOnUse"
     x1="67.034203"
     y1="149.623"
     x2="67.034203"
     y2="84.503403"
     gradientTransform="matrix(1.5,0,0,-1.5,31.5,271.5)"><stop
       offset="0"
       style="stop-color:#FEFEFE"
       id="stop603" /><stop
       offset="1"
       style="stop-color:#CACACA"
       id="stop605" /></linearGradient><linearGradient
     id="SVGID_85_"
     gradientUnits="userSpaceOnUse"
     x1="67.357697"
     y1="149.623"
     x2="67.357697"
     y2="84.503403"
     gradientTransform="matrix(1.5,0,0,-1.5,31.5,271.5)"><stop
       offset="0"
       style="stop-color:#FEFEFE"
       id="stop624" /><stop
       offset="1"
       style="stop-color:#CACACA"
       id="stop626" /></linearGradient><linearGradient
     id="SVGID_86_"
     gradientUnits="userSpaceOnUse"
     x1="70.4217"
     y1="149.623"
     x2="70.4217"
     y2="84.503403"
     gradientTransform="matrix(1.5,0,0,-1.5,31.5,271.5)"><stop
       offset="0"
       style="stop-color:#FEFEFE"
       id="stop631" /><stop
       offset="1"
       style="stop-color:#CACACA"
       id="stop633" /></linearGradient><linearGradient
     id="SVGID_89_"
     gradientUnits="userSpaceOnUse"
     x1="70.064697"
     y1="149.623"
     x2="70.064697"
     y2="84.503403"
     gradientTransform="matrix(1.5,0,0,-1.5,31.5,271.5)"><stop
       offset="0"
       style="stop-color:#FEFEFE"
       id="stop652" /><stop
       offset="1"
       style="stop-color:#CACACA"
       id="stop654" /></linearGradient><linearGradient
     id="SVGID_90_"
     gradientUnits="userSpaceOnUse"
     x1="72.755096"
     y1="149.623"
     x2="72.755096"
     y2="84.503403"
     gradientTransform="matrix(1.5,0,0,-1.5,31.5,271.5)"><stop
       offset="0"
       style="stop-color:#FEFEFE"
       id="stop659" /><stop
       offset="1"
       style="stop-color:#CACACA"
       id="stop661" /></linearGradient><linearGradient
     id="SVGID_93_"
     gradientUnits="userSpaceOnUse"
     x1="71.731796"
     y1="149.623"
     x2="71.731796"
     y2="84.503403"
     gradientTransform="matrix(1.5,0,0,-1.5,31.5,271.5)"><stop
       offset="0"
       style="stop-color:#FEFEFE"
       id="stop680" /><stop
       offset="1"
       style="stop-color:#CACACA"
       id="stop682" /></linearGradient><linearGradient
     id="SVGID_94_"
     gradientUnits="userSpaceOnUse"
     x1="73.944702"
     y1="149.623"
     x2="73.944702"
     y2="84.503403"
     gradientTransform="matrix(1.5,0,0,-1.5,31.5,271.5)"><stop
       offset="0"
       style="stop-color:#FEFEFE"
       id="stop687" /><stop
       offset="1"
       style="stop-color:#CACACA"
       id="stop689" /></linearGradient><linearGradient
     id="SVGID_97_"
     gradientUnits="userSpaceOnUse"
     x1="72.295097"
     y1="149.623"
     x2="72.295097"
     y2="84.503403"
     gradientTransform="matrix(1.5,0,0,-1.5,31.5,271.5)"><stop
       offset="0"
       style="stop-color:#FEFEFE"
       id="stop708" /><stop
       offset="1"
       style="stop-color:#CACACA"
       id="stop710" /></linearGradient><linearGradient
     id="SVGID_98_"
     gradientUnits="userSpaceOnUse"
     x1="73.944801"
     y1="149.623"
     x2="73.944801"
     y2="84.503403"
     gradientTransform="matrix(1.5,0,0,-1.5,31.5,271.5)"><stop
       offset="0"
       style="stop-color:#FEFEFE"
       id="stop715" /><stop
       offset="1"
       style="stop-color:#CACACA"
       id="stop717" /></linearGradient><linearGradient
     id="SVGID_101_"
     gradientUnits="userSpaceOnUse"
     x1="71.732399"
     y1="149.623"
     x2="71.732399"
     y2="84.503403"
     gradientTransform="matrix(1.5,0,0,-1.5,31.5,271.5)"><stop
       offset="0"
       style="stop-color:#FEFEFE"
       id="stop736" /><stop
       offset="1"
       style="stop-color:#CACACA"
       id="stop738" /></linearGradient><linearGradient
     id="SVGID_102_"
     gradientUnits="userSpaceOnUse"
     x1="72.756798"
     y1="149.623"
     x2="72.756798"
     y2="84.503403"
     gradientTransform="matrix(1.5,0,0,-1.5,31.5,271.5)"><stop
       offset="0"
       style="stop-color:#FEFEFE"
       id="stop743" /><stop
       offset="1"
       style="stop-color:#CACACA"
       id="stop745" /></linearGradient><linearGradient
     id="SVGID_106_"
     gradientUnits="userSpaceOnUse"
     x1="70.424698"
     y1="149.623"
     x2="70.424698"
     y2="84.503403"
     gradientTransform="matrix(1.5,0,0,-1.5,31.5,271.5)"><stop
       offset="0"
       style="stop-color:#FEFEFE"
       id="stop771" /><stop
       offset="1"
       style="stop-color:#CACACA"
       id="stop773" /></linearGradient><linearGradient
     id="SVGID_110_"
     gradientUnits="userSpaceOnUse"
     x1="67.038101"
     y1="149.623"
     x2="67.038101"
     y2="84.503403"
     gradientTransform="matrix(1.5,0,0,-1.5,31.5,271.5)"><stop
       offset="0"
       style="stop-color:#FEFEFE"
       id="stop799" /><stop
       offset="1"
       style="stop-color:#CACACA"
       id="stop801" /></linearGradient><linearGradient
     id="SVGID_113_"
     gradientUnits="userSpaceOnUse"
     x1="63.7141"
     y1="149.623"
     x2="63.7141"
     y2="84.503403"
     gradientTransform="matrix(1.5,0,0,-1.5,31.5,271.5)"><stop
       offset="0"
       style="stop-color:#FEFEFE"
       id="stop820" /><stop
       offset="1"
       style="stop-color:#CACACA"
       id="stop822" /></linearGradient><linearGradient
     id="SVGID_114_"
     gradientUnits="userSpaceOnUse"
     x1="62.728401"
     y1="149.623"
     x2="62.728401"
     y2="84.503403"
     gradientTransform="matrix(1.5,0,0,-1.5,31.5,271.5)"><stop
       offset="0"
       style="stop-color:#FEFEFE"
       id="stop827" /><stop
       offset="1"
       style="stop-color:#CACACA"
       id="stop829" /></linearGradient><linearGradient
     id="SVGID_117_"
     gradientUnits="userSpaceOnUse"
     x1="59.275398"
     y1="149.623"
     x2="59.275398"
     y2="84.503403"
     gradientTransform="matrix(1.5,0,0,-1.5,31.5,271.5)"><stop
       offset="0"
       style="stop-color:#FEFEFE"
       id="stop848" /><stop
       offset="1"
       style="stop-color:#CACACA"
       id="stop850" /></linearGradient><linearGradient
     id="SVGID_118_"
     gradientUnits="userSpaceOnUse"
     x1="57.660999"
     y1="149.623"
     x2="57.660999"
     y2="84.503403"
     gradientTransform="matrix(1.5,0,0,-1.5,31.5,271.5)"><stop
       offset="0"
       style="stop-color:#FEFEFE"
       id="stop855" /><stop
       offset="1"
       style="stop-color:#CACACA"
       id="stop857" /></linearGradient><linearGradient
     id="SVGID_121_"
     gradientUnits="userSpaceOnUse"
     x1="54.210701"
     y1="149.623"
     x2="54.210701"
     y2="84.503403"
     gradientTransform="matrix(1.5,0,0,-1.5,31.5,271.5)"><stop
       offset="0"
       style="stop-color:#FEFEFE"
       id="stop876" /><stop
       offset="1"
       style="stop-color:#CACACA"
       id="stop878" /></linearGradient><linearGradient
     id="SVGID_122_"
     gradientUnits="userSpaceOnUse"
     x1="52.029701"
     y1="149.623"
     x2="52.029701"
     y2="84.503403"
     gradientTransform="matrix(1.5,0,0,-1.5,31.5,271.5)"><stop
       offset="0"
       style="stop-color:#FEFEFE"
       id="stop883" /><stop
       offset="1"
       style="stop-color:#CACACA"
       id="stop885" /></linearGradient><linearGradient
     id="SVGID_125_"
     gradientUnits="userSpaceOnUse"
     x1="48.715401"
     y1="149.623"
     x2="48.715401"
     y2="84.503403"
     gradientTransform="matrix(1.5,0,0,-1.5,31.5,271.5)"><stop
       offset="0"
       style="stop-color:#FEFEFE"
       id="stop904" /><stop
       offset="1"
       style="stop-color:#CACACA"
       id="stop906" /></linearGradient><linearGradient
     id="SVGID_126_"
     gradientUnits="userSpaceOnUse"
     x1="46.050999"
     y1="149.623"
     x2="46.050999"
     y2="84.503403"
     gradientTransform="matrix(1.5,0,0,-1.5,31.5,271.5)"><stop
       offset="0"
       style="stop-color:#FEFEFE"
       id="stop911-6" /><stop
       offset="1"
       style="stop-color:#CACACA"
       id="stop913-2" /></linearGradient><linearGradient
     y2="170.26433"
     x2="743.37549"
     y1="889.42926"
     x1="257.82782"
     gradientUnits="userSpaceOnUse"
     id="linearGradient6508"
     xlink:href="#linearGradient991"
     inkscape:collect="always" /><linearGradient
     id="linearGradient4562"
     inkscape:collect="always"><stop
       id="stop4558"
       offset="0"
       style="stop-color:#ffffff;stop-opacity:1;" /><stop
       id="stop4560"
       offset="1"
       style="stop-color:#eae9e9;stop-opacity:1" /></linearGradient><linearGradient
     id="linearGradient4552"
     inkscape:collect="always"><stop
       id="stop4548"
       offset="0"
       style="stop-color:#121419;stop-opacity:1" /><stop
       id="stop4550"
       offset="1"
       style="stop-color:#1c2225;stop-opacity:1" /></linearGradient><linearGradient
     gradientTransform="translate(31.394448,-1.7627119)"
     gradientUnits="userSpaceOnUse"
     y2="106.81076"
     x2="178.91"
     y1="86.676208"
     x1="179.00589"
     id="linearGradient4564"
     xlink:href="#linearGradient4562"
     inkscape:collect="always" /><linearGradient
     gradientTransform="matrix(0.25826864,0,0,0.25826864,52.55355,44.679944)"
     y2="7.4112773"
     x2="68.618904"
     y1="123.61649"
     x1="68.618904"
     gradientUnits="userSpaceOnUse"
     id="linearGradient4159"
     xlink:href="#linearGradient4552"
     inkscape:collect="always" /><linearGradient
     id="a"><stop
       stop-color="#111"
       offset="0"
       id="stop1448" /><stop
       stop-color="#626262"
       offset="1"
       id="stop1450" /></linearGradient><linearGradient
     id="linearGradient825"
     x1="-741.83"
     x2="-741.83"
     y1="959.05"
     y2="93.836"
     gradientTransform="matrix(0.06680372,0,0,0.06680372,80.249413,-2.3477569)"
     gradientUnits="userSpaceOnUse"><stop
       stop-color="#ccd4da"
       offset="0"
       id="stop1453" /><stop
       stop-color="#fff"
       offset="1"
       id="stop1455" /></linearGradient><linearGradient
     id="linearGradient835"
     x1="-738.76"
     x2="-738.76"
     y1="931.43"
     y2="152.13"
     gradientTransform="matrix(0.06680372,0,0,0.06680372,80.249413,-2.3477569)"
     gradientUnits="userSpaceOnUse"><stop
       stop-color="#dfe3e8"
       offset="0"
       id="stop1458" /><stop
       stop-color="#fefeff"
       offset="1"
       id="stop1460" /></linearGradient><linearGradient
     id="e-3"
     x1="32"
     x2="32"
     y1="-3.5763"
     y2="57"
     gradientTransform="translate(-93.831,13.017)"
     gradientUnits="userSpaceOnUse"
     xlink:href="#a" /><linearGradient
     id="b-5"
     x1="124.73"
     x2="124.87"
     y1="193.81"
     y2="232.94"
     gradientTransform="matrix(1.3333,0,0,1.3333,-228.33,-240.93)"
     gradientUnits="userSpaceOnUse"
     xlink:href="#a" /></defs><sodipodi:namedview
   pagecolor="#ffffff"
   bordercolor="#666666"
   borderopacity="1"
   objecttolerance="10"
   gridtolerance="10"
   guidetolerance="10"
   inkscape:pageopacity="0"
   inkscape:pageshadow="2"
   inkscape:window-width="1920"
   inkscape:window-height="935"
   id="namedview19"
   showgrid="false"
   inkscape:zoom="4.2813106"
   inkscape:cx="66.141917"
   inkscape:cy="25.310883"
   inkscape:window-x="0"
   inkscape:window-y="38"
   inkscape:window-maximized="1"
   inkscape:current-layer="Layer_1" />
 <circle
   cx="32"
   cy="32"
   r="30.00009"
   fill="url(#linearGradient825)"
   id="circle1467"
   style="fill:url(#linearGradient825);stroke-width:0.48876;image-rendering:optimizeSpeed" /><circle
   cx="32"
   cy="32"
   r="26.925789"
   fill="url(#linearGradient835)"
   id="circle1469"
   style="fill:url(#linearGradient835);stroke-width:0.48876;image-rendering:optimizeSpeed" />
 
 
 
 
 
 
 
<g
   transform="matrix(1.3825639,0,0,1.3825639,-62.039321,-50.995492)"
   id="g1809"><g
     transform="matrix(0.29261459,0,0,0.29261459,49.11099,41.252791)"
     id="g1771"
     style="fill:#000000"><circle
       style="fill:#000000;fill-opacity:1;stroke:none;stroke-width:5.61156"
       id="circle1753"
       cy="64.170898"
       cx="64.614258"
       r="57.029297" /><g
       id="g1763"
       transform="translate(-143.0513,-4.9857021)"
       style="fill:#000000"><g
         transform="translate(-24.40678,-3.7966102)"
         id="g1759"
         style="fill:#000000"><path
           style="fill:#000000;fill-opacity:1;stroke:none;stroke-width:1px;stroke-linecap:butt;stroke-linejoin:miter;stroke-opacity:1"
           d="m 224.94915,94.779661 -3.38983,-42.033898 18.98305,40.40678 z"
           id="path1755"
           inkscape:connector-curvature="0" /><path
           inkscape:connector-curvature="0"
           id="path1757"
           d="m 221.55932,52.745763 18.98305,40.40678 -8.42442,1.186808 z"
           style="fill:#000000;fill-opacity:1;stroke:none;stroke-width:1px;stroke-linecap:butt;stroke-linejoin:miter;stroke-opacity:1"
           sodipodi:nodetypes="cccc" /></g><circle
         r="11.121951"
         cy="95.07666"
         cx="209.44156"
         id="circle1761"
         style="opacity:1;fill:#000000;fill-opacity:1;stroke:none;stroke-width:8.94745;stroke-linecap:round;stroke-linejoin:round;stroke-miterlimit:4;stroke-dasharray:none;stroke-dashoffset:0;stroke-opacity:1;paint-order:fill markers stroke" /></g><path
       style="opacity:1;fill:#000000;fill-opacity:0.814394;stroke:none;stroke-width:7.55906;stroke-linecap:round;stroke-linejoin:round;stroke-miterlimit:4;stroke-dasharray:none;stroke-dashoffset:0;stroke-opacity:1;paint-order:fill markers stroke"
       d="m 72.975501,12.680548 -11.69726,2.494141 c 0,0 -0.15287,10.168052 -0.17774,12.048828 a 3.4995794,2.9003363 0 0 0 -1.54883,-0.304688 3.4995794,2.9003363 0 0 0 -3.5,2.900391 3.4995794,2.9003363 0 0 0 3.5,2.900391 3.4995794,2.9003363 0 0 0 3.49805,-2.878906 l 0.002,0.002 v -0.02344 l 0.09571,-9.564453 7.38281,-1.677734 0.11523,6.642578 a 3.4995794,2.9003363 0 0 0 -1.16992,-0.169922 3.4995794,2.9003363 0 0 0 -3.5,2.90039 3.4995794,2.9003363 0 0 0 3.5,2.900391 3.4995794,2.9003363 0 0 0 3.49805,-2.876953 h 0.0019 z m 21.95508,16.146485 c -5.44401,-2e-6 -9.88478,4.440746 -9.88476,9.884765 0,5.44402 4.44075,9.884768 9.88476,9.884766 5.444019,2e-6 9.886719,-4.440746 9.886719,-9.884766 0,-5.444019 -4.4427,-9.884767 -9.886719,-9.884765 z m -61.96094,0.205078 c -0.92432,0 -1.80697,0.123222 -2.64648,0.36914 -0.83952,0.23744 -1.62424,0.576622 -2.35352,1.017578 -0.72928,0.432478 -1.38882,0.953896 -1.98242,1.564454 -0.5851,0.602076 -1.08643,1.26877 -1.50195,1.998046 -0.41551,0.729277 -0.73784,1.50557 -0.9668,2.328126 -0.22896,0.822555 -0.34375,1.669533 -0.34375,2.542968 0,1.568792 0.26007,2.981295 0.77734,4.236328 0.52576,1.255034 1.24951,2.317971 2.17383,3.191407 0.92432,0.881915 2.02293,1.55704 3.29493,2.023437 1.27199,0.474878 2.65401,0.712891 4.14648,0.712891 1.46703,0 2.77317,-0.178998 3.91797,-0.535157 1.14479,-0.356158 2.13185,-0.810131 2.96289,-1.361328 l -0.43164,-1.15625 c -0.07632,-0.195038 -0.20278,-0.318259 -0.38086,-0.36914 -0.16959,-0.05935 -0.36546,-0.02564 -0.58594,0.101562 -0.27985,0.16112 -0.6054,0.312873 -0.97851,0.457032 -0.36464,0.152638 -0.77646,0.284291 -1.23438,0.394531 -0.44943,0.118727 -0.95076,0.213418 -1.50195,0.28125 -0.54272,0.07632 -1.13158,0.113281 -1.76758,0.113281 -1.13632,0 -2.19602,-0.173806 -3.17969,-0.521484 -0.98368,-0.339199 -1.83584,-0.843756 -2.55664,-1.513672 -0.7208,-0.678396 -1.28957,-1.522135 -1.70508,-2.53125 -0.40704,-1.009115 -0.60937,-2.183605 -0.60937,-3.523438 0,-1.085435 0.18548,-2.097787 0.55859,-3.039062 0.3816,-0.949755 0.90303,-1.773394 1.56445,-2.46875 0.66144,-0.703837 1.44616,-1.253786 2.35352,-1.652344 0.91583,-0.398558 1.90808,-0.599609 2.97656,-0.599609 0.98368,0 1.8832,0.136844 2.69727,0.408203 0.81408,0.271358 1.51254,0.677985 2.09765,1.220703 0.58513,0.534237 1.0391,1.20417 1.36133,2.009765 0.33073,0.797116 0.4961,1.721923 0.4961,2.773438 0,0.627517 -0.06421,1.202758 -0.19141,1.728516 -0.12721,0.525756 -0.30101,0.979729 -0.52148,1.361328 -0.22049,0.381597 -0.4786,0.683818 -0.77539,0.904297 -0.29681,0.211999 -0.61069,0.318359 -0.94141,0.318359 -0.22047,0 -0.41958,-0.03568 -0.59766,-0.103516 -0.1696,-0.07632 -0.30125,-0.20278 -0.39453,-0.380859 -0.09328,-0.18656 -0.13867,-0.436242 -0.13867,-0.75 0,-0.322239 0.06225,-0.734058 0.18945,-1.234375 l 1.1836,-4.591797 c -0.43249,-0.186559 -0.87803,-0.326643 -1.33594,-0.419922 -0.44943,-0.101759 -1.00457,-0.152343 -1.66602,-0.152343 -0.73775,-10e-7 -1.41288,0.08431 -2.02343,0.253906 -0.60208,0.169599 -1.1436,0.399182 -1.62696,0.6875 -0.47488,0.288318 -0.89512,0.630738 -1.25976,1.029297 -0.35616,0.390077 -0.65319,0.810327 -0.89063,1.259765 -0.23743,0.440958 -0.41447,0.903362 -0.5332,1.386719 -0.11872,0.474877 -0.17969,0.945711 -0.17969,1.412109 0,0.508797 0.06421,0.982871 0.19141,1.423828 0.1272,0.432479 0.31786,0.810576 0.57226,1.132813 0.26288,0.31376 0.5904,0.563442 0.98047,0.75 0.39008,0.178079 0.84404,0.267578 1.36133,0.267578 0.61903,0 1.19947,-0.123222 1.74219,-0.369141 0.54272,-0.245919 1.0557,-0.657739 1.53906,-1.234374 0.18656,0.576635 0.49526,0.993647 0.92774,1.248046 0.43248,0.245919 0.9286,0.369141 1.48828,0.369141 0.74623,0 1.43822,-0.162136 2.07422,-0.484375 0.63599,-0.330718 1.1827,-0.779499 1.64062,-1.347656 0.4664,-0.568158 0.83087,-1.234851 1.09375,-1.998047 0.26288,-0.763196 0.39453,-1.584881 0.39453,-2.466797 0,-0.873435 -0.1148,-1.688643 -0.34375,-2.443359 -0.22048,-0.763197 -0.53437,-1.458422 -0.94141,-2.085938 -0.39855,-0.627517 -0.87781,-1.182658 -1.4375,-1.666015 -0.55966,-0.491837 -1.17058,-0.906896 -1.83203,-1.246094 -0.66144,-0.3392 -1.3651,-0.594074 -2.11132,-0.763672 -0.74624,-0.178079 -1.50892,-0.267578 -2.28907,-0.267578 z m 61.96094,2.394531 c 4.03888,-1e-6 7.285159,3.246282 7.285159,7.285156 0,4.038875 -3.246279,7.285158 -7.285159,7.285157 -4.03887,0 -7.28516,-3.246282 -7.28516,-7.285157 0,-4.038874 3.24629,-7.285157 7.28516,-7.285156 z m -1.23828,1.71875 v 6.902344 h 5.31445 v -2 h -3.31445 v -4.902344 z m -59.79492,3.048828 c 0.1272,0 0.25041,0.0084 0.36914,0.02539 0.1272,0.0085 0.25043,0.02211 0.36914,0.03906 l -0.87695,3.433594 c -0.10177,0.398558 -0.23018,0.72931 -0.38282,0.992188 -0.15264,0.254399 -0.32125,0.461927 -0.50781,0.623046 -0.18656,0.152648 -0.38242,0.262247 -0.58594,0.330078 -0.20352,0.05936 -0.40586,0.08984 -0.60937,0.08984 -0.40704,0 -0.72093,-0.140083 -0.94141,-0.419922 -0.21201,-0.279839 -0.31836,-0.674796 -0.31836,-1.183593 0,-0.517277 0.0895,-1.013403 0.26758,-1.488282 0.18657,-0.474877 0.43624,-0.889936 0.75,-1.246093 0.31375,-0.364639 0.68343,-0.653236 1.10742,-0.865235 0.42401,-0.220479 0.87603,-0.330078 1.35938,-0.330078 z m -14.89453,20.052735 c -1.02374,8.51e-4 -2.19441,1.092425 -1.58985,2.408203 l 3.52149,6.589843 h -4.98243 c -0.37605,-0.01127 -0.88671,-0.834646 -0.88671,-1.117187 0,-0.571005 -0.46025,-1.03125 -1.03125,-1.03125 h -1.10352 c -0.571,0 -1.0293,0.460245 -1.0293,1.03125 v 8.197265 c 0,0.571006 0.4583,1.03125 1.0293,1.03125 h 1.10352 c 0.571,0 1.03125,-0.460244 1.03125,-1.03125 0.003,-0.365905 0.64496,-1.118372 0.88671,-1.117187 h 4.98243 l -3.52149,6.589844 c -0.80608,1.75437 1.54339,3.110581 2.49414,2.013672 l 7.07813,-8.603516 h 4.68555 c 1.63334,0 2.94921,-1.315874 2.94921,-2.949219 v -0.06445 c 0,-1.633344 -1.31587,-2.949219 -2.94921,-2.949219 h -4.68555 l -7.07813,-8.603515 c -0.23768,-0.274228 -0.56305,-0.394817 -0.90429,-0.394531 z m 85.867179,2.21875 c -3.46855,-6.53e-4 -6.280819,2.810749 -6.281249,6.279296 0.003,0.202303 0.01501,0.404362 0.03711,0.605469 -2.14737,0.369278 -3.77539,2.220693 -3.77539,4.476563 0,2.523053 2.03164,4.554687 4.55469,4.554687 H 111.6298 c 3.08078,0 5.56055,-2.479766 5.56055,-5.560547 0,-3.080779 -2.47977,-5.560547 -5.56055,-5.560547 h -0.66602 c -0.68421,-2.811198 -3.20049,-4.791151 -6.09375,-4.794921 z"
       id="path1765"
       inkscape:connector-curvature="0" /><g
       aria-label="@"
       style="font-style:normal;font-variant:normal;font-weight:bold;font-stretch:normal;font-size:40px;line-height:1.25;font-family:Carlito;-inkscape-font-specification:'Carlito Bold';letter-spacing:0px;word-spacing:0px;fill:#000000;fill-opacity:1;stroke:none"
       id="g1767"
       transform="matrix(1.0741909,0,0,1.0741909,-130.69831,19.317802)" /><g
       id="g1769"
       transform="translate(0.19175822)"
       style="fill:#000000;stroke:#da0000;stroke-opacity:0.799242" /></g><g
     id="g1789"
     transform="translate(-1.2233142,-1.2233164)"><circle
       r="15.464288"
       cx="69.241379"
       cy="61.253448"
       id="circle4157"
       style="fill:url(#linearGradient4159);fill-opacity:1;stroke:none;stroke-width:1.52165" /><g
       transform="matrix(0.27116392,0,0,0.27116392,12.929974,42.500673)"
       id="g4578"><g
         id="g4572"
         transform="translate(-24.40678,-3.7966102)"><path
           inkscape:connector-curvature="0"
           id="path4566"
           d="m 224.94915,94.779661 -3.38983,-42.033898 18.98305,40.40678 z"
           style="fill:#cc1414;fill-opacity:1;stroke:none;stroke-width:1px;stroke-linecap:butt;stroke-linejoin:miter;stroke-opacity:1" /><path
           sodipodi:nodetypes="cccc"
           style="fill:#fc4d4a;fill-opacity:1;stroke:none;stroke-width:1px;stroke-linecap:butt;stroke-linejoin:miter;stroke-opacity:1"
           d="m 221.55932,52.745763 18.98305,40.40678 -8.42442,1.186808 z"
           id="path4568"
           inkscape:connector-curvature="0" /></g><circle
         style="opacity:1;fill:url(#linearGradient4564);fill-opacity:1;stroke:none;stroke-width:8.94745;stroke-linecap:round;stroke-linejoin:round;stroke-miterlimit:4;stroke-dasharray:none;stroke-dashoffset:0;stroke-opacity:1;paint-order:fill markers stroke"
         id="path4556"
         cx="209.44156"
         cy="95.07666"
         r="11.121951" /></g><path
       inkscape:connector-curvature="0"
       id="rect4580"
       d="m 71.508648,47.291123 -3.171875,0.676321 c 0,0 -0.04145,2.757209 -0.0482,3.267208 a 0.94895967,0.78646656 0 0 0 -0.419986,-0.08262 0.94895967,0.78646656 0 0 0 -0.949074,0.786482 0.94895967,0.78646656 0 0 0 0.949074,0.786481 0.94895967,0.78646656 0 0 0 0.948545,-0.780655 l 5.42e-4,5.42e-4 v -0.0064 l 0.02595,-2.593535 2.001952,-0.454941 0.03125,1.801228 a 0.94895967,0.78646656 0 0 0 -0.31724,-0.04608 0.94895967,0.78646656 0 0 0 -0.949074,0.786481 0.94895967,0.78646656 0 0 0 0.949074,0.786482 0.94895967,0.78646656 0 0 0 0.948545,-0.780126 h 5.15e-4 z m 5.953425,4.378344 c -1.476219,0 -2.680395,1.20417 -2.68039,2.680392 0,1.476222 1.204171,2.680392 2.68039,2.680392 1.476222,0 2.680922,-1.20417 2.680922,-2.680392 0,-1.476222 -1.2047,-2.680392 -2.680922,-2.680392 z m -16.801571,0.05561 c -0.250642,0 -0.489985,0.03341 -0.71763,0.100097 -0.227647,0.06439 -0.440435,0.15636 -0.63819,0.275931 -0.197754,0.117272 -0.376597,0.258662 -0.53756,0.424223 -0.158658,0.163262 -0.294601,0.344045 -0.407275,0.541798 -0.112671,0.197754 -0.200076,0.408257 -0.262161,0.631304 -0.06209,0.223047 -0.09321,0.452717 -0.09321,0.689561 0,0.4254 0.07052,0.80842 0.210787,1.14874 0.142567,0.34032 0.338822,0.62855 0.589464,0.865394 0.250642,0.239144 0.548546,0.422213 0.893466,0.548683 0.344918,0.12877 0.719672,0.19331 1.124376,0.19331 0.397806,0 0.751984,-0.04854 1.062412,-0.145115 0.310426,-0.09658 0.578081,-0.219678 0.803429,-0.369143 l -0.117045,-0.313533 c -0.0207,-0.05289 -0.05499,-0.0863 -0.103276,-0.100098 -0.04599,-0.01609 -0.0991,-0.007 -0.158886,0.02754 -0.07588,0.04369 -0.164162,0.08484 -0.265336,0.123931 -0.09888,0.04139 -0.210548,0.07709 -0.33472,0.106983 -0.121869,0.03219 -0.257811,0.05787 -0.407274,0.07626 -0.147166,0.0207 -0.306844,0.03072 -0.479304,0.03072 -0.308129,0 -0.595481,-0.04713 -0.862217,-0.141408 -0.266739,-0.09198 -0.497814,-0.228796 -0.693269,-0.410453 -0.195455,-0.183956 -0.349685,-0.412748 -0.462356,-0.686383 -0.110375,-0.273636 -0.165239,-0.592115 -0.165239,-0.95543 0,-0.29433 0.05029,-0.568844 0.151469,-0.824084 0.103476,-0.257539 0.244869,-0.48088 0.424223,-0.669436 0.179358,-0.190855 0.392146,-0.339981 0.638189,-0.448056 0.24834,-0.108074 0.517403,-0.162592 0.807136,-0.162592 0.266739,0 0.510656,0.03711 0.731402,0.11069 0.22075,0.07358 0.410147,0.183845 0.568807,0.331011 0.158667,0.144865 0.281767,0.326527 0.369144,0.544975 0.08968,0.216149 0.134524,0.466924 0.134524,0.752057 0,0.17016 -0.01741,0.326144 -0.0519,0.468711 -0.03449,0.142566 -0.08162,0.265667 -0.141407,0.369143 -0.05979,0.103475 -0.129779,0.185427 -0.210257,0.245213 -0.08048,0.05749 -0.165598,0.08633 -0.255277,0.08633 -0.05978,0 -0.113775,-0.0097 -0.162064,-0.02807 -0.04599,-0.02069 -0.08169,-0.05499 -0.106982,-0.103275 -0.02529,-0.05059 -0.0376,-0.118293 -0.0376,-0.203373 0,-0.08738 0.01688,-0.19905 0.05137,-0.334718 l 0.320949,-1.24513 c -0.117275,-0.05059 -0.23809,-0.08857 -0.362258,-0.113867 -0.12187,-0.02759 -0.272404,-0.04131 -0.451765,-0.04131 -0.200051,0 -0.383122,0.02286 -0.548681,0.06885 -0.163263,0.04599 -0.310103,0.108244 -0.441173,0.186425 -0.12877,0.07818 -0.242724,0.171034 -0.341601,0.279108 -0.09658,0.105775 -0.177122,0.219732 -0.241507,0.341603 -0.06438,0.119572 -0.112389,0.244959 -0.144585,0.376028 -0.03219,0.12877 -0.04872,0.256443 -0.04872,0.382913 0,0.137968 0.01741,0.26652 0.0519,0.386091 0.03449,0.117273 0.08619,0.219799 0.155177,0.307178 0.07128,0.08508 0.160095,0.152785 0.265868,0.203373 0.105775,0.04829 0.228873,0.07256 0.369143,0.07256 0.167859,0 0.325253,-0.03341 0.472419,-0.100098 0.147166,-0.06668 0.286268,-0.178355 0.417338,-0.334718 0.05059,0.156363 0.134296,0.269441 0.251569,0.338425 0.117273,0.06668 0.251803,0.100098 0.403568,0.100098 0.202351,0 0.389994,-0.04397 0.562454,-0.131345 0.172457,-0.08968 0.320705,-0.211372 0.444877,-0.365436 0.126471,-0.154064 0.225302,-0.334847 0.296585,-0.541798 0.07128,-0.206951 0.106983,-0.429763 0.106983,-0.668906 0,-0.236844 -0.03113,-0.457899 -0.09321,-0.662551 -0.05979,-0.206952 -0.144902,-0.395472 -0.255276,-0.565631 -0.108073,-0.17016 -0.238031,-0.320694 -0.389798,-0.451763 -0.15176,-0.133369 -0.31742,-0.245918 -0.496781,-0.337896 -0.179359,-0.09198 -0.370166,-0.161092 -0.572514,-0.20708 -0.202353,-0.04829 -0.409164,-0.07256 -0.620713,-0.07256 z m 16.801571,0.64931 c 1.095199,0 1.975473,0.880275 1.975473,1.975472 0,1.095197 -0.880274,1.975472 -1.975473,1.975472 -1.095195,0 -1.975472,-0.880275 -1.975472,-1.975472 0,-1.095197 0.880277,-1.975472 1.975472,-1.975472 z m -0.335776,0.466063 v 1.871667 h 1.441087 v -0.542328 h -0.89876 V 52.84045 Z m -16.214225,0.826733 c 0.03449,0 0.0679,0.0023 0.100097,0.0069 0.03449,0.0023 0.06791,0.006 0.100098,0.01059 l -0.237798,0.931067 c -0.0276,0.108074 -0.06242,0.197762 -0.103807,0.269045 -0.04139,0.06898 -0.08711,0.125258 -0.137699,0.168948 -0.05059,0.04139 -0.103699,0.07111 -0.158886,0.0895 -0.05519,0.0161 -0.110055,0.02436 -0.165239,0.02436 -0.110375,0 -0.19549,-0.03799 -0.255277,-0.113868 -0.05749,-0.07588 -0.08633,-0.18298 -0.08633,-0.320948 0,-0.140267 0.02427,-0.274798 0.07256,-0.403568 0.05059,-0.12877 0.118292,-0.241319 0.203373,-0.337896 0.08508,-0.09888 0.185321,-0.177134 0.300292,-0.23462 0.114976,-0.05979 0.237548,-0.08951 0.368616,-0.08951 z m -4.038859,5.437578 c -0.277602,2.31e-4 -0.595045,0.296226 -0.43111,0.653018 l 0.954901,1.786927 h -1.351056 c -0.101971,-0.0031 -0.240443,-0.226326 -0.240443,-0.302941 0,-0.154836 -0.124804,-0.279637 -0.279638,-0.279637 h -0.299235 c -0.154835,0 -0.279109,0.124801 -0.279109,0.279637 v 2.222803 c 0,0.154836 0.124274,0.279638 0.279109,0.279638 h 0.299235 c 0.154834,0 0.279638,-0.124802 0.279638,-0.279638 8.13e-4,-0.09922 0.17489,-0.303262 0.240443,-0.302941 h 1.351056 l -0.954901,1.786928 c -0.21858,0.475722 0.418511,0.843477 0.67632,0.546035 l 1.919334,-2.332963 h 1.270552 c 0.442903,0 0.799719,-0.356817 0.799719,-0.799722 v -0.01748 c 0,-0.442904 -0.356816,-0.799722 -0.799719,-0.799722 H 59.037757 L 57.118423,59.21174 c -0.06445,-0.07436 -0.152678,-0.10706 -0.24521,-0.106982 z m 23.28408,0.601645 c -0.940545,-1.77e-4 -1.703131,0.762173 -1.703248,1.702718 8.14e-4,0.05486 0.0041,0.109649 0.01006,0.164182 -0.582289,0.100134 -1.023749,0.602171 -1.023749,1.213882 0,0.684161 0.550907,1.235067 1.235067,1.235067 h 3.314873 c 0.835397,0 1.507821,-0.672423 1.507821,-1.50782 0,-0.835396 -0.672424,-1.50782 -1.507821,-1.50782 h -0.1806 C 81.624165,60.24432 80.941841,59.707428 80.157293,59.706406 Z"
       style="opacity:1;fill:#ffffff;fill-opacity:0.814394;stroke:none;stroke-width:2.04974;stroke-linecap:round;stroke-linejoin:round;stroke-miterlimit:4;stroke-dasharray:none;stroke-dashoffset:0;stroke-opacity:1;paint-order:fill markers stroke" /></g></g><g
   transform="matrix(0.53552314,0,0,0.53552314,-129.36666,13.89451)"
   id="text4607"
   style="font-style:normal;font-variant:normal;font-weight:bold;font-stretch:normal;font-size:40px;line-height:1.25;font-family:Carlito;-inkscape-font-specification:'Carlito Bold';letter-spacing:0px;word-spacing:0px;fill:#ffffff;fill-opacity:1;stroke:none"
   aria-label="@" /><g
   style="stroke:#da0000;stroke-opacity:0.799242"
   transform="matrix(0.49853628,0,0,0.49853628,-64.113217,4.2638847)"
   id="g4618" /></svg>
