<?xml version="1.0" encoding="UTF-8"?>
<svg width="64" height="64" version="1.1" viewBox="0 0 16.933 16.933" xmlns="http://www.w3.org/2000/svg" xmlns:cc="http://creativecommons.org/ns#" xmlns:dc="http://purl.org/dc/elements/1.1/" xmlns:rdf="http://www.w3.org/1999/02/22-rdf-syntax-ns#" xmlns:xlink="http://www.w3.org/1999/xlink">
 <defs>
  <linearGradient id="linearGradient825" x1="-741.83" x2="-741.83" y1="959.05" y2="93.836" gradientTransform="matrix(.017675 0 0 .017675 35.896 15.866)" gradientUnits="userSpaceOnUse">
   <stop stop-color="#ccd4da" offset="0"/>
   <stop stop-color="#fff" offset="1"/>
  </linearGradient>
  <linearGradient id="linearGradient835" x1="-738.76" x2="-738.76" y1="931.43" y2="152.13" gradientTransform="matrix(.017675 0 0 .017675 35.896 15.866)" gradientUnits="userSpaceOnUse">
   <stop stop-color="#dfe3e8" offset="0"/>
   <stop stop-color="#fefeff" offset="1"/>
  </linearGradient>
  <linearGradient id="linearGradient4159" x1="68.619" x2="68.619" y1="123.62" y2="7.4113" gradientTransform="matrix(.094474 0 0 .094474 17.026 18.891)" gradientUnits="userSpaceOnUse">
   <stop stop-color="#121419" offset="0"/>
   <stop stop-color="#1c2225" offset="1"/>
  </linearGradient>
  <linearGradient id="linearGradient4564" x1="179.01" x2="178.91" y1="86.676" y2="106.81" gradientTransform="matrix(.099191 0 0 .099191 5.6456 17.919)" gradientUnits="userSpaceOnUse">
   <stop stop-color="#fff" offset="0"/>
   <stop stop-color="#eae9e9" offset="1"/>
  </linearGradient>
 </defs>
 <metadata>
  <rdf:RDF>
   <cc:Work rdf:about="">
    <dc:format>image/svg+xml</dc:format>
    <dc:type rdf:resource="http://purl.org/dc/dcmitype/StillImage"/>
   </cc:Work>
  </rdf:RDF>
 </metadata>
 <g transform="translate(-14.664 -16.487)">
  <circle cx="23.13" cy="24.954" r="7.9374" fill="url(#linearGradient825)" image-rendering="optimizeSpeed" stroke-width=".12932"/>
  <circle cx="23.13" cy="24.954" r="7.124" fill="url(#linearGradient835)" image-rendering="optimizeSpeed" stroke-width=".12932"/>
  <g>
   <g>
    <circle cx="23.13" cy="24.954" r="6.1043"/>
    <path d="m22.368 27.29-0.36284-4.4992 2.0319 4.325z"/>
    <path d="m22.005 22.791 2.0319 4.325-0.90173 0.12703z"/>
    <circle cx="23.32" cy="27.728" r="1.1905" style="paint-order:fill markers stroke"/>
   </g>
   <path d="m24.025 19.443-1.252 0.26697s-0.01637 1.0884-0.01903 1.2897a0.37459 0.31044 0 0 0-0.16578-0.03261 0.37459 0.31044 0 0 0-0.37463 0.31045 0.37459 0.31044 0 0 0 0.37463 0.31045 0.37459 0.31044 0 0 0 0.37442-0.30815l2.14e-4 2.14e-4v-0.0025l0.01024-1.0238 0.79024-0.17958 0.01234 0.711a0.37459 0.31044 0 0 0-0.12522-0.01819 0.37459 0.31044 0 0 0-0.37463 0.31045 0.37459 0.31044 0 0 0 0.37463 0.31045 0.37459 0.31044 0 0 0 0.37442-0.30794h2.03e-4zm2.35 1.7283c-0.58271-1e-6 -1.058 0.47532-1.058 1.058 0 0.58271 0.47533 1.058 1.058 1.058 0.58271 0 1.0582-0.47533 1.0582-1.058s-0.47554-1.058-1.0582-1.058zm-6.6321 0.02195c-0.09894 0-0.19341 0.01319-0.28327 0.03951-0.08986 0.02542-0.17385 0.06172-0.25191 0.10892-0.07806 0.04629-0.14866 0.1021-0.21219 0.16746-0.06263 0.06444-0.11629 0.13581-0.16076 0.21387-0.04448 0.07806-0.07898 0.16115-0.10348 0.2492-0.02451 0.08804-0.03679 0.1787-0.03679 0.27219 0 0.16792 0.02784 0.31911 0.0832 0.45344 0.05628 0.13434 0.13374 0.24811 0.23268 0.3416 0.09894 0.0944 0.21653 0.16666 0.35268 0.21658 0.13615 0.05083 0.28408 0.07631 0.44383 0.07631 0.15703 0 0.29683-0.01916 0.41937-0.05728s0.22819-0.08671 0.31714-0.14571l-0.0462-0.12376c-0.0082-0.02088-0.02171-0.03407-0.04077-0.03951-0.01815-0.0064-0.03912-0.0027-0.06272 0.01087-0.02995 0.01725-0.0648 0.03349-0.10474 0.04892-0.03903 0.01634-0.08311 0.03043-0.13212 0.04223-0.04811 0.01271-0.10177 0.02284-0.16076 0.0301-0.05809 0.0082-0.12112 0.01213-0.1892 0.01213-0.12163 0-0.23506-0.0186-0.34034-0.05582-0.10529-0.03631-0.1965-0.09031-0.27366-0.16202-0.07715-0.07261-0.13803-0.16292-0.18251-0.27094-0.04357-0.10801-0.06523-0.23373-0.06523-0.37714 0-0.11618 0.01985-0.22454 0.05979-0.32529 0.04085-0.10166 0.09666-0.18982 0.16745-0.26425 0.0708-0.07534 0.15479-0.1342 0.25192-0.17686 0.09803-0.04266 0.20424-0.06418 0.3186-0.06418 0.10529 0 0.20157 0.01465 0.28871 0.04369 0.08714 0.02904 0.1619 0.07257 0.22453 0.13066 0.06263 0.05718 0.11122 0.12889 0.14571 0.21512 0.0354 0.08532 0.0531 0.18431 0.0531 0.29686 0 0.06717-0.0069 0.12874-0.02049 0.18502-0.01362 0.05628-0.03222 0.10487-0.05582 0.14571-0.0236 0.04085-0.05123 0.07319-0.08299 0.09679-0.03177 0.02269-0.06537 0.03408-0.10077 0.03408-0.0236 0-0.04491-0.0038-0.06397-0.01108-0.01815-0.0082-0.03225-0.02171-0.04223-0.04077-0.01-0.01997-0.01484-0.04669-0.01484-0.08028 0-0.03449 0.0067-0.07857 0.02028-0.13212l0.12669-0.49149c-0.04629-0.01997-0.09398-0.03496-0.143-0.04495-0.04811-0.01089-0.10753-0.01631-0.17833-0.01631-0.07897 0-0.15123 9e-3 -0.21658 0.02718-0.06445 0.01815-0.12241 0.04273-0.17414 0.07359-0.05083 0.03086-0.09581 0.06751-0.13484 0.11017-0.03812 0.04175-0.06992 0.08674-0.09533 0.13484-0.02541 0.0472-0.04436 0.09669-0.05707 0.14843-0.01271 0.05083-0.01923 0.10123-0.01923 0.15115 0 0.05446 0.0069 0.1052 0.02049 0.1524 0.01362 0.04629 0.03402 0.08676 0.06125 0.12125 0.02814 0.03358 0.0632 0.06031 0.10495 0.08028 0.04175 0.01906 0.09034 0.02864 0.14571 0.02864 0.06626 0 0.12839-0.01319 0.18648-0.03951 0.05809-0.02632 0.113-0.0704 0.16474-0.13212 0.01997 0.06172 0.05301 0.10636 0.0993 0.13359 0.04629 0.02632 0.09939 0.03951 0.1593 0.03951 0.07988 0 0.15394-0.01735 0.22202-0.05185 0.06808-0.0354 0.12659-0.08344 0.17561-0.14425 0.04992-0.06081 0.08893-0.13218 0.11707-0.21386 0.02814-0.08169 0.04223-0.16964 0.04223-0.26404 0-0.09349-0.01229-0.18075-0.03679-0.26153-0.0236-0.08169-0.0572-0.1561-0.10077-0.22327-0.04266-0.06717-0.09396-0.12659-0.15387-0.17833-0.05991-0.05264-0.1253-0.09707-0.1961-0.13338-0.0708-0.03631-0.14612-0.06359-0.22599-0.08174-0.07988-0.01906-0.16151-0.02864-0.24502-0.02864zm6.6321 0.2563c0.43231 0 0.77978 0.34747 0.77978 0.77978s-0.34747 0.77978-0.77978 0.77978c-0.43231 0-0.77978-0.34747-0.77978-0.77978s0.34747-0.77978 0.77978-0.77978zm-0.13254 0.18397v0.73881h0.56884v-0.21408h-0.35477v-0.52473zm-6.4003 0.32634c0.01362 0 0.0268 9e-4 0.03951 0.0027 0.01361 8.99e-4 0.0268 0.0024 0.03951 0.0042l-0.09387 0.36752c-0.01089 0.04266-0.02464 0.07806-0.04098 0.1062-0.01634 0.02723-0.03439 0.04944-0.05436 0.06669-0.01997 0.01634-0.04093 0.02807-0.06272 0.03533-0.02179 0.0064-0.04344 0.0096-0.06522 0.0096-0.04357 0-0.07717-0.01499-0.10077-0.04495-0.02269-0.02995-0.03408-0.07223-0.03408-0.12669 0-0.05537 0.0096-0.10847 0.02864-0.1593 0.01997-0.05083 0.04669-0.09526 0.08028-0.13338 0.03358-0.03903 0.07315-0.06992 0.11854-0.09261 0.04538-0.0236 0.09377-0.03533 0.1455-0.03533zm-1.5943 2.1464c-0.10958 9.1e-5 -0.23488 0.11693-0.17017 0.25777l0.37693 0.70536h-0.53331c-0.04025-0.0012-0.09491-0.08934-0.09491-0.11958 0-0.06112-0.04926-0.11038-0.11038-0.11038h-0.11812c-0.06112 0-0.11017 0.04926-0.11017 0.11038v0.87741c0 0.06112 0.04906 0.11038 0.11017 0.11038h0.11812c0.06112 0 0.11038-0.04926 0.11038-0.11038 3.17e-4 -0.03917 0.06903-0.11971 0.09491-0.11958h0.53331l-0.37693 0.70536c-0.08628 0.18778 0.1652 0.33295 0.26697 0.21554l0.75762-0.9209h0.50153c0.17483 0 0.31568-0.14085 0.31568-0.31568v-0.0069c0-0.17483-0.14085-0.31568-0.31568-0.31568h-0.50153l-0.75762-0.9209c-0.02544-0.02935-0.06027-0.04226-0.09679-0.04223zm9.191 0.23749c-0.37126-7e-5 -0.67228 0.30086-0.67233 0.67212 3.17e-4 0.02165 0.0016 0.04328 4e-3 0.06481-0.22985 0.03953-0.40411 0.2377-0.40411 0.47916 0 0.27006 0.21746 0.48752 0.48752 0.48752h1.3085c0.32976 0 0.59519-0.26543 0.59519-0.59519 0-0.32976-0.26543-0.59519-0.59519-0.59519h-0.07129c-0.07326-0.3009-0.3426-0.51283-0.65229-0.51324z" fill-opacity=".81439" style="paint-order:fill markers stroke"/>
  </g>
  <g>
   <circle cx="23.13" cy="24.954" r="5.6568" fill="url(#linearGradient4159)"/>
   <path d="m22.423 27.119-0.33624-4.1694 1.8829 4.008z" fill="#cc1414"/>
   <path d="m22.087 22.95 1.8829 4.008-0.83562 0.11772z" fill="#fc4d4a"/>
   <circle cx="23.306" cy="27.525" r="1.1032" fill="url(#linearGradient4564)" style="paint-order:fill markers stroke"/>
  </g>
  <path d="m23.959 19.847-1.1603 0.2474s-0.01516 1.0086-0.01763 1.1951a0.34713 0.28769 0 0 0-0.15363-0.03022 0.34713 0.28769 0 0 0-0.34717 0.28769 0.34713 0.28769 0 0 0 0.34717 0.28769 0.34713 0.28769 0 0 0 0.34698-0.28556l1.98e-4 1.99e-4v-0.0023l0.0095-0.9487 0.73231-0.16642 0.01143 0.65888a0.34713 0.28769 0 0 0-0.11604-0.01686 0.34713 0.28769 0 0 0-0.34717 0.28769 0.34713 0.28769 0 0 0 0.34717 0.28769 0.34713 0.28769 0 0 0 0.34697-0.28537h1.88e-4zm2.1777 1.6016c-0.54 0-0.98048 0.44048-0.98048 0.98048 0 0.54 0.44048 0.98048 0.98048 0.98048 0.54 0 0.98067-0.44048 0.98067-0.98048 0-0.54-0.44068-0.98048-0.98067-0.98048zm-6.146 0.02034c-0.09168 0-0.17924 0.01222-0.26251 0.03662-0.08327 0.02355-0.16111 0.0572-0.23345 0.10093-0.07234 0.0429-0.13776 0.09462-0.19664 0.15518-0.05804 0.05972-0.10776 0.12585-0.14898 0.19819-0.04121 0.07234-0.07319 0.14934-0.0959 0.23093s-0.0341 0.1656-0.0341 0.25224c0 0.15561 0.0258 0.29572 0.0771 0.4202 0.05215 0.12449 0.12394 0.22992 0.21562 0.31656 0.09168 0.08748 0.20066 0.15444 0.32683 0.20071 0.12617 0.0471 0.26325 0.07071 0.41129 0.07071 0.14552 0 0.27507-0.01776 0.38863-0.05308 0.11355-0.03533 0.21146-0.08036 0.29389-0.13503l-0.04281-0.11469c-0.0076-0.01935-0.02012-0.03157-0.03778-0.03662-0.01682-0.0059-0.03625-0.0026-0.05812 0.01008-0.02776 0.01598-0.06005 0.03103-0.09706 0.04533-0.03617 0.01514-0.07702 0.0282-0.12244 0.03913-0.04458 0.01178-0.09431 0.02117-0.14898 0.0279-0.05383 0.0076-0.11224 0.01124-0.17533 0.01124-0.11271 0-0.21782-0.01724-0.3154-0.05173-0.09757-0.03365-0.1821-0.08369-0.2536-0.15014-0.0715-0.06729-0.12791-0.15098-0.16913-0.25108-0.04038-0.1001-0.06044-0.21659-0.06044-0.34949 0-0.10766 0.0184-0.20808 0.05541-0.30145 0.03785-0.09421 0.08957-0.1759 0.15518-0.24488 0.06561-0.06981 0.14344-0.12436 0.23345-0.1639 0.09084-0.03953 0.18926-0.05948 0.29525-0.05948 0.09757 0 0.1868 0.01358 0.26754 0.04049 0.08075 0.02692 0.15003 0.06725 0.20807 0.12108 0.05804 0.05299 0.10307 0.11944 0.13503 0.19935 0.0328 0.07907 0.04921 0.1708 0.04921 0.2751 0 0.06224-0.0064 0.1193-0.01899 0.17145-0.01262 0.05215-0.02986 0.09718-0.05173 0.13503-0.02187 0.03785-0.04747 0.06783-0.07691 0.0897-0.02944 0.02103-0.06058 0.03158-0.09338 0.03158-0.02187 0-0.04162-0.0035-0.05928-0.01027-0.01682-0.0076-0.02988-0.02012-0.03913-0.03778-0.0093-0.0185-0.01375-0.04327-0.01375-0.07439 0-0.03196 0.0062-0.07281 0.01879-0.12244l0.1174-0.45546c-0.0429-0.0185-0.08709-0.0324-0.13251-0.04165-0.04458-0.01009-0.09965-0.01511-0.16525-0.01511-0.07318 0-0.14014 0.0084-0.20071 0.02519-0.05972 0.01682-0.11343 0.03959-0.16138 0.06819-0.0471 0.0286-0.08879 0.06256-0.12496 0.1021-0.03533 0.03869-0.06479 0.08038-0.08834 0.12496-0.02355 0.04374-0.04111 0.0896-0.05289 0.13755-0.01178 0.0471-0.01782 0.0938-0.01782 0.14007 0 0.05047 0.0064 0.09749 0.01898 0.14123 0.01262 0.0429 0.03153 0.0804 0.05676 0.11236 0.02607 0.03112 0.05856 0.05589 0.09725 0.07439 0.03869 0.01766 0.08372 0.02654 0.13503 0.02654 0.0614 0 0.11898-0.01222 0.17281-0.03662 0.05383-0.02439 0.10472-0.06524 0.15266-0.12244 0.0185 0.0572 0.04913 0.09856 0.09202 0.1238 0.0429 0.02439 0.09211 0.03661 0.14762 0.03661 0.07402 0 0.14266-0.01608 0.20574-0.04804 0.06308-0.0328 0.11731-0.07732 0.16273-0.13368 0.04626-0.05636 0.08241-0.12249 0.10849-0.19819 0.02607-0.0757 0.03913-0.15721 0.03913-0.24468 0-0.08664-0.01139-0.1675-0.0341-0.24236-0.02187-0.0757-0.053-0.14466-0.09338-0.20691-0.03953-0.06224-0.08707-0.11731-0.14259-0.16525-0.05551-0.04879-0.11611-0.08996-0.18172-0.1236-0.06561-0.03365-0.1354-0.05893-0.20942-0.07575-0.07402-0.01766-0.14967-0.02654-0.22705-0.02654zm6.146 0.23752c0.40062 0 0.72262 0.322 0.72262 0.72262s-0.322 0.72262-0.72262 0.72262c-0.40062 0-0.72262-0.322-0.72262-0.72262s0.322-0.72262 0.72262-0.72262zm-0.12282 0.17048v0.68465h0.52714v-0.19838h-0.32876v-0.48627zm-5.9311 0.30242c0.01262 0 0.02484 8.47e-4 0.03661 0.0025 0.01262 8.47e-4 0.02484 0.0022 0.03662 0.0039l-0.08699 0.34058c-0.0101 0.03953-0.02283 0.07234-0.03797 0.09842-0.01514 0.02523-0.03186 0.04582-0.05037 0.0618-0.0185 0.01514-0.03793 0.02601-0.05812 0.03274-0.02019 0.0059-0.04026 0.0089-0.06044 0.0089-0.04037 0-0.07151-0.0139-0.09338-0.04165-0.02103-0.02776-0.03158-0.06693-0.03158-0.1174 0-0.05131 0.0089-0.10052 0.02654-0.14762 0.0185-0.0471 0.04327-0.08827 0.07439-0.1236 0.03112-0.03617 0.06779-0.0648 0.10985-0.08582 0.04206-0.02187 0.08689-0.03274 0.13484-0.03274zm-1.4774 1.989c-0.10154 8.4e-5 -0.21766 0.10836-0.1577 0.23887l0.3493 0.65365h-0.49421c-0.0373-0.0011-0.08795-0.08279-0.08795-0.11082 0-0.05664-0.04565-0.10229-0.10229-0.10229h-0.10946c-0.05664 0-0.1021 0.04565-0.1021 0.10229v0.81309c0 0.05664 0.04546 0.10229 0.1021 0.10229h0.10946c0.05664 0 0.10229-0.04565 0.10229-0.10229 2.91e-4 -0.03629 0.06397-0.11093 0.08795-0.11082h0.49421l-0.3493 0.65365c-0.07996 0.17402 0.15309 0.30854 0.2474 0.19974l0.70208-0.85339h0.46476c0.16201 0 0.29253-0.13052 0.29253-0.29254v-0.0064c0-0.16201-0.13052-0.29254-0.29253-0.29254h-0.46476l-0.70208-0.85339c-0.02358-0.0272-0.05585-0.03916-0.0897-0.03913zm8.5172 0.22008c-0.34405-6.5e-5 -0.623 0.2788-0.62304 0.62285 2.91e-4 0.02007 0.0015 0.04011 0.0037 0.06006-0.213 0.03663-0.37448 0.22027-0.37448 0.44403 0 0.25026 0.20152 0.45178 0.45178 0.45178h1.2126c0.30558 0 0.55156-0.24597 0.55156-0.55156 0-0.30558-0.24597-0.55155-0.55156-0.55155h-0.06606c-0.06787-0.27884-0.31746-0.47524-0.60444-0.47561z" fill="#fff" fill-opacity=".81439" style="paint-order:fill markers stroke"/>
 </g>
</svg>
