<?xml version="1.0" encoding="UTF-8" standalone="no"?>
<svg
   xmlns:dc="http://purl.org/dc/elements/1.1/"
   xmlns:cc="http://creativecommons.org/ns#"
   xmlns:rdf="http://www.w3.org/1999/02/22-rdf-syntax-ns#"
   xmlns:svg="http://www.w3.org/2000/svg"
   xmlns="http://www.w3.org/2000/svg"
   xmlns:sodipodi="http://sodipodi.sourceforge.net/DTD/sodipodi-0.dtd"
   xmlns:inkscape="http://www.inkscape.org/namespaces/inkscape"
   width="64"
   height="64"
   version="1"
   id="svg12"
   sodipodi:docname="connectagram.svg"
   inkscape:version="1.0.2 (e86c870879, 2021-01-15)">
  <metadata
     id="metadata18">
    <rdf:RDF>
      <cc:Work
         rdf:about="">
        <dc:format>image/svg+xml</dc:format>
        <dc:type
           rdf:resource="http://purl.org/dc/dcmitype/StillImage" />
        <dc:title></dc:title>
      </cc:Work>
    </rdf:RDF>
  </metadata>
  <defs
     id="defs16">
    <style
       type="text/css"
       id="style845" />
    <style
       type="text/css"
       id="style847" />
    <style
       type="text/css"
       id="style849" />
    <style
       type="text/css"
       id="style851" />
    <style
       type="text/css"
       id="style853" />
    <style
       type="text/css"
       id="style855" />
    <style
       type="text/css"
       id="style857" />
    <style
       type="text/css"
       id="style859" />
    <style
       type="text/css"
       id="style861" />
    <style
       type="text/css"
       id="style863" />
    <style
       type="text/css"
       id="style865" />
    <style
       type="text/css"
       id="style867" />
    <style
       type="text/css"
       id="style869" />
    <style
       type="text/css"
       id="style871" />
    <style
       type="text/css"
       id="style873" />
    <style
       type="text/css"
       id="style875" />
    <style
       type="text/css"
       id="style877" />
    <style
       type="text/css"
       id="style879" />
    <linearGradient
       id="a-3"
       x1="-6.1472"
       x2="-6.1472"
       y1="-137.82"
       y2="-100.78"
       gradientTransform="matrix(2.0044,0,0,2.0044,43.499,271.61)"
       gradientUnits="userSpaceOnUse">
      <stop
         stop-color="#14dc78"
         offset="0"
         id="stop881" />
      <stop
         stop-color="#14a03c"
         offset="1"
         id="stop883" />
    </linearGradient>
    <style
       type="text/css"
       id="style886" />
    <style
       type="text/css"
       id="style888" />
    <style
       type="text/css"
       id="style890" />
    <linearGradient
       id="linearGradient844"
       x1="15"
       x2="35"
       y1="8"
       y2="38"
       gradientTransform="matrix(1.3636,0,0,1.3636,-0.72640073,-0.7263995)"
       gradientUnits="userSpaceOnUse">
      <stop
         stop-color="#18d862"
         offset="0"
         id="stop1157" />
      <stop
         stop-color="#1cd664"
         offset="1"
         id="stop1159" />
    </linearGradient>
  </defs>
  <sodipodi:namedview
     pagecolor="#ffffff"
     bordercolor="#666666"
     borderopacity="1"
     objecttolerance="10"
     gridtolerance="10"
     guidetolerance="10"
     inkscape:pageopacity="0"
     inkscape:pageshadow="2"
     inkscape:window-width="1920"
     inkscape:window-height="935"
     id="namedview14"
     showgrid="false"
     inkscape:zoom="6.0546875"
     inkscape:cx="52.348401"
     inkscape:cy="31.443498"
     inkscape:window-x="0"
     inkscape:window-y="38"
     inkscape:window-maximized="1"
     inkscape:current-layer="svg12" />
  <circle
     cx="32"
     cy="32"
     r="29.999201"
     fill="url(#linearGradient844)"
     id="circle1164"
     style="fill:url(#linearGradient844);stroke-width:1.3636" />
  <path
     style="fill:#ffffff;stroke-width:1.15385"
     d="m 44.692308,44.850225 c -1.412501,0.710137 -2.884944,1.245966 -4.417322,1.60749 C 38.74256,46.819237 37.143532,46.999999 35.477895,47 c -4.970337,-10e-7 -8.907946,-1.342801 -11.812843,-4.028405 -2.904909,-2.69851 -4.35736,-6.352478 -4.357359,-10.961911 -1e-6,-4.622318 1.45245,-8.276284 4.357359,-10.96191 C 26.569949,18.349287 30.507558,17.000032 35.477895,17 c 1.665637,3.2e-5 3.264665,0.180792 4.797091,0.542285 1.532378,0.361553 3.004821,0.897383 4.417322,1.60749 v 6.227546 C 43.26648,24.4348 41.86067,23.744031 40.474865,23.305015 c -1.385847,-0.43897 -2.567743,-0.658466 -4.100128,-0.65849 -2.745019,2.4e-5 -4.903707,0.852187 -6.476076,2.556489 -1.572393,1.704344 -2.358794,3.811206 -2.358781,6.80667 -1.3e-5,2.982582 0.786388,5.082987 2.358781,6.787302 1.572369,1.704331 3.731057,2.556494 6.476076,2.556489 1.532385,5e-6 2.714281,-0.219492 4.100128,-0.65849 1.385805,-0.438987 2.791615,-1.129755 4.217443,-2.072306 v 6.227546"
     id="path8" />
</svg>
