<?xml version="1.0" encoding="UTF-8" standalone="no"?>
<svg
   width="64"
   height="64"
   version="1.1"
   id="svg5"
   sodipodi:docname="coolero.svg"
   inkscape:version="1.4.2 (ebf0e940d0, 2025-05-08)"
   xmlns:inkscape="http://www.inkscape.org/namespaces/inkscape"
   xmlns:sodipodi="http://sodipodi.sourceforge.net/DTD/sodipodi-0.dtd"
   xmlns="http://www.w3.org/2000/svg"
   xmlns:svg="http://www.w3.org/2000/svg">
  <sodipodi:namedview
     id="namedview5"
     pagecolor="#505050"
     bordercolor="#eeeeee"
     borderopacity="1"
     inkscape:showpageshadow="0"
     inkscape:pageopacity="0"
     inkscape:pagecheckerboard="0"
     inkscape:deskcolor="#505050"
     inkscape:zoom="5.9296875"
     inkscape:cx="55.652174"
     inkscape:cy="16.779974"
     inkscape:window-width="1920"
     inkscape:window-height="996"
     inkscape:window-x="0"
     inkscape:window-y="0"
     inkscape:window-maximized="1"
     inkscape:current-layer="svg5" />
  <defs
     id="defs4">
    <linearGradient
       id="a"
       x1="7.937"
       x2="7.937"
       y1="15.081"
       y2="1.852"
       gradientTransform="matrix(3.7796,0,0,3.7796,48,-38.28195)"
       gradientUnits="userSpaceOnUse">
      <stop
         offset="0"
         stop-color="#f1efeb"
         id="stop1" />
      <stop
         offset="1"
         stop-color="#fdfcfc"
         id="stop2" />
    </linearGradient>
    <linearGradient
       id="b"
       x1="32"
       x2="32"
       y1="52"
       y2="12"
       gradientUnits="userSpaceOnUse"
       gradientTransform="matrix(1.425,0,0,1.425,-13.6,-13.6)">
      <stop
         offset="0"
         stop-color="#07f"
         id="stop3" />
      <stop
         offset="1"
         stop-color="#00eaff"
         id="stop4" />
    </linearGradient>
  </defs>
  <path
     fill="url(#b)"
     d="m 33.007475,3.5 c -0.35625,0 -0.7125,0.09262 -1.030275,0.277875 C 31.351625,4.1384 30.981125,4.775375 30.981125,5.495 V 8.6357 C 20.73965,9.070325 12.06425,16.00295 9.41375,25.905275 A 6.117525,6.117525 0 0 0 3.5,32.00285 a 6.10755,6.10755 0 0 0 5.91375,6.094725 23.3985,23.3985 0 0 0 9.118575,13.053 l 1.17705,-1.66725 A 21.2895,21.2895 0 0 1 11.4515,37.82255 6.11325,6.11325 0 0 0 15.71225,32.00285 6.11325,6.11325 0 0 0 11.4515,26.1803 C 13.9424,17.306825 21.7571,11.1038 30.981125,10.669175 v 3.053775 c 0,0.719625 0.3705,1.35945 0.996075,1.719975 0.317775,0.17955 0.66975,0.275025 1.030275,0.275025 0.349125,0 0.708225,-0.09547 1.026,-0.275025 l 5.643,-3.287475 a 2.907,2.907 0 0 0 1.482,-2.546475 c 0,-1.0602 -0.55005,-2.013525 -1.482,-2.543625 l -5.643,-3.287475 A 2.03775,2.03775 0 0 0 33.007475,3.5 m 0,2.03775 5.650125,3.28605 c 0.423225,0.243675 0.4674,0.627 0.4674,0.785175 0,0.158175 -0.04275,0.5415 -0.4674,0.78375 l -5.643,3.2775 z m 12.45735,7.317375 -1.17705,1.6644 A 21.2895,21.2895 0 0 1 52.5485,26.1803 c -2.47095,0.78375 -4.2636,3.0951 -4.2636,5.8197 0,2.7246 1.794075,5.0388 4.275,5.82255 -2.5023,8.873475 -10.317,15.0765 -19.541025,15.511125 V 50.2799 c 0,-0.72105 -0.37335,-1.3566 -0.998925,-1.717125 a 2.03775,2.03775 0 0 0 -2.0577,0 l -5.638725,3.287475 a 2.89275,2.89275 0 0 0 -1.486275,2.543625 c 0,1.0602 0.5529,2.013525 1.486275,2.543625 l 5.638725,3.287475 C 30.280025,60.404525 30.641975,60.5 30.992525,60.5 c 0.360525,0 0.708225,-0.09547 1.026,-0.275025 0.627,-0.360525 1.00035,-0.9975 1.00035,-1.717125 V 55.368575 C 43.26035,54.93395 51.9329,48.001325 54.5834,38.097575 A 6.11895,6.11895 0 0 0 60.5,32 6.11325,6.11325 0 0 0 54.5834,25.905275 23.37,23.37 0 0 0 45.464825,12.855125 M 32,20.806625 c -6.17025,0 -11.196225,5.025975 -11.196225,11.196225 0,6.17025 5.025975,11.1948 11.196225,11.1948 6.17025,0 11.196225,-5.02455 11.196225,-11.1948 C 43.196225,25.8326 38.17025,20.806625 32,20.806625 m 0,2.033475 c 5.04735,0 9.1599,4.116825 9.1599,9.16275 0,5.045925 -4.11255,9.1599 -9.1599,9.1599 -5.04735,0 -9.1599,-4.11255 -9.1599,-9.1599 0,-5.04735 4.11255,-9.16275 9.1599,-9.16275 M 9.606125,27.931625 a 4.071225,4.071225 0 1 1 0.0014,8.1396 4.071225,4.071225 0 0 1 -0.0014,-8.1396 m 22.393875,0 a 4.071225,4.071225 0 1 0 -0.0014,8.1396 4.071225,4.071225 0 0 0 0.0014,-8.1396 m 22.393875,0 a 4.071225,4.071225 0 1 1 0.0014,8.1396 4.071225,4.071225 0 0 1 -0.0014,-8.1396 m -23.41275,22.3497 v 8.1738 L 25.3424,55.17905 A 0.8835,0.8835 0 0 1 24.875,54.3953 c 0,-0.15675 0.04275,-0.5415 0.4674,-0.785175 z"
     id="path5"
     style="fill:url(#b);stroke-width:1.425" />
</svg>
