<?xml version="1.0" encoding="UTF-8" standalone="no"?>
<svg
   width="64"
   height="64"
   version="1.1"
   id="svg6"
   sodipodi:docname="corebird.svg"
   xml:space="preserve"
   inkscape:version="1.3.2 (091e20ef0f, 2023-11-25, custom)"
   xmlns:inkscape="http://www.inkscape.org/namespaces/inkscape"
   xmlns:sodipodi="http://sodipodi.sourceforge.net/DTD/sodipodi-0.dtd"
   xmlns:xlink="http://www.w3.org/1999/xlink"
   xmlns="http://www.w3.org/2000/svg"
   xmlns:svg="http://www.w3.org/2000/svg"><defs
     id="defs6"><linearGradient
       id="linearGradient27"
       inkscape:collect="always"><stop
         style="stop-color:#cc3278;stop-opacity:1"
         offset="0"
         id="stop27" /><stop
         style="stop-color:#eb67a1;stop-opacity:1"
         offset="1"
         id="stop28" /></linearGradient><linearGradient
       id="linearGradient25"
       inkscape:collect="always"><stop
         style="stop-color:#fae950;stop-opacity:1;"
         offset="0"
         id="stop25" /><stop
         style="stop-color:#c0a40f;stop-opacity:1;"
         offset="1"
         id="stop26" /></linearGradient><linearGradient
       id="linearGradient11"
       inkscape:collect="always"><stop
         style="stop-color:#f0f0f0;stop-opacity:1;"
         offset="0"
         id="stop12" /><stop
         style="stop-color:#f0f0f0;stop-opacity:1;"
         offset="0.8299492"
         id="stop14" /><stop
         style="stop-color:#c8c8c8;stop-opacity:1;"
         offset="1"
         id="stop13" /></linearGradient><linearGradient
       id="linearGradient9"
       inkscape:collect="always"><stop
         style="stop-color:#7097c7;stop-opacity:1"
         offset="0"
         id="stop9" /><stop
         style="stop-color:#6a91c3;stop-opacity:1"
         offset="0.7726897"
         id="stop11" /><stop
         style="stop-color:#4e77af;stop-opacity:1"
         offset="1"
         id="stop10" /></linearGradient><radialGradient
       inkscape:collect="always"
       xlink:href="#linearGradient9"
       id="radialGradient10"
       cx="-25.770281"
       cy="17.75444"
       fx="-25.770281"
       fy="17.75444"
       r="26"
       gradientTransform="matrix(0,1.5644016,-1.1065493,0,51.875882,58.505861)"
       gradientUnits="userSpaceOnUse" /><radialGradient
       inkscape:collect="always"
       xlink:href="#linearGradient11"
       id="radialGradient14"
       gradientUnits="userSpaceOnUse"
       gradientTransform="matrix(8.2307863e-8,2.017495,-1.9030642,0,75.638224,-25.554317)"
       cx="25.32497"
       cy="26.759474"
       fx="25.32497"
       fy="26.759474"
       r="9.5918455" /><radialGradient
       inkscape:collect="always"
       xlink:href="#linearGradient11"
       id="radialGradient15"
       gradientUnits="userSpaceOnUse"
       gradientTransform="matrix(8.2307863e-8,2.017495,-1.9030642,0,10.178682,-25.554317)"
       cx="25.32497"
       cy="26.759474"
       fx="25.32497"
       fy="26.759474"
       r="9.5918455" /><radialGradient
       inkscape:collect="always"
       xlink:href="#linearGradient25"
       id="radialGradient26"
       cx="5.4701824"
       cy="48.371094"
       fx="5.4701824"
       fy="48.371094"
       r="7.5968318"
       gradientTransform="matrix(0,1.8825633,-1.022443,0,24.186914,32.632681)"
       gradientUnits="userSpaceOnUse" /><linearGradient
       inkscape:collect="always"
       xlink:href="#linearGradient27"
       id="linearGradient28"
       x1="76.64341"
       y1="3.922354"
       x2="76.64341"
       y2="14.604084"
       gradientUnits="userSpaceOnUse"
       gradientTransform="translate(-45.880856)" /></defs><sodipodi:namedview
     id="namedview6"
     pagecolor="#ffffff"
     bordercolor="#000000"
     borderopacity="0.25"
     inkscape:showpageshadow="2"
     inkscape:pageopacity="0.0"
     inkscape:pagecheckerboard="0"
     inkscape:deskcolor="#d1d1d1"
     inkscape:zoom="2"
     inkscape:cx="-44.5"
     inkscape:cy="45.5"
     inkscape:window-width="1920"
     inkscape:window-height="995"
     inkscape:window-x="0"
     inkscape:window-y="0"
     inkscape:window-maximized="1"
     inkscape:current-layer="svg6" /><g
     id="g35"
     transform="matrix(1.0192406,0,0,1.0192406,58.500256,0.00217826)"><g
       id="g34"><g
         id="g22"
         transform="translate(-58)"><path
           id="path7"
           style="fill:url(#radialGradient10);stroke:none;stroke-width:1.1496;stroke-linecap:round"
           d="M 32,8.2988281 C 17.640595,8.2988281 5.999978,18.910223 6,32 c -1.24e-4,5.692838 2.247548,11.195546 6.332031,15.501953 h 0.002 c 10e-6,1e-5 0.0058,0.0077 0.0059,0.0078 0.01365,0.01304 0.02732,0.02606 0.04102,0.03906 0.265056,0.269545 11.177445,11.316406 19.619141,11.316406 9.030584,0 17.135632,-8.445677 19.660156,-11.355465 C 55.793969,43.31929 57.759823,37.800033 58,32 58.000022,18.910223 46.359405,8.2988281 32,8.2988281 Z"
           sodipodi:nodetypes="scccccsacs" /><ellipse
           style="fill:url(#radialGradient14);stroke:none;stroke-width:1.50095;stroke-linecap:round"
           id="ellipse14"
           cx="24.359676"
           cy="33.582024"
           rx="9.5918455"
           ry="11.30816" /><ellipse
           style="fill:url(#radialGradient15);stroke:none;stroke-width:1.50095;stroke-linecap:round"
           id="ellipse15"
           cx="-41.099865"
           cy="33.582024"
           rx="9.5918455"
           ry="11.30816"
           transform="scale(-1,1)" /><circle
           style="fill:#0d2742;fill-opacity:1;stroke:none;stroke-width:1.15714;stroke-linecap:round"
           id="path21"
           cx="27.9375"
           cy="34.250484"
           r="3.5797281" /><ellipse
           style="fill:#ffffff;fill-opacity:1;stroke:none;stroke-linecap:round"
           id="path22"
           cx="27.125"
           cy="33.265865"
           rx="0.8125"
           ry="0.79711723" /><circle
           style="fill:#0d2742;fill-opacity:1;stroke:none;stroke-width:1.15714;stroke-linecap:round"
           id="circle22"
           cx="37.53125"
           cy="34.250484"
           r="3.5797281" /><ellipse
           style="fill:#ffffff;fill-opacity:1;stroke:none;stroke-linecap:round"
           id="ellipse22"
           cx="36.71875"
           cy="33.265865"
           rx="0.8125"
           ry="0.79711723" /></g><path
         id="path23"
         style="opacity:1;fill:url(#radialGradient26);stroke:none;stroke-width:1.02244;stroke-linecap:round"
         d="m -25.266802,39.112018 c 0,0 -8.723575,4.382312 -7.684297,6.867541 1.039277,2.485228 5.694771,10.720305 7.6823,11.252863 1.987531,-0.532558 6.641027,-8.767635 7.680304,-11.252863 1.039277,-2.485229 -7.678307,-6.867541 -7.678307,-6.867541 z" /></g><g
       id="g33"
       transform="matrix(0.96571565,0,0,1,-56.892187,0)"><path
         style="opacity:1;fill:#eb67a1;fill-opacity:1;stroke:url(#linearGradient28);stroke-linecap:round;stroke-opacity:1"
         d="M 52.298234,16.440233 C 24.98623,24.130019 12.16992,15.556349 12.16992,15.556349 c 0,0 -0.494007,-3.212599 1.599743,-4.993849 0,0 0.875,-6.9375 8.125,-2.53125 0,0 2.125,-3.5 7.3125,-1.8125 0,0 5.78125,-4.375 9.28125,0.53125 0,0 1.96875,-0.75 3.375,0.78125 0,0 6.25,-3.0625 6.937501,3.5 0,0 4.77588,1.974216 3.49732,5.408983 z"
         id="path27" /><path
         style="opacity:1;fill:none;fill-opacity:1;stroke:#d4498a;stroke-linecap:round;stroke-opacity:0.94902"
         d="m 16.8125,12.4375 c 0,0 4.710063,-2.8031701 7.494296,3.163043 0,0 2.342291,-1.237437 4.551999,1.237437"
         id="path28" /><path
         style="opacity:1;fill:none;fill-opacity:1;stroke:#d4498a;stroke-linecap:round;stroke-opacity:0.94902"
         d="m 25.102291,10.120466 c 0,0 -3.54057,-0.5474012 -5.394207,1.670843"
         id="path29" /><path
         style="opacity:1;fill:none;fill-opacity:1;stroke:#d4498a;stroke-linecap:round;stroke-opacity:0.94902"
         d="m 31.687223,11.534679 c 0,0 3.919594,-5.8621874 8.162234,1.827599"
         id="path30"
         sodipodi:nodetypes="cc" /><path
         style="opacity:1;fill:none;fill-opacity:1;stroke:#d4498a;stroke-linecap:round;stroke-opacity:0.94902"
         d="m 36.327611,16.484427 c 0,0 3.71231,-6.363961 7.999145,-1.414214"
         id="path31" /><path
         style="opacity:1;fill:none;fill-opacity:1;stroke:#d4498a;stroke-linecap:round;stroke-opacity:0.94902"
         d="m 43.072512,13.914953 c 0,0 1.066901,-3.785923 -1.209099,-6.383703"
         id="path32"
         sodipodi:nodetypes="cc" /><path
         style="opacity:1;fill:none;fill-opacity:1;stroke:#d4498a;stroke-linecap:round;stroke-opacity:0.94902"
         d="m 47.936814,14.414953 c 0,0 1.099316,-1.389279 0.8641,-3.383703"
         id="path33"
         sodipodi:nodetypes="cc" /></g></g></svg>
