<?xml version="1.0" encoding="UTF-8"?>
<svg width="64" height="64" version="1.1" viewBox="0 0 64 64" xmlns="http://www.w3.org/2000/svg" xmlns:xlink="http://www.w3.org/1999/xlink">
 <defs>
  <linearGradient id="linearGradient1229" x1="28.532" x2="48.479" y1="23.741" y2="33.632" gradientTransform="translate(38.416 11.763)" gradientUnits="userSpaceOnUse">
   <stop stop-color="#e7e7e7" offset="0"/>
   <stop stop-color="#b3b3b3" offset="1"/>
  </linearGradient>
 </defs>
 <g transform="translate(-38.416 -11.763)">
  <circle cx="70.416" cy="43.763" r="27.5" fill="url(#linearGradient1229)" fill-rule="evenodd" stroke-linecap="round" stroke-linejoin="round" stroke-width="1.0812"/>
  <g transform="matrix(1.1601 0 0 1.1601 26.713 6.6394)">
   <path class="st4" d="m48.482 25.964c0.12053 1.0847-0.08881 2.2139 0.03172 3.3176 0.12687 1.1989-0.03806 2.4613-0.25374 3.6412-0.02537-0.95787-0.05075-1.9284-0.1015-2.8673-0.05075-0.98959-0.44404-2.0045-0.71047-2.9688 0.28546 2.0299 0.41233 4.0852 0.46308 6.1215 0.03806 1.5732 0.0444 3.2098-0.21568 4.7449-0.25374 1.4971-1.034 3.0005-1.5224 4.3897-0.72316 2.0553-0.49479 4.802-0.66607 7.0603 0 0-0.17127 0.3933-0.46308-1.5224-0.3933-2.5881 0.02537-5.4237 0.07612-8.0562v-0.06343c0-0.03172-0.0063-0.08881-0.0063-0.08881s-0.08247 0.24105-0.09515 0.31083c-0.0063 0.02537-0.01903 0.09515-0.01903 0.11418v0.0063c-0.0063 0.03172-0.01269 0.06978-0.01903 0.11418-0.0063 0.02537-0.0063 0.0444-0.01269 0.06978-0.0063 0.0444-0.01903 0.1015-0.02537 0.15224-0.0063 0.02537-0.01269 0.05709-0.01269 0.08246-0.03806 0.20934-0.08881 0.46942-0.15224 0.78025-0.31083 1.4907-0.53285 3.0005-0.74219 4.5039-0.0063 0.03172-0.0063 0.05709-0.01269 0.08881-0.17127 1.0403-0.49479 1.4844-1.1355 2.2139-0.67876 0.77391-1.4971 1.7445-2.4169 2.29-0.02537 0.01903-0.06344 0.03806-0.1015 0.06343-1.2306 0.83734-2.3725 1.8967-3.6602 2.5945-0.08881 0.05075-0.12053 0.05075-0.06343-0.01269 0.0444-0.05075 0.08881-0.09515 0.13321-0.1459 0.32986-0.35524 0.64704-0.74853 0.86272-1.1482l0.01903-0.03806c0.71047-1.4463 1.3512-2.9624 1.9919-4.4531 0 0-0.17762 0.26643-0.39964 0.5836-0.27911 0.3933-0.64704 0.8754-0.79928 1.0594-1.2053 1.459-2.0553 3.5777-3.3176 4.967-0.45673 0.50114-1.237 0.69144-1.7508 1.1799-0.48211 0.45673-1.1735 0.75488-1.8016 0.86272-1.015 0.17128-2.0934 0.79294-3.1273 1.1735 0 0 0.60898-0.7295 1.053-1.3068 0.92615-1.218 1.7825-2.4993 2.5628-3.8251-0.01903 0.01269-0.54554 0.44404-0.88809 1.1862-0.59629 1.3131-2.087 2.2963-3.121 3.3113-0.76122 0.74853-1.8333 1.1862-2.8673 1.4083-1.7445-0.06978-3.5206-0.26008-5.2144-0.67876-1.4083-0.35524-3.9774-1.1735-4.4912-2.1441-0.06978-0.13956-0.1015-0.69778 0.1903-1.2306 0.50748-0.92615 1.5288-1.6937 2.1504-2.5945 1.1672-1.7064 2.8355-4.2946 4.5166-5.3032 0.93249-0.55823 2.1822-0.89443 3.2732-1.3385 0.50114-0.17127 0.74219-0.26008 1.237-0.44404-1.2306 0.27277-2.4169 0.73585-3.5904 1.1799 0 0 0.0063 0.01269 0.63435-0.82466 0.69778-0.92615 1.6176-1.6937 2.4296-2.5057 1.4273-1.4273 4.9035-3.7363 4.9035-3.7363s-1.846 1.1038-2.8102 1.1165c-0.5836 0.0063-1.1545 0.34889-1.6366 0.65338 0.59629-0.67241 1.237-1.3258 1.8523-1.9728 1.2433-1.3194 2.9497-2.2646 4.4722-3.2542-0.75488 0.15859-1.5922 0.08246-2.3471-0.03172 1.4336-0.90078 2.8292-1.9221 4.0281-3.0956 2.9497-2.899 4.4024-7.1491 6.686-10.505 1.0467-1.5351 2.493-2.8736 3.8822-4.1296 0 0 0.92615 0.13956 1.0657 0.67241 0.34255 1.3258 0.92615 2.6452 1.3765 3.9647 0.46942 1.3512 0.52017 2.8863 0.67876 4.3072z" fill="#333" stroke-width=".30709"/>
   <path class="st5" d="m43.908 32.174c-0.16493 0.06343 0.74853 3.5777 1.0403 5.17 0.13956 0.76122 0.24105 1.5542 0.17128 2.3281 0 0-0.08247 0.24105-0.09515 0.31083-0.0063 0.02537-0.01903 0.09515-0.01903 0.11418v0.0063c-0.0063 0.03806-0.01269 0.06978-0.01903 0.11418-0.0063 0.02537-0.0063 0.0444-0.01269 0.06978-0.0063 0.0444-0.01903 0.1015-0.02537 0.15224-0.0063 0.02537-0.01269 0.05709-0.01269 0.08246-0.03806 0.20934-0.08881 0.46942-0.15224 0.78025-0.31083 1.4907-0.53285 3.0005-0.74219 4.5039-0.0063 0.03172-0.0063 0.05709-0.01269 0.08881-0.17128 1.0403-0.49479 1.4844-1.1355 2.2139-0.67875 0.77391-1.4971 1.7445-2.4169 2.29-0.02537 0.01903-0.06343 0.03806-0.1015 0.06343-1.2306 0.83734-2.3725 1.8967-3.6602 2.5945-0.08881 0.05075-0.12053 0.05075-0.06343-0.01269 0.0444-0.05075 0.08881-0.09515 0.13321-0.1459 0.32986-0.35524 0.64704-0.74853 0.86272-1.1482l0.01903-0.03806c0.71047-1.4463 1.3512-2.9624 1.9919-4.4531 0.03172-0.05709 0.0444-0.08881 0.06978-0.1459 0.06343-0.12687 0.10784-0.26643 0.13956-0.41867 0.36792-1.9221 0.76122-4.155 0.3362-6.0771-0.38061-1.7064-0.40598-1.2877-0.40598-1.2877-0.09515 0.82466-0.2474 1.6557-0.47576 2.4486-0.17762 0.60263-0.50114 1.1291-0.54554 1.44-0.12053 0.81831 0.20934 1.6557 0.22837 1.7064-0.01903-0.03172-0.30449-0.51382-0.36792-1.2306-0.06978-0.78025 0.39964-1.6239 0.57092-2.3408 0.27911-1.1609-0.27911-2.8355-0.03172-3.6792 0.64069-2.2266 3.1527-5.6647 4.174-8.7477 0.53285 1.6493 0.94518 3.4445 1.5161 4.9796 0.05075 0.13956 0.06978 0.18396 0.01903 0.12053-0.26643-0.61532-0.9769-1.8523-0.9769-1.8523z" fill="#00c864" stroke-width=".30709"/>
   <g transform="matrix(.063435 0 0 .063435 8.7082 3.9015)" fill="#646464" stroke-width="4.841">
    <path class="st6" d="m593.8 261.7c0.1 0 20 37.3 22.4 57.4 1.5 13 4.8 39.2 4.8 39.2s-6.4-39.3-12.4-58c-4.1-13-14.8-38.6-14.8-38.6z"/>
    <path class="st6" d="m589.6 287s11.4 27.5 14.1 42c2 10.9 5.7 33 5.7 33s-6.5-28.4-10.5-42.3c-3.2-10.9-9.3-32.7-9.3-32.7z"/>
    <path class="st6" d="m566.5 338.6c10.1 32 20.9 65.2 24.3 98.3 2.4 23.8-1.2 72.6-1.2 72.6-0.1 0 1-60.7-4.8-89.7-3.7-18.5-8.2-36.9-13.7-55-6.4-21.1-6.1-21.2-6.1-21.2z"/>
    <path class="st6" d="m587.8 540.5s-0.3 21.4-1.5 31.9c-1.2 10.8-3.6 21.7-5 32.6-1.3 10.1-4 21.1-3.2 30.8 0.4 4.9-0.8 1.3-0.1-11.9 0.8-16.5 5.3-33.3 7-49.7 1-11.2 2.8-33.7 2.8-33.7z"/>
    <path class="st6" d="m591.2 362.3s4.4 10.3 7.9 23.2c3 11.1 5 22.3 6.2 33.8 1 10 3.4 26.7 3.4 26.7-1.1-15-2.2-30.3-4.5-45.1-0.5-3.5-2-8.4-3.2-12.6-1.5-5.5-3.3-10.9-5.5-16-1.8-3.9-2.7-6-4.3-10z"/>
    <path class="st6" d="m539.5 445.4s2.6 10.6 4.9 23c1.8 10.1 2.6 20.6 4.2 30.6 2.2 14 12.1 41.9 12.1 41.9s-6.1-26-8.9-38.3c-2.3-10.2-3.1-21.6-4.8-32.2-0.8-5.2-2.2-10.4-4-15.3-1.4-3.9-2.1-5.8-3.5-9.7z"/>
    <path class="st6" d="m522 461.7s32.6 122.7 16.7 175.4c-9.9 32.9-51.3 91.5-51.3 91.5-0.1-0.1 47.3-71 50.1-109.9 3.1-42.4-3.6-83.7-10.3-126-1.7-10.3-5.2-31-5.2-31z"/>
    <path class="st6" d="m511.8 521.3s3.4 9.8 4.6 21.9c1.2 12.5 1.3 25.5 1 38.1-0.5 19.6-8.4 59-8.4 59s9.7-42.7 10.4-63c0.3-10-1.2-21-2-31.4-0.4-5.1-1.3-10.2-2.7-15-1.2-3.8-1.8-5.7-2.9-9.6z"/>
    <path class="st6" d="m443.4 587.6c7.1 45.2 1.9 92.8-14.9 133.7-14.3 35-72.8 89.4-72.8 89.4s29.5-25.6 41.5-40.7c12.5-15.7 21.3-35 29.4-53.5 13.5-30.7 17.7-69.9 12.6-102.8-5-32.6-1.3-20.6-1.3-20.6z"/>
    <path class="st6" d="m458.1 648c0 0.9 0.1 1.8 0 2.8 0 2.2 0 7.6 0.7 16.3 0.4 4.8 1.3 11.1 1 17.5-0.3 5.6-1.9 12.1-3.3 16.4-3.8 11.9-13.5 35.4-13.5 35.4s11.9-24.7 15.4-37c0.7-2.5 2.5-7.7 3-14.3s-0.8-13.6-0.9-15.5c-0.3-11.4-1.6-23.2-3.2-34.7 0.4 5.3 0.6 7.9 0.8 13.1z"/>
    <path class="st6" d="m399.9 685.3c-4.5 25.2-21.8 75.5-21.8 75.5s16.7-38.8 20.9-58.4c2.6-12.4 8.8-29.7 5.3-42.3-0.1 0-2.9 16.7-4.4 25.2z"/>
    <path class="st6" d="m207.2 808.4c-3.2 8.7-9.9 17.2-16 24.8 0 0 13.6-15.7 15-19.1 0.6-1.5 5.3-13 3.5-13.9 0.1 0-1.5 5.5-2.5 8.2z"/>
    <path class="st6" d="m262.2 787.8c-1.7 16.9-17.4 50.4-17.4 50.4s15.4-26.3 18-39.6c0.6-2.8 3.5-25.8 0.3-26.7 0.1 0-0.3 10.6-0.9 15.9z"/>
    <path class="st6" d="m334.9 734.6c-2.6 23.3-20.4 70-20.4 70s17.6-36.4 20.8-54.9c1.8-10.5 6.6-27.6 1.8-37.8 0.1 0-1.3 15-2.2 22.7z"/>
    <path class="st6" d="m568.8 232.9c-11.5 5.4-23.1 13.2-30.5 23.7-7.1 10.2-19.5 32.1-19.5 32.1 0.1 0 17.9-25.2 28-34.9 1.6-1.5 10.2-10 11.3-10.7 2-1.2 10.7-10.2 10.7-10.2z"/>
    <path class="st6" d="m554.9 287.6c-1.9-0.3-3.7-0.4-5.5-0.2-3.4 0.4-9.7 1.5-17.4 4.6-11.7 4.8-22.4 13.4-32.4 21.5 0 0 9.9-5.9 12.7-7.3 2.2-1.1 8.9-5 15.4-8 2.1-1 7.1-3 12-4.5 10.4-3.2 21.8-5.1 21.8-5.1-2.7-0.3-4-0.6-6.6-1z"/>
    <path class="st6" d="m536.2 313.9s-0.8 5.7-19.8 3.5c-10.7-1.2-21.9 4.8-28 13.5-1.2 1.9-1.8 2.8-3 4.7 2.2-2 3.3-3 5.5-5.1 0 0 6.9-5.7 10.8-7.4 3.6-1.6 9.8-1.5 13.8 0.4 2.1 1 5.7 1.1 8.7 0.9 4.9-0.2 9.2-3.9 11.8-10.4 0.1 0.1 0.1 0 0.2-0.1z"/>
    <path class="st6" d="m528.7 344.3c-0.5-0.9-50 31.2-67.3 51.7-19.1 22.6-61.6 64.8-61.6 64.8 0 0.1 23.9-13.2 33.9-21.4 15.3-12.4 25.8-32.2 40.9-44.8 9.2-7.7 16.9-18 26.3-25.7 9.5-7.7 27.8-24.6 27.8-24.6z"/>
    <path class="st6" d="m519.6 425.4c-47.4 26.2-99.5 48.9-143.2 80.9-14.5 10.6-29.3 20.8-44.1 31-4.7 3.3-9.6 6.4-14.6 9.2-3.3 1.9-5 2.9-8.4 4.7 12.1-3.8 24.7-8.2 35.6-14.3 8.6-4.8 16.8-11.8 24.6-17.9 10.3-8 21.5-15.3 32.9-21.9 5.3-3 7.9-4.5 13.1-7.7 7.2-4.3 14.6-8 22.2-10.9 25-9.9 49.6-20.5 73.9-31.9 3.4-8.4 5-12.6 8-21.2z"/>
    <path class="st6" d="m408.7 512.7c0.7-0.3 1.3-0.6 2-0.8 1.6-0.6 5.5-2.1 11.4-5.4 3.3-1.9 7.4-4.8 11.9-6.4 15.8-5.7 48.1-16.7 48.1-16.7s-32.4 9.9-48.3 14.9c-4.7 1.5-9.2 5.1-10.5 5.7-2.7 1.2-20.8 10.8-24.1 13 3.9-1.8 5.7-2.6 9.5-4.3z"/>
    <path class="st6" d="m455.8 534.2c0-0.1-61.5 11.5-85.6 26.5-15.2 9.5-33.3 14.7-48.5 23.5-9.8 5.7-28.8 19.9-28.8 19.9 0 0.1 28.2-14.6 43-19.8 17.2-6 32.8-16.6 49.8-22.4 23.4-7.8 70.1-27.7 70.1-27.7z"/>
    <path class="st6" d="m313.4 606.8s-7.5-1-24.8 7.4c-10.9 5.3-21.8 11.2-32.1 17.9 6.9-3.5 10.3-5.2 17-8.9 1.9-0.9 9.7-5.4 16.9-8.7 5.2-2.4 13.3-4.8 18.7-6.4 1.7-0.5 2.6-0.7 4.3-1.3z"/>
    <path class="st6" d="m398 624.7c-23.7 0.3-49.7-0.7-72.3 5.6-10 2.8-20.2 6.5-29.9 10.6 9.7-2.6 14.5-3.9 24-6.7 7-2.1 14.1-3.4 21.2-4 19-1.6 38-3.4 57-5.5z"/>
    <path class="st6" d="m330.6 662.1c-4.5-0.2-9-0.1-13.5 0.2-23.2 1.6-48.1 2.8-69.9 9.8-15.1 4.9-44.8 18.8-44.8 18.8s38.6-15.6 58.6-18.9c27.6-4.6 55.9-8.4 84.1-9.5-5.8-0.1-8.7-0.2-14.5-0.4z"/>
    <path class="st6" d="m251.2 690.7c-17.9 3.1-37.1 6.9-53 15.6-18.2 9.9-14.7 9.3-14.7 9.3 6.6-2.7 9.9-4.1 16.4-7.1 9.7-4.5 20.1-8.4 30.4-11.3 8.5-2.5 12.6-3.8 20.9-6.5z"/>
    <path class="st6" d="m280.7 718.1c-22 2.4-44 4.9-65.9 7.2-16.8 1.7-33.8 6.6-49 14.2-0.9 0.5-1.3 0.7-2.2 1.1 9.1-2.4 18.3-5 27.2-8 11.8-3.6 23.8-5.4 36-6.8 18.1-2.1 36-4.6 53.9-7.7z"/>
    <path class="st6" d="m215.2 755.4c0-0.1-36.1-8.1-51.7-1.2-18.8 8.2-21 12.8-21 12.8 7.1-3.4 10.6-5.1 17.3-8.8l4.8-2.4c6.2-2.6 14-3.5 21.5-3.1 9.7 0.6 29.1 2.7 29.1 2.7z"/>
   </g>
   <path class="st7" d="m45.653 6.1408c0.99593 3.6792 1.015 7.46 0.84368 11.215-0.1903 4.0852-1.7318 8.3734-3.0639 12.23-1.4019 4.0662-3.6475 7.5044-5.7599 11.19-1.9411 3.3811-5.0177 6.2357-8.0436 8.6398-2.6389 2.0934-5.5569 3.6919-8.6969 4.8464-0.9769 0.35524-2.068 0.48211-3.102 0.51382-0.76122 0.01903-1.3068-0.02537-1.3321-0.02537 2.2456-0.46942 4.5229-1.1482 6.5148-2.2963 5.5252-3.1908 10.727-7.5551 13.968-13.125 2.0616-3.5333 4.0091-7.0032 5.3666-10.885 1.2497-3.5904 2.6135-7.3521 2.9878-11.146 0.28546-2.899 0.27277-5.8677-0.2474-8.7477 0.17762-0.60263 0.25374-0.90712 0.38695-1.5098 0.07612-0.36792 0.11418-0.54554 0.17762-0.90078z" fill="#969696"/>
   <path class="st8" d="m45.653 6.1408c0.99593 3.6792 1.015 7.46 0.84368 11.215-0.1903 4.0852-1.7318 8.3734-3.0639 12.23-1.4019 4.0662-3.6475 7.5044-5.7599 11.19-1.9411 3.3811-5.0177 6.2357-8.0436 8.6398-2.6389 2.0934-5.5569 3.6919-8.6969 4.8464-0.9769 0.35524-2.0616 0.48211-3.102 0.51382h-0.0063c2.4422-0.50748 4.9987-1.2497 7.092-2.6326 5.4554-3.6031 10.701-7.9611 13.759-13.873 1.903-3.6792 3.6158-7.295 4.8972-11.26 1.1862-3.6665 2.4422-7.5361 2.6326-11.399 0.1459-2.8673-0.0444-5.7789-0.7295-8.5764 0.07612-0.36158 0.11418-0.5392 0.17762-0.89443z" fill="#b4b4b4" stroke-width=".30709"/>
  </g>
 </g>
</svg>
