<?xml version="1.0" encoding="UTF-8" standalone="no"?>
<svg
   xml:space="preserve"
   width="64"
   height="64"
   version="1.1"
   id="svg5"
   sodipodi:docname="crysis.svg"
   inkscape:version="1.4.2 (ebf0e940d0, 2025-05-08)"
   xmlns:inkscape="http://www.inkscape.org/namespaces/inkscape"
   xmlns:sodipodi="http://sodipodi.sourceforge.net/DTD/sodipodi-0.dtd"
   xmlns:xlink="http://www.w3.org/1999/xlink"
   xmlns="http://www.w3.org/2000/svg"
   xmlns:svg="http://www.w3.org/2000/svg"><sodipodi:namedview
     id="namedview5"
     pagecolor="#505050"
     bordercolor="#eeeeee"
     borderopacity="1"
     inkscape:showpageshadow="0"
     inkscape:pageopacity="0"
     inkscape:pagecheckerboard="0"
     inkscape:deskcolor="#505050"
     inkscape:zoom="5.9296875"
     inkscape:cx="35.077734"
     inkscape:cy="40.727273"
     inkscape:window-width="1920"
     inkscape:window-height="996"
     inkscape:window-x="0"
     inkscape:window-y="0"
     inkscape:window-maximized="1"
     inkscape:current-layer="svg5" /><defs
     id="defs4"><linearGradient
       id="a"><stop
         offset="0"
         style="stop-color:#fff;stop-opacity:1"
         id="stop1" /><stop
         offset="1"
         style="stop-color:#b5d9dd;stop-opacity:1"
         id="stop2" /></linearGradient><linearGradient
       id="b"
       x1="7.937"
       x2="7.937"
       y1="15.081"
       y2="1.852"
       gradientTransform="matrix(3.7796,0,0,3.7796,-6.5770751,-12.2952)"
       gradientUnits="userSpaceOnUse"><stop
         offset="0"
         stop-color="#363636"
         style="stop-color:#171717;stop-opacity:1"
         id="stop3" /><stop
         offset="1"
         stop-color="#6c6c6c"
         style="stop-color:#2c2c2c;stop-opacity:1"
         id="stop4" /></linearGradient><radialGradient
       xlink:href="#a"
       id="d"
       cx="32.001"
       cy="31.97"
       r="21.126"
       fx="32.001"
       fy="31.97"
       gradientTransform="matrix(2.03117 0 0 .52001 -32.999 15.345)"
       gradientUnits="userSpaceOnUse" /><filter
       id="c"
       width="1.2234578"
       height="1.4297301"
       x="-0.11172892"
       y="-0.21486505"
       style="color-interpolation-filters:sRGB"><feGaussianBlur
         stdDeviation="1.967"
         id="feGaussianBlur4" /></filter></defs><path
     d="M 7.500071,4.5 C 5.838085,4.5 4.5,5.838085 4.5,7.500071 V 56.499928 C 4.5,58.161912 5.838085,59.5 7.500071,59.5 H 56.49993 C 58.16192,59.5 59.5,58.161912 59.5,56.499928 V 7.500071 C 59.5,5.838085 58.16192,4.5 56.49993,4.5 Z"
     id="rect1572"
     style="fill:#000000;fill-opacity:1" /><path
     d="M22.36 42.934a2.4 2.4 0 0 0-.34-.105c-.54-.141-1.485-.462-1.881-.639a1 1 0 0 0-.215-.08.7.7 0 0 1-.16-.058 9 9 0 0 0-.291-.131 43 43 0 0 1-1.86-.923c-1.934-1.088-3.637-2.476-4.778-3.895-.925-1.15-1.619-2.453-1.833-3.443a14 14 0 0 0-.089-.385c-.055-.218-.049-2.417.007-2.631l.09-.343c.025-.093.092-.302.149-.465s.115-.334.128-.38c.04-.141.438-.918.566-1.106.066-.098.12-.187.12-.2 0-.025.136-.227.316-.469.784-1.055 1.944-2.19 3.128-3.06.14-.103.32-.237.401-.299.218-.165.922-.634.952-.634.014 0 .112-.059.217-.13.38-.263 1.494-.876 2.428-1.34.526-.26.968-.473.982-.473.013 0 .144-.054.29-.12s.56-.237.92-.38l.655-.261 11.661.01 11.662.011v5.281l-1.336.027c-2.167.044-19.563.062-19.736.021-.117-.027-.256-.013-.55.056-.413.099-.85.233-.972.3a.3.3 0 0 1-.115.04c-.072 0-1.024.448-1.333.626-.449.26-.589.347-.93.574-.825.55-1.594 1.185-2.486 2.054-.625.608-1.642 1.732-1.667 1.842-.05.211 1.157 1.543 1.902 2.099.364.27.948.664.986.664.015 0 .078.036.14.08.061.044.183.12.27.169.384.217.458.26.713.414.347.211.816.436 1.359.651.237.095.489.197.558.227s.232.094.36.14l.421.157c.216.08.643.22 1.08.354l.297.09h28.581v6.084H37.754c-8.455 0-15.382-.01-15.394-.021"
     style="fill:#ff7575;fill-opacity:1;stroke-width:.469998;filter:url(#c);opacity:1"
     id="path4" /><path
     d="M22.36 42.934a2.4 2.4 0 0 0-.34-.105c-.54-.141-1.485-.462-1.881-.639a1 1 0 0 0-.215-.08.7.7 0 0 1-.16-.058 9 9 0 0 0-.291-.131 43 43 0 0 1-1.86-.923c-1.934-1.088-3.637-2.476-4.778-3.895-.925-1.15-1.619-2.453-1.833-3.443a14 14 0 0 0-.089-.385c-.055-.218-.049-2.417.007-2.631l.09-.343c.025-.093.092-.302.149-.465s.115-.334.128-.38c.04-.141.438-.918.566-1.106.066-.098.12-.187.12-.2 0-.025.136-.227.316-.469.784-1.055 1.944-2.19 3.128-3.06.14-.103.32-.237.401-.299.218-.165.922-.634.952-.634.014 0 .112-.059.217-.13.38-.263 1.494-.876 2.428-1.34.526-.26.968-.473.982-.473.013 0 .144-.054.29-.12s.56-.237.92-.38l.655-.261 11.661.01 11.662.011v5.281l-1.336.027c-2.167.044-19.563.062-19.736.021-.117-.027-.256-.013-.55.056-.413.099-.85.233-.972.3a.3.3 0 0 1-.115.04c-.072 0-1.024.448-1.333.626-.449.26-.589.347-.93.574-.825.55-1.594 1.185-2.486 2.054-.625.608-1.642 1.732-1.667 1.842-.05.211 1.157 1.543 1.902 2.099.364.27.948.664.986.664.015 0 .078.036.14.08.061.044.183.12.27.169.384.217.458.26.713.414.347.211.816.436 1.359.651.237.095.489.197.558.227s.232.094.36.14l.421.157c.216.08.643.22 1.08.354l.297.09h28.581v6.084H37.754c-8.455 0-15.382-.01-15.394-.021"
     style="fill:url(#d);fill-opacity:1;stroke-width:.469998"
     id="path5" /></svg>
