<?xml version="1.0" encoding="UTF-8" standalone="no"?>
<svg
   width="64"
   height="64"
   version="1.1"
   id="svg6"
   sodipodi:docname="cscz.svg"
   inkscape:version="1.3.2 (091e20ef0f, 2023-11-25, custom)"
   xmlns:inkscape="http://www.inkscape.org/namespaces/inkscape"
   xmlns:sodipodi="http://sodipodi.sourceforge.net/DTD/sodipodi-0.dtd"
   xmlns:xlink="http://www.w3.org/1999/xlink"
   xmlns="http://www.w3.org/2000/svg"
   xmlns:svg="http://www.w3.org/2000/svg">
  <sodipodi:namedview
     id="namedview6"
     pagecolor="#ffffff"
     bordercolor="#000000"
     borderopacity="0.25"
     inkscape:showpageshadow="2"
     inkscape:pageopacity="0.0"
     inkscape:pagecheckerboard="0"
     inkscape:deskcolor="#d1d1d1"
     inkscape:zoom="3.109375"
     inkscape:cx="-6.9145729"
     inkscape:cy="24.120603"
     inkscape:window-width="1920"
     inkscape:window-height="955"
     inkscape:window-x="0"
     inkscape:window-y="34"
     inkscape:window-maximized="1"
     inkscape:current-layer="svg6" />
  <defs
     id="defs4">
    <linearGradient
       id="b"
       x1="22.873"
       x2="22.873"
       y1="5.525"
       y2="58.921"
       gradientUnits="userSpaceOnUse">
      <stop
         offset="0"
         stop-color="#e2e536"
         id="stop1" />
      <stop
         offset="1"
         stop-color="#e2cc22"
         id="stop2" />
    </linearGradient>
    <linearGradient
       id="a"
       x1="7.937"
       x2="7.937"
       y1="15.081"
       y2="1.852"
       gradientTransform="scale(3.7796)"
       gradientUnits="userSpaceOnUse">
      <stop
         offset="0"
         stop-color="#f1efeb"
         id="stop3" />
      <stop
         offset="1"
         stop-color="#fdfcfc"
         id="stop4" />
    </linearGradient>
    <filter
       id="filter2076-3-5"
       x="-0.048000001"
       y="-0.048000001"
       width="1.096"
       height="1.096"
       color-interpolation-filters="sRGB">
      <feGaussianBlur
         stdDeviation="1.1"
         id="feGaussianBlur1" />
    </filter>
    <linearGradient
       id="linearGradient2070-2"
       x1="145"
       x2="200"
       y1="59"
       y2="4"
       gradientTransform="matrix(1.0000071,0,0,1.0000071,-38.877049,0.49701789)"
       gradientUnits="userSpaceOnUse">
      <stop
         stop-color="#ffc841"
         offset="0"
         id="stop1-3" />
      <stop
         stop-color="#ffbe37"
         offset=".4925"
         id="stop2-6" />
      <stop
         stop-color="#ffc841"
         offset="1"
         id="stop3-7" />
    </linearGradient>
    <linearGradient
       inkscape:collect="always"
       xlink:href="#linearGradient1"
       id="linearGradient6"
       x1="0"
       y1="-64"
       x2="42.119801"
       y2="-21.880201"
       gradientUnits="userSpaceOnUse" />
    <linearGradient
       id="linearGradient1"
       inkscape:collect="always">
      <stop
         style="stop-color:#ffc53e;stop-opacity:1"
         offset="0"
         id="stop5" />
      <stop
         style="stop-color:#ffc63f;stop-opacity:1"
         offset="1"
         id="stop6" />
    </linearGradient>
  </defs>
  <circle
     style="fill:url(#linearGradient6);fill-opacity:1;stroke:none;stroke-width:1.23125;stroke-linejoin:round"
     id="path1"
     cx="32"
     cy="-32"
     r="30"
     transform="scale(1,-1)" />
  <path
     fill="#333333"
     d="M 32,6.998332 A 25.000002,25.000002 0 0 0 7,31.998334 25.000002,25.000002 0 0 0 32,57.001668 25.000002,25.000002 0 0 0 57,31.998334 25.000002,25.000002 0 0 0 32,6.998332 m -1.15,7.510001 c 1.32,-0.07167 2.205,0.671666 2.46833,1.728333 0.0384,0.213333 0.11838,0.553333 0.27334,0.768333 0.43,0.555 0.98,0.983334 -0.51,1.025001 0,0.556666 -0.04,0.985 0.0384,1.455 0.86666,0.515 0.94166,-1.751667 2.24,-0.64 h 0.0784 c 0.0766,-0.04167 0.15665,-0.13 0.23665,-0.173334 V 18.46 h 0.74668 v 0.383333 h 1.37 v 0.218333 L 39.6368,19.19 v -0.6 h 0.47166 v 0.641666 l 1.25666,0.13 v -0.43 h 0.47 V 19.405 l 1.21668,0.08333 v -0.725 h 0.46832 v 0.766667 h 0.19668 v 0.68333 l 0.78332,0.08667 v 0.6 l -1.05832,0.255 H 40.5 c -0.0784,0.3 -0.15832,0.683335 -0.195,0.768335 -0.31666,-0.04167 -0.47166,0.603333 -0.74666,0.603333 A 1.0000001,1.0000001 0 0 1 39.4,22.268334 c 0.08,1.283334 0.55,2.393334 1.295,3.376667 l -0.78167,0.598333 A 7.8333339,7.8333339 0 0 1 38.54,22.948333 c -0.2,0.258334 -0.2,0.556667 -0.23833,0.941667 0,0.256667 -0.19667,0.215 -0.43333,0.215 -0.58501,-0.213333 -0.97834,0 -0.97834,0 -0.745,0.08333 -1.06,0.983333 -1.96333,1.496667 -0.115,0.04333 -0.15334,0.298333 -0.31167,0.255 l -0.11663,-0.085 c -0.51332,0.17 -1.69166,0.213333 -2.27666,0 0,0.556667 -0.0834,0.9 -0.23666,1.24 -0.16,0.726667 -0.0766,0.298333 -0.275,1.025 -0.0784,0.855 -0.35334,0.641667 -0.35334,1.025 -0.11663,0.513333 -0.23334,0.898334 -0.19668,1.366667 0.66668,0 0.665,0.04667 0.665,0.04667 0.67,0.428334 1.57168,1.75 1.96668,2.435 0.46666,0.683337 0.82332,0.983337 0.82332,1.923337 a 1.5000001,1.5000001 0 0 0 -0.47332,0.388334 c 0.90332,0.983333 1.96166,2.35 2.43332,3.333333 0.15834,0.341667 0.23668,0.77 0.315,1.195 0.19668,1.883334 -0.155,4.320001 -0.66666,4.875001 -0.0766,0.428333 0.47,1.07 0.78334,1.325 0.94166,0.728333 2.27832,2.136667 1.65,3.25 -1.37168,0.855 -2.75,-0.3 -3.76834,-1.026667 -0.355,-0.296666 -0.43166,-0.295 -0.46834,-0.683333 v -0.256667 c 0,-0.213333 -0.0434,-0.47 0.0384,-0.683333 0.11663,-0.3 0.0384,-0.6 0.0384,-0.856667 -0.15832,-0.171667 0.0384,-0.983333 -0.15832,-1.066667 -0.82334,-0.471666 -1.295,-1.883333 -1.53,-4.49 -0.94001,-2.008333 -2.86668,-3.378334 -3.92668,-5.303334 -0.275,0.13 -0.235,0.471667 -0.39,0.6 -0.90333,1.881667 -1.49333,3.803334 -1.92333,5.771667 -0.94334,2.691667 -1.68667,3.420001 -4.04334,3.933334 -0.15666,1.666667 1.57,1.111667 1.17834,2.351667 -0.705,0.213333 -0.70667,0.213333 -2.435,0 -0.39167,-0.256667 -0.74334,-1.326667 -0.90167,-1.838334 0,-0.13 -0.39167,0.08333 -0.43,0 a 3.1666669,3.1666669 0 0 1 -0.43333,-0.9 c -0.0417,-0.213333 0.51166,-0.34 0.43333,-0.466666 0.31333,-0.6 0.86333,-0.9 1.21667,-1.456667 0.195,-0.296667 0,-0.77 0.115,-0.983334 0.43333,-0.298333 1.53333,-1.666666 1.845,-2.306666 0.43333,-2.821667 1.02166,-4.576667 1.84666,-7.226668 0.0783,-0.94 -0.275,-2.138333 -0.195,-3.164999 0.0383,-1.153334 0.42667,-2.093334 0.625,-3.29 0.19667,-1.196668 0.355,-2.565 0.27667,-3.805 0.315,-1.368335 0.98,-3.076668 2.47333,-3.161668 0.11662,0 0.27334,0.04333 0.35,-0.08333 -0.115,-1.37 -0.46833,-3.381668 0.90667,-3.936668 a 4.3333336,4.3333336 0 0 1 1.455,-0.361667 z m 2.645,6.583334 c -0.18833,0 -0.45,0.06333 -0.76667,0.321666 -0.15333,0.17 -0.47,0.338334 -0.39333,1.278334 0.43333,0 0.74833,0 1.02333,0.04333 1.01667,-0.77 1.96001,-0.168333 2.08001,-1.58 -0.74834,0.04332 -1.17834,-0.08668 -1.64834,-5e-6 0,0 -0.10838,-0.065 -0.295,-0.065 z"
     id="path6-3"
     style="fill:#fbfbfb;fill-opacity:1;stroke-width:1.66667" />
</svg>
