<?xml version="1.0" encoding="UTF-8" standalone="no"?>
<svg
   width="64"
   height="64"
   viewBox="0 0 16.933 16.933"
   version="1.1"
   id="svg4"
   sodipodi:docname="csd-clipboard.svg"
   inkscape:version="1.3.2 (091e20ef0f, 2023-11-25, custom)"
   xmlns:inkscape="http://www.inkscape.org/namespaces/inkscape"
   xmlns:sodipodi="http://sodipodi.sourceforge.net/DTD/sodipodi-0.dtd"
   xmlns:xlink="http://www.w3.org/1999/xlink"
   xmlns="http://www.w3.org/2000/svg"
   xmlns:svg="http://www.w3.org/2000/svg">
  <defs
     id="defs4">
    <linearGradient
       id="linearGradient1005-2"
       x1="8.4438"
       x2="8.4438"
       y1="12.112"
       y2="0.54482001"
       gradientTransform="matrix(0.91665,0,0,0.91665,-6.436,-20.616)"
       gradientUnits="userSpaceOnUse">
      <stop
         stop-color="#87a5af"
         offset="0"
         id="stop5" />
      <stop
         stop-color="#c8d7dc"
         offset="1"
         id="stop6" />
    </linearGradient>
    <linearGradient
       id="linearGradient2299"
       x1="-90.581001"
       x2="-90.581001"
       y1="2.3395"
       y2="-9.2130003"
       gradientTransform="translate(91.859,-9.3542)"
       gradientUnits="userSpaceOnUse"
       xlink:href="#linearGradient2297" />
    <linearGradient
       id="linearGradient2297">
      <stop
         stop-color="#46737d"
         offset="0"
         id="stop3" />
      <stop
         stop-color="#6e91a0"
         offset="1"
         id="stop4" />
    </linearGradient>
    <filter
       id="filter2461"
       x="-0.036909337"
       y="-0.035134395"
       width="1.0738187"
       height="1.0702688"
       color-interpolation-filters="sRGB">
      <feGaussianBlur
         stdDeviation="0.22354258"
         id="feGaussianBlur56" />
    </filter>
    <filter
       id="filter2443"
       x="-0.036000154"
       y="-0.036000154"
       width="1.0720003"
       height="1.0720003"
       color-interpolation-filters="sRGB">
      <feGaussianBlur
         stdDeviation="0.11022947"
         id="feGaussianBlur55" />
    </filter>
    <linearGradient
       id="linearGradient2389"
       x1="162.64"
       x2="162.64"
       y1="13.7"
       y2="27.83"
       gradientUnits="userSpaceOnUse">
      <stop
         stop-color="#b4c3c8"
         offset="0"
         id="stop53" />
      <stop
         stop-color="#7396a0"
         offset="1"
         id="stop54" />
    </linearGradient>
    <linearGradient
       id="linearGradient924"
       x1="162.61"
       x2="162.61"
       y1="15.335"
       y2="27.41"
       gradientTransform="matrix(0.60101,0,0,0.60101,-96.361,-25.471)"
       gradientUnits="userSpaceOnUse"
       xlink:href="#linearGradient2401" />
    <linearGradient
       id="linearGradient2401">
      <stop
         stop-color="#d2dcdc"
         offset="0"
         id="stop17" />
      <stop
         stop-color="#a0b4be"
         offset="1"
         id="stop18" />
    </linearGradient>
    <linearGradient
       id="linearGradient2409"
       x1="-1.1063"
       x2="-5.5042"
       y1="90.319"
       y2="90.319"
       gradientTransform="translate(-9.3542,-91.859)"
       gradientUnits="userSpaceOnUse"
       xlink:href="#linearGradient2297" />
    <filter
       id="filter2425"
       x="-0.036000268"
       y="-0.036000268"
       width="1.0720005"
       height="1.0720005"
       color-interpolation-filters="sRGB">
      <feGaussianBlur
         stdDeviation="0.038208282"
         id="feGaussianBlur54" />
    </filter>
    <linearGradient
       id="linearGradient2413"
       x1="-3.7251"
       x2="-0.19643"
       y1="90.319"
       y2="90.319"
       gradientTransform="matrix(0.55402,0,0,0.55402,-10.814,-51.534)"
       gradientUnits="userSpaceOnUse"
       xlink:href="#linearGradient2401" />
    <linearGradient
       inkscape:collect="always"
       xlink:href="#linearGradient2389"
       id="linearGradient23"
       gradientUnits="userSpaceOnUse"
       x1="162.64"
       y1="13.7"
       x2="162.64"
       y2="27.83" />
    <linearGradient
       inkscape:collect="always"
       xlink:href="#linearGradient2389"
       id="linearGradient4"
       gradientUnits="userSpaceOnUse"
       x1="162.64"
       y1="13.7"
       x2="162.64"
       y2="27.83" />
    <linearGradient
       inkscape:collect="always"
       xlink:href="#linearGradient2389"
       id="linearGradient5"
       gradientUnits="userSpaceOnUse"
       x1="162.64"
       y1="13.7"
       x2="162.64"
       y2="27.83" />
    <linearGradient
       inkscape:collect="always"
       xlink:href="#linearGradient2389"
       id="linearGradient6"
       gradientUnits="userSpaceOnUse"
       x1="162.64"
       y1="13.7"
       x2="162.64"
       y2="27.83" />
    <linearGradient
       inkscape:collect="always"
       xlink:href="#linearGradient2389"
       id="linearGradient7"
       gradientUnits="userSpaceOnUse"
       x1="162.64"
       y1="13.7"
       x2="162.64"
       y2="27.83" />
    <linearGradient
       inkscape:collect="always"
       xlink:href="#linearGradient2389"
       id="linearGradient8"
       gradientUnits="userSpaceOnUse"
       x1="162.64"
       y1="13.7"
       x2="162.64"
       y2="27.83" />
    <linearGradient
       inkscape:collect="always"
       xlink:href="#linearGradient2389"
       id="linearGradient9"
       gradientUnits="userSpaceOnUse"
       x1="162.64"
       y1="13.7"
       x2="162.64"
       y2="27.83" />
  </defs>
  <sodipodi:namedview
     id="namedview4"
     pagecolor="#ffffff"
     bordercolor="#000000"
     borderopacity="0.25"
     inkscape:showpageshadow="2"
     inkscape:pageopacity="0.0"
     inkscape:pagecheckerboard="0"
     inkscape:deskcolor="#d1d1d1"
     inkscape:zoom="6.15625"
     inkscape:cx="12.182741"
     inkscape:cy="28.101523"
     inkscape:window-width="1920"
     inkscape:window-height="995"
     inkscape:window-x="0"
     inkscape:window-y="0"
     inkscape:window-maximized="1"
     inkscape:current-layer="svg4" />
  <g
     transform="matrix(1.0545445,0,0,1.0545445,7.0352353,22.028881)"
     id="g210">
    <path
       d="m 8.6331,-12.861 c 0,0.87223 -0.15353,1.7085 -0.43508,2.4836 -0.19571,0.5387 -0.45318,1.048 -0.76442,1.5191 -0.13037,0.19807 -0.27054,0.38935 -0.41933,0.57317 -0.47634,0.5883 -1.0424,1.1006 -1.6779,1.5164 -0.23402,0.15324 -0.47725,0.29342 -0.72907,0.41902 -0.97788,0.48939 -2.0818,0.76468 -3.2501,0.76468 -1.1683,0 -2.2722,-0.27529 -3.2501,-0.7647 -0.25184,-0.12563 -0.49536,-0.2658 -0.72938,-0.41902 -0.64355,-0.42141 -1.2164,-0.94176 -1.6966,-1.5398 -0.14907,-0.18531 -0.28896,-0.37835 -0.41933,-0.5782 -0.30292,-0.46327 -0.55385,-0.96312 -0.74569,-1.4914 -0.28151,-0.77483 -0.43477,-1.6108 -0.43477,-2.4827 0,-4.0184 3.2575,-7.2759 7.2759,-7.2759 2.0171,0 3.8423,0.82084 5.1603,2.1465 0.37982,0.38189 0.7175,0.806 1.0049,1.2645 0.27174,0.43181 0.49891,0.89448 0.67561,1.3812 0.28158,0.77511 0.4351,1.6114 0.4351,2.4836 z"
       fill="url(#linearGradient1005-2)"
       stroke-width="0.028422"
       id="path193"
       style="fill:url(#linearGradient1005-2)" />
    <path
       d="m 7.2831,-12.861 c 0,0.71039 -0.12504,1.3915 -0.35435,2.0228 -0.1594,0.43875 -0.36909,0.85355 -0.62258,1.2372 -0.10618,0.16132 -0.22034,0.31711 -0.34152,0.46682 -0.38796,0.47914 -0.84898,0.89639 -1.3666,1.235 -0.1906,0.12481 -0.3887,0.23898 -0.59379,0.34127 -0.79644,0.39858 -1.6955,0.6228 -2.6471,0.6228 -0.95152,0 -1.8506,-0.22421 -2.647,-0.62281 -0.20511,-0.10232 -0.40345,-0.21648 -0.59404,-0.34127 -0.52414,-0.34322 -0.9907,-0.76702 -1.3818,-1.2541 -0.12141,-0.15093 -0.23534,-0.30815 -0.34152,-0.47092 -0.24671,-0.37731 -0.45108,-0.78442 -0.60733,-1.2147 -0.22928,-0.63106 -0.3541,-1.3119 -0.3541,-2.022 0,-3.2728 2.6531,-5.9259 5.9259,-5.9259 1.6428,0 3.1294,0.66854 4.2028,1.7482 0.30934,0.31103 0.58437,0.65645 0.81844,1.0299 0.22132,0.35169 0.40634,0.72851 0.55025,1.1249 0.22933,0.63129 0.35437,1.3124 0.35437,2.0228 z"
       fill="url(#linearGradient2299)"
       stroke-width="0.023148"
       id="path194"
       style="fill:url(#linearGradient2299)" />
    <g
       transform="matrix(0.61857,0,0,0.60044,-99.219,-25.201)"
       filter="url(#filter2461)"
       opacity="0.3"
       id="g200">
      <path
         d="m 161.55,13.692 h 2.4104 c 0.23461,0 0.39247,0.19093 0.42349,0.42348 l 0.26577,1.9928 c 0.031,0.23255 -0.18888,0.42348 -0.42349,0.42348 h -2.9862 c -0.23461,0 -0.45956,-0.19166 -0.42349,-0.42348 l 0.31006,-1.9928 c 0.0361,-0.23182 0.18888,-0.42348 0.4235,-0.42348 z"
         id="path195" />
      <path
         d="m 161.55,28.962 h 2.4104 c 0.23461,0 0.39247,-0.19093 0.42349,-0.42348 l 0.26577,-1.9928 c 0.031,-0.23255 -0.18888,-0.42348 -0.42349,-0.42348 h -2.9862 c -0.23461,0 -0.45956,0.19166 -0.42349,0.42348 l 0.31006,1.9928 c 0.0361,0.23182 0.18888,0.42348 0.4235,0.42348 z"
         id="path196" />
      <path
         d="m 168.75,16.486 1.2052,2.0875 c 0.1173,0.20318 0.0309,0.43536 -0.15501,0.5785 l -1.5929,1.2266 c -0.18589,0.14312 -0.46119,0.04817 -0.57849,-0.15501 l -1.4931,-2.5862 c -0.1173,-0.20318 -0.0638,-0.49382 0.15501,-0.5785 l 1.8808,-0.72788 c 0.21882,-0.08465 0.46119,-0.04817 0.5785,0.15502 z"
         id="path197" />
      <path
         d="m 155.53,24.121 1.2052,2.0875 c 0.11731,0.20318 0.36159,0.24442 0.57849,0.15501 l 1.8587,-0.76624 c 0.21689,-0.08943 0.27231,-0.37532 0.155,-0.5785 l -1.4931,-2.5862 c -0.11731,-0.20318 -0.39577,-0.30216 -0.5785,-0.15501 l -1.5708,1.2649 c -0.18271,0.14718 -0.2723,0.37532 -0.15499,0.5785 z"
         id="path198" />
      <path
         d="m 169.96,24.121 -1.2052,2.0875 c -0.11731,0.20317 -0.36158,0.24444 -0.5785,0.15501 l -1.8587,-0.76624 c -0.21689,-0.08942 -0.27231,-0.37532 -0.155,-0.57849 l 1.4931,-2.5862 c 0.11731,-0.20317 0.39576,-0.30216 0.5785,-0.155 l 1.5708,1.2649 c 0.18272,0.14718 0.27231,0.37532 0.155,0.57851 z"
         id="path199" />
      <path
         d="m 156.74,16.486 -1.2052,2.0875 c -0.1173,0.20318 -0.0309,0.43536 0.155,0.57849 l 1.5929,1.2266 c 0.18589,0.14312 0.46119,0.04817 0.57849,-0.15501 l 1.4931,-2.5862 c 0.1173,-0.20318 0.0638,-0.49383 -0.15501,-0.5785 l -1.8808,-0.72788 c -0.21881,-0.08464 -0.46119,-0.04816 -0.57849,0.15503 z"
         id="path200" />
    </g>
    <circle
       transform="matrix(1.0262,0,0,0.99694,94.226,-9.2237)"
       cx="-90.417999"
       cy="-3.2722001"
       r="3.6743"
       filter="url(#filter2443)"
       opacity="0.3"
       id="circle200" />
    <g
       transform="matrix(0.60101,0,0,0.60101,-96.361,-25.444)"
       fill="url(#linearGradient2389)"
       id="g206"
       style="fill:url(#linearGradient23)">
      <path
         d="m 161.55,13.692 h 2.4104 c 0.23461,0 0.39247,0.19093 0.42349,0.42348 l 0.26577,1.9928 c 0.031,0.23255 -0.18888,0.42348 -0.42349,0.42348 h -2.9862 c -0.23461,0 -0.45956,-0.19166 -0.42349,-0.42348 l 0.31006,-1.9928 c 0.0361,-0.23182 0.18888,-0.42348 0.4235,-0.42348 z"
         id="path201"
         style="fill:url(#linearGradient4)" />
      <path
         d="m 161.55,28.962 h 2.4104 c 0.23461,0 0.39247,-0.19093 0.42349,-0.42348 l 0.26577,-1.9928 c 0.031,-0.23255 -0.18888,-0.42348 -0.42349,-0.42348 h -2.9862 c -0.23461,0 -0.45956,0.19166 -0.42349,0.42348 l 0.31006,1.9928 c 0.0361,0.23182 0.18888,0.42348 0.4235,0.42348 z"
         id="path202"
         style="fill:url(#linearGradient5)" />
      <path
         d="m 168.75,16.486 1.2052,2.0875 c 0.1173,0.20318 0.0309,0.43536 -0.15501,0.5785 l -1.5929,1.2266 c -0.18589,0.14312 -0.46119,0.04817 -0.57849,-0.15501 l -1.4931,-2.5862 c -0.1173,-0.20318 -0.0638,-0.49382 0.15501,-0.5785 l 1.8808,-0.72788 c 0.21882,-0.08465 0.46119,-0.04817 0.5785,0.15502 z"
         id="path203"
         style="fill:url(#linearGradient6)" />
      <path
         d="m 155.53,24.121 1.2052,2.0875 c 0.11731,0.20318 0.36159,0.24442 0.57849,0.15501 l 1.8587,-0.76624 c 0.21689,-0.08943 0.27231,-0.37532 0.155,-0.5785 l -1.4931,-2.5862 c -0.11731,-0.20318 -0.39577,-0.30216 -0.5785,-0.15501 l -1.5708,1.2649 c -0.18271,0.14718 -0.2723,0.37532 -0.15499,0.5785 z"
         id="path204"
         style="fill:url(#linearGradient7)" />
      <path
         d="m 169.96,24.121 -1.2052,2.0875 c -0.11731,0.20317 -0.36158,0.24444 -0.5785,0.15501 l -1.8587,-0.76624 c -0.21689,-0.08942 -0.27231,-0.37532 -0.155,-0.57849 l 1.4931,-2.5862 c 0.11731,-0.20317 0.39576,-0.30216 0.5785,-0.155 l 1.5708,1.2649 c 0.18272,0.14718 0.27231,0.37532 0.155,0.57851 z"
         id="path205"
         style="fill:url(#linearGradient8)" />
      <path
         d="m 156.74,16.486 -1.2052,2.0875 c -0.1173,0.20318 -0.0309,0.43536 0.155,0.57849 l 1.5929,1.2266 c 0.18589,0.14312 0.46119,0.04817 0.57849,-0.15501 l 1.4931,-2.5862 c 0.1173,-0.20318 0.0638,-0.49383 -0.15501,-0.5785 l -1.8808,-0.72788 c -0.21881,-0.08464 -0.46119,-0.04816 -0.57849,0.15503 z"
         id="path206"
         style="fill:url(#linearGradient9)" />
    </g>
    <circle
       cx="1.4409"
       cy="-12.626"
       r="3.6743"
       fill="url(#linearGradient924)"
       id="circle206"
       style="fill:url(#linearGradient924)" />
    <circle
       transform="rotate(90)"
       cx="-12.626"
       cy="-1.4409"
       r="2.2988"
       fill="url(#linearGradient2409)"
       id="circle207"
       style="fill:url(#linearGradient2409)" />
    <g
       fill="#87a5af"
       id="g209">
      <rect
         x="0.97318"
         y="-14.932"
         width="0.93541998"
         height="1.2510999"
         ry="0.20928"
         opacity="0.7"
         style="paint-order:stroke fill markers"
         id="rect207" />
      <rect
         transform="rotate(60)"
         x="-10.662"
         y="-6.4720001"
         width="0.93541998"
         height="1.2510999"
         ry="0.20928"
         opacity="0.7"
         style="paint-order:stroke fill markers"
         id="rect208" />
      <rect
         transform="rotate(120)"
         x="-12.103"
         y="2.7251"
         width="0.93541998"
         height="1.2510999"
         ry="0.20928"
         opacity="0.7"
         style="paint-order:stroke fill markers"
         id="rect209" />
    </g>
    <circle
       transform="matrix(0,1.0303,-1.0303,0,94.6,-9.1475)"
       cx="-3.2722001"
       cy="90.417999"
       r="1.2736"
       filter="url(#filter2425)"
       opacity="0.3"
       id="circle209" />
    <circle
       transform="rotate(90)"
       cx="-12.626"
       cy="-1.4409"
       r="1.2736"
       fill="url(#linearGradient2413)"
       id="circle210"
       style="fill:url(#linearGradient2413)" />
  </g>
</svg>
