<?xml version="1.0" encoding="UTF-8" standalone="no"?>
<svg
   width="64"
   height="64"
   version="1"
   id="svg6"
   sodipodi:docname="csgo.svg"
   inkscape:version="1.3.2 (091e20ef0f, 2023-11-25, custom)"
   xmlns:inkscape="http://www.inkscape.org/namespaces/inkscape"
   xmlns:sodipodi="http://sodipodi.sourceforge.net/DTD/sodipodi-0.dtd"
   xmlns:xlink="http://www.w3.org/1999/xlink"
   xmlns="http://www.w3.org/2000/svg"
   xmlns:svg="http://www.w3.org/2000/svg">
  <sodipodi:namedview
     id="namedview6"
     pagecolor="#ffffff"
     bordercolor="#000000"
     borderopacity="0.25"
     inkscape:showpageshadow="2"
     inkscape:pageopacity="0.0"
     inkscape:pagecheckerboard="0"
     inkscape:deskcolor="#d1d1d1"
     inkscape:zoom="4.3973203"
     inkscape:cx="16.032491"
     inkscape:cy="28.198992"
     inkscape:window-width="1920"
     inkscape:window-height="955"
     inkscape:window-x="0"
     inkscape:window-y="34"
     inkscape:window-maximized="1"
     inkscape:current-layer="svg6" />
  <defs
     id="defs4">
    <linearGradient
       id="b"
       x1="22.873"
       x2="22.873"
       y1="5.525"
       y2="58.921"
       gradientUnits="userSpaceOnUse">
      <stop
         offset="0"
         stop-color="#6b6b6b"
         id="stop1" />
      <stop
         offset="1"
         stop-color="#383838"
         id="stop2" />
    </linearGradient>
    <linearGradient
       id="a"
       x1="7.937"
       x2="7.937"
       y1="15.081"
       y2="1.852"
       gradientTransform="scale(3.7796)"
       gradientUnits="userSpaceOnUse">
      <stop
         offset="0"
         stop-color="#f1efeb"
         id="stop3" />
      <stop
         offset="1"
         stop-color="#fdfcfc"
         id="stop4" />
    </linearGradient>
    <linearGradient
       inkscape:collect="always"
       xlink:href="#linearGradient1"
       id="linearGradient6"
       x1="0"
       y1="-64"
       x2="42.119801"
       y2="-21.880201"
       gradientUnits="userSpaceOnUse" />
    <linearGradient
       id="linearGradient1"
       inkscape:collect="always">
      <stop
         style="stop-color:#343a45;stop-opacity:1"
         offset="0"
         id="stop5" />
      <stop
         style="stop-color:#444d60;stop-opacity:1"
         offset="1"
         id="stop6" />
    </linearGradient>
  </defs>
  <circle
     style="fill:url(#linearGradient6);fill-opacity:1;stroke:none;stroke-width:1.23125;stroke-linejoin:round"
     id="path1"
     cx="32"
     cy="-32"
     r="30"
     transform="scale(1,-1)" />
  <path
     fill="#333333"
     d="M 31.999998,6.9983321 A 25.000002,25.000002 0 0 0 7,31.998334 25.000002,25.000002 0 0 0 31.999998,57.001668 25.000002,25.000002 0 0 0 57,31.998334 25.000002,25.000002 0 0 0 31.999998,6.9983321 m -1.150002,7.5100009 c 1.320002,-0.07167 2.205002,0.671666 2.468338,1.728333 0.03838,0.213333 0.118376,0.553333 0.273338,0.768333 0.43,0.555 0.98,0.983334 -0.51,1.025001 0,0.556666 -0.04,0.985 0.03838,1.455 0.866662,0.515 0.941662,-1.751667 2.24,-0.64 h 0.07838 c 0.07662,-0.04167 0.15665,-0.13 0.23665,-0.173334 V 18.46 h 0.746675 v 0.383333 h 1.37 v 0.218333 l 1.845,0.128334 v -0.6 h 0.471662 v 0.641666 l 1.256664,0.13 v -0.43 h 0.47 V 19.405 l 1.216674,0.08333 v -0.725 h 0.468326 v 0.766667 h 0.196675 v 0.68333 l 0.783325,0.08667 v 0.6 l -1.058325,0.255 h -2.941756 c -0.07838,0.3 -0.158325,0.683335 -0.195,0.768335 -0.316663,-0.04167 -0.471663,0.603333 -0.746663,0.603333 a 1.0000001,1.0000001 0 0 1 -0.158337,-0.258331 c 0.08,1.283334 0.55,2.393334 1.295,3.376667 l -0.781667,0.598333 a 7.8333339,7.8333339 0 0 1 -1.373337,-3.295001 c -0.2,0.258334 -0.2,0.556667 -0.238325,0.941667 0,0.256667 -0.196675,0.215 -0.433338,0.215 -0.585,-0.213333 -0.978337,0 -0.978337,0 -0.745,0.08333 -1.06,0.983333 -1.963326,1.496667 -0.115,0.04333 -0.153337,0.298333 -0.311674,0.255 l -0.116626,-0.085 c -0.513324,0.17 -1.691662,0.213333 -2.276662,0 0,0.556667 -0.08338,0.9 -0.236662,1.24 -0.16,0.726667 -0.07662,0.298333 -0.275,1.025 -0.07838,0.855 -0.353338,0.641667 -0.353338,1.025 -0.116626,0.513333 -0.233338,0.898334 -0.196676,1.366667 0.666676,0 0.665,0.04667 0.665,0.04667 0.67,0.428334 1.571676,1.75 1.966676,2.435 0.466662,0.683337 0.823325,0.983337 0.823325,1.923337 a 1.5000001,1.5000001 0 0 0 -0.473325,0.388334 c 0.903325,0.983333 1.961662,2.35 2.433325,3.333333 0.158337,0.341667 0.236675,0.77 0.315,1.195 0.196675,1.883334 -0.155,4.320001 -0.666663,4.875001 -0.07662,0.428333 0.47,1.07 0.783338,1.325 0.941663,0.728333 2.278325,2.136667 1.65,3.25 -1.371675,0.855 -2.75,-0.3 -3.768338,-1.026667 -0.355,-0.296666 -0.431662,-0.295 -0.468337,-0.683333 v -0.256667 c 0,-0.213333 -0.04338,-0.47 0.03838,-0.683333 0.116626,-0.3 0.03838,-0.6 0.03838,-0.856667 -0.158326,-0.171667 0.03838,-0.983333 -0.158326,-1.066667 -0.823337,-0.471666 -1.295,-1.883333 -1.53,-4.49 -0.940012,-2.008333 -2.866675,-3.378334 -3.926675,-5.303334 -0.275,0.13 -0.235,0.471667 -0.39,0.6 -0.903338,1.881667 -1.493338,3.803334 -1.923338,5.771667 -0.943332,2.691667 -1.686667,3.420001 -4.043332,3.933334 -0.156667,1.666667 1.57,1.111667 1.178333,2.351667 -0.705,0.213333 -0.706668,0.213333 -2.435,0 -0.391668,-0.256667 -0.743334,-1.326667 -0.901668,-1.838334 0,-0.13 -0.391666,0.08333 -0.43,0 a 3.1666669,3.1666669 0 0 1 -0.433332,-0.9 c -0.04167,-0.213333 0.511666,-0.34 0.433332,-0.466666 0.313334,-0.6 0.863334,-0.9 1.216668,-1.456667 0.195,-0.296667 0,-0.77 0.115,-0.983334 0.433332,-0.298333 1.533332,-1.666666 1.845,-2.306666 0.433332,-2.821667 1.021667,-4.576667 1.846667,-7.226668 0.07833,-0.94 -0.275,-2.138333 -0.195,-3.164999 0.03833,-1.153334 0.426665,-2.093334 0.625,-3.29 0.196665,-1.196668 0.355,-2.565 0.276665,-3.805 0.315005,-1.368335 0.980005,-3.076668 2.47333,-3.161668 0.116625,0 0.273337,0.04333 0.35,-0.08333 -0.115,-1.37 -0.468325,-3.381668 0.906675,-3.936668 a 4.3333336,4.3333336 0 0 1 1.455,-0.361667 z m 2.645002,6.583334 c -0.188326,0 -0.45,0.06333 -0.766664,0.321666 -0.153336,0.17 -0.47,0.338334 -0.393336,1.278334 0.433336,0 0.748336,0 1.023336,0.04333 1.016664,-0.77 1.960001,-0.168333 2.080001,-1.58 -0.748337,0.04332 -1.178337,-0.08668 -1.648337,-5e-6 0,0 -0.108378,-0.065 -0.295,-0.065 z"
     id="path6-6"
     style="fill:#fbfbfb;fill-opacity:1;stroke-width:1.66667" />
</svg>
