<?xml version="1.0" encoding="UTF-8" standalone="no"?>
<svg
   width="64"
   height="64"
   fill="none"
   style="-webkit-print-color-adjust:exact"
   version="1.1"
   id="svg4"
   sodipodi:docname="curseforge.svg"
   xml:space="preserve"
   inkscape:version="1.4.2 (ebf0e940d0, 2025-05-08)"
   xmlns:inkscape="http://www.inkscape.org/namespaces/inkscape"
   xmlns:sodipodi="http://sodipodi.sourceforge.net/DTD/sodipodi-0.dtd"
   xmlns="http://www.w3.org/2000/svg"
   xmlns:svg="http://www.w3.org/2000/svg"><sodipodi:namedview
     id="namedview4"
     pagecolor="#505050"
     bordercolor="#eeeeee"
     borderopacity="1"
     inkscape:showpageshadow="0"
     inkscape:pageopacity="0"
     inkscape:pagecheckerboard="0"
     inkscape:deskcolor="#505050"
     inkscape:zoom="3.2814174"
     inkscape:cx="-76.338962"
     inkscape:cy="78.319814"
     inkscape:window-width="2560"
     inkscape:window-height="1411"
     inkscape:window-x="0"
     inkscape:window-y="0"
     inkscape:window-maximized="1"
     inkscape:current-layer="svg4" /><defs
     id="defs4"><linearGradient
       id="a"
       x1="7.937"
       x2="7.937"
       y1="15.081"
       y2="1.852"
       gradientTransform="scale(3.7796)"
       gradientUnits="userSpaceOnUse"><stop
         offset="0"
         stop-color="#242424"
         id="stop1" /><stop
         offset="1"
         stop-color="#424242"
         id="stop2" /></linearGradient><linearGradient
       id="b"
       x1="25.75"
       x2="25.75"
       y1="52"
       y2="12"
       gradientUnits="userSpaceOnUse"><stop
         offset="0"
         stop-color="#cc9010"
         id="stop3" /><stop
         offset="1"
         stop-color="#ffc852"
         id="stop4" /></linearGradient><linearGradient
       id="linearGradient984"
       x1="7.9373002"
       x2="7.9373002"
       y1="15.417"
       y2="1.5149"
       gradientTransform="matrix(3.779602,0,0,3.779602,138.44053,-268.27789)"
       gradientUnits="userSpaceOnUse"><stop
         stop-color="#f55b00"
         offset="0"
         id="stop2-6" /><stop
         stop-color="#ffa627"
         offset="1"
         id="stop4-7" /></linearGradient></defs><path
     d="M 30.349038,2.5500143 8.8867932,15.759508 C 7.956374,16.332137 7.0000001,16.66591 7.0000001,17.791749 V 46.24347 c 0,1.12584 0.9792276,1.473673 1.8867931,2.032243 L 30.349038,61.485205 c 1.179246,0.733311 2.27619,0.637817 3.301927,0 L 55.113211,48.275713 C 56.0566,47.695083 57,47.36931 57,46.24347 V 17.791749 C 57,16.66591 56.020771,16.318077 55.113211,15.759508 L 33.650965,2.5500143 c -1.179245,-0.7333523 -2.122642,-0.7333523 -3.301927,0 z"
     fill="#2975e6"
     style="fill:#ff6227;fill-opacity:0.996078;stroke-width:3.63203;paint-order:stroke markers fill"
     id="path1" /><path
     id="rect8"
     style="opacity:1;fill:#fafafa;fill-opacity:1;stroke-width:0.143205"
     d="m 25.714732,19.183069 c -11.489693,0 -13.80713,0.0322 -13.711967,0.191036 0.06299,0.105104 0.791048,0.97965 1.618062,1.943347 l 1.503659,1.752037 0.07161,2.102495 0.0716,2.102218 2.935723,0.0923 c 6.866493,0.216232 10.096012,1.650166 10.096012,4.482178 0,1.395019 -0.642861,2.537706 -2.423034,4.306804 -0.793913,0.788975 -1.959064,1.782448 -2.589174,2.207946 -0.630103,0.425493 -1.168879,0.791338 -1.197109,0.812803 -0.08531,0.06487 -1.707217,5.497483 -1.641273,5.497483 0.03364,0 0.492612,-0.346602 1.020058,-0.770292 3.59545,-2.888136 7.726188,-4.294904 13.489603,-4.594053 l 1.646868,-0.08558 -1.145648,0.43409 c -1.774003,0.671924 -4.259884,1.952855 -5.457485,2.812093 -1.2733,0.913553 -2.633644,2.065972 -2.633644,2.231161 0,0.06373 4.131285,0.115794 9.180558,0.115794 8.043143,0 9.170365,-0.0262 9.099167,-0.211731 -0.04471,-0.116479 -0.436826,-1.357 -0.871542,-2.756716 -0.653306,-2.10353 -0.85742,-2.594655 -1.176132,-2.83139 -0.212077,-0.157527 -0.892347,-0.663446 -1.511775,-1.124391 -2.852465,-2.122648 -4.414707,-4.275985 -4.406376,-6.073382 0.0096,-2.075678 2.267478,-3.814745 6.154774,-4.7409 4.040282,-0.962604 6.685197,-2.327738 7.743747,-3.996897 C 51.811495,22.718081 52,22.36897 52,22.305633 c 0,-0.06334 -2.803254,-0.11524 -6.229458,-0.11524 h -6.229451 v -1.503659 -1.503665 z" /></svg>
