<?xml version="1.0" encoding="UTF-8" standalone="no"?>
<svg
   width="64"
   height="64"
   viewBox="0 0 16.933 16.933"
   version="1.1"
   id="svg3"
   sodipodi:docname="datespell.svg"
   xml:space="preserve"
   inkscape:version="1.3.2 (091e20ef0f, 2023-11-25, custom)"
   xmlns:inkscape="http://www.inkscape.org/namespaces/inkscape"
   xmlns:sodipodi="http://sodipodi.sourceforge.net/DTD/sodipodi-0.dtd"
   xmlns:xlink="http://www.w3.org/1999/xlink"
   xmlns="http://www.w3.org/2000/svg"
   xmlns:svg="http://www.w3.org/2000/svg"><defs
     id="defs3"><linearGradient
       id="linearGradient20"
       inkscape:collect="always"><stop
         style="stop-color:#0898bd;stop-opacity:1"
         offset="0"
         id="stop19" /><stop
         style="stop-color:#10b9b2;stop-opacity:1"
         offset="1"
         id="stop20" /></linearGradient><linearGradient
       id="linearGradient18"
       inkscape:collect="always"><stop
         style="stop-color:#1bd88a;stop-opacity:1"
         offset="0"
         id="stop17" /><stop
         style="stop-color:#0eb2b9;stop-opacity:1"
         offset="1"
         id="stop18" /></linearGradient><linearGradient
       id="linearGradient14"
       inkscape:collect="always"><stop
         style="stop-color:#fcf849;stop-opacity:1"
         offset="0"
         id="stop15" /><stop
         style="stop-color:#48de7e;stop-opacity:1"
         offset="1"
         id="stop16" /></linearGradient><linearGradient
       id="linearGradient12"
       inkscape:collect="always"><stop
         style="stop-color:#0daebf;stop-opacity:1"
         offset="0"
         id="stop12" /><stop
         style="stop-color:#017dfa;stop-opacity:1"
         offset="0.53129768"
         id="stop14" /><stop
         style="stop-color:#017dfa;stop-opacity:1"
         offset="1"
         id="stop13" /></linearGradient><linearGradient
       id="linearGradient893"
       x1="-106.56"
       x2="-60.509998"
       y1="15.282"
       y2="45.549"
       gradientUnits="userSpaceOnUse"><stop
         stop-color="#00e2f4"
         offset="0"
         id="stop1" /><stop
         stop-color="#2a94ec"
         stop-opacity=".99608"
         offset="1"
         id="stop2" /></linearGradient><linearGradient
       id="linearGradient901"
       x1="-64.713997"
       x2="-95.380997"
       y1="43.986"
       y2="22.948999"
       gradientUnits="userSpaceOnUse"><stop
         stop-color="#0ee3aa"
         offset="0"
         id="stop3" /><stop
         stop-color="#249aed"
         offset="1"
         id="stop4" /></linearGradient><linearGradient
       inkscape:collect="always"
       xlink:href="#linearGradient12"
       id="linearGradient13"
       x1="-32.533707"
       y1="-9.5409288"
       x2="-32.533707"
       y2="18.60911"
       gradientUnits="userSpaceOnUse" /><linearGradient
       inkscape:collect="always"
       xlink:href="#linearGradient14"
       id="linearGradient16"
       x1="-38.077759"
       y1="-3.8898482"
       x2="-20.300144"
       y2="-9.5409288"
       gradientUnits="userSpaceOnUse" /><linearGradient
       inkscape:collect="always"
       xlink:href="#linearGradient18"
       id="linearGradient17"
       x1="-20.300144"
       y1="-9.5409279"
       x2="-10.241241"
       y2="9.4815044"
       gradientUnits="userSpaceOnUse" /><linearGradient
       inkscape:collect="always"
       xlink:href="#linearGradient20"
       id="linearGradient19"
       x1="-17.595486"
       y1="0"
       x2="-10.241241"
       y2="9.4815044"
       gradientUnits="userSpaceOnUse" /></defs><sodipodi:namedview
     id="namedview3"
     pagecolor="#ffffff"
     bordercolor="#000000"
     borderopacity="0.25"
     inkscape:showpageshadow="2"
     inkscape:pageopacity="0.0"
     inkscape:pagecheckerboard="0"
     inkscape:deskcolor="#d1d1d1"
     inkscape:zoom="2.1765631"
     inkscape:cx="-59.267752"
     inkscape:cy="17.458718"
     inkscape:window-width="1920"
     inkscape:window-height="995"
     inkscape:window-x="0"
     inkscape:window-y="0"
     inkscape:window-maximized="1"
     inkscape:current-layer="svg3" /><g
     id="g26"><g
       id="g25"
       transform="matrix(0.51693703,0,0,0.51693703,20.947586,6.1226609)"><path
         style="fill:url(#linearGradient19);fill-opacity:1;stroke-width:0.264578;stroke-linecap:round;stroke-opacity:0.94902"
         d="M -10.241241,9.4815049 -16.467023,12.211373 -21.773225,-0.0297117 -17.595485,0 Z"
         id="path22"
         sodipodi:nodetypes="ccccc" /><path
         style="fill:url(#linearGradient17);fill-opacity:1;stroke-width:0.264578;stroke-linecap:round;stroke-opacity:0.94902"
         d="m -20.300145,-9.5409283 10.089294,6.6843209 -0.03039,12.3381123 L -17.595485,0 l -4.17774,-1.5308493 z"
         id="path23" /><path
         style="fill:url(#linearGradient16);fill-opacity:1;stroke-width:0.264578;stroke-linecap:round;stroke-opacity:0.94902"
         d="m -38.07776,-3.8898482 17.777615,-5.6510804 -4.196834,22.8208696 h -7.69291 z"
         id="path24" /><path
         style="fill:url(#linearGradient13);fill-opacity:1;stroke-width:0.264578;stroke-linecap:round;stroke-opacity:0.94902"
         d="m -32.533708,-9.5409288 -5.544052,21.4456008 6.575504,6.704437 7.244568,-0.04298 4.746059,-20.8009441 z"
         id="path25" /></g></g><g
     id="g22"><g
       id="g20"
       transform="matrix(0.51693703,0,0,0.51693703,20.947586,6.1226609)"><path
         style="fill:url(#linearGradient19);fill-opacity:1;stroke-width:0.264578;stroke-linecap:round;stroke-opacity:0.94902"
         d="M -10.241241,9.4815049 -16.467023,12.211373 -21.773225,-0.0297117 -17.595485,0 Z"
         id="path12"
         sodipodi:nodetypes="ccccc" /><path
         style="fill:url(#linearGradient17);fill-opacity:1;stroke-width:0.264578;stroke-linecap:round;stroke-opacity:0.94902"
         d="m -20.300145,-9.5409283 10.089294,6.6843209 -0.03039,12.3381123 L -17.595485,0 l -4.17774,-1.5308493 z"
         id="path11" /><path
         style="fill:url(#linearGradient16);fill-opacity:1;stroke-width:0.264578;stroke-linecap:round;stroke-opacity:0.94902"
         d="m -38.07776,-3.8898482 17.777615,-5.6510804 -4.196834,22.8208696 h -7.69291 z"
         id="path10" /><path
         style="fill:url(#linearGradient13);fill-opacity:1;stroke-width:0.264578;stroke-linecap:round;stroke-opacity:0.94902"
         d="m -32.533708,-9.5409288 -5.544052,21.4456008 6.575504,6.704437 7.244568,-0.04298 4.746059,-20.8009441 z"
         id="path9" /></g></g><g
     id="g21"><path
       d="m 4.497828,4.4978284 h 7.937344 V 12.435172 H 4.497828 Z"
       id="path7"
       style="stroke-width:0.264578" /><g
       fill="#ffffff"
       stroke-width="0.105"
       aria-label="DS"
       id="g3"
       transform="matrix(1.1829795,0,0,1.1829795,-1.5491987,-1.4049641)"><path
         d="m 6.348,6.429 v 1.867 h 0.283 q 0.484,0 0.738,-0.24 Q 7.625,7.816 7.625,7.359 7.625,6.904 7.371,6.666 7.117,6.428 6.631,6.429 Z M 5.559,5.832 h 0.832 q 0.697,0 1.037,0.1 0.343,0.1 0.587,0.337 0.215,0.207 0.32,0.477 0.104,0.271 0.104,0.613 0,0.347 -0.105,0.62 Q 8.23,8.249 8.014,8.456 7.769,8.694 7.424,8.794 7.08,8.892 6.391,8.892 H 5.56 Z m 5.614,0.096 V 6.576 Q 10.921,6.463 10.681,6.406 10.441,6.349 10.228,6.349 9.945,6.349 9.81,6.427 9.675,6.505 9.675,6.668 q 0,0.123 0.09,0.193 0.092,0.068 0.332,0.117 l 0.336,0.068 q 0.51,0.102 0.726,0.311 0.216,0.209 0.215,0.595 0,0.506 -0.302,0.754 -0.299,0.246 -0.916,0.246 -0.29,0 -0.584,-0.056 Q 9.279,8.841 8.986,8.732 V 8.066 q 0.293,0.156 0.566,0.236 0.274,0.078 0.528,0.078 0.259,0 0.396,-0.086 0.137,-0.086 0.137,-0.246 0,-0.144 -0.094,-0.221 -0.092,-0.078 -0.37,-0.14 L 9.843,7.619 Q 9.383,7.521 9.17,7.306 8.96,7.091 8.96,6.726 8.96,6.269 9.254,6.023 9.55,5.777 10.103,5.777 q 0.252,0 0.519,0.039 0.266,0.037 0.55,0.112 z"
         id="path3" /></g><path
       d="m 5.0269843,10.951346 h 3.105882 v 0.621176 h -3.105882 z"
       fill="#f9f9f9"
       id="path8"
       style="stroke-width:0.264578" /></g></svg>
