<?xml version="1.0" encoding="UTF-8" standalone="no"?>
<svg
   width="64"
   height="64"
   version="1.1"
   id="svg6"
   sodipodi:docname="davinci-panels.svg"
   inkscape:version="1.3.2 (091e20ef0f, 2023-11-25, custom)"
   xmlns:inkscape="http://www.inkscape.org/namespaces/inkscape"
   xmlns:sodipodi="http://sodipodi.sourceforge.net/DTD/sodipodi-0.dtd"
   xmlns:xlink="http://www.w3.org/1999/xlink"
   xmlns="http://www.w3.org/2000/svg"
   xmlns:svg="http://www.w3.org/2000/svg">
  <defs
     id="defs6">
    <linearGradient
       id="linearGradient44211"
       x1="4"
       x2="60.001999"
       y1="31.969999"
       y2="31.969999"
       gradientUnits="userSpaceOnUse"
       gradientTransform="translate(71,10)">
      <stop
         stop-color="#9ed580"
         stop-opacity=".99216"
         offset="0"
         id="stop9" />
      <stop
         stop-color="#b16974"
         offset="1"
         id="stop10" />
    </linearGradient>
    <radialGradient
       id="radialGradient24223"
       cx="32.000999"
       cy="5"
       r="28.000999"
       gradientTransform="matrix(1.5356,0,0,1.2341,53.86,8.8295)"
       gradientUnits="userSpaceOnUse">
      <stop
         stop-color="#52b1ec"
         offset="0"
         id="stop5" />
      <stop
         stop-color="#52b1ec"
         stop-opacity="0"
         offset="1"
         id="stop6" />
    </radialGradient>
    <radialGradient
       id="radialGradient20272"
       cx="60"
       cy="60"
       r="28.000999"
       gradientTransform="matrix(9.8211e-8,-1.9642,1.9642,1.1211e-7,13.147,187.85)"
       gradientUnits="userSpaceOnUse">
      <stop
         stop-color="#d55048"
         offset="0"
         id="stop3" />
      <stop
         stop-color="#d55048"
         stop-opacity="0"
         offset="1"
         id="stop4" />
    </radialGradient>
    <radialGradient
       id="radialGradient13706"
       cx="4"
       cy="59.971001"
       r="28.000999"
       gradientTransform="matrix(1.4642,0,0,2.1417,69.1431,-58.47)"
       gradientUnits="userSpaceOnUse">
      <stop
         stop-color="#cdd74e"
         offset="0"
         id="stop1" />
      <stop
         stop-color="#cdd74e"
         stop-opacity="0"
         offset="1"
         id="stop2" />
    </radialGradient>
    <linearGradient
       id="linearGradient28180"
       x1="30"
       x2="30"
       y1="55"
       y2="10"
       gradientUnits="userSpaceOnUse"
       gradientTransform="translate(73.2972,75.792481)">
      <stop
         stop-color="#19222c"
         offset="0"
         id="stop7" />
      <stop
         stop-color="#263852"
         offset="1"
         id="stop8" />
    </linearGradient>
    <linearGradient
       id="linearGradient79335"
       x1="15"
       x2="25"
       y1="35"
       y2="50"
       gradientUnits="userSpaceOnUse"
       gradientTransform="translate(73.2972,75.792481)">
      <stop
         stop-color="#ddeb62"
         offset="0"
         id="stop17" />
      <stop
         stop-color="#d9ce55"
         offset="1"
         id="stop18" />
    </linearGradient>
    <linearGradient
       id="linearGradient69319"
       x1="23.997"
       x2="40.707001"
       y1="22.802"
       y2="22.802"
       gradientTransform="translate(72.94509,75.792481)"
       gradientUnits="userSpaceOnUse">
      <stop
         stop-color="#64bdb8"
         offset="0"
         id="stop13" />
      <stop
         stop-color="#598bbc"
         offset="1"
         id="stop14" />
    </linearGradient>
    <radialGradient
       id="radialGradient76932"
       cx="32.352001"
       cy="17.966999"
       r="8.3552999"
       gradientTransform="matrix(0.91534,0,0,1.2,75.6841,71.232181)"
       gradientUnits="userSpaceOnUse">
      <stop
         stop-color="#6eebf9"
         offset="0"
         id="stop15" />
      <stop
         stop-color="#6eebf9"
         stop-opacity="0"
         offset="1"
         id="stop16" />
    </radialGradient>
    <filter
       id="filter77217"
       x="-0.27457884"
       y="-0.33061136"
       width="1.5491577"
       height="1.6612227"
       color-interpolation-filters="sRGB">
      <feGaussianBlur
         stdDeviation="1.3724366"
         id="feGaussianBlur16" />
    </filter>
    <linearGradient
       id="linearGradient61063"
       x1="35"
       x2="48"
       y1="36"
       y2="43"
       gradientUnits="userSpaceOnUse"
       gradientTransform="translate(73.2972,75.792481)">
      <stop
         stop-color="#f1b1b6"
         offset="0"
         id="stop11" />
      <stop
         stop-color="#e15862"
         stop-opacity=".98936"
         offset="1"
         id="stop12" />
    </linearGradient>
    <linearGradient
       id="linearGradient82797"
       x1="30"
       x2="20"
       y1="35"
       y2="40"
       gradientTransform="matrix(1,0,0,0.88616,-0.027923,4.0663)"
       gradientUnits="userSpaceOnUse">
      <stop
         stop-color="#ffffff"
         offset="0"
         id="stop19" />
      <stop
         stop-color="#ffffff"
         stop-opacity="0"
         offset="1"
         id="stop20" />
    </linearGradient>
    <linearGradient
       id="linearGradient944"
       x1="33.018002"
       x2="42.431999"
       y1="34.408001"
       y2="39.818001"
       gradientUnits="userSpaceOnUse"
       xlink:href="#linearGradient82797"
       gradientTransform="translate(73.2972,75.792481)" />
    <linearGradient
       id="linearGradient1377"
       x1="32.645"
       x2="32.645"
       y1="33.841999"
       y2="25.292"
       gradientTransform="matrix(0.85239,0,0,0.85239,77.7205,79.967981)"
       gradientUnits="userSpaceOnUse"
       xlink:href="#linearGradient82797" />
    <linearGradient
       gradientUnits="userSpaceOnUse"
       y2="43.96891"
       x2="44.996239"
       y1="6.0181603"
       x1="7.0454888"
       id="linearGradient1590"
       xlink:href="#linearGradient1588"
       inkscape:collect="always"
       gradientTransform="matrix(1.0026348,0,0,1.0026348,0.08801465,0.489461)" />
    <linearGradient
       id="linearGradient1588"
       inkscape:collect="always">
      <stop
         id="stop1584"
         offset="0"
         style="stop-color:#141414;stop-opacity:1" />
      <stop
         id="stop1586"
         offset="1"
         style="stop-color:#323232;stop-opacity:1" />
    </linearGradient>
  </defs>
  <sodipodi:namedview
     id="namedview6"
     pagecolor="#ffffff"
     bordercolor="#000000"
     borderopacity="0.25"
     inkscape:showpageshadow="2"
     inkscape:pageopacity="0.0"
     inkscape:pagecheckerboard="0"
     inkscape:deskcolor="#d1d1d1"
     inkscape:zoom="4"
     inkscape:cx="0.5"
     inkscape:cy="25.5"
     inkscape:window-width="1920"
     inkscape:window-height="995"
     inkscape:window-x="0"
     inkscape:window-y="0"
     inkscape:window-maximized="1"
     inkscape:current-layer="svg6" />
  <path
     d="m 7.5000707,4.5 c -1.661986,0 -3.000071,1.338087 -3.000071,3.000073 v 48.999855 c 0,1.661984 1.338085,3.000072 3.000071,3.000072 H 56.499921 C 58.16191,59.5 59.5,58.161912 59.5,56.499928 V 7.500073 C 59.5,5.838087 58.16191,4.5 56.499921,4.5 Z"
     style="fill:url(#linearGradient1590);fill-opacity:1;stroke:none;stroke-width:0.210553;stroke-linecap:round"
     id="rect1572" />
  <path
     id="circle16"
     style="fill:#2186ff;fill-opacity:1;stroke-width:1.1875"
     d="M 32 32 L 13 32 A 19 19 0 0 0 13.191406 34.681641 C 13.193067 34.693387 13.195584 34.705058 13.197266 34.716797 A 19 19 0 0 0 14.708984 39.873047 C 14.714308 39.884718 14.719262 39.896544 14.724609 39.908203 A 19 19 0 0 0 15.996094 42.236328 C 16.010316 42.258515 16.024751 42.280611 16.039062 42.302734 A 19 19 0 0 0 17.605469 44.396484 C 17.630454 44.425469 17.656484 44.45359 17.681641 44.482422 A 19 19 0 0 0 19.517578 46.318359 C 19.54641 46.343516 19.574531 46.369546 19.603516 46.394531 A 19 19 0 0 0 21.697266 47.960938 C 21.719389 47.975249 21.741485 47.989684 21.763672 48.003906 A 19 19 0 0 0 24.091797 49.275391 C 24.103456 49.280738 24.115282 49.285692 24.126953 49.291016 A 19 19 0 0 0 29.283203 50.802734 C 29.294942 50.804416 29.306613 50.806933 29.318359 50.808594 A 19 19 0 0 0 32 51 L 32 32 z " />
  <path
     id="path22"
     style="fill:#f54646;fill-opacity:1;stroke-width:1.1875"
     d="M 32 32 L 32 51 A 19 19 0 0 0 51 32 L 32 32 z " />
  <path
     id="path21"
     style="fill:#1ac63a;fill-opacity:1;stroke-width:1.1875"
     d="M 32,13 A 19,19 0 0 0 13,32 h 19 z" />
  <path
     id="path20"
     style="fill:#ffeb23;fill-opacity:1;stroke-width:1.1875"
     d="M 32 13 L 32 32 L 51 32 A 19 19 0 0 0 47.443359 20.9375 C 47.37428 20.841242 47.307151 20.743339 47.236328 20.648438 A 19 19 0 0 0 43.351562 16.763672 C 43.256661 16.692849 43.158758 16.62572 43.0625 16.556641 A 19 19 0 0 0 32 13 z " />
  <circle
     cx="32"
     cy="32"
     r="16"
     id="circle14"
     style="fill:#1a1a1a;fill-opacity:1" />
  <circle
     cx="32"
     cy="32"
     r="9"
     fill="#332f41"
     id="circle15"
     style="fill:#313131;fill-opacity:1" />
</svg>
