<?xml version="1.0" encoding="UTF-8" standalone="no"?>
<svg
   width="64"
   height="64"
   version="1.1"
   id="svg49"
   sodipodi:docname="de.haeckerfelix.AudioSharing.svg"
   xml:space="preserve"
   inkscape:version="1.4.2 (ebf0e940d0, 2025-05-08)"
   xmlns:inkscape="http://www.inkscape.org/namespaces/inkscape"
   xmlns:sodipodi="http://sodipodi.sourceforge.net/DTD/sodipodi-0.dtd"
   xmlns:xlink="http://www.w3.org/1999/xlink"
   xmlns="http://www.w3.org/2000/svg"
   xmlns:svg="http://www.w3.org/2000/svg"><sodipodi:namedview
     id="namedview49"
     pagecolor="#505050"
     bordercolor="#eeeeee"
     borderopacity="1"
     inkscape:showpageshadow="0"
     inkscape:pageopacity="0"
     inkscape:pagecheckerboard="0"
     inkscape:deskcolor="#505050"
     inkscape:zoom="4.1929222"
     inkscape:cx="10.493875"
     inkscape:cy="19.676015"
     inkscape:window-width="1920"
     inkscape:window-height="996"
     inkscape:window-x="0"
     inkscape:window-y="0"
     inkscape:window-maximized="1"
     inkscape:current-layer="svg49" /><defs
     id="defs29"><linearGradient
       id="linearGradient32"
       inkscape:collect="always"><stop
         style="stop-color:#f56050;stop-opacity:1"
         offset="0"
         id="stop32" /><stop
         style="stop-color:#c11e29;stop-opacity:1"
         offset="1"
         id="stop33" /></linearGradient><linearGradient
       id="linearGradient1"
       inkscape:collect="always"><stop
         style="stop-color:#f66151;stop-opacity:1"
         offset="0"
         id="stop30" /><stop
         style="stop-color:#c01c28;stop-opacity:1"
         offset="1"
         id="stop31" /></linearGradient><linearGradient
       id="e"
       x1="7.937"
       x2="7.937"
       y1="15.081"
       y2="1.852"
       gradientTransform="matrix(3.7796,0,0,3.7796,-1.8012336,-21.575593)"
       gradientUnits="userSpaceOnUse"><stop
         offset="0"
         stop-color="#b81e31"
         style="stop-color:#f66151;stop-opacity:1"
         id="stop1" /><stop
         offset="1"
         stop-color="#ff5c5c"
         style="stop-color:#f1e8e8;stop-opacity:1"
         id="stop2" /></linearGradient><linearGradient
       xlink:href="#a"
       id="g"
       x1="25.463"
       x2="102.648"
       y1="26.541"
       y2="26.541"
       gradientTransform="translate(26.554 5.699)scale(.44578)"
       gradientUnits="userSpaceOnUse"><stop
         offset="0"
         stop-color="#c01c28"
         id="stop3" /><stop
         offset=".078"
         stop-color="#a51d2d"
         id="stop4" /><stop
         offset=".104"
         stop-color="#f66151"
         id="stop5" /><stop
         offset=".12"
         stop-color="#c01c28"
         id="stop6" /><stop
         offset=".285"
         stop-color="#a51d2d"
         id="stop7" /><stop
         offset=".5"
         stop-color="#a51d2d"
         id="stop8" /><stop
         offset=".762"
         stop-color="#c01c28"
         id="stop9" /><stop
         offset=".874"
         stop-color="#c01c28"
         id="stop10" /><stop
         offset=".905"
         stop-color="#f66151"
         id="stop11" /><stop
         offset=".949"
         stop-color="#c01c28"
         id="stop12" /><stop
         offset="1"
         stop-color="#c01c28"
         id="stop13" /></linearGradient><linearGradient
       xlink:href="#b"
       id="i"
       x1="6"
       x2="10"
       y1="36"
       y2="36"
       gradientTransform="matrix(0.45310862,0,0,0.45310862,2.9755478,3.1096916)" /><linearGradient
       id="b"
       gradientUnits="userSpaceOnUse"><stop
         offset="0"
         stop-color="#77767b"
         id="stop14" /><stop
         offset="1"
         stop-color="#c0bfbc"
         id="stop15" /></linearGradient><linearGradient
       xlink:href="#b"
       id="j"
       x1="5"
       x2="11"
       y1="69"
       y2="69"
       gradientTransform="matrix(0.45310862,0,0,0.45310862,2.9755478,3.1096916)" /><linearGradient
       id="k"
       x1="5"
       x2="11"
       y1="241"
       y2="241"
       gradientTransform="matrix(0.45310862,0,0,0.12357878,2.9755478,-20.781731)"
       gradientUnits="userSpaceOnUse"><stop
         offset="0"
         stop-color="#c01c28"
         id="stop16" /><stop
         offset="1"
         stop-color="#e01b24"
         id="stop17" /></linearGradient><linearGradient
       xlink:href="#c"
       id="m"
       x1="6.217"
       x2="6.217"
       y1="99.971"
       y2="78.169"
       gradientTransform="matrix(0.45310862,0,0,0.45310862,2.9755478,3.1096916)" /><linearGradient
       id="c"
       gradientUnits="userSpaceOnUse"><stop
         offset="0"
         stop-color="#3d3846"
         id="stop18" /><stop
         offset="1"
         stop-color="#77767b"
         id="stop19" /></linearGradient><linearGradient
       xlink:href="#d"
       id="n"
       x1="18.57"
       x2="18.57"
       y1="113.453"
       y2="62.794"
       gradientTransform="matrix(0.45310862,0,0,0.45310862,2.9755478,3.1096916)" /><linearGradient
       id="d"
       gradientUnits="userSpaceOnUse"><stop
         offset="0"
         stop-color="#c01c28"
         id="stop20" /><stop
         offset="1"
         stop-color="#f66151"
         id="stop21" /></linearGradient><linearGradient
       xlink:href="#c"
       id="o"
       x1="6.217"
       x2="6.217"
       y1="271.971"
       y2="250.169"
       gradientTransform="matrix(-0.45310862,0,0,0.45310862,60.973614,-74.825845)" /><linearGradient
       xlink:href="#d"
       id="p"
       x1="18.57"
       x2="18.57"
       y1="285.453"
       y2="234.794"
       gradientTransform="matrix(-0.45310862,0,0,0.45310862,60.973614,-74.825845)" /><linearGradient
       id="s"
       x1="5"
       x2="11"
       y1="241"
       y2="241"
       gradientTransform="matrix(0.45310862,0,0,0.04119631,2.9755478,1.7913689)"
       gradientUnits="userSpaceOnUse"><stop
         offset="0"
         stop-color="#555458"
         id="stop22" /><stop
         offset="1"
         stop-color="#77767b"
         id="stop23" /></linearGradient><radialGradient
       id="h"
       cx="281.386"
       cy="-269.137"
       r="144.518"
       gradientTransform="matrix(0.12099702,0,0,0.04416432,-2.1381619,21.434072)"
       gradientUnits="userSpaceOnUse"><stop
         offset="0"
         stop-color="#f66151"
         id="stop24" /><stop
         offset="1"
         stop-color="#ed333b"
         id="stop25" /></radialGradient><radialGradient
       id="a"
       cx="282.138"
       cy="-218.921"
       r="128.519"
       gradientTransform="matrix(.131 .00431 -.00222 .0673 17.665 28.416)"
       gradientUnits="userSpaceOnUse"><stop
         offset="0"
         stop-color="#c01c28"
         id="stop26" /><stop
         offset="1"
         stop-color="#ed333b"
         id="stop27" /></radialGradient><radialGradient
       id="l"
       cx="6.021"
       cy="6.405"
       r="7.1"
       gradientTransform="matrix(0.45310862,0,0,0.45310862,2.9755478,3.1096916)"
       gradientUnits="userSpaceOnUse"><stop
         offset="0"
         stop-color="#f66151"
         id="stop28" /><stop
         offset="1"
         stop-color="#a51d2d"
         id="stop29" /></radialGradient><filter
       id="f"
       width="1.1453385"
       height="1.1549027"
       x="-0.072669272"
       y="-0.077451345"
       style="color-interpolation-filters:sRGB"><feGaussianBlur
         stdDeviation="1.64"
         id="feGaussianBlur29" /></filter><radialGradient
       inkscape:collect="always"
       xlink:href="#a"
       id="radialGradient1"
       gradientUnits="userSpaceOnUse"
       gradientTransform="matrix(0.13315364,0.00438086,-0.0022565,0.06840641,-6.0595874,26.200159)"
       cx="282.138"
       cy="-218.921"
       r="128.519" /><linearGradient
       inkscape:collect="always"
       xlink:href="#linearGradient1"
       id="linearGradient31"
       x1="18.381729"
       y1="30.297428"
       x2="18.381729"
       y2="55.669804"
       gradientUnits="userSpaceOnUse" /><linearGradient
       inkscape:collect="always"
       xlink:href="#linearGradient32"
       id="linearGradient33"
       x1="51.005386"
       y1="30.296412"
       x2="51.005386"
       y2="55.668789"
       gradientUnits="userSpaceOnUse" /></defs><g
     style="fill:#000;fill-opacity:1;filter:url(#f);opacity:.25"
     transform="translate(-24.015 -2.683)scale(1.01644)"
     id="g31"><path
       fill="none"
       stroke="#5e5c64"
       stroke-linejoin="bevel"
       stroke-width="4.458"
       d="M38.773 29.581c0-9.008 7.303-16.31 16.311-16.31 9.01 0 16.311 7.302 16.311 16.31"
       style="display:inline;fill:none;fill-opacity:1"
       id="path29" /><path
       fill="none"
       stroke="#5e5c64"
       stroke-linejoin="bevel"
       stroke-width="4.458"
       d="M71.4 29.503v8.313m-32.632-8.313v8.313"
       style="display:inline;fill:#000;fill-opacity:1"
       id="path30" /><path
       d="M30.12 6.59a2.451 2.451 0 0 0-1.337 4.506v1.736h.446v.891h-.446v.892h.446v16.94h-.446v9.514a3.2 3.2 0 0 0-.446 1.629v4.458c0 .857.34 1.677.946 2.283l2.62 2.62v.892a4.6 4.6 0 0 0 .091.902 4.45 4.45 0 0 0 3.04 3.356h.002q.208.065.424.11h.002q.218.045.442.067h.002q.225.023.456.023h5.349q.231 0 .456-.023h.002q.224-.023.44-.067h.001a5 5 0 0 0 .427-.11h.002q.209-.065.407-.15h.002a4.45 4.45 0 0 0 2.721-4.108V36.905a4.46 4.46 0 0 0-4.458-4.458h-5.35a4.46 4.46 0 0 0-4.457 4.458v.89l-.446.445v-6.685h-.446v-16.94h.446v-.892h-.446v-.891h.446v-1.736A2.451 2.451 0 0 0 30.12 6.59m24.988 3.567a19.72 19.72 0 0 0-15.768 7.882s-.074.132-.165.315l-.04.052c-.79 1.041-1.223 3.582.39 4.512l1.325.734a.985.985 0 0 0 1.346-.36c2.665-4.616 7.44-7.951 12.912-7.951s10.25 3.335 12.917 7.951a.98.98 0 0 0 1.341.36l1.251-.638c1.896-1.094 1.02-3.645.526-4.499l-.1-.128a7 7 0 0 0-.17-.352 19.72 19.72 0 0 0-15.765-7.878m13.35 22.29a4.46 4.46 0 0 0-4.459 4.458V52.95q0 .232.023.458a4.45 4.45 0 0 0 2.698 3.65h.002q.199.086.407.15h.002q.21.066.427.11h.002q.436.09.897.09h5.35q.23 0 .455-.023h.002q.225-.023.442-.067h.002a4.45 4.45 0 0 0 3.557-4.368v-.891l2.62-2.621a3.23 3.23 0 0 0 .946-2.283v-4.458a3.23 3.23 0 0 0-.945-2.283l-2.621-2.619v-.891a4.46 4.46 0 0 0-4.458-4.458z"
       style="fill:#000;fill-opacity:1;stroke-width:.445783"
       id="path31" /></g><path
     fill="none"
     stroke="#5e5c64"
     stroke-linejoin="bevel"
     stroke-width="4.531"
     d="m 15.395,27.385 c 0,-9.156 7.424,-16.58 16.58,-16.58 9.157,0 16.579,7.424 16.579,16.58"
     id="path32" /><path
     fill="url(#g)"
     d="m 31.999992,8.7804103 c -6.424917,0 -12.47985,2.2890227 -16.237629,7.2441677 -0.802988,1.059131 -1.241073,3.640888 0.397428,4.586177 l 1.347799,0.747084 a 1.000177,1.000177 0 0 0 1.366096,-0.365919 c 2.709829,-4.692903 7.562313,-8.081714 13.126306,-8.081714 5.563993,0 10.41851,3.388811 13.127323,8.080698 a 0.99916052,0.99916052 0 0 0 1.365078,0.366935 l 1.27055,-0.647472 c 1.927171,-1.111986 1.035753,-3.706957 0.534648,-4.57398 C 44.54896,11.110091 38.468616,8.7804103 31.999992,8.7804103 m 0,0"
     style="display:inline;fill:#b41d27;fill-opacity:1;stroke-width:0.453112"
     id="path33" /><path
     fill="none"
     stroke="#5e5c64"
     stroke-linejoin="bevel"
     stroke-width="4.531"
     d="m 48.56,27.305 v 8.45 m -33.17,-8.45 v 8.45"
     id="path34" /><path
     fill="url(#h)"
     d="M 31.999992,7.6409811 A 20.044197,20.044197 0 0 0 15.97175,15.653578 c 0,0 -1.799099,2.913117 0.437069,4.202979 l 0.713541,0.412675 a 1.0266044,1.0266044 0 0 0 1.40167,-0.376083 15.551532,15.551532 0 0 1 13.474946,-7.779832 15.551532,15.551532 0 0 1 13.474945,7.780848 c 0.284603,0.489924 0.91073,0.658653 1.402687,0.376083 l 0.734886,-0.423855 c 2.136557,-1.157726 0.410642,-4.197898 0.410642,-4.197898 A 20.044197,20.044197 0 0 0 31.998976,7.6409811 m 0,0"
     style="fill:url(#h);stroke-width:0.453112"
     id="path35" /><path
     fill="url(#a)"
     d="m 31.999992,10.32235 c -7.556215,0 -12.294858,3.894998 -15.487496,9.426464 a 1.01644,1.01644 0 0 0 -0.062,0.132138 l 0.672883,0.38828 a 1.0266044,1.0266044 0 0 0 1.401671,-0.376083 15.551532,15.551532 0 0 1 13.474945,-7.779832 15.551532,15.551532 0 0 1 13.474945,7.780848 c 0.284603,0.489924 0.91073,0.658653 1.402687,0.376083 l 0.672884,-0.390313 a 1.01644,1.01644 0 0 0 -0.06099,-0.131121 C 44.295867,14.217348 39.55519,10.32235 31.998976,10.32235 m 0,0"
     style="fill:url(#radialGradient1);stroke-width:0.453112"
     id="path36" /><path
     fill="url(#i)"
     d="M 5.6945248,8.5466291 H 7.5068373 V 30.296412 H 5.6945248 Z m 0,0"
     style="fill:url(#i);stroke-width:0.453112"
     id="path37" /><path
     fill="url(#j)"
     d="m 5.2411925,29.389748 h 2.718977 v 9.968227 h -2.718977 z m 0,0"
     style="fill:url(#j);stroke-width:0.453112"
     id="path38" /><path
     fill="#77767b"
     d="M 5.694,28.484 H 7.507 V 29.39 H 5.694 Z m 0,-1.813 h 1.813 v 0.907 H 5.694 Z m 0,-1.812 h 1.813 v 0.906 H 5.694 Z m 0,-1.813 h 1.813 v 0.907 H 5.694 Z m 0,-1.812 H 7.507 V 22.14 H 5.694 Z m 0,-1.812 h 1.813 v 0.906 H 5.694 Z m 0,0"
     id="path39" /><path
     fill="url(#k)"
     d="m 5.2411925,7.6409811 h 2.718977 v 2.7179609 h -2.718977 z m 0,0"
     style="fill:url(#k);stroke-width:0.453112"
     id="path40" /><path
     fill="url(#l)"
     d="m 9.0924837,6.5076505 a 2.4918027,2.4918027 0 1 1 -4.9836053,0 2.4918027,2.4918027 0 1 1 4.9836053,0 m 0,0"
     style="fill:url(#l);stroke-width:0.453112"
     id="path41" /><path
     fill="url(#m)"
     d="m 4.7878603,40.717972 v 4.531289 c 0,0.870073 0.3455896,1.70457 0.9615522,2.320533 l 5.3271625,5.327162 a 0.56514064,0.56514064 0 0 0 0.961552,-0.398445 V 33.467705 a 0.5641242,0.5641242 0 0 0 -0.961552,-0.398444 l -5.3271625,5.328178 a 3.2831012,3.2831012 0 0 0 -0.9615522,2.320533 m 0,0"
     style="fill:url(#m);stroke-width:0.453112"
     id="path42" /><path
     fill="url(#n)"
     d="m 12.943775,30.296412 h 5.437954 a 4.5302731,4.5302731 0 0 1 4.531289,4.53129 V 51.139531 A 4.5302731,4.5302731 0 0 1 18.381729,55.67082 H 12.943775 A 4.5302731,4.5302731 0 0 1 8.4135018,51.139531 V 34.827702 a 4.5302731,4.5302731 0 0 1 4.5302732,-4.53129 m 0,0"
     style="display:inline;fill:url(#linearGradient31);stroke-width:0.453112;fill-opacity:1"
     id="path43" /><path
     fill="#5e5c64"
     d="m 15.662752,30.296412 h 0.906664 V 55.67082 h -0.906664 z m 0,0"
     style="stroke-width:0.453112"
     id="path44" /><path
     fill="#77767b"
     d="m 5.2411925,33.014373 h 2.718977 v 0.906664 h -2.718977 z m 0,0"
     style="stroke-width:0.453112"
     id="path45" /><path
     fill="url(#o)"
     d="m 59.161302,40.717972 v 4.531289 c 0,0.870073 -0.34559,1.70457 -0.960536,2.320533 l -5.328179,5.327162 A 0.5641242,0.5641242 0 0 1 51.912052,52.498511 V 33.467705 a 0.5641242,0.5641242 0 0 1 0.960535,-0.398444 l 5.328179,5.328178 c 0.615962,0.615963 0.960536,1.449443 0.960536,2.320533 m 0,0"
     style="fill:url(#o);stroke-width:0.453112"
     id="path46" /><path
     fill="url(#p)"
     d="m 51.005387,30.296412 h -5.437954 a 4.5302731,4.5302731 0 0 0 -4.530273,4.53129 v 16.311829 a 4.5302731,4.5302731 0 0 0 4.53129,4.531289 h 5.437954 a 4.5302731,4.5302731 0 0 0 4.530273,-4.531289 V 34.827702 a 4.5302731,4.5302731 0 0 0 -4.53129,-4.53129 m 0,0"
     style="fill:url(#linearGradient33);stroke-width:0.453112;fill-opacity:1"
     id="path47" /><path
     fill="#5e5c64"
     d="m 47.380762,30.296412 h 0.906665 V 55.67082 h -0.906665 z m 0,0"
     style="stroke-width:0.453112"
     id="path48" /><path
     fill="url(#s)"
     d="m 5.2411925,11.265606 h 2.718977 v 0.905648 h -2.718977 z m 0,0"
     style="fill:url(#s);stroke-width:0.453112"
     id="path49" /></svg>
