<?xml version="1.0" encoding="UTF-8" standalone="no"?>
<svg
   xml:space="preserve"
   width="64"
   height="64"
   version="1.1"
   id="svg47"
   sodipodi:docname="de.k_bo.Televido.svg"
   inkscape:version="1.4.2 (ebf0e940d0, 2025-05-08)"
   xmlns:inkscape="http://www.inkscape.org/namespaces/inkscape"
   xmlns:sodipodi="http://sodipodi.sourceforge.net/DTD/sodipodi-0.dtd"
   xmlns:xlink="http://www.w3.org/1999/xlink"
   xmlns="http://www.w3.org/2000/svg"
   xmlns:svg="http://www.w3.org/2000/svg"><sodipodi:namedview
     id="namedview47"
     pagecolor="#505050"
     bordercolor="#eeeeee"
     borderopacity="1"
     inkscape:showpageshadow="0"
     inkscape:pageopacity="0"
     inkscape:pagecheckerboard="0"
     inkscape:deskcolor="#505050"
     inkscape:zoom="5.9296875"
     inkscape:cx="45.70224"
     inkscape:cy="13.238472"
     inkscape:window-width="1920"
     inkscape:window-height="996"
     inkscape:window-x="0"
     inkscape:window-y="0"
     inkscape:window-maximized="1"
     inkscape:current-layer="svg47" /><defs
     id="defs28"><linearGradient
       id="linearGradient49"
       x1="19.843"
       x2="33.837002"
       y1="-82.283997"
       y2="-72.245003"
       gradientTransform="matrix(3.5275403,0,0,3.5275403,78.645259,304.72062)"
       gradientUnits="userSpaceOnUse"><stop
         stop-color="#0c35f9"
         offset="0"
         id="stop48"
         style="stop-color:#865e3c;stop-opacity:1" /><stop
         stop-color="#2acbd7"
         offset="1"
         id="stop49"
         style="stop-color:#6d4c31;stop-opacity:1" /></linearGradient><linearGradient
       id="k"><stop
         offset="0"
         style="stop-color:#78acc2;stop-opacity:.547207"
         id="stop1" /><stop
         offset="1"
         style="stop-color:#5296b0;stop-opacity:1;"
         id="stop2" /></linearGradient><linearGradient
       id="f"
       x1="7.937"
       x2="7.937"
       y1="15.081"
       y2="1.852"
       gradientTransform="scale(3.7796)"
       gradientUnits="userSpaceOnUse"><stop
         offset="0"
         stop-color="#6c6c6c"
         style="stop-color:#4f3824;stop-opacity:1"
         id="stop3" /><stop
         offset="1"
         stop-color="#363636"
         style="stop-color:#865e3c;stop-opacity:1"
         id="stop4" /></linearGradient><linearGradient
       id="e"
       x1="7.937"
       x2="7.937"
       y1="15.081"
       y2="1.852"
       gradientTransform="scale(3.7796)"
       gradientUnits="userSpaceOnUse"><stop
         offset="0"
         stop-color="#6c6c6c"
         style="stop-color:#3f2d1d;stop-opacity:1"
         id="stop5" /><stop
         offset=".05"
         stop-color="#6c6c6c"
         style="stop-color:#553b26;stop-opacity:1"
         id="stop6" /><stop
         offset=".199"
         stop-color="#6c6c6c"
         style="stop-color:#63452c;stop-opacity:1"
         id="stop7" /><stop
         offset=".8"
         stop-color="#6c6c6c"
         style="stop-color:#63452c;stop-opacity:1"
         id="stop8" /><stop
         offset=".947"
         stop-color="#6c6c6c"
         style="stop-color:#513824;stop-opacity:1"
         id="stop9" /><stop
         offset="1"
         stop-color="#363636"
         style="stop-color:#3f2d1d;stop-opacity:1"
         id="stop10" /></linearGradient><linearGradient
       id="d"
       x1="7.937"
       x2="7.937"
       y1="15.081"
       y2="1.852"
       gradientTransform="scale(3.7796)"
       gradientUnits="userSpaceOnUse"><stop
         offset="0"
         stop-color="#6c6c6c"
         style="stop-color:#63452c;stop-opacity:1"
         id="stop11" /><stop
         offset="1"
         stop-color="#363636"
         style="stop-color:#865e3c;stop-opacity:1"
         id="stop12" /></linearGradient><linearGradient
       id="c"
       x1="27.671"
       x2="27.671"
       y1="1.981"
       y2="-2.019"
       gradientUnits="userSpaceOnUse"><stop
         offset="0"
         stop-color="#77767b"
         id="stop13" /><stop
         offset=".647"
         stop-color="#c1bfb9"
         id="stop14" /><stop
         offset=".925"
         stop-color="#9a9996"
         id="stop15" /><stop
         offset="1"
         stop-color="#77767b"
         id="stop16" /></linearGradient><linearGradient
       id="h"
       gradientUnits="userSpaceOnUse"><stop
         offset="0"
         stop-color="#fefefe"
         id="stop17" /><stop
         offset=".6"
         stop-color="#bbbab7"
         id="stop18" /><stop
         offset="1"
         stop-color="#5e5c64"
         id="stop19" /></linearGradient><linearGradient
       xlink:href="#a"
       id="v"
       x1="100"
       x2="112"
       y1="41"
       y2="41"
       gradientTransform="matrix(-0.58393,0,0,-0.58393,43.315353,66.42)" /><linearGradient
       id="a"
       gradientUnits="userSpaceOnUse"><stop
         offset="0"
         stop-color="#3f2d1d"
         id="stop20" /><stop
         offset=".25"
         stop-color="#3f2d1d"
         stop-opacity=".498"
         id="stop21" /><stop
         offset=".5"
         stop-color="#3f2d1d"
         id="stop22" /><stop
         offset=".75"
         stop-color="#3f2d1d"
         stop-opacity=".498"
         id="stop23" /><stop
         offset="1"
         stop-color="#3f2d1d"
         id="stop24" /></linearGradient><linearGradient
       xlink:href="#a"
       id="w"
       x1="0"
       x2="12"
       y1="0"
       y2="0"
       gradientTransform="matrix(0.58393,0,0,-0.58393,-22.084647,31.97)" /><linearGradient
       xlink:href="#b"
       id="x"
       x1="100"
       x2="112"
       y1="80.25"
       y2="80.25"
       gradientTransform="matrix(-0.58393,0,0,-0.58393,43.315353,99.586)" /><linearGradient
       id="b"
       gradientUnits="userSpaceOnUse"><stop
         offset="0"
         stop-color="#3f2d1d"
         id="stop25" /><stop
         offset=".155"
         stop-color="#63452c"
         id="stop26" /><stop
         offset=".818"
         stop-color="#63452c"
         id="stop27" /><stop
         offset="1"
         stop-color="#3f2d1d"
         id="stop28" /></linearGradient><linearGradient
       xlink:href="#b"
       id="y"
       x1="100"
       x2="112"
       y1="86.25"
       y2="86.25"
       gradientTransform="matrix(-0.58393,0,0,-0.58393,43.315353,99.586)" /><linearGradient
       xlink:href="#b"
       id="z"
       x1="100"
       x2="112"
       y1="92.25"
       y2="92.25"
       gradientTransform="matrix(-0.58393,0,0,-0.58393,43.315353,99.586)" /><linearGradient
       xlink:href="#c"
       id="r"
       x1="27.671"
       x2="27.671"
       y1="1.981"
       y2="-2.019"
       gradientTransform="matrix(-0.41295036,0.41295036,0.41295036,0.41295036,42.973418,5.3755819)"
       gradientUnits="userSpaceOnUse" /><linearGradient
       xlink:href="#c"
       id="p"
       x1="27.671"
       x2="27.671"
       y1="1.981"
       y2="-2.019"
       gradientTransform="matrix(0.41290086,0.41290086,-0.41290086,0.41290086,24.798168,5.3755743)"
       gradientUnits="userSpaceOnUse" /><linearGradient
       xlink:href="#d"
       id="o"
       x1="7.937"
       x2="7.937"
       y1="15.081"
       y2="1.852"
       gradientTransform="matrix(3.7796,0,0,3.7796,-135.70488,0)"
       gradientUnits="userSpaceOnUse" /><linearGradient
       xlink:href="#e"
       id="m"
       x1="1.058"
       x2="15.875"
       y1="1.05"
       y2="1.05"
       gradientTransform="matrix(3.7796,0,0,3.7796,-71.310647,0)"
       gradientUnits="userSpaceOnUse" /><linearGradient
       xlink:href="#e"
       id="t"
       x1="29.667"
       x2="34.339"
       y1="9.977"
       y2="9.977"
       gradientUnits="userSpaceOnUse"
       gradientTransform="translate(1.8803938,2.1439739)" /><linearGradient
       xlink:href="#f"
       id="u"
       x1="33.171"
       x2="33.171"
       y1="14.649"
       y2="9.977"
       gradientUnits="userSpaceOnUse"
       gradientTransform="translate(1.8803938,2.1439739)" /><radialGradient
       xlink:href="#h"
       id="q"
       cx="183.217"
       cy="-92.152"
       r="3"
       gradientTransform="matrix(0,0.57145,-0.6032,0,-31.465609,-100.31803)" /><radialGradient
       xlink:href="#h"
       id="s"
       cx="183.217"
       cy="-92.152"
       r="3"
       gradientTransform="matrix(0,0.57145,0.6032,0,99.232394,-100.31803)" /><radialGradient
       xlink:href="#k"
       id="n"
       cx="28.337"
       cy="38.198"
       r="19.272"
       fx="28.337"
       fy="38.198"
       gradientTransform="matrix(1,0,0,0.80671,-0.2269938,4.8286925)"
       gradientUnits="userSpaceOnUse" /><linearGradient
       id="linearGradient3490-3"
       x1="18.519802"
       x2="34.394886"
       y1="-72.245003"
       y2="-72.245003"
       gradientTransform="matrix(3.5275403,0,0,3.5275403,-61.329351,304.72062)"
       gradientUnits="userSpaceOnUse"><stop
         stop-color="#0c35f9"
         offset="0"
         id="stop1-3"
         style="stop-color:#67482d;stop-opacity:0.99215686" /><stop
         stop-color="#0c35f9"
         offset="0.05324831"
         id="stop50"
         style="stop-color:#7e5838;stop-opacity:1" /><stop
         stop-color="#0c35f9"
         offset="0.10476413"
         id="stop51"
         style="stop-color:#63452c;stop-opacity:1" /><stop
         stop-color="#0c35f9"
         offset="0.93890631"
         id="stop53"
         style="stop-color:#63452c;stop-opacity:1" /><stop
         stop-color="#0c35f9"
         offset="0.97294348"
         id="stop52"
         style="stop-color:#825b3a;stop-opacity:1" /><stop
         stop-color="#2acbd7"
         offset="1"
         id="stop2-6"
         style="stop-color:#6a4a2f;stop-opacity:1" /></linearGradient><linearGradient
       inkscape:collect="always"
       xlink:href="#linearGradient49"
       id="linearGradient48"
       gradientUnits="userSpaceOnUse"
       gradientTransform="matrix(3.5275403,0,0,3.5275403,-61.329329,307.04824)"
       x1="33.837002"
       y1="-82.618652"
       x2="33.837002"
       y2="-71.436394" /><linearGradient
       inkscape:collect="always"
       xlink:href="#linearGradient3490-3"
       id="linearGradient56"
       gradientUnits="userSpaceOnUse"
       gradientTransform="matrix(3.5275403,0,0,3.5275403,-61.329351,311.028)"
       x1="18.519802"
       y1="-72.245003"
       x2="34.394886"
       y2="-72.245003" /><linearGradient
       inkscape:collect="always"
       xlink:href="#b"
       id="linearGradient66"
       gradientTransform="matrix(0.58393,0,0,0.58393,-8.73796,-5.1174552)"
       x1="100"
       y1="92.25"
       x2="112"
       y2="92.25" /><linearGradient
       inkscape:collect="always"
       xlink:href="#b"
       id="linearGradient67"
       gradientTransform="matrix(0.58393,0,0,0.58393,-8.73796,-5.1174552)"
       x1="100"
       y1="86.25"
       x2="112"
       y2="86.25" /><linearGradient
       inkscape:collect="always"
       xlink:href="#b"
       id="linearGradient68"
       gradientTransform="matrix(0.58393,0,0,0.58393,-8.73796,-5.1174552)"
       x1="100"
       y1="80.25"
       x2="112"
       y2="80.25" /><linearGradient
       inkscape:collect="always"
       xlink:href="#a"
       id="linearGradient69"
       gradientTransform="matrix(-0.58393,0,0,0.58393,56.66104,31.262729)"
       x1="0"
       y1="0"
       x2="12"
       y2="0" /><linearGradient
       inkscape:collect="always"
       xlink:href="#a"
       id="linearGradient70"
       gradientTransform="matrix(0.58393,0,0,0.58393,-8.73896,-3.1872705)"
       x1="100"
       y1="41"
       x2="112"
       y2="41" /></defs><path
     fill="none"
     stroke="url(#c)"
     stroke-width="2.336"
     d="m 24.798394,5.3769739 8.257,8.2570001"
     style="stroke:url(#p)"
     id="path30" /><path
     fill="url(#q)"
     d="m 24.664394,6.5419739 a 1.752,1.752 0 1 1 -0.91,-3.383 1.752,1.752 0 0 1 0.91,3.383 m 0,0"
     style="fill:url(#q);stroke-width:0.583926"
     id="path31" /><path
     fill="none"
     stroke="url(#c)"
     stroke-width="2.336"
     d="m 42.968394,5.3769739 -8.257,8.2570001"
     style="stroke:url(#r)"
     id="path32" /><path
     fill="url(#s)"
     d="m 43.103394,6.5419739 a 1.752,1.752 0 1 0 0.909,-3.383 1.752,1.752 0 0 0 -0.91,3.383 m 0,0"
     style="fill:url(#s);stroke-width:0.583926"
     id="path33" /><path
     fill="#63452c"
     d="m 32.715394,9.7859739 h 2.336 c 0.646,0 1.168,0.5220001 1.168,1.1670001 v 2.336 c 0,0.646 -0.522,1.168 -1.168,1.168 h -2.336 a 1.167,1.167 0 0 1 -1.168,-1.168 v -2.335 c 0,-0.645 0.523,-1.1670001 1.168,-1.1670001 m 0,0"
     style="fill:url(#t);fill-opacity:1;stroke-width:0.583926"
     id="path34" /><path
     fill="#63452c"
     d="m 32.715394,12.120974 h 2.336 c 0.646,0 1.168,0.523 1.168,1.168 v 2.336 c 0,0.645 -0.522,1.168 -1.168,1.168 h -2.336 a 1.167,1.167 0 0 1 -1.168,-1.168 v -2.336 c 0,-0.645 0.523,-1.168 1.168,-1.168 m 0,0"
     style="fill:url(#u);fill-opacity:1;stroke-width:0.583926"
     id="path35" /><path
     id="rect7"
     style="fill:url(#linearGradient56)"
     d="m 4,52.252691 v 3.980469 c 0,1.551161 1.24962,2.800781 2.80078,2.800781 H 57.19922 C 58.75038,59.033942 60,57.784321 60,56.23316 v -3.980469 c 0,1.551161 -1.24962,2.800782 -2.80078,2.800782 H 6.80078 C 5.24962,55.053473 4,53.803852 4,52.252691 Z" /><rect
     width="38.543999"
     height="31.094"
     x="8.8370056"
     y="20.096693"
     ry="2.6040001"
     style="fill:#99c1f1;fill-opacity:1;stroke-width:5.297;stroke-linecap:round;stroke-linejoin:round;paint-order:markers stroke fill"
     id="rect29" /><path
     id="rect48"
     style="fill:url(#linearGradient48)"
     d="M 6.8007812 12.121094 C 5.2496205 12.121094 4 13.370714 4 14.921875 L 4 52.253906 C 4 53.805067 5.2496205 55.052734 6.8007812 55.052734 L 57.199219 55.052734 C 58.750379 55.052734 60 53.805067 60 52.253906 L 60 14.921875 C 60 13.370714 58.750379 12.121094 57.199219 12.121094 L 6.8007812 12.121094 z M 12.896484 21.455078 L 43.320312 21.455078 C 44.636908 21.455078 45.697266 22.515436 45.697266 23.832031 L 45.697266 47.455078 C 45.697266 48.771674 44.636908 49.832031 43.320312 49.832031 L 12.896484 49.832031 C 11.579889 49.832031 10.521484 48.771674 10.521484 47.455078 L 10.521484 23.832031 C 10.521484 22.515436 11.579889 21.455078 12.896484 21.455078 z " /><path
     d="m 27.941007,20.240692 c -16.648,0 -17.152,0.551 -17.656,1.103 -0.5050004,0.55 -1.0100004,1.101 -1.0100004,14.328 0,13.227 0.505,13.777 1.0100004,14.328 0.504,0.55 1.008,1.101 17.656,1.101 16.648,0 17.154,-0.55 17.658,-1.101 0.504,-0.551 1.008,-1.102 1.008,-14.328 0,-13.227 -0.503,-13.777 -1.008,-14.328 -0.504,-0.552 -1.01,-1.104 -17.658,-1.104 m 0,1.103 c 12.612,0 14.126,0.55 15.135,1.101 1.009,0.551 2.523,1.103 2.523,13.227 0,12.124 -1.514,12.675 -2.523,13.226 -1.009,0.551 -2.523,1.104 -15.135,1.104 -12.612,0 -14.126,-0.55 -15.135,-1.102 -1.009,-0.55 -2.521,-1.102 -2.521,-13.226 0,-12.124 1.512,-12.676 2.521,-13.227 1.01,-0.551 2.523,-1.101 15.135,-1.101"
     style="fill:#422d1c;fill-opacity:1;stroke-width:0.527279"
     id="path36" /><path
     fill="url(#v)"
     d="m 53.15704,20.752729 a 3.504,3.504 0 0 1 3.504,3.503 v 1.168 a 3.504,3.504 0 0 1 -7.007,0 v -1.168 a 3.504,3.504 0 0 1 3.503,-3.503 m 0,0"
     style="fill:url(#linearGradient70);stroke-width:0.583926"
     id="path56" /><path
     fill="#63452c"
     d="m 56.66104,24.255729 a 3.504,3.504 0 0 1 -7.007,0 3.504,3.504 0 0 1 7.007,0 m 0,0"
     style="stroke-width:0.583926"
     id="path57" /><path
     fill="#3f2d1d"
     d="m 52.28104,22.795729 a 0.585,0.585 0 0 1 -1.168,0 0.585,0.585 0 0 1 1.168,0 m 0,0"
     style="stroke-width:0.583926"
     id="path58" /><path
     fill="url(#w)"
     d="m 53.15704,31.262729 a 3.504,3.504 0 0 0 -3.503,3.504 v 1.168 a 3.504,3.504 0 0 0 7.007,0 v -1.168 a 3.504,3.504 0 0 0 -3.504,-3.504 m 0,0"
     style="fill:url(#linearGradient69);stroke-width:0.583926"
     id="path59" /><path
     fill="#63452c"
     d="m 49.65404,34.766729 a 3.504,3.504 0 0 0 7.007,0 3.504,3.504 0 0 0 -7.007,0 m 0,0"
     style="stroke-width:0.583926"
     id="path60" /><path
     fill="#3f2d1d"
     d="m 50.82304,41.012545 h 4.67 c 1.557333,0 1.557333,2.336 0,2.336 h -4.67 c -1.557333,0 -1.557333,-2.336 0,-2.336"
     style="stroke-width:0.583926"
     id="path61"
     sodipodi:nodetypes="csssc" /><path
     fill="url(#x)"
     d="m 50.82304,41.012545 a 1.164,1.164 0 0 0 -1.13,1.46 c 0.13,-0.504 0.584,-0.876 1.13,-0.876 h 4.67 c 0.546,0 1,0.372 1.13,0.876 a 1.164,1.164 0 0 0 -1.13,-1.46 z m 0,0"
     style="fill:url(#linearGradient68);stroke-width:0.583926"
     id="path62" /><path
     fill="#3f2d1d"
     d="m 50.82304,44.516545 h 4.67 a 1.168,1.168 0 1 1 0,2.336 h -4.67 a 1.168,1.168 0 1 1 0,-2.336 m 0,0"
     style="stroke-width:0.583926"
     id="path63" /><path
     fill="url(#y)"
     d="m 50.82304,44.516545 a 1.164,1.164 0 0 0 -1.13,1.46 c 0.13,-0.504 0.584,-0.876 1.13,-0.876 h 4.67 c 0.546,0 1,0.372 1.13,0.876 a 1.164,1.164 0 0 0 -1.13,-1.46 z m 0,0"
     style="fill:url(#linearGradient67);stroke-width:0.583926"
     id="path64" /><path
     fill="#3f2d1d"
     d="m 50.82304,48.019545 h 4.67 a 1.168,1.168 0 1 1 0,2.336 h -4.67 a 1.168,1.168 0 1 1 0,-2.336 m 0,0"
     style="stroke-width:0.583926"
     id="path65" /><path
     fill="url(#z)"
     d="m 50.82304,48.019545 a 1.164,1.164 0 0 0 -1.13,1.46 c 0.13,-0.504 0.584,-0.876 1.13,-0.876 h 4.67 c 0.546,0 1,0.372 1.13,0.876 a 1.164,1.164 0 0 0 -1.13,-1.46 z m 0,0"
     style="fill:url(#linearGradient66);stroke-width:0.583926"
     id="path66" /><path
     fill="#3f2d1d"
     d="m 55.20104,33.306729 a 0.585,0.585 0 0 1 -1.168,0 0.585,0.585 0 0 1 1.168,0 m 0,0"
     style="stroke-width:0.583926"
     id="path70" /></svg>
