<?xml version="1.0" encoding="UTF-8" standalone="no"?>
<svg
   width="64"
   height="64"
   version="1.1"
   id="svg4"
   sodipodi:docname="de.schmidhuberj.Flare.svg"
   xml:space="preserve"
   inkscape:version="1.4.2 (ebf0e940d0, 2025-05-08)"
   xmlns:inkscape="http://www.inkscape.org/namespaces/inkscape"
   xmlns:sodipodi="http://sodipodi.sourceforge.net/DTD/sodipodi-0.dtd"
   xmlns:xlink="http://www.w3.org/1999/xlink"
   xmlns="http://www.w3.org/2000/svg"
   xmlns:svg="http://www.w3.org/2000/svg"><sodipodi:namedview
     id="namedview4"
     pagecolor="#505050"
     bordercolor="#eeeeee"
     borderopacity="1"
     inkscape:showpageshadow="0"
     inkscape:pageopacity="0"
     inkscape:pagecheckerboard="0"
     inkscape:deskcolor="#505050"
     showguides="true"
     inkscape:zoom="11.859375"
     inkscape:cx="44.268775"
     inkscape:cy="21.628458"
     inkscape:window-width="1920"
     inkscape:window-height="996"
     inkscape:window-x="0"
     inkscape:window-y="0"
     inkscape:window-maximized="1"
     inkscape:current-layer="svg4" /><defs
     id="defs4"><linearGradient
       id="a"
       x1="2.068"
       x2="14.836"
       y1="2.05"
       y2="14.895"
       gradientTransform="scale(3.7796)"
       gradientUnits="userSpaceOnUse"><stop
         offset="0"
         stop-color="#ff7800"
         id="stop1" /><stop
         offset="1"
         stop-color="#f9dc55"
         id="stop2" /></linearGradient><linearGradient
       id="b"
       x1="48"
       x2="80"
       y1="100"
       y2="32"
       gradientTransform="matrix(0.50892046,0,0,0.50892046,-0.5715239,-5.6595384)"
       gradientUnits="userSpaceOnUse"><stop
         offset="0"
         stop-color="#3584e4"
         id="stop3" /><stop
         offset="1"
         stop-color="#62a0ea"
         id="stop4" /></linearGradient><linearGradient
       inkscape:collect="always"
       xlink:href="#a"
       id="linearGradient6"
       gradientUnits="userSpaceOnUse"
       gradientTransform="matrix(5.0604188,0,0,5.0604188,-10.828135,-15.871054)"
       x1="2.068"
       y1="2.05"
       x2="14.836"
       y2="14.895" /><linearGradient
       inkscape:collect="always"
       xlink:href="#b"
       id="linearGradient8"
       gradientUnits="userSpaceOnUse"
       gradientTransform="matrix(0.50892046,0,0,0.50892046,-0.5715239,-7.4402449)"
       x1="48"
       y1="100"
       x2="80"
       y2="32" /></defs><path
     fill="url(#b)"
     d="M 11.643048,6.5563727 A 8.1403707,8.1403707 0 0 0 3.5,14.696744 v 26.464238 a 8.1443873,8.1443873 0 0 0 8.143048,8.143048 h 2.037771 c 1.124656,0 2.033754,0.911775 2.033754,2.03777 v 3.561413 a 2.5438658,2.5438658 0 0 0 4.283066,1.853005 l 6.881827,-6.466775 A 3.6149672,3.6149672 0 0 1 29.364421,49.30403 H 52.356952 A 8.1443873,8.1443873 0 0 0 60.5,41.160982 V 14.696744 A 8.1403707,8.1403707 0 0 0 52.356952,6.5563727 Z M 31.959164,16.919279 c 0.757805,-0.01205 1.33486,0.38158 1.662885,0.722994 0.328025,0.33338 0.523501,0.672116 0.709605,1.02424 0.362835,0.702911 0.642661,1.484815 0.911775,2.235925 0.27447,0.745754 0.543584,1.462053 0.76316,1.885138 0.03079,0.0656 0.03079,0.05355 0.06025,0.101755 h 5.49475 c 0.661405,0.0067 1.245156,0.40434 1.467409,1.006835 0.247692,0.689521 0.156649,1.342893 -0.05757,1.911916 a 4.4182933,4.4182933 0 0 1 -0.421747,0.826087 c -0.45254,0.697555 -1.025579,1.274611 -1.59728,1.816856 -0.573039,0.548939 -1.146078,1.051018 -1.563808,1.456698 -0.302586,0.289197 -0.492706,0.575717 -0.546261,0.625255 0,0.06694 -0.01205,0.314636 0.112465,0.740399 0.07096,0.243675 0.170038,0.523501 0.28652,0.826087 0.120499,0.307941 0.257064,0.641322 0.392291,0.980058 0.267775,0.674793 0.548939,1.379043 0.674794,2.160947 0.07364,0.467268 0.07632,1.033613 -0.0964,1.583891 a 2.5438658,2.5438658 0 0 1 -0.806004,1.211683 c -0.54894,0.398986 -1.202312,0.45388 -1.668241,0.398986 a 4.0166303,4.0166303 0 0 1 -1.186244,-0.349447 c -0.7163,-0.315975 -1.379044,-0.752449 -2.040449,-1.182228 -0.661405,-0.435135 -1.29871,-0.875626 -1.807483,-1.174195 -0.247692,-0.147277 -0.492707,-0.232965 -0.63195,-0.285181 -0.147277,0.05222 -0.398985,0.141921 -0.661405,0.290536 -0.519484,0.29857 -1.18089,0.728349 -1.854345,1.158129 -0.680149,0.42844 -1.365654,0.859558 -2.099358,1.168839 a 4.1505179,4.1505179 0 0 1 -1.200973,0.34543 c -0.459234,0.05355 -1.091184,0.01205 -1.638785,-0.358819 a 2.1422028,2.1422028 0 0 1 -0.79797,-1.04834 2.6777535,2.6777535 0 0 1 -0.101755,-0.38158 3.3471919,3.3471919 0 0 1 0.0094,-1.199634 c 0.120499,-0.745754 0.365513,-1.46607 0.610528,-2.182369 0.133888,-0.382919 0.267775,-0.759143 0.388274,-1.111268 0.10711,-0.301247 0.200832,-0.589105 0.273131,-0.832781 0.08703,-0.302586 0.09372,-0.569022 0.10711,-0.677472 -0.0964,-0.143259 -0.27447,-0.417729 -0.522162,-0.712282 -0.401663,-0.46459 -0.927841,-1.02558 -1.452681,-1.610669 -0.52484,-0.589105 -1.041646,-1.1916 -1.45402,-1.830244 -0.151293,-0.234304 -0.313297,-0.483335 -0.444507,-0.757804 a 2.302868,2.302868 0 0 1 -0.123177,-1.760623 1.553097,1.553097 0 0 1 1.499542,-1.06173 l 5.181453,0.01339 c 0.07766,-0.113804 0.0482,-0.0723 0.174054,-0.358819 0.231626,-0.518145 0.480657,-1.22775 0.755127,-1.937355 0.274469,-0.71496 0.555633,-1.437953 0.949263,-2.094003 0.196815,-0.328025 0.41773,-0.642661 0.757804,-0.946586 0.346769,-0.305264 0.876965,-0.615883 1.533014,-0.633288 z"
     id="path4"
     style="fill:url(#b);stroke-width:1.33888" /><path
     fill="url(#b)"
     d="M 11.643048,6.5563727 A 8.1403707,8.1403707 0 0 0 3.5,14.696744 v 26.464238 a 8.1443873,8.1443873 0 0 0 8.143048,8.143048 h 2.037771 c 1.124656,0 2.033754,0.911775 2.033754,2.03777 v 3.561413 a 2.5438658,2.5438658 0 0 0 4.283066,1.853005 l 6.881827,-6.466775 A 3.6149672,3.6149672 0 0 1 29.364421,49.30403 H 52.356952 A 8.1443873,8.1443873 0 0 0 60.5,41.160982 V 14.696744 A 8.1403707,8.1403707 0 0 0 52.356952,6.5563727 Z M 31.959164,16.919279 c 0.757805,-0.01205 1.33486,0.38158 1.662885,0.722994 0.328025,0.33338 0.523501,0.672116 0.709605,1.02424 0.362835,0.702911 0.642661,1.484815 0.911775,2.235925 0.27447,0.745754 0.543584,1.462053 0.76316,1.885138 0.03079,0.0656 0.03079,0.05355 0.06025,0.101755 h 5.49475 c 0.661405,0.0067 1.245156,0.40434 1.467409,1.006835 0.247692,0.689521 0.156649,1.342893 -0.05757,1.911916 a 4.4182933,4.4182933 0 0 1 -0.421747,0.826087 c -0.45254,0.697555 -1.025579,1.274611 -1.59728,1.816856 -0.573039,0.548939 -1.146078,1.051018 -1.563808,1.456698 -0.302586,0.289197 -0.492706,0.575717 -0.546261,0.625255 0,0.06694 -0.01205,0.314636 0.112465,0.740399 0.07096,0.243675 0.170038,0.523501 0.28652,0.826087 0.120499,0.307941 0.257064,0.641322 0.392291,0.980058 0.267775,0.674793 0.548939,1.379043 0.674794,2.160947 0.07364,0.467268 0.07632,1.033613 -0.0964,1.583891 a 2.5438658,2.5438658 0 0 1 -0.806004,1.211683 c -0.54894,0.398986 -1.202312,0.45388 -1.668241,0.398986 a 4.0166303,4.0166303 0 0 1 -1.186244,-0.349447 c -0.7163,-0.315975 -1.379044,-0.752449 -2.040449,-1.182228 -0.661405,-0.435135 -1.29871,-0.875626 -1.807483,-1.174195 -0.247692,-0.147277 -0.492707,-0.232965 -0.63195,-0.285181 -0.147277,0.05222 -0.398985,0.141921 -0.661405,0.290536 -0.519484,0.29857 -1.18089,0.728349 -1.854345,1.158129 -0.680149,0.42844 -1.365654,0.859558 -2.099358,1.168839 a 4.1505179,4.1505179 0 0 1 -1.200973,0.34543 c -0.459234,0.05355 -1.091184,0.01205 -1.638785,-0.358819 a 2.1422028,2.1422028 0 0 1 -0.79797,-1.04834 2.6777535,2.6777535 0 0 1 -0.101755,-0.38158 3.3471919,3.3471919 0 0 1 0.0094,-1.199634 c 0.120499,-0.745754 0.365513,-1.46607 0.610528,-2.182369 0.133888,-0.382919 0.267775,-0.759143 0.388274,-1.111268 0.10711,-0.301247 0.200832,-0.589105 0.273131,-0.832781 0.08703,-0.302586 0.09372,-0.569022 0.10711,-0.677472 -0.0964,-0.143259 -0.27447,-0.417729 -0.522162,-0.712282 -0.401663,-0.46459 -0.927841,-1.02558 -1.452681,-1.610669 -0.52484,-0.589105 -1.041646,-1.1916 -1.45402,-1.830244 -0.151293,-0.234304 -0.313297,-0.483335 -0.444507,-0.757804 a 2.302868,2.302868 0 0 1 -0.123177,-1.760623 1.553097,1.553097 0 0 1 1.499542,-1.06173 l 5.181453,0.01339 c 0.07766,-0.113804 0.0482,-0.0723 0.174054,-0.358819 0.231626,-0.518145 0.480657,-1.22775 0.755127,-1.937355 0.274469,-0.71496 0.555633,-1.437953 0.949263,-2.094003 0.196815,-0.328025 0.41773,-0.642661 0.757804,-0.946586 0.346769,-0.305264 0.876965,-0.615883 1.533014,-0.633288 z"
     id="path7"
     style="fill:#1c71d8;stroke-width:1.33888;fill-opacity:1" /><path
     id="path8"
     style="fill:url(#linearGradient8);stroke-width:1.33888"
     d="M 11.642578 4.7753906 A 8.1403707 8.1403707 0 0 0 3.5 12.916016 L 3.5 39.380859 A 8.1443873 8.1443873 0 0 0 11.642578 47.523438 L 13.681641 47.523438 C 14.806297 47.523438 15.714844 48.434552 15.714844 49.560547 L 15.714844 53.123047 A 2.5438658 2.5438658 0 0 0 19.998047 54.974609 L 26.878906 48.507812 A 3.6149672 3.6149672 0 0 1 29.365234 47.523438 L 52.357422 47.523438 A 8.1443873 8.1443873 0 0 0 60.5 39.380859 L 60.5 12.916016 A 8.1403707 8.1403707 0 0 0 52.357422 4.7753906 L 11.642578 4.7753906 z M 31.958984 15.138672 C 32.716789 15.126622 33.293069 15.519914 33.621094 15.861328 C 33.949119 16.194708 34.145927 16.534595 34.332031 16.886719 C 34.694866 17.58963 34.975027 18.369984 35.244141 19.121094 C 35.518611 19.866848 35.786283 20.584727 36.005859 21.007812 C 36.036649 21.073412 36.036946 21.06117 36.066406 21.109375 L 41.5625 21.109375 C 42.223905 21.116075 42.807044 21.512739 43.029297 22.115234 C 43.031573 22.121572 43.032937 22.128434 43.035156 22.134766 L 21.119141 22.134766 A 1.553097 1.553097 0 0 1 22.609375 21.101562 L 27.789062 21.113281 C 27.866723 20.999477 27.83899 21.042378 27.964844 20.755859 C 28.19647 20.237714 28.44428 19.527964 28.71875 18.818359 C 28.993219 18.103399 29.274339 17.380659 29.667969 16.724609 C 29.864784 16.396584 30.085707 16.081269 30.425781 15.777344 C 30.77255 15.47208 31.302935 15.161936 31.958984 15.144531 L 31.958984 15.138672 z " /><path
     id="path10"
     style="fill:#1c71d8;fill-opacity:1;stroke-width:1.41937"
     d="m 31.866582,12.745354 v 0.0055 c -0.69549,0.01846 -1.256892,0.347257 -1.624508,0.670871 -0.360519,0.322196 -0.59529,0.655791 -0.803937,1.003535 -0.417294,0.695489 -0.715337,1.462591 -1.006307,2.220532 -0.29097,0.752263 -0.552843,1.504903 -0.798393,2.054196 -0.133421,0.303745 -0.103416,0.259145 -0.185738,0.379791 l -5.491721,-0.01391 c -0.719355,-0.01279 -1.363711,0.442969 -1.591241,1.125512 -0.205946,0.614536 -0.159069,1.285745 0.130297,1.86569 0.139098,0.290969 0.310885,0.555547 0.471273,0.803935 0.437164,0.677039 0.984951,1.316018 1.541343,1.940537 0.55639,0.620264 1.964741,1.215155 2.39055,1.707674 0.262583,0.31226 0.452246,0.602166 0.55444,0.754039 -0.01419,0.114968 -0.02141,0.397223 -0.113662,0.718 -0.07665,0.258322 -0.177532,0.564973 -0.291081,0.88433 -0.127743,0.373293 -0.26835,0.772245 -0.410286,1.178184 -0.259743,0.759359 -0.520951,1.521425 -0.648694,2.312012 -0.07943,0.420176 -0.08228,0.851252 -0.0084,1.272437 0.02511,0.137321 0.06032,0.272601 0.105344,0.404742 0.158804,0.450549 0.455645,0.839547 0.848293,1.111652 0.580521,0.393163 1.248553,0.436565 1.735396,0.379789 0.441121,-0.05682 0.871077,-0.180203 1.275209,-0.365929 0.777812,-0.327874 1.502266,-0.784975 2.223303,-1.239171 0.71394,-0.455618 0.568335,-0.911567 1.119048,-1.228085 0.278196,-0.157549 0.542465,-0.252359 0.698595,-0.307714 0.147614,0.05536 0.408288,0.146041 0.670871,0.30217 0.539359,0.316519 0.139876,0.783423 0.841041,1.244717 0.701165,0.455615 1.405725,0.918063 2.165086,1.253031 0.396942,0.187841 0.820552,0.313148 1.255805,0.371476 0.493939,0.05819 1.186723,-0.0011 1.768662,-0.424147 0.403439,-0.335648 0.700177,-0.781719 0.853836,-1.283526 0.183099,-0.583361 0.180637,-1.184595 0.102576,-1.679953 -0.13342,-0.828907 -0.431356,-1.574473 -0.715228,-2.289834 -0.143356,-0.359099 -0.288085,-0.713119 -0.415828,-1.039574 -0.123485,-0.320777 -0.226945,-0.61769 -0.302171,-0.876014 -0.132001,-0.451358 -0.119198,-0.713563 -0.119198,-0.78453 0.05677,-0.05252 0.258612,-0.355973 0.579389,-0.662557 0.442841,-0.430067 2.124834,-0.962174 2.732321,-1.544114 0.60607,-0.574842 1.211296,-1.187186 1.69104,-1.926676 0.180054,-0.275419 0.330584,-0.569045 0.449097,-0.876014 0.227097,-0.60323 0.32357,-1.295504 0.06098,-2.026477 -0.235613,-0.638714 -0.854035,-1.060199 -1.555201,-1.067295 h -5.827158 c -0.03123,-0.0511 -0.03112,-0.03857 -0.06376,-0.108113 -0.232776,-0.44852 -0.518514,-1.208167 -0.809482,-1.998755 -0.285294,-0.796263 -0.580076,-1.625061 -0.964724,-2.370227 -0.197292,-0.373294 -0.406294,-0.73328 -0.754038,-1.086703 -0.347744,-0.361938 -0.959756,-0.777899 -1.763117,-0.765125 z"
     sodipodi:nodetypes="cccscccccccccccccccccccccccccccccccccccccccccccccc" /><path
     id="rect5"
     style="fill:url(#linearGradient6);stroke-width:1.33888"
     d="m 31.874147,15.148002 v 0.0052 c -0.656051,0.01741 -1.185618,0.327565 -1.532387,0.632828 -0.340075,0.303925 -0.561533,0.618603 -0.758348,0.946628 -0.39363,0.656049 -0.674772,1.379651 -0.949242,2.094611 -0.27447,0.709605 -0.521493,1.419564 -0.753118,1.937709 -0.125855,0.28652 -0.09755,0.24445 -0.175206,0.358254 l -5.180301,-0.01312 a 1.553097,1.553097 0 0 0 -1.501007,1.061687 2.302868,2.302868 0 0 0 0.122909,1.759892 c 0.13121,0.274469 0.293255,0.524044 0.444548,0.758347 0.412374,0.638645 0.929098,1.24139 1.453938,1.830495 0.524839,0.58509 1.052272,1.146246 1.453935,1.610836 0.247693,0.294553 0.4266,0.568019 0.522999,0.711279 -0.01339,0.108449 -0.02019,0.374698 -0.107217,0.677284 -0.0723,0.243675 -0.167464,0.532936 -0.274574,0.834183 -0.120499,0.352125 -0.253132,0.728453 -0.38702,1.111372 -0.245014,0.716299 -0.491409,1.43515 -0.611908,2.180905 a 3.3471919,3.3471919 0 0 0 -0.0079,1.200281 2.6777535,2.6777535 0 0 0 0.09937,0.38179 2.1422028,2.1422028 0 0 0 0.800189,1.048613 c 0.547601,0.370868 1.177751,0.411809 1.636986,0.358253 a 4.1505179,4.1505179 0 0 0 1.202896,-0.345179 c 0.733704,-0.309281 1.417077,-0.740461 2.097226,-1.168901 0.673455,-0.429781 1.33716,-0.859874 1.856644,-1.158443 0.26242,-0.148616 0.511703,-0.238049 0.65898,-0.290265 0.139243,0.05222 0.385135,0.137759 0.632828,0.285035 0.508773,0.29857 1.145556,0.738997 1.806961,1.174132 0.661404,0.429779 1.32601,0.866003 2.042309,1.181976 a 4.0166303,4.0166303 0 0 0 1.184593,0.35041 c 0.465929,0.05489 1.119427,-0.0011 1.668366,-0.400094 a 2.5438658,2.5438658 0 0 0 0.805418,-1.210742 c 0.172715,-0.550279 0.170393,-1.117419 0.09676,-1.584687 -0.125854,-0.781902 -0.406894,-1.48519 -0.674669,-2.159984 -0.135227,-0.338736 -0.271749,-0.672681 -0.392248,-0.980623 -0.116482,-0.302586 -0.214075,-0.582662 -0.285035,-0.826337 -0.124516,-0.425763 -0.112439,-0.6731 -0.112439,-0.740043 0.05355,-0.04954 0.243947,-0.335786 0.546534,-0.624984 0.417729,-0.405679 0.990727,-0.907612 1.563766,-1.456552 0.571701,-0.542245 1.142606,-1.119865 1.595146,-1.81742 a 4.4182933,4.4182933 0 0 0 0.423629,-0.826338 c 0.21422,-0.569022 0.305222,-1.222039 0.05753,-1.911561 -0.222253,-0.602494 -0.805606,-1.000078 -1.467011,-1.006772 H 35.98226 C 35.9528,21.069757 35.95291,21.081577 35.92212,21.015975 35.702544,20.59289 35.43301,19.876319 35.158541,19.130564 34.889426,18.379454 34.611359,17.597655 34.248524,16.894745 34.06242,16.54262 33.86527,16.203047 33.537245,15.869667 33.209221,15.528253 32.631914,15.13588 31.87411,15.147929 Z" /></svg>
