<?xml version="1.0" encoding="UTF-8" standalone="no"?>
<svg
   width="64"
   height="64"
   version="1.1"
   id="svg29"
   sodipodi:docname="de.schmidhuberj.tubefeeder.svg"
   xml:space="preserve"
   inkscape:version="1.4.2 (ebf0e940d0, 2025-05-08)"
   xmlns:inkscape="http://www.inkscape.org/namespaces/inkscape"
   xmlns:sodipodi="http://sodipodi.sourceforge.net/DTD/sodipodi-0.dtd"
   xmlns:xlink="http://www.w3.org/1999/xlink"
   xmlns="http://www.w3.org/2000/svg"
   xmlns:svg="http://www.w3.org/2000/svg"><sodipodi:namedview
     id="namedview29"
     pagecolor="#505050"
     bordercolor="#eeeeee"
     borderopacity="1"
     inkscape:showpageshadow="0"
     inkscape:pageopacity="0"
     inkscape:pagecheckerboard="0"
     inkscape:deskcolor="#505050"
     inkscape:zoom="4.1929222"
     inkscape:cx="100.4073"
     inkscape:cy="13.236592"
     inkscape:window-width="1920"
     inkscape:window-height="996"
     inkscape:window-x="0"
     inkscape:window-y="0"
     inkscape:window-maximized="1"
     inkscape:current-layer="svg29" /><defs
     id="defs11"><linearGradient
       id="c"
       x1="7.937"
       x2="7.937"
       y1="15.081"
       y2="1.852"
       gradientTransform="matrix(3.7796,0,0,3.7796,-4.6309119,-7.7896506)"
       gradientUnits="userSpaceOnUse"><stop
         offset="0"
         stop-color="#f1efeb"
         style="stop-color:#6d1218;stop-opacity:1"
         id="stop1" /><stop
         offset="1"
         stop-color="#fdfcfc"
         style="stop-color:#e22027;stop-opacity:1"
         id="stop2" /></linearGradient><linearGradient
       id="f"
       x1="64"
       x2="64"
       y1="200"
       y2="284"
       gradientTransform="matrix(0.82143,0,0,1.04762,11.429,-181.525)"
       gradientUnits="userSpaceOnUse"><stop
         offset="0"
         stop-color="#e01b24"
         id="stop3" /><stop
         offset=".5"
         stop-color="#f66151"
         id="stop4" /><stop
         offset="1"
         stop-color="#c01c28"
         id="stop5" /></linearGradient><linearGradient
       xlink:href="#a"
       id="h"
       x1="112"
       x2="112"
       y1="192"
       y2="292"
       gradientTransform="matrix(0.375,0,0,1.04,75,-179.68)" /><linearGradient
       id="a"
       gradientUnits="userSpaceOnUse"><stop
         offset="0"
         stop-color="#deddda"
         id="stop6" /><stop
         offset=".5"
         stop-color="#f6f5f4"
         id="stop7" /><stop
         offset="1"
         stop-color="#9a9996"
         id="stop8" /></linearGradient><linearGradient
       xlink:href="#b"
       id="i"
       x1="112"
       x2="112"
       y1="187.652"
       y2="296.348"
       gradientTransform="matrix(0.25,0,0,0.96,84,-160.32)" /><linearGradient
       id="b"
       gradientUnits="userSpaceOnUse"><stop
         offset="0"
         stop-color="#deddda"
         id="stop9" /><stop
         offset=".5"
         stop-color="#f6f5f4"
         id="stop10" /><stop
         offset="1"
         stop-color="#c0bfbc"
         id="stop11" /></linearGradient><linearGradient
       xlink:href="#a"
       id="j"
       x1="112"
       x2="112"
       y1="192"
       y2="292"
       gradientTransform="matrix(0.375,0,0,1.04,-31,-179.68)" /><linearGradient
       xlink:href="#b"
       id="k"
       x1="112"
       x2="112"
       y1="187.652"
       y2="296.348"
       gradientTransform="matrix(0.25,0,0,0.96,-12,-160.32)" /><filter
       id="d"
       width="1.3222107"
       height="1.3717692"
       x="-0.16110533"
       y="-0.18588462"
       style="color-interpolation-filters:sRGB"><feGaussianBlur
         stdDeviation="8.055"
         id="feGaussianBlur11" /></filter></defs><g
     id="g29"
     transform="matrix(1.2195119,0,0,1.2195119,-7.0256003,-6.9877954)"><path
       fill="url(#f)"
       d="m 18,28 h 92 v 88 H 18 Z m 0,0"
       style="fill:url(#f)"
       transform="matrix(0.3895,0,0,0.3895,7.073,3.926)"
       id="path12" /><path
       fill-opacity="0.2"
       d="m 14.084,48.328 h 35.834 v 0.78 H 14.084 Z m 0,0"
       id="path13" /><path
       fill="#ffffff"
       fill-opacity="0.2"
       d="m 14.084,14.832 h 35.834 v 0.779 H 14.084 Z m 0,0"
       id="path14" /><path
       fill="#deddda"
       d="m 53.034,45.991 h 1.558 c 0.432,0 0.779,0.347 0.779,0.78 v 1.557 a 0.777,0.777 0 0 1 -0.78,0.78 h -1.557 a 0.777,0.777 0 0 1 -0.78,-0.78 V 46.77 c 0,-0.432 0.348,-0.779 0.78,-0.779 m 0,-7.79 h 1.558 c 0.432,0 0.779,0.347 0.779,0.78 v 1.558 a 0.777,0.777 0 0 1 -0.78,0.779 h -1.557 a 0.777,0.777 0 0 1 -0.78,-0.78 v -1.557 c 0,-0.433 0.348,-0.78 0.78,-0.78 m 0,-7.79 h 1.558 c 0.432,0 0.779,0.348 0.779,0.78 v 1.558 a 0.777,0.777 0 0 1 -0.78,0.779 h -1.557 a 0.777,0.777 0 0 1 -0.78,-0.78 v -1.557 c 0,-0.432 0.348,-0.78 0.78,-0.78 m 0,-7.79 h 1.558 c 0.432,0 0.779,0.348 0.779,0.78 v 1.558 a 0.777,0.777 0 0 1 -0.78,0.779 h -1.557 a 0.777,0.777 0 0 1 -0.78,-0.78 v -1.557 c 0,-0.432 0.348,-0.78 0.78,-0.78 m 0,-7.79 h 1.558 c 0.432,0 0.779,0.348 0.779,0.78 v 1.558 a 0.777,0.777 0 0 1 -0.78,0.779 h -1.557 a 0.777,0.777 0 0 1 -0.78,-0.78 v -1.557 c 0,-0.432 0.348,-0.78 0.78,-0.78 m 0,0"
       id="path15" /><path
       fill="#c0bfbc"
       d="m 53.034,14.832 a 0.777,0.777 0 0 0 -0.78,0.779 v 1.558 c 0,0.432 0.348,0.779 0.78,0.779 h 1.558 q 0.101,0 0.195,-0.028 A 0.775,0.775 0 0 1 54.202,17.169 V 15.61 c 0,-0.364 0.248,-0.665 0.585,-0.752 a 0.7,0.7 0 0 0 -0.195,-0.027 z m 0,7.79 a 0.777,0.777 0 0 0 -0.78,0.779 v 1.558 c 0,0.432 0.348,0.779 0.78,0.779 h 1.558 q 0.101,-0.001 0.195,-0.028 A 0.775,0.775 0 0 1 54.202,24.959 V 23.4 c 0,-0.364 0.248,-0.665 0.585,-0.752 a 0.7,0.7 0 0 0 -0.195,-0.027 z m 0,7.79 a 0.777,0.777 0 0 0 -0.78,0.779 v 1.558 c 0,0.432 0.348,0.779 0.78,0.779 h 1.558 Q 54.693,33.527 54.787,33.5 A 0.775,0.775 0 0 1 54.202,32.749 V 31.19 c 0,-0.364 0.248,-0.665 0.585,-0.752 a 0.7,0.7 0 0 0 -0.195,-0.027 z m 0,7.79 a 0.777,0.777 0 0 0 -0.78,0.779 v 1.558 c 0,0.432 0.348,0.779 0.78,0.779 h 1.558 q 0.101,-10e-4 0.195,-0.028 A 0.775,0.775 0 0 1 54.202,40.539 V 38.98 c 0,-0.364 0.248,-0.665 0.585,-0.752 a 0.7,0.7 0 0 0 -0.195,-0.027 z m 0,7.79 a 0.777,0.777 0 0 0 -0.78,0.778 v 1.558 c 0,0.433 0.348,0.78 0.78,0.78 h 1.558 q 0.101,-10e-4 0.195,-0.028 A 0.775,0.775 0 0 1 54.202,48.328 V 46.77 c 0,-0.363 0.248,-0.664 0.585,-0.751 a 0.7,0.7 0 0 0 -0.195,-0.028 z m 0,0"
       id="path16" /><path
       fill="url(#h)"
       d="m 114,20 h 6 v 104 h -6 z m 0,0"
       style="fill:url(#h)"
       transform="matrix(0.3895,0,0,0.3895,7.073,3.926)"
       id="path17" /><path
       fill="url(#i)"
       d="m 110,24 h 4 v 96 h -4 z m 0,0"
       style="fill:url(#i)"
       transform="matrix(0.3895,0,0,0.3895,7.073,3.926)"
       id="path18" /><path
       fill="#77767b"
       fill-opacity="0.502"
       d="m 49.918,13.274 h 1.558 v 37.391 h -1.558 z m 0,0"
       id="path19" /><path
       fill="#ffffff"
       fill-opacity="0.502"
       d="m 49.918,13.274 h 0.779 v 37.391 h -0.78 z m 0,0"
       id="path20" /><path
       fill="#deddda"
       d="m 9.41,45.991 h 1.558 c 0.432,0 0.78,0.347 0.78,0.78 v 1.557 a 0.777,0.777 0 0 1 -0.78,0.78 H 9.41 A 0.777,0.777 0 0 1 8.631,48.328 V 46.77 c 0,-0.432 0.347,-0.779 0.78,-0.779 m 0,-7.79 h 1.558 c 0.432,0 0.78,0.347 0.78,0.78 v 1.558 a 0.777,0.777 0 0 1 -0.78,0.779 H 9.41 a 0.777,0.777 0 0 1 -0.779,-0.78 v -1.557 c 0,-0.433 0.347,-0.78 0.78,-0.78 m 0,-7.79 h 1.558 c 0.432,0 0.78,0.348 0.78,0.78 v 1.558 a 0.777,0.777 0 0 1 -0.78,0.779 H 9.41 a 0.777,0.777 0 0 1 -0.779,-0.78 v -1.557 c 0,-0.432 0.347,-0.78 0.78,-0.78 m 0,-7.79 h 1.558 c 0.432,0 0.78,0.348 0.78,0.78 v 1.558 a 0.777,0.777 0 0 1 -0.78,0.779 H 9.41 a 0.777,0.777 0 0 1 -0.779,-0.78 v -1.557 c 0,-0.432 0.347,-0.78 0.78,-0.78 m 0,-7.79 h 1.558 c 0.432,0 0.78,0.348 0.78,0.78 v 1.558 a 0.777,0.777 0 0 1 -0.78,0.779 H 9.41 a 0.777,0.777 0 0 1 -0.779,-0.78 v -1.557 c 0,-0.432 0.347,-0.78 0.78,-0.78 m 0,0"
       id="path21" /><path
       fill="#c0bfbc"
       d="M 9.41,14.832 A 0.7,0.7 0 0 0 9.215,14.859 0.775,0.775 0 0 1 9.8,15.611 v 1.558 A 0.775,0.775 0 0 1 9.215,17.92 0.7,0.7 0 0 0 9.41,17.948 h 1.558 a 0.777,0.777 0 0 0 0.78,-0.78 v -1.557 a 0.777,0.777 0 0 0 -0.78,-0.78 z m 0,7.79 A 0.7,0.7 0 0 0 9.215,22.649 0.775,0.775 0 0 1 9.8,23.401 v 1.558 A 0.775,0.775 0 0 1 9.215,25.71 0.7,0.7 0 0 0 9.41,25.738 h 1.558 a 0.777,0.777 0 0 0 0.78,-0.78 v -1.557 a 0.777,0.777 0 0 0 -0.78,-0.78 z m 0,7.79 A 0.7,0.7 0 0 0 9.215,30.439 0.775,0.775 0 0 1 9.8,31.191 v 1.558 A 0.775,0.775 0 0 1 9.215,33.5 0.7,0.7 0 0 0 9.41,33.528 h 1.558 a 0.777,0.777 0 0 0 0.78,-0.78 v -1.557 a 0.777,0.777 0 0 0 -0.78,-0.78 z m 0,7.79 A 0.7,0.7 0 0 0 9.215,38.229 0.775,0.775 0 0 1 9.8,38.981 v 1.558 A 0.775,0.775 0 0 1 9.215,41.29 0.7,0.7 0 0 0 9.41,41.318 h 1.558 a 0.777,0.777 0 0 0 0.78,-0.78 v -1.557 a 0.777,0.777 0 0 0 -0.78,-0.78 z m 0,7.79 A 0.7,0.7 0 0 0 9.215,46.019 0.775,0.775 0 0 1 9.8,46.77 v 1.558 A 0.775,0.775 0 0 1 9.215,49.08 0.7,0.7 0 0 0 9.41,49.107 h 1.558 a 0.777,0.777 0 0 0 0.78,-0.779 V 46.77 a 0.777,0.777 0 0 0 -0.78,-0.779 z m 0,0"
       id="path22" /><path
       fill="url(#j)"
       d="m 8,20 h 6 V 124 H 8 Z m 0,0"
       style="fill:url(#j)"
       transform="matrix(0.3895,0,0,0.3895,7.073,3.926)"
       id="path23" /><path
       fill="url(#k)"
       d="m 14,24 h 4 v 96 h -4 z m 0,0"
       style="fill:url(#k)"
       transform="matrix(0.3895,0,0,0.3895,7.073,3.926)"
       id="path24" /><path
       fill="#77767b"
       fill-opacity="0.502"
       d="m 12.526,13.274 h 1.558 v 37.391 h -1.558 z m 0,0"
       id="path25" /><path
       fill="#ffffff"
       fill-opacity="0.502"
       d="m 13.305,13.274 h 0.78 v 37.391 h -0.78 z m 0,0"
       id="path26" /><path
       fill="#c0bfbc"
       d="m 27.327,28.075 v 9.348 a 0.904,0.904 0 0 0 1.353,0.785 l 8.2,-4.686 a 0.891,0.891 0 0 0 0,-1.546 l -8.2,-4.686 a 0.905,0.905 0 0 0 -1.353,0.785 m 0,0"
       id="path27" /><path
       fill="#f6f5f4"
       d="m 27.327,27.296 v 9.348 a 0.904,0.904 0 0 0 1.353,0.785 l 8.2,-4.686 a 0.891,0.891 0 0 0 0,-1.546 l -8.2,-4.686 a 0.905,0.905 0 0 0 -1.353,0.785 m 0,0"
       id="path28" /><path
       fill-opacity="0.102"
       d="m 28.386,26.404 a 0.903,0.903 0 0 0 -1.059,0.892 v 0.779 A 0.904,0.904 0 0 1 28.68,27.29 l 8.2,4.686 a 0.9,0.9 0 0 1 0.355,0.383 0.89,0.89 0 0 0 -0.355,-1.162 l -8.2,-4.686 a 0.9,0.9 0 0 0 -0.294,-0.107 m 0,0"
       id="path29" /></g></svg>
