<?xml version="1.0" encoding="UTF-8" standalone="no"?>
<svg
   width="64"
   height="64"
   viewBox="0 0 16.933 16.933"
   version="1.1"
   id="svg2"
   sodipodi:docname="deezer.svg"
   xml:space="preserve"
   inkscape:version="1.4.2 (ebf0e940d0, 2025-05-08)"
   xmlns:inkscape="http://www.inkscape.org/namespaces/inkscape"
   xmlns:sodipodi="http://sodipodi.sourceforge.net/DTD/sodipodi-0.dtd"
   xmlns:xlink="http://www.w3.org/1999/xlink"
   xmlns="http://www.w3.org/2000/svg"
   xmlns:svg="http://www.w3.org/2000/svg"><sodipodi:namedview
     id="namedview2"
     pagecolor="#505050"
     bordercolor="#eeeeee"
     borderopacity="1"
     inkscape:showpageshadow="0"
     inkscape:pageopacity="0"
     inkscape:pagecheckerboard="0"
     inkscape:deskcolor="#505050"
     inkscape:zoom="2.9648438"
     inkscape:cx="76.901186"
     inkscape:cy="33.222661"
     inkscape:window-width="1920"
     inkscape:window-height="996"
     inkscape:window-x="0"
     inkscape:window-y="0"
     inkscape:window-maximized="1"
     inkscape:current-layer="svg2" /><defs
     id="defs2"><linearGradient
       id="a"
       x1="7.937"
       x2="7.937"
       y1="15.081"
       y2="1.852"
       gradientUnits="userSpaceOnUse"
       gradientTransform="translate(-0.90799978,-4.9779996)"><stop
         offset="0"
         stop-color="#f1efeb"
         id="stop1" /><stop
         offset="1"
         stop-color="#fdfcfc"
         id="stop2" /></linearGradient><linearGradient
       gradientUnits="userSpaceOnUse"
       y2="43.96891"
       x2="44.996239"
       y1="6.0181603"
       x1="7.0454888"
       id="linearGradient1590"
       xlink:href="#linearGradient1588"
       inkscape:collect="always"
       gradientTransform="matrix(0.26527523,0,0,0.26527523,0.0232865,0.1295004)" /><linearGradient
       id="linearGradient1588"
       inkscape:collect="always"><stop
         id="stop1584"
         offset="0"
         style="stop-color:#141414;stop-opacity:1" /><stop
         id="stop1586"
         offset="1"
         style="stop-color:#323232;stop-opacity:1" /></linearGradient></defs><path
     d="m 1.9843545,1.1906014 c -0.439725,0 -0.793753,0.354029 -0.793753,0.793753 V 14.948645 c 0,0.439725 0.354028,0.793754 0.793753,0.793754 H 14.948643 c 0.439727,0 0.793756,-0.354029 0.793756,-0.793754 V 1.9843544 c 0,-0.439724 -0.354028,-0.793753 -0.793756,-0.793753 z"
     style="fill:url(#linearGradient1590);fill-opacity:1;stroke:none;stroke-width:0.0557077;stroke-linecap:round"
     id="rect1572" /><path
     fill="#9333e8"
     d="M5.863 3.704a.1.1 0 0 0-.045.007q-.213.064-.385.583c-.067.2-.148.534-.189.787-.012.072-.018.068-.033-.02a2.8 2.8 0 0 0-.166-.566.5.5 0 0 0-.112-.15q-.111-.066-.21.103c-.239.409-.375 1.674-.317 2.929.053 1.149.255 1.938.484 1.895.084-.015.178-.175.252-.431.01-.035.02-.06.022-.056.002.005.01.072.02.15.08.643.214 1.192.365 1.493.038.074.111.18.153.219.225.206.456-.03.633-.644.035-.12.082-.318.109-.447.013-.067.02-.047.028.073.017.24.068.709.108.98.089.582.216 1.027.352 1.22.042.06.076.089.126.104.15.045.301-.208.426-.715.02-.085.044-.193.053-.239a.3.3 0 0 1 .021-.083q.006 0 .007.009c0 .017.044.35.06.458.15.98.412 1.65.7 1.79.041.022.06.025.118.025s.075-.003.114-.024c.173-.089.321-.33.46-.747.075-.226.138-.482.196-.794.028-.143.088-.556.095-.65a.2.2 0 0 1 .013-.067q.008.001.008.005c0 .004.013.07.03.147.093.435.204.727.314.834a.2.2 0 0 0 .118.059c.13 0 .272-.251.38-.678.104-.403.195-1.037.242-1.675.004-.044.009-.078.012-.073.003.003.019.067.034.14.083.4.206.737.33.911.14.198.298.206.443.022.193-.247.36-.831.464-1.638a2 2 0 0 1 .023-.165.2.2 0 0 1 .025.067c.068.24.157.395.24.417.028.008.04.007.07-.006.043-.02.064-.04.104-.108.279-.464.413-2.142.278-3.478-.073-.735-.213-1.242-.369-1.335a.12.12 0 0 0-.108-.001c-.093.047-.194.281-.262.6l-.038.175c-.009.037-.006.048-.052-.196-.084-.44-.191-.778-.314-.987a.7.7 0 0 0-.106-.137c-.055-.056-.072-.068-.114-.08-.122-.036-.228.039-.343.241-.161.286-.305.855-.39 1.54a2 2 0 0 1-.024.159 1 1 0 0 1-.037-.176c-.105-.603-.23-.986-.368-1.126-.081-.084-.149-.088-.228-.016-.234.217-.435 1.141-.522 2.407a.3.3 0 0 1-.011.084.5.5 0 0 1-.03-.097c-.13-.511-.278-.845-.451-1.018-.08-.08-.137-.106-.226-.106a.2.2 0 0 0-.118.024c-.14.07-.275.262-.394.563a5 5 0 0 0-.157.497l-.035.135c-.008.012-.012-.02-.024-.175-.024-.31-.039-.459-.069-.71-.093-.763-.235-1.32-.394-1.542-.097-.136-.187-.148-.29-.037-.135.147-.277.596-.365 1.16-.02.126-.024.145-.03.14a1 1 0 0 1-.025-.18c-.074-.585-.192-1.09-.326-1.395a.9.9 0 0 0-.184-.292c-.053-.055-.072-.068-.111-.08a.3.3 0 0 0-.058-.012M3.971 5.45a.1.1 0 0 0-.039.015c-.095.063-.17.313-.212.696-.005.044-.011.18-.014.3-.012.462.045.871.148 1.085.115.235.258.093.336-.332.04-.212.047-.325.048-.651 0-.31-.004-.382-.035-.586-.05-.326-.138-.527-.232-.527m8.935.003a.1.1 0 0 0-.04.016c-.045.03-.08.091-.115.196-.174.522-.14 1.6.06 1.92.072.114.151.096.22-.048.198-.417.194-1.577-.007-1.976q-.057-.112-.118-.108"
     id="path2" /></svg>
