<?xml version="1.0" encoding="UTF-8"?>
<svg width="64" height="64" version="1.1" viewBox="0 0 16.933 16.933" xmlns="http://www.w3.org/2000/svg" xmlns:xlink="http://www.w3.org/1999/xlink">
 <defs>
  <linearGradient id="c" x1="24.535" x2="24.535" y1="7.0931" y2="44.483" gradientTransform="matrix(.38005 0 0 .38005 -.6865 -1.2474)" gradientUnits="userSpaceOnUse">
   <stop stop-color="#76dd38" offset="0"/>
   <stop stop-color="#42c440" offset=".48433"/>
   <stop stop-color="#14ab4b" offset="1"/>
  </linearGradient>
  <linearGradient id="linearGradient950" x1="8.514" x2="8.514" y1="3.8618" y2="13.094" gradientUnits="userSpaceOnUse">
   <stop stop-color="#fff" offset="0"/>
   <stop stop-color="#adf8b0" offset="1"/>
  </linearGradient>
 </defs>
 <circle cx="8.4665" cy="8.4665" r="7.9375" color="#000000" fill="url(#c)" overflow="visible" stroke-width=".26458" style="isolation:auto;mix-blend-mode:normal"/>
 <path d="m11.417 3.8364c-1.8286 0-2.171 2.778-1.1429 2.778 1.0281 0 2.9715-2.778 1.1429-2.778zm-2.9026 0.31498c-1.0456 0.14765-0.67808 2.1174-0.12031 2.1546 0.55559 0.036092 1.167-2.3011 0.12031-2.1546zm-1.8921 0.61246a0.6409 0.6409 0 0 0-0.17171 0.043747c-0.97885 0.37185-0.14874 1.9052 0.40029 1.8024 0.51403-0.097338 0.57309-1.9238-0.22749-1.845zm-1.2862 1.2337a0.5195 0.5195 0 0 0-0.28326 0.080933c-0.80495 0.47466 0.27123 1.6208 0.74371 1.4437 0.4156-0.1564 0.15093-1.5071-0.46044-1.5257zm3.7535 0.92635c-1.4404-0.026248-3.3412 0.73058-3.6649 2.2486-0.35107 1.6438 1.4448 3.9241 3.3193 3.9241 0.92198 0 1.985-0.87167 2.1841-1.9752 0.15202-0.84104-1.9118-0.5031-1.8418 0.0525 0.056872 0.45497-0.18155 0.69121-0.50966 0.69996-0.44841-0.054688-0.66715-0.31389-0.7273-0.70543-0.079839-1.0259 3.1542-1.7586 2.8983-3.35-0.094057-0.58293-0.79292-0.87932-1.658-0.89463z" fill="url(#linearGradient950)" stroke-width="1.0937"/>
</svg>
