<?xml version="1.0" encoding="UTF-8"?>
<svg width="64" height="64" version="1.1" viewBox="0 0 16.933 16.933" xmlns="http://www.w3.org/2000/svg">
 <defs>
  <linearGradient id="linearGradient844" x1="15" x2="35" y1="8" y2="38" gradientTransform="matrix(.36078 0 0 .36078 -.19219 -.19219)" gradientUnits="userSpaceOnUse">
   <stop stop-color="#18d862" offset="0"/>
   <stop stop-color="#1cd664" offset="1"/>
  </linearGradient>
 </defs>
 <circle cx="8.4665" cy="8.4665" r="7.9371" fill="url(#linearGradient844)" stroke-width=".36078"/>
 <path d="m8.467 3.8364a4.6296 4.6296 0 0 0-3.747 1.9194l0.66387 0.3992a3.8585 3.8585 0 0 1 3.0831-1.5465 3.8585 3.8585 0 0 1 3.8574 3.8574 3.8585 3.8585 0 0 1-3.8574 3.8585 3.8585 3.8585 0 0 1-3.0831-1.5443l-0.66496 0.3981a4.6296 4.6296 0 0 0 3.7481 1.9183 4.6296 4.6296 0 0 0 4.6296-4.6307 4.6296 4.6296 0 0 0-4.6296-4.6296zm-4.6307 1.9293v5.4017l4.6307-2.7014zm4.6307 0a2.7014 2.7014 0 0 0-2.0846 0.9876l0.67152 0.40248a1.9293 1.9293 0 0 1 1.413-0.61903 1.9293 1.9293 0 0 1 1.9293 1.9293 1.9293 1.9293 0 0 1-1.9293 1.9293 1.9293 1.9293 0 0 1-1.413-0.61903l-0.67262 0.40466a2.7014 2.7014 0 0 0 2.0857 0.9865 2.7014 2.7014 0 0 0 2.7014-2.7014 2.7014 2.7014 0 0 0-2.7014-2.7014z" fill="#fff" stroke-width="1.0937"/>
</svg>
