<?xml version="1.0" encoding="UTF-8"?>
<svg width="64" height="64" version="1.1" viewBox="0 0 16.933 16.933" xmlns="http://www.w3.org/2000/svg">
 <defs>
  <linearGradient id="linearGradient1005" x1=".73911" x2="16.388" y1="16.296" y2=".64687" gradientTransform="matrix(.99999 0 0 .99999 -.03529 .00645)" gradientUnits="userSpaceOnUse">
   <stop stop-color="#00a0ff" offset="0"/>
   <stop stop-color="#37beff" offset="1"/>
  </linearGradient>
 </defs>
 <path d="m16.404 8.4666c0 0.95155-0.16749 1.8638-0.47464 2.7093-0.2135 0.58769-0.49437 1.1433-0.83391 1.6572-0.14222 0.21608-0.29514 0.42476-0.45746 0.62529-0.51964 0.6418-1.1372 1.2007-1.8305 1.6543-0.2553 0.16717-0.52065 0.32009-0.79536 0.45712-1.0668 0.53388-2.2711 0.8342-3.5457 0.8342s-2.4788-0.30033-3.5457-0.83423c-0.27474-0.13705-0.54041-0.28996-0.79571-0.45712-0.70207-0.45971-1.327-1.0274-1.8509-1.6798-0.16262-0.20216-0.31522-0.41275-0.45746-0.63077-0.33046-0.50538-0.6042-1.0507-0.81349-1.627-0.3071-0.84529-0.47429-1.7573-0.47429-2.7085 0-4.3839 3.5536-7.9375 7.9375-7.9375 2.2005 0 4.1915 0.89548 5.6295 2.3417 0.41436 0.41661 0.78274 0.87929 1.0963 1.3795 0.29644 0.47106 0.54427 0.97581 0.73705 1.5068 0.30718 0.84558 0.47466 1.7579 0.47466 2.7093z" fill="url(#linearGradient1005)" stroke-width=".031006"/>
 <path d="m9.2041 3.8364-1.6084 0.11481v6.4075l1.6084-0.19572v-2.797c0.69761 1.053 1.2574 2.0327 2.1923 3.0507l1.6664-0.47892a21.764 21.764 0 0 1-2.1661-2.9359c0.632-0.93269 1.4247-1.8698 2.1989-2.7073l-1.7265-0.42425a27.532 27.532 0 0 0-2.165 2.7904m-3.6652-1.5089a0.13121 0.13121 0 0 0-0.071073 0.037177c-0.18916 0.17932-0.36848 0.35864-0.55765 0.53797-0.082007 0.07982 0.00219 0.17495 0.03827 0.24055l0.3827 0.52922 0.28648 0.38598c0.040457 0.054671 0.052485 0.061232 0.031709 0.1006-0.026242 0.040457-0.047017 0.07326-0.071073 0.11481-0.37176 0.62544-0.11153 0.67355-0.90754 0.87583l-0.61123 0.10169c-0.089661 0.029523-0.20775 0.027336-0.21431 0.15308 0 0.25149-0.00765 0.50298-0.00765 0.75446-0.00437 0.117 0.12574 0.12793 0.20228 0.14761l0.6495 0.11262 0.48658 0.088568c0.065606 0.00875 0.080914-0.00656 0.096222 0.043737 0.199 0.83866 0.45924 0.64512 0.025149 1.3799l-0.3499 0.48658c-0.045924 0.08419-0.13121 0.16729-0.043737 0.25258 0.1837 0.1826 0.35974 0.3663 0.54453 0.5489 0.082007 0.07982 0.18698-0.0022 0.25368-0.03827l0.53796-0.37395 0.40238-0.27008c0.054671-0.04592 0.062325-0.05686 0.10388-0.0328 0.80586 0.49314 0.83428 0.13777 1.0694 0.96659l0.1159 0.59373c0.030616 0.08747 0.032803 0.20228 0.15636 0.20775h0.78399c0.117 0 0.12793-0.13449 0.14215-0.20775l0.10934-0.632 0.078727-0.46689c0.00547-0.04483 0.00328-0.06779 0.012028-0.0831 0.94472-0.19463 0.71073-0.46799 1.4783-0.03171l0.4986 0.34115c0.09185 0.04483 0.17932 0.12356 0.2668 0.03936 0.18479-0.17495 0.36848-0.35099 0.55437-0.52484 0.0831-0.08419 0.0011-0.18042-0.03827-0.24493h-0.0077l-0.36302-0.4986-0.23946 0.08091c-0.06123 0.04046-0.14214 0.02515-0.2154-0.06889l-0.52484-0.67574a2.703 2.703 0 0 1-2.1792 1.0869c-1.4772 0-2.6844-1.1743-2.6844-2.6133 0-1.0234 0.60904-1.9091 1.4914-2.3377v-0.60138c-0.029522 0.015308-0.065606 0.022962-0.089661 0.032803-0.34548 0.13887-0.36735 0.20228-0.93265-0.11372l-0.4986-0.34662c-0.069979-0.030616-0.13121-0.087474-0.19463-0.072166m1.7123 1.3438a2.4088 2.4088 0 0 0-1.2596 2.1027c0 1.3263 1.112 2.4121 2.4799 2.4121 0.84522 0 1.5866-0.41769 2.0338-1.0519l-0.02406-0.05139c-0.52484 0.56639-1.1164 0.93379-2.0174 0.95347-1.1219 0.019682-2.2579-0.95347-2.2634-2.2361-0.0098408-0.82663 0.3827-1.3821 1.0497-1.779v-0.34771" fill="#fff" fill-rule="evenodd" stroke-width="1.0934"/>
</svg>
