<?xml version="1.0" encoding="UTF-8"?>
<svg width="64" height="64" version="1.1" xmlns="http://www.w3.org/2000/svg" xmlns:cc="http://creativecommons.org/ns#" xmlns:dc="http://purl.org/dc/elements/1.1/" xmlns:rdf="http://www.w3.org/1999/02/22-rdf-syntax-ns#">
 <metadata>
  <rdf:RDF>
   <cc:Work rdf:about="">
    <dc:format>image/svg+xml</dc:format>
    <dc:type rdf:resource="http://purl.org/dc/dcmitype/StillImage"/>
    <dc:title/>
   </cc:Work>
  </rdf:RDF>
 </metadata>
 <defs>
  <linearGradient id="b" x1="399.57" x2="399.57" y1="545.8" y2="517.8" gradientTransform="matrix(2.1429 0 0 2.1429 -826.36 -1107.5)" gradientUnits="userSpaceOnUse">
   <stop stop-color="#3889e9" offset="0"/>
   <stop stop-color="#5ea5fb" offset="1"/>
  </linearGradient>
  <linearGradient id="linearGradient873" x1="-45.602" x2="-33.697" y1="-2.1742" y2="6.0465" gradientTransform="matrix(3.7796 0 0 3.7796 200.68 -37.364)" gradientUnits="userSpaceOnUse">
   <stop stop-color="#28afea" offset="0"/>
   <stop stop-color="#838be4" offset="1"/>
  </linearGradient>
 </defs>
 <circle cx="32.02" cy="32.044" r="0" fill="url(#b)" stroke-width="1.5715"/>
 <circle cx="-1019.3" cy="-1202" r="0" fill="#5e4aa6"/>
 <g transform="matrix(.93844 0 0 .89815 -1.0564 48.981)">
  <g transform="matrix(1.0655 0 0 .83503 -14.661 7.1279)">
   <rect x="16.818" y="-61.178" width="60.001" height="60.001" ry="3" fill="url(#linearGradient873)" stroke-width="3.7796"/>
   <path d="m58.447-33.84c-1.446 0-2.892 0.55411-4 1.6621l-31 31h50.373c1.662 0 3-1.338 3-3v-13.627l-14.373-14.373c-1.108-1.108-2.554-1.6621-4-1.6621z" fill="#406ccd"/>
   <path d="m38.817-39.532c-1.0181 0-2.0363 0.38982-2.8164 1.1699l-19.184 19.184v15c0 1.662 1.338 3 3 3h54c1.3602 0 2.491-0.90222 2.8613-2.1387l-35.045-35.045c-0.7801-0.7801-1.7983-1.1699-2.8164-1.1699z" fill="#13427e"/>
  </g>
 </g>
 <g transform="translate(.5 -.83333)" fill="#fff">
  <g transform="translate(-121 .33333)">
   <rect x="126" y="13" width="7" height="7" ry="1"/>
   <rect x="126" y="23.667" width="7" height="7" ry="1"/>
   <rect x="126" y="34.333" width="7" height="7" ry="1"/>
   <rect x="126" y="45" width="7" height="7" ry="1"/>
  </g>
  <g transform="translate(-75 .33333)">
   <rect x="126" y="13" width="7" height="7" ry="1"/>
   <rect x="126" y="23.667" width="7" height="7" ry="1"/>
   <rect x="126" y="34.333" width="7" height="7" ry="1"/>
   <rect x="126" y="45" width="7" height="7" ry="1"/>
  </g>
 </g>
</svg>
