<?xml version="1.0" encoding="UTF-8"?>
<svg width="64" height="64" version="1.1" viewBox="0 0 16.933 16.933" xmlns="http://www.w3.org/2000/svg">
 <defs>
  <linearGradient id="linearGradient7983" x1=".52911" x2="16.404" y1="8.4665" y2="8.4665" gradientTransform="translate(2.8921 -7.2682)" gradientUnits="userSpaceOnUse">
   <stop stop-color="#0a3e82" offset="0"/>
   <stop stop-color="#054b9e" offset="1"/>
  </linearGradient>
 </defs>
 <path d="m16.404 8.4664c0 0.95153-0.16749 1.8638-0.47464 2.7094-0.2135 0.58768-0.49438 1.1433-0.83392 1.6572-0.14222 0.21608-0.29514 0.42475-0.45745 0.62528-0.51965 0.64178-1.1372 1.2007-1.8304 1.6543-0.2553 0.16717-0.52064 0.3201-0.79535 0.45712-1.0668 0.53388-2.2711 0.8342-3.5456 0.8342s-2.4788-0.30032-3.5456-0.83422c-0.27474-0.13705-0.5404-0.28996-0.79569-0.45712-0.70206-0.45972-1.327-1.0274-1.8508-1.6798-0.16262-0.20216-0.31523-0.41275-0.45745-0.63077-0.33046-0.50539-0.6042-1.0507-0.81348-1.627-0.3071-0.84527-0.4743-1.7572-0.4743-2.7084 0-4.3837 3.5537-7.9374 7.9374-7.9374 2.2005 0 4.1916 0.89547 5.6294 2.3416 0.41435 0.41661 0.78273 0.87928 1.0963 1.3795 0.29645 0.47107 0.54427 0.9758 0.73703 1.5068 0.30718 0.84558 0.47466 1.7579 0.47466 2.7094z" fill="url(#linearGradient7983)" stroke-width=".031006"/>
 <path d="m2.8054 5.1704-0.074772 0.14643c0.38113 0.21185 1.4767 0.76226 1.997 1.0883 0.65737 0.40294 1.5474 1.2254 1.6169 1.3625-0.68541 1.1912-0.37386 2.2452-0.45486 2.3574-0.058156 0.09346-0.5961 0.68437-0.42267 0.7716 0.17135 0.0862 0.44448-0.04881 0.48602-0.07581 0.086195-0.05192 0.17447-0.12877 0.13708 0.02285-0.072695 0.31051-0.4019 1.0562 0.052964 0.8983 0.056079-0.03219 0.78926-0.84119 0.87753-0.86819 1.4581 0.38009 3.0885 0.20562 3.3907 0.06439 0.15681 0.01039 0.60233 0.29078 0.85572 0.42475 0.25339 0.13189 0.94504 0.46317 0.73941-0.13916-0.06231-0.19004-0.51717-0.67502-0.44344-0.70826 0.16201-0.06439 0.56391 0.16824 0.71864 0.21185 0.46213 0.12981 0.52444-0.04985 0.23262-0.44552-0.2887-0.39463-0.33232-0.33336-0.42267-0.51613-0.07166-0.14539 0-0.30843 0.05192-0.3479 0.09347-0.071656 1.4747-0.83807 1.7976-1.1309 0.47979-0.43617 0-0.97931-0.11735-1.0562-0.99384-0.71656-2.0147-0.56287-2.0282-0.67606-0.0073-0.12981-0.0042-0.50367-0.02077-0.63348-0.0997-0.87649-0.50575-0.65633-0.56079-0.65633-0.40502 0.064387-0.25651 0.68541-0.08412 1.268 0.01246 0.14954-0.14228 0.08308-0.23262-0.073733-0.31154-0.836-0.44343-0.82146-0.52963-0.84638-0.08308-0.018693-0.37594 0.15993-0.37074 0.49848 0.00208 0.095542 0.11631 0.5556 0.11631 0.69683-0.19108 0.1672-0.20043 0.54833-0.4019 0.68645-0.58468 0.1215-1.9898-0.2887-2.1653-0.3074-0.60752-0.11424-0.87234 0.3427-0.971 0.23262-0.78822-0.9035-1.9929-1.5744-2.5142-1.6907-0.20251-0.043617-0.8848-0.34478-1.1309-0.4964-0.039463-0.023886-0.084118-0.04154-0.12774-0.063348m10.842 0.79238c-0.19004 0.20458-0.15578 0.96892-0.11735 0.96269 0.1942-0.039463 0.17654-1.024 0.11735-0.96269m0.5504 0.11631c-0.02077-0.06231-0.52236 0.64075-0.43409 0.89934 0.0405 0.11216 0.50263-0.70306 0.43513-0.89934m-2.6004 1.1943c0.0062-0.00623 0.01454 0.00312 0.02181 0.010385 0.05816 0.19316 0.12358 0.37698 0.50575 0.42371 0.04569 0.00519-0.21185 0.15578-0.38944 0.06231-0.16097-0.09658-0.17551-0.45175-0.13812-0.49536m0.9928 0.96996a0.25962 0.25962 0 0 1 0.0862 0c0.09347 0.023885-0.67918 0.42682-0.73941 0.37178-0.03739-0.035309 0.41228-0.32609 0.65426-0.37178m0.20147 0.25547c0.081 0.00623-0.44759 0.55352-0.50679 0.4964-0.04362-0.039463 0.3427-0.50886 0.50679-0.4964" fill="#f9f9f9" stroke-width=".96299"/>
</svg>
