<?xml version="1.0" encoding="UTF-8" standalone="no"?>
<svg
   width="64"
   height="64"
   viewBox="0 0 16.933 16.933"
   version="1.1"
   id="svg3"
   sodipodi:docname="diligent-graphics.svg"
   xml:space="preserve"
   inkscape:version="1.3.2 (091e20ef0f, 2023-11-25, custom)"
   xmlns:inkscape="http://www.inkscape.org/namespaces/inkscape"
   xmlns:sodipodi="http://sodipodi.sourceforge.net/DTD/sodipodi-0.dtd"
   xmlns="http://www.w3.org/2000/svg"
   xmlns:svg="http://www.w3.org/2000/svg"><defs
     id="defs3"><linearGradient
       id="linearGradient1053"
       x1="68"
       x2="128"
       y1="62"
       y2="2"
       gradientTransform="matrix(0.24253,0,0,0.24253,-15.3015,0.7050998)"
       gradientUnits="userSpaceOnUse"><stop
         stop-color="#e0e4e9"
         offset="0"
         id="stop1" /><stop
         stop-color="#fefeff"
         offset="1"
         id="stop2" /></linearGradient></defs><sodipodi:namedview
     id="namedview3"
     pagecolor="#ffffff"
     bordercolor="#000000"
     borderopacity="0.25"
     inkscape:showpageshadow="2"
     inkscape:pageopacity="0.0"
     inkscape:pagecheckerboard="0"
     inkscape:deskcolor="#d1d1d1"
     inkscape:zoom="2.1765631"
     inkscape:cx="118.5355"
     inkscape:cy="36.755195"
     inkscape:window-width="1920"
     inkscape:window-height="995"
     inkscape:window-x="0"
     inkscape:window-y="0"
     inkscape:window-maximized="1"
     inkscape:current-layer="svg3" /><rect
     x="1.1905"
     y="1.1904999"
     width="14.552"
     height="14.552"
     ry="0.72759002"
     fill="url(#linearGradient1053)"
     stroke-width="0.91667"
     id="rect2-3"
     style="fill:url(#linearGradient1053)" /><path
     id="path9"
     style="-inkscape-font-specification:'Liberation Serif, Normal';fill:#2082d3;stroke-width:0.238675"
     d="M 9.96302 7.0681633 C 9.5746376 7.1019123 9.2454998 7.2019805 8.9749861 7.3673639 C 8.9246291 8.0867843 8.7485333 8.6348563 8.4453131 9.0106421 C 8.3202157 9.1670139 8.1700007 9.2955822 7.9962537 9.397691 C 7.9822425 9.5691983 7.9750668 9.7500565 7.9750668 9.9407996 C 7.9750668 9.9471068 7.9750489 9.9531164 7.9750668 9.9594027 C 8.4570262 9.8279403 8.8515908 9.6086516 9.1584338 9.3000244 C 9.6714798 8.7869784 9.9395518 8.0424878 9.96302 7.0681633 z " /><path
     id="path8"
     style="-inkscape-font-specification:'Liberation Serif, Normal';fill:#2082d3;stroke-width:0.238675"
     d="M 9.9594027 6.6893825 C 9.6053263 6.706291 9.2814289 6.7555477 8.9894552 6.8387244 C 8.9898989 6.8650912 8.9904887 6.891024 8.9904887 6.9177878 C 8.9904887 7.0746868 8.9850145 7.2240933 8.9749861 7.3673639 C 9.2454998 7.2019805 9.5746376 7.1019123 9.96302 7.0681633 C 9.964145 7.0214584 9.965087 6.9748542 9.965087 6.9270894 C 9.965087 6.8461187 9.9628287 6.7671568 9.9594027 6.6893825 z " /><path
     id="path7"
     style="-inkscape-font-specification:'Liberation Serif, Normal';fill:#2082d3;stroke-width:0.238675"
     d="M 3.7278644 3.8363828 L 3.7278644 4.0833913 L 4.5293501 4.2048285 L 4.5293501 9.7144613 L 3.7278644 9.8405493 L 3.7278644 10.087558 L 4.5293501 10.087558 L 6.757594 10.106161 C 6.8413715 10.106161 6.9230741 10.103798 7.003569 10.100477 C 7.0021172 10.050794 7.0004685 10.000956 7.0004685 9.9501012 C 7.0004685 9.8571361 7.0032361 9.7667417 7.0071863 9.6777717 C 6.9264835 9.6834462 6.8433843 9.6865565 6.757594 9.6865565 C 6.2448167 9.6865565 5.8019481 9.6742122 5.4290191 9.6493503 L 5.4290191 4.2559872 L 6.2682278 4.2559872 C 7.1415031 4.2559872 7.8127498 4.4812791 8.2820188 4.9319016 C 8.7399182 5.3687136 8.9754217 6.0047692 8.9894552 6.8387244 C 9.2814289 6.7555477 9.6053263 6.706291 9.9594027 6.6893825 C 9.9191729 5.776116 9.6431588 5.0824996 9.1305291 4.6099638 C 8.5742434 4.0940788 7.7198837 3.8363828 6.5669117 3.8363828 L 3.7278644 3.8363828 z " /><path
     style="-inkscape-font-specification:'Liberation Serif, Normal';fill:#1aa4db;stroke-width:0.238675"
     d="m 12.594581,12.677071 q -0.540748,0.177142 -1.12345,0.298344 -0.582702,0.121202 -1.253975,0.121202 -1.5196867,0 -2.3681009,-0.820445 -0.8484142,-0.820444 -0.8484142,-2.3261462 0,-1.6408889 0.8204445,-2.4520102 0.8251061,-0.8157829 2.4147176,-0.8157829 1.137434,0 2.195621,0.279697 V 8.3044753 H 12.119096 L 11.993232,7.5306469 Q 11.671581,7.3022277 11.219404,7.1810257 10.771889,7.0551621 10.273096,7.0551621 q -1.1933742,0 -1.7481066,0.7132273 -0.5500707,0.7085657 -0.5500707,2.1723132 0,1.3751764 0.5687172,2.0884044 0.5687172,0.708565 1.6828431,0.708565 0.391576,0 0.820445,-0.09323 0.428869,-0.09323 0.652626,-0.223757 v -1.776076 l -0.801798,-0.121202 v -0.251728 h 2.3075 v 0.251728 l -0.610671,0.121202 z"
     id="path11"
     aria-label="G" /><path
     id="text4"
     style="-inkscape-font-specification:'Liberation Serif, Normal';fill:#2082d3;stroke-width:0.238675"
     d="M 7.9750668 9.9594027 C 7.9750489 9.9531164 7.9750668 9.9471068 7.9750668 9.9407996 C 7.9750668 9.7500565 7.9822425 9.5691983 7.9962537 9.397691 C 7.7254936 9.556813 7.396091 9.6504264 7.0071863 9.6777717 C 7.0032361 9.7667417 7.0004685 9.8571361 7.0004685 9.9501012 C 7.0004685 10.000956 7.0021172 10.050794 7.003569 10.100477 C 7.3593364 10.085799 7.6834223 10.038954 7.9750668 9.9594027 z " /><path
     id="path12"
     style="-inkscape-font-specification:'Liberation Serif, Normal';fill:#2082d3;stroke-width:0.238675"
     d="M 7.9750668 9.9594027 C 7.9750489 9.9531164 7.9750668 9.9471068 7.9750668 9.9407996 C 7.9750668 9.7500565 7.9822425 9.5691983 7.9962537 9.397691 C 7.7254936 9.556813 7.396091 9.6504264 7.0071863 9.6777717 C 7.0032361 9.7667417 7.0004685 9.8571361 7.0004685 9.9501012 C 7.0004685 10.000956 7.0021172 10.050794 7.003569 10.100477 C 7.3593364 10.085799 7.6834223 10.038954 7.9750668 9.9594027 z " /><path
     id="path13"
     style="-inkscape-font-specification:'Liberation Serif, Normal';fill:#2082d3;stroke-width:0.238675"
     d="M 7.9750668 9.9594027 C 7.9750489 9.9531164 7.9750668 9.9471068 7.9750668 9.9407996 C 7.9750668 9.7500565 7.9822425 9.5691983 7.9962537 9.397691 C 7.7254936 9.556813 7.396091 9.6504264 7.0071863 9.6777717 C 7.0032361 9.7667417 7.0004685 9.8571361 7.0004685 9.9501012 C 7.0004685 10.000956 7.0021172 10.050794 7.003569 10.100477 C 7.3593364 10.085799 7.6834223 10.038954 7.9750668 9.9594027 z " /></svg>
