<?xml version="1.0" encoding="UTF-8" standalone="no"?>
<svg
   width="64"
   height="64"
   viewBox="0 0 16.933 16.933"
   version="1.1"
   id="svg1"
   sodipodi:docname="discord-development.svg"
   inkscape:version="1.3.2 (091e20ef0f, 2023-11-25, custom)"
   xmlns:inkscape="http://www.inkscape.org/namespaces/inkscape"
   xmlns:sodipodi="http://sodipodi.sourceforge.net/DTD/sodipodi-0.dtd"
   xmlns="http://www.w3.org/2000/svg"
   xmlns:svg="http://www.w3.org/2000/svg">
  <defs
     id="defs1">
    <linearGradient
       id="linearGradient2323"
       x1="0.73910999"
       x2="16.388"
       y1="16.296"
       y2="0.64687002"
       gradientTransform="matrix(0.99999,0,0,0.99999,-0.03489206,0.0064864)"
       gradientUnits="userSpaceOnUse">
      <stop
         stop-color="#0354f8"
         offset="0"
         id="stop48" />
      <stop
         stop-color="#008df8"
         offset="1"
         id="stop49" />
    </linearGradient>
    <filter
       id="filter873"
       x="-0.051552876"
       y="-0.071757422"
       width="1.1031058"
       height="1.1435148"
       color-interpolation-filters="sRGB">
      <feGaussianBlur
         stdDeviation="0.22066716"
         id="feGaussianBlur96" />
    </filter>
  </defs>
  <sodipodi:namedview
     id="namedview1"
     pagecolor="#ffffff"
     bordercolor="#000000"
     borderopacity="0.25"
     inkscape:showpageshadow="2"
     inkscape:pageopacity="0.0"
     inkscape:pagecheckerboard="0"
     inkscape:deskcolor="#d1d1d1"
     inkscape:zoom="4.3531261"
     inkscape:cx="14.012918"
     inkscape:cy="32.390516"
     inkscape:window-width="1920"
     inkscape:window-height="995"
     inkscape:window-x="0"
     inkscape:window-y="0"
     inkscape:window-maximized="1"
     inkscape:current-layer="svg1" />
  <path
     d="m 16.404146,8.4663547 c 0,0.95153 -0.16749,1.8638003 -0.47464,2.7094003 -0.2135,0.58768 -0.49438,1.1433 -0.83392,1.6572 -0.14222,0.21608 -0.29514,0.42475 -0.45745,0.62528 -0.51965,0.64178 -1.1372,1.200699 -1.8304,1.6543 -0.2553,0.16717 -0.52064,0.3201 -0.79535,0.45712 -1.0668,0.53388 -2.2711,0.8342 -3.5456,0.8342 -1.2745,0 -2.4788,-0.30032 -3.5456,-0.83422 -0.27474,-0.137051 -0.5404,-0.289961 -0.79569,-0.45712 -0.70206,-0.459721 -1.327,-1.0274 -1.8508,-1.6798 -0.16262,-0.20216 -0.31523,-0.41275 -0.45745,-0.63077 -0.3304601,-0.50539 -0.6042001,-1.0507 -0.8134801,-1.627 -0.30709996,-0.84527 -0.47429996,-1.7572003 -0.47429996,-2.7084003 0,-4.3837 3.55370006,-7.9374 7.93740006,-7.9374 2.2005,0 4.1916,0.89547 5.6294,2.3416 0.41435,0.41661 0.78273,0.87928 1.0963,1.3795 0.29644,0.47107 0.54427,0.9758 0.73703,1.5068 0.30718,0.84558 0.47466,1.7579 0.47466,2.7094 z"
     stroke-width="0.031006"
     id="path378"
     style="fill:#4d4d4d;fill-opacity:1" />
  <path
     transform="matrix(1.5216,0,0,1.5701,-5.092154,-4.6070453)"
     d="m 10.792,11.321 c 0.62511,-0.19624 1.1645,-0.50057 1.5837,-1.0425 -2.2945,1.326 -4.5644,1.2854 -6.8546,0.0092 0.18686,0.26661 0.41187,0.46916 0.6745,0.6212 0.26185,0.1516 0.53978,0.27545 0.82004,0.41624 -0.12085,0.15091 -0.26427,0.3087 -0.3824,0.48353 C 6.5208,11.97525 6.3933,12.0336 6.18779,12.00971 5.41343,11.91972 4.71729,11.66201 4.14009,11.12301 4.12336,11.10734 4.10763,11.09061 4.09065,11.07531 3.85499,10.86307 3.75661,10.62618 3.77689,10.28351 3.87277,8.66151 4.27748,7.12671 4.98599,5.66891 5.02072,5.597453 5.08004,5.52867 5.14494,5.48262 5.71094,5.08087 6.33164,4.80335 7.01834,4.68339 7.14941,4.660478 7.28239,4.643321 7.41511,4.637432 c 0.05395,-0.00238 0.10958,0.032329 0.16324,0.07116 -0.81592,0.27275 -1.5913,0.60135 -2.2732,1.1504 2.3432,-1.1162 4.6728,-1.1714 7.0088,-0.028293 -0.62447,-0.50465 -1.3464,-0.81737 -2.1016,-1.0645 0.05638,-0.116 0.13508,-0.13831 0.25569,-0.12708 0.81731,0.075948 1.5471,0.37637 2.2134,0.8437 0.06252,0.043851 0.1209,0.1083 0.15455,0.17635 0.51692,1.0465 0.86535,2.1476 1.0629,3.2979 0.09173,0.53459 0.13898,1.0729 0.14835,1.6143 0.0012,0.07611 -0.03103,0.16682 -0.0779,0.22763 -0.43529,0.56479 -1.0155,0.91363 -1.6988,1.0881 -0.2639,0.06738 -0.53912,0.09137 -0.8101,0.12864 -0.04197,0.0058 -0.10548,-0.0092 -0.13064,-0.03879 -0.18048,-0.21153 -0.35356,-0.42927 -0.53783,-0.6559 z M 7.1727,9.8746 C 7.47224,9.873871 7.64983,9.81043 7.8057,9.68095 8.06047,9.46917 8.15552,9.19017 8.17514,8.86628 8.19704,8.50408 8.05642,8.23469 7.7555,8.05089 7.44504,7.8613 7.12064,7.84563 6.80641,8.04279 c -0.50436,0.3165 -0.59909,1.0694 -0.19778,1.5231 0.1756,0.1985 0.39373,0.30659 0.56408,0.3087 z m 3.3061,0.01398 C 10.58177,9.86496 10.68956,9.85373 10.78693,9.81568 11.38787,9.58122 11.57922,8.77428 11.1637,8.24248 10.8399,7.82808 10.23658,7.79074 9.8677,8.16607 9.62368,8.41431 9.54756,8.718 9.58915,9.05787 c 0.0551,0.45044 0.44937,0.81476 0.8897,0.83071 z"
     filter="url(#filter873)"
     opacity="0.2"
     stroke-width="0.045727"
     id="path379" />
  <path
     d="m 11.420146,13.167955 c 0.98145,-0.30811 1.8283,-0.78591 2.4864,-1.6368 -3.6024,2.0818 -7.1662,2.0181 -10.762,0.01444 0.29338,0.41858 0.64665,0.7366 1.059,0.9753 0.41111,0.23802 0.84748,0.43247 1.2875,0.65352 -0.18974,0.23694 -0.41492,0.48468 -0.60039,0.759169 -0.17653,0.26153 -0.37672,0.35315 -0.69937,0.31564 -1.2157,-0.14128 -2.3088,-0.545899 -3.21500006,-1.392199 -0.026266,-0.0246 -0.050963,-0.05087 -0.077622,-0.07489 -0.36999,-0.33322 -0.52446,-0.70515 -0.49262,-1.2432 0.15054,-2.5465003 0.78594996,-4.9563003 1.89830006,-7.2451003 0.054528,-0.11219 0.14766,-0.22018 0.24956,-0.29249 0.88864,-0.63076 1.8631,-1.0665 2.9413,-1.2548 0.20578,-0.035973 0.41456,-0.06291 0.62294,-0.072156 0.084703,-0.00374 0.17204,0.050757 0.25629,0.11172 -1.281,0.42823 -2.4984,0.94414 -3.569,1.8061 3.6789,-1.7524 7.3365,-1.8392 11.004,-0.044421 -0.98044,-0.79232 -2.1139,-1.2833 -3.2996,-1.6713 0.08852,-0.18212 0.21208,-0.21715 0.40145,-0.19952 1.2832,0.11924 2.429,0.59091 3.4751,1.3246 0.09816,0.068847 0.18981,0.17003 0.24265,0.27688 0.81159,1.6431 1.3587,3.3719 1.6688,5.1779 0.14402,0.8393303 0.2182,1.6844003 0.23291,2.5345003 0.0019,0.1195 -0.04872,0.26191 -0.1223,0.35739 -0.68342,0.88674 -1.5944,1.434399 -2.6672,1.708299 -0.41434,0.10578 -0.84644,0.14346 -1.2718,0.20197 -0.06589,0.0092 -0.16561,-0.01444 -0.20511,-0.0609 -0.28336,-0.33211 -0.5551,-0.673969 -0.84442,-1.029799 z m -5.6824,-2.2709 c 0.47029,-0.0011 0.74911,-0.10074 0.99383,-0.30404 0.39999,-0.3325 0.54923,-0.7705403 0.58004,-1.2790003 0.034384,-0.56867 -0.18639,-0.99162 -0.65885,-1.2802 -0.48743,-0.29766 -0.99675,-0.32226 -1.4901,-0.012717 -0.79187,0.49691 -0.94059,1.679 -0.31052,2.3914003 0.2757,0.31165 0.61817,0.48136 0.88563,0.48467 z m 5.1907,0.02195 c 0.16167,-0.03709 0.3309,-0.05472 0.48377,-0.11446 0.9435,-0.3681 1.244,-1.6351003 0.59154,-2.4700003 -0.50837,-0.65063 -1.4556,-0.70924 -2.0348,-0.11996 -0.38312,0.38975 -0.50264,0.86655 -0.43734,1.4002 0.086508,0.7072103 0.70553,1.2792003 1.3968,1.3043003 z"
     fill="#ffffff"
     stroke-width="0.071793"
     id="path380" />
</svg>
