<?xml version="1.0" encoding="UTF-8"?>
<svg width="64" height="64" version="1.1" viewBox="0 0 16.933 16.933" xmlns="http://www.w3.org/2000/svg">
 <defs>
  <linearGradient id="linearGradient1005" x1=".73911" x2="16.388" y1="16.296" y2=".64687" gradientTransform="matrix(.99999 0 0 .99999 -.03523 .0064002)" gradientUnits="userSpaceOnUse">
   <stop stop-color="#00a0ff" offset="0"/>
   <stop stop-color="#37beff" offset="1"/>
  </linearGradient>
 </defs>
 <path d="m16.404 8.4666c0 0.95155-0.16749 1.8638-0.47464 2.7093-0.2135 0.58769-0.49437 1.1433-0.83391 1.6572-0.14222 0.21608-0.29514 0.42476-0.45746 0.62529-0.51964 0.6418-1.1372 1.2007-1.8305 1.6543-0.2553 0.16717-0.52065 0.32009-0.79536 0.45712-1.0668 0.53388-2.2711 0.8342-3.5457 0.8342s-2.4788-0.30033-3.5457-0.83423c-0.27474-0.13705-0.54041-0.28996-0.79571-0.45712-0.70207-0.45971-1.327-1.0274-1.8509-1.6798-0.16262-0.20216-0.31522-0.41275-0.45746-0.63077-0.33046-0.50538-0.6042-1.0507-0.81349-1.627-0.3071-0.84529-0.47429-1.7573-0.47429-2.7085 0-4.3839 3.5536-7.9375 7.9375-7.9375 2.2005 0 4.1915 0.89548 5.6295 2.3417 0.41436 0.41661 0.78274 0.87929 1.0963 1.3795 0.29644 0.47106 0.54427 0.97581 0.73705 1.5068 0.30718 0.84558 0.47466 1.7579 0.47466 2.7093z" fill="url(#linearGradient1005)" stroke-width=".031006"/>
 <path d="M9.596 4.233a3.104 3.104 0 0 0-3.01 2.355 3.104 3.104 0 0 0-2.353 3.008V12.7h3.105a3.104 3.104 0 0 0 3.01-2.354A3.104 3.104 0 0 0 12.7 7.338V4.233zm0 .444h2.66v2.66a2.661 2.661 0 0 1-1.827 2.524 3.104 3.104 0 0 0 .013-.265A3.104 3.104 0 0 0 7.338 6.49a3.104 3.104 0 0 0-.268.013 2.661 2.661 0 0 1 2.526-1.827zM7.338 6.935a2.661 2.661 0 0 1 2.66 2.66 2.661 2.661 0 0 1-.03.374 2.661 2.661 0 0 1-.372.03 2.661 2.661 0 0 1-2.661-2.661 2.661 2.661 0 0 1 .03-.374 2.661 2.661 0 0 1 .373-.03zm-.834.137a3.104 3.104 0 0 0-.013.266 3.104 3.104 0 0 0 3.105 3.104 3.104 3.104 0 0 0 .267-.013 2.661 2.661 0 0 1-2.525 1.827h-2.66v-2.66a2.661 2.661 0 0 1 1.826-2.524z" fill="#fff"/>
</svg>
