<?xml version="1.0" encoding="UTF-8"?>
<svg width="64" height="64" version="1.1" viewBox="0 0 16.933 16.933" xmlns="http://www.w3.org/2000/svg">
 <defs>
  <linearGradient id="b" x1="520" x2="520.03" y1="44" y2="985.85" gradientTransform="matrix(.016817 0 0 .016817 -.14345 -.14352)" gradientUnits="userSpaceOnUse">
   <stop stop-color="#15c4fc" offset="0"/>
   <stop stop-color="#1863ee" offset="1"/>
  </linearGradient>
 </defs>
 <path d="m16.163 6.4485c-0.0185-0.073151-0.03952-0.15135-0.06138-0.2287-0.04204-0.14715-0.08997-0.29596-0.1421-0.44312-0.10847-0.30691-0.23795-0.60623-0.3893-0.90221-0.0639-0.12444-0.13369-0.25141-0.20684-0.37668h-4.23e-4q-0.5146-0.87462-1.2835-1.6438c-1.5496-1.5496-3.4213-2.3249-5.6133-2.3249-2.192 0-4.0629 0.77524-5.6125 2.3249-1.5496 1.5496-2.3249 3.4205-2.3249 5.6125 0 2.192 0.77524 4.0637 2.3249 5.6133 1.1444 1.1444 2.4636 1.8658 3.9502 2.1634 0.53728 0.10762 1.0889 0.1606 1.6623 0.1606 2.192 0 4.0637-0.77439 5.6133-2.324 0.81728-0.81728 1.4193-1.7237 1.8052-2.7209 0.28588-0.73907 0.45404-1.5269 0.50365-2.3669 0.01009-0.17153 0.01513-0.34726 0.01513-0.52551 0-0.70208-0.07904-1.3722-0.24048-2.018z" fill="url(#b)" image-rendering="optimizeSpeed" stroke-width=".26355"/>
 <path d="m8.4671 3.1749a5.2872 5.2872 0 0 0-5.2809 5.0847c1.7536-1.2374 4.7372-3.2686 5.4772-3.3223 0.24499-0.31123 1.0899-0.56247 1.2424-0.55622l-0.44372 0.55622s-0.0075 0.56247-0.17124 0.67121c1.5287 1.0212 2.2586 4.6872 2.5711 6.9121l-0.13124 0.10499a5.2772 5.2772 0 0 0 2.0274-4.1585 5.2909 5.2909 0 0 0-5.2909-5.2922zm-0.074996 4.3472c-0.41248 0.012499-1.2474 1.2412-2.1999 2.5561-0.45747 0.63246-1.0499 1.4974-1.4874 2.0974l-0.31248-0.34373c0.89495-1.4674 2.0111-3.2586 1.9574-3.3248-0.012499-0.0062496-0.026248-0.016249-0.043747-0.012499-0.30248 0.044997-1.5224 1.5637-2.3936 2.6561a5.2847 5.2847 0 0 0 4.5547 2.6073c1.1787 0 2.2624-0.38998 3.1423-1.0412-0.65121-1.9911-1.9099-5.1722-3.1748-5.1797-0.012499-0.0024999-0.029998-0.014999-0.042498-0.014999zm-3.0711 0.51497c-0.37498-0.0024999-1.3374 0.33748-2.1349 0.64371 0.031248 0.78995 0.23374 1.5337 0.57497 2.1961 0.15999-0.24249 0.43747-0.63996 0.60371-0.8837 0.63371-0.93244 1.2574-1.7574 1.1124-1.9274-0.024998-0.028748-0.082495-0.028748-0.15624-0.028748zm-2.1411 0.33373c0 0.032498-5e-3 0.062496-5e-3 0.096244 0 0.043747 0.00625 0.087495 0.0075 0.13124zm0.59122 2.5274c0.032498 0.06375 0.067496 0.12624 0.10249 0.18874z" fill="#fff" fill-rule="evenodd" overflow="visible" stroke-width="1.2499"/>
</svg>
