<?xml version="1.0" encoding="UTF-8" standalone="no"?>
<svg
   xmlns:dc="http://purl.org/dc/elements/1.1/"
   xmlns:cc="http://creativecommons.org/ns#"
   xmlns:rdf="http://www.w3.org/1999/02/22-rdf-syntax-ns#"
   xmlns:svg="http://www.w3.org/2000/svg"
   xmlns="http://www.w3.org/2000/svg"
   xmlns:sodipodi="http://sodipodi.sourceforge.net/DTD/sodipodi-0.dtd"
   xmlns:inkscape="http://www.inkscape.org/namespaces/inkscape"
   width="64"
   height="64"
   version="1.1"
   viewBox="0 0 16.933 16.933"
   id="svg21"
   sodipodi:docname="distributor-logo-raspbian.svg"
   inkscape:version="1.0.1 (3bc2e813f5, 2020-09-07)">
  <metadata
     id="metadata25">
    <rdf:RDF>
      <cc:Work
         rdf:about="">
        <dc:format>image/svg+xml</dc:format>
        <dc:type
           rdf:resource="http://purl.org/dc/dcmitype/StillImage" />
        <dc:title></dc:title>
      </cc:Work>
    </rdf:RDF>
  </metadata>
  <sodipodi:namedview
     pagecolor="#ffffff"
     bordercolor="#666666"
     borderopacity="1"
     objecttolerance="10"
     gridtolerance="10"
     guidetolerance="10"
     inkscape:pageopacity="0"
     inkscape:pageshadow="2"
     inkscape:window-width="1920"
     inkscape:window-height="932"
     id="namedview23"
     showgrid="false"
     inkscape:zoom="5.9765625"
     inkscape:cx="16.575369"
     inkscape:cy="19.616751"
     inkscape:window-x="0"
     inkscape:window-y="36"
     inkscape:window-maximized="1"
     inkscape:current-layer="svg21"
     inkscape:document-rotation="0" />
  <defs
     id="defs7">
    <linearGradient
       id="a"
       x1="45.628"
       x2="45.628"
       y1="57.955"
       y2="12.461"
       gradientTransform="matrix(0.26458,0,0,0.26458,0,280.07)"
       gradientUnits="userSpaceOnUse">
      <stop
         offset="0"
         id="stop2" />
      <stop
         stop-opacity="0"
         offset="1"
         id="stop4" />
    </linearGradient>
    <linearGradient
       id="a-3"
       x1="-6.1472"
       x2="-6.1472"
       y1="-140.25"
       y2="-98.292"
       gradientTransform="matrix(0.53033,0,0,0.53033,-4.458635,65.921298)"
       gradientUnits="userSpaceOnUse">
      <stop
         stop-color="#ff3c69"
         offset="0"
         id="stop852" />
      <stop
         stop-color="#ff462b"
         offset="1"
         id="stop854" />
    </linearGradient>
  </defs>
  <g
     id="g1016">
    <path
       style="fill:#bc1142;stroke-width:0.0237405"
       d="m 10.193264,11.739191 a 1.6957203,1.5912056 0 1 1 -3.39144,0 1.6957203,1.5912056 0 1 1 3.39144,0 z"
       id="path956" />
    <path
       style="fill:#bc1142;stroke-width:0.0401226"
       d="M 7.5669897,7.3002061 A 1.5352972,1.8247149 31.318542 1 1 5.5797761,10.360369 1.5352972,1.8247149 31.318542 1 1 7.5669897,7.3002061 Z"
       id="path958" />
    <path
       style="fill:#bc1142;stroke-width:0.0404385"
       d="M 9.3460965,7.205353 A 1.8390829,1.5473863 58.681458 1 0 11.348957,10.289612 1.8390829,1.5473863 58.681458 1 0 9.3460965,7.205353 Z"
       id="path960" />
    <path
       style="fill:#bc1142;stroke-width:0.021485"
       d="M 4.1227129,8.0236317 C 4.8982702,7.8121666 4.3845015,11.288429 3.7535431,11.003192 3.0595021,10.435075 2.8359497,8.7713697 4.1227129,8.0236317 Z"
       id="path962" />
    <path
       style="fill:#bc1142;stroke-width:0.021033"
       d="M 12.663944,8.0136482 C 11.904702,7.8066319 12.407662,11.209762 13.025347,10.930525 13.704786,10.374361 13.923635,8.7456555 12.663944,8.0136482 Z"
       id="path964" />
    <path
       style="fill:#bc1142;stroke-width:0.0212771"
       d="M 10.112428,5.5985423 C 11.437751,5.37081 12.540472,6.1721007 12.496082,7.6345421 12.452486,8.1951972 9.6242002,5.6820122 10.112428,5.5985423 Z"
       id="path966" />
    <path
       style="fill:#bc1142;stroke-width:0.0213404"
       d="M 6.6668064,5.5465448 C 5.3375409,5.3181351 4.2315394,6.1218093 4.2760609,7.588601 4.3197808,8.1509238 7.1564862,5.6302629 6.6668064,5.5465448 Z"
       id="path968" />
    <path
       style="fill:#bc1142;stroke-width:0.0211055"
       d="M 8.4579304,5.2341897 C 7.6733022,5.2134211 6.9202598,5.8267927 6.9184581,6.1825621 6.9162135,6.6148495 7.5388198,7.0574445 8.4632797,7.0686793 9.407343,7.075555 10.00974,6.7143953 10.012784,6.2682831 10.016234,5.7628479 9.1541717,5.2263814 8.4579304,5.2341897 Z"
       id="path970" />
    <path
       style="fill:#bc1142;stroke-width:0.0213893"
       d="m 8.5069074,13.700952 c 0.6932945,-0.03079 1.6235566,0.227245 1.6253786,0.56954 0.01151,0.332395 -0.8436733,1.083384 -1.6713801,1.068864 -0.8571935,0.03763 -1.6977313,-0.714528 -1.6867141,-0.975241 -0.012835,-0.382252 1.0437548,-0.680704 1.7327156,-0.663163 z"
       id="path972" />
    <path
       style="fill:#bc1142;stroke-width:0.0214179"
       d="m 6.0795145,11.805782 c 0.4942552,0.605946 0.7195562,1.670527 0.3070867,1.984339 -0.3902211,0.23956 -1.3378574,0.140905 -2.0114107,-0.843735 -0.4542538,-0.826237 -0.3957083,-1.667019 -0.076776,-1.914028 0.4769579,-0.295658 1.2138883,0.103691 1.7810959,0.773424 z"
       id="path974" />
    <path
       style="fill:#bc1142;stroke-width:0.0209842"
       d="m 10.851719,11.612992 c -0.523932,0.624497 -0.815686,1.763511 -0.433466,2.130425 0.365453,0.285 1.346484,0.245162 2.071144,-0.778052 0.526202,-0.687218 0.349889,-1.834905 0.04932,-2.139576 -0.446492,-0.351436 -1.087453,0.09833 -1.686996,0.787203 z"
       id="path976" />
    <g
       stroke-width="0.103"
       id="g19"
       transform="matrix(1.7187602,0,0,1.7187602,-6.0861988,-6.0841374)">
      <path
         d="M 6.946,4.233 A 0.236,0.236 0 0 0 6.806,4.291 C 6.677,4.241 6.553,4.224 6.442,4.325 6.27,4.303 6.215,4.348 6.172,4.402 6.135,4.402 5.89,4.363 5.778,4.53 5.497,4.497 5.408,4.696 5.509,4.881 5.452,4.97 5.392,5.058 5.527,5.228 5.479,5.322 5.508,5.425 5.62,5.548 5.59,5.682 5.649,5.775 5.753,5.848 5.733,6.029 5.92,6.135 5.975,6.173 5.996,6.278 6.041,6.379 6.253,6.434 6.288,6.592 6.416,6.619 6.54,6.652 6.131,6.89 5.78,7.202 5.783,7.97 l -0.06,0.107 c -0.468,0.285 -0.89,1.2 -0.23,1.946 0.042,0.233 0.114,0.4 0.179,0.585 0.096,0.747 0.724,1.097 0.89,1.138 0.242,0.185 0.5,0.36 0.85,0.483 0.33,0.34 0.688,0.47 1.047,0.47 h 0.015 c 0.36,0 0.717,-0.13 1.047,-0.47 0.35,-0.123 0.608,-0.298 0.85,-0.483 0.166,-0.04 0.794,-0.391 0.89,-1.138 0.065,-0.185 0.137,-0.352 0.18,-0.585 0.66,-0.745 0.238,-1.661 -0.231,-1.946 L 11.15,7.969 C 11.153,7.202 10.802,6.889 10.393,6.652 10.517,6.619 10.645,6.592 10.68,6.433 10.892,6.378 10.937,6.279 10.958,6.173 11.014,6.135 11.2,6.029 11.18,5.848 c 0.104,-0.073 0.162,-0.167 0.133,-0.3 0.112,-0.124 0.141,-0.226 0.094,-0.32 0.134,-0.17 0.074,-0.258 0.017,-0.347 0.1,-0.185 0.012,-0.384 -0.27,-0.35 C 11.042,4.363 10.798,4.401 10.761,4.402 10.718,4.348 10.663,4.302 10.491,4.325 10.381,4.225 10.256,4.241 10.128,4.291 9.976,4.171 9.875,4.267 9.76,4.304 9.576,4.244 9.534,4.326 9.443,4.359 9.243,4.317 9.182,4.409 9.085,4.507 L 8.973,4.504 C 8.67,4.683 8.52,5.047 8.467,5.234 8.413,5.047 8.263,4.683 7.96,4.504 L 7.848,4.507 C 7.751,4.409 7.69,4.317 7.489,4.359 7.399,4.326 7.357,4.243 7.173,4.304 7.097,4.28 7.028,4.23 6.946,4.233 Z M 8.463,6.61 C 8.857,6.607 9.344,6.904 9.343,7.185 9.34,7.433 9,7.633 8.467,7.63 7.944,7.623 7.592,7.377 7.593,7.137 7.594,6.939 8.02,6.599 8.463,6.61 Z m -1.34,0.167 c 0.089,0 0.18,0.007 0.273,0.022 C 7.669,6.845 6.083,8.229 6.059,7.92 6.037,7.215 6.508,6.789 7.124,6.777 Z m 2.598,0.024 c 0.616,0.012 1.087,0.438 1.065,1.143 C 10.762,8.254 9.176,6.868 9.45,6.822 9.543,6.806 9.633,6.8 9.721,6.802 Z m -0.262,0.86 a 1.019,0.864 55.966 0 1 0.67,1.823 1.019,0.864 55.966 1 1 -1.123,-1.7 1.019,0.864 55.966 0 1 0.453,-0.123 z M 7.514,7.709 a 0.864,1.019 34.034 0 1 0.415,0.122 0.86400937,1.0190108 34.034 1 1 -1.124,1.7 0.864,1.019 34.034 0 1 0.672,-1.822 0.864,1.019 34.034 0 1 0.037,0 z m 3.399,0.526 c 0.715,0.408 0.59,1.316 0.205,1.626 -0.35,0.156 -0.636,-1.742 -0.205,-1.626 z M 5.935,8.259 C 6.365,8.143 6.081,10.04 5.731,9.885 5.345,9.575 5.221,8.667 5.935,8.259 Z M 8.51,9.476 a 0.963,0.888 0 0 1 0.94,0.893 0.963,0.888 0 1 1 -1.926,0 0.963,0.888 0 0 1 0.986,-0.893 z m 2.105,0.335 a 0.316,0.316 0 0 1 0.209,0.068 c 0.17,0.17 0.27,0.812 -0.029,1.196 -0.412,0.572 -0.97,0.594 -1.178,0.435 C 9.4,11.305 9.567,10.668 9.864,10.32 10.12,10.03 10.389,9.817 10.614,9.81 Z M 6.292,9.947 c 0.243,0.01 0.533,0.202 0.77,0.477 0.275,0.332 0.401,0.915 0.171,1.087 C 7.016,11.642 6.488,11.588 6.113,11.049 5.859,10.596 5.893,10.136 6.07,10.001 A 0.389,0.389 0 0 1 6.292,9.947 Z m 2.199,1.59 c 0.387,-0.017 0.905,0.124 0.906,0.312 0.007,0.182 -0.47,0.594 -0.932,0.586 C 7.987,12.455 7.518,12.043 7.524,11.9 7.517,11.69 8.106,11.527 8.491,11.537 Z"
         fill="#282828"
         id="path15" />
      <path
         d="m 6.957,4.445 c 0.042,0.052 0.1,0.104 0.039,0.163 A 0.92,0.92 0 0 0 6.619,4.461 C 6.665,4.513 6.76,4.565 6.702,4.617 A 1.562,1.562 0 0 0 6.343,4.527 C 6.406,4.58 6.459,4.632 6.407,4.673 6.292,4.637 6.133,4.588 5.977,4.63 l 0.099,0.1 C 6.086,4.744 5.846,4.74 5.686,4.743 5.744,4.825 5.804,4.904 5.838,5.045 5.823,5.061 5.744,5.052 5.67,5.045 5.746,5.208 5.878,5.249 5.909,5.318 5.862,5.354 5.798,5.345 5.727,5.321 5.782,5.436 5.897,5.514 5.988,5.608 5.965,5.624 5.925,5.634 5.83,5.622 5.914,5.713 6.015,5.796 6.135,5.87 6.115,5.895 6.041,5.895 5.973,5.896 6.082,6.005 6.223,6.061 6.353,6.132 6.288,6.177 6.241,6.166 6.191,6.166 6.284,6.243 6.442,6.284 6.589,6.331 6.561,6.375 6.533,6.387 6.473,6.399 6.629,6.486 6.851,6.447 6.914,6.491 6.899,6.535 6.856,6.563 6.805,6.587 7.055,6.602 7.739,6.578 7.87,6.052 7.614,5.767 7.147,5.432 6.345,5.018 6.969,5.231 7.533,5.514 8.005,5.903 8.56,5.64 8.178,4.979 7.907,4.716 7.893,4.786 7.877,4.829 7.859,4.842 7.771,4.746 7.699,4.648 7.586,4.556 7.586,4.61 7.613,4.668 7.545,4.711 A 0.802,0.802 0 0 0 7.293,4.491 C 7.345,4.583 7.301,4.611 7.273,4.649 7.19,4.577 7.111,4.503 6.957,4.446 Z m 3.037,0 C 9.841,4.502 9.761,4.576 9.678,4.649 9.65,4.61 9.606,4.583 9.658,4.491 A 0.802,0.802 0 0 0 9.406,4.711 C 9.339,4.668 9.366,4.609 9.366,4.555 9.252,4.647 9.18,4.745 9.092,4.841 9.074,4.829 9.058,4.785 9.044,4.715 8.774,4.978 8.391,5.64 8.946,5.902 9.418,5.512 9.983,5.229 10.608,5.017 9.804,5.431 9.338,5.766 9.081,6.052 9.212,6.577 9.896,6.601 10.146,6.586 10.095,6.562 10.052,6.534 10.037,6.49 10.1,6.446 10.323,6.485 10.477,6.398 10.418,6.386 10.39,6.374 10.362,6.33 10.509,6.283 10.667,6.242 10.76,6.165 c -0.05,0 -0.097,0.011 -0.162,-0.034 0.131,-0.07 0.271,-0.127 0.38,-0.236 -0.068,0 -0.141,0 -0.162,-0.025 0.12,-0.075 0.221,-0.158 0.305,-0.248 -0.095,0.011 -0.135,0.001 -0.158,-0.015 0.091,-0.093 0.206,-0.172 0.261,-0.287 -0.07,0.024 -0.135,0.034 -0.182,-0.002 0.031,-0.07 0.163,-0.111 0.24,-0.274 -0.075,0.007 -0.154,0.016 -0.17,0 0.035,-0.14 0.095,-0.22 0.153,-0.302 -0.16,-0.002 -0.4,0 -0.39,-0.013 l 0.099,-0.1 c -0.156,-0.042 -0.315,0.006 -0.43,0.043 -0.052,-0.041 0,-0.093 0.064,-0.146 a 1.562,1.562 0 0 0 -0.36,0.09 C 10.191,4.564 10.286,4.512 10.332,4.46 A 0.92,0.92 0 0 0 9.956,4.607 C 9.893,4.547 9.952,4.497 9.994,4.445 Z"
         fill="#75a928"
         id="path17" />
    </g>
  </g>
  <circle
     cx="-346.34763"
     cy="-334.45071"
     r="0"
     fill="#5e4aa6"
     stroke-width="0.26458"
     id="circle863" />
  <circle
     cx="-317.67761"
     cy="-350.3707"
     r="0"
     fill="#5e4aa6"
     stroke-width="0.26458"
     id="circle865" />
</svg>
