<?xml version="1.0" encoding="UTF-8" standalone="no"?>
<svg
   width="63.987"
   height="63.987"
   viewBox="0 0 16.9 16.9"
   version="1.1"
   id="svg10"
   sodipodi:docname="docker.svg"
   inkscape:version="1.3.2 (091e20ef0f, 2023-11-25, custom)"
   xmlns:inkscape="http://www.inkscape.org/namespaces/inkscape"
   xmlns:sodipodi="http://sodipodi.sourceforge.net/DTD/sodipodi-0.dtd"
   xmlns="http://www.w3.org/2000/svg"
   xmlns:svg="http://www.w3.org/2000/svg">
  <defs
     id="defs10">
    <linearGradient
       id="linearGradient1053"
       x1="68"
       x2="128"
       y1="62"
       y2="2"
       gradientTransform="matrix(0.24210207,0,0,0.24210207,-15.276056,0.7026813)"
       gradientUnits="userSpaceOnUse">
      <stop
         stop-color="#e0e4e9"
         offset="0"
         id="stop3" />
      <stop
         stop-color="#fefeff"
         offset="1"
         id="stop4" />
    </linearGradient>
  </defs>
  <sodipodi:namedview
     id="namedview10"
     pagecolor="#ffffff"
     bordercolor="#000000"
     borderopacity="0.25"
     inkscape:showpageshadow="2"
     inkscape:pageopacity="0.0"
     inkscape:pagecheckerboard="0"
     inkscape:deskcolor="#d1d1d1"
     inkscape:zoom="6.1575008"
     inkscape:cx="12.505073"
     inkscape:cy="24.360533"
     inkscape:window-width="1920"
     inkscape:window-height="995"
     inkscape:window-x="0"
     inkscape:window-y="0"
     inkscape:window-maximized="1"
     inkscape:current-layer="svg10" />
  <rect
     x="1.186806"
     y="1.186806"
     width="14.526388"
     height="14.526388"
     ry="0.72631943"
     fill="url(#linearGradient1053)"
     stroke-width="0.915057"
     id="rect5-3"
     style="fill:url(#linearGradient1053)" />
  <g
     stroke-width="0.264"
     id="g10"
     style="fill:#1c90ed;fill-opacity:1"
     transform="translate(-0.79830573,-0.13393365)">
    <path
       d="M 7.2,12.674 C 6.583,12.634 6.166,12.566 5.76,12.436 5.177,12.251 4.802,11.999 4.469,11.566 4.055,11.031 3.785,10.119 3.718,9.264 3.694,8.964 3.691,8.786 3.71,8.714 A 0.343,0.343 0 0 1 3.916,8.476 C 3.966,8.454 3.972,8.454 7.65,8.454 c 2.417,0 3.724,-0.004 3.8,-0.011 0.126,-0.012 0.324,-0.046 0.418,-0.072 0.131,-0.036 0.288,-0.097 0.288,-0.112 0,-0.004 -0.025,-0.053 -0.055,-0.109 -0.116,-0.216 -0.169,-0.3 -0.168,-0.564 0,-0.29 0.068,-0.556 0.214,-0.843 0.06,-0.118 0.207,-0.34 0.224,-0.34 0.018,0 0.197,0.108 0.28,0.167 0.331,0.24 0.59,0.686 0.655,1.05 0.014,0.077 0.015,0.08 0.043,0.074 a 3.08,3.08 0 0 1 0.726,-0.018 c 0.274,0.038 0.479,0.113 0.644,0.235 0.044,0.033 0.08,0.063 0.08,0.068 a 1.31,1.31 0 0 1 -0.37,0.6 c -0.306,0.296 -0.743,0.458 -1.235,0.46 h -0.107 l -0.025,0.062 c -0.48,1.176 -1.087,1.948 -1.913,2.545 -0.83,0.6 -1.893,0.949 -3.119,1.023 -0.14,0.009 -0.719,0.012 -0.83,0.005 z"
       id="path1"
       style="fill:#1c90ed;fill-opacity:1" />
    <rect
       width="1.056"
       height="1.056"
       x="4.7540002"
       y="7.131"
       ry="0.211"
       id="rect2"
       style="fill:#1c90ed;fill-opacity:1" />
    <rect
       width="1.056"
       height="1.056"
       x="6.0749998"
       y="7.131"
       ry="0.211"
       id="rect3"
       style="fill:#1c90ed;fill-opacity:1" />
    <rect
       width="1.056"
       height="1.056"
       x="7.395"
       y="7.131"
       ry="0.211"
       id="rect4"
       style="fill:#1c90ed;fill-opacity:1" />
    <rect
       width="1.056"
       height="1.056"
       x="8.7159996"
       y="7.131"
       ry="0.211"
       id="rect5"
       style="fill:#1c90ed;fill-opacity:1" />
    <rect
       width="1.056"
       height="1.056"
       x="10.036"
       y="7.131"
       ry="0.211"
       id="rect6"
       style="fill:#1c90ed;fill-opacity:1" />
    <rect
       width="1.056"
       height="1.056"
       x="6.0749998"
       y="5.8109999"
       ry="0.211"
       id="rect7"
       style="fill:#1c90ed;fill-opacity:1" />
    <rect
       width="1.056"
       height="1.056"
       x="7.395"
       y="5.8109999"
       ry="0.211"
       id="rect8"
       style="fill:#1c90ed;fill-opacity:1" />
    <rect
       width="1.056"
       height="1.056"
       x="8.7159996"
       y="5.8109999"
       ry="0.211"
       id="rect9"
       style="fill:#1c90ed;fill-opacity:1" />
    <rect
       width="1.056"
       height="1.056"
       x="8.7159996"
       y="4.4899998"
       ry="0.211"
       id="rect10"
       style="fill:#1c90ed;fill-opacity:1" />
  </g>
</svg>
