<?xml version="1.0" encoding="UTF-8" standalone="no"?>
<svg
   width="64"
   height="64"
   viewBox="0 0 16.933 16.933"
   version="1.1"
   id="svg13"
   sodipodi:docname="docky.svg"
   inkscape:version="1.3.2 (091e20ef0f, 2023-11-25, custom)"
   xmlns:inkscape="http://www.inkscape.org/namespaces/inkscape"
   xmlns:sodipodi="http://sodipodi.sourceforge.net/DTD/sodipodi-0.dtd"
   xmlns="http://www.w3.org/2000/svg"
   xmlns:svg="http://www.w3.org/2000/svg">
  <sodipodi:namedview
     id="namedview13"
     pagecolor="#ffffff"
     bordercolor="#000000"
     borderopacity="0.25"
     inkscape:showpageshadow="2"
     inkscape:pageopacity="0.0"
     inkscape:pagecheckerboard="0"
     inkscape:deskcolor="#d1d1d1"
     inkscape:zoom="4.3531261"
     inkscape:cx="23.431437"
     inkscape:cy="34.457995"
     inkscape:window-width="1920"
     inkscape:window-height="995"
     inkscape:window-x="0"
     inkscape:window-y="0"
     inkscape:window-maximized="1"
     inkscape:current-layer="svg13" />
  <defs
     id="defs2">
    <linearGradient
       id="a"
       x1="14.679"
       x2="2.293"
       y1="293.79"
       y2="282.98"
       gradientTransform="matrix(0.99998,0,0,1.0434,20.117809,-292.59)"
       gradientUnits="userSpaceOnUse">
      <stop
         offset="0"
         stop-color="#66bcff"
         id="stop1" />
      <stop
         offset="1"
         stop-color="#b29aff"
         id="stop2" />
    </linearGradient>
    <linearGradient
       id="linearGradient1229"
       x1="17"
       x2="17"
       y1="7"
       y2="51"
       gradientTransform="matrix(0.30066658,0,0,0.30066658,3.0547133,-0.23610934)"
       gradientUnits="userSpaceOnUse">
      <stop
         stop-color="#6c7378"
         offset="0"
         id="stop1-3" />
      <stop
         stop-color="#42464a"
         offset="1"
         id="stop2-6" />
    </linearGradient>
    <linearGradient
       id="linearGradient1242"
       x1="-9"
       x2="45"
       y1="50"
       y2="50"
       gradientTransform="matrix(0.30066658,0,0,0.30066658,3.0547133,-0.23610934)"
       gradientUnits="userSpaceOnUse">
      <stop
         stop-color="#a1aab3"
         offset="0"
         id="stop3" />
      <stop
         stop-color="#818990"
         offset="1"
         id="stop4" />
    </linearGradient>
  </defs>
  <rect
     x="0.34874061"
     y="1.8520471"
     width="16.235043"
     height="13.228906"
     ry="0.61765766"
     fill="url(#linearGradient1229)"
     stroke-linecap="round"
     stroke-linejoin="round"
     stroke-width="0.607154"
     style="fill:url(#linearGradient1229);paint-order:stroke fill markers"
     id="rect4-7" />
  <path
     d="m 0.34874056,13.530949 v 0.932241 c 0,0.342178 0.27555811,0.617763 0.61776345,0.617763 H 15.966496 c 0.342179,0 0.617763,-0.275558 0.617763,-0.617763 v -0.932241 z"
     fill="url(#linearGradient1242)"
     stroke-linecap="round"
     stroke-linejoin="round"
     stroke-width="0.601307"
     style="fill:url(#linearGradient1242);paint-order:stroke fill markers"
     id="path4" />
  <g
     transform="translate(2.659608e-5,1.589186e-4)"
     fill="#ffffff"
     stroke-width="0.79999"
     id="g8">
    <rect
       x="1.6291"
       y="13.777"
       width="1.0583"
       height="1.0583"
       ry="0.10583"
       style="paint-order:stroke markers fill"
       id="rect5-5" />
    <rect
       x="5.9987998"
       y="13.777"
       width="1.0583"
       height="1.0583"
       ry="0.10583"
       style="paint-order:stroke markers fill"
       id="rect6-3" />
    <rect
       x="7.5616002"
       y="13.777"
       width="1.0583"
       height="1.0583"
       ry="0.10583"
       style="paint-order:stroke markers fill"
       id="rect7-5" />
    <rect
       x="9.1245003"
       y="13.777"
       width="1.0583"
       height="1.0583"
       ry="0.10583"
       style="paint-order:stroke markers fill"
       id="rect8-6" />
  </g>
  <path
     d="m 8.4665,4.763 a 0.794,0.794 0 0 0 -0.265,1.54 v 0.84 h -1.19 A 0.132,0.132 0 0 0 6.8785,7.276 V 7.54 c 0,0.074 0.06,0.133 0.132,0.133 h 1.191 v 2.645 a 0.265,0.265 0 0 1 -0.264,0.265 h -0.133 c -0.198,0 -0.787,-0.228 -1.148,-0.408 -0.446,-0.223 -0.446,-0.334 -0.417,-0.386 0.09,-0.158 0.242,-0.026 0.242,-0.026 0,0 0.054,-0.238 -0.264,-0.503 C 6.1105,9.172 5.8895,9.06 5.8205,8.995 5.6815,8.867 5.6845,8.731 5.6085,8.731 c -0.098,0 -0.317,0.483 -0.317,0.794 0,0.31 0,0.653 0.264,0.793 0,-0.12 0.106,-0.264 0.265,-0.185 0.073,0.037 0.427,0.273 0.815,0.517 0.574,0.36 1.444,0.47 1.83,0.991 0.388,-0.52 1.257,-0.63 1.831,-0.991 0.388,-0.244 0.745,-0.473 0.815,-0.517 0.13,-0.08 0.265,-0.08 0.265,0.185 0.265,-0.14 0.265,-0.484 0.265,-0.793 0,-0.31 -0.246,-0.794 -0.344,-0.794 -0.072,0 -0.047,0.136 -0.186,0.264 -0.07,0.065 -0.29,0.177 -0.396,0.265 -0.319,0.265 -0.265,0.503 -0.265,0.503 0,0 0.152,-0.132 0.242,0.026 0.03,0.052 0.029,0.164 -0.417,0.386 -0.36,0.18 -0.95,0.408 -1.148,0.408 H 8.9955 A 0.265,0.265 0 0 1 8.7305,10.318 V 7.673 h 1.19 A 0.132,0.132 0 0 0 10.0535,7.54 V 7.276 c 0,-0.074 -0.06,-0.117 -0.132,-0.133 h -1.19 v -0.84 a 0.794,0.794 0 0 0 -0.265,-1.54 m 0,0.528 a 0.265,0.265 0 1 1 0,0.53 0.265,0.265 0 0 1 0,-0.53 z"
     id="path14"
     style="fill:#ffffff;fill-opacity:1" />
</svg>
