<?xml version="1.0" encoding="UTF-8" standalone="no"?>
<svg
   width="64"
   height="64"
   viewBox="0 0 16.933 16.933"
   version="1.1"
   id="svg6"
   sodipodi:docname="document-open-recent.svg"
   inkscape:version="1.3.2 (091e20ef0f, 2023-11-25, custom)"
   xmlns:inkscape="http://www.inkscape.org/namespaces/inkscape"
   xmlns:sodipodi="http://sodipodi.sourceforge.net/DTD/sodipodi-0.dtd"
   xmlns:xlink="http://www.w3.org/1999/xlink"
   xmlns="http://www.w3.org/2000/svg"
   xmlns:svg="http://www.w3.org/2000/svg">
  <sodipodi:namedview
     id="namedview6"
     pagecolor="#ffffff"
     bordercolor="#000000"
     borderopacity="0.25"
     inkscape:showpageshadow="2"
     inkscape:pageopacity="0.0"
     inkscape:pagecheckerboard="0"
     inkscape:deskcolor="#d1d1d1"
     inkscape:zoom="6.15625"
     inkscape:cx="45.319797"
     inkscape:cy="30.050761"
     inkscape:window-width="1920"
     inkscape:window-height="995"
     inkscape:window-x="0"
     inkscape:window-y="0"
     inkscape:window-maximized="1"
     inkscape:current-layer="svg6" />
  <defs
     id="defs2">
    <linearGradient
       id="a"
       x1="-197.72"
       x2="-197.72"
       y1="263.86"
       y2="273.76"
       gradientTransform="matrix(0.18709,-0.18709,0.18709,0.18709,20.459721,-74.45)"
       gradientUnits="userSpaceOnUse">
      <stop
         offset="0"
         id="stop1" />
      <stop
         offset="1"
         stop-opacity="0"
         id="stop2" />
    </linearGradient>
    <linearGradient
       id="linearGradient952"
       x1="-16.139999"
       x2="-1.0699"
       y1="-55.616001"
       y2="-44.834999"
       gradientTransform="matrix(1,0,0,1.1,16.669,62.435)"
       gradientUnits="userSpaceOnUse">
      <stop
         stop-color="#3c3c3c"
         offset="0"
         id="stop5" />
      <stop
         stop-color="#646464"
         offset="1"
         id="stop6" />
    </linearGradient>
    <linearGradient
       id="linearGradient1006"
       x1="0.52938998"
       x2="16.216999"
       y1="2.7783999"
       y2="14.872"
       gradientTransform="matrix(1,0,0,1.1,16.669,62.435)"
       gradientUnits="userSpaceOnUse">
      <stop
         stop-color="#3c3c3c"
         offset="0"
         id="stop3" />
      <stop
         stop-color="#646464"
         offset="1"
         id="stop4" />
    </linearGradient>
    <linearGradient
       id="linearGradient1064"
       x1="-15.961"
       x2="-0.30109"
       y1="-43.254002"
       y2="-54.195999"
       gradientTransform="matrix(1,0,0,1.1,15.081928,61.773929)"
       gradientUnits="userSpaceOnUse">
      <stop
         stop-color="#3c3c3c"
         offset="0"
         id="stop7" />
      <stop
         stop-color="#646464"
         offset="1"
         id="stop8" />
    </linearGradient>
    <linearGradient
       inkscape:collect="always"
       xlink:href="#linearGradient952"
       id="linearGradient8"
       gradientUnits="userSpaceOnUse"
       gradientTransform="matrix(1,0,0,1.1,16.669,62.435)"
       x1="-16.139999"
       y1="-55.616001"
       x2="-1.0699"
       y2="-44.834999" />
    <linearGradient
       inkscape:collect="always"
       xlink:href="#linearGradient952"
       id="linearGradient6"
       gradientUnits="userSpaceOnUse"
       gradientTransform="matrix(1,0,0,1.1,16.669,62.435)"
       x1="-16.139999"
       y1="-55.616001"
       x2="-1.0699"
       y2="-44.834999" />
  </defs>
  <g
     id="g6"
     transform="translate(1.5873502,0.19823809)">
    <g
       transform="translate(-1.5867775,-0.66140098)"
       id="g17">
      <g
         transform="matrix(1,0,0,1.1,16.669,63.956)"
         fill="url(#linearGradient952)"
         stroke-width="0.66145"
         id="g16"
         style="fill:url(#linearGradient8)">
        <path
           d="m -8.2026,-51.317 h -7.9373 v -3.6379 c 0,-0.36531 0.29614,-0.66144 0.66144,-0.66144 h 5.6223 l 1.6536,1.3229 z"
           fill="url(#linearGradient952)"
           id="path15"
           style="fill:url(#linearGradient6)" />
      </g>
      <rect
         x="0.52938998"
         y="4.2333002"
         width="15.874"
         height="10.848"
         ry="0.79373002"
         fill="url(#linearGradient1006)"
         id="rect16"
         style="fill:url(#linearGradient1006)" />
      <rect
         x="0.97311002"
         y="4.6963"
         width="14.987"
         height="9.9216995"
         ry="0.29919001"
         fill="#fffffc"
         id="rect17" />
    </g>
    <path
       d="M 14.154928,3.5718288 H 6.8790275 l -1.6536,1.4552 h -5.6223 c -0.36531,0 -0.66144,0.32575 -0.66144,0.72759 v 7.9373002 c 0,0.40184 0.29614,0.72759 0.66144,0.72759 H 14.155128 c 0.36531,0 0.661449,-0.32575 0.661449,-0.72759 V 4.2993188 c 0,-0.40184 -0.29614,-0.72759 -0.66145,-0.72759 z"
       fill="url(#linearGradient1064)"
       stroke-width="0.69373"
       id="path17"
       style="fill:url(#linearGradient1064)" />
    <g
       fill="#323232"
       id="g19"
       transform="translate(-1.5870725,-0.6610712)">
      <path
         d="M 8.4665,8.4665 A 2.5135,2.5135 0 0 0 5.953,10.98 2.5135,2.5135 0 0 0 8.4665,13.4935 2.5135,2.5135 0 0 0 10.98,10.98 2.5135,2.5135 0 0 0 8.4665,8.4665 Z m 0,0.26458 a 2.2489,2.2489 0 0 1 2.2489,2.2489 2.2489,2.2489 0 0 1 -2.2489,2.2489 2.2489,2.2489 0 0 1 -2.2489,-2.2489 2.2489,2.2489 0 0 1 2.2489,-2.2489 z"
         id="path18" />
      <rect
         x="8.3341999"
         y="9.5248003"
         width="0.26458001"
         height="1.852"
         ry="0.13229001"
         id="rect18" />
      <rect
         transform="rotate(120)"
         x="5.3741002"
         y="-14.672"
         width="0.26458001"
         height="1.852"
         ry="0.13229001"
         id="rect19" />
    </g>
  </g>
</svg>
