<?xml version="1.0" encoding="UTF-8" standalone="no"?>
<svg
   width="64"
   height="64"
   version="1.1"
   id="svg1"
   sodipodi:docname="droidcam.svg"
   inkscape:version="1.3.2 (091e20ef0f, 2023-11-25, custom)"
   xmlns:inkscape="http://www.inkscape.org/namespaces/inkscape"
   xmlns:sodipodi="http://sodipodi.sourceforge.net/DTD/sodipodi-0.dtd"
   xmlns="http://www.w3.org/2000/svg"
   xmlns:svg="http://www.w3.org/2000/svg">
  <defs
     id="defs1">
    <linearGradient
       id="linearGradient1053"
       x1="68"
       x2="128"
       y1="62"
       y2="2"
       gradientTransform="matrix(0.91665,0,0,0.91665,-57.832,2.6667)"
       gradientUnits="userSpaceOnUse">
      <stop
         stop-color="#1bb131"
         offset="0"
         id="stop1" />
      <stop
         stop-color="#a2e10f"
         offset="1"
         id="stop2" />
    </linearGradient>
  </defs>
  <sodipodi:namedview
     id="namedview1"
     pagecolor="#ffffff"
     bordercolor="#000000"
     borderopacity="0.25"
     inkscape:showpageshadow="2"
     inkscape:pageopacity="0.0"
     inkscape:pagecheckerboard="0"
     inkscape:deskcolor="#d1d1d1"
     inkscape:zoom="4.3531261"
     inkscape:cx="2.2971997"
     inkscape:cy="21.134237"
     inkscape:window-width="1920"
     inkscape:window-height="995"
     inkscape:window-x="0"
     inkscape:window-y="0"
     inkscape:window-maximized="1"
     inkscape:current-layer="svg1" />
  <rect
     x="4.5"
     y="4.5"
     width="55"
     height="55"
     ry="2.75"
     fill="url(#linearGradient1053)"
     stroke-width="3.4646"
     id="rect2"
     style="fill:url(#linearGradient1053)" />
  <path
     fill="#fff"
     d="m24.008 14.332-.816.54 2.07 3.105c-2.803 1.777-4.793 4.788-5.535 8.023H44.27c-.741-3.235-2.729-6.245-5.532-8.023l2.07-3.106-.816-.539-2.105 3.152A12.599 12.599 0 0 0 32 16c-2.056.004-4.08.51-5.894 1.477zM26.5 20a1.5 1.5 0 1 1 0 3 1.5 1.5 0 0 1 0-3zm11 0a1.5 1.5 0 1 1 0 3 1.5 1.5 0 0 1 0-3zm-21.53 8c-1.104.019-1.985 1.004-1.97 2.203v11.594c0 2.898 4 2.898 4 0V30.203c.016-1.225-.903-2.222-2.03-2.203zM20 28v19.25c0 1.524 1.191 2.75 2.668 2.75H27v-2h4v-2.047c-.523-.091-1.301-.245-1.699-.433a8 8 0 0 1-5.3-7.52 8 8 0 1 1 16 0 8 8 0 0 1-5.165 7.477c-.453.208-1.275.382-1.836.48V48h4v2h4.332C42.81 50 44 48.774 44 47.25V28zm27.97 0c-1.104.019-1.984 1.004-1.97 2.203v11.594c0 2.898 4 2.898 4 0V30.203c.016-1.225-.903-2.222-2.03-2.203zM32 34a4 4 0 1 0 0 8 4 4 0 0 0 0-8zm0 1.332A2.667 2.667 0 0 1 34.668 38 2.667 2.667 0 0 1 32 40.668a2.667 2.667 0 0 1-2.547-3.453A1.333 1.333 0 0 0 32 36.668c0-.524-.307-1-.785-1.215.254-.08.519-.12.785-.12z"
     id="path1" />
</svg>
