<?xml version="1.0" encoding="UTF-8" standalone="no"?>
<svg
   width="64"
   height="64"
   viewBox="0 0 16.933 16.933"
   version="1.1"
   id="svg1"
   sodipodi:docname="duolingo.svg"
   xml:space="preserve"
   inkscape:version="1.3.2 (091e20ef0f, 2023-11-25, custom)"
   xmlns:inkscape="http://www.inkscape.org/namespaces/inkscape"
   xmlns:sodipodi="http://sodipodi.sourceforge.net/DTD/sodipodi-0.dtd"
   xmlns="http://www.w3.org/2000/svg"
   xmlns:svg="http://www.w3.org/2000/svg"><defs
     id="defs1" /><sodipodi:namedview
     id="namedview1"
     pagecolor="#ffffff"
     bordercolor="#000000"
     borderopacity="0.25"
     inkscape:showpageshadow="2"
     inkscape:pageopacity="0.0"
     inkscape:pagecheckerboard="0"
     inkscape:deskcolor="#d1d1d1"
     inkscape:zoom="3.078125"
     inkscape:cx="-21.766497"
     inkscape:cy="30.862944"
     inkscape:window-width="1920"
     inkscape:window-height="995"
     inkscape:window-x="0"
     inkscape:window-y="0"
     inkscape:window-maximized="1"
     inkscape:current-layer="svg1" /><rect
     width="13.758062"
     height="13.758062"
     x="1.5874689"
     y="1.5874689"
     rx="2.1166251"
     ry="2.1166251"
     id="rect1-6"
     style="stroke-width:0.264578;fill:#58cc02;fill-opacity:1" /><path
     fill="#ffffff"
     d="m 5.4477149,8.7712334 c -0.32,0.047 -0.656,0.216 -0.96,0.324 -0.201,0.072 -0.441,0.116 -0.626,0.224 a 0.372,0.372 0 0 0 -0.164,0.426 c 0.065,0.207 0.283,0.3929996 0.442,0.5299996 0.51,0.439 1.177,0.694 1.85,0.694 0.19,0 0.385,-0.027 0.57,-0.064 0.08,-0.016 0.199,-0.073 0.28,-0.06 0.104,0.017 0.224,0.18 0.305,0.246 0.194,0.157 0.404,0.279 0.626,0.39 0.85,0.42 1.937,0.393 2.7690001,-0.057 1.119,-0.606 1.685,-1.7269996 1.655,-2.9729996 a 2.57,2.57 0 0 0 -0.107,-0.626 c -0.026,-0.09 -0.106,-0.229 -0.097,-0.32 0.013,-0.125 0.214,-0.306 0.281,-0.417 0.164,-0.272 0.275,-0.568 0.345,-0.877 a 2.756,2.756 0 0 0 -0.144,-1.641 c -0.087,-0.21 -0.186,-0.469 -0.445,-0.492 -0.225,-0.02 -0.369,0.19 -0.503,0.339 -0.158,0.174 -0.325,0.34 -0.482,0.514 -0.127,0.14 -0.25,0.308 -0.406,0.418 -0.079,-0.248 -0.305,-0.49 -0.444,-0.71 -0.12,-0.19 -0.2340001,-0.406 -0.3950001,-0.564 a 1.073,1.073 0 0 0 -1.442,-0.032 c -0.15,0.135 -0.254,0.32 -0.367,0.485 -0.258,0.375 -0.56,0.842 -0.969,1.067 -0.378,0.208 -0.847,0.287 -1.266,0.371 -0.483,0.097 -0.92,0.21 -1.12,0.718 -0.32,0.803 0.507,1.43 0.814,2.087 m 7.3170001,0.8 c -0.335,0.063 -0.362,0.4599996 -0.43,0.7299996 -0.03,0.123 -0.074,0.248 -0.05,0.376 0.04,0.208 0.24,0.361 0.453,0.328 0.352,-0.057 0.38,-0.434 0.45,-0.718 0.03,-0.119 0.08,-0.251 0.058,-0.3749996 a 0.41,0.41 0 0 0 -0.48,-0.342 M 8.6757149,12.227233 c -0.322,0.061 -0.431,0.473 -0.205,0.7 0.163,0.162 0.49,0.153 0.705,0.193 0.101,0.019 0.204,0.046 0.306,0.024 0.308,-0.066 0.443,-0.473 0.208,-0.698 -0.166,-0.158 -0.467,-0.152 -0.68,-0.192 -0.11,-0.02 -0.223,-0.048 -0.335,-0.027 z"
     id="path2" /></svg>
