<?xml version="1.0" encoding="UTF-8" standalone="no"?>
<svg
   width="64"
   height="64"
   version="1"
   id="svg1"
   sodipodi:docname="exodus.svg"
   inkscape:version="1.3.2 (091e20ef0f, 2023-11-25, custom)"
   xmlns:inkscape="http://www.inkscape.org/namespaces/inkscape"
   xmlns:sodipodi="http://sodipodi.sourceforge.net/DTD/sodipodi-0.dtd"
   xmlns="http://www.w3.org/2000/svg"
   xmlns:svg="http://www.w3.org/2000/svg">
  <defs
     id="defs1" />
  <sodipodi:namedview
     id="namedview1"
     pagecolor="#ffffff"
     bordercolor="#000000"
     borderopacity="0.25"
     inkscape:showpageshadow="2"
     inkscape:pageopacity="0.0"
     inkscape:pagecheckerboard="0"
     inkscape:deskcolor="#d1d1d1"
     inkscape:zoom="4.3531261"
     inkscape:cx="19.755917"
     inkscape:cy="33.309396"
     inkscape:window-width="1920"
     inkscape:window-height="995"
     inkscape:window-x="0"
     inkscape:window-y="0"
     inkscape:window-maximized="1"
     inkscape:current-layer="svg1" />
  <g
     id="g1"
     transform="matrix(1.0961538,0,0,1.0961538,-3.0769216,-3.0769216)">
    <rect
       width="52"
       height="52"
       x="6"
       y="6"
       fill="#3c4553"
       rx="8"
       ry="8"
       id="rect1" />
    <path
       fill="#12a1ff"
       d="m 28.912,13.003 c -1.13,-0.015 -1.37,0.03 -1.694,0.307 -0.241,0.207 -0.438,0.618 -0.511,1.069 -0.033,0.203 -0.05,1.627 -0.05,3.872 -0.001,2.837 -0.014,3.55 -0.064,3.55 -0.035,0 -1.844,-1.783 -4.021,-3.963 -2.178,-2.18 -4.054,-4.028 -4.17,-4.109 -0.315,-0.22 -0.878,-0.474 -1.323,-0.596 -0.366,-0.1 -0.529,-0.11 -2.19,-0.127 -0.986,-0.011 -1.794,-0.002 -1.794,0.02 0,0.023 3.77,3.81 8.377,8.417 4.279,4.278 7.31,7.295 7.814,7.78 V 13.007 Z m 6.176,0 -0.374,0.005 v 16.214 c 0.504,-0.484 3.536,-3.5 7.815,-7.78 4.607,-4.606 8.376,-8.393 8.376,-8.415 0,-0.023 -0.808,-0.032 -1.794,-0.022 -1.661,0.018 -1.823,0.027 -2.19,0.128 -0.445,0.122 -1.007,0.376 -1.323,0.596 -0.116,0.08 -1.992,1.929 -4.17,4.109 -2.176,2.18 -3.986,3.962 -4.02,3.962 -0.05,0 -0.064,-0.712 -0.064,-3.549 0,-2.245 -0.017,-3.67 -0.05,-3.872 -0.073,-0.451 -0.27,-0.862 -0.512,-1.069 -0.324,-0.277 -0.565,-0.323 -1.694,-0.307 z m -22.035,6.918 c -0.054,0 -0.06,0.306 -0.045,1.694 0.02,1.637 0.022,1.712 0.146,2.166 a 5.09,5.09 0 0 0 0.668,1.505 c 0.169,0.259 1.064,1.187 3.4,3.53 l 3.171,3.182 -3.17,3.178 c -2.337,2.344 -3.232,3.272 -3.401,3.53 a 5.089,5.089 0 0 0 -0.668,1.506 c -0.124,0.454 -0.127,0.529 -0.146,2.166 -0.016,1.388 -0.009,1.694 0.045,1.694 0.092,0 12.07,-11.982 12.07,-12.074 0,-0.092 -11.978,-12.076 -12.07,-12.076 z m 37.895,0 c -0.091,0 -12.069,11.985 -12.069,12.076 0,0.092 11.977,12.074 12.07,12.074 0.053,0 0.06,-0.305 0.044,-1.694 -0.019,-1.637 -0.022,-1.711 -0.146,-2.165 a 5.09,5.09 0 0 0 -0.668,-1.506 c -0.168,-0.258 -1.063,-1.187 -3.4,-3.53 l -3.17,-3.179 3.17,-3.18 c 2.337,-2.344 3.231,-3.273 3.4,-3.531 0.304,-0.465 0.513,-0.933 0.668,-1.506 0.124,-0.454 0.127,-0.528 0.146,-2.165 0.016,-1.389 0.01,-1.694 -0.045,-1.694 z M 29.286,34.773 c -1.156,1.111 -16.19,16.144 -16.19,16.193 0,0.023 0.807,0.035 1.794,0.024 1.66,-0.018 1.823,-0.03 2.19,-0.13 0.444,-0.122 1.007,-0.374 1.322,-0.594 0.116,-0.08 1.992,-1.93 4.17,-4.11 2.177,-2.18 3.986,-3.963 4.02,-3.963 0.05,0 0.064,0.712 0.064,3.549 0,2.245 0.018,3.669 0.05,3.872 0.113,0.698 0.453,1.163 0.957,1.312 0.181,0.054 0.506,0.075 1.22,0.075 0.214,0 0.238,-0.01 0.403,-0.014 z m 5.429,0 V 50.987 C 34.88,50.991 34.903,51 35.118,51 c 0.714,0 1.038,-0.02 1.22,-0.074 0.503,-0.15 0.843,-0.615 0.956,-1.312 0.033,-0.203 0.05,-1.628 0.05,-3.873 0,-2.836 0.014,-3.549 0.064,-3.549 0.035,0 1.844,1.783 4.021,3.963 2.177,2.18 4.054,4.03 4.17,4.111 0.315,0.22 0.877,0.472 1.322,0.594 0.367,0.1 0.53,0.112 2.19,0.13 0.987,0.01 1.794,-0.002 1.794,-0.024 0,-0.05 -15.034,-15.082 -16.19,-16.193 z"
       id="path1" />
  </g>
</svg>
