<?xml version="1.0" encoding="UTF-8" standalone="no"?>
<svg
   width="64"
   height="64"
   version="1.1"
   id="svg2"
   sodipodi:docname="extension-manager.svg"
   inkscape:version="1.3.2 (091e20ef0f, 2023-11-25, custom)"
   xmlns:inkscape="http://www.inkscape.org/namespaces/inkscape"
   xmlns:sodipodi="http://sodipodi.sourceforge.net/DTD/sodipodi-0.dtd"
   xmlns="http://www.w3.org/2000/svg"
   xmlns:svg="http://www.w3.org/2000/svg">
  <defs
     id="defs2" />
  <sodipodi:namedview
     id="namedview2"
     pagecolor="#ffffff"
     bordercolor="#000000"
     borderopacity="0.25"
     inkscape:showpageshadow="2"
     inkscape:pageopacity="0.0"
     inkscape:pagecheckerboard="0"
     inkscape:deskcolor="#d1d1d1"
     inkscape:zoom="6.15625"
     inkscape:cx="15.918782"
     inkscape:cy="27.28934"
     inkscape:window-width="1920"
     inkscape:window-height="995"
     inkscape:window-x="0"
     inkscape:window-y="0"
     inkscape:window-maximized="1"
     inkscape:current-layer="svg2" />
  <g
     id="g2"
     transform="matrix(1.1111111,0,0,1.1111111,-3.5555552,-3.5555552)">
    <circle
       cx="32"
       cy="32"
       r="27"
       fill="#3e89e5"
       id="circle1" />
    <circle
       cx="32"
       cy="32"
       r="23"
       fill="#ffffff"
       opacity="0.1"
       id="circle2" />
    <path
       fill="#f9f9f9"
       d="m 30.826,15.565 a 3.514,3.514 0 0 0 -3.522,3.522 v 3.521 H 22.61 a 2.343,2.343 0 0 0 -2.348,2.348 v 4.696 h 3.522 c 1.95,0 3.521,1.57 3.521,3.522 0,1.952 -1.57,3.521 -3.521,3.521 H 20.26 v 4.696 c 0,1.3 1.047,2.348 2.348,2.348 h 4.695 v -3.522 c 0,-1.95 1.571,-3.522 3.522,-3.522 1.951,0 3.522,1.571 3.522,3.522 v 3.522 h 4.695 c 1.301,0 2.348,-1.047 2.348,-2.348 v -4.696 h 3.522 c 1.95,0 3.522,-1.57 3.522,-3.521 0,-1.951 -1.571,-3.522 -3.522,-3.522 H 41.39 v -4.696 c 0,-1.3 -1.047,-2.348 -2.348,-2.348 h -4.695 v -3.521 a 3.514,3.514 0 0 0 -3.522,-3.522 z"
       id="path2" />
  </g>
</svg>
