<?xml version="1.0" encoding="UTF-8" standalone="no"?>
<svg
   width="64"
   height="64"
   version="1"
   id="svg2"
   sodipodi:docname="factorio.svg"
   inkscape:version="1.3.2 (091e20ef0f, 2023-11-25, custom)"
   xmlns:inkscape="http://www.inkscape.org/namespaces/inkscape"
   xmlns:sodipodi="http://sodipodi.sourceforge.net/DTD/sodipodi-0.dtd"
   xmlns="http://www.w3.org/2000/svg"
   xmlns:svg="http://www.w3.org/2000/svg">
  <defs
     id="defs2">
    <linearGradient
       id="linearGradient1053-2"
       x1="68"
       x2="128"
       y1="62"
       y2="2"
       gradientTransform="matrix(0.91666687,0,0,0.91666687,-57.832067,2.6662826)"
       gradientUnits="userSpaceOnUse">
      <stop
         stop-color="#e0e4e9"
         offset="0"
         id="stop1" />
      <stop
         stop-color="#fefeff"
         offset="1"
         id="stop2" />
    </linearGradient>
  </defs>
  <sodipodi:namedview
     id="namedview2"
     pagecolor="#ffffff"
     bordercolor="#000000"
     borderopacity="0.25"
     inkscape:showpageshadow="2"
     inkscape:pageopacity="0.0"
     inkscape:pagecheckerboard="0"
     inkscape:deskcolor="#d1d1d1"
     inkscape:zoom="6.15625"
     inkscape:cx="7.7969543"
     inkscape:cy="15.756345"
     inkscape:window-width="1920"
     inkscape:window-height="995"
     inkscape:window-x="0"
     inkscape:window-y="0"
     inkscape:window-maximized="1"
     inkscape:current-layer="svg2" />
  <rect
     x="4.4996166"
     y="4.4996166"
     width="55.000767"
     height="55.000767"
     ry="2.7500007"
     fill="url(#linearGradient1053-2)"
     stroke-width="3.46465"
     id="rect2"
     style="fill:url(#linearGradient1053-2)" />
  <path
     fill="#be7c2e"
     d="M28.111 13.001a.977.977 0 0 0-.83.772l-.802 4.067a15.292 15.292 0 0 0-3.978 2.286l-3.948-1.336a.98.98 0 0 0-1.128.415l-3.8 6.59a.98.98 0 0 0 .208 1.188l3.146 2.76c-.11.741-.178 1.486-.178 2.257s.068 1.516.178 2.256l-3.146 2.761a.98.98 0 0 0-.208 1.188l3.8 6.59a.98.98 0 0 0 1.128.416l3.948-1.336a15.296 15.296 0 0 0 3.978 2.286l.802 4.066a.98.98 0 0 0 .92.772h7.6a.98.98 0 0 0 .92-.772l.8-4.066a15.292 15.292 0 0 0 3.979-2.286l3.948 1.336a.98.98 0 0 0 1.128-.416l3.8-6.59a.98.98 0 0 0-.208-1.188l-3.147-2.76c.111-.741.179-1.486.179-2.257 0-.771-.068-1.516-.179-2.256l3.147-2.76a.98.98 0 0 0 .208-1.188l-3.8-6.59a.98.98 0 0 0-1.128-.416L41.5 20.126a15.294 15.294 0 0 0-3.978-2.287l-.801-4.067A.98.98 0 0 0 35.8 13h-7.689z"
     id="path1" />
  <path
     fill="#fff"
     d="M32 24a8 8 0 1 1 0 15.999 8 8 0 0 1 0-16z"
     id="path2" />
</svg>
