<?xml version="1.0" encoding="UTF-8" standalone="no"?>
<svg
   width="64"
   height="64"
   viewBox="0 0 16.933 16.933"
   version="1.1"
   id="svg3"
   sodipodi:docname="fastmail.svg"
   xml:space="preserve"
   inkscape:version="1.3.2 (091e20ef0f, 2023-11-25, custom)"
   xmlns:inkscape="http://www.inkscape.org/namespaces/inkscape"
   xmlns:sodipodi="http://sodipodi.sourceforge.net/DTD/sodipodi-0.dtd"
   xmlns="http://www.w3.org/2000/svg"
   xmlns:svg="http://www.w3.org/2000/svg"><defs
     id="defs3"><linearGradient
       id="a-3"
       x1="32"
       x2="32"
       y1="2"
       y2="62"
       gradientTransform="matrix(0.26457812,0,0,0.26457812,0.06686935,0.21517641)"
       gradientUnits="userSpaceOnUse"><stop
         stop-color="#f5faff"
         offset="0"
         id="stop920" /><stop
         stop-color="#cfdef0"
         offset="1"
         id="stop922" /></linearGradient></defs><sodipodi:namedview
     id="namedview3"
     pagecolor="#ffffff"
     bordercolor="#000000"
     borderopacity="0.25"
     inkscape:showpageshadow="2"
     inkscape:pageopacity="0.0"
     inkscape:pagecheckerboard="0"
     inkscape:deskcolor="#d1d1d1"
     inkscape:zoom="5.6568543"
     inkscape:cx="-7.0710678"
     inkscape:cy="23.334524"
     inkscape:window-width="1920"
     inkscape:window-height="995"
     inkscape:window-x="0"
     inkscape:window-y="0"
     inkscape:window-maximized="1"
     inkscape:current-layer="svg3" /><circle
     cx="8.4665003"
     cy="8.4665003"
     r="7.9373436"
     id="circle927"
     style="fill:#ffffff;fill-opacity:1" /><path
     id="circle3"
     style="fill:#1468b3;fill-opacity:1"
     d="M 14.078967,2.854034 A 7.9373436,7.9373436 0 0 0 8.4665002,0.529157 7.9373436,7.9373436 0 0 0 0.5291561,8.466501 a 7.9373436,7.9373436 0 0 0 2.339346,5.597997 l 1.107921,-1.107921 A 6.349875,6.349875 0 0 1 2.1166251,8.466501 6.349875,6.349875 0 0 1 8.4665002,2.116626 6.349875,6.349875 0 0 1 12.95451,3.978491 Z" /><path
     id="path5"
     style="fill:#6cb3e3;fill-opacity:1"
     d="M 14.078967,2.854034 12.95451,3.978491 a 6.349875,6.349875 0 0 1 1.861865,4.48801 6.349875,6.349875 0 0 1 -6.3498748,6.349875 6.349875,6.349875 0 0 1 -4.4900771,-1.859799 l -1.107921,1.107921 A 7.9373436,7.9373436 0 0 0 8.4665002,16.403844 7.9373436,7.9373436 0 0 0 16.403844,8.466501 7.9373436,7.9373436 0 0 0 14.078967,2.854034 Z" /><path
     style="opacity:0.25;fill:#3cfafa;fill-opacity:1;stroke-width:0.264578;stroke-linecap:round;stroke-linejoin:round"
     d="M -17.478176,31.446038 0,13.967864"
     id="path4" /><path
     style="fill:#fdc012;fill-opacity:1;stroke:none;stroke-width:0.0264578;stroke-linecap:round;stroke-linejoin:round;stroke-dasharray:none;stroke-opacity:1"
     d="M 12.074196,10.855869 4.78073,6.0239487 v 4.6723763 c 0,0 -0.0076,0.212726 0.265908,0.212726 h 7.105653 z"
     id="path7"
     sodipodi:nodetypes="cccscc" /><path
     style="fill:#333f48;fill-opacity:1;stroke:none;stroke-width:0.0264578;stroke-linecap:round;stroke-linejoin:round;stroke-dasharray:none;stroke-opacity:1"
     d="M 4.858804,10.855869 12.15227,6.0239487 v 4.6723763 c 0,0 0.0076,0.212726 -0.265908,0.212726 H 4.780709 Z"
     id="path6"
     sodipodi:nodetypes="cccscc" /></svg>
