<?xml version="1.0" encoding="UTF-8" standalone="no"?>
<svg
   width="64"
   height="64"
   viewBox="0 0 16.933 16.933"
   version="1.1"
   id="svg1"
   sodipodi:docname="fbmessenger.svg"
   xml:space="preserve"
   inkscape:version="1.3.2 (091e20ef0f, 2023-11-25, custom)"
   xmlns:inkscape="http://www.inkscape.org/namespaces/inkscape"
   xmlns:sodipodi="http://sodipodi.sourceforge.net/DTD/sodipodi-0.dtd"
   xmlns="http://www.w3.org/2000/svg"
   xmlns:svg="http://www.w3.org/2000/svg"><defs
     id="defs1" /><sodipodi:namedview
     id="namedview1"
     pagecolor="#ffffff"
     bordercolor="#000000"
     borderopacity="0.25"
     inkscape:showpageshadow="2"
     inkscape:pageopacity="0.0"
     inkscape:pagecheckerboard="0"
     inkscape:deskcolor="#d1d1d1"
     inkscape:zoom="4.3531261"
     inkscape:cx="-31.012196"
     inkscape:cy="50.308673"
     inkscape:window-width="1920"
     inkscape:window-height="995"
     inkscape:window-x="0"
     inkscape:window-y="0"
     inkscape:window-maximized="1"
     inkscape:current-layer="svg1" /><rect
     width="15.080952"
     height="15.080952"
     x="0.92602414"
     y="0.92602414"
     rx="2.3201466"
     ry="2.3201466"
     id="rect1"
     style="stroke-width:0.290018;fill:#35528a;fill-opacity:1" /><g
     id="g4"
     transform="translate(-12.462369,-0.6539436)"><path
       id="path3"
       style="fill:#94a9cb;fill-opacity:1;stroke-width:0.0211663;stroke-linecap:round;stroke-linejoin:round"
       d="m 22.062102,7.8931642 c 0.120442,0 0.217451,0.097009 0.217451,0.2174513 V 12.24467 c 0,0.120443 -0.09701,0.217452 -0.217451,0.217452 h -3.672281 l -1.267915,1.215826 v -1.215826 h -0.958274 c -0.120441,0 -0.21745,-0.097 -0.21745,-0.217452 V 8.1106155 c 0,-0.1204417 0.09701,-0.2174513 0.21745,-0.2174513 z" /><path
       id="rect3"
       style="fill:#ffffff;fill-opacity:1;stroke:#35528a;stroke-width:0.39686719;stroke-linecap:round;stroke-linejoin:round;stroke-dasharray:none;stroke-opacity:1"
       d="m 18.134406,4.6952282 c -0.150552,0 -0.271813,0.1212614 -0.271813,0.2718127 v 5.1675411 c 0,0.150552 0.121261,0.271813 0.271813,0.271813 h 4.590327 l 1.584885,1.519774 v -1.519774 h 1.197836 c 0.150551,0 0.271812,-0.121261 0.271812,-0.271813 V 4.9670409 c 0,-0.1505513 -0.121261,-0.2718127 -0.271812,-0.2718127 z" /><path
       d="m 21.112555,7.3377075 -2.124789,1.1109133 2.124789,-2.291426 1.298296,1.1805127 2.243242,-0.9864374 -2.242573,2.1669501"
       id="path4"
       style="stroke-width:1.00010531;stroke-dasharray:none;fill:#35528a;fill-opacity:1" /></g></svg>
