<?xml version="1.0" encoding="UTF-8" standalone="no"?>
<svg
   width="64"
   height="64"
   version="1.1"
   id="svg3"
   sodipodi:docname="ferdi.svg"
   inkscape:version="1.3.2 (091e20ef0f, 2023-11-25, custom)"
   xmlns:inkscape="http://www.inkscape.org/namespaces/inkscape"
   xmlns:sodipodi="http://sodipodi.sourceforge.net/DTD/sodipodi-0.dtd"
   xmlns="http://www.w3.org/2000/svg"
   xmlns:svg="http://www.w3.org/2000/svg">
  <sodipodi:namedview
     id="namedview3"
     pagecolor="#ffffff"
     bordercolor="#000000"
     borderopacity="0.25"
     inkscape:showpageshadow="2"
     inkscape:pageopacity="0.0"
     inkscape:pagecheckerboard="0"
     inkscape:deskcolor="#d1d1d1"
     inkscape:zoom="7.0158251"
     inkscape:cx="18.529538"
     inkscape:cy="41.192589"
     inkscape:window-width="1920"
     inkscape:window-height="995"
     inkscape:window-x="0"
     inkscape:window-y="0"
     inkscape:window-maximized="1"
     inkscape:current-layer="svg3" />
  <defs
     id="defs2">
    <linearGradient
       id="a"
       x2="0"
       y1="1"
       y2="47"
       gradientTransform="matrix(1.1739,0,0,1.1739,3.826,3.826)"
       gradientUnits="userSpaceOnUse">
      <stop
         offset="0"
         stop-color="#9584f4"
         id="stop1" />
      <stop
         offset="1"
         stop-color="#8471f2"
         id="stop2" />
    </linearGradient>
  </defs>
  <g
     id="g3"
     transform="matrix(1.1111111,0,0,1.1111111,-3.5555552,-3.5555552)">
    <circle
       cx="32"
       cy="32"
       r="27"
       fill="url(#a)"
       id="circle2"
       style="fill:url(#a)" />
    <circle
       cx="32"
       cy="32"
       r="23"
       fill="#ffffff"
       opacity="0.15"
       id="circle3" />
    <path
       fill="#ffffff"
       fill-rule="evenodd"
       d="m 27.5,23.327 c -4.333,0 -5.143,6.429 -9.643,6.429 -2.571,0 -2.571,-2.572 -3.857,-2.572 0,3.857 4.5,6.429 8.357,6.429 6.429,0 5.786,-3.857 9.643,-3.857 3.857,0 3.214,3.857 9.643,3.857 3.857,0 8.357,-2.573 8.357,-6.429 -1.286,0 -1.286,2.572 -3.857,2.572 -4.5,0 -5.31,-6.429 -9.643,-6.429 -1.929,0 -1.929,1.286 -4.5,1.286 -2.571,0 -2.571,-1.286 -4.5,-1.286 z M 32,36.184 c -1.355,0 -3.857,0 -3.857,1.286 0,3.214 2.571,9 3.857,9 1.286,0 3.857,-5.786 3.857,-9 0,-1.287 -2.502,-1.286 -3.857,-1.286 z"
       id="path3" />
  </g>
</svg>
