<?xml version="1.0" encoding="UTF-8" standalone="no"?>
<svg
   width="64"
   height="64"
   viewBox="0 0 16.933 16.933"
   version="1.1"
   id="svg5"
   sodipodi:docname="fleet.svg"
   inkscape:version="1.3.2 (091e20ef0f, 2023-11-25, custom)"
   xmlns:inkscape="http://www.inkscape.org/namespaces/inkscape"
   xmlns:sodipodi="http://sodipodi.sourceforge.net/DTD/sodipodi-0.dtd"
   xmlns:xlink="http://www.w3.org/1999/xlink"
   xmlns="http://www.w3.org/2000/svg"
   xmlns:svg="http://www.w3.org/2000/svg">
  <defs
     id="defs5">
    <linearGradient
       inkscape:collect="always"
       xlink:href="#linearGradient1931"
       id="linearGradient1933"
       x1="2"
       y1="32"
       x2="62"
       y2="32"
       gradientUnits="userSpaceOnUse"
       gradientTransform="scale(0.26457812)" />
    <linearGradient
       inkscape:collect="always"
       id="linearGradient1931">
      <stop
         style="stop-color:#5e4fc1;stop-opacity:1;"
         offset="0"
         id="stop1927" />
      <stop
         style="stop-color:#6801b6;stop-opacity:1"
         offset="1"
         id="stop1929" />
    </linearGradient>
  </defs>
  <sodipodi:namedview
     id="namedview5"
     pagecolor="#ffffff"
     bordercolor="#000000"
     borderopacity="0.25"
     inkscape:showpageshadow="2"
     inkscape:pageopacity="0.0"
     inkscape:pagecheckerboard="0"
     inkscape:deskcolor="#d1d1d1"
     inkscape:zoom="4.3531261"
     inkscape:cx="-15.620958"
     inkscape:cy="48.470914"
     inkscape:window-width="1920"
     inkscape:window-height="995"
     inkscape:window-x="0"
     inkscape:window-y="0"
     inkscape:window-maximized="1"
     inkscape:current-layer="svg5" />
  <circle
     cx="8.4665003"
     cy="8.4665003"
     r="7.9373436"
     stroke-width="0.345097"
     id="circle2"
     style="fill:url(#linearGradient1933);fill-opacity:1" />
  <path
     fill="#303030"
     d="M 15.080953,8.4665001 A 6.6144531,6.6144531 0 0 1 8.4665,15.080953 6.6144531,6.6144531 0 0 1 1.8520469,8.4665001 6.6144531,6.6144531 0 0 1 8.4665,1.852047 6.6144531,6.6144531 0 0 1 15.080953,8.4665001 Z"
     id="path2"
     style="stroke-width:1.09565" />
  <g
     id="g5"
     transform="matrix(1.1384601,0,0,1.1384601,-1.1717032,-1.1739801)">
    <path
       fill="#875ad4"
       d="m 8.59,6.204 c 0,0 -0.139,-0.025 0.581,-0.081 0.979,-0.078 1.279,-0.052 1.569,0 0.549,0.095 1.501,0.219 2.014,0.956 0.155,0.219 0.931,1.964 -0.572,1.534 L 10.707,7.554 9.286,6.804 Z"
       id="path3" />
    <path
       fill="#80ffff"
       d="m 13.114,8.468 c 0,2.568 -2.08,4.648 -4.648,4.648 -2.568,0 -4.648,-2.08 -4.648,-4.648 0,-2.568 2.08,-4.648 4.648,-4.648 h 0.056 v 0.001 h 0.009 c 0,0.002 0.005,0.002 0.006,0.002 0.209,0.196 0.583,0.637 0.956,1.487 0.12,0.272 0.182,0.527 0.208,0.757 0.24,0.271 0.514,0.532 0.817,0.777 0.84,0.678 1.758,1.107 2.583,1.256 0.009,0.123 0.013,0.244 0.013,0.368 z"
       id="path4" />
    <path
       fill="#295151"
       d="m 11.633,9.567 c 0.25,1.156 -0.825,2.369 -2.4,2.709 C 7.658,12.616 6.179,11.954 5.93,10.799 5.68,9.643 6.754,8.43 8.329,8.09 9.904,7.75 11.384,8.41 11.633,9.567 Z"
       id="path5" />
  </g>
</svg>
