<?xml version="1.0" encoding="UTF-8" standalone="no"?>
<svg
   xml:space="preserve"
   width="64"
   height="64"
   version="1.1"
   id="svg6"
   sodipodi:docname="floorp.svg"
   inkscape:version="1.4.2 (ebf0e940d0, 2025-05-08)"
   xmlns:inkscape="http://www.inkscape.org/namespaces/inkscape"
   xmlns:sodipodi="http://sodipodi.sourceforge.net/DTD/sodipodi-0.dtd"
   xmlns:xlink="http://www.w3.org/1999/xlink"
   xmlns="http://www.w3.org/2000/svg"
   xmlns:svg="http://www.w3.org/2000/svg"><sodipodi:namedview
     id="namedview6"
     pagecolor="#505050"
     bordercolor="#eeeeee"
     borderopacity="1"
     inkscape:showpageshadow="0"
     inkscape:pageopacity="0"
     inkscape:pagecheckerboard="0"
     inkscape:deskcolor="#505050"
     inkscape:zoom="2.8284271"
     inkscape:cx="119.8546"
     inkscape:cy="-4.4194174"
     inkscape:window-width="1920"
     inkscape:window-height="996"
     inkscape:window-x="0"
     inkscape:window-y="0"
     inkscape:window-maximized="1"
     inkscape:current-layer="svg6"
     showguides="true"><sodipodi:guide
       position="33.725919,134.4461"
       orientation="0,-1"
       id="guide1"
       inkscape:locked="false" /><sodipodi:guide
       position="244.80844,91.945391"
       orientation="1,0"
       id="guide16404"
       inkscape:locked="false" /></sodipodi:namedview><defs
     id="defs4"><linearGradient
       id="linearGradient16395"
       inkscape:collect="always"><stop
         style="stop-color:#7305e8;stop-opacity:1"
         offset="0"
         id="stop16395" /><stop
         style="stop-color:#0610e8;stop-opacity:0.98431373"
         offset="1"
         id="stop16396" /></linearGradient><linearGradient
       id="b"><stop
         offset="0"
         style="stop-color:#2d118b;stop-opacity:1"
         id="stop1" /><stop
         offset="1"
         style="stop-color:#1b046b;stop-opacity:1"
         id="stop2" /></linearGradient><linearGradient
       id="a"
       x1="7.937"
       x2="7.937"
       y1="15.081"
       y2="1.852"
       gradientTransform="translate(0 .032)scale(3.7795)"
       gradientUnits="userSpaceOnUse"><stop
         offset="0"
         stop-color="#262626"
         style="stop-color:#040fd9;stop-opacity:1"
         id="stop3" /><stop
         offset="1"
         stop-color="#505050"
         style="stop-color:#7104e8;stop-opacity:1"
         id="stop4" /></linearGradient><linearGradient
       xlink:href="#a"
       id="c"
       x1="8.711"
       x2="8.711"
       y1="17.849"
       y2=".668"
       gradientTransform="matrix(3.80894,0,0,3.80894,-62.815535,-47.943955)"
       gradientUnits="userSpaceOnUse" /><linearGradient
       xlink:href="#b"
       id="d"
       x1="-20.826"
       x2="-20.826"
       y1="-144.507"
       y2="-101.351"
       gradientTransform="matrix(1.00001,0,0,1.00001,-17.970754,157.246)"
       gradientUnits="userSpaceOnUse" /><filter
       id="filter1057"
       x="-0.026999999"
       y="-0.026999999"
       width="1.054"
       height="1.054"
       color-interpolation-filters="sRGB"><feGaussianBlur
         stdDeviation="0.61875"
         id="feGaussianBlur1" /></filter><linearGradient
       id="linearGradient1053"
       x1="-127"
       x2="-81.237457"
       y1="60"
       y2="14.237456"
       gradientTransform="matrix(1.0000071,0,0,1.0000071,61.009426,-0.50998091)"
       gradientUnits="userSpaceOnUse"><stop
         stop-color="#a53cff"
         offset="0"
         id="stop1-3"
         style="stop-color:#0610e8;stop-opacity:0.94117647" /><stop
         stop-color="#b496ff"
         offset="1"
         id="stop2-6"
         style="stop-color:#7205e8;stop-opacity:1" /></linearGradient><linearGradient
       inkscape:collect="always"
       xlink:href="#linearGradient16395"
       id="linearGradient16396"
       x1="32.003143"
       y1="6.1437559"
       x2="32.003143"
       y2="57.844803"
       gradientUnits="userSpaceOnUse" /></defs><path
     id="path16394"
     style="fill:url(#linearGradient16396);stroke-width:0.470192;fill-opacity:1"
     d="m 32.003142,6.1437561 c -16.416263,0 -14.27455,-1.345555 -23.5747787,14.8110339 -6.6412864,11.537412 -6.6631174,10.557829 0.4986617,23.064182 6.618952,11.558419 6.765892,11.771229 8.890476,12.893529 1.57722,0.83316 2.786637,0.91313 14.086459,0.93212 16.686664,0.0281 14.499471,1.3346 23.174381,-13.845853 C 62.232677,31.479203 62.211091,32.478106 55.57792,20.95479 46.277692,4.7982011 48.419404,6.1437561 32.003142,6.1437561 Z" /><g
     id="g16407"
     transform="matrix(0.45660044,0,0,0.46872134,-132.43894,29.982757)"><path
       id="path16400"
       style="fill:#1f0774;fill-opacity:1;stroke-width:0.588311"
       d="m 365.0449,-22.277518 c -20.54033,0 -17.86057,-1.683576 -29.49719,18.5318397 -8.30969,14.4358223 -8.33701,13.2101498 0.62392,28.8583263 8.28176,14.462115 8.46562,14.728374 11.12393,16.132631 1.97346,1.042452 3.48671,1.142513 17.62524,1.166262 20.87866,0.03518 18.14201,1.669897 28.99622,-17.324171 8.95163,-15.6647105 8.92462,-14.414863 0.62508,-28.8330483 -11.63662,-20.2154157 -8.95689,-18.5318397 -29.4972,-18.5318397 z" /><path
       id="path16403"
       style="fill:#ffffff;fill-opacity:1;stroke-width:0.676427"
       d="m 342.55859,-37.298828 c -4.84551,9.22e-4 -9.03956,2.787597 -11.06836,6.845703 l -6.08984,10.568359 c -1.51978,2.607108 -3.0197,5.237427 -5.25977,9.128907 -9.55412,16.5976917 -9.58622,15.1898222 0.7168,33.18164 5.29001,9.237758 7.70695,13.437412 9.33399,15.623047 2.13523,2.589436 0.30662,0.356807 2.83592,3.369143 v -0.0039 c 2.26847,2.742231 5.69452,4.491428 9.53125,4.492188 h 0.0762 c 2.57458,-1.1e-5 4.66014,-2.085576 4.66015,-4.660156 V 20.341797 c 0,-2.574595 2.08752,-4.662115 4.66211,-4.662109 h 50.60547 c 2.57364,6e-6 4.66076,-2.084565 4.66211,-4.658204 V 3.2402344 c -0.001,-2.57363106 -2.08848,-4.660151 -4.66211,-4.6601563 h -50.60547 c -2.57459,-5.7e-6 -4.66211,-2.087522 -4.66211,-4.6621093 v -9.4550778 c 0,-2.574588 2.08752,-4.662104 4.66211,-4.66211 h 32.71875 c 2.57459,-6e-6 4.66211,-2.087522 4.66211,-4.662109 v -0.06836 c 0,-6.83179 -5.5393,-12.36914 -12.37109,-12.36914 z"
       sodipodi:nodetypes="ccccscccsscsccccccssccsssc" /></g></svg>
