<?xml version="1.0" encoding="UTF-8"?>
<svg width="64" height="64" version="1.1" viewBox="0 0 64 64" xmlns="http://www.w3.org/2000/svg">
 <defs>
  <linearGradient id="b" x1="9.2603" x2="9.2603" y1="-.26249" y2="15.612" gradientTransform="matrix(3.7796 0 0 3.7796 -3.0004 2.9921)" gradientUnits="userSpaceOnUse">
   <stop stop-color="#36474f" offset="0"/>
   <stop stop-color="#273238" stop-opacity=".98824" offset="1"/>
  </linearGradient>
 </defs>
 <circle cx="32" cy="32" r="30" fill="url(#b)" stroke-width="3.6397" style="paint-order:stroke markers fill"/>
 <g transform="matrix(1.3333 0 0 1.3333 -103.15 -21.794)">
  <path d="m95.365 28.346c-3.324 0-6 2.676-6 6v12c0 3.324 2.676 6 6 6h12c3.324 0 6-2.676 6-6v-12c0-3.324-2.676-6-6-6zm6 6a6 6 0 0 1 6 6 6 6 0 0 1-6 6 6 6 0 0 1-6-6 6 6 0 0 1 6-6z" fill="#e7e7e7" style="paint-order:normal"/>
  <path d="m99.244 42.467c-0.54289-0.54289-0.87868-1.2929-0.87868-2.1213 0-1.6569 1.3431-3 3-3 0.82843 0 1.5784 0.33579 2.1213 0.87868-0.12132 1.1213-3.1213 4.1213-4.2426 4.2426z" fill="#6eb92e" style="paint-order:normal"/>
  <path d="m104.36 40.346c0 1.6569-1.3431 3-3 3-0.82843 0-1.5784-0.33579-2.1213-0.87868l4.2426-4.2426c0.54289 0.54289 0.87868 1.2929 0.87868 2.1213z" fill="#4592d6" style="paint-order:normal"/>
 </g>
</svg>
