<?xml version="1.0" encoding="UTF-8"?>
<svg width="64" height="64" version="1.1" viewBox="0 0 16.933 16.933" xmlns="http://www.w3.org/2000/svg" xmlns:xlink="http://www.w3.org/1999/xlink">
 <defs>
  <linearGradient id="e" x1="396.33" x2="396.33" y1="137.89" y2="463.07" gradientTransform="matrix(.052916 0 0 .052916 -12.7 -7.4084)" gradientUnits="userSpaceOnUse">
   <stop stop-color="#5a1aa9" offset="0"/>
   <stop stop-color="#c063d5" offset="1"/>
  </linearGradient>
 </defs>
 <path class="shp1" d="m8.4665 16.404c4.3836 0 7.9374-3.5539 7.9374-7.9374 0-4.3836-3.5539-7.9374-7.9374-7.9374-4.3836 0-7.9374 3.5539-7.9374 7.9374 0 4.3836 3.5539 7.9374 7.9374 7.9374z" fill="url(#e)" stroke-width=".82988"/>
 <g transform="matrix(1.25 0 0 1.25 -2.117 -2.112)">
  <path d="m6.562 11.003a0.635 0.635 0 0 1-0.635 0.635 0.635 0.635 0 0 1-0.635-0.635 0.635 0.635 0 0 1 0.635-0.635 0.635 0.635 0 0 1 0.635 0.635z" fill="#fff"/>
  <path d="m8.255 11.003a0.635 0.635 0 0 1-0.635 0.635 0.635 0.635 0 0 1-0.635-0.635 0.635 0.635 0 0 1 0.635-0.635 0.635 0.635 0 0 1 0.635 0.635z" fill="#f55"/>
  <path d="m9.948 11.003a0.635 0.635 0 0 1-0.635 0.635 0.635 0.635 0 0 1-0.635-0.635 0.635 0.635 0 0 1 0.635-0.635 0.635 0.635 0 0 1 0.635 0.635zm1.694 0a0.635 0.635 0 0 1-0.635 0.635 0.635 0.635 0 0 1-0.635-0.635 0.635 0.635 0 0 1 0.635-0.635 0.635 0.635 0 0 1 0.635 0.635z" fill="#fff"/>
  <path d="m6.562 9.31a0.635 0.635 0 0 1-0.635 0.635 0.635 0.635 0 0 1-0.635-0.635 0.635 0.635 0 0 1 0.635-0.635 0.635 0.635 0 0 1 0.635 0.635z" fill="#f55"/>
  <path d="m8.255 9.31a0.635 0.635 0 0 1-0.635 0.635 0.635 0.635 0 0 1-0.635-0.635 0.635 0.635 0 0 1 0.635-0.635 0.635 0.635 0 0 1 0.635 0.635z" fill="#fff"/>
  <path d="m9.948 9.31a0.635 0.635 0 0 1-0.635 0.635 0.635 0.635 0 0 1-0.635-0.635 0.635 0.635 0 0 1 0.635-0.635 0.635 0.635 0 0 1 0.635 0.635zm1.694 0a0.635 0.635 0 0 1-0.635 0.635 0.635 0.635 0 0 1-0.635-0.635 0.635 0.635 0 0 1 0.635-0.635 0.635 0.635 0 0 1 0.635 0.635z" fill="#f55"/>
  <path d="m9.948 7.617a0.635 0.635 0 0 1-0.635 0.635 0.635 0.635 0 0 1-0.635-0.635 0.635 0.635 0 0 1 0.635-0.635 0.635 0.635 0 0 1 0.635 0.635z" fill="#fff"/>
  <path d="m11.642 7.617a0.635 0.635 0 0 1-0.635 0.635 0.635 0.635 0 0 1-0.635-0.635 0.635 0.635 0 0 1 0.635-0.635 0.635 0.635 0 0 1 0.635 0.635z" fill="#f55"/>
  <path d="m11.642 5.923a0.635 0.635 0 0 1-0.635 0.635 0.635 0.635 0 0 1-0.635-0.635 0.635 0.635 0 0 1 0.635-0.635 0.635 0.635 0 0 1 0.635 0.635z" fill="#fff"/>
 </g>
</svg>
