<?xml version="1.0" encoding="UTF-8" standalone="no"?>
<svg
   width="64"
   height="64"
   image-rendering="optimizeSpeed"
   version="1.1"
   id="svg17"
   sodipodi:docname="freemind.svg"
   xml:space="preserve"
   inkscape:version="1.3.2 (091e20ef0f, 2023-11-25, custom)"
   xmlns:inkscape="http://www.inkscape.org/namespaces/inkscape"
   xmlns:sodipodi="http://sodipodi.sourceforge.net/DTD/sodipodi-0.dtd"
   xmlns="http://www.w3.org/2000/svg"
   xmlns:svg="http://www.w3.org/2000/svg"><defs
     id="defs17" /><sodipodi:namedview
     id="namedview17"
     pagecolor="#ffffff"
     bordercolor="#000000"
     borderopacity="0.25"
     inkscape:showpageshadow="2"
     inkscape:pageopacity="0.0"
     inkscape:pagecheckerboard="0"
     inkscape:deskcolor="#d1d1d1"
     inkscape:zoom="2.1765631"
     inkscape:cx="-22.053117"
     inkscape:cy="47.781754"
     inkscape:window-width="1920"
     inkscape:window-height="995"
     inkscape:window-x="0"
     inkscape:window-y="0"
     inkscape:window-maximized="1"
     inkscape:current-layer="svg17" /><g
     id="g17"
     transform="matrix(0.9794677,0,0,0.9794677,-14.10327,-7.2373056)"><path
       fill="#ffaa41"
       d="M 42.226984,41.669121 27.200649,38.182775 c 0,0 -3.21714,0.750266 -5.588954,2.822175 -1.937208,1.692174 -4.325303,6.966138 -2.444697,12.920985 1.683946,5.332143 7.337396,8.21419 10.156928,7.658256 3.148618,-0.620568 11.913631,-14.085559 11.913631,-14.085559 z"
       id="path1"
       style="stroke-width:0.122615" /><path
       fill="#be824b"
       d="m 41.836592,43.973453 0.39118,-2.304262 -15.026336,-3.486345 c 0,0 -0.416395,0.09842 -1.054671,0.316911 4.622479,1.85795 10.770758,5.978208 15.69015,5.473783 z"
       id="path2"
       style="stroke-width:0.122615" /><path
       fill="#594759"
       d="m 23.221375,13.207224 c -0.407447,-0.109176 -0.799346,-0.142605 -1.173963,-0.0917 -0.486663,0.06645 -1.246837,0.540288 -1.555364,1.691727 -0.939284,3.505453 0.132849,14.328445 0.736211,19.58342 0.203379,1.772769 1.258972,3.145438 2.721761,3.537391 l 0.04158,0.01086 c 4.282672,1.087276 15.023272,3.730054 18.784232,3.819664 -3.5e-5,1.3e-4 -12.208718,-26.583353 -19.554385,-28.551619 z"
       id="path3"
       style="stroke-width:0.122615" /><path
       fill="#ffaa41"
       d="m 24.56758,35.625873 c -0.736288,-0.197288 -1.257467,-0.875628 -1.359997,-1.770487 l -0.0025,-0.02151 a 12.994057,15.762524 15 0 1 0.06481,-4.610787 c 0.376222,-2.69191 0.944296,-5.24643 1.419438,-5.683672 0.780659,-0.718467 3.231837,9.59e-4 5.797981,1.269889 0.590069,0.291767 1.100396,0.749514 1.476055,1.351113 2.216723,3.550687 4.419035,7.54099 6.312595,11.25982 0.28087,0.551455 -0.169314,1.299891 -0.720813,1.192802 -3.339265,-0.647847 -7.805529,-1.671494 -12.987535,-2.987166 z"
       id="path4"
       style="stroke-width:0.122615" /><ellipse
       cx="28.048243"
       cy="11.959869"
       fill="#be824b"
       id="circle4"
       rx="1.842696"
       ry="2.2352941"
       style="stroke-width:0.122615"
       transform="rotate(15)" /><ellipse
       cx="31.989576"
       cy="12.890341"
       id="circle5"
       style="fill:#908490;stroke-width:0.122615"
       rx="0.9614259"
       ry="1.1662638"
       transform="rotate(15)" /><ellipse
       cx="27.732851"
       cy="16.63789"
       id="circle6"
       style="fill:#908490;stroke-width:0.122615"
       rx="0.7739501"
       ry="0.93884516"
       transform="rotate(15)" /><path
       fill="#594759"
       d="m 21.799836,48.845755 c -0.488555,-3.887621 1.013151,-5.464261 0.365127,-8.287452 -0.187783,0.142065 -0.373421,0.289036 -0.553271,0.446227 -1.937208,1.692173 -4.325304,6.966138 -2.444697,12.920985 1.683946,5.332143 7.337396,8.214189 10.156929,7.658256 0.708198,-0.139632 1.701404,-0.93215 2.813993,-2.071706 -5.117645,-0.357083 -9.590069,-4.71281 -10.338619,-10.666454 z"
       id="path6"
       style="stroke-width:0.122615" /><path
       fill="#be824b"
       d="m 31.96315,26.159809 c -0.375659,-0.601598 -0.885986,-1.059346 -1.476055,-1.351113 -2.228644,-1.10216 -4.36728,-1.786635 -5.403538,-1.477793 4.357275,4.440496 9.488197,11.7412 11.803556,15.148305 0.22275,0.04445 0.453926,0.09185 0.667603,0.133166 0.551607,0.107116 1.00165,-0.641218 0.720814,-1.192803 -1.89338,-3.718641 -4.095764,-7.709105 -6.312487,-11.25979 z"
       id="path7"
       style="stroke-width:0.122615" /><path
       fill="#ffaa41"
       d="m 43.295875,41.955529 14.756361,4.493904 c 0,0 2.410991,2.258319 3.429088,5.238552 0.831585,2.434069 0.262754,8.195504 -4.343322,12.41225 -4.124411,3.775798 -10.461466,3.444999 -12.625287,1.55378 -2.416498,-2.111736 -3.274727,-18.155267 -3.274727,-18.155267 z"
       id="path8"
       style="stroke-width:0.122615" /><path
       fill="#be824b"
       d="m 42.481798,44.146336 0.813359,-2.19114 14.756362,4.493905 c 0,0 0.311397,0.293434 0.754916,0.801788 -4.932159,-0.702207 -12.316855,-0.208099 -16.32496,-3.10464 z"
       id="path9"
       style="stroke-width:0.122615" /><path
       fill="#594759"
       d="m 42.77576,41.758842 c 3.30114,1.802674 13.924518,4.884222 18.177455,6.084191 l 0.04144,0.01138 c 1.462789,0.391953 3.063293,-0.269017 4.125809,-1.70259 C 68.270648,41.901912 74.610569,33.065254 75.550098,29.558887 75.85866,28.407318 75.437247,27.616878 75.048761,27.316069 74.749783,27.084683 74.393674,26.917682 73.986226,26.808506 66.641096,24.840385 42.775823,41.75774 42.775823,41.75774 Z"
       id="path10"
       style="stroke-width:0.122615" /><path
       fill="#ffaa41"
       d="m 48.871123,41.644456 c -0.531264,-0.183038 -0.546809,-1.056266 -0.02784,-1.393404 3.499178,-2.273849 7.401766,-4.628631 11.096777,-6.594992 0.62613,-0.333171 1.297067,-0.4744 1.953858,-0.432071 2.856811,0.184147 5.339199,0.786665 5.656143,1.799234 0.192828,0.616363 -0.592573,3.112652 -1.612566,5.631924 a 12.992943,15.761173 15 0 1 -2.249264,4.025465 l -0.01293,0.01736 c -0.536223,0.723705 -1.326748,1.050576 -2.063036,0.853288 -5.145764,-1.45179 -9.525487,-2.798414 -12.741118,-3.906805 z"
       id="path11"
       style="stroke-width:0.122615" /><ellipse
       cx="76.203812"
       cy="11.959869"
       fill="#be824b"
       id="circle11"
       rx="1.842696"
       ry="2.2352941"
       style="stroke-width:0.122615"
       transform="rotate(15)" /><ellipse
       cx="72.263145"
       cy="12.890341"
       id="circle12"
       style="fill:#908490;stroke-width:0.122615"
       rx="0.9614259"
       ry="1.1662638"
       transform="rotate(15)" /><ellipse
       cx="76.519203"
       cy="16.63789"
       id="circle13"
       style="fill:#908490;stroke-width:0.122615"
       rx="0.7739501"
       ry="0.93884516"
       transform="rotate(15)" /><path
       fill="#594759"
       d="m 57.397772,58.384193 c 2.366911,-3.122501 1.854716,-5.238764 3.827517,-7.359707 0.09159,0.216923 0.178874,0.437023 0.256032,0.663079 0.831585,2.434069 0.262755,8.195504 -4.343322,12.41225 -4.124412,3.775798 -10.461466,3.444999 -12.625287,1.55378 -0.543501,-0.475024 -1.007384,-1.657968 -1.401135,-3.201147 4.610551,2.24958 10.661648,0.713622 14.286733,-4.068111 z"
       id="path13"
       style="stroke-width:0.122615" /><path
       fill="#be824b"
       d="m 59.939594,33.656075 c 0.62613,-0.33317 1.29696,-0.474428 1.953859,-0.432071 2.481142,0.159824 4.675493,0.636369 5.418497,1.421963 -5.99376,1.666944 -14.08762,5.424078 -17.796332,7.217039 -0.21513,-0.07288 -0.439039,-0.147415 -0.644745,-0.218477 -0.531264,-0.183038 -0.546845,-1.056136 -0.02784,-1.393404 3.499036,-2.273748 7.401588,-4.628399 11.09667,-6.595021 z"
       id="path14"
       style="stroke-width:0.122615" /><path
       fill="#908490"
       d="M 43.243777,40.012181 A 0.4905098,0.59501607 15 0 1 42.91384,39.633948 L 40.635885,29.149999 a 0.49095511,0.59555626 15 0 1 0.363667,-0.752884 c 0.265608,-0.109047 0.5389,0.05045 0.604625,0.357883 l 2.084932,9.595181 6.603051,-7.267103 c 0.212467,-0.232897 0.528749,-0.234272 0.702562,-0.0076 a 0.49095511,0.59555626 15 0 1 -0.0615,0.83385 l -7.21474,7.940388 a 0.49006449,0.59447588 15 0 1 -0.474708,0.16249 z"
       id="path15"
       style="stroke-width:0.122615" /><path
       d="m 38.15257,59.012824 a 0.98257819,1.1919228 15 0 1 -0.640751,-1.405937 l 3.085483,-11.515178 a 0.98257819,1.1919228 15 0 1 1.257875,-0.897202 0.98257819,1.1919228 15 0 1 0.64075,1.405937 l -3.085482,11.515178 a 0.98257819,1.1919228 15 0 1 -1.257875,0.897202 z m 4.16531,-15.54515 c -0.786076,-0.210629 -1.216697,-1.154671 -0.961053,-2.108747 l 0.61709,-2.30301 c 0.255678,-0.954206 1.100593,-1.55633 1.886669,-1.345701 0.786076,0.210628 1.216698,1.154671 0.961054,2.108747 l -0.61709,2.303009 c -0.255679,0.954206 -1.100594,1.55633 -1.88667,1.345702 z"
       id="path16"
       style="fill:#463246;stroke-width:0.122615" /><path
       fill="#594759"
       d="M 41.238192,47.497125 C 40.189625,47.216163 39.615941,45.95738 39.956764,44.685409 l 0.61709,-2.303009 c 0.340823,-1.271971 1.46704,-2.075265 2.515607,-1.794303 1.048566,0.280963 1.622251,1.539744 1.281428,2.811715 l -0.61709,2.30301 c -0.340823,1.27197 -1.46704,2.075266 -2.515607,1.794303 z"
       id="path17"
       style="stroke-width:0.122615" /></g></svg>
