<?xml version="1.0" encoding="UTF-8" standalone="no"?>
<svg
   width="64"
   height="64"
   version="1.1"
   id="svg4"
   sodipodi:docname="frostwire.svg"
   inkscape:version="1.3.2 (091e20ef0f, 2023-11-25, custom)"
   xmlns:inkscape="http://www.inkscape.org/namespaces/inkscape"
   xmlns:sodipodi="http://sodipodi.sourceforge.net/DTD/sodipodi-0.dtd"
   xmlns="http://www.w3.org/2000/svg"
   xmlns:svg="http://www.w3.org/2000/svg">
  <defs
     id="defs4">
    <radialGradient
       id="SVGID_1_"
       cx="22.2418"
       cy="16.9447"
       r="29.254999"
       gradientUnits="userSpaceOnUse"
       gradientTransform="translate(254.19444,163.4)">
		<stop
   offset="0"
   style="stop-color:#7AC9F2"
   id="stop1" />

		<stop
   offset="0.6748"
   style="stop-color:#7AC9F2"
   id="stop2" />

		<stop
   offset="0.8344"
   style="stop-color:#428CC8"
   id="stop3" />

		<stop
   offset="0.9509"
   style="stop-color:#2E72A9"
   id="stop4" />

	</radialGradient>
    <radialGradient
       id="SVGID_2_"
       cx="25.376699"
       cy="22.966"
       r="21.652399"
       gradientUnits="userSpaceOnUse"
       gradientTransform="translate(254.19444,163.4)">
		<stop
   offset="0.908"
   style="stop-color:#FFFFFF"
   id="stop5" />

		<stop
   offset="1"
   style="stop-color:#2E72A9"
   id="stop6" />

	</radialGradient>
    <linearGradient
       id="SVGID_3_"
       gradientUnits="userSpaceOnUse"
       x1="2.8670001"
       y1="23.562401"
       x2="48.234798"
       y2="23.562401">
			<stop
   offset="0"
   style="stop-color:#8CA3B3"
   id="stop13" />

			<stop
   offset="5.521470e-02"
   style="stop-color:#BADCF2"
   id="stop14" />

			<stop
   offset="0.2025"
   style="stop-color:#FFFFFF"
   id="stop15" />

			<stop
   offset="0.8354"
   style="stop-color:#FFFFFF"
   id="stop16" />

			<stop
   offset="0.9325"
   style="stop-color:#BADCF2"
   id="stop17" />

			<stop
   offset="0.9939"
   style="stop-color:#8CA3B3"
   id="stop18" />

		</linearGradient>
    <radialGradient
       id="SVGID_4_"
       cx="25.3848"
       cy="19.8349"
       r="25.463301"
       gradientUnits="userSpaceOnUse"
       gradientTransform="translate(254.19444,163.4)">
		<stop
   offset="0.2454"
   style="stop-color:#FFFFFF;stop-opacity:0"
   id="stop54" />

		<stop
   offset="1"
   style="stop-color:#FFFFFF"
   id="stop55" />

	</radialGradient>
  </defs>
  <sodipodi:namedview
     id="namedview4"
     pagecolor="#ffffff"
     bordercolor="#000000"
     borderopacity="0.25"
     inkscape:showpageshadow="2"
     inkscape:pageopacity="0.0"
     inkscape:pagecheckerboard="0"
     inkscape:deskcolor="#d1d1d1"
     inkscape:zoom="6.15625"
     inkscape:cx="34.923858"
     inkscape:cy="30.700508"
     inkscape:window-width="1920"
     inkscape:window-height="995"
     inkscape:window-x="0"
     inkscape:window-y="0"
     inkscape:window-maximized="1"
     inkscape:current-layer="svg4" />
  <g
     id="g5"
     transform="matrix(1.2757976,0,0,1.2757976,-324.87998,-206.57415)">
    <circle
       fill="url(#SVGID_1_)"
       cx="279.79443"
       cy="187"
       r="22"
       id="circle4"
       style="fill:url(#SVGID_1_)" />
    <path
       opacity="0.2"
       fill="url(#SVGID_2_)"
       d="m 298.79444,176.1 c -1.8,7.4 -10.5,14.7 -22.2,17.9 -6.2,1.7 -12.2,1.9 -17.3,1 -1,-2.5 -1.5,-5.2 -1.5,-8 0,-12.1 9.8,-22 22,-22 8.1,0 15.2,4.5 19,11.1 z"
       id="path6"
       style="fill:url(#SVGID_2_)" />
    <g
       opacity="0.5"
       id="g13"
       transform="translate(254.19444,163.4)">
		<path
   fill="#2e72a9"
   d="m 22.6,30.5 c 0.4,0 0.8,-0.2 1,-0.6 v 0 l 0.1,-0.2 c 0,0 0,-0.1 0,-0.1 l 4.6,-10.5 c 0.1,-0.2 0.2,-0.4 0.2,-0.7 0,-0.7 -0.6,-1.3 -1.3,-1.3 -0.5,0 -1,0.4 -1.2,0.8 l -4.7,10.7 c 0,0 0,0 0,0 v 0 0 c -0.1,0.1 -0.1,0.3 -0.1,0.5 0.2,0.9 0.7,1.4 1.4,1.4 z"
   id="path7" />

		<path
   fill="#2e72a9"
   d="m 38.6,23.9 c 3.5,-2.5 5.4,-3 8.7,-2.9 -0.1,-0.8 -0.2,-1.7 -0.4,-2.5 -1,-0.1 -5.5,-0.1 -10.5,3.8 -1.3,-0.8 -2.5,-1.5 -3.7,-1.9 l -1.1,2.3 c 0.8,0.3 1.7,0.7 2.6,1.3 -1,0.6 -2,1.1 -3,1.4 l 1.1,2.3 c 1.3,-0.5 2.7,-1.2 4.1,-2.1 4.7,3.7 9.1,3.9 10.3,3.8 0.2,-0.8 0.4,-1.6 0.5,-2.5 -3.2,0 -5.1,-0.6 -8.6,-3 z"
   id="path8" />

		<path
   fill="#2e72a9"
   d="m 15.2,12.6 c 0.1,0 0.1,0.1 0,0 l 4.2,9.6 1.3,-3.1 -3.3,-7.5 c 0,-0.1 -0.1,-0.1 -0.1,-0.1 -0.2,-0.3 -0.6,-0.6 -1,-0.6 -0.7,0 -1.2,0.5 -1.2,1.2 0,0 0,0 0,0.1 0,0 0,0 0,0.1 0.1,0 0.1,0.2 0.1,0.3 z"
   id="path9" />

		<path
   fill="#2e72a9"
   d="m 4.4,29.2 c 4.5,0.1 7.5,-1.3 10,-3.7 1,0.7 2,1.3 3.1,1.7 l 1,-2.1 c -0.8,-0.3 -1.6,-0.7 -2.4,-1.2 0.7,-0.5 1.6,-1 2.5,-1.3 l -1,-2.2 c -1.1,0.5 -2.2,1 -3.2,1.8 -2.5,-2.3 -5.5,-3.7 -10,-3.7 0,0 -0.1,0 -0.2,0 -0.2,0.8 -0.3,1.7 -0.4,2.6 0.5,-0.1 4.3,-0.7 8.7,2.7 -4,3.1 -7.6,2.9 -8.6,2.7 0,1 0.2,1.9 0.5,2.7 z"
   id="path10" />

		<path
   fill="#2e72a9"
   d="m 34.6,35.2 c 0,0 0,-0.1 0,0 l -4.2,-9.6 -1.4,3.1 3.3,7.5 c 0,0.1 0.1,0.2 0.2,0.2 0.2,0.3 0.6,0.4 0.9,0.4 0.7,0 1.2,-0.5 1.2,-1.2 0,0 0,0 0,0 0,0 0,0 0,0 0.1,-0.1 0.1,-0.3 0,-0.4 z"
   id="path11" />

		<path
   fill="#2e72a9"
   d="m 35.1,12.3 c 0,-0.7 -0.6,-1.3 -1.3,-1.3 -0.4,0 -0.8,0.2 -1.1,0.6 v 0 0 c -0.1,0.1 -0.1,0.2 -0.2,0.4 L 25,29 v 0 c 0,0.1 0,0.3 0,0.5 0,0.7 0.6,1.3 1.3,1.3 0.6,0 1.1,-0.4 1.2,-1 l 7.4,-16.7 c 0.1,-0.2 0.2,-0.5 0.2,-0.8 z"
   id="path12" />

		<path
   fill="#2e72a9"
   d="m 16.1,36.8 c 0.6,0 1.1,-0.4 1.2,-1 l 7.3,-16.6 c 0.2,-0.2 0.3,-0.5 0.3,-0.8 0,-0.7 -0.6,-1.3 -1.3,-1.3 -0.4,0 -0.8,0.2 -1.1,0.6 v 0 L 22.4,18 c 0,0 0,0 0,0 l -7.5,17 c 0,0 0,0.1 0,0.1 v 0 0 c 0,0.1 -0.1,0.3 -0.1,0.4 0,0.8 0.6,1.3 1.3,1.3 z"
   id="path13" />

	</g>
    <g
       id="g18"
       transform="translate(254.19444,163.4)">
		<linearGradient
   id="linearGradient12"
   gradientUnits="userSpaceOnUse"
   x1="2.8670001"
   y1="23.562401"
   x2="48.234798"
   y2="23.562401">
			<stop
   offset="0"
   style="stop-color:#8CA3B3"
   id="stop7" />

			<stop
   offset="5.521470e-02"
   style="stop-color:#BADCF2"
   id="stop8" />

			<stop
   offset="0.2025"
   style="stop-color:#FFFFFF"
   id="stop9" />

			<stop
   offset="0.8354"
   style="stop-color:#FFFFFF"
   id="stop10" />

			<stop
   offset="0.9325"
   style="stop-color:#BADCF2"
   id="stop11" />

			<stop
   offset="0.9939"
   style="stop-color:#8CA3B3"
   id="stop12" />

		</linearGradient>

		<path
   fill="url(#SVGID_3_)"
   d="m 17.3,35.5 c -0.1,0.6 -0.6,1 -1.2,1 -0.7,0 -1.3,-0.6 -1.3,-1.3 0,-0.1 0,-0.3 0.1,-0.4 v 0 0 c 0,0 0,-0.1 0,-0.1 l 7.5,-17 c 0,0 0,0 0,0 l 0.1,-0.2 v 0 c 0.2,-0.3 0.6,-0.6 1.1,-0.6 0.7,0 1.3,0.6 1.3,1.3 0,0.3 -0.1,0.6 -0.3,0.8 z M 34.8,12.8 c 0.2,-0.2 0.3,-0.5 0.3,-0.8 0,-0.7 -0.6,-1.3 -1.3,-1.3 -0.4,0 -0.8,0.2 -1.1,0.6 v 0 0 c -0.1,0.1 -0.1,0.2 -0.2,0.4 l -7.5,17 v 0 c 0,0.1 0,0.3 0,0.5 0,0.7 0.6,1.3 1.3,1.3 0.6,0 1.1,-0.4 1.2,-1 z M 23.7,29.5 c 0,0 0,0 0,0 l 4.7,-10.6 c 0.1,-0.2 0.2,-0.4 0.2,-0.7 0,-0.7 -0.6,-1.3 -1.3,-1.3 -0.5,0 -1,0.4 -1.2,0.8 l -4.7,10.7 c 0,0 0,0 0,0 v 0 0 c -0.1,0.1 -0.1,0.3 -0.1,0.5 0,0.7 0.6,1.2 1.2,1.2 0.4,0 0.8,-0.2 1,-0.6 v 0 z m -5.2,-4.7 c -0.8,-0.3 -1.6,-0.7 -2.4,-1.2 0.7,-0.5 1.6,-1 2.5,-1.3 l -1,-2.2 c -1.1,0.5 -2.2,1 -3.2,1.8 -2.5,-2.3 -5.5,-3.7 -10,-3.7 0,0 -1.3,0 -1.5,1.1 -0.2,1.2 0.8,1.5 0.8,1.5 0,0 3.9,-0.9 8.6,2.7 -4.7,3.6 -8.8,2.7 -8.8,2.7 0,0 -1,0.3 -0.6,1.5 0.5,1.2 1.4,1.1 1.4,1.1 4.5,0.1 7.5,-1.3 10,-3.7 1,0.7 2,1.3 3.1,1.7 z m 29.2,1.7 c -3.5,0.2 -5.4,-0.4 -9,-2.9 3.6,-2.5 5.5,-3.1 9,-2.9 0,0 0.8,-0.3 0.5,-1.3 -0.3,-1 -1.1,-1.2 -1.1,-1.2 0,0 -5.1,-0.6 -10.7,3.8 -1.3,-0.8 -2.5,-1.5 -3.7,-1.9 l -1.1,2.3 c 0.8,0.3 1.7,0.7 2.6,1.3 -1,0.6 -2,1.1 -3,1.4 l 1.1,2.3 c 1.3,-0.5 2.7,-1.2 4.1,-2.1 5.6,4.4 10.7,3.8 10.7,3.8 0,0 0.6,-0.5 0.9,-1 0.6,-1.2 -0.4,-1.6 -0.3,-1.6 z M 17.5,11.3 c 0,-0.1 -0.1,-0.1 -0.1,-0.1 -0.2,-0.3 -0.6,-0.6 -1,-0.6 -0.7,0 -1.2,0.5 -1.2,1.2 0,0 0,0 0,0.1 0,0 0,0 0,0.1 0,0.1 0,0.3 0.1,0.4 v 0 0 c 0,0 0,0.1 0,0.1 l 4.2,9.5 1.3,-3.1 z m 17.2,24 c 0,-0.1 0,-0.3 -0.1,-0.4 v 0 0 c 0,0 0,-0.1 0,-0.1 l -4.2,-9.5 -1.4,3 3.3,7.5 c 0,0.1 0.1,0.2 0.2,0.2 0.2,0.3 0.6,0.4 0.9,0.4 0.8,0.2 1.3,-0.4 1.3,-1.1 z"
   id="path18"
   style="fill:url(#SVGID_3_)" />

	</g>
    <g
       opacity="0.5"
       id="g31"
       transform="translate(254.19444,163.4)">
		<g
   id="g19">
			<path
   fill="#ccdce4"
   d="m 17.1,10.9 c 0,0 0.1,0.1 0.1,0.1 l 3.3,7.5 -1.2,2.9 0.2,0.5 1.3,-3.1 -3.3,-7.5 c 0,-0.1 -0.1,-0.1 -0.1,-0.1 -0.1,-0.2 -0.3,-0.3 -0.5,-0.4 0.1,0 0.2,0 0.2,0.1 z"
   id="path19" />

		</g>

		<g
   id="g20">
			<path
   fill="#ccdce4"
   d="m 3.5,20.7 c 0,0 -0.1,0 -0.2,-0.1 0.2,0.2 0.5,0.3 0.5,0.3 0,0 3.8,-0.8 8.3,2.5 0,0 0,0 0,0 C 7.4,19.8 3.5,20.7 3.5,20.7 Z"
   id="path20" />

		</g>

		<g
   id="g21">
			<path
   fill="#ccdce4"
   d="m 17.6,20.1 c -0.1,0 -0.1,0 -0.2,0.1 l 0.9,1.9 c -0.9,0.3 -1.7,0.7 -2.5,1.3 0.1,0.1 0.2,0.1 0.3,0.2 0.7,-0.5 1.6,-0.9 2.4,-1.3 z"
   id="path21" />

		</g>

		<g
   id="g22">
			<path
   fill="#ccdce4"
   d="m 14.1,21.7 c -0.3,-0.3 -0.6,-0.5 -0.9,-0.8 0.2,0.3 0.5,0.5 0.9,0.8 z"
   id="path22" />

		</g>

		<g
   id="g23">
			<path
   fill="#ccdce4"
   d="m 47.9,19.2 c 0.3,1 -0.6,1.3 -0.5,1.3 -3.5,-0.2 -5.4,0.4 -9,2.9 0.1,0.1 0.2,0.1 0.3,0.2 3.6,-2.5 5.5,-3.1 9,-2.9 0,0 0.8,-0.3 0.5,-1.3 -0.2,-0.6 -0.6,-0.9 -0.8,-1.1 0.2,0.2 0.4,0.5 0.5,0.9 z"
   id="path23" />

		</g>

		<g
   id="g24">
			<path
   fill="#ccdce4"
   d="m 31.7,22.2 v 0 c 0.7,0.4 1.4,0.7 2.2,1.1 0,0 0,0 0.1,0 -0.8,-0.4 -1.6,-0.8 -2.3,-1.1 z"
   id="path24" />

		</g>

		<g
   id="g25">
			<path
   fill="#ccdce4"
   d="m 18.5,24.8 c -0.1,0 -0.2,-0.1 -0.3,-0.1 l -1,2.1 c -1.1,-0.4 -2.1,-1 -3.1,-1.7 -2.5,2.3 -5.5,3.7 -10,3.7 0,0 -0.3,0 -0.6,-0.2 0.4,0.4 0.9,0.4 0.9,0.4 4.5,0.1 7.5,-1.3 10,-3.7 1,0.7 2,1.3 3.1,1.7 z"
   id="path25" />

		</g>

		<g
   id="g26">
			<path
   fill="#ccdce4"
   d="m 34.6,34.9 v 0 0 c 0,-0.1 0,-0.1 0,-0.1 l -4.2,-9.5 -0.1,0.2 4,9.1 c 0,0 0,0.1 0,0.1 v 0 0 c 0,0.1 0.1,0.3 0.1,0.4 0,0 0,0 0,0 0,0 0,0 0,0 0,0.7 -0.5,1.2 -1.2,1.2 -0.2,0 -0.4,-0.1 -0.6,-0.1 0.2,0.2 0.5,0.4 0.9,0.4 0.7,0 1.2,-0.5 1.2,-1.2 0,0 0,0 0,0 0,0 0,0 0,0 0,-0.3 0,-0.4 -0.1,-0.5 z"
   id="path26" />

		</g>

		<g
   id="g27">
			<path
   fill="#ccdce4"
   d="m 47.7,26.5 c 0,0 -0.1,0 0,0 0.2,0.2 0.4,0.6 0,1.2 -0.3,0.5 -0.9,1 -0.9,1 0,0 -5.1,0.6 -10.7,-3.8 -1.3,0.9 -2.7,1.5 -4,2 l 0.1,0.3 c 1.3,-0.5 2.7,-1.2 4.1,-2.1 5.6,4.4 10.7,3.8 10.7,3.8 0,0 0.6,-0.5 0.9,-1 0.7,-1 -0.3,-1.4 -0.2,-1.4 z"
   id="path27" />

		</g>

		<g
   id="g28">
			<path
   fill="#ccdce4"
   d="m 28.6,18.2 c 0,-0.5 -0.3,-0.9 -0.6,-1.1 0.2,0.2 0.3,0.5 0.3,0.9 0,0.3 -0.1,0.5 -0.2,0.7 l -4.6,10.5 c 0,0 0,0.1 0,0.1 l -0.1,0.2 v 0 c -0.2,0.3 -0.6,0.6 -1,0.6 -0.2,0 -0.4,-0.1 -0.6,-0.2 0.2,0.2 0.5,0.4 0.9,0.4 0.4,0 0.8,-0.2 1,-0.6 v 0 l 0.1,-0.2 c 0,0 0,0 0,-0.1 l 4.6,-10.5 c 0.1,-0.2 0.2,-0.5 0.2,-0.7 z"
   id="path28" />

		</g>

		<g
   id="g29">
			<path
   fill="#ccdce4"
   d="m 35.1,12 c 0,-0.5 -0.3,-0.9 -0.7,-1.1 0.2,0.2 0.4,0.5 0.4,0.9 0,0.3 -0.1,0.6 -0.3,0.8 l -7.4,16.7 c -0.1,0.6 -0.6,1 -1.2,1 -0.2,0 -0.4,-0.1 -0.6,-0.2 0.2,0.2 0.6,0.4 0.9,0.4 0.6,0 1.1,-0.4 1.2,-1 L 34.8,12.8 C 35,12.6 35.1,12.3 35.1,12 Z"
   id="path29" />

		</g>

		<g
   id="g30">
			<path
   fill="#ccdce4"
   d="m 24.9,18.2 c 0,-0.5 -0.3,-0.9 -0.6,-1.1 0.2,0.2 0.4,0.5 0.4,0.9 0,0.3 -0.1,0.6 -0.3,0.8 L 17,35.3 c -0.1,0.6 -0.6,1 -1.2,1 -0.2,0 -0.4,-0.1 -0.6,-0.2 0.2,0.2 0.5,0.4 0.9,0.4 0.6,0 1.1,-0.4 1.2,-1 L 24.6,19 c 0.2,-0.2 0.3,-0.5 0.3,-0.8 z"
   id="path30" />

		</g>

	</g>
    <g
       opacity="0.5"
       id="g43"
       transform="translate(254.19444,163.4)">
		<g
   id="g32">
			<path
   fill="#ffffff"
   d="m 14.9,34.8 v 0 0 c -0.1,0.2 -0.1,0.3 -0.1,0.4 0,0.2 0.1,0.5 0.2,0.6 L 22.4,19 c 0,0 0,0 0,0 l 0.1,-0.2 v 0 c 0.2,-0.3 0.6,-0.6 1.1,-0.6 0.5,0 0.8,0.2 1.1,0.6 0.1,-0.2 0.2,-0.4 0.2,-0.7 0,-0.7 -0.6,-1.3 -1.3,-1.3 -0.4,0 -0.8,0.2 -1.1,0.6 v 0 l -0.1,0.2 c 0,0 0,0 0,0 l -7.5,17 c 0,0.1 0,0.2 0,0.2 z"
   id="path31" />

		</g>

		<g
   id="g33">
			<path
   fill="#ffffff"
   d="m 21.5,28.5 v 0 0 c -0.1,0.2 -0.1,0.3 -0.1,0.5 0,0.2 0.1,0.5 0.2,0.6 l 4.6,-10.5 c 0.2,-0.5 0.6,-0.8 1.2,-0.8 0.5,0 0.8,0.2 1.1,0.6 0.1,-0.2 0.2,-0.4 0.2,-0.7 0,-0.7 -0.6,-1.3 -1.3,-1.3 -0.5,0 -1,0.4 -1.2,0.8 z"
   id="path32" />

		</g>

		<g
   id="g34">
			<path
   fill="#ffffff"
   d="m 31.8,26.1 c 0.8,-0.3 1.6,-0.7 2.4,-1.2 -0.4,-0.2 -0.8,-0.5 -1.2,-0.7 -0.6,0.3 -1.2,0.5 -1.7,0.7 z"
   id="path33" />

		</g>

		<g
   id="g35">
			<path
   fill="#ffffff"
   d="m 31.6,22.3 c 0.2,0.1 0.3,0.1 0.5,0.2 l 0.5,-1.2 c 1.2,0.5 2.5,1.1 3.7,1.9 5.6,-4.4 10.7,-3.8 10.7,-3.8 0,0 0.6,0.2 0.9,0.9 0.2,-0.2 0.3,-0.5 0.1,-1 -0.3,-1 -1.1,-1.2 -1.1,-1.2 0,0 -5.1,-0.6 -10.7,3.8 -1.3,-0.8 -2.5,-1.5 -3.7,-1.9 z"
   id="path34" />

		</g>

		<g
   id="g36">
			<path
   fill="#ffffff"
   d="m 18,25.9 0.5,-1.1 c -0.4,-0.2 -0.9,-0.4 -1.3,-0.6 -0.4,0.2 -0.7,0.4 -1.1,0.7 0.6,0.4 1.2,0.8 1.9,1 z"
   id="path35" />

		</g>

		<g
   id="g37">
			<path
   fill="#ffffff"
   d="M 25.1,28.6 C 25,28.8 25,29 25,29.2 c 0,0.2 0.1,0.5 0.2,0.6 L 32.6,13 c 0,-0.1 0.1,-0.2 0.2,-0.4 v 0 0 C 33,12.3 33.4,12 33.9,12 c 0.5,0 0.9,0.2 1.1,0.6 0.1,-0.2 0.2,-0.4 0.2,-0.7 0,-0.7 -0.6,-1.3 -1.3,-1.3 -0.4,0 -0.8,0.2 -1.1,0.6 v 0 0 c -0.1,0.1 -0.1,0.2 -0.2,0.4 z"
   id="path36" />

		</g>

		<g
   id="g38">
			<path
   fill="#ffffff"
   d="m 34.6,34.9 v 0 0 c 0,-0.1 0,-0.1 0,-0.1 l -4.2,-9.5 -1.4,3 0.3,0.7 1.1,-2.4 4.1,9.4 c 0.1,-0.2 0.2,-0.4 0.2,-0.6 0,0 0,0 0,0 0,0 0,0 0,0 0,-0.3 0,-0.4 -0.1,-0.5 z"
   id="path37" />

		</g>

		<g
   id="g39">
			<path
   fill="#ffffff"
   d="m 47.7,26.5 c -3.2,0.2 -5,-0.3 -8,-2.2 -0.3,0.2 -0.6,0.4 -1,0.7 3.6,2.5 5.5,3.1 9,2.9 0,0 0.1,0.1 0.3,0.2 0,0 0,-0.1 0.1,-0.1 0.5,-1.1 -0.5,-1.5 -0.4,-1.5 z"
   id="path38" />

		</g>

		<g
   id="g40">
			<path
   fill="#ffffff"
   d="m 3.1,27.9 c 0.2,-0.2 0.5,-0.3 0.5,-0.3 0,0 4.1,0.9 8.8,-2.7 -0.3,-0.2 -0.6,-0.5 -0.9,-0.7 -4.3,2.8 -7.9,2 -7.9,2 0,0 -1,0.3 -0.6,1.5 0,0.1 0,0.2 0.1,0.2 z"
   id="path39" />

		</g>

		<g
   id="g41">
			<path
   fill="#ffffff"
   d="m 15.2,12.3 v 0 0 c 0,0.1 0,0.1 0,0.1 v 0.1 c 0.2,-0.4 0.6,-0.6 1,-0.6 0.4,0 0.8,0.2 1,0.6 0,0 0.1,0.1 0.1,0.1 l 3,6.9 0.3,-0.7 -3.3,-7.5 c 0,-0.1 -0.1,-0.1 -0.1,-0.1 -0.2,-0.3 -0.6,-0.6 -1,-0.6 -0.7,0 -1.2,0.5 -1.2,1.2 0,0 0,0 0,0.1 0,0 0,0 0,0.1 0.2,0 0.2,0.2 0.2,0.3 z"
   id="path40" />

		</g>

		<g
   id="g42">
			<path
   fill="#ffffff"
   d="m 4.4,19.6 c 4.5,-0.1 7.5,1.3 10,3.7 1,-0.8 2.1,-1.3 3.2,-1.8 l 0.5,1 c 0.2,-0.1 0.3,-0.1 0.5,-0.2 l -1,-2.2 c -1.1,0.5 -2.2,1 -3.2,1.8 -2.5,-2.3 -5.5,-3.7 -10,-3.7 0,0 -1.3,0 -1.5,1.1 -0.1,0.4 0,0.7 0.1,0.9 0.4,-0.6 1.4,-0.6 1.4,-0.6 z"
   id="path41" />

		</g>

	</g>
    <g
       id="g54"
       transform="translate(254.19444,163.4)">
		<g
   id="g53">
			<path
   fill="#ffffff"
   d="m 21.5,28.5 v 0 0 c -0.1,0.2 -0.1,0.3 -0.1,0.5 0,0.2 0,0.4 0.1,0.5 l 4.7,-10.7 c 0.2,-0.5 0.6,-0.8 1.2,-0.8 0.5,0 0.9,0.3 1.1,0.7 0.1,-0.2 0.1,-0.3 0.1,-0.5 0,-0.7 -0.6,-1.3 -1.3,-1.3 -0.5,0 -1,0.4 -1.2,0.8 z"
   id="path43" />

			<path
   fill="#ffffff"
   d="m 14.9,34.8 v 0 0 c -0.1,0.2 -0.1,0.3 -0.1,0.4 0,0.2 0,0.4 0.1,0.5 0,0 0,0 0,0 l 7.5,-17 c 0,0 0,0 0,0 l 0.1,-0.2 v 0 c 0.2,-0.3 0.6,-0.6 1.1,-0.6 0.5,0 1,0.3 1.2,0.8 0.1,-0.2 0.1,-0.3 0.1,-0.5 0,-0.7 -0.6,-1.3 -1.3,-1.3 -0.4,0 -0.8,0.2 -1.1,0.6 v 0 l -0.1,0.2 c 0,0 0,0 0,0 l -7.5,17 c 0,0 0,0.1 0,0.1 z"
   id="path44" />

			<path
   fill="#ffffff"
   d="m 18.1,25.7 0.4,-0.9 c -0.5,-0.2 -1.1,-0.4 -1.6,-0.7 -0.3,0.2 -0.5,0.3 -0.8,0.5 0.6,0.4 1.3,0.8 2,1.1 z"
   id="path45" />

			<path
   fill="#ffffff"
   d="m 31.6,25.8 c 0.8,-0.3 1.7,-0.7 2.6,-1.2 -0.3,-0.2 -0.6,-0.4 -0.9,-0.5 -0.7,0.4 -1.4,0.7 -2.1,0.9 z"
   id="path46" />

			<path
   fill="#ffffff"
   d="m 31.6,22.3 c 0.1,0.1 0.3,0.1 0.4,0.2 l 0.7,-1.4 c 1.2,0.5 2.5,1.1 3.7,1.9 5.6,-4.4 10.7,-3.8 10.7,-3.8 0,0 0.7,0.2 1,1 0.1,-0.2 0.2,-0.5 0.1,-0.8 -0.3,-1 -1.1,-1.2 -1.1,-1.2 0,0 -5.1,-0.6 -10.7,3.8 -1.3,-0.8 -2.5,-1.5 -3.7,-1.9 z"
   id="path47" />

			<path
   fill="#ffffff"
   d="M 25.1,28.6 C 25,28.8 25,29 25,29.2 c 0,0.2 0,0.4 0.1,0.5 0,0 0,-0.1 0,-0.1 v 0 l 7.5,-17 c 0,-0.1 0.1,-0.2 0.2,-0.4 v 0 0 c 0.2,-0.3 0.6,-0.6 1.1,-0.6 0.5,0 1,0.3 1.2,0.8 0.1,-0.2 0.1,-0.3 0.1,-0.5 0,-0.7 -0.6,-1.3 -1.3,-1.3 -0.4,0 -0.8,0.2 -1.1,0.6 v 0 0 c -0.1,0.1 -0.1,0.2 -0.2,0.4 z"
   id="path48" />

			<path
   fill="#ffffff"
   d="m 34.6,34.9 v 0 0 c 0,-0.1 0,-0.1 0,-0.1 l -4.2,-9.5 -1.4,3 0.2,0.5 1.1,-2.6 4.2,9.5 c 0,0 0,0 0,0 0.1,-0.1 0.1,-0.3 0.1,-0.5 0,0 0,0 0,0 0,0 0,0 0,0 0.1,-0.1 0.1,-0.2 0,-0.3 z"
   id="path49" />

			<path
   fill="#ffffff"
   d="m 15.2,12.3 v 0 0 c 0,0 0,0 0,0 0.2,-0.4 0.6,-0.7 1.1,-0.7 0.4,0 0.8,0.2 1,0.6 0,0 0.1,0.1 0.1,0.1 l 3.1,7 0.2,-0.5 -3.3,-7.5 c 0,-0.1 -0.1,-0.1 -0.1,-0.1 -0.2,-0.3 -0.6,-0.6 -1,-0.6 -0.7,0 -1.2,0.5 -1.2,1.2 0,0 0,0 0,0.1 0,0 0,0 0,0.1 0.1,0 0.1,0.2 0.1,0.3 z"
   id="path50" />

			<path
   fill="#ffffff"
   d="m 47.7,26.5 c -3.3,0.2 -5.1,-0.3 -8.3,-2.4 -0.2,0.2 -0.5,0.3 -0.7,0.5 3.6,2.5 5.5,3.1 9,2.9 0,0 0.2,0.1 0.4,0.3 0.4,-0.9 -0.5,-1.3 -0.4,-1.3 z"
   id="path51" />

			<path
   fill="#ffffff"
   d="m 3.6,27.3 c 0,0 4.1,0.9 8.8,-2.7 -0.2,-0.2 -0.5,-0.3 -0.7,-0.5 -4.4,3 -7.8,2.2 -7.9,2.1 0,-0.1 -1.3,0.2 -0.8,1.5 0.2,-0.3 0.6,-0.4 0.6,-0.4 z"
   id="path52" />

			<path
   fill="#ffffff"
   d="m 4.4,19.3 c 4.5,-0.1 7.5,1.3 10,3.7 1,-0.8 2.1,-1.3 3.2,-1.8 l 0.6,1.3 c 0.1,-0.1 0.3,-0.1 0.4,-0.2 l -1,-2.2 c -1.1,0.5 -2.2,1 -3.2,1.8 -2.5,-2.3 -5.5,-3.7 -10,-3.7 0,0 -1.3,0 -1.5,1.1 0,0.3 0,0.6 0.1,0.8 0.3,-0.8 1.4,-0.8 1.4,-0.8 z"
   id="path53" />

		</g>

	</g>
    <ellipse
       opacity="0.4"
       fill="url(#SVGID_4_)"
       cx="279.79443"
       cy="175.60001"
       rx="14.9"
       ry="8.6999998"
       id="ellipse55"
       style="fill:url(#SVGID_4_)" />
  </g>
</svg>
