<?xml version="1.0" encoding="UTF-8" standalone="no"?>
<svg
   width="64"
   height="64"
   version="1"
   id="svg4"
   sodipodi:docname="fs-uae-launcher.svg"
   inkscape:version="1.3.2 (091e20ef0f, 2023-11-25, custom)"
   xmlns:inkscape="http://www.inkscape.org/namespaces/inkscape"
   xmlns:sodipodi="http://sodipodi.sourceforge.net/DTD/sodipodi-0.dtd"
   xmlns="http://www.w3.org/2000/svg"
   xmlns:svg="http://www.w3.org/2000/svg">
  <defs
     id="defs4" />
  <sodipodi:namedview
     id="namedview4"
     pagecolor="#ffffff"
     bordercolor="#000000"
     borderopacity="0.25"
     inkscape:showpageshadow="2"
     inkscape:pageopacity="0.0"
     inkscape:pagecheckerboard="0"
     inkscape:deskcolor="#d1d1d1"
     inkscape:zoom="6.15625"
     inkscape:cx="27.614213"
     inkscape:cy="19.005076"
     inkscape:window-width="1920"
     inkscape:window-height="995"
     inkscape:window-x="0"
     inkscape:window-y="0"
     inkscape:window-maximized="1"
     inkscape:current-layer="svg4" />
  <rect
     x="4.5015068"
     y="-59.498493"
     width="54.996986"
     height="54.996986"
     ry="5.0000358"
     stroke-width="3.46438"
     id="rect1-5"
     style="fill:#762276;fill-opacity:1"
     transform="scale(1,-1)" />
  <g
     transform="translate(.20405 -.21814)"
     id="g4">
    <path
       d="m43.363 18.218-14.33 23.002-3.4473-5.3181h-4.9158l6.6293 10.316 3.5141-0.01819 17.433-27.982z"
       fill="#ff8118"
       stroke-width=".73684"
       id="path1" />
    <path
       d="m37.173 18.218-14.33 23.002-3.4473-5.3181h-4.9158l6.6293 10.316 3.5141-0.01819 17.433-27.982z"
       fill="#abe619"
       stroke-width=".73684"
       id="path2" />
    <path
       d="m48.006 37.081s-2.9318-0.7521-2.9318 1.8635c0 2.6155 2.9318 1.4374 2.9318 4.053 0 2.6155-2.9318 2.0631-2.9318 2.0631"
       fill="none"
       stroke="#ffffff"
       stroke-linecap="round"
       stroke-linejoin="round"
       stroke-width="2.2105"
       id="path3" />
    <path
       d="m41.375 40.692h-2.1791m2.9159-3.6842c-3.4938 0-2.9159 0.83188-2.9159 8.0529"
       fill="none"
       stroke="#ffffff"
       stroke-linecap="round"
       stroke-linejoin="round"
       stroke-width="2.2105"
       id="path4" />
  </g>
</svg>
