<?xml version="1.0" encoding="UTF-8" standalone="no"?>
<svg
   width="64"
   height="64"
   viewBox="0 0 16.933 16.933"
   version="1.1"
   id="svg4"
   sodipodi:docname="gcompris-edit.svg"
   inkscape:version="1.3.2 (091e20ef0f, 2023-11-25, custom)"
   xmlns:inkscape="http://www.inkscape.org/namespaces/inkscape"
   xmlns:sodipodi="http://sodipodi.sourceforge.net/DTD/sodipodi-0.dtd"
   xmlns="http://www.w3.org/2000/svg"
   xmlns:svg="http://www.w3.org/2000/svg">
  <defs
     id="defs4" />
  <sodipodi:namedview
     id="namedview4"
     pagecolor="#ffffff"
     bordercolor="#000000"
     borderopacity="0.25"
     inkscape:showpageshadow="2"
     inkscape:pageopacity="0.0"
     inkscape:pagecheckerboard="0"
     inkscape:deskcolor="#d1d1d1"
     inkscape:zoom="8.7062522"
     inkscape:cx="25.384057"
     inkscape:cy="32.160796"
     inkscape:window-width="1920"
     inkscape:window-height="995"
     inkscape:window-x="0"
     inkscape:window-y="0"
     inkscape:window-maximized="1"
     inkscape:current-layer="svg4" />
  <g
     id="g5"
     transform="translate(-0.79284315,-0.79284315)">
    <circle
       cx="9.2593431"
       cy="9.2593431"
       r="7.9373436"
       fill="#028e7d"
       style="stroke-width:1.11105;paint-order:stroke markers fill"
       id="circle1" />
    <circle
       cx="9.2593431"
       cy="9.2593431"
       r="6.7607412"
       fill="#ffffff"
       opacity="0.15"
       style="stroke-width:1.11105;paint-order:stroke markers fill"
       id="circle2" />
    <g
       stroke-width="1.162"
       id="g4"
       transform="matrix(1.1110503,0,0,1.1110503,-0.14680851,-0.14680851)">
      <path
         fill="#e4e4e4"
         d="M 5.812,2.76 A 4.07,4.07 0 0 1 9.88,6.829 V 25.27 c 0,2.245 -1.823,4.069 -4.068,4.069 -2.245,0 -4.07,-1.824 -4.07,-4.07 V 6.83 a 4.07,4.07 0 0 1 4.07,-4.07 z"
         style="isolation:isolate"
         transform="matrix(0.22773,0,0,0.22773,7.143,6.018)"
         id="path2" />
      <path
         fill="#fa512f"
         d="m 5.812,5.845 c 0.962,0 1.743,0.781 1.743,1.744 v 16.447 a 1.745,1.745 0 0 1 -3.487,0 V 7.589 c 0,-0.963 0.781,-1.744 1.744,-1.744 z"
         style="isolation:isolate"
         transform="matrix(0.22773,0,0,0.22773,7.143,6.018)"
         id="path3" />
      <path
         fill="#ffffff"
         d="m 9.3,-7.838 v 5.6 L 5.811,0.085 2.324,-2.239 V -7.83 a 8.134,8.134 0 0 0 -4.65,7.335 8.138,8.138 0 1 0 16.275,0 A 8.134,8.134 0 0 0 9.3,-7.838 Z"
         style="isolation:isolate"
         transform="matrix(0.22773,0,0,0.22773,7.143,6.018)"
         id="path4" />
    </g>
  </g>
</svg>
