<?xml version="1.0" encoding="UTF-8" standalone="no"?>
<svg
   width="64"
   height="64"
   version="1.1"
   viewBox="0 0 16.933 16.933"
   id="svg11"
   sodipodi:docname="gda-control-center.svg"
   inkscape:version="1.3.2 (091e20ef0f, 2023-11-25, custom)"
   xmlns:inkscape="http://www.inkscape.org/namespaces/inkscape"
   xmlns:sodipodi="http://sodipodi.sourceforge.net/DTD/sodipodi-0.dtd"
   xmlns:xlink="http://www.w3.org/1999/xlink"
   xmlns="http://www.w3.org/2000/svg"
   xmlns:svg="http://www.w3.org/2000/svg">
  <sodipodi:namedview
     id="namedview11"
     pagecolor="#ffffff"
     bordercolor="#000000"
     borderopacity="0.25"
     inkscape:showpageshadow="2"
     inkscape:pageopacity="0.0"
     inkscape:pagecheckerboard="0"
     inkscape:deskcolor="#d1d1d1"
     inkscape:zoom="6.15625"
     inkscape:cx="59.28934"
     inkscape:cy="19.817259"
     inkscape:window-width="1920"
     inkscape:window-height="995"
     inkscape:window-x="0"
     inkscape:window-y="0"
     inkscape:window-maximized="1"
     inkscape:current-layer="svg11" />
  <defs
     id="defs4">
    <linearGradient
       id="linearGradient924"
       x1="162.61"
       x2="162.61"
       y1="15.335"
       y2="27.41"
       gradientTransform="matrix(0.54606,0,0,0.54606,-64.993,0.84862)"
       gradientUnits="userSpaceOnUse"
       xlink:href="#linearGradient922" />
    <linearGradient
       id="linearGradient922">
      <stop
         stop-color="#91aab4"
         offset="0"
         id="stop1" />
      <stop
         stop-color="#648291"
         offset="1"
         id="stop2" />
    </linearGradient>
    <linearGradient
       id="linearGradient951"
       x1="156.58"
       x2="168.85"
       y1="15.3"
       y2="27.534"
       gradientTransform="matrix(0.54606,0,0,0.54606,-64.993,0.87312)"
       gradientUnits="userSpaceOnUse"
       xlink:href="#linearGradient922" />
    <linearGradient
       id="linearGradient965"
       x1="162.73"
       x2="163.37"
       y1="20.333"
       y2="19.09"
       gradientTransform="matrix(0.63004,0,0,0.63004,-77.215,-0.94168)"
       gradientUnits="userSpaceOnUse">
      <stop
         stop-color="#fafafa"
         offset="0"
         id="stop3" />
      <stop
         stop-color="#c8e6f0"
         offset="1"
         id="stop4" />
    </linearGradient>
    <radialGradient
       id="e"
       cx="23.334999"
       cy="41.636002"
       r="22.627001"
       gradientTransform="matrix(0.95165,0,0,0.36555,1.7936,24.507)"
       gradientUnits="userSpaceOnUse">
      <stop
         offset="0"
         id="stop1-6" />
      <stop
         stop-opacity="0"
         offset="1"
         id="stop2-7" />
    </radialGradient>
    <linearGradient
       id="n"
       x1="103.95"
       x2="89.424004"
       y1="-7.6657"
       y2="-7.6657"
       gradientTransform="matrix(0.73652,0,0,0.72048,-52.561,46.853)"
       gradientUnits="userSpaceOnUse"
       spreadMethod="reflect"
       xlink:href="#b" />
    <linearGradient
       id="b">
      <stop
         stop-color="#868688"
         offset="0"
         id="stop3-5" />
      <stop
         stop-color="#d9d9da"
         offset="1"
         id="stop4-3" />
    </linearGradient>
    <linearGradient
       id="m"
       x1="89.017998"
       x2="89.017998"
       y1="22.537001"
       y2="27.546"
       gradientTransform="matrix(1.6087,0,0,1.6667,-127.47,-0.57685)"
       gradientUnits="userSpaceOnUse"
       xlink:href="#a" />
    <linearGradient
       id="a">
      <stop
         stop-color="#a0a0a0"
         offset="0"
         id="stop5" />
      <stop
         stop-color="#4a4a4a"
         offset="1"
         id="stop6" />
    </linearGradient>
    <linearGradient
       id="h"
       x1="103.95"
       x2="89.424004"
       y1="-7.6657"
       y2="-7.6657"
       gradientTransform="matrix(0.73652,0,0,0.72048,-52.561,37.853)"
       gradientUnits="userSpaceOnUse"
       spreadMethod="reflect"
       xlink:href="#b" />
    <linearGradient
       id="g"
       x1="89.017998"
       x2="89.017998"
       y1="22.537001"
       y2="27.546"
       gradientTransform="matrix(1.6087,0,0,1.6667,-127.47,-9.5769)"
       gradientUnits="userSpaceOnUse"
       xlink:href="#a" />
    <linearGradient
       id="j"
       x1="103.95"
       x2="89.424004"
       y1="-7.6657"
       y2="-7.6657"
       gradientTransform="matrix(0.73652,0,0,0.72048,-52.561,28.853)"
       gradientUnits="userSpaceOnUse"
       spreadMethod="reflect"
       xlink:href="#b" />
    <linearGradient
       id="i"
       x1="89.017998"
       x2="89.017998"
       y1="22.537001"
       y2="27.546"
       gradientTransform="matrix(1.6087,0,0,1.6667,-127.47,-18.577)"
       gradientUnits="userSpaceOnUse"
       xlink:href="#a" />
    <linearGradient
       id="l"
       x1="102.31"
       x2="102.31"
       y1="-2.3924999"
       y2="-24.582001"
       gradientTransform="matrix(0.73698,0,0,0.73149,-52.606,21.888)"
       gradientUnits="userSpaceOnUse"
       spreadMethod="reflect">
      <stop
         stop-color="#a5a6a8"
         offset="0"
         id="stop15" />
      <stop
         stop-color="#e8e8e8"
         offset="1"
         id="stop16" />
    </linearGradient>
    <linearGradient
       id="k"
       x1="109.96"
       x2="109.96"
       y1="-24.910999"
       y2="-2.3757999"
       gradientTransform="matrix(0.73698,0,0,0.73149,-52.606,21.888)"
       gradientUnits="userSpaceOnUse">
      <stop
         stop-color="#b3b3b3"
         offset="0"
         id="stop17" />
      <stop
         stop-color="#dadada"
         offset="1"
         id="stop18" />
    </linearGradient>
    <linearGradient
       id="f"
       x1="21.381001"
       x2="21.381001"
       y1="5.0524998"
       y2="44.137001"
       gradientUnits="userSpaceOnUse">
      <stop
         stop-color="#fff"
         offset="0"
         id="stop19" />
      <stop
         stop-color="#fff"
         stop-opacity=".23529"
         offset=".081258"
         id="stop20" />
      <stop
         stop-color="#fff"
         stop-opacity=".15686"
         offset=".87819"
         id="stop21" />
      <stop
         stop-color="#fff"
         stop-opacity=".39216"
         offset="1"
         id="stop22" />
    </linearGradient>
    <linearGradient
       id="r"
       x1="72.916"
       x2="143.39"
       y1="-104.26"
       y2="-30.893"
       gradientTransform="translate(99.797,-35.797)"
       gradientUnits="userSpaceOnUse">
      <stop
         stop-color="#717370"
         offset="0"
         id="stop24" />
      <stop
         stop-color="#717370"
         stop-opacity="0"
         offset="1"
         id="stop25" />
    </linearGradient>
    <linearGradient
       id="u"
       x1="67.567001"
       x2="150.96001"
       y1="-109.97"
       y2="-25.402"
       gradientTransform="translate(99.797,-35.797)"
       gradientUnits="userSpaceOnUse">
      <stop
         stop-color="#dfdfdd"
         offset="0"
         id="stop15-5" />
      <stop
         stop-color="#cbcec9"
         offset=".33425"
         id="stop16-6" />
      <stop
         stop-color="#f4f4f3"
         stop-opacity="0"
         offset="1"
         id="stop17-2" />
    </linearGradient>
    <linearGradient
       id="t"
       x1="-24.214001"
       x2="104.21"
       y1="-123.74"
       y2="-123.72"
       gradientTransform="translate(45.324,-95.846)"
       gradientUnits="userSpaceOnUse">
      <stop
         stop-color="#e6e6e4"
         offset="0"
         id="stop18-9" />
      <stop
         stop-color="#b8bbb4"
         offset=".17169"
         id="stop19-1" />
      <stop
         stop-color="#e8e8e6"
         stop-opacity="0"
         offset="1"
         id="stop20-2" />
    </linearGradient>
    <linearGradient
       id="q"
       x1="-9.6800003"
       x2="104.21"
       y1="-122.47"
       y2="-123.72"
       gradientTransform="translate(45.324,-95.846)"
       gradientUnits="userSpaceOnUse">
      <stop
         stop-color="#cbcec9"
         offset="0"
         id="stop26" />
      <stop
         stop-color="#cbcec9"
         stop-opacity="0"
         offset="1"
         id="stop27" />
    </linearGradient>
    <filter
       id="w"
       x="-0.011980329"
       y="-0.012019595"
       width="1.0239607"
       height="1.0240392"
       color-interpolation-filters="sRGB">
      <feGaussianBlur
         stdDeviation="0.29280524"
         id="feGaussianBlur20" />
    </filter>
    <linearGradient
       id="s"
       x1="22.252001"
       x2="76.966003"
       y1="-121.07"
       y2="-128.72"
       gradientTransform="translate(99.797,-35.797)"
       gradientUnits="userSpaceOnUse">
      <stop
         stop-color="#b7bab4"
         offset="0"
         id="stop21-7" />
      <stop
         stop-color="#e9e9e8"
         offset=".50125"
         id="stop22-0" />
      <stop
         stop-color="#f5f5f5"
         offset="1"
         id="stop23" />
    </linearGradient>
  </defs>
  <g
     transform="matrix(0.33673809,0,0,0.33673809,0.38478584,0.7696727)"
     id="g24">
    <path
       d="M 45.533,39.727 C 45.5348,44.2957 35.8934,47.9997 24,47.9997 12.1066,47.9997 2.465,44.2957 2.467,39.727 2.46518,35.1583 12.1066,31.4543 24,31.4543 c 11.8934,0 21.535,3.704 21.533,8.2727 z"
       fill="url(#e)"
       fill-rule="evenodd"
       opacity="0.3"
       id="path18"
       style="fill:url(#e)" />
    <path
       d="m 42.484,37.113 c 0,4.0777 -8.2827,7.3871 -18.488,7.3871 -10.206,0 -18.488,-3.3094 -18.488,-7.3871 0,-11.816 -2.2598,-7.2333 18.488,-7.3871 21.223,-0.15867 18.488,-5.446 18.488,7.3871 z"
       fill="url(#n)"
       stroke="url(#m)"
       id="path19"
       style="fill:url(#n);stroke:url(#m)" />
    <path
       d="m 42.5,30 c 0,4.1421 -8.2827,7.5 -18.5,7.5 -10.217,0 -18.5,-3.3579 -18.5,-7.5 0,-4.1421 8.2827,-7.5 18.5,-7.5 10.217,0 18.5,3.3579 18.5,7.5 z"
       fill="#868688"
       stroke="#d8d8d8"
       id="path20" />
    <path
       d="m 42.484,28.113 c 0,4.0777 -8.2827,7.3871 -18.488,7.3871 -10.206,0 -18.488,-3.3094 -18.488,-7.3871 0,-13.071 -2.2598,-7.2333 18.488,-7.3871 21.223,-0.15867 18.488,-5.6907 18.488,7.3871 z"
       fill="url(#h)"
       stroke="url(#g)"
       id="path21"
       style="fill:url(#h);stroke:url(#g)" />
    <path
       d="m 42.5,21 c 0,4.1421 -8.2827,7.5 -18.5,7.5 -10.217,0 -18.5,-3.3579 -18.5,-7.5 0,-4.1421 8.2827,-7.5 18.5,-7.5 10.217,0 18.5,3.3579 18.5,7.5 z"
       fill="#868688"
       stroke="#d8d8d8"
       id="path22" />
    <path
       d="m 42.484,19.113 c 0,4.0777 -8.2827,7.3871 -18.488,7.3871 -10.206,0 -18.488,-3.3094 -18.488,-7.3871 0,-13.951 -2.2598,-7.2333 18.488,-7.3871 21.223,-0.15867 18.488,-5.541 18.488,7.3871 z"
       fill="url(#j)"
       stroke="url(#i)"
       id="path23"
       style="fill:url(#j);stroke:url(#i)" />
    <path
       d="m 42.5,12 c 0,4.1421 -8.2827,7.5 -18.5,7.5 C 13.783,19.5 5.5,16.1421 5.5,12 5.5,7.8579 13.7827,4.5 24,4.5 34.217,4.5 42.5,7.8579 42.5,12 Z"
       fill="url(#l)"
       stroke="url(#k)"
       id="path24"
       style="fill:url(#l);stroke:url(#k)" />
    <rect
       x="6.5"
       y="5.5"
       width="35"
       height="38"
       rx="17.5"
       ry="7"
       color="#000000"
       fill="none"
       opacity="0.5"
       stroke="url(#f)"
       id="rect24"
       style="stroke:url(#f)" />
  </g>
  <g
     transform="matrix(0.06939884,0,0,0.06939884,-0.16288419,21.673728)"
     id="g42">
    <path
       d="m 175.74,-157.7 c 2.8135,4.8419 4.746,10.295 9.8649,15.542 l 143.02,142.81 -17.443,17.468 -143.02,-142.81 c -4.983,-4.8855 -10.575,-7.6689 -16.369,-9.5707 7.9824,-7.813 15.965,-15.626 23.947,-23.439 z"
       fill="url(#r)"
       style="fill:url(#r);paint-order:normal"
       id="path39" />
    <path
       d="m 177.74,-157.7 c 2.8135,4.8419 4.746,10.295 9.8649,15.542 l 143.02,142.81 -17.443,17.468 -143.02,-142.81 c -4.983,-4.8855 -10.575,-7.6689 -16.369,-9.5707 7.9824,-7.813 15.965,-15.626 23.947,-23.439 z"
       fill="url(#u)"
       style="fill:url(#u);paint-order:normal"
       id="path40" />
    <rect
       transform="rotate(44.959)"
       x="13.981"
       y="-226.57001"
       width="228.19"
       height="12.272"
       ry="0.86457002"
       fill="url(#t)"
       stroke="url(#q)"
       stroke-linecap="round"
       stroke-linejoin="round"
       style="fill:url(#t);stroke:url(#q);paint-order:normal"
       id="rect40" />
    <path
       d="m 153.01,-192.37 13.587,23.572 c 1.3395,2.3239 0.96714,5.1476 -0.72442,7.0386 a 23.78,29.339 60.041 0 1 -10.162,8.8329 23.78,29.339 60.041 0 1 -12.622,4.3422 c -0.003,7.3e-4 -0.006,0.002 -0.01,0.003 -0.23353,0.0528 -0.46952,0.0865 -0.70479,0.11092 a 23.78,29.339 60.041 0 1 -0.0165,0.003 l -0.001,-0.002 c -2.2921,0.23155 -4.6064,-0.86177 -5.8353,-2.9938 l -13.586,-23.57 a 29.339,29.339 0 0 0 1.4098,26.44 29.339,29.339 0 0 0 40.07,10.769 29.339,29.339 0 0 0 10.768,-40.071 29.339,29.339 0 0 0 -22.173,-14.474 z"
       fill="#878785"
       filter="url(#w)"
       style="paint-order:normal"
       id="path41" />
    <path
       d="m 152.94,-194.33 13.587,23.572 c 1.3395,2.3239 0.96714,5.1476 -0.72442,7.0386 a 23.78,29.339 60.041 0 1 -10.162,8.8329 23.78,29.339 60.041 0 1 -12.622,4.3422 c -0.003,7.3e-4 -0.006,0.002 -0.009,0.003 -0.23354,0.0528 -0.46953,0.0865 -0.7048,0.11092 a 23.78,29.339 60.041 0 1 -0.0165,0.003 l -10e-4,-0.002 c -2.2921,0.23155 -4.6064,-0.86177 -5.8353,-2.9938 l -13.586,-23.57 a 29.339,29.339 0 0 0 1.4098,26.44 29.339,29.339 0 0 0 40.07,10.769 29.339,29.339 0 0 0 10.768,-40.071 29.339,29.339 0 0 0 -22.173,-14.474 z"
       fill="url(#s)"
       stroke="#e6e6e4"
       stroke-linecap="round"
       stroke-linejoin="round"
       style="fill:url(#s);paint-order:normal"
       id="path42" />
  </g>
</svg>
