<?xml version="1.0" encoding="UTF-8"?>
<svg width="64" height="64" version="1.1" viewBox="0 0 16.933 16.933" xmlns="http://www.w3.org/2000/svg" xmlns:xlink="http://www.w3.org/1999/xlink">
 <defs>
  <linearGradient id="linearGradient1053" x1="68" x2="128" y1="62" y2="2" gradientTransform="matrix(.24253 0 0 .24253 -15.301 .70554)" gradientUnits="userSpaceOnUse">
   <stop stop-color="#f6d32e" offset="0"/>
   <stop stop-color="#f7da4d" offset="1"/>
  </linearGradient>
 </defs>
 <rect x="1.1906" y="1.1906" width="14.552" height="14.552" ry=".72759" fill="url(#linearGradient1053)"/>
 <path d="m8.1288 4.8596c-0.28193 0.00352-0.55329 0.12687-0.63434 0.33597-0.023494 0.065784-0.025844 0.085754-0.0094 0.18208 0.035241 0.1997 0.16211 0.44991 0.3113 0.61085 0.1022 0.11042 0.17033 0.15624 0.26783 0.18208 0.081055 0.021145 0.13627 0.014097 0.22554-0.027018 0.1997-0.093977 0.43699-0.44287 0.49808-0.73889 0.038765-0.18091-0.015271-0.30542-0.17856-0.4135a0.85519 0.85519 0 0 0-0.48046-0.13157zm-0.86928 0.62495c-0.01997-0.011747-0.34654 0.035241-0.58031 0.084579-0.54507 0.11512-0.93154 0.27606-1.1489 0.47811-0.11747 0.10925-0.15506 0.17856-0.15506 0.28193s0.037591 0.17268 0.15506 0.28193c0.34889 0.32539 1.197 0.55916 2.1932 0.60498 0.4922 0.023494 1.076-0.014096 1.5436-0.098676 0.89865-0.16093 1.5107-0.511 1.4519-0.83169-0.056387-0.30542-0.67076-0.61437-1.4919-0.75181l-0.21145-0.036416-0.038765 0.10807c-0.17151 0.46753-0.48868 0.78823-0.80115 0.81055-0.24669 0.017621-0.48868-0.14097-0.6966-0.45344a1.8678 1.8678 0 0 1-0.1997-0.42642c-0.0047-0.023494-0.014096-0.046988-0.021145-0.051687zm3.7015 0.8082-0.0094 0.086928c-0.044637 0.4135-0.62964 0.77178-1.553 0.95152-1.6798 0.32657-3.6874-0.0093977-4.1655-0.69778l-0.046988-0.068133-0.011747 0.075181c-0.01997 0.15389-0.011747 0.96326 0.011747 1.2417 0.012922 0.15036 0.021145 0.27606 0.017621 0.27958-0.011748 0.011747-0.30073-0.11395-0.38061-0.16681-0.27018-0.17973-0.3947-0.44991-0.44169-0.95739l-0.017621-0.18325-0.26313-0.0046988-0.26431-0.0035241 0.011747 0.093977c0.090453 0.82582 0.3853 1.6152 0.827 2.2155 0.68368 0.92802 1.7738 1.5271 3.0261 1.6657 0.21615 0.02349 0.66019 0.02702 0.84344 7e-3 0.68838-0.07636 1.2405-0.32892 1.6505-0.75534 0.49808-0.51687 0.77531-1.1959 0.88338-2.1626 0.01175-0.11395 0.01879-0.36416 0.01762-0.71657-0.0023-0.58853-0.0094-0.64257-0.0928-0.81525zm1.284 0.48163a0.88103 0.88103 0 0 0-0.8129 0.36651c-0.07518 0.10572-0.15976 0.27841-0.15976 0.32892 0 0.08223 0.0881 0.16681 0.17386 0.16681 0.07988 0 0.11512-0.032892 0.18678-0.17151a0.70835 0.70835 0 0 1 0.2925-0.32187c0.34771-0.17621 0.75651 0.051687 0.8223 0.45814 0.01645 0.091627 0.0094 0.18325-0.05991 0.83992-0.08928 0.84814-0.07753 0.80585-0.25844 0.91392-0.23377 0.14096-0.5991 0.2138-1.1947 0.23612-0.27136 0.01175-0.27371 0.01175-0.31482 0.05286-0.06226 0.06226-0.05874 0.13744 0.0094 0.20557l0.05169 0.05169h0.23377c0.64257 0 1.1536-0.10925 1.4508-0.30777a0.63904 0.63904 0 0 0 0.26196-0.31717c0.01997-0.074007 0.16916-1.4684 0.16916-1.5788 0-0.11747-0.04111-0.27606-0.10455-0.40293a0.93154 0.93154 0 0 0-0.74712-0.5204zm-6.0568 0.57326c0.0047 0 0.11042 0.20675 0.23729 0.45814l0.23024 0.46049-0.22554 0.45461c-0.12452 0.24904-0.23024 0.45579-0.23494 0.45814a6.1484 6.1484 0 0 1-0.24199-0.45226l-0.23259-0.45931 0.22907-0.46049c0.12687-0.25256 0.23494-0.45931 0.23847-0.45931zm4.0246 0.00822 0.23494 0.46753 0.23259 0.46636-0.22789 0.45696a9.9486 9.9486 0 0 1-0.23494 0.45579c-0.0047 0-0.11277-0.20675-0.23847-0.46049l-0.23024-0.45931 0.23259-0.46401zm-2.0099 0.49338c0.014097 0 0.69073 1.0995 0.6872 1.1148-0.00235 0.00822-0.15624 0.25609-0.34067 0.55211a10.561 10.561 0 0 1-0.34654 0.53802c-0.011747 0-0.67781-1.0572-0.6872-1.0901-0.0047-0.017621 0.67193-1.116 0.6872-1.1148zm2.0405 2.5104-0.08223 0.06931c-0.44874 0.37356-1.0243 0.58853-1.7233 0.64374a4.7987 4.7987 0 0 1-1.6-0.18208 4.3194 4.3194 0 0 1-0.82817-0.32187l-0.17856-0.09045-0.10102 0.04699c-0.22672 0.1022-0.43699 0.27253-0.50043 0.40645a0.38765 0.38765 0 0 0-0.0094 0.2972c0.12217 0.27606 0.6226 0.53449 1.3251 0.68486 0.35946 0.07636 0.59558 0.10807 1.1324 0.15154 0.034067 0.0023 0.25256 7e-3 0.48633 0.0082 0.45814 0.0023 0.70835-0.01175 1.1031-0.05873 1.6575-0.20557 2.4176-0.83874 1.6328-1.3603a2.1615 2.1615 0 0 0-0.50748-0.24199l-0.14919-0.05169z" fill="#d11616" stroke-width="1.1747"/>
</svg>
