<?xml version="1.0" encoding="UTF-8" standalone="no"?>
<svg
   xmlns:dc="http://purl.org/dc/elements/1.1/"
   xmlns:cc="http://creativecommons.org/ns#"
   xmlns:rdf="http://www.w3.org/1999/02/22-rdf-syntax-ns#"
   xmlns:svg="http://www.w3.org/2000/svg"
   xmlns="http://www.w3.org/2000/svg"
   xmlns:sodipodi="http://sodipodi.sourceforge.net/DTD/sodipodi-0.dtd"
   xmlns:inkscape="http://www.inkscape.org/namespaces/inkscape"
   width="64"
   height="64"
   version="1.1"
   viewBox="0 0 16.933 16.933"
   id="svg6"
   sodipodi:docname="github.svg"
   inkscape:version="1.0.1 (3bc2e813f5, 2020-09-07)">
  <metadata
     id="metadata12">
    <rdf:RDF>
      <cc:Work
         rdf:about="">
        <dc:format>image/svg+xml</dc:format>
        <dc:type
           rdf:resource="http://purl.org/dc/dcmitype/StillImage" />
        <dc:title></dc:title>
      </cc:Work>
    </rdf:RDF>
  </metadata>
  <defs
     id="defs10">
    <linearGradient
       id="a-3"
       x1="32"
       x2="32"
       y1="2"
       y2="62"
       gradientTransform="matrix(0.26458,0,0,0.26458,0.066869,0.21518)"
       gradientUnits="userSpaceOnUse">
      <stop
         stop-color="#f5faff"
         offset="0"
         id="stop837" />
      <stop
         stop-color="#cfdef0"
         offset="1"
         id="stop839" />
    </linearGradient>
    <linearGradient
       id="linearGradient1075"
       x1="8.856"
       x2="8.856"
       y1="13.489"
       y2="3.5157"
       gradientUnits="userSpaceOnUse">
      <stop
         stop-color="#273238"
         offset="0"
         id="stop842" />
      <stop
         stop-color="#36474f"
         offset="1"
         id="stop844" />
    </linearGradient>
  </defs>
  <sodipodi:namedview
     pagecolor="#ffffff"
     bordercolor="#666666"
     borderopacity="1"
     objecttolerance="10"
     gridtolerance="10"
     guidetolerance="10"
     inkscape:pageopacity="0"
     inkscape:pageshadow="2"
     inkscape:window-width="1920"
     inkscape:window-height="946"
     id="namedview8"
     showgrid="false"
     inkscape:zoom="4.3034077"
     inkscape:cx="44.710207"
     inkscape:cy="34.134879"
     inkscape:window-x="0"
     inkscape:window-y="38"
     inkscape:window-maximized="1"
     inkscape:current-layer="svg6" />
  <g
     id="g882">
    <g
       transform="translate(-21.833,0.89722)"
       fill="#5e4aa6"
       stroke-width="0.26458"
       id="g859">
      <circle
         cx="-330.35001"
         cy="-328.38"
         r="0"
         id="circle851" />
      <circle
         cx="-312.10999"
         cy="-326.25"
         r="0"
         id="circle853" />
      <circle
         cx="-306.01999"
         cy="-333.07001"
         r="0"
         id="circle855" />
      <circle
         cx="-308.84"
         cy="-326.01001"
         r="0"
         id="circle857" />
    </g>
    <circle
       cx="8.4665003"
       cy="8.4665003"
       r="7.9373002"
       fill="url(#a-3)"
       stroke-width="0.26458"
       style="fill:url(#a-3);paint-order:stroke markers fill"
       id="circle861" />
    <path
       d="m 8.4652,3.4896 c -2.8296,0 -5.1237,2.294 -5.1237,5.1237 0.00103,2.1738 1.3766,4.1091 3.4294,4.8299 0.18309,-0.0073 0.32894,-0.15406 0.32894,-0.33884 V 12.37168 H 6.75827 c -0.50554,0 -1.1081,-0.13424 -1.295,-0.68315 -0.249,-0.732 -0.95982,-0.91098 -0.75454,-1.0247 0.043042,-0.02391 0.087443,-0.0386 0.13287,-0.04543 0.03962,-0.0062 0.080267,-0.0058 0.12091,-6.82e-4 0.28419,0.03554 0.58307,0.32108 0.77128,0.55848 0.3361,0.42424 0.52261,0.51236 0.88605,0.51236 0.34499,0 0.48026,-0.08541 0.48026,-0.08541 0,-0.32621 0.14893,-0.57658 0.37949,-0.7378 -1.3092,-0.20494 -2.2581,-0.87102 -2.2581,-2.2509 0,-0.66163 0.18309,-1.1941 0.49495,-1.6092 -0.14005,-0.48161 -0.12467,-0.97042 0.01742,-1.4649 0.47923,0 1.0169,0.26062 1.3591,0.54038 0.41774,-0.13219 0.88195,-0.1988 1.3732,-0.1988 0.49016,0 0.95538,0.066269 1.3766,0.19743 0.34157,-0.27906 0.87852,-0.539 1.3571,-0.539 0.1397,0.48606 0.15508,0.96665 0.02254,1.4404 0.32894,0.41842 0.52364,0.9588 0.52364,1.6338 0,1.3799 -0.97212,2.0471 -2.2917,2.2517 0.23023,0.16122 0.37882,0.41125 0.37882,0.73712 v 1.5013 c 0,0.18479 0.14585,0.33167 0.32894,0.33884 2.0529,-0.71936 3.426,-2.6547 3.4294,-4.8299 0.0014,-2.8296 -2.294,-5.1237 -5.1237,-5.1237 z"
       fill="url(#linearGradient1075)"
       stroke-width="1.0997"
       id="path863"
       style="fill:url(#linearGradient1075)" />
  </g>
</svg>
