<?xml version="1.0" encoding="UTF-8" standalone="no"?>
<svg
   width="64"
   height="64"
   version="1.1"
   id="svg2"
   sodipodi:docname="gitkraken.svg"
   xml:space="preserve"
   inkscape:version="1.3.2 (091e20ef0f, 2023-11-25, custom)"
   xmlns:inkscape="http://www.inkscape.org/namespaces/inkscape"
   xmlns:sodipodi="http://sodipodi.sourceforge.net/DTD/sodipodi-0.dtd"
   xmlns="http://www.w3.org/2000/svg"
   xmlns:svg="http://www.w3.org/2000/svg"><defs
     id="defs2" /><sodipodi:namedview
     id="namedview2"
     pagecolor="#ffffff"
     bordercolor="#000000"
     borderopacity="0.25"
     inkscape:showpageshadow="2"
     inkscape:pageopacity="0.0"
     inkscape:pagecheckerboard="0"
     inkscape:deskcolor="#d1d1d1"
     inkscape:zoom="1.5390625"
     inkscape:cx="113.70558"
     inkscape:cy="0.64974619"
     inkscape:window-width="1920"
     inkscape:window-height="995"
     inkscape:window-x="0"
     inkscape:window-y="0"
     inkscape:window-maximized="1"
     inkscape:current-layer="svg2" /><circle
     cx="32"
     cy="32"
     r="30"
     id="circle1"
     style="stroke-width:1.30435;fill:#fffdc2;fill-opacity:1" /><path
     d="m 22.58442,17.224595 a 0.74996875,0.74996875 0 0 0 -0.334487,0.104991 19.499187,19.499187 0 0 0 4.285322,35.602517 0.74996875,0.74996875 0 0 0 0.96146,-0.71697 v -6.904212 a 11.9995,11.9995 0 0 0 1.499938,0.509978 v 9.080622 c -3.442357,-0.500975 -6.73922,-1.756423 -9.538103,-3.839836 a 20.993126,20.993126 0 0 1 -7.192201,-24.025999 0.74996875,0.74996875 0 0 0 -0.749969,-1.016958 0.74996875,0.74996875 0 0 0 -0.659972,0.50398 22.499063,22.499063 0 0 0 18.815216,30.072247 0.74996875,0.74996875 0 0 0 0.826466,-0.74547 v -9.739094 a 11.9995,11.9995 0 0 0 1.501437,0.104996 11.9995,11.9995 0 0 0 1.502937,-0.107992 v 9.743595 a 0.74996875,0.74996875 0 0 0 0.829466,0.745465 22.494563,22.494563 0 0 0 18.809216,-30.073747 0.74996875,0.74996875 0 0 0 -0.757468,-0.502479 0.74996875,0.74996875 0 0 0 -0.652473,1.016957 20.993126,20.993126 0 0 1 -7.1922,24.023 c -2.798883,2.083413 -6.091247,3.34186 -9.536603,3.842839 v -9.092622 a 11.9995,11.9995 0 0 0 1.502938,-0.491979 v 6.896714 a 0.74996875,0.74996875 0 0 0 0.959959,0.718469 19.500688,19.500688 0 0 0 13.368943,-13.670431 19.505188,19.505188 0 0 0 -9.083621,-21.933586 0.74996875,0.74996875 0 0 0 -0.430482,-0.10499 0.74996875,0.74996875 0 0 0 -0.319487,1.403942 17.99325,17.99325 0 0 1 8.386151,20.246151 c -1.534436,5.729761 -5.836258,10.219074 -11.380026,12.198992 v -6.436232 a 3.7498438,3.7498438 0 0 0 2.992375,-3.671847 3.7498438,3.7498438 0 0 0 -2.320403,-3.461856 c 1.255448,-5.954751 3.820341,-3.892337 3.820341,-6.158744 v -0.823465 c 0,-2.129912 -6.440732,-12.804967 -10.499563,-12.804967 -4.058831,0 -10.499563,10.676556 -10.499563,12.804967 v 0.824966 c 0,2.264906 2.563394,0.200991 3.820341,6.154244 a 3.7498438,3.7498438 0 0 0 -2.320403,3.464855 3.7498438,3.7498438 0 0 0 2.996875,3.667347 v 6.442231 C 20.450008,49.095267 16.148187,44.605954 14.612251,38.874693 A 17.99325,17.99325 0 0 1 22.999902,18.628537 0.74996875,0.74996875 0 0 0 22.58292,17.224595 Z m 4.165326,21.491104 a 2.2499063,2.2499063 0 0 1 2.249906,2.249907 2.2499063,2.2499063 0 0 1 -2.249906,2.249906 2.2499063,2.2499063 0 0 1 -2.249906,-2.249906 2.2499063,2.2499063 0 0 1 2.249906,-2.249907 z m 10.499562,0 a 2.2499063,2.2499063 0 0 1 2.249907,2.249907 2.2499063,2.2499063 0 0 1 -2.249907,2.249906 2.2499063,2.2499063 0 0 1 -2.249905,-2.249906 2.2499063,2.2499063 0 0 1 2.249905,-2.249907 z"
     id="path2"
     style="fill:#0c1015;fill-opacity:1;stroke-width:1.49994" /></svg>
