<?xml version="1.0" encoding="UTF-8"?>
<svg width="64" height="64" version="1.1" viewBox="0 0 64 64" xmlns="http://www.w3.org/2000/svg" xmlns:xlink="http://www.w3.org/1999/xlink">
 <defs>
  <linearGradient id="linearGradient32013" x1="57.964" x2="77.683" y1="9.4726" y2="29.213" gradientTransform="matrix(2.8168 0 0 2.8168 -158.98 -22.597)" gradientUnits="userSpaceOnUse">
   <stop stop-color="#45a753" offset="0"/>
   <stop stop-color="#45804b" offset="1"/>
  </linearGradient>
 </defs>
 <path d="m11.042 3.9202a7.0419 7.0419 0 0 0-7.0419 7.0419 7.0419 7.0419 0 0 0 3.7905 6.2277v29.615a7.0419 7.0419 0 0 0-3.7905 6.2332 7.0419 7.0419 0 0 0 7.0419 7.0419 7.0419 7.0419 0 0 0 6.1507-3.653h29.615a7.0419 7.0419 0 0 0 6.1507 3.653 7.0419 7.0419 0 0 0 7.042-7.0419 7.0419 7.0419 0 0 0-3.4935-6.0792v-29.928a7.0419 7.0419 0 0 0 3.4935-6.0682 7.0419 7.0419 0 0 0-7.042-7.0419 7.0419 7.0419 0 0 0-6.2167 3.7685h-29.466a7.0419 7.0419 0 0 0-6.2332-3.7685zm6.0792 10.667h29.813a7.0419 7.0419 0 0 0 0.7262 1.0068l-3.5375 3.5375a5.2012 5.2012 0 0 0-2.9983-0.95727 5.2012 5.2012 0 0 0-4.7918 3.2019c-0.03857-0.0031-0.07613-0.0055-0.11553-0.0055h-8.1588a5.2012 5.2012 0 0 0-4.8028-3.1964 5.2012 5.2012 0 0 0-2.1016 0.44562zm-2.4317 2.5252 3.9281 3.9336a5.2012 5.2012 0 0 0-0.56116 2.3271 5.2012 5.2012 0 0 0 3.499 4.9019v7.7681a5.2012 5.2012 0 0 0-3.499 4.9019 5.2012 5.2012 0 0 0 1.1113 3.1964l-3.543 3.5485a7.0419 7.0419 0 0 0-0.93526-0.67669zm34.918 1.4909v28.256a7.0419 7.0419 0 0 0-0.17605 0.09903l-3.675-3.675a5.2012 5.2012 0 0 0 0.56666-2.3381 5.2012 5.2012 0 0 0-3.5485-4.9294v-7.7241a5.2012 5.2012 0 0 0 3.5485-4.9184 5.2012 5.2012 0 0 0-0.17055-1.3149zm-21.373 6.2717h7.9112a5.2012 5.2012 0 0 0 3.1304 3.3449v7.8782a5.2012 5.2012 0 0 0-2.9213 2.7948c-0.0457-0.0044-0.09064-0.011-0.13754-0.011h-8.1863a5.2012 5.2012 0 0 0-2.9763-2.8168v-7.8232a5.2012 5.2012 0 0 0 3.1799-3.3669zm0.0165 17.511h7.8782a5.2012 5.2012 0 0 0 4.9954 3.763 5.2012 5.2012 0 0 0 2.0906-0.45112l3.7135 3.7135a7.0419 7.0419 0 0 0-0.0605 0.11553h-28.124l2.9378-2.9378c0.17241-0.17241 0.28744-0.38205 0.3521-0.59967a5.2012 5.2012 0 0 0 1.2213 0.15954 5.2012 5.2012 0 0 0 4.9954-3.763z" fill="url(#linearGradient32013)" fill-rule="evenodd" stroke-linecap="square" stroke-linejoin="round" stroke-miterlimit="10" stroke-width="2.7719" style="paint-order:stroke markers fill"/>
</svg>
