<?xml version="1.0" encoding="UTF-8" standalone="no"?>
<svg
   width="64"
   height="64"
   viewBox="0 0 16.933 16.933"
   version="1.1"
   id="svg6"
   sodipodi:docname="gnome-aisleriot.svg"
   inkscape:version="1.3.2 (091e20ef0f, 2023-11-25, custom)"
   xmlns:inkscape="http://www.inkscape.org/namespaces/inkscape"
   xmlns:sodipodi="http://sodipodi.sourceforge.net/DTD/sodipodi-0.dtd"
   xmlns="http://www.w3.org/2000/svg"
   xmlns:svg="http://www.w3.org/2000/svg">
  <defs
     id="defs6" />
  <sodipodi:namedview
     id="namedview6"
     pagecolor="#ffffff"
     bordercolor="#000000"
     borderopacity="0.25"
     inkscape:showpageshadow="2"
     inkscape:pageopacity="0.0"
     inkscape:pagecheckerboard="0"
     inkscape:deskcolor="#d1d1d1"
     inkscape:zoom="6.15625"
     inkscape:cx="21.279188"
     inkscape:cy="27.126904"
     inkscape:window-width="1920"
     inkscape:window-height="995"
     inkscape:window-x="0"
     inkscape:window-y="0"
     inkscape:window-maximized="1"
     inkscape:current-layer="svg6" />
  <g
     id="g6"
     transform="matrix(1.0857027,0,0,1.0857027,-0.65421696,-0.79807256)">
    <path
       fill="#ebebeb"
       d="m 14.658,2.138 v 9.906 a 0.55,0.55 0 0 1 -0.55,0.55 H 6.265 a 0.55,0.55 0 0 1 -0.55,-0.55 V 2.138 a 0.55,0.55 0 0 1 0.55,-0.55 h 7.843 a 0.55,0.55 0 0 1 0.55,0.55 z"
       id="path1" />
    <g
       fill="#3f3f3f"
       stroke-width="0.769"
       id="g3">
      <path
         d="M 10.186,4.349 A 1.338,1.338 0 0 0 8.85,5.686 1.338,1.338 0 0 0 9.033,6.358 1.338,1.338 0 0 0 7.78,7.693 1.338,1.338 0 0 0 9.116,9.03 1.338,1.338 0 0 0 10.186,8.493 1.338,1.338 0 0 0 11.256,9.03 1.338,1.338 0 0 0 12.594,7.693 1.338,1.338 0 0 0 11.341,6.359 1.338,1.338 0 0 0 11.524,5.686 1.338,1.338 0 0 0 10.186,4.349 Z"
         id="path2" />
      <path
         fill-rule="evenodd"
         d="M 10.53,8.467 H 9.842 c 0,0 0,1.032 -1.031,1.032 v 0.344 h 2.751 V 9.499 C 10.53,9.499 10.53,8.467 10.53,8.467 Z"
         id="path3" />
    </g>
    <path
       fill="#ffffff"
       stroke="#000000"
       stroke-opacity="0.098"
       stroke-width="0.265"
       d="m 11.218,4.89 v 9.906 a 0.55,0.55 0 0 1 -0.55,0.55 H 2.826 a 0.55,0.55 0 0 1 -0.55,-0.55 V 4.89 a 0.55,0.55 0 0 1 0.55,-0.55 h 7.842 a 0.55,0.55 0 0 1 0.55,0.55 z"
       paint-order="stroke fill markers"
       id="path4" />
    <path
       fill="#ffffff"
       d="m 11.218,4.89 v 9.906 a 0.55,0.55 0 0 1 -0.55,0.55 H 2.826 a 0.55,0.55 0 0 1 -0.55,-0.55 V 4.89 a 0.55,0.55 0 0 1 0.55,-0.55 h 7.842 a 0.55,0.55 0 0 1 0.55,0.55 z"
       paint-order="stroke fill markers"
       id="path5" />
    <path
       fill="#f34235"
       d="m 7.8,7.779 c -0.428,0 -0.805,0.202 -1.053,0.512 A 1.346,1.346 0 0 0 5.694,7.779 c -0.749,0 -1.355,0.606 -1.355,1.354 0,0.015 0.004,0.03 0.005,0.044 H 4.339 c 0,1.389 2.408,3.417 2.408,3.417 0,0 2.408,-2.028 2.408,-3.417 H 9.15 C 9.15,9.162 9.155,9.148 9.155,9.133 9.155,8.385 8.548,7.779 7.8,7.779 Z"
       id="path6" />
  </g>
</svg>
