<?xml version="1.0" encoding="UTF-8"?>
<svg width="64" height="64" version="1.1" viewBox="0 0 64 64" xmlns="http://www.w3.org/2000/svg" xmlns:xlink="http://www.w3.org/1999/xlink">
 <defs>
  <linearGradient id="linearGradient967" x1="400.4" x2="400.4" y1="545.62" y2="517.62" gradientTransform="matrix(1.5862 0 0 1.5862 -655.16 -673.64)" gradientUnits="userSpaceOnUse">
   <stop stop-color="#d3d3d3" offset="0"/>
   <stop stop-color="#fcf9f9" offset="1"/>
  </linearGradient>
  <linearGradient id="linearGradient969" x1="400.4" x2="400.4" y1="545.62" y2="517.62" gradientTransform="matrix(1.6382 0 0 1.6382 -729.8 -679.16)" gradientUnits="userSpaceOnUse">
   <stop stop-color="#8d3aff" offset="0"/>
   <stop stop-color="#ff3680" offset="1"/>
  </linearGradient>
  <linearGradient id="linearGradient4338" x1="-8.4328" x2="1.7737" y1="59.166" y2="68.565" gradientTransform="matrix(.57238 .000555 -.00055212 .57541 -22.308 -201.96)" gradientUnits="userSpaceOnUse">
   <stop stop-color="#30c8f1" offset="0"/>
   <stop stop-color="#1283e2" offset="1"/>
  </linearGradient>
  <linearGradient id="linearGradient1273" x1="127.04" x2="63.658" y1="440.86" y2="377.94" gradientTransform="matrix(.47698 .00046249 -.0004601 .4795 -13.257 -162.97)" gradientUnits="userSpaceOnUse">
   <stop stop-color="#232223" offset="0"/>
   <stop stop-color="#49484d" offset="1"/>
  </linearGradient>
 </defs>
 <g fill="#5e4aa6">
  <ellipse cx="-1331.1" cy="-1237.8" rx="2.765" ry="0"/>
  <ellipse cx="-1262.2" cy="-1229.7" rx="2.765" ry="0"/>
  <ellipse cx="-1239.2" cy="-1255.5" rx="2.765" ry="0"/>
  <ellipse cx="-1249.8" cy="-1228.8" rx="2.765" ry="0"/>
 </g>
 <ellipse cx="-19.786" cy="169.91" rx="2.765" ry="0" fill="url(#linearGradient967)" image-rendering="optimizeSpeed"/>
 <ellipse cx="-73.575" cy="192.07" rx="2.765" ry="0" fill="none" image-rendering="optimizeSpeed" stroke="url(#linearGradient969)" stroke-width="2.1297"/>
 <path d="m62 31.999c0 3.5964-0.63305 7.0444-1.794 10.24-0.80694 2.2212-1.8686 4.3212-3.1519 6.2636-0.53754 0.8167-1.1155 1.6054-1.729 2.3633-1.9641 2.4257-4.2982 4.5382-6.9182 6.2526-0.96493 0.63184-1.9678 1.2098-3.0061 1.7277-4.0321 2.0179-8.5839 3.1529-13.401 3.1529s-9.3689-1.1351-13.401-3.153c-1.0384-0.518-2.0425-1.0959-3.0074-1.7277-2.6535-1.7376-5.0155-3.8832-6.9953-6.349-0.61464-0.76408-1.1914-1.56-1.729-2.3841-1.249-1.9102-2.2836-3.9712-3.0746-6.1494-1.1607-3.1948-1.7927-6.6415-1.7927-10.237 0-16.569 13.432-30 30-30 8.317 0 15.843 3.3845 21.277 8.8503 1.5661 1.5746 2.9584 3.3233 4.1436 5.214 1.1205 1.7805 2.0571 3.6881 2.7857 5.6951 1.161 3.196 1.794 6.6442 1.794 10.24z" fill="url(#linearGradient4338)" stroke-width=".11719"/>
 <path d="m57 32c0 2.997-0.52754 5.8703-1.495 8.5337-0.67245 1.851-1.5571 3.601-2.6266 5.2196-0.44794 0.68058-0.92959 1.3378-1.4408 1.9694-1.6367 2.0214-3.5818 3.7818-5.7651 5.2105-0.8041 0.52653-1.6398 1.0082-2.5051 1.4398-3.36 1.6815-7.1532 2.6274-11.167 2.6274-4.0142 0-7.8073-0.9459-11.167-2.6275-0.86533-0.43166-1.7021-0.91327-2.5061-1.4398-2.2112-1.448-4.1796-3.2359-5.8294-5.2908-0.5122-0.63673-0.99286-1.3-1.4408-1.9867-1.0408-1.5918-1.903-3.3093-2.5622-5.1245-0.96726-2.6623-1.4939-5.5346-1.4939-8.5305 0-13.807 11.193-25 25-25 6.9308 0 13.202 2.8204 17.731 7.3752 1.3051 1.3122 2.4653 2.7694 3.453 4.3449 0.93371 1.4837 1.7143 3.0734 2.3214 4.7459 0.96751 2.6633 1.495 5.5368 1.495 8.5337z" fill="url(#linearGradient1273)" stroke-width=".097658"/>
 <g transform="matrix(1.1964 0 0 1.1964 3.1448 3.161)">
  <!-- color: #419ccc -->
  <path d="m24 3.875c-2.512 0-4.906 0.473-7.125 1.313 6.102 0.105 9.543 0.742 12.668 2.449 0.258 0.141 0.523 0.289 0.777 0.449 0.773 0.477 1.539 1.02 2.332 1.641 3.41 2.68 3.707 5.941 6.605 8.434 1.762 1.516 1.523 1.387 2.34 1.387 0.895 0 1.348-0.805 1.563-1.68-2.598-8.113-10.195-13.992-19.16-13.992m-8.07 3.695c-0.426 0-0.848 0.047-1.266 0.133-0.141 0.031-0.277 0.059-0.418 0.098-3.855 1.035-7.156 5.289-8.234 7.242-0.066 0.121-0.145 0.27-0.219 0.402-0.574 1.215-1.035 2.492-1.355 3.828 0.309-0.395 0.609-0.766 0.906-1.117 2.09-2.449 4-3.773 6.75-3.773 4.898 0 5.523 2.184 14.504 8.04 4.418 2.883 11.125 6.852 16.656 7.441 0.227-0.738 0.406-1.512 0.543-2.277-2.066-0.148-3.93-0.941-5.949-2.277-0.285-0.191-0.578-0.387-0.875-0.602-2.359-1.703-4.984-4.117-8.398-7.121-2.602-2.277-9.141-10.03-12.645-10.03m-7.02 22.992c-1.555 0-2.711 0.785-2.844 2.559 2.18 4.277 5.836 7.668 10.305 9.504-0.063-0.082-0.117-0.172-0.176-0.266-0.418-0.645-0.82-1.52-0.82-2.523 0-1.172 0.754-1.633 1.609-1.633 1.133 0 4.879 1.785 11.145 1.785 3.137 0 7.05-0.461 9.914-1.563 1.129-1.102 2.125-2.336 2.977-3.676-1.832 0.742-5.219 1.816-9.625 1.816-8.52 0-16.285-3.645-18.527-4.813-0.598-0.309-2.125-1.195-3.949-1.195" fill="#f9f9f9" fill-rule="evenodd"/>
 </g>
</svg>
