<?xml version="1.0" encoding="UTF-8"?>
<svg width="64" height="64" version="1.1" xmlns="http://www.w3.org/2000/svg" xmlns:xlink="http://www.w3.org/1999/xlink">
 <defs>
  <filter id="e" x="-.059472" y="-.060537" width="1.1189" height="1.1211" color-interpolation-filters="sRGB">
   <feGaussianBlur stdDeviation="1.3378352"/>
  </filter>
  <linearGradient id="linearGradient2168" x1="1.2396" x2="15.693" y1="13.917" y2="13.917" gradientTransform="matrix(3.7796 0 0 3.7796 72.983 19.813)" gradientUnits="userSpaceOnUse" xlink:href="#linearGradient856"/>
  <linearGradient id="linearGradient856" x1="-73.361" x2="-58.736" y1="6.9799" y2="17.198" gradientTransform="translate(75.14 -.97417)" gradientUnits="userSpaceOnUse">
   <stop stop-color="#3c3c3c" offset="0"/>
   <stop stop-color="#1e1e1e" offset="1"/>
  </linearGradient>
  <filter id="m" x="-.020048" y="-.17621" width="1.0401" height="1.3524" color-interpolation-filters="sRGB">
   <feGaussianBlur stdDeviation="0.43981933"/>
  </filter>
  <linearGradient id="linearGradient2176" x1="20.388" x2="43.331" y1="49" y2="49" gradientUnits="userSpaceOnUse">
   <stop offset="0"/>
   <stop stop-opacity="0" offset="1"/>
  </linearGradient>
  <filter id="j" x="-.086731" y="-.42391" width="1.1735" height="1.8478" color-interpolation-filters="sRGB">
   <feGaussianBlur stdDeviation="0.70652346"/>
  </filter>
  <radialGradient id="g" cx="32" cy="53.196" r="9.9092" gradientTransform="matrix(1.4128 5.3425e-7 -1.6808e-7 .4921 59.772 41.45)" gradientUnits="userSpaceOnUse">
   <stop stop-color="#636363" offset="0"/>
   <stop stop-color="#424242" offset=".47277"/>
   <stop stop-color="#373737" offset="1"/>
  </radialGradient>
  <linearGradient id="linearGradient952" x1="8.3205" x2="8.3205" y1="1.2559" y2="13.432" gradientTransform="matrix(3.7796 0 0 3.7796 72.983 19.813)" gradientUnits="userSpaceOnUse" xlink:href="#linearGradient856"/>
  <filter id="k" x="-.041258" y="-.10994" width="1.0825" height="1.2199" color-interpolation-filters="sRGB">
   <feGaussianBlur stdDeviation="0.34069824"/>
  </filter>
  <linearGradient id="linearGradient2136" x1="1.8646" x2="15.069" y1="14.552" y2="14.552" gradientUnits="userSpaceOnUse">
   <stop offset="0"/>
   <stop stop-opacity="0" offset="1"/>
  </linearGradient>
  <filter id="n" x="-.01984" y="-.23809" width="1.0397" height="1.4762" color-interpolation-filters="sRGB">
   <feGaussianBlur stdDeviation="0.1049892"/>
  </filter>
  <radialGradient id="d" cx="7.9373" cy="13.903" r="7.142" gradientTransform="matrix(4.2006 1.7952e-7 -2.0944e-7 4.9006 69.643 .068932)" gradientUnits="userSpaceOnUse">
   <stop stop-color="#4d4d4d" offset="0"/>
   <stop stop-color="#4d4d4d" stop-opacity="0" offset="1"/>
  </radialGradient>
 </defs>
 <g transform="translate(-72.983 -19.332)">
  <path transform="matrix(1 0 0 1 72.983 19.813)" d="m14 5c-0.54275-9.566e-4 -1.0131 0.089051-1.3945 0.2793-0.62057 0.23101-0.88354 0.66383-1.0625 1.3691l-6.5273 41.746c-0.021015 0.22364-0.00643 0.43929 0.037109 0.64648 0.00264 0.01257 0.0069 0.0246 0.00977 0.03711-0.00671 0.41826 0.00691 0.85899 0.037109 1.3125 0.036851 1.9891 0.14217 2.4666 0.31836 4.5371 0.096546 1.7208 1.1493 3.1125 2.5762 3.1113l48.012-0.03906c1.427-0.0012 2.4796-1.3515 2.5762-3.0723 0.17617-2.0706 0.28151-2.55 0.31836-4.5391 0.03005-0.45129 0.04154-0.88816 0.03516-1.3047 0.0033-0.01454 0.0087-0.02836 0.01172-0.04297 0.04354-0.2072 0.0582-0.4248 0.03711-0.64844l-7.5273-41.742c-0.179-0.70535-0.44193-1.1382-1.0625-1.3691-0.38144-0.19021-0.85178-0.28025-1.3945-0.2793h-17l-18-0.00195zm18 38.982a13.526 21.831 0 0 1 6.9766 3.1758h-13.959a13.526 21.831 0 0 1 6.9824-3.1758z" filter="url(#e)" opacity=".35" stroke-width="3.7796"/>
  <path d="m79.031 66.971c-0.93696 0.1637-0.91523 1.6984-0.81364 3.2316 0.03666 1.9891 0.14169 2.4669 0.31699 4.5374 0.09606 1.7208 1.143 3.114 2.5627 3.1128l47.77-0.03908c1.4198-0.0012 2.4667-1.353 2.5627-3.0738 0.1753-2.0706 0.28033-2.5484 0.31696-4.5374 0.10155-1.5332 0.12329-3.0677-0.81364-3.2316h-48.145z" fill="url(#linearGradient2168)" stroke="#000" stroke-opacity=".19608"/>
  <g fill-rule="evenodd">
   <path transform="matrix(1 0 0 1 72.983 19.813)" d="m6.7715 45.307c-0.6077 0-1.0977 0.74583-1.0977 1.6719v2.6465c0 0.92605 0.48996 1.6719 1.0977 1.6719h15.867a9.8639 5.1132 0 0 1 9.3613-3.5117 9.8639 5.1132 0 0 1 9.3535 3.5117h15.875c0.6077 0 1.0977-0.74583 1.0977-1.6719v-2.6465c0-0.92605-0.48996-1.6719-1.0977-1.6719h-50.457z" filter="url(#m)" opacity=".35" style="paint-order:stroke fill markers"/>
   <path transform="matrix(1 0 0 1 72.983 18.813)" d="m31.855 47a10.294 5.7981 0 0 0-9.7715 4h2.502a10.294 5.7981 0 0 1 7.2695-1.6992 10.294 5.7981 0 0 1 7.2578 1.6992h2.5215a10.294 5.7981 0 0 0-9.7793-4z" fill="url(#linearGradient2176)" filter="url(#j)" opacity=".35" style="paint-order:stroke fill markers"/>
   <path transform="matrix(1 0 0 1 72.983 19.786)" d="m31.855 47a10.294 5.7981 0 0 0-9.7715 4h2.502a10.294 5.7981 0 0 1 7.2695-1.6992 10.294 5.7981 0 0 1 7.2578 1.6992h2.5215a10.294 5.7981 0 0 0-9.7793-4z" fill="#00a2ef" filter="url(#j)" style="paint-order:stroke fill markers"/>
  </g>
  <g stroke-width="3.7796">
   <path d="m104.98 63.361a13.526 23.175 0 0 0-9.9063 7.4375h0.87694a10.295 6.1551 0 0 1 9.0295-3.2013 10.295 6.1551 0 0 1 9.0178 3.2013h0.89452a13.526 23.175 0 0 0-9.912-7.4375z" fill="url(#g)"/>
   <path d="m86.983 24.813c-0.54275-9.57e-4 -1.0131 0.08905-1.3945 0.2793-0.62061 0.23101-0.88352 0.66381-1.0625 1.3691l-6.5274 41.746c-0.02101 0.22364-0.0064 0.4393 0.03712 0.6465 0.01742 0.08289 0.03976 0.16449 0.06641 0.24412 0.0133 0.03984 0.02744 0.07839 0.04297 0.1172 0.04655 0.11637 0.10308 0.22886 0.16797 0.33593 0.10815 0.17844 0.23936 0.34338 0.39062 0.49021 0.03027 0.0291 0.062 0.05817 0.09375 0.08595 0.15875 0.13977 0.3352 0.26132 0.5254 0.36133 0.03803 0.01965 0.07618 0.0384 0.11523 0.05666 0.35151 0.16422 0.74364 0.25588 1.1465 0.25588h14.492a13.526 21.831 0 0 1 9.9063-7.0059 13.526 21.831 0 0 1 9.912 7.0059h14.486c0.93984 0 1.8172-0.5008 2.2715-1.25 0.0649-0.107 0.1214-0.21952 0.16796-0.33593 0.0155-0.03878 0.0314-0.07748 0.0449-0.11721 0.0265-0.07952 0.0471-0.16131 0.0644-0.24412 0.0435-0.2072 0.0581-0.42479 0.037-0.64843l-7.5274-41.742c-0.179-0.70535-0.44195-1.1381-1.0625-1.3691-0.38144-0.19021-0.85177-0.28025-1.3945-0.2793h-35z" fill="url(#linearGradient952)"/>
   <path transform="matrix(1 0 0 1 72.983 19.813)" d="m32 43.549a13.526 23.175 0 0 0-9.9062 7.4375h0.29688a13.526 23.175 0 0 1 9.6094-6.9199 13.526 23.175 0 0 1 9.6035 6.9199h0.30859a13.526 23.175 0 0 0-9.9121-7.4375z" filter="url(#k)" opacity=".15"/>
  </g>
  <g fill-rule="evenodd">
   <rect transform="matrix(3.9372 0 0 3.6542 71.649 21.704)" x="2.1166" y="14.023" width="12.7" height="1.0583" rx=".26458" ry=".29539" fill="url(#linearGradient2136)" filter="url(#n)" opacity=".1" style="paint-order:stroke fill markers"/>
   <circle cx="126.48" cy="74.315" r="1.5" fill="#f44e24" stroke-width="3.7796" style="paint-order:stroke fill markers"/>
   <circle cx="121.63" cy="74.292" r="1.1884" fill="#ffb800" stroke-width="2.9944" style="paint-order:stroke fill markers"/>
   <circle cx="117.09" cy="74.292" r="1.1884" fill="#00a2ef" stroke-width="2.9944" style="paint-order:stroke fill markers"/>
  </g>
  <path d="m86.984 24.813c-0.54275-9.56e-4 -1.0131 0.08905-1.3945 0.27931-0.62057 0.23101-0.88352 0.66381-1.0625 1.3691l-6.5274 41.746c-0.02117 0.22364-0.0064 0.4393 0.03704 0.6465 0.01739 0.08289 0.03976 0.16449 0.06641 0.24412 0.01323 0.03984 0.02759 0.07839 0.04297 0.1172 0.04657 0.11637 0.10307 0.22886 0.16796 0.33593 0.10814 0.17844 0.23936 0.34334 0.39062 0.49022 0.03024 0.0291 0.06199 0.05817 0.09373 0.08595 0.15874 0.13977 0.33521 0.26132 0.5254 0.36133 0.03802 0.01965 0.07616 0.03844 0.11524 0.05666 0.3515 0.16422 0.74364 0.25584 1.1465 0.25584h14.492a13.526 21.831 0 0 1 9.9063-7.0059 13.526 21.831 0 0 1 9.912 7.0059h14.486c0.9398 0 1.8172-0.5008 2.2715-1.25 0.0649-0.107 0.1214-0.21952 0.16796-0.33593 0.0155-0.03878 0.0314-0.07748 0.0449-0.1172 0.0265-0.07952 0.0471-0.16131 0.0644-0.24412 0.0436-0.2072 0.0581-0.42479 0.037-0.64843l-7.5274-41.742c-0.179-0.70535-0.44195-1.1382-1.0625-1.3691-0.38144-0.19023-0.85177-0.28026-1.3945-0.27931h-17z" fill="url(#d)" stroke-width="3.7796"/>
 </g>
</svg>
