<?xml version="1.0" encoding="UTF-8" standalone="no"?>
<svg
   xmlns:dc="http://purl.org/dc/elements/1.1/"
   xmlns:cc="http://creativecommons.org/ns#"
   xmlns:rdf="http://www.w3.org/1999/02/22-rdf-syntax-ns#"
   xmlns:svg="http://www.w3.org/2000/svg"
   xmlns="http://www.w3.org/2000/svg"
   xmlns:xlink="http://www.w3.org/1999/xlink"
   xmlns:sodipodi="http://sodipodi.sourceforge.net/DTD/sodipodi-0.dtd"
   xmlns:inkscape="http://www.inkscape.org/namespaces/inkscape"
   inkscape:version="1.0.2 (e86c870879, 2021-01-15)"
   sodipodi:docname="hwinfo.svg"
   id="svg55"
   version="1.1"
   height="64"
   width="64">
  <metadata
     id="metadata59">
    <rdf:RDF>
      <cc:Work
         rdf:about="">
        <dc:format>image/svg+xml</dc:format>
        <dc:type
           rdf:resource="http://purl.org/dc/dcmitype/StillImage" />
        <dc:title></dc:title>
      </cc:Work>
    </rdf:RDF>
  </metadata>
  <sodipodi:namedview
     inkscape:current-layer="svg55"
     inkscape:window-maximized="1"
     inkscape:window-y="38"
     inkscape:window-x="0"
     inkscape:cy="31.866283"
     inkscape:cx="-22.149479"
     inkscape:zoom="2.2539029"
     showgrid="false"
     id="namedview57"
     inkscape:window-height="936"
     inkscape:window-width="1920"
     inkscape:pageshadow="2"
     inkscape:pageopacity="0"
     guidetolerance="10"
     gridtolerance="10"
     objecttolerance="10"
     borderopacity="1"
     bordercolor="#666666"
     pagecolor="#ffffff"
     inkscape:document-rotation="0" />
  <defs
     id="defs25">
    <linearGradient
       id="linearGradient955"
       inkscape:collect="always">
      <stop
         id="stop951"
         offset="0"
         style="stop-color:#20df5f;stop-opacity:1" />
      <stop
         id="stop953"
         offset="1"
         style="stop-color:#298f38;stop-opacity:1" />
    </linearGradient>
    <linearGradient
       gradientUnits="userSpaceOnUse"
       gradientTransform="translate(-1.0175e-5,-0.033043)"
       y2="53"
       y1="11"
       x2="32"
       x1="32"
       id="c">
      <stop
         id="stop2"
         offset="0"
         stop-color="#dcdede" />
      <stop
         id="stop4"
         offset="1"
         stop-color="#939493" />
    </linearGradient>
    <filter
       color-interpolation-filters="sRGB"
       height="1.12"
       width="1.12"
       y="-.06"
       x="-.06"
       id="f">
      <feGaussianBlur
         id="feGaussianBlur7"
         stdDeviation="0.18520833" />
    </filter>
    <linearGradient
       gradientUnits="userSpaceOnUse"
       y2="292.24"
       y1="284.83"
       x2="8.4666"
       x1="8.4666"
       id="b">
      <stop
         id="stop10"
         offset="0"
         stop-color="#4c5557" />
      <stop
         id="stop12"
         offset="1"
         stop-color="#282929" />
    </linearGradient>
    <linearGradient
       gradientUnits="userSpaceOnUse"
       gradientTransform="matrix(3.7796,0,0,3.7796,84.833553,0)"
       y2="1.852"
       y1="15.081"
       x2="7.9373"
       x1="7.9373"
       id="linearGradient862-3">
      <stop
         id="stop15"
         offset="0"
         stop-color="#298f38" />
      <stop
         id="stop17"
         offset="1"
         stop-color="#20df5f" />
    </linearGradient>
    <linearGradient
       gradientTransform="translate(84.833553)"
       gradientUnits="userSpaceOnUse"
       y2="70"
       y1="10"
       x2="30"
       x1="30"
       id="linearGradient964">
      <stop
         id="stop20"
         offset="0" />
      <stop
         id="stop22"
         offset="1"
         stop-opacity=".35" />
    </linearGradient>
    <linearGradient
       id="linearGradient873"
       x1="-48.646"
       x2="-32.772"
       y1="-6.3007"
       y2="9.574"
       gradientTransform="matrix(3.7796,0,0,3.7796,185.86395,25.813514)"
       gradientUnits="userSpaceOnUse">
      <stop
         stop-color="#28afea"
         offset="0"
         id="stop886" />
      <stop
         stop-color="#838be4"
         offset="1"
         id="stop888" />
    </linearGradient>
    <linearGradient
       gradientUnits="userSpaceOnUse"
       y2="67.173073"
       x2="28.610247"
       y1="-2.8309302"
       x1="28.610247"
       id="linearGradient957"
       xlink:href="#linearGradient955"
       inkscape:collect="always" />
    <linearGradient
       y2="70"
       x2="30"
       y1="10"
       x1="30"
       gradientTransform="matrix(1.2025775,0,0,1.2025775,-6.4487846,-6.479467)"
       gradientUnits="userSpaceOnUse"
       id="linearGradient977"
       xlink:href="#linearGradient964"
       inkscape:collect="always" />
  </defs>
  <g
     id="g884"
     transform="matrix(0.91663683,0,0,0.91663683,2.6667263,2.6676214)">
    <path
       d="M 5,2 C 3.3380101,2 2,3.3380101 2,5 v 54 c 0,1.66199 1.3380101,3 3,3 h 54.001953 c 1.66199,0 3,-1.33801 3,-3 V 5 c 0,-1.6619899 -1.33801,-3 -3,-3 z"
       style="fill:url(#linearGradient957);fill-opacity:1;stroke-width:2;stroke-linecap:round"
       id="rect949" />
    <path
       d="M 5,2 C 4.4077237,2 3.8605798,2.17675 3.3964844,2.4707031 3.0748335,2.7643358 2.7684003,3.0729798 2.4726562,3.3925781 2.1772718,3.8574372 2,4.4061612 2,5 V 22.691406 L 2.2460938,22.9375 H 13.775391 L 4.7949219,13.955078 A 1.8038663,1.8038663 0 0 1 3.171875,12.160156 1.8038663,1.8038663 0 0 1 4.9746094,10.357422 1.8038663,1.8038663 0 0 1 6.7792969,12.160156 1.8038663,1.8038663 0 0 1 6.7460938,12.505859 L 17.177734,22.9375 h 34.28125 l 9.064454,-10.361328 h 1.478515 V 11.28125 H 60.523438 V 6.0996094 L 50.164062,17.757812 H 46.279297 L 56.638672,6.0996094 V 2 H 51.273438 V 6.7480469 L 35.117188,22.90625 33.416016,21.205078 48.869141,5.7519531 V 2 H 45.261719 V 6.7480469 L 29.103516,22.90625 28.425781,22.228516 27.746094,22.90625 25.419922,20.580078 23.091797,22.90625 22.412109,22.228516 21.734375,22.90625 5.5761719,6.7480469 V 2 Z M 7.9824219,2 V 5.7539062 L 22.412109,20.183594 23.71875,18.878906 21.210938,16.369141 h -2.40625 V 13.964844 L 11.589844,6.75 V 2 Z M 13.994141,2 V 5.7539062 L 18.804688,10.5625 V 2 Z m 7.216797,0 v 10.96875 l 4.208984,4.208984 0.80664,-0.808593 H 24.818359 V 2 Z m 6.011718,0 v 13.373047 l 3.814453,-3.814453 H 30.832031 V 2 Z m 6.013672,0 V 9.3613281 L 36.84375,5.7539062 V 2 Z M 39.25,2 V 6.7480469 L 27.119141,18.878906 28.425781,20.183594 42.857422,5.7539062 V 2 Z M 11.3125,38.476562 v 0.002 L 2,45.927734 v 4.371094 l 4.1308594,-2.753906 v 2.58789 L 2,52.888672 v 2.425781 h 1.5429688 v 6.294922 C 3.9756072,61.850742 4.4674869,62 5,62 h 6.3125 V 51.429688 l 7.769531,-6.476563 h 3.884766 l -7.769531,6.476563 V 62 h 4.810546 v -2.494141 l 16.158204,-16.15625 0.677734,0.677735 0.679688,-0.677735 2.326171,2.326172 2.328125,-2.326172 0.679688,0.677735 0.677734,-0.677735 16.158203,16.15625 v 2.40625 c 0.339015,-0.07985 0.656216,-0.214849 0.939453,-0.398437 0.30468,-0.279977 0.599371,-0.571724 0.88086,-0.875 0.274724,-0.421443 0.437733,-0.919004 0.470703,-1.453125 L 47.847656,45.048828 49.548828,43.349609 62.001953,55.802734 V 47.894531 L 56.638672,41.068359 H 54.050781 L 51.458984,38.476562 H 35.880859 l 0.283203,0.285157 -14.986328,14.986328 a 1.8038663,1.8038663 0 0 1 0.03125,0.345703 1.8038663,1.8038663 0 0 1 -1.802734,1.804688 1.8038663,1.8038663 0 0 1 -1.804688,-1.804688 1.8038663,1.8038663 0 0 1 1.623047,-1.794922 L 33.046875,38.476562 Z M 36.84375,46.072266 22.412109,60.501953 V 62 h 3.607422 v -2.492188 l 7.216797,-7.216796 v -2.404297 h 2.404297 l 2.507813,-2.509766 z m 6.011719,0 -1.304688,1.304687 12.128907,12.130859 V 62 h 3.607421 v -1.498047 z m -3.00586,3.005859 -4.208984,4.208984 V 62 h 3.607422 V 49.884766 h 1.410156 z m 1.804688,1.804687 V 62 h 3.607422 v -7.304688 h 0.207031 z m -8.417969,4.810547 -4.810547,4.808594 V 62 h 4.810547 z m 14.429688,1.201172 V 62 h 3.607422 v -1.498047 z"
       style="opacity:0.2;fill:url(#linearGradient977)"
       id="path975" />
    <g
       transform="matrix(1.1052559,0,0,1.1052559,-97.131206,-3.3207324)"
       id="g973">
      <g
         transform="matrix(3.7796,0,0,3.7796,84.833543,-1058.6)"
         id="g51">
        <g
           transform="translate(0,-0.0088674)"
           id="g39">
          <path
             transform="matrix(0.26458,0,0,0.26458,2.692e-6,280.08)"
             d="m 20,13 -0.5,2 H 19 v 3.9668 H 15 V 19.5 l -2,0.5 2,0.5 v 0.4668 h 4 v 2 H 15 V 23.5 l -2,0.5 2,0.5 v 0.4668 h 4 v 2 H 15 V 27.5 l -2,0.5 2,0.5 v 0.4668 h 4 v 2 H 15 V 31.5 l -2,0.5 2,0.5 v 0.4668 h 4 v 2 H 15 V 35.5 l -2,0.5 2,0.5 v 0.4668 h 4 v 2 H 15 V 39.5 l -2,0.5 2,0.5 v 0.4668 h 4 v 2 H 15 V 43.5 l -2,0.5 2,0.5 v 0.4668 h 4 V 49 h 0.5 l 0.5,2 0.5,-2 H 21 v -4.0332 h 2 V 49 h 0.5 l 0.5,2 0.5,-2 H 25 v -4.0332 h 2 V 49 h 0.5 l 0.5,2 0.5,-2 H 29 v -4.0332 h 2 V 49 h 0.5 l 0.5,2 0.5,-2 H 33 v -4.0332 h 2 V 49 h 0.5 l 0.5,2 0.5,-2 H 37 v -4.0332 h 2 V 49 h 0.5 l 0.5,2 0.5,-2 H 41 v -4.0332 h 2 V 49 h 0.5 l 0.5,2 0.5,-2 H 45 v -4.0332 h 4 V 44.5 L 51,44 49,43.5 v -0.5332 h -4 v -2 h 4 V 40.5 L 51,40 49,39.5 v -0.5332 h -4 v -2 h 4 V 36.5 L 51,36 49,35.5 v -0.5332 h -4 v -2 h 4 V 32.5 L 51,32 49,31.5 v -0.5332 h -4 v -2 h 4 V 28.5 L 51,28 49,27.5 v -0.5332 h -4 v -2 h 4 V 24.5 L 51,24 49,23.5 v -0.5332 h -4 v -2 h 4 V 20.5 L 51,20 49,19.5 V 18.9668 H 45 V 15 H 44.5 L 44,13 43.5,15 H 43 v 3.9668 H 41 V 15 H 40.5 L 40,13 39.5,15 H 39 v 3.9668 H 37 V 15 H 36.5 L 36,13 35.5,15 H 35 v 3.9668 H 33 V 15 H 32.5 L 32,13 31.5,15 H 31 v 3.9668 H 29 V 15 H 28.5 L 28,13 27.5,15 H 27 v 3.9668 H 25 V 15 H 24.5 L 24,13 23.5,15 H 23 v 3.9668 H 21 V 15 h -0.5 z m 1,7.9668 h 2 v 2 h -2 z m 4,0 h 2 v 2 h -2 z m 4,0 h 2 v 2 h -2 z m 4,0 h 2 v 2 h -2 z m 4,0 h 2 v 2 h -2 z m 4,0 h 2 v 2 h -2 z m -20,4 h 2 v 2 h -2 z m 4,0 h 2 v 2 h -2 z m 4,0 h 2 v 2 h -2 z m 4,0 h 2 v 2 h -2 z m 4,0 h 2 v 2 h -2 z m 4,0 h 2 v 2 h -2 z m -20,4 h 2 v 2 h -2 z m 4,0 h 2 v 2 h -2 z m 4,0 h 2 v 2 h -2 z m 4,0 h 2 v 2 h -2 z m 4,0 h 2 v 2 h -2 z m 4,0 h 2 v 2 h -2 z m -20,4 h 2 v 2 h -2 z m 4,0 h 2 v 2 h -2 z m 4,0 h 2 v 2 h -2 z m 4,0 h 2 v 2 h -2 z m 4,0 h 2 v 2 h -2 z m 4,0 h 2 v 2 h -2 z m -20,4 h 2 v 2 h -2 z m 4,0 h 2 v 2 h -2 z m 4,0 h 2 v 2 h -2 z m 4,0 h 2 v 2 h -2 z m 4,0 h 2 v 2 h -2 z m 4,0 h 2 v 2 h -2 z m -20,4 h 2 v 2 h -2 z m 4,0 h 2 v 2 h -2 z m 4,0 h 2 v 2 h -2 z m 4,0 h 2 v 2 h -2 z m 4,0 h 2 v 2 h -2 z m 4,0 h 2 v 2 h -2 z"
             fill="url(#c)"
             id="path33"
             style="fill:url(#c)" />
          <path
             d="m 5.2917,284.83 h 6.35 c 0.29316,0 0.52917,0.236 0.52917,0.52915 v 6.35 c 0,0.29315 -0.23601,0.52915 -0.52917,0.52915 h -6.35 c -0.29316,0 -0.52917,-0.236 -0.52917,-0.52915 v -6.35 c 0,-0.29315 0.23601,-0.52915 0.52917,-0.52915 z"
             fill-rule="evenodd"
             filter="url(#f)"
             opacity="0.5"
             id="path35" />
          <path
             d="m 5.2917,284.83 h 6.35 c 0.29316,0 0.52917,0.236 0.52917,0.52915 v 6.35 c 0,0.29315 -0.23601,0.52915 -0.52917,0.52915 h -6.35 c -0.29316,0 -0.52917,-0.236 -0.52917,-0.52915 v -6.35 c 0,-0.29315 0.23601,-0.52915 0.52917,-0.52915 z"
             fill="url(#b)"
             fill-rule="evenodd"
             id="path37"
             style="fill:url(#b)" />
        </g>
        <g
           fill-rule="evenodd"
           id="g49">
          <path
             d="M 5.5563,285.49 A 0.13229,0.13229 0 0 1 5.42401,285.62229 0.13229,0.13229 0 0 1 5.29172,285.49 0.13229,0.13229 0 0 1 5.42401,285.35771 0.13229,0.13229 0 0 1 5.5563,285.49"
             opacity="0.35"
             style="paint-order:stroke fill markers"
             id="path41" />
          <path
             d="M 11.641,285.49 A 0.13229,0.13229 0 0 1 11.50871,285.62229 0.13229,0.13229 0 0 1 11.37642,285.49 0.13229,0.13229 0 0 1 11.50871,285.35771 0.13229,0.13229 0 0 1 11.641,285.49"
             opacity="0.35"
             style="paint-order:stroke fill markers"
             id="path43" />
          <path
             d="M 5.5563,291.58 A 0.13229,0.13229 0 0 1 5.42401,291.71229 0.13229,0.13229 0 0 1 5.29172,291.58 0.13229,0.13229 0 0 1 5.42401,291.44771 0.13229,0.13229 0 0 1 5.5563,291.58"
             opacity="0.35"
             style="paint-order:stroke fill markers"
             id="path45" />
          <path
             d="M 11.641,291.58 A 0.13229,0.13229 0 0 1 11.50871,291.71229 0.13229,0.13229 0 0 1 11.37642,291.58 0.13229,0.13229 0 0 1 11.50871,291.44771 0.13229,0.13229 0 0 1 11.641,291.58"
             opacity="0.35"
             style="paint-order:stroke fill markers"
             id="path47" />
        </g>
      </g>
      <path
         d="m 119.53255,25.756 c -2.7223,0.03489 -5.7618,0.79114 -8.211,2.2305 v 0.36523 c 5.5911,-2.7764 13.524,-2.7587 14.246,1.2188 0.20672,1.1197 -0.3197,2.2736 -1.3242,3.0801 v -4.1992 h -1.1094 v 4.666 c 0,0.39152 0.15271,0.73907 0.53711,0.93751 v 0.02344 c 0.007,-0.0023 0.0129,-0.0074 0.0195,-0.0098 0.14972,0.07304 0.327,0.12791 0.55273,0.14844 v -0.39844 c 1.4432,-0.77326 2.7142,-2.4819 2.2812,-4.5293 -0.51797,-2.4287 -3.492,-3.5781 -6.9922,-3.5332 z m -9.6231,2.8359 v 0.99415 h 1.1094 V 28.5919 Z m 6.4824,0.44336 v 4.0469 c 0,0.58222 0.37915,1.1738 1.2793,1.1738 h 0.65039 v -0.8672 h -0.44726 c -0.26231,0 -0.38477,-0.13101 -0.38477,-0.36914 v -2.0234 h 0.83204 v -0.83985 h -0.83204 v -1.1211 h -1.0977 z m -7.1993,0.28906 c -1.6206,1.3723 -2.5005,3.1087 -1.9922,5.1582 0.64822,2.63 4.1025,4.1187 9.3771,3.623 2.0884,-0.19395 4.8222,-0.84457 6.7188,-1.8516 v -1.4297 c -1.7237,0.99304 -4.5754,1.8139 -6.9512,2.0254 -3.8634,0.34393 -7.8896,-0.19726 -8.4532,-3.1133 -0.27993,-1.4357 0.40174,-2.9605 1.3008,-3.9062 v -0.50586 z m 11.447,0.76173 c -1.1586,0 -2.0391,0.76356 -2.0391,2.1152 0,1.5806 1.0089,2.123 2.0625,2.123 0.80739,0 1.2632,-0.24593 1.6992,-0.6504 l -0.67774,-0.61328 c -0.28259,0.26256 -0.5251,0.39062 -1.0137,0.39062 -0.62172,0 -0.97657,-0.39059 -0.97657,-0.92189 h 2.793 v -0.375 c 0,-1.1741 -0.6729,-2.0684 -1.8477,-2.0684 z m -10.73,0.07031 v 3.0469 c 0,0.54823 0.27778,1.026 1.1094,1.1016 v -4.1484 h -1.1094 z m 2.0898,0 v 4.1035 h 1.0996 v -3.2656 l 0.91212,0.002 c 0.32288,0 0.45508,0.14871 0.45508,0.39258 v 2.8711 h 1.1035 v -2.875 c 0,-0.58421 -0.33206,-1.2285 -1.2969,-1.2285 h -2.2734 z m 8.5919,0.78906 c 0.56522,0 0.77849,0.4288 0.80275,0.87696 h -1.6992 c 0.012,-0.18348 0.0367,-0.29797 0.10938,-0.44727 0.12116,-0.2477 0.41176,-0.42969 0.78712,-0.42969 z"
         fill="#ffffff"
         opacity="0.5"
         id="path53" />
    </g>
  </g>
  <g
     id="g904"
     stroke-width="0.26458"
     fill="#5e4aa6"
     transform="matrix(3.7796,0,0,3.7796,-151.13031,-27.198706)">
    <circle
       id="circle896"
       r="0"
       cy="-328.38"
       cx="-330.35001" />
    <circle
       id="circle898"
       r="0"
       cy="-326.25"
       cx="-312.10999" />
    <circle
       id="circle900"
       r="0"
       cy="-333.07001"
       cx="-306.01999" />
    <circle
       id="circle902"
       r="0"
       cy="-326.01001"
       cx="-308.84" />
  </g>
</svg>
