<?xml version="1.0" encoding="UTF-8"?>
<svg width="64" height="64" version="1.1" viewBox="0 0 16.933 16.933" xmlns="http://www.w3.org/2000/svg" xmlns:cc="http://creativecommons.org/ns#" xmlns:dc="http://purl.org/dc/elements/1.1/" xmlns:rdf="http://www.w3.org/1999/02/22-rdf-syntax-ns#">
 <metadata>
  <rdf:RDF>
   <cc:Work rdf:about="">
    <dc:format>image/svg+xml</dc:format>
    <dc:type rdf:resource="http://purl.org/dc/dcmitype/StillImage"/>
   </cc:Work>
  </rdf:RDF>
 </metadata>
 <defs>
  <linearGradient id="b-3" x1="101.53" x2="101.53" y1="18.888" y2="180.19" gradientTransform="matrix(.0611 0 0 .0611 15.649 3.4586)" gradientUnits="userSpaceOnUse">
   <stop stop-color="#4c4c4c" offset="0"/>
   <stop stop-color="#1b1b1b" offset="1"/>
  </linearGradient>
 </defs>
 <g transform="translate(-21.833 .89722)" fill="#5e4aa6" stroke-width=".26458">
  <circle cx="-330.35" cy="-328.38" r="0"/>
  <circle cx="-312.11" cy="-326.25" r="0"/>
  <circle cx="-306.02" cy="-333.07" r="0"/>
  <circle cx="-308.84" cy="-326.01" r="0"/>
 </g>
 <g transform="matrix(1.6506 0 0 1.6506 -27.392 -7.323)">
  <path d="m21.642 4.757c-0.30136-6.106e-4 -0.60096 0.10896-0.81722 0.33034l-3.5974 3.6814c-1.2157 1.5055 0.82739 1.3307 1.7032 1.7644 0.31416 0.32113-1.204 0.55694-0.88979 0.87834 0.31416 0.32113 1.8983 0.61832 2.2129 0.93943 0.31416 0.32113-0.64258 0.66223-0.32843 0.98336 0.31416 0.32113 1.0402 0.01669 1.1762 0.75803 0.09696 0.52977 1.3107 0.22766 1.9036-0.20622 0.31416-0.32138-0.60058-0.28989-0.28641-0.611 0.78125-0.79894 1.5085-0.29166 1.7758-1.0922 0.13204-0.39557-1.151-0.60875-0.83633-0.9299 0.90392-0.5279 4.0278-0.87186 2.5453-2.3543l-3.7291-3.8113c-0.22806-0.21895-0.53113-0.32973-0.83251-0.33034zm0.03055 0.34941c0.21517 0.00114 0.42988 0.082265 0.58428 0.23867l1.4245 1.4454c0.13499 0.13793 0.13281 0.4043 0.05728 0.48116l-0.70648-0.56519-0.13939 0.83823-0.59002-0.31123-0.94707 0.59574-0.31315-1.2583-0.5079 0.87834h-0.77523c-0.31658 0-0.35448-0.40165-0.06683-0.6893 0.50245-0.54235 1.0786-1.0946 1.392-1.4149 0.15749-0.16096 0.37294-0.23982 0.58809-0.23867zm-1.7089 5.625c0.09615 0.05972 1.5502 0.35542 1.9056 0.41435 0.1232 0.02598 0.03614 0.15297-0.13366 0.23867-0.383 0.10178-2.2407-0.65302-1.772-0.65302zm5.6557 1.012c-0.2926 0.01008-0.58112 0.15889-0.66066 0.43917 0 0.18266 1.3442 0.3035 1.3442-0.04201-0.09588-0.27747-0.39097-0.40723-0.68357-0.39716zm-6.1713 0.7905c-0.42178-0.0039-0.91565 0.30544-0.55182 0.62057 0.31871 0.27558 0.81095-0.06984 0.95854-0.45443-0.08686-0.1154-0.24166-0.16458-0.40672-0.16612zm5.3406 0.02482c-0.41084 0.36853 0.04567 0.74218 0.45062 0.50408 0.09026-0.0916-0.0021-0.41249-0.45062-0.50408z" fill="url(#b-3)" image-rendering="optimizeSpeed" stroke-width=".95827"/>
  <path d="m21.673 5.1066c-0.01345-7.17e-5 -0.02687-3.68e-5 -0.04031 5.167e-4 -0.01344 5.537e-4 -0.02691 0.0014-0.04031 0.00258-0.01339 0.00118-0.02646 0.00284-0.03979 0.00465s-0.02708 0.00376-0.04031 0.0062-0.02617 0.0052-0.03927 0.00827-0.02632 0.00664-0.03927 0.010335c-0.01295 0.0037-0.02547 0.00756-0.03824 0.011885-0.01277 0.00433-0.02568 0.00899-0.03824 0.013952-0.01255 0.00496-0.02489 0.010424-0.03721 0.016019-0.01232 0.0056-0.02464 0.01134-0.03669 0.01757s-0.0239 0.012771-0.03566 0.019636c-0.01175 0.00687-0.0232 0.014201-0.03462 0.021704-0.01143 0.0075-0.02252 0.015114-0.03359 0.023254s-0.02238 0.016542-0.03307 0.025321c-0.01069 0.00878-0.02124 0.017969-0.03152 0.027388-0.01028 0.00942-0.02013 0.019395-0.02997 0.029455-0.03918 0.040038-0.08246 0.083408-0.12919 0.13022-0.04673 0.046814-0.09689 0.096697-0.14986 0.14934-0.10594 0.10529-0.22322 0.22121-0.34622 0.34416-0.0615 0.061473-0.1243 0.12466-0.1881 0.18913s-0.12848 0.13036-0.19326 0.19688c-0.06478 0.066523-0.12985 0.1339-0.1943 0.20153-0.06445 0.067631-0.12839 0.13581-0.1912 0.2036-9e-3 0.00899-0.01748 0.017675-0.02584 0.026871-0.0084 0.0092-0.01656 0.018533-0.02429 0.027905-0.0077 0.00937-0.01513 0.018906-0.02222 0.028422-0.0071 0.00952-0.01368 0.019311-0.02015 0.028938-0.0065 0.00963-0.01276 0.019229-0.0186 0.028938-0.0058 0.00971-0.01131 0.01918-0.01654 0.028938-0.0052 0.00976-0.01038 0.019679-0.01499 0.029455-0.0046 0.00978-0.0084 0.019692-0.0124 0.029455-4e-3 0.00976-8e-3 0.01922-0.01137 0.028938-0.0034 0.00972-0.0065 0.019813-0.0093 0.029455-0.0028 0.00964-0.0051 0.018887-0.0072 0.028421-0.0022 0.00953-0.0041 0.019027-0.0057 0.028421-0.0016 0.00939-0.0027 0.018681-0.0036 0.027905-9.64e-4 0.00922-0.0017 0.018366-0.0021 0.027388-3.67e-4 0.00902-7.43e-4 0.018083-5.16e-4 0.026871 2.26e-4 0.00879 7.32e-4 0.017315 0.0015 0.025838 8.18e-4 0.00852 0.0022 0.017094 0.0036 0.025321 0.0014 0.00823 0.0032 0.016389 0.0052 0.024287 2e-3 0.0079 0.0041 0.015715 0.0067 0.023254 0.0026 0.00754 0.0056 0.014556 0.0088 0.021704 0.0032 0.00715 0.0066 0.013945 0.01033 0.02067 0.0037 0.00673 0.0076 0.013366 0.01189 0.019637 0.0043 0.00627 0.0091 0.012301 0.01395 0.018087 0.0049 0.00579 0.01006 0.011267 0.0155 0.016536 0.0054 0.00527 0.01104 0.010266 0.01705 0.014986 6e-3 0.00472 0.01203 0.0093 0.0186 0.013435 0.0066 0.00414 0.01353 0.00784 0.02067 0.011369 0.0071 0.00353 0.01453 0.00693 0.02222 0.00982 0.0077 0.00289 0.01604 0.00554 0.02429 0.00775 0.0082 0.00221 0.01652 0.00418 0.02532 0.00568 0.0088 0.00151 0.01804 0.00233 0.02739 0.0031 0.0093 7.686e-4 0.01905 0.00103 0.02894 0.00103h0.77513l0.50797-0.87797 0.31315 1.2583 0.94669-0.59582 0.59013 0.31109 0.13952-0.83818 0.7064 0.56533c0.0047-0.0048 0.0093-0.010329 0.01344-0.016536 0.0041-0.00621 0.0079-0.013216 0.01137-0.02067 0.0035-0.00745 0.0064-0.015224 0.0093-0.023771 0.0029-0.00855 0.0056-0.017904 0.0078-0.027388 0.0022-0.00948 0.0042-0.019189 0.0057-0.029455s0.0024-0.021146 0.0031-0.032039c7.21e-4 -0.010893 0.0011-0.021708 1e-3 -0.033072-5.4e-5 -0.011364-6.89e-4 -0.022942-0.0016-0.034623-8.61e-4 -0.01168-0.0019-0.023815-0.0036-0.035656s-0.0036-0.023809-0.0062-0.035656-0.0058-0.023442-0.0093-0.035139-0.0075-0.02323-0.01188-0.034623c-0.0044-0.011392-0.0091-0.022657-0.01447-0.033589-0.0054-0.010932-0.01121-0.021722-0.01757-0.032039-0.0064-0.010317-0.01329-0.019908-0.02067-0.029455-0.0074-0.00955-0.01533-0.018767-0.02377-0.027388l-1.4241-1.4453c-0.0096-0.00978-0.01986-0.019235-0.02997-0.028422-0.01011-0.00919-0.02047-0.018277-0.03101-0.026871-0.01053-0.00859-0.02111-0.016804-0.03204-0.024804s-0.02229-0.01585-0.03359-0.023254c-0.0113-0.0074-0.02247-0.014381-0.03411-0.021187-0.01164-0.00681-0.0237-0.013432-0.03566-0.019637-0.01195-0.00621-0.02394-0.011967-0.03617-0.01757-0.01223-0.0056-0.02472-0.011023-0.03721-0.016019-0.01248-5e-3 -0.02502-0.00956-0.03772-0.013952-0.01271-0.00439-0.02534-0.00862-0.03824-0.012402-0.0129-0.00378-0.02621-0.00717-0.03927-0.010335-0.01307-0.00317-0.02607-0.00623-0.03927-0.00878s-0.02649-0.00478-0.03979-0.00672-0.02641-0.00333-0.03979-0.00465-0.02688-0.00241-0.04031-0.0031c-0.01343-6.951e-4 -0.02686-9.623e-4 -0.04031-0.00103z" fill="#fffffd" fill-rule="evenodd" stroke-linejoin="round" stroke-width=".26458"/>
 </g>
</svg>
