<?xml version="1.0" encoding="UTF-8" standalone="no"?>
<svg
   width="64"
   height="64"
   version="1.1"
   id="svg15"
   sodipodi:docname="io.missioncenter.MissionCenter.svg"
   inkscape:version="1.4.2 (ebf0e940d0, 2025-05-08)"
   xml:space="preserve"
   xmlns:inkscape="http://www.inkscape.org/namespaces/inkscape"
   xmlns:sodipodi="http://sodipodi.sourceforge.net/DTD/sodipodi-0.dtd"
   xmlns:xlink="http://www.w3.org/1999/xlink"
   xmlns="http://www.w3.org/2000/svg"
   xmlns:svg="http://www.w3.org/2000/svg"><sodipodi:namedview
     id="namedview15"
     pagecolor="#505050"
     bordercolor="#eeeeee"
     borderopacity="1"
     inkscape:showpageshadow="0"
     inkscape:pageopacity="0"
     inkscape:pagecheckerboard="0"
     inkscape:deskcolor="#505050"
     inkscape:zoom="4.4277038"
     inkscape:cx="-90.904907"
     inkscape:cy="5.8721182"
     inkscape:window-width="2560"
     inkscape:window-height="1411"
     inkscape:window-x="0"
     inkscape:window-y="0"
     inkscape:window-maximized="1"
     inkscape:current-layer="svg15"
     showgrid="true"><inkscape:grid
       id="grid2"
       units="px"
       originx="0"
       originy="0"
       spacingx="1"
       spacingy="1"
       empcolor="#0099e5"
       empopacity="0.30196078"
       color="#0099e5"
       opacity="0.14901961"
       empspacing="5"
       enabled="true"
       visible="true" /></sodipodi:namedview><defs
     id="defs4"><linearGradient
       id="linearGradient2"
       inkscape:collect="always"><stop
         style="stop-color:#ffffff;stop-opacity:1"
         offset="0"
         id="stop5" /><stop
         style="stop-color:#d4d3cd;stop-opacity:1"
         offset="0.02027521"
         id="stop7" /><stop
         style="stop-color:#d4d3cd;stop-opacity:1"
         offset="0.97856438"
         id="stop8" /><stop
         style="stop-color:#ffffff;stop-opacity:1"
         offset="1"
         id="stop6" /></linearGradient><linearGradient
       xlink:href="#a"
       id="g"
       x1="36.418"
       x2="21.723"
       y1="218.4"
       y2="218.4"
       gradientTransform="matrix(1.0208,0,0,0.9305,-2.175,-109.41)" /><linearGradient
       id="a"
       gradientUnits="userSpaceOnUse"><stop
         offset="0"
         stop-color="#4fd2fd"
         id="stop1" /><stop
         offset="1"
         stop-color="#4fd2fd"
         stop-opacity="0"
         id="stop2" /></linearGradient><linearGradient
       xlink:href="#a"
       id="c"
       x1="93.539"
       x2="58.923"
       y1="240.42"
       y2="240.42"
       gradientTransform="matrix(0.975,0,0,0.98939,3.05,-170.32)" /><linearGradient
       xlink:href="#a"
       id="d"
       x1="36.418"
       x2="21.723"
       y1="218.4"
       y2="218.4"
       gradientTransform="matrix(1.0208,0,0,0.9305,-2.175,-157.41)" /><linearGradient
       xlink:href="#a"
       id="e"
       x1="36.418"
       x2="21.723"
       y1="218.4"
       y2="218.4"
       gradientTransform="matrix(1.0208,0,0,0.9305,-2.175,-141.41)" /><linearGradient
       xlink:href="#a"
       id="f"
       x1="36.418"
       x2="21.723"
       y1="218.4"
       y2="218.4"
       gradientTransform="matrix(1.0208,0,0,0.9305,-2.175,-125.41)" /><linearGradient
       id="b"
       x1="7.937"
       x2="7.937"
       y1="15.081"
       y2="1.852"
       gradientTransform="scale(3.7796)"
       gradientUnits="userSpaceOnUse"><stop
         offset="0"
         stop-color="#f1efeb"
         id="stop3" /><stop
         offset="1"
         stop-color="#fdfcfc"
         id="stop4" /></linearGradient><filter
       id="filter1057"
       x="-0.026999999"
       y="-0.026999999"
       width="1.054"
       height="1.054"
       color-interpolation-filters="sRGB"><feGaussianBlur
         stdDeviation="0.61875"
         id="feGaussianBlur1" /></filter><linearGradient
       id="linearGradient1053"
       x1="-127"
       x2="-72"
       y1="60"
       y2="5"
       gradientTransform="matrix(1.0000071,0,0,1.0000071,138.83894,-12.836433)"
       gradientUnits="userSpaceOnUse"><stop
         stop-color="#dee0e2"
         offset="0"
         id="stop1-6" /><stop
         stop-color="#f1f3f5"
         stop-opacity=".99608"
         offset="1"
         id="stop2-7" /></linearGradient><linearGradient
       inkscape:collect="always"
       xlink:href="#linearGradient2"
       id="linearGradient6"
       x1="4"
       y1="56"
       x2="60.132748"
       y2="56"
       gradientUnits="userSpaceOnUse"
       gradientTransform="matrix(0.96666667,0,0,1,1.0666667,-1.0000004)" /></defs><rect
     style="opacity:1;fill:#ffffff;fill-opacity:1;stroke-width:2.63542;stroke-linecap:round"
     id="rect2114"
     width="58"
     height="46"
     x="3"
     y="9"
     ry="3" /><path
     id="rect1"
     style="opacity:1;fill:url(#linearGradient6);fill-opacity:1;stroke-width:2.63542;stroke-linecap:round"
     d="m 3,51 v 3 c 0,1.662 1.2934,3 2.9,3 h 52.2 c 1.6066,0 2.9,-1.338 2.9,-3 v -3 c 0,1.662 -1.2934,3 -2.9,3 H 5.9 C 4.2934,54 3,52.662 3,51 Z" /><g
     id="g1"
     transform="translate(0,1)"><path
       fill="#241f31"
       d="m 9,13 a 2,2 0 0 0 -2,2 v 32 a 2,2 0 0 0 2,2 h 12 a 2,2 0 0 0 2,-2 V 15 a 2,2 0 0 0 -2,-2 z m 19,0 c -2.63,0.037 -2.63,3.963 0,4 h 27 c 2.63,-0.037 2.63,-3.963 0,-4 z m 0,6 a 2,2 0 0 0 -2,2 v 18 a 2,2 0 0 0 2,2 h 27 a 2,2 0 0 0 2,-2 V 21 a 2,2 0 0 0 -2,-2 z m -1,24 c -1.315,0.019 -1.315,1.981 0,2 h 29 c 1.315,-0.019 1.315,-1.981 0,-2 z m 0,4 c -1.315,0.019 -1.315,1.981 0,2 h 29 a 1,1 0 0 0 0,-2 z"
       color="#000000"
       style="-inkscape-stroke:none"
       id="path5" /><path
       fill="#4fd2fd"
       d="m 81.381,225.69 -7.06,16.238 H 54.307 v 2.309 h 21.525 l 4.481,-10.303 3.402,22.137 5.92,-11.834 h 20.057 v -2.309 H 88.21 l -3.312,6.625 z"
       color="#000000"
       opacity="0.35"
       style="-inkscape-stroke:none"
       transform="matrix(0.4875,0,0,0.4947,1.525,-89.16)"
       id="path6" /><path
       fill="url(#c)"
       d="M 82.4,52.945 75.502,69.043 H 57.527 a 1.134,1.134 0 1 0 0,2.266 h 19.47 l 4.353,-10.159 3.32,21.898 5.786,-11.74 h 2.67 a 1.134,1.134 0 0 0 0,-2.266 h -4.08 l -3.215,6.523 z"
       transform="matrix(0.5,0,0,0.5,0,-4)"
       id="path7"
       style="fill:url(#c)" /><path
       fill="#4fd2fd"
       d="m 31.256,212.15 -2.996,6.893 h -8.496 v 0.98 h 9.139 l 1.9,-4.373 1.447,9.395 2.512,-5.022 h 8.514 v -0.98 h -9.12 l -1.406,2.812 z"
       color="#000000"
       opacity="0.35"
       style="-inkscape-stroke:none"
       transform="matrix(0.5104,0,0,0.46525,-1.087,-82.705)"
       id="path8" /><path
       fill="url(#d)"
       d="m 29.719,40.061 -3.02,6.332 h -6.656 a 0.4775,0.4775 0 0 0 0,0.955 h 7.258 l 1.98,-4.148 1.477,8.75 2.526,-4.602 H 34.5 a 0.4775,0.4775 0 0 0 0,-0.955 h -1.783 l -1.474,2.69 z"
       transform="matrix(0.5,0,0,0.5,0,-4)"
       id="path9"
       style="fill:url(#d)" /><path
       fill="#4fd2fd"
       d="m 31.256,212.15 -2.996,6.893 h -8.496 v 0.98 h 9.139 l 1.9,-4.373 1.447,9.395 2.512,-5.022 h 8.514 v -0.98 h -9.12 l -1.406,2.812 z"
       color="#000000"
       opacity="0.35"
       style="-inkscape-stroke:none"
       transform="matrix(0.5104,0,0,0.46525,-1.087,-74.705)"
       id="path10" /><path
       fill="url(#e)"
       d="m 29.719,56.061 -3.02,6.332 h -6.656 a 0.4775,0.4775 0 0 0 0,0.955 h 7.258 l 1.98,-4.148 1.477,8.75 2.526,-4.602 H 34.5 a 0.4775,0.4775 0 0 0 0,-0.955 h -1.783 l -1.474,2.69 z"
       transform="matrix(0.5,0,0,0.5,0,-4)"
       id="path11"
       style="fill:url(#e)" /><path
       fill="#4fd2fd"
       d="m 31.256,212.15 -2.996,6.893 h -8.496 v 0.98 h 9.139 l 1.9,-4.373 1.447,9.395 2.512,-5.022 h 8.514 v -0.98 h -9.12 l -1.406,2.812 z"
       color="#000000"
       opacity="0.35"
       style="-inkscape-stroke:none"
       transform="matrix(0.5104,0,0,0.46525,-1.087,-66.705)"
       id="path12" /><path
       fill="url(#f)"
       d="m 29.719,72.061 -3.02,6.332 h -6.656 a 0.4775,0.4775 0 0 0 0,0.955 h 7.258 l 1.98,-4.148 1.477,8.75 2.526,-4.602 H 34.5 a 0.4775,0.4775 0 0 0 0,-0.955 h -1.783 l -1.474,2.69 z"
       transform="matrix(0.5,0,0,0.5,0,-4)"
       id="path13"
       style="fill:url(#f)" /><path
       fill="#4fd2fd"
       d="m 31.256,212.15 -2.996,6.893 h -8.496 v 0.98 h 9.139 l 1.9,-4.373 1.447,9.395 2.512,-5.022 h 8.514 v -0.98 h -9.12 l -1.406,2.812 z"
       color="#000000"
       opacity="0.35"
       style="-inkscape-stroke:none"
       transform="matrix(0.5104,0,0,0.46525,-1.087,-58.703)"
       id="path14" /><path
       fill="url(#g)"
       d="m 29.719,88.061 -3.02,6.332 h -6.656 a 0.4775,0.4775 0 0 0 0,0.955 h 7.258 l 1.98,-4.148 1.477,8.75 2.526,-4.602 H 34.5 a 0.4775,0.4775 0 0 0 0,-0.955 h -1.783 l -1.474,2.69 z"
       transform="matrix(0.5,0,0,0.5,0,-4)"
       id="path15"
       style="fill:url(#g)" /></g></svg>
