<?xml version="1.0" encoding="UTF-8"?>
<svg width="64" height="64" version="1.1" xmlns="http://www.w3.org/2000/svg">
 <defs>
  <linearGradient id="b" x1="399.57" x2="399.57" y1="545.8" y2="517.8" gradientTransform="matrix(2.1429,0,0,2.1429,-826.36,-1107.5)" gradientUnits="userSpaceOnUse">
   <stop stop-color="#3889e9" offset="0"/>
   <stop stop-color="#5ea5fb" offset="1"/>
  </linearGradient>
  <linearGradient id="linearGradient1053" x1="68" x2="128" y1="62" y2="2" gradientTransform="matrix(.91665 0 0 .91665 7.4341 21.804)" gradientUnits="userSpaceOnUse">
   <stop stop-color="#e0e4e9" offset="0"/>
   <stop stop-color="#fefeff" offset="1"/>
  </linearGradient>
 </defs>
 <circle cx="164.7" cy="32.044" r="30.001" fill-opacity="0" stroke-width="1.5715"/>
 <circle cx="32.02" cy="32.044" r="0" fill="url(#b)" stroke-width="1.5715"/>
 <g transform="translate(-65.266 -19.137)">
  <rect x="69.766" y="23.637" width="55" height="55" ry="2.75" fill="url(#linearGradient1053)" stroke-width="3.4646"/>
  <g stroke-width=".66726">
   <path d="m92.284 61.573s-1.4498 0.88916 1.033 1.1891c3.0083 0.36188 4.5456 0.30977 7.8598-0.35029 0 0 0.87309 0.57547 2.0903 1.0739-7.4321 3.3548-16.82-0.19439-10.983-1.9128z" fill="#3434c8"/>
   <path d="m91.375 57.194s-1.6264 1.2687 0.85833 1.5393c3.2139 0.34958 5.7509 0.37825 10.143-0.51247 0 0 0.60614 0.64873 1.5607 1.0033-8.9844 2.7688-18.991 0.21784-12.563-2.0301z" fill="#3434c8"/>
   <path d="m99.03 49.765c1.8322 2.2221-0.48043 4.2202-0.48043 4.2202s4.6495-2.5285 2.5147-5.6963c-1.9946-2.9528-3.5238-4.4196 4.755-9.4785 8e-5 0-12.996 3.419-6.7892 10.955z" fill="#ff7f28"/>
  </g>
  <g fill="#3434c8" stroke-width=".66726">
   <path d="m108.86 64.812s1.0733 0.93224-1.1821 1.6532c-4.2888 1.3687-17.854 1.7815-21.622 0.05477-1.3534-0.62112 1.1858-1.482 1.9848-1.6639 0.83305-0.18988 1.3087-0.1552 1.3087-0.1552-1.5063-1.1176-9.7359 2.1949-4.1797 3.1449 15.151 2.5877 27.62-1.1655 23.689-3.0338z"/>
   <path d="m92.981 52.656s-6.899 1.727-2.443 2.3547c1.882 0.26535 5.6317 0.2043 9.1268-0.10467 2.8557-0.25252 5.7215-0.79258 5.7215-0.79258s-1.0062 0.45478-1.7347 0.9786c-7.0076 1.9419-20.542 1.0375-16.645-0.94778 3.2942-1.6791 5.9739-1.4882 5.9739-1.4882z"/>
   <path d="m105.36 59.945c7.1227-3.8987 3.8291-7.6457 1.5303-7.1409-0.56214 0.12361-0.81433 0.23066-0.81433 0.23066s0.20944-0.34569 0.60824-0.49442c4.5477-1.6838 8.0444 4.9677-1.4665 7.6019-9e-5 0 0.10934-0.10441 0.14233-0.19731z"/>
  </g>
  <path d="m101.06 30.641s3.9438 4.1576-3.7417 10.549c-6.1632 5.129-1.4052 8.0525-0.0022 11.394-3.5979-3.42-6.237-6.431-4.4669-9.2326 2.5994-4.1124 9.8015-6.1069 8.2109-12.711z" fill="#ff7f28" stroke-width=".66726"/>
  <path d="m93.682 70.513c6.8353 0.46045 17.335-0.25623 17.583-3.6644 0 0-0.47766 1.292-5.6496 2.3171-5.8348 1.1574-13.033 1.0226-17.301 0.28021 0 0 0.87426 0.76244 5.3667 1.067z" fill="#3434c8" stroke-width=".66726"/>
 </g>
</svg>
