<?xml version="1.0" encoding="UTF-8"?>
<svg width="64" height="64" version="1.1" xmlns="http://www.w3.org/2000/svg" xmlns:xlink="http://www.w3.org/1999/xlink">
 <defs>
  <linearGradient id="b" x1="399.57" x2="399.57" y1="545.8" y2="517.8" gradientTransform="matrix(2.1429,0,0,2.1429,-826.36,-1107.5)" gradientUnits="userSpaceOnUse">
   <stop stop-color="#3889e9" offset="0"/>
   <stop stop-color="#5ea5fb" offset="1"/>
  </linearGradient>
  <linearGradient id="linearGradient1018" x1="4.2468" x2="60.026" y1="3.8382" y2="60.016" gradientTransform="translate(67.666 1.6062)" gradientUnits="userSpaceOnUse">
   <stop stop-color="#e5e8e8" offset="0"/>
   <stop stop-color="#8e8e8e" offset="1"/>
  </linearGradient>
  <linearGradient id="linearGradient1010" x1="33.405" x2="17.759" y1="32.721" y2="12.32" gradientTransform="matrix(1.0272 0 0 1.0272 79.013 5.1502)" gradientUnits="userSpaceOnUse">
   <stop stop-color="#197cf1" offset="0"/>
   <stop stop-color="#20bcfa" offset="1"/>
  </linearGradient>
 </defs>
 <circle cx="164.7" cy="32.044" r="30.001" fill-opacity="0" stroke-width="1.5715"/>
 <circle cx="32.02" cy="32.044" r="0" fill="url(#b)" stroke-width="1.5715"/>
 <g transform="translate(-67.665 -1.6062)">
  <path d="m83.467 5.4133c-0.12711 0.01302-0.24907 0.070783-0.34453 0.1668l-4.416 4.4161c-0.18574 0.18628-0.2217 0.47446-0.08477 0.70001l5.1707 8.5204c-0.91736 1.5423-1.6511 3.2033-2.1766 4.9575l-9.4966 1.977c-0.2642 0.05468-0.45391 0.28943-0.45391 0.56055v6.2454c0 0.26419 0.1802 0.49355 0.43477 0.55508l9.2176 2.2531c0.49148 2.0316 1.252 3.9557 2.2586 5.7258l-5.3348 8.1348c-0.14884 0.22735-0.11846 0.52764 0.07383 0.71915l4.4188 4.4188c0.18574 0.18523 0.47351 0.22107 0.70001 0.08477l8.3618-5.0778c1.6421 0.94757 3.4112 1.6928 5.2829 2.1985l1.9496 9.379c0.05488 0.26573 0.29118 0.45391 0.56055 0.45391h6.2481c0.26264 0 0.4924-0.17983 0.55508-0.4375l2.2969-9.3954c1.9293-0.52068 3.7539-1.2981 5.436-2.2887l8.2387 5.4004c0.22651 0.14912 0.52414 0.1212 0.71641-0.07109l4.4188-4.4188c0.18687-0.1868 0.21933-0.47504 0.082-0.70001l-5.6219-7.1204c-2.5243-3.4624-2.2121-3.1095-3.1336-4.0934l-23.278-24.462-3.2703-3.1774c-0.53529 0.18726-0.32149 0.06845-0.06836-0.04649l-8.3672-5.4879c-0.11356-0.074298-0.2448-0.10331-0.37188-0.090235zm8.7419 5.5782 0.06289 0.04102c0.0029 0.0027 0.0048 0.0048 0.0055 0.0055 0.54911-0.29912 0.21443-0.17488-0.06836-0.04649z" fill="url(#linearGradient1018)"/>
  <circle cx="103.67" cy="29.802" r="19" fill="#505050"/>
  <path class="ColorScheme-Text" d="m103.46 15.804a14.002 14 0 0 1 10.105 4.1017 14.002 14 0 0 1 0 19.797 14.002 14 0 0 1-19.8 0 14.002 14 0 0 1 0-19.797 14.002 14 0 0 1 9.6948-4.1017zm0.38287 1.75a12.252 12.25 0 0 0-8.1907 3.001l2.4579 2.4576a8.7508 14.001 45.008 0 1 9.4931-4.7989 12.252 12.25 0 0 0-3.7603-0.65968zm5.2986 2.2867a7.0006 12.251 45.007 0 0-9.7905 4.4127l4.3141 4.3136 7.9651-7.9641a7.0006 12.251 45.007 0 0-2.4887-0.76222zm-14.737 1.9415a12.252 12.25 0 0 0-2.3382 11.919 8.7508 14.001 45.008 0 1 4.8132-9.4441zm18.467 0.0547-7.9685 7.9675 4.3176 4.317a7.0006 12.251 45.007 0 0 3.6509-12.284zm-14.761 3.6505a7.0006 12.251 45.007 0 0-3.6509 12.284l7.9685-7.9675zm17.154 0.42042a8.7508 14.001 45.008 0 1-4.8132 9.4441l2.475 2.4747a12.252 12.25 0 0 0 2.3382-11.919zm-11.599 5.1339-7.9651 7.9641a7.0006 12.251 45.007 0 0 12.279-3.6505zm5.555 5.5543a8.7508 14.001 45.008 0 1-9.4931 4.7989 12.252 12.25 0 0 0 11.951-2.3414z" color="#31363b" fill="#fafafa"/>
  <rect x="90.312" y="16.449" width="26.707" height="26.707" rx="13.353" fill="url(#linearGradient1010)" stroke-width="1.0272"/>
  <path d="m103.64 16.974c-1.6219 0-3.1659 0.30866-4.5927 0.85064-0.10375 0.09513-0.23866 0.16816-0.34537 0.15911-0.01505-0.0017-0.02913-0.01021-0.04453-0.01628-0.70332 0.29352-1.3705 0.65314-2.003 1.0612 0.08216 0.13311 0.10662 0.2813-0.06239 0.35331-0.02836 0.01147-0.38617 0.04816-0.51112 0.04562-1.799 1.3041-3.242 3.0578-4.1644 5.105 0.01487-0.0027 0.02765-0.0091 0.04322-0.0095 0.13999-0.0027 0.34146 0.03749 0.47591 0.06611 0.12408 0.02548 0.22417 0.10848 0.33157 0.11654 0.30475 0.02321 0.37803-0.21336 0.62665-0.34578 0.25693 0.0359 0.42739-0.04361 0.65936-0.01777 0.15813 0.01777 0.27236 0.18598 0.39559 0.19544 0.10365 0.01021 0.19485-0.09691 0.29514-0.08161 0.09745 0.01533 0.26547 0.22694 0.28132 0.34576 0.02056 0.14788-0.10906 0.28104-0.06641 0.44349 0.15532 0.15776 0.43748 0.18972 0.65933 0.28063 0.14452-0.1188 0.01942-0.3392 0-0.51113-0.0027-0.07593 0.01021-0.14322 0-0.21298-0.01268-0.11841-0.06386-0.22686-0.06466-0.32822-0.0027-0.46805 0.37852-0.68712 0.69323-0.87189 0.13622-0.08048 0.2435-0.2217 0.36166-0.28067 0.16697-0.08345 0.29129-0.10292 0.42951-0.1804 0.2498-0.13996 0.46402-0.25228 0.65934-0.41089 0.09013-0.21223 0.0091-0.49681 0.01671-0.70656 0.09023-0.05517 0.16794 0.02373 0.26372 0.01628 0.15069-0.03108 0.16325-0.2435 0.24866-0.32818 0.04944-0.04869 0.1857-0.08319 0.24736-0.13159 0.15022-0.1175 0.19914-0.29506 0.33037-0.34572 0.04708-0.01927 0.15559-0.01305 0.22981-0.03336 0.09761-0.02591 0.23656-0.141 0.39557-0.19538 0.10363-0.0359 0.34099-0.04325 0.38052-0.08258 0.04874-0.04956-6.88e-4 -0.18879 0.01672-0.26307 0.07989-0.3713 0.64059-0.44998 0.972-0.57503 0.2323-0.08749 0.47062-0.24857 0.72589-0.19922-0.0501 0.17648-0.28773 0.11394-0.24745 0.32824 0.0556 0.29737 0.45485-0.08485 0.56018-0.12903 0.20111-0.08442 0.54604-0.13623 0.81-0.23177 0.23147-0.08442 0.64642-0.21322 0.4283-0.47729-0.182-0.01021-0.26968 0.21298-0.4283 0.2806-0.10954 0.01796-0.0884-0.09145-0.18209-0.10016-0.0885-0.01021-0.13859 0.0817-0.22987 0.06585-0.0907-0.01497-0.21812-0.15723-0.23231-0.26306-0.036-0.27455 0.23262-0.38776 0.34664-0.59259-0.0756-0.24832-0.41982-0.0507-0.62794-0.14779 0.0205-0.14787 0.17343-0.24984 0.3466-0.2781 0.14195-0.02372 0.4605-0.01147 0.54506 0.06331 0.0489 0.04211 4e-3 0.14524 0.0828 0.21421 0.084 0.07593 0.18739 0.06778 0.29643 0.05026 0.0388-0.18741-0.24434-0.1404-0.2135-0.26434 0.22273-0.14535 0.58508-0.02617 0.85776-0.0662 0.15694-0.02329 0.32172-0.13363 0.46086-0.21169 0.13231-0.07505 0.30418-0.2057 0.44458-0.08267 0.0373 0.1343-0.12226 0.17874-0.19719 0.24554-0.25224 0.22388-0.51218 0.48036-0.70825 0.74038 0.12026 0.11706 0.3389 0.05805 0.54253 0.08258 0.0795 0.01021 0.17951 0.03362 0.26367 0.04904 0.0985 0.01787 0.2031 0.01217 0.28006 0.03249 0.13856 0.03354 0.17556 0.18166 0.31273 0.18166 0.22558-4.12e-4 0.22827-0.24382 0.10042-0.39589 0.0405-0.15524 0.10363-0.23578 0.0492-0.34452-0.10161-0.20272-0.47441-0.01021-0.49354-0.26307-0.0117-0.16402 0.13756-0.15668 0.19716-0.27935-0.027-0.31689 0.26054-0.33986 0.2298-0.6239-0.0128-0.11882-0.11374-0.12046-0.19717-0.23177-0.0423-0.05429-0.0632-0.15961-0.11176-0.2067-0.38477-0.03354-0.77389-0.05499-1.1679-0.05499zm-6.6359 2.5882h0.0017c0.0769 0.01021 0.16951 0.09316 0.26246 0.1003 0.08762 0.0027 0.16058-0.04852 0.21478-0.03345 0.13786 0.03599 0.196 0.24396 0.06588 0.34576-0.10778 0.01295-0.1498-0.04729-0.23105-0.03258-0.22394 0.03756-0.30986 0.47553-0.47724 0.46105-0.15783-0.01269-0.24326-0.39693-0.08269-0.51112 0.01021-0.09977-0.07323-0.1157-0.06772-0.21425 0.0476-0.06051 0.18281-0.12578 0.31396-0.11523zm-0.7422 0.05158c0.04584 0.0017 0.08016 0.01217 0.09795 0.03232-0.02195 0.17533-0.1594 0.16382-0.29513 0.24553-0.23446 0.14113-0.36997 0.35623-0.44458 0.65771-0.02169 0.08748-0.25262 0.32018-0.36419 0.29691-0.26148-0.05491 0.07262-0.53578 0.13186-0.60887 0.06632-0.08099 0.15458-0.15199 0.23233-0.24553 0.07524-0.09053 0.12451-0.21282 0.19717-0.26307 0.07953-0.05481 0.30683-0.12052 0.44458-0.11521zm1.9516 0.59129c0.08365 0.0017 0.15905 0.01524 0.19341 0.04904-0.05372 0.21722-0.52292 0.15987-0.69447 0.08126 0.01021-0.08188 0.13946-0.10453 0.24738-0.11521 0.07612-0.0027 0.1701-0.01787 0.25368-0.01524zm-1.0675 0.40091c0.05565-0.0017 0.11222 0.01021 0.17078 0.02618-0.15174 0.12662-0.31586 0.19834-0.57646 0.28059-0.12529 0.03914-0.34168 0.08816-0.36292-0.05158-0.02599-0.17107 0.18323-0.13128 0.2976-0.14658 0.14407-0.02013 0.30221-0.10358 0.471-0.10902zm16.378 0.97465c-0.0198 0.0472-0.0335 0.09273-0.0314 0.13777 0.0102 0.07933 0.0974 0.15574 0.11677 0.26312 0.0102 0.0571-0.0268 0.17984 0 0.23176 0.0795 0.15358 0.28717 0.04352 0.43581 0.05158-0.16885-0.23192-0.33747-0.46428-0.5212-0.68398zm0.84269 1.1313c-0.0237 0.11333-0.10085 0.26114-0.16327 0.35577-0.14372 0.21807-0.33895 0.22824-0.54505 0.3445-0.17186 0.09721-0.24586 0.25943-0.34661 0.42846-0.10922 0.1826-0.17684 0.29293-0.13185 0.55753-0.14736 0.29153-0.37046 0.47013-0.67566 0.60882-0.0901 0.04063-0.21357 0.05586-0.29639 0.11521-0.0658 0.04746-0.10339 0.17433-0.19717 0.27934-0.11561 0.12838-0.23686 0.18255-0.29763 0.28063-0.0471 0.07593-0.063 0.22654-0.11551 0.32823-0.0707 0.13816-0.2203 0.20581-0.31278 0.34578-0.0422 0.06454-0.0706 0.19587-0.11674 0.28065-0.10452 0.18933-0.28294 0.32576-0.26377 0.49232 0.0193 0.16098 0.20228 0.18915 0.21474 0.32947 3e-3 0.07933-0.0525 0.12784-0.0492 0.21423 3e-3 0.12624 0.088 0.21484 0.098 0.31195 0.0246 0.2442-0.0831 0.34167-0.12933 0.5086-0.022 0.07968-0.0121 0.16952-0.0336 0.23179-0.0411 0.12223-0.21134 0.23254-0.21477 0.37706-2e-3 0.10274 0.10572 0.18532 0.11435 0.32951 3e-3 0.09953-0.0492 0.20551-0.0311 0.29691 0.0349 0.17895 0.35534 0.3871 0.49484 0.52614 0.18651 0.1861 0.43072 0.3301 0.51112 0.52619 0.0676 0.1665 0.0669 0.38308 0.19718 0.50862 0.0962 0.09263 0.25607 0.15041 0.37927 0.24675 0.11493 0.08984 0.24011 0.16765 0.36295 0.26307 0.20067 0.15666 0.50412 0.46885 0.82383 0.44479 0.16698-0.01147 0.33808-0.14809 0.52751-0.18168 0.19481-0.03468 0.44768-0.05289 0.64421-0.03232 0.15056 0.01497 0.30565 0.1049 0.46216 0.0977 0.16526-0.01021 0.35477-0.13239 0.54256-0.21419 0.15108-0.0655 0.33649-0.13833 0.54001-0.19171 0.0934-0.62571 0.14317-1.2668 0.14317-1.9193 0-2.6268-0.78737-5.0615-2.135-7.0907zm-21.27 4.3108c-0.27392 0.01515-0.45335 0.02733-0.60909 0.09771-0.35677 0.16195-0.28787 0.64288-0.64431 0.75668-0.12318 0.03906-0.29246 0.04125-0.42814 0.06593-0.1172 0.02155-0.25989 0.08494-0.38055 0.08249-0.03352-4.12e-4 -0.08093-0.02557-0.1231-0.03826-0.03141 0.22548-0.05775 0.45353-0.07814 0.68271 0.33913 0.06445 0.51414 0.51315 0.81386 0.66146 0.08216 0.04081 0.18937 0.04325 0.29507 0.06629 0.08495 0.01926 0.15015 0.05491 0.2323 0.08275 0.17445 0.05885 0.388 0.05192 0.52752 0.11406 0.21014 0.09306 0.3643 0.48709 0.54504 0.59256 0.01021 0.10629-0.02109 0.24901 0.0167 0.32819 0.08505 0.11558 0.2059 0.08993 0.34656 0.16537 0.16833 0.09052 0.21984 0.32443 0.37931 0.39588 0.05495 0.02451 0.19303 0.02119 0.28006 0.0479 0.21855 0.06576 0.28989 0.31822 0.47724 0.2631 0.12286-0.0359 0.11316-0.16223 0.13309-0.2794 0.0812-0.08731 0.16982-0.22678 0.29637-0.22925 0.20487-0.01021 0.22313 0.2112 0.29763 0.40966 0.04227 0.11221 0.15212 0.2099 0.18086 0.32824 0.05118 0.20438 0.02573 0.81618-0.01793 0.93837-0.05171 0.14988-0.2551 0.21343-0.38052 0.3796-0.05898 0.07803-0.08715 0.19204-0.13187 0.2468-0.08067 0.09813-0.20077 0.12374-0.26119 0.21423-0.03386 0.05106-0.06729 0.16034-0.10055 0.22924-0.099 0.20931-0.23146 0.3576-0.1482 0.60886 0.03473 0.10339 0.19675 0.1727 0.19719 0.29439 4.73e-4 0.14322-0.30536 0.27144-0.32901 0.42845-0.01786 0.11683 0.09459 0.32532 0.13182 0.47732 0.02721 0.11488 0.24484 0.18668 0.31274 0.26309 0.11572 0.12961 0.20823 0.31325 0.31395 0.47606 0.20907 0.32023 0.3729 0.71074 0.57646 1.021 0.10754 0.16251 0.25861 0.30861 0.33027 0.47729 0.0364 0.08494 0.03141 0.1866 0.06492 0.26309 0.11779 0.2653 0.63816 0.5423 0.9068 0.674 0.12568 0.06077 0.26518 0.08267 0.38054 0.14654 0.17474 0.09723 0.52086 0.3583 0.6091 0.51117 0.07874 0.13738 0.12754 0.47179 0.16574 0.69024 0.05128 0.28872 6e-4 0.51042 0.0167 0.82308 0.01021 0.16911 0.06422 0.33912 0.06649 0.50864 6.43e-4 0.05919-0.03141 0.1035-0.03377 0.16409-9.7e-5 0.0095 0.0036 0.02119 0.0036 0.03108 1.6196 0.7311 3.4142 1.1475 5.3135 1.1475 0.34316 0 0.68226-0.01804 1.0184-0.04431 0.0151-0.02531 0.0282-0.05165 0.0469-0.07513 0.0776-0.10139 0.1462-0.19016 0.19725-0.2794 0.0487-0.30033-0.1201-0.51011-0.0493-0.77291 0.0788-0.29534 0.48803-0.47566 0.77494-0.60894 0.0986-0.0458 0.19966-0.11993 0.27999-0.1478 0.19857-0.06901 0.44647-0.03126 0.62795-0.09769 0.30895-0.11277 0.3412-0.44335 0.49353-0.72414 0.0722-0.13289 0.1668-0.26609 0.18087-0.36077 0.0122-0.08494-0.0312-0.16518-0.0179-0.2656 0.0148-0.09931 0.10421-0.18524 0.13184-0.29441 0.0359-0.14244 0.0517-0.35117 0.0517-0.50984 0-0.13028-0.0609-0.24455-0.0658-0.36208-0.0215-0.42662 0.1545-0.47435 0.31274-0.70654 0.0795-0.11532 0.10911-0.24683 0.1645-0.3295 0.26568-0.39533 0.72658-0.5862 0.69323-1.1839-0.0102-0.19774-0.13543-0.64469-0.28128-0.70778-0.0834-0.03599-0.27488-0.0027-0.39562-0.04912-0.38972-0.14499-0.61842-0.62692-1.0222-0.65774-0.086-0.01021-0.16538 0.03521-0.26245 0.03345-0.15983-0.01021-0.4008-0.11164-0.5777-0.13154-0.11246-0.01147-0.26284 0.03309-0.33035 0-0.10285-0.04999-0.11338-0.23922-0.19716-0.29566-0.0659-0.04607-0.19562-0.06095-0.29639-0.10016-0.16235-0.06174-0.29112-0.13478-0.47845-0.14779-0.0577-0.0027-0.12983 0.02733-0.19716 0.01787-0.10365-0.01787-0.18567-0.13988-0.28128-0.19796-0.11987-0.07304-0.23057-0.10798-0.28009-0.2117 0.10825-0.35426-0.19094-0.453-0.26376-0.6577-0.0346-0.09594-0.0191-0.21135-0.0493-0.2969-0.0433-0.1226-0.16445-0.1934-0.29763-0.29565-0.23861-0.18319-0.45023-0.35519-0.79121-0.39715-0.14991-0.01926-0.29861 0.04518-0.47975 0.03345-0.1919-0.01146-0.43288-0.1796-0.5764-0.34327-0.1396-0.1598-0.20747-0.30321-0.32907-0.37959-0.11516-0.07391-0.26801-0.07215-0.34662-0.14656-0.035-0.03249-0.0287-0.08825-0.0666-0.1654-0.0577-0.11961-0.15515-0.18613-0.0827-0.32945-0.13141-0.06742-0.13502 0.12507-0.27879 0.10016-0.12822-0.18144-0.23644-0.2674-0.52748-0.21422-0.13326 0.02461-0.20766 0.19252-0.36294 0.19673-0.12735 0.01021-0.22741-0.14158-0.39557-0.16542-0.12698-0.01787-0.27136 0.03398-0.36172 0.01751-0.14072-0.02794-0.18415-0.14493-0.31272-0.22926-0.09428-0.06165-0.27742-0.16707-0.33028-0.16536-0.16574 0.01021-0.28383 0.35132-0.51238 0.23054-0.1111-0.14045 0.18091-0.21444 0.04917-0.34584-0.09985-0.09964-0.18381 0.04563-0.2637 0.1003-0.09158 0.06287-0.17763 0.1255-0.27883 0.16286-0.2265 0.08442-0.36805 0.04055-0.54504 0.13155-0.16389 0.0845-0.17088 0.22635-0.26372 0.39462-0.07613 0.13783-0.24885 0.33867-0.36297 0.34699-0.13818 0.01021-0.27025-0.1927-0.39557-0.24676-0.37762-0.16319-0.56055 0.14488-0.87402 0.14907-0.29101 0.01021-0.70663-0.46873-0.69203-0.74164 0.0027-0.16648 0.096-0.41911 0.11552-0.62516 0.01793-0.16383 0.13-0.26254 0.13191-0.41215 0.0027-0.19976-0.26566-0.35336-0.39565-0.37708-0.30804-0.05647-0.73571 0.12366-1.0888-0.01787-0.0672-0.11145 0.0791-0.1885 0.11677-0.2969 0.02161-0.06148 0.0091-0.14391 0.03132-0.21172 0.03875-0.10476 0.14916-0.18594 0.19836-0.2969 0.03631-0.0845 0.0462-0.20687 0.08269-0.31193 0.04367-0.11963 0.12257-0.19671 0.1319-0.28062 0.01147-0.1108-0.02976-0.23891-0.11684-0.31194zm4.4081 3.4815c0.11178 0.01021 0.12575 0.24079 0.01123 0.25934-0.1233 0.01936-0.18597-0.19289-0.06615-0.24809 0.02039-0.01021 0.03945-0.01021 0.05512-0.0095v-0.0017z" fill="#fff" opacity=".5" stroke-width=".69986"/>
 </g>
</svg>
