<?xml version="1.0" encoding="UTF-8"?>
<svg width="64" height="64" version="1.1" xmlns="http://www.w3.org/2000/svg" xmlns:xlink="http://www.w3.org/1999/xlink">
 <defs>
  <linearGradient id="b" x1="399.57" x2="399.57" y1="545.8" y2="517.8" gradientTransform="matrix(2.1429,0,0,2.1429,-826.36,-1107.5)" gradientUnits="userSpaceOnUse">
   <stop stop-color="#3889e9" offset="0"/>
   <stop stop-color="#5ea5fb" offset="1"/>
  </linearGradient>
  <linearGradient id="linearGradient3031" x1="9.591" x2="16.867" y1="-16.139" y2="-8.8634" gradientTransform="matrix(3.7796 0 0 3.7796 75.747 110.58)" gradientUnits="userSpaceOnUse" xlink:href="#linearGradient5523"/>
  <linearGradient id="linearGradient5523">
   <stop stop-color="#ba3921" offset="0"/>
   <stop stop-color="#ed5630" offset="1"/>
  </linearGradient>
  <linearGradient id="linearGradient5525" x1="9.591" x2="16.867" y1="-16.139" y2="-8.8634" gradientTransform="matrix(3.7796 0 0 3.7796 75.747 110.59)" gradientUnits="userSpaceOnUse" xlink:href="#linearGradient5523"/>
  <linearGradient id="linearGradient5509" x1="10.004" x2="15.368" y1="-16.552" y2="-21.916" gradientTransform="matrix(3.7796 0 0 3.7796 75.747 110.59)" gradientUnits="userSpaceOnUse">
   <stop stop-color="#ff9b73" offset="0"/>
   <stop stop-color="#dc8c64" offset="1"/>
  </linearGradient>
  <linearGradient id="linearGradient5517" x1="2.3151" x2="9.5248" y1="-8.8634" y2="-16.139" gradientTransform="matrix(3.7796 0 0 3.7796 75.747 110.59)" gradientUnits="userSpaceOnUse">
   <stop stop-color="#dd4d2b" offset="0"/>
   <stop stop-color="#bc3a22" offset="1"/>
  </linearGradient>
  <linearGradient id="linearGradient5501" x1="2.3812" x2="9.5248" y1="-23.283" y2="-16.139" gradientTransform="matrix(3.7796 0 0 3.7796 75.747 110.59)" gradientUnits="userSpaceOnUse">
   <stop stop-color="#aa5a41" offset="0"/>
   <stop stop-color="#e17855" offset="1"/>
  </linearGradient>
  <linearGradient id="linearGradient7321" x1="3.8543" x2="15.186" y1="-11.827" y2="-11.827" gradientTransform="matrix(3.7796 0 0 3.7796 75.745 110.59)" gradientUnits="userSpaceOnUse">
   <stop stop-color="#9b321e" offset="0"/>
   <stop stop-color="#f55532" offset="1"/>
  </linearGradient>
  <linearGradient id="linearGradient3060" x1="9.7529" x2="17.764" y1="-29.806" y2="-23.42" gradientTransform="translate(-15.656,11.859)" gradientUnits="userSpaceOnUse" xlink:href="#linearGradient5463"/>
  <linearGradient id="linearGradient5463" x1="9.7529" x2="17.764" y1="-29.806" y2="-23.42" gradientTransform="translate(-16.185,11.33)" gradientUnits="userSpaceOnUse">
   <stop stop-color="#6e2313" offset="0"/>
   <stop stop-color="#b74226" offset="1"/>
  </linearGradient>
  <filter id="filter3056" x="-.087333" y="-.087333" width="1.1747" height="1.1747" color-interpolation-filters="sRGB">
   <feGaussianBlur stdDeviation="0.27780551"/>
  </filter>
  <linearGradient id="linearGradient5461" x1="9.7894" x2="17.727" y1="-30.691" y2="-22.754" gradientTransform="matrix(3.7796 0 0 3.7796 42.495 150.59)" gradientUnits="userSpaceOnUse">
   <stop stop-color="#6d2618" offset="0"/>
   <stop stop-color="#af3d20" offset="1"/>
  </linearGradient>
  <linearGradient id="linearGradient4284" x1="9.7529" x2="17.764" y1="-29.806" y2="-23.42" gradientTransform="matrix(3.7796 0 0 3.7796 42.495 150.59)" gradientUnits="userSpaceOnUse" xlink:href="#linearGradient5463"/>
 </defs>
 <circle cx="164.7" cy="32.044" r="30.001" fill-opacity="0" stroke-width="1.5715"/>
 <circle cx="32.02" cy="32.044" r="0" fill="url(#b)" stroke-width="1.5715"/>
 <g transform="translate(-77.385 -17.586)">
  <g stroke-width="3.7796">
   <path d="m112 22.084a27.5 27.5 0 0 0-27.5 27.5h-2e-3a27.5 27.5 0 0 0 2.1719 10.709 27.5 27.5 0 0 0 0.0019 2e-3 27.5 27.5 0 0 0 2.6289 4.8164 27.5 27.5 0 0 0 2e-3 2e-3 27.5 27.5 0 0 0 5.6016 6.0117 27.5 27.5 0 0 0 0.63867 0.45703 27.5 27.5 0 0 0 1.5977 1.1426 27.5 27.5 0 0 0 2e-3 0 27.5 27.5 0 0 0 4.8906 2.4902 27.5 27.5 0 0 0 1.7441 0.58008 27.5 27.5 0 0 0 0.86524 0.28711 27.5 27.5 0 0 0 2e-3 0 27.5 27.5 0 0 0 0.60156 0.13476 27.5 27.5 0 0 0 4.4766 0.75782 27.5 27.5 0 0 0 0.33008 0.04102 27.5 27.5 0 0 0 2e-3 0 27.5 27.5 0 0 0 0.0684 2e-3 27.5 27.5 0 0 0 1.877 0.06836 27.5 27.5 0 0 0 2.7441-0.13867 27.5 27.5 0 0 0 2.7188-0.41016 27.5 27.5 0 0 0 5.2441-1.623 27.5 27.5 0 0 0 2e-3 0 27.5 27.5 0 0 0 4.8164-2.6328 27.5 27.5 0 0 0 2e-3 0 27.5 27.5 0 0 0 4.1992-3.5371 27.5 27.5 0 0 0 7.7735-19.158 27.5 27.5 0 0 0-27.5-27.5v-2e-3z" fill="url(#linearGradient3031)"/>
   <path d="m112 49.587v27.5a27.5 27.5 0 0 0 27.5-27.5z" fill="url(#linearGradient5525)"/>
   <path d="m112 49.587h27.5a27.5 27.5 0 0 0-27.5-27.5z" fill="url(#linearGradient5509)"/>
   <path d="m112 49.587h-27.5a27.5 27.5 0 0 0 27.5 27.5z" fill="url(#linearGradient5517)"/>
   <path d="m112 22.086a27.5 27.5 0 0 0-27.5 27.5h27.5z" fill="url(#linearGradient5501)"/>
  </g>
  <path d="m84.495 49.586a27.5 27.5 0 0 0 27.5 27.5 27.5 27.5 0 0 0 27.5-27.5h-27.5z" fill="url(#linearGradient7321)"/>
  <rect transform="matrix(3.6005 0 0 3.6005 102.89 104.66)" x="-5.8659" y="-18.832" width="7.9373" height="7.9373" ry=".79373" filter="url(#filter3056)" opacity=".5" stroke="url(#linearGradient3060)" stroke-width=".052916"/>
  <rect x="79.496" y="34.585" width="30" height="30" ry="3" fill="url(#linearGradient5461)" stroke="url(#linearGradient4284)" stroke-width=".2"/>
  <path d="m88.926 57.585h5.6825c1.4485 0 2.7187-0.57939 3.5877-1.6713 1.2033-1.5376 1.8719-3.8774 1.8719-6.663 0-4.8579-1.961-7.6657-5.3482-7.6657h-5.7939zm2.6741-13.259h2.6295c2.0724 0 3.0529 1.6267 3.0529 5.0139 0 3.4763-1.1142 5.5042-3.0084 5.5042h-2.6741z" fill="#fff" stroke-width=".5571" style="font-feature-settings:normal;font-variant-caps:normal;font-variant-ligatures:normal;font-variant-numeric:normal"/>
 </g>
</svg>
