<?xml version="1.0" encoding="UTF-8"?>
<svg width="64" height="64" version="1.1" xmlns="http://www.w3.org/2000/svg" xmlns:xlink="http://www.w3.org/1999/xlink">
 <defs>
  <linearGradient id="b" x1="399.57" x2="399.57" y1="545.8" y2="517.8" gradientTransform="matrix(2.1429,0,0,2.1429,-826.36,-1107.5)" gradientUnits="userSpaceOnUse">
   <stop stop-color="#3889e9" offset="0"/>
   <stop stop-color="#5ea5fb" offset="1"/>
  </linearGradient>
  <linearGradient id="linearGradient2049" x1="82" x2="82" y1="-112" y2="-126" gradientTransform="matrix(1 0 0 1 20.243 145.78)" gradientUnits="userSpaceOnUse">
   <stop stop-color="#139252" offset="0"/>
   <stop stop-color="#18814d" offset="1"/>
  </linearGradient>
  <linearGradient id="linearGradient2057" x1="21.497" x2="21.497" y1="-26.061" y2="-29.699" gradientTransform="matrix(3.7796 0 0 3.7796 20.243 145.78)" gradientUnits="userSpaceOnUse">
   <stop stop-color="#0c7d43" offset="0"/>
   <stop stop-color="#0d7340" offset="1"/>
  </linearGradient>
  <linearGradient id="linearGradient2065" x1="21.497" x2="21.497" y1="-22.423" y2="-26.061" gradientTransform="matrix(3.7796 0 0 3.7796 20.243 145.78)" gradientUnits="userSpaceOnUse">
   <stop stop-color="#18492b" offset="0"/>
   <stop stop-color="#144228" offset="1"/>
  </linearGradient>
  <linearGradient id="linearGradient2073" x1="81" x2="81" y1="-71" y2="-85" gradientTransform="matrix(1 0 0 1 20.243 145.78)" gradientUnits="userSpaceOnUse">
   <stop stop-color="#17472a" offset="0"/>
   <stop stop-color="#15482a" offset="1"/>
  </linearGradient>
  <linearGradient id="linearGradient2081" x1="27.516" x2="27.516" y1="-29.633" y2="-33.337" gradientTransform="matrix(3.7796 0 0 3.7796 20.243 145.78)" gradientUnits="userSpaceOnUse">
   <stop stop-color="#2bce87" offset="0"/>
   <stop stop-color="#25b674" offset="1"/>
  </linearGradient>
  <linearGradient id="linearGradient2089" x1="-27.451" x2="-27.451" y1="-29.699" y2="-26.061" gradientTransform="matrix(-3.7796 0 0 3.7796 20.243 145.78)" gradientUnits="userSpaceOnUse">
   <stop stop-color="#16aa63" offset="0"/>
   <stop stop-color="#1fca79" offset="1"/>
  </linearGradient>
  <linearGradient id="linearGradient2097" x1="-27.781" x2="-27.781" y1="-26.092" y2="-22.425" gradientTransform="matrix(-3.7796 0 0 3.7796 20.243 145.78)" gradientUnits="userSpaceOnUse">
   <stop stop-color="#14a25c" offset="0"/>
   <stop stop-color="#1bb869" offset="1"/>
  </linearGradient>
  <linearGradient id="linearGradient2105" x1="25.593" x2="31.111" y1="-20.627" y2="-20.627" gradientTransform="matrix(3.7796 0 0 3.7796 20.243 145.78)" gradientUnits="userSpaceOnUse">
   <stop stop-color="#184f2f" offset="0"/>
   <stop stop-color="#286941" offset="1"/>
  </linearGradient>
  <linearGradient id="linearGradient2015" x1="9.7894" x2="17.727" y1="-22.754" y2="-30.691" gradientTransform="translate(-8.7188,35.823)" gradientUnits="userSpaceOnUse" xlink:href="#linearGradient1985"/>
  <linearGradient id="linearGradient1985" x1="9.7894" x2="17.727" y1="-22.754" y2="-30.691" gradientTransform="translate(-9.248,35.294)" gradientUnits="userSpaceOnUse">
   <stop stop-color="#134629" offset="0"/>
   <stop stop-color="#2ca75d" offset="1"/>
  </linearGradient>
  <filter id="filter2011" x="-.087333" y="-.087333" width="1.1747" height="1.1747" color-interpolation-filters="sRGB">
   <feGaussianBlur stdDeviation="0.27780551"/>
  </filter>
  <linearGradient id="linearGradient1946" x1="9.7894" x2="17.727" y1="-30.691" y2="-22.754" gradientTransform="matrix(3.7796 0 0 3.7796 38.241 148.28)" gradientUnits="userSpaceOnUse">
   <stop stop-color="#0d4d28" offset="0"/>
   <stop stop-color="#0f7c3e" offset="1"/>
  </linearGradient>
  <linearGradient id="linearGradient2646" x1="9.7894" x2="17.727" y1="-22.754" y2="-30.691" gradientTransform="matrix(3.7796 0 0 3.7796 38.241 148.28)" gradientUnits="userSpaceOnUse" xlink:href="#linearGradient1985"/>
 </defs>
 <circle cx="164.7" cy="32.044" r="30.001" fill-opacity="0" stroke-width="1.5715"/>
 <circle cx="32.02" cy="32.044" r="0" fill="url(#b)" stroke-width="1.5715"/>
 <g transform="translate(-72.937 -15.279)">
  <path d="m93.242 19.779c-0.83098 0-1.5808 0.33469-2.123 0.87696-0.54226 0.54226-0.87696 1.2921-0.87696 2.123v10.75h2e-3v38.25c0 0.83098 0.33473 1.5808 0.87696 2.123 0.54226 0.54226 1.2921 0.87696 2.123 0.87696h39c0.83098 0 1.5808-0.33469 2.123-0.87696 0.54226-0.54226 0.87696-1.2921 0.87696-2.123v-38.25h4e-3v-10.75c0-0.83098-0.3347-1.5808-0.87696-2.123-0.5423-0.54226-1.2921-0.87696-2.123-0.87696h-19.5v13.75h-6e-3v-13.75z" fill="#154628" stroke-width="3.7796"/>
  <g stroke-width="3.7796">
   <path d="m93.242 19.779c-0.83098 0-1.5808 0.33468-2.123 0.87694-0.54226 0.54226-0.87694 1.2921-0.87694 2.123v10.75h22.5v-13.75z" fill="url(#linearGradient2049)"/>
   <path d="m90.245 33.529h22.5v13.75h-22.5z" fill="url(#linearGradient2057)"/>
   <path d="m90.245 47.279h22.5v13.75h-22.5z" fill="url(#linearGradient2065)"/>
   <path d="m90.245 61.03v10.75c0 0.83098 0.33472 1.5808 0.87694 2.123 0.54226 0.54226 1.2921 0.87694 2.123 0.87694h19.5v-13.75z" fill="url(#linearGradient2073)"/>
   <path d="m132.25 19.779c0.83098 0 1.5808 0.33468 2.123 0.87694 0.54225 0.54226 0.87694 1.2921 0.87694 2.123v10.75h-22.5v-13.75z" fill="url(#linearGradient2081)"/>
   <path d="m135.24 33.529h-22.5v13.75h22.5z" fill="url(#linearGradient2089)"/>
   <path d="m135.24 47.279h-22.5v13.75h22.5z" fill="url(#linearGradient2097)"/>
   <path d="m135.24 61.03v10.75c0 0.83098-0.33468 1.5808-0.87694 2.123-0.54226 0.54226-1.2921 0.87694-2.123 0.87694h-19.5v-13.75z" fill="url(#linearGradient2105)"/>
  </g>
  <path transform="matrix(3.6902 0 0 3.6902 73.231 15.281)" d="m1.8649 5.1322h6.3498c0.43973 0 0.79373 0.354 0.79373 0.79373v6.3498c0 0.43973-0.354 0.79373-0.79373 0.79373h-6.3498c-0.43973 0-0.79373-0.354-0.79373-0.79373v-6.3498c0-0.43973 0.354-0.79373 0.79373-0.79373z" filter="url(#filter2011)" opacity=".5" stroke="url(#linearGradient2015)" stroke-width=".052916"/>
  <path d="m78.243 32.279h24c1.662 0 3 1.338 3 3v24c0 1.662-1.338 3-3 3h-24c-1.662 0-3-1.338-3-3v-24c0-1.662 1.338-3 3-3z" fill="url(#linearGradient1946)" stroke="url(#linearGradient2646)" stroke-width=".2"/>
  <path d="m96.627 44.718h-3.0002q-0.25599-1.0957-0.6963-1.6384-0.88062-1.1059-2.5804-1.1059-2.4063 0-3.4098 2.3244-0.39935 0.94206-0.51199 2.2015l-0.04096 0.86014q0 3.5839 1.9763 4.8024 0.81918 0.50175 1.8841 0.50175 2.3244 0 3.1026-1.8841 0.21503-0.52223 0.27647-1.1776h3.0617q-0.17408 3.1026-2.5599 4.6591-1.6384 1.0445-3.9628 1.0445-3.6044 0-5.4783-2.6828-1.4438-2.0787-1.4438-5.3042 0-4.3621 2.519-6.5022 1.8022-1.536 4.485-1.536 3.3791 0 5.2018 2.2323l0.14336 0.18432q0.88062 1.1571 1.0342 3.0207z" fill="#fff" style="font-variant-caps:normal;font-variant-east-asian:normal;font-variant-ligatures:normal;font-variant-numeric:normal"/>
 </g>
</svg>
