<?xml version="1.0" encoding="UTF-8"?>
<svg width="64" height="64" version="1.1" xmlns="http://www.w3.org/2000/svg" xmlns:xlink="http://www.w3.org/1999/xlink">
 <defs>
  <linearGradient id="b" x1="399.57" x2="399.57" y1="545.8" y2="517.8" gradientTransform="matrix(2.1429,0,0,2.1429,-826.36,-1107.5)" gradientUnits="userSpaceOnUse">
   <stop stop-color="#3889e9" offset="0"/>
   <stop stop-color="#5ea5fb" offset="1"/>
  </linearGradient>
  <linearGradient id="linearGradient3039" x1="18.875" x2="73.814" y1="-2.0845" y2="-57.191" gradientTransform="translate(53.31 100.63)" gradientUnits="userSpaceOnUse">
   <stop stop-color="#28a8ea" offset="0"/>
   <stop stop-color="#28a8ea" offset="1"/>
  </linearGradient>
  <filter id="filter3155" x="-.036" y="-.036" width="1.072" height="1.072" color-interpolation-filters="sRGB">
   <feGaussianBlur stdDeviation="0.39858175"/>
  </filter>
  <linearGradient id="linearGradient3177" x1="58.134" x2="84.706" y1="-28.681" y2="-2.1085" gradientTransform="translate(42.418 99.671)" gradientUnits="userSpaceOnUse">
   <stop stop-color="#0078d4" offset="0"/>
   <stop stop-color="#0078d4" offset="1"/>
  </linearGradient>
  <filter id="filter3161" x="-.036" y="-.036" width="1.072" height="1.072" color-interpolation-filters="sRGB">
   <feGaussianBlur stdDeviation="0.39858175"/>
  </filter>
  <linearGradient id="linearGradient3059" x1="-73.527" x2="-46.955" y1="-28.681" y2="-2.1085" gradientTransform="translate(146.61 72.118)" gradientUnits="userSpaceOnUse">
   <stop stop-color="#50d9ff" offset="0"/>
   <stop stop-color="#30b9da" offset="1"/>
  </linearGradient>
  <linearGradient id="linearGradient3066" x1="9.7529" x2="17.764" y1="-29.806" y2="-23.42" gradientTransform="translate(-15.656,11.859)" gradientUnits="userSpaceOnUse">
   <stop stop-color="#6e2313" offset="0"/>
   <stop stop-color="#b74226" offset="1"/>
  </linearGradient>
  <filter id="filter3056-2" x="-.087333" y="-.087333" width="1.1747" height="1.1747" color-interpolation-filters="sRGB">
   <feGaussianBlur stdDeviation="0.27780551"/>
  </filter>
  <linearGradient id="linearGradient3071" x1="9.7894" x2="17.727" y1="-30.691" y2="-22.754" gradientTransform="matrix(3.7796 0 0 3.7796 30.849 170.8)" gradientUnits="userSpaceOnUse">
   <stop stop-color="#1683d9" offset="0"/>
   <stop stop-color="#0a65ca" offset="1"/>
  </linearGradient>
  <linearGradient id="linearGradient3073" x1="9.7529" x2="17.764" y1="-29.806" y2="-23.42" gradientTransform="matrix(3.7796 0 0 3.7796 30.849 170.8)" gradientUnits="userSpaceOnUse">
   <stop stop-color="#1683d9" offset="0"/>
   <stop stop-color="#106fc5" offset="1"/>
  </linearGradient>
 </defs>
 <circle cx="164.7" cy="32.044" r="30.001" fill-opacity="0" stroke-width="1.5715"/>
 <circle cx="32.02" cy="32.044" r="0" fill="url(#b)" stroke-width="1.5715"/>
 <g transform="translate(-65.853 -38.507)">
  <path d="m127.12 61.366v-15.772c0-1.017-1.1403-2.1573-2.1573-2.1573h-15.628l-37.153 37.153v15.772c0 1.0282 1.153 2.1812 2.1812 2.1812 5.5534 0 15.604-0.02397 15.604-0.02397z" fill="url(#linearGradient3039)"/>
  <path d="m109.34 97.562h15.628l2.1573-2.1573v-15.772l-8.6428-8.6428h-15.772l-2.1573 2.1573v15.628z" filter="url(#filter3155)" opacity=".3"/>
  <path d="m109.34 97.562h15.628c1.017 0 2.1573-1.1403 2.1573-2.1573v-15.772l-8.6428-8.6428h-15.772c-1.017 0-2.1573 1.1403-2.1573 2.1573v15.628z" fill="url(#linearGradient3177)"/>
  <path transform="matrix(1.0091 0 0 1.0219 140.3 100.29)" d="m-57.814-29.048h15.628l2.1573-2.1573v-15.772l-8.6428-8.6428h-15.772l-2.1573 2.1573v15.628z" filter="url(#filter3161)" opacity=".3"/>
  <path d="m81.869 70.009h15.628c1.017 0 2.1573-1.1403 2.1573-2.1573v-15.772l-8.6428-8.6428h-15.772c-1.017 0-2.1573 1.1403-2.1573 2.1573v15.628z" fill="url(#linearGradient3059)"/>
  <rect transform="matrix(3.6005 0 0 3.6005 91.242 124.87)" x="-5.8659" y="-18.832" width="7.9373" height="7.9373" ry=".79373" filter="url(#filter3056-2)" opacity=".5" stroke="url(#linearGradient3066)" stroke-width=".052916"/>
  <rect x="67.851" y="54.795" width="30" height="30" ry="3" fill="url(#linearGradient3071)" stroke="url(#linearGradient3073)" stroke-width=".2"/>
  <path d="m84.221 61.795h-2.7409v16h2.7409z" fill="#fff" stroke-width=".5571" style="font-feature-settings:normal;font-variant-caps:normal;font-variant-ligatures:normal;font-variant-numeric:normal"/>
 </g>
</svg>
