<?xml version="1.0" encoding="UTF-8"?>
<svg width="64" height="64" version="1.1" viewBox="0 0 64 64" xmlns="http://www.w3.org/2000/svg" xmlns:xlink="http://www.w3.org/1999/xlink">
 <defs>
  <linearGradient id="linearGradient1399" x1="2" x2="62" y1="32" y2="32" gradientTransform="translate(-1.4581e-6)" gradientUnits="userSpaceOnUse" xlink:href="#linearGradient4857"/>
  <linearGradient id="linearGradient4857" x1="17.561" x2="47.561" y1="31.439" y2="31.439" gradientTransform="matrix(.66667 0 0 .66667 10.293 11.041)" gradientUnits="userSpaceOnUse">
   <stop stop-color="#143764" offset="0"/>
   <stop stop-color="#1e509b" offset="1"/>
  </linearGradient>
  <linearGradient id="linearGradient4837" x1="7" x2="57" y1="32" y2="32" gradientTransform="matrix(3.7796 0 0 3.7796 -21.671 -25)" gradientUnits="userSpaceOnUse">
   <stop stop-color="#1e509b" offset="0"/>
   <stop stop-color="#3278d7" offset="1"/>
  </linearGradient>
  <linearGradient id="linearGradient4853" x1="12" x2="52" y1="32" y2="32" gradientTransform="matrix(3.7796 0 0 3.7796 -21.671 -25)" gradientUnits="userSpaceOnUse">
   <stop stop-color="#1e64b4" offset="0"/>
   <stop stop-color="#3296e6" offset="1"/>
  </linearGradient>
  <linearGradient id="linearGradient1429" x1="17.561" x2="47.561" y1="31.439" y2="31.439" gradientTransform="matrix(.66667 0 0 .66667 10.293 11.041)" gradientUnits="userSpaceOnUse" xlink:href="#linearGradient4857"/>
 </defs>
 <circle cx="32" cy="32" r="30" fill="url(#linearGradient1399)"/>
 <circle cx="32" cy="32" r="25" fill="url(#linearGradient4837)"/>
 <circle cx="32" cy="32" r="20" fill="url(#linearGradient4853)"/>
 <circle cx="32" cy="32" r="10" fill="url(#linearGradient1429)"/>
 <g transform="translate(16.563)" fill="#fff" stroke-width=".75993">
  <path d="m15.437 18.094-12.414 4.0612c0 8.5483-0.03814 13.235 1.4649 16.626 1.5039 3.3945 4.5899 5.6282 10.95 9.3126 6.3599-3.6845 9.4456-5.9181 10.95-9.3126 1.503-3.3909 1.4649-8.0781 1.4649-16.626zm0.25894 9.311a2.8447 2.8447 0 0 1 2.8447 2.8447 2.8296 2.8296 0 0 1-1.7274 2.6159l1.7274 5.9192h-5.6902l1.7283-5.9181a2.8287 2.8287 0 0 1-1.7283-2.6168 2.8447 2.8447 0 0 1 2.8456-2.8456z" color="#000000" image-rendering="optimizeSpeed" opacity=".5" overflow="visible" solid-color="#000000" style="isolation:auto;mix-blend-mode:normal"/>
  <path d="m15.438 20.68-10.343 3.6206c0 13.934-0.4017 15.004 10.343 21.208 10.656-6.1592 10.343-7.2686 10.343-21.208zm0.25894 6.7243a2.8447 2.8447 0 0 1 2.8447 2.8456 2.8296 2.8296 0 0 1-1.7274 2.6159l1.7274 5.9192h-5.6902l1.7283-5.9181a2.8287 2.8287 0 0 1-1.7283-2.6168 2.8447 2.8447 0 0 1 2.8456-2.8456z" color="#000000" image-rendering="optimizeSpeed" overflow="visible" solid-color="#000000" style="isolation:auto;mix-blend-mode:normal"/>
 </g>
</svg>
