<?xml version="1.0" encoding="UTF-8" standalone="no"?>
<svg
   inkscape:version="1.2.2 (b0a8486541, 2022-12-01)"
   sodipodi:docname="master-pdf-editor5.svg"
   id="svg29"
   viewBox="0 0 16.933 16.933"
   version="1.1"
   height="64"
   width="64"
   xml:space="preserve"
   xmlns:inkscape="http://www.inkscape.org/namespaces/inkscape"
   xmlns:sodipodi="http://sodipodi.sourceforge.net/DTD/sodipodi-0.dtd"
   xmlns:xlink="http://www.w3.org/1999/xlink"
   xmlns="http://www.w3.org/2000/svg"
   xmlns:svg="http://www.w3.org/2000/svg"
   xmlns:rdf="http://www.w3.org/1999/02/22-rdf-syntax-ns#"
   xmlns:cc="http://creativecommons.org/ns#"
   xmlns:dc="http://purl.org/dc/elements/1.1/"><sodipodi:namedview
     inkscape:current-layer="svg29"
     inkscape:window-maximized="1"
     inkscape:window-y="0"
     inkscape:window-x="0"
     inkscape:cy="-29.655855"
     inkscape:cx="76.867976"
     inkscape:zoom="2.1075096"
     showgrid="false"
     id="namedview31"
     inkscape:window-height="989"
     inkscape:window-width="1920"
     inkscape:pageshadow="2"
     inkscape:pageopacity="0"
     guidetolerance="10"
     gridtolerance="10"
     objecttolerance="10"
     borderopacity="1"
     bordercolor="#666666"
     pagecolor="#ffffff"
     inkscape:showpageshadow="0"
     inkscape:pagecheckerboard="0"
     inkscape:deskcolor="#d1d1d1" /><metadata
     id="metadata2"><rdf:RDF><cc:Work
         rdf:about=""><dc:format>image/svg+xml</dc:format><dc:type
           rdf:resource="http://purl.org/dc/dcmitype/StillImage" /><dc:title /></cc:Work></rdf:RDF></metadata><defs
     id="defs15"><linearGradient
       inkscape:collect="always"
       id="linearGradient584"><stop
         style="stop-color:#e93533;stop-opacity:1"
         offset="0"
         id="stop580" /><stop
         style="stop-color:#aa2b37;stop-opacity:1"
         offset="1"
         id="stop582" /></linearGradient><filter
       color-interpolation-filters="sRGB"
       height="1.048"
       width="1.048"
       y="-.024"
       x="-.024"
       id="filter2761"><feGaussianBlur
         id="feGaussianBlur4"
         stdDeviation="0.14552168" /></filter><linearGradient
       gradientUnits="userSpaceOnUse"
       gradientTransform="translate(23.198642,0.14045)"
       y2="1.1082"
       y1="15.601"
       x2="15.644"
       x1="1.4377"
       id="linearGradient4673"><stop
         id="stop7"
         offset="0"
         stop-color="#dc2828" /><stop
         id="stop9"
         offset="1"
         stop-color="#fa4141" /></linearGradient><filter
       color-interpolation-filters="sRGB"
       height="1.168"
       width="1.168"
       y="-.084"
       x="-.084"
       id="filter909"><feGaussianBlur
         id="feGaussianBlur12"
         stdDeviation="0.27781045" /></filter><filter
       color-interpolation-filters="sRGB"
       height="1.048"
       width="1.048"
       y="-.024"
       x="-.024"
       id="filter2761-675"><feGaussianBlur
         id="feGaussianBlur4-3"
         stdDeviation="0.14552168" /></filter><linearGradient
       gradientUnits="userSpaceOnUse"
       gradientTransform="translate(31.146088,0.14045)"
       y2="1.1082"
       y1="14.536"
       x2="15.644"
       x1="2.2495"
       id="linearGradient4673-562"><stop
         id="stop7-9"
         offset="0"
         stop-color="#ff5050" /><stop
         id="stop9-1"
         offset=".47728"
         stop-color="#fa4b5a" /><stop
         id="stop11"
         offset="1"
         stop-color="#ff7864" /></linearGradient><linearGradient
       gradientUnits="userSpaceOnUse"
       gradientTransform="matrix(0.32664815,0,0,0.32664815,0.63054332,0.95372475)"
       y2="4"
       y1="44"
       x2="0"
       id="linearGradient890"><stop
         id="stop4"
         offset="0"
         stop-color="#FFB900" /><stop
         id="stop6"
         offset="1"
         stop-color="#ff0" /></linearGradient><filter
       color-interpolation-filters="sRGB"
       height="1.048"
       width="1.048"
       y="-.024"
       x="-.024"
       id="filter2761-67"><feGaussianBlur
         id="feGaussianBlur9"
         stdDeviation="0.14552168" /></filter><linearGradient
       gradientUnits="userSpaceOnUse"
       gradientTransform="matrix(3.7796,0,0,3.7796,66.443573,0.53068)"
       y2="1.1082"
       y1="15.601"
       x2="15.644"
       x1="1.4377"
       id="linearGradient4673-5"><stop
         id="stop12"
         offset="0"
         stop-color="#dc2828" /><stop
         id="stop14"
         offset="1"
         stop-color="#fa4141" /></linearGradient><linearGradient
       gradientTransform="scale(0.26457812)"
       gradientUnits="userSpaceOnUse"
       y2="9.67"
       y1="54.592"
       x2="34.134"
       x1="34.134"
       id="linearGradient915"><stop
         id="stop17"
         offset="0"
         stop-color="#ffb900" /><stop
         id="stop19"
         offset="1"
         stop-color="#ff0" /></linearGradient><linearGradient
       id="linearGradient890-3"
       x2="0"
       y1="44"
       y2="4"
       gradientTransform="matrix(1.2346,0,0,1.2346,3.1419,3.6047)"
       gradientUnits="userSpaceOnUse"><stop
         stop-color="#FFB900"
         offset="0"
         id="stop861" /><stop
         stop-color="#ff0"
         offset="1"
         id="stop863" /></linearGradient><filter
       id="filter2761-6"
       x="-.024"
       y="-.024"
       width="1.048"
       height="1.048"
       color-interpolation-filters="sRGB"><feGaussianBlur
         stdDeviation="0.14552168"
         id="feGaussianBlur866" /></filter><filter
       id="filter2761-3"
       x="-.024"
       y="-.024"
       width="1.048"
       height="1.048"
       color-interpolation-filters="sRGB"><feGaussianBlur
         stdDeviation="0.14552168"
         id="feGaussianBlur935" /></filter><filter
       id="filter909-2"
       x="-.084"
       y="-.084"
       width="1.168"
       height="1.168"
       color-interpolation-filters="sRGB"><feGaussianBlur
         stdDeviation="0.27781045"
         id="feGaussianBlur943" /></filter><linearGradient
       id="linearGradient1448"
       x1="3.9686999"
       x2="3.9686999"
       y1="16.403999"
       y2="2.6458001"
       gradientTransform="matrix(0.91667,0,0,0.91667,20.379234,2.3606056)"
       gradientUnits="userSpaceOnUse"><stop
         stop-color="#c82828"
         offset="0"
         id="stop588" /><stop
         stop-color="#f55"
         offset="1"
         id="stop590" /></linearGradient><linearGradient
       inkscape:collect="always"
       xlink:href="#linearGradient584"
       id="linearGradient586"
       x1="-40.312962"
       y1="4.4130836"
       x2="-12.563725"
       y2="30.846142"
       gradientUnits="userSpaceOnUse"
       gradientTransform="matrix(0.52688015,0,0,0.52688015,22.626538,-0.45518635)" /></defs><path
     id="rect455"
     style="fill:url(#linearGradient586);fill-opacity:1;fill-rule:evenodd;stroke-width:0.418347;stroke-linecap:round;stroke-linejoin:round;paint-order:stroke fill markers"
     d="m 2.9470785,1.1359451 c -0.03499,0 -0.06974,9.852e-4 -0.104279,0.00272 -0.03454,0.00174 -0.06886,0.00419 -0.102917,0.00762 -0.03405,0.00344 -0.06803,0.0077 -0.101556,0.012797 -0.03352,0.00509 -0.0667,0.010989 -0.09965,0.017697 -0.03295,0.00671 -0.06568,0.014317 -0.09802,0.022598 -0.03233,0.00828 -0.06416,0.017415 -0.09584,0.027227 -0.03168,0.00981 -0.06322,0.020281 -0.0942,0.031583 -0.03098,0.011302 -0.06151,0.02319 -0.09175,0.03594 -0.03024,0.012749 -0.06011,0.026412 -0.08958,0.040568 -0.02946,0.014156 -0.05848,0.028859 -0.08713,0.04438 -0.02864,0.01552 -0.0569,0.031893 -0.08468,0.048736 -0.02778,0.016843 -0.05508,0.034151 -0.08195,0.052275 -0.02687,0.018124 -0.05331,0.036996 -0.07923,0.056359 -0.02592,0.019363 -0.0513,0.039338 -0.07623,0.059899 -0.02494,0.020561 -0.04934,0.041721 -0.07324,0.063438 -0.0239,0.021717 -0.04741,0.043874 -0.07024,0.066705 -0.02283,0.022831 -0.04499,0.046341 -0.0667,0.070245 -0.02172,0.023903 -0.04288,0.048305 -0.06344,0.07324 -0.02056,0.024935 -0.04053,0.050311 -0.0599,0.076235 -0.01936,0.025923 -0.03824,0.052359 -0.05636,0.07923 -0.01813,0.026871 -0.03571,0.054175 -0.05255,0.081953 -0.01684,0.027777 -0.03295,0.056034 -0.04846,0.084675 -0.01552,0.028641 -0.03022,0.057662 -0.04438,0.087125 -0.01416,0.029464 -0.02782,0.059332 -0.04057,0.089576 -0.01275,0.030244 -0.02464,0.060771 -0.03594,0.091755 -0.0113,0.030983 -0.02204,0.062524 -0.03186,0.094204 -0.0098,0.031681 -0.01867,0.063502 -0.02696,0.095838 -0.0083,0.032336 -0.01589,0.065066 -0.0226,0.098016 -0.0067,0.032951 -0.0126,0.066128 -0.0177,0.09965 -0.0051,0.033523 -0.0094,0.067503 -0.0128,0.1015562 -0.0034,0.034053 -0.0062,0.068375 -0.0079,0.1029171 -0.0017,0.034542 -0.0025,0.069289 -0.0025,0.1042785 V 13.775963 c 0,0.03499 6.85e-4,0.06974 0.0025,0.104279 0.0017,0.03454 0.0045,0.06886 0.0079,0.102917 0.0034,0.03405 0.0077,0.06803 0.0128,0.101556 0.0051,0.03352 0.01099,0.0667 0.0177,0.09965 0.0067,0.03295 0.01432,0.06568 0.0226,0.09802 0.0083,0.03233 0.01714,0.06416 0.02696,0.09584 0.0098,0.03168 0.02055,0.06322 0.03186,0.0942 0.0113,0.03098 0.02319,0.06151 0.03594,0.09175 0.01275,0.03024 0.02641,0.06011 0.04057,0.08958 0.01416,0.02946 0.02886,0.05848 0.04438,0.08713 0.01552,0.02864 0.03162,0.0569 0.04846,0.08467 0.01684,0.02778 0.03442,0.05508 0.05255,0.08195 0.01812,0.02687 0.037,0.05331 0.05636,0.07923 0.01936,0.02592 0.03934,0.0513 0.0599,0.07623 0.02056,0.02493 0.04172,0.04934 0.06344,0.07324 0.02172,0.0239 0.04387,0.04741 0.0667,0.07024 0.02283,0.02283 0.04634,0.04499 0.07024,0.0667 0.0239,0.02172 0.0483,0.04288 0.07324,0.06344 0.02494,0.02056 0.05031,0.04054 0.07623,0.0599 0.02592,0.01936 0.05236,0.03824 0.07923,0.05636 0.02687,0.01813 0.05417,0.03571 0.08195,0.05255 0.02778,0.01684 0.05604,0.03295 0.08468,0.04846 0.02864,0.01552 0.05766,0.03022 0.08713,0.04438 0.02946,0.01416 0.05933,0.02782 0.08958,0.04057 0.03024,0.01275 0.06077,0.02464 0.09175,0.03594 0.03098,0.0113 0.06252,0.02204 0.0942,0.03186 0.03168,0.0098 0.0635,0.01867 0.09584,0.02695 0.03233,0.0083 0.06507,0.01589 0.09802,0.0226 0.03295,0.0067 0.06613,0.0126 0.09965,0.0177 0.03352,0.0051 0.0675,0.0094 0.101556,0.0128 0.03405,0.0034 0.06838,0.0062 0.102917,0.0079 0.03454,0.0017 0.06929,0.0025 0.104279,0.0025 H 13.985892 c 0.03499,0 0.06974,-6.85e-4 0.104278,-0.0025 0.03454,-0.0017 0.06886,-0.0045 0.102917,-0.0079 0.03405,-0.0034 0.06803,-0.0077 0.101556,-0.0128 0.03352,-0.0051 0.0667,-0.01099 0.09965,-0.0177 0.03295,-0.0067 0.06568,-0.01431 0.09802,-0.0226 0.03233,-0.0083 0.06416,-0.01714 0.09584,-0.02695 0.03168,-0.0098 0.06322,-0.02055 0.09421,-0.03186 0.03099,-0.0113 0.06151,-0.02319 0.09175,-0.03594 0.03024,-0.01275 0.06011,-0.02641 0.08958,-0.04057 0.02946,-0.01416 0.05849,-0.02886 0.08713,-0.04438 0.02864,-0.01552 0.0569,-0.03162 0.08468,-0.04846 0.02778,-0.01685 0.05508,-0.03442 0.08195,-0.05255 0.02687,-0.01813 0.05331,-0.037 0.07923,-0.05636 0.02592,-0.01936 0.0513,-0.03934 0.07624,-0.0599 0.02493,-0.02056 0.04934,-0.04172 0.07324,-0.06344 0.0239,-0.02172 0.04741,-0.04387 0.07024,-0.0667 0.02283,-0.02283 0.04499,-0.04634 0.06671,-0.07024 0.02172,-0.0239 0.04288,-0.0483 0.06344,-0.07324 0.02056,-0.02494 0.04053,-0.05031 0.0599,-0.07623 0.01936,-0.02592 0.03824,-0.05236 0.05636,-0.07923 0.01812,-0.02687 0.03571,-0.05417 0.05255,-0.08195 0.01684,-0.02778 0.03294,-0.05603 0.04846,-0.08467 0.01552,-0.02864 0.03022,-0.05766 0.04438,-0.08713 0.01416,-0.02946 0.02782,-0.05933 0.04057,-0.08958 0.01275,-0.03024 0.02464,-0.06077 0.03594,-0.09175 0.0113,-0.03098 0.02204,-0.06252 0.03186,-0.0942 0.0098,-0.03168 0.01867,-0.0635 0.02696,-0.09584 0.0083,-0.03233 0.01589,-0.06507 0.0226,-0.09802 0.0067,-0.03295 0.0126,-0.06613 0.0177,-0.09965 0.0051,-0.03352 0.0094,-0.0675 0.0128,-0.101556 0.0034,-0.03405 0.0062,-0.06837 0.0079,-0.102917 0.0017,-0.03454 0.0025,-0.06929 0.0025,-0.104279 V 3.1569867 c 0,-0.034989 -6.85e-4,-0.069737 -0.0025,-0.1042785 -0.0017,-0.034542 -0.0045,-0.068864 -0.0079,-0.1029171 -0.0034,-0.034053 -0.0077,-0.068033 -0.0128,-0.1015561 -0.0051,-0.033522 -0.01099,-0.066699 -0.0177,-0.09965 -0.0067,-0.03295 -0.01431,-0.06568 -0.0226,-0.098016 -0.0083,-0.032336 -0.01714,-0.064158 -0.02696,-0.095838 -0.0098,-0.03168 -0.02055,-0.063221 -0.03186,-0.094204 -0.0113,-0.030984 -0.02319,-0.06151 -0.03594,-0.091755 -0.01275,-0.030244 -0.02641,-0.060112 -0.04057,-0.089576 -0.01416,-0.029464 -0.02886,-0.058484 -0.04438,-0.087125 -0.01552,-0.028641 -0.03162,-0.056898 -0.04846,-0.084675 -0.01684,-0.027777 -0.03442,-0.055081 -0.05255,-0.081952 -0.01812,-0.026871 -0.037,-0.053306 -0.05636,-0.07923 -0.01936,-0.025924 -0.03934,-0.0513 -0.0599,-0.076235 -0.02056,-0.024935 -0.04172,-0.049337 -0.06344,-0.07324 -0.02172,-0.023904 -0.04387,-0.047414 -0.06671,-0.070245 -0.02283,-0.022831 -0.04634,-0.044988 -0.07024,-0.066705 -0.0239,-0.021717 -0.0483,-0.042877 -0.07324,-0.063439 -0.02494,-0.020561 -0.05031,-0.040535 -0.07624,-0.059899 -0.02592,-0.019363 -0.05236,-0.038235 -0.07923,-0.056359 -0.02687,-0.018124 -0.05418,-0.035432 -0.08195,-0.052275 -0.02778,-0.016843 -0.05603,-0.033216 -0.08468,-0.048736 -0.02864,-0.01552 -0.05766,-0.030223 -0.08713,-0.04438 -0.02946,-0.014156 -0.05933,-0.027818 -0.08958,-0.040568 -0.03024,-0.01275 -0.06077,-0.024637 -0.09175,-0.03594 -0.03098,-0.011302 -0.06252,-0.02177 -0.09421,-0.031583 -0.03168,-0.00981 -0.0635,-0.018946 -0.09584,-0.027227 -0.03233,-0.00828 -0.06507,-0.01589 -0.09802,-0.022598 -0.03295,-0.00671 -0.06613,-0.012603 -0.09965,-0.017697 -0.03352,-0.00509 -0.0675,-0.00936 -0.101556,-0.012797 -0.03405,-0.00344 -0.06837,-0.00588 -0.102917,-0.00762 -0.03454,-0.00174 -0.06929,-0.00272 -0.104278,-0.00272 z m 11.0388135,0 c 0.03499,0 0.06974,9.852e-4 0.104278,0.00272 0.03454,0.00174 0.06886,0.00419 0.102917,0.00762 0.03405,0.00344 0.06803,0.0077 0.101556,0.012797 0.03352,0.00509 0.0667,0.010989 0.09965,0.017697 0.03295,0.00671 0.06568,0.014317 0.09802,0.022598 0.03233,0.00828 0.06416,0.017415 0.09584,0.027227 0.03168,0.00981 0.06322,0.020281 0.09421,0.031583 0.03099,0.011302 0.06151,0.02319 0.09175,0.03594 0.03024,0.012749 0.06011,0.026412 0.08958,0.040568 0.02946,0.014156 0.05849,0.028859 0.08713,0.04438 0.02864,0.01552 0.0569,0.031893 0.08468,0.048736 0.02778,0.016843 0.05508,0.034151 0.08195,0.052275 0.02687,0.018124 0.05331,0.036996 0.07923,0.056359 0.02592,0.019363 0.0513,0.039338 0.07624,0.059899 0.02493,0.020561 0.04934,0.041721 0.07324,0.063438 0.0239,0.021717 0.04741,0.043874 0.07024,0.066705 0.02283,0.022831 0.04499,0.046341 0.06671,0.070245 0.02172,0.023903 0.04288,0.048305 0.06344,0.07324 0.02056,0.024935 0.04053,0.050311 0.0599,0.076235 0.01936,0.025923 0.03824,0.052359 0.05636,0.07923 0.01812,0.026871 0.03571,0.054175 0.05255,0.081953 0.01684,0.027777 0.03294,0.056034 0.04846,0.084675 0.01552,0.028641 0.03022,0.057662 0.04438,0.087125 0.01416,0.029464 0.02782,0.059332 0.04057,0.089576 0.01275,0.030244 0.02464,0.060771 0.03594,0.091755 0.0113,0.030983 0.02204,0.062524 0.03186,0.094204 0.0098,0.031681 0.01867,0.063502 0.02696,0.095838 0.0083,0.032336 0.01589,0.065066 0.0226,0.098016 0.0067,0.032951 0.0126,0.066128 0.0177,0.09965 0.0051,0.033523 0.0094,0.067503 0.0128,0.1015562 0.0034,0.034053 0.0062,0.068375 0.0079,0.1029171 0.0017,0.034542 0.0025,0.069289 0.0025,0.1042785 V 1.1359451 Z M 2.9470785,15.797005 c -0.03499,0 -0.06974,-6.85e-4 -0.104279,-0.0025 -0.03454,-0.0017 -0.06886,-0.0045 -0.102917,-0.0079 -0.03405,-0.0034 -0.06803,-0.0077 -0.101556,-0.0128 -0.03352,-0.0051 -0.0667,-0.01099 -0.09965,-0.0177 -0.03295,-0.0067 -0.06568,-0.01431 -0.09802,-0.0226 -0.03233,-0.0083 -0.06416,-0.01714 -0.09584,-0.02696 -0.03168,-0.0098 -0.06322,-0.02055 -0.0942,-0.03186 -0.03098,-0.0113 -0.06151,-0.02319 -0.09175,-0.03594 -0.03024,-0.01275 -0.06011,-0.02641 -0.08958,-0.04057 -0.02946,-0.01416 -0.05848,-0.02886 -0.08713,-0.04438 -0.02864,-0.01552 -0.0569,-0.03162 -0.08468,-0.04846 -0.02778,-0.01684 -0.05508,-0.03442 -0.08195,-0.05255 -0.02687,-0.01813 -0.05331,-0.037 -0.07923,-0.05636 -0.02592,-0.01936 -0.0513,-0.03934 -0.07623,-0.0599 -0.02494,-0.02056 -0.04934,-0.04172 -0.07324,-0.06344 -0.0239,-0.02172 -0.04741,-0.04387 -0.07024,-0.0667 -0.02283,-0.02283 -0.04499,-0.04634 -0.0667,-0.07024 -0.02172,-0.0239 -0.04288,-0.0483 -0.06344,-0.07324 -0.02056,-0.02494 -0.04053,-0.05031 -0.0599,-0.07624 -0.01936,-0.02592 -0.03824,-0.05236 -0.05636,-0.07923 -0.01813,-0.02687 -0.03571,-0.05417 -0.05255,-0.08195 -0.01684,-0.02778 -0.03295,-0.05603 -0.04846,-0.08468 -0.01552,-0.02864 -0.03022,-0.05766 -0.04438,-0.08713 -0.01416,-0.02946 -0.02782,-0.05933 -0.04057,-0.08958 -0.01275,-0.03024 -0.02464,-0.06077 -0.03594,-0.09175 -0.0113,-0.03098 -0.02204,-0.06252 -0.03186,-0.0942 -0.0098,-0.03168 -0.01867,-0.0635 -0.02696,-0.09584 -0.0083,-0.03233 -0.01589,-0.06507 -0.0226,-0.09802 -0.0067,-0.03295 -0.0126,-0.06613 -0.0177,-0.09965 -0.0051,-0.03352 -0.0094,-0.0675 -0.0128,-0.101556 -0.0034,-0.03405 -0.0062,-0.06837 -0.0079,-0.102917 -0.0017,-0.03454 -0.0025,-0.06929 -0.0025,-0.104279 v 2.021042 z" /><circle
     id="circle21"
     stroke-width=".26458"
     fill="#5e4aa6"
     r="0"
     cy="-335.4"
     cx="-306.19" /><circle
     id="circle23"
     stroke-width=".26458"
     fill-rule="evenodd"
     fill="#5e4aa6"
     r="0"
     cy="-.5775"
     cx="-15.281" /><g
     id="g30"
     fill="#5e4aa6"
     transform="scale(0.26457812)"><circle
       id="circle24"
       r="0"
       cy="-1241.6"
       cx="-1248.7" /><circle
       id="circle26"
       r="0"
       cy="-1301.8"
       cx="-1140.3" /><circle
       id="circle28"
       r="0"
       cy="-1246"
       cx="-1158.1" /></g><circle
     id="circle36"
     fill="#5e4aa6"
     r="0"
     cy="-335.40567"
     cx="-306.19626"
     style="stroke-width:0.264578" /><circle
     id="circle38"
     fill-rule="evenodd"
     fill="#5e4aa6"
     r="0"
     cy="-0.57754755"
     cx="-15.280974"
     style="stroke-width:0.264578" /><g
     id="g1025"
     style="fill:#ffffff;fill-opacity:1"
     transform="matrix(1.3384649,0,0,1.3384649,-21.738965,8.2254897)"><path
       style="fill:#ffffff;fill-opacity:1;stroke:none;stroke-width:0.264578px;stroke-linecap:butt;stroke-linejoin:miter;stroke-opacity:1"
       d="m 19.90856,-1.7414994 -1.788954,4.197766 h 2.126345 L 21.163967,0.42407764 20.198529,-1.7312784 c 0,0 -0.130537,-0.378298 -0.289969,-0.010221 z"
       id="path412" /><path
       style="fill:#ffffff;fill-opacity:1;stroke:none;stroke-width:0.264578px;stroke-linecap:butt;stroke-linejoin:miter;stroke-opacity:1"
       d="m 20.101871,-2.1307464 c 0,0 0.172889,0.138187 0.288504,0.338439 0.115616,0.200251 1.4837,3.3705098 1.4837,3.3705098 0,0 0.110964,0.2663119 0.24412,0 0.133156,-0.2663119 0.979268,-2.18198876 0.979268,-2.18198876 0,0 -0.325621,-1.24403204 -0.894477,-1.52649804 z"
       id="path968"
       sodipodi:nodetypes="cscsccc" /><path
       style="fill:#ffffff;fill-opacity:1;stroke:none;stroke-width:0.264578px;stroke-linecap:butt;stroke-linejoin:miter;stroke-opacity:1"
       d="m 26.262674,0.67384964 c -0.152575,-0.19141 -0.61862,0.01942 -0.61862,0.01942 0,0 -2.98206,1.05683106 -3.260604,1.14706306 -0.278543,0.090232 -0.149079,-0.2118499 -0.149079,-0.2118499 l 1.029537,-2.22117316 1.082309,-0.367393 c 0,0 0.410565,-0.11096304 0.538172,0.02774 0.127608,0.138704 1.370585,1.597159 1.378285,1.606193 z"
       id="path1017"
       sodipodi:nodetypes="ccscccsc" /><path
       style="fill:#ffffff;fill-opacity:1;stroke:none;stroke-width:0.264578px;stroke-linecap:butt;stroke-linejoin:miter;stroke-opacity:1"
       d="m 24.385054,1.3202128 c 0,0 -0.03329,0.1775412 0.05548,0.3328898 0.08877,0.1553487 0.405016,0.8377732 0.405016,0.8377732 h 2.169333 L 26.338006,0.95958204 c 0,0 -0.09987,-0.2718604 -0.593653,-0.1109633 C 25.250566,1.0095156 24.385052,1.3202128 24.385052,1.3202128 Z"
       id="path1019" /></g></svg>
