<?xml version="1.0" encoding="UTF-8" standalone="no"?>
<svg
   width="64"
   height="64"
   version="1"
   id="svg8"
   sodipodi:docname="myrlyn.svg"
   xml:space="preserve"
   inkscape:version="1.4.2 (ebf0e940d0, 2025-05-08)"
   xmlns:inkscape="http://www.inkscape.org/namespaces/inkscape"
   xmlns:sodipodi="http://sodipodi.sourceforge.net/DTD/sodipodi-0.dtd"
   xmlns:xlink="http://www.w3.org/1999/xlink"
   xmlns="http://www.w3.org/2000/svg"
   xmlns:svg="http://www.w3.org/2000/svg"><sodipodi:namedview
     id="namedview8"
     pagecolor="#505050"
     bordercolor="#eeeeee"
     borderopacity="1"
     inkscape:showpageshadow="0"
     inkscape:pageopacity="0"
     inkscape:pagecheckerboard="0"
     inkscape:deskcolor="#505050"
     inkscape:zoom="4.2094951"
     inkscape:cx="60.696116"
     inkscape:cy="27.081633"
     inkscape:window-width="1920"
     inkscape:window-height="1003"
     inkscape:window-x="0"
     inkscape:window-y="0"
     inkscape:window-maximized="1"
     inkscape:current-layer="svg8" /><defs
     id="defs8"><linearGradient
       inkscape:collect="always"
       xlink:href="#linearGradient1051"
       id="linearGradient1053"
       x1="-127"
       y1="60"
       x2="-72"
       y2="5"
       gradientUnits="userSpaceOnUse"
       gradientTransform="translate(131.50028,0.38985312)" /><linearGradient
       inkscape:collect="always"
       id="linearGradient1051"><stop
         style="stop-color:#8cd750;stop-opacity:1"
         offset="0"
         id="stop1047" /><stop
         id="stop989"
         offset="0.4958486"
         style="stop-color:#7dcd32;stop-opacity:0.99607843" /><stop
         style="stop-color:#87d241;stop-opacity:0.99607843"
         offset="1"
         id="stop1049" /></linearGradient><linearGradient
       id="linearGradient1053-2"
       x1="68"
       x2="128"
       y1="62"
       y2="2"
       gradientTransform="matrix(0.91666687,0,0,0.91666687,-57.832067,2.6662829)"
       gradientUnits="userSpaceOnUse"><stop
         stop-color="#e0e4e9"
         offset="0"
         id="stop1" /><stop
         stop-color="#fefeff"
         offset="1"
         id="stop2" /></linearGradient><linearGradient
       inkscape:collect="always"
       xlink:href="#linearGradient1051"
       id="linearGradient5"
       gradientUnits="userSpaceOnUse"
       gradientTransform="translate(132.21641,0.38985312)"
       x1="-127"
       y1="60"
       x2="-72"
       y2="5" /></defs><rect
     x="4.4996166"
     y="4.4996166"
     width="55.000767"
     height="55.000767"
     ry="2.7500007"
     fill="url(#linearGradient1053-2)"
     stroke-width="3.46465"
     id="rect2"
     style="fill:url(#linearGradient1053-2)" /><path
     id="path5"
     style="fill:url(#linearGradient5);fill-opacity:1;stroke-width:2.74436;stroke-linecap:round"
     d="m 40.737303,21.370556 c -1.244227,-0.02153 -2.486992,0.148693 -3.232422,0.519531 -2.386165,1.187078 -3.79026,3.342011 -3.976562,6.103516 -0.141696,2.100099 0.425499,3.755365 1.820312,5.302734 1.921802,2.131997 4.621449,2.825886 7.580078,1.947266 2.74141,-0.81411 4.951172,-3.843819 4.951172,-6.787109 0,-2.478658 -1.701909,-5.292664 -3.902343,-6.455079 -0.751007,-0.396732 -1.996009,-0.609329 -3.240235,-0.630859 z m 1.279297,3.724609 c 1.355252,0.01702 2.700602,0.636837 2.947266,1.580079 0.348453,1.332487 -1.85205,2.588189 -3.808594,2.173828 -2.32431,-0.492251 -2.82201,-2.380149 -0.890625,-3.378907 0.517379,-0.267547 1.135929,-0.382699 1.751953,-0.375 z" /><path
     id="path6"
     style="fill:url(#linearGradient1053);fill-opacity:1;stroke-width:2.74436;stroke-linecap:round"
     d="M 4.5 12.197266 L 4.5 54.898438 C 7.2407829 54.551747 13.710582 54.65581 18.791016 55.220703 C 24.657166 55.872965 29.471902 55.912199 34.390625 55.34375 C 41.321686 54.542759 45.974309 53.24848 51.394531 50.615234 C 55.242931 48.745608 56.126551 47.894155 56.933594 45.28125 C 57.926011 42.068176 57.73736 41.910524 54.720703 43.429688 C 50.40839 45.601335 44.380866 47.039657 41.117188 46.675781 C 37.467301 46.268847 31.803381 44.34248 24.998047 41.191406 L 20.632812 39.169922 L 19.367188 36.138672 C 18.671057 34.471802 18.144896 33.064089 18.197266 33.011719 C 18.249576 32.959359 19.459969 33.651925 20.886719 34.550781 C 26.606339 38.154171 32.484338 40.886825 37.789062 42.40625 C 39.804941 42.983655 40.806301 43.106222 43.494141 43.107422 C 48.127173 43.109422 51.102374 42.128895 56.080078 38.960938 L 58.068359 37.697266 L 57.921875 36.554688 C 57.675498 34.634276 54.843584 26.446352 53.429688 23.566406 C 51.625527 19.891536 50.091116 18.317811 46.804688 16.767578 C 40.451862 13.770904 29.981156 10.917962 17.441406 8.7675781 C 12.763575 7.9654001 13.195312 7.7448442 13.195312 10.931641 C 13.195312 12.356597 13.097804 13.537889 12.980469 13.644531 C 12.979269 13.6449 12.975109 13.646184 12.974609 13.646484 C 12.973609 13.646684 12.96975 13.648237 12.96875 13.648438 C 12.84339 13.648438 11.772234 13.34952 10.589844 12.984375 C 9.7718859 12.731772 6.6132532 12.428799 4.5 12.197266 z M 39.962891 18.675781 C 42.536521 18.675781 42.76985 18.723132 44.378906 19.595703 C 46.44265 20.714848 48.055391 22.409844 49.021484 24.470703 C 49.64528 25.801385 49.744141 26.366236 49.744141 28.59375 C 49.744141 30.900181 49.659001 31.349139 48.945312 32.802734 C 47.286538 36.181222 44.127914 38.333785 40.541016 38.529297 C 39.414512 38.590697 38.091867 38.485337 37.380859 38.277344 C 35.325057 37.675958 33.994471 36.845252 32.550781 35.265625 C 27.860561 30.13377 29.520124 22.237015 35.908203 19.291016 C 37.015687 18.780276 37.712064 18.675781 39.962891 18.675781 z " /></svg>
