<?xml version="1.0" encoding="UTF-8"?>
<!-- Created with Inkscape (http://www.inkscape.org/) -->
<svg width="64" height="64" version="1.1" viewBox="0 0 16.933 16.933" xmlns="http://www.w3.org/2000/svg">
 <defs>
  <linearGradient id="linearGradient851-3" x1="8.2021" x2="8.2021" y1="293.56" y2="291.71" gradientTransform="matrix(3.6666 0 0 1 -23.442 -277.97)" gradientUnits="userSpaceOnUse">
   <stop stop-color="#323232" offset="0"/>
   <stop offset="1"/>
  </linearGradient>
  <linearGradient id="linearGradient865-6" x1="8.2021" x2="8.2021" y1="293.39" y2="294.09" gradientTransform="matrix(.58333 0 0 1.0191 2.1789 -283.58)" gradientUnits="userSpaceOnUse">
   <stop stop-color="#323232" offset="0"/>
   <stop offset="1"/>
  </linearGradient>
  <linearGradient id="linearGradient920" x1="2" x2="62" y1="16" y2="51" gradientTransform="matrix(.26459 0 0 .26459 -1.3488 .26565)" gradientUnits="userSpaceOnUse">
   <stop stop-color="#3c3c3c" offset="0"/>
   <stop stop-color="#1e1e1e" offset="1"/>
  </linearGradient>
  <linearGradient id="linearGradient1458" x1="75" x2="135" y1="-21" y2="14" gradientTransform="matrix(.24695 0 0 .23425 -18.811 9.9492)" gradientUnits="userSpaceOnUse">
   <stop stop-color="#32b4ff" offset="0"/>
   <stop stop-color="#2db4ff" offset=".2964"/>
   <stop stop-color="#5087e1" offset=".72739"/>
   <stop stop-color="#5a7dd2" offset="1"/>
  </linearGradient>
  <linearGradient id="linearGradient1005-3-6" x1="15.087" x2="3.1808" y1="15.187" y2="3.2805" gradientTransform="matrix(.58332 0 0 .58333 -1.1485 1.3259)" gradientUnits="userSpaceOnUse">
   <stop stop-color="#26576d" offset="0"/>
   <stop stop-color="#58b1dd" offset=".67617"/>
   <stop stop-color="#58b1de" offset="1"/>
  </linearGradient>
  <linearGradient id="linearGradient1134-5" x1="300.65" x2="327.81" y1="70.232" y2="36.997" gradientTransform="matrix(.17706 0 0 .17887 -50.994 -3.5206)" gradientUnits="userSpaceOnUse">
   <stop stop-color="#d2edf3" offset="0"/>
   <stop stop-color="#add4dd" offset="1"/>
  </linearGradient>
 </defs>
 <g transform="translate(1.3487 -.41914)">
  <rect x="5.6627" y="13.751" width="2.9104" height="1.8521" ry="0" fill="url(#linearGradient851-3)" image-rendering="optimizeSpeed" stroke-width="1.9149"/>
  <rect x="2.4877" y="15.602" width="9.2605" height=".53928" ry=".26964" fill="url(#linearGradient865-6)" image-rendering="optimizeSpeed" stroke-width=".77103"/>
  <rect x="-.81961" y="4.499" width="15.875" height="9.2605" ry=".52917" fill="url(#linearGradient920)" image-rendering="optimizeSpeed" stroke-width=".26458"/>
  <rect x="-.29044" y="5.03" width="14.817" height="8.1987" ry=".24844" fill="url(#linearGradient1458)" image-rendering="optimizeSpeed" stroke-width=".25193"/>
  <path d="m8.4404 6.2608c0 0.55506-0.097703 1.0872-0.27687 1.5805-0.12454 0.34281-0.28839 0.66691-0.48644 0.96669-0.082964 0.12605-0.17216 0.24777-0.26684 0.36475-0.30312 0.37438-0.66334 0.70038-1.0677 0.96499-0.14892 0.09752-0.3037 0.18672-0.46395 0.26665-0.62228 0.31143-1.3248 0.48662-2.0682 0.48662s-1.4459-0.17519-2.0682-0.48662c-0.16026-0.079946-0.31523-0.16915-0.46415-0.26665-0.40953-0.26817-0.77408-0.59931-1.0797-0.97989-0.094863-0.11792-0.18388-0.24077-0.26684-0.36795-0.19277-0.29481-0.35244-0.6129-0.47453-0.9491-0.17914-0.49308-0.27667-1.025-0.27667-1.5799 0-2.5571 2.0729-4.6301 4.63-4.6301 1.2836 0 2.4451 0.52235 3.2838 1.366 0.2417 0.24302 0.45658 0.51291 0.63947 0.80471 0.17292 0.27479 0.31749 0.56922 0.42993 0.87895 0.17919 0.49325 0.27688 1.0254 0.27688 1.5805z" fill="url(#linearGradient1005-3-6)" stroke-width=".018087"/>
  <path d="m3.8157 1.9139-0.54397 0.31337c-0.068008 0.048223-0.090835 0.14462-0.022826 0.19284l0.15873 0.12053c0.022672 0.024107 0.067931 0.024107 0.090604 0.024107l0.47618-0.12053h0.022826l0.33994-0.19284c0.11335-0.048223 0.11335-0.19284 0-0.21695l-0.43089-0.12053zm2.1766 0.26515-0.86174 0.16874c-0.022672 0-0.022625-5.4e-6 -0.045298 0.024107l-1.0426 0.6512c-0.022672 0-0.045468 0.024107-0.068124 0.024107h-0.74797c-0.022672 0-0.04546-7.7e-6 -0.068124 0.024107l-1.247 0.89184c-0.068008 0.04823-0.068008 0.14462 0 0.19284l0.22685 0.19284c0.022672 0.024115 0.090758 0.024107 0.11343 0.024107l0.83859-0.4339c0.045344-0.024115 0.090758-0.024115 0.11343 0l0.31746 0.24105c0.045344 0.024115 0.11338 0.02413 0.15873-0.024108l0.11342-0.14464c0.022672-0.048231 0.090558-0.048223 0.13591-0.024107l0.47618 0.24105s0.022479-1.16e-5 0.022479 0.024108l0.29463 0.26551c0.022672 0.024115 0.068271 0.024107 0.090951 0.024107l0.29463-0.048207c0.090681-0.024115 0.15857 0.072292 0.13591 0.14463l-0.090604 0.28927c-0.022673 0.048231 1.543e-4 0.096415 0.022818 0.12053l0.72519 0.69905c0.022673 0.024116 0.022619 0.048215 0.045298 0.072315l0.068124 0.48245c0 0.07233 0.09072 0.12054 0.15874 0.096422l0.58927-0.24105c0.022672 0 0.045645-0.024093 0.045645-0.048215l0.33994-0.48245c0.045344-0.04823 0.045298-0.072307 0.045298-0.12053l-0.045298-0.31337c-0.022672-0.096445 0.067893-0.16874 0.13591-0.14463l0.43089 0.14463c0.045344 0.024107 0.067777 0.048207 0.067777 0.096422l0.18155 0.89222c0.022672 0.096446 0.13602 0.12054 0.20403 0.048207l0.27216-0.36157c-0.18135-1.6154-1.1335-2.9899-2.4484-3.6891zm-0.24968 1.4467 0.56679 0.24105c0.034009 0.024107 0.056858 0.054188 0.065362 0.087332 0.0085 0.033152 0.00262 0.069336-0.020056 0.1055l-0.15838 0.24106c-0.022672 0.04823-0.068086 0.048207-0.11342 0.048207l-0.49866-0.072314c-0.068008 0-0.11362-0.072307-0.090951-0.14463l0.11343-0.38568c0.022673-0.07233 0.090558-0.096407 0.13591-0.12053zm-2.8111 1.0851-0.88389 0.072315c-0.11335 0-0.22678 0.072292-0.31746 0.16874l-0.56679 0.62673c-0.045344 0.04823-0.068124 0.096399-0.068124 0.16874v0.72349c0 0.07233 0.045614 0.14462 0.090951 0.19284l0.43054 0.31337c0.045344 0.024115 0.09072 0.048207 0.15873 0.048207l0.88428-0.096422c0.090681 0 0.18117 0.048207 0.22651 0.12053l0.58961 1.1092c0.022673 0.048223 0.045152 0.12051 0.022479 0.16874l-0.11308 0.43424c-0.022673 0.07233-1.952e-4 0.14462 0.022479 0.19284l0.52149 0.84368c0.045337 0.07233 0.13583 0.12054 0.22651 0.096422l0.70305-0.12053c0.068008 0 0.13606-0.0482 0.15873-0.12053l0.65742-1.1815c0.022672-0.04823 0.022479-0.072307 0.022479-0.12053v-0.65081c0-0.07233 0.022788-0.14462 0.068124-0.19284l0.56679-0.53067c0.11335-0.096438 0.11335-0.26514 0-0.36157l-0.29464-0.24105-0.77082-0.60298c-0.045344-0.04823-0.090951-0.12051-0.090951-0.19284l-0.022479-0.43389c0.022672-0.07233-0.090681-0.16874-0.20403-0.16874h-1.3148c-0.022673 0-0.045614 9.2e-6 -0.090951-0.024107l-0.52114-0.21695c-0.022672-0.024108-0.068271-0.024108-0.090951-0.024108zm3.5142 3.496c-0.022672 0-0.068132 0.024093-0.068132 0.048215l-0.38524 0.57887c-0.022672 0.024116-0.022826 0.072308-0.022826 0.096422l0.068124 0.36157c0.022672 0.07233 0.11338 0.12054 0.15873 0.072314l0.31712-0.19284c0.022672-0.024107 0.045306-0.048215 0.045306-0.072314l0.18155-0.7476c0.022672-0.07233-0.045422-0.14463-0.11343-0.14463z" fill="url(#linearGradient1134-5)" stroke-width=".63636"/>
 </g>
</svg>
