<?xml version="1.0" encoding="UTF-8"?>
<svg width="64" height="64" version="1.1" viewBox="0 0 16.933 16.933" xmlns="http://www.w3.org/2000/svg" xmlns:xlink="http://www.w3.org/1999/xlink">
 <defs>
  <linearGradient id="linearGradient35041">
   <stop stop-color="#fff" offset="0"/>
   <stop stop-color="#aaf8ad" offset="1"/>
  </linearGradient>
  <linearGradient id="linearGradient1101" x1="8.2499" x2="8.2499" y1="2.5499" y2="14.749" gradientUnits="userSpaceOnUse">
   <stop stop-color="#76dd38" offset="0"/>
   <stop stop-color="#14ab4b" offset="1"/>
  </linearGradient>
  <linearGradient id="linearGradient35043" x1="9.107" x2="9.107" y1="4.9813" y2="11.952" gradientUnits="userSpaceOnUse" xlink:href="#linearGradient35041"/>
 </defs>
 <path d="m1.9844 1.1906c-0.43972 0-0.79375 0.35403-0.79375 0.79375v12.964c0 0.43972 0.35403 0.79375 0.79375 0.79375h12.964c0.43973 0 0.79375-0.35403 0.79375-0.79375v-12.964c0-0.43972-0.35403-0.79375-0.79375-0.79375z" fill="url(#linearGradient1101)"/>
 <g transform="matrix(1.0165 0 0 1.0165 -.13994 -.13994)" fill="url(#linearGradient35043)">
  <path d="m7.317 9.5116v-5.291e-4c-0.065-0.012501-0.1123-0.029608-0.17105-0.049608-0.895-0.3075-1.1865-1.3787-1.1865-1.3787s0.51888-0.63624 1.1839-0.55499h0.00259c0.06875 0.0087 0.1123 0.020873 0.17105 0.034622v-0.59994c-0.0625 0.0038-0.1098 0.010287-0.17105 0.016536-1.2662 0.14-2.0288 1.0046-2.0288 1.0046s0.44003 1.6904 2.0288 1.9792c0.06125 0.012501 0.1073 0.019888 0.17105 0.027388z"/>
  <path d="m7.317 6.33v0.63252c0.05-0.00249 0.11906-0.0062 0.17156-0.0062 1.09 0 1.7373 0.86866 1.7373 0.86866l-0.88727 0.76531c-0.35625-0.60876-0.51787-0.91262-1.0216-1.0289v1.9502c0 0.1 0.22029 0.032038 0.33279 0.032039 1.2925 0 2.5001-1.7146 2.5001-1.7146s-1.1328-1.5504-2.8328-1.4991z"/>
  <path d="m7.317 11.113v-0.54259c-0.06375-0.0038-0.1098-0.01111-0.17105-0.0186-2.1013-0.27125-2.8199-2.6411-2.8199-2.6411 0 0 0.93993-1.4226 2.8199-1.5689 0.06-0.0038 0.10855-0.00852 0.17105-0.00982v-0.51521c-0.0625 0.00249-0.1098 0.00482-0.17105 0.00982-2.0825 0.17-3.885 1.975-3.885 1.975s1.0212 3.0227 3.885 3.299c0.0625 0.0063 0.1073 0.0099 0.17105 0.01241z"/>
  <path d="m7.317 11.952h6.355v-6.9705h-6.355v0.83404l0.10542-0.00259c2.305-0.014999 3.7997 1.99 3.7997 1.99s-1.771 2.2024-3.6173 2.2024c-0.1 0-0.19533-5e-3 -0.28783-0.014986v0.5798c0.0675 5e-3 0.13774 0.0062 0.20774 0.0062 1.7175 0 2.9612-0.89622 4.1625-1.9575 0.2 0.1625 1.0164 0.56004 1.1839 0.73379-1.1438 0.98-3.8087 1.7689-5.32 1.7689-0.08 0-0.15784-0.0028-0.23409-0.0078z"/>
 </g>
</svg>
