<?xml version="1.0" encoding="UTF-8"?>
<svg width="64" height="64" version="1.1" viewBox="0 0 64 64" xmlns="http://www.w3.org/2000/svg" xmlns:xlink="http://www.w3.org/1999/xlink">
 <defs>
  <linearGradient id="linearGradient3576" x1="8.8116" x2="13.84" y1="6.408" y2="13.441" gradientUnits="userSpaceOnUse">
   <stop stop-color="#fdfeff" offset="0"/>
   <stop stop-color="#cdcccb" offset="1"/>
  </linearGradient>
  <linearGradient id="linearGradient36951" x1="-18.865" x2="-14.239" y1="6.7286" y2="9.3024" gradientTransform="matrix(1.2564 0 0 1.2564 31.95 1.1891)" gradientUnits="userSpaceOnUse" xlink:href="#linearGradient29351"/>
  <linearGradient id="linearGradient29351">
   <stop stop-color="#b2b2b3" offset="0"/>
   <stop stop-color="#7e7e81" offset="1"/>
  </linearGradient>
 </defs>
 <g transform="matrix(3.7796 0 0 3.7796 .92152 -.79162)">
  <circle cx="8.8147" cy="8.7277" r="7.2759" fill="url(#linearGradient3576)" fill-rule="evenodd" stroke-linecap="round" stroke-linejoin="round" stroke-width=".53294"/>
  <g fill="url(#linearGradient36951)">
   <path d="m15.346 10.516c-1.5634 4.1654-4.8369 5.1836-7.5581 5.0884-2.7212-0.09526-5.1417-3.6029-5.1417-3.6029 0.51394 0.90078 3.456 3.3867 7.3472 1.7567 3.8912-1.63 1.3472-5.5882 1.3472-5.5882s2.7272 0.31019 4.0053 2.346z"/>
   <path d="m11.459 11.781c-2.2382 3.0649-5.754 1.9047-5.754 1.9047 4.3068-0.19002 4.529-3.8334 4.529-3.8334s1.2809 1.2033 1.225 1.9288z"/>
   <path d="m9.1021 11.672c-1.3259 2.137-3.8981 1.5436-3.8981 1.5436 2.7428 0.03097 2.794-2.5316 2.794-2.5316s0.818 0.21779 1.1041 0.98803z"/>
  </g>
  <path d="m3.8222 14.502c-0.080025-0.068588-0.22481-0.20195-0.32008-0.29721-0.25911-0.2553-1.0403-1.2994-1.1813-1.5851-0.064775-0.12194-0.14099-0.27055-0.19434-0.35819-0.01525-0.03049-0.041913-0.08384-0.05335-0.11431-0.01525-0.03049-0.064775-0.14099-0.1105-0.24768-0.045725-0.10288-0.13336-0.34294-0.19053-0.53346-0.05715-0.18671-0.11813-0.37343-0.13718-0.40773-0.019063-0.0381-0.034287-0.10669-0.034287-0.15623 0-0.04954-0.01525-0.10289-0.030487-0.12194-0.049539-0.057163-0.19053-0.46869-0.2553-0.74304-0.12194-0.53346-0.05335-1.6804 0.15623-2.6483 0.17148-0.77353 0.38105-1.307 0.86117-2.1758 0.33151-0.59824 0.31246-0.84212-0.099075-1.2994-0.35056-0.38866-0.78115-0.59824-1.4709-0.71256-0.19815-0.03429-0.37724-0.080023-0.39629-0.099073-0.022863-0.022866-0.011375-0.087645 0.0381-0.17909 0.095263-0.18671 0.32008-0.29721 0.83068-0.40391 0.35438-0.076212 0.49536-0.083834 1.7948-0.083834 1.5699 0 1.4746 0.011437 2.4388-0.29721 0.2934-0.095262 0.71256-0.2172 0.93357-0.27435 0.22101-0.057156 0.56395-0.15241 0.76209-0.20958 0.55251-0.16385 0.8764-0.20576 1.5433-0.20576 0.71636 0.00383 1.387 0.083834 2.0119 0.24388 0.55251 0.14099 0.80402 0.23625 1.5318 0.60205 0.64396 0.32008 0.83449 0.44201 1.086 0.6897 0.28579 0.28579 0.28198 0.27816 0.19434 0.48393-0.10289 0.22481-0.27435 0.4382-0.6935 0.85355-0.3658 0.362-0.58681 0.50679-1.1089 0.73161-0.19434 0.083834-0.4001 0.19434-0.45725 0.24768-0.15243 0.1448-0.20958 0.38486-0.23625 0.945-0.02667 0.56014-0.0724 0.77353-0.24768 1.1165-0.12955 0.25911-0.16004 0.27054-0.44201 0.19434-0.4725-0.12955-0.85735-0.74304-0.85735-1.368 0-0.14861 0.015245-0.26674 0.034291-0.26674 0.0724 0 1.7033-0.79258 2.1949-1.0669 0.81544-0.45345 1.3528-0.88403 1.4136-1.1279 0.05716-0.22481-0.19434-0.31246-0.89928-0.31626-0.4001-0.00383-0.49918 0.030489-0.89165 0.27816-0.23625 0.15243-0.28198 0.16004-0.62491 0.060967-0.13718-0.041913-0.20576-0.038102-0.41534 0.015244-0.13718 0.03429-0.34294 0.10288-0.45345 0.15243-0.17529 0.080023-0.20576 0.1105-0.22863 0.22863-0.011373 0.076212-0.00391 0.21339 0.019054 0.30865 0.064773 0.2553 0.053355 0.3658-0.076209 0.73161-0.23245 0.65922-0.58301 1.2422-1.0441 1.73-0.56775 0.60586-1.0555 0.9488-1.3375 0.9488-0.17529-0.003825-0.24388-0.049535-0.34294-0.22863-0.10669-0.19434-0.095262-0.99453 0.019055-1.6195 0.045724-0.25149 0.095262-0.53346 0.10669-0.62491l0.022866-0.16766-0.12955 0.026678c-0.21339 0.041912-0.59063 0.23625-0.96024 0.49536-0.19434 0.13336-0.583 0.39629-0.86498 0.58681-0.53728 0.35819-0.96787 0.75829-1.0631 0.99453-0.076213 0.17909-0.022863 0.21339 0.35056 0.20958 0.25911-0.0038251 0.38866-0.030479 0.78115-0.16004 1.1089-0.37724 0.97929-0.12575-0.52585 1.0022-0.96787 0.7278-1.2955 1.0326-1.4861 1.3909-0.11431 0.2172-0.12955 0.28198-0.12955 0.51442 0.00387 0.25149 0.060963 0.48774 0.19053 0.77353l0.060963 0.12575 0.59444-0.02286c0.3277-0.01137 0.74304-0.0076 0.92214 0.0076 0.28579 0.02666 0.32389 0.0381 0.33533 0.10669 0.00766 0.04573-0.03429 0.12194-0.10669 0.19053-0.060967 0.06096-0.11431 0.13336-0.11431 0.16004 0 0.02666-0.015244 0.04954-0.03429 0.04954-0.019055 0-0.045724 0.04954-0.060967 0.1105-0.03429 0.15623-0.22481 0.40773-0.35819 0.48013-0.064779 0.03049-0.17529 0.05715-0.24388 0.05715-0.13336 0-0.13336 0-0.10289 0.13336 0.01525 0.07621 0.05335 0.16385 0.080025 0.19815 0.041913 0.04573 0.049538 0.24006 0.041913 0.86498-0.011375 1.0136-0.030475 1.2041-0.12194 1.2041-0.0381 0-0.13336-0.05715-0.2172-0.12194zm7.0608-11.29c0.10289-0.053345 0.23625-0.13718 0.30102-0.19053l0.1105-0.091452-0.1105-0.12193c-0.43439-0.45726-1.608-0.49918-2.2481-0.083835l-0.15243 0.10288 0.19053 0.080023c0.18671 0.083834 0.5449 0.17909 1.1431 0.30484 0.16766 0.034299 0.32389 0.06859 0.34294 0.076212 0.10669 0.03429 0.25149 0.00766 0.42296-0.076212z" stroke-width=".013852" p-id="3574"/>
 </g>
</svg>
