<?xml version="1.0" encoding="UTF-8"?>
<svg width="64" height="64" version="1.1" xmlns="http://www.w3.org/2000/svg">
 <g transform="translate(-1.6076e-7 .00011986)">
  <path d="m11.763 9.9282 0.98153 7.8184c0.20507 1.778 0.5584 3.5484 0.52663 5.336-0.01684 0.89357-0.16367 1.8044-0.59643 2.5893-0.21614 0.39054-0.504 0.74759-0.85926 1.0209-0.35526 0.27472-0.77839 0.46521-1.2241 0.52169-0.72399 0.09334-1.4422-0.16464-2.108-0.45995-0.66382-0.29722-1.3238-0.64325-2.0439-0.74424-0.70522-0.1005-1.4364 0.04497-2.0666 0.37188-0.62964 0.32928-1.1582 0.83566-1.5438 1.4306-0.77069 1.1889-0.94928 3.6582-0.75769 5.0605 0.14441 1.062 0.50545 2.1217 1.2092 2.9353 0.35141 0.40538 0.78609 0.74568 1.2785 0.96248 0.49245 0.21874 1.0436 0.31445 1.5794 0.24888 0.74132-0.09193 1.4085-0.47861 2.0815-0.80214 0.33889-0.16082 0.68452-0.30823 1.0475-0.3963 0.36296-0.08812 0.74662-0.11389 1.1115-0.03158 0.39473 0.08758 0.75384 0.30057 1.0417 0.58295 0.28931 0.28048 0.50545 0.62841 0.6619 0.99838 0.30808 0.74233 0.36681 1.5593 0.40436 2.3615 0.22889 4.8066-0.13485 9.5915-1.0831 14.31 3.2739 1.151 6.4994 2.0362 9.9172 2.6467 1.1322 0.20437 2.3072 0.37428 3.4226 0.09383 0.5584-0.14023 1.0927-0.39628 1.5173-0.78156 0.42506-0.3848 0.73555-0.90459 0.82364-1.4713 0.06402-0.42069 0.0057-0.5856-0.12036-0.9929-0.12612-0.40777-0.32156-0.79306-0.53-1.1669-0.41784-0.74615-1.1088-1.5119-1.2724-2.3514-0.14441-0.74568-0.01105-1.5349 0.32541-2.2174 0.33841-0.68202 0.87418-1.2583 1.5019-1.6919 1.2583-0.86341 3.0405-1.1405 4.5689-1.1534 1.4008-0.01081 3.1494 0.19815 4.3393 0.93473 0.5945 0.36853 1.1134 0.86581 1.4634 1.4693 0.35141 0.60208 0.52807 1.3128 0.45875 2.0044-0.05632 0.53268-0.25224 1.0434-0.49293 1.522-0.24069 0.48052-0.52615 0.83706-0.77454 1.3118-0.24647 0.4767-0.75711 0.97973-0.83413 1.5086-0.07509 0.53126-0.0091 0.82538 0.26716 1.2848 0.19736 0.32737 0.49101 0.58869 0.81642 0.78924 0.32493 0.20197 0.68259 0.34555 1.0436 0.47477 2.3415 0.82966 4.9938 0.91456 7.4448 0.50293 2.45-0.41806 4.7508-1.4552 6.6815-3.0119l-1.3451-9.2712c-0.21806-1.6302-0.54877-2.9609-0.504-4.604 0.0207-0.82273 0.2634-1.6565 0.64898-2.3835 0.18923-0.36726 0.44702-0.69536 0.75962-0.9668 0.31171-0.27299 0.68534-0.46678 1.0889-0.56476 0.3851-0.08758 0.78802-0.0785 1.175-0.0094 0.38944 0.06942 0.76539 0.19622 1.1322 0.33885 0.73506 0.28572 1.4552 0.64133 2.2374 0.74566 0.72207 0.09721 1.4706-0.02969 2.1306-0.33454 0.6619-0.3063 1.2352-0.78875 1.6699-1.3703 0.87033-1.1649 1.164-3.3979 0.98538-4.8362-0.14682-1.1716-0.60557-2.327-1.4215-3.1852-0.40821-0.42836-0.90258-0.78014-1.4518-1.0041-0.54877-0.22639-1.1529-0.32737-1.7431-0.26946-0.78802 0.07515-1.5178 0.41878-2.2567 0.69925-0.36825 0.14215-0.74614 0.26754-1.1336 0.33838-0.38943 0.0713-0.79379 0.08422-1.1794-0.0019-0.5844-0.12923-1.1052-0.48196-1.4831-0.94382-0.37836-0.46186-0.61905-1.0242-0.74469-1.6081-0.25224-1.163 0.23966-2.3706 0.41055-3.5484 0.57168-3.9508 0.99285-7.5274 1.0624-11.518-3.4952-1.1157-7.4893-1.8958-11.134-2.3294-1.1211-0.13449-2.2865-0.22973-3.3552 0.13113-0.53577 0.18092-1.0359 0.47861-1.4119 0.8974-0.37596 0.41639-0.6205 0.96249-0.63157 1.5234-0.0097 0.39438 0.19533 0.78732 0.36093 1.1463 0.16704 0.35896 0.49088 0.68968 0.73157 1.0036 0.48138 0.63033 0.7613 0.72022 1.0622 1.453 0.33119 0.80215 0.32541 1.7259 0.03948 2.5462-0.28546 0.81885-0.84049 1.5348-1.5284 2.0675-0.6903 0.53317-1.5101 0.88639-2.3602 1.0831-0.84963 0.19623-1.9291 0.23931-2.8019 0.18857-1.4047-0.08232-2.9377-0.42596-4.0622-1.2693-0.56225-0.42118-1.0383-0.96488-1.343-1.5947-0.30423-0.63033-0.43613-1.3497-0.33215-2.0418 0.14249-0.94047 0.96444-1.2567 1.427-2.0886 0.23106-0.41687 0.54577-0.84714 0.67767-1.3033 0.13334-0.45612 0.18244-0.94574 0.08086-1.4095-0.10542-0.48626-0.37258-0.92897-0.72784-1.2788-0.35526-0.34758-0.79524-0.60363-1.2655-0.77402-0.93821-0.33981-1.9631-0.33838-2.9595-0.28047-3.7232 0.21808-7.3652 1.1727-10.713 2.808z" fill="#33d17a"/>
  <path d="m39.178 7c-0.56508 0.00449-1.1239 0.07152-1.6582 0.25195-0.53577 0.18092-1.0362 0.4777-1.4121 0.89648-0.37596 0.41639-0.61979 0.9625-0.63086 1.5234-4e-3 0.16106 0.03363 0.3221 0.08398 0.48047 0.1014-0.37003 0.28934-0.71867 0.54688-1.0039 0.37596-0.41878 0.87634-0.71557 1.4121-0.89648 1.0687-0.36087 2.2343-0.26535 3.3555-0.13086 3.6317 0.43207 7.6096 1.2071 11.096 2.3164 0.010755-0.33136 0.033195-0.65149 0.039063-0.98828-3.4952-1.1157-7.4899-1.8945-11.135-2.3281-0.56056-0.067247-1.1322-0.12558-1.6973-0.12109zm-15.951 0.091797c-0.25086 0.00297-0.50284 0.014819-0.75195 0.029297-3.7232 0.21808-7.3655 1.1714-10.713 2.8066l0.11914 0.94531c3.3149-1.6003 6.9143-2.5364 10.594-2.752 0.99645-0.057912 2.0227-0.060517 2.9609 0.2793 0.47031 0.17039 0.90842 0.42586 1.2637 0.77344 0.35289 0.34753 0.6197 0.7871 0.72656 1.2695 0.05387-0.32981 0.0731-0.66539 2e-3 -0.99023-0.10547-0.48626-0.3733-0.92943-0.72856-1.2793-0.35526-0.34758-0.79336-0.60305-1.2637-0.77344-0.70366-0.25486-1.4564-0.3175-2.209-0.30859zm14.611 8.0176c-0.03485 0.24173-0.08766 0.48249-0.16797 0.71289-0.28546 0.81885-0.83945 1.5337-1.5273 2.0664-0.6903 0.53317-1.5112 0.88728-2.3613 1.084-0.84963 0.19623-1.928 0.23823-2.8008 0.1875-1.4047-0.08232-2.938-0.42622-4.0625-1.2695-0.56225-0.42118-1.039-0.9639-1.3438-1.5938-0.16236-0.33639-0.26968-0.69894-0.32422-1.0684-0.0017 0.0098-0.0063 0.01742-0.0078 0.02734-0.10398 0.69207 0.0278 1.4107 0.33203 2.041 0.30471 0.62985 0.7815 1.1726 1.3438 1.5938 1.1245 0.84331 2.6578 1.1872 4.0625 1.2695 0.87274 0.05073 1.9511 0.0087 2.8008-0.1875 0.85011-0.19671 1.671-0.55081 2.3613-1.084 0.68789-0.5327 1.2419-1.2476 1.5273-2.0664 0.19084-0.54753 0.24362-1.1401 0.16797-1.7129zm-24.586 8.3066c-0.04514 0.78435-0.19914 1.5685-0.57812 2.2559-0.21614 0.39054-0.50412 0.7482-0.85938 1.0215-0.35526 0.27472-0.7769 0.46501-1.2227 0.52148-0.72399 0.09334-1.4436-0.16563-2.1094-0.46094-0.66382-0.29722-1.3228-0.64315-2.043-0.74414-0.70522-0.1005-1.4363 0.046136-2.0664 0.37305-0.62964 0.32928-1.1593 0.83477-1.5449 1.4297-0.66166 1.0207-0.86762 2.9503-0.79688 4.373 0.053958-1.2331 0.28417-2.5821 0.79688-3.373 0.38558-0.59491 0.91528-1.1004 1.5449-1.4297 0.63012-0.32691 1.3612-0.47354 2.0664-0.37305 0.72014 0.10099 1.3791 0.44692 2.043 0.74414 0.66575 0.2953 1.3854 0.55428 2.1094 0.46094 0.44576-0.05647 0.8674-0.24676 1.2227-0.52148 0.35526-0.27329 0.64324-0.63094 0.85938-1.0215 0.43276-0.78492 0.58082-1.6963 0.59766-2.5898 4e-3 -0.22246-0.01258-0.44404-0.01953-0.66602zm37.258 0.91211c-0.04319 0.399-0.05957 0.79576 0.02539 1.1875 0.12564 0.5839 0.36773 1.1475 0.74609 1.6094 0.37788 0.46186 0.89803 0.81413 1.4824 0.94336 0.38558 0.08612 0.79025 0.07325 1.1797 2e-3 0.38751-0.07083 0.76456-0.19574 1.1328-0.33789 0.73892-0.28047 1.4698-0.62407 2.2578-0.69922 0.59017-0.05791 1.1934 0.04314 1.7422 0.26953 0.54926 0.22399 1.0449 0.57555 1.4531 1.0039 0.81594 0.85815 1.2731 2.0139 1.4199 3.1855 0.01697 0.13667 0.0092 0.30565 0.01758 0.45508 0.03372-0.52184 0.03577-1.0254-0.01758-1.4551-0.14682-1.1716-0.60399-2.3274-1.4199-3.1855-0.40821-0.42836-0.90387-0.77992-1.4531-1.0039-0.54877-0.22639-1.152-0.32744-1.7422-0.26953-0.78802 0.07515-1.5189 0.41875-2.2578 0.69922-0.36825 0.14215-0.7453 0.26706-1.1328 0.33789-0.38943 0.0713-0.7941 0.08417-1.1797-2e-3 -0.5844-0.12923-1.1045-0.4815-1.4824-0.94336-0.37836-0.46186-0.62045-1.0255-0.74609-1.6094-0.01351-0.06228-0.01599-0.12498-0.02539-0.1875zm-0.36914 16.332c-5e-3 0.07104-0.01775 0.14194-0.01953 0.21289-0.04477 1.6431 0.28779 2.9734 0.50586 4.6035l1.2129 8.3691c0.04285-0.03376 0.08837-0.06339 0.13086-0.09766l-1.3438-9.2715c-0.18181-1.3591-0.43081-2.519-0.48633-3.8164zm-37.596 2.707c-0.05219 3.5829-0.43176 7.1483-1.1406 10.676 0.05818 0.02045 0.11568 0.03831 0.17383 0.05859 0.6536-3.5488 0.97604-7.1332 0.9668-10.734zm25.234 6.1699c-0.07644 0.46964-0.23893 0.92367-0.45312 1.3496-0.24069 0.48052-0.527 0.83773-0.77539 1.3125-0.24647 0.4767-0.75696 0.97894-0.83398 1.5078-0.04785 0.33851-0.02992 0.58196 0.05469 0.83203 0.14468-0.46713 0.55929-0.91432 0.7793-1.3398 0.24839-0.47477 0.5347-0.83198 0.77539-1.3125 0.24069-0.47861 0.43587-0.98881 0.49219-1.5215 0.0277-0.27639 0.0073-0.55378-0.03906-0.82812zm-12.633 0.33789c-0.05921 0.37958-0.05733 0.76781 0.01563 1.1445 0.16367 0.83948 0.85365 1.6054 1.2715 2.3516 0.20844 0.37379 0.40317 0.75824 0.5293 1.166 0.02929 0.09464 0.04121 0.1538 0.0625 0.22852 0.02103-0.07798 0.04614-0.15428 0.05859-0.23438 0.06402-0.42069 5e-3 -0.58685-0.12109-0.99414-0.12612-0.40777-0.32086-0.79222-0.5293-1.166-0.41784-0.74615-1.1078-1.5121-1.2715-2.3516-0.0092-0.04775-0.0086-0.09646-0.01563-0.14453z" fill="#fff" opacity=".2"/>
 </g>
</svg>
