<?xml version="1.0" encoding="UTF-8" standalone="no"?>
<svg
   width="64"
   height="64"
   version="1.1"
   viewBox="0 0 16.933 16.933"
   id="svg601"
   sodipodi:docname="org.xfce.panel.directorymenu.svg"
   inkscape:version="1.2.2 (b0a8486541, 2022-12-01)"
   xmlns:inkscape="http://www.inkscape.org/namespaces/inkscape"
   xmlns:sodipodi="http://sodipodi.sourceforge.net/DTD/sodipodi-0.dtd"
   xmlns="http://www.w3.org/2000/svg"
   xmlns:svg="http://www.w3.org/2000/svg">
  <sodipodi:namedview
     id="namedview603"
     pagecolor="#ffffff"
     bordercolor="#999999"
     borderopacity="1"
     inkscape:showpageshadow="0"
     inkscape:pageopacity="0"
     inkscape:pagecheckerboard="0"
     inkscape:deskcolor="#d1d1d1"
     showgrid="false"
     inkscape:zoom="8.9493202"
     inkscape:cx="21.342403"
     inkscape:cy="32.795787"
     inkscape:window-width="1920"
     inkscape:window-height="965"
     inkscape:window-x="0"
     inkscape:window-y="40"
     inkscape:window-maximized="1"
     inkscape:current-layer="svg601" />
  <defs
     id="defs583">
    <linearGradient
       id="linearGradient892"
       x1="-197.72"
       x2="-197.72"
       y1="263.86"
       y2="273.76"
       gradientTransform="matrix(.18709 -.18709 .18709 .18709 1.1192 -74.45)"
       gradientUnits="userSpaceOnUse">
      <stop
         offset="0"
         id="stop578" />
      <stop
         stop-opacity="0"
         offset="1"
         id="stop580" />
    </linearGradient>
    <linearGradient
       id="linearGradient1777"
       x1="0.52969003"
       x2="16.774"
       y1="15.081"
       y2="2.5021999"
       gradientUnits="userSpaceOnUse"
       gradientTransform="matrix(3.779602,0,0,3.779602,-73.402451,-3.8841398)">
      <stop
         stop-color="#0078e1"
         offset="0"
         id="stop262" />
      <stop
         stop-color="#05b9ff"
         offset="1"
         id="stop264" />
    </linearGradient>
  </defs>
  <g
     id="g497"
     transform="matrix(0.26457812,0,0,0.26457812,19.420688,0.56443342)">
    <path
       d="m -68.400526,12.115671 c -0.830983,0 -1.580818,0.334707 -2.12304,0.876944 -0.542259,0.542259 -0.876943,1.292057 -0.876943,2.12304 v 35.002138 c 0,0.830983 0.334706,1.580781 0.876943,2.12304 0.542237,0.54226 1.292057,0.876944 2.12304,0.876944 h 53.999174 c 0.830983,0 1.580781,-0.334722 2.12304,-0.876944 0.54226,-0.542259 0.876944,-1.292057 0.876944,-2.12304 V 15.115655 c 0,-0.830983 -0.334684,-1.580819 -0.876944,-2.12304 -0.542259,-0.54226 -1.292057,-0.876944 -2.12304,-0.876944 z"
       fill="#0079e1"
       id="path293"
       style="stroke-width:3.7796" />
    <path
       d="m -68.902457,6.6159725 c -0.690344,0 -1.31515,0.3070473 -1.767569,0.8046773 -0.452418,0.4976299 -0.732411,1.1859257 -0.732411,1.9453233 V 24.490806 h 29.999835 V 12.115634 l -6.24995,-5.5000772 z"
       fill="#0078e1"
       id="path295"
       style="stroke-width:3.7796" />
    <rect
       x="-69.723351"
       y="13.866005"
       width="56.644897"
       height="37.500076"
       ry="1.1308192"
       fill="#fffffc"
       id="rect297"
       style="stroke-width:3.7796" />
    <path
       d="m -41.403585,12.115671 -6.249949,5.500077 h -21.250057 c -0.690344,0 -1.315188,0.307036 -1.767568,0.804677 -0.452419,0.497661 -0.732412,1.185926 -0.732412,1.945324 v 29.999835 c 0,0.759397 0.280008,1.445698 0.732412,1.943358 0.452418,0.49766 1.077224,0.806642 1.767568,0.806642 h 55.000769 c 0.690382,0 1.31515,-0.308982 1.767568,-0.806642 0.452419,-0.49766 0.732412,-1.183961 0.732412,-1.943358 V 14.865672 c 0,-0.759398 -0.280031,-1.447663 -0.732412,-1.945323 -0.452418,-0.497661 -1.077224,-0.804678 -1.767568,-0.804678 h -0.002 z"
       fill="url(#linearGradient1777)"
       id="path299"
       style="fill:url(#linearGradient1777);stroke-width:3.7796" />
  </g>
  <path
     id="path599"
     style="opacity:1;fill:#ffffff;fill-opacity:1;stroke-width:0.246906"
     d="m 5.7505357,6.3040155 c -0.2734976,0 -0.4938117,0.2203215 -0.4938117,0.4938117 v 0.7412113 h 6.419552 V 6.7978272 c 0,-0.2734976 -0.220322,-0.4938117 -0.493812,-0.4938117 z M 5.9979353,6.7968643 A 0.24730089,0.24730089 0 0 1 6.2448412,7.0442639 0.24730089,0.24730089 0 0 1 5.9979353,7.2916636 0.24730089,0.24730089 0 0 1 5.7505357,7.0442639 0.24730089,0.24730089 0 0 1 5.9979353,6.7968643 Z M 5.256724,7.7849814 v 1.235023 h 6.419552 V 7.7849814 Z M 5.9979353,8.2787931 A 0.24730089,0.24730089 0 0 1 6.2448412,8.5261928 0.24730089,0.24730089 0 0 1 5.9979353,8.7735924 0.24730089,0.24730089 0 0 1 5.7505357,8.5261928 0.24730089,0.24730089 0 0 1 5.9979353,8.2787931 Z M 5.256724,9.2669103 v 1.2350227 h 6.419552 V 9.2669103 Z M 5.9979353,9.759759 a 0.24730089,0.24730089 0 0 1 0.2469059,0.2474 0.24730089,0.24730089 0 0 1 -0.2469059,0.247399 0.24730089,0.24730089 0 0 1 -0.2473996,-0.247399 0.24730089,0.24730089 0 0 1 0.2473996,-0.2474 z M 5.256724,10.747876 v 1.235023 h 6.419552 v -1.235023 z m 0.7412113,0.493812 a 0.24730089,0.24730089 0 0 1 0.2469059,0.247399 0.24730089,0.24730089 0 0 1 -0.2469059,0.2474 0.24730089,0.24730089 0 0 1 -0.2473996,-0.2474 0.24730089,0.24730089 0 0 1 0.2473996,-0.247399 z M 5.256724,12.230274 v 0.988117 c 0,0.273498 0.2203215,0.493812 0.4938117,0.493812 h 5.4319283 c 0.273498,0 0.493812,-0.220322 0.493812,-0.493812 v -0.988117 z m 0.7412113,0.492355 a 0.24730089,0.24730089 0 0 1 0.2469059,0.2474 0.24730089,0.24730089 0 0 1 -0.2469059,0.247399 0.24730089,0.24730089 0 0 1 -0.2473996,-0.247399 0.24730089,0.24730089 0 0 1 0.2473996,-0.2474 z" />
</svg>
