<?xml version="1.0" encoding="UTF-8" standalone="no"?>
<svg
   width="64"
   height="64"
   version="1"
   id="svg20"
   sodipodi:docname="org.gtk.PrintEditor4.svg"
   inkscape:version="1.2.2 (b0a8486541, 2022-12-01)"
   xmlns:inkscape="http://www.inkscape.org/namespaces/inkscape"
   xmlns:sodipodi="http://sodipodi.sourceforge.net/DTD/sodipodi-0.dtd"
   xmlns:xlink="http://www.w3.org/1999/xlink"
   xmlns="http://www.w3.org/2000/svg"
   xmlns:svg="http://www.w3.org/2000/svg"
   xmlns:rdf="http://www.w3.org/1999/02/22-rdf-syntax-ns#"
   xmlns:cc="http://creativecommons.org/ns#"
   xmlns:dc="http://purl.org/dc/elements/1.1/">
  <defs
     id="defs24">
    <linearGradient
       inkscape:collect="always"
       id="linearGradient1887">
      <stop
         style="stop-color:#8b8b8b;stop-opacity:1"
         offset="0"
         id="stop1883" />
      <stop
         style="stop-color:#222222;stop-opacity:1"
         offset="1"
         id="stop1885" />
    </linearGradient>
    <linearGradient
       id="linearGradient977"
       x1="232.92"
       x2="378.87"
       y1="-60.145"
       y2="-60.145"
       gradientUnits="userSpaceOnUse"
       xlink:href="#linearGradient856" />
    <linearGradient
       id="linearGradient856"
       x1="-73.361"
       x2="-58.736"
       y1="6.9798999"
       y2="17.198"
       gradientTransform="translate(75.14,-0.97417)"
       gradientUnits="userSpaceOnUse">
      <stop
         stop-color="#3c3c3c"
         offset="0"
         id="stop568" />
      <stop
         stop-color="#1e1e1e"
         offset="1"
         id="stop570" />
    </linearGradient>
    <linearGradient
       id="linearGradient979"
       x1="447.25"
       x2="331.04001"
       y1="263.28"
       y2="379.48001"
       gradientTransform="matrix(1.0039,0,0,-1.0039,0.1922,516.56)"
       gradientUnits="userSpaceOnUse">
      <stop
         stop-color="#4D4D4D"
         stop-opacity="0"
         offset="0"
         id="stop579" />
      <stop
         offset="1"
         id="stop581" />
    </linearGradient>
    <linearGradient
       id="linearGradient981"
       x1="241.31"
       x2="370.48001"
       y1="-58.493"
       y2="-58.493"
       gradientUnits="userSpaceOnUse"
       xlink:href="#linearGradient856-2" />
    <linearGradient
       id="linearGradient856-2"
       x1="-73.361"
       x2="-58.736"
       y1="6.9798999"
       y2="17.198"
       gradientTransform="translate(75.14,-0.97417)"
       gradientUnits="userSpaceOnUse">
      <stop
         stop-color="#fafafa"
         offset="0"
         id="stop573" />
      <stop
         stop-color="#e6e6e6"
         offset="1"
         id="stop575" />
    </linearGradient>
    <linearGradient
       id="linearGradient983"
       x1="443.48001"
       x2="308.63"
       y1="338.41"
       y2="473.26999"
       gradientTransform="matrix(0.39215,0,0,-0.39215,205.97,57.307)"
       gradientUnits="userSpaceOnUse">
      <stop
         stop-color="#d2d2d2"
         stop-opacity="0"
         offset="0"
         id="stop585" />
      <stop
         stop-color="#d2d2d2"
         offset="1"
         id="stop587" />
    </linearGradient>
    <linearGradient
       id="linearGradient985"
       x1="327.34"
       x2="370.04999"
       y1="-120.37"
       y2="-120.37"
       gradientUnits="userSpaceOnUse"
       xlink:href="#linearGradient856-2" />
    <linearGradient
       id="linearGradient987"
       x1="241.31"
       x2="370.48999"
       y1="-50.778999"
       y2="-50.778999"
       gradientUnits="userSpaceOnUse"
       xlink:href="#linearGradient856-2" />
    <linearGradient
       id="linearGradient989"
       x1="205.89999"
       x2="405.89999"
       y1="-1.4279"
       y2="-1.4279"
       gradientUnits="userSpaceOnUse"
       xlink:href="#linearGradient856" />
    <linearGradient
       id="linearGradient991"
       x1="254.81"
       x2="254.81"
       y1="93.863998"
       y2="48.214001"
       gradientTransform="matrix(0.39215,0,0,-0.39215,205.97,57.307)"
       gradientUnits="userSpaceOnUse">
      <stop
         stop-color="#4d4d4d"
         stop-opacity="0"
         offset="0"
         id="stop593" />
      <stop
         stop-color="#4d4d4d"
         stop-opacity=".14118"
         offset=".143"
         id="stop595" />
      <stop
         stop-color="#4d4d4d"
         stop-opacity=".38431"
         offset=".384"
         id="stop597" />
      <stop
         stop-color="#4d4d4d"
         stop-opacity=".6902"
         offset=".692"
         id="stop599" />
      <stop
         stop-color="#4d4d4d"
         offset="1"
         id="stop601" />
    </linearGradient>
    <linearGradient
       id="linearGradient993"
       x1="254.81"
       x2="254.81"
       y1="52.854"
       y2="8.8734999"
       gradientTransform="matrix(0.39215,0,0,-0.39215,205.97,57.307)"
       gradientUnits="userSpaceOnUse">
      <stop
         stop-color="#4D4D4D"
         offset="0"
         id="stop604" />
      <stop
         stop-color="#333"
         offset="1"
         id="stop606" />
    </linearGradient>
    <linearGradient
       id="linearGradient995"
       x1="446.98999"
       x2="-0.59069997"
       y1="21.334"
       y2="49.483002"
       gradientTransform="matrix(0.39215,0,0,-0.39215,205.97,57.307)"
       gradientUnits="userSpaceOnUse">
      <stop
         stop-color="#4D4D4D"
         stop-opacity="0"
         offset="0"
         id="stop609" />
      <stop
         offset="1"
         id="stop611" />
    </linearGradient>
    <linearGradient
       id="linearGradient997"
       x1="239.23"
       x2="372.57001"
       y1="30.136"
       y2="30.136"
       gradientTransform="matrix(0.72563,-0.19443,0.19443,0.72563,134.78,-21.005)"
       gradientUnits="userSpaceOnUse">
      <stop
         stop-color="#00bffb"
         offset="0"
         id="stop614" />
      <stop
         stop-color="#01a1f3"
         offset="1"
         id="stop616" />
    </linearGradient>
    <linearGradient
       id="linearGradient999"
       x1="530.64001"
       x2="530.64001"
       y1="-34.737"
       y2="-0.83851999"
       gradientTransform="translate(-221.47)"
       gradientUnits="userSpaceOnUse">
      <stop
         stop-color="#4D4D4D"
         stop-opacity="0"
         offset="0"
         id="stop619" />
      <stop
         stop-color="#4d4d4d"
         offset=".55323"
         id="stop621" />
      <stop
         stop-color="#4d4d4d"
         stop-opacity="0"
         offset="1"
         id="stop623" />
    </linearGradient>
    <linearGradient
       inkscape:collect="always"
       xlink:href="#linearGradient1887"
       id="linearGradient1889"
       x1="26.205645"
       y1="15.21466"
       x2="28.435547"
       y2="16.96451"
       gradientUnits="userSpaceOnUse" />
  </defs>
  <sodipodi:namedview
     id="namedview22"
     pagecolor="#ffffff"
     bordercolor="#999999"
     borderopacity="1"
     inkscape:showpageshadow="0"
     inkscape:pageopacity="0"
     inkscape:pagecheckerboard="0"
     inkscape:deskcolor="#d1d1d1"
     showgrid="false"
     inkscape:zoom="25.3125"
     inkscape:cx="30.696296"
     inkscape:cy="30.65679"
     inkscape:window-width="1920"
     inkscape:window-height="962"
     inkscape:window-x="0"
     inkscape:window-y="40"
     inkscape:window-maximized="1"
     inkscape:current-layer="svg20" />
  <metadata
     id="metadata2">
    <rdf:RDF>
      <cc:Work
         rdf:about="">
        <dc:format>image/svg+xml</dc:format>
        <dc:type
           rdf:resource="http://purl.org/dc/dcmitype/StillImage" />
        <dc:title />
      </cc:Work>
    </rdf:RDF>
  </metadata>
  <g
     transform="matrix(0.3,0,0,0.3,-59.770105,45.342425)"
     id="g662">
    <path
       d="M 378.87,-27.474 H 232.92 v -58.172 c 0,-3.9594 3.2094,-7.1688 7.1688,-7.1688 h 131.61 c 3.9594,0 7.1688,3.2094 7.1688,7.1688 z"
       fill="url(#linearGradient977)"
       stroke-width="0.39062"
       id="path630"
       style="fill:url(#linearGradient977)" />
    <polygon
       transform="matrix(0.39062,0,0,0.39062,205.9,-144.47)"
       points="404.17,132.25 404.17,299.52 442.82,299.52 442.82,153.57 421.49,132.25 "
       fill="url(#linearGradient979)"
       id="polygon632"
       style="fill:url(#linearGradient979)" />
    <g
       stroke-width="0.39062"
       id="g660">
      <path
         d="m 327.62,-139.67 h -77.79 c -4.7027,0 -8.5152,3.8125 -8.5152,8.5152 v 145.33 c 0,4.7027 3.8125,8.5152 8.5152,8.5152 h 112.14 c 4.7027,0 8.5152,-3.8125 8.5152,-8.5152 v -113.21 c 0,-1.3031 -0.5125,-2.5539 -1.427,-3.482 l -33.218,-33.713 c -2.1692,-2.202 -5.1309,-3.4414 -8.2215,-3.4414 z"
         fill="url(#linearGradient981)"
         id="path634"
         style="fill:url(#linearGradient981)" />
      <path
         d="m 336.27,-135.79 c -0.11602,-0.11719 -0.18789,-0.19023 -0.21719,-0.22031 l -0.0254,-0.0258 c -2.225,-2.2566 -5.2351,-3.5547 -8.3988,-3.6312 -0.075,-0.004 -0.15234,-0.004 -0.22812,-0.004 h -0.0402 c 0.13985,3.9e-4 0.27657,0.005 0.4125,0.018 0.13399,0.009 0.26875,0.0285 0.39805,0.0477 l 0.091,0.0191 c 0.25937,0.0477 0.51328,0.11523 0.7582,0.20156 0.1293,0.043 0.25898,0.0961 0.38359,0.15351 0.58047,0.24922 1.1031,0.61407 1.5441,1.0555 0.36485,0.36485 0.67149,0.78203 0.91133,1.2422 0.0531,0.091 0.10078,0.18711 0.13906,0.28789 0.077,0.16328 0.14375,0.33086 0.19649,0.50352 0.0144,0.043 0.0285,0.0816 0.0383,0.12461 0.10547,0.34531 0.17266,0.70976 0.19648,1.0793 0.009,0.12461 0.0145,0.24922 0.0145,0.37422 v 24.98 c 0,0.16328 0.005,0.32109 0.0144,0.47969 0.01,0.15351 0.0191,0.30703 0.0383,0.46054 0,0.009 0,0.0238 0.005,0.0336 0.0144,0.14844 0.0336,0.29727 0.0625,0.44102 0.0191,0.13906 0.0477,0.27344 0.0769,0.40781 0.009,0.043 0.0191,0.0863 0.0285,0.1293 0.0285,0.11523 0.0578,0.23008 0.091,0.34023 0,0.0191 0.005,0.0383 0.0145,0.0578 0.0285,0.10078 0.0625,0.20156 0.0961,0.30235 0.0191,0.0719 0.043,0.14375 0.0723,0.21562 0.0145,0.043 0.0285,0.0863 0.0477,0.12461 0.0285,0.0961 0.0672,0.1918 0.11016,0.2832 0.0383,0.10547 0.0863,0.21094 0.13906,0.31641 0.0625,0.13906 0.1293,0.27344 0.20156,0.40273 0.14375,0.26407 0.29727,0.51797 0.45586,0.76289 0.005,0.005 0.005,0.009 0.009,0.009 0.25429,0.36954 0.53711,0.71954 0.83906,1.0453 0.10078,0.10547 0.20625,0.21562 0.31172,0.3164 0.11016,0.10547 0.2207,0.20625 0.33086,0.30235 l 35.092,35.092 v -30.975 c 0,-1.3031 -0.5125,-2.5539 -1.427,-3.482 z"
         fill="url(#linearGradient983)"
         id="path636"
         style="fill:url(#linearGradient983)" />
      <path
         d="m 370.05,-101.07 c 0,0 -0.25195,-0.7125 -1.2418,-1.7031 -0.36797,-0.36797 -32.771,-33.261 -32.771,-33.261 -2.2941,-2.3281 -5.4262,-3.6394 -8.6953,-3.6394 2.8215,0 5.109,2.2875 5.109,5.109 v 24.979 c 0,4.7027 3.8125,8.5152 8.5152,8.5152 z"
         fill="url(#linearGradient985)"
         id="path638"
         style="fill:url(#linearGradient985)" />
      <rect
         x="241.31"
         y="-74.083"
         width="129.17"
         height="46.608002"
         fill="url(#linearGradient987)"
         id="rect640"
         style="fill:url(#linearGradient987)" />
      <path
         d="m 405.9,-16.165 v 45.128 c 0,5.2398 -4.2477,9.4875 -9.4875,9.4875 h -181.03 c -5.2371,0 -9.4828,-4.2453 -9.4828,-9.4828 v -45.133 c 0,-2.2836 0.90703,-4.4734 2.5219,-6.0883 l 16.531,-16.531 c 1.6144,-1.6144 3.8047,-2.5219 6.0883,-2.5219 h 149.71 c 2.2836,0 4.4734,0.90703 6.0883,2.5219 l 16.531,16.531 c 1.6145,1.6148 2.5215,3.8047 2.5215,6.0883 z"
         fill="url(#linearGradient989)"
         id="path642"
         style="fill:url(#linearGradient989)" />
      <path
         d="m 205.9,19.396 v 9.5684 c 0,5.2391 4.2469,9.4863 9.4863,9.4863 h 181.03 c 5.2387,0 9.4863,-4.2469 9.4863,-9.4863 V 19.396 Z"
         fill="url(#linearGradient991)"
         id="path644"
         style="fill:url(#linearGradient991)" />
      <path
         d="M 381.72,50.724 H 230.07 c -6.7785,0 -12.274,-5.4949 -12.274,-12.274 h 176.19 c 0,6.7785 -5.4949,12.274 -12.273,12.274 z"
         fill="url(#linearGradient993)"
         id="path646"
         style="fill:url(#linearGradient993)" />
      <path
         d="M 393.99,38.45 H 217.8 l 12.274,12.274 h 151.65 c 6.7777,0 12.273,-5.4953 12.273,-12.274 z"
         fill="url(#linearGradient995)"
         id="path648"
         style="fill:url(#linearGradient995)" />
      <path
         d="M 372.57,38.45 H 239.23 v -9.4594 c 0,-3.9594 3.2094,-7.1688 7.1688,-7.1688 h 119.01 c 3.9594,0 7.1688,3.2094 7.1688,7.1688 V 38.45 Z"
         fill="url(#linearGradient997)"
         id="path650"
         style="fill:url(#linearGradient997)" />
      <path
         d="m 208.42,-22.253 c -1.6144,1.6144 -2.5219,3.8047 -2.5219,6.0883 v 15.871 h 200 v -15.871 c 0,-2.2836 -0.90703,-4.4734 -2.5219,-6.0883 l -12.576,-12.576 h -169.8 z"
         fill="url(#linearGradient999)"
         id="path652"
         style="fill:url(#linearGradient999)" />
      <circle
         cx="222.05"
         cy="-11.165"
         r="4.1570001"
         fill="#f44e24"
         id="circle654" />
      <circle
         cx="222.05"
         cy="0.34516001"
         r="4.1570001"
         fill="#ffb800"
         id="circle656" />
      <circle
         cx="222.05"
         cy="11.859"
         r="4.1570001"
         fill="#00a2ef"
         id="circle658" />
    </g>
  </g>
  <path
     opacity="0.15"
     stroke-width="1px"
     id="path1259"
     d="m 18.142008,27.442821 c 0,0 3.7056,5.05 11.074,-0.28316 5.1677,-3.7403 10.786,0.97898 10.786,0.97898"
     style="stroke:#646464;stroke-opacity:1;fill:none;fill-opacity:1;stroke-linecap:round;opacity:1" />
  <path
     d="m 32.187008,9.5908215 c 0.65,0.5170005 0.798,1.4060005 0.332,1.9929995 l -11.794,14.822 c -0.466,0.586 -2.467,1.494 -2.858,1.183 -0.391,-0.311 0.044,-2.465 0.51,-3.051 l 11.794,-14.8219995 c 0.467,-0.587 1.366,-0.643 2.016,-0.125 z"
     id="path1261"
     style="fill:url(#linearGradient1889);fill-opacity:1" />
</svg>
