<?xml version="1.0" encoding="UTF-8" standalone="no"?>
<svg
   width="64"
   height="64"
   version="1.1"
   id="svg8"
   sodipodi:docname="org.olivevideoeditor.Olive.svg"
   xml:space="preserve"
   inkscape:version="1.2.2 (b0a8486541, 2022-12-01)"
   xmlns:inkscape="http://www.inkscape.org/namespaces/inkscape"
   xmlns:sodipodi="http://sodipodi.sourceforge.net/DTD/sodipodi-0.dtd"
   xmlns="http://www.w3.org/2000/svg"
   xmlns:svg="http://www.w3.org/2000/svg"><defs
     id="defs12"><linearGradient
       id="linearGradient1053"
       x1="68"
       x2="128"
       y1="62"
       y2="2"
       gradientTransform="matrix(0.91665,0,0,0.91665,-57.831998,2.6667002)"
       gradientUnits="userSpaceOnUse"><stop
         stop-color="#1bb131"
         offset="0"
         id="stop307" /><stop
         stop-color="#a2e10f"
         offset="1"
         id="stop309" /></linearGradient></defs><sodipodi:namedview
     id="namedview10"
     pagecolor="#ffffff"
     bordercolor="#999999"
     borderopacity="1"
     inkscape:showpageshadow="0"
     inkscape:pageopacity="0"
     inkscape:pagecheckerboard="0"
     inkscape:deskcolor="#d1d1d1"
     showgrid="false"
     inkscape:zoom="4.4746601"
     inkscape:cx="55.646685"
     inkscape:cy="26.258978"
     inkscape:window-width="1920"
     inkscape:window-height="965"
     inkscape:window-x="0"
     inkscape:window-y="40"
     inkscape:window-maximized="1"
     inkscape:current-layer="svg8" /><rect
     x="4.5"
     y="4.5"
     width="55"
     height="55"
     ry="2.75"
     fill="url(#linearGradient1053)"
     stroke-width="3.4646"
     id="rect314"
     style="fill:url(#linearGradient1053)" /><path
     d="m 12.17701,11.162955 1.441614,1.082222 c -4.5728168,2.108092 7.170846,11.73308 7.170846,11.73308 0,0 2.285463,-2.057258 5.6341,-2.273823 3.321349,-3.403591 17.144567,-0.813122 16.626397,1.980193 -4.64652,0.07257 -6.118253,-0.521117 -6.118253,-0.521117 0,0 0.229378,0.264565 0.324092,1.172477 -0.339588,0.279683 -5.144655,-0.796946 -6.149246,-0.72026 -2.858285,0.218455 -4.787493,0.290644 -6.837872,0.517565 1.410699,0.465219 12.652254,2.467182 16.246559,5.941752 -0.95882,0.369635 -1.37816,0.217699 -1.69828,0.335619 -0.28154,0.103559 -0.56636,0.677362 -1.184156,0.680121 -0.442655,0.0015 -0.291361,-0.391934 -1.205547,-0.824119 -5.688147,0.226014 -7.532543,-3.244399 -8.093799,-3.669971 -2.5111,-0.599315 -6.741494,-1.954492 -6.741494,-1.954492 0,0 3.581832,2.858246 5.54566,4.444692 0.163312,0.131904 2.855639,0.632348 6.278128,2.301753 1.839747,-1.506055 6.799698,1.049529 5.877878,3.38972 -0.82091,2.084508 -6.328773,-0.0635 -6.126192,-2.899103 -1.257364,-0.391556 -3.580018,-1.514446 -5.066041,-2.050152 1.424682,1.111059 7.021933,5.774698 8.146334,7.093743 4.926959,-0.605098 12.365009,0.624525 16.979029,3.581606 -1.05225,0.277793 -6.05892,1.228715 -7.062,0.961089 -1.86352,-0.704801 -4.64085,-2.987997 -4.93678,-3.243869 -1.07043,-0.180661 -3.472984,-0.525729 -4.395938,-0.630686 0.936068,0.949827 4.027438,4.521416 4.998008,6.023767 0.4021,-0.08504 2.4526,0.407884 3.02088,0.794073 2.10522,-2.148041 5.51883,1.621104 7.61721,3.441462 -0.55124,1.119185 -9.20913,-0.603322 -8.05223,-3.111284 -0.61874,-0.08239 -1.85702,-0.762363 -2.31366,-0.798458 0.46677,0.611297 1.4847,1.44101 2.82631,2.848232 1.29044,-0.36699 6.15454,4.897098 6.28493,6.048711 -3.63988,-0.886822 -5.43756,-1.658444 -6.00109,-2.316644 -1.1123,-1.299203 -0.69119,-3.164689 -0.58522,-3.503786 -1.43137,-1.279134 -1.69801,-1.659502 -2.16618,-1.913372 -0.0121,0.01512 0.002,0.394051 0.0234,0.579095 2.3513,1.73343 1.21518,6.530977 -0.13663,6.701054 -0.58832,0.07408 -1.94441,-6.768707 -0.25108,-7.023823 0.039,-0.135683 0.0614,-0.539675 0.0635,-0.555624 -0.89362,-0.972843 -5.84953,-6.242222 -6.171922,-6.464079 0.160516,0.415821 0.423682,1.099608 0.66523,1.943722 2.926542,1.912616 3.410732,4.973066 3.190162,8.56737 -0.70178,-1.228488 -7.577141,-6.825398 -4.570171,-9.306641 0.02116,-0.382635 -0.09282,-1.251127 0.160402,-1.739325 -0.953605,-0.953001 -3.922743,-3.884192 -4.189198,-3.881546 0.331614,0.67978 0.537521,1.06786 0.702005,1.802934 2.263278,1.12958 1.605834,4.047466 0.574937,4.109451 -1.086077,0.06538 -3.492976,-3.283327 -1.229093,-3.99342 -0.18289,-0.843094 -0.515524,-1.988962 -0.649621,-2.48676 -0.979533,-0.749134 -4.223591,-3.341985 -4.97231,-3.946553 0.920497,1.53168 1.81964,3.915939 2.269288,5.282607 2.711904,3.072279 1.961711,7.824699 1.687509,12.726332 -3.181735,-2.36215 -5.157128,-10.423861 -3.133244,-12.430397 -0.675623,-2.331045 -1.696844,-6.275482 -1.696844,-6.275482 -4.374771,-3.395428 -6.794785,-5.94024 -6.794785,-5.94024 0,0 2.91475,3.7795 3.246704,5.80569 2.552712,0.494925 4.685446,4.941695 2.655552,5.700619 -2.966832,1.109208 -6.151514,-3.59763 -3.620534,-5.350638 0,0 -2.241093,-4.12797 -3.975656,-7.748731 -6.8424068,-7.510622 -6.184774,-9.765472 -4.132506,-10.016809 z"
     fill="#ffffff"
     id="path541"
     style="stroke-width:3.7795" /></svg>
