<?xml version="1.0" encoding="UTF-8" standalone="no"?>
<svg
   width="64"
   height="64"
   version="1.1"
   viewBox="0 0 16.933 16.933"
   id="svg24"
   sodipodi:docname="org.gnome.Gtranslator.svg"
   inkscape:version="1.2.2 (b0a8486541, 2022-12-01)"
   xmlns:inkscape="http://www.inkscape.org/namespaces/inkscape"
   xmlns:sodipodi="http://sodipodi.sourceforge.net/DTD/sodipodi-0.dtd"
   xmlns:xlink="http://www.w3.org/1999/xlink"
   xmlns="http://www.w3.org/2000/svg"
   xmlns:svg="http://www.w3.org/2000/svg">
  <defs
     id="defs28">
    <linearGradient
       inkscape:collect="always"
       id="linearGradient1146">
      <stop
         style="stop-color:#f4f5f8;stop-opacity:1"
         offset="0"
         id="stop1142" />
      <stop
         style="stop-color:#e5e8ed;stop-opacity:1"
         offset="1"
         id="stop1144" />
    </linearGradient>
    <linearGradient
       id="linearGradient1053"
       x1="68"
       x2="128"
       y1="62"
       y2="2"
       gradientTransform="matrix(0.91665,0,0,0.91665,2.2353,34.915)"
       gradientUnits="userSpaceOnUse">
      <stop
         stop-color="#e0e4e9"
         offset="0"
         id="stop257" />
      <stop
         stop-color="#fefeff"
         offset="1"
         id="stop259" />
    </linearGradient>
    <linearGradient
       inkscape:collect="always"
       xlink:href="#linearGradient1146"
       id="linearGradient1148"
       x1="-7.7051091"
       y1="-1.9446689"
       x2="-7.7051091"
       y2="-13.612166"
       gradientUnits="userSpaceOnUse" />
  </defs>
  <sodipodi:namedview
     id="namedview26"
     pagecolor="#ffffff"
     bordercolor="#999999"
     borderopacity="1"
     inkscape:showpageshadow="0"
     inkscape:pageopacity="0"
     inkscape:pagecheckerboard="0"
     inkscape:deskcolor="#d1d1d1"
     showgrid="false"
     inkscape:zoom="8.9493202"
     inkscape:cx="58.998895"
     inkscape:cy="36.203867"
     inkscape:window-width="1920"
     inkscape:window-height="962"
     inkscape:window-x="0"
     inkscape:window-y="40"
     inkscape:window-maximized="1"
     inkscape:current-layer="svg24" />
  <rect
     transform="scale(-1)"
     x="-15.30988"
     y="-15.342056"
     width="13.722799"
     height="3.6504927"
     rx="1.0555999"
     ry="1.0583404"
     fill="#26a269"
     id="rect2"
     style="stroke-width:0.999695" />
  <rect
     transform="scale(-1)"
     x="-15.345241"
     y="-15.081381"
     width="13.75816"
     height="4.7620106"
     rx="1.05872"
     ry="1.0437428"
     fill="#aaaaaa"
     id="rect4"
     style="stroke-width:0.999695" />
  <rect
     transform="scale(-1)"
     x="-15.345241"
     y="-14.549594"
     width="13.75816"
     height="13.228735"
     rx="1.05872"
     ry="1.0739809"
     id="rect6"
     style="stroke-width:0.999695;fill:url(#linearGradient1148);fill-opacity:1" />
  <text
     transform="scale(1.0244757,0.97610907)"
     x="5.1851001"
     y="13.278616"
     fill="#4d4d4d"
     font-family="FreeSans"
     font-size="5.28482px"
     font-weight="700"
     stroke-width="0.292618"
     text-align="center"
     text-anchor="middle"
     style="line-height:0%"
     id="text10"><tspan
       x="5.1851001"
       y="13.278616"
       id="tspan8"
       style="stroke-width:0.292618">A</tspan></text>
  <text
     transform="scale(0.97074381,1.0301379)"
     x="11.46277"
     y="8.0482559"
     fill="#4d4d4d"
     font-family="FreeSans"
     font-size="6.69377px"
     font-weight="700"
     stroke-width="0.292618"
     text-align="center"
     text-anchor="middle"
     style="line-height:0%"
     id="text14"><tspan
       x="11.46277"
       y="8.0482559"
       font-size="5.28483px"
       id="tspan12"
       style="stroke-width:0.304717">𝛀</tspan></text>
  <path
     d="m 2.64268,2.3781619 a 0.26416,0.2648458 0 1 0 0,0.5296916 0.26416,0.2648458 0 0 0 0,-0.5296916 z m 1.0556,0 a 0.26416,0.2648458 0 1 0 0,0.5296916 0.26416,0.2648458 0 0 0 0,-0.5296916 z m 1.0556,0 a 0.26416,0.2648458 0 1 0 0,0.5296916 0.26416,0.2648458 0 0 0 0,-0.5296916 z m 1.0556,0 a 0.26416,0.2648458 0 1 0 0,0.5296916 0.26416,0.2648458 0 0 0 0,-0.5296916 z m 1.0556,0 a 0.26416,0.2648458 0 1 0 0,0.5296916 0.26416,0.2648458 0 0 0 0,-0.5296916 z m 1.0556,0 a 0.26416,0.2648458 0 1 0 0,0.5296916 0.26416,0.2648458 0 0 0 0,-0.5296916 z m 1.0556,0 a 0.26416,0.2648458 0 1 0 0,0.5296916 0.26416,0.2648458 0 0 0 0,-0.5296916 z m 1.0556,0 a 0.26416,0.2648458 0 1 0 0,0.5296916 0.26416,0.2648458 0 0 0 0,-0.5296916 z m 1.0556,0 a 0.26416,0.2648458 0 1 0 0,0.5296916 0.26416,0.2648458 0 0 0 0,-0.5296916 z m -9.5004,0 A 0.26416,0.2648458 0 0 1 1.85124,2.6430077 0.26416,0.2648458 0 0 1 1.58708,2.9078535 V 2.6430077 Z m 13.7228,0 a 0.26416,0.2648458 0 0 0 -0.26416,0.2648458 0.26416,0.2648458 0 0 0 0.26416,0.2648458 V 2.6430077 Z"
     fill="#d5d3cf"
     id="path16"
     style="stroke-width:0.999695" />
  <path
     d="m 5.80948,2.3781619 a 0.26416,0.2648458 0 1 0 0,0.5296916 0.26416,0.2648458 0 0 0 0,-0.5296916 z m 1.0556,0 a 0.26416,0.2648458 0 1 0 0,0.5296916 0.26416,0.2648458 0 0 0 0,-0.5296916 z m 1.0556,0 a 0.26416,0.2648458 0 1 0 0,0.5296916 0.26416,0.2648458 0 0 0 0,-0.5296916 z m 1.0556,0 a 0.26416,0.2648458 0 1 0 0,0.5296916 0.26416,0.2648458 0 0 0 0,-0.5296916 z m 1.0556,0 a 0.26416,0.2648458 0 1 0 0,0.5296916 0.26416,0.2648458 0 0 0 0,-0.5296916 z m 1.0556,0 a 0.26416,0.2648458 0 1 0 0,0.5296916 0.26416,0.2648458 0 0 0 0,-0.5296916 z m 1.0556,0 a 0.26416,0.2648458 0 1 0 0,0.5296916 0.26416,0.2648458 0 0 0 0,-0.5296916 z m 1.0556,0 a 0.26416,0.2648458 0 1 0 0,0.5296916 0.26416,0.2648458 0 0 0 0,-0.5296916 z m 1.0556,0 a 0.26416,0.2648458 0 1 0 0,0.5296916 0.26416,0.2648458 0 0 0 0,-0.5296916 z"
     fill="#d5d3cf"
     id="path18"
     style="stroke-width:0.999695" />
  <path
     d="M 6.941,5.8524383 7.149,6.4916134 8.60396,4.8858554 6.48964,4.2122712 6.6134,4.8034821 C 4.5282,5.8566091 4.3098,6.7793986 4.0238,7.7074016 L 5.14908,7.9065573 C 5.41532,6.7804413 6.11628,6.2059136 6.941,5.8524383 Z m 2.52928,5.3240267 -0.208,-0.639176 -1.45496,1.605758 2.11432,0.673585 -0.12376,-0.591211 c 2.0852,-1.053127 2.3036,-1.975917 2.5896,-2.9039198 L 11.2622,9.1223455 C 10.99596,10.248462 10.295,10.822989 9.47028,11.176465 Z"
     fill="#33d17a"
     id="path20"
     style="stroke-width:0.999695" />
</svg>
