<?xml version="1.0" encoding="UTF-8" standalone="no"?>
<svg
   width="64"
   height="64"
   version="1.1"
   id="svg34"
   sodipodi:docname="panel.svg"
   inkscape:version="1.2.2 (b0a8486541, 2022-12-01)"
   xmlns:inkscape="http://www.inkscape.org/namespaces/inkscape"
   xmlns:sodipodi="http://sodipodi.sourceforge.net/DTD/sodipodi-0.dtd"
   xmlns="http://www.w3.org/2000/svg"
   xmlns:svg="http://www.w3.org/2000/svg">
  <defs
     id="defs38">
    <linearGradient
       id="linearGradient26151"
       x1="4.9973001"
       x2="6.1075001"
       y1="-4.6547999"
       y2="-3.5313001"
       gradientUnits="userSpaceOnUse">
      <stop
         stop-color="#1f2626"
         offset="0"
         id="stop831" />
      <stop
         stop-color="#313332"
         offset=".11589"
         id="stop833" />
      <stop
         stop-color="#1a252e"
         offset="1"
         id="stop835" />
    </linearGradient>
  </defs>
  <sodipodi:namedview
     id="namedview36"
     pagecolor="#ffffff"
     bordercolor="#999999"
     borderopacity="1"
     inkscape:showpageshadow="0"
     inkscape:pageopacity="0"
     inkscape:pagecheckerboard="0"
     inkscape:deskcolor="#d1d1d1"
     showgrid="false"
     inkscape:zoom="8.0234375"
     inkscape:cx="36.393379"
     inkscape:cy="16.389484"
     inkscape:window-width="3840"
     inkscape:window-height="1979"
     inkscape:window-x="1920"
     inkscape:window-y="52"
     inkscape:window-maximized="1"
     inkscape:current-layer="svg34" />
  <g
     id="g625"
     transform="translate(0.3553016,16.60868)">
    <path
       id="path170"
       d="M 7.1063946,-9.146984 H 56.183002 c 2.464985,0 4.46151,1.9965256 4.46151,4.46151 v 40.153588 c 0,2.464984 -1.996525,4.46151 -4.46151,4.46151 H 7.1063946 c -2.4649842,0 -4.4615098,-1.996526 -4.4615098,-4.46151 V -4.685474 c 0,-2.4649844 1.9965256,-4.46151 4.4615098,-4.46151 m 0,0"
       style="fill:#4f4f4f;fill-opacity:1" />
    <path
       id="path567"
       d="m 15.312668,-4.684852 c -0.838562,0 -1.513672,0.778889 -1.513672,1.746094 v 35.789062 h 0.002 v 0.871094 c 0,0.967173 0.675082,1.746094 1.513672,1.746094 h 39.355469 c 0.838562,0 1.513672,-0.778888 1.513671,-1.746094 l -0.002,-0.871094 h -0.002 V -2.938758 c 0,-0.967172 -0.675079,-1.746094 -1.513672,-1.746094 z"
       style="fill:#696969;fill-opacity:1" />
    <path
       id="path1870"
       style="opacity:0.2;fill:#ffffff;fill-opacity:1;-inkscape-stroke:none"
       d="m 15.312668,-4.684852 c -0.838562,0 -1.513672,0.832552 -1.513672,1.867188 v 35.667968 h 0.002 v 0.871094 c 0,0.120897 0.01115,0.239656 0.03125,0.353516 0.0201,0.11386 0.04969,0.223609 0.08789,0.328125 0.0382,0.104516 0.08437,0.202057 0.138671,0.294922 0.0543,0.09287 0.115196,0.180859 0.183594,0.259765 0.0684,0.07891 0.144107,0.15025 0.22461,0.212891 0.0805,0.06264 0.167204,0.116088 0.257812,0.160156 0.09061,0.04407 0.184488,0.07838 0.283203,0.101563 0.09871,0.02319 0.201817,0.03516 0.306641,0.03516 h 7.566406 L 41.800949,-4.684852 Z" />
    <circle
       style="fill:#fffffe;fill-opacity:1;fill-rule:evenodd;stroke-width:0.293187;stroke-linecap:round;stroke-linejoin:round;paint-order:stroke fill markers"
       id="path1196"
       cx="8.2072744"
       cy="1.0539653"
       r="1.7881142" />
    <circle
       style="fill:#fffffe;fill-opacity:1;fill-rule:evenodd;stroke-width:0.293187;stroke-linecap:round;stroke-linejoin:round;paint-order:stroke fill markers"
       id="circle1198"
       cx="8.2072744"
       cy="7.3285856"
       r="1.7881142" />
    <circle
       style="fill:#fffffe;fill-opacity:1;fill-rule:evenodd;stroke-width:0.293187;stroke-linecap:round;stroke-linejoin:round;paint-order:stroke fill markers"
       id="circle1200"
       cx="8.2072744"
       cy="13.603206"
       r="1.7881142" />
  </g>
</svg>
