<?xml version="1.0" encoding="UTF-8" standalone="no"?>
<svg
   width="64"
   height="64"
   version="1.1"
   viewBox="0 0 16.933 16.933"
   id="svg19"
   sodipodi:docname="pcsx-icon.svg"
   inkscape:version="1.2.2 (b0a8486541, 2022-12-01)"
   xmlns:inkscape="http://www.inkscape.org/namespaces/inkscape"
   xmlns:sodipodi="http://sodipodi.sourceforge.net/DTD/sodipodi-0.dtd"
   xmlns="http://www.w3.org/2000/svg"
   xmlns:svg="http://www.w3.org/2000/svg">
  <sodipodi:namedview
     id="namedview21"
     pagecolor="#ffffff"
     bordercolor="#999999"
     borderopacity="1"
     inkscape:showpageshadow="0"
     inkscape:pageopacity="0"
     inkscape:pagecheckerboard="0"
     inkscape:deskcolor="#d1d1d1"
     showgrid="false"
     inkscape:zoom="32.09375"
     inkscape:cx="48.825706"
     inkscape:cy="28.556962"
     inkscape:window-width="3840"
     inkscape:window-height="1979"
     inkscape:window-x="1920"
     inkscape:window-y="52"
     inkscape:window-maximized="1"
     inkscape:current-layer="svg19" />
  <defs
     id="defs7">
    <linearGradient
       id="c"
       x1="399.57"
       x2="399.57"
       y1="545.8"
       y2="517.8"
       gradientTransform="matrix(2.1429,0,0,2.1429,-826.36,-1107.5)"
       gradientUnits="userSpaceOnUse">
      <stop
         stop-color="#3889e9"
         offset="0"
         id="stop2" />
      <stop
         stop-color="#5ea5fb"
         offset="1"
         id="stop4" />
    </linearGradient>
  </defs>
  <g
     transform="matrix(0.23811,0,0,0.23811,27.235547,0.83643)"
     stroke-width="1.5715"
     id="g15">
    <circle
       cx="32.02"
       cy="32.043999"
       r="30.000999"
       fill="#476acc"
       id="circle9" />
    <circle
       cx="32.02"
       cy="32.043999"
       r="30.000999"
       fill-opacity="0"
       id="circle11" />
    <circle
       cx="32.02"
       cy="32.043999"
       r="0"
       fill="url(#c)"
       id="circle13"
       style="fill:url(#c)" />
  </g>
  <path
     d="m 34.859907,5.7057 c -3.451,0 -4.4863,1.0388 -4.4863,5.3512 0,0.68917 2.4157,-0.86276 3.1059,-1.8981 h 2.7608 c 0.6902,1.0353 3.1059,2.5779 3.1059,1.8981 0,-4.3138 -1.0353,-5.3512 -4.4863,-5.3512 z m 2.0706,1.0353 a 0.3451,0.3451 0 0 1 0.3451,0.3451 0.3451,0.3451 0 0 1 -0.3451,0.3451 0.3451,0.3451 0 0 1 -0.3451,-0.3451 0.3451,0.3451 0 0 1 0.3451,-0.3451 z m -4.1412,0.00346 h 0.3451 v 0.6902 h 0.6902 v 0.3451 h -0.6902 v 0.6902 h -0.3451 V 7.77975 h -0.6902 v -0.3451 h 0.6902 z m 3.451,0.68675 a 0.3451,0.3451 0 0 1 0.3451,0.3451 0.3451,0.3451 0 0 1 -0.3451,0.3451 0.3451,0.3451 0 0 1 -0.3451,-0.3451 0.3451,0.3451 0 0 1 0.3451,-0.3451 z m 1.3804,0 a 0.3451,0.3451 0 0 1 0.3451,0.3451 0.3451,0.3451 0 0 1 -0.3451,0.3451 0.3451,0.3451 0 0 1 -0.3451,-0.3451 0.3451,0.3451 0 0 1 0.3451,-0.3451 z m -0.6902,0.6902 a 0.3451,0.3451 0 0 1 0.3451,0.3451 0.3451,0.3451 0 0 1 -0.3451,0.3451 0.3451,0.3451 0 0 1 -0.3451,-0.3451 0.3451,0.3451 0 0 1 0.3451,-0.3451 z"
     fill="#ffffff"
     stroke-width="0.3451"
     id="path17" />
  <g
     id="g1042"
     transform="matrix(0.43067425,0,0,0.43067425,4.5042066,3.7089011)">
    <path
       d="m -9.1006421,18.467311 c 0,0 0.2480421,3.932499 3.7981434,3.99451 3.5501014,0.06201 3.9790074,-2.599274 3.9790074,-2.599274 z"
       fill="#3f3f3f"
       p-id="3303"
       id="path250"
       style="stroke-width:0.0516754" />
    <path
       d="m -5.1836452,22.59101 h -0.124021 C -7.2093217,22.55484 -8.175652,21.43348 -8.6510659,20.498155 -9.1626526,19.495652 -9.2298306,18.513819 -9.2298306,18.472479 l 0.1498587,-0.134357 7.7771507,1.400404 0.1033509,0.149859 c -0.00517,0.03101 -0.1188535,0.707953 -0.6872831,1.384901 -0.9043199,1.080017 -2.268551,1.317724 -3.2968918,1.317724 z m -3.7723057,-3.968673 c 0.04134,0.31522 0.1705289,1.043844 0.5374244,1.762132 0.6459427,1.266048 1.6949538,1.917158 3.1160278,1.942996 1.4262416,0.02584 2.5062579,-0.382398 3.2090436,-1.21954 0.3875656,-0.459911 0.5477594,-0.930158 0.6097699,-1.147194 z"
       fill="#333333"
       p-id="3304"
       id="path252"
       style="stroke-width:0.0516754" />
    <path
       d="m 27.501058,18.467311 c 0,0 -0.248042,3.932499 -3.798143,3.99451 -3.550102,0.06201 -4.035851,-2.997174 -4.035851,-2.997174 z"
       fill="#3f3f3f"
       p-id="3305"
       id="path254"
       style="stroke-width:0.0516754" />
    <path
       d="m 23.594396,22.59101 c -1.818975,0 -2.821478,-0.826807 -3.348567,-1.529593 -0.578765,-0.775131 -0.707953,-1.545095 -0.713121,-1.581268 l 0.113686,-0.149858 7.833994,-0.997336 0.144691,0.134356 c 0,0.04134 -0.06718,1.023173 -0.578765,2.025676 -0.475414,0.935326 -1.446912,2.056682 -3.343399,2.092855 -0.03617,0.0052 -0.07235,0.0052 -0.108519,0.0052 z m -3.777473,-3.017845 c 0.06201,0.248042 0.232539,0.800969 0.640775,1.343561 0.723456,0.96633 1.813807,1.441744 3.240049,1.415906 1.421074,-0.02584 2.464918,-0.682115 3.116028,-1.942995 0.372063,-0.728624 0.501251,-1.462415 0.542592,-1.772467 z"
       fill="#333333"
       p-id="3306"
       id="path256"
       style="stroke-width:0.0516754" />
    <path
       d="M -4.2999955,0.67029635 V 0.30856841 c 0,0 0.7492935,-0.73895851 2.470085,-0.67178046 1.72079152,0.067178 2.05151421,0.41340336 2.05151421,0.41340336 v 0.48574894 z"
       fill="#3f3f3f"
       p-id="3307"
       id="path258"
       style="stroke-width:0.0516754" />
    <path
       d="M -4.2999955,0.7994849 -4.4343516,0.67029635 V 0.30856841 l 0.036173,-0.0930158 c 0.031005,-0.0310053 0.8061365,-0.78029884 2.5682683,-0.70795325 1.72595906,0.067178 2.10318963,0.41340336 2.13936242,0.45474369 l 0.0361728,0.08784822 V 0.53594025 L 0.22160371,0.6651288 Z M -4.170807,0.37057891 V 0.5411078 L 0.09241516,0.41708679 V 0.12253689 C -0.03160585,0.05019131 -0.50185217,-0.172013 -1.835078,-0.22885596 -2.69289,-0.26502876 -3.2923249,-0.08933233 -3.6437177,0.06569393 -3.9279325,0.1845474 -4.0984614,0.30856841 -4.170807,0.37057891 Z"
       fill="#333333"
       p-id="3308"
       id="path260"
       style="stroke-width:0.0516754" />
    <path
       d="M 22.540218,0.67029635 V 0.30856841 c 0,0 -0.749294,-0.73895851 -2.470085,-0.67178046 -1.720792,0.067178 -2.051515,0.41340336 -2.051515,0.41340336 v 0.48574894 z"
       fill="#3f3f3f"
       p-id="3309"
       id="path262"
       style="stroke-width:0.0516754" />
    <path
       d="M 22.53505,0.7994849 18.013451,0.6651288 17.88943,0.53594025 V 0.05019131 l 0.03617,-0.08784822 c 0.03617,-0.04134033 0.413403,-0.38239811 2.139362,-0.45474369 1.756964,-0.0723456 2.532096,0.676948 2.568268,0.70795325 l 0.03617,0.0930158 v 0.36172794 z m -4.387243,-0.38756565 4.263222,0.124021 V 0.36541137 C 22.2405,0.22588773 21.506709,-0.29086647 20.0753,-0.2340235 18.747242,-0.1823481 18.276995,0.03985622 18.147807,0.11736935 Z"
       fill="#333333"
       p-id="3310"
       id="path264"
       style="stroke-width:0.0516754" />
    <path
       d="m -6.4135202,3.6157953 c -0.6252726,1.4262416 -1.7466292,6.7281397 -1.9998388,8.3404127 -0.2532095,1.607106 -0.6872831,6.511103 -0.6872831,6.511103 0,0 1.5502626,1.653613 3.7878083,1.756964 2.2375457,0.103351 3.9841749,-0.35656 3.9841749,-0.35656 l 1.45724685,-4.707631 c 0,0 0.41340336,-0.790634 0.79063393,-0.826807 0.37723052,-0.03617 16.18990912,-0.139523 16.18990912,-0.139523 0,0 0.206702,-0.139524 0.552927,0.170529 0.346225,0.310052 1.994671,5.100364 1.994671,5.100364 0,0 0.692451,1.183367 3.860154,0.759628 3.167703,-0.423738 3.958337,-1.689786 3.958337,-1.689786 0,0 -0.37723,-4.857489 -1.545095,-10.7846601 -1.167864,-5.9271707 -2.935164,-7.01752205 -2.935164,-7.01752205 0,0 -1.91199,-0.59426733 -2.919661,-0.55809454 -1.007671,0.0361728 -2.821478,0.5167542 -2.821478,0.5167542 H 1.0742481 c 0,0 -2.0773518,-0.41340336 -3.4209128,-0.41340336 -1.3435609,0 -2.6199438,0.68728309 -2.6199438,0.68728309 0,0 -1.0903513,1.84481246 -1.4469117,2.65094906 z"
       p-id="3311"
       id="path266"
       style="fill:#646464;fill-opacity:1" />
    <path
       d="m 22.2405,20.44648 c -2.12386,0 -2.661284,-0.873315 -2.687122,-0.914655 l -0.01033,-0.02067 c -0.635607,-1.839644 -1.725959,-4.836819 -1.958498,-5.043521 -0.25321,-0.232539 -0.392733,-0.160193 -0.397901,-0.160193 0.0052,0 0.0052,-0.0052 0.0052,-0.0052 l -0.07235,0.02067 c -5.467292,0.0362 -15.8850571,0.10855 -16.17960695,0.139555 -0.21186923,0.02067 -0.52192175,0.444409 -0.68211555,0.749294 l -1.4520793,4.692128 -0.087848,0.08785 c -0.015503,0.0052 -1.7931371,0.465079 -4.0255152,0.361728 -2.2633834,-0.103351 -3.813646,-1.731127 -3.8756565,-1.798305 l -0.036173,-0.09818 c 0.00517,-0.04651 0.439241,-4.924668 0.6924506,-6.516271 0.2687122,-1.710456 1.3900688,-6.9658462 2.0101738,-8.3714176 l 0.1188535,0.051675 -0.1188535,-0.051675 c 0.3565604,-0.8061365 1.410739,-2.58893853 1.4520793,-2.66645166 l 0.051675,-0.0465079 c 0.051675,-0.0310053 1.3177232,-0.70278571 2.6819543,-0.70278571 1.3022205,0 3.24004879,0.37723056 3.4312478,0.41340336 H 17.253822 c 0.196367,-0.0516754 1.865483,-0.48574895 2.836981,-0.5167542 1.018005,-0.0361728 2.883488,0.54259191 2.961001,0.56326207 l 0.03101,0.0155026 c 0.07235,0.0465079 1.824142,1.19370224 2.997174,7.10537034 1.157529,5.8651597 1.545095,10.7484877 1.550262,10.8001627 l -0.02067,0.07751 c -0.03101,0.05168 -0.857812,1.317723 -4.051353,1.746629 -0.506419,0.05684 -0.935325,0.08785 -1.317723,0.08785 z m -2.45975,-1.038676 c 0.07235,0.09818 0.84231,1.074848 3.725798,0.687283 1.59677,-0.217037 2.568268,-0.645943 3.095358,-0.971498 0.465078,-0.284215 0.682115,-0.537425 0.749293,-0.625273 C 27.309859,17.981562 26.906791,13.320439 25.811272,7.7756666 25.217004,4.7578221 24.462543,3.031863 23.940621,2.1172081 23.423867,1.2180558 23.020799,0.90283574 22.948453,0.85116032 22.752087,0.78914981 21.010625,0.27239561 20.090803,0.30340086 19.10897,0.33440612 17.315833,0.80981998 17.295162,0.81498752 l -0.03101,0.005168 H 1.0484104 C 1.0277403,0.81498752 -1.034109,0.4067517 -2.3466647,0.4067517 c -1.1833671,0 -2.3253939,0.552927 -2.526928,0.6562778 -0.1446912,0.2480421 -1.0955189,1.8706502 -1.4210741,2.6096087 -0.6097699,1.3900688 -1.725959,6.6092858 -1.9895036,8.3042398 -0.2325394,1.488252 -0.6304401,5.875495 -0.6821156,6.443925 0.2532096,0.248042 1.6949538,1.586436 3.6637873,1.674284 1.9481633,0.08785 3.5345987,-0.25321 3.8808241,-0.335891 l 1.43657663,-4.635285 0.01033508,-0.02067 C 0.07174499,15.015393 0.48514835,14.245429 0.91922188,14.209256 1.2964524,14.173084 16.127298,14.0749 17.093628,14.069733 c 0.09302,-0.03617 0.341058,-0.08785 0.666613,0.206701 0.341058,0.310053 1.731127,4.294228 2.020509,5.13137 z"
       fill="#333333"
       p-id="3312"
       id="path268"
       style="stroke-width:0.0516754" />
    <path
       d="m 3.399642,11.227585 m -3.87565646,0 a 3.8756565,3.8756565 0 1 0 7.75131296,0 3.8756565,3.8756565 0 1 0 -7.75131296,0 z"
       p-id="3313"
       style="fill:#0064ff;fill-opacity:1"
       id="path5011" />
    <path
       d="m 3.399642,15.23243 c -2.2065404,0 -4.00484501,-1.798305 -4.00484501,-4.004845 0,-2.2065408 1.79830461,-4.0048454 4.00484501,-4.0048454 2.2065405,0 4.0048451,1.7983046 4.0048451,4.0048454 0,2.20654 -1.7983046,4.004845 -4.0048451,4.004845 z m 0,-7.7513133 c -2.0670168,0 -3.74646791,1.6794512 -3.74646791,3.7464683 0,2.067016 1.67945111,3.746468 3.74646791,3.746468 2.0670168,0 3.746468,-1.679452 3.746468,-3.746468 0,-2.0670171 -1.6794512,-3.7464683 -3.746468,-3.7464683 z"
       fill="#333333"
       p-id="3314"
       id="path272"
       style="stroke-width:0.0516754" />
    <path
       d="m 3.399642,11.227585 m -2.0153413,0 a 2.0153414,2.0153414 0 1 0 4.0306827,0 2.0153414,2.0153414 0 1 0 -4.0306827,0 z"
       fill="#3f3f3f"
       p-id="3315"
       id="path274"
       style="stroke-width:0.0516754" />
    <path
       d="m 3.399642,13.372115 c -1.1833671,0 -2.1445299,-0.961163 -2.1445299,-2.14453 0,-1.183367 0.9611628,-2.1445303 2.1445299,-2.1445303 1.1833672,0 2.14453,0.9611633 2.14453,2.1445303 0,1.183367 -0.9611628,2.14453 -2.14453,2.14453 z m 0,-4.0306832 c -1.0386759,0 -1.8861528,0.8474772 -1.8861528,1.8861532 0,1.038676 0.8474769,1.886152 1.8861528,1.886152 1.038676,0 1.8861529,-0.847476 1.8861529,-1.886152 0,-1.038676 -0.8474769,-1.8861532 -1.8861529,-1.8861532 z"
       fill="#333333"
       p-id="3316"
       id="path276"
       style="stroke-width:0.0516754" />
    <path
       d="m 3.399642,11.227585 m -1.24021,0 a 1.2402101,1.2402101 0 1 0 2.4804201,0 1.2402101,1.2402101 0 1 0 -2.4804201,0 z"
       fill="#212121"
       p-id="3317"
       id="path278"
       style="stroke-width:0.0516754" />
    <path
       d="m 3.399642,12.596983 c -0.7544611,0 -1.3693986,-0.614937 -1.3693986,-1.369398 0,-0.754461 0.6149375,-1.369399 1.3693986,-1.369399 0.7544612,0 1.3693987,0.614938 1.3693987,1.369399 0,0.754461 -0.6149375,1.369398 -1.3693987,1.369398 z m 0,-2.485587 c -0.6149375,0 -1.1110215,0.501251 -1.1110215,1.111021 0,0.60977 0.5012516,1.111022 1.1110215,1.111022 0.60977,0 1.1110216,-0.501252 1.1110216,-1.111022 0,-0.60977 -0.4960841,-1.111021 -1.1110216,-1.111021 z"
       fill="#333333"
       p-id="3318"
       id="path280"
       style="stroke-width:0.0516754" />
    <path
       d="m 15.078287,11.227585 m -3.875657,0 a 3.8756565,3.8756565 0 1 0 7.751313,0 3.8756565,3.8756565 0 1 0 -7.751313,0 z"
       p-id="3319"
       id="path282"
       style="fill:#0064ff;fill-opacity:1" />
    <path
       d="m 15.078287,15.23243 c -2.20654,0 -4.004845,-1.798305 -4.004845,-4.004845 0,-2.2065408 1.798305,-4.0048454 4.004845,-4.0048454 2.20654,0 4.004845,1.7983046 4.004845,4.0048454 0,2.20654 -1.798305,4.004845 -4.004845,4.004845 z m 0,-7.7513133 c -2.067017,0 -3.746468,1.6794512 -3.746468,3.7464683 0,2.067016 1.679451,3.746468 3.746468,3.746468 2.067017,0 3.746468,-1.679452 3.746468,-3.746468 0,-2.0670171 -1.684619,-3.7464683 -3.746468,-3.7464683 z"
       fill="#333333"
       p-id="3320"
       id="path284"
       style="stroke-width:0.0516754" />
    <path
       d="m 15.078287,11.227585 m -2.015341,0 a 2.0153414,2.0153414 0 1 0 4.030682,0 2.0153414,2.0153414 0 1 0 -4.030682,0 z"
       fill="#3f3f3f"
       p-id="3321"
       id="path286"
       style="stroke-width:0.0516754" />
    <path
       d="m 15.078287,13.372115 c -1.183367,0 -2.14453,-0.961163 -2.14453,-2.14453 0,-1.183367 0.961163,-2.1445303 2.14453,-2.1445303 1.183367,0 2.14453,0.9611633 2.14453,2.1445303 0,1.183367 -0.96633,2.14453 -2.14453,2.14453 z m 0,-4.0306832 c -1.038676,0 -1.886153,0.8474772 -1.886153,1.8861532 0,1.038676 0.847477,1.886152 1.886153,1.886152 1.038676,0 1.886153,-0.847476 1.886153,-1.886152 0,-1.038676 -0.847477,-1.8861532 -1.886153,-1.8861532 z"
       fill="#333333"
       p-id="3322"
       id="path288"
       style="stroke-width:0.0516754" />
    <path
       d="m 15.109292,11.227585 m -1.250545,0 a 1.2505452,1.2505452 0 1 0 2.50109,0 1.2505452,1.2505452 0 1 0 -2.50109,0 z"
       fill="#212121"
       p-id="3323"
       id="path290"
       style="stroke-width:0.0516754" />
    <path
       d="m 15.109292,12.607318 c -0.759628,0 -1.379734,-0.620105 -1.379734,-1.379733 0,-0.759629 0.620106,-1.3797341 1.379734,-1.3797341 0.759629,0 1.379734,0.6201051 1.379734,1.3797341 0,0.759628 -0.620105,1.379733 -1.379734,1.379733 z m 0,-2.50109 c -0.620105,0 -1.121356,0.501252 -1.121356,1.121357 0,0.620105 0.501251,1.121356 1.121356,1.121356 0.620105,0 1.121357,-0.501251 1.121357,-1.121356 0,-0.620105 -0.501252,-1.121357 -1.121357,-1.121357 z"
       fill="#333333"
       p-id="3324"
       id="path292"
       style="stroke-width:0.0516754" />
    <path
       d="m 1.7356935,3.5227795 c -0.2945499,0 -0.5322568,-0.2377069 -0.5322568,-0.5322568 V 2.0707002 c 0,-0.2945499 0.2377069,-0.5322568 0.5322568,-0.5322568 0.2945499,0 0.5322568,0.2377069 0.5322568,0.5322568 v 0.9198225 c 0,0.2945499 -0.2377069,0.5322568 -0.5322568,0.5322568 z"
       fill="#3f3f3f"
       p-id="3325"
       id="path294"
       style="stroke-width:0.0516754" />
    <path
       d="m 1.7356935,3.6519681 c -0.3668955,0 -0.6614454,-0.2997175 -0.6614454,-0.6614454 V 2.0707002 c 0,-0.3668955 0.2997175,-0.6614453 0.6614454,-0.6614453 0.361728,0 0.6614454,0.2997174 0.6614454,0.6614453 v 0.9198225 c 0,0.3617279 -0.2997174,0.6614454 -0.6614454,0.6614454 z m 0,-1.9895037 c -0.2222043,0 -0.4030683,0.180864 -0.4030683,0.4030683 v 0.9198225 c 0,0.2222043 0.180864,0.4030682 0.4030683,0.4030682 0.2222043,0 0.4030683,-0.1808639 0.4030683,-0.4030682 V 2.0655327 c 0,-0.2222043 -0.180864,-0.4030683 -0.4030683,-0.4030683 z"
       fill="#333333"
       p-id="3326"
       id="path296"
       style="stroke-width:0.0516754" />
    <path
       d="m 16.675057,3.5227795 c -0.294549,0 -0.532256,-0.2377069 -0.532256,-0.5322568 V 2.0707002 c 0,-0.2945499 0.237707,-0.5322568 0.532256,-0.5322568 0.29455,0 0.532257,0.2377069 0.532257,0.5322568 v 0.9198225 c 0.0052,0.2945499 -0.237707,0.5322568 -0.532257,0.5322568 z"
       fill="#3f3f3f"
       p-id="3327"
       id="path298"
       style="stroke-width:0.0516754" />
    <path
       d="m 16.675057,3.6519681 c -0.366895,0 -0.661445,-0.2997175 -0.661445,-0.6614454 V 2.0707002 c 0,-0.3668955 0.299717,-0.6614453 0.661445,-0.6614453 0.361728,0 0.661446,0.2997174 0.661446,0.6614453 v 0.9198225 c 0.0052,0.3617279 -0.29455,0.6614454 -0.661446,0.6614454 z m 0,-1.9895037 c -0.222204,0 -0.403068,0.180864 -0.403068,0.4030683 v 0.9198225 c 0,0.2222043 0.180864,0.4030682 0.403068,0.4030682 0.222205,0 0.403069,-0.1808639 0.403069,-0.4030682 V 2.0655327 c 0.0052,-0.2222043 -0.180864,-0.4030683 -0.403069,-0.4030683 z"
       fill="#333333"
       p-id="3328"
       id="path300"
       style="stroke-width:0.0516754" />
    <path
       d="M 14.184302,7.0625458 H 4.1179304 c -0.5839323,0 -1.0541786,-0.4754139 -1.0541786,-1.0541786 V 0.69096651 H 15.238481 V 6.0083672 c 0,0.5787647 -0.475414,1.0541786 -1.054179,1.0541786 z"
       fill="#3f3f3f"
       p-id="3329"
       id="path302"
       style="stroke-width:0.0516754" />
    <path
       d="M 14.184302,7.1917344 H 4.1179304 c -0.6562779,0 -1.1833671,-0.5322569 -1.1833671,-1.1833672 V 0.69096651 L 3.0637518,0.56177796 H 15.238481 l 0.129188,0.12918855 V 6.0083672 c 0,0.6511103 -0.532257,1.1833672 -1.183367,1.1833672 z M 3.1929404,0.82015506 V 6.0083672 c 0,0.5115867 0.4185709,0.92499 0.92499,0.92499 H 14.179135 c 0.511586,0 0.92499,-0.4185709 0.92499,-0.92499 V 0.82015506 Z"
       fill="#333333"
       p-id="3330"
       id="path304"
       style="stroke-width:0.0516754" />
    <path
       d="m 20.654065,3.2799051 m -1.15753,0 a 1.1575295,1.1575295 0 1 0 2.315059,0 1.1575295,1.1575295 0 1 0 -2.315059,0 z"
       fill="#3f3f3f"
       p-id="3331"
       id="path306"
       style="stroke-width:0.0516754" />
    <path
       d="m 20.654065,4.566623 c -0.707953,0 -1.286718,-0.5787647 -1.286718,-1.2867179 0,-0.7079533 0.578765,-1.286718 1.286718,-1.286718 0.707953,0 1.286718,0.5787647 1.286718,1.286718 0,0.7079532 -0.573597,1.2867179 -1.286718,1.2867179 z m 0,-2.3202263 c -0.56843,0 -1.028341,0.4599112 -1.028341,1.0283408 0,0.5684296 0.459911,1.0283409 1.028341,1.0283409 0.568429,0 1.028341,-0.4599113 1.028341,-1.0283409 0,-0.5684296 -0.459912,-1.0283408 -1.028341,-1.0283408 z"
       fill="#333333"
       p-id="3332"
       id="path308"
       style="stroke-width:0.0516754" />
    <path
       d="m 20.654065,8.6334786 m -1.15753,0 a 1.1575295,1.1575295 0 1 0 2.315059,0 1.1575295,1.1575295 0 1 0 -2.315059,0 z"
       fill="#3f3f3f"
       p-id="3333"
       id="path310"
       style="stroke-width:0.0516754" />
    <path
       d="m 20.654065,9.9253641 c -0.707953,0 -1.286718,-0.5787647 -1.286718,-1.286718 0,-0.7079532 0.578765,-1.2867179 1.286718,-1.2867179 0.707953,0 1.286718,0.5787647 1.286718,1.2867179 0.0052,0.7079533 -0.573597,1.286718 -1.286718,1.286718 z m 0,-2.3202264 c -0.56843,0 -1.028341,0.4599112 -1.028341,1.0283409 0,0.5684296 0.459911,1.0283408 1.028341,1.0283408 0.568429,0 1.028341,-0.4599112 1.028341,-1.0283408 0,-0.5684297 -0.459912,-1.0283409 -1.028341,-1.0283409 z"
       fill="#333333"
       p-id="3334"
       id="path312"
       style="stroke-width:0.0516754" />
    <path
       d="m 17.982446,5.9876971 m -1.15753,0 a 1.1575295,1.1575295 0 1 0 2.315059,0 1.1575295,1.1575295 0 1 0 -2.315059,0 z"
       fill="#3f3f3f"
       p-id="3335"
       id="path314"
       style="stroke-width:0.0516754" />
    <path
       d="m 17.982446,7.274415 c -0.707954,0 -1.286718,-0.5787647 -1.286718,-1.2867179 0,-0.7079533 0.578764,-1.286718 1.286718,-1.286718 0.707953,0 1.286718,0.5787647 1.286718,1.286718 0,0.7079532 -0.578765,1.2867179 -1.286718,1.2867179 z m 0,-2.3150588 c -0.56843,0 -1.028341,0.4599112 -1.028341,1.0283409 0,0.5684296 0.459911,1.0283408 1.028341,1.0283408 0.568429,0 1.02834,-0.4599112 1.02834,-1.0283408 0,-0.5684297 -0.465078,-1.0283409 -1.02834,-1.0283409 z"
       fill="#333333"
       p-id="3336"
       id="path316"
       style="stroke-width:0.0516754" />
    <path
       d="m 23.444537,5.9876971 m -1.157529,0 a 1.1575295,1.1575295 0 1 0 2.315059,0 1.1575295,1.1575295 0 1 0 -2.315059,0 z"
       fill="#3f3f3f"
       p-id="3337"
       id="path318"
       style="stroke-width:0.0516754" />
    <path
       d="m 23.444537,7.274415 c -0.707953,0 -1.286718,-0.5787647 -1.286718,-1.2867179 0,-0.7079533 0.578765,-1.286718 1.286718,-1.286718 0.707954,0 1.286718,0.5787647 1.286718,1.286718 0,0.7079532 -0.573597,1.2867179 -1.286718,1.2867179 z m 0,-2.3150588 c -0.568429,0 -1.02834,0.4599112 -1.02834,1.0283409 0,0.5684296 0.459911,1.0283408 1.02834,1.0283408 0.56843,0 1.028341,-0.4599112 1.028341,-1.0283408 0,-0.5684297 -0.459911,-1.0283409 -1.028341,-1.0283409 z"
       fill="#333333"
       p-id="3338"
       id="path320"
       style="stroke-width:0.0516754" />
    <path
       d="M -3.1838065,3.1248788 V 4.7009791 L -2.3518322,5.4606078 -1.530193,4.6182984 V 3.1248788 Z"
       fill="#3f3f3f"
       p-id="3339"
       id="path322"
       style="stroke-width:0.0516754" />
    <path
       d="m -2.4345129,5.5587911 -0.8319742,-0.7596287 -0.04134,-0.098183 V 3.1248788 l 0.1291886,-0.1291886 h 1.6536134 l 0.1291886,0.1291886 v 1.4934196 l -0.036173,0.087848 -0.8164717,0.8423094 z m -0.620105,-0.914655 0.6976181,0.6356077 0.6976182,-0.7131208 V 3.2540673 h -1.3952363 z"
       fill="#333333"
       p-id="3340"
       id="path324"
       style="stroke-width:0.0516754" />
    <path
       d="M -1.530193,9.0882223 V 7.512122 L -2.3621673,6.7524933 -3.1838065,7.5948026 v 1.4934197 z"
       fill="#3f3f3f"
       p-id="3341"
       id="path326"
       style="stroke-width:0.0516754" />
    <path
       d="M -1.530193,9.2174108 H -3.1838065 L -3.312995,9.0882223 V 7.5948026 l 0.036173,-0.087848 0.8164716,-0.8423093 0.180864,-0.00517 0.8319742,0.7596287 0.04134,0.098183 V 9.0933898 Z M -3.0546179,8.9590337 h 1.3952363 V 7.5689649 L -2.3569998,6.9333572 -3.0546179,7.646478 Z"
       fill="#333333"
       p-id="3342"
       id="path328"
       style="stroke-width:0.0516754" />
    <path
       d="m -5.2301531,6.8816818 h 1.5761003 L -2.8995917,6.0497076 -3.741901,5.2280684 h -1.4882521 z"
       fill="#3f3f3f"
       p-id="3343"
       id="path330"
       style="stroke-width:0.0516754" />
    <path
       d="M -3.6540528,7.0108704 H -5.2301531 L -5.3593417,6.8816818 V 5.2280684 l 0.1291886,-0.1291886 h 1.4934196 l 0.087848,0.036173 0.8423094,0.8164717 0.00517,0.1808639 -0.7596286,0.8319743 z M -5.1009646,6.7524933 h 1.3900688 L -3.0752881,6.0548751 -3.7935764,5.3572569 h -1.3125557 v 1.3952364 z"
       fill="#333333"
       p-id="3344"
       id="path332"
       style="stroke-width:0.0516754" />
    <path
       d="M 0.52132114,5.2280684 H -1.0547792 l -0.7596286,0.8371418 0.84230931,0.8164716 h 1.49341963 z"
       fill="#3f3f3f"
       p-id="3345"
       id="path334"
       style="stroke-width:0.0516754" />
    <path
       d="m 0.52132114,7.0108704 h -1.49341963 l -0.0878482,-0.036173 -0.8423094,-0.8164717 -0.00517,-0.1808639 0.7596287,-0.8319743 0.098183,-0.04134 H 0.52648869 L 0.65567724,5.2332359 V 6.8868494 Z M -0.92042307,6.7524933 H 0.39213259 V 5.3572569 H -0.9979362 l -0.6356077,0.6976182 z"
       fill="#333333"
       p-id="3346"
       id="path336"
       style="stroke-width:0.0516754" />
    <path
       d="M 7.2752985,14.281602 7.823058,13.73901 h 3.126363 l 0.439241,0.496084 z"
       fill="#3f3f3f"
       p-id="3347"
       id="path338"
       style="stroke-width:0.0516754" />
    <path
       d="m 7.2752985,14.410791 -0.093016,-0.222205 0.5477594,-0.542592 0.093016,-0.03617 h 3.1263631 l 0.09818,0.04134 0.439241,0.496084 -0.09302,0.217037 z M 7.8747334,13.868199 7.5905186,14.147246 11.09928,14.105906 10.88741,13.863031 H 7.8747334 Z"
       fill="#333333"
       p-id="3348"
       id="path340"
       style="stroke-width:0.0516754" />
    <path
       d="m 9.2751373,11.310265 m -0.9353251,0 a 0.9353251,0.9353251 0 1 0 1.8706498,0 0.9353251,0.9353251 0 1 0 -1.8706498,0 z"
       fill="#ffce00"
       p-id="3349"
       id="path342"
       style="stroke-width:0.0516754" />
    <path
       d="m 9.2751373,12.374779 c -0.5890998,0 -1.0645137,-0.475414 -1.0645137,-1.064514 0,-0.589099 0.4754139,-1.064513 1.0645137,-1.064513 0.5890998,0 1.0645137,0.475414 1.0645137,1.064513 0,0.5891 -0.4805815,1.064514 -1.0645137,1.064514 z m 0,-1.87065 c -0.4444086,0 -0.8061366,0.361728 -0.8061366,0.806136 0,0.444409 0.361728,0.806137 0.8061366,0.806137 0.4444086,0 0.8061367,-0.361728 0.8061367,-0.806137 0,-0.444408 -0.3617281,-0.806136 -0.8061367,-0.806136 z"
       fill="#333333"
       p-id="3350"
       id="path344"
       style="stroke-width:0.0516754" />
    <path
       d="m 8.014257,8.4629497 c -0.1085183,0 -0.1963666,-0.087848 -0.1963666,-0.1963666 0,-0.1085184 0.087848,-0.1963666 0.1963666,-0.1963666 0.1085184,0 0.1963666,0.087848 0.1963666,0.1963666 0,0.1085184 -0.087848,0.1963666 -0.1963666,0.1963666 z m 0,-0.2583771 c -0.036173,0 -0.062011,0.025838 -0.062011,0.06201 0,0.036173 0.025838,0.06201 0.062011,0.06201 0.036173,0 0.06201,-0.025838 0.06201,-0.06201 0,-0.036173 -0.031005,-0.06201 -0.06201,-0.06201 z m 0.3462254,0.7699637 c -0.1085184,0 -0.1963666,-0.087848 -0.1963666,-0.1963666 0,-0.1085183 0.087848,-0.1963666 0.1963666,-0.1963666 0.1085183,0 0.1963666,0.087848 0.1963666,0.1963666 0,0.1085184 -0.087848,0.1963666 -0.1963666,0.1963666 z m 0,-0.2583771 c -0.036173,0 -0.062011,0.025838 -0.062011,0.06201 0,0.036173 0.025838,0.062011 0.062011,0.062011 0.036173,0 0.06201,-0.025838 0.06201,-0.062011 0,-0.036173 -0.025838,-0.06201 -0.06201,-0.06201 z M 8.691205,9.4396151 c -0.1085183,0 -0.1963666,-0.087848 -0.1963666,-0.1963666 0,-0.1085184 0.087848,-0.1963666 0.1963666,-0.1963666 0.1085184,0 0.1963666,0.087848 0.1963666,0.1963666 0,0.1085184 -0.087848,0.1963666 -0.1963666,0.1963666 z m 0,-0.2583771 c -0.036173,0 -0.06201,0.025838 -0.06201,0.06201 0,0.036173 0.025838,0.06201 0.06201,0.06201 0.036173,0 0.06201,-0.025838 0.06201,-0.06201 0,-0.036173 -0.025838,-0.06201 -0.06201,-0.06201 z m 0.666613,0.2583771 c -0.1085184,0 -0.1963666,-0.087848 -0.1963666,-0.1963666 0,-0.1085184 0.087848,-0.1963666 0.1963666,-0.1963666 0.1085183,0 0.1963666,0.087848 0.1963666,0.1963666 0,0.1085184 -0.087848,0.1963666 -0.1963666,0.1963666 z m 0,-0.2583771 c -0.036173,0 -0.06201,0.025838 -0.06201,0.06201 0,0.036173 0.025838,0.06201 0.06201,0.06201 0.036173,0 0.06201,-0.025838 0.06201,-0.06201 0,-0.036173 -0.025838,-0.06201 -0.06201,-0.06201 z m 0.697618,0.2583771 c -0.1085182,0 -0.1963665,-0.087848 -0.1963665,-0.1963666 0,-0.1085184 0.087848,-0.1963666 0.1963665,-0.1963666 0.108519,0 0.196367,0.087848 0.196367,0.1963666 -0.0052,0.1085184 -0.09302,0.1963666 -0.196367,0.1963666 z m 0,-0.2583771 c -0.03617,0 -0.06201,0.025838 -0.06201,0.06201 0,0.036173 0.025837,0.06201 0.06201,0.06201 0.03617,0 0.06201,-0.025838 0.06201,-0.06201 0,-0.036173 -0.03101,-0.06201 -0.06201,-0.06201 z M 9.0374304,8.9745363 c -0.1085184,0 -0.1963666,-0.087848 -0.1963666,-0.1963666 0,-0.1085183 0.087848,-0.1963666 0.1963666,-0.1963666 0.1085183,0 0.1963666,0.087848 0.1963666,0.1963666 0,0.1085184 -0.087848,0.1963666 -0.1963666,0.1963666 z m 0,-0.2583771 c -0.036173,0 -0.06201,0.025838 -0.06201,0.06201 0,0.036173 0.025838,0.062011 0.06201,0.062011 0.036173,0 0.06201,-0.025838 0.06201,-0.062011 0,-0.036173 -0.025838,-0.06201 -0.06201,-0.06201 z m 0.6717804,0.2583771 c -0.1085184,0 -0.1963666,-0.087848 -0.1963666,-0.1963666 0,-0.1085183 0.087848,-0.1963666 0.1963666,-0.1963666 0.1085184,0 0.1963666,0.087848 0.1963666,0.1963666 0,0.1085184 -0.087848,0.1963666 -0.1963666,0.1963666 z m 0,-0.2583771 c -0.036173,0 -0.06201,0.025838 -0.06201,0.06201 0,0.036173 0.025838,0.062011 0.06201,0.062011 0.036173,0 0.062011,-0.025838 0.062011,-0.062011 0,-0.036173 -0.025838,-0.06201 -0.062011,-0.06201 z m 0.6666132,0.2583771 c -0.108519,0 -0.196367,-0.087848 -0.196367,-0.1963666 0,-0.1085183 0.08785,-0.1963666 0.196367,-0.1963666 0.108518,0 0.196366,0.087848 0.196366,0.1963666 0,0.1085184 -0.08785,0.1963666 -0.196366,0.1963666 z m 0,-0.2583771 c -0.03617,0 -0.06201,0.025838 -0.06201,0.06201 0,0.036173 0.02584,0.062011 0.06201,0.062011 0.03617,0 0.06201,-0.025838 0.06201,-0.062011 0,-0.036173 -0.03101,-0.06201 -0.06201,-0.06201 z M 8.7170428,8.4629497 c -0.1085184,0 -0.1963666,-0.087848 -0.1963666,-0.1963666 0,-0.1085184 0.087848,-0.1963666 0.1963666,-0.1963666 0.1085183,0 0.1963666,0.087848 0.1963666,0.1963666 0,0.1085184 -0.087848,0.1963666 -0.1963666,0.1963666 z m 0,-0.2583771 c -0.036173,0 -0.06201,0.025838 -0.06201,0.06201 0,0.036173 0.025838,0.06201 0.06201,0.06201 0.036173,0 0.06201,-0.025838 0.06201,-0.06201 0,-0.036173 -0.025838,-0.06201 -0.06201,-0.06201 z m 0.620105,0.2583771 c -0.1085184,0 -0.1963666,-0.087848 -0.1963666,-0.1963666 0,-0.1085184 0.087848,-0.1963666 0.1963666,-0.1963666 0.1085184,0 0.1963666,0.087848 0.1963666,0.1963666 0,0.1085184 -0.087848,0.1963666 -0.1963666,0.1963666 z m 0,-0.2583771 c -0.036173,0 -0.06201,0.025838 -0.06201,0.06201 0,0.036173 0.025838,0.06201 0.06201,0.06201 0.036173,0 0.06201,-0.025838 0.06201,-0.06201 0,-0.036173 -0.025838,-0.06201 -0.06201,-0.06201 z m 0.7079532,0.2583771 c -0.1085183,0 -0.1963665,-0.087848 -0.1963665,-0.1963666 0,-0.1085184 0.087848,-0.1963666 0.1963665,-0.1963666 0.108518,0 0.196367,0.087848 0.196367,0.1963666 0,0.1085184 -0.08785,0.1963666 -0.196367,0.1963666 z m 0,-0.2583771 c -0.03617,0 -0.062011,0.025838 -0.062011,0.06201 0,0.036173 0.025837,0.06201 0.062011,0.06201 0.03617,0 0.06201,-0.025838 0.06201,-0.06201 0,-0.036173 -0.03101,-0.06201 -0.06201,-0.06201 z m 0.687283,0.2583771 c -0.108518,0 -0.196366,-0.087848 -0.196366,-0.1963666 0,-0.1085184 0.08785,-0.1963666 0.196366,-0.1963666 0.108519,0 0.196367,0.087848 0.196367,0.1963666 0,0.1085184 -0.08785,0.1963666 -0.196367,0.1963666 z m 0,-0.2583771 c -0.03617,0 -0.06201,0.025838 -0.06201,0.06201 0,0.036173 0.02584,0.06201 0.06201,0.06201 0.03617,0 0.06201,-0.025838 0.06201,-0.06201 0,-0.036173 -0.02584,-0.06201 -0.06201,-0.06201 z"
       fill="#333333"
       p-id="3351"
       id="path346"
       style="stroke-width:0.0516754" />
    <path
       d="m 20.654065,2.6132921 -0.63044,1.0903514 h 1.26088 z"
       fill="#3f3f3f"
       p-id="3352"
       id="path348"
       style="stroke-width:0.0516754" />
    <path
       d="m 21.284505,3.8328321 h -1.26088 c -0.04651,0 -0.08785,-0.025838 -0.113686,-0.062011 -0.02584,-0.036173 -0.02067,-0.087848 0,-0.1291885 l 0.63044,-1.0903514 c 0.02067,-0.04134 0.06718,-0.06201 0.113686,-0.06201 0.04651,0 0.08785,0.025838 0.113686,0.06201 l 0.63044,1.0903514 c 0.02067,0.04134 0.02067,0.087848 0,0.1291885 -0.02067,0.04134 -0.06718,0.062011 -0.113686,0.062011 z M 20.250997,3.5744549 h 0.811304 L 20.659232,2.8716692 Z"
       fill="#00ffd4"
       p-id="3353"
       id="path350"
       style="stroke-width:0.0516754" />
    <path
       d="m 17.507032,5.5122832 h 0.950827 v 0.9508277 h -0.950827 z"
       fill="#3f3f3f"
       p-id="3354"
       id="path352"
       style="stroke-width:0.0516754" />
    <path
       d="m 18.452692,6.5922995 h -0.950828 c -0.07235,0 -0.129188,-0.056843 -0.129188,-0.1291886 V 5.5122832 c 0,-0.072346 0.05684,-0.1291885 0.129188,-0.1291885 h 0.950828 c 0.07235,0 0.129188,0.056843 0.129188,0.1291885 v 0.9508277 c 0,0.072346 -0.05684,0.1291886 -0.129188,0.1291886 z M 17.63622,6.3339224 h 0.692451 V 5.6414718 H 17.63622 Z"
       fill="#0b8bff"
       p-id="3355"
       id="path354"
       style="stroke-width:0.0516754" />
    <path
       d="m 21.191489,8.0547139 -1.105854,1.105854"
       fill="#3f3f3f"
       p-id="3356"
       id="path356"
       style="stroke-width:0.0516754" />
    <path
       d="m 20.085635,9.2897564 c -0.03101,0 -0.06718,-0.010335 -0.09302,-0.036173 -0.05168,-0.051675 -0.05168,-0.1343561 0,-0.180864 l 1.105854,-1.1058539 c 0.05168,-0.051675 0.134356,-0.051675 0.180864,0 0.05168,0.051675 0.05168,0.134356 0,0.1808639 l -1.105854,1.105854 c -0.02067,0.02067 -0.05684,0.036173 -0.08785,0.036173 z"
       fill="#ffb208"
       p-id="3357"
       id="path358"
       style="stroke-width:0.0516754" />
    <path
       d="M 21.191489,9.1605679 20.085635,8.0547139"
       fill="#3f3f3f"
       p-id="3358"
       id="path360"
       style="stroke-width:0.0516754" />
    <path
       d="m 21.191489,9.2897564 c -0.03101,0 -0.06718,-0.010335 -0.09302,-0.036173 l -1.10585,-1.1110213 c -0.05168,-0.051675 -0.05168,-0.1343561 0,-0.180864 0.05168,-0.051675 0.134356,-0.051675 0.180864,0 l 1.105854,1.105854 c 0.05168,0.051675 0.05168,0.1343561 0,0.180864 -0.02067,0.025838 -0.05684,0.04134 -0.08785,0.04134 z"
       fill="#ffb208"
       p-id="3359"
       id="path362"
       style="stroke-width:0.0516754" />
    <path
       d="M 23.801098,6.2150689 H 23.16549 c -0.07234,0 -0.129188,-0.056843 -0.129188,-0.1291885 0,-0.072346 0.05684,-0.1291886 0.129188,-0.1291886 h 0.635608 c 0.07235,0 0.129188,0.056843 0.129188,0.1291886 0,0.072345 -0.05684,0.1291885 -0.129188,0.1291885 z"
       fill="#ff0068"
       p-id="3360"
       id="path364"
       style="stroke-width:0.0516754" />
    <path
       d="m 22.963956,6.6284723 c -0.0155,0 -0.03101,-0.00517 -0.04651,-0.010335 -0.06718,-0.025838 -0.09818,-0.1033509 -0.07234,-0.1705289 l 0.490916,-1.2195399 c 0.02067,-0.046508 0.06718,-0.077513 0.113686,-0.082681 0.05167,0 0.09818,0.025838 0.118853,0.072346 l 0.573598,1.2195399 c 0.03101,0.062011 0.0052,0.1395237 -0.06201,0.1705289 -0.06201,0.031005 -0.139524,0.00517 -0.170529,-0.06201 L 23.46004,5.5949639 23.08281,6.5406241 c -0.02067,0.056843 -0.07235,0.087848 -0.118854,0.087848 z"
       fill="#ff0068"
       p-id="3361"
       id="path366"
       style="stroke-width:0.0516754" />
  </g>
</svg>
