<?xml version="1.0" encoding="UTF-8" standalone="no"?>
<svg
   width="64"
   height="64"
   version="1.1"
   viewBox="0 0 16.933 16.933"
   id="svg18"
   sodipodi:docname="pdfmod.svg"
   inkscape:version="1.2.2 (b0a8486541, 2022-12-01)"
   xmlns:inkscape="http://www.inkscape.org/namespaces/inkscape"
   xmlns:sodipodi="http://sodipodi.sourceforge.net/DTD/sodipodi-0.dtd"
   xmlns="http://www.w3.org/2000/svg"
   xmlns:svg="http://www.w3.org/2000/svg"
   xmlns:rdf="http://www.w3.org/1999/02/22-rdf-syntax-ns#"
   xmlns:cc="http://creativecommons.org/ns#"
   xmlns:dc="http://purl.org/dc/elements/1.1/">
  <defs
     id="defs22">
    <linearGradient
       id="a-5"
       x1="15.791"
       x2="15.409"
       y1="1012.1"
       y2="1044"
       gradientTransform="matrix(2.3251,0,0,2.2552,-105.94,-2298.3)"
       gradientUnits="userSpaceOnUse">
      <stop
         stop-color="#fc8f2f"
         offset="0"
         id="stop499" />
      <stop
         stop-color="#ed1515"
         offset="1"
         id="stop501" />
    </linearGradient>
    <linearGradient
       id="b-9"
       x1="33.462002"
       x2="34.117001"
       y1="1013.6"
       y2="1037.2"
       gradientTransform="matrix(1.5553,0,0,2.2552,-80.369,-2298.3)"
       gradientUnits="userSpaceOnUse">
      <stop
         stop-color="#f6fbff"
         offset="0"
         id="stop504" />
      <stop
         stop-color="#eaeff2"
         offset="1"
         id="stop506" />
    </linearGradient>
    <linearGradient
       id="c-1"
       x1="27.799999"
       x2="27.799999"
       y1="1037.4"
       y2="1011.4"
       gradientTransform="matrix(2.2552,0,0,2.2552,-104.79,-2298.3)"
       gradientUnits="userSpaceOnUse">
      <stop
         stop-color="#ef2f0f"
         offset="0"
         id="stop509" />
      <stop
         stop-color="#f56603"
         offset="1"
         id="stop511" />
    </linearGradient>
  </defs>
  <sodipodi:namedview
     id="namedview20"
     pagecolor="#ffffff"
     bordercolor="#999999"
     borderopacity="1"
     inkscape:showpageshadow="0"
     inkscape:pageopacity="0"
     inkscape:pagecheckerboard="0"
     inkscape:deskcolor="#d1d1d1"
     showgrid="false"
     inkscape:zoom="16.046875"
     inkscape:cx="31.844206"
     inkscape:cy="32"
     inkscape:window-width="3840"
     inkscape:window-height="1975"
     inkscape:window-x="1920"
     inkscape:window-y="52"
     inkscape:window-maximized="1"
     inkscape:current-layer="svg18" />
  <metadata
     id="metadata2">
    <rdf:RDF>
      <cc:Work
         rdf:about="">
        <dc:format>image/svg+xml</dc:format>
        <dc:type
           rdf:resource="http://purl.org/dc/dcmitype/StillImage" />
        <dc:title />
      </cc:Work>
    </rdf:RDF>
  </metadata>
  <g
     id="g783"
     transform="translate(-0.34918952,-0.3923017)">
    <g
       fill-rule="evenodd"
       id="g10"
       transform="matrix(1.0550083,0,0,1.0550083,-0.11643275,-0.07251881)">
      <path
         d="m 14.287,1.852 c 0.29315,0 0.52916,0.236 0.52916,0.52916 v 12.171 c 0,0.29315 -0.236,0.52916 -0.52916,0.52916 H 8.2019 v -13.229 z"
         fill="#ececec"
         style="paint-order:fill markers stroke"
         id="path4" />
      <path
         d="m 2.6458,1.852 c -0.29315,0 -0.52916,0.236 -0.52916,0.52916 v 12.171 c 0,0.29315 0.236,0.52916 0.52916,0.52916 h 6.6145 v -13.229 z"
         fill="#f44040"
         style="paint-order:fill markers stroke"
         id="path6" />
      <path
         d="m 12.7,1.3229 c 0.25899,-0.028774 0.52916,0.070082 0.52916,0.52916 v 13.229 c 0,0.42768 -0.26965,0.55275 -0.52916,0.52916 L 7.9373,15.08095 v -13.229 z"
         fill="#d62929"
         style="paint-order:fill markers stroke"
         id="path8" />
    </g>
    <path
       d="M 8.2024131,4.6745965 C 8.1184102,4.6611504 8.0354686,4.7168749 7.9471644,4.8673465 7.8058777,5.1069811 7.7407943,5.7779769 7.8572134,6.4233782 7.8965451,6.6439488 7.9805649,6.9647663 8.0943581,7.3147231 8.0042963,7.6425247 7.9034122,7.9901183 7.7935331,8.3351377 7.3594816,9.6983139 6.4271918,11.126584 5.935558,11.895158 5.6247209,12.378942 4.8773846,12.947486 4.8140841,12.83671 c -0.062168,-0.110776 0.148387,-0.359103 0.4106093,-0.756979 0.261104,-0.395628 0.9298948,-0.806047 0.9298948,-0.806047 0,0 -0.2856013,-0.01112 -1.0169225,0.633163 C 4.4063445,12.554517 4.627738,12.87448 4.801825,12.972828 4.9747619,13.073423 5.4604983,13.457424 7.1108161,10.592096 7.7134157,9.5453904 8.0632881,8.5934881 8.2667887,7.8041309 8.4752372,8.3441369 8.7442643,8.8897344 9.0430532,9.2334561 9.2172457,9.43491 9.4461297,9.6268371 9.7001757,9.804722 9.5001356,9.8411652 9.2703126,9.8854861 8.9589585,9.9425694 7.8188111,10.149351 7.2513221,10.597835 7.2387675,10.607858 c 0.00919,-0.0029 1.3350075,-0.422299 2.7435491,-0.6174018 0.5540064,0.3370648 1.1903654,0.5963538 1.7166044,0.7015068 0.821039,0.166111 1.044816,-0.134872 1.071255,-0.175226 -0.032,0.02649 -0.138691,0.07614 -0.477803,0.04731 -0.272466,-0.02247 -1.017397,-0.233125 -1.772203,-0.6378368 1.56289,-0.1444201 2.103054,0.014382 2.242315,0.1255778 0.139029,0.111905 0.139018,0.235393 0.139018,0.235393 0,0 0.178888,-0.172926 0.06133,-0.3481313 C 12.863373,9.7570713 12.710559,9.6056671 11.45702,9.6440799 10.835483,9.6625259 10.500781,9.6838729 10.180776,9.7264379 9.8010345,9.4901966 9.4352526,9.20852 9.1469294,8.8672353 8.7604271,8.409731 8.5241369,7.8831552 8.3700634,7.3649035 8.6009415,6.2531358 8.5291165,5.5648484 8.5283569,5.5576743 c 0,0 -0.1172747,0.5328003 -0.2978921,1.2354147 C 8.1268376,6.2620189 8.0912248,5.7724002 8.0616634,5.4245323 7.998365,4.626524 8.3554199,4.8479175 8.4062713,4.9496519 c 0.081382,0.065559 0.1209145,0.2838711 0.1209145,0.2838711 0,0 -0.028135,-0.3259448 -0.1705526,-0.4661132 -0.052985,-0.052135 -0.1038002,-0.084804 -0.1542,-0.092872 z M 7.238642,10.607963 c -3.18e-5,1.1e-5 -0.0035,0.0012 -0.0035,0.0012 l -0.00117,0.0023 c 0,0 0.00453,-0.0034 0.00467,-0.0035 z"
       fill="#ffffff"
       id="path12"
       style="stroke-width:1.05501" />
  </g>
  <circle
     cx="12.171"
     cy="12.171"
     r="4.2333"
     fill="#3e97f2"
     stroke-width=".26458"
     id="circle14" />
  <path
     d="m10.054 13.344v0.94295h0.94289l2.3814-2.3814-0.94289-0.94289zm4.1584-2.2696c0.09973-0.09973 0.09973-0.25688 0-0.35661l-0.58932-0.58932c-0.09973-0.09973-0.25688-0.09973-0.35661 0l-0.49264 0.49581 0.94294 0.94294z"
     fill="#fff"
     stroke-width=".26458"
     id="path16" />
</svg>
