<?xml version="1.0" encoding="UTF-8" standalone="no"?>
<svg
   width="64"
   height="64"
   version="1.1"
   viewBox="0 0 16.933 16.933"
   id="svg12"
   sodipodi:docname="pdfshuffler.svg"
   inkscape:version="1.2.2 (b0a8486541, 2022-12-01)"
   xmlns:inkscape="http://www.inkscape.org/namespaces/inkscape"
   xmlns:sodipodi="http://sodipodi.sourceforge.net/DTD/sodipodi-0.dtd"
   xmlns="http://www.w3.org/2000/svg"
   xmlns:svg="http://www.w3.org/2000/svg">
  <defs
     id="defs16" />
  <sodipodi:namedview
     id="namedview14"
     pagecolor="#ffffff"
     bordercolor="#999999"
     borderopacity="1"
     inkscape:showpageshadow="0"
     inkscape:pageopacity="0"
     inkscape:pagecheckerboard="0"
     inkscape:deskcolor="#d1d1d1"
     showgrid="false"
     inkscape:zoom="11.346854"
     inkscape:cx="33.136938"
     inkscape:cy="34.414825"
     inkscape:window-width="3840"
     inkscape:window-height="1975"
     inkscape:window-x="1920"
     inkscape:window-y="52"
     inkscape:window-maximized="1"
     inkscape:current-layer="svg12" />
  <g
     id="g250"
     transform="matrix(1.0550083,0,0,1.0550083,-0.46562227,-0.46482051)">
    <path
       d="m 14.287,1.852 c 0.29315,0 0.52916,0.236 0.52916,0.52916 v 12.171 c 0,0.29315 -0.236,0.52916 -0.52916,0.52916 H 8.2019 v -13.229 z"
       fill="#ff9955"
       fill-rule="evenodd"
       style="paint-order:fill markers stroke"
       id="path2" />
    <path
       d="m 2.6458,1.852 c -0.29315,0 -0.52916,0.236 -0.52916,0.52916 v 12.171 c 0,0.29315 0.236,0.52916 0.52916,0.52916 h 6.6145 v -13.229 z"
       fill="#5f8dd3"
       fill-rule="evenodd"
       style="paint-order:fill markers stroke"
       id="path4" />
    <path
       d="m 13.414,1.5919 c 0.29782,-0.02769 0.6085,0.067443 0.6085,0.50923 v 12.731 c 0,0.41158 -0.31008,0.53194 -0.6085,0.50923 L 7.9405,15.0815 7.9500748,1.8555 Z"
       fill="#37c871"
       fill-rule="evenodd"
       stroke-width="1.052"
       style="paint-order:fill markers stroke"
       id="path6" />
    <path
       d="m 12.7,1.3229 c 0.25899,-0.028774 0.52916,0.070082 0.52916,0.52916 v 13.229 c 0,0.42768 -0.26965,0.55275 -0.52916,0.52916 L 7.9373,15.08095 v -13.229 z"
       fill="#4e76b2"
       fill-rule="evenodd"
       style="paint-order:fill markers stroke"
       id="path8" />
    <path
       d="M 7.8851,4.4996 C 7.805477,4.486855 7.72686,4.539674 7.64316,4.6823 7.50924,4.90944 7.44755,5.54545 7.557899,6.1572 c 0.037281,0.20907 0.11692,0.51316 0.22478,0.84487 -0.085366,0.31071 -0.18099,0.64018 -0.28514,0.96721 -0.41142,1.2921 -1.2951,2.6459 -1.7611,3.3744 -0.29463,0.45856 -1.003,0.99746 -1.063,0.89246 -0.058927,-0.105 0.14065,-0.34038 0.3892,-0.71751 0.24749,-0.375 0.88141,-0.76402 0.88141,-0.76402 0,0 -0.27071,-0.01054 -0.9639,0.60015 -0.69319,0.6139 -0.48334,0.91718 -0.31833,1.0104 0.16392,0.09535 0.62433,0.45933 2.1886,-2.2566 0.57118,-0.99213 0.90281,-1.8944 1.0957,-2.6426 0.19758,0.51185 0.45258,1.029 0.73579,1.3548 0.16511,0.19095 0.38206,0.37287 0.62286,0.54148 -0.18961,0.034543 -0.40745,0.076553 -0.70257,0.13066 -1.0807,0.196 -1.6186,0.6211 -1.6305,0.6306 0.00871,-0.0028 1.2654,-0.40028 2.6005,-0.58521 0.52512,0.31949 1.1283,0.56526 1.6271,0.66493 0.77823,0.15745 0.99034,-0.12784 1.0154,-0.16609 -0.03033,0.02511 -0.13146,0.07217 -0.45289,0.04484 -0.25826,-0.0213 -0.96435,-0.22097 -1.6798,-0.60458 1.4814,-0.13689 1.9934,0.013632 2.1254,0.11903 0.13178,0.10607 0.13177,0.22312 0.13177,0.22312 0,0 0.16956,-0.16391 0.05813,-0.32998 -0.09428,-0.17249 -0.23912,-0.316 -1.4273,-0.27959 -0.58913,0.017484 -0.90638,0.037718 -1.2097,0.078064 -0.35994,-0.22392 -0.70665,-0.49091 -0.97994,-0.8144 -0.36635,-0.43365 -0.59032,-0.93277 -0.73636,-1.424 0.21884,-1.0538 0.15076,-1.7062 0.15004,-1.713 0,0 -0.11116,0.50502 -0.28236,1.171 -0.098224,-0.50338 -0.13198,-0.96747 -0.16,-1.2972 -0.059998,-0.7564 0.27844,-0.54655 0.32664,-0.45012 0.077139,0.062141 0.11461,0.26907 0.11461,0.26907 0,0 -0.026668,-0.30895 -0.16166,-0.44181 C 7.981057,4.538157 7.932891,4.507192 7.885119,4.499544 Z m -0.91352,5.624 c -3.01e-5,10e-6 -0.00332,0.0011 -0.00332,0.0011 l -0.00111,0.0022 c 0,0 0.00429,-0.0032 0.00443,-0.0033 z"
       fill="#ffffff"
       id="path10" />
  </g>
</svg>
