<?xml version="1.0" encoding="UTF-8" standalone="no"?>
<svg
   width="64"
   height="64"
   version="1"
   id="svg16"
   sodipodi:docname="photoflare.svg"
   xml:space="preserve"
   inkscape:version="1.2.2 (b0a8486541, 2022-12-01)"
   xmlns:inkscape="http://www.inkscape.org/namespaces/inkscape"
   xmlns:sodipodi="http://sodipodi.sourceforge.net/DTD/sodipodi-0.dtd"
   xmlns:xlink="http://www.w3.org/1999/xlink"
   xmlns="http://www.w3.org/2000/svg"
   xmlns:svg="http://www.w3.org/2000/svg"><defs
     id="defs20"><linearGradient
       inkscape:collect="always"
       id="linearGradient1330"><stop
         style="stop-color:#ffffff;stop-opacity:1;"
         offset="0"
         id="stop1326" /><stop
         style="stop-color:#ffffff;stop-opacity:0;"
         offset="1"
         id="stop1328" /></linearGradient><linearGradient
       inkscape:collect="always"
       xlink:href="#linearGradient1330"
       id="linearGradient1334"
       x1="19.785398"
       y1="32"
       x2="30.501551"
       y2="32"
       gradientUnits="userSpaceOnUse"
       gradientTransform="matrix(1.0655324,0,0,1.0655324,5.0947977,-11.469621)" /></defs><sodipodi:namedview
     id="namedview18"
     pagecolor="#ffffff"
     bordercolor="#999999"
     borderopacity="1"
     inkscape:showpageshadow="0"
     inkscape:pageopacity="0"
     inkscape:pagecheckerboard="0"
     inkscape:deskcolor="#d1d1d1"
     showgrid="false"
     inkscape:zoom="8.0234375"
     inkscape:cx="53.09445"
     inkscape:cy="5.9201558"
     inkscape:window-width="3840"
     inkscape:window-height="1975"
     inkscape:window-x="1920"
     inkscape:window-y="52"
     inkscape:window-maximized="1"
     inkscape:current-layer="svg16" /><rect
     x="6"
     y="9"
     width="52"
     height="46"
     rx="6"
     ry="5.3076921"
     fill="#4f4f4f"
     id="rect2"
     style="stroke-width:1.2227" /><path
     id="rect367"
     style="fill:#4f4f4f;fill-opacity:1;fill-rule:evenodd;stroke-width:0.397516;stroke-linecap:round;stroke-linejoin:round;paint-order:stroke fill markers"
     d="m 16.186191,4.4726562 c -2.428216,0 -4.384198,1.7671477 -4.384198,3.9609376 v 4.3359372 c 0,2.19379 1.955982,3.960938 4.384198,3.960938 h 31.627618 c 2.428216,0 4.384198,-1.767148 4.384198,-3.960938 V 8.4335938 c 0,-2.1937899 -1.955982,-3.9609376 -4.384198,-3.9609376 z m 0.01729,2.1816407 h 2.282896 c 0.719002,0 1.2971,0.5242402 1.2971,1.1738281 C 19.783481,8.4777129 19.205383,9 18.486381,9 h -2.282896 c -0.719002,0 -1.297099,-0.5222871 -1.297099,-1.171875 0,-0.6495879 0.578097,-1.1738281 1.297099,-1.1738281 z m 7.326452,0 h 2.282896 c 0.719002,0 1.299262,0.5242402 1.299262,1.1738281 C 27.112095,8.4777129 26.531835,9 25.812833,9 h -2.282896 c -0.719002,0 -1.2971,-0.5222871 -1.2971,-1.171875 0,-0.6495879 0.578098,-1.1738281 1.2971,-1.1738281 z m 7.328615,0 h 2.282896 c 0.719001,0 1.2971,0.5242402 1.2971,1.1738281 C 34.438548,8.4777129 33.860449,9 33.141448,9 H 30.858552 C 30.13955,9 29.55929,8.4777129 29.55929,7.828125 c 0,-0.6495879 0.58026,-1.1738281 1.299262,-1.1738281 z m 7.326453,0 h 2.282896 c 0.719002,0 1.299262,0.5242402 1.299262,1.1738281 C 41.767163,8.4777129 41.186903,9 40.467901,9 h -2.282896 c -0.719002,0 -1.2971,-0.5222871 -1.2971,-1.171875 0,-0.6495879 0.578098,-1.1738281 1.2971,-1.1738281 z m 7.328614,0 h 2.282896 c 0.719002,0 1.297099,0.5242402 1.297099,1.1738281 C 49.093614,8.4777129 48.515517,9 47.796515,9 h -2.282896 c -0.719001,0 -1.299262,-0.5222871 -1.299262,-1.171875 0,-0.6495879 0.580261,-1.1738281 1.299262,-1.1738281 z" /><path
     id="path1247"
     style="fill:#4f4f4f;fill-opacity:1;fill-rule:evenodd;stroke-width:0.397516;stroke-linecap:round;stroke-linejoin:round;paint-order:stroke fill markers"
     d="m 16.186191,59.527344 c -2.428216,0 -4.384198,-1.767148 -4.384198,-3.960938 v -4.335937 c 0,-2.19379 1.955982,-3.960938 4.384198,-3.960938 h 31.627618 c 2.428216,0 4.384198,1.767148 4.384198,3.960938 v 4.335937 c 0,2.19379 -1.955982,3.960938 -4.384198,3.960938 z m 0.0173,-2.181641 h 2.282896 c 0.719002,0 1.2971,-0.52424 1.2971,-1.173828 C 19.783487,55.522287 19.205389,55 18.486387,55 h -2.282896 c -0.719002,0 -1.2971,0.522287 -1.2971,1.171875 0,0.649588 0.578098,1.173828 1.2971,1.173828 z m 7.326452,0 h 2.282896 c 0.719002,0 1.299261,-0.52424 1.299261,-1.173828 C 27.1121,55.522287 26.531841,55 25.812839,55 h -2.282896 c -0.719002,0 -1.2971,0.522287 -1.2971,1.171875 0,0.649588 0.578098,1.173828 1.2971,1.173828 z m 7.328615,0 h 2.282895 c 0.719001,0 1.2971,-0.52424 1.2971,-1.173828 C 34.438553,55.522287 33.860454,55 33.141453,55 h -2.282895 c -0.719002,0 -1.299262,0.522287 -1.299262,1.171875 0,0.649588 0.58026,1.173828 1.299262,1.173828 z m 7.326453,0 h 2.282895 c 0.719003,0 1.299262,-0.52424 1.299262,-1.173828 C 41.767168,55.522287 41.186909,55 40.467906,55 h -2.282895 c -0.719002,0 -1.2971,0.522287 -1.2971,1.171875 0,0.649588 0.578098,1.173828 1.2971,1.173828 z m 7.328613,0 h 2.282896 c 0.719002,0 1.2971,-0.52424 1.2971,-1.173828 C 49.09362,55.522287 48.515522,55 47.79652,55 h -2.282896 c -0.719001,0 -1.299261,0.522287 -1.299261,1.171875 0,0.649588 0.58026,1.173828 1.299261,1.173828 z" /><path
     d="M 43.05,11.85 41.6713,14.3713 39.15,15.75 41.6713,17.1287 43.05,19.65 44.4287,17.1287 46.95,15.75 44.4287,14.3713 Z m -6.5,2.6 -0.45957,0.84043 L 35.25,15.75 36.09043,16.20957 36.55,17.05 37.00957,16.20957 37.85,15.75 37.00957,15.29043 Z M 32,15.1 c -9.3186,0 -16.9,7.5812 -16.9,16.9 0,9.3186 7.5814,16.9 16.9,16.9 9.3186,0 16.9,-7.5814 16.9,-16.9 h -1.4473 c 0,8.5208 -6.9318,15.453 -15.453,15.453 -8.521,0 -15.453,-6.9318 -15.453,-15.453 0,-8.5212 6.9318,-15.453 15.453,-15.453 z m 14.95,4.55 -0.91914,1.6809 -1.6809,0.91914 1.6809,0.91914 0.91914,1.6809 0.91914,-1.6809 1.6809,-0.91914 -1.6809,-0.91914 z m 1.95,6.4975 -0.68809,1.2619 -1.2619,0.69062 1.2619,0.68809 0.68809,1.2619 0.69062,-1.2619 1.2594,-0.68809 -1.2594,-0.69062 z"
     fill="#ffffff"
     id="path4"
     style="stroke-width:1.3" /><path
     d="m 31.916,31.912 c 0,0 -1.8508,-0.34095 -3.4824,-0.58443 -1.6315,-0.24348 -3.4153,0.17652 -3.8719,0.70627 -0.45665,0.52956 0.60266,1.5342 0.8402,1.936 0.23734,0.40177 0.10955,0.45645 -0.31044,0.84 -0.35086,0.32035 -1.7749,0.49627 -2.2353,0.5456 v 0.01466 c 0,0 -0.02674,-0.0026 -0.07271,-0.0072 -0.04597,0.0046 -0.07251,0.0072 -0.07251,0.0072 v -0.01466 c -0.46042,-0.04933 -1.8845,-0.22526 -2.2353,-0.5456 -0.42,-0.38355 -0.54798,-0.43823 -0.31044,-0.84 0.23734,-0.40177 1.2967,-1.4064 0.8402,-1.936 -0.27914,-0.32372 -1.0548,-0.60563 -1.9875,-0.72093 -0.01183,0.22763 -0.01823,0.45685 -0.01823,0.68745 0,7.1798 5.8202,13 13,13 0.09411,0 0.18702,-0.0052 0.28073,-0.0072 0.38513,-1.4397 0.88735,-3.9086 0.0044,-4.5198 -1.2663,-0.87665 -2.7031,0.0731 -2.7031,0.0731 0,0 -1.0229,0.56007 -1.5342,-0.02436 -0.51153,-0.58443 -0.6088,-1.5098 -0.56026,-2.1428 0.04874,-0.63317 0.58463,-2.3623 1.5586,-1.9241 0.97412,0.43862 2.918,0.77601 3.3362,0.24368 1.0716,-1.3638 -0.46596,-4.7872 -0.46596,-4.7872"
     fill="#0092ee"
     id="path6"
     style="stroke-width:1.3" /><path
     d="m 31.916,31.912 c 0,0 6.822,-2.0315 7.2113,-0.08341 0.38989,1.9482 -2.0453,2.0457 -0.58424,3.0198 1.1586,0.77205 2.1309,0.74827 2.4849,0.70548 v -0.02378 c 0,0 0.02674,0.0064 0.07231,0.01368 0.04597,-0.0073 0.07271,-0.01368 0.07271,-0.01368 v 0.02378 c 0.35403,0.04299 1.3264,0.06677 2.4849,-0.70548 1.4611,-0.97412 -0.97412,-1.0716 -0.58443,-3.0198 0.12541,-0.62644 0.89567,-0.84198 1.8827,-0.84674 -0.52025,-6.7032 -6.1203,-11.981 -12.957,-11.981 -0.20842,0 -0.41525,0.006 -0.62128,0.01565 -0.28806,1.1225 -0.52777,2.7157 0.12362,3.5448 0.41842,0.53253 2.3623,0.19475 3.3362,-0.24368 0.97412,-0.43823 1.5098,1.2907 1.5586,1.9239 0.04854,0.63317 -0.04874,1.5586 -0.56007,2.143 -0.51133,0.58444 -1.5342,0.02437 -1.5342,0.02437 0,0 -1.4367,-0.94976 -2.7031,-0.0731 -1.2663,0.87665 0.31658,5.5767 0.31658,5.5767"
     fill="#bee34a"
     id="path8"
     style="stroke-width:1.3" /><path
     d="m 20.166,33.969 c -0.23734,0.40177 -0.10955,0.45665 0.31044,0.8402 0.35086,0.32015 1.7749,0.49608 2.2353,0.54541 v 0.01466 c 0,0 0.02674,-0.0026 0.07271,-0.0072 0.04576,0.0046 0.07251,0.0072 0.07251,0.0072 v -0.01466 c 0.46042,-0.04933 1.8845,-0.22526 2.2353,-0.54541 0.42,-0.38355 0.54798,-0.43842 0.31044,-0.8402 -0.23734,-0.40177 -1.2967,-1.4064 -0.8402,-1.936 0.45665,-0.52976 2.2405,-0.94976 3.8721,-0.70627 1.6315,0.24348 3.4822,0.58443 3.4822,0.58443 0,0 -1.5829,-4.6998 -0.31658,-5.5767 1.2665,-0.87665 2.7033,0.0731 2.7033,0.0731 0,0 1.0229,0.56007 1.5342,-0.02436 0.51153,-0.58443 0.6086,-1.5098 0.56007,-2.143 -0.04854,-0.63317 -0.58444,-2.3621 -1.5584,-1.9237 -0.97412,0.43823 -2.918,0.77581 -3.3362,0.24348 -0.6514,-0.8291 -0.41168,-2.4221 -0.12382,-3.5446 -6.6629,0.31361 -12.014,5.6423 -12.36,12.297 0.93272,0.1153 1.7083,0.39722 1.9875,0.72093 0.45645,0.52956 -0.60306,1.5344 -0.8404,1.936"
     fill="#f15976"
     id="path10"
     style="stroke-width:1.3" /><path
     d="m 45,32 c 0,-0.34313 -0.01743,-0.6821 -0.04359,-1.0185 -0.9868,0.0048 -1.7571,0.2203 -1.8825,0.84674 -0.38949,1.9482 2.0457,2.0455 0.58444,3.0196 -1.1586,0.77244 -2.1309,0.74847 -2.4849,0.70568 v -0.02358 c 0,0 -0.02695,0.006 -0.07251,0.01347 -0.04576,-0.0075 -0.07251,-0.01347 -0.07251,-0.01347 v 0.02358 c -0.35403,0.04299 -1.3264,0.06696 -2.4849,-0.70568 -1.4611,-0.97412 0.97412,-1.0714 0.58443,-3.0196 -0.38969,-1.948 -7.2115,0.08341 -7.2115,0.08341 0,0 1.5376,3.4234 0.46596,4.787 -0.41822,0.53253 -2.3621,0.19494 -3.3362,-0.24348 -0.9741,-0.43842 -1.5098,1.2907 -1.5586,1.9239 -0.04874,0.63317 0.04874,1.5586 0.56007,2.1428 0.51153,0.58443 1.5342,0.02436 1.5342,0.02436 0,0 1.4369,-0.94976 2.7031,-0.0729 0.88299,0.61138 0.38097,3.0801 -0.0042,4.5196 7.0497,-0.14977 12.719,-5.9073 12.719,-12.993"
     fill="#10e7c4"
     id="path12"
     style="stroke-width:1.3" /><circle
     style="fill:url(#linearGradient1334);fill-opacity:1;fill-rule:evenodd;stroke-width:0.443167;stroke-linecap:round;stroke-linejoin:round;paint-order:stroke fill markers"
     id="path1301"
     cx="39.191837"
     cy="22.627417"
     r="11.746161"
     transform="rotate(15)" /></svg>
