<?xml version="1.0" encoding="UTF-8" standalone="no"?>
<svg
   width="64"
   height="64"
   version="1.1"
   viewBox="0 0 16.933 16.933"
   id="svg301"
   sodipodi:docname="pidgin.svg"
   xml:space="preserve"
   inkscape:version="1.2.2 (b0a8486541, 2022-12-01)"
   xmlns:inkscape="http://www.inkscape.org/namespaces/inkscape"
   xmlns:sodipodi="http://sodipodi.sourceforge.net/DTD/sodipodi-0.dtd"
   xmlns:xlink="http://www.w3.org/1999/xlink"
   xmlns="http://www.w3.org/2000/svg"
   xmlns:svg="http://www.w3.org/2000/svg"><defs
     id="defs305"><linearGradient
       inkscape:collect="always"
       id="linearGradient28138"><stop
         style="stop-color:#cb7642;stop-opacity:1"
         offset="0"
         id="stop28134" /><stop
         style="stop-color:#f3c293;stop-opacity:1"
         offset="0.38648036"
         id="stop33179" /><stop
         style="stop-color:#f28b30;stop-opacity:1"
         offset="0.63182157"
         id="stop35113" /><stop
         style="stop-color:#c35c31;stop-opacity:1"
         offset="1"
         id="stop28136" /></linearGradient><linearGradient
       inkscape:collect="always"
       id="linearGradient22295"><stop
         style="stop-color:#4c2956;stop-opacity:1"
         offset="0"
         id="stop22291" /><stop
         style="stop-color:#663c71;stop-opacity:1"
         offset="1"
         id="stop22293" /></linearGradient><linearGradient
       inkscape:collect="always"
       id="linearGradient13704"><stop
         style="stop-color:#462551;stop-opacity:1"
         offset="0"
         id="stop13700" /><stop
         style="stop-color:#72457e;stop-opacity:1"
         offset="0.32838112"
         id="stop18901" /><stop
         style="stop-color:#784a84;stop-opacity:1"
         offset="0.56781095"
         id="stop20490" /><stop
         style="stop-color:#60386b;stop-opacity:1"
         offset="1"
         id="stop13702" /></linearGradient><linearGradient
       inkscape:collect="always"
       xlink:href="#linearGradient13704"
       id="linearGradient13706"
       x1="7.7342486"
       y1="-21.508259"
       x2="7.7342486"
       y2="-4.4832044"
       gradientUnits="userSpaceOnUse" /><radialGradient
       inkscape:collect="always"
       xlink:href="#linearGradient22295"
       id="radialGradient22297"
       cx="7.8147583"
       cy="-6.3028841"
       fx="7.8147583"
       fy="-6.3028841"
       r="5.4259263"
       gradientTransform="matrix(0.88108091,0,0,0.80137985,0.96716187,-1.7541312)"
       gradientUnits="userSpaceOnUse" /><linearGradient
       inkscape:collect="always"
       xlink:href="#linearGradient28138"
       id="linearGradient28140"
       x1="7.1929103"
       y1="-15.430085"
       x2="10.238373"
       y2="-15.430085"
       gradientUnits="userSpaceOnUse" /></defs><sodipodi:namedview
     id="namedview303"
     pagecolor="#ffffff"
     bordercolor="#999999"
     borderopacity="1"
     inkscape:showpageshadow="0"
     inkscape:pageopacity="0"
     inkscape:pagecheckerboard="0"
     inkscape:deskcolor="#d1d1d1"
     showgrid="false"
     inkscape:zoom="2.2373301"
     inkscape:cx="71.06685"
     inkscape:cy="-15.867127"
     inkscape:window-width="1920"
     inkscape:window-height="989"
     inkscape:window-x="0"
     inkscape:window-y="0"
     inkscape:window-maximized="1"
     inkscape:current-layer="svg301" /><g
     id="g46816"
     transform="matrix(0.81998707,0,0,0.81998707,2.5684066,19.321731)"><circle
       style="fill:#2394e0;fill-opacity:1;fill-rule:evenodd;stroke:none;stroke-width:0.319908;stroke-linecap:round;stroke-linejoin:round;stroke-dasharray:none;stroke-opacity:1;paint-order:stroke fill markers"
       id="path39236"
       cx="7.1929102"
       cy="-13.23838"
       r="9.6798401" /><path
       id="path46581"
       style="fill:#a2e363;fill-opacity:1;stroke:none;stroke-width:0.264578px;stroke-linecap:butt;stroke-linejoin:miter;stroke-opacity:1"
       d="m 7.192701,-22.918047 c -2.5637211,0.0026 -5.0217012,1.022152 -6.83459037,2.834914 -0.32090433,0.753404 -0.32090433,2.175049 -0.32090433,2.175049 0,0 0.50017856,1.276238 1.3259911,1.910409 0.294123,0.225867 0.8319118,0.393092 1.3657813,0.567396 0.5338684,0.174305 1.5080676,1.633827 1.8933872,1.623642 0.3853196,-0.01019 -0.2161151,-0.02257 -0.367929,-0.643876 -0.1518128,-0.621301 -0.070718,-0.842877 -0.4599112,-0.979766 -0.3891936,-0.136889 -0.3953795,-0.648885 -0.1074848,-0.766346 0.2878947,-0.117462 0.2319093,-0.521211 -0.051675,-0.303852 -0.2835897,0.21736 -0.6289438,0.787967 -1.0185224,0.502802 -0.3895786,-0.285165 -0.2132065,-1.829881 0.5028018,-1.870133 0.7160093,-0.04025 2.2731164,0 2.5935891,0 0.3204697,0 1.0828737,-1.345694 0.6681631,-1.530626 -0.4147096,-0.184931 -0.7538955,-0.270922 -0.252176,-0.626306 0.5017165,-0.355384 0.7630661,-0.160378 0.4299394,-0.510553 -0.3331306,-0.350177 -0.2160504,-0.05961 -0.651627,-0.390666 -0.4355805,-0.331056 -0.8120837,-0.404294 -0.8118207,-0.621139 2.62e-4,-0.216845 0.3975211,-0.342923 0.6645458,-0.384465 0.2670257,-0.04154 1.0184458,0.0249 1.5042713,0.144175 0.4858266,0.119272 1.0617496,-0.287199 1.2582964,-0.37258 0.1965478,-0.08538 0.117559,0.61287 0.5958175,0.61287 0.4782566,0 1.2922598,0.27714 1.1668318,-0.217037 -0.04157,-0.163786 -0.03837,-0.409053 -0.06511,-0.667646 -0.9769738,-0.321929 -1.9990162,-0.486077 -3.0276635,-0.486266 z"
       sodipodi:nodetypes="cccsscsssssssssscsssssscc" /><path
       id="path39175"
       style="fill:#4e2b58;fill-opacity:1;stroke:none;stroke-width:0.264578px;stroke-linecap:butt;stroke-linejoin:miter;stroke-opacity:1"
       d="m 9.0359631,-11.651773 c -0.4707903,0.0034 -0.952065,0.02138 -1.4319258,0.04909 l 4.0172467,6.9648125 a 9.6798401,9.6798401 0 0 0 4.123698,-4.0808075 c -0.791057,-1.0560522 -1.783242,-1.968166 -3.07572,-2.473185 -0.90286,-0.352781 -2.220928,-0.470201 -3.6332989,-0.459912 z" /><path
       id="path39181"
       style="fill:#563060;fill-opacity:1;stroke:none;stroke-width:0.264578px;stroke-linecap:butt;stroke-linejoin:miter;stroke-opacity:1"
       d="m 6.8154705,-11.548939 c -2.6985263,0.214468 -5.1401535,0.687284 -5.1401535,0.687284 0,0 -1.99389514,0.710508 -2.7982238,2.5703347 a 9.6798401,9.6798401 0 0 0 4.2828584,3.8472346 z" /><path
       id="path39179"
       style="fill:#e36ca0;fill-opacity:1;stroke:none;stroke-width:0.264578px;stroke-linecap:butt;stroke-linejoin:miter;stroke-opacity:1"
       d="m 7.6040373,-11.602681 c -0.2640517,0.01525 -0.5273531,0.03298 -0.7885668,0.05374 l -3.6555189,7.1048533 a 9.6798401,9.6798401 0 0 0 4.0327494,0.8857166 9.6798401,9.6798401 0 0 0 4.428583,-1.0794994 z" /><path
       id="path565"
       style="fill:url(#radialGradient22297);fill-opacity:1;stroke:none;stroke-width:0.264578px;stroke-linecap:butt;stroke-linejoin:round;stroke-opacity:1"
       d="m 10.743836,-13.152943 c -0.0018,0.0061 -0.004,0.012 -0.0057,0.01809 -0.0083,0.03071 -0.01506,0.06216 -0.02015,0.09353 -0.0051,0.03138 -0.0083,0.06271 -0.01033,0.09457 -0.002,0.03186 -0.0026,0.06396 -0.0016,0.09612 0.0011,0.03215 0.0037,0.06438 0.0078,0.09663 0.004,0.03226 0.0096,0.06446 0.01654,0.09663 0.007,0.03217 0.01546,0.06422 0.02532,0.09612 0.0099,0.0319 0.02091,0.06364 0.03359,0.09508 0.01268,0.03144 0.02692,0.06274 0.04237,0.09353 0.01545,0.03079 0.03248,0.061 0.05064,0.09095 0.01816,0.02995 0.03757,0.05944 0.05839,0.08836 0.02082,0.02893 0.04272,0.05755 0.06614,0.08526 0.01171,0.01386 0.02233,0.02803 0.03152,0.04289 0.0092,0.01486 0.01696,0.03023 0.02377,0.04599 0.0068,0.01577 0.01248,0.032 0.01705,0.04857 0.0046,0.01658 0.0084,0.03386 0.01085,0.05116 0.0025,0.0173 0.0036,0.03477 0.0041,0.05271 5.05e-4,0.01793 2.86e-4,0.0363 -0.001,0.05478 -0.0013,0.01847 -0.0037,0.03689 -0.0067,0.05581 -0.003,0.01892 -0.0068,0.03809 -0.01137,0.05736 -0.0046,0.01927 -0.0095,0.03886 -0.0155,0.05839 -0.006,0.01953 -0.01292,0.03921 -0.02015,0.05891 -0.0072,0.0197 -0.0149,0.03913 -0.02325,0.05891 -0.0084,0.01978 -0.01752,0.03967 -0.02687,0.05943 -0.0187,0.03952 -0.03914,0.07892 -0.06098,0.11782 -0.02183,0.0389 -0.04488,0.07718 -0.06873,0.114719 -0.02385,0.03754 -0.04862,0.07463 -0.07338,0.110069 -0.02476,0.03544 -0.04934,0.06921 -0.0739,0.1018 -0.02456,0.03259 -0.0491,0.064 -0.07235,0.09302 -0.02324,0.02901 -0.04533,0.05592 -0.06614,0.08061 -0.04164,0.04938 -0.07705,0.08914 -0.102317,0.116786 -0.02526,0.02765 -0.04031,0.04289 -0.04031,0.04289 0,0 0.0096,-0.0048 0.02584,-0.01189 0.0081,-0.0035 0.01777,-0.0077 0.02894,-0.01188 0.01117,-0.0042 0.02367,-0.0084 0.03721,-0.0124 0.01354,-0.004 0.02817,-0.0077 0.04341,-0.01085 0.01523,-0.0031 0.0313,-0.0057 0.04754,-0.0072 0.01625,-0.0015 0.03251,-0.0019 0.04909,-0.001 0.01658,9.13e-4 0.03337,0.0032 0.04961,0.0072 0.0081,0.002 0.01586,0.0048 0.02377,0.0078 0.0079,0.003 0.01564,0.0063 0.02325,0.01033 0.0076,0.004 0.01551,0.0083 0.02274,0.01344 0.0072,0.0051 0.01391,0.01123 0.02067,0.01757 0.0068,0.0063 0.01343,0.01302 0.01964,0.02067 0.0062,0.0076 0.012,0.01626 0.01757,0.02532 0.0056,0.0091 0.01065,0.01838 0.0155,0.02894 0.0049,0.01056 0.0094,0.02195 0.01344,0.03411 0.004,0.01215 0.0077,0.02543 0.01085,0.03927 0.0032,0.01384 0.0061,0.02829 0.0083,0.04392 0.0022,0.01563 0.0035,0.0321 0.0046,0.04961 0.0011,0.01751 0.0021,0.03632 0.0021,0.05581 -2.3e-5,0.01948 -8.16e-4,0.03994 -0.0021,0.06149 -0.0013,0.02155 -0.0031,0.04397 -0.0057,0.0677 -0.0026,0.02372 -0.0059,0.04843 -0.0098,0.07441 -0.004,0.02598 -0.0085,0.05331 -0.01395,0.08165 -0.0027,0.01417 -0.0063,0.029 -0.01034,0.04392 -0.0041,0.01493 -0.0086,0.02982 -0.01395,0.04547 -0.0054,0.01566 -0.01147,0.0317 -0.01809,0.048058 -0.0066,0.016359 -0.01388,0.033098 -0.0217,0.050125 -0.01564,0.034054 -0.03353,0.069395 -0.05374,0.1059346 -0.02022,0.03654 -0.04275,0.074394 -0.06718,0.1131692 -0.02443,0.038775 -0.05076,0.078608 -0.07906,0.1193702 -0.0283,0.040762 -0.05861,0.082556 -0.09043,0.1250545 -0.03182,0.042498 -0.06526,0.08572 -0.10025,0.1297053 -0.03499,0.043985 -0.07175,0.088617 -0.109552,0.1338393 -0.0378,0.045222 -0.07652,0.091247 -0.116786,0.1374566 -0.04027,0.04621 -0.08164,0.092576 -0.124021,0.1395236 -0.04238,0.046947 -0.086083,0.094155 -0.1302225,0.1415907 -0.044139,0.047435 -0.088807,0.094951 -0.1343561,0.1426241 -0.091098,0.095347 -0.1849319,0.190963 -0.279564,0.2857651 -0.094632,0.094802 -0.190409,0.188855 -0.285765,0.2811142 -0.095356,0.092259 -0.1899111,0.1830605 -0.2831813,0.2707792 -0.09327,0.087719 -0.1849881,0.1725457 -0.2733629,0.2537263 -0.088375,0.08118 -0.1735733,0.1583444 -0.2542431,0.2309891 -0.08067,0.072645 -0.1566999,0.1404565 -0.2268551,0.2025676 -0.1403103,0.1242222 -0.2570802,0.2254816 -0.3384739,0.2955834 -0.081394,0.070102 -0.1276383,0.1090351 -0.1276383,0.1090351 0,0 -0.00288,-0.035952 -0.00827,-0.095083 -0.00538,-0.05913 -0.013011,-0.1411012 -0.023254,-0.2330562 -0.00512,-0.045977 -0.010815,-0.094406 -0.017053,-0.1436576 -0.00624,-0.049251 -0.013382,-0.099588 -0.02067,-0.1488252 -0.00729,-0.049237 -0.01498,-0.097723 -0.023254,-0.1436577 -0.00827,-0.045934 -0.017161,-0.089328 -0.026355,-0.1286718 -0.0023,-0.00984 -0.0065,-0.021448 -0.012919,-0.035139 -0.00642,-0.013691 -0.015035,-0.029217 -0.025321,-0.046508 -0.010286,-0.017291 -0.022285,-0.036208 -0.036173,-0.056843 -0.013888,-0.020634 -0.029279,-0.042939 -0.046508,-0.066661 -0.034457,-0.047445 -0.075703,-0.1008976 -0.121954,-0.1591602 -0.046251,-0.058263 -0.097522,-0.1215811 -0.153476,-0.1886153 C 7.1537996,-8.2090126 7.0934899,-8.2795711 7.0299235,-8.3533308 6.966357,-8.4270905 6.899544,-8.5038138 6.8304564,-8.5822529 6.6922811,-8.7391313 6.5451307,-8.9036483 6.3974164,-9.0669683 6.2497021,-9.2302883 6.1012851,-9.392606 5.9607591,-9.5459994 5.8202331,-9.6993928 5.6872199,-9.8436728 5.5706097,-9.9707713 5.4539995,-10.09787 5.3535771,-10.207757 5.2776101,-10.292192 c -0.037983,-0.04222 -0.06988,-0.07797 -0.094566,-0.106452 -0.024686,-0.02848 -0.041861,-0.04982 -0.051159,-0.06253 -0.00465,-0.0064 -0.00852,-0.01265 -0.011885,-0.01912 -0.00336,-0.0065 -0.00612,-0.01306 -0.00827,-0.01964 -0.00215,-0.0066 -0.00416,-0.01298 -0.00517,-0.01964 -0.00101,-0.0067 -0.00109,-0.01344 -0.00103,-0.02015 5.33e-5,-0.0067 5.053e-4,-0.0134 0.00155,-0.02015 0.00104,-0.0068 0.00269,-0.01339 0.00465,-0.02015 0.00393,-0.01354 0.00938,-0.02734 0.016536,-0.04082 0.00716,-0.01348 0.016039,-0.02704 0.025838,-0.04031 0.0098,-0.01327 0.020704,-0.02639 0.032555,-0.03927 0.011851,-0.01289 0.024407,-0.02538 0.037723,-0.03772 0.013316,-0.01234 0.027149,-0.02403 0.04134,-0.03566 0.028382,-0.02326 0.057946,-0.04517 0.086298,-0.0646 0.028352,-0.01942 0.055452,-0.03637 0.079063,-0.05064 0.047222,-0.02853 0.080614,-0.04548 0.080614,-0.04548 0,0 -0.032611,-0.04327 -0.083714,-0.110585 -0.051103,-0.06731 -0.1210761,-0.159008 -0.1968833,-0.256827 -0.075807,-0.09782 -0.1573928,-0.201484 -0.2315059,-0.293 -0.037056,-0.04576 -0.072184,-0.08829 -0.1038676,-0.125571 -0.031683,-0.03728 -0.05967,-0.06933 -0.082681,-0.09353 -0.023012,-0.0242 -0.045078,-0.04878 -0.065111,-0.07338 -0.010016,-0.0123 -0.01939,-0.02427 -0.028421,-0.03669 -0.00903,-0.01242 -0.017435,-0.02516 -0.025321,-0.03772 -0.00789,-0.01257 -0.015123,-0.025 -0.021704,-0.03772 -0.00658,-0.01272 -0.012455,-0.02586 -0.01757,-0.03876 -0.00511,-0.0129 -0.00943,-0.02567 -0.012919,-0.03876 -0.00349,-0.01309 -0.00657,-0.02649 -0.00827,-0.03979 -0.0017,-0.0133 -0.00231,-0.02678 -0.00207,-0.04031 2.448e-4,-0.01352 0.00178,-0.02706 0.00413,-0.04082 0.00235,-0.01377 0.00572,-0.02732 0.010335,-0.04134 0.00462,-0.01402 0.010523,-0.02859 0.01757,-0.04289 0.00705,-0.0143 0.01517,-0.0283 0.024804,-0.04289 0.00963,-0.01459 0.020689,-0.02954 0.033072,-0.04444 0.012383,-0.0149 0.026049,-0.02973 0.04134,-0.04496 0.015291,-0.01523 0.032282,-0.03094 0.050642,-0.04651 0.00918,-0.0078 0.01675,-0.01616 0.023254,-0.0248 0.0065,-0.0086 0.011522,-0.01744 0.015503,-0.02687 0.00398,-0.0094 0.00717,-0.0193 0.00878,-0.02946 0.00161,-0.01015 0.00163,-0.02072 0.00103,-0.03152 -6.013e-4,-0.0108 -0.00199,-0.0217 -0.00465,-0.03307 -0.00266,-0.01138 -0.00628,-0.02326 -0.010852,-0.03514 -0.00457,-0.01188 -0.010218,-0.02386 -0.016536,-0.03617 -0.00632,-0.01231 -0.013271,-0.02505 -0.021187,-0.03772 -0.00792,-0.01267 -0.016479,-0.02528 -0.025838,-0.03824 -0.00936,-0.01296 -0.01984,-0.02609 -0.030488,-0.03927 -0.021296,-0.02637 -0.044751,-0.05328 -0.070278,-0.0801 -0.025527,-0.02682 -0.053122,-0.0534 -0.081647,-0.0801 -0.028525,-0.0267 -0.058076,-0.05357 -0.088365,-0.07958 -0.030289,-0.02601 -0.061162,-0.05121 -0.091982,-0.07596 -0.030435,-0.02445 -0.060675,-0.04813 -0.090432,-0.0708 -0.4265568,0.443542 -2.282269,2.009604 -2.2680339,2.223594 0.0153,0.229995 2.6876962,2.9312029 3.0586678,3.2524501 0.3709717,0.321247 2.0520777,1.1163196 1.9331773,1.4190069 -0.1033051,0.2629858 -0.2790208,1.0236628 -0.4681793,1.2391765 0.1859459,-0.1193643 0.6197843,-0.3684481 0.6335406,-0.093533 0.017475,0.3492252 -0.3219379,0.655761 -0.3219379,0.655761 0,0 0.5669441,-0.2146703 0.7797821,-0.6211385 0.212838,-0.4064682 0.4996929,-0.4489813 0.4552604,-0.2077352 -0.044432,0.2412461 -0.068212,0.3751635 -0.068212,0.3751635 0,0 0.2514254,-0.3436303 0.5105531,-0.561195 0.2591278,-0.2175647 1.9254205,-3.1321251 2.4065245,-3.5759387 0.481104,-0.4438134 2.107662,-1.4704646 1.917158,-1.9032056 -0.190505,-0.432741 -0.581225,-0.824748 -1.232459,-1.287752 -0.416467,-0.296093 -0.741494,-0.583757 -0.921889,-0.887783 z" /><path
       id="path21803"
       style="fill:url(#linearGradient13706);fill-opacity:1;stroke:none;stroke-width:0.264578px;stroke-linecap:butt;stroke-linejoin:round;stroke-opacity:1"
       d="m 7.0087365,-21.546064 c -0.3859544,0.0075 -0.6965846,0.04806 -0.6965846,0.04806 0,0 0.5267479,0.255946 0.4650788,0.400484 -0.061669,0.144538 -0.9441099,0.05323 -0.9441099,0.05323 0,0 0.5024392,0.229451 0.676948,0.598401 0.063137,0.133485 -0.1431409,0.217037 -0.1431409,0.217037 0,0 -1.9471297,0.678501 -1.9471297,2.250981 0,1.572481 0.1909315,4.435864 -0.01757,4.716932 -0.014509,0.01956 -0.040442,0.04796 -0.072346,0.08113 0.029758,0.02267 0.059997,0.04635 0.090432,0.0708 0.03082,0.02476 0.061693,0.04995 0.091982,0.07596 0.030289,0.02601 0.05984,0.05288 0.088365,0.07958 0.028525,0.0267 0.05612,0.05328 0.081647,0.0801 0.025527,0.02682 0.048982,0.05373 0.070278,0.0801 0.010648,0.01319 0.021129,0.02631 0.030488,0.03927 0.00936,0.01296 0.017922,0.02557 0.025838,0.03824 0.00792,0.01267 0.014869,0.02541 0.021187,0.03772 0.00632,0.01231 0.011969,0.02429 0.016536,0.03617 0.00457,0.01188 0.00819,0.02376 0.010852,0.03514 0.00266,0.01137 0.00405,0.02227 0.00465,0.03307 6.013e-4,0.0108 5.792e-4,0.02137 -0.00103,0.03152 -0.00161,0.01015 -0.0048,0.02002 -0.00878,0.02946 -0.00398,0.0094 -0.009,0.01823 -0.015503,0.02687 -0.0065,0.0086 -0.014074,0.01702 -0.023254,0.0248 -0.01836,0.01557 -0.035351,0.03128 -0.050642,0.04651 -0.015291,0.01523 -0.028957,0.03006 -0.04134,0.04496 -0.012383,0.0149 -0.023438,0.02985 -0.033072,0.04444 -0.00963,0.01459 -0.017758,0.02859 -0.024804,0.04289 -0.00705,0.0143 -0.01295,0.02887 -0.01757,0.04289 -0.00462,0.01402 -0.00798,0.02757 -0.010335,0.04134 -0.00235,0.01376 -0.00389,0.0273 -0.00413,0.04082 -2.447e-4,0.01352 3.651e-4,0.02701 0.00207,0.04031 0.0017,0.0133 0.00478,0.0267 0.00827,0.03979 0.00349,0.01309 0.0078,0.02586 0.012919,0.03876 0.00511,0.0129 0.010989,0.02603 0.01757,0.03876 0.00658,0.01272 0.013818,0.02516 0.021704,0.03772 0.00789,0.01256 0.01629,0.0253 0.025321,0.03772 0.00903,0.01242 0.018405,0.02439 0.028421,0.03669 0.020033,0.0246 0.042099,0.04918 0.065111,0.07338 0.02301,0.0242 0.050997,0.05625 0.082681,0.09353 0.031683,0.03728 0.066811,0.07981 0.1038676,0.125571 0.074113,0.09152 0.1556986,0.195181 0.2315059,0.293 0.075807,0.09782 0.1457804,0.189513 0.1968833,0.256827 0.051103,0.06731 0.083714,0.110585 0.083714,0.110585 0,0 -0.033391,0.01694 -0.080614,0.04548 -0.023611,0.01427 -0.050712,0.03122 -0.079063,0.05064 -0.028352,0.01942 -0.057916,0.04134 -0.086298,0.0646 -0.014191,0.01163 -0.028025,0.02332 -0.04134,0.03566 -0.013316,0.01234 -0.025872,0.02484 -0.037723,0.03772 -0.011851,0.01289 -0.022757,0.02601 -0.032555,0.03927 -0.0098,0.01327 -0.018681,0.02682 -0.025838,0.04031 -0.00716,0.01348 -0.01261,0.02729 -0.016536,0.04082 -0.00196,0.0068 -0.00361,0.0134 -0.00465,0.02015 -0.00104,0.0067 -0.0015,0.01344 -0.00155,0.02015 -5.33e-5,0.0067 2.16e-5,0.0135 0.00103,0.02015 0.00101,0.0067 0.00302,0.01306 0.00517,0.01964 0.00215,0.0066 0.0049,0.01317 0.00827,0.01964 0.00336,0.0065 0.00724,0.01277 0.011885,0.01912 0.0093,0.0127 0.026472,0.03404 0.051159,0.06253 0.024686,0.02848 0.056583,0.06423 0.094566,0.106452 0.075967,0.08443 0.1763894,0.194322 0.2929996,0.3214207 0.1166102,0.1270985 0.2496234,0.2713785 0.3901494,0.4247719 0.140526,0.1533934 0.288943,0.3157111 0.4366573,0.4790311 0.1477143,0.16332 0.2948647,0.327837 0.43304,0.4847154 0.069088,0.078439 0.1359006,0.1551624 0.1994671,0.2289221 0.063566,0.07376 0.1238761,0.1443182 0.1798304,0.2113524 0.055954,0.067034 0.1072247,0.1303526 0.153476,0.1886153 0.046251,0.058263 0.087497,0.1117152 0.121954,0.1591602 0.017229,0.023723 0.03262,0.046027 0.046508,0.066661 0.013888,0.020635 0.025887,0.039552 0.036173,0.056843 0.010286,0.017291 0.018898,0.032817 0.025321,0.046508 0.00642,0.013691 0.01062,0.025303 0.012919,0.035139 0.00919,0.039344 0.018081,0.082737 0.026355,0.1286718 0.00827,0.045934 0.015966,0.094421 0.023254,0.1436577 0.00729,0.049237 0.014433,0.099574 0.02067,0.1488252 0.00624,0.049251 0.011932,0.09768 0.017053,0.1436576 0.010243,0.091955 0.01787,0.1739258 0.023254,0.2330562 0.00538,0.05913 0.00827,0.095083 0.00827,0.095083 0,0 0.046244,-0.038933 0.1276383,-0.1090351 0.081394,-0.070102 0.1981636,-0.1713612 0.3384739,-0.2955834 0.070155,-0.062111 0.1461853,-0.129923 0.2268551,-0.2025676 0.08067,-0.072645 0.1658682,-0.1498086 0.2542431,-0.2309891 0.088375,-0.081181 0.1800926,-0.1660076 0.2733629,-0.2537263 0.09327,-0.087719 0.1878253,-0.1785199 0.2831813,-0.2707792 0.095356,-0.092259 0.1911329,-0.1863121 0.285765,-0.2811142 0.094632,-0.094802 0.1884655,-0.1904178 0.279564,-0.2857651 0.045549,-0.047674 0.090217,-0.095189 0.1343561,-0.1426241 0.044139,-0.047435 0.087848,-0.094643 0.1302225,-0.1415907 0.04238,-0.046947 0.08376,-0.093314 0.124021,-0.1395236 0.04026,-0.04621 0.07898,-0.092234 0.116786,-0.1374566 0.0378,-0.045222 0.07457,-0.089854 0.109552,-0.1338393 0.03499,-0.043985 0.06843,-0.087207 0.10025,-0.1297053 0.03182,-0.042498 0.06213,-0.084293 0.09043,-0.1250545 0.0283,-0.040762 0.05463,-0.080595 0.07906,-0.1193702 0.02443,-0.038775 0.04696,-0.07663 0.06718,-0.1131692 0.02021,-0.036539 0.0381,-0.071881 0.05374,-0.1059346 0.0078,-0.017027 0.01509,-0.033766 0.0217,-0.050125 0.0066,-0.016359 0.01273,-0.032399 0.01809,-0.048062 0.0054,-0.01566 0.0099,-0.03055 0.01395,-0.04547 0.0041,-0.01493 0.0076,-0.02976 0.01034,-0.04392 0.0054,-0.02833 0.01,-0.05567 0.01395,-0.08165 0.004,-0.02598 0.0073,-0.05069 0.0098,-0.07441 0.0026,-0.02372 0.0044,-0.04614 0.0057,-0.0677 0.0013,-0.02155 0.002,-0.04201 0.0021,-0.06149 2.2e-5,-0.01949 -9.46e-4,-0.0383 -0.0021,-0.05581 -0.0011,-0.01751 -0.0025,-0.03398 -0.0046,-0.04961 -0.0022,-0.01563 -0.0051,-0.03008 -0.0083,-0.04392 -0.0032,-0.01384 -0.0068,-0.02712 -0.01085,-0.03927 -0.004,-0.01215 -0.0086,-0.02355 -0.01344,-0.03411 -0.0049,-0.01056 -0.0099,-0.01988 -0.0155,-0.02894 -0.0056,-0.0091 -0.01136,-0.01767 -0.01757,-0.02532 -0.0062,-0.0076 -0.01288,-0.01433 -0.01964,-0.02067 -0.0068,-0.0063 -0.01344,-0.01245 -0.02067,-0.01757 -0.0072,-0.0051 -0.01513,-0.0094 -0.02274,-0.01344 -0.0076,-0.004 -0.01535,-0.0074 -0.02325,-0.01033 -0.0079,-0.003 -0.01565,-0.0057 -0.02377,-0.0078 -0.01624,-0.0041 -0.03303,-0.0063 -0.04961,-0.0072 -0.01658,-9.13e-4 -0.03285,-4.58e-4 -0.04909,10e-4 -0.01624,0.0015 -0.03231,0.0041 -0.04754,0.0072 -0.01523,0.0031 -0.02987,0.0068 -0.04341,0.01085 -0.01354,0.004 -0.02604,0.0082 -0.03721,0.0124 -0.01117,0.0042 -0.02081,0.0084 -0.02894,0.01188 -0.01625,0.0071 -0.02584,0.01189 -0.02584,0.01189 0,0 0.01504,-0.01524 0.04031,-0.04289 0.02526,-0.02765 0.06068,-0.06741 0.102317,-0.116786 0.02082,-0.02469 0.0429,-0.0516 0.06614,-0.08061 0.02324,-0.02901 0.04779,-0.06042 0.07235,-0.09302 0.02456,-0.03259 0.04913,-0.06636 0.0739,-0.101801 0.02476,-0.03544 0.04953,-0.07253 0.07338,-0.110068 0.02385,-0.03754 0.0469,-0.07582 0.06873,-0.114718 0.02183,-0.0389 0.04228,-0.0783 0.06098,-0.11782 0.0094,-0.01976 0.01851,-0.03965 0.02687,-0.05943 0.0084,-0.01978 0.01602,-0.03921 0.02325,-0.05891 0.0072,-0.0197 0.01419,-0.03938 0.02015,-0.05891 0.006,-0.01953 0.01095,-0.03912 0.0155,-0.05839 0.0046,-0.01927 0.0084,-0.03844 0.01137,-0.05736 0.003,-0.01892 0.0054,-0.03734 0.0067,-0.05581 0.0013,-0.01847 0.0015,-0.03684 0.001,-0.05478 -5.05e-4,-0.01793 -0.0017,-0.0354 -0.0041,-0.05271 -0.0025,-0.0173 -0.0063,-0.03458 -0.01085,-0.05116 -0.0046,-0.01658 -0.01024,-0.03281 -0.01705,-0.04857 -0.0068,-0.01576 -0.01458,-0.03113 -0.02377,-0.04599 -0.0092,-0.01486 -0.01981,-0.02904 -0.03152,-0.04289 -0.02343,-0.02771 -0.04532,-0.05634 -0.06614,-0.08526 -0.02082,-0.02893 -0.04023,-0.05841 -0.05839,-0.08836 -0.01817,-0.02995 -0.03519,-0.06016 -0.05064,-0.09095 -0.01545,-0.03079 -0.02969,-0.06209 -0.04237,-0.09353 -0.01268,-0.03144 -0.02373,-0.06318 -0.03359,-0.09508 -0.0099,-0.0319 -0.01834,-0.06394 -0.02532,-0.09612 -0.007,-0.03217 -0.01249,-0.06438 -0.01654,-0.09663 -0.004,-0.03226 -0.0067,-0.06448 -0.0078,-0.09663 -0.0011,-0.03215 -4.44e-4,-0.06426 0.0016,-0.09612 0.002,-0.03186 0.0052,-0.06319 0.01033,-0.09457 0.0051,-0.03138 0.0119,-0.06283 0.02015,-0.09353 0.0016,-0.0061 0.0039,-0.01203 0.0057,-0.01809 -0.101692,-0.171384 -0.15761,-0.347836 -0.15761,-0.534324 0,-0.517311 0.257343,-2.456133 0.257343,-2.456133 0,0 1.353903,-0.487101 0.648527,-2.049447 0,0 -0.166962,-0.310983 -0.776682,-0.665579 0,0 0.152845,-0.170956 -0.438724,-0.68935 -0.5915704,-0.518395 -1.217473,-0.868147 -1.217473,-0.868147 0,0 -0.6977674,-0.998567 -1.3249576,-1.092418 -0.2351964,-0.03519 -0.4939502,-0.04224 -0.7255229,-0.03772 z" /><ellipse
       style="fill:#ffffff;fill-opacity:1;fill-rule:evenodd;stroke:#8b5996;stroke-width:0.288508;stroke-linecap:round;stroke-linejoin:round;stroke-dasharray:none;stroke-opacity:1;paint-order:stroke fill markers"
       id="path1428"
       cx="6.3244104"
       cy="-17.463133"
       rx="1.1137754"
       ry="1.1223145" /><ellipse
       style="fill:#ffffff;fill-opacity:1;fill-rule:evenodd;stroke:#8b5996;stroke-width:0.24983;stroke-linecap:round;stroke-linejoin:round;stroke-dasharray:none;stroke-opacity:1;paint-order:stroke fill markers"
       id="ellipse12409"
       cx="10.609945"
       cy="-17.463133"
       rx="0.88832861"
       ry="1.0551482" /><ellipse
       style="fill:#ece6e9;fill-opacity:1;fill-rule:evenodd;stroke:none;stroke-width:0.282569;stroke-linecap:round;stroke-linejoin:round;stroke-dasharray:none;stroke-opacity:1;paint-order:stroke fill markers"
       id="path39169"
       cx="8.8389244"
       cy="-16.314026"
       rx="0.87870497"
       ry="0.31612149" /><path
       style="fill:url(#linearGradient28140);fill-opacity:1;stroke:none;stroke-width:0.264578px;stroke-linecap:butt;stroke-linejoin:miter;stroke-opacity:1"
       d="m 10.040099,-15.322437 -0.9916823,1.094113 c -0.4163467,-0.502642 -1.4145558,-0.847489 -1.6648325,-0.926279 -0.2502768,-0.07879 -0.1822318,-0.590081 -0.1822318,-0.590081 0,0 0.1639667,-0.221833 0.2002157,-0.02647 0.036249,0.195361 0.220591,0.235931 0.6347198,0.228531 0.414129,-0.0074 0.5324782,-0.484095 0.5285382,-0.804629 -0.00394,-0.320536 0.2740981,-0.282896 0.2740981,-0.282896 0,0 0.2112791,-0.04649 0.2112791,0.347078 0,0.393572 0.6779983,0.574466 1.0394387,0.524992 0.36144,0.05609 -0.04954,0.435641 -0.04954,0.435641 z"
       id="path12411"
       sodipodi:nodetypes="scscssscsccs" /><ellipse
       style="fill:#000000;fill-opacity:1;fill-rule:evenodd;stroke:none;stroke-width:0.114381;stroke-linecap:round;stroke-linejoin:round;stroke-dasharray:none;stroke-opacity:1;paint-order:stroke fill markers"
       id="ellipse39171"
       cx="6.3244104"
       cy="-17.463133"
       rx="0.44156569"
       ry="0.44495106" /><ellipse
       style="fill:#000000;fill-opacity:1;fill-rule:evenodd;stroke:none;stroke-width:0.0958211;stroke-linecap:round;stroke-linejoin:round;stroke-dasharray:none;stroke-opacity:1;paint-order:stroke fill markers"
       id="ellipse39173"
       cx="10.687739"
       cy="-17.463133"
       rx="0.34071597"
       ry="0.40469909" /><path
       id="path46544"
       style="color:#000000;fill:#4b2754;fill-opacity:1;-inkscape-stroke:none"
       d="m 1.6996044,-5.2693421 a 9.6798401,9.6798401 0 0 0 0.052192,0.037206 9.6798401,9.6798401 0 0 0 0.066661,0.043407 l 0.1307388,0.022737 C 2.0418487,-5.7019469 2.5159983,-6.681372 2.9687526,-7.503787 3.4215068,-8.3262021 3.8498184,-9.0039243 3.8498184,-9.0039243 l -0.222721,-0.1405571 c 0,0 -0.4317278,0.6832831 -0.8888172,1.5135729 -0.4433431,0.80532 -0.9119764,1.734628 -1.0386758,2.3615664 z" /><path
       id="path46539"
       style="color:#000000;fill:#4b2754;fill-opacity:1;-inkscape-stroke:none"
       d="m 0.0372063,-6.7214212 a 9.6798401,9.6798401 0 0 0 0.0992168,0.1095518 9.6798401,9.6798401 0 0 0 0.006201,0.00672 l 0.12867178,0.031005 C 0.43737282,-7.2519289 1.0334778,-8.1806421 1.5900525,-8.9238274 2.1466274,-9.6670128 2.6602504,-10.230699 2.6602504,-10.230699 l -0.1953331,-0.179313 c 0,0 -0.5214347,0.573913 -1.0862172,1.3280578 -0.54409716,0.7265242 -1.13201048,1.61472 -1.3414938,2.360533 z" /><path
       id="path46534"
       style="color:#000000;fill:#4b2754;fill-opacity:1;-inkscape-stroke:none"
       d="m 12.93694,-5.4471055 a 9.6798401,9.6798401 0 0 0 0.129189,-0.098183 C 13.040289,-6.3819628 12.555492,-7.258465 12.076028,-7.9450948 11.577472,-8.6590641 11.074041,-9.167735 11.074041,-9.1677351 l -0.187065,0.187065 c 0,0 0.487913,0.4934906 0.972532,1.1875011 0.484618,0.6940104 0.95564,1.5866201 0.945143,2.3439968 z" /><path
       id="path46529"
       style="color:#000000;fill:#4b2754;fill-opacity:1;-inkscape-stroke:none"
       d="m 14.582285,-6.9875496 a 9.6798401,9.6798401 0 0 0 0.127122,-0.1519257 9.6798401,9.6798401 0 0 0 0.0062,-0.00775 c 0.0029,-0.7820475 -0.511,-1.5549391 -1.026274,-2.1533145 -0.553143,-0.6423524 -1.127041,-1.0862172 -1.127041,-1.0862172 l -0.161744,0.208768 c 0,0 0.554128,0.431376 1.087768,1.0510786 0.533639,0.6197025 1.028438,1.4220215 0.954962,2.1248931 z" /><path
       id="path46793"
       style="fill:#a2e363;fill-opacity:1;stroke:none;stroke-width:0.264578px;stroke-linecap:butt;stroke-linejoin:miter;stroke-opacity:1"
       d="m 14.283601,-19.827857 c -0.10036,0.04098 -0.164844,0.07028 -0.164844,0.07028 0,0 0.138081,1.114639 0.413403,1.114639 0.27532,0 0.24893,0.370432 0.209286,0.775131 -0.03965,0.404699 0.06721,0.768986 0.284214,0.809237 0.21701,0.04025 -0.217036,0.775648 -0.217036,0.775648 0,0 -0.190829,0.400635 0.190165,1.115155 0.380995,0.71452 1.069413,1.225923 0.884167,1.566282 -0.18525,0.340359 0.587163,-0.194555 0.730173,-0.288349 0.0304,-0.01994 0.115446,-0.06723 0.226855,-0.13849 a 9.6798401,9.6798401 0 0 0 -2.556383,-5.799532 z" /></g></svg>
