<?xml version="1.0" encoding="UTF-8" standalone="no"?>
<svg
   width="64"
   height="64"
   version="1.1"
   id="svg10"
   sodipodi:docname="planetkde.svg"
   inkscape:version="1.2.2 (b0a8486541, 2022-12-01)"
   xmlns:inkscape="http://www.inkscape.org/namespaces/inkscape"
   xmlns:sodipodi="http://sodipodi.sourceforge.net/DTD/sodipodi-0.dtd"
   xmlns="http://www.w3.org/2000/svg"
   xmlns:svg="http://www.w3.org/2000/svg">
  <defs
     id="defs14" />
  <sodipodi:namedview
     id="namedview12"
     pagecolor="#ffffff"
     bordercolor="#999999"
     borderopacity="1"
     inkscape:showpageshadow="0"
     inkscape:pageopacity="0"
     inkscape:pagecheckerboard="0"
     inkscape:deskcolor="#d1d1d1"
     showgrid="false"
     inkscape:zoom="6.328125"
     inkscape:cx="-2.2123457"
     inkscape:cy="30.419753"
     inkscape:window-width="1920"
     inkscape:window-height="989"
     inkscape:window-x="0"
     inkscape:window-y="0"
     inkscape:window-maximized="1"
     inkscape:current-layer="svg10" />
  <g
     transform="matrix(1.5,0,0,1.5,-580.85501,-753.70074)"
     stroke-width="0.74075"
     id="g8">
    <rect
       x="388.57001"
       y="503.79999"
       width="40"
       height="40"
       rx="20"
       fill="#1da4f7"
       id="rect2" />
    <path
       d="m 408.57,503.8 c -1.452,0 -2.864,0.16 -4.227,0.451 l -1.773,3.549 -2.68,-2.01 c -4.806,2.311 -8.529,6.472 -10.254,11.584 l 3.934,-1.574 3,2 1,-3 13,-7 -0.793,-3.961 c -0.4,-0.024 -0.801,-0.039 -1.207,-0.039 m 14.81,6.568 -0.811,2.432 1,1 -4,6 2,7 6.633,0.83 c 0.239,-1.239 0.367,-2.519 0.367,-3.83 0,-3.425 -0.857,-6.641 -2.361,-9.453 l -1.639,-0.547 0.596,-1.193 c -0.535,-0.794 -1.144,-1.531 -1.785,-2.238 m -34.414,9.432 c -0.221,1.096 -0.346,2.227 -0.381,3.381 l 6.984,2.619 -1,-3 -2,-3 z m 6.603,6 5,12 v 4.338 c 2.449,1.065 5.151,1.662 8,1.662 0.199,0 0.395,-0.008 0.592,-0.014 l 6.408,-10.986 -16,-9 z"
       fill="#ffffff"
       fill-rule="evenodd"
       opacity="0.25"
       id="path4" />
    <path
       transform="matrix(1.2984,0,0,1.2984,394.29,-828.32)"
       d="m 12.339,1033.4 -2.833,0.265 v 10.94 l 2.802,-0.382 v -4.676 l 3.735,5.176 2.926,-0.882 -3.829,-4.97 3.86,-4.705 -2.988,-0.647 -3.704,4.705 z m -6.381,2.676 c -0.032,0 -0.07,0.017 -0.093,0.03 l -1.089,1.059 c -0.046,0.046 -0.065,0.123 -0.031,0.177 l 1.276,2 c -0.229,0.364 -0.398,0.762 -0.529,1.176 l -2.366,0.471 c -0.066,0.017 -0.124,0.054 -0.124,0.118 v 1.47 c 0,0.062 0.061,0.131 0.124,0.147 l 2.303,0.529 c 0.123,0.479 0.309,0.935 0.56,1.353 l -1.339,1.912 c -0.037,0.054 -0.018,0.131 0.031,0.177 l 1.09,1.029 c 0.046,0.042 0.13,0.064 0.187,0.03 l 2.086,-1.206 c 0.41,0.224 0.84,0.41 1.307,0.529 l 0.498,2.206 c 0.014,0.064 0.057,0.118 0.124,0.118 h 1.556 c 0.066,0 0.14,-0.057 0.156,-0.118 l 0.56,-2.206 c 0.482,-0.123 0.95,-0.325 1.37,-0.559 l 2.054,1.294 c 0.057,0.034 0.139,0.017 0.187,-0.03 l 1.089,-1.029 c 0.047,-0.046 0.065,-0.123 0.031,-0.176 l -0.747,-1.176 -0.249,0.088 c -0.036,0.017 -0.073,0 -0.093,-0.03 0,0 -0.471,-0.674 -1.089,-1.529 -0.74,1.368 -2.247,2.294 -3.984,2.294 -2.469,0 -4.482,-1.873 -4.482,-4.206 0,-1.716 1.091,-3.191 2.646,-3.852 v -1.088 c -0.283,0.094 -0.549,0.19 -0.809,0.324 H 8.138 l -2.086,-1.294 c -0.028,-0.017 -0.062,-0.032 -0.093,-0.029"
       color="#000000"
       color-rendering="auto"
       fill="#fcfcfc"
       image-rendering="auto"
       shape-rendering="auto"
       id="path6" />
  </g>
</svg>
