<?xml version="1.0" encoding="UTF-8" standalone="no"?>
<svg
   width="64"
   height="64"
   version="1"
   id="svg21"
   sodipodi:docname="podcast.svg"
   inkscape:version="1.2.2 (b0a8486541, 2022-12-01)"
   xml:space="preserve"
   xmlns:inkscape="http://www.inkscape.org/namespaces/inkscape"
   xmlns:sodipodi="http://sodipodi.sourceforge.net/DTD/sodipodi-0.dtd"
   xmlns:xlink="http://www.w3.org/1999/xlink"
   xmlns="http://www.w3.org/2000/svg"
   xmlns:svg="http://www.w3.org/2000/svg"><sodipodi:namedview
     id="namedview23"
     pagecolor="#ffffff"
     bordercolor="#999999"
     borderopacity="1"
     inkscape:showpageshadow="0"
     inkscape:pageopacity="0"
     inkscape:pagecheckerboard="0"
     inkscape:deskcolor="#d1d1d1"
     showgrid="false"
     inkscape:zoom="6.328125"
     inkscape:cx="18.962963"
     inkscape:cy="27.733333"
     inkscape:window-width="1920"
     inkscape:window-height="989"
     inkscape:window-x="0"
     inkscape:window-y="0"
     inkscape:window-maximized="1"
     inkscape:current-layer="svg21" /><defs
     id="defs5"><linearGradient
       inkscape:collect="always"
       id="linearGradient3877"><stop
         style="stop-color:#d16af9;stop-opacity:1"
         offset="0"
         id="stop3873" /><stop
         style="stop-color:#842cc2;stop-opacity:1"
         offset="1"
         id="stop3875" /></linearGradient><clipPath
       id="a"><circle
         cx="8.467"
         cy="288.53"
         r="6.879"
         fill="#d86eb0"
         stroke-opacity=".039"
         stroke-width=".491"
         style="paint-order:stroke markers fill"
         id="circle2" /></clipPath><linearGradient
       id="linearGradient921"
       x1="17.066"
       x2="17.066"
       y1="4.3632998"
       y2="55.370998"
       gradientTransform="matrix(1.0363448,0,0,1.0363448,-76.558776,-1.1631369)"
       gradientUnits="userSpaceOnUse"><stop
         stop-color="#d26ef5"
         offset="0"
         id="stop254"
         style="stop-color:#d36cfb;stop-opacity:1" /><stop
         stop-color="#822dbe"
         offset="1"
         id="stop256"
         style="stop-color:#842cc2;stop-opacity:1" /></linearGradient><filter
       id="b"
       x="-0.063245047"
       y="-0.05707116"
       width="1.1264901"
       height="1.1141423"
       color-interpolation-filters="sRGB"><feGaussianBlur
         stdDeviation="2.131827"
         id="feGaussianBlur259" /></filter><linearGradient
       inkscape:collect="always"
       xlink:href="#linearGradient3877"
       id="linearGradient3879"
       x1="21.7054"
       y1="4.1309991"
       x2="21.7054"
       y2="53.777287"
       gradientUnits="userSpaceOnUse" /></defs><rect
     x="3.5"
     y="3.5"
     width="57"
     height="57"
     ry="10.363566"
     stroke-width="3.59055"
     id="rect3156"
     style="fill:url(#linearGradient3879);fill-opacity:1" /><path
     d="m 32.001551,8.9491011 c -0.882302,-3.627e-4 -1.764169,0.023629 -2.187205,0.071798 -5.18473,0.5900014 -9.429909,2.7328409 -13.093181,6.6091849 -2.465878,2.608998 -4.152322,5.756067 -5.055393,9.434054 -0.295441,1.203197 -0.372639,1.72966 -0.442851,3.027371 -0.07218,1.334397 0.0022,3.643374 0.154965,4.808018 0.221218,1.687687 0.881846,3.847741 1.762097,5.761662 1.628201,3.540569 4.257097,6.519231 7.658277,8.679077 1.07386,0.681853 3.257128,1.800753 4.16963,2.136736 0.275885,0.101582 0.324977,0.10093 0.412278,-0.0041 0.161794,-0.194947 -0.05057,-1.991233 -0.290726,-2.459454 -0.154228,-0.300664 -0.309773,-0.420714 -0.978112,-0.75421 -3.656639,-1.824589 -6.564001,-4.780141 -8.416778,-8.555648 -0.799716,-1.629445 -1.347663,-3.256299 -1.532547,-4.551419 -0.20845,-1.46021 -0.244805,-3.879246 -0.08601,-5.740625 0.141969,-1.664059 0.622864,-3.308013 1.506223,-5.148768 1.340823,-2.793779 3.259719,-5.136333 5.707669,-6.96973 2.383386,-1.784793 5.213022,-2.974931 8.002344,-3.365012 0.726592,-0.101613 3.848052,-0.139854 4.803044,-0.059 2.181506,0.184708 4.032417,0.734665 6.205011,1.843865 3.91303,1.997969 7.052533,5.46703 8.697109,9.61044 0.879266,2.215394 1.110132,3.619849 1.11034,6.755724 1.14e-4,2.505778 -0.134456,3.503467 -0.70088,5.199135 -0.848725,2.540495 -2.186377,4.829988 -3.974901,6.802567 -1.429638,1.576695 -3.560466,3.202409 -5.369302,4.097189 -0.826402,0.408755 -0.981813,0.545833 -1.145161,1.008664 -0.211933,0.600645 -0.353435,2.130932 -0.210409,2.273948 0.118703,0.118703 0.558019,-0.04412 1.834641,-0.678143 1.277295,-0.634388 3.008612,-1.642295 3.806494,-2.216327 3.673117,-2.642679 6.587111,-6.852933 7.795593,-11.262995 0.498938,-1.820443 0.599722,-2.587649 0.643995,-4.905434 0.0371,-1.942732 -0.03565,-3.366774 -0.219643,-4.290571 C 51.863483,22.56804 50.504389,19.558494 48.457505,17.003697 47.400226,15.683912 46.061372,14.330964 44.892064,13.401259 41.739192,10.894548 38.311171,9.4918556 34.19284,9.0225987 33.767203,8.9740978 32.884351,8.9490493 32.002111,8.9486659 Z m -0.06042,6.9296229 c -1.56146,0.0078 -3.08126,0.201196 -4.090763,0.539501 -2.155287,0.72227 -4.288292,2.069062 -5.897424,3.724726 -1.513374,1.556798 -2.588893,3.32532 -3.274746,5.384226 -0.488906,1.467775 -0.641021,2.700922 -0.58712,4.75475 0.01865,0.71085 0.07482,1.542289 0.127232,1.877961 0.411159,2.632108 2.132486,5.832652 4.177505,7.768855 0.279845,0.264889 0.601982,0.544806 0.716509,0.621993 0.114495,0.07717 0.428207,0.297307 0.697325,0.489051 0.269118,0.191745 0.517032,0.339662 0.550869,0.328408 0.03389,-0.01127 0.07866,-0.09675 0.09887,-0.189797 0.02011,-0.09304 0.03959,-0.756469 0.04332,-1.474304 l 0.0062,-1.305069 -0.671717,-0.811033 C 22.40517,35.859576 21.602417,34.3718 21.145286,32.598717 c -1.120082,-4.344046 0.462375,-8.875049 4.090763,-11.712768 1.714011,-1.340616 3.770741,-2.096215 6.377252,-2.342865 1.319681,-0.124859 3.750739,0.37811 5.270642,1.090442 2.685999,1.258641 4.906886,3.798722 5.863017,6.703803 0.442437,1.344554 0.520121,1.869877 0.517499,3.5101 -0.0021,1.314396 -0.01389,1.474926 -0.157099,2.146685 -0.31021,1.455028 -0.931975,2.942597 -1.721576,4.119263 -0.223509,0.333061 -0.721659,0.984134 -1.106713,1.44653 l -0.700155,0.840186 0.01772,1.432332 c 0.01264,1.040076 0.03679,1.452126 0.08881,1.504047 0.09607,0.09593 0.658555,-0.28884 1.435855,-0.981657 2.73792,-2.440385 4.194813,-5.13799 4.765425,-8.825616 0.154767,-1.000332 0.140124,-2.85969 -0.02985,-3.827117 C 45.5951,26.212232 45.231104,25.079507 44.5994,23.788325 42.432092,19.357951 38.102866,16.29462 33.499111,15.934594 c -0.51239,-0.0401 -1.037588,-0.05803 -1.558144,-0.05545 z m 0.105915,7.453599 c -0.921435,-4.72e-4 -1.058315,0.01283 -1.490575,0.145721 -1.21356,0.373105 -2.373437,1.399687 -2.942079,2.605163 -0.279399,0.592323 -0.383458,1.022085 -0.420103,1.734427 -0.05555,1.079042 0.20532,2.112278 0.736416,2.920731 0.308738,0.469982 1.139979,1.292425 1.639808,1.622086 1.175837,0.775601 2.607133,1.019722 3.95863,0.675272 1.719918,-0.438322 3.008406,-1.697636 3.541294,-3.460977 0.135233,-0.447514 0.15425,-0.609909 0.15425,-1.322168 0,-0.712239 -0.01897,-0.873929 -0.15425,-1.321444 C 36.538181,25.169866 35.2844,23.941487 33.525516,23.459483 33.130731,23.351288 32.91057,23.332696 32.046963,23.33224 Z m -0.130082,11.685824 c -2.308562,0.01187 -3.999566,0.781715 -4.690704,2.150934 -0.345362,0.684164 -0.454054,1.865524 -0.34475,3.753123 0.182728,3.155462 0.937643,8.860644 1.428704,10.798712 0.35785,1.411709 0.869815,2.251149 1.693181,2.774399 0.323267,0.205445 1.047951,0.441898 1.579389,0.516058 0.640451,0.08936 1.663644,0.02361 2.183579,-0.140746 1.155317,-0.365021 1.806556,-1.151171 2.211352,-2.669831 0.357539,-1.341134 0.998736,-6.12428 1.321443,-9.857712 0.126662,-1.465391 0.128818,-3.553108 0.0041,-4.16538 -0.177847,-0.874282 -0.474356,-1.343103 -1.198429,-1.894335 -1.167546,-0.88879 -2.074037,-1.194802 -3.718302,-1.256775 -0.159276,-0.006 -0.315961,-0.0086 -0.469858,-0.0078 z"
     fill="#ffffff"
     stroke-width="1.03632"
     style="paint-order:fill markers stroke"
     id="path270" /></svg>
