<?xml version="1.0" encoding="UTF-8" standalone="no"?>
<svg
   width="64"
   height="64"
   version="1.1"
   viewBox="0 0 64 64"
   id="svg21"
   sodipodi:docname="podcast-amarok.svg"
   inkscape:version="1.2.2 (b0a8486541, 2022-12-01)"
   xmlns:inkscape="http://www.inkscape.org/namespaces/inkscape"
   xmlns:sodipodi="http://sodipodi.sourceforge.net/DTD/sodipodi-0.dtd"
   xmlns="http://www.w3.org/2000/svg"
   xmlns:svg="http://www.w3.org/2000/svg">
  <sodipodi:namedview
     id="namedview23"
     pagecolor="#ffffff"
     bordercolor="#999999"
     borderopacity="1"
     inkscape:showpageshadow="0"
     inkscape:pageopacity="0"
     inkscape:pagecheckerboard="0"
     inkscape:deskcolor="#d1d1d1"
     showgrid="false"
     inkscape:zoom="6.328125"
     inkscape:cx="61.945679"
     inkscape:cy="29.471605"
     inkscape:window-width="1920"
     inkscape:window-height="989"
     inkscape:window-x="0"
     inkscape:window-y="0"
     inkscape:window-maximized="1"
     inkscape:current-layer="svg21" />
  <defs
     id="defs5">
    <clipPath
       id="a">
      <circle
         cx="8.467"
         cy="288.53"
         r="6.879"
         fill="#d86eb0"
         stroke-opacity=".039"
         stroke-width=".491"
         style="paint-order:stroke markers fill"
         id="circle2" />
    </clipPath>
    <linearGradient
       id="b"
       x1="9.2602997"
       x2="9.2602997"
       y1="-0.26249"
       y2="15.612"
       gradientTransform="matrix(3.779602,0,0,3.779602,-3.000399,2.9920828)"
       gradientUnits="userSpaceOnUse">
      <stop
         stop-color="#36474f"
         offset="0"
         id="stop257" />
      <stop
         stop-color="#273238"
         stop-opacity=".98824"
         offset="1"
         id="stop259" />
    </linearGradient>
    <filter
       id="c"
       x="-0.059737744"
       y="-0.060264565"
       width="1.1194755"
       height="1.1205291"
       color-interpolation-filters="sRGB">
      <feGaussianBlur
         stdDeviation="0.15945"
         id="feGaussianBlur262" />
    </filter>
    <clipPath
       id="a-3">
      <circle
         cx="8.467"
         cy="288.53"
         r="6.8790002"
         fill="#d86eb0"
         stroke-opacity="0.039"
         stroke-width="0.491"
         style="paint-order:stroke markers fill"
         id="circle254" />
    </clipPath>
  </defs>
  <circle
     cx="32"
     cy="32"
     r="29.999836"
     fill="url(#b)"
     stroke-width="3.63972"
     style="fill:url(#b);paint-order:stroke markers fill"
     id="circle267" />
  <g
     transform="matrix(4.3609048,0,0,4.3609048,-4.924821,-1226.8587)"
     clip-path="url(#a-3)"
     fill="none"
     stroke="#ffffff"
     stroke-opacity="0.937"
     stroke-width="0.10288"
     id="g281">
    <path
       d="m 1.4854,287.74 c 0.719,0.15538 1.3906,0.6252 1.9826,1.9807 0.674,1.544 1.623,2.229 2.772,2.283 1.48,0.07 2.673,-1.226 3.459,-2.385 1.602,-2.362 4.5188,-2.1357 5.8165,-1.2509"
       opacity="0.35"
       id="path275" />
    <path
       d="m 1.4927,288.13 c 0.89388,-0.34988 2.0828,-0.42377 2.8723,0.82673 0.722,1.143 1.576,2.867 4.049,2.709 1.478,-0.095 2.956,-0.71 3.718,-2.15 0.52913,-0.93299 1.2601,-1.8714 2.2929,-2.1036 0.38219,-0.0816 0.65524,-0.0703 0.97604,0.0566"
       opacity="0.35"
       id="path277" />
    <path
       d="m 1.7748,290.25 c 0.94712,-0.44412 2.7457,-0.95337 4.1972,-0.52987 1.297,0.379 2.937,1.847 6.056,1.504 0.824,-0.09 1.522,-0.563 2.183,-1.464 0.4785,-0.6525 0.75018,-1.0197 1.3056,-1.1669"
       opacity="0.35"
       id="path279" />
  </g>
  <g
     id="g605"
     transform="matrix(1.3043479,0,0,1.3043479,-121.63144,-9.1391334)">
    <rect
       x="111.7851"
       y="20.040001"
       width="12"
       height="20"
       rx="6"
       ry="6"
       fill="#ffffff"
       style="paint-order:stroke markers fill"
       id="rect599" />
    <path
       d="m 109.2851,33.54 a 0.499,0.499 0 0 0 -0.5,0.5 0.499,0.499 0 0 0 0.006,0.062 9,9 0 0 0 8.994,8.938 9,9 0 0 0 8.996,-8.95 0.499,0.499 0 0 0 0.002,-0.036 9,9 0 0 0 0,-0.014 0.499,0.499 0 0 0 -0.5,-0.498 0.499,0.499 0 0 0 -0.498,0.498 h -0.002 a 7.998,7.998 0 0 1 -7.998,8 7.998,7.998 0 0 1 -7.996,-8 h -0.006 a 0.499,0.499 0 0 0 -0.498,-0.498 z"
       fill="#ffffff"
       style="paint-order:stroke markers fill"
       id="path601" />
  </g>
</svg>
