<?xml version="1.0" encoding="UTF-8" standalone="no"?>
<svg
   width="64"
   height="64"
   version="1.1"
   id="svg20"
   sodipodi:docname="preferences-security-kerberos.svg"
   xml:space="preserve"
   inkscape:version="1.2.2 (b0a8486541, 2022-12-01)"
   xmlns:inkscape="http://www.inkscape.org/namespaces/inkscape"
   xmlns:sodipodi="http://sodipodi.sourceforge.net/DTD/sodipodi-0.dtd"
   xmlns="http://www.w3.org/2000/svg"
   xmlns:svg="http://www.w3.org/2000/svg"><defs
     id="defs24"><linearGradient
       id="linearGradient1053"
       x1="68"
       x2="128"
       y1="62"
       y2="2"
       gradientTransform="matrix(0.9166514,0,0,0.9166514,-57.831746,2.6666915)"
       gradientUnits="userSpaceOnUse"><stop
         stop-color="#e0e4e9"
         offset="0"
         id="stop966" /><stop
         stop-color="#fefeff"
         offset="1"
         id="stop968" /></linearGradient></defs><sodipodi:namedview
     id="namedview22"
     pagecolor="#ffffff"
     bordercolor="#999999"
     borderopacity="1"
     inkscape:showpageshadow="0"
     inkscape:pageopacity="0"
     inkscape:pagecheckerboard="0"
     inkscape:deskcolor="#d1d1d1"
     showgrid="false"
     inkscape:zoom="4.4746601"
     inkscape:cx="-34.639503"
     inkscape:cy="10.615331"
     inkscape:window-width="1920"
     inkscape:window-height="989"
     inkscape:window-x="0"
     inkscape:window-y="0"
     inkscape:window-maximized="1"
     inkscape:current-layer="svg20" /><rect
     x="4.5"
     y="4.5"
     width="55"
     height="55"
     ry="2.7499542"
     fill="url(#linearGradient1053)"
     stroke-width="3.46458"
     id="rect975"
     style="fill:url(#linearGradient1053)" /><g
     transform="matrix(-1.2413793,0,0,1.2413793,71.439862,-6.6951086)"
     fill="#ffffff"
     id="g16"
     style="fill:#000001;fill-opacity:1;stroke-width:0.9273"><path
       d="m 17.804,33.038 c 0.769,-0.268 1.574,-0.524 1.967,-0.918 0.25,-0.25 0.375,-0.541 0.438,-0.853 0.062,-0.313 0.062,-0.646 0.062,-0.979 0,0 -3,0 -3,1 0,0 0,1 0.533,1.75 z"
       opacity="0.35"
       stroke-width="0.79087"
       id="path4"
       style="fill:#000001;fill-opacity:1" /><path
       transform="translate(-0.22881,-0.82886)"
       d="m 39.5,21.117 c -1,0 -2.332,2.665 -3.832,4.332 -1.5,1.667 -2.834,1.668 -3.834,2.168 -1,0.5 -1.667,1.499 -2.668,2.166 -1.001,0.667 -2.331,1.001 -5,1.168 -2.669,0.167 -3.666,0.16602 -3.666,0.16602 0,0.333 -5e-4,0.66552 -0.0625,0.97852 a 1.607,1.607 0 0 1 -0.14453,0.43945 c -0.0015,0.0032 -0.0023,0.0066 -0.0039,0.0098 a 1.607,1.607 0 0 1 -0.0039,0.0059 1.607,1.607 0 0 1 -0.2793,0.39062 c -0.0024,0.0025 -0.0034,0.0054 -0.0059,0.0078 -0.393,0.394 -1.1978,0.64997 -1.9668,0.91797 0.313,1.237 0.4198,2.213 1.4668,3.25 2,2 3.972,1.673 6,2 2.028,0.327 4,0 6,0 2,0 2,0 4,2 l 0.5293,0.5293 a 15.34,15.34 0 0 0 4.4707,-2.5294 15.336,15.336 0 0 0 3.9883,-4.9785 c -1.3911,-0.76939 -2.9883,-1.8886 -2.9883,-3.0215 0,-2 -1,-10 -2,-10 z M 39,23.949 c 0.833,0.167 1.165,2.166 0.83203,3.5 -0.332,1.334 -1.3281,1.999 -2.1641,1.832 -0.836,-0.167 -1.501,-1.164 -1.168,-2.498 0.334,-1.334 1.668,-3 2.5,-2.834 z m -6.541,4.293 c 0.29175,-1.26e-4 0.54248,0.12355 0.70898,0.37305 0.333,0.499 0.33106,1.498 -0.33594,2 -0.668,0.502 -1.9971,0.501 -2.3301,0 l -0.002,0.002 c -0.333,-0.501 0.334,-1.501 1,-2 0.3335,-0.25 0.66723,-0.37488 0.95898,-0.375 z"
       stroke-width="0.87269"
       id="path6"
       style="fill:#000001;fill-opacity:1" /><g
       stroke-width="0.79087"
       id="g14"
       style="fill:#000001;fill-opacity:1"><path
         d="m 30.271,29.788 c -0.333,-0.501 0.334,-1.501 1,-2 0.667,-0.5 1.334,-0.5 1.667,-0.001 0.333,0.499 0.333,1.497 -0.334,1.999 -0.668,0.502 -1.999,0.502 -2.332,10e-4 z"
         opacity="0.35"
         id="path8"
         style="fill:#000001;fill-opacity:1" /><path
         d="m 38.771,23.12 c 0.833,0.167 1.166,2.166 0.833,3.5 -0.332,1.334 -1.33,2 -2.166,1.833 -0.836,-0.167 -1.5,-1.165 -1.167,-2.499 0.334,-1.334 1.668,-3 2.5,-2.834 z"
         opacity="0.35"
         id="path10"
         style="fill:#000001;fill-opacity:1" /><path
         d="m 44.271,33.288 a 15.336,15.336 0 0 1 -4,5 15.34,15.34 0 0 1 -4.47,2.53 l 1.236,1.236 a 15.328,15.328 0 0 0 5.234,-2.766 15.336,15.336 0 0 0 4,-5 z"
         opacity="0.5"
         id="path12"
         style="fill:#000001;fill-opacity:1" /></g></g></svg>
