<?xml version="1.0" encoding="UTF-8"?>
<svg width="64" height="64" version="1.1" viewBox="0 0 16.933 16.933" xmlns="http://www.w3.org/2000/svg" xmlns:cc="http://creativecommons.org/ns#" xmlns:dc="http://purl.org/dc/elements/1.1/" xmlns:rdf="http://www.w3.org/1999/02/22-rdf-syntax-ns#" xmlns:xlink="http://www.w3.org/1999/xlink">
 <metadata>
  <rdf:RDF>
   <cc:Work rdf:about="">
    <dc:format>image/svg+xml</dc:format>
    <dc:type rdf:resource="http://purl.org/dc/dcmitype/StillImage"/>
   </cc:Work>
  </rdf:RDF>
 </metadata>
 <defs>
  <linearGradient id="linearGradient1103" x1="15.408" x2="58" y1="19" y2="45" gradientTransform="matrix(.26458 0 0 .26458 -1.561e-5 -9.2954e-7)" gradientUnits="userSpaceOnUse">
   <stop stop-color="#0082e5" offset="0"/>
   <stop stop-color="#42b7ff" offset="1"/>
  </linearGradient>
 </defs>
 <g stroke-linecap="round" stroke-linejoin="round" stroke-width=".26458">
  <path d="m1.5875 2.3812c-0.29315 0-0.52916 0.236-0.52916 0.52916v10.848h14.816v-10.848c0-0.29315-0.236-0.52916-0.52916-0.52916z" fill="url(#linearGradient1103)"/>
  <path d="m1.5875 2.3812c-0.29315 0-0.52916 0.236-0.52916 0.52916v10.848h3.1749l6.6145-11.377z" fill="#fff" opacity=".15" style="-inkscape-stroke:none"/>
  <path d="m15.875 13.141h-14.816v0.88208c0 0.29315 0.236 0.52916 0.52916 0.52916h13.758c0.29315 0 0.52916-0.236 0.52916-0.52916z" fill="#0082e5"/>
 </g>
 <g transform="matrix(.91259 0 0 .91259 .93326 .79029)" fill="#fff" stroke-width=".79999">
  <rect x="1.6291" y="13.777" width="1.0583" height="1.0583" ry=".10583" style="paint-order:stroke markers fill"/>
  <rect x="5.9988" y="13.777" width="1.0583" height="1.0583" ry=".10583" style="paint-order:stroke markers fill"/>
  <rect x="7.5616" y="13.777" width="1.0583" height="1.0583" ry=".10583" style="paint-order:stroke markers fill"/>
  <rect x="9.1245" y="13.777" width="1.0583" height="1.0583" ry=".10583" style="paint-order:stroke markers fill"/>
 </g>
</svg>
