<?xml version="1.0" encoding="UTF-8" standalone="no"?>
<svg
   width="64"
   height="64"
   version="1.1"
   id="svg27"
   sodipodi:docname="preferences-log.svg"
   inkscape:version="1.2.2 (b0a8486541, 2022-12-01)"
   xmlns:inkscape="http://www.inkscape.org/namespaces/inkscape"
   xmlns:sodipodi="http://sodipodi.sourceforge.net/DTD/sodipodi-0.dtd"
   xmlns="http://www.w3.org/2000/svg"
   xmlns:svg="http://www.w3.org/2000/svg">
  <sodipodi:namedview
     id="namedview29"
     pagecolor="#ffffff"
     bordercolor="#999999"
     borderopacity="1"
     inkscape:showpageshadow="0"
     inkscape:pageopacity="0"
     inkscape:pagecheckerboard="0"
     inkscape:deskcolor="#d1d1d1"
     showgrid="false"
     inkscape:zoom="6.328125"
     inkscape:cx="42.11358"
     inkscape:cy="24.888889"
     inkscape:window-width="1920"
     inkscape:window-height="989"
     inkscape:window-x="0"
     inkscape:window-y="0"
     inkscape:window-maximized="1"
     inkscape:current-layer="svg27" />
  <defs
     id="defs7">
    <linearGradient
       id="a"
       x1="13.229"
       x2="2.117"
       y1="297"
       y2="280.07"
       gradientTransform="matrix(4.0496,0,0,3.7796,382.28,-574.74)"
       gradientUnits="userSpaceOnUse">
      <stop
         stop-color="#66bcff"
         offset="0"
         id="stop2" />
      <stop
         stop-color="#b29aff"
         offset="1"
         id="stop4" />
    </linearGradient>
    <linearGradient
       id="linearGradient1229"
       x1="17"
       x2="17"
       y1="7"
       y2="51"
       gradientTransform="matrix(1.1363751,0,0,1.1363751,10.04424,3.9270106)"
       gradientUnits="userSpaceOnUse">
      <stop
         stop-color="#6c7378"
         offset="0"
         id="stop260" />
      <stop
         stop-color="#42464a"
         offset="1"
         id="stop262" />
    </linearGradient>
    <linearGradient
       id="linearGradient1242"
       x1="-9"
       x2="45"
       y1="50"
       y2="50"
       gradientTransform="matrix(1.1363751,0,0,1.1363751,10.04424,3.9270106)"
       gradientUnits="userSpaceOnUse">
      <stop
         stop-color="#a1aab3"
         offset="0"
         id="stop265" />
      <stop
         stop-color="#818990"
         offset="1"
         id="stop267" />
    </linearGradient>
  </defs>
  <g
     id="g586"
     transform="translate(1.5012348,-4.8197527)">
    <rect
       x="-0.18313648"
       y="11.819575"
       width="61.361839"
       height="50.000355"
       ry="2.3345089"
       fill="url(#linearGradient1229)"
       stroke-linecap="round"
       stroke-linejoin="round"
       stroke-width="2.29479"
       style="fill:url(#linearGradient1229);paint-order:stroke fill markers"
       id="rect280" />
    <path
       d="m -0.18313651,55.961547 v 3.523496 c 0,1.293305 1.04154493,2.334887 2.33488691,2.334887 H 58.84578 c 1.293342,0 2.334887,-1.041545 2.334887,-2.334887 v -3.523496 z"
       fill="url(#linearGradient1242)"
       stroke-linecap="round"
       stroke-linejoin="round"
       stroke-width="2.27271"
       style="fill:url(#linearGradient1242);paint-order:stroke fill markers"
       id="path282" />
    <g
       fill="#ffffff"
       stroke-width="0.79999"
       id="g292"
       transform="matrix(3.779602,0,0,3.779602,-1.5013105,4.8197526)">
      <rect
         x="1.6291"
         y="13.777"
         width="1.0583"
         height="1.0583"
         ry="0.10583"
         style="paint-order:stroke markers fill"
         id="rect284" />
      <rect
         x="5.9987998"
         y="13.777"
         width="1.0583"
         height="1.0583"
         ry="0.10583"
         style="paint-order:stroke markers fill"
         id="rect286" />
      <rect
         x="7.5616002"
         y="13.777"
         width="1.0583"
         height="1.0583"
         ry="0.10583"
         style="paint-order:stroke markers fill"
         id="rect288" />
      <rect
         x="9.1245003"
         y="13.777"
         width="1.0583"
         height="1.0583"
         ry="0.10583"
         style="paint-order:stroke markers fill"
         id="rect290" />
    </g>
  </g>
  <path
     d="M 6.1572738,11.094751 H 24.157274 v 2 H 6.1572738 Z m 0,34 h 8.0000002 v 2 H 6.1572738 Z m 12.0000002,0 h 24 v 2 h -24 z m -12.0000002,-4 h 8.0000002 v 2 H 6.1572738 Z m 12.0000002,0 h 28 v 2 h -28 z m -12.0000002,-4 h 8.0000002 v 2 H 6.1572738 Z m 12.0000002,0 h 24 v 2 h -24 z m -12.0000002,-4 h 8.0000002 v 2 H 6.1572738 Z m 12.0000002,0 h 28 v 2 h -28 z m -12.0000002,-4 h 8.0000002 v 2 H 6.1572738 Z m 12.0000002,0 h 20 v 2 h -20 z m -12.0000002,-4 h 8.0000002 v 2 H 6.1572738 Z m 12.0000002,0 h 32 v 2 h -32 z m -12.0000002,-4 h 8.0000002 v 2 H 6.1572738 Z m 12.0000002,0 h 36 v 2 h -36 z m -12.0000002,-4 h 8.0000002 v 2 H 6.1572738 Z m 12.0000002,0 h 24 v 2 h -24 z"
     fill="#ffffff"
     opacity="0.5"
     id="path588" />
</svg>
