<?xml version="1.0" encoding="UTF-8"?>
<svg width="64" height="64" version="1.1" xmlns="http://www.w3.org/2000/svg" xmlns:cc="http://creativecommons.org/ns#" xmlns:dc="http://purl.org/dc/elements/1.1/" xmlns:rdf="http://www.w3.org/1999/02/22-rdf-syntax-ns#">
 <metadata>
  <rdf:RDF>
   <cc:Work rdf:about="">
    <dc:format>image/svg+xml</dc:format>
    <dc:type rdf:resource="http://purl.org/dc/dcmitype/StillImage"/>
   </cc:Work>
  </rdf:RDF>
 </metadata>
 <defs>
  <filter id="filter883" x="-.096" y="-.043636" width="1.192" height="1.0873" color-interpolation-filters="sRGB">
   <feGaussianBlur stdDeviation="0.5"/>
  </filter>
  <linearGradient id="linearGradient1005" x1=".73911" x2="16.388" y1="16.296" y2=".64687" gradientTransform="matrix(3.7795 0 0 3.7795 -.13277 .025313)" gradientUnits="userSpaceOnUse">
   <stop stop-color="#00a0ff" offset="0"/>
   <stop stop-color="#37beff" offset="1"/>
  </linearGradient>
 </defs>
 <path d="m62 32c0 3.5964-0.63303 7.0444-1.7939 10.24-0.80694 2.2212-1.8685 4.3211-3.1518 6.2635-0.53754 0.81668-1.1155 1.6054-1.729 2.3633-1.964 2.4257-4.298 4.538-6.9183 6.2524-0.9649 0.63183-1.9678 1.2098-3.0061 1.7277-4.032 2.0178-8.5836 3.1529-13.401 3.1529-4.8171 0-9.3687-1.1351-13.401-3.153-1.0384-0.51799-2.0425-1.0959-3.0074-1.7277-2.6535-1.7375-5.0154-3.883-6.9954-6.3489-0.61464-0.76406-1.1914-1.56-1.729-2.384-1.249-1.9101-2.2836-3.9711-3.0746-6.1493-1.1607-3.1948-1.7926-6.6416-1.7926-10.237 0-16.569 13.431-30 30-30 8.3168 0 15.842 3.3845 21.277 8.8504 1.5661 1.5746 2.9584 3.3233 4.1434 5.2137 1.1204 1.7804 2.0571 3.6881 2.7857 5.6949 1.161 3.1959 1.794 6.6441 1.794 10.24z" fill="url(#linearGradient1005)" stroke-width=".11719"/>
 <path transform="matrix(1.6,0,0,1.6,-608.62,-818.18)" d="m402.89 517.61h3.75l-6.5037 10.736h5.4449l-7.0443 11.194 2.2695 0.94816-6.6664 4.6218 1.4728-7.9496 1.6068 1.5702 4.2569-7.776h-5.5287z" fill-rule="evenodd" filter="url(#filter883)" opacity=".15"/>
 <path d="m36.004 9.996h6l-10.406 17.178h8.7118l-11.271 17.91 3.6312 1.5171-10.666 7.3949 2.3565-12.719 2.5709 2.5123 6.811-12.442h-8.8459z" fill="#fffff9" fill-rule="evenodd" stroke-width="1.6"/>
</svg>
