<?xml version="1.0" encoding="UTF-8" standalone="no"?>
<svg
   width="64"
   height="64"
   version="1.1"
   id="svg14"
   sodipodi:docname="preferences-security-firewall.svg"
   xml:space="preserve"
   inkscape:version="1.2.2 (b0a8486541, 2022-12-01)"
   xmlns:inkscape="http://www.inkscape.org/namespaces/inkscape"
   xmlns:sodipodi="http://sodipodi.sourceforge.net/DTD/sodipodi-0.dtd"
   xmlns:xlink="http://www.w3.org/1999/xlink"
   xmlns="http://www.w3.org/2000/svg"
   xmlns:svg="http://www.w3.org/2000/svg"><defs
     id="defs18"><linearGradient
       inkscape:collect="always"
       id="linearGradient4912"><stop
         style="stop-color:#ffed2b;stop-opacity:1;"
         offset="0"
         id="stop4908" /><stop
         style="stop-color:#d63602;stop-opacity:1"
         offset="1"
         id="stop4910" /></linearGradient><linearGradient
       inkscape:collect="always"
       id="linearGradient1113"><stop
         style="stop-color:#fdce23;stop-opacity:1"
         offset="0"
         id="stop1109" /><stop
         style="stop-color:#de5309;stop-opacity:1"
         offset="1"
         id="stop1111" /></linearGradient><linearGradient
       inkscape:collect="always"
       xlink:href="#linearGradient1113"
       id="linearGradient1115"
       x1="114.40988"
       y1="0.31624281"
       x2="115.14816"
       y2="58.279137"
       gradientUnits="userSpaceOnUse"
       gradientTransform="translate(-82.409877,2.6833215)" /><linearGradient
       inkscape:collect="always"
       xlink:href="#linearGradient4912"
       id="linearGradient4914"
       x1="29.617001"
       y1="16.947001"
       x2="29.617001"
       y2="46.6661"
       gradientUnits="userSpaceOnUse"
       gradientTransform="matrix(1.0385,0,0,1.0385,-1.2308,-1.2308)" /></defs><sodipodi:namedview
     id="namedview16"
     pagecolor="#ffffff"
     bordercolor="#999999"
     borderopacity="1"
     inkscape:showpageshadow="0"
     inkscape:pageopacity="0"
     inkscape:pagecheckerboard="0"
     inkscape:deskcolor="#d1d1d1"
     showgrid="false"
     inkscape:zoom="6.328125"
     inkscape:cx="-1.5802469"
     inkscape:cy="26.469136"
     inkscape:window-width="1920"
     inkscape:window-height="989"
     inkscape:window-x="0"
     inkscape:window-y="0"
     inkscape:window-maximized="1"
     inkscape:current-layer="svg14" /><path
     id="rect524"
     style="fill:url(#linearGradient1115);fill-opacity:1;fill-rule:evenodd;stroke-width:3.78;stroke-linecap:round;stroke-linejoin:round;paint-order:stroke fill markers"
     d="m 32.000003,2.9995643 a 9.0970887,9.0970887 0 0 0 -2.02344,0.230469 9.0970887,9.0970887 0 0 0 -1.92188,0.675781 L 11.95703,11.710502 a 7.2066106,7.2066106 0 0 0 -1.654297,1.117187 7.2066106,7.2066106 0 0 0 -1.2851565,1.529297 7.2066106,7.2066106 0 0 0 -0.816406,1.824219 7.2066106,7.2066106 0 0 0 -0.283203,1.976563 v 12.054687 a 32.172217,32.172217 0 0 0 0.251953,3.976563 32.172217,32.172217 0 0 0 0.740234,3.914062 32.172217,32.172217 0 0 0 1.2187505,3.792969 32.172217,32.172217 0 0 0 1.677735,3.613281 32.172217,32.172217 0 0 0 2.111328,3.376953 32.172217,32.172217 0 0 0 2.513672,3.089844 32.172217,32.172217 0 0 0 2.875003,2.757812 32.172217,32.172217 0 0 0 3.19531,2.378907 32.172217,32.172217 0 0 0 3.46484,1.96875 32.172217,32.172217 0 0 0 3.67969,1.523437 l 0.16797,0.05469 a 7.1949085,7.1949085 0 0 0 1.44727,0.302734 7.1949085,7.1949085 0 0 0 1.47656,0 7.1949085,7.1949085 0 0 0 1.44726,-0.302734 l 0.19336,-0.06445 a 32.168147,32.168147 0 0 0 3.67774,-1.525391 32.168147,32.168147 0 0 0 3.46093,-1.966797 32.168147,32.168147 0 0 0 3.18946,-2.380859 32.168147,32.168147 0 0 0 2.873039,-2.75586 32.168147,32.168147 0 0 0 2.509771,-3.089843 32.168147,32.168147 0 0 0 2.109379,-3.376954 32.168147,32.168147 0 0 0 1.67578,-3.611328 32.168147,32.168147 0 0 0 1.21679,-3.791015 32.168147,32.168147 0 0 0 0.74024,-3.910157 32.168147,32.168147 0 0 0 0.25,-3.974609 V 18.157768 a 7.206441,7.206441 0 0 0 -0.28321,-1.976563 7.206441,7.206441 0 0 0 -0.816399,-1.824219 7.206441,7.206441 0 0 0 -1.28516,-1.529297 7.206441,7.206441 0 0 0 -1.65429,-1.117187 L 35.945313,3.9058143 a 9.0970887,9.0970887 0 0 0 -1.92188,-0.675781 9.0970887,9.0970887 0 0 0 -2.02343,-0.230469 z" /><path
     d="m 29.526455,16.368659 c -0.129813,5.422009 -1.843338,10.173146 -5.140575,14.251336 -0.129813,-1.605521 -0.626216,-3.211042 -1.494402,-4.816563 -0.0862,1.215045 -0.576367,2.83199 -1.464285,4.849795 -0.889994,2.015729 -1.443515,3.477936 -1.659523,4.388701 -0.47771,2.298201 -0.206661,4.316006 0.813146,6.05134 1.018768,1.734294 3.02515,3.44782 6.018107,5.140575 4.52786,1.763373 6.275655,1.84853 10.021525,0 2.125809,-1.215046 3.817526,-2.549518 5.075149,-4.003418 1.258662,-1.452861 2.059346,-2.862106 2.406205,-4.228772 0.346859,-1.365627 0.443439,-2.77591 0.291818,-4.228772 -0.151621,-1.4539 -0.496403,-2.765525 -1.0385,-3.936953 A 24.604142,24.604142 0 0 0 41.499321,26.51792 c -0.694757,-1.040577 -1.320972,-1.864108 -1.884878,-2.47163 -0.563905,-0.607523 -1.019807,-1.040577 -1.367704,-1.301241 0.304281,0.824569 0.411246,1.713525 0.325051,2.668945 -0.08723,0.953344 -0.301165,1.82153 -0.649063,2.602482 -0.129813,-1.301241 -0.51198,-2.60352 -1.141311,-3.904761 -0.628293,-1.30124 -1.300203,-2.376088 -2.015729,-3.222465 a 20.255942,20.255942 0 0 0 -2.47163,-2.438398 C 31.361484,17.6699 30.719691,17.161035 30.372832,16.923219 a 17.291025,17.291025 0 0 0 -0.846377,-0.55456 z"
     overflow="visible"
     solid-color="#000000"
     style="color:#000000;isolation:auto;mix-blend-mode:normal;fill:url(#linearGradient4914);fill-opacity:1;stroke-width:1;stroke:#ffffff;stroke-opacity:1;stroke-dasharray:none"
     id="path6" /><path
     d="m 36.620448,46.233842 c 1.431053,-2.863144 1.713525,-5.95372 0.845339,-9.271728 -0.867148,-3.319046 -2.580673,-5.867524 -5.140575,-7.645437 0.218085,0.954382 0.09762,2.526671 -0.357244,4.716867 -0.455902,2.191235 -1.181813,3.84972 -2.18085,4.977531 0.174468,-1.387436 0.218085,-2.515247 0.130851,-3.383433 -0.0862,-0.867148 -0.217047,-1.517249 -0.390476,-1.95238 l -0.325051,-0.584676 c -0.259625,1.561904 -0.932573,3.12277 -2.016767,4.684674 -0.563905,0.824569 -0.986575,1.583712 -1.269047,2.27743 -0.281433,0.693718 -0.390476,1.582674 -0.32505,2.667907 0.06439,1.084194 0.400861,2.255622 1.007345,3.513245 0,0 1.715602,1.399898 3.62748,1.399898 4.633787,0 4.844603,-0.515096 6.394045,-1.399898 z"
     overflow="visible"
     solid-color="#000000"
     style="color:#000000;isolation:auto;mix-blend-mode:normal;fill:#ffffff;fill-opacity:1;stroke-width:0.556023"
     id="path8" /></svg>
