<?xml version="1.0" encoding="UTF-8" standalone="no"?>
<svg
   width="64"
   height="64"
   version="1.1"
   id="svg8"
   sodipodi:docname="preferences-releasenotes.svg"
   inkscape:version="1.2.2 (b0a8486541, 2022-12-01)"
   xmlns:inkscape="http://www.inkscape.org/namespaces/inkscape"
   xmlns:sodipodi="http://sodipodi.sourceforge.net/DTD/sodipodi-0.dtd"
   xmlns="http://www.w3.org/2000/svg"
   xmlns:svg="http://www.w3.org/2000/svg">
  <defs
     id="defs12">
    <linearGradient
       id="linear0"
       gradientUnits="userSpaceOnUse"
       x1="16"
       y1="27"
       x2="16"
       y2="31"
       gradientTransform="matrix(1.8666667,0,0,1.8666667,2.1333333,0.2666657)">
      <stop
         offset="0"
         style="stop-color:rgb(0%,0%,0%);stop-opacity:0.4;"
         id="stop241" />
      <stop
         offset="1"
         style="stop-color:rgb(0%,0%,0%);stop-opacity:0;"
         id="stop243" />
    </linearGradient>
    <linearGradient
       id="linear1"
       gradientUnits="userSpaceOnUse"
       x1="16"
       y1="25"
       x2="16"
       y2="29"
       gradientTransform="matrix(1.8666667,0,0,1.8666667,2.1333333,0.2666657)">
      <stop
         offset="0"
         style="stop-color:rgb(0%,0%,0%);stop-opacity:0.4;"
         id="stop246" />
      <stop
         offset="1"
         style="stop-color:rgb(0%,0%,0%);stop-opacity:0;"
         id="stop248" />
    </linearGradient>
    <linearGradient
       id="linear2"
       gradientUnits="userSpaceOnUse"
       x1="13.4504"
       y1="103.5381"
       x2="20.6399"
       y2="96.348"
       gradientTransform="matrix(6.3614135,0,0,-6.3614135,-76.430376,663.10751)">
      <stop
         offset="0"
         style="stop-color:rgb(46.666667%,83.529412%,94.117647%);stop-opacity:1;"
         id="stop251" />
      <stop
         offset="1"
         style="stop-color:rgb(27.058824%,69.803922%,82.352941%);stop-opacity:1;"
         id="stop253" />
    </linearGradient>
  </defs>
  <sodipodi:namedview
     id="namedview10"
     pagecolor="#ffffff"
     bordercolor="#999999"
     borderopacity="1"
     inkscape:showpageshadow="0"
     inkscape:pageopacity="0"
     inkscape:pagecheckerboard="0"
     inkscape:deskcolor="#d1d1d1"
     showgrid="false"
     inkscape:zoom="4.4746601"
     inkscape:cx="-40.226519"
     inkscape:cy="17.766713"
     inkscape:window-width="1920"
     inkscape:window-height="989"
     inkscape:window-x="0"
     inkscape:window-y="0"
     inkscape:window-maximized="1"
     inkscape:current-layer="svg8" />
  <path
     style="fill:#974711;fill-opacity:1;fill-rule:nonzero;stroke:none;stroke-width:0.933333"
     d="m 11.430209,13.333333 h 41.139584 c 1.031771,0.02188 1.852084,0.874999 1.830209,1.903124 v 42.86042 c 0.02188,1.028123 -0.798438,1.881249 -1.830209,1.903124 H 11.430209 C 10.398438,59.978124 9.5781251,59.125 9.6000003,58.096877 v -42.86042 c -0.021875,-1.028125 0.7984377,-1.881249 1.8302087,-1.903124 z m 0,0"
     id="path258" />
  <path
     style="fill:url(#linear0);fill-rule:nonzero;stroke:none;stroke-width:0.933333"
     d="M 9.6000003,50.666667 H 54.400002 v 7.466667 H 9.6000003 Z m 0,0"
     id="path260" />
  <path
     style="fill:#ffffff;fill-opacity:1;fill-rule:nonzero;stroke:none;stroke-width:0.933333"
     d="m 11.430209,9.5999993 h 41.139584 c 1.031771,0.021877 1.852084,0.8750007 1.830209,1.9031247 v 42.860419 c 0.02188,1.028124 -0.798438,1.881249 -1.830209,1.903124 H 11.430209 c -1.031771,-0.02188 -1.8520839,-0.875 -1.8302087,-1.903124 V 11.503124 C 9.5781251,10.475 10.398438,9.6218745 11.430209,9.5999993 Z m 0,0"
     id="path262" />
  <path
     style="fill:url(#linear1);fill-rule:nonzero;stroke:none;stroke-width:0.933333"
     d="M 9.6000003,46.933334 H 54.400002 v 7.466667 H 9.6000003 Z m 0,0"
     id="path264" />
  <path
     style="fill:url(#linear2);fill-rule:nonzero;stroke:none;stroke-width:0.933333"
     d="m 11.422917,3.9999992 h 41.146876 c 1.031771,0.021875 1.852084,0.875 1.830209,1.9031246 V 48.763543 c 0.02188,1.028124 -0.798438,1.881249 -1.830209,1.903124 H 11.430209 c -1.031771,-0.02188 -1.8520839,-0.875 -1.8302087,-1.903124 V 5.8994781 C 9.5781251,4.8713536 10.394792,4.0218746 11.422917,3.9999992 Z m 0,0"
     id="path266" />
  <path
     d="m 13.818549,7.3342421 v 9.0907029 h 9.090702 V 7.3342421 Z m 1.814595,1.818141 h 1.818141 v 1.8181399 h 1.81814 V 9.1523831 h 1.818141 v 1.8181399 h -1.818141 v 1.818141 h 1.818141 v 1.81814 h -1.818141 v -1.81814 h -1.81814 v 1.81814 h -1.818141 z m 10.908843,-1.81905 v 1.81814 h 23.635827 v -1.81814 z m 0,5.4544209 v 1.818141 H 50.177814 V 12.787754 Z M 13.81864,18.242176 v 1.81814 h 14.545124 v -1.81814 z m 18.181405,0 V 36.423581 H 50.18145 V 18.242176 Z m 1.816322,1.81814 H 48.361491 V 34.60544 H 33.816367 Z M 13.81864,23.696597 v 1.818141 h 14.545124 v -1.818141 z m 0,5.454422 v 1.81814 h 14.545124 v -1.81814 z m 0,5.454421 v 1.818141 H 28.363764 V 34.60544 Z m 0,5.455331 v 1.818141 h 36.362811 v -1.818141 z m 0,5.454422 v 1.81814 h 36.362811 v -1.81814 z"
     id="path683"
     style="fill:#006e8f;fill-opacity:1" />
</svg>
