<?xml version="1.0" encoding="UTF-8" standalone="no"?>
<svg
   width="64"
   height="64"
   version="1.1"
   id="svg56"
   sodipodi:docname="preferences-system-backup.svg"
   inkscape:version="1.2.2 (b0a8486541, 2022-12-01)"
   xmlns:inkscape="http://www.inkscape.org/namespaces/inkscape"
   xmlns:sodipodi="http://sodipodi.sourceforge.net/DTD/sodipodi-0.dtd"
   xmlns:xlink="http://www.w3.org/1999/xlink"
   xmlns="http://www.w3.org/2000/svg"
   xmlns:svg="http://www.w3.org/2000/svg">
  <defs
     id="defs60">
    <filter
       color-interpolation-filters="sRGB"
       height="1.1210735"
       width="1.1189449"
       y="-0.060536761"
       x="-0.059472452"
       id="e">
      <feGaussianBlur
         id="feGaussianBlur970"
         stdDeviation="1.3378352" />
    </filter>
    <linearGradient
       xlink:href="#linearGradient856"
       gradientUnits="userSpaceOnUse"
       y2="13.917"
       y1="13.917"
       x2="15.693"
       x1="1.2395999"
       id="linearGradient2168" />
    <linearGradient
       gradientUnits="userSpaceOnUse"
       gradientTransform="translate(75.14,-0.97417)"
       y2="17.198"
       y1="6.9798999"
       x2="-58.736"
       x1="-73.361"
       id="linearGradient856">
      <stop
         id="stop973-6"
         offset="0"
         stop-color="#3c3c3c" />
      <stop
         id="stop975-7"
         offset="1"
         stop-color="#1e1e1e" />
    </linearGradient>
    <filter
       color-interpolation-filters="sRGB"
       height="1.3524252"
       width="1.0400958"
       y="-0.17621261"
       x="-0.020047907"
       id="m">
      <feGaussianBlur
         id="feGaussianBlur964"
         stdDeviation="0.43981933" />
    </filter>
    <linearGradient
       gradientUnits="userSpaceOnUse"
       y2="49"
       y1="49"
       x2="43.331001"
       x1="20.388"
       id="linearGradient2176">
      <stop
         id="stop984"
         offset="0" />
      <stop
         id="stop986"
         offset="1"
         stop-opacity="0" />
    </linearGradient>
    <filter
       color-interpolation-filters="sRGB"
       height="1.8478282"
       width="1.1734616"
       y="-0.42391409"
       x="-0.086730791"
       id="j">
      <feGaussianBlur
         id="feGaussianBlur953"
         stdDeviation="0.70652346" />
    </filter>
    <filter
       color-interpolation-filters="sRGB"
       height="1.8478281"
       width="1.1734616"
       y="-0.4239141"
       x="-0.086730793"
       id="filter573">
      <feGaussianBlur
         id="feGaussianBlur571"
         stdDeviation="0.70652346" />
    </filter>
    <radialGradient
       gradientUnits="userSpaceOnUse"
       gradientTransform="matrix(0.3738,1.4135e-7,-4.447e-8,0.1302,-3.4952,5.7248)"
       r="9.9091997"
       cy="53.195999"
       cx="32"
       id="g">
      <stop
         id="stop946"
         offset="0"
         stop-color="#636363" />
      <stop
         id="stop948"
         offset=".47277"
         stop-color="#424242" />
      <stop
         id="stop950"
         offset="1"
         stop-color="#373737" />
    </radialGradient>
    <linearGradient
       xlink:href="#linearGradient856"
       gradientUnits="userSpaceOnUse"
       y2="13.432"
       y1="1.2559"
       x2="8.3205004"
       x1="8.3205004"
       id="linearGradient952" />
    <filter
       color-interpolation-filters="sRGB"
       height="1.2198792"
       width="1.082517"
       y="-0.1099396"
       x="-0.041258478"
       id="k">
      <feGaussianBlur
         id="feGaussianBlur967"
         stdDeviation="0.34069824" />
    </filter>
    <linearGradient
       gradientUnits="userSpaceOnUse"
       y2="14.552"
       y1="14.552"
       x2="15.069"
       x1="1.8645999"
       id="linearGradient2136">
      <stop
         id="stop978-5"
         offset="0" />
      <stop
         id="stop980-3"
         offset="1"
         stop-opacity="0" />
    </linearGradient>
    <filter
       color-interpolation-filters="sRGB"
       height="1.4761865"
       width="1.039681"
       y="-0.23809324"
       x="-0.019840479"
       id="n">
      <feGaussianBlur
         id="feGaussianBlur961"
         stdDeviation="0.1049892" />
    </filter>
    <radialGradient
       gradientUnits="userSpaceOnUse"
       gradientTransform="matrix(1.1114,4.7498e-8,-5.5414e-8,1.2966,-0.88353,-5.2238)"
       r="7.1420002"
       cy="13.903"
       cx="7.9373002"
       id="d">
      <stop
         id="stop956-3"
         offset="0"
         stop-color="#4d4d4d" />
      <stop
         id="stop958"
         offset="1"
         stop-opacity="0"
         stop-color="#4d4d4d" />
    </radialGradient>
  </defs>
  <sodipodi:namedview
     id="namedview58"
     pagecolor="#ffffff"
     bordercolor="#999999"
     borderopacity="1"
     inkscape:showpageshadow="0"
     inkscape:pageopacity="0"
     inkscape:pagecheckerboard="0"
     inkscape:deskcolor="#d1d1d1"
     showgrid="false"
     inkscape:zoom="6.328125"
     inkscape:cx="7.1111111"
     inkscape:cy="38.320988"
     inkscape:window-width="1920"
     inkscape:window-height="989"
     inkscape:window-x="0"
     inkscape:window-y="0"
     inkscape:window-maximized="1"
     inkscape:current-layer="svg56" />
  <linearGradient
     id="a">
    <stop
       stop-color="#292c2f"
       offset="0"
       id="stop2" />
    <stop
       stop-opacity="0"
       offset="1"
       id="stop4" />
  </linearGradient>
  <linearGradient
     id="b"
     x1="388.42"
     x2="388.42"
     y1="557.8"
     y2="505.8"
     gradientTransform="matrix(.58696 0 0 .53846 -271.92 -233.34)"
     gradientUnits="userSpaceOnUse">
    <stop
       stop-color="#7f8c8d"
       offset="0"
       id="stop7" />
    <stop
       stop-color="#afb0b3"
       offset="1"
       id="stop9" />
  </linearGradient>
  <g
     id="g1069"
     transform="matrix(3.779602,0,0,3.779602,-4.9206e-4,0.4803469)">
    <path
       id="path992"
       stroke-width="3.7796"
       opacity="0.35"
       filter="url(#e)"
       d="M 14,5 C 13.45725,4.9990434 12.9869,5.089051 12.6055,5.2793 11.98493,5.51031 11.72196,5.94313 11.543,6.6484 l -6.5273,41.746 c -0.021015,0.22364 -0.00643,0.43929 0.037109,0.64648 0.00264,0.01257 0.0069,0.0246 0.00977,0.03711 -0.00671,0.41826 0.00691,0.85899 0.037109,1.3125 0.036851,1.9891 0.14217,2.4666 0.31836,4.5371 0.096546,1.7208 1.1493,3.1125 2.5762,3.1113 l 48.012,-0.03906 c 1.427,-0.0012 2.4796,-1.3515 2.5762,-3.0723 0.17617,-2.0706 0.28151,-2.55 0.31836,-4.5391 0.03005,-0.45129 0.04154,-0.88816 0.03516,-1.3047 0.0033,-0.01454 0.0087,-0.02836 0.01172,-0.04297 0.04354,-0.2072 0.0582,-0.4248 0.03711,-0.64844 l -7.5273,-41.742 c -0.179,-0.70535 -0.44193,-1.1382 -1.0625,-1.3691 -0.38144,-0.19021 -0.85178,-0.28025 -1.3945,-0.2793 h -17 l -18,-0.00195 z m 18,38.982 a 13.526,21.831 0 0 1 6.9766,3.1758 H 25.0176 A 13.526,21.831 0 0 1 32,43.982 Z"
       transform="scale(0.26458)" />
    <path
       id="path994"
       stroke-width="0.26458"
       stroke-opacity="0.19608"
       stroke="#000000"
       fill="url(#linearGradient2168)"
       d="m 1.6002,12.477 c -0.2479,0.04331 -0.24215,0.44936 -0.21527,0.855 0.0097,0.52627 0.037489,0.65268 0.083869,1.2005 0.025415,0.45528 0.30241,0.8239 0.67804,0.82359 l 12.639,-0.01034 c 0.37564,-3.07e-4 0.65263,-0.35798 0.67804,-0.81326 0.04638,-0.54783 0.07417,-0.67424 0.08386,-1.2005 0.02687,-0.40564 0.03262,-0.81164 -0.21527,-0.855 h -12.738 z"
       style="fill:url(#linearGradient2168)" />
    <g
       id="g1002"
       fill-rule="evenodd">
      <path
         id="path996"
         style="paint-order:stroke fill markers"
         opacity="0.35"
         filter="url(#m)"
         d="m 6.7715,45.307 c -0.6077,0 -1.0977,0.74583 -1.0977,1.6719 v 2.6465 c 0,0.92605 0.48996,1.6719 1.0977,1.6719 h 15.867 a 9.8639,5.1132 0 0 1 9.3613,-3.5117 9.8639,5.1132 0 0 1 9.3535,3.5117 h 15.875 c 0.6077,0 1.0977,-0.74583 1.0977,-1.6719 v -2.6465 c 0,-0.92605 -0.48996,-1.6719 -1.0977,-1.6719 H 6.7713 Z"
         transform="scale(0.26458)" />
      <path
         id="path998"
         style="fill:url(#linearGradient2176);paint-order:stroke fill markers"
         opacity="0.35"
         filter="url(#j)"
         fill="url(#linearGradient2176)"
         d="m 31.855,47 a 10.294,5.7981 0 0 0 -9.7715,4 h 2.502 A 10.294,5.7981 0 0 1 31.855,49.3008 10.294,5.7981 0 0 1 39.1128,51 h 2.5215 A 10.294,5.7981 0 0 0 31.855,47 Z"
         transform="matrix(0.26458,0,0,0.26458,0,-0.26458)" />
      <path
         id="path1000"
         style="paint-order:stroke fill markers"
         filter="url(#j)"
         fill="#00a2ef"
         d="m 31.855,47 a 10.294,5.7981 0 0 0 -9.7715,4 h 2.502 A 10.294,5.7981 0 0 1 31.855,49.3008 10.294,5.7981 0 0 1 39.1128,51 h 2.5215 A 10.294,5.7981 0 0 0 31.855,47 Z"
         transform="matrix(0.26458,0,0,0.26458,0,-0.0071905)" />
    </g>
    <path
       id="path1004"
       fill="url(#g)"
       d="m 8.4665,11.522 a 3.5786,6.1316 0 0 0 -2.621,1.9678 h 0.23202 a 2.7237,1.6285 0 0 1 2.389,-0.847 2.7237,1.6285 0 0 1 2.3859,0.847 h 0.23667 A 3.5786,6.1316 0 0 0 8.46659,11.522 Z"
       style="fill:url(#g)" />
    <path
       id="path1006"
       fill="url(#linearGradient952)"
       d="M 3.7041,1.3229 C 3.5605,1.3226469 3.43605,1.346461 3.33514,1.396797 3.17094,1.457918 3.10138,1.572427 3.05402,1.759037 l -1.727,11.045 c -0.00556,0.05917 -0.0017,0.11623 0.00982,0.17105 0.00461,0.02193 0.010519,0.04352 0.01757,0.06459 0.00352,0.01054 0.00726,0.02074 0.011369,0.03101 0.012317,0.03079 0.027273,0.06055 0.044441,0.08888 0.028614,0.04721 0.06333,0.09085 0.10335,0.1297 0.00801,0.0077 0.016404,0.01539 0.024804,0.02274 0.042002,0.03698 0.088687,0.06914 0.13901,0.0956 0.010063,0.0052 0.020155,0.01016 0.030488,0.01499 0.093002,0.04345 0.19675,0.0677 0.30334,0.0677 h 3.8343 a 3.5787,5.776 0 0 1 2.621,-1.8536 3.5787,5.776 0 0 1 2.6225,1.8536 h 3.8327 c 0.24866,0 0.4808,-0.1325 0.60099,-0.33072 0.01717,-0.02831 0.03212,-0.05808 0.04444,-0.08888 0.0041,-0.01026 0.0083,-0.0205 0.01189,-0.03101 0.007,-0.02104 0.01245,-0.04268 0.01705,-0.06459 0.01152,-0.05482 0.01538,-0.11239 0.0098,-0.17156 l -1.9916,-11.044 c -0.04736,-0.18662 -0.11693,-0.30112 -0.28112,-0.36224 -0.10092,-0.050326 -0.22536,-0.074149 -0.36896,-0.073897 h -9.2603 z"
       style="fill:url(#linearGradient952)" />
    <path
       id="path1008"
       stroke-width="3.7796"
       opacity="0.15"
       filter="url(#k)"
       d="m 32,43.549 a 13.526,23.175 0 0 0 -9.9062,7.4375 h 0.29688 a 13.526,23.175 0 0 1 9.6094,-6.9199 13.526,23.175 0 0 1 9.6035,6.9199 h 0.30859 a 13.526,23.175 0 0 0 -9.9121,-7.4375 z"
       transform="scale(0.26458)" />
    <g
       id="g1018"
       fill-rule="evenodd">
      <rect
         id="rect1010"
         style="fill:url(#linearGradient2136);paint-order:stroke fill markers"
         opacity="0.1"
         filter="url(#n)"
         fill="url(#linearGradient2136)"
         ry="0.29539001"
         rx="0.26458001"
         height="1.0583"
         width="12.7"
         y="14.023"
         x="2.1166"
         transform="matrix(1.0417,0,0,0.96682,-0.35277,0.50035)" />
      <circle
         id="circle1012"
         style="paint-order:stroke fill markers"
         fill="#f44e24"
         r="0.39686999"
         cy="14.42"
         cx="14.155" />
      <circle
         id="circle1014"
         style="paint-order:stroke fill markers"
         stroke-width="0.79226"
         fill="#ffb800"
         r="0.31443"
         cy="14.414"
         cx="12.871" />
      <circle
         id="circle1016"
         style="paint-order:stroke fill markers"
         stroke-width="0.79226"
         fill="#00a2ef"
         r="0.31443"
         cy="14.414"
         cx="11.669" />
    </g>
    <path
       id="path1020"
       fill="url(#d)"
       d="M 3.7045,1.3229 C 3.5609,1.322647 3.43646,1.34646 3.33554,1.3968 3.17135,1.45792 3.10178,1.57243 3.05443,1.75904 l -1.727,11.045 c -0.0056,0.05917 -0.0017,0.11623 0.0098,0.17105 0.0046,0.02193 0.01052,0.04352 0.01757,0.06459 0.0035,0.01054 0.0073,0.02074 0.01137,0.03101 0.01232,0.03079 0.02727,0.06055 0.04444,0.08888 0.02861,0.04721 0.06333,0.09084 0.10335,0.1297 0.008,0.0077 0.0164,0.01539 0.0248,0.02274 0.042,0.03698 0.08869,0.06914 0.13901,0.0956 0.01006,0.0052 0.02015,0.01017 0.03049,0.01499 0.093,0.04345 0.19675,0.06769 0.30333,0.06769 h 3.8343 a 3.5786,5.7759 0 0 1 2.621,-1.8536 3.5786,5.7759 0 0 1 2.6225,1.8536 h 3.8328 c 0.24865,0 0.48079,-0.1325 0.60098,-0.33072 0.01717,-0.02831 0.03212,-0.05808 0.04444,-0.08888 0.0041,-0.01026 0.0083,-0.0205 0.01188,-0.03101 0.007,-0.02104 0.01245,-0.04268 0.01705,-0.06459 0.01152,-0.05482 0.01538,-0.11239 0.0098,-0.17156 l -1.9916,-11.044 C 13.56738,1.57291 13.49781,1.4584 13.33362,1.39729 13.2327,1.34696 13.10826,1.32314 12.96466,1.32339 h -4.4978 z"
       style="fill:url(#d)" />
  </g>
  <path
     id="path2332"
     style="fill:#000000;fill-opacity:0.501961;stroke-width:0.0237075"
     d="m 30.33076,13.507812 c -1.308833,8.92e-4 -2.369327,1.06226 -2.369141,2.371094 v 0.189453 c 0.01412,1.250121 1.882363,1.250121 1.896484,0 v -0.189453 c -2.53e-4,-0.261463 0.211196,-0.473785 0.472657,-0.474609 h 10.054102 c 0.262225,-2.54e-4 0.474863,0.212384 0.47461,0.474609 l 1.382716,15.789063 c 2.53e-4,0.262225 -0.212385,0.474863 -0.47461,0.474609 h -2.796875 c -1.250121,0.01412 -1.250121,1.882362 0,1.896484 h 2.796875 c 1.309596,1.87e-4 2.37128,-1.061497 2.371094,-2.371093 L 42.755956,15.878906 c 1.87e-4,-1.309596 -1.061498,-2.371281 -2.371094,-2.371094 z m -6.589844,3.746094 c -1.309596,-1.87e-4 -2.37128,1.061498 -2.371094,2.371094 l -1.508494,15.789062 c -1.87e-4,1.309596 1.061498,2.371281 2.371094,2.371094 h 12.945312 c 1.308834,-8.92e-4 2.369328,-1.06226 2.369141,-2.371094 v -5.001953 c -0.01412,-1.250121 -1.882362,-1.250121 -1.896484,0 v 5.001953 c 2.54e-4,0.261463 -0.211195,0.473786 -0.472657,0.47461 H 22.232422 c -0.262225,2.54e-4 -0.474864,-0.212385 -0.47461,-0.47461 L 23.266306,19.625 c -2.53e-4,-0.262225 0.212386,-0.474863 0.47461,-0.474609 h 11.436818 c 0.261462,8.24e-4 0.472911,0.213146 0.472657,0.474609 v 0.734375 c 0.01412,1.250121 1.882362,1.250121 1.896484,0 V 19.625 c 1.87e-4,-1.308834 -1.060307,-2.370202 -2.369141,-2.371094 z m 16.118464,2.102402 c -0.327504,-0.03995 -0.652232,0.0932 -0.857422,0.351562 l -1.35938,1.860489 c -1.443425,1.708367 -1.980782,2.795292 -4.204396,3.035157 v -3.035157 c -0.007,-0.806911 -0.954456,-1.236933 -1.566407,-0.710937 l -6.875,5.878906 c -0.435422,0.370507 -0.446429,1.039191 -0.02344,1.423828 l 6.875,6.138672 c 0.176499,0.156298 0.404888,0.241248 0.640625,0.238281 0.524449,5.07e-4 0.949726,-0.424769 0.949219,-0.949218 v -3.365235 c 4.379238,-0.410736 5.623604,-2.81355 6.606744,-7.100724 l 0.617188,-2.583984 c 0.145563,-0.555715 -0.232482,-1.112206 -0.802734,-1.18164 z m -1.754041,4.77215 c -1.280207,3.058272 -2.202491,4.244589 -5.616376,4.244589 -0.522923,5.71e-4 -0.946694,0.424342 -0.947266,0.947265 v 2.158204 l -4.482422,-4.00586 4.482422,-3.841797 v 1.96875 c 5.72e-4,0.522924 0.424343,0.946695 0.947266,0.947266 2.888734,0.0064 3.613037,-0.337203 5.616376,-2.418417 z"
     sodipodi:nodetypes="ccccccccccccccccccccccccccccccccccccccccccccccccccccccccccccccc" />
</svg>
