<?xml version="1.0" encoding="UTF-8" standalone="no"?>
<svg
   width="64"
   height="64"
   version="1.1"
   id="svg14"
   sodipodi:docname="preferences-desktop-activities.svg"
   inkscape:version="1.2.2 (b0a8486541, 2022-12-01)"
   xmlns:inkscape="http://www.inkscape.org/namespaces/inkscape"
   xmlns:sodipodi="http://sodipodi.sourceforge.net/DTD/sodipodi-0.dtd"
   xmlns:xlink="http://www.w3.org/1999/xlink"
   xmlns="http://www.w3.org/2000/svg"
   xmlns:svg="http://www.w3.org/2000/svg">
  <defs
     id="defs18">
    <linearGradient
       id="a"
       x1="7.9369998"
       x2="7.9369998"
       y1="15.081"
       y2="1.852"
       gradientTransform="matrix(3.7796,0,0,3.7796,-133.71105,-0.44428506)"
       gradientUnits="userSpaceOnUse">
      <stop
         stop-color="#767574"
         offset="0"
         id="stop247" />
      <stop
         stop-color="#d1e7ee"
         offset="1"
         id="stop249" />
    </linearGradient>
    <linearGradient
       id="linearGradient1092"
       x1="12"
       x2="52"
       y1="21.5"
       y2="21.5"
       gradientUnits="userSpaceOnUse"
       gradientTransform="translate(-133.71105,-0.44428506)">
      <stop
         stop-color="#46c3f3"
         offset="0"
         id="stop252" />
      <stop
         stop-color="#4699f3"
         offset="1"
         id="stop254" />
    </linearGradient>
    <linearGradient
       inkscape:collect="always"
       xlink:href="#linearGradient1092"
       id="linearGradient797"
       gradientUnits="userSpaceOnUse"
       gradientTransform="translate(1.940918e-6,-0.44428506)"
       x1="12"
       y1="21.5"
       x2="52"
       y2="21.5" />
    <linearGradient
       id="linearGradient873"
       x1="-39.987999"
       x2="-39.987999"
       y1="-6.3007002"
       y2="9.5748997"
       gradientTransform="matrix(3.464421,0,0,3.464421,173.0351,26.329843)"
       gradientUnits="userSpaceOnUse">
      <stop
         stop-color="#4d4d4d"
         offset="0"
         id="stop583" />
      <stop
         stop-color="#1a1a1a"
         offset="1"
         id="stop585" />
    </linearGradient>
  </defs>
  <sodipodi:namedview
     id="namedview16"
     pagecolor="#ffffff"
     bordercolor="#999999"
     borderopacity="1"
     inkscape:showpageshadow="0"
     inkscape:pageopacity="0"
     inkscape:pagecheckerboard="0"
     inkscape:deskcolor="#d1d1d1"
     showgrid="false"
     inkscape:zoom="8.9493202"
     inkscape:cx="25.812016"
     inkscape:cy="37.2654"
     inkscape:window-width="1920"
     inkscape:window-height="989"
     inkscape:window-x="0"
     inkscape:window-y="0"
     inkscape:window-maximized="1"
     inkscape:current-layer="svg14">
    <inkscape:grid
       type="xygrid"
       id="grid1062" />
  </sodipodi:namedview>
  <rect
     x="4.5015068"
     y="4.5015068"
     width="54.996986"
     height="54.996986"
     ry="5.0000358"
     fill="url(#linearGradient873)"
     stroke-width="3.46442"
     id="rect590"
     style="fill:url(#linearGradient873)" />
  <path
     id="rect1107"
     style="fill:url(#linearGradient797);stroke-width:0.49227"
     d="M 14.945792,11.555715 H 49.054208 C 50.686177,11.555715 52,12.869538 52,14.501507 v 13.108415 c 0,1.631969 -1.313823,2.945793 -2.945792,2.945793 H 14.945792 C 13.313823,30.555715 12,29.241891 12,27.609922 V 14.501507 c 0,-1.631969 1.313823,-2.945792 2.945792,-2.945792 z" />
  <g
     fill="#ffffff"
     stroke-width="0.49227"
     id="g795"
     transform="translate(0,-0.44428506)">
    <path
       id="rect1104"
       style="opacity:0.15"
       d="M 14.945792,33 H 49.054208 C 50.686177,33 52,34.313823 52,35.945792 V 49.054208 C 52,50.686177 50.686177,52 49.054208,52 H 14.945792 C 13.313823,52 12,50.686177 12,49.054208 V 35.945792 C 12,34.313823 13.313823,33 14.945792,33 Z" />
  </g>
  <path
     d="m 26.259825,27.615915 v -13.1204 h 7.380225 l 4.100125,4.100125 v 9.020275 z m 1.64005,-1.64005 h 8.20025 V 18.59564 H 33.64005 v -2.460075 h -5.740175 z"
     fill="#ffffff"
     id="path1011"
     style="stroke-width:0.820025" />
  <path
     d="m 32,35.495515 a 6.5602002,6.5602002 0 0 0 -1.259558,0.123331 l -0.04461,0.0079 c -0.217798,0.03936 -0.431661,0.09053 -0.642899,0.156132 a 6.4683574,6.4683574 0 0 0 -1.258247,0.553681 5.8097133,5.8097133 0 0 0 -0.603538,0.384428 c -0.127268,0.09184 -0.253224,0.183686 -0.37262,0.283401 a 5.2219194,5.2219194 0 0 0 -0.15482,0.136452 c -0.125956,0.111523 -0.251912,0.223047 -0.367372,0.343754 -0.280776,0.288649 -0.528752,0.604851 -0.751799,0.939421 a 6.6126818,6.6126818 0 0 0 -0.07479,0.104963 6.5418317,6.5418317 0 0 0 -0.333258,0.590418 6.5706966,6.5706966 0 0 0 -0.282089,0.650772 c -0.04199,0.112836 -0.09184,0.223047 -0.127267,0.338506 -0.01837,0.05773 -0.02755,0.118084 -0.04461,0.175814 a 5.9422294,5.9422294 0 0 0 -0.124644,0.551057 6.5602002,6.5602002 0 0 0 -0.07741,0.543184 v 0.0052 a 6.5602002,6.5602002 0 0 0 -0.04067,0.671765 6.5602002,6.5602002 0 0 0 0.131204,1.304168 c 0.03936,0.217798 0.09053,0.431661 0.156133,0.642899 a 6.4631093,6.4631093 0 0 0 0.55368,1.258247 5.8097133,5.8097133 0 0 0 0.384428,0.603538 6.0721213,6.0721213 0 0 0 0.419853,0.52744 c 0.111523,0.125956 0.223047,0.251912 0.343754,0.367371 0.288649,0.280777 0.604851,0.528753 0.940733,0.751799 0.03411,0.02624 0.06954,0.04986 0.104963,0.07479 0.156133,0.09971 0.316202,0.190245 0.481519,0.275528 l 0.107587,0.05773 a 6.5706966,6.5706966 0 0 0 0.650772,0.282088 c 0.112836,0.04199 0.223047,0.09184 0.338507,0.127268 0.05773,0.01837 0.118083,0.02755 0.177125,0.0433 a 6.1534678,6.1534678 0 0 0 0.549745,0.125956 6.5602002,6.5602002 0 0 0 0.528752,0.07479 l 0.01443,0.0026 h 0.0052 A 6.5602002,6.5602002 0 0 0 32,48.615915 6.5602002,6.5602002 0 0 0 33.259558,48.492583 l 0.04461,-0.0079 c 0.217798,-0.03936 0.431661,-0.09053 0.642899,-0.156133 a 6.520839,6.520839 0 0 0 1.056193,-0.446093 l 0.133828,-0.0656 a 6.5602002,6.5602002 0 0 0 0.98403,-0.663893 c 0.02624,-0.0223 0.05642,-0.04199 0.08397,-0.0656 a 6.5602002,6.5602002 0 0 0 0.753111,-0.751798 c 0.05248,-0.06167 0.1089,-0.118084 0.158757,-0.17975 a 6.5602002,6.5602002 0 0 0 0.553681,-0.820025 c 0.05117,-0.0866 0.102339,-0.171877 0.149573,-0.262408 a 6.5602002,6.5602002 0 0 0 0.380491,-0.898747 c 0.02099,-0.05904 0.05379,-0.111524 0.07216,-0.170566 0.01837,-0.05904 0.02755,-0.118083 0.0433,-0.177125 l 0.0052,-0.01574 0.01312,-0.05379 a 6.5602002,6.5602002 0 0 0 0.182374,-1.010271 l 0.0026,-0.01443 v -0.0052 a 6.5602002,6.5602002 0 0 0 0.04067,-0.671764 6.5602002,6.5602002 0 0 0 -0.131204,-1.304168 c -0.03936,-0.217799 -0.09184,-0.432973 -0.156133,-0.6429 -0.01574,-0.04986 -0.04461,-0.09447 -0.06166,-0.144324 a 6.5602002,6.5602002 0 0 0 -1.043072,-1.937883 c -0.03805,-0.04723 -0.0656,-0.104963 -0.104963,-0.152197 -0.06823,-0.08397 -0.148261,-0.157445 -0.223047,-0.233543 A 6.5602002,6.5602002 0 0 0 35.73669,36.673727 c -0.05248,-0.03542 -0.09972,-0.07216 -0.152197,-0.107588 a 6.586441,6.586441 0 0 0 -0.118083,-0.07347 6.1088585,6.1088585 0 0 0 -0.903996,-0.485455 c -0.05904,-0.02362 -0.123332,-0.04198 -0.183685,-0.0656 -0.144325,-0.05642 -0.287337,-0.114147 -0.431662,-0.158757 -0.05773,-0.01837 -0.118083,-0.02755 -0.175813,-0.0433 l -0.01574,-0.0052 a 6.0209518,6.0209518 0 0 0 -1.064069,-0.195545 l -0.01443,-0.0026 h -0.0052 A 6.5602002,6.5602002 0 0 0 32,35.495515 Z m 0,1.31204 a 5.2481602,5.2481602 0 0 1 2.777589,0.80428 c -0.0026,0.0066 -0.0079,0.0066 -0.0105,0.01575 0.02362,0.04854 0.08528,0.05248 0.141701,0.06429 l 0.08659,0.05904 c 0.0328,0.04461 0.05904,0.09184 0.07872,0.144325 a 0.48545482,0.48545482 0 0 1 0,0.183685 c -0.03674,0.09447 -0.13514,0.08397 -0.245352,0.08135 -0.03018,0 -0.05379,0.0026 -0.08135,0 -0.184998,-0.01181 -0.367371,-0.07085 -0.451342,0.06167 0.0052,0.101027 0.02231,0.157445 0,0.246663 -0.01706,0.06429 -0.08528,0.107588 -0.08266,0.164005 0.0013,0.02755 0.05511,0.08266 0.06167,0.12202 0.0052,0.02231 -0.0092,0.06298 0,0.08266 0.03149,0.05773 0.1089,-0.0092 0.164005,0 0.05248,0.0079 0.10234,0.08528 0.10234,0.144324 a 0.35425081,0.35425081 0 0 1 -0.03936,0.162693 c -0.05248,0.07872 -0.150884,0.06035 -0.226983,0.102339 -0.06167,0.03674 -0.08528,0.123332 -0.122019,0.184998 -0.03936,0.0656 -0.07872,0.08922 -0.06167,0.183685 a 0.4421575,0.4421575 0 0 1 -0.225671,0.226983 0.52219194,0.52219194 0 0 0 -0.183686,0.144325 c -0.0433,0.04461 -0.101027,0.0656 -0.123331,0.101027 -0.01706,0.02624 -0.0026,0.08659 -0.02099,0.123332 -0.02624,0.04986 -0.06954,0.09184 -0.102339,0.144324 -0.01575,0.02231 -0.04461,0.04986 -0.06167,0.08135 -0.03936,0.06823 -0.08922,0.123332 -0.08266,0.183686 0.0052,0.05904 0.07872,0.07216 0.08266,0.123332 0.0026,0.02886 -0.0223,0.05117 -0.02099,0.08266 0.0013,0.04461 0.01706,0.0656 0.02099,0.102339 0.0079,0.08791 -0.04461,0.123332 -0.06167,0.183686 -0.0079,0.02887 0.0066,0.06035 0,0.08266 -0.01312,0.0433 -0.08135,0.07085 -0.08135,0.123331 -0.0013,0.03674 0.05773,0.06954 0.06035,0.12202 0.0026,0.03543 -0.02624,0.06954 -0.01968,0.102339 0.01312,0.0656 0.133828,0.154821 0.183685,0.205991 0.06823,0.06691 0.135141,0.112835 0.164005,0.183685 0.02624,0.06167 0.03543,0.160069 0.08266,0.20599 0.03411,0.0328 0.09972,0.04723 0.144324,0.08135 0.04067,0.0328 0.0984,0.04723 0.143013,0.08266 0.07216,0.05642 0.170565,0.170566 0.286024,0.164005 0.06167,-0.0052 0.118084,-0.03018 0.184998,-0.04198 0.07085,-0.01181 0.153509,-0.04723 0.225671,-0.04067 0.05511,0.0066 0.106275,0.04461 0.164005,0.04067 a 0.68488491,0.68488491 0 0 0 0.204678,-0.06167 c 0.118084,-0.05117 0.300457,-0.146948 0.472335,-0.122019 0.131204,0.01837 0.132516,0.166629 0.224358,0.22567 0.104964,0.0092 0.183686,-0.02099 0.267657,0 0.06298,0.01443 0.136452,0.133828 0.143012,0.183686 0.0066,0.05248 -0.03411,0.09184 -0.04067,0.123332 -0.01706,0.06954 -0.02887,0.161381 -0.04067,0.204678 -0.0092,0.03542 -0.0223,0.06823 -0.02099,0.102339 0,0.03149 0.04986,0.103651 0.08135,0.144325 0.03936,0.04986 0.09578,0.08791 0.144325,0.143012 0.08659,0.09971 0.123332,0.236167 0.183685,0.368683 0.01574,0.03411 -0.01312,0.04067 0,0.08266 -0.02624,0.19943 -0.09315,0.331946 -0.224358,0.553681 -0.06298,0.07085 -0.124644,0.156132 -0.123332,0.245351 -0.0052,0.215175 0.111523,0.325386 0.102339,0.532688 v 0.0079 a 5.2481602,5.2481602 0 0 1 -5.76904,1.914266 c 0,-0.0066 0.0079,-0.0079 0.0079,-0.01574 -0.0026,-0.03411 -0.03411,-0.04986 -0.06167,-0.08135 -0.0223,-0.02624 -0.0052,-0.05773 -0.01968,-0.08266 -0.02886,-0.04067 -0.07085,-0.06167 -0.08266,-0.12202 0.0866,-0.01706 0.204678,0.09578 0.32801,0.06167 0.05904,-0.01706 0.157445,-0.131204 0.183686,-0.184998 0.0092,-0.01706 -0.0079,-0.08266 0,-0.102339 0.01181,-0.0223 0.03936,-0.02886 0.04199,-0.04067 0.0079,-0.0328 -0.0066,-0.04199 0,-0.06167 0.02099,-0.06167 0.08791,-0.09971 0.123332,-0.144325 0.02624,-0.0328 0.05642,-0.06691 0.08135,-0.102339 0.02886,-0.03674 0.0433,-0.04986 0.06167,-0.08135 0.01837,-0.1089 -0.06691,-0.191558 -0.04067,-0.287337 0.02887,-0.107587 0.183685,-0.177125 0.287337,-0.225671 0.03543,-0.01706 0.07216,-0.05117 0.102339,-0.06167 0.07085,-0.02493 0.157445,-0.01706 0.225671,-0.04067 0.111523,-0.03936 0.149572,-0.164005 0.204678,-0.266344 0.02624,-0.04723 0.05642,-0.08922 0.06167,-0.123332 0.0039,-0.03018 -0.0066,-0.0656 0,-0.102339 0.0066,-0.03542 0.0105,-0.06298 0.01968,-0.102339 A 1.0391357,1.0391357 0 0 0 32,44.700788 c 0,-0.04855 -0.01968,-0.06035 -0.02099,-0.103652 -0.0079,-0.15482 0.04592,-0.16138 0.103652,-0.245351 0.02755,-0.04198 0.04067,-0.114148 0.06035,-0.144324 0.09709,-0.141701 0.258472,-0.212551 0.246664,-0.43035 -0.0052,-0.07085 -0.03018,-0.223046 -0.08266,-0.245351 -0.02887,-0.01312 -0.0984,-0.0039 -0.143012,-0.02099 -0.140388,-0.05248 -0.242727,-0.21255 -0.389676,-0.225671 h -0.08135 c -0.05773,0 -0.120708,-0.05379 -0.183686,-0.06035 -0.04199,-0.0052 -0.120708,0.01181 -0.144324,0 -0.03674,-0.01837 -0.03149,-0.08266 -0.06167,-0.103652 -0.02362,-0.01574 -0.0656,-0.02624 -0.102339,-0.03936 a 0.48939094,0.48939094 0 0 0 -0.164005,-0.04198 c -0.0223,-0.0013 -0.07872,0.0039 -0.10234,0 -0.03805,-0.0066 -0.06823,-0.03936 -0.102339,-0.06167 -0.0433,-0.02624 -0.0656,-0.04461 -0.08266,-0.08135 0.03936,-0.129892 -0.09709,-0.150885 -0.123332,-0.225671 -0.01181,-0.03542 0.01312,-0.09184 0,-0.123332 -0.01443,-0.04461 -0.05248,-0.0656 -0.102339,-0.102339 A 0.5602411,0.5602411 0 0 0 30.236607,42.30107 c -0.05379,-0.0066 -0.118083,0.0039 -0.183685,0 a 0.32276185,0.32276185 0 0 1 -0.204679,-0.102339 c -0.05117,-0.05773 -0.05904,-0.115459 -0.103651,-0.143012 -0.04067,-0.02624 -0.114147,-0.03411 -0.143012,-0.06167 -0.01312,-0.01181 -0.0092,-0.03411 -0.01968,-0.06167 -0.0223,-0.0433 -0.06823,-0.04986 -0.04199,-0.102339 -0.04723,-0.02362 -0.03018,0.03018 -0.08135,0.02099 -0.04723,-0.0656 -0.07872,-0.102339 -0.183685,-0.08266 -0.04855,0.0092 -0.08922,0.08135 -0.144325,0.08266 -0.04723,0 -0.08266,-0.07347 -0.144324,-0.08266 -0.04592,-0.0066 -0.110211,0.04855 -0.143012,0.04067 -0.05117,-0.0092 -0.05642,-0.07085 -0.102339,-0.102339 -0.03411,-0.0223 -0.104964,-0.08266 -0.123332,-0.08135 -0.05904,0 -0.102339,0.125956 -0.183686,0.08135 -0.04067,-0.05117 0.06823,-0.05379 0.01968,-0.102339 -0.03543,-0.03543 -0.05248,0.0013 -0.08135,0.02099 -0.03411,0.0223 -0.0656,0.04855 -0.102339,0.06167 -0.08266,0.03018 -0.1417,0.02755 -0.20599,0.06167 -0.05904,0.03018 -0.06691,0.08266 -0.102339,0.143012 -0.02624,0.04986 -0.08135,0.120708 -0.12202,0.123332 -0.05117,0.0026 -0.0984,-0.06298 -0.144324,-0.08266 -0.136453,-0.05904 -0.213863,0.03936 -0.32801,0.04067 -0.104964,0.0013 -0.249288,-0.166629 -0.245352,-0.266344 0.0026,-0.06035 0.03411,-0.149572 0.03936,-0.225671 0.0079,-0.05904 0.06167,-0.108899 0.06298,-0.164005 0,-0.07216 -0.116771,-0.13514 -0.164005,-0.143012 -0.06823,-0.01312 -0.146948,0 -0.228295,0.0079 a 5.2481602,5.2481602 0 0 1 0.498575,-1.51147 c 0.0052,0 0.01312,0.0066 0.01706,0.0079 0.03805,0 0.04592,-0.04723 0.08135,-0.04198 0.03543,0.0066 0.09709,0.08003 0.10234,0.123332 0.0052,0.05248 -0.03543,0.104963 -0.01968,0.164005 0.05511,0.05773 0.165317,0.08922 0.245351,0.123332 0.05248,-0.0433 0.0079,-0.144325 0,-0.204679 -0.0013,-0.02755 0.0026,-0.05773 0,-0.08266 -0.0066,-0.0433 -0.02099,-0.08659 -0.02099,-0.123332 0,-0.170565 0.131204,-0.240103 0.246663,-0.307017 0.04855,-0.02886 0.101027,-0.08135 0.144325,-0.102339 0.06035,-0.03018 0.09184,-0.0328 0.143012,-0.06167 0.09053,-0.05248 0.175814,-0.104964 0.245352,-0.164005 0.0328,-0.07872 -0.0026,-0.170566 0,-0.246664 0.0328,-0.01968 0.04723,0.0026 0.08266,0 0.05379,-0.01181 0.07085,-0.09184 0.102339,-0.12202 0.01706,-0.01837 0.08003,-0.02362 0.102339,-0.04198 0.05511,-0.04199 0.05511,-0.103651 0.10234,-0.12202 0.01706,-0.0066 0.05511,-0.01312 0.08135,-0.02099 0.03674,-0.0092 0.08659,-0.04199 0.144324,-0.06167 0.03674,-0.01312 0.12858,-0.0066 0.144325,-0.01968 0.01706,-0.01837 -0.0066,-0.09578 0,-0.123332 0.02755,-0.13514 0.226983,-0.139076 0.34769,-0.183685 0.08266,-0.0328 0.17319,-0.101027 0.266345,-0.08266 -0.01837,0.06429 -0.09709,0.04461 -0.08266,0.12202 0.02099,0.108899 0.146949,-0.02624 0.184998,-0.03936 0.07347,-0.03149 0.21255,-0.04855 0.307017,-0.08266 0.08397,-0.03018 0.223047,-0.08791 0.144324,-0.184997 -0.0656,-0.0039 -0.08659,0.05773 -0.144324,0.08266 -0.03936,0.0066 -0.04854,-0.01837 -0.08135,-0.02099 -0.0328,-0.0013 -0.04986,0.02624 -0.08266,0.02099 -0.03149,-0.0066 -0.0761,-0.0656 -0.08135,-0.103651 -0.01312,-0.09971 0.102339,-0.131204 0.144324,-0.204678 -0.02886,-0.09053 -0.149573,-0.0052 -0.226983,-0.04067 0.0079,-0.05379 0.03936,-0.112836 0.103651,-0.123332 a 0.41198058,0.41198058 0 0 1 0.204678,0.04067 c 0.01706,0.01575 -0.0066,0.05773 0.01968,0.08266 0.03149,0.02624 0.08266,0.0066 0.123332,0 0.01443,-0.06823 -0.09315,-0.03805 -0.08135,-0.08266 0.08004,-0.05248 0.228295,-0.02624 0.32801,-0.03936 0.05642,-0.0092 0.112836,-0.05511 0.164005,-0.08266 0.04723,-0.02755 0.09184,-0.0656 0.143013,-0.02099 0.01312,0.04854 -0.03411,0.07872 -0.06167,0.102339 -0.09184,0.08135 -0.174501,0.171877 -0.245352,0.266344 0.0433,0.0433 0.110212,0.01312 0.183686,0.02099 0.02886,0.0039 0.07347,0.01574 0.102339,0.02099 0.03674,0.0066 0.07479,-0.0066 0.102339,0 0.05117,0.01181 0.05248,0.08135 0.103651,0.08135 0.08003,0 0.08659,-0.06823 0.03936,-0.123332 0.01574,-0.05642 0.04199,-0.104963 0.02099,-0.144324 -0.03674,-0.07216 -0.177125,0.01312 -0.183685,-0.08135 -0.0052,-0.05904 0.06035,-0.07741 0.08135,-0.12202 -0.0092,-0.115459 0.09447,-0.122019 0.08266,-0.225671 -0.0066,-0.0433 -0.05248,-0.04199 -0.08266,-0.08266 -0.01574,-0.02099 -0.02362,-0.0656 -0.04067,-0.08135 -0.01574,-0.01312 -0.03674,-0.01837 -0.05642,-0.02624 A 5.2481602,5.2481602 0 0 1 32,36.807555 Z m 3.549068,1.390762 a 5.2481602,5.2481602 0 0 1 0.59173,0.638964 c -0.0433,0 -0.08528,0.02099 -0.122019,0.02099 -0.05248,0 -0.160069,-0.02624 -0.225671,-0.02099 -0.03936,0.0026 -0.0656,0.01837 -0.102339,0.02099 -0.104964,0.0079 -0.165317,-0.0066 -0.246664,0 a 0.86332235,0.86332235 0 0 0 -0.225671,0.06035 c -0.02624,0.01312 -0.04592,0.04461 -0.08135,0.06167 -0.01706,0.0079 -0.03936,0.0105 -0.06167,0.02099 -0.03411,0.01574 -0.09184,0.05248 -0.123332,0.06167 -0.04592,0.01181 -0.09971,-0.0039 -0.183685,0 -0.06167,0.0026 -0.164006,-0.0092 -0.165318,-0.08266 0,-0.110211 0.203367,-0.06298 0.30833,-0.08135 0.03936,-0.0079 0.05511,-0.05511 0.102339,-0.08266 0.0223,-0.01312 0.03936,-0.02624 0.06167,-0.04067 0.03542,-0.02624 0.09578,-0.07347 0.102339,-0.102339 0.0039,-0.02624 -0.02362,-0.06298 -0.02099,-0.08266 0.0052,-0.02493 0.04986,-0.04986 0.08266,-0.08135 0.04986,-0.04986 0.08135,-0.111524 0.144324,-0.144325 0.04067,-0.0223 0.123332,-0.02755 0.143013,-0.06035 0.0052,-0.03936 -0.0013,-0.04854 0,-0.08266 l 0.0223,-0.0223 z m -8.777548,3.416552 c 0.0328,0.04592 0.06691,0.09184 0.103652,0.112836 0.0026,0.03936 -0.01312,0.07347 0,0.102339 0.03018,0.04198 0.09184,0.05511 0.144324,0.08266 0.05904,0.0328 0.08528,0.116771 0.1417,0.143012 0.02099,0.0079 0.05248,-0.0092 0.08266,0 0.07872,0.02362 0.09578,0.144324 0.164005,0.123332 0.04461,-0.01312 0.05379,-0.08004 0.06167,-0.123332 0.03018,-0.03149 0.05511,-0.08135 0.102339,-0.08135 0.07347,-0.0013 0.09578,0.09184 0.123332,0.164005 0.01443,0.03936 0.04986,0.07872 0.06167,0.12202 a 1.0771849,1.0771849 0 0 1 0,0.32801 c -0.01968,0.05511 -0.0984,0.08397 -0.144324,0.144325 -0.02099,0.02755 -0.04461,0.06298 -0.06167,0.08135 -0.02755,0.03543 -0.06035,0.04986 -0.08135,0.08266 -0.01312,0.01706 -0.0092,0.05642 -0.02099,0.08135 -0.03543,0.0761 -0.09184,0.133828 -0.06167,0.225671 0.01312,0.03674 0.06167,0.07872 0.06167,0.123332 0,0.05248 -0.114147,0.0656 -0.12202,0.123331 -0.0066,0.04067 0.04723,0.127268 0.06035,0.183686 0.0092,0.04199 0.07872,0.07479 0.102339,0.102339 0.04199,0.04723 0.08528,0.104963 0.123332,0.164005 0.0761,0.11546 0.111523,0.255848 0.183686,0.369995 0.03936,0.05773 0.118083,0.101028 0.144324,0.164005 0.01312,0.03018 -0.01181,0.09447 0,0.12202 0.0433,0.09709 0.251912,0.198118 0.349003,0.246664 0.04461,0.0223 0.08135,0.03805 0.123332,0.06167 0.06298,0.03543 0.192869,0.107587 0.224358,0.164005 0.02886,0.04986 0.04723,0.165317 0.06167,0.245351 0.01837,0.104963 -0.0052,0.194182 0,0.30833 0.0026,0.06167 0.02099,0.101027 0.02099,0.164005 v 0.08135 c -0.0013,0.07347 0.0066,0.150885 0,0.225671 v 0.09184 a 5.2481602,5.2481602 0 0 1 -1.947068,-4.530475 z"
     fill="#ffffff"
     id="path1013"
     style="stroke-width:0.820025" />
</svg>
