<?xml version="1.0" encoding="UTF-8" standalone="no"?>
<svg
   width="64"
   height="64"
   version="1.1"
   viewBox="0 0 16.934 16.934"
   id="svg12"
   sodipodi:docname="preferences-system-network-dsl.svg"
   inkscape:version="1.2.2 (b0a8486541, 2022-12-01)"
   xmlns:inkscape="http://www.inkscape.org/namespaces/inkscape"
   xmlns:sodipodi="http://sodipodi.sourceforge.net/DTD/sodipodi-0.dtd"
   xmlns:xlink="http://www.w3.org/1999/xlink"
   xmlns="http://www.w3.org/2000/svg"
   xmlns:svg="http://www.w3.org/2000/svg">
  <defs
     id="defs16">
    <radialGradient
       id="radialGradient4437"
       cx="8.4665003"
       cy="10.191"
       r="7.9375"
       gradientTransform="matrix(0.91670279,0,0,0.7028177,19.040449,2.2165947)"
       gradientUnits="userSpaceOnUse"
       xlink:href="#linearGradient4461" />
    <linearGradient
       id="linearGradient4461"
       x1="19.332001"
       x2="33.837002"
       y1="-82.949997"
       y2="-72.093002"
       gradientTransform="translate(-16.969,87.135)"
       gradientUnits="userSpaceOnUse">
      <stop
         stop-color="#23b4ff"
         offset="0"
         id="stop912" />
      <stop
         stop-color="#057ed6"
         offset="1"
         id="stop914" />
    </linearGradient>
    <linearGradient
       id="linearGradient4455"
       x1="3.3822"
       x2="13.623"
       y1="6.5138001"
       y2="14.909"
       gradientUnits="userSpaceOnUse"
       gradientTransform="matrix(0.91670279,0,0,0.91670279,19.040449,0.03676718)">
      <stop
         stop-color="#fff"
         offset="0"
         id="stop928" />
      <stop
         stop-color="#ebebeb"
         offset="1"
         id="stop930" />
    </linearGradient>
    <radialGradient
       id="radialGradient4445"
       cx="8.4665003"
       cy="2.9338"
       r="6.6145"
       gradientTransform="matrix(0.91670279,0,0,0.07842942,19.040449,2.4960974)"
       gradientUnits="userSpaceOnUse"
       xlink:href="#linearGradient4461" />
    <radialGradient
       id="radialGradient4447"
       cx="8.4678001"
       cy="1.2688"
       r="4.7252002"
       gradientTransform="matrix(0.91670279,0,0,0.11003184,19.040449,1.0602658)"
       gradientUnits="userSpaceOnUse"
       xlink:href="#linearGradient4461" />
  </defs>
  <sodipodi:namedview
     id="namedview14"
     pagecolor="#ffffff"
     bordercolor="#999999"
     borderopacity="1"
     inkscape:showpageshadow="0"
     inkscape:pageopacity="0"
     inkscape:pagecheckerboard="0"
     inkscape:deskcolor="#d1d1d1"
     showgrid="false"
     inkscape:zoom="4.4746601"
     inkscape:cx="3.1287293"
     inkscape:cy="23.80069"
     inkscape:window-width="1920"
     inkscape:window-height="989"
     inkscape:window-x="0"
     inkscape:window-y="0"
     inkscape:window-maximized="1"
     inkscape:current-layer="svg12" />
  <g
     id="g707"
     transform="translate(-18.334713,0.64809089)">
    <rect
       style="fill:url(#radialGradient4437);stroke-width:0.916703"
       x="19.525385"
       y="3.8007488"
       width="14.552657"
       height="11.157189"
       ry="0.72761452"
       fill="url(#radialGradient4437)"
       id="rect951" />
    <path
       style="fill:url(#radialGradient4445)"
       d="m 21.259328,3.2449519 h 11.08752 c 0.286131,0 0.518762,-0.2326408 0.518762,-0.5187621 0,-0.2861212 -0.23264,-0.5187713 -0.518762,-0.5187713 h -11.08752 c -0.1861,0 -0.358247,0.1000398 -0.451302,0.2605453 -0.09304,0.1605147 -0.09304,0.3582475 0,0.5187713 0.09304,0.1605238 0.265211,0.2582077 0.451302,0.2582077 z"
       fill="url(#radialGradient4445)"
       stroke-width="0.0165813"
       p-id="88817"
       id="path955" />
    <path
       style="fill:url(#radialGradient4447)"
       d="m 22.992446,1.7197418 h 7.623301 c 0.286149,0 0.518771,-0.2326408 0.518771,-0.5187621 -1.6e-5,-0.28846801 -0.232659,-0.52109968 -0.5211,-0.52109968 h -7.620917 c -0.186109,0 -0.358247,0.10003978 -0.451302,0.26054527 -0.09305,0.16051461 -0.09305,0.35824741 0,0.51876211 0.09305,0.1605147 0.265193,0.2605453 0.451302,0.2605453 z"
       fill="url(#radialGradient4447)"
       stroke-width="0.0165813"
       p-id="88817"
       id="path957" />
  </g>
  <g
     fill="#ffffff"
     stroke-width="0.26459"
     id="g10"
     transform="translate(0,1.5604344)">
    <path
       d="m 4.559,4.7627 c -0.18019,0 -0.32545,0.15002 -0.32545,0.33656 v 5.9417 c 0,0.18654 0.14526,0.33603 0.32545,0.33656 h 1.2621 l 0.69191,0.79378 h 3.908 l 0.69191,-0.79378 h 1.2621 c 0.18019,0 0.32545,-0.15002 0.32545,-0.33656 v -5.9417 c 0,-0.18654 -0.14526,-0.33656 -0.32545,-0.33656 z m 0.73292,1.0584 h 6.3503 v 4.4981 h -1.0584 L 9.79004,11.11298 H 7.14414 L 6.61495,10.3192 h -1.323 z"
       style="paint-order:markers stroke fill"
       id="path4" />
    <path
       d="M 7.144,11.113 6.61481,10.31922 h -1.323 v -4.4981 h 6.3503 v 4.4981 h -1.0584 L 9.78993,11.113 Z"
       opacity="0.35"
       id="path6" />
    <path
       d="M 6.0857,6.6148 H 6.87948 V 5.82102 H 6.0857 Z m 1.323,0 H 8.20248 V 5.82102 H 7.4087 Z m 1.323,0 H 9.52548 V 5.82102 H 8.7317 Z m 1.323,0 h 0.79378 V 5.82102 H 10.0547 Z"
       opacity="0.5"
       id="path8" />
  </g>
  <g
     transform="matrix(1.0000311,0,0,1.0000311,-3.4994392,0.22814722)"
     fill="#5e4aa6"
     stroke-width="0.26458"
     id="g945">
    <circle
       cx="-330.35001"
       cy="-328.38"
       r="0"
       id="circle937" />
    <circle
       cx="-312.10999"
       cy="-326.25"
       r="0"
       id="circle939" />
    <circle
       cx="-306.01999"
       cy="-333.07001"
       r="0"
       id="circle941" />
    <circle
       cx="-308.84"
       cy="-326.01001"
       r="0"
       id="circle943" />
  </g>
  <circle
     cx="-282.99478"
     cy="-301.78763"
     r="0"
     fill="#5e4aa6"
     stroke-width="0.242541"
     id="circle949" />
</svg>
