<?xml version="1.0" encoding="UTF-8"?>
<!-- Created with Inkscape (http://www.inkscape.org/) -->
<svg width="64" height="64" version="1.1" viewBox="0 0 16.933 16.933" xmlns="http://www.w3.org/2000/svg" xmlns:xlink="http://www.w3.org/1999/xlink">
 <defs>
  <linearGradient id="linearGradient2011" x1="-18.52" x2="-5.2916" y1="6.6145" y2="14.552" gradientTransform="matrix(.91598 0 0 .91598 32.362 .66153)" gradientUnits="userSpaceOnUse">
   <stop stop-color="#43d3f6" offset="0"/>
   <stop stop-color="#0453b1" offset="1"/>
  </linearGradient>
  <filter id="filter1068" x="-.10118" y="-.071807" width="1.2024" height="1.1436" color-interpolation-filters="sRGB">
   <feGaussianBlur stdDeviation="0.22308744"/>
  </filter>
  <linearGradient id="linearGradient1056" x1="8.7997" x2="14.091" y1="-42.898" y2="-42.898" gradientTransform="matrix(.91598 0 0 .91598 11.757 49.98)" gradientUnits="userSpaceOnUse">
   <stop stop-color="#ebebeb" offset="0"/>
   <stop stop-color="#fff" offset="1"/>
  </linearGradient>
  <linearGradient id="linearGradient1362" x1="107.78" x2="125.11" y1="-15" y2="-15" gradientTransform="matrix(.24082 -.027178 .027178 .24082 -3.4222 10.157)" gradientUnits="userSpaceOnUse">
   <stop stop-color="#32bcee" offset="0"/>
   <stop stop-color="#39c6f2" offset="1"/>
  </linearGradient>
  <linearGradient id="linearGradient1370" x1="95.777" x2="113.11" y1="-15" y2="-15" gradientTransform="matrix(.24082 -.027178 .027178 .24082 -3.4222 10.157)" gradientUnits="userSpaceOnUse">
   <stop stop-color="#1d9de1" offset="0"/>
   <stop stop-color="#1fa3e5" offset="1"/>
  </linearGradient>
  <linearGradient id="linearGradient1379" x1="83.777" x2="101.11" y1="-15" y2="-15" gradientTransform="matrix(.24082 -.027178 .027178 .24082 -3.4222 10.157)" gradientUnits="userSpaceOnUse">
   <stop stop-color="#0172cb" offset="0"/>
   <stop stop-color="#0370c6" offset="1"/>
  </linearGradient>
  <linearGradient id="linearGradient1354" x1="119.78" x2="135" y1="-15" y2="-15" gradientTransform="matrix(.24082 -.027178 .027178 .24082 -3.4222 10.157)" gradientUnits="userSpaceOnUse">
   <stop stop-color="#47dafa" offset="0"/>
   <stop stop-color="#46d8f9" offset="1"/>
  </linearGradient>
  <linearGradient id="linearGradient1387" x1="75" x2="89.111" y1="-15" y2="-15" gradientTransform="matrix(.24082 -.027178 .027178 .24082 -3.4222 10.157)" gradientUnits="userSpaceOnUse">
   <stop stop-color="#0e60a9" offset="0"/>
   <stop stop-color="#056abe" offset="1"/>
  </linearGradient>
  <linearGradient id="linearGradient1333" x1="76" x2="89.561" y1="16.478" y2="16.478" gradientTransform="matrix(.24235 0 0 .24235 -4.237 1.2348)" gradientUnits="userSpaceOnUse">
   <stop stop-color="#0b5ca8" offset="0"/>
   <stop stop-color="#0569bd" offset="1"/>
  </linearGradient>
 </defs>
 <g transform="translate(-12.99 .094095)">
  <rect x="14.186" y="5.7508" width="14.541" height="9.4516" ry=".54528" fill="url(#linearGradient2011)"/>
  <path transform="matrix(.91598 0 0 .8953 12.242 49.17)" d="m13.493-43.218-4.3699-3.3114a0.46291 0.42023 0 0 0-0.75917 0.32778v6.606a0.46291 0.42023 0 0 0 0.75917 0.32778l4.3699-3.3114a0.46291 0.42023 0 0 0 0.05554-0.58832z" filter="url(#filter1068)" opacity=".5" stroke-width=".0049274" p-id="47316"/>
  <path d="m24.516 10.394-4.0027-3.0332a0.42402 0.38492 0 0 0-0.69538 0.30024v6.051a0.42402 0.38492 0 0 0 0.69538 0.30024l4.0027-3.0332a0.42402 0.38492 0 0 0 0.05087-0.53889z" fill="url(#linearGradient1056)" stroke-width=".0045134" p-id="47316"/>
  <g>
   <g stroke-linecap="round" stroke-width=".50208">
    <path d="m23.246 2.0255-0.95839 3.0348 2.8898-0.32614 0.57904-1.8335 0.37935-1.2013-0.50845 0.057382z" fill="url(#linearGradient1362)"/>
    <path d="m20.357 2.3517-0.95839 3.0348 2.8898-0.32614 0.57904-1.8335 0.37935-1.2013-0.50845 0.057382z" fill="url(#linearGradient1370)"/>
    <path d="m17.467 2.6778-0.95839 3.0348 2.8898-0.32614 0.57904-1.8335 0.37935-1.2013-0.50845 0.057383z" fill="url(#linearGradient1379)"/>
    <path d="m26.136 1.6994-0.95839 3.0348 2.6152-0.29514c0.58217-0.065702 0.99788-0.58718 0.93218-1.1694l-0.088968-0.78831c-0.065699-0.58217-0.58718-0.99788-1.1693-0.93218z" fill="url(#linearGradient1354)"/>
    <path d="m17.467 2.6778-2.3475 0.26494c-0.58217 0.065702-0.99788 0.58718-0.93218 1.1694l0.08897 0.78831c0.0657 0.58217 0.58718 0.99788 1.1694 0.93218l1.063-0.11997z" fill="url(#linearGradient1387)"/>
   </g>
   <path d="m17.468 2.6779-2.3473 0.2646c-0.51004 0.057562-0.89212 0.46506-0.93484 0.95661l-0.0043 0.00142v4.2738c0 0.56443 0.4847 0.4847 0.96939 0.4847s0.62102-0.4847 0.62102-0.4847l0.10603-0.39618z" fill="url(#linearGradient1333)"/>
  </g>
 </g>
</svg>
