<?xml version="1.0" encoding="UTF-8" standalone="no"?>
<svg
   xmlns:dc="http://purl.org/dc/elements/1.1/"
   xmlns:cc="http://creativecommons.org/ns#"
   xmlns:rdf="http://www.w3.org/1999/02/22-rdf-syntax-ns#"
   xmlns:svg="http://www.w3.org/2000/svg"
   xmlns="http://www.w3.org/2000/svg"
   xmlns:xlink="http://www.w3.org/1999/xlink"
   xmlns:sodipodi="http://sodipodi.sourceforge.net/DTD/sodipodi-0.dtd"
   xmlns:inkscape="http://www.inkscape.org/namespaces/inkscape"
   width="64"
   height="64"
   viewBox="0 0 16.933333 16.933333"
   version="1.1"
   id="svg6"
   sodipodi:docname="sublime.svg"
   inkscape:version="1.0 (4035a4fb49, 2020-05-01)">
  <metadata
     id="metadata179">
    <rdf:RDF>
      <cc:Work
         rdf:about="">
        <dc:format>image/svg+xml</dc:format>
        <dc:type
           rdf:resource="http://purl.org/dc/dcmitype/StillImage" />
        <dc:title></dc:title>
      </cc:Work>
    </rdf:RDF>
  </metadata>
  <defs
     id="defs2">
    <linearGradient
       gradientTransform="translate(0,-896)"
       gradientUnits="userSpaceOnUse"
       y2="992"
       x2="32"
       y1="32"
       x1="32"
       id="lgrad">
      <stop
         id="stop2"
         stop-color="#f8f8f8"
         offset="0%" />
      <stop
         id="stop4"
         stop-color="#ccc"
         offset="100%" />
    </linearGradient>
    <radialGradient
       gradientTransform="translate(0,-896)"
       gradientUnits="userSpaceOnUse"
       r="440"
       cy="512"
       cx="512"
       fy="494.39999"
       fx="512"
       y2="100%"
       x2="0%"
       y1="0%"
       x1="0%"
       id="rgrad">
      <stop
         id="stop7"
         stop-color="#00f0ff"
         offset="0%" />
      <stop
         id="stop9"
         stop-color="#0070e0"
         offset="100%" />
    </radialGradient>
    <radialGradient
       id="rgrad-3"
       x1="0%"
       y1="0%"
       x2="0%"
       y2="100%"
       fx="523.57568"
       fy="306.1813"
       cx="523.57568"
       cy="306.1813"
       r="440"
       gradientUnits="userSpaceOnUse"
       gradientTransform="matrix(0.03099337,0,0,0.03032562,85.198869,42.985295)">
      <stop
         offset="0%"
         stop-color="#00f0ff"
         id="stop7-6"
         style="stop-color:#03d7e4;stop-opacity:1" />
      <stop
         offset="100%"
         stop-color="#0070e0"
         id="stop9-7" />
    </radialGradient>
    <filter
       y="-0.012004"
       x="-0.011996"
       width="1.023993"
       height="1.024007"
       id="b"
       style="color-interpolation-filters:sRGB">
      <feGaussianBlur
         id="feGaussianBlur7"
         stdDeviation=".47521291" />
    </filter>
    <linearGradient
       y2="-319.05783"
       y1="-73.89106"
       x2="-376.36255"
       x1="-350.6571"
       gradientUnits="userSpaceOnUse"
       id="k">
      <stop
         id="stop50"
         stop-color="#83a3d4"
         offset="0" />
      <stop
         id="stop52"
         stop-color="#6bb5e3"
         offset="1" />
    </linearGradient>
    <linearGradient
       y2="-156.88734"
       y1="-12.925184"
       x2="10.51211"
       x1="-206.76952"
       gradientUnits="userSpaceOnUse"
       id="i">
      <stop
         id="stop40"
         stop-color="#70c2bd"
         offset="0" />
      <stop
         id="stop42"
         stop-color="#67c381"
         offset="1" />
    </linearGradient>
    <linearGradient
       y2="-149.18999"
       y1="117.30138"
       x2="148.51404"
       x1="134.56509"
       gradientUnits="userSpaceOnUse"
       id="e">
      <stop
         id="stop20"
         stop-color="#faaa32"
         offset="0" />
      <stop
         id="stop22"
         stop-color="#fdc22b"
         offset="1" />
    </linearGradient>
    <linearGradient
       y2="144.89951"
       y1="144.89951"
       x2="123.35784"
       x1="-146.054"
       gradientUnits="userSpaceOnUse"
       id="c">
      <stop
         id="stop10"
         stop-color="#a0cf63"
         offset="0" />
      <stop
         id="stop12"
         stop-color="#c4da45"
         offset="1" />
    </linearGradient>
    <linearGradient
       y2="-150.01163"
       y1="-12.740612"
       x2="28.495264"
       x1="206.7137"
       gradientUnits="userSpaceOnUse"
       id="m">
      <stop
         id="stop60"
         stop-color="#b28cc0"
         offset="0" />
      <stop
         id="stop62"
         stop-color="#9a8ec4"
         offset="1" />
    </linearGradient>
    <linearGradient
       y2="76.406288"
       y1="147.05296"
       x2="-19.617525"
       x1="189.94229"
       gradientUnits="userSpaceOnUse"
       id="q">
      <stop
         id="stop80"
         stop-color="#f48155"
         offset="0" />
      <stop
         id="stop82"
         stop-color="#f16168"
         offset="1" />
    </linearGradient>
    <linearGradient
       y2="34.179653"
       y1="308.30261"
       x2="21.156284"
       x1="116.504"
       gradientUnits="userSpaceOnUse"
       id="l">
      <stop
         id="stop55"
         stop-color="#735194"
         offset="0" />
      <stop
         id="stop57"
         stop-color="#525da3"
         offset="1" />
    </linearGradient>
    <linearGradient
       y2="-107.16671"
       y1="111.50156"
       x2="123.3283"
       x1="30.131145"
       gradientUnits="userSpaceOnUse"
       id="j">
      <stop
         id="stop45"
         stop-color="#416db9"
         offset="0" />
      <stop
         id="stop47"
         stop-color="#337e8d"
         offset="1" />
    </linearGradient>
    <linearGradient
       y2="0.071801998"
       y1="133.12218"
       x2="205.55051"
       x1="-103.67039"
       gradientUnits="userSpaceOnUse"
       id="h">
      <stop
         id="stop35"
         stop-color="#2e9274"
         offset="0" />
      <stop
         id="stop37"
         stop-color="#469d3c"
         offset="1" />
    </linearGradient>
    <linearGradient
       y2="-100.48971"
       y1="120.22743"
       x2="146.80986"
       x1="26.97802"
       gradientUnits="userSpaceOnUse"
       id="f">
      <stop
         id="stop25"
         stop-color="#ec4001"
         offset="0" />
      <stop
         id="stop27"
         stop-color="#fb6f01"
         offset="1" />
    </linearGradient>
    <linearGradient
       y2="73.499695"
       y1="73.499695"
       x2="309.397"
       x1="-14.298616"
       gradientUnits="userSpaceOnUse"
       id="d">
      <stop
         id="stop15"
         stop-color="#58a920"
         offset="0" />
      <stop
         id="stop17"
         stop-color="#98b811"
         offset="1" />
    </linearGradient>
    <linearGradient
       y2="144.897"
       y1="144.897"
       x2="145.987"
       x1="-123.11901"
       gradientUnits="userSpaceOnUse"
       id="o">
      <stop
         id="stop70"
         stop-color="#d287af"
         offset="0" />
      <stop
         id="stop72"
         stop-color="#e07993"
         offset="1" />
    </linearGradient>
    <linearGradient
       y2="-71.695564"
       y1="-71.695564"
       x2="117.81888"
       x1="-205.78"
       gradientUnits="userSpaceOnUse"
       id="p">
      <stop
         id="stop75"
         stop-color="#bd090f"
         offset="0" />
      <stop
         id="stop77"
         stop-color="#e11f07"
         offset="1" />
    </linearGradient>
    <linearGradient
       y2="-143.7106"
       y1="-14.582834"
       x2="-308.72031"
       x1="0.176406"
       gradientUnits="userSpaceOnUse"
       id="n">
      <stop
         id="stop65"
         stop-color="#c23857"
         offset="0" />
      <stop
         id="stop67"
         stop-color="#914475"
         offset="1" />
    </linearGradient>
    <linearGradient
       y2="319.1076"
       y1="108.52529"
       x2="117.31723"
       x1="41.409683"
       gradientUnits="userSpaceOnUse"
       id="g">
      <stop
         id="stop30"
         stop-color="#e69e08"
         offset="0" />
      <stop
         id="stop32"
         stop-color="#cbc507"
         offset="1" />
    </linearGradient>
    <linearGradient
       id="linearGradient4296"
       inkscape:collect="always">
      <stop
         id="stop4298"
         offset="0"
         style="stop-color:#000000;stop-opacity:1;" />
      <stop
         id="stop4300"
         offset="1"
         style="stop-color:#000000;stop-opacity:0;" />
    </linearGradient>
    <linearGradient
       id="linearGradient4243"
       inkscape:collect="always">
      <stop
         id="stop4245"
         offset="0"
         style="stop-color:#bc8b3c;stop-opacity:1" />
      <stop
         id="stop4247"
         offset="1"
         style="stop-color:#ac7c3e;stop-opacity:1" />
    </linearGradient>
    <linearGradient
       id="linearGradient5423-1">
      <stop
         style="stop-color:#51b9db;stop-opacity:1;"
         offset="0"
         id="stop4237" />
      <stop
         style="stop-color:#2fabd4;stop-opacity:1;"
         offset="1"
         id="stop4239" />
    </linearGradient>
    <inkscape:perspective
       id="perspective3135"
       inkscape:persp3d-origin="147.59482 : 101.02977 : 1"
       inkscape:vp_z="277.59482 : 144.36309 : 1"
       inkscape:vp_y="0 : 1300 : 0"
       inkscape:vp_x="17.594803 : 144.36309 : 1"
       sodipodi:type="inkscape:persp3d" />
    <linearGradient
       id="linearGradient4829">
      <stop
         id="stop4831"
         offset="0"
         style="stop-color:#f4fbfc;stop-opacity:1;" />
      <stop
         id="stop4833"
         offset="1"
         style="stop-color:#d6d6d6;stop-opacity:1;" />
    </linearGradient>
    <clipPath
       id="clipPath4282"
       clipPathUnits="userSpaceOnUse">
      <rect
         rx="17"
         ry="17"
         y="1646.1122"
         x="462.5"
         height="234.375"
         width="246.875"
         id="rect4284"
         style="color:#000000;display:inline;overflow:visible;visibility:visible;fill:#4d4d4d;fill-opacity:1;fill-rule:nonzero;stroke:none;stroke-width:9.13434315;marker:none;enable-background:accumulate" />
    </clipPath>
    <linearGradient
       gradientUnits="userSpaceOnUse"
       y2="562.04968"
       x2="408.66196"
       y1="44.604382"
       x1="408.66196"
       id="linearGradient5429"
       xlink:href="#linearGradient5423"
       inkscape:collect="always" />
    <linearGradient
       id="linearGradient5423">
      <stop
         id="stop5425"
         offset="0"
         style="stop-color:#db8451;stop-opacity:1;" />
      <stop
         id="stop5427"
         offset="1"
         style="stop-color:#c85c29;stop-opacity:1;" />
    </linearGradient>
    <linearGradient
       gradientUnits="userSpaceOnUse"
       y2="993.6615"
       x2="120.28125"
       y1="993.6615"
       x1="78.5625"
       id="linearGradient3992"
       xlink:href="#linearGradient4296"
       inkscape:collect="always" />
    <linearGradient
       gradientUnits="userSpaceOnUse"
       y2="199.83986"
       x2="99.036476"
       y1="-0.50471628"
       x1="99.036476"
       id="linearGradient5473-2"
       xlink:href="#linearGradient5423-1"
       inkscape:collect="always" />
    <clipPath
       id="clipPath3378"
       clipPathUnits="userSpaceOnUse">
      <rect
         y="1432.9845"
         x="-247.76358"
         height="148.32669"
         width="144.18349"
         id="rect3380"
         style="color:#000000;display:inline;overflow:visible;visibility:visible;opacity:0.41206031;fill:#ffffff;fill-opacity:1;fill-rule:nonzero;stroke:none;stroke-width:4.81500006;stroke-linecap:round;stroke-linejoin:miter;stroke-miterlimit:4;stroke-dasharray:none;stroke-dashoffset:0;stroke-opacity:1;marker:none;enable-background:accumulate" />
    </clipPath>
    <linearGradient
       y2="709.1676"
       x2="-187.35687"
       y1="603.80872"
       x1="-187.35687"
       gradientTransform="translate(0,852.36218)"
       gradientUnits="userSpaceOnUse"
       id="linearGradient4315"
       xlink:href="#linearGradient4243"
       inkscape:collect="always" />
    <clipPath
       id="clipPath4328"
       clipPathUnits="userSpaceOnUse">
      <path
         id="path4330"
         d="m -229.07617,1455.911 v 105.7891 c 0,0.8891 0.71244,2.5644 1.45703,2.5644 0.0895,-0.8374 -0.48376,-1.5811 0.62695,-2.5644 h 46.27539 2.5586 23.04687 c 4.86914,0 8.78906,-3.92 8.78906,-8.7891 v -88.2109 c 0,-4.8691 -3.91992,-8.7891 -8.78906,-8.7891 h -23.04687 -2.5586 z"
         style="color:#000000;display:inline;overflow:visible;visibility:visible;opacity:1;fill:url(#linearGradient4315);fill-opacity:1;fill-rule:nonzero;stroke:none;stroke-width:4.81500006;stroke-linecap:round;stroke-linejoin:miter;stroke-miterlimit:4;stroke-dasharray:none;stroke-dashoffset:0;stroke-opacity:1;marker:none;enable-background:accumulate"
         inkscape:connector-curvature="0" />
    </clipPath>
    <clipPath
       id="clipPath4311-0"
       clipPathUnits="userSpaceOnUse">
      <path
         id="path4313-7"
         d="m -229.07617,1455.911 v 105.7891 c 0,0.8891 0.71244,2.5644 1.45703,2.5644 0.0895,-0.8374 -0.48376,-1.5811 0.62695,-2.5644 h 46.27539 2.5586 23.04687 c 4.86914,0 8.78906,-3.92 8.78906,-8.7891 v -88.2109 c 0,-4.8691 -3.91992,-8.7891 -8.78906,-8.7891 h -23.04687 -2.5586 z"
         style="color:#000000;display:inline;overflow:visible;visibility:visible;opacity:1;fill:url(#linearGradient4315);fill-opacity:1;fill-rule:nonzero;stroke:none;stroke-width:4.81500006;stroke-linecap:round;stroke-linejoin:miter;stroke-miterlimit:4;stroke-dasharray:none;stroke-dashoffset:0;stroke-opacity:1;marker:none;enable-background:accumulate"
         inkscape:connector-curvature="0" />
    </clipPath>
    <clipPath
       id="clipPath4328-9"
       clipPathUnits="userSpaceOnUse">
      <path
         id="path4330-6"
         d="m -229.07617,1455.911 v 105.7891 c 0,0.8891 0.71244,2.5644 1.45703,2.5644 0.0895,-0.8374 -0.48376,-1.5811 0.62695,-2.5644 h 46.27539 2.5586 23.04687 c 4.86914,0 8.78906,-3.92 8.78906,-8.7891 v -88.2109 c 0,-4.8691 -3.91992,-8.7891 -8.78906,-8.7891 h -23.04687 -2.5586 z"
         style="color:#000000;display:inline;overflow:visible;visibility:visible;opacity:1;fill:url(#linearGradient4315);fill-opacity:1;fill-rule:nonzero;stroke:none;stroke-width:4.81500006;stroke-linecap:round;stroke-linejoin:miter;stroke-miterlimit:4;stroke-dasharray:none;stroke-dashoffset:0;stroke-opacity:1;marker:none;enable-background:accumulate"
         inkscape:connector-curvature="0" />
    </clipPath>
    <clipPath
       id="clipPath4328-4"
       clipPathUnits="userSpaceOnUse">
      <path
         id="path4330-0"
         d="m -229.07617,1455.911 v 105.7891 c 0,0.8891 0.71244,2.5644 1.45703,2.5644 0.0895,-0.8374 -0.48376,-1.5811 0.62695,-2.5644 h 46.27539 2.5586 23.04687 c 4.86914,0 8.78906,-3.92 8.78906,-8.7891 v -88.2109 c 0,-4.8691 -3.91992,-8.7891 -8.78906,-8.7891 h -23.04687 -2.5586 z"
         style="color:#000000;display:inline;overflow:visible;visibility:visible;opacity:1;fill:url(#linearGradient4315);fill-opacity:1;fill-rule:nonzero;stroke:none;stroke-width:4.81500006;stroke-linecap:round;stroke-linejoin:miter;stroke-miterlimit:4;stroke-dasharray:none;stroke-dashoffset:0;stroke-opacity:1;marker:none;enable-background:accumulate"
         inkscape:connector-curvature="0" />
    </clipPath>
    <clipPath
       id="clipPath4898"
       clipPathUnits="userSpaceOnUse">
      <path
         inkscape:connector-curvature="0"
         style="color:#000000;display:inline;overflow:visible;visibility:visible;opacity:1;fill:url(#linearGradient4315);fill-opacity:1;fill-rule:nonzero;stroke:none;stroke-width:4.81500006;stroke-linecap:round;stroke-linejoin:miter;stroke-miterlimit:4;stroke-dasharray:none;stroke-dashoffset:0;stroke-opacity:1;marker:none;enable-background:accumulate"
         d="m -229.07617,1455.911 v 105.7891 c 0,0.8891 0.71244,2.5644 1.45703,2.5644 0.0895,-0.8374 -0.48376,-1.5811 0.62695,-2.5644 h 46.27539 2.5586 23.04687 c 4.86914,0 8.78906,-3.92 8.78906,-8.7891 v -88.2109 c 0,-4.8691 -3.91992,-8.7891 -8.78906,-8.7891 h -23.04687 -2.5586 z"
         id="path4900" />
    </clipPath>
    <clipPath
       id="clipPath4928"
       clipPathUnits="userSpaceOnUse">
      <path
         id="path4930"
         d="m -229.07617,1455.911 v 105.7891 c 0,0.8891 0.71244,2.5644 1.45703,2.5644 0.0895,-0.8374 -0.48376,-1.5811 0.62695,-2.5644 h 46.27539 2.5586 23.04687 c 4.86914,0 8.78906,-3.92 8.78906,-8.7891 v -88.2109 c 0,-4.8691 -3.91992,-8.7891 -8.78906,-8.7891 h -23.04687 -2.5586 z"
         style="color:#000000;display:inline;overflow:visible;visibility:visible;opacity:1;fill:url(#linearGradient4315);fill-opacity:1;fill-rule:nonzero;stroke:none;stroke-width:4.81500006;stroke-linecap:round;stroke-linejoin:miter;stroke-miterlimit:4;stroke-dasharray:none;stroke-dashoffset:0;stroke-opacity:1;marker:none;enable-background:accumulate"
         inkscape:connector-curvature="0" />
    </clipPath>
    <clipPath
       id="clipPath5092"
       clipPathUnits="userSpaceOnUse">
      <path
         id="path5094"
         d="m -229.07617,1455.911 v 105.7891 c 0,0.8891 0.71244,2.5644 1.45703,2.5644 0.0895,-0.8374 -0.48376,-1.5811 0.62695,-2.5644 h 46.27539 2.5586 23.04687 c 4.86914,0 8.78906,-3.92 8.78906,-8.7891 v -88.2109 c 0,-4.8691 -3.91992,-8.7891 -8.78906,-8.7891 h -23.04687 -2.5586 z"
         style="color:#000000;display:inline;overflow:visible;visibility:visible;opacity:1;fill:url(#linearGradient4315);fill-opacity:1;fill-rule:nonzero;stroke:none;stroke-width:4.81500006;stroke-linecap:round;stroke-linejoin:miter;stroke-miterlimit:4;stroke-dasharray:none;stroke-dashoffset:0;stroke-opacity:1;marker:none;enable-background:accumulate"
         inkscape:connector-curvature="0" />
    </clipPath>
    <clipPath
       id="clipPath5122"
       clipPathUnits="userSpaceOnUse">
      <path
         id="path5124"
         d="m -229.07617,1455.911 v 105.7891 c 0,0.8891 0.71244,2.5644 1.45703,2.5644 0.0895,-0.8374 -0.48376,-1.5811 0.62695,-2.5644 h 46.27539 2.5586 23.04687 c 4.86914,0 8.78906,-3.92 8.78906,-8.7891 v -88.2109 c 0,-4.8691 -3.91992,-8.7891 -8.78906,-8.7891 h -23.04687 -2.5586 z"
         style="color:#000000;display:inline;overflow:visible;visibility:visible;opacity:1;fill:url(#linearGradient4315);fill-opacity:1;fill-rule:nonzero;stroke:none;stroke-width:4.81500006;stroke-linecap:round;stroke-linejoin:miter;stroke-miterlimit:4;stroke-dasharray:none;stroke-dashoffset:0;stroke-opacity:1;marker:none;enable-background:accumulate"
         inkscape:connector-curvature="0" />
    </clipPath>
    <clipPath
       id="clipPath5315"
       clipPathUnits="userSpaceOnUse">
      <rect
         style="color:#000000;display:inline;overflow:visible;visibility:visible;opacity:1;fill:#15bfe3;fill-opacity:1;fill-rule:nonzero;stroke:none;stroke-width:0.10575029;stroke-linecap:round;stroke-linejoin:miter;stroke-miterlimit:4;stroke-dasharray:none;stroke-dashoffset:0;stroke-opacity:1;marker:none;enable-background:accumulate"
         id="rect5317"
         width="8.7005014"
         height="24.124268"
         x="-149.37343"
         y="1487.7891"
         ry="2.783535"
         rx="2.8672121" />
    </clipPath>
    <clipPath
       id="clipPath5334"
       clipPathUnits="userSpaceOnUse">
      <rect
         style="color:#000000;display:inline;overflow:visible;visibility:visible;opacity:1;fill:#05d562;fill-opacity:1;fill-rule:nonzero;stroke:none;stroke-width:0.10575029;stroke-linecap:round;stroke-linejoin:miter;stroke-miterlimit:4;stroke-dasharray:none;stroke-dashoffset:0;stroke-opacity:1;marker:none;enable-background:accumulate"
         id="rect5336"
         width="8.7005014"
         height="24.124268"
         x="-149.37343"
         y="1509.0391"
         ry="2.783535"
         rx="2.8672121" />
    </clipPath>
    <clipPath
       id="clipPath5359"
       clipPathUnits="userSpaceOnUse">
      <rect
         style="color:#000000;display:inline;overflow:visible;visibility:visible;opacity:1;fill:#dd9201;fill-opacity:1;fill-rule:nonzero;stroke:none;stroke-width:0.10575029;stroke-linecap:round;stroke-linejoin:miter;stroke-miterlimit:4;stroke-dasharray:none;stroke-dashoffset:0;stroke-opacity:1;marker:none;enable-background:accumulate"
         id="rect5361"
         width="8.7005014"
         height="24.124268"
         x="-149.37343"
         y="1530.1641"
         ry="2.783535"
         rx="2.8672121" />
    </clipPath>
    <inkscape:perspective
       sodipodi:type="inkscape:persp3d"
       inkscape:vp_x="17.594803 : 144.36309 : 1"
       inkscape:vp_y="0 : 1300 : 0"
       inkscape:vp_z="277.59482 : 144.36309 : 1"
       inkscape:persp3d-origin="147.59482 : 101.02977 : 1"
       id="perspective3135-9" />
    <clipPath
       clipPathUnits="userSpaceOnUse"
       id="clipPath4282-0">
      <rect
         style="color:#000000;display:inline;overflow:visible;visibility:visible;fill:#4d4d4d;fill-opacity:1;fill-rule:nonzero;stroke:none;stroke-width:9.13434315;marker:none;enable-background:accumulate"
         id="rect4284-6"
         width="246.875"
         height="234.375"
         x="462.5"
         y="1646.1122"
         ry="17"
         rx="17" />
    </clipPath>
    <clipPath
       clipPathUnits="userSpaceOnUse"
       id="clipPath3378-0">
      <rect
         style="color:#000000;display:inline;overflow:visible;visibility:visible;opacity:0.41206031;fill:#ffffff;fill-opacity:1;fill-rule:nonzero;stroke:none;stroke-width:4.81500006;stroke-linecap:round;stroke-linejoin:miter;stroke-miterlimit:4;stroke-dasharray:none;stroke-dashoffset:0;stroke-opacity:1;marker:none;enable-background:accumulate"
         id="rect3380-2"
         width="144.18349"
         height="148.32669"
         x="-247.76358"
         y="1432.9845" />
    </clipPath>
    <clipPath
       clipPathUnits="userSpaceOnUse"
       id="clipPath4277">
      <path
         inkscape:connector-curvature="0"
         style="color:#000000;display:inline;overflow:visible;visibility:visible;opacity:1;fill:url(#linearGradient4315);fill-opacity:1;fill-rule:nonzero;stroke:none;stroke-width:4.81500006;stroke-linecap:round;stroke-linejoin:miter;stroke-miterlimit:4;stroke-dasharray:none;stroke-dashoffset:0;stroke-opacity:1;marker:none;enable-background:accumulate"
         d="m -229.07617,1455.911 v 105.7891 c 0,0.8891 0.71244,2.5644 1.45703,2.5644 0.0895,-0.8374 -0.48376,-1.5811 0.62695,-2.5644 h 46.27539 2.5586 23.04687 c 4.86914,0 8.78906,-3.92 8.78906,-8.7891 v -88.2109 c 0,-4.8691 -3.91992,-8.7891 -8.78906,-8.7891 h -23.04687 -2.5586 z"
         id="path4279-7" />
    </clipPath>
    <clipPath
       clipPathUnits="userSpaceOnUse"
       id="clipPath4328-92">
      <path
         inkscape:connector-curvature="0"
         style="color:#000000;display:inline;overflow:visible;visibility:visible;opacity:1;fill:url(#linearGradient4315);fill-opacity:1;fill-rule:nonzero;stroke:none;stroke-width:4.81500006;stroke-linecap:round;stroke-linejoin:miter;stroke-miterlimit:4;stroke-dasharray:none;stroke-dashoffset:0;stroke-opacity:1;marker:none;enable-background:accumulate"
         d="m -229.07617,1455.911 v 105.7891 c 0,0.8891 0.71244,2.5644 1.45703,2.5644 0.0895,-0.8374 -0.48376,-1.5811 0.62695,-2.5644 h 46.27539 2.5586 23.04687 c 4.86914,0 8.78906,-3.92 8.78906,-8.7891 v -88.2109 c 0,-4.8691 -3.91992,-8.7891 -8.78906,-8.7891 h -23.04687 -2.5586 z"
         id="path4330-2" />
    </clipPath>
    <clipPath
       clipPathUnits="userSpaceOnUse"
       id="clipPath4311-0-8">
      <path
         inkscape:connector-curvature="0"
         style="color:#000000;display:inline;overflow:visible;visibility:visible;opacity:1;fill:url(#linearGradient4315);fill-opacity:1;fill-rule:nonzero;stroke:none;stroke-width:4.81500006;stroke-linecap:round;stroke-linejoin:miter;stroke-miterlimit:4;stroke-dasharray:none;stroke-dashoffset:0;stroke-opacity:1;marker:none;enable-background:accumulate"
         d="m -229.07617,1455.911 v 105.7891 c 0,0.8891 0.71244,2.5644 1.45703,2.5644 0.0895,-0.8374 -0.48376,-1.5811 0.62695,-2.5644 h 46.27539 2.5586 23.04687 c 4.86914,0 8.78906,-3.92 8.78906,-8.7891 v -88.2109 c 0,-4.8691 -3.91992,-8.7891 -8.78906,-8.7891 h -23.04687 -2.5586 z"
         id="path4313-7-9" />
    </clipPath>
    <clipPath
       clipPathUnits="userSpaceOnUse"
       id="clipPath4328-9-7">
      <path
         inkscape:connector-curvature="0"
         style="color:#000000;display:inline;overflow:visible;visibility:visible;opacity:1;fill:url(#linearGradient4315);fill-opacity:1;fill-rule:nonzero;stroke:none;stroke-width:4.81500006;stroke-linecap:round;stroke-linejoin:miter;stroke-miterlimit:4;stroke-dasharray:none;stroke-dashoffset:0;stroke-opacity:1;marker:none;enable-background:accumulate"
         d="m -229.07617,1455.911 v 105.7891 c 0,0.8891 0.71244,2.5644 1.45703,2.5644 0.0895,-0.8374 -0.48376,-1.5811 0.62695,-2.5644 h 46.27539 2.5586 23.04687 c 4.86914,0 8.78906,-3.92 8.78906,-8.7891 v -88.2109 c 0,-4.8691 -3.91992,-8.7891 -8.78906,-8.7891 h -23.04687 -2.5586 z"
         id="path4330-6-3" />
    </clipPath>
    <clipPath
       clipPathUnits="userSpaceOnUse"
       id="clipPath4328-4-6">
      <path
         inkscape:connector-curvature="0"
         style="color:#000000;display:inline;overflow:visible;visibility:visible;opacity:1;fill:url(#linearGradient4315);fill-opacity:1;fill-rule:nonzero;stroke:none;stroke-width:4.81500006;stroke-linecap:round;stroke-linejoin:miter;stroke-miterlimit:4;stroke-dasharray:none;stroke-dashoffset:0;stroke-opacity:1;marker:none;enable-background:accumulate"
         d="m -229.07617,1455.911 v 105.7891 c 0,0.8891 0.71244,2.5644 1.45703,2.5644 0.0895,-0.8374 -0.48376,-1.5811 0.62695,-2.5644 h 46.27539 2.5586 23.04687 c 4.86914,0 8.78906,-3.92 8.78906,-8.7891 v -88.2109 c 0,-4.8691 -3.91992,-8.7891 -8.78906,-8.7891 h -23.04687 -2.5586 z"
         id="path4330-0-1" />
    </clipPath>
    <clipPath
       clipPathUnits="userSpaceOnUse"
       id="clipPath4898-2">
      <path
         id="path4900-9"
         d="m -229.07617,1455.911 v 105.7891 c 0,0.8891 0.71244,2.5644 1.45703,2.5644 0.0895,-0.8374 -0.48376,-1.5811 0.62695,-2.5644 h 46.27539 2.5586 23.04687 c 4.86914,0 8.78906,-3.92 8.78906,-8.7891 v -88.2109 c 0,-4.8691 -3.91992,-8.7891 -8.78906,-8.7891 h -23.04687 -2.5586 z"
         style="color:#000000;display:inline;overflow:visible;visibility:visible;opacity:1;fill:url(#linearGradient4315);fill-opacity:1;fill-rule:nonzero;stroke:none;stroke-width:4.81500006;stroke-linecap:round;stroke-linejoin:miter;stroke-miterlimit:4;stroke-dasharray:none;stroke-dashoffset:0;stroke-opacity:1;marker:none;enable-background:accumulate"
         inkscape:connector-curvature="0" />
    </clipPath>
    <clipPath
       clipPathUnits="userSpaceOnUse"
       id="clipPath4928-3">
      <path
         inkscape:connector-curvature="0"
         style="color:#000000;display:inline;overflow:visible;visibility:visible;opacity:1;fill:url(#linearGradient4315);fill-opacity:1;fill-rule:nonzero;stroke:none;stroke-width:4.81500006;stroke-linecap:round;stroke-linejoin:miter;stroke-miterlimit:4;stroke-dasharray:none;stroke-dashoffset:0;stroke-opacity:1;marker:none;enable-background:accumulate"
         d="m -229.07617,1455.911 v 105.7891 c 0,0.8891 0.71244,2.5644 1.45703,2.5644 0.0895,-0.8374 -0.48376,-1.5811 0.62695,-2.5644 h 46.27539 2.5586 23.04687 c 4.86914,0 8.78906,-3.92 8.78906,-8.7891 v -88.2109 c 0,-4.8691 -3.91992,-8.7891 -8.78906,-8.7891 h -23.04687 -2.5586 z"
         id="path4930-1" />
    </clipPath>
    <clipPath
       clipPathUnits="userSpaceOnUse"
       id="clipPath5092-4">
      <path
         inkscape:connector-curvature="0"
         style="color:#000000;display:inline;overflow:visible;visibility:visible;opacity:1;fill:url(#linearGradient4315);fill-opacity:1;fill-rule:nonzero;stroke:none;stroke-width:4.81500006;stroke-linecap:round;stroke-linejoin:miter;stroke-miterlimit:4;stroke-dasharray:none;stroke-dashoffset:0;stroke-opacity:1;marker:none;enable-background:accumulate"
         d="m -229.07617,1455.911 v 105.7891 c 0,0.8891 0.71244,2.5644 1.45703,2.5644 0.0895,-0.8374 -0.48376,-1.5811 0.62695,-2.5644 h 46.27539 2.5586 23.04687 c 4.86914,0 8.78906,-3.92 8.78906,-8.7891 v -88.2109 c 0,-4.8691 -3.91992,-8.7891 -8.78906,-8.7891 h -23.04687 -2.5586 z"
         id="path5094-5" />
    </clipPath>
    <clipPath
       clipPathUnits="userSpaceOnUse"
       id="clipPath5122-0">
      <path
         inkscape:connector-curvature="0"
         style="color:#000000;display:inline;overflow:visible;visibility:visible;opacity:1;fill:url(#linearGradient4315);fill-opacity:1;fill-rule:nonzero;stroke:none;stroke-width:4.81500006;stroke-linecap:round;stroke-linejoin:miter;stroke-miterlimit:4;stroke-dasharray:none;stroke-dashoffset:0;stroke-opacity:1;marker:none;enable-background:accumulate"
         d="m -229.07617,1455.911 v 105.7891 c 0,0.8891 0.71244,2.5644 1.45703,2.5644 0.0895,-0.8374 -0.48376,-1.5811 0.62695,-2.5644 h 46.27539 2.5586 23.04687 c 4.86914,0 8.78906,-3.92 8.78906,-8.7891 v -88.2109 c 0,-4.8691 -3.91992,-8.7891 -8.78906,-8.7891 h -23.04687 -2.5586 z"
         id="path5124-3" />
    </clipPath>
    <clipPath
       clipPathUnits="userSpaceOnUse"
       id="clipPath5315-6">
      <rect
         rx="2.8672121"
         ry="2.783535"
         y="1487.7891"
         x="-149.37343"
         height="24.124268"
         width="8.7005014"
         id="rect5317-1"
         style="color:#000000;display:inline;overflow:visible;visibility:visible;opacity:1;fill:#15bfe3;fill-opacity:1;fill-rule:nonzero;stroke:none;stroke-width:0.10575029;stroke-linecap:round;stroke-linejoin:miter;stroke-miterlimit:4;stroke-dasharray:none;stroke-dashoffset:0;stroke-opacity:1;marker:none;enable-background:accumulate" />
    </clipPath>
    <clipPath
       clipPathUnits="userSpaceOnUse"
       id="clipPath5334-0">
      <rect
         rx="2.8672121"
         ry="2.783535"
         y="1509.0391"
         x="-149.37343"
         height="24.124268"
         width="8.7005014"
         id="rect5336-6"
         style="color:#000000;display:inline;overflow:visible;visibility:visible;opacity:1;fill:#05d562;fill-opacity:1;fill-rule:nonzero;stroke:none;stroke-width:0.10575029;stroke-linecap:round;stroke-linejoin:miter;stroke-miterlimit:4;stroke-dasharray:none;stroke-dashoffset:0;stroke-opacity:1;marker:none;enable-background:accumulate" />
    </clipPath>
    <clipPath
       clipPathUnits="userSpaceOnUse"
       id="clipPath5359-3">
      <rect
         rx="2.8672121"
         ry="2.783535"
         y="1530.1641"
         x="-149.37343"
         height="24.124268"
         width="8.7005014"
         id="rect5361-2"
         style="color:#000000;display:inline;overflow:visible;visibility:visible;opacity:1;fill:#dd9201;fill-opacity:1;fill-rule:nonzero;stroke:none;stroke-width:0.10575029;stroke-linecap:round;stroke-linejoin:miter;stroke-miterlimit:4;stroke-dasharray:none;stroke-dashoffset:0;stroke-opacity:1;marker:none;enable-background:accumulate" />
    </clipPath>
    <linearGradient
       gradientUnits="userSpaceOnUse"
       gradientTransform="matrix(0.41967,0,0,0.41967,-173.34,-178.23)"
       y2="517.62"
       y1="545.62"
       x2="400.39999"
       x1="400.39999"
       id="i-3">
      <stop
         id="stop2-6"
         offset="0"
         stop-color="#d3d3d3" />
      <stop
         id="stop4-7"
         offset="1"
         stop-color="#fcf9f9" />
    </linearGradient>
    <linearGradient
       gradientUnits="userSpaceOnUse"
       gradientTransform="matrix(0.43343,0,0,0.43343,-193.09,-179.69)"
       y2="517.62"
       y1="545.62"
       x2="400.39999"
       x1="400.39999"
       id="f-5">
      <stop
         id="stop7-3"
         offset="0"
         stop-color="#8d3aff" />
      <stop
         id="stop9-5"
         offset="1"
         stop-color="#ff3680" />
    </linearGradient>
    <linearGradient
       gradientUnits="userSpaceOnUse"
       gradientTransform="matrix(0.91668806,0,0,0.91668806,0.70545359,17.638787)"
       y2="2.6458001"
       y1="16.403999"
       x2="3.9686999"
       x1="3.9686999"
       id="linearGradient1448">
      <stop
         id="stop12-6"
         offset="0"
         stop-color="#ebf0f5"
         style="stop-color:#060215;stop-opacity:1" />
      <stop
         id="stop14"
         offset="1"
         stop-color="#fafafa"
         style="stop-color:#323134;stop-opacity:1" />
    </linearGradient>
    <linearGradient
       gradientUnits="userSpaceOnUse"
       gradientTransform="matrix(0.48338,0,0,0.48338,-200.71,-248.05)"
       y2="524.16998"
       y1="540.19"
       x2="433.31"
       x1="423.39001"
       id="k-7">
      <stop
         id="stop17-2"
         offset="0"
         stop-opacity=".8"
         stop-color="#ff4bfa" />
      <stop
         id="stop19"
         offset="1"
         stop-color="#ffaa4b" />
    </linearGradient>
    <filter
       height="1.0426"
       width="1.0549999"
       y="-0.021303"
       x="-0.027479"
       id="filter1877-5"
       style="color-interpolation-filters:sRGB">
      <feGaussianBlur
         id="feGaussianBlur22"
         stdDeviation="0.072702461" />
    </filter>
    <filter
       height="1.054"
       width="1.054"
       y="-0.027000001"
       x="-0.027000001"
       id="filter861-3"
       style="color-interpolation-filters:sRGB">
      <feGaussianBlur
         id="feGaussianBlur25"
         stdDeviation="0.16371" />
    </filter>
    <linearGradient
       xlink:href="#i-3"
       gradientUnits="userSpaceOnUse"
       gradientTransform="matrix(0.41967827,0,0,0.41967827,-173.34342,-161.30018)"
       y2="517.62"
       y1="545.62"
       x2="400.39999"
       x1="400.39999"
       id="linearGradient1407" />
    <linearGradient
       xlink:href="#f-5"
       gradientUnits="userSpaceOnUse"
       gradientTransform="matrix(0.43343854,0,0,0.43343854,-193.0938,-162.76021)"
       y2="517.62"
       y1="545.62"
       x2="400.39999"
       x1="400.39999"
       id="linearGradient1409" />
    <linearGradient
       inkscape:collect="always"
       xlink:href="#i-3"
       id="linearGradient1174"
       gradientUnits="userSpaceOnUse"
       gradientTransform="matrix(0.41967827,0,0,0.41967827,-173.34342,-161.30018)"
       x1="400.39999"
       y1="545.62"
       x2="400.39999"
       y2="517.62" />
    <linearGradient
       inkscape:collect="always"
       xlink:href="#f-5"
       id="linearGradient1176"
       gradientUnits="userSpaceOnUse"
       gradientTransform="matrix(0.43343854,0,0,0.43343854,-193.0938,-162.76021)"
       x1="400.39999"
       y1="545.62"
       x2="400.39999"
       y2="517.62" />
    <linearGradient
       gradientUnits="userSpaceOnUse"
       gradientTransform="matrix(0.56697562,0,0,0.56697562,-188.84269,-277.98485)"
       y2="517.8"
       y1="545.8"
       x2="399.57"
       x1="399.57"
       id="b-3">
      <stop
         id="stop1015"
         offset="0"
         stop-color="#3889e9" />
      <stop
         id="stop1017"
         offset="1"
         stop-color="#5ea5fb" />
    </linearGradient>
    <linearGradient
       gradientUnits="userSpaceOnUse"
       gradientTransform="matrix(0.26458333,0,0,0.26458333,-0.62075028,15.173462)"
       y2="1.6692"
       y1="61.873"
       x2="32.431"
       x1="32.431"
       id="linearGradient1001">
      <stop
         id="stop1020"
         offset="0"
         stop-color="#1d2123" />
      <stop
         id="stop1022"
         offset="1"
         stop-color="#33393e" />
    </linearGradient>
    <linearGradient
       gradientUnits="userSpaceOnUse"
       gradientTransform="matrix(0.11943,0,0,0.079621,10.946,9.5369)"
       y2="324.75"
       y1="400.49"
       x2="211.49"
       x1="116.53"
       id="sublime-icon-b">
      <stop
         id="stop7-7"
         offset="0"
         stop-color="#FF9700" />
      <stop
         id="stop9-53"
         offset=".57396"
         stop-color="#F48E00" />
      <stop
         id="stop11"
         offset="1"
         stop-color="#CE6E00" />
    </linearGradient>
    <filter
       color-interpolation-filters="sRGB"
       height="1.0637"
       width="1.0828"
       y="-.03186"
       x="-.041377"
       id="c-5">
      <feGaussianBlur
         id="feGaussianBlur14"
         stdDeviation="6.7714073" />
    </filter>
    <linearGradient
       gradientUnits="userSpaceOnUse"
       gradientTransform="matrix(3.7795,0,0,3.7795,8.351931,-5.3617206)"
       y2="1.852"
       y1="15.081"
       x2="7.9373"
       x1="7.9373"
       id="linearGradient862-3">
      <stop
         id="stop17-6"
         offset="0"
         stop-color="#1a1a1a" />
      <stop
         id="stop19-2"
         offset="1"
         stop-color="#4d4d4d" />
    </linearGradient>
    <linearGradient
       xlink:href="#linearGradient4296"
       gradientUnits="userSpaceOnUse"
       y2="31.404"
       y1="31.404"
       x2="45.273"
       x1="20.308"
       id="linearGradient1024" />
    <linearGradient
       xlink:href="#linearGradient4296"
       gradientUnits="userSpaceOnUse"
       gradientTransform="matrix(0.11943,0,0,0.079621,10.946,9.4682)"
       y2="340.31"
       y1="340.31"
       x2="79.111"
       x1="287.63"
       id="linearGradient1038" />
    <linearGradient
       gradientUnits="userSpaceOnUse"
       y2="23.514"
       y1="23.514"
       x2="45.272"
       x1="20.308"
       id="linearGradient1046">
      <stop
         id="stop24"
         offset="0"
         stop-color="#ff9800" />
      <stop
         id="stop26"
         offset="1"
         stop-color="#ffc522" />
    </linearGradient>
  </defs>
  <sodipodi:namedview
     id="base"
     pagecolor="#ffffff"
     bordercolor="#666666"
     borderopacity="1.0"
     inkscape:pageopacity="0.0"
     inkscape:pageshadow="2"
     inkscape:zoom="3.5935389"
     inkscape:cx="44.518762"
     inkscape:cy="13.869822"
     inkscape:document-units="mm"
     inkscape:current-layer="layer1"
     showgrid="false"
     units="px"
     inkscape:window-width="1920"
     inkscape:window-height="932"
     inkscape:window-x="0"
     inkscape:window-y="36"
     inkscape:window-maximized="1"
     inkscape:document-rotation="0" />
  <g
     inkscape:label="Layer 1"
     inkscape:groupmode="layer"
     id="layer1"
     transform="translate(0,-16.933333)">
    <g
       style="fill:#5e4aa6;stroke-width:0.26458001"
       transform="matrix(1.0000197,0,0,1.0000197,-21.83443,17.830301)"
       id="g42">
      <circle
         cx="-330.35001"
         cy="-328.38"
         r="0"
         id="circle34" />
      <circle
         cx="-312.10999"
         cy="-326.25"
         r="0"
         id="circle36" />
      <circle
         cx="-306.01999"
         cy="-333.07001"
         r="0"
         id="circle38" />
      <circle
         cx="-308.84"
         cy="-326.01001"
         r="0"
         id="circle40" />
    </g>
    <circle
       cx="-5.2347035"
       cy="61.890221"
       r="0"
       id="circle44"
       style="fill:url(#linearGradient1174);stroke-width:0.26458523;image-rendering:optimizeSpeed" />
    <circle
       cx="-19.466383"
       cy="67.752335"
       r="0"
       id="circle46"
       style="fill:none;stroke:url(#linearGradient1176);stroke-width:0.56348109;image-rendering:optimizeSpeed" />
    <g
       style="fill:#5e4aa6;stroke-width:0.26458001"
       transform="matrix(1.0000197,0,0,1.0000197,-21.83443,17.830301)"
       id="g56">
      <circle
         cx="-330.35001"
         cy="-328.38"
         r="0"
         id="circle48" />
      <circle
         cx="-312.10999"
         cy="-326.25"
         r="0"
         id="circle50" />
      <circle
         cx="-306.01999"
         cy="-333.07001"
         r="0"
         id="circle52" />
      <circle
         cx="-308.84"
         cy="-326.01001"
         r="0"
         id="circle54" />
    </g>
    <circle
       style="fill:url(#linearGradient1407);stroke-width:0.26458523;image-rendering:optimizeSpeed"
       cx="-5.2347035"
       cy="61.890221"
       r="0"
       id="circle58" />
    <circle
       style="fill:none;stroke:url(#linearGradient1409);stroke-width:0.56348109;image-rendering:optimizeSpeed"
       cx="-19.466383"
       cy="67.752335"
       r="0"
       id="circle60" />
    <g
       transform="matrix(1.0000192,0,0,1.0000192,29.801041,15.173449)"
       fill="#5e4aa6"
       stroke-width="0.26458"
       id="g1049">
      <circle
         cx="-330.35001"
         cy="-328.37"
         r="0"
         image-rendering="optimizeSpeed"
         id="circle1027" />
      <circle
         cx="-330.35001"
         cy="-328.38"
         r="0"
         image-rendering="optimizeSpeed"
         id="circle1029" />
      <circle
         cx="-330.35001"
         cy="-328.38"
         r="0"
         image-rendering="optimizeSpeed"
         id="circle1031" />
      <circle
         cx="-352.63"
         cy="-336.84"
         r="0"
         image-rendering="optimizeSpeed"
         id="circle1033" />
      <circle
         cx="-330.35001"
         cy="-328.37"
         r="0"
         image-rendering="optimizeSpeed"
         id="circle1035" />
      <circle
         cx="-305.84"
         cy="-328.26999"
         r="0"
         image-rendering="optimizeSpeed"
         id="circle1037" />
      <circle
         cx="-305.84"
         cy="-328.28"
         r="0"
         image-rendering="optimizeSpeed"
         id="circle1039" />
      <circle
         cx="-305.84"
         cy="-328.28"
         r="0"
         image-rendering="optimizeSpeed"
         id="circle1041" />
      <circle
         cx="-328.12"
         cy="-336.73999"
         r="0"
         image-rendering="optimizeSpeed"
         id="circle1043" />
      <circle
         cx="-305.84"
         cy="-328.26999"
         r="0"
         image-rendering="optimizeSpeed"
         id="circle1045" />
      <circle
         cx="-305.03"
         cy="-328.69"
         r="0"
         id="circle1047" />
    </g>
    <circle
       cx="38.270088"
       cy="23.519495"
       r="0"
       fill="url(#b)"
       stroke-width="0.415793"
       id="circle1057"
       style="fill:url(#b-3)" />
    <g
       transform="matrix(0.26458333,0,0,0.26458333,3.2542067e-8,16.933333)"
       id="g1083"
       style="image-rendering:optimizeSpeed">
      <g
         transform="matrix(1.786452,0,0,1.786452,-26.580149,-25.142141)"
         id="g897">
        <path
           transform="matrix(0.06356,0,0,0.06356,0.25416,-0.42237)"
           d="m 708.28,512.08 c 0,-5.9816 -4.4192,-9.4308 -9.8424,-7.7171 l -373.08,118.34 c -5.434,1.7246 -9.8424,7.979 -9.8424,13.95 v 120.95 c 0,5.9816 4.4083,9.4417 9.8424,7.7171 l 373.08,-118.33 c 5.4231,-1.7246 9.8424,-7.979 9.8424,-13.961 z"
           filter="url(#c)"
           opacity="0.2"
           stroke-width="24.045"
           id="path45"
           style="filter:url(#c-5)" />
        <path
           style="fill:url(#sublime-icon-b)"
           d="m 45.272,31.49 c 0,-0.38019 -0.28089,-0.59942 -0.62558,-0.49049 l -23.713,7.5218 c -0.34538,0.10962 -0.62558,0.50715 -0.62558,0.88663 v 7.6877 c 0,0.38019 0.28019,0.60011 0.62558,0.4905 l 23.713,-7.5212 C 44.99111,39.95532 45.272,39.55779 45.272,39.17761 Z"
           fill="url(#sublime-icon-b)"
           stroke-width="1.5283"
           id="path47" />
        <path
           transform="matrix(0.06356,0,0,0.06356,0.25416,-0.42237)"
           d="m 315.52,508.9 c 0,5.9812 4.4077,12.235 9.841,13.96 l 373.09,118.35 c 5.4333,1.7245 9.841,-1.7354 9.841,-7.7057 v -120.96 c 0,-5.9703 -4.4077,-12.224 -9.841,-13.949 l -373.09,-118.35 c -5.4333,-1.7245 -9.841,1.7245 -9.841,7.7057 z"
           filter="url(#c)"
           opacity="0.2"
           stroke-width="24.045"
           id="path49"
           style="filter:url(#c-5)" />
        <path
           style="fill:url(#linearGradient1038)"
           d="m 45.272,31.421 c 0,-0.38019 -0.28089,-0.59942 -0.62558,-0.49049 l -23.713,7.5218 c -0.34538,0.10962 -0.62558,0.50715 -0.62558,0.88663 v 7.6877 c 0,0.38019 0.28019,0.60011 0.62558,0.4905 l 23.713,-7.5212 C 44.99111,39.88632 45.272,39.48879 45.272,39.10861 Z"
           fill="url(#linearGradient1038)"
           opacity="0.15"
           stroke-width="1.5283"
           id="path51" />
        <path
           d="m 20.308,31.287 c 0,0.38016 0.28015,0.77764 0.62549,0.88726 l 23.713,7.5218 c 0.34533,0.10961 0.62549,-0.1103 0.62549,-0.48977 v -7.6877 c 0,-0.37947 -0.28015,-0.777 -0.62549,-0.88656 l -23.713,-7.5218 C 20.58816,23.00062 20.308,23.21984 20.308,23.6 Z"
           fill="#ff9800"
           stroke-width="1.5283"
           id="path53" />
        <path
           transform="matrix(0.06356,0,0,0.06356,0.25416,-0.42237)"
           d="m 708.28,263.84 c 0,-5.9816 -4.4192,-9.4417 -9.8424,-7.7171 l -373.08,118.33 c -5.434,1.7246 -9.8424,7.9791 -9.8424,13.961 v 120.95 c 0,5.9816 4.4083,9.4308 9.8424,7.7171 l 373.08,-118.34 c 5.4231,-1.7246 9.8424,-7.979 9.8424,-13.95 z"
           filter="url(#c)"
           opacity="0.2"
           stroke-width="24.045"
           id="path55"
           style="filter:url(#c-5)" />
        <path
           style="fill:url(#linearGradient1024)"
           d="m 20.308,31.287 c 0,0.38016 0.28015,0.77764 0.62549,0.88726 l 23.713,7.5218 c 0.34533,0.10961 0.62549,-0.1103 0.62549,-0.48977 v -7.6877 c 0,-0.37947 -0.28015,-0.777 -0.62549,-0.88656 l -23.713,-7.5218 C 20.58816,23.00062 20.308,23.21984 20.308,23.6 Z"
           fill="url(#linearGradient1024)"
           opacity="0.15"
           stroke-width="1.5283"
           id="path57" />
        <path
           style="fill:url(#linearGradient1046)"
           d="m 45.272,15.712 c 0,-0.38019 -0.28089,-0.60011 -0.62558,-0.4905 l -23.713,7.5212 c -0.34538,0.10962 -0.62558,0.50715 -0.62558,0.88733 v 7.6877 c 0,0.38019 0.28019,0.59942 0.62558,0.4905 l 23.713,-7.5218 C 44.99111,24.17681 45.272,23.77928 45.272,23.3998 Z"
           fill="url(#linearGradient1046)"
           stroke-width="1.5283"
           id="path59" />
      </g>
    </g>
  </g>
</svg>
