<?xml version="1.0" encoding="UTF-8" standalone="no"?>
<svg
   width="64"
   height="64"
   version="1.1"
   viewBox="0 0 64 64"
   id="svg2"
   sodipodi:docname="uberwriter.svg"
   inkscape:version="1.3 (0e150ed6c4, 2023-07-21)"
   xmlns:inkscape="http://www.inkscape.org/namespaces/inkscape"
   xmlns:sodipodi="http://sodipodi.sourceforge.net/DTD/sodipodi-0.dtd"
   xmlns="http://www.w3.org/2000/svg"
   xmlns:svg="http://www.w3.org/2000/svg">
  <defs
     id="defs2">
    <linearGradient
       id="linearGradient1053"
       x1="68"
       x2="128"
       y1="62"
       y2="2"
       gradientTransform="matrix(0.9166514,0,0,0.9166514,-57.83175,2.666692)"
       gradientUnits="userSpaceOnUse">
      <stop
         stop-color="#e0e4e9"
         offset="0"
         id="stop966" />
      <stop
         stop-color="#fefeff"
         offset="1"
         id="stop968" />
    </linearGradient>
  </defs>
  <sodipodi:namedview
     id="namedview2"
     pagecolor="#ffffff"
     bordercolor="#999999"
     borderopacity="1"
     inkscape:showpageshadow="0"
     inkscape:pageopacity="0"
     inkscape:pagecheckerboard="0"
     inkscape:deskcolor="#d1d1d1"
     inkscape:zoom="6.109375"
     inkscape:cx="9.2480818"
     inkscape:cy="28.971867"
     inkscape:window-width="1920"
     inkscape:window-height="989"
     inkscape:window-x="0"
     inkscape:window-y="0"
     inkscape:window-maximized="1"
     inkscape:current-layer="svg2" />
  <rect
     x="4.5"
     y="4.5"
     width="55"
     height="55"
     ry="2.7499542"
     fill="url(#linearGradient1053)"
     stroke-width="3.46458"
     id="rect975"
     style="fill:url(#linearGradient1053)" />
  <path
     d="m16.498 21.5v14.022c0 1.6995 0.177 3.2475 0.522 4.6605 0.3465 1.3755 0.8745 2.6025 1.6995 3.6 2.0625 2.493 5.0955 3.2145 7.881 3.2175 3.399 0.0045 6.399-0.3675 9.399-1.5v-23.994h-4.5v20.994c-1.5 0.3885-3 0.5475-4.4235 0.561-2.2335 0.021-3.8205-0.6555-4.77-1.9665-0.9435-1.311-1.3065-3.489-1.3065-6.528v-13.065"
     fill="#ff7700"
     stroke-width="1.5"
     id="path1" />
  <path
     d="m42 14h3v36h-3"
     fill="#333333"
     stroke-width="1.4412"
     id="path2" />
</svg>
