<?xml version="1.0" encoding="UTF-8" standalone="no"?>
<svg
   width="64"
   height="64"
   version="1.1"
   id="svg2"
   sodipodi:docname="ulauncher.svg"
   inkscape:version="1.3 (0e150ed6c4, 2023-07-21)"
   xmlns:inkscape="http://www.inkscape.org/namespaces/inkscape"
   xmlns:sodipodi="http://sodipodi.sourceforge.net/DTD/sodipodi-0.dtd"
   xmlns="http://www.w3.org/2000/svg"
   xmlns:svg="http://www.w3.org/2000/svg">
  <defs
     id="defs2">
    <linearGradient
       id="linearGradient1053"
       x1="68"
       x2="128"
       y1="62"
       y2="2"
       gradientTransform="matrix(0.91666687,0,0,0.91666687,-57.833579,2.6649976)"
       gradientUnits="userSpaceOnUse">
      <stop
         stop-color="#e0e4e9"
         offset="0"
         id="stop1" />
      <stop
         stop-color="#fefeff"
         offset="1"
         id="stop2" />
    </linearGradient>
  </defs>
  <sodipodi:namedview
     id="namedview2"
     pagecolor="#ffffff"
     bordercolor="#999999"
     borderopacity="1"
     inkscape:showpageshadow="0"
     inkscape:pageopacity="0"
     inkscape:pagecheckerboard="0"
     inkscape:deskcolor="#d1d1d1"
     inkscape:zoom="4.3199805"
     inkscape:cx="-3.7037204"
     inkscape:cy="39.35203"
     inkscape:window-width="1920"
     inkscape:window-height="989"
     inkscape:window-x="1920"
     inkscape:window-y="0"
     inkscape:window-maximized="1"
     inkscape:current-layer="svg2" />
  <rect
     x="4.4996166"
     y="4.4996166"
     width="55.000767"
     height="55.000767"
     ry="2.7500007"
     fill="url(#linearGradient1053)"
     stroke-width="3.46465"
     id="rect2"
     style="fill:url(#linearGradient1053)" />
  <path
     id="Shape"
     d="m38.952 31.996v-14.974l9.0009-3.8102v19.4c0 2.34-9.0009 2.6114-9.0009-0.61996z"
     fill="#599ccd" />
  <path
     d="m31.377 48.897c-2.8162 0-5.2534-0.39384-7.3025-1.1791s-2.6288-2.2628-3.9067-3.6153c-0.6858-0.72191 5.7087 0.42262 9.9695-0.50649 4.09-0.84442 6.0628-3.6416 6.7436-4.3076 1.3807-1.3484 2.0657-3.6375 2.0657-6.8688v-13.83c3.7118 1.4356 8.3972 6.336 9.0017 11.658v2.7882c0 2.3392-0.32756 4.486-0.98351 6.4372s-1.6627 3.6285-3.0127 5.0221c-1.3559 1.3986-3.0716 2.4798-5.1597 3.2437-2.0873 0.7696-4.5577 1.1478-7.4211 1.1478z"
     fill="#7ec183"
     id="path1" />
  <path
     d="m36.528 40.132c-0.85083 1.605-4.7708 6.4216-12.269 7.1805l-1.0822 0.02796c-1.6486-0.74658-3.0418-1.7094-4.1712-2.8959-1.3335-1.3978-2.3178-3.0628-2.9522-4.9975-0.63937-1.9347-0.95863-4.0725-0.95863-6.4076v-5.4365l9.0017-3.9664v8.7863c0 1.6181 0.18327 2.9954 0.55395 4.1284 0.36571 1.1355 0.87322 2.0556 1.5167 2.7692 0.64351 0.71533 1.4189 1.2251 2.3302 1.5293 0.9122 0.30833 1.9131 0.46127 2.9995 0.46127 2.2117 0 4.0087-0.67669 5.3902-2.0235l-0.35493 0.84442z"
     fill="#4675ab"
     id="path2" />
</svg>
