<?xml version="1.0" encoding="UTF-8"?>
<svg width="64" height="64" version="1.1" viewBox="0 0 64 64" xmlns="http://www.w3.org/2000/svg" xmlns:cc="http://creativecommons.org/ns#" xmlns:dc="http://purl.org/dc/elements/1.1/" xmlns:rdf="http://www.w3.org/1999/02/22-rdf-syntax-ns#" xmlns:xlink="http://www.w3.org/1999/xlink">
 <metadata>
  <rdf:RDF>
   <cc:Work rdf:about="">
    <dc:format>image/svg+xml</dc:format>
    <dc:type rdf:resource="http://purl.org/dc/dcmitype/StillImage"/>
    <dc:title/>
   </cc:Work>
  </rdf:RDF>
 </metadata>
 <defs>
  <linearGradient id="a-3" x1="32" x2="32" y1="2" y2="62" gradientTransform="translate(-92.465 55.564)" gradientUnits="userSpaceOnUse">
   <stop stop-color="#f5faff" offset="0"/>
   <stop stop-color="#cfdef0" offset="1"/>
  </linearGradient>
  <linearGradient id="linearGradient1112" x1="32" x2="32" y1="2" y2="62" gradientTransform="translate(-92.465 55.564)" gradientUnits="userSpaceOnUse" xlink:href="#a-3"/>
  <linearGradient id="linearGradient1121" x1="43.636" x2="48.578" y1="27.041" y2="59.201" gradientTransform="translate(-92.465 55.564)" gradientUnits="userSpaceOnUse">
   <stop stop-color="#336EFF" offset="0"/>
   <stop stop-color="#954FFF" offset="1"/>
  </linearGradient>
  <linearGradient id="linearGradient1142" x1="37.855" x2="29.338" y1="28.607" y2="64.366" gradientTransform="translate(-92.465 55.564)" gradientUnits="userSpaceOnUse">
   <stop stop-color="#523DFF" offset="0"/>
   <stop stop-color="#A717FF" offset="1"/>
  </linearGradient>
  <linearGradient id="linearGradient1159" x1="45.565" x2="65.707" y1="20.137" y2="59.16" gradientTransform="translate(-92.465 55.564)" gradientUnits="userSpaceOnUse">
   <stop stop-color="#A05FF8" offset="0"/>
   <stop stop-color="#0BDCFF" offset="1"/>
  </linearGradient>
 </defs>
 <g transform="translate(92.718 -54.751)">
  <circle cx="-60.718" cy="86.751" r="30" fill="url(#linearGradient1112)" style="paint-order:stroke markers fill"/>
  <path d="m-33.688 73.734c-2.0047-1.1164-4.0114-2.105-5.9941-2.7891-2.2864-0.78884-4.5462-1.3074-6.7578-1.5938-2.2116-0.28634-4.3748-0.3398-6.4629-0.20117-2.0881 0.13863-4.1018 0.46902-6.0176 0.95508s-3.733 1.1269-5.4277 1.8828c-1.6947 0.75595-3.2665 1.6279-4.6914 2.5762-1.4249 0.94831-2.7023 1.974-3.8086 3.0371-1.0773 1.0353-1.9794 2.1061-2.709 3.1777 0.99738-0.37954 2.0312-0.66431 3.0859-0.84961 1.0609-0.18637 2.143-0.27143 3.2324-0.25 1.0895 0.02143 2.1869 0.1481 3.2754 0.38867 1.0885 0.24057 2.1686 0.5934 3.2266 1.0645 1.0605 0.47217 2.0481 1.0415 2.957 1.6914 0.90891 0.64987 1.7385 1.3819 2.4844 2.1797s1.4071 1.6621 1.9785 2.5781c0.57143 0.91599 1.0539 1.8823 1.4395 2.8867s0.67502 2.0463 0.86328 3.1094c0.18826 1.0631 0.27437 2.1483 0.25391 3.2402-0.02046 1.092-0.14807 2.1901-0.38867 3.2813-0.2406 1.0911-0.59423 2.1739-1.0664 3.2344-0.47217 1.0605-1.0396 2.0481-1.6895 2.957-0.64987 0.90891-1.3819 1.7404-2.1797 2.4863-0.79781 0.74589-1.6621 1.4071-2.5781 1.9785-0.91599 0.57143-1.8843 1.0519-2.8887 1.4375s-2.0443 0.67697-3.1074 0.86523c-1.0631 0.18827-2.1483 0.27437-3.2402 0.25391-1.092-0.0205-2.1901-0.14807-3.2812-0.38867-1.0911-0.24061-2.1758-0.59424-3.2363-1.0664-0.84114-0.3745-1.6352-0.80888-2.3809-1.2969-0.06598-7e-3 -0.15439-0.0316-0.2207-0.0391a30 30 0 0 0 18.299 6.2285 30 30 0 0 0 30-30 30 30 0 0 0-2.9688-13.016z" fill="url(#linearGradient1159)" style="paint-order:stroke markers fill"/>
  <path d="m-32.453 96.805c-0.17423-0.64664-0.29178-1.5334-0.47461-2.0703-0.62611-1.8388-1.456-3.68-2.5176-5.4531-1.0616-1.7731-2.3544-3.4788-3.9043-5.0469s-3.3582-2.9988-5.4492-4.2227c-1.0455-0.61192-2.1609-1.1721-3.3516-1.6719s-2.4563-0.93845-3.7988-1.3086-2.6611-0.6449-3.9473-0.83398c-1.2862-0.18909-2.5401-0.29252-3.7559-0.32227-1.7541-0.04292-3.427 0.06939-4.998 0.30273-1.571 0.23335-3.0394 0.58727-4.3867 1.0312-1.3473 0.44398-2.5734 0.97742-3.6562 1.5664s-2.0231 1.234-2.8008 1.9023c-0.0244 0.03527-0.05217 0.0702-0.07617 0.10547 1.0025-0.38244 2.0409-0.66938 3.1016-0.85547 1.0606-0.18608 2.1432-0.27159 3.2324-0.25 1.0892 0.02159 2.1852 0.15004 3.2734 0.39062 1.0882 0.24058 2.1689 0.59356 3.2266 1.0645 1.0605 0.47217 2.0481 1.0415 2.957 1.6914 0.90889 0.64986 1.7385 1.3799 2.4844 2.1777s1.4071 1.6621 1.9785 2.5781c0.57138 0.91598 1.0539 1.8843 1.4395 2.8887s0.67507 2.0444 0.86328 3.1074c0.18821 1.0631 0.2744 2.1483 0.25391 3.2402-0.0205 1.092-0.14804 2.1921-0.38867 3.2832-0.24063 1.0911-0.59423 2.1739-1.0664 3.2344-0.47217 1.0605-1.0415 2.0481-1.6914 2.957-0.64986 0.90894-1.3799 1.7384-2.1777 2.4844s-1.6621 1.409-2.5781 1.9805-1.8843 1.0519-2.8887 1.4375c-1.0044 0.38563-2.0444 0.67495-3.1074 0.86328s-2.1483 0.27627-3.2402 0.25586c-1.092-0.0204-2.1921-0.1481-3.2832-0.38867-1.0911-0.24058-2.1739-0.59424-3.2344-1.0664-0.84114-0.3745-1.6352-0.80888-2.3809-1.2969-0.06598-7e-3 -0.15439-0.0316-0.2207-0.0391a30 30 0 0 0 18.299 6.2286 30 30 0 0 0 28.266-19.945z" fill="url(#linearGradient1121)" style="paint-order:stroke markers fill"/>
  <g fill="url(#linearGradient1112)">
   <path d="m-75.57 80.783c-0.0013 5.14e-4 -0.0026 0.0014-0.0039 2e-3l-0.05469 0.08008c0.01835-0.02733 0.04-0.0547 0.05859-0.08203z" style="paint-order:stroke markers fill"/>
   <path d="m-75.57 80.783c-0.0013 5.14e-4 -0.0026 0.0014-0.0039 2e-3l-0.05469 0.08008c0.01835-0.02733 0.04-0.0547 0.05859-0.08203z" style="paint-order:stroke markers fill"/>
   <path d="m-75.148 113.05a30 30 0 0 1-0.40039-0.22461 30 30 0 0 0-2e-3 0 30 30 0 0 0 0.40234 0.22461z" style="paint-order:stroke markers fill"/>
   <path d="m-73.088 114.08a30 30 0 0 1-0.41797-0.19336 30 30 0 0 1-0.41602-0.19922 30 30 0 0 0 0.83398 0.39258z" style="paint-order:stroke markers fill"/>
   <path d="m-49.484 114.57a30 30 0 0 0-2e-3 0 30 30 0 0 1-0.42773 0.16992 30 30 0 0 0 0.42969-0.16992z" style="paint-order:stroke markers fill"/>
  </g>
  <path d="m-47.482 113.67c1.1286-1.9832 1.9705-3.9746 2.5547-5.9004 0.58416-1.9258 0.91058-3.786 1.0117-5.5059 0.12151-2.0664-0.04219-4.1295-0.50195-6.1387-0.45977-2.0092-1.2153-3.9654-2.2793-5.8164-1.064-1.851-2.4358-3.5976-4.127-5.1895-0.84556-0.79591-1.7707-1.5515-2.7773-2.2637-1.0066-0.71218-2.095-1.3803-3.2656-1.9961-1.7559-0.92375-3.4832-1.5616-5.1582-1.9629-1.675-0.4013-3.2976-0.56604-4.8418-0.54492-1.6312 0.02231-3.1732 0.25353-4.5996 0.63281s-2.7374 0.90662-3.9062 1.5215c-0.06519 0.09182-0.13478 0.18354-0.19726 0.27539 1.0025-0.38244 2.0409-0.66938 3.1016-0.85547 1.0606-0.18608 2.1432-0.27159 3.2324-0.25 1.0892 0.02159 2.1852 0.15004 3.2734 0.39062 1.0882 0.24058 2.1689 0.59356 3.2266 1.0645 1.0605 0.47217 2.0481 1.0415 2.957 1.6914 0.90889 0.64986 1.7385 1.3799 2.4844 2.1777 0.74584 0.7978 1.4071 1.6621 1.9785 2.5781 0.57138 0.91598 1.0539 1.8843 1.4395 2.8887s0.67507 2.0444 0.86328 3.1074 0.2744 2.1483 0.25391 3.2402c-0.0205 1.092-0.14804 2.1921-0.38867 3.2832-0.24063 1.0911-0.59423 2.1739-1.0664 3.2344-0.47217 1.0605-1.0415 2.0481-1.6914 2.957-0.64986 0.90894-1.3799 1.7384-2.1777 2.4844s-1.6621 1.409-2.5781 1.9805-1.8843 1.0519-2.8887 1.4375c-1.0044 0.38563-2.0444 0.67495-3.1074 0.86328s-2.1483 0.27627-3.2402 0.25586c-1.092-0.0204-2.1921-0.1481-3.2832-0.38867-1.0911-0.24058-2.1739-0.59424-3.2344-1.0664-0.84114-0.3745-1.6352-0.80888-2.3809-1.2969-0.06596-7e-3 -0.13681-0.0179-0.20312-0.0254a30 30 0 0 0 0.36719 0.27734 30 30 0 0 0 0.74805 0.53906 30 30 0 0 0 0.35156 0.24219 30 30 0 0 0 0.08984 0.0606 30 30 0 0 0 0.32031 0.21289 30 30 0 0 0 0.38867 0.24804 30 30 0 0 0 0.46289 0.28711 30 30 0 0 0 0.32226 0.19336 30 30 0 0 0 0.39844 0.23047 30 30 0 0 0 2e-3 0 30 30 0 0 0 0.40039 0.22461 30 30 0 0 0 0.40625 0.21875 30 30 0 0 0 0.54297 0.28125 30 30 0 0 0 0.27734 0.13672 30 30 0 0 0 0.41602 0.19922 30 30 0 0 0 0.41797 0.19336 30 30 0 0 0 0.53516 0.23633 30 30 0 0 0 0.30859 0.13086 30 30 0 0 0 0.38867 0.1582 30 30 0 0 0 0.55469 0.21484 30 30 0 0 0 0.31055 0.11524 30 30 0 0 0 2.3301 0.74218 30 30 0 0 0 0.28711 0.0781 30 30 0 0 0 0.57812 0.14648 30 30 0 0 0 0.37109 0.0879 30 30 0 0 0 0.44922 0.0996 30 30 0 0 0 0.9043 0.17774 30 30 0 0 0 0.44726 0.0781 30 30 0 0 0 0.99414 0.14844 30 30 0 0 0 0.38086 0.0469 30 30 0 0 0 0.45703 0.0508 30 30 0 0 0 0.36524 0.0351 30 30 0 0 0 0.55273 0.0449 30 30 0 0 0 0.45898 0.0293 30 30 0 0 0 0.43945 0.0215 30 30 0 0 0 0.79688 0.0234 30 30 0 0 0 0.14453 2e-3 30 30 0 0 0 0.31445 2e-3 30 30 0 0 0 0.43555-4e-3 30 30 0 0 0 0.54297-0.0117 30 30 0 0 0 0.2832-0.0117 30 30 0 0 0 0.58008-0.0293 30 30 0 0 0 0.31641-0.0215 30 30 0 0 0 1.1191-0.10157 30 30 0 0 0 0.39844-0.0469 30 30 0 0 0 0.91211-0.12696 30 30 0 0 0 0.45508-0.0742 30 30 0 0 0 0.45312-0.0801 30 30 0 0 0 0.41797-0.082 30 30 0 0 0 0.98828-0.21485 30 30 0 0 0 0.39258-0.0957 30 30 0 0 0 0.42773-0.11133 30 30 0 0 0 0.04102-0.01 30 30 0 0 0 0.42188-0.11719 30 30 0 0 0 0.44141-0.12891 30 30 0 0 0 0.28125-0.0859 30 30 0 0 0 1.0332-0.34179 30 30 0 0 0 0.43359-0.15625 30 30 0 0 0 0.42969-0.16211 30 30 0 0 0 0.42773-0.16992 30 30 0 0 0 2e-3 0 30 30 0 0 0 0.42578-0.17579 30 30 0 0 0 0.40234-0.17382 30 30 0 0 0 0.43945-0.19727 30 30 0 0 0 0.37891-0.17578 30 30 0 0 0 0.35547-0.17187z" fill="url(#linearGradient1142)" style="paint-order:stroke markers fill"/>
  <path d="m-75.557 80.779c-0.0058 0.0022-0.01181 0.0037-0.01758 0.0059l-0.05469 0.08008c0.01935-0.02881 0.05265-0.05712 0.07227-0.08594z" fill="url(#linearGradient1112)" style="paint-order:stroke markers fill"/>
 </g>
</svg>
