<?xml version="1.0" encoding="UTF-8"?>
<!-- Created with Inkscape (http://www.inkscape.org/) -->
<svg width="64" height="64" version="1.1" viewBox="0 0 16.933 16.933" xmlns="http://www.w3.org/2000/svg">
 <defs>
  <linearGradient id="linearGradient113420" x1=".73911" x2="16.388" y1="16.296" y2=".64687" gradientTransform="matrix(1 0 0 1 15.728 11.855)" gradientUnits="userSpaceOnUse">
   <stop stop-color="#00a0ff" offset="0"/>
   <stop stop-color="#37beff" offset="1"/>
  </linearGradient>
  <filter id="filter5339-3" x="-.1891" y="-.079887" width="1.3782" height="1.1598" color-interpolation-filters="sRGB">
   <feGaussianBlur stdDeviation="0.21156371"/>
  </filter>
  <linearGradient id="linearGradient113422" x1="63.287" x2="65.972" y1="22.316" y2="22.316" gradientTransform="matrix(1.6734 0 0 1.6734 -79.076 -17.027)" gradientUnits="userSpaceOnUse">
   <stop stop-color="#faffff" offset="0"/>
   <stop stop-color="#fff" offset="1"/>
  </linearGradient>
  <linearGradient id="linearGradient113424" x1="86" x2="63" y1="19.458" y2="39" gradientTransform="matrix(.44276 0 0 .44276 -10.306 6.1496)" gradientUnits="userSpaceOnUse">
   <stop stop-color="#99daff" offset="0"/>
   <stop stop-color="#f0faff" offset="1"/>
  </linearGradient>
  <linearGradient id="linearGradient113426" x1="87" x2="63" y1="46" y2="24" gradientTransform="matrix(.44276 0 0 .44276 -10.306 6.1496)" gradientUnits="userSpaceOnUse">
   <stop stop-color="#cef" offset="0"/>
   <stop stop-color="#ebf5fa" offset=".46709"/>
   <stop stop-color="#f0f5ff" offset="1"/>
  </linearGradient>
 </defs>
 <g transform="translate(-15.403 -11.849)">
  <path d="m32.167 20.315c0 0.95156-0.16749 1.8638-0.47465 2.7096-0.2135 0.58769-0.4944 1.1433-0.83395 1.6572-0.14222 0.21608-0.29514 0.42476-0.45747 0.6253-0.51966 0.6418-1.1372 1.2007-1.8304 1.6543-0.2553 0.16717-0.52066 0.32011-0.79538 0.45713-1.0668 0.5339-2.2711 0.83424-3.5458 0.83424-1.2745 0-2.4788-0.30034-3.5458-0.83426-0.27474-0.13705-0.54041-0.28998-0.79573-0.45713-0.70207-0.45974-1.327-1.0274-1.8508-1.6798-0.16262-0.20216-0.31525-0.41276-0.45747-0.63078-0.33048-0.5054-0.60422-1.0507-0.81352-1.627-0.30712-0.84531-0.47431-1.7572-0.47431-2.7086 0-4.3839 3.5538-7.9377 7.9377-7.9377 2.2005 0 4.1918 0.8955 5.6296 2.3416 0.41437 0.41663 0.78276 0.87931 1.0963 1.3795 0.29646 0.47109 0.54428 0.97584 0.73706 1.5068 0.3072 0.84561 0.47467 1.7579 0.47467 2.7096z" fill="url(#linearGradient113420)" stroke-width=".031008"/>
  <g fill-rule="evenodd">
   <g stroke-width=".26458">
    <path transform="matrix(1.5907 0 0 1.6781 -73.968 -17.133)" d="m63.643 18.096c-0.09052 0.0101-0.17861 0.04111-0.26664 0.09922 0.13772 0.17144-0.1403 1.7855 0.20785 2.004l0.2717 0.17053v3.8922l-0.42679 0.31977c-0.32895 0.24647 0.02978 1.6662-0.05651 1.8488 0.09533 0.05818 0.23775 0.12029 0.36237 0.10514 0.03992-0.0049 0.08033-0.01602 0.1204-0.03566l1.7368-0.85162c0.18929-0.09277 0.38033-0.16953 0.38033-0.38033v-5.9043c0-0.2108-0.19104-0.28757-0.38033-0.38033l-1.7368-0.85162c-0.04007-0.01964-0.08048-0.0308-0.1204-0.03566-0.03116-0.0038-0.06181-0.0034-0.09198 0z" filter="url(#filter5339-3)" opacity=".2" style="paint-order:stroke fill markers"/>
    <path transform="matrix(1.5907 0 0 1.6781 -73.968 -17.133)" d="m57.616 23.498 5.6511-5.2228c0.25656-0.23712 0.58887-0.15304 0.58887 0.33742v1.7579l-5.2244 3.9957c-0.09136 0.07175-0.32943 0.24313-0.53715 0.04563l-0.52855-0.50251c-0.1387-0.13187-0.05988-0.30961 0.0501-0.41126z" filter="url(#filter5339-3)" opacity=".2" style="paint-order:stroke fill markers"/>
    <path transform="matrix(1.5907 0 0 1.6781 -73.968 -17.133)" d="m57.616 21.132 5.6511 5.2228c0.25656 0.23712 0.58887 0.15304 0.58887-0.33742v-1.7579l-5.2244-3.9957c-0.09136-0.07175-0.32943-0.24313-0.53715-0.04563l-0.52855 0.50251c-0.1387 0.13186-0.05988 0.30961 0.0501 0.41126z" filter="url(#filter5339-3)" opacity=".2" style="paint-order:stroke fill markers"/>
   </g>
   <g stroke-width=".44276">
    <path d="m27.427 13.255c-0.15148 0.0169-0.2989 0.06879-0.44621 0.16604 0.23046 0.2869-0.23478 2.988 0.34783 3.3536l0.45468 0.28538v6.5134l-0.71421 0.53512c-0.55048 0.41245 0.04983 2.7883-0.09456 3.0939 0.15953 0.09736 0.39786 0.2013 0.6064 0.17594 0.0668-0.0082 0.13442-0.02681 0.20148-0.05967l2.9065-1.4251c0.31677-0.15524 0.63646-0.2837 0.63646-0.63646v-9.8805c0-0.35277-0.3197-0.48123-0.63646-0.63646l-2.9065-1.4251c-0.06705-0.03287-0.13468-0.05154-0.20148-0.05968-0.05214-0.0064-0.10343-0.0057-0.15392 0z" fill="url(#linearGradient113422)" style="paint-order:stroke fill markers"/>
    <path d="m17.341 22.296 9.4568-8.7401c0.42934-0.39681 0.98544-0.2561 0.98544 0.56465v2.9418l-8.7428 6.6866c-0.15288 0.12007-0.55128 0.40687-0.89889 0.07636l-0.8845-0.84092c-0.2321-0.22067-0.1002-0.51811 0.08384-0.68822z" fill="url(#linearGradient113424)" style="paint-order:stroke fill markers"/>
    <path d="m17.341 18.336 9.4568 8.7401c0.42934 0.39681 0.98544 0.2561 0.98544-0.56465v-2.9418l-8.7428-6.6866c-0.15288-0.12007-0.55128-0.40687-0.89889-0.07636l-0.8845 0.84093c-0.2321 0.22066-0.1002 0.51811 0.08384 0.68822z" fill="url(#linearGradient113426)" style="paint-order:stroke fill markers"/>
   </g>
  </g>
 </g>
</svg>
