<?xml version="1.0" encoding="UTF-8"?>
<!-- Created with Inkscape (http://www.inkscape.org/) -->
<svg width="64" height="64" version="1.1" viewBox="0 0 16.933 16.933" xmlns="http://www.w3.org/2000/svg" xmlns:xlink="http://www.w3.org/1999/xlink">
 <defs>
  <linearGradient id="linearGradient1666" x1="77.279" x2="132.15" y1="4.7362" y2="58.936" gradientTransform="matrix(.26458 0 0 .26458 -19.324 0)" gradientUnits="userSpaceOnUse">
   <stop stop-color="#ffeb37" offset="0"/>
   <stop stop-color="#fdc31c" offset="1"/>
  </linearGradient>
 </defs>
 <path d="m2.4029 1.1906c-0.60632 0-1.2123 0.6065-1.2123 1.2128v4.2441c0 0.60632 0.60598 1.2128 1.2123 1.2128s1.2128-0.6065 1.2128-1.2128v-1.819l1.2128 1.2128v1.819h1.819v-0.60667c-0.0188-0.4026 0.18233-0.60373 0.60615-0.60615h0.60615v-1.819h-1.819l-1.2123-1.2128h1.819c0.60633 0 1.2123-0.60598 1.2123-1.2123 0-0.60633-0.60598-1.2128-1.2123-1.2128zm7.8826 0c-0.60633 0-1.2128 0.6065-1.2128 1.2128 0 0.60632 0.6065 1.2123 1.2128 1.2123h1.819l-1.2128 1.2128h-1.819v1.819h0.60615c0.4026-0.01879 0.60424 0.18233 0.60667 0.60615v0.60667h1.819v-1.819l1.2123-1.2128v1.819c0 0.60632 0.6065 1.2128 1.2128 1.2128 0.60632 0 1.2128-0.6065 1.2128-1.2128v-4.2441c0-0.60633-0.6065-1.2128-1.2128-1.2128zm-5.4569 7.8821v1.819c0 0.60632 0.60598 1.2128 1.2123 1.2128h1.819v-1.819h-0.60615c-0.4026 0.0188-0.60373-0.18233-0.60615-0.60615v-0.60667zm5.4569 0v0.60667c0.01879 0.4026-0.18285 0.60373-0.60667 0.60615h-0.60615v1.819h1.819l1.2128 1.2128h-1.819c-0.60633 0-1.2128 0.60598-1.2128 1.2123s0.6065 1.2128 1.2128 1.2128h4.2441c0.60632 0 1.2128-0.6065 1.2128-1.2128v-4.2441c0-0.60632-0.6065-1.2128-1.2128-1.2128-0.60633 0-1.2128 0.6065-1.2128 1.2128v1.819l-1.2123-1.2128v-1.819z" fill="url(#linearGradient1666)"/>
</svg>
