<?xml version="1.0" encoding="UTF-8"?>
<!-- Created with Inkscape (http://www.inkscape.org/) -->
<svg width="64" height="64" version="1.1" viewBox="0 0 16.933 16.933" xmlns="http://www.w3.org/2000/svg">
 <defs>
  <linearGradient id="linearGradient2323" x1=".73911" x2="16.388" y1="16.296" y2=".64687" gradientTransform="matrix(.99998 0 0 .99998 27.862 17.827)" gradientUnits="userSpaceOnUse">
   <stop stop-color="#5a00a0" offset="0"/>
   <stop stop-color="#8c05eb" offset="1"/>
  </linearGradient>
 </defs>
 <g transform="translate(-27.897 -17.82)">
  <path d="m44.301 26.286c0 0.95152-0.16749 1.8638-0.47463 2.7094-0.2135 0.58767-0.49438 1.1433-0.83391 1.6572-0.14222 0.21608-0.29514 0.42474-0.45745 0.62528-0.51964 0.64178-1.1372 1.2007-1.8304 1.6543-0.25529 0.16717-0.52064 0.32009-0.79535 0.45711-1.0668 0.53388-2.2711 0.8342-3.5456 0.8342s-2.4788-0.30032-3.5456-0.83422c-0.27473-0.13705-0.54039-0.28996-0.79569-0.45711-0.70205-0.45972-1.327-1.0274-1.8508-1.6798-0.16262-0.20216-0.31523-0.41274-0.45745-0.63076-0.33046-0.50538-0.6042-1.0507-0.81348-1.627-0.3071-0.84527-0.47429-1.7572-0.47429-2.7084 0-4.3837 3.5536-7.9373 7.9373-7.9373 2.2005 0 4.1916 0.89546 5.6294 2.3416 0.41435 0.41661 0.78273 0.87927 1.0963 1.3795 0.29644 0.47107 0.54426 0.9758 0.73703 1.5068 0.30718 0.84557 0.47465 1.7579 0.47465 2.7094z" fill="url(#linearGradient2323)" stroke-width=".031006"/>
  <path d="m40.243 22.479-3.5912 2.17e-4 3.4e-5 1.843a1.9873 1.9873 0 0 1 1.6845 1.7477l1.9069-1.37e-4zm-4.1689 1.5e-5 -3.5912 2.18e-4 5.73e-4 3.5913 1.9047-8.2e-5a1.9873 1.9873 0 0 1 0.47219-1.0819l0.57211 0.62245a1.1515 1.1515 0 0 0-0.19834 0.45927l0.84022-3.3e-5 -1.29e-4 -0.8966a1.1515 1.1515 0 0 0-0.22771 0.08593l-0.57742-0.62856a1.9873 1.9873 0 0 1 0.80522-0.30928zm0.58005 2.6936a1.1515 1.1515 0 0 0-0.0022-2.78e-4l1.64e-4 0.89773 0.84104-1.67e-4a1.1515 1.1515 0 0 0-0.83902-0.89727zm3.5892 1.3306-1.9055 1.96e-4a1.9873 1.9873 0 0 1-1.6855 1.7493l2.6e-5 1.8419 3.5912-2.18e-4zm-2.7506 2.76e-4 -0.84058-7.3e-5 1.28e-4 0.8966a1.1515 1.1515 0 0 0 0.84044-0.8965zm-1.4184 6.7e-5 -0.84068 2.74e-4a1.1515 1.1515 0 0 0 0.84081 0.89747zm-1.6842 8.2e-5 -1.9066 2.31e-4 3.25e-4 3.5908 3.5908-3.25e-4 -3.4e-5 -1.843a1.9873 1.9873 0 0 1-1.6845-1.7477z" fill="#f9f9f9" stroke-width=".41233"/>
 </g>
</svg>
