<?xml version="1.0" encoding="UTF-8"?>
<svg width="64" height="64" version="1" xmlns="http://www.w3.org/2000/svg" xmlns:cc="http://creativecommons.org/ns#" xmlns:dc="http://purl.org/dc/elements/1.1/" xmlns:rdf="http://www.w3.org/1999/02/22-rdf-syntax-ns#">
 <metadata>
  <rdf:RDF>
   <cc:Work rdf:about="">
    <dc:format>image/svg+xml</dc:format>
    <dc:type rdf:resource="http://purl.org/dc/dcmitype/StillImage"/>
   </cc:Work>
  </rdf:RDF>
 </metadata>
 <path d="m54.108 6.3877a5.3921 5.3921 0 0 0-5.3921 5.3921 5.3921 5.3921 0 0 0 0.25275 1.6218l-9.2571 10.152a10.784 10.784 0 0 0-4.4758-0.98995 10.784 10.784 0 0 0-10.774 10.431l-13.085 1.864c-0.72953-0.93004-1.8457-1.4736-3.0278-1.4744-2.1274 0.0012-3.8509 1.7271-3.8492 3.8545 0.0012 2.1253 1.7239 3.848 3.8492 3.8492 1.5704-8.57e-4 2.9831-0.9551 3.5701-2.4117l13.112-1.8746a10.784 10.784 0 0 0 10.205 7.3298 10.784 10.784 0 0 0 10.784-10.784 10.784 10.784 0 0 0-1.8851-6.0871l9.2465-10.147a5.3921 5.3921 0 0 0 0.72666 0.05792 5.3921 5.3921 0 0 0 5.3921-5.3921 5.3921 5.3921 0 0 0-5.3921-5.3921zm-31.004 2.696a4.044 4.044 0 0 0-4.044 4.044 4.044 4.044 0 0 0 4.044 4.044 4.044 4.044 0 0 0 4.044-4.044 4.044 4.044 0 0 0-4.044-4.044zm31.004 0a2.696 2.696 0 0 1 2.696 2.696 2.696 2.696 0 0 1-2.696 2.696 2.696 2.696 0 0 1-2.696-2.696 2.696 2.696 0 0 1 2.696-2.696zm-27.339 7.472-1.9957 1.4691 1.3375 1.9114 1.9957-1.4744zm1.9957 2.854-1.9904 1.4744 1.7535 2.5117 1.9957-1.4744zm6.4715 8.5462a5.3921 5.3921 0 0 1 5.3921 5.3921 5.3921 5.3921 0 0 1-5.3921 5.3921 5.3921 5.3921 0 0 1-5.3921-5.3921 5.3921 5.3921 0 0 1 5.3921-5.3921zm-26.887 7.3562c1.0647-8.33e-4 1.9281 0.86251 1.9272 1.9272 8.33e-4 1.0647-0.86251 1.9281-1.9272 1.9272-1.0627-2e-3 -1.9228-0.86456-1.922-1.9272-8.31e-4 -1.0627 0.8593-1.9252 1.922-1.9272zm36.233 5.055-1.8798 1.8798 2.4275 2.438 1.8904-1.8904zm3.3121 3.3068-1.8851 1.8851 2.8171 2.8119 1.8798-1.8798zm-17.398 0.28961-1.6798 4.1967 2.4117 0.84251 1.6745-4.1915zm22.937 2.8645a4.718 4.718 0 0 0-4.718 4.718 4.718 4.718 0 0 0 4.718 4.718 4.718 4.718 0 0 0 4.718-4.718 4.718 4.718 0 0 0-4.718-4.718zm-24.938 2.696a4.044 4.044 0 0 0-4.044 4.044 4.044 4.044 0 0 0 4.044 4.044 4.044 4.044 0 0 0 4.044-4.044 4.044 4.044 0 0 0-4.044-4.044z" fill="#4c459c" stroke-width="1.348"/>
</svg>
