<?xml version="1.0" encoding="UTF-8" standalone="no"?>
<svg
   xmlns:dc="http://purl.org/dc/elements/1.1/"
   xmlns:cc="http://creativecommons.org/ns#"
   xmlns:rdf="http://www.w3.org/1999/02/22-rdf-syntax-ns#"
   xmlns:svg="http://www.w3.org/2000/svg"
   xmlns="http://www.w3.org/2000/svg"
   xmlns:sodipodi="http://sodipodi.sourceforge.net/DTD/sodipodi-0.dtd"
   xmlns:inkscape="http://www.inkscape.org/namespaces/inkscape"
   width="64"
   height="64"
   version="1"
   id="svg12"
   sodipodi:docname="warpinator.svg"
   inkscape:version="1.0.2 (e86c870879, 2021-01-15)">
  <metadata
     id="metadata18">
    <rdf:RDF>
      <cc:Work
         rdf:about="">
        <dc:format>image/svg+xml</dc:format>
        <dc:type
           rdf:resource="http://purl.org/dc/dcmitype/StillImage" />
        <dc:title></dc:title>
      </cc:Work>
    </rdf:RDF>
  </metadata>
  <defs
     id="defs16" />
  <sodipodi:namedview
     pagecolor="#ffffff"
     bordercolor="#666666"
     borderopacity="1"
     objecttolerance="10"
     gridtolerance="10"
     guidetolerance="10"
     inkscape:pageopacity="0"
     inkscape:pageshadow="2"
     inkscape:window-width="1920"
     inkscape:window-height="935"
     id="namedview14"
     showgrid="false"
     inkscape:zoom="8.5626212"
     inkscape:cx="25.757401"
     inkscape:cy="40.431785"
     inkscape:window-x="0"
     inkscape:window-y="38"
     inkscape:window-maximized="1"
     inkscape:current-layer="svg12" />
  <path
     style="fill:#4c459c;fill-opacity:1;stroke-width:1.34801"
     d="M 54.107947,6.3877455 A 5.3920535,5.3920535 0 0 0 48.715893,11.7798 5.3920535,5.3920535 0 0 0 48.968646,13.401628 L 39.711584,23.553855 A 10.784107,10.784107 0 0 0 35.235759,22.563907 10.784107,10.784107 0 0 0 24.462183,32.995214 l -13.085208,1.864049 c -0.729534,-0.93004 -1.8457329,-1.47358 -3.0277629,-1.474389 -2.127401,0.0012 -3.850873,1.727074 -3.849211,3.854474 0.0012,2.125345 1.723865,3.847966 3.849211,3.849212 1.570429,-8.57e-4 2.9830589,-0.955105 3.5701279,-2.411682 l 13.111537,-1.87458 a 10.784107,10.784107 0 0 0 10.204882,7.329823 10.784107,10.784107 0 0 0 10.784107,-10.784107 10.784107,10.784107 0 0 0 -1.885113,-6.087122 l 9.246531,-10.14696 a 5.3920535,5.3920535 0 0 0 0.726663,0.05792 A 5.3920535,5.3920535 0 0 0 59.5,11.779799 5.3920535,5.3920535 0 0 0 54.107947,6.3877455 Z m -31.004308,2.696027 a 4.0440399,4.0440399 0 0 0 -4.04404,4.0440405 4.0440399,4.0440399 0 0 0 4.04404,4.04404 4.0440399,4.0440399 0 0 0 4.04404,-4.04404 4.0440399,4.0440399 0 0 0 -4.04404,-4.0440405 z m 31.004308,0 A 2.6960268,2.6960268 0 0 1 56.803973,11.7798 2.6960268,2.6960268 0 0 1 54.107947,14.475826 2.6960268,2.6960268 0 0 1 51.41192,11.7798 2.6960268,2.6960268 0 0 1 54.107947,9.0837725 Z m -27.339397,7.4719955 -1.995691,1.469124 1.33748,1.911443 1.995694,-1.47439 z m 1.995691,2.853998 -1.990425,1.474389 1.753471,2.511729 1.995691,-1.474389 z m 6.471518,8.546194 a 5.3920535,5.3920535 0 0 1 5.392054,5.392054 5.3920535,5.3920535 0 0 1 -5.392054,5.392053 5.3920535,5.3920535 0 0 1 -5.392053,-5.392053 5.3920535,5.3920535 0 0 1 5.392053,-5.392054 z M 8.3492121,35.312112 c 1.064727,-8.33e-4 1.9280669,0.862508 1.9272369,1.927236 8.33e-4,1.064729 -0.8625089,1.928072 -1.9272369,1.927239 -1.062673,-0.002 -1.922805,-0.864565 -1.921973,-1.927239 -8.31e-4,-1.062671 0.859301,-1.92516 1.921973,-1.927236 z m 36.2331249,5.05505 -1.879848,1.879846 2.427478,2.438008 1.890379,-1.890378 z m 3.312109,3.306844 -1.88511,1.885114 2.817137,2.811872 1.879845,-1.879848 z m -17.397795,0.289613 -1.679751,4.196746 2.411679,0.842508 1.674486,-4.19148 z m 22.937289,2.864528 a 4.7180463,4.7180463 0 0 0 -4.718047,4.718047 4.7180463,4.7180463 0 0 0 4.718047,4.718047 4.7180463,4.7180463 0 0 0 4.718047,-4.718047 4.7180463,4.7180463 0 0 0 -4.718047,-4.718047 z m -24.938248,2.696027 a 4.0440399,4.0440399 0 0 0 -4.04404,4.04404 4.0440399,4.0440399 0 0 0 4.04404,4.044041 4.0440399,4.0440399 0 0 0 4.04404,-4.044041 4.0440399,4.0440399 0 0 0 -4.04404,-4.04404 z"
     id="path8" />
  <path
     style="opacity:0.1;fill:#ffffff"
     d="M 20.800781 4 C 11.493581 4 4 11.493581 4 20.800781 L 4 21.800781 C 4 12.493581 11.493581 5 20.800781 5 L 43.199219 5 C 52.506419 5 60 12.493581 60 21.800781 L 60 20.800781 C 60 11.493581 52.506419 4 43.199219 4 L 20.800781 4 z"
     id="path10" />
</svg>
