<?xml version="1.0" encoding="UTF-8"?>
<!-- Created with Inkscape (http://www.inkscape.org/) -->
<svg width="64" height="64" version="1.1" viewBox="0 0 16.933 16.933" xmlns="http://www.w3.org/2000/svg">
 <defs>
  <linearGradient id="linearGradient1005-3-3" x1="5.2535" x2="9.3824" y1="15.383" y2="2.9421" gradientTransform="matrix(.99997 0 0 .99997 19.625 14.585)" gradientUnits="userSpaceOnUse">
   <stop stop-color="#fa8200" offset="0"/>
   <stop stop-color="#ff9600" offset=".36953"/>
   <stop stop-color="#ffb400" offset="1"/>
  </linearGradient>
  <filter id="b" x="-.064286" y="-.05625" width="1.1286" height="1.1125" color-interpolation-filters="sRGB">
   <feGaussianBlur stdDeviation="0.75"/>
  </filter>
 </defs>
 <g transform="translate(-19.66 -14.578)">
  <path d="m36.064 23.045c0 0.95153-0.16749 1.8638-0.47463 2.7093-0.2135 0.58768-0.49439 1.1433-0.83392 1.6572-0.14222 0.21608-0.29514 0.42475-0.45746 0.62528-0.51963 0.64179-1.1372 1.2007-1.8304 1.6542-0.25529 0.16717-0.52064 0.32009-0.79535 0.45711-1.0668 0.53389-2.2711 0.83419-3.5456 0.83419-1.2746 0-2.4788-0.30032-3.5456-0.83422-0.27474-0.13705-0.5404-0.28995-0.79569-0.45711-0.70206-0.45973-1.327-1.0274-1.8508-1.6798-0.16262-0.20216-0.31522-0.41274-0.45746-0.63075-0.33046-0.5054-0.60419-1.0507-0.81347-1.627-0.3071-0.84527-0.47428-1.7572-0.47428-2.7085 0-4.3838 3.5535-7.9373 7.9373-7.9373 2.2005 0 4.1917 0.89546 5.6294 2.3416 0.41436 0.4166 0.78273 0.87927 1.0963 1.3795 0.29643 0.47106 0.54426 0.97579 0.73704 1.5068 0.30718 0.84557 0.47465 1.7579 0.47465 2.7093z" fill="url(#linearGradient1005-3-3)" stroke-width=".031006"/>
  <path transform="matrix(.39687 0 0 .39687 -133.97 -184.87)" d="m421.26 507.8c0.65902 3e-5 1.0273 0.49696 1.1049 1.4908l-0.55245 4.6804h0.20353l0.43614-0.34669h0.11631v0.104c-0.60092 0.43918-1.1824 1.6411-1.7445 3.6056-0.21326 1.6873-0.57185 3.2474-1.0758 4.6804-0.44585 1.4792-0.66876 2.8429-0.66873 4.091l-0.84321 2.4615c-2e-5 0.20802 0.31981 0.41605 0.95951 0.62405-0.11633 0.48538-0.29078 0.72806-0.52337 0.72806v0.13868h0.20353v0.104c-2e-5 0.25425-0.32955 0.38137-0.98857 0.38136l0.11629 0.13869v0.48535h-0.20352c0.13566 0.4854 0.42642 0.72809 0.87227 0.72807v0.24269h-0.87227v0.13867c0.29073 0 0.43611 0.20803 0.43613 0.62406l-1.2212 0.48537 0.1163 0.13868v0.104c-3e-5 0.1618-0.1454 0.2427-0.43614 0.2427v0.13867c0.36826 0 0.55241 0.081 0.55244 0.24269-0.52338 0.20803-1.2115 1.2366-2.0644 3.0856-0.87228 1.641-1.6282 2.4615-2.2679 2.4615h-0.2326c-0.48462-0.36982-0.88198-1.5948-1.1921-3.675-1.2406-3.1665-1.8609-5.0271-1.8609-5.5818-1e-5 -1.433-0.39738-2.9584-1.1921-4.5764-0.21323-0.71647-0.35861-1.6179-0.43613-2.7042l-0.52337-0.13867c-1.3181 2.3807-2.0063 4.2413-2.0644 5.5818-0.36832 0.78586-0.65906 1.7335-0.87228 2.8429 0.79473 0.25426 1.1921 0.49693 1.1921 0.72805v0.13868c-0.62029-0.0925-1.0564-0.26579-1.3084-0.52004-0.27138 0.62406-0.62999 2.3575-1.0758 5.2004-0.34892 1.3174-0.78506 1.9762-1.3084 1.9762-1.4732-0.57783-2.7041-1.5254-3.6926-2.8429-0.15507 0-0.40707-0.65874-0.75597-1.9762-0.21323 0-0.35861-0.65873-0.43614-1.9762-0.73658-1.8722-1.2406-4.0101-1.5119-6.4139v-3.6056h-0.1163l-0.52338 0.13866v-0.13866c0-0.1618 0.17446-0.24268 0.52338-0.24269l-0.11631-2.0802v-1.6294l-0.8432-5.2004v-2.2189c0.3683-1.3867 1.008-2.0801 1.919-2.0802 0 0 0.081-5e-3 0.34893 0.34669l-0.34889-0.104c1.415 1.8491 2.2485 3.4092 2.5005 4.6804h0.98859v0.24269h-0.75598v0.27737c0.29076 1.0632 0.50398 1.5948 0.63966 1.5948h0.23261l0.52337-0.13869 0.1163 0.13869 0.1163-0.13869 0.11631 0.13869v0.104c-0.38768 0.27737-0.64936 0.65873-0.78505 1.1441h-0.0872v0.24268h0.20354c0.27137 3.8599 0.77534 6.7837 1.5119 8.7714l0.43615 0.34669h0.23259c0.29076 1e-5 0.90136-1.3521 1.8318-4.0563 0.6009-1.225 1.037-2.2997 1.3084-3.2242l-0.11631-0.38138c0.60089-0.90138 1.2212-1.3521 1.8608-1.3521h0.20353c0.40705 3e-5 0.69781 0.25427 0.87228 0.76272 0.54274 0.76276 0.97887 1.9069 1.3084 3.4323l1.6283 3.6056c0.21321 0.25427 0.31981 0.54318 0.31983 0.86675 0.60089 1.3637 1.1436 2.2651 1.6282 2.7042h0.34889c0.40705 0 0.94981-1.6872 1.6283-5.0618 0.11628 2e-5 0.4361-0.90139 0.95949-2.7042v-0.13868l-1.8318-0.2427-0.43614 0.13869h-0.55242v-0.27737l1.1049-0.104h2.1516c0.83348-2.9816 1.5991-5.2929 2.297-6.9339 0.23258-3.3745 0.55241-5.0617 0.95951-5.0618l1.3084-0.62405m-11.078 2.9816h0.31984v0.104c-2e-5 0.16182-0.10662 0.24272-0.31984 0.2427l-0.11629 0.13866v0.13869l-0.31985-0.13869v-0.24268l0.43614-0.24268m-1.6282 1.3521v0.13866c-1e-5 0.18494-0.46521 0.38141-1.3956 0.5894v-0.24269l0.63968-0.34671 0.11629 0.104h0.0872l0.55243-0.24269m-3.1402 1.2481v0.104c-0.40708 0.36984-1.0661 0.70498-1.9772 1.0054v-0.24269c0.15507 2e-5 0.23259-0.1271 0.2326-0.38136l1.7446-0.48538m5.5244 1.2134 0.11631 0.13868v0.104l-0.20353 0.27735h-0.1163l-0.23261-0.27735v-0.104l0.43613-0.13868m4.0125 0.13868h0.1163v0.104l-0.20353 0.27735h-0.1163v-0.13868l0.20353-0.24268m-1.8318 1.7335 0.43615 0.34669c-0.0775 0.25426-0.29079 0.38138-0.63968 0.38136l-0.2326-0.38136c-2e-5 -0.11554 0.14536-0.23111 0.43613-0.34669m2.6168 1.5948 0.0872 0.13868v0.104l-0.0872 0.13867h-0.23259v-0.13867l0.23259-0.24269m-4.1288 1.2481v0.104l-0.55244 0.52004h-0.31983v-0.13868c-2e-5 -0.208 0.29073-0.36978 0.87227-0.48537m-3.8089 10.609h0.11629v0.24269l-0.87227 0.52005-0.1163-0.13868v-0.24269l0.87228-0.38137m-0.31985 3.2243h0.0872l0.34891 0.38135-0.11629 0.104h-0.11631l-0.20354-0.34669v-0.13867" filter="url(#b)" opacity=".15"/>
  <path d="m33.215 16.663c0.26154 1.1e-5 0.4077 0.19723 0.4385 0.59165l-0.21925 1.8575h0.08077l0.17309-0.13759h0.04616v0.04127c-0.23848 0.1743-0.46926 0.6513-0.69234 1.4309-0.08464 0.66963-0.22695 1.2888-0.42695 1.8575-0.17694 0.58705-0.26541 1.1283-0.2654 1.6236l-0.33464 0.97689c-8e-6 0.08256 0.12692 0.16512 0.3808 0.24766-0.04617 0.19263-0.1154 0.28894-0.20771 0.28894v0.05504h0.08077v0.04127c-8e-6 0.1009-0.13079 0.15135-0.39233 0.15135l0.04615 0.05504v0.19262h-0.08077c0.05384 0.19264 0.16923 0.28896 0.34618 0.28895v0.09632h-0.34618v0.05503c0.11538 0 0.17308 0.08256 0.17309 0.24767l-0.48465 0.19263 0.04616 0.05504v0.04127c-1.2e-5 0.06421-0.05771 0.09632-0.17309 0.09632v0.05503c0.14615 0 0.21923 0.03215 0.21924 0.09632-0.20771 0.08256-0.4808 0.49077-0.81929 1.2246-0.34618 0.65126-0.64618 0.97689-0.90006 0.97689h-0.09231c-0.19233-0.14677-0.35003-0.63292-0.4731-1.4585-0.49235-1.2567-0.73853-1.9951-0.73853-2.2152-4e-6 -0.56871-0.15771-1.1741-0.47311-1.8162-0.08462-0.28434-0.14232-0.64209-0.17308-1.0732l-0.20771-0.05503c-0.52311 0.94482-0.79623 1.6832-0.81929 2.2152-0.14617 0.31188-0.26156 0.68797-0.34618 1.1283 0.3154 0.10091 0.47311 0.19722 0.47311 0.28894v0.05504c-0.24617-0.03671-0.41925-0.10548-0.51926-0.20639-0.1077 0.24767-0.25002 0.93561-0.42695 2.0639-0.13848 0.52283-0.31156 0.78429-0.51926 0.78429-0.58466-0.22932-1.0732-0.60538-1.4655-1.1283-0.06154 0-0.16155-0.26143-0.30002-0.78429-0.08462 0-0.14232-0.26143-0.17309-0.78429-0.29232-0.74302-0.49235-1.5915-0.60002-2.5455v-1.4309h-0.04616l-0.20771 0.05503v-0.05503c0-0.06421 0.06924-0.09631 0.20771-0.09632l-0.04616-0.82556v-0.64665l-0.33464-2.0639v-0.88061c0.14617-0.55034 0.40004-0.82552 0.76159-0.82556 0 0 0.03215-2e-3 0.13848 0.13759l-0.13845-0.041274c0.56157 0.73385 0.89236 1.353 0.99237 1.8575h0.39234v0.09632h-0.30002v0.11008c0.11539 0.42195 0.20001 0.63292 0.25386 0.63292h0.09232l0.20771-0.05504 0.04616 0.05504 0.04616-0.05504 0.04616 0.05504v0.04127c-0.15386 0.11008-0.25771 0.26143-0.31156 0.45406h-0.03461v0.09631h0.08078c0.1077 1.5319 0.30771 2.6922 0.60002 3.4811l0.17309 0.13759h0.09231c0.11539 4e-6 0.35772-0.5366 0.72698-1.6098 0.23848-0.48616 0.41155-0.91268 0.51926-1.2796l-0.04616-0.15136c0.23847-0.35773 0.48465-0.5366 0.73849-0.5366h0.08077c0.16154 1.2e-5 0.27694 0.10091 0.34618 0.3027 0.2154 0.30271 0.38848 0.75679 0.51926 1.3622l0.64622 1.4309c0.08462 0.10091 0.12692 0.21557 0.12693 0.34398 0.23847 0.54121 0.45386 0.89894 0.64618 1.0732h0.13846c0.16154 0 0.37695-0.66959 0.64622-2.0089 0.04615 8e-6 0.17307-0.35773 0.38079-1.0732v-0.05504l-0.72698-0.09632-0.17309 0.05504h-0.21924v-0.11008l0.4385-0.04127h0.8539c0.33078-1.1833 0.63463-2.1006 0.9116-2.7518 0.0923-1.3392 0.21923-2.0088 0.3808-2.0089l0.51926-0.24766m-4.3965 1.1833h0.12693v0.04127c-8e-6 0.06422-0.04231 0.09633-0.12693 0.09632l-0.04615 0.05503v0.05504l-0.12694-0.05504v-0.09631l0.17309-0.09631m-0.64618 0.5366v0.05503c-4e-6 0.0734-0.18463 0.15137-0.55387 0.23391v-0.09632l0.25387-0.1376 0.04615 0.04127h0.03461l0.21924-0.09632m-1.2462 0.49533v0.04127c-0.16156 0.14678-0.4231 0.27978-0.78469 0.39901v-0.09632c0.06154 8e-6 0.09231-0.05044 0.09231-0.15135l0.69238-0.19263m2.1925 0.48156 0.04616 0.05504v0.04127l-0.08077 0.11007h-0.04616l-0.09231-0.11007v-0.04127l0.17309-0.05504m1.5924 0.05504h0.04616v0.04127l-0.08077 0.11007h-0.04616v-0.05504l0.08077-0.09631m-0.72698 0.68797 0.17309 0.13759c-0.03076 0.10091-0.1154 0.15136-0.25387 0.15135l-0.09231-0.15135c-8e-6 -0.04585 0.05769-0.09172 0.17309-0.13759m1.0385 0.63292 0.03461 0.05504v0.04127l-0.03461 0.05503h-0.09231v-0.05503l0.09231-0.09632m-1.6386 0.49533v0.04127l-0.21924 0.20639h-0.12693v-0.05504c-8e-6 -0.08255 0.11538-0.14675 0.34618-0.19263m-1.5116 4.2104h0.04615v0.09631l-0.34618 0.20639-0.04616-0.05504v-0.09632l0.34618-0.15135m-0.12694 1.2796h0.03461l0.13847 0.15134-0.04615 0.04127h-0.04616l-0.08078-0.13759v-0.05503" fill="#fff" stroke-width=".39687"/>
 </g>
</svg>
