<?xml version="1.0" encoding="UTF-8"?>
<!-- Created with Inkscape (http://www.inkscape.org/) -->
<svg width="64" height="64" version="1.1" viewBox="0 0 16.933 16.933" xmlns="http://www.w3.org/2000/svg">
 <defs>
  <linearGradient id="linearGradient1852" x1="43.412" x2="54.219" y1="26.455" y2="33.666" gradientTransform="matrix(.79786 0 0 .79786 -6.233 -10.077)" gradientUnits="userSpaceOnUse">
   <stop stop-color="#0b4a88" offset="0"/>
   <stop stop-color="#104480" offset="1"/>
  </linearGradient>
  <filter id="filter1863" x="-.1691" y="-.095884" width="1.3382" height="1.1918" color-interpolation-filters="sRGB">
   <feGaussianBlur stdDeviation="2.1629198"/>
  </filter>
  <linearGradient id="linearGradient1836" x1="38.659" x2="47.451" y1="36.191" y2="24.568" gradientTransform="matrix(.79786 0 0 .79786 -6.233 -10.077)" gradientUnits="userSpaceOnUse">
   <stop stop-color="#027ad5" offset="0"/>
   <stop stop-color="#037cd5" offset=".38129"/>
   <stop stop-color="#0e8cdb" offset=".71609"/>
   <stop stop-color="#1582bd" offset="1"/>
  </linearGradient>
  <filter id="filter1842" x="-.089157" y="-.18894" width="1.1783" height="1.3779" color-interpolation-filters="sRGB">
   <feGaussianBlur stdDeviation="1.6718853"/>
  </filter>
  <linearGradient id="linearGradient1778" x1="38.672" x2="51.7" y1="21.846" y2="27.782" gradientTransform="matrix(.79786 0 0 .79786 -6.233 -10.077)" gradientUnits="userSpaceOnUse">
   <stop stop-color="#2cc3d7" offset="0"/>
   <stop stop-color="#34c1ee" offset=".31935"/>
   <stop stop-color="#2bc3d1" offset=".68534"/>
   <stop stop-color="#4bd766" offset="1"/>
  </linearGradient>
 </defs>
 <g transform="translate(-21.851 -2.9739)">
  <path d="m29.613 9.9494c-1.619 0.89544-2.4104 2.6926-2.4111 4.1102 1.33e-4 2.5917 2.072 4.6925 4.6276 4.6924 1.1876-0.0015 2.4663-0.53749 3.4493-1.3746 0.01193-0.0079 0.01944-0.01003 0.03216-0.01896 1.0575-0.7438 1.7876-1.8635 1.8249-2.0495 0.03542-0.13408-0.127-0.25519-0.18266-0.25774-0.05566-0.0026-0.12246 0.01566-0.12246 0.01566-0.05892 0.0138-0.12119 0.03935-0.18553 0.07339-0.7174 0.27883-1.8621 0.60067-2.5624 0.60237-2.7485 1.67e-4 -5.1946-1.863-5.1945-4.4548 0.04253-0.72509 0.49808-1.1366 0.72482-1.3383z" fill="url(#linearGradient1852)" stroke-width=".79786"/>
  <path transform="matrix(.18806 0 0 .21382 -2.5989 -10.527)" d="m164.53 83.008c0.71669 0.07591 1.43 0.17845 2.1367 0.31641 0.78086 0.1522 1.5533 0.34188 2.3145 0.56836 0.76056 0.22626 1.5089 0.48897 2.2422 0.78711 0.73365 0.29799 1.4513 0.63108 2.1504 0.99805 0.69878 0.3675 1.378 0.7684 2.0352 1.2012 0.65717 0.43278 1.2914 0.8969 1.9004 1.3906 0.59337 0.48013 2.9937 2.4046 4.6523 5.3984 0.22766 0.0626 0.4545 0.12477 0.67579 0.20117 0.29375 0.10157 0.58146 0.21488 0.86132 0.33984 0.28013 0.12485 0.55296 0.26117 0.81641 0.4082 0.26359 0.14693 0.51746 0.30497 0.76172 0.47266 0.24402 0.16723 0.47688 0.34306 0.69922 0.5293 0.22229 0.1869 0.43453 0.3838 0.63281 0.58789 0.19819 0.20349 0.38238 0.41422 0.55469 0.63281 0.17268 0.21943 0.33168 0.44531 0.47656 0.67773 0.14472 0.23162 0.27495 0.47065 0.39062 0.71289 0.11526 0.24256 0.21577 0.4895 0.30079 0.74023 0.0857 0.25091 0.15642 0.50509 0.21093 0.76172 0.0154 0.09048 0.0294 0.18059 0.041 0.27149 0.0341 0.0323 0.0676 0.0532 0.10156 0.0859-0.18261-2.2982-0.52604-3.1817-2.0156-6.1035-1.825-3.1188-4.5957-5.1168-5.2656-5.6074-0.66945-0.49125-1.3674-0.95221-2.0898-1.3828-0.72242-0.4306-1.4682-0.82966-2.2363-1.1953-0.76848-0.36512-1.5587-0.69765-2.3652-0.99414-0.80613-0.29664-1.6287-0.55808-2.4648-0.7832-0.83675-0.22534-1.6846-0.41301-2.543-0.56445-0.85819-0.15163-1.7244-0.26553-2.5957-0.3418-0.79011-0.06914-1.5849-0.10281-2.3789-0.10938zm10.693 10.16c-0.20527 0-0.41049 0.0063-0.61523 0.01953-0.29001 0.01886-0.57878 0.0508-0.86524 0.0957-0.28551 0.04392-0.56841 0.1006-0.84765 0.16992-0.27981 0.07022-0.55555 0.15299-0.82617 0.24805-0.27074 0.09475-0.53606 0.20167-0.79493 0.32031-0.25836 0.1188-0.50997 0.24919-0.7539 0.39062-0.2446 0.14096-0.48123 0.29282-0.70899 0.45508-5.1522 2.8862-11.017 9.5642-11.4 19.336 0.0166 5.2987 1.9468 10.43 5.4648 14.527 3.7304 4.3704 10.122 8.5438 19.434 7.5312-7.8376-0.39085-13.401-3.9432-16.873-7.625-3.8675-4.077-5.9896-9.183-6.0078-14.455 0.42149-9.7226 6.8693-16.367 12.533-19.238 0.25038-0.16144 0.51041-0.31288 0.7793-0.45312 0.26817-0.14072 0.5441-0.27047 0.82813-0.38867 0.28457-0.11804 0.57542-0.22408 0.87304-0.31836 0.2975-0.09458 0.60061-0.17622 0.90821-0.24609 0.28126-0.06319 0.56637-0.11426 0.85351-0.15625-0.0837-0.01761-0.16571-0.04127-0.25-0.05664-0.28476-0.05201-0.57222-0.09111-0.86133-0.11719-0.28881-0.02619-0.5789-0.0391-0.86914-0.03906zm13.885 42.82c-1.7373 0.24051-3.3754 0.31842-4.9375 0.28711-1.1667 0.50706-3.1194 0.74705-4.9531 0.87109 1.8269-0.0149 7.7472-0.0667 9.8906-1.1582z" filter="url(#filter1863)" opacity=".2"/>
  <path d="m27.947 7.4154c-0.11899 7.34e-5 -0.23794 0.00423-0.35664 0.012367-0.16761 0.011354-0.33453 0.03075-0.50012 0.058132-0.1657 0.027542-0.32986 0.063047-0.49187 0.10637-0.16197 0.043284-0.32159 0.094339-0.47827 0.15297-0.15671 0.058547-0.31027 0.12459-0.46012 0.1979-0.14977 0.073339-0.29562 0.15384-0.43704 0.24119-0.14155 0.087366-0.27847 0.18148-0.41024 0.28201-0.13163 0.10051-0.25795 0.20729-0.37849 0.31994-0.12056 0.11275-0.23518 0.23123-0.34345 0.35499-0.10832 0.12366-0.21015 0.25246-0.3051 0.38591-0.09492 0.1334-0.18285 0.27128-0.26345 0.41312-0.03724 0.069805-0.0727 0.14046-0.10637 0.21192-0.13476 0.5315-0.20434 1.0759-0.20739 1.6224 0.0016 1.4695 0.48397 2.9025 1.3812 4.1032 1.4129 1.8956 3.7136 3.0242 6.1684 3.0259 0.29616-3e-3 1.5276-0.0058 1.9554-0.24653-2.1036 0.32174-3.5329-0.59809-4.3538-1.5597-0.74265-0.86496-1.1501-1.9481-1.1536-3.0667 0.08094-2.0628 1.3189-3.4724 2.4066-4.0818 0.04808-0.034252 0.09802-0.06631 0.14966-0.096062 0.05149-0.029856 0.10461-0.057382 0.15915-0.082459 0.05465-0.025045 0.11066-0.047616 0.1678-0.067619 0.05713-0.020066 0.11534-0.037539 0.1744-0.052363 0.05895-0.014633 0.11866-0.026601 0.17894-0.035872 0.06047-0.00948 0.12143-0.016221 0.18265-0.020202 0.04322-0.00279 0.08654-0.00415 0.12988-0.00415 0.06127-8.8e-6 0.1225 0.00271 0.18348 0.00824 0.06103 0.00551 0.12171 0.013763 0.18182 0.024742 0.05995 0.010931 0.11926 0.024558 0.1777 0.040819 0.0586 0.016356 0.11626 0.035345 0.17275 0.056895 0.05641 0.02155 0.11159 0.045637 0.16533 0.07215 0.05379 0.026489 0.10608 0.055388 0.15668 0.086584 0.05062 0.031172 0.09946 0.064611 0.14637 0.10019 0.04686 0.035481 0.09171 0.073044 0.13441 0.11255 0.04269 0.03965 0.08314 0.08121 0.12122 0.12451 0.03806 0.04317 0.0737 0.08804 0.10678 0.13441 0.03316 0.04655 0.06371 0.09458 0.09153 0.1439 0.02779 0.04914 0.05283 0.09951 0.07504 0.1509 0.02213 0.05146 0.0414 0.10389 0.05772 0.15708 0.01645 0.05323 0.02994 0.10718 0.0404 0.16162 3e-3 0.0192 0.0056 0.03844 0.0078 0.05772 0.0065 0.0069 0.01286 0.01121 0.01938 0.01814-0.03504-0.4876-0.10067-0.67511-0.38671-1.295-0.35044-0.66168-0.88275-1.0854-1.0114-1.1894-0.12855-0.10422-0.26244-0.2022-0.40116-0.29356-0.13872-0.091355-0.28211-0.17598-0.42962-0.25356-0.14756-0.077464-0.29907-0.14778-0.45394-0.21068-0.15479-0.062935-0.31276-0.11839-0.47331-0.16615-0.16067-0.047808-0.32374-0.087852-0.48857-0.11998-0.16479-0.03217-0.33116-0.056385-0.49847-0.072565-0.16728-0.016173-0.33529-0.024295-0.50342-0.024327z" fill="url(#linearGradient1836)" stroke-width=".79786"/>
  <path transform="matrix(.21675 0 0 .20587 -6.8954 -9.8403)" d="m183.55 104.33c0.17802-0.50501 0.43978-0.86417 0.52344-1.5879 0.0442-1.5214-0.11541-3.0129-0.46484-4.4531-0.34944-1.4402-0.88758-2.829-1.6035-4.1445s-1.6088-2.5578-2.6641-3.7051c-1.0553-1.1472-2.2731-2.1993-3.6406-3.1348-0.98921-0.68007-2.0365-1.283-3.1289-1.8047-1.0924-0.52164-2.2309-0.96253-3.4024-1.3184-1.1714-0.35583-2.3754-0.62595-3.6016-0.80859s-2.4737-0.27722-3.7305-0.2793c-1.2146 8.3e-4 -2.4348 0.09607-3.6426 0.28125s-2.4035 0.45954-3.5723 0.81641c-1.1687 0.35687-2.3106 0.7966-3.4082 1.3125s-2.1501 1.1092-3.1445 1.7715c-0.99439 0.66226-1.93 1.3935-2.7891 2.1895-0.85906 0.79597-1.6424 1.6553-2.334 2.5723-0.69163 0.91701-1.2911 1.8926-1.7832 2.918-0.49208 1.0254-0.87627 2.1015-1.1367 3.2227 0.0656-0.85916 0.32221-1.6689 0.45704-2.5117-0.70891 2.6958-1.2228 5.4703-1.4082 8.3398 2.1252-10.803 12.336-18.16 22.248-18.168 5.1275 0.01002 10.105 1.7956 14.141 5.0723 4.2341 3.4202 7.0457 8.1411 8.0859 13.42z" filter="url(#filter1842)" opacity=".2"/>
  <path d="m30.901 3.9264c-3.9285 0.00327-7.2934 3.0339-7.5747 6.7209 0.43983-1.8933 2.5529-3.1827 4.6041-3.1842 1.0612 0.00176 2.0912 0.31468 2.9265 0.8889 1.1547 0.78991 1.8051 1.9741 1.7677 3.2589-0.06952 0.60139-0.30334 0.73553-0.62296 1.2648-0.05532 0.14987-0.08665 0.29412 0.1369 0.45137 0.11568 0.0798 0.49348 0.27312 0.6198 0.3209 0.12621 0.04764 0.25501 0.08961 0.38591 0.12575 0.13098 0.03615 0.26391 0.06642 0.39828 0.0907 0.13426 0.02431 0.2698 0.04261 0.40611 0.05484 0.13645 0.01231 0.27351 0.01849 0.41065 0.01856 0.09699-9.8e-5 0.19394-0.0033 0.29067-0.0095 0.13666-0.0086 0.27275-0.02335 0.40776-0.04411 0.13514-0.02082 0.26903-0.04764 0.40116-0.0804 0.13209-0.03278 0.26226-0.07146 0.39003-0.11586 0.12764-0.04428 0.25272-0.09423 0.37478-0.14966 0.12222-0.05553 0.24124-0.11649 0.35664-0.18265 0.8289-0.641 1.2743-1.1556 1.5476-2.0577 0.0097-0.05082 0.12651-0.31832 0.12651-0.82339-0.003591-0.79801-0.044281-1.1844-0.29415-1.9717-1.0717-2.7425-3.8945-4.5725-7.0594-4.5765z" fill="url(#linearGradient1778)" stroke-width=".79786"/>
 </g>
</svg>
