<?xml version="1.0" encoding="UTF-8"?>
<!-- Created with Inkscape (http://www.inkscape.org/) -->
<svg width="64" height="64" version="1.1" viewBox="0 0 16.933 16.933" xmlns="http://www.w3.org/2000/svg">
 <defs>
  <linearGradient id="linearGradient8660" x1="-7.6728" x2="-5.027" y1="-29.104" y2="-27.252" gradientTransform="matrix(2.2238 0 0 2.2238 32.149 73.122)" gradientUnits="userSpaceOnUse">
   <stop stop-color="#00bffb" offset="0"/>
   <stop stop-color="#01a0f3" offset="1"/>
  </linearGradient>
  <linearGradient id="linearGradient8668" x1="-4.7624" x2="-1.852" y1="-27.252" y2="-30.123" gradientTransform="matrix(2.3321 0 0 2.2238 32.663 73.122)" gradientUnits="userSpaceOnUse">
   <stop stop-color="#11c2f4" offset="0"/>
   <stop stop-color="#2dc5f4" offset="1"/>
  </linearGradient>
  <linearGradient id="linearGradient8676" x1="-7.6728" x2="-5.027" y1="-26.722" y2="-24.493" gradientTransform="matrix(2.2238 0 0 2.2238 32.149 73.122)" gradientUnits="userSpaceOnUse">
   <stop stop-color="#0954a8" offset="0"/>
   <stop stop-color="#0954a8" offset="1"/>
  </linearGradient>
  <linearGradient id="linearGradient8684" x1="-4.4978" x2="-1.852" y1="-26.722" y2="-24.111" gradientTransform="matrix(2.3321 0 0 2.2238 32.663 73.122)" gradientUnits="userSpaceOnUse">
   <stop stop-color="#339ed9" offset="0"/>
   <stop stop-color="#2386c9" offset="1"/>
  </linearGradient>
  <linearGradient id="linearGradient1465" x1="50.633" x2="64.116" y1="12.823" y2="25.536" gradientTransform="matrix(.53334 0 0 .53334 -5.4575 6.4902)" gradientUnits="userSpaceOnUse">
   <stop stop-color="#869099" offset="0"/>
   <stop stop-color="#4c6068" offset="1"/>
  </linearGradient>
  <linearGradient id="linearGradient1481" x1="55.678" x2="61.884" y1="6.314" y2="12.52" gradientTransform="matrix(.53334 0 0 .53334 -6.0697 11.809)" gradientUnits="userSpaceOnUse">
   <stop stop-color="#d2d7dc" offset="0"/>
   <stop stop-color="#fff" offset="1"/>
  </linearGradient>
  <linearGradient id="linearGradient1491" x1="55.678" x2="61.884" y1="6.314" y2="12.52" gradientTransform="matrix(.37758 0 0 .37758 3.2322 13.418)" gradientUnits="userSpaceOnUse">
   <stop stop-color="#006ec8" offset="0"/>
   <stop stop-color="#0a327d" offset="1"/>
  </linearGradient>
 </defs>
 <g transform="translate(-13.79 -5.2027)">
  <path d="m15.085 7.7517c-0.16055 0.027574-0.30963 0.066022-0.41598 0.17236-0.10629 0.10634-0.17234 0.31506-0.17234 0.47804v4.1186h6.4719v-5.5366l-1.1767 0.14939z" fill="url(#linearGradient8660)" stroke-width=".18644"/>
  <path d="m21.557 6.9034v5.6169h7.4916v-5.8785c0-0.16298-0.06926-0.30963-0.18074-0.41599-0.11147-0.10634-0.26681-0.1935-0.43628-0.17236l-5.6404 0.70033z" fill="url(#linearGradient8668)" stroke-width=".19093"/>
  <path d="m14.497 13.11v4.1186c0 0.16297 0.06604 0.38318 0.17234 0.48954 0.10629 0.10634 0.25439 0.15114 0.41599 0.17236l4.7069 0.61792 1.1767 0.14708v-5.5453z" fill="url(#linearGradient8676)" stroke-width=".18644"/>
  <path d="m21.557 13.11v5.6238l1.2341 0.15397 5.6404 0.66325c0.16954 0.02112 0.32473-0.06602 0.43626-0.17236 0.11147-0.10634 0.18074-0.25301 0.18074-0.416v-5.8528z" fill="url(#linearGradient8684)" stroke-width=".19093"/>
  <g stroke-width=".53334">
   <path d="m26.902 13.351a0.26768 0.26095 0 0 0-0.02657 0.0026 0.26768 0.26095 0 0 0-0.0263 0.0046 0.26768 0.26095 0 0 0-0.02577 0.0073 0.26768 0.26095 0 0 0-0.02471 0.0098 0.26768 0.26095 0 0 0-0.02365 0.01243 0.26768 0.26095 0 0 0-0.0082 0.0046 0.26768 0.26095 0 0 0-0.02205 0.01502 0.26768 0.26095 0 0 0-0.02019 0.01684 0.26768 0.26095 0 0 0-0.0186 0.01891 0.26768 0.26095 0 0 0-0.01647 0.02046 0.26768 0.26095 0 0 0-0.01435 0.02202 0.26768 0.26095 0 0 0-0.01195 0.02331 0.26768 0.26095 0 0 0-0.0096 0.02434 0.26768 0.26095 0 0 0-0.0069 0.02539 0.89937 0.87681 0 0 1-0.01222 0.04895 0.89937 0.87681 0 0 1-0.02817 0.08315 0.89937 0.87681 0 0 1-0.0364 0.08029 0.89937 0.87681 0 0 1-0.04463 0.07615 0.89937 0.87681 0 0 1-0.05181 0.07149 0.89937 0.87681 0 0 1-0.05925 0.06605 0.89937 0.87681 0 0 1-0.06563 0.05983 0.89937 0.87681 0 0 1-0.07121 0.05336 0.89937 0.87681 0 0 1-0.07652 0.0461 0.89937 0.87681 0 0 1-0.08077 0.03834 0.89937 0.87681 0 0 1-0.08449 0.0303 0.89937 0.87681 0 0 1-0.08688 0.02202 0.89937 0.87681 0 0 1-0.08901 0.01321 0.89937 0.87681 0 0 1-0.0898 0.0049 0.89937 0.87681 0 0 1-0.04809-0.0015 0.89937 0.87681 0 0 1-0.08954-0.0096 0.89937 0.87681 0 0 1-0.08795-0.01787 0.89937 0.87681 0 0 1-0.08555-0.02668 0.89937 0.87681 0 0 1-0.08263-0.03471 0.89937 0.87681 0 0 1-0.07865-0.04274 0.89937 0.87681 0 0 1-0.0736-0.04998 0.89937 0.87681 0 0 1-0.06828-0.05699 0.89937 0.87681 0 0 1-0.06217-0.06346 0.89937 0.87681 0 0 1-0.05526-0.0689 0.89937 0.87681 0 0 1-0.04809-0.07408 0.89937 0.87681 0 0 1-0.04012-0.07848 0.89937 0.87681 0 0 1-0.03188-0.08211 0.89937 0.87681 0 0 1-0.02338-0.08444 0.26768 0.26095 0 0 0-0.0011-0.0052 0.26768 0.26095 0 0 0-0.0072-0.02513 0.26768 0.26095 0 0 0-0.0096-0.02434 0.26768 0.26095 0 0 0-0.01195-0.02331 0.26768 0.26095 0 0 0-0.01461-0.02202 0.26768 0.26095 0 0 0-0.01648-0.02047 0.26768 0.26095 0 0 0-0.0186-0.01891 0.26768 0.26095 0 0 0-0.02046-0.01684 0.26768 0.26095 0 0 0-0.02205-0.01476 0.25831 0.25182 0 0 0-0.01222-7e-3 0.25831 0.25182 0 0 0-0.02338-0.01062 0.25831 0.25182 0 0 0-0.02444-0.0085 0.25831 0.25182 0 0 0-0.02497-6e-3 0.25831 0.25182 0 0 0-0.0255-0.0034 0.25831 0.25182 0 0 0-0.02603-0.0013 0.25831 0.25182 0 0 0-0.02577 0.0015 0.25831 0.25182 0 0 0-0.02551 0.0042 0.25831 0.25182 0 0 0-0.02471 0.0065 4.2293 4.123 0 0 0-0.24417 0.07978 4.2293 4.123 0 0 0-0.38871 0.16214 4.2293 4.123 0 0 0-0.37011 0.19919 4.2293 4.123 0 0 0-0.3478 0.23416 4.2293 4.123 0 0 0-0.32228 0.26679 0.26768 0.26095 0 0 0-4e-3 0.0034 0.26768 0.26095 0 0 0-0.01807 0.01944 0.26768 0.26095 0 0 0-0.01594 0.02124 0.26768 0.26095 0 0 0-0.01355 0.02227 0.26768 0.26095 0 0 0-0.01142 0.02331 0.26768 0.26095 0 0 0-9e-3 0.0246 0.26768 0.26095 0 0 0-0.0064 0.02539 0.26768 0.26095 0 0 0-0.0035 0.0259 0.26768 0.26095 0 0 0-0.0011 0.02616 0.26768 0.26095 0 0 0 0 0.0042 0.26768 0.26095 0 0 0 0.0016 0.02616 0.26768 0.26095 0 0 0 0.0043 0.02565 0.26768 0.26095 0 0 0 0.0066 0.02513 0.26768 0.26095 0 0 0 0.0096 0.0246 0.26768 0.26095 0 0 0 0.01169 0.02332 0.26768 0.26095 0 0 0 0.01435 0.02202 0.26768 0.26095 0 0 0 0.01648 0.02072 0.26768 0.26095 0 0 0 0.01834 0.01891 0.89403 0.87158 0 0 1 0.0093 0.0083 0.89403 0.87158 0 0 1 0.06217 0.06268 0.89403 0.87158 0 0 1 0.05526 0.06838 0.89403 0.87158 0 0 1 0.04809 0.07356 0.89403 0.87158 0 0 1 0.04038 0.07771 0.89403 0.87158 0 0 1 0.03215 0.08133 0.89403 0.87158 0 0 1 0.02365 0.08392 0.89403 0.87158 0 0 1 0.01488 0.086 0.89403 0.87158 0 0 1 0.0061 0.08677 0.89403 0.87158 0 0 1-0.0027 0.08703 0.89403 0.87158 0 0 1-0.01169 0.08651 0.89403 0.87158 0 0 1-0.02072 0.0847 0.89403 0.87158 0 0 1-0.02896 0.08237 0.89403 0.87158 0 0 1-0.03746 0.07926 0.89403 0.87158 0 0 1-0.04544 0.07511 0.89403 0.87158 0 0 1-0.0526 0.07019 0.89403 0.87158 0 0 1-0.05978 0.06476 0.89403 0.87158 0 0 1-0.06589 0.05879 0.89403 0.87158 0 0 1-0.07174 0.0518 0.89403 0.87158 0 0 1-0.07678 0.04482 0.89403 0.87158 0 0 1-0.08103 0.03704 0.89403 0.87158 0 0 1-0.08423 0.02901 0.89403 0.87158 0 0 1-0.08688 0.02072 0.89403 0.87158 0 0 1-0.08848 0.01191 0.89403 0.87158 0 0 1-0.08928 0.0034 0.89403 0.87158 0 0 1-0.08903-0.0052 0.89403 0.87158 0 0 1-0.08821-0.01399 0.89403 0.87158 0 0 1-0.08635-0.02254 0.26768 0.26095 0 0 0-0.01275-0.0036 0.26768 0.26095 0 0 0-0.02603-0.0054 0.26768 0.26095 0 0 0-0.02684-0.0031 0.26768 0.26095 0 0 0-0.02657-2.6e-4 0.26768 0.26095 0 0 0-0.02684 0.0024 0.26768 0.26095 0 0 0-0.0263 0.0049 0.26768 0.26095 0 0 0-0.0255 0.0072 0.26768 0.26095 0 0 0-0.02471 0.0098 0.26768 0.26095 0 0 0-0.02365 0.01218 0.26768 0.26095 0 0 0-0.02232 0.01451 0.26768 0.26095 0 0 0-0.02072 0.01658 0.26768 0.26095 0 0 0-0.01886 0.01839 0.26768 0.26095 0 0 0-0.017 0.0202 0.26768 0.26095 0 0 0-0.01461 0.02176 0.26768 0.26095 0 0 0-0.01249 0.02306 0.26768 0.26095 0 0 0-0.0101 0.02435 0.26768 0.26095 0 0 0-0.0074 0.02487 4.1168 4.0134 0 0 0-0.06084 0.28363 4.1168 4.0134 0 0 0-0.04942 0.39837 4.1168 4.0134 0 0 0-0.0082 0.40096 4.1168 4.0134 0 0 0 0.03294 0.39993 4.1168 4.0134 0 0 0 0.0736 0.39474 0.26768 0.26095 0 0 0 0.0029 0.01191 0.26768 0.26095 0 0 0 0.0085 0.02487 0.26768 0.26095 0 0 0 0.0109 0.02383 0.26768 0.26095 0 0 0 0.01328 0.02254 0.26768 0.26095 0 0 0 0.01568 0.02124 0.26768 0.26095 0 0 0 0.01754 0.01969 0.26768 0.26095 0 0 0 0.01966 0.01788 0.26768 0.26095 0 0 0 0.02125 0.0158 0.26768 0.26095 0 0 0 0.02259 0.01373 0.26768 0.26095 0 0 0 0.02418 0.01114 0.26768 0.26095 0 0 0 0.02524 0.0091 0.26768 0.26095 0 0 0 0.02577 0.0065 0.26768 0.26095 0 0 0 0.02657 0.0039 0.26768 0.26095 0 0 0 0.02656 0.0013 0.26768 0.26095 0 0 0 0.02684-0.0013 0.26768 0.26095 0 0 0 0.02657-0.0039 0.26768 0.26095 0 0 0 0.02578-0.0062 0.89403 0.87158 0 0 1 0.01355-0.0042 0.89403 0.87158 0 0 1 0.08688-0.02047 0.89403 0.87158 0 0 1 0.08847-0.01191 0.89403 0.87158 0 0 1 0.08928-0.0031 0.89403 0.87158 0 0 1 0.08927 0.0054 0.89403 0.87158 0 0 1 0.08821 0.01424 0.89403 0.87158 0 0 1 0.08635 0.02253 0.89403 0.87158 0 0 1 0.08343 0.03083 0.89403 0.87158 0 0 1 0.07997 0.03911 0.89403 0.87158 0 0 1 0.07572 0.04636 0.89403 0.87158 0 0 1 0.07041 0.05362 0.89403 0.87158 0 0 1 0.06457 0.06035 0.89403 0.87158 0 0 1 0.05819 0.06605 0.89403 0.87158 0 0 1 0.05101 0.07149 0.89403 0.87158 0 0 1 0.04331 0.07615 0.89403 0.87158 0 0 1 0.0356 0.08004 0.89403 0.87158 0 0 1 0.02683 0.08289 0.89403 0.87158 0 0 1 0.0186 0.08548 0.89403 0.87158 0 0 1 0.0096 0.08651 0.89403 0.87158 0 0 1 7.94e-4 0.08703 0.89403 0.87158 0 0 1-0.0082 0.08677 0.89403 0.87158 0 0 1-0.01727 0.08548 0.89403 0.87158 0 0 1-0.0255 0.08366 0.89403 0.87158 0 0 1-0.03428 0.08029 0.89403 0.87158 0 0 1-0.04225 0.07693 0.89403 0.87158 0 0 1-0.04995 0.07227 0.89403 0.87158 0 0 1-0.05686 0.06709 0.89403 0.87158 0 0 1-0.06377 0.06113 0.26768 0.26095 0 0 0-0.0053 0.0046 0.26768 0.26095 0 0 0-0.01833 0.01891 0.26768 0.26095 0 0 0-0.01674 0.02046 0.26768 0.26095 0 0 0-0.01435 0.02201 0.26768 0.26095 0 0 0-0.01196 0.02306 0.26768 0.26095 0 0 0-0.0096 0.02434 0.26768 0.26095 0 0 0-0.0072 0.02539 0.26768 0.26095 0 0 0-0.0045 0.02564 0.26768 0.26095 0 0 0-0.0016 0.0259 0.26768 0.26095 0 0 0 0 0.0067 0.26768 0.26095 0 0 0 0.0016 0.02616 0.26768 0.26095 0 0 0 0.0043 0.02565 0.26768 0.26095 0 0 0 0.0066 0.02513 0.26768 0.26095 0 0 0 0.0096 0.0246 0.26768 0.26095 0 0 0 0.01169 0.02331 0.26768 0.26095 0 0 0 0.01435 0.02202 0.26768 0.26095 0 0 0 0.01647 0.02072 0.26768 0.26095 0 0 0 0.01834 0.01891 4.252 4.1452 0 0 0 0.17828 0.158 4.252 4.1452 0 0 0 0.33584 0.25384 4.252 4.1452 0 0 0 0.36001 0.22017 4.252 4.1452 0 0 0 0.38101 0.18364 4.252 4.1452 0 0 0 0.39774 0.14582 0.26768 0.26095 0 0 0 0.0074 0.0024 0.26768 0.26095 0 0 0 0.02604 0.0057 0.26768 0.26095 0 0 0 0.02656 0.0031 0.26768 0.26095 0 0 0 0.02657 7.41e-4 0.26768 0.26095 0 0 0 0.02684-2e-3 0.26768 0.26095 0 0 0 0.0263-0.0046 0.26768 0.26095 0 0 0 0.02577-7e-3 0.26768 0.26095 0 0 0 0.02471-0.0096 0.26768 0.26095 0 0 0 0.02391-0.01192 0.26768 0.26095 0 0 0 0.0096-0.0052 0.26768 0.26095 0 0 0 0.02232-0.01451 0.26768 0.26095 0 0 0 0.02072-0.01632 0.26768 0.26095 0 0 0 0.01886-0.01838 0.26768 0.26095 0 0 0 0.01727-0.0202 0.26768 0.26095 0 0 0 0.01461-0.0215 0.26768 0.26095 0 0 0 0.01275-0.02305 0.26768 0.26095 0 0 0 0.0101-0.02434 0.26768 0.26095 0 0 0 0.0077-0.02487 0.89803 0.87547 0 0 1 0.0096-0.03807 0.89803 0.87547 0 0 1 0.02817-0.08315 0.89803 0.87547 0 0 1 0.03639-0.08004 0.89803 0.87547 0 0 1 0.04437-0.07589 0.89803 0.87547 0 0 1 0.05181-0.07149 0.89803 0.87547 0 0 1 0.05898-0.06579 0.89803 0.87547 0 0 1 0.06536-0.06009 0.89803 0.87547 0 0 1 0.07147-0.0531 0.89803 0.87547 0 0 1 0.07626-0.0461 0.89803 0.87547 0 0 1 0.08077-0.03834 0.89803 0.87547 0 0 1 0.08422-0.0303 0.89803 0.87547 0 0 1 0.08688-0.02202 0.89803 0.87547 0 0 1 0.08874-0.01321 0.89803 0.87547 0 0 1 0.08954-0.0049h0.01063a0.89803 0.87547 0 0 1 0.05101 0.0024 0.89803 0.87547 0 0 1 0.08928 0.01062 0.89803 0.87547 0 0 1 0.08741 0.01916 0.89803 0.87547 0 0 1 0.08529 0.02746 0.89803 0.87547 0 0 1 0.08184 0.03601 0.89803 0.87547 0 0 1 0.07785 0.04351 0.89803 0.87547 0 0 1 0.07307 0.05102 0.89803 0.87547 0 0 1 0.06748 0.05776 0.89803 0.87547 0 0 1 0.06111 0.06398 0.89803 0.87547 0 0 1 0.0542 0.06968 0.89803 0.87547 0 0 1 0.04702 0.0746 0.89803 0.87547 0 0 1 0.03879 0.079 0.89803 0.87547 0 0 1 0.03082 0.08211 0.89803 0.87547 0 0 1 0.02205 0.0847 0.26768 0.26095 0 0 0 0.0016 0.0072 0.26768 0.26095 0 0 0 0.0072 0.02513 0.26768 0.26095 0 0 0 0.0098 0.02434 0.26768 0.26095 0 0 0 0.01222 0.02306 0.26768 0.26095 0 0 0 0.01435 0.02201 0.26768 0.26095 0 0 0 0.01674 0.02046 0.26768 0.26095 0 0 0 0.01886 0.01865 0.26768 0.26095 0 0 0 0.02046 0.01684 0.26768 0.26095 0 0 0 0.02205 0.01451 0.26768 0.26095 0 0 0 0.01222 7e-3 0.26768 0.26095 0 0 0 0.02418 0.01139 0.26768 0.26095 0 0 0 0.02497 0.0091 0.26768 0.26095 0 0 0 0.02603 0.0065 0.26768 0.26095 0 0 0 0.02631 0.0039 0.26768 0.26095 0 0 0 0.02684 0.0015 0.26768 0.26095 0 0 0 0.02444-0.0026 0.26768 0.26095 0 0 0 0.0263-0.0054 0.26768 0.26095 0 0 0 0.02551-0.0078 4.2359 4.1296 0 0 0 0.23992-0.07408 4.2359 4.1296 0 0 0 0.39216-0.15593 4.2359 4.1296 0 0 0 0.37436-0.19297 4.2359 4.1296 0 0 0 0.35257-0.22872 4.2359 4.1296 0 0 0 0.32734-0.26161 0.26768 0.26095 0 0 0 0.0056-0.0052 0.26768 0.26095 0 0 0 0.0186-0.01891 0.26768 0.26095 0 0 0 0.01621-0.02072 0.26768 0.26095 0 0 0 0.01409-0.02202 0.26768 0.26095 0 0 0 0.01196-0.02358 0.26768 0.26095 0 0 0 0.0093-0.02434 0.26768 0.26095 0 0 0 0.0069-0.02513 0.26768 0.26095 0 0 0 0.0043-0.0259 0.26768 0.26095 0 0 0 0.0013-0.02591 0.26768 0.26095 0 0 0 0-0.0085 0.26768 0.26095 0 0 0-0.0021-0.0259 0.26768 0.26095 0 0 0-0.0048-0.02564 0.26768 0.26095 0 0 0-0.0074-0.02513 0.26768 0.26095 0 0 0-0.0098-0.02434 0.26768 0.26095 0 0 0-0.01249-0.02306 0.26768 0.26095 0 0 0-0.01461-0.02176 0.26768 0.26095 0 0 0-0.01674-0.0202 0.26768 0.26095 0 0 0-0.01886-0.01865 0.89537 0.87286 0 0 1-0.0194-0.01788 0.89537 0.87286 0 0 1-0.06058-0.06423 0.89537 0.87286 0 0 1-0.05367-0.06956 0.89537 0.87286 0 0 1-0.0465-0.0746 0.89537 0.87286 0 0 1-0.03852-0.07874 0.89537 0.87286 0 0 1-0.03028-0.08211 0.89537 0.87286 0 0 1-0.02152-0.0847 0.89537 0.87286 0 0 1-0.01302-0.08651 0.89537 0.87286 0 0 1-4e-3 -0.08703 0.89537 0.87286 0 0 1 5e-3 -0.08729 0.89537 0.87286 0 0 1 0.01381-0.086 0.89537 0.87286 0 0 1 0.02259-0.08444 0.89537 0.87286 0 0 1 0.03135-0.08185 0.89537 0.87286 0 0 1 0.03932-0.07849 0.89537 0.87286 0 0 1 0.04703-0.07408 0.89537 0.87286 0 0 1 0.05473-0.06916 0.89537 0.87286 0 0 1 0.06138-0.06346 0.89537 0.87286 0 0 1 0.06749-0.05724 0.89537 0.87286 0 0 1 0.07307-0.05025 0.89537 0.87286 0 0 1 0.07785-0.04299 0.89537 0.87286 0 0 1 0.08183-0.03523 0.89537 0.87286 0 0 1 0.08502-0.0272 0.89537 0.87286 0 0 1 0.08768-0.01865 0.89537 0.87286 0 0 1 0.08874-0.0101 0.89537 0.87286 0 0 1 0.08954-0.0013 0.89537 0.87286 0 0 1 0.08927 0.0075 0.89537 0.87286 0 0 1 0.08795 0.01606 0.89537 0.87286 0 0 1 0.08582 0.02434 0.26768 0.26095 0 0 0 8e-3 0.0026 0.26768 0.26095 0 0 0 0.02577 0.0067 0.26768 0.26095 0 0 0 0.02631 0.0042 0.26768 0.26095 0 0 0 0.02683 0.0015 0.26768 0.26095 0 0 0 0.02657-0.0011 0.26768 0.26095 0 0 0 0.02657-0.0036 0.26768 0.26095 0 0 0 0.02604-0.0062 0.26768 0.26095 0 0 0 0.02524-0.0085 0.26768 0.26095 0 0 0 0.02418-0.01114 0.26768 0.26095 0 0 0 0.0074-0.0042 0.26768 0.26095 0 0 0 0.02259-0.01399 0.26768 0.26095 0 0 0 0.02099-0.01632 0.26768 0.26095 0 0 0 0.01913-0.01812 0.26768 0.26095 0 0 0 0.01727-0.01995 0.26768 0.26095 0 0 0 0.01515-0.0215 0.26768 0.26095 0 0 0 0.01302-0.02279 0.26768 0.26095 0 0 0 0.01037-0.02408 0.26768 0.26095 0 0 0 8e-3 -0.02487 4.1637 4.0591 0 0 0 0.06191-0.27145 4.1637 4.0591 0 0 0 0.0558-0.402 4.1637 4.0591 0 0 0 0.01435-0.40562 4.1637 4.0591 0 0 0-0.02736-0.40485 4.1637 4.0591 0 0 0-0.06855-0.40018 0.26768 0.26095 0 0 0-0.0019-0.0075 0.26768 0.26095 0 0 0-0.0074-0.02512 0.26768 0.26095 0 0 0-0.01009-0.02408 0.26768 0.26095 0 0 0-0.01275-0.02306 0.26768 0.26095 0 0 0-0.01461-0.02176 0.26768 0.26095 0 0 0-0.017-0.0202 0.26768 0.26095 0 0 0-0.01913-0.01839 0.26768 0.26095 0 0 0-0.02072-0.01632 0.26768 0.26095 0 0 0-0.02232-0.01451 0.26768 0.26095 0 0 0-0.0066-0.0036 0.26768 0.26095 0 0 0-0.02418-0.01114 0.26768 0.26095 0 0 0-0.02497-0.0091 0.26768 0.26095 0 0 0-0.02603-0.0062 0.26768 0.26095 0 0 0-0.0263-0.0039 0.26768 0.26095 0 0 0-0.02683-0.0013 0.26768 0.26095 0 0 0-0.02684 0.0013 0.26768 0.26095 0 0 0-0.0263 0.0039 0.26768 0.26095 0 0 0-0.02604 0.0067 0.89537 0.87286 0 0 1-0.04331 0.01243 0.89537 0.87286 0 0 1-0.08741 0.01812 0.89537 0.87286 0 0 1-0.08901 0.0098 0.89537 0.87286 0 0 1-0.08954 0.0011 0.89537 0.87286 0 0 1-0.08908-0.0078 0.89537 0.87286 0 0 1-0.08795-0.01632 0.89537 0.87286 0 0 1-0.08582-0.02487 0.89537 0.87286 0 0 1-0.0829-0.0329 0.89537 0.87286 0 0 1-0.07891-0.04093 0.89537 0.87286 0 0 1-0.07466-0.04844 0.89537 0.87286 0 0 1-0.06908-0.05543 0.89537 0.87286 0 0 1-0.06297-0.0619 0.89537 0.87286 0 0 1-0.05659-0.06786 0.89537 0.87286 0 0 1-0.04915-0.07278 0.89537 0.87286 0 0 1-0.04144-0.07745 0.89537 0.87286 0 0 1-0.03347-0.08081 0.89537 0.87286 0 0 1-0.02498-0.08393 0.89537 0.87286 0 0 1-0.01621-0.08573 0.89537 0.87286 0 0 1-0.0072-0.08703 0.89537 0.87286 0 0 1 0.0013-0.08703 0.89537 0.87286 0 0 1 0.01063-0.08677 0.89537 0.87286 0 0 1 0.0194-0.08522 0.89537 0.87286 0 0 1 0.0279-0.08289 0.89537 0.87286 0 0 1 0.0364-0.07978 0.89537 0.87286 0 0 1 0.04411-0.07563 0.89537 0.87286 0 0 1 0.05181-0.07123 0.89537 0.87286 0 0 1 0.05899-0.06579 0.89537 0.87286 0 0 1 0.06536-0.05957 0.2757 0.26878 0 0 0 0.0016-0.0015 0.2757 0.26878 0 0 0 0.01966-0.01865 0.2757 0.26878 0 0 0 0.01754-0.02073 0.2757 0.26878 0 0 0 0.01541-0.02228 0.2757 0.26878 0 0 0 0.01302-0.02357 0.2757 0.26878 0 0 0 0.01063-0.02487 0.2757 0.26878 0 0 0 8e-3 -0.0259 0.2757 0.26878 0 0 0 0.0053-0.02616 0.2757 0.26878 0 0 0 0.0024-0.02693 0.26768 0.26095 0 0 0 2.65e-4 -0.0067 0.26768 0.26095 0 0 0-0.0013-0.02616 0.26768 0.26095 0 0 0-4e-3 -0.0259 0.26768 0.26095 0 0 0-0.0064-0.02512 0.26768 0.26095 0 0 0-9e-3 -0.0246 0.26768 0.26095 0 0 0-0.01169-0.02357 0.26768 0.26095 0 0 0-0.01381-0.02228 0.26768 0.26095 0 0 0-0.01621-0.02072 0.26768 0.26095 0 0 0-0.01807-0.01916 4.2534 4.1465 0 0 0-0.25958-0.22794 4.2534 4.1465 0 0 0-0.34062-0.24814 4.2534 4.1465 0 0 0-0.36426-0.21369 4.2534 4.1465 0 0 0-0.3842-0.17717 4.2534 4.1465 0 0 0-0.40067-0.1391 0.26768 0.26095 0 0 0-0.0077-0.0021 0.26768 0.26095 0 0 0-0.02604-0.0054 0.26768 0.26095 0 0 0-0.02657-0.0028 0.26768 0.26095 0 0 0-0.02683-2.58e-4zm-4.346 4.5365a1.4294 1.3935 0 0 1 0.13843 0.03497 1.4294 1.3935 0 0 1 0.13418 0.04818 1.4294 1.3935 0 0 0-0.13418-0.04818 1.4294 1.3935 0 0 0-0.13843-0.03497zm0.40093 0.14402a1.4294 1.3935 0 0 1 0.12169 0.07305 1.4294 1.3935 0 0 1 0.11345 0.0847 1.4294 1.3935 0 0 0-0.11345-0.0847 1.4294 1.3935 0 0 0-0.12169-0.07305zm3.0712 1.8543a1.4374 1.4013 0 0 1 0.13869 0.03704 1.4374 1.4013 0 0 0-0.13869-0.03704zm0.2726 0.08755a1.4374 1.4013 0 0 1 0.12833 0.0632 1.4374 1.4013 0 0 0-0.12833-0.0632zm0.36214 0.22535a1.4374 1.4013 0 0 1 0.10336 0.09739 1.4374 1.4013 0 0 0-0.10336-0.09739zm-2.9543 0.10128a3.6765 3.5842 0 0 0 0.31378 0.18675 3.6765 3.5842 0 0 1-0.31378-0.18675z" fill="url(#linearGradient1465)"/>
   <circle cx="25.783" cy="17.319" r="2.1621" fill="url(#linearGradient1481)" opacity=".8"/>
   <circle cx="25.783" cy="17.319" r="1.5307" fill="url(#linearGradient1491)" opacity=".8"/>
  </g>
 </g>
</svg>
