<?xml version="1.0" encoding="UTF-8"?>
<!-- Created with Inkscape (http://www.inkscape.org/) -->
<svg width="64" height="64" version="1.1" viewBox="0 0 16.933 16.933" xmlns="http://www.w3.org/2000/svg" xmlns:xlink="http://www.w3.org/1999/xlink">
 <defs>
  <linearGradient id="linearGradient1005" x1=".9215" x2="16.137" y1="16.113" y2=".89807" gradientTransform="matrix(.99997 0 0 .99997 17.128 9.0208)" gradientUnits="userSpaceOnUse">
   <stop stop-color="#a53cff" offset="0"/>
   <stop stop-color="#b496ff" offset="1"/>
  </linearGradient>
 </defs>
 <g transform="translate(-17.163 -9.0141)">
  <path d="m33.567 17.481c0 0.95152-0.16749 1.8638-0.47463 2.7094-0.2135 0.58767-0.49437 1.1433-0.8339 1.6572-0.14222 0.21607-0.29513 0.42474-0.45745 0.62527-0.51964 0.64178-1.1372 1.2006-1.8304 1.6542-0.25529 0.16717-0.52063 0.32009-0.79534 0.45711-1.0668 0.53388-2.271 0.83419-3.5455 0.83419-1.2745 0-2.4787-0.30031-3.5455-0.83421-0.27473-0.13705-0.54039-0.28996-0.79568-0.45711-0.70205-0.45972-1.327-1.0274-1.8508-1.6798-0.16262-0.20216-0.31523-0.41274-0.45745-0.63076-0.33046-0.50538-0.6042-1.0507-0.81347-1.627-0.3071-0.84526-0.47429-1.7572-0.47429-2.7084 0-4.3837 3.5536-7.9373 7.9373-7.9373 2.2005 0 4.1916 0.89545 5.6294 2.3416 0.41435 0.4166 0.78272 0.87927 1.0962 1.3794 0.29644 0.47106 0.54426 0.97579 0.73702 1.5068 0.30718 0.84557 0.47465 1.7579 0.47465 2.7094z" fill="url(#linearGradient1005)" stroke-width=".031006"/>
  <path d="m25.625 17.481h-2.5636s-1.5382 0-1.5382-1.5382 1.5382-1.5382 1.5382-1.5382h6.1527m-3.5814 3.0763h2.5636s1.5382 0 1.5382 1.5382-1.5382 1.5382-1.5382 1.5382h-6.1527" fill="none" stroke="#fff" stroke-linecap="round" stroke-linejoin="round" stroke-width="1.0253"/>
 </g>
</svg>
