<?xml version="1.0" encoding="UTF-8"?>
<!-- Created with Inkscape (http://www.inkscape.org/) -->
<svg width="64" height="64" version="1.1" viewBox="0 0 16.933 16.933" xmlns="http://www.w3.org/2000/svg" xmlns:xlink="http://www.w3.org/1999/xlink">
 <defs>
  <linearGradient id="linearGradient1005-1" x1="1.0653" x2="13.339" y1="15.97" y2="3.6966" gradientTransform="matrix(.99997 0 0 .99997 17.697 8.1008)" gradientUnits="userSpaceOnUse">
   <stop stop-color="#ff7d1e" offset="0"/>
   <stop stop-color="#ffa53c" offset="1"/>
  </linearGradient>
 </defs>
 <g transform="translate(-17.733 -8.0941)">
  <path d="m34.136 16.56c0 0.95152-0.16749 1.8638-0.47463 2.7094-0.2135 0.58767-0.49437 1.1433-0.8339 1.6572-0.14222 0.21607-0.29513 0.42474-0.45745 0.62527-0.51964 0.64178-1.1372 1.2006-1.8304 1.6542-0.25529 0.16717-0.52063 0.32009-0.79534 0.45711-1.0668 0.53388-2.271 0.83419-3.5455 0.83419-1.2745 0-2.4787-0.30031-3.5455-0.83421-0.27473-0.13705-0.54039-0.28996-0.79568-0.45711-0.70205-0.45972-1.327-1.0274-1.8508-1.6798-0.16262-0.20216-0.31523-0.41274-0.45745-0.63076-0.33046-0.50538-0.6042-1.0507-0.81347-1.627-0.3071-0.84526-0.47429-1.7572-0.47429-2.7084 0-4.3837 3.5536-7.9373 7.9373-7.9373 2.2005 0 4.1916 0.89545 5.6294 2.3416 0.41435 0.4166 0.78272 0.87926 1.0962 1.3794 0.29644 0.47106 0.54426 0.97579 0.73702 1.5068 0.30718 0.84557 0.47465 1.7579 0.47465 2.7094z" fill="url(#linearGradient1005-1)" stroke-width=".031006"/>
  <path d="m22.131 19.817v-3.2629h6.5149s1.6276 0 1.6276-1.6287c0-1.6287-1.6276-1.6298-1.6276-1.6298h-6.5149" fill="none" stroke="#fff" stroke-linecap="round" stroke-linejoin="round" stroke-width="1.0854"/>
 </g>
</svg>
