<?xml version="1.0" encoding="UTF-8" standalone="no"?>
<svg
   width="64"
   height="64"
   version="1.1"
   viewBox="0 0 64 64"
   id="svg70"
   sodipodi:docname="xfce4-fsguard-plugin-warning.svg"
   inkscape:version="1.2.1 (9c6d41e410, 2022-07-14)"
   xmlns:inkscape="http://www.inkscape.org/namespaces/inkscape"
   xmlns:sodipodi="http://sodipodi.sourceforge.net/DTD/sodipodi-0.dtd"
   xmlns:xlink="http://www.w3.org/1999/xlink"
   xmlns="http://www.w3.org/2000/svg"
   xmlns:svg="http://www.w3.org/2000/svg">
  <sodipodi:namedview
     id="namedview72"
     pagecolor="#ffffff"
     bordercolor="#999999"
     borderopacity="1"
     inkscape:showpageshadow="0"
     inkscape:pageopacity="0"
     inkscape:pagecheckerboard="0"
     inkscape:deskcolor="#d1d1d1"
     showgrid="false"
     inkscape:zoom="4.839262"
     inkscape:cx="56.206917"
     inkscape:cy="38.538934"
     inkscape:window-width="1920"
     inkscape:window-height="1005"
     inkscape:window-x="1920"
     inkscape:window-y="0"
     inkscape:window-maximized="1"
     inkscape:current-layer="svg70" />
  <defs
     id="defs12">
    <linearGradient
       id="a">
      <stop
         offset="0"
         id="stop2" />
      <stop
         stop-color="#313131"
         offset="1"
         id="stop4" />
    </linearGradient>
    <linearGradient
       id="c"
       x1="5"
       x2="5"
       y1="6"
       y2="4"
       gradientTransform="translate(108.71069,22)"
       gradientUnits="userSpaceOnUse">
      <stop
         stop-color="#E2E096"
         offset="0"
         id="stop7" />
      <stop
         stop-color="#F9F8D2"
         offset="1"
         id="stop9" />
    </linearGradient>
    <filter
       id="e"
       x="-0.059472452"
       y="-0.060536761"
       width="1.1189449"
       height="1.1210735"
       color-interpolation-filters="sRGB">
      <feGaussianBlur
         stdDeviation="1.3378352"
         id="feGaussianBlur3108" />
    </filter>
    <linearGradient
       id="linearGradient2168"
       x1="1.2395999"
       x2="15.693"
       y1="13.917"
       y2="13.917"
       gradientTransform="matrix(3.7796,0,0,3.7796,72.983,19.813)"
       gradientUnits="userSpaceOnUse"
       xlink:href="#linearGradient856" />
    <linearGradient
       id="linearGradient856"
       x1="-73.361"
       x2="-58.736"
       y1="6.9798999"
       y2="17.198"
       gradientTransform="translate(75.14,-0.97417)"
       gradientUnits="userSpaceOnUse">
      <stop
         stop-color="#3c3c3c"
         offset="0"
         id="stop3112" />
      <stop
         stop-color="#1e1e1e"
         offset="1"
         id="stop3114" />
    </linearGradient>
    <filter
       id="m"
       x="-0.020047907"
       y="-0.17621261"
       width="1.0400958"
       height="1.3524252"
       color-interpolation-filters="sRGB">
      <feGaussianBlur
         stdDeviation="0.43981933"
         id="feGaussianBlur3117" />
    </filter>
    <linearGradient
       id="linearGradient2176"
       x1="20.388"
       x2="43.331001"
       y1="49"
       y2="49"
       gradientUnits="userSpaceOnUse">
      <stop
         offset="0"
         id="stop3120" />
      <stop
         stop-opacity="0"
         offset="1"
         id="stop3122" />
    </linearGradient>
    <filter
       id="j"
       x="-0.086730791"
       y="-0.42391409"
       width="1.1734616"
       height="1.8478282"
       color-interpolation-filters="sRGB">
      <feGaussianBlur
         stdDeviation="0.70652346"
         id="feGaussianBlur3125" />
    </filter>
    <filter
       id="filter3330"
       x="-0.086730793"
       y="-0.4239141"
       width="1.1734616"
       height="1.8478281"
       color-interpolation-filters="sRGB">
      <feGaussianBlur
         stdDeviation="0.70652346"
         id="feGaussianBlur3328" />
    </filter>
    <radialGradient
       id="g"
       cx="32"
       cy="53.195999"
       r="9.9091997"
       gradientTransform="matrix(1.4128,5.3425e-7,-1.6808e-7,0.4921,59.772,41.45)"
       gradientUnits="userSpaceOnUse">
      <stop
         stop-color="#636363"
         offset="0"
         id="stop3128" />
      <stop
         stop-color="#424242"
         offset=".47277"
         id="stop3130" />
      <stop
         stop-color="#373737"
         offset="1"
         id="stop3132" />
    </radialGradient>
    <linearGradient
       id="linearGradient952"
       x1="8.3205004"
       x2="8.3205004"
       y1="1.2559"
       y2="13.432"
       gradientTransform="matrix(3.7796,0,0,3.7796,72.983,19.813)"
       gradientUnits="userSpaceOnUse"
       xlink:href="#linearGradient856" />
    <filter
       id="k"
       x="-0.041258478"
       y="-0.1099396"
       width="1.082517"
       height="1.2198792"
       color-interpolation-filters="sRGB">
      <feGaussianBlur
         stdDeviation="0.34069824"
         id="feGaussianBlur3136" />
    </filter>
    <linearGradient
       id="linearGradient2136"
       x1="1.8645999"
       x2="15.069"
       y1="14.552"
       y2="14.552"
       gradientUnits="userSpaceOnUse">
      <stop
         offset="0"
         id="stop3139" />
      <stop
         stop-opacity="0"
         offset="1"
         id="stop3141" />
    </linearGradient>
    <filter
       id="n"
       x="-0.019840479"
       y="-0.23809324"
       width="1.039681"
       height="1.4761865"
       color-interpolation-filters="sRGB">
      <feGaussianBlur
         stdDeviation="0.1049892"
         id="feGaussianBlur3144" />
    </filter>
    <radialGradient
       id="d"
       cx="7.9373002"
       cy="13.903"
       r="7.1420002"
       gradientTransform="matrix(4.2006,1.7952e-7,-2.0944e-7,4.9006,69.643,0.068932)"
       gradientUnits="userSpaceOnUse">
      <stop
         stop-color="#4d4d4d"
         offset="0"
         id="stop3147" />
      <stop
         stop-color="#4d4d4d"
         stop-opacity="0"
         offset="1"
         id="stop3149" />
    </radialGradient>
    <linearGradient
       id="a-6"
       x1="99.036003"
       x2="99.036003"
       y1="11.64"
       y2="199.84"
       gradientTransform="matrix(0.3,0,0,0.3,10.915329,35.711999)"
       gradientUnits="userSpaceOnUse">
      <stop
         stop-color="#ff4b00"
         offset="0"
         id="stop3661" />
      <stop
         stop-color="#f50f2d"
         offset="1"
         id="stop3663" />
    </linearGradient>
    <linearGradient
       id="linearGradient951"
       x1="220.50999"
       x2="217.88"
       y1="314.42001"
       y2="-128.39999"
       gradientUnits="userSpaceOnUse"
       xlink:href="#a-3" />
    <linearGradient
       id="a-3">
      <stop
         stop-color="#c52828"
         offset="0"
         id="stop3655" />
      <stop
         stop-color="#ff5454"
         offset="1"
         id="stop3657" />
    </linearGradient>
    <linearGradient
       inkscape:collect="always"
       xlink:href="#a-3"
       id="linearGradient3964"
       gradientUnits="userSpaceOnUse"
       x1="220.50999"
       y1="314.42001"
       x2="217.88"
       y2="-128.39999" />
    <linearGradient
       inkscape:collect="always"
       xlink:href="#a-3"
       id="linearGradient3966"
       gradientUnits="userSpaceOnUse"
       x1="220.50999"
       y1="314.42001"
       x2="217.88"
       y2="-128.39999" />
  </defs>
  <use
     transform="translate(27,22)"
     width="100%"
     height="100%"
     fill="#1a1a1a"
     fill-rule="evenodd"
     xlink:href="#a"
     id="use30" />
  <g
     transform="translate(-72.983265,-19.332429)"
     id="g3186">
    <path
       transform="translate(72.983,19.813)"
       d="M 14,5 C 13.45725,4.9990434 12.9869,5.089051 12.6055,5.2793 11.98493,5.51031 11.72196,5.94313 11.543,6.6484 l -6.5273,41.746 c -0.021015,0.22364 -0.00643,0.43929 0.037109,0.64648 0.00264,0.01257 0.0069,0.0246 0.00977,0.03711 -0.00671,0.41826 0.00691,0.85899 0.037109,1.3125 0.036851,1.9891 0.14217,2.4666 0.31836,4.5371 0.096546,1.7208 1.1493,3.1125 2.5762,3.1113 l 48.012,-0.03906 c 1.427,-0.0012 2.4796,-1.3515 2.5762,-3.0723 0.17617,-2.0706 0.28151,-2.55 0.31836,-4.5391 0.03005,-0.45129 0.04154,-0.88816 0.03516,-1.3047 0.0033,-0.01454 0.0087,-0.02836 0.01172,-0.04297 0.04354,-0.2072 0.0582,-0.4248 0.03711,-0.64844 l -7.5273,-41.742 c -0.179,-0.70535 -0.44193,-1.1382 -1.0625,-1.3691 -0.38144,-0.19021 -0.85178,-0.28025 -1.3945,-0.2793 h -17 l -18,-0.00195 z m 18,38.982 a 13.526,21.831 0 0 1 6.9766,3.1758 H 25.0176 A 13.526,21.831 0 0 1 32,43.982 Z"
       filter="url(#e)"
       opacity="0.35"
       stroke-width="3.7796"
       id="path3154" />
    <path
       d="m 79.031,66.971 c -0.93696,0.1637 -0.91523,1.6984 -0.81364,3.2316 0.03666,1.9891 0.14169,2.4669 0.31699,4.5374 0.09606,1.7208 1.143,3.114 2.5627,3.1128 l 47.77,-0.03908 c 1.4198,-0.0012 2.4667,-1.353 2.5627,-3.0738 0.1753,-2.0706 0.28033,-2.5484 0.31696,-4.5374 0.10155,-1.5332 0.12329,-3.0677 -0.81364,-3.2316 h -48.145 z"
       fill="url(#linearGradient2168)"
       stroke="#000000"
       stroke-opacity="0.19608"
       id="path3156"
       style="fill:url(#linearGradient2168)" />
    <g
       fill-rule="evenodd"
       id="g3164">
      <path
         transform="translate(72.983,19.813)"
         d="m 6.7715,45.307 c -0.6077,0 -1.0977,0.74583 -1.0977,1.6719 v 2.6465 c 0,0.92605 0.48996,1.6719 1.0977,1.6719 h 15.867 a 9.8639,5.1132 0 0 1 9.3613,-3.5117 9.8639,5.1132 0 0 1 9.3535,3.5117 h 15.875 c 0.6077,0 1.0977,-0.74583 1.0977,-1.6719 v -2.6465 c 0,-0.92605 -0.48996,-1.6719 -1.0977,-1.6719 H 6.7713 Z"
         filter="url(#m)"
         opacity="0.35"
         style="paint-order:stroke fill markers"
         id="path3158" />
      <path
         transform="translate(72.983,18.813)"
         d="m 31.855,47 a 10.294,5.7981 0 0 0 -9.7715,4 h 2.502 A 10.294,5.7981 0 0 1 31.855,49.3008 10.294,5.7981 0 0 1 39.1128,51 h 2.5215 A 10.294,5.7981 0 0 0 31.855,47 Z"
         fill="url(#linearGradient2176)"
         filter="url(#j)"
         opacity="0.35"
         style="fill:url(#linearGradient2176);paint-order:stroke fill markers"
         id="path3160" />
      <path
         transform="translate(72.983,19.786)"
         d="m 31.855,47 a 10.294,5.7981 0 0 0 -9.7715,4 h 2.502 A 10.294,5.7981 0 0 1 31.855,49.3008 10.294,5.7981 0 0 1 39.1128,51 h 2.5215 A 10.294,5.7981 0 0 0 31.855,47 Z"
         fill="#00a2ef"
         filter="url(#j)"
         style="paint-order:stroke fill markers"
         id="path3162" />
    </g>
    <g
       stroke-width="3.7796"
       id="g3172">
      <path
         d="m 104.98,63.361 a 13.526,23.175 0 0 0 -9.9063,7.4375 h 0.87694 a 10.295,6.1551 0 0 1 9.0295,-3.2013 10.295,6.1551 0 0 1 9.0178,3.2013 h 0.89452 a 13.526,23.175 0 0 0 -9.912,-7.4375 z"
         fill="url(#g)"
         id="path3166"
         style="fill:url(#g)" />
      <path
         d="m 86.983,24.813 c -0.54275,-9.57e-4 -1.0131,0.08905 -1.3945,0.2793 -0.62061,0.23101 -0.88352,0.66381 -1.0625,1.3691 l -6.5274,41.746 c -0.02101,0.22364 -0.0064,0.4393 0.03712,0.6465 0.01742,0.08289 0.03976,0.16449 0.06641,0.24412 0.0133,0.03984 0.02744,0.07839 0.04297,0.1172 0.04655,0.11637 0.10308,0.22886 0.16797,0.33593 0.10815,0.17844 0.23936,0.34338 0.39062,0.49021 0.03027,0.0291 0.062,0.05817 0.09375,0.08595 0.15875,0.13977 0.3352,0.26132 0.5254,0.36133 0.03803,0.01965 0.07618,0.0384 0.11523,0.05666 0.35151,0.16422 0.74364,0.25588 1.1465,0.25588 h 14.492 a 13.526,21.831 0 0 1 9.9063,-7.0059 13.526,21.831 0 0 1 9.912,7.0059 h 14.486 c 0.93984,0 1.8172,-0.5008 2.2715,-1.25 0.0649,-0.107 0.1214,-0.21952 0.16796,-0.33593 0.0155,-0.03878 0.0314,-0.07748 0.0449,-0.11721 0.0265,-0.07952 0.0471,-0.16131 0.0644,-0.24412 0.0435,-0.2072 0.0581,-0.42479 0.037,-0.64843 l -7.5274,-41.742 c -0.179,-0.70535 -0.44195,-1.1381 -1.0625,-1.3691 -0.38144,-0.19021 -0.85177,-0.28025 -1.3945,-0.2793 h -35 z"
         fill="url(#linearGradient952)"
         id="path3168"
         style="fill:url(#linearGradient952)" />
      <path
         transform="translate(72.983,19.813)"
         d="m 32,43.549 a 13.526,23.175 0 0 0 -9.9062,7.4375 h 0.29688 a 13.526,23.175 0 0 1 9.6094,-6.9199 13.526,23.175 0 0 1 9.6035,6.9199 h 0.30859 a 13.526,23.175 0 0 0 -9.9121,-7.4375 z"
         filter="url(#k)"
         opacity="0.15"
         id="path3170" />
    </g>
    <g
       fill-rule="evenodd"
       id="g3182">
      <rect
         transform="matrix(3.9372,0,0,3.6542,71.649,21.704)"
         x="2.1166"
         y="14.023"
         width="12.7"
         height="1.0583"
         rx="0.26458001"
         ry="0.29539001"
         fill="url(#linearGradient2136)"
         filter="url(#n)"
         opacity="0.1"
         style="fill:url(#linearGradient2136);paint-order:stroke fill markers"
         id="rect3174" />
      <circle
         cx="126.48"
         cy="74.315002"
         r="1.5"
         fill="#f44e24"
         stroke-width="3.7796"
         style="paint-order:stroke fill markers"
         id="circle3176" />
      <circle
         cx="121.63"
         cy="74.292"
         r="1.1884"
         fill="#ffb800"
         stroke-width="2.9944"
         style="paint-order:stroke fill markers"
         id="circle3178" />
      <circle
         cx="117.09"
         cy="74.292"
         r="1.1884"
         fill="#00a2ef"
         stroke-width="2.9944"
         style="paint-order:stroke fill markers"
         id="circle3180" />
    </g>
    <path
       d="m 86.984,24.813 c -0.54275,-9.56e-4 -1.0131,0.08905 -1.3945,0.27931 -0.62057,0.23101 -0.88352,0.66381 -1.0625,1.3691 l -6.5274,41.746 c -0.02117,0.22364 -0.0064,0.4393 0.03704,0.6465 0.01739,0.08289 0.03976,0.16449 0.06641,0.24412 0.01323,0.03984 0.02759,0.07839 0.04297,0.1172 0.04657,0.11637 0.10307,0.22886 0.16796,0.33593 0.10814,0.17844 0.23936,0.34334 0.39062,0.49022 0.03024,0.0291 0.06199,0.05817 0.09373,0.08595 0.15874,0.13977 0.33521,0.26132 0.5254,0.36133 0.03802,0.01965 0.07616,0.03844 0.11524,0.05666 0.3515,0.16422 0.74364,0.25584 1.1465,0.25584 h 14.492 a 13.526,21.831 0 0 1 9.9063,-7.0059 13.526,21.831 0 0 1 9.912,7.0059 h 14.486 c 0.9398,0 1.8172,-0.5008 2.2715,-1.25 0.0649,-0.107 0.1214,-0.21952 0.16796,-0.33593 0.0155,-0.03878 0.0314,-0.07748 0.0449,-0.1172 0.0265,-0.07952 0.0471,-0.16131 0.0644,-0.24412 0.0436,-0.2072 0.0581,-0.42479 0.037,-0.64843 l -7.5274,-41.742 c -0.179,-0.70535 -0.44195,-1.1382 -1.0625,-1.3691 -0.38144,-0.19023 -0.85177,-0.28026 -1.3945,-0.27931 h -17 z"
       fill="url(#d)"
       stroke-width="3.7796"
       id="path3184"
       style="fill:url(#d)" />
  </g>
  <g
     id="g3976"
     transform="matrix(0.41666667,0,0,0.41666667,-4.5480538,24.119791)">
    <circle
       cx="40.915329"
       cy="65.712502"
       r="30"
       color="#000000"
       fill="url(#a-6)"
       id="circle3684"
       style="fill:url(#a-6)" />
    <g
       transform="matrix(0.23747,0,0,0.23875,1.7848293,21.607499)"
       fill="#ffffff"
       stroke="url(#linearGradient951)"
       id="g3690"
       style="stroke:url(#linearGradient951)">
      <path
         d="m 147.28,131.03 7.25,83 c 0.423,4.886 4.301,8.913 9.355,9.355 5.661,0.495 10.651,-3.694 11.145,-9.355 l 7.25,-83 c 0.078,-0.97 0.088,-2.057 0,-3.057 -0.844,-9.666 -9.363,-16.816 -19.028,-15.973 -9.665,0.845 -16.816,9.366 -15.972,19.03 z"
         id="path3686"
         style="stroke:url(#linearGradient3964)" />
      <circle
         cx="164.78"
         cy="243.03"
         r="14.5"
         id="circle3688"
         style="stroke:url(#linearGradient3966)" />
    </g>
  </g>
</svg>
