<?xml version="1.0" encoding="UTF-8"?>
<!-- Created with Inkscape (http://www.inkscape.org/) -->
<svg width="64" height="64" version="1.1" viewBox="0 0 16.933 16.933" xmlns="http://www.w3.org/2000/svg">
 <defs>
  <linearGradient id="a-3-3" x1="99.036" x2="99.036" y1="11.64" y2="199.84" gradientTransform="matrix(.079379 0 0 .079379 .52891 .52879)" gradientUnits="userSpaceOnUse">
   <stop stop-color="#ff4b00" offset="0"/>
   <stop stop-color="#f50f2d" offset="1"/>
  </linearGradient>
 </defs>
 <circle cx="8.4667" cy="8.4667" r="7.9379" color="#000000" fill="url(#a-3-3)" fill-opacity=".85484" stroke-width=".2646"/>
 <circle cx="8.4667" cy="8.4667" r="5.9531" fill="#fff" fill-opacity=".84677"/>
 <path d="m5.6759 5.9851c-0.30377 0.0441-0.54497 0.35973-0.51354 0.67397 0.03115 0.31452 0.32941 0.57391 0.63648 0.55406h0.33712c0.14417 0 0.19489 0.034463 0.30156 0.13562 0.10668 0.10006 0.24671 0.28971 0.39418 0.52319 0.11742 0.18524 0.24754 0.39639 0.42313 0.59982-0.17449 0.20233-0.3068 0.41679-0.42313 0.59982-0.14748 0.23265-0.28751 0.41238-0.39418 0.51244-0.10668 0.10116-0.15712 0.13562-0.30156 0.13562h-0.33712c-0.37268-0.01187-0.63952 0.37268-0.63952 0.67728 0 0.30377 0.34567 0.52236 0.63952 0.55131h0.33712c0.44794 0 0.86583-0.22714 1.1285-0.47495 0.2627-0.24671 0.42644-0.52236 0.57391-0.75364 0.14748-0.23376 0.25939-0.41128 0.36607-0.51244 0.093725-0.12266 0.15299-0.15602 0.2627-0.18855 0.14334 0 0.223 0.087112 0.3283 0.18855 0.10668 0.10116 0.25746 0.28006 0.40494 0.51244 0.14747 0.23265 0.30156 0.5072 0.56316 0.75364 0.2627 0.24754 0.65247 0.47495 1.1004 0.47495h0.36607c0.29385-0.02894 0.54386-0.31232 0.54386-0.61471 0-0.30377-0.24974-0.58576-0.54386-0.61388h-0.36607c-0.14417 0-0.19489-0.03445-0.30156-0.13562-0.10668-0.10006-0.21859-0.28117-0.36607-0.51244-0.11964-0.18965-0.24671-0.41128-0.43278-0.61912 0.061475-0.067812 0.12074-0.14417 0.16898-0.21308 0.27896-0.38536 0.47054-0.73875 0.62987-0.88953 0.10668-0.10006 0.15712-0.13562 0.30156-0.13562h0.36607c0.29385-0.028112 0.54276-0.31121 0.54276-0.61471 0-0.30377-0.24864-0.58576-0.54276-0.61388h-0.36607c-0.44684 0-0.83771 0.22714-1.1004 0.47385-0.39418 0.37048-0.56867 0.79581-0.76135 1.0626-0.19378 0.26821-0.32086 0.39088-0.53615 0.39088-0.30046-0.11742-0.47605-0.45979-0.62877-0.69988-0.14747-0.23265-0.31121-0.5072-0.57391-0.75364-0.2627-0.24754-0.68059-0.47385-1.1285-0.47385h-0.33713-0.0656-0.057062" fill="#fa3014" fill-opacity=".8549"/>
</svg>
