<?xml version="1.0" encoding="UTF-8"?>
<svg width="64" height="64" version="1.1" xmlns="http://www.w3.org/2000/svg">
 <g transform="matrix(1.9999 0 0 1.9999 -15.998 -15.999)">
  <!-- color: #20794f -->
  <g>
   <path d="m18.664 10c1.332 1.34 1.324 2.406 1.324 4.02v3.336c-2.941 0.986-5.349 3.03-6.729 5.645 1.74 1 19.74 1 21.471 0-1.383-2.611-3.796-4.65-6.73-5.645v-3.336c0-1.605-8e-3 -2.676 1.324-4.02" fill="#95dee4"/>
   <path d="m13.25 23c-0.801 1.523-1.25 3.242-1.25 5.063 0 4.254 2.477 7.984 6.125 9.938h11.75c3.648-1.953 6.125-5.684 6.125-9.938 0-1.82-0.449-3.539-1.25-5.063" fill="#25a368"/>
   <g fill="#f9f9f9">
    <path d="m26.5 35c-0.277 0-0.5 0.223-0.5 0.5 0 0.273 0.223 0.5 0.5 0.5s0.5-0.223 0.5-0.5-0.223-0.5-0.5-0.5z"/>
    <path d="m24.75 32.5c-0.414 0-0.75 0.336-0.75 0.75s0.336 0.75 0.75 0.75 0.75-0.336 0.75-0.75-0.336-0.75-0.75-0.75z"/>
    <path d="m26 29c-0.551 0-1 0.445-1 1 0 0.551 0.449 1 1 1s1-0.449 1-1-0.449-1-1-1z"/>
    <path d="m25.5 21c-0.828 0-1.5 0.672-1.5 1.5 0 0.824 0.672 1.5 1.5 1.5s1.5-0.672 1.5-1.5-0.672-1.5-1.5-1.5z"/>
    <path d="m23.25 25.5c-0.691 0-1.25 0.559-1.25 1.25 0 0.687 0.559 1.25 1.25 1.25s1.25-0.559 1.25-1.25c0-0.687-0.559-1.25-1.25-1.25z"/>
   </g>
  </g>
 </g>
</svg>
