<?xml version="1.0" encoding="UTF-8" standalone="no"?>
<svg
   xmlns:dc="http://purl.org/dc/elements/1.1/"
   xmlns:cc="http://creativecommons.org/ns#"
   xmlns:rdf="http://www.w3.org/1999/02/22-rdf-syntax-ns#"
   xmlns:svg="http://www.w3.org/2000/svg"
   xmlns="http://www.w3.org/2000/svg"
   xmlns:sodipodi="http://sodipodi.sourceforge.net/DTD/sodipodi-0.dtd"
   xmlns:inkscape="http://www.inkscape.org/namespaces/inkscape"
   width="64"
   height="64"
   version="1"
   id="svg18"
   sodipodi:docname="yahoo-mail.svg"
   inkscape:version="1.0.2 (e86c870879, 2021-01-15)">
  <metadata
     id="metadata24">
    <rdf:RDF>
      <cc:Work
         rdf:about="">
        <dc:format>image/svg+xml</dc:format>
        <dc:type
           rdf:resource="http://purl.org/dc/dcmitype/StillImage" />
        <dc:title></dc:title>
      </cc:Work>
    </rdf:RDF>
  </metadata>
  <defs
     id="defs22">
    <linearGradient
       id="g"
       x1="-322.18"
       x2="-320.91"
       y1="509.99"
       y2="594.99"
       gradientTransform="matrix(0.26453,0,0,0.23277,15.931001,-91.006)"
       gradientUnits="userSpaceOnUse">
      <stop
         stop-color="#eff0f1"
         offset="0"
         id="stop2" />
      <stop
         stop-color="#ccd2d7"
         offset="1"
         id="stop4" />
    </linearGradient>
    <linearGradient
       id="e"
       x1="-303.15"
       x2="-301.88"
       y1="591.82"
       y2="515.06"
       gradientTransform="matrix(0.26453,0,0,0.22561,17.931001,-94.346)"
       gradientUnits="userSpaceOnUse">
      <stop
         stop-color="#ffee5e"
         offset="0"
         id="stop7" />
      <stop
         stop-color="#feff9f"
         offset="1"
         id="stop9" />
    </linearGradient>
    <linearGradient
       id="f"
       x1="-322.73"
       x2="-320.91"
       y1="595.62"
       y2="510.62"
       gradientTransform="matrix(0.26757,0,0,0.22024,21.111001,-98.601)"
       gradientUnits="userSpaceOnUse">
      <stop
         stop-color="#ff594d"
         offset="0"
         id="stop12" />
      <stop
         stop-color="#ff7f76"
         offset="1"
         id="stop14" />
    </linearGradient>
    <linearGradient
       id="a"
       x1="32.079"
       x2="31.961"
       y1="62.104"
       y2="3.0577"
       gradientTransform="matrix(1.2321,0,0,1.2321,-105.0272,-8.4535)"
       gradientUnits="userSpaceOnUse">
      <stop
         stop-color="#957d75"
         offset="0"
         id="stop17" />
      <stop
         stop-color="#d1b0a4"
         offset="1"
         id="stop19" />
    </linearGradient>
    <filter
       id="j"
       x="-.027881"
       y="-.05079"
       width="1.0558"
       height="1.1016"
       color-interpolation-filters="sRGB">
      <feGaussianBlur
         stdDeviation="0.4249491"
         id="feGaussianBlur22" />
    </filter>
    <filter
       id="i"
       x="-.027577"
       y="-.05183"
       width="1.0552"
       height="1.1037"
       color-interpolation-filters="sRGB">
      <feGaussianBlur
         stdDeviation="0.42031726"
         id="feGaussianBlur25" />
    </filter>
    <filter
       id="h"
       x="-.027243"
       y="-.053053"
       width="1.0545"
       height="1.1061"
       color-interpolation-filters="sRGB">
      <feGaussianBlur
         stdDeviation="0.41999768"
         id="feGaussianBlur28" />
    </filter>
    <filter
       id="k"
       x="-.084"
       y="-.084"
       width="1.168"
       height="1.168"
       color-interpolation-filters="sRGB">
      <feGaussianBlur
         stdDeviation="1.4069033"
         id="feGaussianBlur31" />
    </filter>
    <linearGradient
       id="linearGradient862-3"
       x1="7.9373"
       x2="7.9373"
       y1="15.081"
       y2="1.852"
       gradientTransform="matrix(3.7796,0,0,3.7796,-96.578999,0)"
       gradientUnits="userSpaceOnUse">
      <stop
         stop-color="#846458"
         offset="0"
         id="stop34" />
      <stop
         stop-color="#ad8578"
         offset="1"
         id="stop36" />
    </linearGradient>
    <style
       type="text/css"
       id="style950" />
    <filter
       id="filter968"
       x="-.12009"
       y="-.12009"
       width="1.2402"
       height="1.2402"
       color-interpolation-filters="sRGB">
      <feGaussianBlur
         stdDeviation="0.066194553"
         id="feGaussianBlur952" />
    </filter>
    <filter
       id="filter1016"
       x="-.036858"
       y="-.17692"
       width="1.0737"
       height="1.3538"
       color-interpolation-filters="sRGB">
      <feGaussianBlur
         stdDeviation="0.097518237"
         id="feGaussianBlur955" />
    </filter>
    <filter
       id="filter1024"
       x="-.10615"
       y="-.50953"
       width="1.2123"
       height="2.0191"
       color-interpolation-filters="sRGB">
      <feGaussianBlur
         stdDeviation="0.28085546"
         id="feGaussianBlur958" />
    </filter>
    <linearGradient
       id="linearGradient1154"
       x1="-184.76"
       x2="-170.21"
       y1="-15.818"
       y2="-1.2664"
       gradientTransform="matrix(3.7796,0,0,3.7796,621.76892,91.918188)"
       gradientUnits="userSpaceOnUse">
      <stop
         stop-color="#fed54f"
         offset="0"
         id="stop961" />
      <stop
         stop-color="#ffbb4d"
         offset="1"
         id="stop963" />
    </linearGradient>
    <linearGradient
       id="linearGradient1190"
       x1="-38.893"
       x2="-38.893"
       y1="8.9957"
       y2="10.583"
       gradientTransform="matrix(0.96,0,0,0.83333,-12.871,2.9791)"
       gradientUnits="userSpaceOnUse">
      <stop
         stop-color="#c6d4e7"
         offset="0"
         id="stop966" />
      <stop
         stop-color="#d8e5f8"
         offset=".097346"
         id="stop968" />
      <stop
         stop-color="#fff"
         offset=".20734"
         id="stop970" />
      <stop
         stop-color="#f1f4f5"
         offset=".49769"
         id="stop972" />
      <stop
         stop-color="#a1aab0"
         offset=".73738"
         id="stop974" />
      <stop
         stop-color="#a2abb0"
         offset=".78932"
         id="stop976" />
      <stop
         stop-color="#a2a7a2"
         offset=".94113"
         id="stop978" />
      <stop
         stop-color="#d6d1b4"
         offset="1"
         id="stop980" />
    </linearGradient>
    <filter
       id="filter1221"
       x="-.018237"
       y="-.035087"
       width="1.0365"
       height="1.0702"
       color-interpolation-filters="sRGB">
      <feGaussianBlur
         stdDeviation="0.096503745"
         id="feGaussianBlur983" />
    </filter>
    <filter
       id="filter1227"
       x="-.021559"
       y="-.027064"
       width="1.0431"
       height="1.0541"
       color-interpolation-filters="sRGB">
      <feGaussianBlur
         stdDeviation="0.1140825"
         id="feGaussianBlur986" />
    </filter>
    <filter
       id="filter1233"
       x="-.024"
       y="-.024"
       width="1.048"
       height="1.048"
       color-interpolation-filters="sRGB">
      <feGaussianBlur
         stdDeviation="0.1269975"
         id="feGaussianBlur989" />
    </filter>
  </defs>
  <sodipodi:namedview
     pagecolor="#ffffff"
     bordercolor="#666666"
     borderopacity="1"
     objecttolerance="10"
     gridtolerance="10"
     guidetolerance="10"
     inkscape:pageopacity="0"
     inkscape:pageshadow="2"
     inkscape:window-width="1920"
     inkscape:window-height="935"
     id="namedview20"
     showgrid="false"
     inkscape:zoom="6.0546875"
     inkscape:cx="62.662436"
     inkscape:cy="34.149135"
     inkscape:window-x="0"
     inkscape:window-y="38"
     inkscape:window-maximized="1"
     inkscape:current-layer="svg18" />
  <path
     id="rect1399"
     style="fill:#7139d2;fill-opacity:1;stroke:none;stroke-width:0.5;stroke-linejoin:round;paint-order:stroke fill markers"
     d="m 9.0878909,4.5000001 c -2.541574,0 -4.587891,2.0463168 -4.587891,4.5878906 V 54.912109 c 0,2.541574 2.046317,4.587891 4.587891,4.587891 H 54.912109 C 57.453683,59.5 59.5,57.453683 59.5,54.912109 V 9.0878907 c 0,-2.5415738 -2.046317,-4.5878906 -4.587891,-4.5878906 z" />
  <rect
     style="opacity:0.2"
     width="34"
     height="23"
     x="15"
     y="16"
     rx="1.417"
     ry="1.438"
     id="rect6" />
  <rect
     style="fill:#ffffff"
     width="34"
     height="23"
     x="15"
     y="15"
     rx="1.417"
     ry="1.438"
     id="rect8" />
  <path
     style="fill:#a766fa"
     d="m 18,18 h 28 v 4.125 L 32,29 18,22.125 Z"
     id="path10" />
  <path
     style="opacity:0.2"
     d="m 17.411185,43.473036 c -7.2e-5,1.69e-4 -2.5e-4,3.34e-4 -3.38e-4,5.04e-4 -4.17e-4,-8.4e-5 -7.56e-4,-2.54e-4 -0.0011,-3.35e-4 l 6.68e-4,0.0013 c -0.365234,0.679948 -1.707363,2.873281 -2.56234,4.27912 -0.867424,-1.436758 -1.894271,-3.094975 -2.563171,-4.280436 l -0.0045,0.0015 0.0029,-0.0015 c -0.530565,0.113138 -0.752455,0.120337 -1.281926,0 l 0.0029,0.0032 c -0.0014,-0.0011 -0.0029,-0.0021 -0.0043,-0.0032 1.050761,1.583379 2.734605,4.599223 3.307417,5.589282 l -0.0769,4.127539 0.0043,-0.0021 -0.0029,0.0021 c 0,0 0.369501,-0.06206 0.616478,-0.06206 0.273751,0 0.614193,0.06206 0.614193,0.06206 l -0.0013,-0.0013 0.0029,0.0013 -0.0769,-4.12787 -0.0029,-9.85e-4 c 1.067728,-1.873299 2.828613,-4.926721 3.315305,-5.585662 l 0.0029,-0.0027 c -2.52e-4,5.1e-5 -4.31e-4,8.6e-5 -6.81e-4,1.67e-4 5.8e-5,-8e-5 8.8e-5,-2.51e-4 1.77e-4,-3.35e-4 -1.77e-4,1.68e-4 -4.3e-4,1.68e-4 -6.83e-4,3.35e-4 -0.460316,0.104268 -0.875573,0.107903 -1.287822,5.06e-4 z m 34.917432,0.101163 c -0.307756,0 -0.612876,0.180463 -0.612876,0.641942 -0.18252,2.314914 -0.372539,4.636301 -0.684963,6.845245 l -0.0013,0.0015 c 5.05e-4,-9.3e-5 9.77e-4,-7.4e-5 0.0013,-1.7e-4 -3e-5,1.6e-4 1.3e-5,3.39e-4 0,4.98e-4 l 0.0045,-9.85e-4 c 0.18741,-0.03141 0.333067,0.01752 0.474602,0.07457 l -6.82e-4,-9.84e-4 c 0.354904,-2.243712 1.197808,-5.604903 1.413624,-6.556217 0.03098,-0.133691 0.0772,-0.291803 0.0772,-0.404149 0,-0.339444 -0.215075,-0.536686 -0.537174,-0.590539 l -3.27e-4,3.37e-4 c 0,0 -0.07957,-0.011 -0.133496,-0.011 z m -6.965296,0.357346 c -2.708263,0 -4.778339,1.5378 -4.778339,4.39703 0,2.355752 1.37717,4.428889 4.801172,4.428889 2.898666,0 4.791319,-1.59361 4.791319,-4.38734 0,-2.634566 -1.765533,-4.438579 -4.813648,-4.438579 z m -9.388532,0.46327 c -2.719538,0 -4.146275,1.72428 -4.146275,3.959545 0,2.446599 1.557619,3.93885 4.142334,3.93885 2.794352,0 4.159062,-1.681754 4.159062,-3.913233 0,-2.487969 -1.629705,-3.985162 -4.154958,-3.985162 z m 9.391822,0.01511 c 2.033759,0 3.531753,1.235456 3.531753,3.960365 0,2.962147 -1.812152,3.922757 -3.528628,3.922757 -1.833903,0 -3.504489,-1.076208 -3.504489,-3.98122 0,-3.010998 1.851773,-3.901902 3.501364,-3.901902 z m -25.228686,0.0854 c -1.032373,2.590887 -2.221837,5.514546 -3.291489,7.694923 v 1.69e-4 l -1.77e-4,8.43e-4 0.0043,-0.0018 c -0.0011,2.53e-4 -0.0013,4.19e-4 -0.0029,6.71e-4 l 0.0076,-0.0027 -0.0043,0.002 c 0.489193,-0.121438 0.956105,-0.08404 1.264826,-5.07e-4 -0.0015,-6.72e-4 -0.0029,-0.0015 -0.0043,-0.0022 l 0.0043,0.0015 C 18.388691,51.4986 18.6983,50.718568 19.009154,49.932641 l 0.0013,0.0013 c 1.05054,-0.02995 2.101032,-0.03399 3.151568,0 0.298899,0.751785 0.598285,1.504368 0.89057,2.257226 6.82e-4,-3.35e-4 0.0012,-6.71e-4 0.0013,-9.82e-4 l -3.28e-4,8.39e-4 c 0.468407,-0.122315 0.934608,-0.08911 1.27895,-0.0022 l -0.0013,-5.01e-4 0.0013,5.01e-4 c -0.770531,-1.439147 -2.317539,-5.204836 -3.30057,-7.69272 l -0.0076,0.0032 0.006,-0.0036 c -0.319314,0.111523 -0.579611,0.105089 -0.893191,1.67e-4 z m 4.656821,0.0032 v 1.67e-4 c 0.111579,2.568214 0.101943,5.131719 0,7.691479 0.416267,-0.100286 0.842489,-0.104589 1.280104,1.71e-4 l -0.0029,-0.0018 0.0045,0.0018 c -0.06314,-1.193491 -0.09497,-2.385833 -0.09897,-3.577236 1.432572,-0.02001 2.865342,-0.02086 4.298002,-0.0015 -0.0045,1.191951 -0.03599,2.384841 -0.09913,3.578879 l 0.0043,-0.0015 -0.0029,0.0015 c 0.437512,-0.104728 0.863779,-0.100383 1.279942,-1.7e-4 1.61e-4,4.2e-5 3.39e-4,8.3e-5 5.02e-4,1.7e-4 l -1.63e-4,-1.7e-4 c -0.101942,-2.559759 -0.111592,-5.123266 0,-7.691478 l 1.63e-4,-1.67e-4 c -4.4e-5,1.1e-5 -7.3e-5,-1.3e-5 -1.63e-4,0 h -1.78e-4 c -0.434875,0.104073 -0.861823,0.101274 -1.28157,0 l 6.67e-4,8.39e-4 -9.79e-4,-6.72e-4 c 0.06209,1.195504 0.09454,2.392086 0.09897,3.589553 -1.43394,0.03336 -2.866779,0.03606 -4.297842,0 0.0045,-1.197467 0.0369,-2.394049 0.09897,-3.589553 l -9.94e-4,6.72e-4 6.82e-4,-8.39e-4 c -0.419762,0.101274 -0.846873,0.104073 -1.281749,0 z m 11.113529,0.362438 h 1.62e-4 c 0.0237,-5.05e-4 0.04756,0 0.07126,0 1.663059,0 2.884397,1.132749 2.884397,3.499723 0,2.363993 -1.219827,3.496605 -2.881269,3.496605 -1.812789,0 -2.87798,-1.299122 -2.87798,-3.490202 0,-2.478045 1.312447,-3.475606 2.803419,-3.506126 z M 20.58378,45.825269 c 0.424637,1.183439 0.891771,2.376005 1.366164,3.571983 l -5.04e-4,-1.67e-4 c -0.909136,0.0315 -1.818094,0.03196 -2.727229,0 l -0.0013,8.23e-4 c 0.555606,-1.409247 1.084646,-2.770681 1.363361,-3.572639 z m 30.407095,6.166354 c -0.403299,0 -0.604506,0.307686 -0.604506,0.638496 0,0.390013 0.311625,0.589881 0.696789,0.589881 0.278581,0 0.582501,-0.169383 0.582501,-0.628804 0,-0.368729 -0.288791,-0.599573 -0.674784,-0.599573 z"
     id="path12" />
  <path
     style="fill:#ffffff"
     d="m 17.411185,42.473036 c -7.2e-5,1.69e-4 -2.5e-4,3.34e-4 -3.38e-4,5.04e-4 -4.17e-4,-8.4e-5 -7.56e-4,-2.54e-4 -0.0011,-3.35e-4 l 6.68e-4,0.0013 c -0.365234,0.679948 -1.707363,2.873281 -2.56234,4.27912 -0.867424,-1.436758 -1.894271,-3.094975 -2.563171,-4.280436 l -0.0045,0.0015 0.0029,-0.0015 c -0.530565,0.113138 -0.752455,0.120337 -1.281926,0 l 0.0029,0.0032 c -0.0014,-0.0011 -0.0029,-0.0021 -0.0043,-0.0032 1.050761,1.583379 2.734605,4.599223 3.307417,5.589282 l -0.0769,4.127539 0.0043,-0.0021 -0.0029,0.0021 c 0,0 0.369501,-0.06206 0.616478,-0.06206 0.273751,0 0.614193,0.06206 0.614193,0.06206 l -0.0013,-0.0013 0.0029,0.0013 -0.0769,-4.12787 -0.0029,-9.85e-4 c 1.067728,-1.873299 2.828613,-4.926721 3.315305,-5.585662 l 0.0029,-0.0027 c -2.52e-4,5.1e-5 -4.31e-4,8.6e-5 -6.81e-4,1.67e-4 5.8e-5,-8e-5 8.8e-5,-2.51e-4 1.77e-4,-3.35e-4 -1.77e-4,1.68e-4 -4.3e-4,1.68e-4 -6.83e-4,3.35e-4 -0.460316,0.104268 -0.875573,0.107903 -1.287822,5.06e-4 z m 34.917432,0.101163 c -0.307756,0 -0.612876,0.180463 -0.612876,0.641942 -0.18252,2.314914 -0.372539,4.636301 -0.684963,6.845245 l -0.0013,0.0015 c 5.05e-4,-9.3e-5 9.77e-4,-7.4e-5 0.0013,-1.7e-4 -3e-5,1.6e-4 1.3e-5,3.39e-4 0,4.98e-4 l 0.0045,-9.85e-4 c 0.18741,-0.03141 0.333067,0.01752 0.474602,0.07457 l -6.82e-4,-9.84e-4 c 0.354904,-2.243712 1.197808,-5.604903 1.413624,-6.556217 0.03098,-0.133691 0.0772,-0.291803 0.0772,-0.404149 0,-0.339444 -0.215075,-0.536686 -0.537174,-0.590539 l -3.27e-4,3.37e-4 c 0,0 -0.07957,-0.011 -0.133496,-0.011 z m -6.965296,0.357346 c -2.708263,0 -4.778339,1.5378 -4.778339,4.39703 0,2.355752 1.37717,4.428889 4.801172,4.428889 2.898666,0 4.791319,-1.59361 4.791319,-4.38734 0,-2.634566 -1.765533,-4.438579 -4.813648,-4.438579 z m -9.388532,0.46327 c -2.719538,0 -4.146275,1.72428 -4.146275,3.959545 0,2.446599 1.557619,3.93885 4.142334,3.93885 2.794352,0 4.159062,-1.681754 4.159062,-3.913233 0,-2.487969 -1.629705,-3.985162 -4.154958,-3.985162 z m 9.391822,0.01511 c 2.033759,0 3.531753,1.235456 3.531753,3.960365 0,2.962147 -1.812152,3.922757 -3.528628,3.922757 -1.833903,0 -3.504489,-1.076208 -3.504489,-3.98122 0,-3.010998 1.851773,-3.901902 3.501364,-3.901902 z m -25.228686,0.0854 c -1.032373,2.590887 -2.221837,5.514546 -3.291489,7.694923 v 1.69e-4 l -1.77e-4,8.43e-4 0.0043,-0.0018 c -0.0011,2.53e-4 -0.0013,4.19e-4 -0.0029,6.71e-4 l 0.0076,-0.0027 -0.0043,0.002 c 0.489193,-0.121438 0.956105,-0.08404 1.264826,-5.07e-4 -0.0015,-6.72e-4 -0.0029,-0.0015 -0.0043,-0.0022 l 0.0043,0.0015 C 18.388691,50.4986 18.6983,49.718568 19.009154,48.932641 l 0.0013,0.0013 c 1.05054,-0.02995 2.101032,-0.03399 3.151568,0 0.298899,0.751785 0.598285,1.504368 0.89057,2.257226 6.82e-4,-3.35e-4 0.0012,-6.71e-4 0.0013,-9.82e-4 l -3.28e-4,8.39e-4 c 0.468407,-0.122315 0.934608,-0.08911 1.27895,-0.0022 l -0.0013,-5.01e-4 0.0013,5.01e-4 c -0.770531,-1.439147 -2.317539,-5.204836 -3.30057,-7.69272 l -0.0076,0.0032 0.006,-0.0036 c -0.319314,0.111523 -0.579611,0.105089 -0.893191,1.67e-4 z m 4.656821,0.0032 v 1.67e-4 c 0.111579,2.568214 0.101943,5.131719 0,7.691479 0.416267,-0.100286 0.842489,-0.104589 1.280104,1.71e-4 l -0.0029,-0.0018 0.0045,0.0018 c -0.06314,-1.193491 -0.09497,-2.385833 -0.09897,-3.577236 1.432572,-0.02001 2.865342,-0.02086 4.298002,-0.0015 -0.0045,1.191951 -0.03599,2.384841 -0.09913,3.578879 l 0.0043,-0.0015 -0.0029,0.0015 c 0.437512,-0.104728 0.863779,-0.100383 1.279942,-1.7e-4 1.61e-4,4.2e-5 3.39e-4,8.3e-5 5.02e-4,1.7e-4 l -1.63e-4,-1.7e-4 c -0.101942,-2.559759 -0.111592,-5.123266 0,-7.691478 l 1.63e-4,-1.67e-4 c -4.4e-5,1.1e-5 -7.3e-5,-1.3e-5 -1.63e-4,0 h -1.78e-4 c -0.434875,0.104073 -0.861823,0.101274 -1.28157,0 l 6.67e-4,8.39e-4 -9.79e-4,-6.72e-4 c 0.06209,1.195504 0.09454,2.392086 0.09897,3.589553 -1.43394,0.03336 -2.866779,0.03606 -4.297842,0 0.0045,-1.197467 0.0369,-2.394049 0.09897,-3.589553 l -9.94e-4,6.72e-4 6.82e-4,-8.39e-4 c -0.419762,0.101274 -0.846873,0.104073 -1.281749,0 z m 11.113529,0.362438 h 1.62e-4 c 0.0237,-5.05e-4 0.04756,0 0.07126,0 1.663059,0 2.884397,1.132749 2.884397,3.499723 0,2.363993 -1.219827,3.496605 -2.881269,3.496605 -1.812789,0 -2.87798,-1.299122 -2.87798,-3.490202 0,-2.478045 1.312447,-3.475606 2.803419,-3.506126 z M 20.58378,44.825269 c 0.424637,1.183439 0.891771,2.376005 1.366164,3.571983 l -5.04e-4,-1.67e-4 c -0.909136,0.0315 -1.818094,0.03196 -2.727229,0 l -0.0013,8.23e-4 c 0.555606,-1.409247 1.084646,-2.770681 1.363361,-3.572639 z m 30.407095,6.166354 c -0.403299,0 -0.604506,0.307686 -0.604506,0.638496 0,0.390013 0.311625,0.589881 0.696789,0.589881 0.278581,0 0.582501,-0.169383 0.582501,-0.628804 0,-0.368729 -0.288791,-0.599573 -0.674784,-0.599573 z"
     id="path14" />
  <path
     style="fill:#ffffff;opacity:0.1"
     d="M 6.8007812 4 C 5.2495813 4 4 5.2495813 4 6.8007812 L 4 7.8007812 C 4 6.2495813 5.2495813 5 6.8007812 5 L 57.199219 5 C 58.750419 5 60 6.2495813 60 7.8007812 L 60 6.8007812 C 60 5.2495813 58.750419 4 57.199219 4 L 6.8007812 4 z"
     id="path16" />
  <circle
     cx="-1465.1672"
     cy="-1305.7003"
     r="0"
     id="circle994"
     style="fill:#5e4aa6" />
  <circle
     cx="-365.65726"
     cy="-40.192348"
     r="0"
     fill-rule="evenodd"
     id="circle996"
     style="fill:#5e4aa6" />
  <circle
     cx="-1405.7672"
     cy="-1241.6003"
     r="0"
     id="circle998"
     style="fill:#5e4aa6" />
  <circle
     cx="-1330.2672"
     cy="-1243.8004"
     r="0"
     id="circle1000"
     style="fill:#5e4aa6" />
  <circle
     cx="-230.73026"
     cy="21.657656"
     r="0"
     fill-rule="evenodd"
     id="circle1002"
     style="fill:#5e4aa6" />
  <g
     transform="matrix(3.7796,0,0,3.7796,-81.685261,-2.6826449)"
     stroke-width="0.26458"
     id="g1018"
     style="fill:#5e4aa6">
    <circle
       cx="-305.04999"
       cy="-323.78"
       r="0"
       id="circle1004" />
    <circle
       cx="-312.62"
       cy="-328.60999"
       r="0"
       id="circle1006" />
    <circle
       cx="-312.62"
       cy="-328.60999"
       r="0"
       id="circle1008" />
    <circle
       cx="-294.38"
       cy="-326.48001"
       r="0"
       id="circle1010" />
    <circle
       cx="-288.29001"
       cy="-333.29999"
       r="0"
       id="circle1012" />
    <circle
       cx="-291.10999"
       cy="-326.23999"
       r="0"
       id="circle1014" />
    <circle
       cx="-311.07001"
       cy="-330.67999"
       r="0"
       id="circle1016" />
  </g>
  <circle
     cx="-1465.1672"
     cy="-1305.7003"
     r="0"
     id="circle1020"
     style="fill:#5e4aa6" />
  <circle
     cx="-365.65726"
     cy="-40.192348"
     r="0"
     fill-rule="evenodd"
     id="circle1022"
     style="fill:#5e4aa6" />
  <circle
     cx="-1405.7672"
     cy="-1241.6003"
     r="0"
     fill="#5e4aa6"
     id="circle1026" />
  <circle
     cx="-1405.7714"
     cy="-1241.6371"
     r="0"
     fill="#5e4aa6"
     stroke-width="1.00001"
     id="circle1028" />
  <circle
     cx="-306.21387"
     cy="23.854336"
     r="0"
     fill="#5e4aa6"
     fill-rule="evenodd"
     stroke-width="1.00001"
     id="circle1030" />
</svg>
