<?xml version="1.0" encoding="UTF-8"?>
<svg width="64" height="64" version="1.1" xmlns="http://www.w3.org/2000/svg" xmlns:xlink="http://www.w3.org/1999/xlink">
 <defs>
  <linearGradient id="linearGradient924" x1="162.61" x2="162.61" y1="15.335" y2="27.41" gradientTransform="matrix(3.6671 0 0 3.6671 -494.64 -24.725)" gradientUnits="userSpaceOnUse" xlink:href="#linearGradient922"/>
  <linearGradient id="linearGradient922">
   <stop stop-color="#91aab4" offset="0"/>
   <stop stop-color="#648291" offset="1"/>
  </linearGradient>
  <linearGradient id="linearGradient951" x1="156.58" x2="168.85" y1="15.3" y2="27.534" gradientTransform="matrix(3.6671 0 0 3.6671 -494.64 -24.56)" gradientUnits="userSpaceOnUse" xlink:href="#linearGradient922"/>
  <linearGradient id="linearGradient965" x1="162.73" x2="163.37" y1="20.333" y2="19.09" gradientTransform="matrix(4.2311 0 0 4.2311 -576.71 -36.748)" gradientUnits="userSpaceOnUse">
   <stop stop-color="#fafafa" offset="0"/>
   <stop stop-color="#c8e6f0" offset="1"/>
  </linearGradient>
 </defs>
 <g transform="translate(-70.168 -21.651)">
  <g fill="#5a7882" stroke-width="3.6671">
   <path d="m97.786 25.649h8.8391c0.86033 0 1.4392 0.70017 1.553 1.553l0.97464 7.3079c0.11369 0.85281-0.69265 1.5529-1.553 1.5529h-10.95c-0.86034 0-1.6853-0.70286-1.553-1.5529l1.137-7.3079c0.13236-0.85013 0.69265-1.553 1.553-1.553z"/>
   <path d="m97.786 81.653h8.8391c0.86033 0 1.4392-0.70017 1.553-1.5529l0.97464-7.3079c0.11369-0.85281-0.69265-1.553-1.553-1.553h-10.95c-0.86034 0-1.6853 0.70286-1.553 1.553l1.137 7.3079c0.13236 0.85013 0.69265 1.5529 1.553 1.5529z"/>
   <path d="m124.19 35.897 4.4196 7.6551c0.43013 0.7451 0.11327 1.5965-0.56841 2.1215l-5.8414 4.4981c-0.6817 0.52482-1.6913 0.17662-2.1214-0.56841l-5.4754-9.4838c-0.43014-0.7451-0.23397-1.8109 0.56848-2.1215l6.8969-2.6692c0.80245-0.3104 1.6913-0.17669 2.1215 0.56848z"/>
   <path d="m75.712 63.897 4.4196 7.6551c0.4302 0.7451 1.326 0.89633 2.1214 0.56841l6.8163-2.8099c0.7954-0.32799 0.99861-1.3764 0.56841-2.1215l-5.4754-9.4838c-0.4302-0.7451-1.4513-1.1081-2.1215-0.56841l-5.7603 4.6385c-0.67002 0.53973-0.99854 1.3764-0.56834 2.1215z"/>
   <path d="m128.62 63.897-4.4196 7.6551c-0.4302 0.74503-1.3259 0.8964-2.1215 0.56841l-6.8163-2.8099c-0.79533-0.32792-0.99861-1.3764-0.56841-2.1214l5.4754-9.4838c0.4302-0.74503 1.4513-1.1081 2.1215-0.56841l5.7603 4.6385c0.67008 0.53973 0.9986 1.3764 0.5684 2.1215z"/>
   <path d="m80.151 35.897-4.4196 7.6551c-0.43013 0.7451-0.11329 1.5965 0.56841 2.1214l5.8414 4.4981c0.6817 0.52482 1.6913 0.17662 2.1214-0.56841l5.4754-9.4838c0.43013-0.7451 0.23397-1.8109-0.56841-2.1215l-6.8969-2.6692c-0.80238-0.3104-1.6913-0.17662-2.1214 0.56854z"/>
  </g>
  <g stroke-dashoffset=".42096">
   <circle cx="102.11" cy="53.649" r="22.419" fill="url(#linearGradient924)" stroke="url(#linearGradient951)" stroke-width=".29107"/>
   <circle transform="rotate(90)" cx="53.649" cy="-102.11" r="12.614" fill="#2a495d" stroke="#4f6c7a" stroke-width="6.4603"/>
   <path d="m102.11 66.267a12.614 12.614 0 0 1-12.506-10.965 12.614 12.614 0 0 1 9.236-13.832 12.614 12.614 0 0 1 14.921 7.3482" fill="none" stroke="#00a2f3" stroke-width="6.4603"/>
  </g>
  <circle cx="112.82" cy="46.819" r="4.9333" fill="url(#linearGradient965)" stroke-width="3.6671"/>
 </g>
</svg>
